<svg version="1.1" xmlns="http://www.w3.org/2000/svg" xmlns:xlink="http://www.w3.org/1999/xlink" width="52.75" height="52.75" viewBox="0,0,52.75,52.75"><g transform="translate(-213.625,-153.625)"><g data-paper-data="{&quot;isPaintingLayer&quot;:true}" fill-rule="nonzero" stroke-linejoin="miter" stroke-miterlimit="10" stroke-dasharray="" stroke-dashoffset="0" style="mix-blend-mode: normal"><path d="M214.875,205.125v-50.25h50.25v50.25z" fill="#7f7f7f" stroke="#5e5e5e" stroke-width="2.5" stroke-linecap="butt"/><path d="M254.6875,198.4872v-8.5h3.75v8.5z" fill="#7a563e" stroke="#573e2d" stroke-width="1.5" stroke-linecap="butt"/><path d="M221.5625,198.4872v-8.5h3.75v8.5z" fill="#7a563e" stroke="#573e2d" stroke-width="1.5" stroke-linecap="butt"/><path d="M221.5625,194.2372v-20.39105h36.875v20.39105z" fill="#9a6d4e" stroke="#704f39" stroke-width="1.5" stroke-linecap="butt"/><path d="M221.5625,172.73504v-11.22223h36.875v11.22223z" fill="#8c8c8c" stroke="#707070" stroke-width="1.5" stroke-linecap="butt"/><path d="M243.24306,164.62084c0,-0.41422 0.33578,-0.75 0.75,-0.75c0.41422,0 0.75,0.33578 0.75,0.75c0,0.41422 -0.33578,0.75 -0.75,0.75c-0.41422,0 -0.75,-0.33578 -0.75,-0.75z" fill="#707070" stroke="none" stroke-width="0.5" stroke-linecap="butt"/><path d="M240.36806,164.49584c0,-0.41422 0.33578,-0.75 0.75,-0.75c0.41422,0 0.75,0.33578 0.75,0.75c0,0.41422 -0.33578,0.75 -0.75,0.75c-0.41422,0 -0.75,-0.33578 -0.75,-0.75z" fill="#707070" stroke="none" stroke-width="0.5" stroke-linecap="butt"/><path d="M237.61806,164.37084c0,-0.41422 0.33578,-0.75 0.75,-0.75c0.41422,0 0.75,0.33578 0.75,0.75c0,0.41422 -0.33578,0.75 -0.75,0.75c-0.41422,0 -0.75,-0.33578 -0.75,-0.75z" fill="#707070" stroke="none" stroke-width="0.5" stroke-linecap="butt"/><path d="M234.6875,164.74584c0,-0.41422 0.33578,-0.75 0.75,-0.75c0.41422,0 0.75,0.33578 0.75,0.75c0,0.41422 -0.33578,0.75 -0.75,0.75c-0.41422,0 -0.75,-0.33578 -0.75,-0.75z" fill="#707070" stroke="none" stroke-width="0.5" stroke-linecap="butt"/><path d="M231.8125,164.62084c0,-0.41422 0.33578,-0.75 0.75,-0.75c0.41422,0 0.75,0.33578 0.75,0.75c0,0.41422 -0.33578,0.75 -0.75,0.75c-0.41422,0 -0.75,-0.33578 -0.75,-0.75z" fill="#707070" stroke="none" stroke-width="0.5" stroke-linecap="butt"/><path d="M229.0625,164.49584c0,-0.41422 0.33578,-0.75 0.75,-0.75c0.41422,0 0.75,0.33578 0.75,0.75c0,0.41422 -0.33578,0.75 -0.75,0.75c-0.41422,0 -0.75,-0.33578 -0.75,-0.75z" fill="#707070" stroke="none" stroke-width="0.5" stroke-linecap="butt"/><path d="M229.0625,164.49584c0,-0.41422 0.33578,-0.75 0.75,-0.75c0.41422,0 0.75,0.33578 0.75,0.75c0,0.41422 -0.33578,0.75 -0.75,0.75c-0.41422,0 -0.75,-0.33578 -0.75,-0.75z" fill="#707070" stroke="none" stroke-width="0.5" stroke-linecap="butt"/><path d="M226.1875,164.37084c0,-0.41422 0.33578,-0.75 0.75,-0.75c0.41422,0 0.75,0.33578 0.75,0.75c0,0.41422 -0.33578,0.75 -0.75,0.75c-0.41422,0 -0.75,-0.33578 -0.75,-0.75z" fill="#707070" stroke="none" stroke-width="0.5" stroke-linecap="butt"/><path d="M223.4375,164.24584c0,-0.41422 0.33578,-0.75 0.75,-0.75c0.41422,0 0.75,0.33578 0.75,0.75c0,0.41422 -0.33578,0.75 -0.75,0.75c-0.41422,0 -0.75,-0.33578 -0.75,-0.75z" fill="#707070" stroke="none" stroke-width="0.5" stroke-linecap="butt"/><path d="M243.28472,167.28752c0,-0.41422 0.33578,-0.75 0.75,-0.75c0.41422,0 0.75,0.33578 0.75,0.75c0,0.41422 -0.33578,0.75 -0.75,0.75c-0.41422,0 -0.75,-0.33578 -0.75,-0.75z" fill="#707070" stroke="none" stroke-width="0.5" stroke-linecap="butt"/><path d="M240.40972,167.16252c0,-0.41422 0.33578,-0.75 0.75,-0.75c0.41422,0 0.75,0.33578 0.75,0.75c0,0.41422 -0.33578,0.75 -0.75,0.75c-0.41422,0 -0.75,-0.33578 -0.75,-0.75z" fill="#707070" stroke="none" stroke-width="0.5" stroke-linecap="butt"/><path d="M237.65972,167.03752c0,-0.41422 0.33578,-0.75 0.75,-0.75c0.41422,0 0.75,0.33578 0.75,0.75c0,0.41422 -0.33578,0.75 -0.75,0.75c-0.41422,0 -0.75,-0.33578 -0.75,-0.75z" fill="#707070" stroke="none" stroke-width="0.5" stroke-linecap="butt"/><path d="M234.72917,167.41252c0,-0.41422 0.33578,-0.75 0.75,-0.75c0.41422,0 0.75,0.33578 0.75,0.75c0,0.41422 -0.33578,0.75 -0.75,0.75c-0.41422,0 -0.75,-0.33578 -0.75,-0.75z" fill="#707070" stroke="none" stroke-width="0.5" stroke-linecap="butt"/><path d="M231.85417,167.28752c0,-0.41422 0.33578,-0.75 0.75,-0.75c0.41422,0 0.75,0.33578 0.75,0.75c0,0.41422 -0.33578,0.75 -0.75,0.75c-0.41422,0 -0.75,-0.33578 -0.75,-0.75z" fill="#707070" stroke="none" stroke-width="0.5" stroke-linecap="butt"/><path d="M229.10417,167.16252c0,-0.41422 0.33578,-0.75 0.75,-0.75c0.41422,0 0.75,0.33578 0.75,0.75c0,0.41422 -0.33578,0.75 -0.75,0.75c-0.41422,0 -0.75,-0.33578 -0.75,-0.75z" fill="#707070" stroke="none" stroke-width="0.5" stroke-linecap="butt"/><path d="M229.10417,167.16252c0,-0.41422 0.33578,-0.75 0.75,-0.75c0.41422,0 0.75,0.33578 0.75,0.75c0,0.41422 -0.33578,0.75 -0.75,0.75c-0.41422,0 -0.75,-0.33578 -0.75,-0.75z" fill="#707070" stroke="none" stroke-width="0.5" stroke-linecap="butt"/><path d="M226.22917,167.03752c0,-0.41422 0.33578,-0.75 0.75,-0.75c0.41422,0 0.75,0.33578 0.75,0.75c0,0.41422 -0.33578,0.75 -0.75,0.75c-0.41422,0 -0.75,-0.33578 -0.75,-0.75z" fill="#707070" stroke="none" stroke-width="0.5" stroke-linecap="butt"/><path d="M223.47917,166.91252c0,-0.41422 0.33578,-0.75 0.75,-0.75c0.41422,0 0.75,0.33578 0.75,0.75c0,0.41422 -0.33578,0.75 -0.75,0.75c-0.41422,0 -0.75,-0.33578 -0.75,-0.75z" fill="#707070" stroke="none" stroke-width="0.5" stroke-linecap="butt"/><path d="M244.14583,168.84307c0.41422,0 0.75,0.33578 0.75,0.75c0,0.41422 -0.33578,0.75 -0.75,0.75c-0.41422,0 -0.75,-0.33578 -0.75,-0.75c0,-0.41422 0.33578,-0.75 0.75,-0.75z" data-paper-data="{&quot;index&quot;:null}" fill="#707070" stroke="none" stroke-width="0.5" stroke-linecap="butt"/><path d="M241.27083,168.96807c0.41422,0 0.75,0.33578 0.75,0.75c0,0.41422 -0.33578,0.75 -0.75,0.75c-0.41422,0 -0.75,-0.33578 -0.75,-0.75c0,-0.41422 0.33578,-0.75 0.75,-0.75z" data-paper-data="{&quot;index&quot;:null}" fill="#707070" stroke="none" stroke-width="0.5" stroke-linecap="butt"/><path d="M238.52083,169.09307c0.41422,0 0.75,0.33578 0.75,0.75c0,0.41422 -0.33578,0.75 -0.75,0.75c-0.41422,0 -0.75,-0.33578 -0.75,-0.75c0,-0.41422 0.33578,-0.75 0.75,-0.75z" data-paper-data="{&quot;index&quot;:null}" fill="#707070" stroke="none" stroke-width="0.5" stroke-linecap="butt"/><path d="M235.59028,168.71807c0.41422,0 0.75,0.33578 0.75,0.75c0,0.41422 -0.33578,0.75 -0.75,0.75c-0.41422,0 -0.75,-0.33578 -0.75,-0.75c0,-0.41422 0.33578,-0.75 0.75,-0.75z" data-paper-data="{&quot;index&quot;:null}" fill="#707070" stroke="none" stroke-width="0.5" stroke-linecap="butt"/><path d="M232.71528,168.84307c0.41422,0 0.75,0.33578 0.75,0.75c0,0.41422 -0.33578,0.75 -0.75,0.75c-0.41422,0 -0.75,-0.33578 -0.75,-0.75c0,-0.41422 0.33578,-0.75 0.75,-0.75z" data-paper-data="{&quot;index&quot;:null}" fill="#707070" stroke="none" stroke-width="0.5" stroke-linecap="butt"/><path d="M229.96528,168.96807c0.41422,0 0.75,0.33578 0.75,0.75c0,0.41422 -0.33578,0.75 -0.75,0.75c-0.41422,0 -0.75,-0.33578 -0.75,-0.75c0,-0.41422 0.33578,-0.75 0.75,-0.75z" data-paper-data="{&quot;index&quot;:null}" fill="#707070" stroke="none" stroke-width="0.5" stroke-linecap="butt"/><path d="M229.96528,168.96807c0.41422,0 0.75,0.33578 0.75,0.75c0,0.41422 -0.33578,0.75 -0.75,0.75c-0.41422,0 -0.75,-0.33578 -0.75,-0.75c0,-0.41422 0.33578,-0.75 0.75,-0.75z" data-paper-data="{&quot;index&quot;:null}" fill="#707070" stroke="none" stroke-width="0.5" stroke-linecap="butt"/><path d="M227.09028,169.09307c0.41422,0 0.75,0.33578 0.75,0.75c0,0.41422 -0.33578,0.75 -0.75,0.75c-0.41422,0 -0.75,-0.33578 -0.75,-0.75c0,-0.41422 0.33578,-0.75 0.75,-0.75z" data-paper-data="{&quot;index&quot;:null}" fill="#707070" stroke="none" stroke-width="0.5" stroke-linecap="butt"/><path d="M224.34028,169.21807c0.41422,0 0.75,0.33578 0.75,0.75c0,0.41422 -0.33578,0.75 -0.75,0.75c-0.41422,0 -0.75,-0.33578 -0.75,-0.75c0,-0.41422 0.33578,-0.75 0.75,-0.75z" data-paper-data="{&quot;index&quot;:null}" fill="#707070" stroke="none" stroke-width="0.5" stroke-linecap="butt"/><path d="M254.68751,164.64861c0,-0.41422 0.33578,-0.75 0.75,-0.75c0.41422,0 0.75,0.33578 0.75,0.75c0,0.41422 -0.33578,0.75 -0.75,0.75c-0.41422,0 -0.75,-0.33578 -0.75,-0.75z" fill="#707070" stroke="none" stroke-width="0.5" stroke-linecap="butt"/><path d="M251.81251,164.52361c0,-0.41422 0.33578,-0.75 0.75,-0.75c0.41422,0 0.75,0.33578 0.75,0.75c0,0.41422 -0.33578,0.75 -0.75,0.75c-0.41422,0 -0.75,-0.33578 -0.75,-0.75z" fill="#707070" stroke="none" stroke-width="0.5" stroke-linecap="butt"/><path d="M249.06251,164.39861c0,-0.41422 0.33578,-0.75 0.75,-0.75c0.41422,0 0.75,0.33578 0.75,0.75c0,0.41422 -0.33578,0.75 -0.75,0.75c-0.41422,0 -0.75,-0.33578 -0.75,-0.75z" fill="#707070" stroke="none" stroke-width="0.5" stroke-linecap="butt"/><path d="M246.13195,164.77361c0,-0.41422 0.33578,-0.75 0.75,-0.75c0.41422,0 0.75,0.33578 0.75,0.75c0,0.41422 -0.33578,0.75 -0.75,0.75c-0.41422,0 -0.75,-0.33578 -0.75,-0.75z" fill="#707070" stroke="none" stroke-width="0.5" stroke-linecap="butt"/><path d="M254.72917,167.31531c0,-0.41422 0.33578,-0.75 0.75,-0.75c0.41422,0 0.75,0.33578 0.75,0.75c0,0.41422 -0.33578,0.75 -0.75,0.75c-0.41422,0 -0.75,-0.33578 -0.75,-0.75z" fill="#707070" stroke="none" stroke-width="0.5" stroke-linecap="butt"/><path d="M251.85417,167.19031c0,-0.41422 0.33578,-0.75 0.75,-0.75c0.41422,0 0.75,0.33578 0.75,0.75c0,0.41422 -0.33578,0.75 -0.75,0.75c-0.41422,0 -0.75,-0.33578 -0.75,-0.75z" fill="#707070" stroke="none" stroke-width="0.5" stroke-linecap="butt"/><path d="M249.10417,167.06531c0,-0.41422 0.33578,-0.75 0.75,-0.75c0.41422,0 0.75,0.33578 0.75,0.75c0,0.41422 -0.33578,0.75 -0.75,0.75c-0.41422,0 -0.75,-0.33578 -0.75,-0.75z" fill="#707070" stroke="none" stroke-width="0.5" stroke-linecap="butt"/><path d="M246.17362,167.44031c0,-0.41422 0.33578,-0.75 0.75,-0.75c0.41422,0 0.75,0.33578 0.75,0.75c0,0.41422 -0.33578,0.75 -0.75,0.75c-0.41422,0 -0.75,-0.33578 -0.75,-0.75z" fill="#707070" stroke="none" stroke-width="0.5" stroke-linecap="butt"/><path d="M255.59028,168.87084c0.41422,0 0.75,0.33578 0.75,0.75c0,0.41422 -0.33578,0.75 -0.75,0.75c-0.41422,0 -0.75,-0.33578 -0.75,-0.75c0,-0.41422 0.33578,-0.75 0.75,-0.75z" data-paper-data="{&quot;index&quot;:null}" fill="#707070" stroke="none" stroke-width="0.5" stroke-linecap="butt"/><path d="M252.71528,168.99584c0.41422,0 0.75,0.33578 0.75,0.75c0,0.41422 -0.33578,0.75 -0.75,0.75c-0.41422,0 -0.75,-0.33578 -0.75,-0.75c0,-0.41422 0.33578,-0.75 0.75,-0.75z" data-paper-data="{&quot;index&quot;:null}" fill="#707070" stroke="none" stroke-width="0.5" stroke-linecap="butt"/><path d="M249.96528,169.12084c0.41422,0 0.75,0.33578 0.75,0.75c0,0.41422 -0.33578,0.75 -0.75,0.75c-0.41422,0 -0.75,-0.33578 -0.75,-0.75c0,-0.41422 0.33578,-0.75 0.75,-0.75z" data-paper-data="{&quot;index&quot;:null}" fill="#707070" stroke="none" stroke-width="0.5" stroke-linecap="butt"/><path d="M247.03473,168.74584c0.41422,0 0.75,0.33578 0.75,0.75c0,0.41422 -0.33578,0.75 -0.75,0.75c-0.41422,0 -0.75,-0.33578 -0.75,-0.75c0,-0.41422 0.33578,-0.75 0.75,-0.75z" data-paper-data="{&quot;index&quot;:null}" fill="#707070" stroke="none" stroke-width="0.5" stroke-linecap="butt"/><path d="M222.16667,174.32918l35,2" fill="none" stroke="#a57554" stroke-width="1.5" stroke-linecap="round"/><path d="M251.83333,174.32918l-29.66666,5.66666" fill="none" stroke="#a57554" stroke-width="1.5" stroke-linecap="round"/><path d="M222.94445,182.99584l34.77777,2.55555" fill="none" stroke="#a57554" stroke-width="1.5" stroke-linecap="round"/><path d="M222.72222,192.77361l34.88889,-11.55555" fill="none" stroke="#a57554" stroke-width="1.5" stroke-linecap="round"/><path d="M257.83333,192.32918l-36.11111,-4.22223" fill="none" stroke="#a57554" stroke-width="1.5" stroke-linecap="round"/><path d="M257.83334,189.3292l-35.66667,-3.88889" fill="none" stroke="#a57554" stroke-width="1.5" stroke-linecap="round"/><path d="M241.83334,180.88473l-19.33334,0.33334" fill="none" stroke="#a57554" stroke-width="1.5" stroke-linecap="round"/><path d="M257.5,179.21807l-9.22222,-0.11112" fill="none" stroke="#a57554" stroke-width="1.5" stroke-linecap="round"/><path d="M243.72222,193.55142l-7.22222,-1.33333" fill="none" stroke="#a57554" stroke-width="1.5" stroke-linecap="round"/><path d="M222.27778,176.32918l35,5.66666" fill="none" stroke="#8d6348" stroke-width="1.5" stroke-linecap="round"/><path d="M221.61111,183.55142l36,-5.77777" fill="none" stroke="#8d6348" stroke-width="1.5" stroke-linecap="round"/><path d="M255.83334,174.32918l-27.44444,8.11111" fill="none" stroke="#8d6348" stroke-width="1.5" stroke-linecap="round"/><path d="M258.05556,186.77362l-36,-7.44445" fill="none" stroke="#8d6348" stroke-width="1.5" stroke-linecap="round"/><path d="M257.94444,184.66253l-35.66666,4.22222" fill="none" stroke="#8d6348" stroke-width="1.5" stroke-linecap="round"/><path d="M221.72222,186.55142l9.33334,-1.44445" fill="none" stroke="#8d6348" stroke-width="1.5" stroke-linecap="round"/><path d="M231.94445,193.21807l-9.44445,-2" fill="none" stroke="#8d6348" stroke-width="1.5" stroke-linecap="round"/><path d="M239.61111,193.55142l17.88889,-2.88888" fill="none" stroke="#8d6348" stroke-width="1.5" stroke-linecap="round"/><path d="M258.05556,188.55142l-22.88889,2.11112" fill="none" stroke="#8d6348" stroke-width="1.5" stroke-linecap="round"/><path d="M221.61111,190.21807l8.11111,0.11111" fill="none" stroke="#8d6348" stroke-width="1.5" stroke-linecap="round"/><path d="M221.5625,194.2372v-20.39105h36.875v20.39105z" fill="none" stroke="#704f39" stroke-width="1.5" stroke-linecap="butt"/><path d="M227.07739,164.72193c0.4208,-0.62083 1.04163,-0.20004 1.04163,-0.20004c0.31794,0.2155 1.35223,0.75935 1.79602,0.6898c0.02282,-0.22869 0.03694,-0.46942 0.04568,-0.70849c-0.01815,-0.03429 -0.03797,-0.07003 -0.05954,-0.10727l-0.02996,-0.06561l-0.09959,0.02993l-0.22804,-0.7588c-0.10307,-0.31662 0.01523,-0.67492 0.30862,-0.86306c0.34867,-0.22361 0.8126,-0.12222 1.0362,0.22646c0.02183,0.03404 0.04056,0.06918 0.05627,0.10509l0.32098,0.70296c0.38455,0.95998 0.36262,1.64017 0.09122,2.08871c-0.00331,0.02764 -0.00694,0.05533 -0.01091,0.08307l0.24399,0.39218c0.57011,1.25712 0.97046,1.71802 0.80824,2.56738l0.22125,0.04835l-0.16774,0.76756c-0.04098,0.18752 -0.1535,0.3594 -0.32783,0.4712c-0.34867,0.22361 -0.8126,0.12222 -1.0362,-0.22646l-0.41987,-0.65471c-0.3705,-0.58062 -0.57925,-0.93735 -0.66814,-1.28053c-0.02563,0.00018 -0.05136,0.0002 -0.07716,0.00005c-0.51864,0.16801 -1.17999,0.08055 -1.99115,-0.43059c-0.29438,-0.1855 -0.46801,-0.51503 -0.70202,-0.77255l-0.01163,-0.0557l-0.01866,0.01197l-0.41987,-0.65471v0c-0.20677,-0.32242 -0.13564,-0.74339 0.15194,-0.98176c0.00103,-0.12669 0.04114,-0.2693 0.14627,-0.4244z" fill="#c6c6c6" stroke="none" stroke-width="0.5" stroke-linecap="butt"/><path d="M247.11768,170.08187c-0.53754,-0.52302 -0.01452,-1.06056 -0.01452,-1.06056l0.24185,-0.20719c0.86721,-0.49479 1.62911,-1.07467 2.32374,-1.79231c0,0 0.52302,-0.53754 1.06056,-0.01452c0.53754,0.52302 0.01452,1.06056 0.01452,1.06056c-0.79763,0.81605 -1.66406,1.47778 -2.65248,2.04741l0.08688,-0.04791c0,0 -0.52302,0.53754 -1.06056,0.01452z" fill="#b6815d" stroke="none" stroke-width="0.5" stroke-linecap="butt"/><path d="M250.67995,165.02137c0.41802,-0.43864 0.94827,-0.07074 0.94827,-0.07074l0.65079,0.46394c0.56627,0.55098 2.29616,1.82127 1.49998,2.87531c-0.02404,0.03182 -0.05268,0.05975 -0.08552,0.084c-0.26511,0.94419 -1.76728,1.20249 -2.49265,0.95035c-0.72594,-0.25233 -2.11228,-1.47894 -3.15251,-2.4713l-0.0224,0.04165l-0.69716,-0.37492c-0.06566,-0.03341 -0.12748,-0.07713 -0.18305,-0.13121c-0.29688,-0.28886 -0.30338,-0.76369 -0.01452,-1.06056c0.1099,-0.11295 0.24673,-0.18387 0.39043,-0.21248l0.77342,-0.16573c0.92956,-0.19089 1.57487,-0.17403 2.38493,0.07168z" fill="#c6c6c6" stroke="none" stroke-width="0.5" stroke-linecap="butt"/><path d="M232.45419,160.41921c0.34741,-0.18291 0.74312,-0.28642 1.16302,-0.28642c0.02201,0 0.04396,0.00028 0.06584,0.00085l0.07392,-0.01643l0.03208,0.02139c0.18463,0.01253 0.36375,0.04511 0.53522,0.09557l0.27901,-0.13951l0.01393,-0.02438l0.06966,-0.01742l0.06231,-0.03115l0.45,-0.1l0.3,-0.15l0.17566,-0.03903l0.15181,-0.09661l0.15809,-0.0527l0.00748,-0.0131l0.06966,-0.01742l0.06231,-0.03115l0.45,-0.1l0.1541,-0.07705l0.01393,-0.02438l0.06966,-0.01742l0.06231,-0.03115l0.56075,-0.12461l0.55728,-0.13932h0.06966l0.07009,-0.01558l0.02336,0.01558h0.08688l0.5,-0.125h0.06966l0.07009,-0.01558l0.02336,0.01558h0.83688l0.5,-0.125h0.06966l0.07009,-0.01558l0.02336,0.01558h2.33688l0.38988,0.09747l0.3579,0.02753h0.25222l0.38988,0.09747l0.40069,0.03082l0.31925,0.10642l0.00043,-0.00028l0.07009,0.01558h0.06966l0.55728,0.13932l0.56075,0.12461l0.06231,0.03115l0.06966,0.01742l0.01393,0.02438l0.19519,0.09759l0.20645,0.06882l0.15181,0.09661l0.17566,0.03903l0.75,0.375l0.11994,0.10281l0.14877,0.05313l0.2455,0.16366l0.11079,0.05539l0.11994,0.10281l0.14877,0.05313l0.2455,0.16366l0.36079,0.18039l0.20193,0.17308l0.24177,0.11081l0.625,0.5l0.08532,0.11198l0.12071,0.07243l0.21313,0.21313l0.13714,0.06857l0.30513,0.26154l0.34461,0.20676l1,1l0.12811,0.21352l0.18425,0.1675l0.11268,0.16903l1.19996,1.19996l0.05947,0.09911l0.09332,0.0682l0.5524,0.66288l0.29481,0.29481l0.12811,0.21352l0.18425,0.1675l0.36268,0.54403l0.07496,0.07496l0.12811,0.21352l0.18425,0.1675l0.25,0.375l0.05313,0.14877l0.10281,0.11994l0.375,0.75l0.02301,0.10356l0.06211,0.086l0.25,0.625l0.01016,0.07449l0.04036,0.06342l0.06882,0.20645l0.04554,0.09109l0.03903,0.17566l0.09661,0.15181l0.06882,0.20645l0.17054,0.34109l0.03903,0.17566l0.09661,0.15181l0.19382,0.58145l0.42054,0.84109l0.07244,0.32597l0.14295,0.30178l0.05934,0.29671l0.15233,0.30465l0.02438,0.01393l0.01742,0.06966l0.03115,0.06231l0.12461,0.56075l0.13932,0.55728v0.06966l0.01558,0.07009l-0.0131,0.01965l0.00175,0.02276l0.04613,0.08649l0.125,0.5v0.30776l0.07464,0.29857v0.06724l0.05036,0.20143v0.30776l0.07464,0.29857v0.37722l0.02753,0.3579l0.09747,0.38988v5.375l-0.09747,0.38988l-0.02753,0.3579v0.00222l-0.00025,0.00099l-0.00304,0.03958l-0.0274,0.08221l-0.04395,0.1758v0.30776l-0.05036,0.20143v0.06724l-0.07464,0.29857v0.30776l-0.05036,0.20143v0.06724l-0.07464,0.29857v0.30776l-0.25,1l-0.12956,0.24293l-0.05973,0.26876l-0.2035,0.40699l-0.1841,0.46024l-0.10177,0.3053l-0.17927,0.28172l-0.11231,0.31447l-0.60561,0.90841l-0.15333,0.38331l-0.19316,0.26746l-0.106,0.25174l0.05824,0.09706l0.1875,0.1875l0.08176,0.13627l0.01154,0.01346l0.01731,0.03461l0.07689,0.12815l0.1875,0.1875l0.08176,0.13627l0.01154,0.01346l0.01731,0.03461l0.09616,0.16026l0.26154,0.30513l0.03212,0.06424l0.32813,0.28125l0.00692,0.12453l0.13284,0.15498l0.15712,0.31424l0.32813,0.28125l0.00312,0.05625l0.37188,0.31875l0.00548,0.09857l0.08571,0.04898l0.3125,1.25v0.25l-0.0082,0.03278l0.02377,0.10697l-0.08082,0.12124l-0.24725,0.98901l-0.66568,0.38039l-0.40379,0.60568l-0.59801,-0.03322l-0.52002,0.29715l-0.63203,-0.36116l-0.00206,-0.00011l-0.15382,0.04195l-0.09275,-0.05565l-0.51688,-0.02872l-0.49993,-0.58326l-0.2271,-0.2271l-0.06292,-0.03595l-0.00899,-0.03595l-0.07128,-0.07128l-0.06535,-0.10891l-0.0132,-0.01132l-0.0003,-0.00538l-0.10556,-0.08043l-0.14891,-0.18614l-0.12023,-0.10305l-0.00282,-0.05076l-0.14154,-0.17693l-0.52709,-0.52709l-0.09258,-0.1543l-0.13965,-0.11347l-0.18525,-0.247l-0.09782,0.08893l-0.33018,0.3632l-0.16903,0.11268l-0.19996,0.19996l-0.09911,0.05947l-0.0682,0.09332l-0.75,0.625l-0.12233,0.05906l-0.09138,0.10052l-0.375,0.25l-0.14877,0.05313l-0.11994,0.10281l-0.36079,0.18039l-0.2455,0.16366l-0.14877,0.05313l-0.11994,0.10281l-0.5,0.25l-0.07338,0.01631l-0.05985,0.04549l-0.875,0.375l-0.03093,0.00499l-0.0254,0.01834l-0.625,0.25l-0.26874,0.03665l-0.24874,0.10815l-0.65152,0.10859l-0.23854,0.05963l-0.46747,0.18699l-0.22916,0.03125l-0.20902,0.09901l-0.625,0.125l-0.07095,-0.00338l-0.06578,0.0268l-0.875,0.125l-0.17899,-0.01852l-0.17457,0.04364h-4.625l-0.38988,-0.09747l-0.3579,-0.02753h-0.25222l-0.24157,-0.06039l-0.24872,0.01184l-0.625,-0.125l-0.05509,-0.0261h-0.06096l-0.40314,-0.10079l-0.65152,-0.10859l-0.34248,-0.1489l-0.36456,-0.08101l-0.17075,-0.08538l-0.37678,-0.02898l-0.375,-0.125l-0.15181,-0.09661l-0.17566,-0.03903l-0.34109,-0.17054l-0.20645,-0.06882l-0.21007,-0.13368l-0.2397,-0.06742l-0.81475,-0.46557l-0.27902,-0.13951l-0.20645,-0.06882l-0.28172,-0.17927l-0.31447,-0.11231l-0.9955,-0.66366l-0.86079,-0.43039l-0.07443,-0.06379l-0.09378,-0.02854l-0.625,-0.375l-0.0431,-0.0431l-0.05741,-0.0205l-1.125,-0.75l-0.01964,-0.0216l-0.02727,-0.01044l-1.25,-0.875l-0.05367,-0.0618l-0.07441,-0.03411l-0.625,-0.5l-0.08532,-0.11198l-0.12071,-0.07243l-0.75,-0.75l-0.12811,-0.21352l-0.18425,-0.1675l-0.11268,-0.16903l-0.07496,-0.07496l-0.12811,-0.21352l-0.18425,-0.1675l-0.18982,-0.28473l-0.43223,-0.54028l-0.11081,-0.24177l-0.17308,-0.20193l-0.05539,-0.11079l-0.16366,-0.2455l-0.05313,-0.14877l-0.10281,-0.11994l-0.25,-0.5l-0.03903,-0.17566l-0.09661,-0.15181l-0.06882,-0.20645l-0.17054,-0.34109l-0.05973,-0.26876l-0.12956,-0.24293l-0.08385,-0.3354l-0.18699,-0.46747l-0.01016,-0.07449l-0.04036,-0.06342l-0.125,-0.375l-0.00752,-0.09774l-0.04613,-0.08649l-0.125,-0.5v-0.30776l-0.04395,-0.1758l-0.0274,-0.08221l-0.00304,-0.03958l-0.00025,-0.00099v-0.00222l-0.02753,-0.3579l-0.09747,-0.38988v-0.12722l-0.01414,-0.18378l-0.08574,-0.21045l-0.09312,-0.65184l-0.05371,-0.16114l-0.03082,-0.40069l-0.09747,-0.38988v-2.75l0.09747,-0.38988l0.02753,-0.3579v-0.37722l0.09747,-0.38988l0.02753,-0.3579v-0.12722l0.09747,-0.38988l0.03082,-0.40069l0.06297,-0.18891l0.09275,-0.55652l0.1489,-0.34248l0.08101,-0.36456l0.04554,-0.09109l0.0196,-0.05879l0.04044,-0.2022l-0.01009,-0.01513l0.01558,-0.07009v-0.06966l0.13932,-0.55728l0.12461,-0.56075l0.03115,-0.06231l0.01742,-0.06966l0.0131,-0.00748l0.02233,-0.067l0.22671,-0.90685l0.08601,-0.16126l0.06182,-0.24728l0.03082,-0.40069l0.125,-0.375l0.09661,-0.15181l0.03903,-0.17566l0.04554,-0.09109l0.06882,-0.20645l0.04036,-0.06342l0.01016,-0.07449l0.18699,-0.46747l0.08385,-0.3354l0.04613,-0.08649l0.00752,-0.09774l0.125,-0.375l0.09661,-0.15181l0.03903,-0.17566l0.04554,-0.09109l0.01723,-0.0517l-0.00739,-0.02709l0.03694,-0.06157l0.02203,-0.06609l0.3084,-0.48463l0.04457,-0.07429l0.02203,-0.06609l0.09661,-0.15181l0.03903,-0.17566l0.04554,-0.09109l0.06882,-0.20645l0.06958,-0.10933l-0.00355,-0.01301l0.03816,-0.06361l0.03145,-0.14152l0.125,-0.25l0.26154,-0.30513l0.20676,-0.34461l0.07496,-0.07496l0.02635,-0.03952l0.05539,-0.11079l0.26154,-0.30513l0.05281,-0.08802l-0.22105,-0.22105l-0.07243,-0.12071l-0.11198,-0.08532l-0.5,-0.625l-0.01671,-0.03645l-0.03112,-0.02529l-0.375,-0.5l-0.08818,-0.20943l-0.14789,-0.17253l-0.18039,-0.36079l-0.16366,-0.2455l-0.01337,-0.03743l-0.05405,-0.003l-0.14943,-0.17434l-0.17434,-0.14943l-0.00313,-0.05625l-0.37187,-0.31875l-0.00692,-0.12453l-0.13284,-0.15498l-0.125,-0.25l-0.27951,-1.25779l0.41074,-0.61611l-0.00623,-0.11217l0.14582,-0.09721l0.84721,-1.27082l0.97755,0.05431l0.12573,-0.08382l0.54481,0.12107l0.86749,0.04819l0.14367,0.16761l0.33214,0.19928l0.11969,-0.00665l0.08718,0.13077l0.37821,0.22693l0.28461,0.14231l0.15498,0.13284l0.12453,0.00692l0.28125,0.32813l0.06424,0.03212l0.30513,0.26154l0.16026,0.09616l0.28461,0.14231l0.15498,0.13284l0.12453,0.00692l0.19636,0.22909l0.0311,-0.00777h0.06966l0.07009,-0.01558l0.02336,0.01558h0.58688l0.5,-0.125h0.03483l0.33292,-0.16646l0.2455,-0.16366l0.31447,-0.11231l0.28172,-0.17927l0.20645,-0.06882l0.3757,-0.18785l0.16026,-0.09616l0.30513,-0.26154zM228.19734,170.39454l-0.16569,0.15062l-0.04273,0.1282l-0.09661,0.15181l-0.03903,0.17566l-0.04554,0.09109l-0.01723,0.0517l0.00739,0.02709l-0.03694,0.06157l-0.02203,0.06609l-0.3084,0.48463l-0.04457,0.07429l-0.02203,0.06609l-0.09661,0.15181l-0.03903,0.17566l-0.04554,0.09109l-0.03845,0.11536l-0.10171,0.40685l-0.08093,0.15174l-0.02324,0.1704l-0.22272,0.55679l-0.10177,0.3053l-0.09661,0.15181l-0.03903,0.17566l-0.03115,0.06231l-0.09424,0.37694l-0.06032,0.27146v0.0276l-0.0552,0.22082l-0.00908,0.04088l-0.00227,0.00454l-0.18344,0.73376l-0.04613,0.08649l-0.00752,0.09774l-0.125,0.375l-0.05649,0.08877l0.01124,0.23595l-0.125,0.625l-0.06763,0.14277l-0.01212,0.15751l-0.125,0.375l-0.07088,0.11139l-0.08484,0.50904l-0.07907,0.18186l-0.01192,0.15492v0.12722l-0.09747,0.38988l-0.02753,0.3579v0.37722l-0.09747,0.38988l-0.02753,0.3579v2.00445l0.01414,0.18378l0.08574,0.21045l0.09312,0.65184l0.05371,0.16114l0.03082,0.40069l0.09747,0.38988v0.12722l0.02753,0.3579l0.09747,0.38988v0.06724l0.02707,0.10828l0.07141,0.21422l0.22272,0.55679l0.02324,0.1704l0.08093,0.15174l0.05844,0.23376l0.12727,0.25454l0.03903,0.17566l0.09661,0.15181l0.06882,0.20645l0.10094,0.20187l0.16366,0.2455l0.05078,0.14218l0.04617,0.05771l0.059,0.06883l0.00656,0.01311l0.33455,0.41819l0.04609,0.10057l0.08186,0.07442l0.11268,0.16903l0.07496,0.07496l0.12811,0.21352l0.18425,0.1675l0.11268,0.16903l0.47705,0.47705l0.45437,0.3635l1.16115,0.81281l1.05187,0.70124l0.49166,0.29499l0.91412,0.45706l0.11994,0.10281l0.14877,0.05313l0.84643,0.56429l0.05739,0.01913l0.15181,0.09661l0.17566,0.03903l0.5,0.25l0.05393,0.04623l0.06838,0.01923l0.66007,0.37718l0.14015,0.04672l0.15181,0.09661l0.17566,0.03903l0.31231,0.15615l0.37694,0.09424l0.56075,0.12461l0.06231,0.03115l0.06966,0.01742l0.01393,0.02438l0.01787,0.00893l0.3792,0.0632l0.09345,0.04063h0.1019l0.44229,0.11057l0.32392,0.06478h0.37745l0.38988,0.09747l0.3579,0.02753h4.07455l0.63042,-0.09006l0.33188,-0.06638l0.41189,-0.16475l0.1704,-0.02324l0.15174,-0.08093l0.5,-0.125h0.1019l0.09345,-0.04063l0.48343,-0.08057l0.34578,-0.13831l0.77946,-0.33405l0.29508,-0.14754l0.2455,-0.16366l0.14877,-0.05313l0.11994,-0.10281l0.36079,-0.18039l0.13438,-0.08959l0.56029,-0.46691l0.29481,-0.29481l0.21352,-0.12811l0.08203,-0.09023l0.01709,-0.02564l0.03582,-0.03256l0.03256,-0.03582l0.02564,-0.01709l0.09023,-0.08203l0.12811,-0.21352l0.00111,-0.00111l-0.4199,-0.52487l-0.5364,-0.64368l-0.54481,-0.54481l-0.09258,-0.1543l-0.13965,-0.11347l-0.2684,-0.35786l-0.74937,-0.74937l-0.12811,-0.21352l-0.18425,-0.1675l-0.11268,-0.16903l-0.69996,-0.69996l-0.07243,-0.12071l-0.11198,-0.08532l-0.48438,-0.60548l-0.5364,-0.64368l-1.66981,-1.66981l-0.07243,-0.12071l-0.11198,-0.08532l-0.4135,-0.51688l-1.27709,-1.27709l-0.04687,-0.07812l-0.07813,-0.04688l-7.49937,-7.49937l-0.35786,-0.2684l-0.11347,-0.13965l-0.1543,-0.09258l-2.875,-2.875l-0.12811,-0.21352l-0.18425,-0.1675l-0.01246,-0.01869l-0.1019,-0.07643l-0.31726,-0.21151l-0.1675,-0.18425l-0.21352,-0.12811l-0.81614,-0.81614l-0.42372,-0.37075zM253.85138,188.3996l0.01913,-0.05739l0.04036,-0.06342l0.01016,-0.07449l0.25,-0.625l0.06211,-0.086l0.02301,-0.10356l0.12727,-0.25454l0.1088,-0.43519v-0.06724l0.07464,-0.29857v-0.30776l0.05036,-0.20143v-0.06724l0.07464,-0.29857v-0.30776l0.05036,-0.20143v-0.06724l0.09747,-0.38988l0.02753,-0.3579v-4.62945l-0.02753,-0.3579l-0.09747,-0.38988v-0.44224l-0.05036,-0.20143v-0.30776l-0.07464,-0.29857v-0.06724l-0.02707,-0.10828l-0.09464,-0.28391l-0.03082,-0.40069l-0.05238,-0.20954l-0.15615,-0.31231l-0.07244,-0.32597l-0.14295,-0.30178l-0.05934,-0.29671l-0.35028,-0.70055l-0.03903,-0.17566l-0.09661,-0.15181l-0.19382,-0.58145l-0.17054,-0.34109l-0.03903,-0.17566l-0.09661,-0.15181l-0.06882,-0.20645l-0.04554,-0.09109l-0.03903,-0.17566l-0.09661,-0.15181l-0.10177,-0.3053l-0.1841,-0.46024l-0.25889,-0.51778l-0.02635,-0.03952l-0.07496,-0.07496l-0.12811,-0.21352l-0.18425,-0.1675l-0.36268,-0.54403l-0.19996,-0.19996l-0.05947,-0.09911l-0.09332,-0.0682l-0.5524,-0.66288l-1.29481,-1.29481l-0.12811,-0.21352l-0.18425,-0.1675l-0.11268,-0.16903l-0.53809,-0.53809l-0.13714,-0.06857l-0.30513,-0.26154l-0.34461,-0.20676l-0.40209,-0.40209l-0.31006,-0.24805l-0.26311,-0.13156l-0.11994,-0.10281l-0.14877,-0.05313l-0.2455,-0.16366l-0.11079,-0.05539l-0.11994,-0.10281l-0.14877,-0.05313l-0.2455,-0.16366l-0.45187,-0.22594l-0.20645,-0.06882l-0.15181,-0.09661l-0.17566,-0.03903l-0.18731,-0.09365l-0.12694,-0.03174l-0.39618,-0.08804l-0.29431,-0.02264h-0.25222l-0.38988,-0.09747l-0.3579,-0.02753h-1.87722l-0.5,0.125h-0.06966l-0.07009,0.01558l-0.02336,-0.01558h-0.83688l-0.31966,0.07992l-0.06231,0.03115l-0.45,0.1l-0.05,0.025l-0.17566,0.03903l-0.15181,0.09661l-0.20645,0.06882l-0.19519,0.09759l-0.01393,0.02438l-0.06966,0.01742l-0.06231,0.03115l-0.45,0.1l-0.55,0.275l-0.17566,0.03903l-0.15181,0.09661l-0.20645,0.06882l-0.1257,0.06285l-0.16026,0.09616l-0.30513,0.26154l-0.1041,0.05205l-0.01393,0.02438l-0.06966,0.01742l-0.06231,0.03115l-0.14152,0.03145l-0.06361,0.03816l-0.04855,-0.01324l-0.19633,0.04363l-1.4041,0.70205l-0.01393,0.02438l-0.06966,0.01742l-0.06231,0.03115l-0.56075,0.12461l-0.23405,0.05851l0.18852,0.12568l0.1675,0.18425l0.21352,0.12811l0.21313,0.21313l0.13714,0.06857l0.30513,0.26154l0.34461,0.20676l0.57496,0.57496l0.16903,0.11268l0.1675,0.18425l0.08152,0.04891l0.01178,0.00065l0.01132,0.0132l0.10891,0.06535l0.25,0.25l0.1875,0.3125l0.01246,0.01246l0.16903,0.11268l0.1675,0.18425l0.21352,0.12811l0.25,0.25l0.09258,0.1543l0.13965,0.11347l0.24306,0.32408l0.14369,0.09579l0.1675,0.18425l0.21352,0.12811l0.5625,0.5625l0.1805,0.1083l0.01178,0.00065l0.01132,0.0132l0.10891,0.06535l0.25,0.25l0.06535,0.10891l0.0132,0.01132l0.00065,0.01178l0.06142,0.10237l0.23437,0.14062l1.12437,1.12437l0.35786,0.2684l0.26692,0.32852l0.31321,0.28473l0.11268,0.16903l0.02491,0.02491l0.16903,0.11268l0.1675,0.18425l0.21352,0.12811l0.25,0.25l0.12811,0.21352l0.18425,0.1675l0.21151,0.31726l0.22676,0.30235l0.24937,0.24937l0.07243,0.12071l0.11198,0.08532l0.4135,0.51688l0.52709,0.52709l0.12811,0.21352l0.18425,0.1675l0.46151,0.69226l0.22676,0.30235l0.24937,0.24937l0.09258,0.1543l0.13965,0.11347l0.15813,0.21083l0.44234,0.36861l0.14978,0.20496l0.20193,0.15385l0.4135,0.51688l1.77646,1.77646l0.35786,0.2684l0.22414,0.27586l0.27586,0.22414l0.2684,0.35786l1.37437,1.37437l0.12811,0.21352l0.18425,0.1675l0.01246,0.01869l0.15741,0.11806l0.22414,0.27586l0.27586,0.22414l0.2684,0.35786l1.62437,1.62437l0.07395,0.12325z" fill="#ff0000" stroke="none" stroke-width="0.5" stroke-linecap="butt"/></g></g></svg>