<svg version="1.1" xmlns="http://www.w3.org/2000/svg" xmlns:xlink="http://www.w3.org/1999/xlink" width="39.61094" height="33.10299" viewBox="0,0,39.61094,33.10299"><defs><linearGradient x1="226.35306" y1="188.23275" x2="226.35306" y2="193.32116" gradientUnits="userSpaceOnUse" id="color-1"><stop offset="0" stop-color="#4d3b2e"/><stop offset="1" stop-color="#271e17"/></linearGradient></defs><g transform="translate(-221.28785,-165.2143)"><g data-paper-data="{&quot;isPaintingLayer&quot;:true}" fill-rule="nonzero" stroke-linejoin="miter" stroke-miterlimit="10" stroke-dasharray="" stroke-dashoffset="0" style="mix-blend-mode: normal"><path d="M254.35389,176.76623l-0.11808,9.56489" fill="none" stroke="#2b2b2b" stroke-width="1.5" stroke-linecap="round"/><path d="M225.71763,188.36463l0.1089,-0.00012c0.59532,-0.00074 1.1062,0.03241 1.65973,0.24078c1.09877,0.5757 3.84841,1.78625 3.08568,3.31233c-0.14144,0.283 -0.4441,0.54128 -0.67957,0.75127c-0.2699,0.24069 -0.48069,0.33839 -0.83392,0.43616c-1.28111,0.36485 -2.75043,0.19338 -4.05381,0.02563c-1.21991,-0.15701 -2.30589,-0.26453 -2.96679,-1.35649c-0.32364,-1.60451 1.62963,-3.41708 3.3825,-3.54143c0.10398,0.13222 0.29729,0.13188 0.29729,0.13188z" data-paper-data="{&quot;noHover&quot;:false,&quot;origItem&quot;:[&quot;Path&quot;,{&quot;applyMatrix&quot;:true,&quot;segments&quot;:[[[236.73193,174.2664],[0.35994,0.48491],[-6.06787,0.456]],[[225.05501,187.19505],[-1.12034,-5.88437],[2.28781,4.00464]],[[235.30031,192.13772],[-4.22296,-0.57581],[4.5119,0.6152]],[[249.27257,192.05402],[-4.43481,1.33806],[1.22278,-0.35859]],[[252.15278,190.4635],[-0.93429,0.88269],[0.8151,-0.77009]],[[254.50067,187.71919],[-0.48963,1.03786],[2.64034,-5.59671]],[[243.84504,175.63021],[3.80362,2.11133],[-1.91613,-0.76414]],[[238.13176,174.75131],[2.06079,-0.00269],[0,0]],[237.75676,174.75131]],&quot;closed&quot;:true}]}" fill="url(#color-1)" stroke="#937257" stroke-width="1.5" stroke-linecap="butt"/><path d="M228.65388,195.03357l8.76239,-18.15945l2.5716,1.24086l-8.76239,18.15945z" fill="#999999" stroke="#7d7d7d" stroke-width="1.5" stroke-linecap="butt"/><path d="M227.36898,197.56729v-2.28426h5.42513v2.28426z" fill="#999999" stroke="#7d7d7d" stroke-width="1.5" stroke-linecap="butt"/><path d="M229.15645,180.35446l-4.14538,10.79649" fill="none" stroke="#2b2b2b" stroke-width="1.5" stroke-linecap="round"/><path d="M254.11773,186.33112l-0.11808,9.56489" fill="none" stroke="#2b2b2b" stroke-width="1.5" stroke-linecap="round"/><path d="M251.4332,194.98954l-12.0459,-16.16915l2.28975,-1.70585l12.0459,16.16915z" fill="#999999" stroke="#7d7d7d" stroke-width="2" stroke-linecap="butt"/><path d="M248.78395,197.28176v-3.56916h5.85343v3.56916z" fill="#999999" stroke="#7d7d7d" stroke-width="1.5" stroke-linecap="butt"/><path d="M254.23581,181.54867l-0.11808,9.56489" fill="none" stroke="#2b2b2b" stroke-width="1.5" stroke-linecap="round"/><path d="M236.12888,179.87934l-0.49181,-3.82319l23.93035,-3.07838l0.49181,3.82319z" fill="#707070" stroke="#5a5a5a" stroke-width="1.5" stroke-linecap="butt"/><path d="M233.30128,180.69067c0.21037,-0.25591 0.35343,-0.52161 0.43818,-0.79444c-0.08401,-0.13587 -0.19003,-0.26219 -0.32097,-0.37738c-0.00267,-0.00235 -0.00534,-0.00467 -0.00801,-0.00698c-0.46955,0.02964 -0.94897,0.03382 -1.40573,0.01133c-0.71642,0.34922 -1.49908,0.98398 -2.21757,1.1263l-0.11015,-0.02963l0.00161,0.03829l-0.54529,0.02304c0.18565,0.61971 0.41308,1.22713 0.67996,1.82179l1.15897,-0.86324l0.19853,0.26653c0.44272,-0.44163 0.9351,-0.81747 1.49521,-1.0769zM232.21412,186.35198l0.00193,-0.0052c0.03506,-0.46779 0.3115,-1.11834 0.63705,-1.8434c-0.09362,0.04672 -0.1891,0.0925 -0.28648,0.13734l-0.11025,-0.0099l0.01257,0.04258l-1.23318,0.36423c0.30331,0.44686 0.62983,0.88505 0.97835,1.31437zM232.47924,176.38421c-0.57429,-0.68335 -1.271,-1.34511 -1.96755,-1.94895l-0.00015,0.0006l-1.48962,-0.39843c-0.08227,-0.02057 -0.16304,-0.04842 -0.24128,-0.0835c-0.22022,1.2246 -0.28725,2.41611 -0.21381,3.57206c0.58061,-0.52183 1.2392,-0.90754 1.9799,-1.01287c0.02679,-0.00381 1.00161,-0.11635 1.93251,-0.12892zM231.05234,189.43575c-4.65659,-4.99004 -6.8505,-11.70074 -4.53663,-18.38656c0.42632,-1.23184 1.84242,-4.78783 3.28897,-5.08488c2.45955,-0.50508 3.97797,2.46584 4.51897,4.16804c2.34469,5.10749 4.16511,10.65474 1.89404,16.10787l-0.06025,0.0469l0.02829,0.01539l-0.73551,1.35214c-0.07455,0.14501 -0.17496,0.27984 -0.30104,0.39748c-0.11294,0.1054 -0.23823,0.18931 -0.37081,0.2519l-0.50401,0.73468c-0.06253,0.09531 -0.13735,0.18475 -0.22439,0.26598c-0.32606,0.30427 -0.75499,0.42949 -1.16561,0.37983c-0.97438,0.67024 -1.83201,-0.2488 -1.83201,-0.2488zM231.23116,171.38656c0.17761,0.0661 0.36238,0.11601 0.55124,0.15624c-0.05946,-0.13158 -0.11893,-0.26246 -0.17827,-0.39257c-0.01515,-0.05711 -1.06832,-2.41563 -1.12151,-2.36244c-0.32659,0.32666 -0.70296,1.36043 -1.01269,2.39251c0.02544,0.00166 0.05084,0.00398 0.07616,0.00696l1.50996,0.1688l-0.00954,0.08528z" fill="#707070" stroke="#5a5a5a" stroke-width="1.5" stroke-linecap="butt"/></g></g></svg>