<svg version="1.1" xmlns="http://www.w3.org/2000/svg" xmlns:xlink="http://www.w3.org/1999/xlink" width="30.29167" height="30.29167" viewBox="0,0,30.29167,30.29167"><defs><linearGradient x1="240" y1="165.60417" x2="240" y2="194.39583" gradientUnits="userSpaceOnUse" id="color-1"><stop offset="0" stop-color="#66b8ff"/><stop offset="1" stop-color="#6766ff"/></linearGradient></defs><g transform="translate(-224.85417,-164.85416)"><g data-paper-data="{&quot;isPaintingLayer&quot;:true}" fill-rule="nonzero" stroke-linecap="butt" stroke-linejoin="miter" stroke-miterlimit="10" stroke-dasharray="" stroke-dashoffset="0" style="mix-blend-mode: normal"><path d="M225.60417,194.39583v-28.79167h28.79167v28.79167z" fill="url(#color-1)" stroke="#ffffff" stroke-width="1.5"/><path d="M241.42562,181.27917c0.07778,0.39199 -0.3142,0.46976 -0.3142,0.46976l-0.48248,0.08741c-0.56821,-0.13078 -0.80796,-0.29241 -1.07712,-0.6498c-0.00201,0.25671 0.02951,0.5678 0.06416,0.87104c0.01351,0.02485 0.02803,0.05055 0.04361,0.07726l0.02628,0.04708l0.06746,-0.02416l0.05119,0.14287c1.40771,-0.05145 2.33346,-0.57992 1.8578,-1.98061c-0.07906,-0.23281 -0.05115,-0.82801 -0.25618,-1.02192c-0.33204,0.22217 -0.72716,0.4198 -1.06866,0.65309c-0.13062,0.13803 -0.25853,0.28413 -0.37497,0.42579c0.01398,0.017 0.02127,0.02823 0.02127,0.02823c0.19789,0.30659 0.28118,0.57181 0.65043,0.63189l0.32167,-0.07215c0,0 0.39199,-0.07778 0.46976,0.3142zM233.86803,182.27183c3.07908,-0.82358 3.45572,4.02035 4.18476,5.96674c0.43625,0.01269 0.95267,-0.03359 1.37663,-0.13923c0.44008,-0.10966 1.11821,-0.08098 1.49425,-0.38038c0.09828,-0.07825 -0.6415,-1.4238 -0.74203,-1.60387c-0.26411,-0.47308 -1.3207,-2.71208 -1.16569,-3.21933c0.01612,-0.05276 0.04147,-0.09978 0.07339,-0.14274l-0.12761,-0.22857c-0.29621,-0.54791 -0.3287,-0.88601 -0.30732,-1.50493c0.06143,-0.20929 0.13051,-0.39323 0.21656,-0.56346c0.13332,-0.35531 0.3822,-0.62478 0.67759,-0.85529c0.394,-0.38685 0.99146,-0.94311 1.57829,-1.07513c0.05519,-0.0512 0.10696,-0.10437 0.15458,-0.16c0.69833,-0.81557 0.34478,-1.64904 -0.68207,-1.53664c-2.61102,1.52311 -5.80664,2.13268 -6.73133,5.44281zM233.43234,182.93021c-0.15896,-0.07286 -0.21663,-0.2518 -0.21663,-0.2518l-0.12317,-0.60099c1.03885,-3.57923 4.33505,-4.4281 7.25623,-6.00736c1.75377,-0.24736 2.66043,1.2558 1.64351,2.67958c0.31438,0.33764 0.29797,0.93904 0.42898,1.31978c0.59167,1.71957 -0.55942,3.19101 -2.5252,2.99329c-0.00966,-0.00133 0.36329,0.79831 0.43549,1.08692c0.26069,1.04203 1.36406,2.35015 1.41997,3.35644c0.08552,1.53956 -3.16098,1.60323 -4.15895,1.38595c-0.95954,-1.50844 -0.76776,-3.27959 -1.59234,-4.80148c-0.41377,-0.76366 -1.2556,-1.31286 -2.0916,-0.99621c0,0 -0.32112,0.11504 -0.47629,-0.16412z" fill="#686868" stroke="none" stroke-width="0.5"/><path d="M240.60419,176.80281c1.02684,-0.11241 1.38538,0.7225 0.68707,1.53807c-0.04762,0.05562 -0.1186,0.15849 -0.17379,0.20969c-0.58684,0.13202 -1.17545,0.68998 -1.56946,1.07683c-0.29539,0.2305 -0.53727,0.49918 -0.67059,0.85449c-0.08605,0.17022 -0.15086,0.3527 -0.21228,0.56199c-0.02138,0.61892 0.02198,0.94822 0.31819,1.49613l0.13096,0.22231c-0.03192,0.04295 -0.05557,0.08088 -0.0717,0.13364c-0.155,0.50725 0.86929,2.71998 1.13339,3.19308c0.10052,0.18007 0.85361,1.57717 0.75532,1.65543c-0.37604,0.29941 -1.06207,0.27184 -1.50215,0.3815c-0.42396,0.10564 -0.94699,0.15101 -1.38325,0.13833c-0.72904,-1.94639 -1.12526,-6.81902 -4.20434,-5.99544c0.92469,-3.31013 4.15161,-3.94295 6.76263,-5.46605z" data-paper-data="{&quot;noHover&quot;:false,&quot;origItem&quot;:[&quot;Path&quot;,{&quot;applyMatrix&quot;:true,&quot;segments&quot;:[[[439.72045,350.22077],[9.68153,-8.5257],[11.37493,3.7069]],[[440.68431,377.55929],[1.68731,-7.61683],[1.347,0.93236]],[[445.30152,379.93724],[-1.55033,-0.53481],[1.6093,0.55515]],[[450.7822,381.79687],[-1.79592,0.17301],[0.46939,-0.04522]],[[451.72797,375.2314],[-0.052,0.77234],[0.13662,-2.02912]],[[454.64509,362.71523],[-1.52546,1.27927],[0.15867,-0.13306]],[[455.16804,362.41614],[-0.1883,0.06988],[0,0]],[[455.23404,361.43576],[0,0],[0.18863,-2.33028]],[[457.34546,356.07093],[-1.33339,1.90405],[0.62146,-0.53302]],[[459.17962,354.74069],[-0.61902,0.35968],[1.14641,-0.84547]],[[463.06168,353.43516],[-1.40116,0.12114],[2.03132,-0.41146]],[[470.22808,353.28029],[-2.1169,-0.78496],[0.27842,-0.04825]],[[471.04187,353.09299],[-0.26368,0.07763],[3.86608,-1.13816]],[[472.03878,346.86178],[3.46152,1.74681],[-11.3329,-0.54791]]],&quot;closed&quot;:true}]}" fill="#919191" stroke="none" stroke-width="0.5"/><path d="M244.05618,170.17402c0.30396,-0.0448 1.40918,0.77943 1.7374,0.94056l0.4069,0.48308c0,0 0.04469,0.0662 0.07238,0.1638c1.68133,-1.06631 3.50803,-1.8324 5.15344,-2.94335c0.47663,-0.32182 1.56073,-1.32189 2.16857,-1.19396c0.59983,0.12624 0.81323,0.91773 1.00019,1.35532c-0.98429,2.87363 -4.73785,4.60923 -7.34786,5.87638l-0.31442,0.09624c0,0 -0.03277,0.00914 -0.08371,0.01421c-0.18437,0.83277 -0.99689,1.56199 -1.86142,2.1759c0.99226,0.62073 0.59503,2.11857 2.16789,2.4541c1.54526,0.32966 2.15412,-1.66135 3.71058,-0.51584c1.48912,1.48946 -0.91264,2.75814 -2.32284,3.02741c-2.36803,0.45216 -4.31852,-1.40219 -5.2678,-3.35746c0,0 -0.00128,-0.00264 -0.00345,-0.00761c-0.02923,-0.03166 -0.04479,-0.0547 -0.04479,-0.0547l-0.11999,-0.25109c-0.00086,-0.01714 -0.00149,-0.03435 -0.00186,-0.05163c-0.45505,0.30625 -1.09828,0.70527 -1.57724,0.61241c-0.87147,-0.16898 -1.58025,-1.66849 -2.01987,-2.33128l-0.1965,-0.58603c0,0 -0.04185,-0.12819 -0.01636,-0.27402c0.00362,-0.2525 0.23517,-0.40884 0.23517,-0.40884c1.1765,-0.79435 2.69383,-2.1988 4.15368,-3.03245c-0.50558,-0.79964 -1.0714,-1.97843 0.37191,-2.19114zM244.10415,178.18446c0.05679,0.06454 0.08489,0.12242 0.08489,0.12242c0.59742,1.23053 1.70426,2.63585 3.17844,2.8484c0.64801,0.09342 3.53664,-0.95348 2.84546,-1.29717c-0.43862,-0.49604 -2.33782,0.90055 -3.25073,0.73518c-0.87457,-0.15842 -1.72763,-0.61909 -2.13978,-1.43341c-0.07387,-0.14594 -0.36275,-1.14324 -0.46844,-1.20468c-0.09042,-0.05257 -0.36297,-0.01786 -0.32082,0.16061c0.01693,0.0138 0.03247,0.02815 0.04662,0.0425l-0.0109,-0.03848c0,0 0.01627,0.02409 0.03525,0.06464zM253.58,169.01148c-0.41739,-0.60299 -1.34322,0.48591 -2.02185,0.94295c-1.51819,1.02247 -3.22866,1.7053 -4.78408,2.69245c0.13936,0.36826 0.19421,0.80176 0.19268,1.21621c2.33398,-1.13302 5.32413,-2.60062 6.61324,-4.85162zM240.36858,176.05535l0.05204,0.16512c0.23041,0.33346 0.88992,1.70066 1.30083,1.78034c0.20173,0.03911 0.90039,-0.51479 1.05475,-0.61929c0.75957,-0.51424 3.20597,-1.83389 3.09834,-2.77537c0.09354,-0.49361 0.41137,-1.57255 -0.28593,-1.87106c-0.27389,-0.11725 -1.22426,0.64725 -1.46782,0.78712c-1.29601,0.74429 -2.51595,1.68236 -3.75219,2.53314zM244.94681,171.80791c-0.82555,-0.49558 -1.04806,-0.907 -0.3444,0.1148c0.11582,-0.04396 0.23069,-0.08245 0.3444,-0.1148z" fill="#5a5a5a" stroke="none" stroke-width="0.5"/><path d="M244.10127,178.12973l0.01101,0.03815c-0.01415,-0.01436 -0.09456,-0.04812 -0.11148,-0.06191c-0.04215,-0.17847 0.29427,-0.19089 0.38469,-0.13831c0.10568,0.06145 0.39692,1.04496 0.47078,1.1909c0.41214,0.81432 1.23588,1.24277 2.11044,1.40119c0.91292,0.16536 2.84039,-1.18917 3.279,-0.69312c0.69118,0.34369 -2.22697,1.41579 -2.87498,1.32236c-1.47418,-0.21254 -2.61707,-1.65994 -3.21449,-2.89047c0,0 -0.02782,-0.05888 -0.08462,-0.12342c-0.01898,-0.04054 0.02964,-0.04535 0.02964,-0.04535z" data-paper-data="{&quot;noHover&quot;:false,&quot;origItem&quot;:[&quot;Path&quot;,{&quot;applyMatrix&quot;:true,&quot;segments&quot;:[[[245.98857,177.35088],[-0.0277,-0.05916],[0.08287,0.09418]],[[246.11244,177.52951],[0,0],[0.87172,1.79552]],[[250.75026,181.68574],[-2.15105,-0.31012],[0.94554,0.13632]],[[254.90221,179.79298],[1.00854,0.50149],[-0.64001,-0.72379]],[[250.15891,180.86571],[1.33208,0.24129],[-1.27612,-0.23116]],[[247.03665,178.77416],[0.60138,1.18822],[-0.10778,-0.21295]],[[246.35314,177.01635],[0.15421,0.08966],[-0.13194,-0.07671]],[[245.88501,177.2507],[-0.0615,-0.26041],[0.02471,0.02013]],[[245.95304,177.31272],[-0.02065,-0.02095],[0,0]],[245.93714,177.25656]],&quot;closed&quot;:true}]}" fill="#707070" stroke="none" stroke-width="0.5"/><path d="M244.60631,171.95634c-0.70366,-1.0218 -0.45676,-0.62541 0.36879,-0.12984c-0.1137,0.03235 -0.25297,0.08587 -0.36879,0.12984z" data-paper-data="{&quot;noHover&quot;:false,&quot;origItem&quot;:[&quot;Path&quot;,{&quot;applyMatrix&quot;:true,&quot;segments&quot;:[[[247.21814,168.04655],[-0.16591,0.04721],[-1.2046,-0.72312]],[[246.71561,168.21406],[-1.02674,-1.49096],[0.169,-0.06415]]],&quot;closed&quot;:true}]}" fill="#707070" stroke="none" stroke-width="0.5"/><path d="M246.94043,173.88439c0.00152,-0.41445 -0.05838,-0.85655 -0.19775,-1.22481c1.55541,-0.98715 3.32182,-1.70598 4.84002,-2.72844c0.67864,-0.45705 1.60812,-1.54135 2.0255,-0.93836c-1.28912,2.25101 -4.3338,3.7586 -6.66778,4.89162z" data-paper-data="{&quot;noHover&quot;:false,&quot;origItem&quot;:[&quot;Path&quot;,{&quot;applyMatrix&quot;:true,&quot;segments&quot;:[[[259.81524,163.96614],[-1.88101,3.28455],[-0.60903,-0.87985]],[[256.86506,165.34205],[0.99023,-0.6669],[-2.21527,1.49194]],[[249.88438,169.27074],[2.26958,-1.4404],[0.20335,0.53734]],[[250.16553,171.04537],[0.00222,-0.60475],[3.40562,-1.65324]]],&quot;closed&quot;:true}]}" fill="#707070" stroke="none" stroke-width="0.5"/><path d="M244.12998,173.48963c0.24357,-0.13988 1.20522,-0.89874 1.47912,-0.78149c0.6973,0.29852 0.39118,1.39398 0.29764,1.88759c0.10764,0.94149 -2.38373,2.3029 -3.1433,2.81714c-0.15436,0.1045 -0.85983,0.65468 -1.06156,0.61556c-0.4109,-0.07968 -1.08348,-1.46548 -1.31389,-1.79894l-0.05246,-0.16684c1.23624,-0.85078 2.49844,-1.82873 3.79445,-2.57302z" data-paper-data="{&quot;noHover&quot;:false,&quot;origItem&quot;:[&quot;Path&quot;,{&quot;applyMatrix&quot;:true,&quot;segments&quot;:[[[240.53783,174.24419],[1.80385,-1.24141],[0,0]],[[240.61376,174.48513],[0,0],[0.3362,0.48657]],[[242.51187,177.08291],[-0.59957,-0.11626],[0.29435,0.05707]],[[244.05089,176.17927],[-0.22523,0.15248],[1.10833,-0.75035]],[[248.57182,172.1296],[0.15706,1.37377],[0.13649,-0.72025]],[[248.1546,169.39943],[1.01746,0.43558],[-0.39965,-0.17109]],[[246.01283,170.54797],[0.3554,-0.2041],[-1.89107,1.08603]]],&quot;closed&quot;:true}]}" fill="#707070" stroke="none" stroke-width="0.5"/><path d="M240.72768,177.7981c-0.16322,0.15332 -0.32089,0.12926 -0.42798,0.07848c-1.14232,0.64516 -2.25011,1.43896 -3.27323,2.25672c-1.1512,0.92015 -2.20631,2.28167 -3.46435,2.98635c-0.36194,0.20274 -1.22927,0.86023 -1.66542,0.6509c-0.65353,-0.31365 -0.57645,-2.56923 -0.30284,-3.09058c0.15053,-0.28682 0.61847,-0.51024 0.89494,-0.66459c2.1366,-1.71888 4.51674,-3.22048 6.90934,-4.55617c0,0 0.34893,-0.1948 0.54373,0.15414c0.0818,0.14654 0.06772,0.26589 0.02386,0.35504c0.16935,0.30335 0.33868,0.60669 0.50803,0.91004c0.11659,-0.03364 0.32143,-0.04886 0.45442,0.18937c0.1281,0.22946 0.02107,0.39226 -0.06725,0.47685c-0.00602,0.07984 -0.04178,0.16752 -0.13326,0.25345zM232.93463,180.67873c-0.71723,0.4004 -0.79642,0.99001 -0.67964,1.8368c0.02425,0.17588 -0.18917,0.48957 -0.01686,0.53236c0.36387,0.09038 0.60675,-0.44387 0.9344,-0.62612c1.21457,-0.67558 2.24116,-2.02258 3.35492,-2.91281c1.01471,-0.81105 2.11254,-1.59949 3.24303,-2.25065c-0.15449,-0.27674 -0.309,-0.55349 -0.46349,-0.83024c-2.21281,1.25987 -4.38239,2.669 -6.37238,4.25065z" fill="#5a5a5a" stroke="none" stroke-width="0.5"/><path d="M239.32629,176.40971c0.15449,0.27674 0.31221,0.55761 0.4667,0.83435c-1.13049,0.65115 -2.22586,1.44457 -3.24057,2.25562c-1.11377,0.89023 -2.18407,2.26545 -3.39864,2.94103c-0.32765,0.18225 -0.57139,0.71561 -0.93526,0.62523c-0.17231,-0.0428 0.03965,-0.35822 0.01539,-0.5341c-0.11679,-0.8468 -0.04194,-1.44475 0.67528,-1.84515c1.98998,-1.58164 4.20427,-3.01711 6.41708,-4.27698z" data-paper-data="{&quot;noHover&quot;:false,&quot;origItem&quot;:[&quot;Path&quot;,{&quot;applyMatrix&quot;:true,&quot;segments&quot;:[[[440.04188,343.29771],[9.49817,-0.90675],[-3.07626,-0.20712]],[[434.14549,347.68801],[1.36474,-2.90387],[-0.28345,0.60312]],[[433.00342,349.32892],[-0.45472,-0.48717],[0.96025,1.02878]],[[437.22489,349.26993],[-1.40397,-0.09671],[5.20438,0.35848]],[[453.74179,346.96609],[-5.32623,0.52323],[4.85252,-0.4767]],[[468.552,346.51726],[-4.88981,-0.26336],[0.07992,-1.18699]],[[468.79175,342.95628],[-0.07992,1.18699],[-9.54122,-0.56172]]],&quot;closed&quot;:true}]}" fill="#707070" stroke="none" stroke-width="0.5"/><path d="M228.55669,191.73685c0.21779,0.33506 -0.11727,0.55286 -0.11727,0.55286l-0.36453,0.09736c-1.2311,-0.32895 -1.61478,-2.09473 -2.17726,-3.13727c-0.14673,-0.27197 -0.63174,-0.80629 -0.45409,-1.14281c0.28953,-0.54846 0.69451,-0.53621 1.04446,-0.35186c0.07551,-0.0689 0.14018,-0.12662 0.18085,-0.16377c0.9865,-0.90098 2.36553,-1.45533 3.25028,-2.46475c0.12731,-0.14524 0.3116,-0.43386 0.51608,-0.63814c0.00835,-0.58464 0.53382,-1.41618 0.92233,-1.67628c0,0 0.33506,-0.21779 0.55286,0.11727c0.04088,0.06289 0.06228,0.12165 0.07008,0.1756c0.41013,-0.04241 0.75939,0.13342 0.71656,0.83033c-0.02015,0.32774 -0.68793,0.39997 -0.89894,0.61585c-0.1523,0.15582 -0.17929,0.48741 -0.39455,0.52117c-0.11991,0.01881 -0.22679,0.02666 -0.32163,0.0248c-0.76324,0.92368 -1.8974,1.71302 -2.81806,2.31336c-0.16522,0.10773 -0.81802,0.48795 -1.24056,0.79424c0.42728,0.5427 0.97752,1.72886 1.05195,2.48614c0.06597,0.12034 0.13639,0.23823 0.21107,0.35311l0.00188,0.03514l0.01253,-0.00547l0.18246,0.41839c0.02819,0.06166 0.03946,0.12785 0.03507,0.19254c0.01314,0.01569 0.02597,0.03304 0.03843,0.0522z" fill="#5a5a5a" stroke="none" stroke-width="0.5"/></g></g></svg>