<svg version="1.1" xmlns="http://www.w3.org/2000/svg" xmlns:xlink="http://www.w3.org/1999/xlink" width="492.83026" height="437.5" viewBox="0,0,492.83026,437.5"><g transform="translate(12.41974,14.375)"><g data-paper-data="{&quot;isPaintingLayer&quot;:true}" fill-rule="nonzero" stroke-linecap="butt" stroke-linejoin="miter" stroke-miterlimit="10" stroke-dasharray="" stroke-dashoffset="0" style="mix-blend-mode: normal"><path d="M1.14558,2.32606c0,-0.43036 0.34888,-0.77924 0.77924,-0.77924c0.43036,0 0.77924,0.34888 0.77924,0.77924c0,0.43036 -0.34888,0.77924 -0.77924,0.77924c-0.43036,0 -0.77924,-0.34888 -0.77924,-0.77924z" fill="#5c5c5c" stroke="none" stroke-width="0.5"/><path d="M1.14558,37.56205c0,-0.43036 0.34888,-0.77924 0.77924,-0.77924c0.43036,0 0.77924,0.34888 0.77924,0.77924c0,0.43036 -0.34888,0.77924 -0.77924,0.77924c-0.43036,0 -0.77924,-0.34888 -0.77924,-0.77924z" fill="#5c5c5c" stroke="none" stroke-width="0.5"/><path d="M1.14558,42.29777c0,-0.43037 0.34888,-0.77924 0.77924,-0.77924c0.43037,0 0.77924,0.34888 0.77924,0.77924c0,0.43037 -0.34888,0.77924 -0.77924,0.77924c-0.43037,0 -0.77924,-0.34888 -0.77924,-0.77924z" fill="#5c5c5c" stroke="none" stroke-width="0.5"/><path d="M0,79.94342v-79.94342h79.94342v79.94342z" fill="#5b5b5b" stroke="#434343" stroke-width="1.5"/><path d="M159.88684,79.94342v-79.94342h79.94342v79.94342z" fill="#5b5b5b" stroke="#434343" stroke-width="1.5"/><path d="M79.94342,79.94342v-79.94342h79.94342v79.94342z" fill="#5b5b5b" stroke="#434343" stroke-width="1.5"/><path d="M240.97584,2.32606c0,-0.43036 0.34888,-0.77924 0.77924,-0.77924c0.43036,0 0.77924,0.34888 0.77924,0.77924c0,0.43036 -0.34888,0.77924 -0.77924,0.77924c-0.43036,0 -0.77924,-0.34888 -0.77924,-0.77924z" fill="#5c5c5c" stroke="none" stroke-width="0.5"/><path d="M240.97584,37.56205c0,-0.43036 0.34888,-0.77924 0.77924,-0.77924c0.43036,0 0.77924,0.34888 0.77924,0.77924c0,0.43036 -0.34888,0.77924 -0.77924,0.77924c-0.43036,0 -0.77924,-0.34888 -0.77924,-0.77924z" fill="#5c5c5c" stroke="none" stroke-width="0.5"/><path d="M240.97584,42.29777c0,-0.43037 0.34888,-0.77924 0.77924,-0.77924c0.43037,0 0.77924,0.34888 0.77924,0.77924c0,0.43037 -0.34888,0.77924 -0.77924,0.77924c-0.43037,0 -0.77924,-0.34888 -0.77924,-0.77924z" fill="#5c5c5c" stroke="none" stroke-width="0.5"/><path d="M239.83026,79.94342v-79.94342h79.94342v79.94342z" fill="#5b5b5b" stroke="#434343" stroke-width="1.5"/><path d="M399.7171,79.94342v-79.94342h79.94342v79.94342z" fill="#5b5b5b" stroke="#434343" stroke-width="1.5"/><path d="M319.77368,79.94342v-79.94342h79.94342v79.94342z" fill="#5b5b5b" stroke="#434343" stroke-width="1.5"/><path d="M74.70362,74.96667c0,-0.41421 0.33579,-0.75 0.75,-0.75c0.41421,0 0.75,0.33579 0.75,0.75c0,0.41421 -0.33579,0.75 -0.75,0.75c-0.41421,0 -0.75,-0.33579 -0.75,-0.75z" fill="#434343" stroke="none" stroke-width="0.5"/><path d="M73.50893,4.91327c0,-0.41421 0.33579,-0.75 0.75,-0.75c0.41421,0 0.75,0.33579 0.75,0.75c0,0.41421 -0.33579,0.75 -0.75,0.75c-0.41421,0 -0.75,-0.33579 -0.75,-0.75z" fill="#434343" stroke="none" stroke-width="0.5"/><path d="M4.32648,4.91327c0,-0.41421 0.33578,-0.75 0.75,-0.75c0.41422,0 0.75,0.33579 0.75,0.75c0,0.41421 -0.33578,0.75 -0.75,0.75c-0.41422,0 -0.75,-0.33579 -0.75,-0.75z" fill="#434343" stroke="none" stroke-width="0.5"/><path d="M2.44396,75.03699c0,-0.41421 0.33579,-0.75 0.75,-0.75c0.41422,0 0.75,0.33579 0.75,0.75c0,0.41421 -0.33578,0.75 -0.75,0.75c-0.41421,0 -0.75,-0.33579 -0.75,-0.75z" fill="#434343" stroke="none" stroke-width="0.5"/><path d="M152.57459,74.74535c0,-0.41421 0.33578,-0.75 0.75,-0.75c0.41422,0 0.75,0.33579 0.75,0.75c0,0.41421 -0.33578,0.75 -0.75,0.75c-0.41422,0 -0.75,-0.33579 -0.75,-0.75z" fill="#434343" stroke="none" stroke-width="0.5"/><path d="M88.09843,73.80409c0,-0.41421 0.33579,-0.75 0.75,-0.75c0.41421,0 0.75,0.33579 0.75,0.75c0,0.41421 -0.33579,0.75 -0.75,0.75c-0.41421,0 -0.75,-0.33579 -0.75,-0.75z" fill="#434343" stroke="none" stroke-width="0.5"/><path d="M84.3334,3.97202c0,-0.41421 0.33579,-0.75 0.75,-0.75c0.41421,0 0.75,0.33579 0.75,0.75c0,0.41421 -0.33579,0.75 -0.75,0.75c-0.41421,0 -0.75,-0.33579 -0.75,-0.75z" fill="#434343" stroke="none" stroke-width="0.5"/><path d="M153.98648,5.85453c0,-0.41421 0.33579,-0.75 0.75,-0.75c0.41421,0 0.75,0.33579 0.75,0.75c0,0.41421 -0.33579,0.75 -0.75,0.75c-0.41421,0 -0.75,-0.33579 -0.75,-0.75z" fill="#434343" stroke="none" stroke-width="0.5"/><path d="M164.81095,73.6251c0,-0.41421 0.33579,-0.75 0.75,-0.75c0.41421,0 0.75,0.33579 0.75,0.75c0,0.41421 -0.33579,0.75 -0.75,0.75c-0.41421,0 -0.75,-0.33579 -0.75,-0.75z" fill="#434343" stroke="none" stroke-width="0.5"/><path d="M163.86969,3.97201c0,-0.41421 0.33579,-0.75 0.75,-0.75c0.41421,0 0.75,0.33579 0.75,0.75c0,0.41421 -0.33579,0.75 -0.75,0.75c-0.41421,0 -0.75,-0.33579 -0.75,-0.75z" fill="#434343" stroke="none" stroke-width="0.5"/><path d="M235.40529,4.91327c0,-0.41421 0.33579,-0.75 0.75,-0.75c0.41421,0 0.75,0.33579 0.75,0.75c0,0.41421 -0.33579,0.75 -0.75,0.75c-0.41421,0 -0.75,-0.33579 -0.75,-0.75z" fill="#434343" stroke="none" stroke-width="0.5"/><path d="M235.40529,74.09573c0,-0.41421 0.33579,-0.75 0.75,-0.75c0.41421,0 0.75,0.33579 0.75,0.75c0,0.41421 -0.33579,0.75 -0.75,0.75c-0.41421,0 -0.75,-0.33579 -0.75,-0.75z" fill="#434343" stroke="none" stroke-width="0.5"/><path d="M6.14558,7.32606c0,-0.43036 0.34888,-0.77924 0.77924,-0.77924c0.43036,0 0.77924,0.34888 0.77924,0.77924c0,0.43036 -0.34888,0.77924 -0.77924,0.77924c-0.43036,0 -0.77924,-0.34888 -0.77924,-0.77924z" fill="#5c5c5c" stroke="none" stroke-width="0.5"/><path d="M6.14558,42.56205c0,-0.43036 0.34888,-0.77924 0.77924,-0.77924c0.43036,0 0.77924,0.34888 0.77924,0.77924c0,0.43036 -0.34888,0.77924 -0.77924,0.77924c-0.43036,0 -0.77924,-0.34888 -0.77924,-0.77924z" fill="#5c5c5c" stroke="none" stroke-width="0.5"/><path d="M6.14558,47.29777c0,-0.43037 0.34888,-0.77924 0.77924,-0.77924c0.43037,0 0.77924,0.34888 0.77924,0.77924c0,0.43037 -0.34888,0.77924 -0.77924,0.77924c-0.43037,0 -0.77924,-0.34888 -0.77924,-0.77924z" fill="#5c5c5c" stroke="none" stroke-width="0.5"/><path d="M79.70362,79.96667c0,-0.41421 0.33579,-0.75 0.75,-0.75c0.41421,0 0.75,0.33579 0.75,0.75c0,0.41421 -0.33579,0.75 -0.75,0.75c-0.41421,0 -0.75,-0.33579 -0.75,-0.75z" fill="#434343" stroke="none" stroke-width="0.5"/><path d="M78.50893,9.91327c0,-0.41421 0.33579,-0.75 0.75,-0.75c0.41421,0 0.75,0.33579 0.75,0.75c0,0.41421 -0.33579,0.75 -0.75,0.75c-0.41421,0 -0.75,-0.33579 -0.75,-0.75z" fill="#434343" stroke="none" stroke-width="0.5"/><path d="M9.32648,9.91327c0,-0.41421 0.33578,-0.75 0.75,-0.75c0.41422,0 0.75,0.33579 0.75,0.75c0,0.41421 -0.33578,0.75 -0.75,0.75c-0.41422,0 -0.75,-0.33579 -0.75,-0.75z" fill="#434343" stroke="none" stroke-width="0.5"/><path d="M7.44396,80.03699c0,-0.41421 0.33578,-0.75 0.75,-0.75c0.41421,0 0.75,0.33579 0.75,0.75c0,0.41421 -0.33579,0.75 -0.75,0.75c-0.41422,0 -0.75,-0.33579 -0.75,-0.75z" fill="#434343" stroke="none" stroke-width="0.5"/><path d="M157.57459,79.74535c0,-0.41421 0.33578,-0.75 0.75,-0.75c0.41422,0 0.75,0.33579 0.75,0.75c0,0.41421 -0.33578,0.75 -0.75,0.75c-0.41422,0 -0.75,-0.33579 -0.75,-0.75z" fill="#434343" stroke="none" stroke-width="0.5"/><path d="M93.09843,78.80409c0,-0.41421 0.33579,-0.75 0.75,-0.75c0.41421,0 0.75,0.33579 0.75,0.75c0,0.41421 -0.33579,0.75 -0.75,0.75c-0.41421,0 -0.75,-0.33579 -0.75,-0.75z" fill="#434343" stroke="none" stroke-width="0.5"/><path d="M89.3334,8.97201c0,-0.41422 0.33579,-0.75 0.75,-0.75c0.41421,0 0.75,0.33578 0.75,0.75c0,0.41421 -0.33579,0.75 -0.75,0.75c-0.41421,0 -0.75,-0.33579 -0.75,-0.75z" fill="#434343" stroke="none" stroke-width="0.5"/><path d="M158.98648,10.85453c0,-0.41421 0.33578,-0.75 0.75,-0.75c0.41422,0 0.75,0.33579 0.75,0.75c0,0.41421 -0.33578,0.75 -0.75,0.75c-0.41422,0 -0.75,-0.33579 -0.75,-0.75z" fill="#434343" stroke="none" stroke-width="0.5"/><path d="M169.81095,78.6251c0,-0.41421 0.33578,-0.75 0.75,-0.75c0.41422,0 0.75,0.33579 0.75,0.75c0,0.41421 -0.33578,0.75 -0.75,0.75c-0.41422,0 -0.75,-0.33579 -0.75,-0.75z" fill="#434343" stroke="none" stroke-width="0.5"/><path d="M168.86969,8.97201c0,-0.41422 0.33578,-0.75 0.75,-0.75c0.41422,0 0.75,0.33578 0.75,0.75c0,0.41421 -0.33578,0.75 -0.75,0.75c-0.41422,0 -0.75,-0.33579 -0.75,-0.75z" fill="#434343" stroke="none" stroke-width="0.5"/><path d="M240.97584,3.88454c0,-0.43036 0.34888,-0.77924 0.77924,-0.77924c0.43036,0 0.77924,0.34888 0.77924,0.77924c0,0.43036 -0.34888,0.77924 -0.77924,0.77924c-0.43036,0 -0.77924,-0.34888 -0.77924,-0.77924z" fill="#5c5c5c" stroke="none" stroke-width="0.5"/><path d="M240.97584,39.12053c0,-0.43036 0.34888,-0.77924 0.77924,-0.77924c0.43036,0 0.77924,0.34888 0.77924,0.77924c0,0.43036 -0.34888,0.77924 -0.77924,0.77924c-0.43036,0 -0.77924,-0.34888 -0.77924,-0.77924z" fill="#5c5c5c" stroke="none" stroke-width="0.5"/><path d="M240.97584,43.85625c0,-0.43037 0.34888,-0.77924 0.77924,-0.77924c0.43037,0 0.77924,0.34888 0.77924,0.77924c0,0.43037 -0.34888,0.77924 -0.77924,0.77924c-0.43037,0 -0.77924,-0.34888 -0.77924,-0.77924z" fill="#5c5c5c" stroke="none" stroke-width="0.5"/><path d="M314.53388,76.52515c0,-0.41421 0.33578,-0.75 0.75,-0.75c0.41422,0 0.75,0.33579 0.75,0.75c0,0.41421 -0.33578,0.75 -0.75,0.75c-0.41422,0 -0.75,-0.33579 -0.75,-0.75z" fill="#434343" stroke="none" stroke-width="0.5"/><path d="M313.33919,6.47175c0,-0.41422 0.33578,-0.75 0.75,-0.75c0.41422,0 0.75,0.33578 0.75,0.75c0,0.41422 -0.33578,0.75 -0.75,0.75c-0.41422,0 -0.75,-0.33578 -0.75,-0.75z" fill="#434343" stroke="none" stroke-width="0.5"/><path d="M244.15674,6.47175c0,-0.41422 0.33579,-0.75 0.75,-0.75c0.41421,0 0.75,0.33578 0.75,0.75c0,0.41422 -0.33579,0.75 -0.75,0.75c-0.41421,0 -0.75,-0.33578 -0.75,-0.75z" fill="#434343" stroke="none" stroke-width="0.5"/><path d="M242.27422,76.59547c0,-0.41421 0.33578,-0.75 0.75,-0.75c0.41422,0 0.75,0.33579 0.75,0.75c0,0.41421 -0.33578,0.75 -0.75,0.75c-0.41422,0 -0.75,-0.33579 -0.75,-0.75z" fill="#434343" stroke="none" stroke-width="0.5"/><path d="M392.40486,76.30383c0,-0.41421 0.33578,-0.75 0.75,-0.75c0.41422,0 0.75,0.33579 0.75,0.75c0,0.41421 -0.33578,0.75 -0.75,0.75c-0.41422,0 -0.75,-0.33579 -0.75,-0.75z" fill="#434343" stroke="none" stroke-width="0.5"/><path d="M327.92869,75.36257c0,-0.41421 0.33578,-0.75 0.75,-0.75c0.41422,0 0.75,0.33579 0.75,0.75c0,0.41421 -0.33578,0.75 -0.75,0.75c-0.41422,0 -0.75,-0.33579 -0.75,-0.75z" fill="#434343" stroke="none" stroke-width="0.5"/><path d="M324.16366,5.5305c0,-0.41421 0.33578,-0.75 0.75,-0.75c0.41422,0 0.75,0.33579 0.75,0.75c0,0.41421 -0.33578,0.75 -0.75,0.75c-0.41422,0 -0.75,-0.33579 -0.75,-0.75z" fill="#434343" stroke="none" stroke-width="0.5"/><path d="M393.81674,7.41301c0,-0.41422 0.33578,-0.75 0.75,-0.75c0.41422,0 0.75,0.33578 0.75,0.75c0,0.41422 -0.33578,0.75 -0.75,0.75c-0.41422,0 -0.75,-0.33578 -0.75,-0.75z" fill="#434343" stroke="none" stroke-width="0.5"/><path d="M404.64121,75.18358c0,-0.41421 0.33578,-0.75 0.75,-0.75c0.41422,0 0.75,0.33579 0.75,0.75c0,0.41421 -0.33578,0.75 -0.75,0.75c-0.41422,0 -0.75,-0.33579 -0.75,-0.75z" fill="#434343" stroke="none" stroke-width="0.5"/><path d="M403.69995,5.5305c0,-0.41421 0.33578,-0.75 0.75,-0.75c0.41422,0 0.75,0.33579 0.75,0.75c0,0.41421 -0.33578,0.75 -0.75,0.75c-0.41422,0 -0.75,-0.33579 -0.75,-0.75z" fill="#434343" stroke="none" stroke-width="0.5"/><path d="M1.14558,82.26948c0,-0.43036 0.34888,-0.77924 0.77924,-0.77924c0.43036,0 0.77924,0.34888 0.77924,0.77924c0,0.43036 -0.34888,0.77924 -0.77924,0.77924c-0.43036,0 -0.77924,-0.34888 -0.77924,-0.77924z" fill="#5c5c5c" stroke="none" stroke-width="0.5"/><path d="M1.14558,117.50547c0,-0.43036 0.34888,-0.77924 0.77924,-0.77924c0.43036,0 0.77924,0.34888 0.77924,0.77924c0,0.43036 -0.34888,0.77924 -0.77924,0.77924c-0.43036,0 -0.77924,-0.34888 -0.77924,-0.77924z" fill="#5c5c5c" stroke="none" stroke-width="0.5"/><path d="M1.14558,122.24119c0,-0.43037 0.34888,-0.77924 0.77924,-0.77924c0.43037,0 0.77924,0.34888 0.77924,0.77924c0,0.43037 -0.34888,0.77924 -0.77924,0.77924c-0.43037,0 -0.77924,-0.34888 -0.77924,-0.77924z" fill="#5c5c5c" stroke="none" stroke-width="0.5"/><path d="M0,159.88684v-79.94342h79.94342v79.94342z" fill="#5b5b5b" stroke="#434343" stroke-width="1.5"/><path d="M159.88684,159.88684v-79.94342h79.94342v79.94342z" fill="#5b5b5b" stroke="#434343" stroke-width="1.5"/><path d="M79.94342,159.88684v-79.94342h79.94342v79.94342z" fill="#5b5b5b" stroke="#434343" stroke-width="1.5"/><path d="M240.97584,82.26948c0,-0.43036 0.34888,-0.77924 0.77924,-0.77924c0.43036,0 0.77924,0.34888 0.77924,0.77924c0,0.43036 -0.34888,0.77924 -0.77924,0.77924c-0.43036,0 -0.77924,-0.34888 -0.77924,-0.77924z" fill="#5c5c5c" stroke="none" stroke-width="0.5"/><path d="M240.97584,117.50547c0,-0.43036 0.34888,-0.77924 0.77924,-0.77924c0.43036,0 0.77924,0.34888 0.77924,0.77924c0,0.43036 -0.34888,0.77924 -0.77924,0.77924c-0.43036,0 -0.77924,-0.34888 -0.77924,-0.77924z" fill="#5c5c5c" stroke="none" stroke-width="0.5"/><path d="M240.97584,122.24119c0,-0.43037 0.34888,-0.77924 0.77924,-0.77924c0.43037,0 0.77924,0.34888 0.77924,0.77924c0,0.43037 -0.34888,0.77924 -0.77924,0.77924c-0.43037,0 -0.77924,-0.34888 -0.77924,-0.77924z" fill="#5c5c5c" stroke="none" stroke-width="0.5"/><path d="M239.83026,159.88684v-79.94342h79.94342v79.94342z" fill="#5b5b5b" stroke="#434343" stroke-width="1.5"/><path d="M399.7171,159.88684v-79.94342h79.94342v79.94342z" fill="#5b5b5b" stroke="#434343" stroke-width="1.5"/><path d="M319.77368,159.88684v-79.94342h79.94342v79.94342z" fill="#5b5b5b" stroke="#434343" stroke-width="1.5"/><path d="M74.70362,154.91009c0,-0.41421 0.33579,-0.75 0.75,-0.75c0.41421,0 0.75,0.33579 0.75,0.75c0,0.41421 -0.33579,0.75 -0.75,0.75c-0.41421,0 -0.75,-0.33579 -0.75,-0.75z" fill="#434343" stroke="none" stroke-width="0.5"/><path d="M73.50893,84.85669c0,-0.41421 0.33579,-0.75 0.75,-0.75c0.41421,0 0.75,0.33579 0.75,0.75c0,0.41421 -0.33579,0.75 -0.75,0.75c-0.41421,0 -0.75,-0.33579 -0.75,-0.75z" fill="#434343" stroke="none" stroke-width="0.5"/><path d="M4.32648,84.85669c0,-0.41421 0.33578,-0.75 0.75,-0.75c0.41422,0 0.75,0.33579 0.75,0.75c0,0.41421 -0.33578,0.75 -0.75,0.75c-0.41422,0 -0.75,-0.33579 -0.75,-0.75z" fill="#434343" stroke="none" stroke-width="0.5"/><path d="M2.44396,154.98041c0,-0.41421 0.33579,-0.75 0.75,-0.75c0.41422,0 0.75,0.33579 0.75,0.75c0,0.41421 -0.33578,0.75 -0.75,0.75c-0.41421,0 -0.75,-0.33579 -0.75,-0.75z" fill="#434343" stroke="none" stroke-width="0.5"/><path d="M152.57459,154.68877c0,-0.41421 0.33578,-0.75 0.75,-0.75c0.41422,0 0.75,0.33579 0.75,0.75c0,0.41421 -0.33578,0.75 -0.75,0.75c-0.41422,0 -0.75,-0.33579 -0.75,-0.75z" fill="#434343" stroke="none" stroke-width="0.5"/><path d="M88.09843,153.74751c0,-0.41421 0.33579,-0.75 0.75,-0.75c0.41421,0 0.75,0.33579 0.75,0.75c0,0.41421 -0.33579,0.75 -0.75,0.75c-0.41421,0 -0.75,-0.33579 -0.75,-0.75z" fill="#434343" stroke="none" stroke-width="0.5"/><path d="M84.3334,83.91544c0,-0.41421 0.33579,-0.75 0.75,-0.75c0.41421,0 0.75,0.33579 0.75,0.75c0,0.41421 -0.33579,0.75 -0.75,0.75c-0.41421,0 -0.75,-0.33579 -0.75,-0.75z" fill="#434343" stroke="none" stroke-width="0.5"/><path d="M153.98648,85.79795c0,-0.41421 0.33579,-0.75 0.75,-0.75c0.41421,0 0.75,0.33579 0.75,0.75c0,0.41421 -0.33579,0.75 -0.75,0.75c-0.41421,0 -0.75,-0.33579 -0.75,-0.75z" fill="#434343" stroke="none" stroke-width="0.5"/><path d="M164.81095,153.56852c0,-0.41421 0.33579,-0.75 0.75,-0.75c0.41421,0 0.75,0.33579 0.75,0.75c0,0.41421 -0.33579,0.75 -0.75,0.75c-0.41421,0 -0.75,-0.33579 -0.75,-0.75z" fill="#434343" stroke="none" stroke-width="0.5"/><path d="M163.86969,83.91543c0,-0.41421 0.33579,-0.75 0.75,-0.75c0.41421,0 0.75,0.33579 0.75,0.75c0,0.41421 -0.33579,0.75 -0.75,0.75c-0.41421,0 -0.75,-0.33579 -0.75,-0.75z" fill="#434343" stroke="none" stroke-width="0.5"/><path d="M235.40529,84.85669c0,-0.41421 0.33579,-0.75 0.75,-0.75c0.41421,0 0.75,0.33579 0.75,0.75c0,0.41421 -0.33579,0.75 -0.75,0.75c-0.41421,0 -0.75,-0.33579 -0.75,-0.75z" fill="#434343" stroke="none" stroke-width="0.5"/><path d="M235.40529,154.03915c0,-0.41421 0.33579,-0.75 0.75,-0.75c0.41421,0 0.75,0.33579 0.75,0.75c0,0.41421 -0.33579,0.75 -0.75,0.75c-0.41421,0 -0.75,-0.33579 -0.75,-0.75z" fill="#434343" stroke="none" stroke-width="0.5"/><path d="M6.14558,87.26948c0,-0.43036 0.34888,-0.77924 0.77924,-0.77924c0.43036,0 0.77924,0.34888 0.77924,0.77924c0,0.43036 -0.34888,0.77924 -0.77924,0.77924c-0.43036,0 -0.77924,-0.34888 -0.77924,-0.77924z" fill="#5c5c5c" stroke="none" stroke-width="0.5"/><path d="M6.14558,122.50547c0,-0.43036 0.34888,-0.77924 0.77924,-0.77924c0.43036,0 0.77924,0.34888 0.77924,0.77924c0,0.43036 -0.34888,0.77924 -0.77924,0.77924c-0.43036,0 -0.77924,-0.34888 -0.77924,-0.77924z" fill="#5c5c5c" stroke="none" stroke-width="0.5"/><path d="M6.14558,127.24119c0,-0.43037 0.34888,-0.77924 0.77924,-0.77924c0.43037,0 0.77924,0.34888 0.77924,0.77924c0,0.43037 -0.34888,0.77924 -0.77924,0.77924c-0.43037,0 -0.77924,-0.34888 -0.77924,-0.77924z" fill="#5c5c5c" stroke="none" stroke-width="0.5"/><path d="M79.70362,159.91009c0,-0.41421 0.33579,-0.75 0.75,-0.75c0.41421,0 0.75,0.33579 0.75,0.75c0,0.41421 -0.33579,0.75 -0.75,0.75c-0.41421,0 -0.75,-0.33579 -0.75,-0.75z" fill="#434343" stroke="none" stroke-width="0.5"/><path d="M78.50893,89.85669c0,-0.41421 0.33579,-0.75 0.75,-0.75c0.41421,0 0.75,0.33579 0.75,0.75c0,0.41421 -0.33579,0.75 -0.75,0.75c-0.41421,0 -0.75,-0.33579 -0.75,-0.75z" fill="#434343" stroke="none" stroke-width="0.5"/><path d="M9.32648,89.85669c0,-0.41421 0.33578,-0.75 0.75,-0.75c0.41422,0 0.75,0.33579 0.75,0.75c0,0.41421 -0.33578,0.75 -0.75,0.75c-0.41422,0 -0.75,-0.33579 -0.75,-0.75z" fill="#434343" stroke="none" stroke-width="0.5"/><path d="M7.44396,159.98041c0,-0.41421 0.33578,-0.75 0.75,-0.75c0.41421,0 0.75,0.33579 0.75,0.75c0,0.41421 -0.33579,0.75 -0.75,0.75c-0.41422,0 -0.75,-0.33579 -0.75,-0.75z" fill="#434343" stroke="none" stroke-width="0.5"/><path d="M157.57459,159.68877c0,-0.41421 0.33578,-0.75 0.75,-0.75c0.41422,0 0.75,0.33579 0.75,0.75c0,0.41421 -0.33578,0.75 -0.75,0.75c-0.41422,0 -0.75,-0.33579 -0.75,-0.75z" fill="#434343" stroke="none" stroke-width="0.5"/><path d="M93.09843,158.74751c0,-0.41421 0.33579,-0.75 0.75,-0.75c0.41421,0 0.75,0.33579 0.75,0.75c0,0.41421 -0.33579,0.75 -0.75,0.75c-0.41421,0 -0.75,-0.33579 -0.75,-0.75z" fill="#434343" stroke="none" stroke-width="0.5"/><path d="M89.3334,88.91543c0,-0.41422 0.33579,-0.75 0.75,-0.75c0.41421,0 0.75,0.33578 0.75,0.75c0,0.41421 -0.33579,0.75 -0.75,0.75c-0.41421,0 -0.75,-0.33579 -0.75,-0.75z" fill="#434343" stroke="none" stroke-width="0.5"/><path d="M158.98648,90.79795c0,-0.41421 0.33578,-0.75 0.75,-0.75c0.41422,0 0.75,0.33579 0.75,0.75c0,0.41421 -0.33578,0.75 -0.75,0.75c-0.41422,0 -0.75,-0.33579 -0.75,-0.75z" fill="#434343" stroke="none" stroke-width="0.5"/><path d="M169.81095,158.56852c0,-0.41421 0.33578,-0.75 0.75,-0.75c0.41422,0 0.75,0.33579 0.75,0.75c0,0.41421 -0.33578,0.75 -0.75,0.75c-0.41422,0 -0.75,-0.33579 -0.75,-0.75z" fill="#434343" stroke="none" stroke-width="0.5"/><path d="M168.86969,88.91543c0,-0.41422 0.33578,-0.75 0.75,-0.75c0.41422,0 0.75,0.33578 0.75,0.75c0,0.41421 -0.33578,0.75 -0.75,0.75c-0.41422,0 -0.75,-0.33579 -0.75,-0.75z" fill="#434343" stroke="none" stroke-width="0.5"/><path d="M240.97584,83.82796c0,-0.43036 0.34888,-0.77924 0.77924,-0.77924c0.43036,0 0.77924,0.34888 0.77924,0.77924c0,0.43036 -0.34888,0.77924 -0.77924,0.77924c-0.43036,0 -0.77924,-0.34888 -0.77924,-0.77924z" fill="#5c5c5c" stroke="none" stroke-width="0.5"/><path d="M240.97584,119.06395c0,-0.43036 0.34888,-0.77924 0.77924,-0.77924c0.43036,0 0.77924,0.34888 0.77924,0.77924c0,0.43036 -0.34888,0.77924 -0.77924,0.77924c-0.43036,0 -0.77924,-0.34888 -0.77924,-0.77924z" fill="#5c5c5c" stroke="none" stroke-width="0.5"/><path d="M240.97584,123.79967c0,-0.43037 0.34888,-0.77924 0.77924,-0.77924c0.43037,0 0.77924,0.34888 0.77924,0.77924c0,0.43037 -0.34888,0.77924 -0.77924,0.77924c-0.43037,0 -0.77924,-0.34888 -0.77924,-0.77924z" fill="#5c5c5c" stroke="none" stroke-width="0.5"/><path d="M314.53388,156.46857c0,-0.41421 0.33578,-0.75 0.75,-0.75c0.41422,0 0.75,0.33579 0.75,0.75c0,0.41421 -0.33578,0.75 -0.75,0.75c-0.41422,0 -0.75,-0.33579 -0.75,-0.75z" fill="#434343" stroke="none" stroke-width="0.5"/><path d="M313.33919,86.41517c0,-0.41422 0.33578,-0.75 0.75,-0.75c0.41422,0 0.75,0.33578 0.75,0.75c0,0.41422 -0.33578,0.75 -0.75,0.75c-0.41422,0 -0.75,-0.33578 -0.75,-0.75z" fill="#434343" stroke="none" stroke-width="0.5"/><path d="M244.15674,86.41517c0,-0.41422 0.33579,-0.75 0.75,-0.75c0.41421,0 0.75,0.33578 0.75,0.75c0,0.41422 -0.33579,0.75 -0.75,0.75c-0.41421,0 -0.75,-0.33578 -0.75,-0.75z" fill="#434343" stroke="none" stroke-width="0.5"/><path d="M242.27422,156.53889c0,-0.41421 0.33578,-0.75 0.75,-0.75c0.41422,0 0.75,0.33579 0.75,0.75c0,0.41421 -0.33578,0.75 -0.75,0.75c-0.41422,0 -0.75,-0.33579 -0.75,-0.75z" fill="#434343" stroke="none" stroke-width="0.5"/><path d="M392.40486,156.24725c0,-0.41421 0.33578,-0.75 0.75,-0.75c0.41422,0 0.75,0.33579 0.75,0.75c0,0.41421 -0.33578,0.75 -0.75,0.75c-0.41422,0 -0.75,-0.33579 -0.75,-0.75z" fill="#434343" stroke="none" stroke-width="0.5"/><path d="M327.92869,155.30599c0,-0.41421 0.33578,-0.75 0.75,-0.75c0.41422,0 0.75,0.33579 0.75,0.75c0,0.41421 -0.33578,0.75 -0.75,0.75c-0.41422,0 -0.75,-0.33579 -0.75,-0.75z" fill="#434343" stroke="none" stroke-width="0.5"/><path d="M324.16366,85.47392c0,-0.41421 0.33578,-0.75 0.75,-0.75c0.41422,0 0.75,0.33579 0.75,0.75c0,0.41421 -0.33578,0.75 -0.75,0.75c-0.41422,0 -0.75,-0.33579 -0.75,-0.75z" fill="#434343" stroke="none" stroke-width="0.5"/><path d="M393.81674,87.35643c0,-0.41422 0.33578,-0.75 0.75,-0.75c0.41422,0 0.75,0.33578 0.75,0.75c0,0.41422 -0.33578,0.75 -0.75,0.75c-0.41422,0 -0.75,-0.33578 -0.75,-0.75z" fill="#434343" stroke="none" stroke-width="0.5"/><path d="M404.64121,155.127c0,-0.41421 0.33578,-0.75 0.75,-0.75c0.41422,0 0.75,0.33579 0.75,0.75c0,0.41421 -0.33578,0.75 -0.75,0.75c-0.41422,0 -0.75,-0.33579 -0.75,-0.75z" fill="#434343" stroke="none" stroke-width="0.5"/><path d="M403.69995,85.47392c0,-0.41421 0.33578,-0.75 0.75,-0.75c0.41422,0 0.75,0.33579 0.75,0.75c0,0.41421 -0.33578,0.75 -0.75,0.75c-0.41422,0 -0.75,-0.33579 -0.75,-0.75z" fill="#434343" stroke="none" stroke-width="0.5"/><path d="M1.14558,162.2129c0,-0.43036 0.34888,-0.77924 0.77924,-0.77924c0.43036,0 0.77924,0.34888 0.77924,0.77924c0,0.43036 -0.34888,0.77924 -0.77924,0.77924c-0.43036,0 -0.77924,-0.34888 -0.77924,-0.77924z" fill="#5c5c5c" stroke="none" stroke-width="0.5"/><path d="M1.14558,197.44889c0,-0.43036 0.34888,-0.77924 0.77924,-0.77924c0.43036,0 0.77924,0.34888 0.77924,0.77924c0,0.43036 -0.34888,0.77924 -0.77924,0.77924c-0.43036,0 -0.77924,-0.34888 -0.77924,-0.77924z" fill="#5c5c5c" stroke="none" stroke-width="0.5"/><path d="M1.14558,202.18461c0,-0.43037 0.34888,-0.77924 0.77924,-0.77924c0.43037,0 0.77924,0.34888 0.77924,0.77924c0,0.43037 -0.34888,0.77924 -0.77924,0.77924c-0.43037,0 -0.77924,-0.34888 -0.77924,-0.77924z" fill="#5c5c5c" stroke="none" stroke-width="0.5"/><path d="M0,239.83026v-79.94342h79.94342v79.94342z" fill="#5b5b5b" stroke="#434343" stroke-width="1.5"/><path d="M159.88684,239.83026v-79.94342h79.94342v79.94342z" fill="#5b5b5b" stroke="#434343" stroke-width="1.5"/><path d="M79.94342,239.83026v-79.94342h79.94342v79.94342z" fill="#5b5b5b" stroke="#434343" stroke-width="1.5"/><path d="M240.97584,162.2129c0,-0.43036 0.34888,-0.77924 0.77924,-0.77924c0.43036,0 0.77924,0.34888 0.77924,0.77924c0,0.43036 -0.34888,0.77924 -0.77924,0.77924c-0.43036,0 -0.77924,-0.34888 -0.77924,-0.77924z" fill="#5c5c5c" stroke="none" stroke-width="0.5"/><path d="M240.97584,197.44889c0,-0.43036 0.34888,-0.77924 0.77924,-0.77924c0.43036,0 0.77924,0.34888 0.77924,0.77924c0,0.43036 -0.34888,0.77924 -0.77924,0.77924c-0.43036,0 -0.77924,-0.34888 -0.77924,-0.77924z" fill="#5c5c5c" stroke="none" stroke-width="0.5"/><path d="M240.97584,202.18461c0,-0.43037 0.34888,-0.77924 0.77924,-0.77924c0.43037,0 0.77924,0.34888 0.77924,0.77924c0,0.43037 -0.34888,0.77924 -0.77924,0.77924c-0.43037,0 -0.77924,-0.34888 -0.77924,-0.77924z" fill="#5c5c5c" stroke="none" stroke-width="0.5"/><path d="M239.83026,239.83026v-79.94342h79.94342v79.94342z" fill="#5b5b5b" stroke="#434343" stroke-width="1.5"/><path d="M399.7171,239.83026v-79.94342h79.94342v79.94342z" fill="#5b5b5b" stroke="#434343" stroke-width="1.5"/><path d="M319.77368,239.83026v-79.94342h79.94342v79.94342z" fill="#5b5b5b" stroke="#434343" stroke-width="1.5"/><path d="M74.70362,234.85351c0,-0.41421 0.33579,-0.75 0.75,-0.75c0.41421,0 0.75,0.33579 0.75,0.75c0,0.41421 -0.33579,0.75 -0.75,0.75c-0.41421,0 -0.75,-0.33579 -0.75,-0.75z" fill="#434343" stroke="none" stroke-width="0.5"/><path d="M73.50893,164.80011c0,-0.41421 0.33579,-0.75 0.75,-0.75c0.41421,0 0.75,0.33579 0.75,0.75c0,0.41421 -0.33579,0.75 -0.75,0.75c-0.41421,0 -0.75,-0.33579 -0.75,-0.75z" fill="#434343" stroke="none" stroke-width="0.5"/><path d="M4.32648,164.80011c0,-0.41421 0.33578,-0.75 0.75,-0.75c0.41422,0 0.75,0.33579 0.75,0.75c0,0.41421 -0.33578,0.75 -0.75,0.75c-0.41422,0 -0.75,-0.33579 -0.75,-0.75z" fill="#434343" stroke="none" stroke-width="0.5"/><path d="M2.44396,234.92383c0,-0.41421 0.33579,-0.75 0.75,-0.75c0.41422,0 0.75,0.33579 0.75,0.75c0,0.41421 -0.33578,0.75 -0.75,0.75c-0.41421,0 -0.75,-0.33579 -0.75,-0.75z" fill="#434343" stroke="none" stroke-width="0.5"/><path d="M152.57459,234.63219c0,-0.41421 0.33578,-0.75 0.75,-0.75c0.41422,0 0.75,0.33579 0.75,0.75c0,0.41421 -0.33578,0.75 -0.75,0.75c-0.41422,0 -0.75,-0.33579 -0.75,-0.75z" fill="#434343" stroke="none" stroke-width="0.5"/><path d="M88.09843,233.69093c0,-0.41421 0.33579,-0.75 0.75,-0.75c0.41421,0 0.75,0.33579 0.75,0.75c0,0.41421 -0.33579,0.75 -0.75,0.75c-0.41421,0 -0.75,-0.33579 -0.75,-0.75z" fill="#434343" stroke="none" stroke-width="0.5"/><path d="M84.3334,163.85886c0,-0.41421 0.33579,-0.75 0.75,-0.75c0.41421,0 0.75,0.33579 0.75,0.75c0,0.41421 -0.33579,0.75 -0.75,0.75c-0.41421,0 -0.75,-0.33579 -0.75,-0.75z" fill="#434343" stroke="none" stroke-width="0.5"/><path d="M153.98648,165.74137c0,-0.41421 0.33579,-0.75 0.75,-0.75c0.41421,0 0.75,0.33579 0.75,0.75c0,0.41421 -0.33579,0.75 -0.75,0.75c-0.41421,0 -0.75,-0.33579 -0.75,-0.75z" fill="#434343" stroke="none" stroke-width="0.5"/><path d="M164.81095,233.51194c0,-0.41421 0.33579,-0.75 0.75,-0.75c0.41421,0 0.75,0.33579 0.75,0.75c0,0.41421 -0.33579,0.75 -0.75,0.75c-0.41421,0 -0.75,-0.33579 -0.75,-0.75z" fill="#434343" stroke="none" stroke-width="0.5"/><path d="M163.86969,163.85885c0,-0.41421 0.33579,-0.75 0.75,-0.75c0.41421,0 0.75,0.33579 0.75,0.75c0,0.41421 -0.33579,0.75 -0.75,0.75c-0.41421,0 -0.75,-0.33579 -0.75,-0.75z" fill="#434343" stroke="none" stroke-width="0.5"/><path d="M235.40529,164.80011c0,-0.41421 0.33579,-0.75 0.75,-0.75c0.41421,0 0.75,0.33579 0.75,0.75c0,0.41421 -0.33579,0.75 -0.75,0.75c-0.41421,0 -0.75,-0.33579 -0.75,-0.75z" fill="#434343" stroke="none" stroke-width="0.5"/><path d="M235.40529,233.98257c0,-0.41421 0.33579,-0.75 0.75,-0.75c0.41421,0 0.75,0.33579 0.75,0.75c0,0.41421 -0.33579,0.75 -0.75,0.75c-0.41421,0 -0.75,-0.33579 -0.75,-0.75z" fill="#434343" stroke="none" stroke-width="0.5"/><path d="M6.14558,167.2129c0,-0.43036 0.34888,-0.77924 0.77924,-0.77924c0.43036,0 0.77924,0.34888 0.77924,0.77924c0,0.43036 -0.34888,0.77924 -0.77924,0.77924c-0.43036,0 -0.77924,-0.34888 -0.77924,-0.77924z" fill="#5c5c5c" stroke="none" stroke-width="0.5"/><path d="M6.14558,202.44889c0,-0.43036 0.34888,-0.77924 0.77924,-0.77924c0.43036,0 0.77924,0.34888 0.77924,0.77924c0,0.43036 -0.34888,0.77924 -0.77924,0.77924c-0.43036,0 -0.77924,-0.34888 -0.77924,-0.77924z" fill="#5c5c5c" stroke="none" stroke-width="0.5"/><path d="M6.14558,207.18461c0,-0.43037 0.34888,-0.77924 0.77924,-0.77924c0.43037,0 0.77924,0.34888 0.77924,0.77924c0,0.43037 -0.34888,0.77924 -0.77924,0.77924c-0.43037,0 -0.77924,-0.34888 -0.77924,-0.77924z" fill="#5c5c5c" stroke="none" stroke-width="0.5"/><path d="M79.70362,239.85351c0,-0.41421 0.33579,-0.75 0.75,-0.75c0.41421,0 0.75,0.33579 0.75,0.75c0,0.41421 -0.33579,0.75 -0.75,0.75c-0.41421,0 -0.75,-0.33579 -0.75,-0.75z" fill="#434343" stroke="none" stroke-width="0.5"/><path d="M78.50893,169.80011c0,-0.41421 0.33579,-0.75 0.75,-0.75c0.41421,0 0.75,0.33579 0.75,0.75c0,0.41421 -0.33579,0.75 -0.75,0.75c-0.41421,0 -0.75,-0.33579 -0.75,-0.75z" fill="#434343" stroke="none" stroke-width="0.5"/><path d="M9.32648,169.80011c0,-0.41421 0.33578,-0.75 0.75,-0.75c0.41422,0 0.75,0.33579 0.75,0.75c0,0.41421 -0.33578,0.75 -0.75,0.75c-0.41422,0 -0.75,-0.33579 -0.75,-0.75z" fill="#434343" stroke="none" stroke-width="0.5"/><path d="M7.44396,239.92383c0,-0.41421 0.33578,-0.75 0.75,-0.75c0.41421,0 0.75,0.33579 0.75,0.75c0,0.41421 -0.33579,0.75 -0.75,0.75c-0.41422,0 -0.75,-0.33579 -0.75,-0.75z" fill="#434343" stroke="none" stroke-width="0.5"/><path d="M157.57459,239.63219c0,-0.41421 0.33578,-0.75 0.75,-0.75c0.41422,0 0.75,0.33579 0.75,0.75c0,0.41421 -0.33578,0.75 -0.75,0.75c-0.41422,0 -0.75,-0.33579 -0.75,-0.75z" fill="#434343" stroke="none" stroke-width="0.5"/><path d="M93.09843,238.69093c0,-0.41421 0.33579,-0.75 0.75,-0.75c0.41421,0 0.75,0.33579 0.75,0.75c0,0.41421 -0.33579,0.75 -0.75,0.75c-0.41421,0 -0.75,-0.33579 -0.75,-0.75z" fill="#434343" stroke="none" stroke-width="0.5"/><path d="M89.3334,168.85885c0,-0.41422 0.33579,-0.75 0.75,-0.75c0.41421,0 0.75,0.33578 0.75,0.75c0,0.41421 -0.33579,0.75 -0.75,0.75c-0.41421,0 -0.75,-0.33579 -0.75,-0.75z" fill="#434343" stroke="none" stroke-width="0.5"/><path d="M158.98648,170.74137c0,-0.41421 0.33578,-0.75 0.75,-0.75c0.41422,0 0.75,0.33579 0.75,0.75c0,0.41421 -0.33578,0.75 -0.75,0.75c-0.41422,0 -0.75,-0.33579 -0.75,-0.75z" fill="#434343" stroke="none" stroke-width="0.5"/><path d="M169.81095,238.51194c0,-0.41421 0.33578,-0.75 0.75,-0.75c0.41422,0 0.75,0.33579 0.75,0.75c0,0.41421 -0.33578,0.75 -0.75,0.75c-0.41422,0 -0.75,-0.33579 -0.75,-0.75z" fill="#434343" stroke="none" stroke-width="0.5"/><path d="M168.86969,168.85885c0,-0.41422 0.33578,-0.75 0.75,-0.75c0.41422,0 0.75,0.33578 0.75,0.75c0,0.41421 -0.33578,0.75 -0.75,0.75c-0.41422,0 -0.75,-0.33579 -0.75,-0.75z" fill="#434343" stroke="none" stroke-width="0.5"/><path d="M240.97584,163.77138c0,-0.43036 0.34888,-0.77924 0.77924,-0.77924c0.43036,0 0.77924,0.34888 0.77924,0.77924c0,0.43036 -0.34888,0.77924 -0.77924,0.77924c-0.43036,0 -0.77924,-0.34888 -0.77924,-0.77924z" fill="#5c5c5c" stroke="none" stroke-width="0.5"/><path d="M240.97584,199.00737c0,-0.43036 0.34888,-0.77924 0.77924,-0.77924c0.43036,0 0.77924,0.34888 0.77924,0.77924c0,0.43036 -0.34888,0.77924 -0.77924,0.77924c-0.43036,0 -0.77924,-0.34888 -0.77924,-0.77924z" fill="#5c5c5c" stroke="none" stroke-width="0.5"/><path d="M240.97584,203.74309c0,-0.43037 0.34888,-0.77924 0.77924,-0.77924c0.43037,0 0.77924,0.34888 0.77924,0.77924c0,0.43037 -0.34888,0.77924 -0.77924,0.77924c-0.43037,0 -0.77924,-0.34888 -0.77924,-0.77924z" fill="#5c5c5c" stroke="none" stroke-width="0.5"/><path d="M314.53388,236.41199c0,-0.41421 0.33578,-0.75 0.75,-0.75c0.41422,0 0.75,0.33579 0.75,0.75c0,0.41421 -0.33578,0.75 -0.75,0.75c-0.41422,0 -0.75,-0.33579 -0.75,-0.75z" fill="#434343" stroke="none" stroke-width="0.5"/><path d="M313.33919,166.35859c0,-0.41422 0.33578,-0.75 0.75,-0.75c0.41422,0 0.75,0.33578 0.75,0.75c0,0.41422 -0.33578,0.75 -0.75,0.75c-0.41422,0 -0.75,-0.33578 -0.75,-0.75z" fill="#434343" stroke="none" stroke-width="0.5"/><path d="M244.15674,166.35859c0,-0.41422 0.33579,-0.75 0.75,-0.75c0.41421,0 0.75,0.33578 0.75,0.75c0,0.41422 -0.33579,0.75 -0.75,0.75c-0.41421,0 -0.75,-0.33578 -0.75,-0.75z" fill="#434343" stroke="none" stroke-width="0.5"/><path d="M242.27422,236.48231c0,-0.41421 0.33578,-0.75 0.75,-0.75c0.41422,0 0.75,0.33579 0.75,0.75c0,0.41421 -0.33578,0.75 -0.75,0.75c-0.41422,0 -0.75,-0.33579 -0.75,-0.75z" fill="#434343" stroke="none" stroke-width="0.5"/><path d="M392.40486,236.19067c0,-0.41421 0.33578,-0.75 0.75,-0.75c0.41422,0 0.75,0.33579 0.75,0.75c0,0.41421 -0.33578,0.75 -0.75,0.75c-0.41422,0 -0.75,-0.33579 -0.75,-0.75z" fill="#434343" stroke="none" stroke-width="0.5"/><path d="M327.92869,235.24941c0,-0.41421 0.33578,-0.75 0.75,-0.75c0.41422,0 0.75,0.33579 0.75,0.75c0,0.41421 -0.33578,0.75 -0.75,0.75c-0.41422,0 -0.75,-0.33579 -0.75,-0.75z" fill="#434343" stroke="none" stroke-width="0.5"/><path d="M324.16366,165.41734c0,-0.41421 0.33578,-0.75 0.75,-0.75c0.41422,0 0.75,0.33579 0.75,0.75c0,0.41421 -0.33578,0.75 -0.75,0.75c-0.41422,0 -0.75,-0.33579 -0.75,-0.75z" fill="#434343" stroke="none" stroke-width="0.5"/><path d="M393.81674,167.29985c0,-0.41422 0.33578,-0.75 0.75,-0.75c0.41422,0 0.75,0.33578 0.75,0.75c0,0.41422 -0.33578,0.75 -0.75,0.75c-0.41422,0 -0.75,-0.33578 -0.75,-0.75z" fill="#434343" stroke="none" stroke-width="0.5"/><path d="M404.64121,235.07042c0,-0.41421 0.33578,-0.75 0.75,-0.75c0.41422,0 0.75,0.33579 0.75,0.75c0,0.41421 -0.33578,0.75 -0.75,0.75c-0.41422,0 -0.75,-0.33579 -0.75,-0.75z" fill="#434343" stroke="none" stroke-width="0.5"/><path d="M403.69995,165.41734c0,-0.41421 0.33578,-0.75 0.75,-0.75c0.41422,0 0.75,0.33579 0.75,0.75c0,0.41421 -0.33578,0.75 -0.75,0.75c-0.41422,0 -0.75,-0.33579 -0.75,-0.75z" fill="#434343" stroke="none" stroke-width="0.5"/><path d="M1.14558,242.15632c0,-0.43036 0.34888,-0.77924 0.77924,-0.77924c0.43036,0 0.77924,0.34888 0.77924,0.77924c0,0.43036 -0.34888,0.77924 -0.77924,0.77924c-0.43036,0 -0.77924,-0.34888 -0.77924,-0.77924z" fill="#5c5c5c" stroke="none" stroke-width="0.5"/><path d="M1.14558,277.39231c0,-0.43036 0.34888,-0.77924 0.77924,-0.77924c0.43036,0 0.77924,0.34888 0.77924,0.77924c0,0.43036 -0.34888,0.77924 -0.77924,0.77924c-0.43036,0 -0.77924,-0.34888 -0.77924,-0.77924z" fill="#5c5c5c" stroke="none" stroke-width="0.5"/><path d="M1.14558,282.12803c0,-0.43037 0.34888,-0.77924 0.77924,-0.77924c0.43037,0 0.77924,0.34888 0.77924,0.77924c0,0.43037 -0.34888,0.77924 -0.77924,0.77924c-0.43037,0 -0.77924,-0.34888 -0.77924,-0.77924z" fill="#5c5c5c" stroke="none" stroke-width="0.5"/><path d="M0,319.77368v-79.94342h79.94342v79.94342z" fill="#5b5b5b" stroke="#434343" stroke-width="1.5"/><path d="M159.88684,319.77368v-79.94342h79.94342v79.94342z" fill="#5b5b5b" stroke="#434343" stroke-width="1.5"/><path d="M79.94342,319.77368v-79.94342h79.94342v79.94342z" fill="#5b5b5b" stroke="#434343" stroke-width="1.5"/><path d="M240.97584,242.15632c0,-0.43036 0.34888,-0.77924 0.77924,-0.77924c0.43036,0 0.77924,0.34888 0.77924,0.77924c0,0.43036 -0.34888,0.77924 -0.77924,0.77924c-0.43036,0 -0.77924,-0.34888 -0.77924,-0.77924z" fill="#5c5c5c" stroke="none" stroke-width="0.5"/><path d="M240.97584,277.39231c0,-0.43036 0.34888,-0.77924 0.77924,-0.77924c0.43036,0 0.77924,0.34888 0.77924,0.77924c0,0.43036 -0.34888,0.77924 -0.77924,0.77924c-0.43036,0 -0.77924,-0.34888 -0.77924,-0.77924z" fill="#5c5c5c" stroke="none" stroke-width="0.5"/><path d="M240.97584,282.12803c0,-0.43037 0.34888,-0.77924 0.77924,-0.77924c0.43037,0 0.77924,0.34888 0.77924,0.77924c0,0.43037 -0.34888,0.77924 -0.77924,0.77924c-0.43037,0 -0.77924,-0.34888 -0.77924,-0.77924z" fill="#5c5c5c" stroke="none" stroke-width="0.5"/><path d="M239.83026,319.77368v-79.94342h79.94342v79.94342z" fill="#5b5b5b" stroke="#434343" stroke-width="1.5"/><path d="M399.7171,319.77368v-79.94342h79.94342v79.94342z" fill="#5b5b5b" stroke="#434343" stroke-width="1.5"/><path d="M319.77368,319.77368v-79.94342h79.94342v79.94342z" fill="#5b5b5b" stroke="#434343" stroke-width="1.5"/><path d="M74.70362,314.79693c0,-0.41421 0.33579,-0.75 0.75,-0.75c0.41421,0 0.75,0.33579 0.75,0.75c0,0.41421 -0.33579,0.75 -0.75,0.75c-0.41421,0 -0.75,-0.33579 -0.75,-0.75z" fill="#434343" stroke="none" stroke-width="0.5"/><path d="M73.50893,244.74353c0,-0.41421 0.33579,-0.75 0.75,-0.75c0.41421,0 0.75,0.33579 0.75,0.75c0,0.41421 -0.33579,0.75 -0.75,0.75c-0.41421,0 -0.75,-0.33579 -0.75,-0.75z" fill="#434343" stroke="none" stroke-width="0.5"/><path d="M4.32648,244.74353c0,-0.41421 0.33578,-0.75 0.75,-0.75c0.41422,0 0.75,0.33579 0.75,0.75c0,0.41421 -0.33578,0.75 -0.75,0.75c-0.41422,0 -0.75,-0.33579 -0.75,-0.75z" fill="#434343" stroke="none" stroke-width="0.5"/><path d="M2.44396,314.86725c0,-0.41421 0.33579,-0.75 0.75,-0.75c0.41422,0 0.75,0.33579 0.75,0.75c0,0.41421 -0.33578,0.75 -0.75,0.75c-0.41421,0 -0.75,-0.33579 -0.75,-0.75z" fill="#434343" stroke="none" stroke-width="0.5"/><path d="M152.57459,314.57561c0,-0.41421 0.33578,-0.75 0.75,-0.75c0.41422,0 0.75,0.33579 0.75,0.75c0,0.41421 -0.33578,0.75 -0.75,0.75c-0.41422,0 -0.75,-0.33579 -0.75,-0.75z" fill="#434343" stroke="none" stroke-width="0.5"/><path d="M88.09843,313.63435c0,-0.41421 0.33579,-0.75 0.75,-0.75c0.41421,0 0.75,0.33579 0.75,0.75c0,0.41421 -0.33579,0.75 -0.75,0.75c-0.41421,0 -0.75,-0.33579 -0.75,-0.75z" fill="#434343" stroke="none" stroke-width="0.5"/><path d="M84.3334,243.80228c0,-0.41421 0.33579,-0.75 0.75,-0.75c0.41421,0 0.75,0.33579 0.75,0.75c0,0.41421 -0.33579,0.75 -0.75,0.75c-0.41421,0 -0.75,-0.33579 -0.75,-0.75z" fill="#434343" stroke="none" stroke-width="0.5"/><path d="M153.98648,245.68479c0,-0.41421 0.33579,-0.75 0.75,-0.75c0.41421,0 0.75,0.33579 0.75,0.75c0,0.41421 -0.33579,0.75 -0.75,0.75c-0.41421,0 -0.75,-0.33579 -0.75,-0.75z" fill="#434343" stroke="none" stroke-width="0.5"/><path d="M164.81095,313.45536c0,-0.41421 0.33579,-0.75 0.75,-0.75c0.41421,0 0.75,0.33579 0.75,0.75c0,0.41421 -0.33579,0.75 -0.75,0.75c-0.41421,0 -0.75,-0.33579 -0.75,-0.75z" fill="#434343" stroke="none" stroke-width="0.5"/><path d="M163.86969,243.80227c0,-0.41421 0.33579,-0.75 0.75,-0.75c0.41421,0 0.75,0.33579 0.75,0.75c0,0.41421 -0.33579,0.75 -0.75,0.75c-0.41421,0 -0.75,-0.33579 -0.75,-0.75z" fill="#434343" stroke="none" stroke-width="0.5"/><path d="M235.40529,244.74353c0,-0.41421 0.33579,-0.75 0.75,-0.75c0.41421,0 0.75,0.33579 0.75,0.75c0,0.41421 -0.33579,0.75 -0.75,0.75c-0.41421,0 -0.75,-0.33579 -0.75,-0.75z" fill="#434343" stroke="none" stroke-width="0.5"/><path d="M235.40529,313.92599c0,-0.41421 0.33579,-0.75 0.75,-0.75c0.41421,0 0.75,0.33579 0.75,0.75c0,0.41421 -0.33579,0.75 -0.75,0.75c-0.41421,0 -0.75,-0.33579 -0.75,-0.75z" fill="#434343" stroke="none" stroke-width="0.5"/><path d="M6.14558,247.15632c0,-0.43036 0.34888,-0.77924 0.77924,-0.77924c0.43036,0 0.77924,0.34888 0.77924,0.77924c0,0.43036 -0.34888,0.77924 -0.77924,0.77924c-0.43036,0 -0.77924,-0.34888 -0.77924,-0.77924z" fill="#5c5c5c" stroke="none" stroke-width="0.5"/><path d="M6.14558,282.39231c0,-0.43036 0.34888,-0.77924 0.77924,-0.77924c0.43036,0 0.77924,0.34888 0.77924,0.77924c0,0.43036 -0.34888,0.77924 -0.77924,0.77924c-0.43036,0 -0.77924,-0.34888 -0.77924,-0.77924z" fill="#5c5c5c" stroke="none" stroke-width="0.5"/><path d="M6.14558,287.12803c0,-0.43037 0.34888,-0.77924 0.77924,-0.77924c0.43037,0 0.77924,0.34888 0.77924,0.77924c0,0.43037 -0.34888,0.77924 -0.77924,0.77924c-0.43037,0 -0.77924,-0.34888 -0.77924,-0.77924z" fill="#5c5c5c" stroke="none" stroke-width="0.5"/><path d="M79.70362,319.79693c0,-0.41421 0.33579,-0.75 0.75,-0.75c0.41421,0 0.75,0.33579 0.75,0.75c0,0.41421 -0.33579,0.75 -0.75,0.75c-0.41421,0 -0.75,-0.33579 -0.75,-0.75z" fill="#434343" stroke="none" stroke-width="0.5"/><path d="M78.50893,249.74353c0,-0.41421 0.33579,-0.75 0.75,-0.75c0.41421,0 0.75,0.33579 0.75,0.75c0,0.41421 -0.33579,0.75 -0.75,0.75c-0.41421,0 -0.75,-0.33579 -0.75,-0.75z" fill="#434343" stroke="none" stroke-width="0.5"/><path d="M9.32648,249.74353c0,-0.41421 0.33578,-0.75 0.75,-0.75c0.41422,0 0.75,0.33579 0.75,0.75c0,0.41421 -0.33578,0.75 -0.75,0.75c-0.41422,0 -0.75,-0.33579 -0.75,-0.75z" fill="#434343" stroke="none" stroke-width="0.5"/><path d="M7.44396,319.86725c0,-0.41421 0.33578,-0.75 0.75,-0.75c0.41421,0 0.75,0.33579 0.75,0.75c0,0.41421 -0.33579,0.75 -0.75,0.75c-0.41422,0 -0.75,-0.33579 -0.75,-0.75z" fill="#434343" stroke="none" stroke-width="0.5"/><path d="M157.57459,319.57561c0,-0.41421 0.33578,-0.75 0.75,-0.75c0.41422,0 0.75,0.33579 0.75,0.75c0,0.41421 -0.33578,0.75 -0.75,0.75c-0.41422,0 -0.75,-0.33579 -0.75,-0.75z" fill="#434343" stroke="none" stroke-width="0.5"/><path d="M93.09843,318.63435c0,-0.41421 0.33579,-0.75 0.75,-0.75c0.41421,0 0.75,0.33579 0.75,0.75c0,0.41421 -0.33579,0.75 -0.75,0.75c-0.41421,0 -0.75,-0.33579 -0.75,-0.75z" fill="#434343" stroke="none" stroke-width="0.5"/><path d="M89.3334,248.80227c0,-0.41422 0.33579,-0.75 0.75,-0.75c0.41421,0 0.75,0.33578 0.75,0.75c0,0.41421 -0.33579,0.75 -0.75,0.75c-0.41421,0 -0.75,-0.33579 -0.75,-0.75z" fill="#434343" stroke="none" stroke-width="0.5"/><path d="M158.98648,250.68479c0,-0.41421 0.33578,-0.75 0.75,-0.75c0.41422,0 0.75,0.33579 0.75,0.75c0,0.41421 -0.33578,0.75 -0.75,0.75c-0.41422,0 -0.75,-0.33579 -0.75,-0.75z" fill="#434343" stroke="none" stroke-width="0.5"/><path d="M169.81095,318.45536c0,-0.41421 0.33578,-0.75 0.75,-0.75c0.41422,0 0.75,0.33579 0.75,0.75c0,0.41421 -0.33578,0.75 -0.75,0.75c-0.41422,0 -0.75,-0.33579 -0.75,-0.75z" fill="#434343" stroke="none" stroke-width="0.5"/><path d="M168.86969,248.80227c0,-0.41422 0.33578,-0.75 0.75,-0.75c0.41422,0 0.75,0.33578 0.75,0.75c0,0.41421 -0.33578,0.75 -0.75,0.75c-0.41422,0 -0.75,-0.33579 -0.75,-0.75z" fill="#434343" stroke="none" stroke-width="0.5"/><path d="M240.97584,243.7148c0,-0.43036 0.34888,-0.77924 0.77924,-0.77924c0.43036,0 0.77924,0.34888 0.77924,0.77924c0,0.43036 -0.34888,0.77924 -0.77924,0.77924c-0.43036,0 -0.77924,-0.34888 -0.77924,-0.77924z" fill="#5c5c5c" stroke="none" stroke-width="0.5"/><path d="M240.97584,278.95079c0,-0.43036 0.34888,-0.77924 0.77924,-0.77924c0.43036,0 0.77924,0.34888 0.77924,0.77924c0,0.43036 -0.34888,0.77924 -0.77924,0.77924c-0.43036,0 -0.77924,-0.34888 -0.77924,-0.77924z" fill="#5c5c5c" stroke="none" stroke-width="0.5"/><path d="M240.97584,283.68651c0,-0.43037 0.34888,-0.77924 0.77924,-0.77924c0.43037,0 0.77924,0.34888 0.77924,0.77924c0,0.43037 -0.34888,0.77924 -0.77924,0.77924c-0.43037,0 -0.77924,-0.34888 -0.77924,-0.77924z" fill="#5c5c5c" stroke="none" stroke-width="0.5"/><path d="M314.53388,316.35541c0,-0.41421 0.33578,-0.75 0.75,-0.75c0.41422,0 0.75,0.33579 0.75,0.75c0,0.41421 -0.33578,0.75 -0.75,0.75c-0.41422,0 -0.75,-0.33579 -0.75,-0.75z" fill="#434343" stroke="none" stroke-width="0.5"/><path d="M313.33919,246.30201c0,-0.41422 0.33578,-0.75 0.75,-0.75c0.41422,0 0.75,0.33578 0.75,0.75c0,0.41422 -0.33578,0.75 -0.75,0.75c-0.41422,0 -0.75,-0.33578 -0.75,-0.75z" fill="#434343" stroke="none" stroke-width="0.5"/><path d="M244.15674,246.30201c0,-0.41422 0.33579,-0.75 0.75,-0.75c0.41421,0 0.75,0.33578 0.75,0.75c0,0.41422 -0.33579,0.75 -0.75,0.75c-0.41421,0 -0.75,-0.33578 -0.75,-0.75z" fill="#434343" stroke="none" stroke-width="0.5"/><path d="M242.27422,316.42573c0,-0.41421 0.33578,-0.75 0.75,-0.75c0.41422,0 0.75,0.33579 0.75,0.75c0,0.41421 -0.33578,0.75 -0.75,0.75c-0.41422,0 -0.75,-0.33579 -0.75,-0.75z" fill="#434343" stroke="none" stroke-width="0.5"/><path d="M392.40486,316.13409c0,-0.41421 0.33578,-0.75 0.75,-0.75c0.41422,0 0.75,0.33579 0.75,0.75c0,0.41421 -0.33578,0.75 -0.75,0.75c-0.41422,0 -0.75,-0.33579 -0.75,-0.75z" fill="#434343" stroke="none" stroke-width="0.5"/><path d="M327.92869,315.19283c0,-0.41421 0.33578,-0.75 0.75,-0.75c0.41422,0 0.75,0.33579 0.75,0.75c0,0.41421 -0.33578,0.75 -0.75,0.75c-0.41422,0 -0.75,-0.33579 -0.75,-0.75z" fill="#434343" stroke="none" stroke-width="0.5"/><path d="M324.16366,245.36076c0,-0.41421 0.33578,-0.75 0.75,-0.75c0.41422,0 0.75,0.33579 0.75,0.75c0,0.41421 -0.33578,0.75 -0.75,0.75c-0.41422,0 -0.75,-0.33579 -0.75,-0.75z" fill="#434343" stroke="none" stroke-width="0.5"/><path d="M393.81674,247.24327c0,-0.41422 0.33578,-0.75 0.75,-0.75c0.41422,0 0.75,0.33578 0.75,0.75c0,0.41422 -0.33578,0.75 -0.75,0.75c-0.41422,0 -0.75,-0.33578 -0.75,-0.75z" fill="#434343" stroke="none" stroke-width="0.5"/><path d="M404.64121,315.01384c0,-0.41421 0.33578,-0.75 0.75,-0.75c0.41422,0 0.75,0.33579 0.75,0.75c0,0.41421 -0.33578,0.75 -0.75,0.75c-0.41422,0 -0.75,-0.33579 -0.75,-0.75z" fill="#434343" stroke="none" stroke-width="0.5"/><path d="M403.69995,245.36076c0,-0.41421 0.33578,-0.75 0.75,-0.75c0.41422,0 0.75,0.33579 0.75,0.75c0,0.41421 -0.33578,0.75 -0.75,0.75c-0.41422,0 -0.75,-0.33579 -0.75,-0.75z" fill="#434343" stroke="none" stroke-width="0.5"/><path d="M1.14558,322.09974c0,-0.43036 0.34888,-0.77924 0.77924,-0.77924c0.43036,0 0.77924,0.34888 0.77924,0.77924c0,0.43036 -0.34888,0.77924 -0.77924,0.77924c-0.43036,0 -0.77924,-0.34888 -0.77924,-0.77924z" fill="#5c5c5c" stroke="none" stroke-width="0.5"/><path d="M1.14558,357.33573c0,-0.43036 0.34888,-0.77924 0.77924,-0.77924c0.43036,0 0.77924,0.34888 0.77924,0.77924c0,0.43036 -0.34888,0.77924 -0.77924,0.77924c-0.43036,0 -0.77924,-0.34888 -0.77924,-0.77924z" fill="#5c5c5c" stroke="none" stroke-width="0.5"/><path d="M1.14558,362.07145c0,-0.43037 0.34888,-0.77924 0.77924,-0.77924c0.43037,0 0.77924,0.34888 0.77924,0.77924c0,0.43037 -0.34888,0.77924 -0.77924,0.77924c-0.43037,0 -0.77924,-0.34888 -0.77924,-0.77924z" fill="#5c5c5c" stroke="none" stroke-width="0.5"/><path d="M0,399.7171v-79.94342h79.94342v79.94342z" fill="#5b5b5b" stroke="#434343" stroke-width="1.5"/><path d="M159.88684,399.7171v-79.94342h79.94342v79.94342z" fill="#5b5b5b" stroke="#434343" stroke-width="1.5"/><path d="M79.94342,399.7171v-79.94342h79.94342v79.94342z" fill="#5b5b5b" stroke="#434343" stroke-width="1.5"/><path d="M240.97584,322.09974c0,-0.43036 0.34888,-0.77924 0.77924,-0.77924c0.43036,0 0.77924,0.34888 0.77924,0.77924c0,0.43036 -0.34888,0.77924 -0.77924,0.77924c-0.43036,0 -0.77924,-0.34888 -0.77924,-0.77924z" fill="#5c5c5c" stroke="none" stroke-width="0.5"/><path d="M240.97584,357.33573c0,-0.43036 0.34888,-0.77924 0.77924,-0.77924c0.43036,0 0.77924,0.34888 0.77924,0.77924c0,0.43036 -0.34888,0.77924 -0.77924,0.77924c-0.43036,0 -0.77924,-0.34888 -0.77924,-0.77924z" fill="#5c5c5c" stroke="none" stroke-width="0.5"/><path d="M240.97584,362.07145c0,-0.43037 0.34888,-0.77924 0.77924,-0.77924c0.43037,0 0.77924,0.34888 0.77924,0.77924c0,0.43037 -0.34888,0.77924 -0.77924,0.77924c-0.43037,0 -0.77924,-0.34888 -0.77924,-0.77924z" fill="#5c5c5c" stroke="none" stroke-width="0.5"/><path d="M239.83026,399.7171v-79.94342h79.94342v79.94342z" fill="#5b5b5b" stroke="#434343" stroke-width="1.5"/><path d="M399.7171,399.7171v-79.94342h79.94342v79.94342z" fill="#5b5b5b" stroke="#434343" stroke-width="1.5"/><path d="M319.77368,399.7171v-79.94342h79.94342v79.94342z" fill="#5b5b5b" stroke="#434343" stroke-width="1.5"/><path d="M74.70362,394.74035c0,-0.41421 0.33579,-0.75 0.75,-0.75c0.41421,0 0.75,0.33579 0.75,0.75c0,0.41421 -0.33579,0.75 -0.75,0.75c-0.41421,0 -0.75,-0.33579 -0.75,-0.75z" fill="#434343" stroke="none" stroke-width="0.5"/><path d="M73.50893,324.68695c0,-0.41421 0.33579,-0.75 0.75,-0.75c0.41421,0 0.75,0.33579 0.75,0.75c0,0.41421 -0.33579,0.75 -0.75,0.75c-0.41421,0 -0.75,-0.33579 -0.75,-0.75z" fill="#434343" stroke="none" stroke-width="0.5"/><path d="M4.32648,324.68695c0,-0.41421 0.33578,-0.75 0.75,-0.75c0.41422,0 0.75,0.33579 0.75,0.75c0,0.41421 -0.33578,0.75 -0.75,0.75c-0.41422,0 -0.75,-0.33579 -0.75,-0.75z" fill="#434343" stroke="none" stroke-width="0.5"/><path d="M2.44396,394.81067c0,-0.41421 0.33579,-0.75 0.75,-0.75c0.41422,0 0.75,0.33579 0.75,0.75c0,0.41421 -0.33578,0.75 -0.75,0.75c-0.41421,0 -0.75,-0.33579 -0.75,-0.75z" fill="#434343" stroke="none" stroke-width="0.5"/><path d="M152.57459,394.51903c0,-0.41421 0.33578,-0.75 0.75,-0.75c0.41422,0 0.75,0.33579 0.75,0.75c0,0.41421 -0.33578,0.75 -0.75,0.75c-0.41422,0 -0.75,-0.33579 -0.75,-0.75z" fill="#434343" stroke="none" stroke-width="0.5"/><path d="M88.09843,393.57777c0,-0.41421 0.33579,-0.75 0.75,-0.75c0.41421,0 0.75,0.33579 0.75,0.75c0,0.41421 -0.33579,0.75 -0.75,0.75c-0.41421,0 -0.75,-0.33579 -0.75,-0.75z" fill="#434343" stroke="none" stroke-width="0.5"/><path d="M84.3334,323.7457c0,-0.41421 0.33579,-0.75 0.75,-0.75c0.41421,0 0.75,0.33579 0.75,0.75c0,0.41421 -0.33579,0.75 -0.75,0.75c-0.41421,0 -0.75,-0.33579 -0.75,-0.75z" fill="#434343" stroke="none" stroke-width="0.5"/><path d="M153.98648,325.62821c0,-0.41421 0.33579,-0.75 0.75,-0.75c0.41421,0 0.75,0.33579 0.75,0.75c0,0.41421 -0.33579,0.75 -0.75,0.75c-0.41421,0 -0.75,-0.33579 -0.75,-0.75z" fill="#434343" stroke="none" stroke-width="0.5"/><path d="M164.81095,393.39878c0,-0.41421 0.33579,-0.75 0.75,-0.75c0.41421,0 0.75,0.33579 0.75,0.75c0,0.41421 -0.33579,0.75 -0.75,0.75c-0.41421,0 -0.75,-0.33579 -0.75,-0.75z" fill="#434343" stroke="none" stroke-width="0.5"/><path d="M163.86969,323.74569c0,-0.41421 0.33579,-0.75 0.75,-0.75c0.41421,0 0.75,0.33579 0.75,0.75c0,0.41421 -0.33579,0.75 -0.75,0.75c-0.41421,0 -0.75,-0.33579 -0.75,-0.75z" fill="#434343" stroke="none" stroke-width="0.5"/><path d="M235.40529,324.68695c0,-0.41421 0.33579,-0.75 0.75,-0.75c0.41421,0 0.75,0.33579 0.75,0.75c0,0.41421 -0.33579,0.75 -0.75,0.75c-0.41421,0 -0.75,-0.33579 -0.75,-0.75z" fill="#434343" stroke="none" stroke-width="0.5"/><path d="M235.40529,393.86941c0,-0.41421 0.33579,-0.75 0.75,-0.75c0.41421,0 0.75,0.33579 0.75,0.75c0,0.41421 -0.33579,0.75 -0.75,0.75c-0.41421,0 -0.75,-0.33579 -0.75,-0.75z" fill="#434343" stroke="none" stroke-width="0.5"/><path d="M6.14558,327.09974c0,-0.43036 0.34888,-0.77924 0.77924,-0.77924c0.43036,0 0.77924,0.34888 0.77924,0.77924c0,0.43036 -0.34888,0.77924 -0.77924,0.77924c-0.43036,0 -0.77924,-0.34888 -0.77924,-0.77924z" fill="#5c5c5c" stroke="none" stroke-width="0.5"/><path d="M6.14558,362.33573c0,-0.43036 0.34888,-0.77924 0.77924,-0.77924c0.43036,0 0.77924,0.34888 0.77924,0.77924c0,0.43036 -0.34888,0.77924 -0.77924,0.77924c-0.43036,0 -0.77924,-0.34888 -0.77924,-0.77924z" fill="#5c5c5c" stroke="none" stroke-width="0.5"/><path d="M6.14558,367.07145c0,-0.43037 0.34888,-0.77924 0.77924,-0.77924c0.43037,0 0.77924,0.34888 0.77924,0.77924c0,0.43037 -0.34888,0.77924 -0.77924,0.77924c-0.43037,0 -0.77924,-0.34888 -0.77924,-0.77924z" fill="#5c5c5c" stroke="none" stroke-width="0.5"/><path d="M79.70362,399.74035c0,-0.41421 0.33579,-0.75 0.75,-0.75c0.41421,0 0.75,0.33579 0.75,0.75c0,0.41421 -0.33579,0.75 -0.75,0.75c-0.41421,0 -0.75,-0.33579 -0.75,-0.75z" fill="#434343" stroke="none" stroke-width="0.5"/><path d="M78.50893,329.68695c0,-0.41421 0.33579,-0.75 0.75,-0.75c0.41421,0 0.75,0.33579 0.75,0.75c0,0.41421 -0.33579,0.75 -0.75,0.75c-0.41421,0 -0.75,-0.33579 -0.75,-0.75z" fill="#434343" stroke="none" stroke-width="0.5"/><path d="M9.32648,329.68695c0,-0.41421 0.33578,-0.75 0.75,-0.75c0.41422,0 0.75,0.33579 0.75,0.75c0,0.41421 -0.33578,0.75 -0.75,0.75c-0.41422,0 -0.75,-0.33579 -0.75,-0.75z" fill="#434343" stroke="none" stroke-width="0.5"/><path d="M7.44396,399.81067c0,-0.41421 0.33578,-0.75 0.75,-0.75c0.41421,0 0.75,0.33579 0.75,0.75c0,0.41421 -0.33579,0.75 -0.75,0.75c-0.41422,0 -0.75,-0.33579 -0.75,-0.75z" fill="#434343" stroke="none" stroke-width="0.5"/><path d="M157.57459,399.51903c0,-0.41421 0.33578,-0.75 0.75,-0.75c0.41422,0 0.75,0.33579 0.75,0.75c0,0.41421 -0.33578,0.75 -0.75,0.75c-0.41422,0 -0.75,-0.33579 -0.75,-0.75z" fill="#434343" stroke="none" stroke-width="0.5"/><path d="M93.09843,398.57777c0,-0.41421 0.33579,-0.75 0.75,-0.75c0.41421,0 0.75,0.33579 0.75,0.75c0,0.41421 -0.33579,0.75 -0.75,0.75c-0.41421,0 -0.75,-0.33579 -0.75,-0.75z" fill="#434343" stroke="none" stroke-width="0.5"/><path d="M89.3334,328.74569c0,-0.41422 0.33579,-0.75 0.75,-0.75c0.41421,0 0.75,0.33578 0.75,0.75c0,0.41421 -0.33579,0.75 -0.75,0.75c-0.41421,0 -0.75,-0.33579 -0.75,-0.75z" fill="#434343" stroke="none" stroke-width="0.5"/><path d="M158.98648,330.62821c0,-0.41421 0.33578,-0.75 0.75,-0.75c0.41422,0 0.75,0.33579 0.75,0.75c0,0.41421 -0.33578,0.75 -0.75,0.75c-0.41422,0 -0.75,-0.33579 -0.75,-0.75z" fill="#434343" stroke="none" stroke-width="0.5"/><path d="M169.81095,398.39878c0,-0.41421 0.33578,-0.75 0.75,-0.75c0.41422,0 0.75,0.33579 0.75,0.75c0,0.41421 -0.33578,0.75 -0.75,0.75c-0.41422,0 -0.75,-0.33579 -0.75,-0.75z" fill="#434343" stroke="none" stroke-width="0.5"/><path d="M168.86969,328.74569c0,-0.41422 0.33578,-0.75 0.75,-0.75c0.41422,0 0.75,0.33578 0.75,0.75c0,0.41421 -0.33578,0.75 -0.75,0.75c-0.41422,0 -0.75,-0.33579 -0.75,-0.75z" fill="#434343" stroke="none" stroke-width="0.5"/><path d="M240.97584,323.65822c0,-0.43036 0.34888,-0.77924 0.77924,-0.77924c0.43036,0 0.77924,0.34888 0.77924,0.77924c0,0.43036 -0.34888,0.77924 -0.77924,0.77924c-0.43036,0 -0.77924,-0.34888 -0.77924,-0.77924z" fill="#5c5c5c" stroke="none" stroke-width="0.5"/><path d="M240.97584,358.89421c0,-0.43036 0.34888,-0.77924 0.77924,-0.77924c0.43036,0 0.77924,0.34888 0.77924,0.77924c0,0.43036 -0.34888,0.77924 -0.77924,0.77924c-0.43036,0 -0.77924,-0.34888 -0.77924,-0.77924z" fill="#5c5c5c" stroke="none" stroke-width="0.5"/><path d="M240.97584,363.62993c0,-0.43037 0.34888,-0.77924 0.77924,-0.77924c0.43037,0 0.77924,0.34888 0.77924,0.77924c0,0.43037 -0.34888,0.77924 -0.77924,0.77924c-0.43037,0 -0.77924,-0.34888 -0.77924,-0.77924z" fill="#5c5c5c" stroke="none" stroke-width="0.5"/><path d="M314.53388,396.29883c0,-0.41421 0.33578,-0.75 0.75,-0.75c0.41422,0 0.75,0.33579 0.75,0.75c0,0.41421 -0.33578,0.75 -0.75,0.75c-0.41422,0 -0.75,-0.33579 -0.75,-0.75z" fill="#434343" stroke="none" stroke-width="0.5"/><path d="M313.33919,326.24543c0,-0.41422 0.33578,-0.75 0.75,-0.75c0.41422,0 0.75,0.33578 0.75,0.75c0,0.41422 -0.33578,0.75 -0.75,0.75c-0.41422,0 -0.75,-0.33578 -0.75,-0.75z" fill="#434343" stroke="none" stroke-width="0.5"/><path d="M244.15674,326.24543c0,-0.41422 0.33579,-0.75 0.75,-0.75c0.41421,0 0.75,0.33578 0.75,0.75c0,0.41422 -0.33579,0.75 -0.75,0.75c-0.41421,0 -0.75,-0.33578 -0.75,-0.75z" fill="#434343" stroke="none" stroke-width="0.5"/><path d="M242.27422,396.36915c0,-0.41421 0.33578,-0.75 0.75,-0.75c0.41422,0 0.75,0.33579 0.75,0.75c0,0.41421 -0.33578,0.75 -0.75,0.75c-0.41422,0 -0.75,-0.33579 -0.75,-0.75z" fill="#434343" stroke="none" stroke-width="0.5"/><path d="M392.40486,396.07751c0,-0.41421 0.33578,-0.75 0.75,-0.75c0.41422,0 0.75,0.33579 0.75,0.75c0,0.41421 -0.33578,0.75 -0.75,0.75c-0.41422,0 -0.75,-0.33579 -0.75,-0.75z" fill="#434343" stroke="none" stroke-width="0.5"/><path d="M327.92869,395.13625c0,-0.41421 0.33578,-0.75 0.75,-0.75c0.41422,0 0.75,0.33579 0.75,0.75c0,0.41421 -0.33578,0.75 -0.75,0.75c-0.41422,0 -0.75,-0.33579 -0.75,-0.75z" fill="#434343" stroke="none" stroke-width="0.5"/><path d="M324.16366,325.30418c0,-0.41421 0.33578,-0.75 0.75,-0.75c0.41422,0 0.75,0.33579 0.75,0.75c0,0.41421 -0.33578,0.75 -0.75,0.75c-0.41422,0 -0.75,-0.33579 -0.75,-0.75z" fill="#434343" stroke="none" stroke-width="0.5"/><path d="M393.81674,327.18669c0,-0.41422 0.33578,-0.75 0.75,-0.75c0.41422,0 0.75,0.33578 0.75,0.75c0,0.41422 -0.33578,0.75 -0.75,0.75c-0.41422,0 -0.75,-0.33578 -0.75,-0.75z" fill="#434343" stroke="none" stroke-width="0.5"/><path d="M404.64121,394.95726c0,-0.41421 0.33578,-0.75 0.75,-0.75c0.41422,0 0.75,0.33579 0.75,0.75c0,0.41421 -0.33578,0.75 -0.75,0.75c-0.41422,0 -0.75,-0.33579 -0.75,-0.75z" fill="#434343" stroke="none" stroke-width="0.5"/><path d="M403.69995,325.30418c0,-0.41421 0.33578,-0.75 0.75,-0.75c0.41422,0 0.75,0.33579 0.75,0.75c0,0.41421 -0.33578,0.75 -0.75,0.75c-0.41422,0 -0.75,-0.33579 -0.75,-0.75z" fill="#434343" stroke="none" stroke-width="0.5"/><path d="M-11.66974,422.375c0,-0.41421 0.33579,-0.75 0.75,-0.75c0.41421,0 0.75,0.33579 0.75,0.75c0,0.41421 -0.33579,0.75 -0.75,0.75c-0.41421,0 -0.75,-0.33579 -0.75,-0.75z" fill="#9966ff" stroke="none" stroke-width="0.5"/><path d="M-12.41974,-13.625c0,-0.41421 0.33579,-0.75 0.75,-0.75c0.41421,0 0.75,0.33579 0.75,0.75c0,0.41421 -0.33579,0.75 -0.75,0.75c-0.41421,0 -0.75,-0.33579 -0.75,-0.75z" fill="#9966ff" stroke="none" stroke-width="0.5"/></g></g></svg>