<svg version="1.1" xmlns="http://www.w3.org/2000/svg" xmlns:xlink="http://www.w3.org/1999/xlink" width="26.70833" height="39.97171" viewBox="0,0,26.70833,39.97171"><defs><radialGradient cx="240.02341" cy="164.07817" r="2.40188" gradientUnits="userSpaceOnUse" id="color-1"><stop offset="0" stop-color="#ffc500"/><stop offset="1" stop-color="#ffc500" stop-opacity="0"/></radialGradient></defs><g transform="translate(-226.6459,-160.01414)"><g data-paper-data="{&quot;isPaintingLayer&quot;:true}" fill-rule="nonzero" stroke-linejoin="miter" stroke-miterlimit="10" stroke-dasharray="" stroke-dashoffset="0" style="mix-blend-mode: normal"><path d="M227.39591,199.23585v-17.22171h25.20833v17.22171z" fill="#999999" stroke="#7d7d7d" stroke-width="1.5" stroke-linecap="butt"/><path d="M227.39591,195.75v-13.73585h25.20833v13.73585z" fill="#999999" stroke="#7d7d7d" stroke-width="1.5" stroke-linecap="butt"/><path d="M229.64598,193v-32.23585h20.70833v32.23585z" fill="#999999" stroke="#7d7d7d" stroke-width="1.5" stroke-linecap="butt"/><path d="M229.64598,167.99999v-7.23585h20.70833v7.23585z" fill="#999999" stroke="#7d7d7d" stroke-width="1.5" stroke-linecap="butt"/><path d="M232.66608,189.4375v-18.875h14.66792v18.875z" fill="#d3d3d3" stroke="#b3b3b3" stroke-width="1.5" stroke-linecap="butt"/><path d="M237.27781,173.04364v2.22222" fill="none" stroke="#545454" stroke-width="1.5" stroke-linecap="round"/><path d="M242.72227,175.37698v-2.44445" fill="none" stroke="#545454" stroke-width="1.5" stroke-linecap="round"/><path d="M240.87631,162.99872c-0.11664,0.23323 -0.79484,0.47849 -0.53267,0.6318c0.34483,0.20165 1.39544,-0.02066 1.19539,0.65322c-0.13039,0.43923 -1.27952,1.88097 -2.01843,1.60441c-1.41895,-0.53109 0.54642,-0.94919 0.23167,-1.27677c-0.18698,-0.19461 -1.06731,0.04597 -1.20144,-0.32217c-0.11186,-0.30704 0.81503,-1.92658 1.36129,-1.9493c0.10559,-0.05131 0.23157,-0.08112 0.36684,-0.08112c0.35658,0 0.64856,0.20709 0.67298,0.46937c0.00394,0.01992 0.0041,0.04184 0.0004,0.06665c-0.00782,0.05238 -0.03288,0.1176 -0.07604,0.20391z" fill="#ffea00" stroke="none" stroke-width="0.5" stroke-linecap="butt"/><path d="M242.40365,164.07817c0,1.22193 -1.06567,2.21249 -2.38024,2.21249c-1.31457,0 -2.38024,-0.99057 -2.38024,-2.21249c0,-1.22193 1.06567,-2.21249 2.38024,-2.21249c1.31457,0 2.38024,0.99057 2.38024,2.21249z" fill="url(#color-1)" stroke="none" stroke-width="0" stroke-linecap="butt"/><path d="M239.50274,177.34674c0.26091,-0.27332 0.63825,-0.42374 1.28337,-0.32808c0.84508,0.12532 1.69353,1.72572 1.26522,2.47786c-0.29454,0.51724 -3.17231,0.72317 -3.52919,0.19445c-0.63628,-0.94263 0.07333,-2.0322 0.9806,-2.34423z" fill="#545454" stroke="none" stroke-width="0.5" stroke-linecap="butt"/><path d="M237.27782,181.33334v2.22222" fill="none" stroke="#545454" stroke-width="1.5" stroke-linecap="round"/><path d="M242.72228,181.22222v2.44445" fill="none" stroke="#545454" stroke-width="1.5" stroke-linecap="round"/><path d="M239.50275,185.63644c0.26091,-0.27332 0.63825,-0.42374 1.28337,-0.32808c0.84508,0.12532 1.69353,1.72572 1.26522,2.47786c-0.29454,0.51724 -3.17231,0.72317 -3.5292,0.19445c-0.63628,-0.94263 0.07333,-2.0322 0.9806,-2.34423z" fill="#545454" stroke="none" stroke-width="0.5" stroke-linecap="butt"/><path d="M244.54828,172.59822c0,-0.41421 0.33579,-0.75 0.75,-0.75c0.41421,0 0.75,0.33579 0.75,0.75c0,0.41421 -0.33579,0.75 -0.75,0.75c-0.41421,0 -0.75,-0.33579 -0.75,-0.75z" fill="#00ff5f" stroke="none" stroke-width="0.5" stroke-linecap="butt"/></g></g></svg>