<svg version="1.1" xmlns="http://www.w3.org/2000/svg" xmlns:xlink="http://www.w3.org/1999/xlink" width="38.566" height="37.60704" viewBox="0,0,38.566,37.60704"><g transform="translate(-220.75419,-160.80105)"><g data-paper-data="{&quot;isPaintingLayer&quot;:true}" fill-rule="nonzero" stroke-linejoin="miter" stroke-miterlimit="10" stroke-dasharray="" stroke-dashoffset="0" style="mix-blend-mode: normal"><path d="M258.4696,174.01762l-3.74947,7.49894l2.77738,7.2212l0.41661,8.05441l-8.47102,-1.66643l-11.38727,1.94417l-16.10882,0.55548l3.6106,-16.80317l-4.02721,-6.94346l0.69435,-5.4159l29.16253,-6.80459z" fill="#668872" stroke="#4c6655" stroke-width="1.5" stroke-linecap="round"/><path d="M256.10881,171.65684l-10.97066,3.19399l-12.35936,6.24911l-6.66572,-0.97208l-1.66643,-2.49965l23.74663,-11.52614l7.36007,3.74947z" fill="#516c5a" stroke="#4c6655" stroke-width="1.5" stroke-linecap="round"/><path d="M254.99786,169.5738l-11.10953,2.36078l-10.69293,5.83251l-9.0265,-0.83322l-1.94417,-2.63851l0.55548,-4.99929l28.05157,-7.36007l3.74947,5.83251z" fill="#6f937c" stroke="#4c6655" stroke-width="1.5" stroke-linecap="round"/><path d="M246.94345,181.37768l-11.2484,10.13745l-11.52614,-1.38869l1.8053,-9.72084l6.52685,0.55548l13.33144,-5.4159l1.24982,5.55477l6.94346,0.13887" fill="#6f937c" stroke="#4c6655" stroke-width="1.5" stroke-linecap="round"/><path d="M235.97278,192.0706l12.77596,2.36078" fill="none" stroke="#4c6655" stroke-width="1.5" stroke-linecap="round"/><path d="M226.74325,185.32368c0.14817,-0.90639 0.2387,-3.37675 0.3904,-3.06406c0.96897,0.1584 3.64573,-0.3682 4.38425,0.11647c1.09471,0.71844 -1.4206,1.78257 -1.5228,1.86276c-1.36306,1.06949 -2.10574,1.29606 -3.3112,1.33561z" data-paper-data="{&quot;noHover&quot;:false,&quot;origItem&quot;:[&quot;Path&quot;,{&quot;applyMatrix&quot;:true,&quot;segments&quot;:[[[272.11634,170.08671],[0,0],[1.20546,-0.03956]],[[275.341,168.75695],[-1.36306,1.06949],[0.1022,-0.08019]],[[276.86693,166.94349],[1.09471,0.71844],[-0.73851,-0.48467]],[[272.56421,166.83],[0.96897,0.1584],[-0.1517,-0.3127]],[[272.1773,169.8385],[0.14817,-0.90639],[0,0]]],&quot;closed&quot;:true}]}" fill="#9ce6c9" stroke="none" stroke-width="0.5" stroke-linecap="butt"/><path d="M247.62032,182.17308c1.38965,-0.74865 4.22277,-0.13871 5.78569,-0.14451c0.44775,-0.1465 0.38059,0.88083 0.15655,1.28295c-0.4296,0.77107 -1.80326,1.21141 -2.55874,1.59408c-2.12895,1.07838 -4.24699,1.01411 -6.3974,0.39224c1.00763,-0.93985 1.89156,-2.52013 3.01389,-3.12477z" data-paper-data="{&quot;noHover&quot;:false,&quot;origItem&quot;:[&quot;Path&quot;,{&quot;applyMatrix&quot;:true,&quot;segments&quot;:[[[290.04471,169.82204],[1.00763,-0.93985],[2.15041,0.62187]],[[296.35209,169.41938],[-2.12895,1.07838],[0.75547,-0.38267]],[[298.90369,167.85679],[-0.4296,0.77107],[0.22404,-0.40212]],[[298.75064,166.58764],[0.44775,-0.1465],[-1.56293,0.0058]],[[293.04592,166.74902],[1.38965,-0.74865],[-1.12233,0.60463]]],&quot;closed&quot;:true}]}" fill="#9ce6c9" stroke="none" stroke-width="0.5" stroke-linecap="butt"/><path d="M228.42842,194.84396c0.95932,0.3924 1.71886,1.37608 2.763,1.59806c0.07263,0.01544 -2.37129,-0.02436 -3.42801,0.15176c-1.1709,-0.00435 -3.68221,-0.31542 -4.69226,0.23642c-0.48613,0.2656 0.5479,-1.00634 0.63897,-1.55276l0.33478,-0.65716c0,0 0.03899,-0.07882 0.06383,-0.19223c1.45799,-0.1961 2.89742,-0.16585 4.3197,0.41592z" data-paper-data="{&quot;noHover&quot;:false,&quot;origItem&quot;:[&quot;Path&quot;,{&quot;applyMatrix&quot;:true,&quot;segments&quot;:[[[269.54608,178.98638],[1.45799,-0.1961],[-0.02484,0.11341]],[269.48333,179.17561],[[269.15074,179.82213],[0,0],[-0.09107,0.54642]],[[268.50977,181.35542],[-0.48613,0.2656],[1.01005,-0.55184]],[[273.12564,181.09276],[-1.1709,-0.00435],[1.05672,-0.17612]],[[276.53329,180.97195],[0.07263,0.01544],[-1.04415,-0.22198]],[[273.77549,179.40811],[0.95932,0.3924],[-1.42228,-0.58178]]],&quot;closed&quot;:true}]}" fill="#9ce6c9" stroke="none" stroke-width="0.5" stroke-linecap="butt"/><path d="M231.29495,181.56042c0.7398,0.1233 0.6165,0.86309 0.6165,0.86309l-0.2615,1.07228c-1.64354,0.9692 -2.95073,1.85184 -4.85499,2.16922c0,0 -0.7398,0.1233 -0.86309,-0.6165c-0.1233,-0.7398 0.6165,-0.86309 0.6165,-0.86309c1.55736,-0.25956 2.43198,-1.12634 3.89501,-1.58078l-0.0115,-0.42772c0,0 0.1233,-0.7398 0.86309,-0.6165z" fill="#92d6ab" stroke="none" stroke-width="0.5" stroke-linecap="butt"/><path d="M244.54666,184.92522c0,-0.75 0.75,-0.75 0.75,-0.75l0.17765,0.01404c0.25569,-0.05501 0.49279,0.04661 0.49279,0.04661c0.08515,0.03712 0.17052,0.07161 0.25612,0.10358c2.08574,0.49334 4.00057,-0.49537 6.00574,-0.76315l-0.03836,-0.26854l0.86223,-0.12318c0.03871,-0.00616 0.0784,-0.00936 0.11884,-0.00936c0.41421,0 0.75,0.33579 0.75,0.75c0,0.17941 -0.063,0.34411 -0.16808,0.47319l-0.49627,0.62033l-0.06696,-0.05357l-0.08971,0.20025c-2.38882,0.87838 -5.01847,1.4675 -7.45619,0.55591c-0.1327,-0.02666 -0.24561,-0.05509 -0.33496,-0.0846l-0.01283,0.03849c0,0 -0.75,0 -0.75,-0.75z" fill="#92d6ab" stroke="none" stroke-width="0.5" stroke-linecap="butt"/><path d="M223.43622,194.65313c0.14709,-0.73544 0.88252,-0.58835 0.88252,-0.58835l0.47791,0.11044c1.92102,0 3.49905,0.19748 4.79666,1.25418l0.17187,-0.21483l0.61959,0.49567c0.17469,0.13732 0.28689,0.35054 0.28689,0.58998c0,0.41421 -0.33579,0.75 -0.75,0.75h-0.75c-1.76677,0 -3.49525,0.24448 -5.25,0.25c0,0 -0.75,0 -0.75,-0.75c0,-0.75 0.75,-0.75 0.75,-0.75c0.52631,0.00195 1.05133,-0.01988 1.57623,-0.05137c-0.27869,-0.04472 -0.52091,-0.07363 -0.70123,-0.07363l-0.77209,-0.13956c0,0 -0.73544,-0.14709 -0.58835,-0.88252z" fill="#92d6ab" stroke="none" stroke-width="0.5" stroke-linecap="butt"/><path d="M226.72549,185.54672c1.20546,-0.03956 1.8616,-0.26026 3.22465,-1.32976c0.1022,-0.08019 2.62064,-1.09502 1.52593,-1.81346c-0.73851,-0.48467 -3.33375,0.0449 -4.30272,-0.1135c-0.1517,-0.3127 -0.23873,2.10212 -0.38691,3.0085zM225.18362,185.55024c0.00516,-0.03587 0.01042,-0.05694 0.01042,-0.05694l0.11281,-0.4414c0.3187,-1.87001 -0.08205,-4.17275 2.11309,-4.2415c1.28057,0.21825 3.91806,-0.44586 4.94728,0.3865c2.57826,2.08514 -1.83415,5.06327 -3.51479,5.78813c-1.13698,0.49038 -2.50151,0.06146 -3.68078,0.06517c0,0 -0.75,0 -0.75,-0.75c0,-0.75 0.75,-0.75 0.75,-0.75c0.00399,0.00001 0.00798,0.00002 0.01197,0.00003z" fill="#4c6655" stroke="none" stroke-width="0.5" stroke-linecap="butt"/><path d="M244.65386,185.28205c2.15041,0.62187 4.17843,0.67572 6.30738,-0.40266c0.75547,-0.38267 2.12199,-0.79152 2.55159,-1.56259c0.22404,-0.40212 0.2947,-1.41564 -0.15304,-1.26914c-1.56293,0.0058 -4.31507,-0.58728 -5.70473,0.16137c-1.12233,0.60463 -1.99358,2.13317 -3.00121,3.07302zM243.14119,185.42779c-0.30797,-0.47481 0.12513,-0.90791 0.12513,-0.90791l0.18681,-0.18032c1.23192,-0.98553 2.12604,-2.70142 3.48511,-3.44817c1.69371,-0.93061 4.65001,-0.34459 6.54527,-0.33863c1.93049,0.54203 2.30413,2.95281 0.65965,4.33069c-2.9737,2.49161 -7.1106,2.78596 -10.58368,1.62826c0,0 -0.71151,-0.23717 -0.47434,-0.94868c0.01652,-0.04955 0.03533,-0.0945 0.05605,-0.13525z" fill="#4c6655" stroke="none" stroke-width="0.5" stroke-linecap="butt"/><path d="M222.71039,194.04749c-0.01153,-0.03836 -0.02114,-0.07962 -0.02854,-0.12398c-0.1233,-0.7398 0.6165,-0.86309 0.6165,-0.86309c2.7369,-0.44741 4.81037,-0.14087 7.15251,1.35804c0.6271,0.40133 2.51399,0.865 2.47078,1.88175c-0.07629,1.79544 -3.93787,1.5599 -5.06314,1.74744c-1.20698,0.0038 -5.03697,0.80952 -5.88413,-0.26266c-0.68221,-0.86343 0.21581,-2.10742 0.35903,-2.96671zM224.15523,194.44639c-0.02484,0.11341 -0.06275,0.18923 -0.06275,0.18923l-0.33258,0.64652c-0.09107,0.54642 -1.1271,1.79889 -0.64097,1.53329c1.01005,-0.55184 3.44497,-0.26701 4.61587,-0.26266c1.05672,-0.17612 3.48028,-0.10536 3.40765,-0.1208c-1.04415,-0.22198 -1.79848,-1.17144 -2.7578,-1.56384c-1.42228,-0.58178 -2.77143,-0.61783 -4.22942,-0.42173z" fill="#4c6655" stroke="none" stroke-width="0.5" stroke-linecap="butt"/></g></g></svg>