<svg version="1.1" xmlns="http://www.w3.org/2000/svg" xmlns:xlink="http://www.w3.org/1999/xlink" width="35" height="34.62118" viewBox="0,0,35,34.62118"><g transform="translate(-222.4375,-164.73131)"><g data-paper-data="{&quot;isPaintingLayer&quot;:true}" fill-rule="nonzero" stroke-linejoin="miter" stroke-miterlimit="10" stroke-dasharray="" stroke-dashoffset="0" style="mix-blend-mode: normal"><path d="M223.1875,182.0419v-16.56059h33.5v16.56059z" data-paper-data="{&quot;index&quot;:null}" fill="#9a6d4e" stroke="#704f39" stroke-width="1.5" stroke-linecap="butt"/><path d="M223.1875,198.60249v-16.56059h33.5v16.56059z" fill="#9a6d4e" stroke="#704f39" stroke-width="1.5" stroke-linecap="butt"/><path d="M247.50001,177.90833c0,-0.75 0.75,-0.75 0.75,-0.75l0.35291,0.01456c0.32863,-0.06435 1.62637,-0.21435 1.8096,-0.59997c0.18318,-0.38551 -0.20063,-0.83256 -0.2422,-1.25735c-0.18959,-1.93749 -0.17032,-3.95806 -0.17032,-5.90724c0,0 0,-0.75 0.75,-0.75c0.75,0 0.75,0.75 0.75,0.75c0,3.49298 1.76768,8.34576 -2.60291,9.23544l-0.64709,0.01456c0,0 -0.75,0 -0.75,-0.75z" data-paper-data="{&quot;index&quot;:null}" fill="#999999" stroke="none" stroke-width="0.5" stroke-linecap="butt"/><path d="M242.30993,171.82415c-0.66005,0.07456 -0.79537,-0.60206 -0.79537,-0.60206l-0.0444,-0.25827c-0.12438,-0.09438 -0.2375,-0.16103 -0.33204,-0.19246c0,0 -0.60962,-0.24385 -0.45992,-0.84563c-0.46317,-0.2221 -0.98062,-0.17293 -1.68494,-0.03777c-0.01623,1.03877 -0.1913,1.82781 -0.00555,2.88517c0.291,1.65644 2.83646,4.03207 4.25298,1.64365c0.34379,-0.57967 -0.24945,-1.73352 -0.93075,-2.59263zM242.8239,170.19055c1.29556,1.24162 2.5437,3.44631 1.76876,4.876c-2.44075,4.50296 -6.98062,0.12094 -7.25676,-3.09636c-0.09215,-1.07365 0.21936,-2.02135 0.50418,-3.04148c2.05964,-0.95857 3.5318,-0.89396 4.92794,1.00683l0.05587,0.25502z" data-paper-data="{&quot;index&quot;:null}" fill="#999999" stroke="none" stroke-width="0.5" stroke-linecap="butt"/><path d="M227.66667,178.07499c0,-0.75 0.75,-0.75 0.75,-0.75h0.33333c0.80949,0.00221 1.0357,0.05516 1.81921,-0.14455c0.75822,-0.19326 2.05469,-0.3959 2.69451,-0.84311c0.53276,-0.37237 -0.02162,-1.23774 -0.1979,-1.62176c-0.72621,-1.58205 -1.37012,-3.11821 -1.71792,-4.82682c0,0 -0.14709,-0.73543 0.58835,-0.88252c0.73543,-0.14709 0.88252,0.58835 0.88252,0.58835c0.36255,1.85143 2.58261,4.82229 2.17023,6.60842c-0.51173,2.21644 -4.39905,2.61757 -6.239,2.622h-0.33333c0,0 -0.75,0 -0.75,-0.75z" data-paper-data="{&quot;index&quot;:null}" fill="#999999" stroke="none" stroke-width="0.5" stroke-linecap="butt"/><path d="M223.1875,198.60249v-16.56059h33.5v16.56059z" fill="#9a6d4e" stroke="#704f39" stroke-width="1.5" stroke-linecap="butt"/><path d="M223.73637,182.43419l31.79661,1.6243" fill="none" stroke="#a57554" stroke-width="1.5" stroke-linecap="round"/><path d="M250.68778,182.43419l-26.95141,4.60218" fill="none" stroke="#a57554" stroke-width="1.5" stroke-linecap="round"/><path d="M224.44297,189.47282l31.59472,2.07549" fill="none" stroke="#a57554" stroke-width="1.5" stroke-linecap="round"/><path d="M224.24108,197.41384l31.69567,-9.38484" fill="none" stroke="#a57554" stroke-width="1.5" stroke-linecap="round"/><path d="M256.13863,197.05289l-32.80603,-3.42908" fill="none" stroke="#a57554" stroke-width="1.5" stroke-linecap="round"/><path d="M256.13864,194.61646l-32.40226,-3.15836" fill="none" stroke="#a57554" stroke-width="1.5" stroke-linecap="round"/><path d="M241.60304,187.75828l-17.56385,0.27072" fill="none" stroke="#a57554" stroke-width="1.5" stroke-linecap="round"/><path d="M255.83581,186.4047l-8.37815,-0.09025" fill="none" stroke="#a57554" stroke-width="1.5" stroke-linecap="round"/><path d="M243.31904,198.04553l-6.5612,-1.08286" fill="none" stroke="#a57554" stroke-width="1.5" stroke-linecap="round"/><path d="M223.83731,184.05849l31.79661,4.60218" fill="none" stroke="#8d6348" stroke-width="1.5" stroke-linecap="round"/><path d="M255.93674,185.23161l-32.70508,4.69242" fill="none" stroke="#8d6348" stroke-width="1.5" stroke-linecap="round"/><path d="M254.32169,182.43419l-24.93258,6.58744" fill="none" stroke="#8d6348" stroke-width="1.5" stroke-linecap="round"/><path d="M223.63544,186.49494l32.70508,6.04601" fill="none" stroke="#8d6348" stroke-width="1.5" stroke-linecap="round"/><path d="M256.23957,190.82642l-32.40225,3.42908" fill="none" stroke="#8d6348" stroke-width="1.5" stroke-linecap="round"/><path d="M223.3326,192.36048l8.4791,-1.17311" fill="none" stroke="#8d6348" stroke-width="1.5" stroke-linecap="round"/><path d="M232.61924,197.7748l-8.58004,-1.6243" fill="none" stroke="#8d6348" stroke-width="1.5" stroke-linecap="round"/><path d="M239.5842,198.04553l16.2516,-2.3462" fill="none" stroke="#8d6348" stroke-width="1.5" stroke-linecap="round"/><path d="M256.34052,193.98478l-20.79397,1.71455" fill="none" stroke="#8d6348" stroke-width="1.5" stroke-linecap="round"/><path d="M223.23166,195.33835l7.36874,0.09024" fill="none" stroke="#8d6348" stroke-width="1.5" stroke-linecap="round"/><path d="M223.1875,198.60249v-16.56059h33.5v16.56059z" fill="none" stroke="#704f39" stroke-width="1.5" stroke-linecap="butt"/><path d="M223.1875,182.0419v-16.56059h33.5v16.56059z" data-paper-data="{&quot;index&quot;:null}" fill="#9a6d4e" stroke="#704f39" stroke-width="1.5" stroke-linecap="butt"/><path d="M256.13862,165.8736l-31.79661,1.6243" data-paper-data="{&quot;index&quot;:null}" fill="none" stroke="#a57554" stroke-width="1.5" stroke-linecap="round"/><path d="M229.18722,165.8736l26.9514,4.60218" data-paper-data="{&quot;index&quot;:null}" fill="none" stroke="#a57554" stroke-width="1.5" stroke-linecap="round"/><path d="M255.43203,172.91223l-31.59472,2.07549" data-paper-data="{&quot;index&quot;:null}" fill="none" stroke="#a57554" stroke-width="1.5" stroke-linecap="round"/><path d="M223.93826,171.46841l31.69567,9.38484" data-paper-data="{&quot;index&quot;:null}" fill="none" stroke="#a57554" stroke-width="1.5" stroke-linecap="round"/><path d="M223.73637,180.4923l32.80603,-3.42908" data-paper-data="{&quot;index&quot;:null}" fill="none" stroke="#a57554" stroke-width="1.5" stroke-linecap="round"/><path d="M256.13862,174.8975l-32.40226,3.15836" data-paper-data="{&quot;index&quot;:null}" fill="none" stroke="#a57554" stroke-width="1.5" stroke-linecap="round"/><path d="M238.27195,171.19769l17.56385,0.27072" data-paper-data="{&quot;index&quot;:null}" fill="none" stroke="#a57554" stroke-width="1.5" stroke-linecap="round"/><path d="M224.03919,169.84411l8.37815,-0.09025" data-paper-data="{&quot;index&quot;:null}" fill="none" stroke="#a57554" stroke-width="1.5" stroke-linecap="round"/><path d="M243.31904,181.48494l-6.5612,-1.08286" fill="none" stroke="#a57554" stroke-width="1.5" stroke-linecap="round"/><path d="M224.24107,172.10008l31.79661,-4.60218" data-paper-data="{&quot;index&quot;:null}" fill="none" stroke="#8d6348" stroke-width="1.5" stroke-linecap="round"/><path d="M256.64334,173.36345l-32.70508,-4.69242" data-paper-data="{&quot;index&quot;:null}" fill="none" stroke="#8d6348" stroke-width="1.5" stroke-linecap="round"/><path d="M225.55331,165.8736l24.93258,6.58744" data-paper-data="{&quot;index&quot;:null}" fill="none" stroke="#8d6348" stroke-width="1.5" stroke-linecap="round"/><path d="M256.23957,169.93435l-32.70508,6.04601" data-paper-data="{&quot;index&quot;:null}" fill="none" stroke="#8d6348" stroke-width="1.5" stroke-linecap="round"/><path d="M256.03769,177.69491l-32.40226,-3.42908" data-paper-data="{&quot;index&quot;:null}" fill="none" stroke="#8d6348" stroke-width="1.5" stroke-linecap="round"/><path d="M256.5424,175.7999l-8.4791,-1.17311" data-paper-data="{&quot;index&quot;:null}" fill="none" stroke="#8d6348" stroke-width="1.5" stroke-linecap="round"/><path d="M232.61924,181.21421l-8.58004,-1.6243" fill="none" stroke="#8d6348" stroke-width="1.5" stroke-linecap="round"/><path d="M255.8358,179.13874l-16.2516,2.3462" fill="none" stroke="#8d6348" stroke-width="1.5" stroke-linecap="round"/><path d="M244.32845,179.13874l-20.79397,-1.71454" data-paper-data="{&quot;index&quot;:null}" fill="none" stroke="#8d6348" stroke-width="1.5" stroke-linecap="round"/><path d="M256.64334,178.77777l-7.36874,0.09023" data-paper-data="{&quot;index&quot;:null}" fill="none" stroke="#8d6348" stroke-width="1.5" stroke-linecap="round"/><path d="M223.1875,182.0419v-16.56059h33.5v16.56059z" data-paper-data="{&quot;index&quot;:null}" fill="none" stroke="#704f39" stroke-width="1.5" stroke-linecap="butt"/><path d="M223.23166,185.48161l32.125,-0.25" fill="none" stroke="#704f39" stroke-width="1.5" stroke-linecap="round"/><path d="M238.16175,184.75082c-0.13913,-1.1161 1.00123,-1.34417 1.00123,-1.34417l1.87257,0.4715c0.98467,1.7497 1.54436,8.56952 -2.76259,4.80437c-0.82493,-0.72116 -0.12681,-2.18806 -0.22162,-3.27966c0,0 -0.02682,-0.32188 0.11042,-0.65203z" fill="#8c8c8c" stroke="#707070" stroke-width="1.5" stroke-linecap="butt"/></g></g></svg>