<svg version="1.1" xmlns="http://www.w3.org/2000/svg" xmlns:xlink="http://www.w3.org/1999/xlink" width="521.96079" height="403.98861" viewBox="0,0,521.96079,403.98861"><g transform="translate(20.78972,22.14768)"><g data-paper-data="{&quot;isPaintingLayer&quot;:true}" fill-rule="nonzero" stroke-linejoin="miter" stroke-miterlimit="10" stroke-dasharray="" stroke-dashoffset="0" style="mix-blend-mode: normal"><path d="M-20.78971,381.84094v-403.68179h521.57951v403.68179z" fill="#394639" stroke="none" stroke-width="0" stroke-linecap="butt"/><path d="M487.39772,37.73604l-42.44318,-0.94318l-0.94318,-46.21591" data-paper-data="{&quot;index&quot;:null}" fill="none" stroke="#333f33" stroke-width="2.5" stroke-linecap="round"/><path d="M444.95454,36.79289l-30.18182,21.69318l-44.32954,-10.375l-6.60228,-62.24999" data-paper-data="{&quot;index&quot;:null}" fill="none" stroke="#333f33" stroke-width="2.5" stroke-linecap="round"/><path d="M370.44318,47.16789l-38.67046,9.43182l-49.98863,-26.40909l6.60227,-48.10227" data-paper-data="{&quot;index&quot;:null}" fill="none" stroke="#333f33" stroke-width="2.5" stroke-linecap="round"/><path d="M327.85382,100.95682l-6.79532,-17.47368l11.16375,-26.21053" data-paper-data="{&quot;index&quot;:null}" fill="none" stroke="#333f33" stroke-width="2.5" stroke-linecap="round"/><path d="M287.08189,104.35448l2.4269,-17.95906l32.03508,-3.88304" data-paper-data="{&quot;index&quot;:null}" fill="none" stroke="#333f33" stroke-width="2.5" stroke-linecap="round"/><path d="M447.25734,94.64688l-33.49122,-4.8538l1.94152,-30.57894" data-paper-data="{&quot;index&quot;:null}" fill="none" stroke="#333f33" stroke-width="2.5" stroke-linecap="round"/><path d="M498.22225,125.22583l-78.1462,13.10526l-20.38596,-27.18128l14.56141,-21.35673" data-paper-data="{&quot;index&quot;:null}" fill="none" stroke="#333f33" stroke-width="2.5" stroke-linecap="round"/><path d="M431.2398,167.93927l-11.16375,-5.82456l-0.48538,-22.81286" data-paper-data="{&quot;index&quot;:null}" fill="none" stroke="#333f33" stroke-width="2.5" stroke-linecap="round"/><path d="M400.17547,111.1498l-36.88889,4.36842" data-paper-data="{&quot;index&quot;:null}" fill="none" stroke="#333f33" stroke-width="2.5" stroke-linecap="round"/><path d="M268.63747,76.20243l21.35672,9.22222" data-paper-data="{&quot;index&quot;:null}" fill="none" stroke="#333f33" stroke-width="2.5" stroke-linecap="round"/><path d="M421.5322,161.14395l-24.75439,9.70761" data-paper-data="{&quot;index&quot;:null}" fill="none" stroke="#333f33" stroke-width="2.5" stroke-linecap="round"/><path d="M279.80118,30.65858l-43.19883,7.2807l-38.83041,-13.59064l1.94152,-32.03508" data-paper-data="{&quot;index&quot;:null}" fill="none" stroke="#333f33" stroke-width="2.5" stroke-linecap="round"/><path d="M180.29829,63.17904l0.48538,-27.18129l17.47368,-12.1345" data-paper-data="{&quot;index&quot;:null}" fill="none" stroke="#333f33" stroke-width="2.5" stroke-linecap="round"/><path d="M180.29828,35.99776l-24.75439,-12.61989" data-paper-data="{&quot;index&quot;:null}" fill="none" stroke="#333f33" stroke-width="2.5" stroke-linecap="round"/><path d="M229.32167,62.69363l6.30995,-25.23977" data-paper-data="{&quot;index&quot;:null}" fill="none" stroke="#333f33" stroke-width="2.5" stroke-linecap="round"/><path d="M54.09946,369.66029l5.82457,-24.269l29.12281,-8.73684l23.29824,5.33918v23.78362" data-paper-data="{&quot;index&quot;:null}" fill="none" stroke="#333f33" stroke-width="2.5" stroke-linecap="round"/><path d="M58.46789,345.39128l-17.47368,-21.35672l16.9883,-35.43275l-5.82456,-18.92982l3.88304,-26.21052" data-paper-data="{&quot;index&quot;:null}" fill="none" stroke="#333f33" stroke-width="2.5" stroke-linecap="round"/><path d="M-18.22217,325.49066l36.88889,-11.64912l22.32749,9.22222" data-paper-data="{&quot;index&quot;:null}" fill="none" stroke="#333f33" stroke-width="2.5" stroke-linecap="round"/><path d="M112.83046,343.44976l12.1345,-10.19299l22.32748,-1.45614" data-paper-data="{&quot;index&quot;:null}" fill="none" stroke="#333f33" stroke-width="2.5" stroke-linecap="round"/><path d="M125.45034,331.31523l2.4269,-15.53216l17.95907,-17.47368" data-paper-data="{&quot;index&quot;:null}" fill="none" stroke="#333f33" stroke-width="2.5" stroke-linecap="round"/><path d="M127.87724,313.84157l-13.10526,-16.50293" data-paper-data="{&quot;index&quot;:null}" fill="none" stroke="#333f33" stroke-width="2.5" stroke-linecap="round"/><path d="M88.07607,335.68368l10.19298,-17.95906" data-paper-data="{&quot;index&quot;:null}" fill="none" stroke="#333f33" stroke-width="2.5" stroke-linecap="round"/><path d="M86.13455,282.29185l-28.63743,8.25146" data-paper-data="{&quot;index&quot;:null}" fill="none" stroke="#333f33" stroke-width="2.5" stroke-linecap="round"/><path d="M26.4328,255.11058l14.56141,-0.97076l11.64912,7.2807" data-paper-data="{&quot;index&quot;:null}" fill="none" stroke="#333f33" stroke-width="2.5" stroke-linecap="round"/><path d="M379.30413,261.42052l-1.45614,32.52047l-29.60819,10.19298l0.48538,46.59649l-25.23977,9.22222l-2.4269,17.95907" data-paper-data="{&quot;index&quot;:null}" fill="none" stroke="#333f33" stroke-width="2.5" stroke-linecap="round"/><path d="M349.69594,303.64859h-14.5614l-30.09357,-4.8538l-2.4269,-13.10527l2.4269,-23.78362" data-paper-data="{&quot;index&quot;:null}" fill="none" stroke="#333f33" stroke-width="2.5" stroke-linecap="round"/><path d="M269.12282,369.17491l-10.67836,-39.80117l11.16374,-36.88889l32.52047,-7.76608" data-paper-data="{&quot;index&quot;:null}" fill="none" stroke="#333f33" stroke-width="2.5" stroke-linecap="round"/><path d="M256.50293,329.85911l-23.29825,6.30994l-7.76609,-10.19298" data-paper-data="{&quot;index&quot;:null}" fill="none" stroke="#333f33" stroke-width="2.5" stroke-linecap="round"/><path d="M233.20472,337.6252l-0.97076,2.91228l-3.39767,9.7076" data-paper-data="{&quot;index&quot;:null}" fill="none" stroke="#333f33" stroke-width="2.5" stroke-linecap="round"/><path d="M260.87138,284.23338l8.73684,8.25146" data-paper-data="{&quot;index&quot;:null}" fill="none" stroke="#333f33" stroke-width="2.5" stroke-linecap="round"/><path d="M349.21056,349.27432l19.90059,18.44445" data-paper-data="{&quot;index&quot;:null}" fill="none" stroke="#333f33" stroke-width="2.5" stroke-linecap="round"/><path d="M-3.92422,49.32696l24.75439,8.73684l-3.88304,28.63742l-28.63742,6.30994" data-paper-data="{&quot;index&quot;:null}" fill="none" stroke="#333f33" stroke-width="2.5" stroke-linecap="round"/><path d="M63.54362,99.80649l-30.57894,-4.85379l-16.01754,-9.70761" data-paper-data="{&quot;index&quot;:null}" fill="none" stroke="#333f33" stroke-width="2.5" stroke-linecap="round"/><path d="M31.99391,93.98193l-2.91229,22.81286l-35.43274,3.39766" data-paper-data="{&quot;index&quot;:null}" fill="none" stroke="#333f33" stroke-width="2.5" stroke-linecap="round"/><path d="M73.73659,133.29771l-33.9766,-2.4269l-9.7076,-15.04678" data-paper-data="{&quot;index&quot;:null}" fill="none" stroke="#333f33" stroke-width="2.5" stroke-linecap="round"/><path d="M38.30385,131.3562l-13.59064,29.60818" data-paper-data="{&quot;index&quot;:null}" fill="none" stroke="#333f33" stroke-width="2.5" stroke-linecap="round"/><path d="M20.34477,58.0638l20.38597,-7.76608l25.23976,1.94152" data-paper-data="{&quot;index&quot;:null}" fill="none" stroke="#333f33" stroke-width="2.5" stroke-linecap="round"/><path d="M53.83601,-7.08583l2.4269,17.58239l-15.04678,37.37427" data-paper-data="{&quot;index&quot;:null}" fill="none" stroke="#333f33" stroke-width="2.5" stroke-linecap="round"/><path d="M68.39741,12.32937l-12.1345,-1.94152" data-paper-data="{&quot;index&quot;:null}" fill="none" stroke="#333f33" stroke-width="2.5" stroke-linecap="round"/><path d="M156.51467,171.33694l-33.49123,9.7076l-4.8538,-10.67837l10.67836,-32.52046l27.18128,5.82456l0.48539,27.18129l16.50292,12.1345" data-paper-data="{&quot;index&quot;:null}" fill="none" stroke="#333f33" stroke-width="2.5" stroke-linecap="round"/><path d="M129.81876,137.84571l-1.45614,-11.64912" data-paper-data="{&quot;index&quot;:null}" fill="none" stroke="#333f33" stroke-width="2.5" stroke-linecap="round"/><path d="M95.35678,171.33694l22.81286,-0.97077" data-paper-data="{&quot;index&quot;:null}" fill="none" stroke="#333f33" stroke-width="2.5" stroke-linecap="round"/><path d="M155.05848,142.6995l10.19298,-7.2807l15.04678,4.8538" data-paper-data="{&quot;index&quot;:null}" fill="none" stroke="#333f33" stroke-width="2.5" stroke-linecap="round"/><path d="M165.25151,122.31355l-0.48538,12.1345" data-paper-data="{&quot;index&quot;:null}" fill="none" stroke="#333f33" stroke-width="2.5" stroke-linecap="round"/><path d="M366.19887,207.63518l-32.52046,-4.8538l-8.25146,-18.44444" data-paper-data="{&quot;index&quot;:null}" fill="none" stroke="#333f33" stroke-width="2.5" stroke-linecap="round"/><path d="M322.51464,221.22582l10.19299,-19.90058" data-paper-data="{&quot;index&quot;:null}" fill="none" stroke="#333f33" stroke-width="2.5" stroke-linecap="round"/><path d="M237.08776,123.17904l-8.73684,-10.67836l0.97076,-6.79533" data-paper-data="{&quot;index&quot;:null}" fill="none" stroke="#333f33" stroke-width="2.5" stroke-linecap="round"/><path d="M205.53806,262.48312l-9.22223,13.59064" data-paper-data="{&quot;index&quot;:null}" fill="none" stroke="#333f33" stroke-width="2.5" stroke-linecap="round"/><path d="M200.68425,267.33691l-8.73684,-7.2807" data-paper-data="{&quot;index&quot;:null}" fill="none" stroke="#333f33" stroke-width="2.5" stroke-linecap="round"/><path d="M37.68753,-12.40903l-0.94318,46.2159l-42.44318,0.94318" fill="none" stroke="#2a342a" stroke-width="2.5" stroke-linecap="round"/><path d="M117.85801,-17.12494l-6.60227,62.24999l-44.32954,10.375l-30.18182,-21.69318" fill="none" stroke="#2a342a" stroke-width="2.5" stroke-linecap="round"/><path d="M193.31254,-20.89767l6.60227,48.10227l-49.98863,26.40909l-38.67045,-9.43182" fill="none" stroke="#2a342a" stroke-width="2.5" stroke-linecap="round"/><path d="M149.47663,54.2866l11.16375,26.21052l-6.79532,17.47369" fill="none" stroke="#2a342a" stroke-width="2.5" stroke-linecap="round"/><path d="M160.155,79.52635l32.03508,3.88304l2.4269,17.95906" fill="none" stroke="#2a342a" stroke-width="2.5" stroke-linecap="round"/><path d="M65.99125,56.22812l1.94152,30.57894l-33.49122,4.8538" fill="none" stroke="#2a342a" stroke-width="2.5" stroke-linecap="round"/><path d="M67.44737,86.80706l14.56141,21.35673l-20.38596,27.18129l-78.1462,-13.10526" fill="none" stroke="#2a342a" stroke-width="2.5" stroke-linecap="round"/><path d="M62.10824,136.31581l-0.48538,22.81287l-11.16375,5.82456" fill="none" stroke="#2a342a" stroke-width="2.5" stroke-linecap="round"/><path d="M81.52344,108.16379l36.88889,4.36842" fill="none" stroke="#2a342a" stroke-width="2.5" stroke-linecap="round"/><path d="M191.70472,82.43864l21.35673,-9.22222" fill="none" stroke="#2a342a" stroke-width="2.5" stroke-linecap="round"/><path d="M84.92111,167.86555l-24.75439,-9.70761" fill="none" stroke="#2a342a" stroke-width="2.5" stroke-linecap="round"/><path d="M281.98542,-10.67247l1.94152,32.03508l-38.83041,13.59065l-43.19883,-7.2807" fill="none" stroke="#2a342a" stroke-width="2.5" stroke-linecap="round"/><path d="M283.44156,20.87724l17.47368,12.1345l0.48538,27.18129" fill="none" stroke="#2a342a" stroke-width="2.5" stroke-linecap="round"/><path d="M301.40058,33.01174l24.75439,-12.61988" fill="none" stroke="#2a342a" stroke-width="2.5" stroke-linecap="round"/><path d="M252.37723,59.70763l-6.30994,-25.23977" fill="none" stroke="#2a342a" stroke-width="2.5" stroke-linecap="round"/><path d="M369.35384,362.79123v-23.78362l23.29825,-5.33918l29.12281,8.73684l5.82456,24.26901" fill="none" stroke="#2a342a" stroke-width="2.5" stroke-linecap="round"/><path d="M425.65794,240.47546l3.88304,26.21052l-5.82456,18.92982l16.9883,35.43275l-17.47369,21.35672" fill="none" stroke="#2a342a" stroke-width="2.5" stroke-linecap="round"/><path d="M440.70471,320.07777l22.32748,-9.22222l36.88889,11.64912" fill="none" stroke="#2a342a" stroke-width="2.5" stroke-linecap="round"/><path d="M334.40647,328.8146l22.32749,1.45614l12.1345,10.19299" fill="none" stroke="#2a342a" stroke-width="2.5" stroke-linecap="round"/><path d="M335.86261,295.32338l17.95907,17.47368l2.4269,15.53216" fill="none" stroke="#2a342a" stroke-width="2.5" stroke-linecap="round"/><path d="M366.92694,294.35263l-13.10526,16.50293" fill="none" stroke="#2a342a" stroke-width="2.5" stroke-linecap="round"/><path d="M393.62284,332.69766l-10.19298,-17.95906" fill="none" stroke="#2a342a" stroke-width="2.5" stroke-linecap="round"/><path d="M424.20179,287.55731l-28.63743,-8.25146" fill="none" stroke="#2a342a" stroke-width="2.5" stroke-linecap="round"/><path d="M429.05559,258.43451l11.64912,-7.2807l14.5614,0.97076" fill="none" stroke="#2a342a" stroke-width="2.5" stroke-linecap="round"/><path d="M160.6404,374.92573l-2.4269,-17.95906l-25.23977,-9.22222l0.48538,-46.59649l-29.60819,-10.19298l-1.45614,-32.52047" fill="none" stroke="#2a342a" stroke-width="2.5" stroke-linecap="round"/><path d="M176.65793,258.91989l2.42691,23.78362l-2.42691,13.10527l-30.09356,4.8538h-14.5614" fill="none" stroke="#2a342a" stroke-width="2.5" stroke-linecap="round"/><path d="M179.57022,281.73275l32.52047,7.76608l11.16374,36.88889l-10.67836,39.80117" fill="none" stroke="#2a342a" stroke-width="2.5" stroke-linecap="round"/><path d="M256.26025,322.99003l-7.76609,10.19298l-23.29824,-6.30994" fill="none" stroke="#2a342a" stroke-width="2.5" stroke-linecap="round"/><path d="M252.86262,347.25907l-3.39766,-9.7076l-0.97076,-2.91228" fill="none" stroke="#2a342a" stroke-width="2.5" stroke-linecap="round"/><path d="M220.82753,281.24737l-8.73684,8.25146" fill="none" stroke="#2a342a" stroke-width="2.5" stroke-linecap="round"/><path d="M132.48835,346.28831l-19.90059,18.44444" fill="none" stroke="#2a342a" stroke-width="2.5" stroke-linecap="round"/><path d="M493.3892,90.02516l-28.63742,-6.30994l-3.88304,-28.63743l24.75439,-8.73684" fill="none" stroke="#2a342a" stroke-width="2.5" stroke-linecap="round"/><path d="M464.75179,82.25907l-16.01755,9.70761l-30.57894,4.8538" fill="none" stroke="#2a342a" stroke-width="2.5" stroke-linecap="round"/><path d="M488.05002,117.20645l-35.43274,-3.39766l-2.91228,-22.81287" fill="none" stroke="#2a342a" stroke-width="2.5" stroke-linecap="round"/><path d="M451.64652,112.83802l-9.7076,15.04678l-33.97661,2.4269" fill="none" stroke="#2a342a" stroke-width="2.5" stroke-linecap="round"/><path d="M456.9857,157.97836l-13.59064,-29.60819" fill="none" stroke="#2a342a" stroke-width="2.5" stroke-linecap="round"/><path d="M415.72841,49.25323l25.23976,-1.94152l20.38596,7.76608" fill="none" stroke="#2a342a" stroke-width="2.5" stroke-linecap="round"/><path d="M440.48278,44.88481l-15.04678,-37.37427l2.42691,-17.58238" fill="none" stroke="#2a342a" stroke-width="2.5" stroke-linecap="round"/><path d="M413.3015,9.34336l12.1345,-1.94152" fill="none" stroke="#2a342a" stroke-width="2.5" stroke-linecap="round"/><path d="M308.68129,180.00004l16.50292,-12.1345l0.48539,-27.18129l27.18128,-5.82456l10.67836,32.52046l-4.8538,10.67837l-33.49123,-9.7076" fill="none" stroke="#2a342a" stroke-width="2.5" stroke-linecap="round"/><path d="M351.88016,134.85969l1.45614,-11.64912" fill="none" stroke="#2a342a" stroke-width="2.5" stroke-linecap="round"/><path d="M386.34214,168.35092l-22.81286,-0.97077" fill="none" stroke="#2a342a" stroke-width="2.5" stroke-linecap="round"/><path d="M301.40058,137.28659l15.04678,-4.8538l10.19299,7.2807" fill="none" stroke="#2a342a" stroke-width="2.5" stroke-linecap="round"/><path d="M316.93279,131.46203l-0.48538,-12.1345" fill="none" stroke="#2a342a" stroke-width="2.5" stroke-linecap="round"/><path d="M156.27194,181.35092l-8.25147,18.44444l-32.52046,4.8538" fill="none" stroke="#2a342a" stroke-width="2.5" stroke-linecap="round"/><path d="M148.99127,198.33922l10.19298,19.90059" fill="none" stroke="#2a342a" stroke-width="2.5" stroke-linecap="round"/><path d="M252.37724,102.71934l0.97076,6.79532l-8.73685,10.67836" fill="none" stroke="#2a342a" stroke-width="2.5" stroke-linecap="round"/><path d="M276.16086,259.4971l9.22222,13.59064" fill="none" stroke="#2a342a" stroke-width="2.5" stroke-linecap="round"/><path d="M289.75149,257.0702l-8.73684,7.2807" fill="none" stroke="#2a342a" stroke-width="2.5" stroke-linecap="round"/><path d="M413.52343,187.66086l-2.4269,13.10526" fill="none" stroke="#2a342a" stroke-width="2.5" stroke-linecap="round"/><path d="M34.75001,186.50004c0,-1.38071 1.11929,-2.5 2.5,-2.5c1.38071,0 2.5,1.11929 2.5,2.5c0,1.38071 -1.11929,2.5 -2.5,2.5c-1.38071,0 -2.5,-1.11929 -2.5,-2.5z" fill="#565956" stroke="none" stroke-width="0.5" stroke-linecap="butt"/><path d="M115.25004,85.50004c0,-1.38071 1.11929,-2.5 2.5,-2.5c1.38071,0 2.5,1.11929 2.5,2.5c0,1.38071 -1.11929,2.5 -2.5,2.5c-1.38071,0 -2.5,-1.11929 -2.5,-2.5z" fill="#565956" stroke="none" stroke-width="0.5" stroke-linecap="butt"/><path d="M205.75004,171.00004c0,-1.38071 1.11929,-2.5 2.5,-2.5c1.38071,0 2.5,1.11929 2.5,2.5c0,1.38071 -1.11929,2.5 -2.5,2.5c-1.38071,0 -2.5,-1.11929 -2.5,-2.5z" fill="#565956" stroke="none" stroke-width="0.5" stroke-linecap="butt"/><path d="M302.00004,322.00004c0,-1.38071 1.11929,-2.5 2.5,-2.5c1.38071,0 2.5,1.11929 2.5,2.5c0,1.38071 -1.11929,2.5 -2.5,2.5c-1.38071,0 -2.5,-1.11929 -2.5,-2.5z" fill="#565956" stroke="none" stroke-width="0.5" stroke-linecap="butt"/><path d="M452.00004,220.00004c0,-1.38071 1.11929,-2.5 2.5,-2.5c1.38071,0 2.5,1.11929 2.5,2.5c0,1.38071 -1.11929,2.5 -2.5,2.5c-1.38071,0 -2.5,-1.11929 -2.5,-2.5z" fill="#565956" stroke="none" stroke-width="0.5" stroke-linecap="butt"/><path d="M390.00004,70.00002c0,-1.38071 1.11929,-2.5 2.5,-2.5c1.38071,0 2.5,1.11929 2.5,2.5c0,1.38071 -1.11929,2.5 -2.5,2.5c-1.38071,0 -2.5,-1.11929 -2.5,-2.5z" fill="#565956" stroke="none" stroke-width="0.5" stroke-linecap="butt"/><path d="M144,13.00004c0,-1.38071 1.11929,-2.5 2.5,-2.5c1.38071,0 2.5,1.11929 2.5,2.5c0,1.38071 -1.11929,2.5 -2.5,2.5c-1.38071,0 -2.5,-1.11929 -2.5,-2.5z" fill="#565956" stroke="none" stroke-width="0.5" stroke-linecap="butt"/><path d="M458.00004,26.00004c0,-1.38071 1.11929,-2.5 2.5,-2.5c1.38071,0 2.5,1.11929 2.5,2.5c0,1.38071 -1.11929,2.5 -2.5,2.5c-1.38071,0 -2.5,-1.11929 -2.5,-2.5z" fill="#565956" stroke="none" stroke-width="0.5" stroke-linecap="butt"/><path d="M36.00001,345.00004c0,-1.38071 1.11929,-2.5 2.5,-2.5c1.38071,0 2.5,1.11929 2.5,2.5c0,1.38071 -1.11929,2.5 -2.5,2.5c-1.38071,0 -2.5,-1.11929 -2.5,-2.5z" fill="#565956" stroke="none" stroke-width="0.5" stroke-linecap="butt"/><path d="M100.25004,96.00004c0,-0.69035 0.55965,-1.25 1.25,-1.25c0.69035,0 1.25,0.55965 1.25,1.25c0,0.69035 -0.55965,1.25 -1.25,1.25c-0.69035,0 -1.25,-0.55965 -1.25,-1.25z" fill="#565956" stroke="none" stroke-width="0.5" stroke-linecap="butt"/><path d="M124.25004,102.00004c0,-0.69035 0.55965,-1.25 1.25,-1.25c0.69035,0 1.25,0.55965 1.25,1.25c0,0.69035 -0.55965,1.25 -1.25,1.25c-0.69035,0 -1.25,-0.55965 -1.25,-1.25z" fill="#565956" stroke="none" stroke-width="0.5" stroke-linecap="butt"/><path d="M375.25004,85.00004c0,-0.69035 0.55964,-1.25 1.25,-1.25c0.69036,0 1.25,0.55965 1.25,1.25c0,0.69035 -0.55964,1.25 -1.25,1.25c-0.69036,0 -1.25,-0.55965 -1.25,-1.25z" fill="#565956" stroke="none" stroke-width="0.5" stroke-linecap="butt"/><path d="M392.25004,25.00004c0,-0.69036 0.55964,-1.25 1.25,-1.25c0.69036,0 1.25,0.55964 1.25,1.25c0,0.69036 -0.55964,1.25 -1.25,1.25c-0.69036,0 -1.25,-0.55964 -1.25,-1.25z" fill="#565956" stroke="none" stroke-width="0.5" stroke-linecap="butt"/><path d="M451.25004,199.00004c0,-0.69036 0.55964,-1.25 1.25,-1.25c0.69036,0 1.25,0.55964 1.25,1.25c0,0.69036 -0.55964,1.25 -1.25,1.25c-0.69036,0 -1.25,-0.55964 -1.25,-1.25z" fill="#565956" stroke="none" stroke-width="0.5" stroke-linecap="butt"/><path d="M435.25004,239.00004c0,-0.69036 0.55964,-1.25 1.25,-1.25c0.69036,0 1.25,0.55964 1.25,1.25c0,0.69036 -0.55964,1.25 -1.25,1.25c-0.69036,0 -1.25,-0.55964 -1.25,-1.25z" fill="#565956" stroke="none" stroke-width="0.5" stroke-linecap="butt"/><path d="M278.25004,324.00004c0,-0.69036 0.55964,-1.25 1.25,-1.25c0.69036,0 1.25,0.55964 1.25,1.25c0,0.69036 -0.55964,1.25 -1.25,1.25c-0.69036,0 -1.25,-0.55964 -1.25,-1.25z" fill="#565956" stroke="none" stroke-width="0.5" stroke-linecap="butt"/><path d="M297.25004,300.00004c0,-0.69036 0.55964,-1.25 1.25,-1.25c0.69036,0 1.25,0.55964 1.25,1.25c0,0.69036 -0.55964,1.25 -1.25,1.25c-0.69036,0 -1.25,-0.55964 -1.25,-1.25z" fill="#565956" stroke="none" stroke-width="0.5" stroke-linecap="butt"/><path d="M162.25,338.00004c0,-0.69036 0.55964,-1.25 1.25,-1.25c0.69036,0 1.25,0.55964 1.25,1.25c0,0.69036 -0.55964,1.25 -1.25,1.25c-0.69036,0 -1.25,-0.55964 -1.25,-1.25z" fill="#565956" stroke="none" stroke-width="0.5" stroke-linecap="butt"/><path d="M60.25004,312.00004c0,-0.69036 0.55965,-1.25 1.25,-1.25c0.69035,0 1.25,0.55964 1.25,1.25c0,0.69036 -0.55965,1.25 -1.25,1.25c-0.69035,0 -1.25,-0.55964 -1.25,-1.25z" fill="#565956" stroke="none" stroke-width="0.5" stroke-linecap="butt"/><path d="M7.25004,347.00004c0,-0.69036 0.55964,-1.25 1.25,-1.25c0.69036,0 1.25,0.55964 1.25,1.25c0,0.69036 -0.55964,1.25 -1.25,1.25c-0.69036,0 -1.25,-0.55964 -1.25,-1.25z" fill="#565956" stroke="none" stroke-width="0.5" stroke-linecap="butt"/><path d="M22.25004,189.00004c0,-0.69036 0.55964,-1.25 1.25,-1.25c0.69036,0 1.25,0.55964 1.25,1.25c0,0.69036 -0.55964,1.25 -1.25,1.25c-0.69036,0 -1.25,-0.55964 -1.25,-1.25z" fill="#565956" stroke="none" stroke-width="0.5" stroke-linecap="butt"/><path d="M46.25004,168.00004c0,-0.69036 0.55965,-1.25 1.25,-1.25c0.69035,0 1.25,0.55964 1.25,1.25c0,0.69036 -0.55965,1.25 -1.25,1.25c-0.69035,0 -1.25,-0.55964 -1.25,-1.25z" fill="#565956" stroke="none" stroke-width="0.5" stroke-linecap="butt"/></g></g></svg>