<svg version="1.1" xmlns="http://www.w3.org/2000/svg" xmlns:xlink="http://www.w3.org/1999/xlink" width="62.5" height="128.12516" viewBox="0,0,62.5,128.12516"><g transform="translate(-206.625,-60.41694)"><g data-paper-data="{&quot;isPaintingLayer&quot;:true}" fill-rule="nonzero" stroke="none" stroke-width="0.5" stroke-linecap="butt" stroke-linejoin="miter" stroke-miterlimit="10" stroke-dasharray="" stroke-dashoffset="0" style="mix-blend-mode: normal"><path d="M216.12758,97.09767c0.41888,0.36831 0.74742,0.94605 0.74742,1.85233c0,2.5 -2.5,2.5 -2.5,2.5l-2.89626,-0.61856l-1.98936,-1.74069c-0.52945,-0.4584 -0.86438,-1.13546 -0.86438,-1.89075c0,-1.22888 0.88665,-2.25067 2.05513,-2.46054l2.45459,-0.49092c0,0 2.45145,-0.49029 2.94174,1.96116c0.06608,0.33042 0.07872,0.6252 0.05113,0.88796z" fill="#388d3f"/><path d="M254.125,90.45c0,-0.50091 0.10036,-0.90145 0.26087,-1.22174c-0.00715,-0.08913 -0.01087,-0.18184 -0.01087,-0.27826c0,-2.5 2.5,-2.5 2.5,-2.5h2.5c1.38071,0 2.5,1.11929 2.5,2.5c0,0.88153 -0.45625,1.6565 -1.14551,2.10164l-2.21774,1.47849l-1.88675,0.41988c0,0 -2.5,0 -2.5,-2.5z" fill="#388d3f"/><path d="M229.15184,116.19274c1.38099,-0.30848 2.39372,0.9068 2.39372,0.9068l1.65063,4.02893c-0.88207,1.32622 -1.0608,3.82554 -2.64619,3.97868c-7.52474,0.72686 -4.71575,-4.61666 -3.99619,-7.33563c0,0 0.75299,-1.88249 2.59803,-1.57878z" fill="#388d3f"/><path d="M248.85724,123.46777c-1.76776,-1.76776 0,-3.53553 0,-3.53553l0.51776,-0.48224c0.66666,-0.5 1.33334,-1 2,-1.5c0,0 2,-1.5 3.5,0.5c1.5,2 -0.5,3.5 -0.5,3.5c-0.66666,0.5 -1.33334,1 -2,1.5l0.01776,0.01776c0,0 -1.76776,1.76776 -3.53553,0z" fill="#388d3f"/><path d="M266.79017,113.70964c0.55747,0.05185 2.33483,0.38243 2.33483,2.49036c0,2.5 -2.5,2.5 -2.5,2.5l-1.71411,-0.31461c-0.75,-0.41666 -1.5,-0.83334 -2.25,-1.25c0,0 -2.1854,-1.21411 -0.97129,-3.3995c1.21411,-2.18539 3.3995,-0.97129 3.3995,-0.97129c0.56702,0.31501 1.13404,0.63002 1.70106,0.94503z" fill="#388d3f"/><path d="M257.36107,142.81804c-1.11804,2.23607 -3.3541,1.11803 -3.3541,1.11803l-2.38197,-1.48607c-0.5,-0.66666 -1,-1.33334 -1.5,-2c0,0 -1.5,-2 0.5,-3.5c2,-1.5 3.5,0.5 3.5,0.5c0.5,0.66666 1,1.33334 1.5,2l0.61804,0.01393c0,0 2.23607,1.11803 1.11803,3.35411z" fill="#388d3f"/><path d="M237.03655,72.7c0.26747,-0.12184 2.28202,-0.95302 3.32451,1.13197c1.11803,2.23607 -1.11803,3.3541 -1.11803,3.3541l-1.61803,0.51393c-0.83333,0 -1.66667,0 -2.5,0c0,0 -2.5,0 -2.5,-2.5c0,-2.5 2.5,-2.5 2.5,-2.5c0.63718,0 1.27437,0 1.91155,0z" fill="#388d3f"/><path d="M253.125,183.7c-0.81023,1.0803 -1.76633,1.13943 -2.47433,0.96537c0.05289,0.12445 0.10525,0.24882 0.15704,0.37311c0,0 0.96154,2.30769 -1.34615,3.26923c-1.59032,0.66264 -2.54134,-0.22733 -2.97893,-0.84468c-0.18379,-0.04242 -0.36095,-0.09887 -0.53176,-0.16834c-1.33313,-0.01351 -2.62712,-0.86889 -3.75969,-1.9875h-0.00001c-0.49526,0.39915 -1.0024,0.76376 -1.61121,0.83284c-0.17143,0.01945 -0.34284,0.03156 -0.51421,0.03732l0.0144,0.09359l-2.55553,0.39316c-0.07489,0.01281 -0.15092,0.02229 -0.22793,0.02829c-0.53352,0.29176 -1.14573,0.45762 -1.79668,0.45762c-0.04751,0 -0.09481,-0.00088 -0.14189,-0.00263c-2.14369,0.73132 -4.80429,1.63887 -5.90976,-0.29571c-2.79845,-4.89729 1.71381,-6.02397 3.33755,-9.8087c2.11882,-4.93871 3.173,-12.65312 3.11375,-18.6776c-0.04376,-0.01619 -0.09854,-0.0378 -0.16141,-0.06535c-0.47941,0 -0.95882,0 -1.43824,0l-1.75124,0.18759c0,0 -2.48759,0.24876 -2.73635,-2.23883v-0.00001c-0.24876,-2.48759 2.23883,-2.73635 2.23883,-2.73635l2.24876,-0.21241c0.45998,0 0.91995,0 1.37993,0c0.00493,-1.84063 0.14819,-3.71914 -0.16619,-5.48727c-0.73362,-4.12602 -3.17911,-8.58377 -3.16374,-12.8574c0.00183,-0.50937 -0.06528,-1.38069 -0.10314,-2.41064c-0.99554,-0.88498 -0.33676,-3.07628 -0.29686,-4.14468c0.09343,-2.5018 0.39045,-4.96321 0.74621,-7.40987c-2.42982,-1.52018 -4.56887,-3.19792 -6.5017,-5.13941c-1.13922,0.5779 -2.27123,1.17024 -3.39416,1.77908c-0.06235,0.05474 -0.16614,0.14016 -0.30374,0.23338c-0.10856,0.70565 -0.21712,1.4113 -0.32568,2.11695l-1.67093,2.71986c0,0 -1.5,2 -3.5,0.5l-0.00001,-0.00001c-2,-1.5 -0.5,-3.5 -0.5,-3.5l0.15049,-0.09911c-0.76979,0.18306 -1.55495,0.34197 -2.37034,0.47004l-0.78958,0.30078c0,0 -1.20603,0.40201 -2.18472,-0.22733c-0.14403,0.0144 -0.28806,0.02881 -0.43209,0.04321l-1.74876,0.01241c0,0 -2.5,0 -2.5,-2.5c0,-2.5 2.5,-2.5 2.5,-2.5l1.25124,0.01241c0.83333,-0.08333 1.66667,-0.16667 2.5,-0.25c0,0 0.47325,-0.04733 1.02756,0.10573c2.24611,-0.37584 4.22604,-1.04562 6.39544,-1.76972c0.66543,-0.36141 1.33391,-0.7173 2.00508,-1.06806c-3.68855,-5.11387 -6.76024,-10.66383 -8.77603,-16.63979l-0.34948,-0.86209c0,0 -0.28847,-0.72117 -0.14184,-1.52035c-1.20189,-1.61432 -2.3509,-3.25929 -3.34736,-5.04401l-0.51606,-1.97382c0,0 -0.49029,-2.45145 1.96116,-2.94174c2.45145,-0.49029 2.94174,1.96116 2.94174,1.96116l-0.01606,0.52618c1.33618,2.41888 3.00996,4.55535 4.68329,6.72951c0.15816,-1.18569 0.25712,-2.39813 0.25632,-3.66542l0.21026,-2.42634c0,0 0.07676,-0.84433 0.63257,-1.50491c-0.0468,-1.20909 -0.15804,-2.40719 -0.41928,-3.67845l-0.03462,0.12774c0,0 -1.11803,-2.23607 1.11803,-3.3541c2.23607,-1.11803 3.3541,1.11803 3.3541,1.11803l0.46538,1.12774c0.53562,2.74006 0.54855,5.2079 0.54855,7.99029c0,0 0,1.27685 -0.91251,2.00552c-0.03076,0.58997 -0.0794,1.1706 -0.14206,1.74448c0.35153,0 0.70305,0 1.05458,0h1.5c0,0 2.5,0 2.5,2.5c0,2.5 -2.5,2.5 -2.5,2.5c-0.67481,0 -2.33322,0 -3.38225,0c-0.35633,1.77291 -0.73856,3.55512 -1.02182,5.43014c0,0 -0.00143,0.00924 -0.00466,0.02651c0.56501,1.02786 1.16161,2.0391 1.78476,3.03329c0.55709,0.23264 0.91674,0.59229 0.91674,0.59229l0.74139,0.82558c2.31924,3.65641 4.8987,6.3805 8.1196,8.68126c0.39145,-2.63058 0.72578,-5.26621 0.82124,-7.93907c0.06064,-1.69801 -0.63357,-3.7869 -0.25594,-5.36801c-1.27981,-9.63062 -4.87037,-18.90071 -4.89406,-28.632v-1.03841c-0.50666,-2.5416 -1.01224,-5.06656 -1.52645,-7.62129l-0.42026,-1.19972c0,0 -0.79057,-2.37171 1.58114,-3.16228c2.37171,-0.79057 3.16228,1.58114 3.16228,1.58114l0.57974,1.80028c0.36777,1.84958 0.73248,3.67755 1.09873,5.50756c0.11099,0.14282 0.20683,0.298 0.2851,0.46313l1.17578,2.35156l-0.07912,0.03956c0.07775,0.10456 0.15294,0.21122 0.22529,0.32024c1.1385,1.71542 1.06921,6.22402 1.62956,8.30003c0.00534,0.01977 0.01068,0.03955 0.01604,0.05933c0.92092,0.57009 1.14862,1.70859 1.14862,1.70859c0.04214,0.21197 0.08714,0.42227 0.13474,0.63104c0.34446,-0.37879 0.6997,-0.57615 0.6997,-0.57615c3.30068,-1.83371 6.39837,-3.13198 10.00174,-4.21097c0.33833,-0.10131 1.08255,-0.23291 1.8889,-0.38738c0.0087,-0.00815 0.01738,-0.01631 0.02605,-0.0245l1.83207,-1.11238c0,0 0.99997,-0.57141 2.03031,-0.25984c2.30205,-1.52132 3.94936,-3.61182 6.18503,-5.31954l1.75,-0.5c0,0 2.5,0 2.5,2.5c0,1.59296 -1.01501,2.17091 -1.75154,2.3806c-2.58528,2.0302 -4.52299,4.58091 -7.62187,6.10116c-1.40374,0.68865 -2.1208,0.83146 -2.85748,0.92401c-0.39878,0.27747 -0.79967,0.52703 -1.20384,0.75481c3.60983,3.10385 5.18827,6.99958 6.5793,11.62104l0.30689,1.47808c0,0 0.49029,2.45145 -1.96116,2.94174c-2.45145,0.49029 -2.94174,-1.96116 -2.94174,-1.96116l-0.19311,-1.02192c-0.49101,-1.64262 -0.98014,-3.2123 -1.63796,-4.66085c-0.74083,-0.47199 -1.06365,-1.27905 -1.06365,-1.27905l-0.10065,-0.45804c-1.44421,-2.00798 -2.61908,-3.216 -4.6496,-4.38424c-0.60171,0.2044 -1.21812,0.41806 -1.85192,0.65507c-1.3348,0.49914 -2.91462,0.66886 -3.9407,1.65778c-0.1244,0.1199 -0.23889,0.24732 -0.34533,0.38088c0.78162,2.05513 1.60387,4.08441 2.16006,6.26508c2.84205,11.14298 3.70416,22.78208 2.54678,34.22497c-0.43594,2.18061 -0.89608,4.31266 -1.29528,6.43614c0.22105,1.56919 0.46798,3.13439 0.72094,4.6973c2.18843,-1.54448 4.38232,-3.02164 6.21866,-5.07581l0.33704,-1.25606c0,0 0.35765,-0.89412 1.18393,-1.35053c0.59564,-1.29307 1.07733,-2.66063 1.60034,-4.21789c-0.11416,-0.79784 0.26361,-1.45327 0.58175,-1.84808c-0.78905,-2.21619 -1.85538,-4.20792 -2.61655,-6.46446l-0.2,-0.6c0,0 -0.79057,-2.37171 1.58114,-3.16228c2.37171,-0.79057 3.16228,1.58114 3.16228,1.58114l0.2,0.6c0.42433,1.29131 0.95481,2.49622 1.48212,3.70658c1.49491,-2.82687 2.11877,-6.10471 3.43848,-9.27755l0.47162,-0.9565c0,0 1.11804,-2.23607 3.35411,-1.11803c2.23607,1.11804 1.11803,3.35411 1.11803,3.35411l-0.32838,0.6435c-2.25196,5.3946 -2.96562,10.42457 -7.27038,14.4312c-0.06868,0.20492 -0.13689,0.40743 -0.20484,0.60766c0.98988,-0.11811 1.98222,-0.21593 2.97579,-0.29303l0.59174,-0.00736c0,0 2.5,0 2.5,2.5c0,2.5 -2.5,2.5 -2.5,2.5l-0.20826,-0.00736c-1.67676,0.12777 -3.34972,0.32141 -5.0116,0.57829c0,0 -0.1689,0.02599 -0.42519,0.02021c-0.9585,1.98446 -2.14876,3.8376 -3.89672,5.78127c0,0 -0.77847,0.86496 -1.8633,0.88352c-0.6684,0.50852 -1.34839,0.99736 -2.03134,1.48536c-0.06672,0.12268 -0.1155,0.19237 -0.1155,0.19237h-0.00002l-1.97765,2.58818c-0.36502,0.26547 -0.73005,0.53094 -1.09507,0.79642c0.65683,4.44667 1.13492,8.89416 0.97465,13.38174c-0.00806,0.22575 -0.01336,0.45073 -0.016,0.675c0.52034,1.77018 0.96643,3.56452 1.41693,5.35554c0.43683,0.25993 0.83292,0.71279 1.05288,1.48267v-0.00001c0.23741,0.83094 0.10552,1.45671 -0.16873,1.91987c0.34654,1.26132 0.72052,2.51216 1.15013,3.74267c0.89875,2.57422 2.23192,4.7293 3.03435,7.35587l0.10543,-0.53163c0,0 2,1.5 0.5,3.5z" fill="#5a4124"/></g></g></svg>