<svg version="1.1" xmlns="http://www.w3.org/2000/svg" xmlns:xlink="http://www.w3.org/1999/xlink" width="35.00001" height="38.96349" viewBox="0,0,35.00001,38.96349"><defs><linearGradient x1="239.68753" y1="180.86386" x2="239.68753" y2="189.36386" gradientUnits="userSpaceOnUse" id="color-1"><stop offset="0" stop-color="#414141"/><stop offset="1" stop-color="#1a1a1a"/></linearGradient><linearGradient x1="239.85269" y1="161.139" x2="239.85269" y2="172.889" gradientUnits="userSpaceOnUse" id="color-2"><stop offset="0" stop-color="#3a3a3a"/><stop offset="1" stop-color="#1e1e1e"/></linearGradient></defs><g transform="translate(-222.4375,-160.389)"><g data-paper-data="{&quot;isPaintingLayer&quot;:true}" fill-rule="nonzero" stroke-linejoin="miter" stroke-miterlimit="10" stroke-dasharray="" stroke-dashoffset="0" style="mix-blend-mode: normal"><path d="M246.10419,188.98886c0,-0.41422 0.33578,-0.75 0.75,-0.75c0.41422,0 0.75,0.33578 0.75,0.75c0,0.41422 -0.33578,0.75 -0.75,0.75c-0.41422,0 -0.75,-0.33578 -0.75,-0.75z" fill="#e06c00" stroke="none" stroke-width="0.5" stroke-linecap="butt"/><path d="M243.22919,188.86386c0,-0.41422 0.33578,-0.75 0.75,-0.75c0.41422,0 0.75,0.33578 0.75,0.75c0,0.41422 -0.33578,0.75 -0.75,0.75c-0.41422,0 -0.75,-0.33578 -0.75,-0.75z" fill="#e06c00" stroke="none" stroke-width="0.5" stroke-linecap="butt"/><path d="M240.47919,188.73886c0,-0.41422 0.33578,-0.75 0.75,-0.75c0.41422,0 0.75,0.33578 0.75,0.75c0,0.41422 -0.33578,0.75 -0.75,0.75c-0.41422,0 -0.75,-0.33578 -0.75,-0.75z" fill="#e06c00" stroke="none" stroke-width="0.5" stroke-linecap="butt"/><path d="M237.54863,189.11386c0,-0.41422 0.33578,-0.75 0.75,-0.75c0.41422,0 0.75,0.33578 0.75,0.75c0,0.41422 -0.33578,0.75 -0.75,0.75c-0.41422,0 -0.75,-0.33578 -0.75,-0.75z" fill="#e06c00" stroke="none" stroke-width="0.5" stroke-linecap="butt"/><path d="M234.67363,188.98886c0,-0.41422 0.33578,-0.75 0.75,-0.75c0.41422,0 0.75,0.33578 0.75,0.75c0,0.41422 -0.33578,0.75 -0.75,0.75c-0.41422,0 -0.75,-0.33578 -0.75,-0.75z" fill="#e06c00" stroke="none" stroke-width="0.5" stroke-linecap="butt"/><path d="M231.92363,188.86386c0,-0.41422 0.33578,-0.75 0.75,-0.75c0.41422,0 0.75,0.33578 0.75,0.75c0,0.41422 -0.33578,0.75 -0.75,0.75c-0.41422,0 -0.75,-0.33578 -0.75,-0.75z" fill="#e06c00" stroke="none" stroke-width="0.5" stroke-linecap="butt"/><path d="M231.92363,188.86386c0,-0.41422 0.33578,-0.75 0.75,-0.75c0.41422,0 0.75,0.33578 0.75,0.75c0,0.41422 -0.33578,0.75 -0.75,0.75c-0.41422,0 -0.75,-0.33578 -0.75,-0.75z" fill="#e06c00" stroke="none" stroke-width="0.5" stroke-linecap="butt"/><path d="M229.04863,188.73886c0,-0.41422 0.33578,-0.75 0.75,-0.75c0.41422,0 0.75,0.33578 0.75,0.75c0,0.41422 -0.33578,0.75 -0.75,0.75c-0.41422,0 -0.75,-0.33578 -0.75,-0.75z" fill="#e06c00" stroke="none" stroke-width="0.5" stroke-linecap="butt"/><path d="M226.29863,188.61386c0,-0.41422 0.33578,-0.75 0.75,-0.75c0.41422,0 0.75,0.33578 0.75,0.75c0,0.41422 -0.33578,0.75 -0.75,0.75c-0.41422,0 -0.75,-0.33578 -0.75,-0.75z" fill="#e06c00" stroke="none" stroke-width="0.5" stroke-linecap="butt"/><path d="M246.14585,191.65553c0,-0.41422 0.33578,-0.75 0.75,-0.75c0.41422,0 0.75,0.33578 0.75,0.75c0,0.41422 -0.33578,0.75 -0.75,0.75c-0.41422,0 -0.75,-0.33578 -0.75,-0.75z" fill="#e06c00" stroke="none" stroke-width="0.5" stroke-linecap="butt"/><path d="M243.27085,191.53053c0,-0.41422 0.33578,-0.75 0.75,-0.75c0.41422,0 0.75,0.33578 0.75,0.75c0,0.41422 -0.33578,0.75 -0.75,0.75c-0.41422,0 -0.75,-0.33578 -0.75,-0.75z" fill="#e06c00" stroke="none" stroke-width="0.5" stroke-linecap="butt"/><path d="M240.52085,191.40553c0,-0.41422 0.33578,-0.75 0.75,-0.75c0.41422,0 0.75,0.33578 0.75,0.75c0,0.41422 -0.33578,0.75 -0.75,0.75c-0.41422,0 -0.75,-0.33578 -0.75,-0.75z" fill="#e06c00" stroke="none" stroke-width="0.5" stroke-linecap="butt"/><path d="M237.5903,191.78053c0,-0.41422 0.33578,-0.75 0.75,-0.75c0.41422,0 0.75,0.33578 0.75,0.75c0,0.41422 -0.33578,0.75 -0.75,0.75c-0.41422,0 -0.75,-0.33578 -0.75,-0.75z" fill="#e06c00" stroke="none" stroke-width="0.5" stroke-linecap="butt"/><path d="M234.7153,191.65553c0,-0.41422 0.33578,-0.75 0.75,-0.75c0.41422,0 0.75,0.33578 0.75,0.75c0,0.41422 -0.33578,0.75 -0.75,0.75c-0.41422,0 -0.75,-0.33578 -0.75,-0.75z" fill="#e06c00" stroke="none" stroke-width="0.5" stroke-linecap="butt"/><path d="M231.9653,191.53053c0,-0.41422 0.33578,-0.75 0.75,-0.75c0.41422,0 0.75,0.33578 0.75,0.75c0,0.41422 -0.33578,0.75 -0.75,0.75c-0.41422,0 -0.75,-0.33578 -0.75,-0.75z" fill="#e06c00" stroke="none" stroke-width="0.5" stroke-linecap="butt"/><path d="M231.9653,191.53053c0,-0.41422 0.33578,-0.75 0.75,-0.75c0.41422,0 0.75,0.33578 0.75,0.75c0,0.41422 -0.33578,0.75 -0.75,0.75c-0.41422,0 -0.75,-0.33578 -0.75,-0.75z" fill="#e06c00" stroke="none" stroke-width="0.5" stroke-linecap="butt"/><path d="M229.0903,191.40553c0,-0.41422 0.33578,-0.75 0.75,-0.75c0.41422,0 0.75,0.33578 0.75,0.75c0,0.41422 -0.33578,0.75 -0.75,0.75c-0.41422,0 -0.75,-0.33578 -0.75,-0.75z" fill="#e06c00" stroke="none" stroke-width="0.5" stroke-linecap="butt"/><path d="M226.3403,191.28053c0,-0.41422 0.33578,-0.75 0.75,-0.75c0.41422,0 0.75,0.33578 0.75,0.75c0,0.41422 -0.33578,0.75 -0.75,0.75c-0.41422,0 -0.75,-0.33578 -0.75,-0.75z" fill="#e06c00" stroke="none" stroke-width="0.5" stroke-linecap="butt"/><path d="M247.00696,193.21109c0.41422,0 0.75,0.33578 0.75,0.75c0,0.41422 -0.33578,0.75 -0.75,0.75c-0.41422,0 -0.75,-0.33578 -0.75,-0.75c0,-0.41422 0.33578,-0.75 0.75,-0.75z" data-paper-data="{&quot;index&quot;:null}" fill="#e06c00" stroke="none" stroke-width="0.5" stroke-linecap="butt"/><path d="M244.13196,193.33609c0.41422,0 0.75,0.33578 0.75,0.75c0,0.41422 -0.33578,0.75 -0.75,0.75c-0.41422,0 -0.75,-0.33578 -0.75,-0.75c0,-0.41422 0.33578,-0.75 0.75,-0.75z" data-paper-data="{&quot;index&quot;:null}" fill="#e06c00" stroke="none" stroke-width="0.5" stroke-linecap="butt"/><path d="M241.38196,193.46109c0.41422,0 0.75,0.33578 0.75,0.75c0,0.41422 -0.33578,0.75 -0.75,0.75c-0.41422,0 -0.75,-0.33578 -0.75,-0.75c0,-0.41422 0.33578,-0.75 0.75,-0.75z" data-paper-data="{&quot;index&quot;:null}" fill="#e06c00" stroke="none" stroke-width="0.5" stroke-linecap="butt"/><path d="M238.45141,193.08609c0.41422,0 0.75,0.33578 0.75,0.75c0,0.41422 -0.33578,0.75 -0.75,0.75c-0.41422,0 -0.75,-0.33578 -0.75,-0.75c0,-0.41422 0.33578,-0.75 0.75,-0.75z" data-paper-data="{&quot;index&quot;:null}" fill="#e06c00" stroke="none" stroke-width="0.5" stroke-linecap="butt"/><path d="M235.57641,193.21109c0.41422,0 0.75,0.33578 0.75,0.75c0,0.41422 -0.33578,0.75 -0.75,0.75c-0.41422,0 -0.75,-0.33578 -0.75,-0.75c0,-0.41422 0.33578,-0.75 0.75,-0.75z" data-paper-data="{&quot;index&quot;:null}" fill="#e06c00" stroke="none" stroke-width="0.5" stroke-linecap="butt"/><path d="M232.82641,193.33609c0.41422,0 0.75,0.33578 0.75,0.75c0,0.41422 -0.33578,0.75 -0.75,0.75c-0.41422,0 -0.75,-0.33578 -0.75,-0.75c0,-0.41422 0.33578,-0.75 0.75,-0.75z" data-paper-data="{&quot;index&quot;:null}" fill="#e06c00" stroke="none" stroke-width="0.5" stroke-linecap="butt"/><path d="M232.82641,193.33609c0.41422,0 0.75,0.33578 0.75,0.75c0,0.41422 -0.33578,0.75 -0.75,0.75c-0.41422,0 -0.75,-0.33578 -0.75,-0.75c0,-0.41422 0.33578,-0.75 0.75,-0.75z" data-paper-data="{&quot;index&quot;:null}" fill="#e06c00" stroke="none" stroke-width="0.5" stroke-linecap="butt"/><path d="M229.95141,193.46109c0.41422,0 0.75,0.33578 0.75,0.75c0,0.41422 -0.33578,0.75 -0.75,0.75c-0.41422,0 -0.75,-0.33578 -0.75,-0.75c0,-0.41422 0.33578,-0.75 0.75,-0.75z" data-paper-data="{&quot;index&quot;:null}" fill="#e06c00" stroke="none" stroke-width="0.5" stroke-linecap="butt"/><path d="M227.20141,193.58609c0.41422,0 0.75,0.33578 0.75,0.75c0,0.41422 -0.33578,0.75 -0.75,0.75c-0.41422,0 -0.75,-0.33578 -0.75,-0.75c0,-0.41422 0.33578,-0.75 0.75,-0.75z" data-paper-data="{&quot;index&quot;:null}" fill="#e06c00" stroke="none" stroke-width="0.5" stroke-linecap="butt"/><path d="M251.92364,188.76664c0,-0.41422 0.33578,-0.75 0.75,-0.75c0.41422,0 0.75,0.33578 0.75,0.75c0,0.41422 -0.33578,0.75 -0.75,0.75c-0.41422,0 -0.75,-0.33578 -0.75,-0.75z" fill="#e06c00" stroke="none" stroke-width="0.5" stroke-linecap="butt"/><path d="M248.99308,189.14164c0,-0.41422 0.33578,-0.75 0.75,-0.75c0.41422,0 0.75,0.33578 0.75,0.75c0,0.41422 -0.33578,0.75 -0.75,0.75c-0.41422,0 -0.75,-0.33578 -0.75,-0.75z" fill="#e06c00" stroke="none" stroke-width="0.5" stroke-linecap="butt"/><path d="M251.9653,191.43332c0,-0.41422 0.33578,-0.75 0.75,-0.75c0.41422,0 0.75,0.33578 0.75,0.75c0,0.41422 -0.33578,0.75 -0.75,0.75c-0.41422,0 -0.75,-0.33578 -0.75,-0.75z" fill="#e06c00" stroke="none" stroke-width="0.5" stroke-linecap="butt"/><path d="M249.03475,191.80832c0,-0.41422 0.33578,-0.75 0.75,-0.75c0.41422,0 0.75,0.33578 0.75,0.75c0,0.41422 -0.33578,0.75 -0.75,0.75c-0.41422,0 -0.75,-0.33578 -0.75,-0.75z" fill="#e06c00" stroke="none" stroke-width="0.5" stroke-linecap="butt"/><path d="M252.82641,193.48886c0.41422,0 0.75,0.33578 0.75,0.75c0,0.41422 -0.33578,0.75 -0.75,0.75c-0.41422,0 -0.75,-0.33578 -0.75,-0.75c0,-0.41422 0.33578,-0.75 0.75,-0.75z" data-paper-data="{&quot;index&quot;:null}" fill="#e06c00" stroke="none" stroke-width="0.5" stroke-linecap="butt"/><path d="M249.89586,193.11386c0.41422,0 0.75,0.33578 0.75,0.75c0,0.41422 -0.33578,0.75 -0.75,0.75c-0.41422,0 -0.75,-0.33578 -0.75,-0.75c0,-0.41422 0.33578,-0.75 0.75,-0.75z" data-paper-data="{&quot;index&quot;:null}" fill="#e06c00" stroke="none" stroke-width="0.5" stroke-linecap="butt"/><path d="M246.16669,182.99026c0,-0.41422 0.33578,-0.75 0.75,-0.75c0.41422,0 0.75,0.33578 0.75,0.75c0,0.41422 -0.33578,0.75 -0.75,0.75c-0.41422,0 -0.75,-0.33578 -0.75,-0.75z" fill="#e06c00" stroke="none" stroke-width="0.5" stroke-linecap="butt"/><path d="M243.29169,182.86526c0,-0.41422 0.33578,-0.75 0.75,-0.75c0.41422,0 0.75,0.33578 0.75,0.75c0,0.41422 -0.33578,0.75 -0.75,0.75c-0.41422,0 -0.75,-0.33578 -0.75,-0.75z" fill="#e06c00" stroke="none" stroke-width="0.5" stroke-linecap="butt"/><path d="M240.54169,182.74026c0,-0.41422 0.33578,-0.75 0.75,-0.75c0.41422,0 0.75,0.33578 0.75,0.75c0,0.41422 -0.33578,0.75 -0.75,0.75c-0.41422,0 -0.75,-0.33578 -0.75,-0.75z" fill="#e06c00" stroke="none" stroke-width="0.5" stroke-linecap="butt"/><path d="M237.54863,186.3083c0,-0.41422 0.33578,-0.75 0.75,-0.75c0.41422,0 0.75,0.33578 0.75,0.75c0,0.41422 -0.33578,0.75 -0.75,0.75c-0.41422,0 -0.75,-0.33578 -0.75,-0.75z" fill="#e06c00" stroke="none" stroke-width="0.5" stroke-linecap="butt"/><path d="M234.73613,182.99026c0,-0.41422 0.33578,-0.75 0.75,-0.75c0.41422,0 0.75,0.33578 0.75,0.75c0,0.41422 -0.33578,0.75 -0.75,0.75c-0.41422,0 -0.75,-0.33578 -0.75,-0.75z" fill="#e06c00" stroke="none" stroke-width="0.5" stroke-linecap="butt"/><path d="M231.98613,182.86526c0,-0.41422 0.33578,-0.75 0.75,-0.75c0.41422,0 0.75,0.33578 0.75,0.75c0,0.41422 -0.33578,0.75 -0.75,0.75c-0.41422,0 -0.75,-0.33578 -0.75,-0.75z" fill="#e06c00" stroke="none" stroke-width="0.5" stroke-linecap="butt"/><path d="M231.98613,182.86526c0,-0.41422 0.33578,-0.75 0.75,-0.75c0.41422,0 0.75,0.33578 0.75,0.75c0,0.41422 -0.33578,0.75 -0.75,0.75c-0.41422,0 -0.75,-0.33578 -0.75,-0.75z" fill="#e06c00" stroke="none" stroke-width="0.5" stroke-linecap="butt"/><path d="M229.11113,182.74026c0,-0.41422 0.33578,-0.75 0.75,-0.75c0.41422,0 0.75,0.33578 0.75,0.75c0,0.41422 -0.33578,0.75 -0.75,0.75c-0.41422,0 -0.75,-0.33578 -0.75,-0.75z" fill="#e06c00" stroke="none" stroke-width="0.5" stroke-linecap="butt"/><path d="M226.36113,182.61526c0,-0.41422 0.33578,-0.75 0.75,-0.75c0.41422,0 0.75,0.33578 0.75,0.75c0,0.41422 -0.33578,0.75 -0.75,0.75c-0.41422,0 -0.75,-0.33578 -0.75,-0.75z" fill="#e06c00" stroke="none" stroke-width="0.5" stroke-linecap="butt"/><path d="M251.98614,182.76805c0,-0.41422 0.33578,-0.75 0.75,-0.75c0.41422,0 0.75,0.33578 0.75,0.75c0,0.41422 -0.33578,0.75 -0.75,0.75c-0.41422,0 -0.75,-0.33578 -0.75,-0.75z" fill="#e06c00" stroke="none" stroke-width="0.5" stroke-linecap="butt"/><path d="M248.99308,186.33609c0,-0.41422 0.33578,-0.75 0.75,-0.75c0.41422,0 0.75,0.33578 0.75,0.75c0,0.41422 -0.33578,0.75 -0.75,0.75c-0.41422,0 -0.75,-0.33578 -0.75,-0.75z" fill="#e06c00" stroke="none" stroke-width="0.5" stroke-linecap="butt"/><path d="M223.18752,178.16783v-16.56059h33.5v16.56059z" fill="#717171" stroke="#5a5a5a" stroke-width="1.5" stroke-linecap="butt"/><path d="M223.18752,198.60249v-20.43466h33.5v20.43466z" fill="#717171" stroke="#5a5a5a" stroke-width="1.5" stroke-linecap="butt"/><path d="M227.79863,189.36386v-8.5h23.77778v8.5z" fill="url(#color-1)" stroke="#5a5a5a" stroke-width="1.5" stroke-linecap="butt"/><path d="M233.22494,188.37178l0.125,-7" fill="none" stroke="#5a5a5a" stroke-width="1.5" stroke-linecap="round"/><path d="M239.62502,188.61386l0.125,-7" fill="none" stroke="#5a5a5a" stroke-width="1.5" stroke-linecap="round"/><path d="M245.62772,181.33705l0.125,6.875" fill="none" stroke="#5a5a5a" stroke-width="1.5" stroke-linecap="round"/><path d="M223.18752,198.60249v-3.66433h33.5v3.66433z" fill="#ffea00" stroke="#1f1f1f" stroke-width="1.5" stroke-linecap="butt"/><path d="M228.82144,195.13617l-5,2.86383l0.07143,-3.02747z" fill="#414141" stroke="#414141" stroke-width="1.5" stroke-linecap="round"/><path d="M231.10715,198.42857l3.85301,-2.85714l3.78985,-0.21429l-2.21074,2.92857z" fill="#414141" stroke="#414141" stroke-width="1.5" stroke-linecap="round"/><path d="M243.22919,198.5l1.83486,-3.44165l4.11454,-0.06883l-1.83486,3.37282z" fill="#414141" stroke="#414141" stroke-width="1.5" stroke-linecap="round"/><path d="M252.39287,198.24725l2.07143,-3.31868l1.92857,0.06146v2.88848z" fill="#414141" stroke="#414141" stroke-width="1.5" stroke-linecap="round"/><path d="M223.18751,198.60249v-3.66433h33.5v3.66433z" fill="none" stroke="#1f1f1f" stroke-width="1.5" stroke-linecap="butt"/><path d="M248.69909,169.3962c0,3.79926 -3.94822,6.87917 -8.81859,6.87917c-4.87038,0 -8.81859,-3.0799 -8.81859,-6.87916c0,-3.79926 3.94822,-6.87916 8.81859,-6.87916c4.87038,0 8.81859,3.0799 8.81859,6.87917z" fill="#717171" stroke="#5a5a5a" stroke-width="1.5" stroke-linecap="butt"/><path d="M248.67129,167.014c0,3.24468 -3.94822,5.875 -8.81859,5.875c-4.87038,0 -8.81859,-2.63032 -8.81859,-5.875c0,-3.24468 3.94822,-5.875 8.81859,-5.875c4.87038,0 8.81859,2.63032 8.81859,5.875z" fill="url(#color-2)" stroke="#5a5a5a" stroke-width="1.5" stroke-linecap="butt"/><path d="M231.26457,170.85491l-0.14401,-4.59091" fill="none" stroke="#5a5a5a" stroke-width="1.5" stroke-linecap="round"/><path d="M248.66773,170.764l0.05746,-3.875" fill="none" stroke="#5a5a5a" stroke-width="1.5" stroke-linecap="round"/></g></g></svg>