<svg version="1.1" xmlns="http://www.w3.org/2000/svg" xmlns:xlink="http://www.w3.org/1999/xlink" width="67.01666" height="91.83218" viewBox="0,0,67.01666,91.83218"><g transform="translate(-186.51377,-114.79634)"><g data-paper-data="{&quot;isPaintingLayer&quot;:true}" fill-rule="nonzero" stroke="none" stroke-linecap="butt" stroke-linejoin="miter" stroke-miterlimit="10" stroke-dasharray="" stroke-dashoffset="0" style="mix-blend-mode: normal"><path d="M225.08517,148.25574c-0.03554,-0.01138 -0.07034,-0.02446 -0.10432,-0.03916c-0.09646,0.0695 -0.17028,0.15426 -0.20085,0.26877c-0.02876,0.10776 -0.06392,0.49387 -0.13572,0.8619c0.31051,-0.3633 0.61632,-0.77438 0.45397,-1.03131zM224.4231,144.80024c-0.10916,-0.20466 -0.22686,-0.41769 -0.35603,-0.63352c-0.27364,-0.45723 -1.19151,-1.7645 -0.92986,-1.3003c0.57996,1.02889 0.54339,1.35748 1.28589,1.93383zM226.51663,147.8431c0.28431,1.24082 -1.18677,4.88616 -3.18465,3.43151c-1.98073,-1.44216 1.4354,-4.1184 0.7067,-4.92616c-1.21772,-0.74295 -4.23697,-4.39935 -1.02412,-4.95265c1.86535,-0.32124 4.86142,5.05734 3.6799,6.27803c-0.05929,0.06125 -0.11861,0.11761 -0.17783,0.16927z" fill="#000000" stroke-width="0.5"/><path d="M225.11835,148.27015c0.16235,0.25693 -0.18373,0.75954 -0.49424,1.12284c0.0718,-0.36803 0.10923,-0.84657 0.13799,-0.95433c0.03057,-0.11451 0.1299,-0.20201 0.22637,-0.2715c0.03398,0.0147 0.07825,0.03021 0.1138,0.04159z" data-paper-data="{&quot;noHover&quot;:false,&quot;origItem&quot;:[&quot;Path&quot;,{&quot;applyMatrix&quot;:true,&quot;segments&quot;:[[[225.08517,148.25574],[0,0],[-0.03554,-0.01138]],[[224.98085,148.21658],[0.03398,0.0147],[-0.09646,0.0695]],[[224.78001,148.48535],[0.03057,-0.11451],[-0.02876,0.10776]],[[224.64429,149.34725],[0.0718,-0.36803],[0.31051,-0.3633]],[[225.09826,148.31594],[0.16235,0.25693],[0,0]]],&quot;closed&quot;:true}]}" fill="#ffffff" stroke-width="0.5"/><path d="M223.10923,142.82498c-0.26165,-0.46419 0.71569,0.92335 0.98933,1.38058c0.12917,0.21584 0.24279,0.43184 0.35196,0.6365c-0.7425,-0.57635 -0.76133,-0.98819 -1.34128,-2.01708z" data-paper-data="{&quot;noHover&quot;:false,&quot;origItem&quot;:[&quot;Path&quot;,{&quot;applyMatrix&quot;:true,&quot;segments&quot;:[[[224.4231,144.80024],[-0.7425,-0.57635],[-0.10916,-0.20466]],[[224.06706,144.16672],[0.12917,0.21584],[-0.27364,-0.45723]],[[223.13721,142.86642],[-0.26165,-0.46419],[0.57996,1.02889]]],&quot;closed&quot;:true}]}" fill="#ffffff" stroke-width="0.5"/><path d="M247.544,182.81185c-1.67208,3.88482 -4.64244,-4.09298 -1.185,-3.54506c0.33464,0.05303 1.0516,0.54552 1.35429,0.7379c0,0 0.5435,0.34657 0.2603,1.01169c-0.09063,0.21286 -0.20793,0.3221 -0.32553,0.37225c-0.03336,0.47488 0.07732,1.0018 -0.10406,1.42322z" data-paper-data="{&quot;index&quot;:null}" fill="#00529f" stroke-width="0.5"/><path d="M247.03091,173.40573c0,0 0.05455,0.00111 0.13082,0.02259l0.42398,-0.61725c0.17946,-0.27255 0.4967,-0.36177 0.76007,-0.19383c0.23746,0.15142 0.36001,0.46654 0.32339,0.77346l-0.07524,0.75362l-0.04469,-0.00668l0.02167,0.13806c-0.02688,0.06515 -0.055,0.13671 -0.08407,0.21352c0.07048,-0.00687 0.14988,0.00151 0.23913,0.03076c0.59199,0.19403 0.43344,0.9185 0.43344,0.9185c-0.2661,1.21565 -0.83278,5.00016 -2.55451,3.48146c-0.20533,-0.18112 -0.29206,-0.50888 -0.29949,-0.91585c-0.51682,0.96393 -1.02544,1.93109 -1.42816,2.99575c-0.17517,0.46308 0.30807,1.07887 0.10618,1.52537c-0.47952,1.06053 -1.52747,0.50153 -2.20257,0.8548c-1.93144,1.01069 -2.74653,0.13148 -1.94381,-2.41309c0.74861,-2.35483 1.68095,-4.71153 3.01454,-6.65788l-0.00572,-0.02521c0,0 0.25902,-0.60835 0.75703,-0.35828l0.36693,-0.03555c0.73617,-0.28368 1.28169,-0.49032 2.06109,-0.48429z" data-paper-data="{&quot;index&quot;:null}" fill="#0060b9" stroke-width="0.5"/><path d="M239.99635,161.38271c0.93262,-0.84458 2.22606,-0.93163 3.3457,-1.15984c2.11978,-0.43207 5.40329,-2.38072 7.57994,-1.30126c-0.48567,3.66001 -0.31176,7.80699 -0.32396,11.5319c-0.43582,1.33954 -0.78643,2.72642 -0.98161,3.77509c-0.08991,-0.01644 -0.18008,-0.03136 -0.27045,-0.0447l-0.06511,-0.24541c-0.097,-0.3582 -0.40643,-0.57401 -0.71499,-0.49347c-0.26507,0.06919 -0.45923,0.3404 -0.48921,0.65353c-1.47513,0.01838 -2.9669,0.44494 -4.34005,1.30625c-0.27,-1.34565 -0.42968,-2.74172 -0.58282,-4.117c-0.02088,-1.06359 -0.15578,-2.0919 -0.32605,-2.69518c-0.00062,-0.00222 -0.00124,-0.00449 -0.00187,-0.00671l0.00114,-0.00019l-0.16569,-1.48741c-0.00214,-0.02007 -0.00481,-0.04052 -0.00833,-0.06065c-0.07061,-0.40511 -0.32418,-0.61621 -0.65519,-0.52981c-0.30856,0.08054 -0.51079,0.42659 -0.47991,0.80205l0.06337,0.87766l0.0175,-0.00179l-0.013,0.04783c0.1618,0.92974 0.27936,1.85952 0.38784,2.81278c-0.02961,1.7143 -0.22283,3.41006 -1.0807,2.91187c-1.82822,-1.06168 -1.57145,-7.27001 -1.4617,-9.24849c0.10878,-0.88506 0.21858,-1.77415 0.36029,-2.65228l0.0834,-0.58582z" data-paper-data="{&quot;noHover&quot;:false,&quot;origItem&quot;:[&quot;Path&quot;,{&quot;applyMatrix&quot;:true,&quot;segments&quot;:[[[496.43499,290.36259],[0,0],[-2.5848,-1.17581]],[[487.97232,289.8161],[2.77535,-0.1253],[-5.83683,0.26353]],[[467.94253,292.40451],[4.22399,-5.00478],[0,0]],[[467.04065,292.93661],[0.54007,-0.10999],[-2.58686,4.73015]],[[462.74809,308.31721],[-0.00361,-5.42119],[0.00052,0.7823]],[[463.40716,313.95383],[-0.99603,-0.56354],[2.47697,1.40145]],[[467.85663,312.01728],[-0.68556,1.91418],[0.16213,-2.29009]],[[469.04847,305.38632],[-0.68063,2.10294],[0.05884,-0.29223]],[[469.23279,304.51134],[-0.06392,0.29109],[0,0]],[468.89492,304.43626],[[469.33295,302.4651],[0,0],[0.13765,-0.68639]],[[470.80364,301.26165],[-0.7269,0],[0.82843,0]],[[472.30364,302.76165],[0,-0.82843],[0,0]],[472.30364,304.31721],[472.22701,304.31721],[[472.29469,304.48088],[0,0],[-0.15574,0.71307]],[[471.85883,306.6273],[0.13113,-0.71819],[0.05089,1.4485]],[[471.17926,311.18297],[0.18462,-1.38496],[-0.70876,5.31694]],[[470.96654,327.54421],[-0.3625,-5.35496],[0.04402,0.65029]],[[471.04523,332.88685],[-0.26208,-0.2819],[0.49196,0.52915]],[[473.2066,333.05036],[-0.71548,-0.10061],[1.3984,0.14085]],[[478.67406,333.37583],[-1.38221,0.40107],[1.57041,-0.45568]],[[479.30654,321.33511],[-0.00212,1.5314],[0,0]],[479.35432,321.24715],[479.31523,321.24227],[[479.53498,319.48423],[0,0],[0.08274,-0.75016]],[[481.02587,318.15054],[-0.77221,0],[0.7786,0]],[[482.51869,319.50288],[-0.07417,-0.75912],[0,0]],[482.73891,321.48489],[482.30218,321.53342],[[482.3008,321.54447],[0,0],[0.00001,0.00215]],[[482.30082,321.55093],[-0.00001,-0.00215],[0.68633,2.74861]],[[482.74519,330.18819],[0.16737,-3.1557],[-0.013,0.24515]],[[482.50156,330.95975],[0.12905,-0.26423],[-0.0751,0.68836]],[[482.14107,332.91845],[0.1698,-0.61036],[0.72575,0.49101]],[[486.3685,333.26168],[-0.39266,-0.00064],[0.77885,0.00126]],[[492.12257,333.34191],[-0.47462,0.33694],[1.35326,-0.96069]],[[493.08432,322.66845],[-0.00313,1.78255],[0.46966,-3.75727]],[[492.96593,311.26793],[0.28561,3.81615],[-0.39377,-2.09104]],[[492.63336,305.8747],[-0.15588,1.26694],[0.00057,-0.00467]],[[492.63509,305.8607],[-0.00058,0.00467],[0,0]],[492.63231,305.8609],[[492.41967,302.88397],[0,0],[-0.00326,-0.04034]],[[492.41476,302.76165],[0,0.04118],[0,-0.82843]],[[493.91476,301.26165],[-0.82843,0],[0.77221,0]],[[495.40564,302.59534],[-0.08274,-0.75016],[0,0]],[495.62539,304.35338],[495.58269,304.35872],[[495.63408,304.44622],[0,0],[0.00057,1.90117]],[[495.88986,310.1828],[-0.13802,-1.91996],[0.78614,3.33805]],[[499.49447,315.31377],[-1.84568,1.41247],[3.93334,-3.01012]],[[499.15688,296.56475],[1.08818,3.81386],[-0.62963,-1.67564]],[[497.2027,291.57475],[0.70559,1.64528],[0,0]],[496.76188,290.47383]],&quot;closed&quot;:true}],&quot;index&quot;:null}" fill="#0060b9" stroke-width="0.5"/><path d="M243.19389,171.27803c0.15384,1.3815 0.30461,2.76679 0.57161,4.10872c-0.37598,0.23389 -0.74319,0.5003 -1.09882,0.79974c-0.08136,-0.36988 -0.15306,-0.74337 -0.21752,-1.1195c-0.42773,0.58075 -1.06969,0.77153 -2.00122,0.2495c-2.54105,-1.42402 -2.35535,-7.96308 -2.19947,-10.74482c0.11306,-0.92806 0.22332,-1.85123 0.37152,-2.77193l0.08017,-0.57171c0,0 0.02112,-0.15027 0.09969,-0.30364c0.02011,-0.37611 0.31424,-0.58795 0.31424,-0.58795l0.20465,-0.14438c1.15254,-0.96429 2.47421,-1.1269 3.83263,-1.40273v-0.00001c2.48121,-0.5038 5.53277,-2.31227 8.0008,-1.29677c-0.09272,0.4824 -0.17092,0.97624 -0.23675,1.47918c-2.17087,-1.0899 -5.43173,0.86286 -7.55455,1.29554c-1.11964,0.2282 -2.40229,0.30534 -3.33491,1.14992l-0.12114,0.08849l-0.0823,0.58432c-0.14172,0.87814 -0.24678,1.75888 -0.35554,2.64394c-0.10976,1.97848 -0.36513,8.14179 1.46309,9.20348c0.85788,0.49819 0.97338,-1.1707 1.003,-2.88501c-0.10849,-0.95325 -0.22491,-1.90214 -0.38672,-2.83187l0.01307,-0.04815l-0.01752,0.00184l-0.06203,-0.8826c-0.03088,-0.37546 0.17349,-0.72714 0.48205,-0.80768c0.33102,-0.08642 0.65661,0.17195 0.72722,0.57704c0.00351,0.02015 0.00633,0.04026 0.00846,0.06033l0.16875,1.4779l-0.00114,0.00019c0.00063,0.00222 0.00126,0.00444 0.00189,0.00666c0.17027,0.60328 0.30589,1.60838 0.32677,2.67198z" data-paper-data="{&quot;index&quot;:null}" fill="#00488c" stroke-width="0.5"/><path d="M249.3428,174.18344c-0.42173,-0.06215 -0.84812,-0.09063 -1.2759,-0.08477c0.01183,-0.33322 0.20563,-0.6276 0.48456,-0.70041c0.30856,-0.08055 0.6124,0.13847 0.7094,0.49667z" data-paper-data="{&quot;index&quot;:null}" fill="#00488c" stroke-width="0.5"/><path d="M233.41901,148.35027c0.29668,0.12299 0.59131,-0.08944 0.59131,-0.08944l0.13563,-0.1077c2.28014,-1.14917 4.3241,-1.93466 6.84668,-1.14843c3.64634,1.13648 7.44918,7.75979 7.53988,12.26377c0.2937,10.21607 -10.37914,16.7441 -16.64689,9.50063c-3.56062,-4.05533 -3.57565,-10.10844 -1.49901,-15.20264c0.72133,-1.76946 1.60636,-4.08582 3.0324,-5.21619z" data-paper-data="{&quot;noHover&quot;:false,&quot;origItem&quot;:[&quot;Path&quot;,{&quot;applyMatrix&quot;:true,&quot;segments&quot;:[[461.79205,256.51809],[[461.57425,256.7885],[0,0],[-2.51619,4.68647]],[[458.07109,271.20873],[-0.82414,-5.55431],[1.19129,8.02865]],[[477.82886,289.50257],[-7.87755,-1.00359],[17.84882,2.46512]],[[498.05541,255.64538],[11.32339,14.75074],[-6.32818,-8.36895]],[[471.84818,249.73122],[9.38889,-3.5412],[-3.26121,1.23003]],[[462.07578,255.26964],[2.29549,-2.85706],[0.15045,0.65872]]],&quot;closed&quot;:true}],&quot;index&quot;:null}" fill="#e6dccb" stroke-width="0.5"/><path d="M229.38219,172.41256l0.06348,-0.10861c0.46553,-0.79565 0.90441,-1.61571 1.31435,-2.45592c0,0 0.3144,-0.64377 0.84046,-0.25901c0.52605,0.38477 0.21165,1.02855 0.21165,1.02855c-0.42776,0.87508 -0.88505,1.72955 -1.36957,2.55913l-0.06349,0.10861c0,0 -0.35658,0.60998 -0.85501,0.17361c-0.49844,-0.43638 -0.14186,-1.04636 -0.14186,-1.04636z" data-paper-data="{&quot;index&quot;:null}" fill="#8c5900" stroke-width="0.5"/><path d="M225.91189,162.74589c0.06244,-0.7461 0.67211,-0.66968 0.67211,-0.66968l0.19867,0.05147c0.34043,-0.06902 0.68086,-0.13803 1.02128,-0.20705c0,0 0.6046,-0.12258 0.70476,0.61733c0.10017,0.7399 -0.50444,0.86249 -0.50444,0.86249c-0.34043,0.06902 -0.68084,0.13804 -1.02126,0.20706l-0.52389,-0.03911c0,0 -0.60966,-0.07642 -0.54722,-0.82252z" data-paper-data="{&quot;index&quot;:null}" fill="#8c5900" stroke-width="0.5"/><path d="M228.18151,152.55665l0.16873,0.2717c0.27947,0.29564 0.55896,0.5913 0.83843,0.88695c0,0 0.46366,0.49048 0.06287,1.05787c-0.40078,0.56741 -0.86441,0.07693 -0.86441,0.07693c-0.27948,-0.29565 -0.55896,-0.59131 -0.83845,-0.88695l-0.31768,-0.45944c0,0 -0.38693,-0.58161 0.08831,-1.05514c0.47526,-0.47353 0.8622,0.10808 0.8622,0.10808z" data-paper-data="{&quot;index&quot;:null}" fill="#8c5900" stroke-width="0.5"/><path d="M231.96992,144.89548c0.54191,-0.35027 0.82813,0.31291 0.82813,0.31291l0.13055,0.30678c0.18299,0.35802 0.36598,0.71604 0.54897,1.07405c0,0 0.325,0.63585 -0.19457,1.03359c-0.51958,0.39773 -0.84458,-0.23812 -0.84458,-0.23812c-0.18299,-0.35801 -0.36598,-0.71604 -0.54898,-1.07405l-0.17521,-0.4017c0,0 -0.28622,-0.66317 0.25569,-1.01345z" data-paper-data="{&quot;index&quot;:null}" fill="#8c5900" stroke-width="0.5"/><path d="M234.03209,148.31088c0,0 -0.29247,0.21095 -0.58916,0.08795c-1.42604,1.13035 -2.2945,3.42573 -3.01582,5.19518c-2.07664,5.0942 -2.07118,11.07748 1.48944,15.13281c6.26777,7.24348 16.86328,0.75788 16.56959,-9.4582c-0.0907,-4.50397 -3.85698,-11.07205 -7.50332,-12.20853c-2.52258,-0.78623 -4.5356,-0.00568 -6.81574,1.14348l-0.13499,0.1073zM233.76533,146.3237c0,0 0.25412,-0.11254 0.50284,-0.00343c2.30382,-1.09652 4.49966,-1.72767 7.05811,-0.90946c4.27884,1.36841 8.37505,8.50382 8.54985,13.80088c0.30587,11.73644 -11.71762,18.96878 -18.91115,10.7564c-3.98826,-4.6117 -4.14442,-11.34145 -1.78233,-17.13396c1.0503,-2.57564 2.27341,-5.43887 4.58267,-6.51041z" data-paper-data="{&quot;index&quot;:null}" fill="#8c877d" stroke-width="0.5"/><path d="M244.35128,155.65853c0.03652,-0.71332 0.03957,-1.4077 -0.0066,-2.07084c-0.02345,-0.3368 -0.55324,-0.00112 -0.82815,-0.0337c-0.03843,-0.00456 -0.07684,-0.00913 -0.11527,-0.01373c-0.05092,0.61638 -0.09755,1.23356 -0.14113,1.85125c0.25856,0.06994 0.51809,0.14803 0.78031,0.23586zM243.6732,157.26896c-0.17693,-0.05928 -0.35234,-0.11368 -0.52693,-0.16381c-0.03777,0.60018 -0.0737,1.20063 -0.10887,1.80114c0.14273,0.0236 0.287,0.04442 0.43308,0.06273l0.51801,0.17144c0.08331,-0.60005 0.16104,-1.20043 0.22485,-1.79465l-0.54014,-0.07683zM243.21511,160.6421c-0.09279,-0.01163 -0.1848,-0.02436 -0.27609,-0.03823c-0.05476,0.94626 -0.11022,1.89213 -0.1707,2.83666c0.13166,0.0165 0.2596,0.03254 0.3827,0.04797c0,0 0.10755,0.0135 0.2335,0.08172c0.09304,-0.88263 0.2246,-1.8071 0.36163,-2.74764zM239.48087,164.73277c-0.08058,0.53723 -0.12515,1.03386 -0.09857,1.43733c0.02445,0.37104 0.6125,-0.11031 0.9118,-0.04398c0.30127,0.06677 0.58767,0.16049 0.86538,0.27425c0.03909,-0.47836 0.07565,-0.95732 0.11025,-1.43678c-0.57308,-0.07184 -1.14616,-0.14368 -1.71925,-0.21552c0,0 -0.02693,-0.00337 -0.06961,-0.0153zM242.66343,165.13829c-0.00338,-0.00042 -0.00678,-0.00085 -0.01015,-0.00127c-0.04082,0.56553 -0.08437,1.13042 -0.13157,1.69442l-0.08794,0.22999c0.17337,0.10423 0.34718,0.21235 0.52317,0.3224c-0.14261,-0.67117 0.05045,-1.45386 0.20894,-2.20703c-0.09186,0.01295 -0.15657,0.00484 -0.15657,0.00484l-0.34588,-0.04336zM240.97909,153.23594c-0.04875,0.56329 -0.09949,1.12746 -0.1522,1.69199c0.35947,0.04631 0.71107,0.09833 1.05894,0.15983c0.04089,-0.57378 0.08452,-1.1471 0.13181,-1.71972c-0.34619,-0.04411 -0.69235,-0.0885 -1.03856,-0.13209zM241.6633,158.57194c0.03501,-0.59507 0.07084,-1.19007 0.10856,-1.78475c-0.36339,-0.06605 -0.73088,-0.12053 -1.1085,-0.16891c-0.04925,0.49175 -0.09994,0.9834 -0.15207,1.47461c0.38385,0.19365 0.76561,0.35123 1.15201,0.47903zM241.3848,163.26709c0.06338,-0.98986 0.12125,-1.98123 0.17856,-2.97299c-0.41698,-0.1264 -0.82782,-0.28182 -1.24207,-0.46883c-0.03972,0.3508 -0.08016,0.70116 -0.12132,1.05096c-0.0714,0.60701 -0.24076,1.38756 -0.40761,2.19125c0.48503,0.06081 1.038,0.13012 1.59243,0.19962zM240.72596,151.56179c0.15196,-0.0495 0.28052,-0.03336 0.28052,-0.03336c1.00511,0.126 3.98401,-0.11821 4.54343,1.20996c0.15355,0.36456 -0.13336,3.05047 -0.15708,3.44948c-0.24977,4.2003 -0.62906,8.22072 -1.3964,12.32667c-0.82058,0.30409 -5.14013,-0.12274 -5.76137,-1.38235c-0.32325,-0.65542 0.13073,-2.44822 0.21412,-3.13509c0.46812,-3.85535 0.88237,-7.76858 1.20641,-11.63997l0.01181,-0.1411c0,0 0.07085,-0.84658 0.76262,-0.75986c0.12024,0.01508 0.21743,0.0531 0.29596,0.10564z" data-paper-data="{&quot;index&quot;:null}" fill="#000000" stroke-width="0.5"/><path d="M239.51691,164.70896c0.57309,0.07184 1.22025,0.15515 1.79334,0.22698c-0.0346,0.47946 -0.07441,1.01983 -0.1135,1.49819c-0.2777,-0.11376 -0.60233,-0.18453 -0.9036,-0.25129c-0.2993,-0.06632 -0.9281,0.38306 -0.95254,0.01202c-0.02658,-0.40347 0.025,-0.96248 0.10558,-1.49971c0.04269,0.01192 0.07072,0.01381 0.07072,0.01381z" data-paper-data="{&quot;noHover&quot;:false,&quot;origItem&quot;:[&quot;Path&quot;,{&quot;applyMatrix&quot;:true,&quot;segments&quot;:[[[244.5817,157.32764],[0,0],[0,0.70501]],[[244.5817,159.44267],[0,-0.70501],[0.48128,0.00673]],[[246.02475,159.45484],[-0.48074,-0.00115],[-0.07853,-0.34968]],[[245.85985,158.37336],[0.02885,0.37358],[-0.02866,-0.37113]],[[246.01731,157.26781],[0.36606,0.06756],[-0.39806,-0.07347]],[[244.57517,157.24133],[0.54448,-0.04336],[0.00654,0.05318]]],&quot;closed&quot;:true}],&quot;index&quot;:null}" fill="#ffb900" stroke-width="0.5"/><path d="M242.65705,165.0821l0.36363,0.04455c0,0 0.07169,0.01101 0.16355,-0.00194c-0.1585,0.75316 -0.36167,1.64377 -0.21908,2.31495c-0.17598,-0.11006 -0.37985,-0.22395 -0.55322,-0.32818l0.08714,-0.23053c0.0472,-0.564 0.10652,-1.23449 0.14733,-1.80003c0.00339,0.00042 0.00727,0.00076 0.01065,0.00118z" data-paper-data="{&quot;noHover&quot;:false,&quot;origItem&quot;:[&quot;Path&quot;,{&quot;applyMatrix&quot;:true,&quot;segments&quot;:[[[244.5817,161.15716],[0,-0.00416],[0,0]],[244.5817,161.58266],[[244.55735,161.77278],[0.02434,-0.11051],[0.76902,-0.1162]],[[246.77895,161.7433],[-0.64991,-0.242],[-0.08753,-0.22546]],[[246.52348,161.07353],[0.08207,0.22168],[0,0]],[[246.28371,161.15716],[0,0],[-0.56696,0]],[[244.5817,161.14468],[0.56768,0.00794],[0,0.00416]]],&quot;closed&quot;:true}],&quot;index&quot;:null}" fill="#ffb900" stroke-width="0.5"/><path d="M242.92836,160.54865c0.09131,0.01385 0.1935,0.02507 0.28629,0.0367l0.5522,0.18645c-0.13703,0.94054 -0.28328,1.97203 -0.37632,2.85466c-0.12595,-0.06824 -0.24258,-0.08136 -0.24258,-0.08136c-0.12309,-0.01542 -0.26579,-0.03571 -0.39746,-0.05222c0.06047,-0.94453 0.12312,-1.99796 0.17787,-2.94423z" data-paper-data="{&quot;noHover&quot;:false,&quot;origItem&quot;:[&quot;Path&quot;,{&quot;applyMatrix&quot;:true,&quot;segments&quot;:[[[240.04012,161.37064],[0,-0.11415],[0,0]],[[240.15343,162.03551],[0,0],[0.95273,-0.07099]],[[242.93186,161.87525],[-0.88964,0.02333],[-0.05217,-0.16028]],[[242.87969,161.58266],[0,0],[0,-0.15142]],[[242.87969,161.11187],[0,0.16197],[-0.94716,-0.02263]],[[240.03651,161.03062],[0.94817,0.02977],[0.00241,0.11257]]],&quot;closed&quot;:true}],&quot;index&quot;:null}" fill="#ffb900" stroke-width="0.5"/><path d="M241.59297,160.25046c-0.05732,0.99176 -0.12527,2.07825 -0.18864,3.06812c-0.55443,-0.0695 -1.15457,-0.14473 -1.6396,-0.20554c0.16685,-0.80369 0.33134,-1.67023 0.40275,-2.27723c0.04115,-0.34982 0.10119,-0.71421 0.14091,-1.065c0.41425,0.18701 0.86763,0.35325 1.28459,0.47965z" data-paper-data="{&quot;noHover&quot;:false,&quot;origItem&quot;:[&quot;Path&quot;,{&quot;applyMatrix&quot;:true,&quot;segments&quot;:[[[242.87969,159.40986],[-0.99263,-0.02371],[0,-0.68206]],[[242.87969,157.45086],[0,0.59668],[-0.82031,0.12123]],[[240.64903,157.72381],[0.61275,-0.02508],[-0.35312,0.01445]],[[239.58841,157.76441],[0.35392,-0.01262],[0.13437,0.52338]],[[239.89991,159.32431],[-0.07374,-0.52051],[0.99375,0.03128]]],&quot;closed&quot;:true}],&quot;index&quot;:null}" fill="#ffb900" stroke-width="0.5"/><path d="M241.8037,156.74594c-0.03772,0.5947 -0.08034,1.27864 -0.11533,1.8737c-0.38637,-0.1278 -0.83227,-0.30253 -1.21613,-0.49618c0.05213,-0.49121 0.11774,-1.06189 0.16699,-1.55364c0.37762,0.04838 0.80108,0.11009 1.16447,0.17612z" data-paper-data="{&quot;noHover&quot;:false,&quot;origItem&quot;:[&quot;Path&quot;,{&quot;applyMatrix&quot;:true,&quot;segments&quot;:[[[238.17423,159.27048],[-0.59633,-0.01803],[-0.07895,-0.48342]],[[237.84135,157.81918],[0.14478,0.48704],[-0.49516,0.01341]],[[236.35544,157.85406],[0.49534,-0.00984],[0.00104,0.46465]],[[236.38524,159.22077],[-0.02038,-0.44913],[0.5963,0.01467]]],&quot;closed&quot;:true}],&quot;index&quot;:null}" fill="#ffb900" stroke-width="0.5"/><path d="M243.67773,157.21252l0.56761,0.09223c-0.06383,0.59422 -0.15403,1.28713 -0.23734,1.88719l-0.54637,-0.16721c-0.14608,-0.01831 -0.31233,-0.05246 -0.45506,-0.07605c0.03517,-0.60051 0.07964,-1.29307 0.1174,-1.89325c0.1746,0.05012 0.37685,0.09781 0.55376,0.1571z" data-paper-data="{&quot;noHover&quot;:false,&quot;origItem&quot;:[&quot;Path&quot;,{&quot;applyMatrix&quot;:true,&quot;segments&quot;:[[[236.62742,161.58459],[-0.03692,-0.22143],[0,0]],[[236.63649,162.25],[0,0],[0.59909,-0.01714]],[[238.44986,162.15913],[-0.60732,0.04029],[0,0]],[[238.34391,161.51102],[0,0],[0,-0.17971]],[[238.33551,160.97739],[0.00567,0.17617],[-0.60177,-0.01837]],[[236.53017,160.92639],[0.60177,0.01518],[0.02809,0.21766]]],&quot;closed&quot;:true}],&quot;index&quot;:null}" fill="#ffb900" stroke-width="0.5"/><path d="M244.04819,155.68332c-0.26223,-0.08784 -0.55973,-0.17883 -0.81828,-0.24877c0.04359,-0.61769 0.09618,-1.32623 0.14709,-1.94261c0.03842,0.00461 0.08124,0.00626 0.11967,0.01082c0.27491,0.03258 0.84887,-0.30015 0.87232,0.03664c0.04617,0.66315 0.03936,1.45667 0.00284,2.17z" data-paper-data="{&quot;noHover&quot;:false,&quot;origItem&quot;:[&quot;Path&quot;,{&quot;applyMatrix&quot;:true,&quot;segments&quot;:[[[234.94857,161.8644],[0,0],[-0.05467,-0.32819]],[[234.81125,160.8904],[0.03733,0.3219],[-0.61991,-0.00989]],[[232.95203,160.87359],[0.61953,0.00082],[-0.00022,0.04725]],[[232.95132,161.01533],[0.00026,-0.04725],[-0.00187,0.33801]],[[232.88157,162.02697],[-0.33212,-0.06287],[0.65393,0.12378]],[[234.9408,162.24602],[-0.71417,-0.02822],[0,0]]],&quot;closed&quot;:true}],&quot;index&quot;:null}" fill="#ffb900" stroke-width="0.5"/><path d="M240.79481,154.9689c0.05271,-0.56453 0.11187,-1.21847 0.16063,-1.78175c0.3462,0.0436 0.74723,0.09486 1.09341,0.13896c-0.04728,0.57262 -0.09811,1.2364 -0.13899,1.81019c-0.34787,-0.0615 -0.75556,-0.12108 -1.11504,-0.1674z" data-paper-data="{&quot;noHover&quot;:false,&quot;origItem&quot;:[&quot;Path&quot;,{&quot;applyMatrix&quot;:true,&quot;segments&quot;:[[[232.95135,157.89376],[0.56643,-0.00195],[0.00019,0.42592]],[[232.95324,159.17158],[-0.00071,-0.42596],[0.57554,0.00077]],[[234.68045,159.18637],[-0.5759,-0.00869],[-0.01781,-0.42977]],[[234.6535,157.88089],[0.00125,0.44235],[-0.56817,0.00663]]],&quot;closed&quot;:true}],&quot;index&quot;:null}" fill="#ffb900" stroke-width="0.5"/><path d="M227.82171,150.211c0.27254,-0.67175 0.82146,-0.33822 0.82146,-0.33822l0.71101,0.43238c0.55511,0.39136 1.14876,0.70268 1.75167,0.96776c0,0 0.5763,0.25509 0.36786,0.96039c-0.20844,0.70529 -0.78476,0.45019 -0.78476,0.45019c-0.65706,-0.29262 -1.30479,-0.63147 -1.91224,-1.05524l-0.67861,-0.41196c0,0 -0.54891,-0.33353 -0.27637,-1.00529z" data-paper-data="{&quot;index&quot;:null}" fill="#8c5900" stroke-width="0.5"/><path d="M226.01829,158.30375c-0.03862,-0.7485 0.57301,-0.79577 0.57301,-0.79577l0.65225,-0.04018c0.65043,0.08153 1.25643,0.16914 1.90944,0.13524c0,0 0.61236,-0.02984 0.63677,0.71956c0.02439,0.7494 -0.58797,0.77926 -0.58797,0.77926c-0.71155,0.03273 -1.37534,-0.05313 -2.08313,-0.14186l-0.4501,0.04501c0,0 -0.61163,0.04728 -0.65025,-0.70124z" data-paper-data="{&quot;index&quot;:null}" fill="#8c5900" stroke-width="0.5"/><path d="M228.30259,169.0516c-0.38693,-0.58162 0.08831,-1.05514 0.08831,-1.05514l0.39828,-0.39684c0.39649,-0.38903 0.84255,-0.70731 1.30579,-0.96302c0,0 0.56032,-0.30382 0.80857,0.38189c0.24824,0.68572 -0.31207,0.98953 -0.31207,0.98953c-0.36681,0.19443 -0.72089,0.44232 -1.02843,0.75483l-0.39828,0.39684c0,0 -0.47526,0.47353 -0.86219,-0.10809z" data-paper-data="{&quot;index&quot;:null}" fill="#8c5900" stroke-width="0.5"/><path d="M233.02663,174.0015c-0.49066,-0.4494 -0.12344,-1.04984 -0.12344,-1.04984l0.33524,-0.54674c0.39615,-0.58669 0.7745,-1.19233 1.13007,-1.81674c0,0 0.35066,-0.61511 0.85328,-0.18596c0.50261,0.42915 0.15196,1.04424 0.15196,1.04424c-0.37503,0.6571 -0.77335,1.29498 -1.19003,1.91335l-0.29919,0.49064c0,0 -0.36722,0.60045 -0.85787,0.15105z" data-paper-data="{&quot;index&quot;:null}" fill="#8c5900" stroke-width="0.5"/><path d="M234.56341,146.77c-0.17856,-0.41374 -0.35713,-0.82747 -0.53568,-1.24121c0,0 -0.28622,-0.66317 0.25568,-1.01345c0.54191,-0.35027 0.82813,0.31292 0.82813,0.31292c0.20385,0.47232 0.40769,0.94464 0.61154,1.41697l0.05849,0.53723c0,0 -0.06245,0.7461 -0.67211,0.66968c-0.44161,-0.05536 -0.53058,-0.4621 -0.54606,-0.68212z" data-paper-data="{&quot;index&quot;:null}" fill="#8c5900" stroke-width="0.5"/><path d="M230.79386,166.35177c-0.33209,-0.63034 0.18299,-1.03676 0.18299,-1.03676l0.42832,-0.33662c0.58379,-0.40047 1.14378,-0.83362 1.69505,-1.28061c-0.42028,-1.08428 -0.83417,-2.16951 -1.25816,-3.22603c0,0 -0.27016,-0.67318 0.27992,-1.00381c0.55008,-0.33062 0.82026,0.34258 0.82026,0.34258c0.39918,0.99468 0.78846,2.0168 1.18289,3.03941c0.90699,-0.75863 1.8158,-1.52288 2.79534,-2.20633c0,0 0.53241,-0.37148 0.83595,0.28007c0.30355,0.65155 -0.22886,1.02302 -0.22886,1.02302c-0.99992,0.69769 -1.9397,1.47689 -2.87658,2.25334c0.45409,1.14994 0.92327,2.28536 1.42926,3.36738l0.20817,0.29673c0,0 0.38693,0.58161 -0.08831,1.05514c-0.47525,0.47353 -0.86219,-0.10808 -0.86219,-0.10808l-0.32246,-0.50086c-0.48912,-1.05345 -0.94591,-2.1537 -1.38859,-3.26807c-0.52914,0.42859 -1.06396,0.84661 -1.61457,1.2392l-0.37123,0.29423c0,0 -0.51507,0.4064 -0.84716,-0.22394z" data-paper-data="{&quot;index&quot;:null}" fill="#000000" stroke-width="0.5"/><path d="M231.74919,153.85221c-0.16844,-0.72113 0.42079,-0.92725 0.42079,-0.92725l0.24954,-0.06498c0.59079,-0.41223 1.19208,-0.79811 1.79756,-1.17372c-0.27301,-0.81535 -0.50713,-1.62217 -0.67375,-2.37643c0,0 -0.15559,-0.72543 0.43717,-0.91584c0.59277,-0.19042 0.74836,0.535 0.74836,0.535c0.13567,0.65779 0.33621,1.36892 0.57471,2.09277c1.04638,-0.63488 2.09399,-1.26753 3.11066,-1.97957c0,0 0.5324,-0.37148 0.83594,0.28008c0.30355,0.65156 -0.22886,1.02302 -0.22886,1.02302c-1.05799,0.7357 -2.14507,1.38877 -3.22901,2.04819c0.41692,1.09474 0.88199,2.1601 1.30224,3.05553l0.2745,0.39643c0,0 0.38693,0.58162 -0.08831,1.05515c-0.47526,0.47353 -0.86218,-0.10808 -0.86218,-0.10808l-0.38879,-0.60056c-0.43412,-0.93778 -0.89914,-2.01981 -1.3212,-3.13236c-0.56603,0.35361 -1.12826,0.71715 -1.68197,1.10348l-0.51972,0.20413c0,0 -0.58925,0.20613 -0.75769,-0.51498z" data-paper-data="{&quot;index&quot;:null}" fill="#000000" stroke-width="0.5"/><path d="M249.81778,158.7005l-0.30062,0.11584c-0.69241,0.16095 -0.8131,1.301 -1.0879,2.04433c-0.56342,1.52408 -3.54588,9.3738 -0.08778,8.04127c1.84924,-2.14739 5.42,-5.45432 3.316,-8.6461c-0.44397,-0.67351 -0.47794,-1.1138 -1.15127,-1.38638c0,0 -0.27237,-0.12916 -0.36816,-0.43924c-0.12927,0.19668 -0.32026,0.27028 -0.32026,0.27028zM250.21553,157.74942c0.2498,-0.50801 0.73355,-0.2786 0.73355,-0.2786c0.9016,0.46566 1.0739,0.94764 1.66204,1.84275c2.69262,4.09784 -1.14115,8.22046 -3.66239,10.89134c-5.62514,2.16757 -2.73323,-6.99508 -1.63613,-9.96275c0.48968,-1.32458 0.65595,-2.31455 1.83643,-2.85657l0.30061,-0.11584c0,0 0.57883,-0.22305 0.76587,0.47966z" data-paper-data="{&quot;index&quot;:null}" fill="#00488c" stroke-width="0.5"/><path d="M249.82167,158.65072c0,0 0.19355,-0.0732 0.32281,-0.26989c0.09579,0.31008 0.37194,0.44021 0.37194,0.44021c0.67334,0.27258 0.7208,0.72057 1.16477,1.39408c2.104,3.19178 -1.50113,6.58769 -3.35038,8.73508c-3.45809,1.33252 -0.47877,-6.61253 0.08465,-8.13661c0.2748,-0.74333 0.41046,-1.88628 1.10287,-2.04723l0.30334,-0.11563z" data-paper-data="{&quot;noHover&quot;:false,&quot;origItem&quot;:[&quot;Path&quot;,{&quot;applyMatrix&quot;:true,&quot;segments&quot;:[[[246.2293,162.9803],[0.04941,0.24753],[-0.24725,0.22082]],[[245.62677,163.16164],[0,0],[-0.85673,-0.13905]],[[243.73666,163.74007],[0.79307,-0.34622],[-3.75837,1.64074]],[[243.34018,173.28292],[-1.01468,-2.95014],[3.1373,3.1373]],[[246.96074,166.10203],[-0.09279,1.67022],[0.04525,-0.81461]],[[246.72472,163.67384],[0.67709,0.5343],[0,0]],[246.45199,163.40111]],&quot;closed&quot;:true,&quot;fillColor&quot;:[0,0,0,1],&quot;strokeWidth&quot;:0.5}],&quot;index&quot;:null}" fill="#0060b9" stroke-width="0.25"/><path d="M251.50605,170.38448c-0.02561,1.40147 -0.83528,2.60558 -1.22714,3.9944c-0.40025,-0.10869 -0.80721,-0.18618 -1.21788,-0.23188c0.35405,-1.30515 1.21488,-2.65965 1.21949,-3.78757c0.00256,-0.6247 -0.45265,-1.42347 -0.60559,-2.01156c0,0 -0.18406,-0.71538 0.4005,-0.94063c0.58456,-0.22525 0.76862,0.49013 0.76862,0.49013c0.20548,0.80875 0.67803,1.61075 0.66201,2.48712z" data-paper-data="{&quot;index&quot;:null}" fill="#00488c" stroke-width="0.5"/><path d="M244.8892,183.85047c-1.22171,0.47077 -2.37426,0.80589 -3.6272,1.03904c0.07523,0.1585 0.16214,0.31356 0.26162,0.4646c0.19743,0.29973 1.16625,1.76379 1.49196,1.71473c0.61744,-0.093 1.79358,-1.0461 2.50049,-1.33009c0.08386,-0.6637 -0.2063,-1.30227 -0.52337,-1.94426c-0.05978,0.03913 -0.10351,0.05598 -0.10351,0.05598zM243.2009,173.90075c0.60832,0.09097 0.534,0.83543 0.534,0.83543l-0.1,0.90237c-0.23598,0.56428 -0.51345,1.10894 -0.84521,1.59573c-0.9038,1.6533 -2.09513,4.06953 -1.90869,6.20785c1.23424,-0.21672 2.34522,-0.53016 3.53359,-0.98166c-0.0528,-0.18251 -0.08945,-0.36678 -0.10264,-0.5534c-0.21664,-3.06573 2.55466,-7.72345 4.89521,-8.43446c0,0 0.59694,-0.16972 0.73563,0.56082c0.13869,0.73054 -0.45827,0.90027 -0.45827,0.90027c-1.74148,0.44703 -4.13443,4.60899 -3.95202,6.83597c0.16918,2.06532 1.50147,2.57345 0.93579,4.91362c-0.60832,0.42692 -2.69573,1.871 -3.39112,1.88367c-0.85081,0.01551 -1.48797,-0.97882 -2.03253,-1.62484c-2.62507,-3.11417 -0.9439,-7.50044 0.76559,-10.60964c0.24517,-0.35385 0.47467,-0.72988 0.65405,-1.13858l0.05396,-0.63962c0,0 0.07434,-0.74446 0.68266,-0.6535z" data-paper-data="{&quot;index&quot;:null}" fill="#00488c" stroke-width="0.5"/><path d="M244.92218,183.82099c0,0 0.04405,-0.01633 0.10381,-0.05545c0.31707,0.64199 0.61359,1.3216 0.52974,1.9853c-0.70691,0.28398 -1.93398,1.27308 -2.55141,1.36608c-0.32571,0.04906 -1.32393,-1.45813 -1.52136,-1.75786c-0.09948,-0.15104 -0.18644,-0.31523 -0.26168,-0.47373c1.25294,-0.23315 2.47919,-0.59358 3.70089,-1.06436z" data-paper-data="{&quot;noHover&quot;:false,&quot;origItem&quot;:[&quot;Path&quot;,{&quot;applyMatrix&quot;:true,&quot;segments&quot;:[[240.17927,188.49202],[[240.0928,188.38384],[0.04679,0.0685],[-0.64078,0.39003]],[[238.62635,189.8121],[0.21568,-0.63601],[0.63598,0.65161]],[[240.7255,192.40571],[-0.62712,-0.43164],[0.33082,0.2277]],[[243.13709,191.72875],[-0.35277,0.15416],[0.17777,-0.07769]],[[243.63572,191.46468],[-0.15489,0.09802],[-1.25206,-0.91531]],[[240.17928,188.49202],[1.10837,1.10838],[0,0]]],&quot;closed&quot;:true,&quot;fillColor&quot;:[0,0,0,1],&quot;strokeWidth&quot;:0.5}],&quot;index&quot;:null}" fill="#00529f" stroke-width="0.25"/><path d="M246.12023,178.31467l0.29372,0.06152c0.52776,0.17384 0.96942,0.35801 1.40931,0.63016c0.49597,-1.79573 1.02902,-3.54138 1.43436,-5.39353c0,0 0.15855,-0.72447 0.75054,-0.53044c0.59199,0.19403 0.43344,0.9185 0.43344,0.9185c-0.51501,2.35318 -1.47285,4.70093 -1.84852,7.06723c-0.1243,0.78299 -0.00829,2.17688 -0.52659,2.77037c-0.15734,0.18017 -1.28144,0.34661 -1.58628,0.39914l-0.35241,0.0712c0,0 -0.60471,0.12182 -0.70425,-0.61822c-0.09955,-0.74004 0.50517,-0.86186 0.50517,-0.86186l0.38057,-0.07646c0.31202,-0.05377 0.70908,0.21882 0.94484,-0.03704c0.13021,-0.14131 0.19246,-1.40419 0.25797,-2.21341c-0.45192,-0.32916 -0.86386,-0.49695 -1.41526,-0.67669l-0.1702,-0.02928c0,0 -0.60515,-0.11846 -0.50836,-0.85904c0.09679,-0.74058 0.70194,-0.62213 0.70194,-0.62213z" data-paper-data="{&quot;index&quot;:null}" fill="#00488c" stroke-width="0.5"/><path d="M235.19658,180.75732c-0.16832,0.06773 -0.34428,0.10592 -0.52303,0.10737c-0.01808,0.10058 -0.02162,0.21185 -0.0064,0.33667c0.03952,0.32397 0.34964,-0.11 0.52943,-0.44404zM233.96885,177.33247c0.03542,-0.02897 0.07229,-0.05609 0.11058,-0.0812c-0.17788,-0.1532 -0.36935,-0.30627 -0.54111,-0.44562c0.12234,0.17734 0.24373,0.34781 0.33797,0.44389c0.02911,0.02968 0.06007,0.0572 0.09256,0.08293zM236.06745,177.55116c0.47991,0.42754 0.57861,1.03441 0.4366,1.61219c0.09008,0.13965 0.11949,0.272 0.11949,0.272l0.19858,0.94039c-0.16101,1.22702 -0.67687,2.80841 -2.39249,2.31173c-1.61939,-0.46883 -1.30015,-1.51338 -0.83829,-2.36149c-0.00484,-0.00932 -0.00938,-0.01879 -0.01364,-0.02839c-0.21207,-0.29047 -0.25897,-0.6872 -0.19816,-1.10153c-0.0353,-0.19265 -0.04326,-0.39367 -0.02499,-0.59211c-0.74664,-0.46391 -1.56787,-1.06386 -1.64348,-1.90778c-0.33033,-3.68682 3.47504,-0.83767 4.35637,0.85499z" fill="#000000" stroke-width="0.5"/><path d="M234.62493,181.22814c-0.01522,-0.12481 -0.01085,-0.29091 0.00723,-0.3915c0.17875,-0.00145 0.43083,-0.04756 0.59915,-0.1153c-0.17979,0.33404 -0.56686,0.83077 -0.60638,0.50679z" data-paper-data="{&quot;noHover&quot;:false,&quot;origItem&quot;:[&quot;Path&quot;,{&quot;applyMatrix&quot;:true,&quot;selected&quot;:true,&quot;segments&quot;:[[[235.19658,180.75732],[-0.17979,0.33404],[-0.16832,0.06773],7],[[234.67355,180.86469],[0.17875,-0.00145],[-0.01808,0.10058],7],[[234.66715,181.20136],[-0.01522,-0.12481],[0.03952,0.32397],7]],&quot;closed&quot;:true}]}" fill="#ffffff" stroke-width="0.5"/><path d="M233.89378,177.29637c-0.09424,-0.09607 -0.26895,-0.34826 -0.39129,-0.5256c0.17176,0.13934 0.44053,0.35522 0.61841,0.50843c-0.03829,0.02511 -0.09067,0.06704 -0.1261,0.09601c-0.03249,-0.02573 -0.07191,-0.04915 -0.10102,-0.07883z" data-paper-data="{&quot;noHover&quot;:false,&quot;origItem&quot;:[&quot;Path&quot;,{&quot;applyMatrix&quot;:true,&quot;selected&quot;:true,&quot;segments&quot;:[[[233.96885,177.33247],[-0.03249,-0.02573],[0.03542,-0.02897],7],[[234.07943,177.25127],[-0.03829,0.02511],[-0.17788,-0.1532],7],[[233.53832,176.80565],[0.17176,0.13934],[0.12234,0.17734],7],[[233.87629,177.24954],[-0.09424,-0.09607],[0.02911,0.02968],7]],&quot;closed&quot;:true}]}" fill="#ffffff" stroke-width="0.5"/><text transform="translate(198.39967,183.86031) rotate(-77.3564) scale(0.27788,0.27788)" font-size="40" xml:space="preserve" fill="#ffffff" fill-rule="nonzero" stroke="none" stroke-width="1" stroke-linecap="butt" stroke-linejoin="miter" stroke-miterlimit="10" stroke-dasharray="" stroke-dashoffset="0" font-family="Sans Serif" font-weight="normal" text-anchor="start" style="mix-blend-mode: normal"><tspan x="0" dy="0">You Died.</tspan></text><text transform="translate(204.4737,205.73265) rotate(-77.3564) scale(0.27788,0.27788)" font-size="40" xml:space="preserve" fill="#ffffff" fill-rule="nonzero" stroke="none" stroke-width="1" stroke-linecap="butt" stroke-linejoin="miter" stroke-miterlimit="10" stroke-dasharray="" stroke-dashoffset="0" font-family="Sans Serif" font-weight="normal" text-anchor="start" style="mix-blend-mode: normal"><tspan x="0" dy="0">Click to respawn.</tspan></text></g></g></svg>