<svg version="1.1" xmlns="http://www.w3.org/2000/svg" xmlns:xlink="http://www.w3.org/1999/xlink" width="132" height="128.66666" viewBox="0,0,132,128.66666"><defs><radialGradient cx="240" cy="180.00002" r="66" gradientUnits="userSpaceOnUse" id="color-1"><stop offset="0" stop-color="#f5fdff"/><stop offset="1" stop-color="#f5fdff" stop-opacity="0"/></radialGradient></defs><g transform="translate(-174,-115.66669)"><g data-paper-data="{&quot;isPaintingLayer&quot;:true}" fill-rule="nonzero" stroke-linejoin="miter" stroke-miterlimit="10" stroke-dasharray="" stroke-dashoffset="0" style="mix-blend-mode: normal"><path d="M240,244.33335c-36.45079,0 -66,-28.80301 -66,-64.33333c0,-35.53032 29.54921,-64.33333 66,-64.33333c36.45079,0 66,28.80301 66,64.33333c0,35.53032 -29.54921,64.33333 -66,64.33333z" data-paper-data="{&quot;index&quot;:null}" fill="url(#color-1)" stroke="none" stroke-width="0" stroke-linecap="butt"/><path d="M188.43249,162.12782l50.31532,15.70931l13.66027,18.21369" data-paper-data="{&quot;index&quot;:null}" fill="none" stroke="#c7f4ff" stroke-width="1.5" stroke-linecap="round"/><path d="M247.85465,190.81438l-7.28548,22.53943" data-paper-data="{&quot;index&quot;:null}" fill="none" stroke="#c7f4ff" stroke-width="1.5" stroke-linecap="round"/><path d="M264.24697,220.18395l-21.17341,-12.52191" data-paper-data="{&quot;index&quot;:null}" fill="none" stroke="#c7f4ff" stroke-width="1.5" stroke-linecap="round"/><path d="M256.9615,216.31355l-0.22767,12.97725" data-paper-data="{&quot;index&quot;:null}" fill="none" stroke="#c7f4ff" stroke-width="1.5" stroke-linecap="round"/><path d="M238.29247,194.45711l5.4641,-9.33451l28.68656,1.82137l5.00876,25.49916" data-paper-data="{&quot;index&quot;:null}" fill="none" stroke="#c7f4ff" stroke-width="1.5" stroke-linecap="round"/><path d="M274.94751,198.32752l16.62,-3.64274" data-paper-data="{&quot;index&quot;:null}" fill="none" stroke="#c7f4ff" stroke-width="1.5" stroke-linecap="round"/><path d="M285.87572,161.21714l-19.35204,24.13313" data-paper-data="{&quot;index&quot;:null}" fill="none" stroke="#c7f4ff" stroke-width="1.5" stroke-linecap="round"/><path d="M280.41162,169.64097l13.66027,16.39231" data-paper-data="{&quot;index&quot;:null}" fill="none" stroke="#c7f4ff" stroke-width="1.5" stroke-linecap="round"/><path d="M252.40807,138.90537l11.38355,28.68655l-22.7671,12.97725" data-paper-data="{&quot;index&quot;:null}" fill="none" stroke="#c7f4ff" stroke-width="1.5" stroke-linecap="round"/><path d="M284.50969,145.73551l-7.96849,9.78986l-16.39231,1.13835" data-paper-data="{&quot;index&quot;:null}" fill="none" stroke="#c7f4ff" stroke-width="1.5" stroke-linecap="round"/><path d="M241.2522,157.34672l10.2452,16.84767" data-paper-data="{&quot;index&quot;:null}" fill="none" stroke="#c7f4ff" stroke-width="1.5" stroke-linecap="round"/><path d="M238.74781,143.91414l-22.0841,26.63752" data-paper-data="{&quot;index&quot;:null}" fill="none" stroke="#c7f4ff" stroke-width="1.5" stroke-linecap="round"/><path d="M209.60591,147.32921l15.93698,11.38355" data-paper-data="{&quot;index&quot;:null}" fill="none" stroke="#c7f4ff" stroke-width="1.5" stroke-linecap="round"/><path d="M216.43604,151.65495l10.2452,-16.16464" data-paper-data="{&quot;index&quot;:null}" fill="none" stroke="#c7f4ff" stroke-width="1.5" stroke-linecap="round"/><path d="M214.15934,134.12428l10.2452,4.55342" data-paper-data="{&quot;index&quot;:null}" fill="none" stroke="#c7f4ff" stroke-width="1.5" stroke-linecap="round"/><path d="M233.05604,128.4325l3.41506,17.75835" data-paper-data="{&quot;index&quot;:null}" fill="none" stroke="#c7f4ff" stroke-width="1.5" stroke-linecap="round"/><path d="M202.32043,188.31l36.65505,-10.47287l-17.07533,40.98079" data-paper-data="{&quot;index&quot;:null}" fill="none" stroke="#c7f4ff" stroke-width="1.5" stroke-linecap="round"/><path d="M214.84234,184.21192l-28.91422,-7.28548" data-paper-data="{&quot;index&quot;:null}" fill="none" stroke="#c7f4ff" stroke-width="1.5" stroke-linecap="round"/><path d="M206.87386,217.90725l5.23643,-32.10162" data-paper-data="{&quot;index&quot;:null}" fill="none" stroke="#c7f4ff" stroke-width="1.5" stroke-linecap="round"/><path d="M208.01221,203.10862l-14.57095,1.5937" data-paper-data="{&quot;index&quot;:null}" fill="none" stroke="#c7f4ff" stroke-width="1.5" stroke-linecap="round"/><path d="M211.19961,195.3678l7.74082,31.41861" data-paper-data="{&quot;index&quot;:null}" fill="none" stroke="#c7f4ff" stroke-width="1.5" stroke-linecap="round"/><path d="M228.04726,206.29601l14.11561,19.57971" data-paper-data="{&quot;index&quot;:null}" fill="none" stroke="#c7f4ff" stroke-width="1.5" stroke-linecap="round"/><path d="M237.60945,221.54998l-5.69178,10.01752" data-paper-data="{&quot;index&quot;:null}" fill="none" stroke="#c7f4ff" stroke-width="1.5" stroke-linecap="round"/><path d="M259.92122,186.94397l1.5937,18.44136" data-paper-data="{&quot;index&quot;:null}" fill="none" stroke="#c7f4ff" stroke-width="1.5" stroke-linecap="round"/></g></g></svg>