<svg version="1.1" xmlns="http://www.w3.org/2000/svg" xmlns:xlink="http://www.w3.org/1999/xlink" width="20.18234" height="44.50961" viewBox="0,0,20.18234,44.50961"><g transform="translate(-232.06728,-141.04478)"><g data-paper-data="{&quot;isPaintingLayer&quot;:true}" fill-rule="nonzero" stroke-linejoin="miter" stroke-miterlimit="10" stroke-dasharray="" stroke-dashoffset="0" style="mix-blend-mode: normal"><path d="M238.40845,153.89277l1.625,27.28108l2,3.17657l2.375,-2.42914l1.375,-28.40223z" fill="#6e89a2" stroke="#495a6b" stroke-width="1.5" stroke-linecap="round"/><path d="M247.47545,162.86923c-0.57686,0.40026 -0.89546,-0.22542 -0.89546,-0.22542l-0.10674,-0.21901c-0.35163,-0.94334 -0.36312,-1.18947 -1.3052,-0.8919c0,0 -0.64801,0.18186 -0.76784,-0.53828c-0.11983,-0.72014 0.52817,-0.902 0.52817,-0.902c1.56921,-0.4043 2.16367,0.12296 2.7619,1.67474l0.04344,0.07594c0,0 0.3186,0.62568 -0.25826,1.02593z" fill="#1f272e" stroke="none" stroke-width="0.5" stroke-linecap="butt"/><path d="M237.28473,158.75881c0.18262,-0.72544 0.8158,-0.56604 0.8158,-0.56604l0.29639,0.1142c0.95198,0.7167 1.17531,1.67918 1.61718,2.84271c0,0 0.25295,0.66605 -0.35557,0.99477c-0.60852,0.32872 -0.86146,-0.33733 -0.86146,-0.33733c-0.30862,-0.81267 -0.45411,-1.79754 -1.14711,-2.22451l0.08532,0.06107c0,0 -0.63319,-0.15939 -0.45057,-0.88483z" fill="#1f272e" stroke="none" stroke-width="0.5" stroke-linecap="butt"/><path d="M247.69572,167.55872c-0.30326,0.6801 -0.88832,0.38153 -0.88832,0.38153l-0.16699,-0.1952c-0.85931,0.05074 -1.18358,0.74808 -1.6453,1.54075c0,0 -0.37348,0.6378 -0.91642,0.25719c-0.54294,-0.38062 -0.16947,-1.01843 -0.16947,-1.01843c0.73968,-1.25743 1.33374,-2.05082 2.67722,-2.25676l0.82746,0.31226c0,0 0.58508,0.29857 0.28183,0.97867z" fill="#1f272e" stroke="none" stroke-width="0.5" stroke-linecap="butt"/><path d="M238.968,177.65311c-0.57686,0.40026 -0.89546,-0.22542 -0.89546,-0.22542l-0.19137,-1.2233c0.66429,-1.06625 1.13983,-1.31549 2.25311,-1.46354c0,0 0.65844,-0.07819 0.68543,0.66042c0.02699,0.73861 -0.63146,0.81681 -0.63146,0.81681c-0.69976,0.06917 -0.8536,0.04571 -1.22118,0.74754l0.2592,-0.33845c0,0 0.3186,0.62568 -0.25826,1.02593z" fill="#1f272e" stroke="none" stroke-width="0.5" stroke-linecap="butt"/><path d="M236.99332,175.58199c-0.63319,-0.15939 -0.45057,-0.88483 -0.45057,-0.88483l0.13077,-0.4831c0.253,-2.0504 1.02031,-2.18422 2.57436,-1.79301c0,0 0.63319,0.15939 0.45057,0.88483c-0.18262,0.72544 -0.8158,0.56604 -0.8158,0.56604c-0.30137,-0.07586 -0.54846,-0.36683 -0.86168,-0.36253c-0.23055,0.00317 -0.02038,0.5204 -0.03826,0.78058l-0.17359,0.72597c0,0 -0.18262,0.72544 -0.8158,0.56604z" fill="#1f272e" stroke="none" stroke-width="0.5" stroke-linecap="butt"/><path d="M248.07581,178.97394c-0.4465,0.57757 -0.93118,0.11058 -0.93118,0.11058l-0.09736,-0.2002c-0.68759,-0.1762 -1.4126,-0.46496 -1.97177,0.11411c0,0 -0.53815,0.4669 -0.9185,-0.11074c-0.38035,-0.57765 0.1578,-1.04455 0.1578,-1.04455c1.06594,-0.84412 1.91383,-0.7032 3.09773,-0.40971l0.62515,0.49594c0,0 0.48467,0.467 0.03816,1.04457z" fill="#1f272e" stroke="none" stroke-width="0.5" stroke-linecap="butt"/><path d="M239.28345,157.85041c0,-0.41421 0.33579,-0.75 0.75,-0.75c0.41421,0 0.75,0.33579 0.75,0.75c0,0.41421 -0.33579,0.75 -0.75,0.75c-0.41421,0 -0.75,-0.33579 -0.75,-0.75z" fill="#4c5761" stroke="none" stroke-width="0.5" stroke-linecap="butt"/><path d="M240.28345,169.10041c0,-0.41421 0.33579,-0.75 0.75,-0.75c0.41421,0 0.75,0.33579 0.75,0.75c0,0.41421 -0.33579,0.75 -0.75,0.75c-0.41421,0 -0.75,-0.33579 -0.75,-0.75z" fill="#4c5761" stroke="none" stroke-width="0.5" stroke-linecap="butt"/><path d="M242.03345,174.35041c0,-0.41421 0.33579,-0.75 0.75,-0.75c0.41421,0 0.75,0.33579 0.75,0.75c0,0.41421 -0.33579,0.75 -0.75,0.75c-0.41421,0 -0.75,-0.33579 -0.75,-0.75z" fill="#4c5761" stroke="none" stroke-width="0.5" stroke-linecap="butt"/><path d="M242.03345,176.60041c0,-0.41421 0.33579,-0.75 0.75,-0.75c0.41421,0 0.75,0.33579 0.75,0.75c0,0.41421 -0.33579,0.75 -0.75,0.75c-0.41421,0 -0.75,-0.33579 -0.75,-0.75z" fill="#4c5761" stroke="none" stroke-width="0.5" stroke-linecap="butt"/><path d="M241.03345,180.22541c0,-0.41421 0.33579,-0.75 0.75,-0.75c0.41421,0 0.75,0.33579 0.75,0.75c0,0.41421 -0.33579,0.75 -0.75,0.75c-0.41421,0 -0.75,-0.33579 -0.75,-0.75z" fill="#4c5761" stroke="none" stroke-width="0.5" stroke-linecap="butt"/><path d="M237.07724,155.70058c0.20648,-0.70968 0.82592,-0.47312 0.82592,-0.47312l0.32647,0.12468c1.16271,0.46281 1.83342,1.25534 2.51328,2.41429c0,0 0.36219,0.62243 -0.18109,1.03739c-0.54328,0.41496 -0.90547,-0.20747 -0.90547,-0.20747c-0.49964,-0.86692 -0.96352,-1.50983 -1.83967,-1.82482l-0.32647,-0.12468c0,0 -0.61943,-0.23657 -0.41296,-0.94626z" fill="#1f272e" stroke="none" stroke-width="0.5" stroke-linecap="butt"/><path d="M234.68311,160.78687c-0.20648,-0.70968 0.41296,-0.94625 0.41296,-0.94625l0.53295,-0.16307c1.05306,0 1.81848,0.15529 2.81825,0.53711c0,0 0.61943,0.23656 0.41296,0.94625c-0.20648,0.70968 -0.82591,0.47312 -0.82591,0.47312c-0.88363,-0.33746 -1.47592,-0.46033 -2.4053,-0.46033l-0.11999,0.08628c0,0 -0.61944,0.23656 -0.82592,-0.47312z" fill="#1f272e" stroke="none" stroke-width="0.5" stroke-linecap="butt"/><path d="M242.15845,155.06439c0,-0.41314 0.29234,-0.74807 0.65294,-0.74807c0.36061,0 0.65294,0.33493 0.65294,0.74807c0,0.41314 -0.29234,0.74807 -0.65294,0.74807c-0.36061,0 -0.65294,-0.33493 -0.65294,-0.74807z" fill="#415261" stroke="none" stroke-width="0.5" stroke-linecap="butt"/><path d="M239.11138,161.04901c0,-0.41314 0.29234,-0.74807 0.65294,-0.74807c0.36061,0 0.65294,0.33493 0.65294,0.74807c0,0.41314 -0.29234,0.74807 -0.65294,0.74807c-0.36061,0 -0.65294,-0.33493 -0.65294,-0.74807z" fill="#415261" stroke="none" stroke-width="0.5" stroke-linecap="butt"/><path d="M237.90876,162.21647c-0.56241,-0.42963 -0.95397,1.15545 -0.85153,1.73753c0.03649,0.20737 0.62342,0.56917 0.9745,0.76616c-0.19611,-0.66253 -0.12922,-1.71368 -0.02869,-2.45724zM238.9647,160.99306c0.62141,0.23775 0.42096,0.97476 0.42096,0.97476c-0.10162,0.37036 -0.50585,1.34575 -0.23664,1.7536c0.36521,0.55329 1.05556,0.00809 1.14835,1.17456c0.16587,2.08491 -1.57121,1.83714 -2.53381,1.37951c-2.53446,-1.20493 -2.4776,-6.33879 0.54611,-5.53301l0.42322,0.20338c0.06978,0.00045 0.14686,0.01472 0.2318,0.04722z" data-paper-data="{&quot;index&quot;:null}" fill="#e4ddb2" stroke="none" stroke-width="0.5" stroke-linecap="butt"/><path d="M238.0117,162.21231c-0.10054,0.74356 -0.16761,1.89595 0.0285,2.55848c-0.35108,-0.19699 -0.98333,-0.58194 -1.01982,-0.7893c-0.10243,-0.58208 0.33029,-2.24602 0.8927,-1.8164z" data-paper-data="{&quot;noHover&quot;:false,&quot;origItem&quot;:[&quot;Path&quot;,{&quot;applyMatrix&quot;:true,&quot;segments&quot;:[[[436.89795,344.55388],[0,0],[0.23095,1.44025]],[[436.83204,349.31349],[0.45051,-1.2833],[0.80654,-0.38156]],[[439.07077,347.82947],[-0.08383,0.40166],[0.23532,-1.12748]],[[437.11456,344.46392],[1.29201,-0.83218],[0,0]]],&quot;closed&quot;:true}],&quot;index&quot;:null}" fill="#f8f0c1" stroke="none" stroke-width="0.5" stroke-linecap="butt"/><path d="M245.89374,162.38817c0.10054,0.74356 0.16741,1.79472 -0.02869,2.45724c0.35108,-0.19699 0.93802,-0.55879 0.9745,-0.76616c0.10243,-0.58208 -0.28912,-2.16717 -0.85153,-1.73753zM245.16389,161.0711l0.42322,-0.20338c3.02371,-0.80579 3.08058,4.32808 0.54611,5.53301c-0.9626,0.45763 -2.69968,0.7054 -2.53381,-1.37951c0.0928,-1.16646 0.78313,-0.62125 1.14835,-1.17456c0.26921,-0.40785 -0.13501,-1.38322 -0.23664,-1.7536c0,0 -0.20045,-0.737 0.42096,-0.97476c0.08494,-0.0325 0.16202,-0.04678 0.2318,-0.04722z" fill="#e4ddb2" stroke="none" stroke-width="0.5" stroke-linecap="butt"/><path d="M245.9837,162.29037c0.56241,-0.42963 0.99514,1.23432 0.8927,1.8164c-0.03649,0.20737 -0.66874,0.59231 -1.01982,0.7893c0.19611,-0.66253 0.12903,-1.81491 0.02849,-2.55848z" data-paper-data="{&quot;noHover&quot;:false,&quot;origItem&quot;:[&quot;Path&quot;,{&quot;applyMatrix&quot;:true,&quot;segments&quot;:[[[436.89795,344.55388],[0,0],[0.23095,1.44025]],[[436.83204,349.31349],[0.45051,-1.2833],[0.80654,-0.38156]],[[439.07077,347.82947],[-0.08383,0.40166],[0.23532,-1.12748]],[[437.11456,344.46392],[1.29201,-0.83218],[0,0]]],&quot;closed&quot;:true}]}" fill="#f8f0c1" stroke="none" stroke-width="0.5" stroke-linecap="butt"/><path d="M241.22647,142.66439c-0.09855,0.19081 -0.25842,0.27685 -0.38251,0.31561c-0.14443,0.14048 -0.38814,0.27878 -0.69551,0.07707c-1.20151,0.23324 -2.16975,1.31621 -3.09257,2.22755c-2.49948,2.46835 -3.68272,4.35314 -3.68272,8.31075c-0.06493,6.86207 5.72252,8.50827 10.18316,8.52043c5.26076,-0.90557 8.09221,-5.81573 7.24792,-11.94765c-1.39252,-4.90332 -5.13929,-8.1438 -9.57778,-7.50377zM240.31814,141.47911l0.23889,-0.26372c5.31961,-1.03139 9.88031,2.7116 11.5146,8.57941c1.01193,7.0785 -2.35701,12.85244 -8.42273,13.8659c-1.66147,0.00401 -3.65303,0.3284 -5.2541,-0.29415c-3.29633,-1.28173 -6.29745,-5.57017 -6.32752,-9.77119c0,-5.01069 3.53728,-11.73932 8.25085,-12.11625z" fill="#495a6b" stroke="none" stroke-width="0.5" stroke-linecap="butt"/><path d="M241.2215,142.61307c4.43849,-0.64003 8.2328,2.64098 9.62532,7.54432c0.8443,6.13192 -2.02245,11.10372 -7.28323,12.0093c-4.46064,-0.01215 -10.29858,-1.70311 -10.23365,-8.56519c0,-3.95761 1.19813,-5.88773 3.69761,-8.35608c0.92282,-0.91132 1.90855,-2.00512 3.11007,-2.23836c0.30737,0.20172 0.55475,0.0625 0.69918,-0.07799c0.12409,-0.03877 0.28616,-0.12517 0.38471,-0.31599z" data-paper-data="{&quot;noHover&quot;:false,&quot;origItem&quot;:[&quot;Path&quot;,{&quot;applyMatrix&quot;:true,&quot;segments&quot;:[[[426.17588,306.34951],[0,0],[-0.2264,0.36962]],[[425.29714,306.96085],[0.28508,-0.0751],[-0.3318,0.27212]],[[423.69936,307.11013],[0.70612,0.39072],[-2.76022,0.45178]],[[416.59484,311.42481],[2.11998,-1.7652],[-5.74202,4.78112]],[[408.13456,327.52247],[0,-7.66576],[-0.14916,13.29162]],[[431.52822,344.02625],[-10.24738,-0.02354],[12.0855,-1.75406]],[[448.17878,320.88405],[1.9396,11.87732],[-3.19902,-9.49758]],[[426.17584,306.34949],[10.1965,-1.2397],[0,0]]],&quot;closed&quot;:true,&quot;fillColor&quot;:[0,0,0,1]}]}" fill="#84a4c2" stroke="none" stroke-width="0.5" stroke-linecap="butt"/><path d="M246.49697,156.30371c-3.47547,1.41781 -9.99877,1.17543 -11.18046,-3.70051c-0.18477,0.09058 -0.48351,0.14349 -0.74147,-0.23894c-0.40789,-0.60471 0.10197,-1.08848 0.10197,-1.08848c3.80532,-3.56348 6.85334,-6.01442 11.95761,-3.99117c2.0319,1.03188 2.76665,2.24683 3.72551,4.50769l0.06893,0.60446c0,0 0,0.77441 -0.65294,0.77441c-0.14478,0 -0.25746,-0.03808 -0.34515,-0.09735c-1.01843,1.00933 -1.86029,2.23697 -2.934,3.22989zM236.49073,151.75319c0.58458,4.24565 6.61512,4.22743 9.38218,3.19003c1.05456,-1.03682 1.90168,-2.27375 2.95121,-3.28022l-0.10273,-0.02737c0,0 0.01434,-0.05102 0.04679,-0.12168c-0.60512,-1.29965 -1.19144,-2.06613 -2.59764,-2.7816c-4.18895,-1.65136 -6.75882,0.09188 -9.72382,2.84918c0.03363,0.0979 0.044,0.17168 0.044,0.17168z" fill="#000000" stroke="none" stroke-width="0.5" stroke-linecap="butt"/><path d="M236.40322,151.57992c2.965,-2.75732 5.61348,-4.52949 9.80243,-2.87813c1.4062,0.71548 2.00091,1.51041 2.60603,2.81006c-0.03246,0.07066 -0.04677,0.12254 -0.04677,0.12254l0.10273,0.02759c-1.04952,1.00646 -1.90646,2.27706 -2.96103,3.31388c-2.76706,1.0374 -8.87484,1.02259 -9.45942,-3.22305c0,0 -0.01035,-0.075 -0.04398,-0.17289z" data-paper-data="{&quot;noHover&quot;:false,&quot;origItem&quot;:[&quot;Path&quot;,{&quot;applyMatrix&quot;:true,&quot;segments&quot;:[[[415.29649,323.95423],[0,0],[1.34295,8.22368]],[[436.85007,330.13319],[-6.35673,2.00942],[2.42263,-2.00831]],[[443.62986,323.77952],[-2.41107,1.94947],[0,0]],[443.39387,323.72648],[[443.50137,323.4908],[-0.07456,0.13687],[-1.39014,-2.51738]],[[437.53383,318.10291],[3.23045,1.38586],[-9.62324,-3.19863]],[[415.19541,323.62168],[6.81147,-5.34082],[0.07726,0.18961]]],&quot;closed&quot;:true}]}" fill="#ff9e9e" stroke="none" stroke-width="0.5" stroke-linecap="butt"/><path d="M242.63204,149.04306c0.02107,-0.00109 0.0424,-0.00176 0.064,-0.00202c1.85775,-0.02235 1.66473,4.93313 -0.1744,4.89979c-1.4089,-0.02553 -1.55838,-1.77882 -1.29532,-3.20173c0.03177,-0.28628 0.09742,-0.56017 0.20174,-0.80125c0.09899,-0.30272 0.21323,-0.55864 0.32935,-0.73527c0,0 0.38509,-0.57089 0.87463,-0.15951z" fill="#000000" stroke="none" stroke-width="0.5" stroke-linecap="butt"/><path d="M238.34961,154.46186c0,0.4277 -0.29233,0.77441 -0.65294,0.77441c-0.35336,0 -0.64116,-0.33291 -0.65259,-0.7487c-0.19536,-0.13383 -0.32683,-0.38423 -0.32683,-0.67104c0,-0.09151 0.01339,-0.17932 0.03796,-0.26081c-0.10408,0.08319 -0.22948,0.13174 -0.36443,0.13174c-0.36062,0 -0.65294,-0.34671 -0.65294,-0.77441c0,-0.0276 0.00122,-0.05486 0.0036,-0.08172c-0.07095,-0.1239 -0.11242,-0.27349 -0.11242,-0.43455c0,-0.4277 0.29233,-0.77441 0.65294,-0.77441c0.36062,0 0.65294,0.34671 0.65294,0.77441c0,0.0276 -0.00122,0.05486 -0.00359,0.08172c0.07095,0.1239 0.11241,0.27349 0.11241,0.43455c0,0.09151 -0.01339,0.17931 -0.03796,0.26081c0.10408,-0.08319 0.22948,-0.13174 0.36443,-0.13174c0.35336,0 0.64116,0.33291 0.65259,0.7487c0.19536,0.13383 0.32683,0.38424 0.32683,0.67104z" fill="#ffe156" stroke="none" stroke-width="0.5" stroke-linecap="butt"/><path d="M235.62902,154.71998c0,-0.4277 0.29233,-0.77441 0.65294,-0.77441c0.36062,0 0.65294,0.34671 0.65294,0.77441c0,0.4277 -0.29233,0.77441 -0.65294,0.77441c-0.36062,0 -0.65294,-0.34671 -0.65294,-0.77441z" fill="#ffe156" stroke="none" stroke-width="0.5" stroke-linecap="butt"/><path d="M247.81729,153.81651c0,-0.4277 0.29233,-0.77441 0.65294,-0.77441c0.36062,0 0.65294,0.34671 0.65294,0.77441c0,0.4277 -0.29233,0.77441 -0.65294,0.77441c-0.36062,0 -0.65294,-0.34671 -0.65294,-0.77441z" fill="#ffe156" stroke="none" stroke-width="0.5" stroke-linecap="butt"/><path d="M246.29376,154.33278c0,-0.4277 0.29233,-0.77441 0.65294,-0.77441c0.36062,0 0.65294,0.34671 0.65294,0.77441c0,0.4277 -0.29233,0.77441 -0.65294,0.77441c-0.36062,0 -0.65294,-0.34671 -0.65294,-0.77441z" fill="#ffe156" stroke="none" stroke-width="0.5" stroke-linecap="butt"/><path d="M237.26137,145.55618c0,-0.4277 0.29233,-0.77441 0.65294,-0.77441c0.36062,0 0.65294,0.34671 0.65294,0.77441c0,0.4277 -0.29233,0.77441 -0.65294,0.77441c-0.36062,0 -0.65294,-0.34671 -0.65294,-0.77441z" fill="#4c6071" stroke="none" stroke-width="0.5" stroke-linecap="butt"/><path d="M240.30844,159.88269c0,-0.4277 0.29233,-0.77441 0.65294,-0.77441c0.36062,0 0.65294,0.34671 0.65294,0.77441c0,0.4277 -0.29233,0.77441 -0.65294,0.77441c-0.36062,0 -0.65294,-0.34671 -0.65294,-0.77441z" fill="#4c6071" stroke="none" stroke-width="0.5" stroke-linecap="butt"/><path d="M248.14376,157.0432c0,-0.4277 0.29233,-0.77441 0.65294,-0.77441c0.36062,0 0.65294,0.34671 0.65294,0.77441c0,0.4277 -0.29233,0.77441 -0.65294,0.77441c-0.36062,0 -0.65294,-0.34671 -0.65294,-0.77441z" fill="#4c6071" stroke="none" stroke-width="0.5" stroke-linecap="butt"/><path d="M247.27317,146.20151c0,-0.4277 0.29233,-0.77441 0.65294,-0.77441c0.36062,0 0.65294,0.34671 0.65294,0.77441c0,0.4277 -0.29233,0.77441 -0.65294,0.77441c-0.36062,0 -0.65294,-0.34671 -0.65294,-0.77441z" fill="#4c6071" stroke="none" stroke-width="0.5" stroke-linecap="butt"/></g></g></svg>