<svg version="1.1" xmlns="http://www.w3.org/2000/svg" xmlns:xlink="http://www.w3.org/1999/xlink" width="40.33047" height="40.20547" viewBox="0,0,40.33047,40.20547"><g transform="translate(-219.83477,-159.89728)"><g data-paper-data="{&quot;isPaintingLayer&quot;:true}" fill-rule="nonzero" stroke-linejoin="miter" stroke-miterlimit="10" stroke-dasharray="" stroke-dashoffset="0" style="mix-blend-mode: normal"><path d="M219.83478,200.10275v-40.20547h40.33047v40.20547z" fill="#1f1f1f" stroke="none" stroke-width="0" stroke-linecap="butt"/><path d="M220.76421,199.23586v-38.47171h38.47171v38.47171z" fill="#827c6d" stroke="#5d594e" stroke-width="1.5" stroke-linecap="butt"/><path d="M241.31054,161.66074l-20.06448,18.88953l0.00001,-11.83986l7.04968,-7.04968z" fill="#ffea00" stroke="#1f1f1f" stroke-width="1.5" stroke-linecap="round"/><path d="M221.33643,198.44561l-0.09038,-5.69397l32.44662,-31.27167h4.69979l0.09038,7.23045l-32.26585,30.00634z" fill="#ffea00" stroke="#1f1f1f" stroke-width="1.5" stroke-linecap="round"/><path d="M258.48285,194.01697l-4.22766,4.79017h-14.66188l18.61969,-17.17231z" fill="#ffea00" stroke="#1f1f1f" stroke-width="1.5" stroke-linecap="round"/><path d="M221.33645,166.81242l-0.09038,-5.24207l6.23625,-0.18076z" fill="#414141" stroke="#1f1f1f" stroke-width="1.5" stroke-linecap="round"/><path d="M258.54697,198.44562l-3.4986,-0.23324l3.61522,-4.54819z" fill="#414141" stroke="#1f1f1f" stroke-width="1.5" stroke-linecap="round"/><path d="M242.03359,161.3896l11.47833,0.36152l-31.90434,30.00634l0.27114,-11.20719z" fill="#414141" stroke="#1f1f1f" stroke-width="1.5" stroke-linecap="round"/><path d="M258.57321,169.31087l-0.09246,12.01958l-19.41623,17.56707h-12.66678z" fill="#414141" stroke="#1f1f1f" stroke-width="1.5" stroke-linecap="round"/><path d="M220.76421,199.23586v-38.47171h38.47171v38.47171z" fill="none" stroke="#1f1f1f" stroke-width="1.5" stroke-linecap="butt"/></g></g></svg>