<svg version="1.1" xmlns="http://www.w3.org/2000/svg" xmlns:xlink="http://www.w3.org/1999/xlink" width="45.65344" height="89.22258" viewBox="0,0,45.65344,89.22258"><g transform="translate(-218.54656,-99.31949)"><g data-paper-data="{&quot;isPaintingLayer&quot;:true}" fill="#5a4124" fill-rule="nonzero" stroke="none" stroke-width="0.5" stroke-linecap="butt" stroke-linejoin="miter" stroke-miterlimit="10" stroke-dasharray="" stroke-dashoffset="0" style="mix-blend-mode: normal"><path d="M229.81241,156.24876c-0.24876,-2.48759 2.23883,-2.73635 2.23883,-2.73635l2.24876,-0.21241c0.45998,0 0.91995,0 1.37993,0c0.00493,-1.84063 0.14819,-3.71914 -0.16619,-5.48727c-0.73362,-4.12602 -3.17911,-8.58377 -3.16374,-12.8574c0.00183,-0.50937 -0.06528,-1.38069 -0.10314,-2.41064c-0.99554,-0.88498 -0.33676,-3.07628 -0.29686,-4.14468c0.09343,-2.5018 0.39045,-4.96321 0.74621,-7.40987c-2.42982,-1.52018 -4.56887,-3.19792 -6.5017,-5.13941c-1.13922,0.5779 -2.27123,1.17024 -3.39416,1.77908c-0.33907,0.29771 -1.90359,1.50248 -3.46812,-0.06204c-1.76777,-1.76777 0,-3.53553 0,-3.53553l0.77064,-0.62697c0.90885,-0.49555 1.82346,-0.98072 2.74292,-1.45649c-0.56759,-0.76471 -1.11821,-1.56562 -1.65494,-2.40659l-0.05861,0.02558c0,0 -1.76777,-1.76777 0,-3.53553c1.76777,-1.76777 3.53553,0 3.53553,0l0.74139,0.82558c2.31924,3.65641 4.8987,6.3805 8.1196,8.68126c0.39145,-2.63058 0.72578,-5.26621 0.82124,-7.93907c0.07961,-2.22906 -1.14163,-5.13172 0.46875,-6.675c1.73214,-1.65997 5.19011,-2.57322 6.5625,0c2.70966,5.08061 1.20893,17.41204 1.06875,22.275c-0.16574,5.74967 0.6648,11.39131 1.57312,17.0034c2.18843,-1.54448 4.38232,-3.02164 6.21866,-5.07581l0.33704,-1.25606c0,0 0.35765,-0.89412 1.18393,-1.35053c0.73116,-1.58725 1.2906,-3.28673 1.96554,-5.31157l0.88718,-2.02478c0,0 1.01535,-2.28453 3.29988,-1.26918c2.28453,1.01535 1.26918,3.29988 1.26918,3.29988l-0.71282,1.57522c-0.1144,0.34321 -0.22718,0.67961 -0.33924,1.00982c0.98988,-0.11811 1.98222,-0.21593 2.97579,-0.29303l0.59174,-0.00736c0,0 2.5,0 2.5,2.5c0,2.5 -2.5,2.5 -2.5,2.5l-0.20826,-0.00736c-1.67676,0.12777 -3.34972,0.32141 -5.0116,0.57829c0,0 -0.1689,0.02599 -0.42519,0.02021c-0.9585,1.98446 -2.14876,3.8376 -3.89672,5.78127c0,0 -0.77847,0.86496 -1.8633,0.88352c-0.6684,0.50852 -1.34839,0.99736 -2.03134,1.48536c-0.06672,0.12268 -0.1155,0.19237 -0.1155,0.19237l-0.00002,0l-1.97765,2.58818c-0.36502,0.26547 -0.73005,0.53094 -1.09507,0.79642c0.65683,4.44667 1.13492,8.89416 0.97465,13.38174c-0.06979,1.95414 0.06764,3.85149 0.34092,5.71338c0.74806,0.05455 1.71648,0.41238 2.11289,1.79983l0,-0.00001c0.4704,1.64641 -0.50904,2.48735 -1.17295,2.85383c1.06456,4.28154 2.54875,8.46621 3.51914,12.83297c0.08066,0.36296 -0.00303,0.80471 -0.20035,1.26298c0.05323,0.12524 0.10593,0.2504 0.15805,0.37548c0,0 0.96154,2.30769 -1.34615,3.26923c-1.59032,0.66264 -2.54134,-0.22733 -2.97893,-0.84468c-0.18379,-0.04242 -0.36095,-0.09887 -0.53176,-0.16834c-1.33313,-0.01351 -2.62712,-0.86889 -3.75969,-1.9875h-0.00001c-0.49526,0.39915 -1.0024,0.76376 -1.61121,0.83284c-0.17143,0.01945 -0.34284,0.03156 -0.51421,0.03732l0.0144,0.09359l-2.55553,0.39316c-0.07489,0.01281 -0.15092,0.02229 -0.22793,0.02829c-0.53352,0.29176 -1.14573,0.45762 -1.79668,0.45762c-0.04751,0 -0.09481,-0.00088 -0.14189,-0.00263c-2.14369,0.73132 -4.80429,1.63887 -5.90976,-0.29571c-2.79845,-4.89729 1.71381,-6.02397 3.33755,-9.8087c2.11882,-4.93871 3.173,-12.65312 3.11375,-18.6776c-0.04376,-0.01619 -0.09854,-0.0378 -0.16141,-0.06535c-0.47941,0 -0.95882,0 -1.43824,0l-1.75124,0.18759c0,0 -2.48759,0.24876 -2.73635,-2.23883z"/></g></g></svg>