<svg version="1.1" xmlns="http://www.w3.org/2000/svg" xmlns:xlink="http://www.w3.org/1999/xlink" width="35" height="38.09088" viewBox="0,0,35,38.09088"><defs><linearGradient x1="240.03898" y1="185.82819" x2="240.03898" y2="194.32819" gradientUnits="userSpaceOnUse" id="color-1"><stop offset="0" stop-color="#414141"/><stop offset="1" stop-color="#ec4806"/></linearGradient><linearGradient x1="240.07015" y1="162.22993" x2="240.07015" y2="173.97993" gradientUnits="userSpaceOnUse" id="color-2"><stop offset="0" stop-color="#3a3a3a"/><stop offset="1" stop-color="#ff6608"/></linearGradient><radialGradient cx="240.13452" cy="177.07818" r="2.40188" gradientUnits="userSpaceOnUse" id="color-3"><stop offset="0" stop-color="#ffc500"/><stop offset="1" stop-color="#ffc500" stop-opacity="0"/></radialGradient><radialGradient cx="240.039" cy="190.07819" r="11.99697" gradientUnits="userSpaceOnUse" id="color-4"><stop offset="0" stop-color="#ffa000"/><stop offset="1" stop-color="#ffa000" stop-opacity="0"/></radialGradient></defs><g transform="translate(-222.4375,-161.26163)"><g data-paper-data="{&quot;isPaintingLayer&quot;:true}" fill-rule="nonzero" stroke-linejoin="miter" stroke-miterlimit="10" stroke-dasharray="" stroke-dashoffset="0" style="mix-blend-mode: normal"><path d="M246.10417,188.98888c0,-0.41422 0.33578,-0.75 0.75,-0.75c0.41422,0 0.75,0.33578 0.75,0.75c0,0.41422 -0.33578,0.75 -0.75,0.75c-0.41422,0 -0.75,-0.33578 -0.75,-0.75z" fill="#e06c00" stroke="none" stroke-width="0.5" stroke-linecap="butt"/><path d="M243.22917,188.86388c0,-0.41422 0.33578,-0.75 0.75,-0.75c0.41422,0 0.75,0.33578 0.75,0.75c0,0.41422 -0.33578,0.75 -0.75,0.75c-0.41422,0 -0.75,-0.33578 -0.75,-0.75z" fill="#e06c00" stroke="none" stroke-width="0.5" stroke-linecap="butt"/><path d="M240.47917,188.73888c0,-0.41422 0.33578,-0.75 0.75,-0.75c0.41422,0 0.75,0.33578 0.75,0.75c0,0.41422 -0.33578,0.75 -0.75,0.75c-0.41422,0 -0.75,-0.33578 -0.75,-0.75z" fill="#e06c00" stroke="none" stroke-width="0.5" stroke-linecap="butt"/><path d="M237.54861,189.11388c0,-0.41422 0.33578,-0.75 0.75,-0.75c0.41422,0 0.75,0.33578 0.75,0.75c0,0.41422 -0.33578,0.75 -0.75,0.75c-0.41422,0 -0.75,-0.33578 -0.75,-0.75z" fill="#e06c00" stroke="none" stroke-width="0.5" stroke-linecap="butt"/><path d="M234.67361,188.98888c0,-0.41422 0.33578,-0.75 0.75,-0.75c0.41422,0 0.75,0.33578 0.75,0.75c0,0.41422 -0.33578,0.75 -0.75,0.75c-0.41422,0 -0.75,-0.33578 -0.75,-0.75z" fill="#e06c00" stroke="none" stroke-width="0.5" stroke-linecap="butt"/><path d="M231.92361,188.86388c0,-0.41422 0.33578,-0.75 0.75,-0.75c0.41422,0 0.75,0.33578 0.75,0.75c0,0.41422 -0.33578,0.75 -0.75,0.75c-0.41422,0 -0.75,-0.33578 -0.75,-0.75z" fill="#e06c00" stroke="none" stroke-width="0.5" stroke-linecap="butt"/><path d="M231.92361,188.86388c0,-0.41422 0.33578,-0.75 0.75,-0.75c0.41422,0 0.75,0.33578 0.75,0.75c0,0.41422 -0.33578,0.75 -0.75,0.75c-0.41422,0 -0.75,-0.33578 -0.75,-0.75z" fill="#e06c00" stroke="none" stroke-width="0.5" stroke-linecap="butt"/><path d="M229.04861,188.73888c0,-0.41422 0.33578,-0.75 0.75,-0.75c0.41422,0 0.75,0.33578 0.75,0.75c0,0.41422 -0.33578,0.75 -0.75,0.75c-0.41422,0 -0.75,-0.33578 -0.75,-0.75z" fill="#e06c00" stroke="none" stroke-width="0.5" stroke-linecap="butt"/><path d="M226.29861,188.61388c0,-0.41422 0.33578,-0.75 0.75,-0.75c0.41422,0 0.75,0.33578 0.75,0.75c0,0.41422 -0.33578,0.75 -0.75,0.75c-0.41422,0 -0.75,-0.33578 -0.75,-0.75z" fill="#e06c00" stroke="none" stroke-width="0.5" stroke-linecap="butt"/><path d="M246.14583,191.65555c0,-0.41422 0.33578,-0.75 0.75,-0.75c0.41422,0 0.75,0.33578 0.75,0.75c0,0.41422 -0.33578,0.75 -0.75,0.75c-0.41422,0 -0.75,-0.33578 -0.75,-0.75z" fill="#e06c00" stroke="none" stroke-width="0.5" stroke-linecap="butt"/><path d="M243.27083,191.53055c0,-0.41422 0.33578,-0.75 0.75,-0.75c0.41422,0 0.75,0.33578 0.75,0.75c0,0.41422 -0.33578,0.75 -0.75,0.75c-0.41422,0 -0.75,-0.33578 -0.75,-0.75z" fill="#e06c00" stroke="none" stroke-width="0.5" stroke-linecap="butt"/><path d="M240.52083,191.40555c0,-0.41422 0.33578,-0.75 0.75,-0.75c0.41422,0 0.75,0.33578 0.75,0.75c0,0.41422 -0.33578,0.75 -0.75,0.75c-0.41422,0 -0.75,-0.33578 -0.75,-0.75z" fill="#e06c00" stroke="none" stroke-width="0.5" stroke-linecap="butt"/><path d="M237.59028,191.78055c0,-0.41422 0.33578,-0.75 0.75,-0.75c0.41422,0 0.75,0.33578 0.75,0.75c0,0.41422 -0.33578,0.75 -0.75,0.75c-0.41422,0 -0.75,-0.33578 -0.75,-0.75z" fill="#e06c00" stroke="none" stroke-width="0.5" stroke-linecap="butt"/><path d="M234.71528,191.65555c0,-0.41422 0.33578,-0.75 0.75,-0.75c0.41422,0 0.75,0.33578 0.75,0.75c0,0.41422 -0.33578,0.75 -0.75,0.75c-0.41422,0 -0.75,-0.33578 -0.75,-0.75z" fill="#e06c00" stroke="none" stroke-width="0.5" stroke-linecap="butt"/><path d="M231.96528,191.53055c0,-0.41422 0.33578,-0.75 0.75,-0.75c0.41422,0 0.75,0.33578 0.75,0.75c0,0.41422 -0.33578,0.75 -0.75,0.75c-0.41422,0 -0.75,-0.33578 -0.75,-0.75z" fill="#e06c00" stroke="none" stroke-width="0.5" stroke-linecap="butt"/><path d="M231.96528,191.53055c0,-0.41422 0.33578,-0.75 0.75,-0.75c0.41422,0 0.75,0.33578 0.75,0.75c0,0.41422 -0.33578,0.75 -0.75,0.75c-0.41422,0 -0.75,-0.33578 -0.75,-0.75z" fill="#e06c00" stroke="none" stroke-width="0.5" stroke-linecap="butt"/><path d="M229.09028,191.40555c0,-0.41422 0.33578,-0.75 0.75,-0.75c0.41422,0 0.75,0.33578 0.75,0.75c0,0.41422 -0.33578,0.75 -0.75,0.75c-0.41422,0 -0.75,-0.33578 -0.75,-0.75z" fill="#e06c00" stroke="none" stroke-width="0.5" stroke-linecap="butt"/><path d="M226.34028,191.28055c0,-0.41422 0.33578,-0.75 0.75,-0.75c0.41422,0 0.75,0.33578 0.75,0.75c0,0.41422 -0.33578,0.75 -0.75,0.75c-0.41422,0 -0.75,-0.33578 -0.75,-0.75z" fill="#e06c00" stroke="none" stroke-width="0.5" stroke-linecap="butt"/><path d="M247.00694,193.21111c0.41422,0 0.75,0.33578 0.75,0.75c0,0.41422 -0.33578,0.75 -0.75,0.75c-0.41422,0 -0.75,-0.33578 -0.75,-0.75c0,-0.41422 0.33578,-0.75 0.75,-0.75z" data-paper-data="{&quot;index&quot;:null}" fill="#e06c00" stroke="none" stroke-width="0.5" stroke-linecap="butt"/><path d="M244.13194,193.33611c0.41422,0 0.75,0.33578 0.75,0.75c0,0.41422 -0.33578,0.75 -0.75,0.75c-0.41422,0 -0.75,-0.33578 -0.75,-0.75c0,-0.41422 0.33578,-0.75 0.75,-0.75z" data-paper-data="{&quot;index&quot;:null}" fill="#e06c00" stroke="none" stroke-width="0.5" stroke-linecap="butt"/><path d="M241.38194,193.46111c0.41422,0 0.75,0.33578 0.75,0.75c0,0.41422 -0.33578,0.75 -0.75,0.75c-0.41422,0 -0.75,-0.33578 -0.75,-0.75c0,-0.41422 0.33578,-0.75 0.75,-0.75z" data-paper-data="{&quot;index&quot;:null}" fill="#e06c00" stroke="none" stroke-width="0.5" stroke-linecap="butt"/><path d="M238.45139,193.08611c0.41422,0 0.75,0.33578 0.75,0.75c0,0.41422 -0.33578,0.75 -0.75,0.75c-0.41422,0 -0.75,-0.33578 -0.75,-0.75c0,-0.41422 0.33578,-0.75 0.75,-0.75z" data-paper-data="{&quot;index&quot;:null}" fill="#e06c00" stroke="none" stroke-width="0.5" stroke-linecap="butt"/><path d="M235.57639,193.21111c0.41422,0 0.75,0.33578 0.75,0.75c0,0.41422 -0.33578,0.75 -0.75,0.75c-0.41422,0 -0.75,-0.33578 -0.75,-0.75c0,-0.41422 0.33578,-0.75 0.75,-0.75z" data-paper-data="{&quot;index&quot;:null}" fill="#e06c00" stroke="none" stroke-width="0.5" stroke-linecap="butt"/><path d="M232.82639,193.33611c0.41422,0 0.75,0.33578 0.75,0.75c0,0.41422 -0.33578,0.75 -0.75,0.75c-0.41422,0 -0.75,-0.33578 -0.75,-0.75c0,-0.41422 0.33578,-0.75 0.75,-0.75z" data-paper-data="{&quot;index&quot;:null}" fill="#e06c00" stroke="none" stroke-width="0.5" stroke-linecap="butt"/><path d="M232.82639,193.33611c0.41422,0 0.75,0.33578 0.75,0.75c0,0.41422 -0.33578,0.75 -0.75,0.75c-0.41422,0 -0.75,-0.33578 -0.75,-0.75c0,-0.41422 0.33578,-0.75 0.75,-0.75z" data-paper-data="{&quot;index&quot;:null}" fill="#e06c00" stroke="none" stroke-width="0.5" stroke-linecap="butt"/><path d="M229.95139,193.46111c0.41422,0 0.75,0.33578 0.75,0.75c0,0.41422 -0.33578,0.75 -0.75,0.75c-0.41422,0 -0.75,-0.33578 -0.75,-0.75c0,-0.41422 0.33578,-0.75 0.75,-0.75z" data-paper-data="{&quot;index&quot;:null}" fill="#e06c00" stroke="none" stroke-width="0.5" stroke-linecap="butt"/><path d="M227.20139,193.58611c0.41422,0 0.75,0.33578 0.75,0.75c0,0.41422 -0.33578,0.75 -0.75,0.75c-0.41422,0 -0.75,-0.33578 -0.75,-0.75c0,-0.41422 0.33578,-0.75 0.75,-0.75z" data-paper-data="{&quot;index&quot;:null}" fill="#e06c00" stroke="none" stroke-width="0.5" stroke-linecap="butt"/><path d="M251.92362,188.76666c0,-0.41422 0.33578,-0.75 0.75,-0.75c0.41422,0 0.75,0.33578 0.75,0.75c0,0.41422 -0.33578,0.75 -0.75,0.75c-0.41422,0 -0.75,-0.33578 -0.75,-0.75z" fill="#e06c00" stroke="none" stroke-width="0.5" stroke-linecap="butt"/><path d="M248.99306,189.14166c0,-0.41422 0.33578,-0.75 0.75,-0.75c0.41422,0 0.75,0.33578 0.75,0.75c0,0.41422 -0.33578,0.75 -0.75,0.75c-0.41422,0 -0.75,-0.33578 -0.75,-0.75z" fill="#e06c00" stroke="none" stroke-width="0.5" stroke-linecap="butt"/><path d="M251.96528,191.43334c0,-0.41422 0.33578,-0.75 0.75,-0.75c0.41422,0 0.75,0.33578 0.75,0.75c0,0.41422 -0.33578,0.75 -0.75,0.75c-0.41422,0 -0.75,-0.33578 -0.75,-0.75z" fill="#e06c00" stroke="none" stroke-width="0.5" stroke-linecap="butt"/><path d="M249.03473,191.80834c0,-0.41422 0.33578,-0.75 0.75,-0.75c0.41422,0 0.75,0.33578 0.75,0.75c0,0.41422 -0.33578,0.75 -0.75,0.75c-0.41422,0 -0.75,-0.33578 -0.75,-0.75z" fill="#e06c00" stroke="none" stroke-width="0.5" stroke-linecap="butt"/><path d="M252.82639,193.48888c0.41422,0 0.75,0.33578 0.75,0.75c0,0.41422 -0.33578,0.75 -0.75,0.75c-0.41422,0 -0.75,-0.33578 -0.75,-0.75c0,-0.41422 0.33578,-0.75 0.75,-0.75z" data-paper-data="{&quot;index&quot;:null}" fill="#e06c00" stroke="none" stroke-width="0.5" stroke-linecap="butt"/><path d="M249.89584,193.11388c0.41422,0 0.75,0.33578 0.75,0.75c0,0.41422 -0.33578,0.75 -0.75,0.75c-0.41422,0 -0.75,-0.33578 -0.75,-0.75c0,-0.41422 0.33578,-0.75 0.75,-0.75z" data-paper-data="{&quot;index&quot;:null}" fill="#e06c00" stroke="none" stroke-width="0.5" stroke-linecap="butt"/><path d="M246.16667,182.99028c0,-0.41422 0.33578,-0.75 0.75,-0.75c0.41422,0 0.75,0.33578 0.75,0.75c0,0.41422 -0.33578,0.75 -0.75,0.75c-0.41422,0 -0.75,-0.33578 -0.75,-0.75z" fill="#e06c00" stroke="none" stroke-width="0.5" stroke-linecap="butt"/><path d="M243.29167,182.86528c0,-0.41422 0.33578,-0.75 0.75,-0.75c0.41422,0 0.75,0.33578 0.75,0.75c0,0.41422 -0.33578,0.75 -0.75,0.75c-0.41422,0 -0.75,-0.33578 -0.75,-0.75z" fill="#e06c00" stroke="none" stroke-width="0.5" stroke-linecap="butt"/><path d="M240.54167,182.74028c0,-0.41422 0.33578,-0.75 0.75,-0.75c0.41422,0 0.75,0.33578 0.75,0.75c0,0.41422 -0.33578,0.75 -0.75,0.75c-0.41422,0 -0.75,-0.33578 -0.75,-0.75z" fill="#e06c00" stroke="none" stroke-width="0.5" stroke-linecap="butt"/><path d="M237.54861,186.30832c0,-0.41422 0.33578,-0.75 0.75,-0.75c0.41422,0 0.75,0.33578 0.75,0.75c0,0.41422 -0.33578,0.75 -0.75,0.75c-0.41422,0 -0.75,-0.33578 -0.75,-0.75z" fill="#e06c00" stroke="none" stroke-width="0.5" stroke-linecap="butt"/><path d="M234.73611,182.99028c0,-0.41422 0.33578,-0.75 0.75,-0.75c0.41422,0 0.75,0.33578 0.75,0.75c0,0.41422 -0.33578,0.75 -0.75,0.75c-0.41422,0 -0.75,-0.33578 -0.75,-0.75z" fill="#e06c00" stroke="none" stroke-width="0.5" stroke-linecap="butt"/><path d="M231.98611,182.86528c0,-0.41422 0.33578,-0.75 0.75,-0.75c0.41422,0 0.75,0.33578 0.75,0.75c0,0.41422 -0.33578,0.75 -0.75,0.75c-0.41422,0 -0.75,-0.33578 -0.75,-0.75z" fill="#e06c00" stroke="none" stroke-width="0.5" stroke-linecap="butt"/><path d="M231.98611,182.86528c0,-0.41422 0.33578,-0.75 0.75,-0.75c0.41422,0 0.75,0.33578 0.75,0.75c0,0.41422 -0.33578,0.75 -0.75,0.75c-0.41422,0 -0.75,-0.33578 -0.75,-0.75z" fill="#e06c00" stroke="none" stroke-width="0.5" stroke-linecap="butt"/><path d="M229.11111,182.74028c0,-0.41422 0.33578,-0.75 0.75,-0.75c0.41422,0 0.75,0.33578 0.75,0.75c0,0.41422 -0.33578,0.75 -0.75,0.75c-0.41422,0 -0.75,-0.33578 -0.75,-0.75z" fill="#e06c00" stroke="none" stroke-width="0.5" stroke-linecap="butt"/><path d="M226.36111,182.61528c0,-0.41422 0.33578,-0.75 0.75,-0.75c0.41422,0 0.75,0.33578 0.75,0.75c0,0.41422 -0.33578,0.75 -0.75,0.75c-0.41422,0 -0.75,-0.33578 -0.75,-0.75z" fill="#e06c00" stroke="none" stroke-width="0.5" stroke-linecap="butt"/><path d="M251.98612,182.76807c0,-0.41422 0.33578,-0.75 0.75,-0.75c0.41422,0 0.75,0.33578 0.75,0.75c0,0.41422 -0.33578,0.75 -0.75,0.75c-0.41422,0 -0.75,-0.33578 -0.75,-0.75z" fill="#e06c00" stroke="none" stroke-width="0.5" stroke-linecap="butt"/><path d="M248.99306,186.33611c0,-0.41422 0.33578,-0.75 0.75,-0.75c0.41422,0 0.75,0.33578 0.75,0.75c0,0.41422 -0.33578,0.75 -0.75,0.75c-0.41422,0 -0.75,-0.33578 -0.75,-0.75z" fill="#e06c00" stroke="none" stroke-width="0.5" stroke-linecap="butt"/><path d="M223.1875,182.04192v-16.56059h33.5v16.56059z" fill="#717171" stroke="#5a5a5a" stroke-width="1.5" stroke-linecap="butt"/><path d="M223.1875,198.60251v-16.56059h33.5v16.56059z" fill="#717171" stroke="#5a5a5a" stroke-width="1.5" stroke-linecap="butt"/><path d="M228.15008,194.32819v-8.5h23.77778v8.5z" fill="url(#color-1)" stroke="#5a5a5a" stroke-width="1.5" stroke-linecap="butt"/><path d="M250.97647,173.10077c0,3.79926 -4.84092,6.87917 -10.8125,6.87917c-5.97158,0 -10.8125,-3.0799 -10.8125,-6.87916c0,-3.79926 4.84092,-6.87916 10.8125,-6.87916c5.97158,0 10.8125,3.0799 10.8125,6.87917z" fill="#717171" stroke="#5a5a5a" stroke-width="1.5" stroke-linecap="butt"/><path d="M250.88265,168.10493c0,3.24468 -4.84092,5.875 -10.8125,5.875c-5.97158,0 -10.8125,-2.63032 -10.8125,-5.875c0,-3.24468 4.84092,-5.875 10.8125,-5.875c5.97158,0 10.8125,2.63032 10.8125,5.875z" fill="url(#color-2)" stroke="#5a5a5a" stroke-width="1.5" stroke-linecap="butt"/><path d="M229.22647,168.60493l0.25,6.5" fill="none" stroke="#5a5a5a" stroke-width="1.5" stroke-linecap="round"/><path d="M250.85147,175.10493l0.125,-6.875" fill="none" stroke="#5a5a5a" stroke-width="1.5" stroke-linecap="round"/><path d="M240.98743,175.99872c-0.11664,0.23323 -0.79484,0.47849 -0.53267,0.6318c0.34483,0.20165 1.39544,-0.02066 1.19539,0.65322c-0.13039,0.43923 -1.27952,1.88097 -2.01843,1.60441c-1.41895,-0.53109 0.54642,-0.94919 0.23167,-1.27677c-0.18698,-0.19461 -1.06731,0.04597 -1.20144,-0.32217c-0.11186,-0.30704 0.81503,-1.92658 1.36129,-1.9493c0.10559,-0.05131 0.23157,-0.08112 0.36684,-0.08112c0.35658,0 0.64856,0.20709 0.67298,0.46937c0.00394,0.01992 0.0041,0.04184 0.0004,0.06665c-0.00782,0.05238 -0.03288,0.1176 -0.07604,0.20391z" fill="#ffea00" stroke="none" stroke-width="0.5" stroke-linecap="butt"/><path d="M231.56399,193.8956c-0.19204,0 -0.37686,-0.02765 -0.54982,-0.07877c-0.25539,0.1812 -0.61182,0.30764 -1.10928,0.30764c-1.75481,0 -1.75481,-1.57343 -1.75481,-1.57343v-2.28862v0c0,-0.86899 0.78565,-1.57343 1.75481,-1.57343c0.23867,0 0.46622,0.04272 0.67366,0.12012c0.01858,-0.0827 0.04007,-0.16237 0.06387,-0.23769l0.49983,-1.5686c0.1969,-0.67585 0.88248,-1.17462 1.69796,-1.17462c0.84167,0 1.54493,0.5313 1.71539,1.24025l0.45173,1.70117c0.21688,-0.30836 0.48045,-0.51068 0.82659,-0.42307c1.05923,0.2681 1.81639,0.57137 2.32928,0.89461l0.93311,-0.77706c0.14902,0.05583 0.29003,0.06996 0.42381,0.0502l0.26871,-1.26489c0.14126,-0.74198 0.86192,-1.3068 1.72973,-1.3068c0.82595,0 1.51863,0.51165 1.7053,1.20075l0.47096,1.58355c0.9484,2.02127 0.69852,-0.73842 2.80061,-0.36456c0.777,0.1382 1.02152,1.66864 1.42328,2.20917l0.22901,-0.57497c0.23127,-0.62661 0.88992,-1.07873 1.66633,-1.07873c0.88081,0 1.61004,0.58185 1.73568,1.34027l0.37813,2.03426l-0.74366,0.11113l0.39125,1.12113c-4.8997,1.11047 -10.86596,1.01241 -16.16697,0.05924l-0.01684,0.42307l-3.49977,-0.11207c-0.04596,-0.00127 -0.09145,-0.00412 -0.13643,-0.0085c-0.06288,0.00611 -0.12674,0.00925 -0.19143,0.00925z" data-paper-data="{&quot;index&quot;:null}" fill="#ff6f00" stroke="none" stroke-width="0.5" stroke-linecap="butt"/><path d="M231.56403,194.02107c-0.19204,0 -0.37686,-0.01964 -0.5498,-0.05591c-0.25541,0.12863 -0.61183,0.21839 -1.1093,0.21839c-1.75481,0 -1.75481,-1.11694 -1.75481,-1.11694v-1.62465v0c0,-0.61688 0.78565,-1.11695 1.75481,-1.11695c0.23867,0 0.46624,0.03034 0.67366,0.08527c0.01859,-0.0587 0.04009,-0.11526 0.06387,-0.16873l0.49983,-1.11351c0.1969,-0.47979 0.88246,-0.83384 1.69795,-0.83384c0.84166,0 1.54493,0.37715 1.71539,0.88044l0.45173,1.20763c0.21688,-0.2189 0.48043,-0.36253 0.82658,-0.30033c1.05924,0.19033 1.81639,0.40561 2.3293,0.63508l0.9331,-0.55162c0.14902,0.03964 0.29003,0.04967 0.42381,0.03563l0.26871,-0.89792c0.14125,-0.52672 0.86192,-0.92767 1.72971,-0.92767c0.82596,0 1.51863,0.36321 1.7053,0.85238l0.47096,1.12413c0.94841,1.43487 0.69852,-0.5242 2.80061,-0.2588c0.777,0.09809 1.02154,1.18455 1.42328,1.56826l0.22902,-0.40816c0.23126,-0.44483 0.88991,-0.76577 1.66631,-0.76577c0.88081,0 1.61004,0.41306 1.73568,0.95144l0.37812,1.44408l-0.74366,0.0789l0.39126,0.79586c-4.8997,0.7883 -10.86595,0.7187 -16.16697,0.04206l-0.01685,0.30032l-3.49976,-0.07955c-0.04593,-0.00091 -0.09143,-0.00292 -0.13643,-0.00603c-0.06286,0.00435 -0.12675,0.00657 -0.19144,0.00657z" data-paper-data="{&quot;index&quot;:null}" fill="#ffae00" stroke="none" stroke-width="0.5" stroke-linecap="butt"/><path d="M228.15011,194.32819v-8.5h23.77778v8.5z" fill="none" stroke="#5a5a5a" stroke-width="1.5" stroke-linecap="butt"/><path d="M233.57639,193.33611l0.125,-7" fill="none" stroke="#5a5a5a" stroke-width="1.5" stroke-linecap="round"/><path d="M239.97647,193.57819l0.125,-7" fill="none" stroke="#5a5a5a" stroke-width="1.5" stroke-linecap="round"/><path d="M246.10417,193.17638l-0.125,-6.875" fill="none" stroke="#5a5a5a" stroke-width="1.5" stroke-linecap="round"/><path d="M250.75,167.88663c0,3.24468 -4.84092,5.875 -10.8125,5.875c-5.97158,0 -10.8125,-2.63032 -10.8125,-5.875c0,-3.24468 4.84092,-5.875 10.8125,-5.875c5.97158,0 10.8125,2.63032 10.8125,5.875z" fill="none" stroke="#5a5a5a" stroke-width="1.5" stroke-linecap="butt"/><path d="M242.51476,177.07818c0,1.22193 -1.06567,2.21249 -2.38024,2.21249c-1.31457,0 -2.38024,-0.99057 -2.38024,-2.21249c0,-1.22193 1.06567,-2.21249 2.38024,-2.21249c1.31457,0 2.38024,0.99057 2.38024,2.21249z" fill="url(#color-3)" stroke="none" stroke-width="0" stroke-linecap="butt"/><path d="M251.92789,190.07819c0,3.79926 -5.32283,6.87916 -11.88889,6.87916c-6.56606,0 -11.88889,-3.0799 -11.88889,-6.87916c0,-3.79926 5.32283,-6.87916 11.88889,-6.87916c6.56606,0 11.88889,3.0799 11.88889,6.87916z" fill="url(#color-4)" stroke="none" stroke-width="0" stroke-linecap="butt"/></g></g></svg>