<svg version="1.1" xmlns="http://www.w3.org/2000/svg" xmlns:xlink="http://www.w3.org/1999/xlink" width="16.23754" height="17.86356" viewBox="0,0,16.23754,17.86356"><g transform="translate(-231.17251,-171.78306)"><g data-paper-data="{&quot;isPaintingLayer&quot;:true}" fill-rule="nonzero" stroke="none" stroke-linecap="butt" stroke-linejoin="miter" stroke-miterlimit="10" stroke-dasharray="" stroke-dashoffset="0" style="mix-blend-mode: normal"><path d="M233.17374,180.00001c0,-3.77005 3.05623,-6.82628 6.82628,-6.82628c3.77005,0 6.82628,3.05623 6.82628,6.82628c0,3.77005 -3.05623,6.82628 -6.82628,6.82628c-3.77005,0 -6.82628,-3.05623 -6.82628,-6.82628z" fill="#da0000" stroke-width="0"/><path d="M244.65577,181.43469c-0.48,-0.48 -0.09111,-0.96 -0.01297,-1.04678c0.31792,-0.98057 1.34378,-2.0631 1.21976,-2.96974c-0.226,-1.65218 -7.01695,-3.54314 -2.588,-5.59716c0,0 0.71151,-0.23717 0.94868,0.47434c0.23717,0.71151 -0.47434,0.94868 -0.47434,0.94868c-1.07071,-0.04102 2.9167,2.45101 3.18141,2.81192c1.37846,1.8794 -0.62678,3.13522 -0.87562,4.84292l-0.33826,0.53583c0,0 -0.53033,0.53033 -1.06066,0z" fill="#f28c8c" stroke-width="0.5"/><path d="M231.77286,177.85057c0.73544,-0.14709 0.88252,0.58835 0.88252,0.58835l0.14336,0.79108c-0.00636,2.07642 0.54692,2.34649 2.57831,3.02362c0,0 0.71151,0.23717 0.47434,0.94868c-0.23717,0.71151 -0.94868,0.47434 -0.94868,0.47434c-2.57854,-0.85951 -3.5941,-1.69984 -3.60397,-4.44664l-0.11423,-0.4969c0,0 -0.14709,-0.73544 0.58835,-0.88252z" fill="#f28c8c" stroke-width="0.5"/><path d="M244.08003,189.61742c-0.72761,0.1819 -0.90951,-0.54571 -0.90951,-0.54571l-0.04431,-0.31122c-0.91235,-1.52059 -1.25088,-2.10076 -2.7051,-2.96269c0,0 -0.64312,-0.38587 -0.25725,-1.02899c0.38587,-0.64312 1.02899,-0.25725 1.02899,-0.25725c1.64103,0.99962 2.21847,1.80865 3.21959,3.47719l0.21328,0.71916c0,0 0.1819,0.72761 -0.54571,0.90951z" fill="#f28c8c" stroke-width="0.5"/></g></g></svg>