<svg version="1.1" xmlns="http://www.w3.org/2000/svg" xmlns:xlink="http://www.w3.org/1999/xlink" width="33.64304" height="33.69281" viewBox="0,0,33.64304,33.69281"><g transform="translate(-223.04109,-155.32058)"><g data-paper-data="{&quot;isPaintingLayer&quot;:true}" fill-rule="nonzero" stroke-linecap="butt" stroke-linejoin="miter" stroke-miterlimit="10" stroke-dasharray="" stroke-dashoffset="0" style="mix-blend-mode: normal"><path d="M244.95741,185.24195c-1.52141,0 -3.03849,-0.03814 -4.55538,-0.08281c-0.00854,0.19733 -0.01859,0.39772 -0.0294,0.60164c-0.0065,0.12257 -0.05729,0.25366 -0.12182,0.38578c-0.03755,0.34418 -0.09534,0.67417 -0.18024,0.97935c0.36288,0.24551 1.91738,0.1713 2.11372,0.17161c0.38942,0.00063 2.63973,0.20858 2.87704,0.04011c0.3077,-0.21844 0.43466,-1.15751 0.48179,-2.20044zM244.95741,183.74195l0.40847,-0.09655c0,0 0.08409,-0.01682 0.20108,-0.01065c-0.00447,-0.72067 -0.02528,-1.34203 -0.02477,-1.63385c0.23483,-1.87863 0.08361,-3.79218 -0.0592,-5.70026c-0.19689,-1.04552 -0.24423,-2.06314 -0.16629,-2.69661c0.00029,-0.00233 0.00058,-0.00467 0.00087,-0.007l-0.00139,0.0001l-0.10632,-1.48847c-0.00163,-0.02017 -0.00246,-0.04057 -0.00246,-0.06116c0,-0.41421 0.33579,-0.75 0.75,-0.75c0.38611,0 0.70407,0.29176 0.74544,0.66685l0.10988,0.87902l-0.02135,0.00267l0.02569,0.04375c0.00029,0.95059 0.05888,1.90831 0.12789,2.86829c0.39307,1.66903 0.87946,3.27172 1.8023,2.56548c1.96667,-1.50506 0.3753,-7.46758 -0.16879,-9.37451c-0.31481,-0.83782 -0.62429,-1.67236 -0.97709,-2.495l-0.22041,-0.55046l-0.16344,-0.05562c-1.2924,-0.5879 -2.84366,-0.3359 -4.23133,-0.27324c-2.91841,0.13176 -7.9029,-1.20819 -10.0149,1.2942c0,0 -0.18091,0.21106 -0.45094,0.26605c-1.29343,2.36508 -2.14808,4.9797 -2.14628,7.6903c0.00026,0.39115 -0.16848,2.53654 0.32953,2.81831c1.23849,0.70073 1.88196,-0.01119 2.22474,-0.96828c0.08107,-1.14505 0.2556,-2.26401 0.59592,-3.31548c0.02942,-0.14611 0.0602,-0.29195 0.09216,-0.43749l-0.16893,-0.03754l0.21902,-0.98558c0.06882,-0.34319 0.37189,-0.60172 0.73534,-0.60172c0.41421,0 0.75,0.33579 0.75,0.75v0.77778h-0.03832l0.03384,0.08184c-0.07787,0.35653 -0.15236,0.71411 -0.21793,1.07321c0.02544,0.72425 -0.24748,1.58536 -0.33978,2.27784c-0.31415,2.35665 -0.29734,4.85962 -0.16322,7.26273c1.44918,0.00713 2.89374,0.04583 4.33712,0.08891c-0.04066,-1.04642 -0.11067,-1.97952 -0.11026,-2.27557l0.02389,-0.04398l-0.01954,-0.00244l0.10988,-0.87902c0.04137,-0.37508 0.35933,-0.66685 0.74544,-0.66685c0.3893,0 0.70933,0.29661 0.74641,0.67617l0.11011,0.99101l-0.21837,0.02426l-0.00069,0.00552c0,0.00108 0.00001,0.00215 0.00001,0.00323c0.1824,0.73046 0.25731,1.45872 0.27491,2.21767c1.50923,0.04438 3.0186,0.08213 4.53206,0.08213zM234.52265,187.1101c0.24598,0.26458 0.72295,0.03145 1.08068,0.08175c0.6992,0.07043 2.04263,0.36327 2.73373,0.16274c0.33846,-0.09821 0.44369,-1.08806 0.45397,-2.24396c-1.43496,-0.04289 -2.87105,-0.08162 -4.31177,-0.08946c-0.01706,0.76785 -0.05288,1.98539 0.04339,2.08893zM242.92863,164.07583c1.68339,-0.07704 3.29918,-0.25542 4.87978,0.39342l0.27506,0.08896c0,0 0.39623,0.13208 0.49876,0.49479c0.12602,0.12994 0.18265,0.27151 0.18265,0.27151l0.21522,0.53866c0.36945,0.86261 0.69399,1.73733 1.02291,2.61611c0.76685,2.68075 2.35323,9.02852 -0.39102,11.06993c-1.00602,0.74837 -1.81417,0.72567 -2.44725,0.2669c0.0026,0.7631 -0.03111,1.52326 -0.12545,2.27799c0.00294,1.48101 0.23738,5.40283 -1.07468,6.44105c-1.03347,0.81777 -4.82283,0.4807 -6.50223,-0.21671c-0.15559,0.17206 -0.33798,0.31484 -0.5513,0.42196c-0.74974,0.37652 -2.68004,0.02083 -3.48849,-0.05948c-0.53305,-0.07716 -1.67093,-0.17692 -2.03043,-0.58491c-0.646,-0.73316 -0.406,-3.53651 -0.40698,-4.49296c-0.00153,-1.47984 -0.10207,-3.06778 -0.11617,-4.65762c-0.75941,0.55717 -1.75008,0.68037 -2.99114,-0.04959c-0.76411,-0.44943 -0.99806,-2.19498 -1.0038,-2.95946c-0.0263,-3.50166 0.72475,-6.61808 2.42772,-9.69757c0,0 0.20243,-0.36438 0.57712,-0.39893c2.63736,-2.95695 7.48515,-1.60092 11.04972,-1.76406z" fill="#8c7a00" stroke="none" stroke-width="0.5"/><path d="M234.43563,184.99674c1.44072,0.00784 2.96492,0.04817 4.39988,0.09106c-0.01028,1.1559 -0.11829,2.19616 -0.45675,2.29437c-0.6911,0.20053 -2.1125,-0.08547 -2.8117,-0.1559c-0.35773,-0.0503 -0.8445,0.16786 -1.09048,-0.09672c-0.09627,-0.10354 -0.05802,-1.36496 -0.04096,-2.13281z" data-paper-data="{&quot;noHover&quot;:false,&quot;origItem&quot;:[&quot;Path&quot;,{&quot;applyMatrix&quot;:true,&quot;segments&quot;:[[[234.52265,187.1101],[-0.09627,-0.10354],[0.24598,0.26458]],[[235.60333,187.19185],[-0.35773,-0.0503],[0.6992,0.07043]],[[238.33706,187.35459],[-0.6911,0.20053],[0.33846,-0.09821]],[[238.79103,185.11063],[-0.01028,1.1559],[-1.43496,-0.04289]],[[234.47926,185.02117],[1.44072,0.00784],[-0.01706,0.76785]]],&quot;closed&quot;:true,&quot;fillColor&quot;:[0,0,0,1]}]}" fill="#9e8a00" stroke="none" stroke-width="0.5"/><path d="M245.58932,185.11806c-0.04713,1.04293 -0.17509,2.02253 -0.4828,2.24096c-0.23731,0.16847 -2.55873,-0.01811 -2.94815,-0.01874c-0.19634,-0.00031 -1.77265,0.04606 -2.13553,-0.19945c0.0849,-0.30518 0.14047,-0.65251 0.17802,-0.99669c0.06453,-0.13212 0.11633,-0.27104 0.12283,-0.39361c0.01081,-0.20392 0.02441,-0.41504 0.03295,-0.61237c1.51689,0.04467 3.12446,0.08221 4.64587,0.08221z" data-paper-data="{&quot;noHover&quot;:false,&quot;origItem&quot;:[&quot;Path&quot;,{&quot;applyMatrix&quot;:true,&quot;segments&quot;:[[[489.91481,370.48389],[0,0],[-3.04282,0]],[[480.80405,370.31827],[3.03378,0.08934],[-0.01708,0.39466]],[[480.74525,371.52155],[0.02162,-0.40784],[-0.013,0.24514]],[[480.50161,372.29311],[0.12906,-0.26424],[-0.0751,0.68836]],[[480.14113,374.25181],[0.1698,-0.61036],[0.72576,0.49102]],[[484.36857,374.59503],[-0.39268,-0.00062],[0.77884,0.00126]],[[490.12265,374.67525],[-0.47462,0.33694],[0.6154,-0.43688]],[[491.08623,370.27437],[-0.09426,2.08586],[0,0]]],&quot;closed&quot;:true,&quot;fillColor&quot;:[0,0,0,1]}]}" fill="#9e8a00" stroke="none" stroke-width="0.5"/><path d="M227.58092,186.94363l-3.69473,-26.89613l28.25813,-3.88182l3.69473,26.89613z" fill="#999999" stroke="#7d7d7d" stroke-width="1.5"/><path d="M224.91352,167.52599l-1.02732,-7.47849l28.25813,-3.88182l1.02732,7.47849z" fill="#999999" stroke="#7d7d7d" stroke-width="1.5"/><path d="M226.95861,169.6903c-0.05637,-0.41037 0.23059,-0.78872 0.64095,-0.84509c0.41037,-0.05637 0.78872,0.23059 0.84509,0.64095c0.05637,0.41037 -0.23059,0.78872 -0.64095,0.84509c-0.41037,0.05637 -0.78872,-0.23059 -0.84509,-0.64095z" fill="#7d7d7d" stroke="none" stroke-width="0.5"/><path d="M231.7722,168.72624c-0.05637,-0.41037 0.23059,-0.78872 0.64095,-0.84509c0.41037,-0.05637 0.78872,0.23059 0.84509,0.64095c0.05637,0.41037 -0.23059,0.78872 -0.64095,0.84509c-0.41037,0.05637 -0.78872,-0.23059 -0.84509,-0.64095z" fill="#7d7d7d" stroke="none" stroke-width="0.5"/><path d="M237.12196,167.99134c-0.05637,-0.41037 0.23059,-0.78872 0.64095,-0.84509c0.41037,-0.05637 0.78872,0.23059 0.84509,0.64095c0.05637,0.41037 -0.23059,0.78872 -0.64095,0.84509c-0.41037,0.05637 -0.78872,-0.23059 -0.84509,-0.64095z" fill="#7d7d7d" stroke="none" stroke-width="0.5"/><path d="M242.78253,167.31469c-0.05637,-0.41037 0.23059,-0.78872 0.64095,-0.84509c0.41037,-0.05637 0.78872,0.23059 0.84509,0.64095c0.05637,0.41037 -0.23059,0.78872 -0.64095,0.84509c-0.41037,0.05637 -0.78872,-0.23059 -0.84509,-0.64095z" fill="#7d7d7d" stroke="none" stroke-width="0.5"/><path d="M246.53357,166.69847c-0.05637,-0.41037 0.23059,-0.78872 0.64095,-0.84509c0.41037,-0.05637 0.78872,0.23059 0.84509,0.64095c0.05637,0.41037 -0.23059,0.78872 -0.64095,0.84509c-0.41037,0.05637 -0.78872,-0.23059 -0.84509,-0.64095z" fill="#7d7d7d" stroke="none" stroke-width="0.5"/><path d="M250.49635,166.1541c-0.05637,-0.41037 0.23059,-0.78872 0.64095,-0.84509c0.41037,-0.05637 0.78872,0.23059 0.84509,0.64095c0.05637,0.41037 -0.23059,0.78872 -0.64095,0.84509c-0.41037,0.05637 -0.78872,-0.23059 -0.84509,-0.64095z" fill="#7d7d7d" stroke="none" stroke-width="0.5"/><path d="M251.04453,169.40979c-0.05637,-0.41037 0.23059,-0.78872 0.64095,-0.84509c0.41037,-0.05637 0.78872,0.23059 0.84509,0.64095c0.05637,0.41037 -0.23059,0.78872 -0.64095,0.84509c-0.41037,0.05637 -0.78872,-0.23059 -0.84509,-0.64095z" fill="#7d7d7d" stroke="none" stroke-width="0.5"/><path d="M251.53446,172.9763c-0.05637,-0.41037 0.23059,-0.78872 0.64095,-0.84509c0.41037,-0.05637 0.78872,0.23059 0.84509,0.64095c0.05637,0.41037 -0.23059,0.78872 -0.64095,0.84509c-0.41037,0.05637 -0.78872,-0.23059 -0.84509,-0.64095z" fill="#7d7d7d" stroke="none" stroke-width="0.5"/><path d="M252.15068,176.72733c-0.05637,-0.41037 0.23059,-0.78872 0.64095,-0.84509c0.41037,-0.05637 0.78872,0.23059 0.84509,0.64095c0.05637,0.41037 -0.23059,0.78872 -0.64095,0.84509c-0.41037,0.05637 -0.78872,-0.23059 -0.84509,-0.64095z" fill="#7d7d7d" stroke="none" stroke-width="0.5"/><path d="M252.97484,181.25732c-0.05637,-0.41037 0.23059,-0.78872 0.64095,-0.84509c0.41037,-0.05637 0.78872,0.23059 0.84509,0.64095c0.05637,0.41037 -0.23059,0.78872 -0.64095,0.84509c-0.41037,0.05637 -0.78872,-0.23059 -0.84509,-0.64095z" fill="#7d7d7d" stroke="none" stroke-width="0.5"/><path d="M249.71915,181.80549c-0.05637,-0.41037 0.23059,-0.78872 0.64095,-0.84509c0.41037,-0.05637 0.78872,0.23059 0.84509,0.64095c0.05637,0.41037 -0.23059,0.78872 -0.64095,0.84509c-0.41037,0.05637 -0.78872,-0.23059 -0.84509,-0.64095z" fill="#7d7d7d" stroke="none" stroke-width="0.5"/><path d="M246.30996,181.97099c-0.05637,-0.41037 0.23059,-0.78872 0.64095,-0.84509c0.41037,-0.05637 0.78872,0.23059 0.84509,0.64095c0.05637,0.41037 -0.23059,0.78872 -0.64095,0.84509c-0.41037,0.05637 -0.78872,-0.23059 -0.84509,-0.64095z" fill="#7d7d7d" stroke="none" stroke-width="0.5"/><path d="M239.99672,183.04012c-0.05637,-0.41037 0.23059,-0.78872 0.64095,-0.84509c0.41037,-0.05637 0.78872,0.23059 0.84509,0.64095c0.05637,0.41037 -0.23059,0.78872 -0.64095,0.84509c-0.41037,0.05637 -0.78872,-0.23059 -0.84509,-0.64095z" fill="#7d7d7d" stroke="none" stroke-width="0.5"/><path d="M234.30893,183.51864c-0.05637,-0.41037 0.23059,-0.78872 0.64095,-0.84509c0.41037,-0.05637 0.78872,0.23059 0.84509,0.64095c0.05637,0.41037 -0.23059,0.78872 -0.64095,0.84509c-0.41037,0.05637 -0.78872,-0.23059 -0.84509,-0.64095z" fill="#7d7d7d" stroke="none" stroke-width="0.5"/><path d="M228.88731,184.46528c-0.05637,-0.41037 0.23059,-0.78872 0.64095,-0.84509c0.41037,-0.05637 0.78872,0.23059 0.84509,0.64095c0.05637,0.41037 -0.23059,0.78872 -0.64095,0.84509c-0.41037,0.05637 -0.78872,-0.23059 -0.84509,-0.64095z" fill="#7d7d7d" stroke="none" stroke-width="0.5"/><path d="M228.48665,180.079c-0.05637,-0.41037 0.23059,-0.78872 0.64095,-0.84509c0.41037,-0.05637 0.78872,0.23059 0.84509,0.64095c0.05637,0.41037 -0.23059,0.78872 -0.64095,0.84509c-0.41037,0.05637 -0.78872,-0.23059 -0.84509,-0.64095z" fill="#7d7d7d" stroke="none" stroke-width="0.5"/><path d="M227.74414,176.14344c-0.05637,-0.41037 0.23059,-0.78872 0.64095,-0.84509c0.41037,-0.05637 0.78872,0.23059 0.84509,0.64095c0.05637,0.41037 -0.23059,0.78872 -0.64095,0.84509c-0.41037,0.05637 -0.78872,-0.23059 -0.84509,-0.64095z" fill="#7d7d7d" stroke="none" stroke-width="0.5"/><path d="M227.35328,172.56332c-0.05637,-0.41037 0.23059,-0.78872 0.64095,-0.84509c0.41037,-0.05637 0.78872,0.23059 0.84509,0.64095c0.05637,0.41037 -0.23059,0.78872 -0.64095,0.84509c-0.41037,0.05637 -0.78872,-0.23059 -0.84509,-0.64095z" fill="#7d7d7d" stroke="none" stroke-width="0.5"/><path d="M226.07621,165.47114c-0.05637,-0.41037 0.23059,-0.78872 0.64095,-0.84509c0.41037,-0.05637 0.78872,0.23059 0.84509,0.64095c0.05637,0.41037 -0.23059,0.78872 -0.64095,0.84509c-0.41037,0.05637 -0.78872,-0.23059 -0.84509,-0.64095z" fill="#7d7d7d" stroke="none" stroke-width="0.5"/><path d="M225.67774,163.30521c-0.05637,-0.41037 0.23059,-0.78872 0.64095,-0.84509c0.41037,-0.05637 0.78872,0.23059 0.84509,0.64095c0.05637,0.41037 -0.23059,0.78872 -0.64095,0.84509c-0.41037,0.05637 -0.78872,-0.23059 -0.84509,-0.64095z" fill="#7d7d7d" stroke="none" stroke-width="0.5"/><path d="M225.41916,161.42289c-0.05637,-0.41037 0.23059,-0.78872 0.64095,-0.84509c0.41037,-0.05637 0.78872,0.23059 0.84509,0.64095c0.05637,0.41037 -0.23059,0.78872 -0.64095,0.84509c-0.41037,0.05637 -0.78872,-0.23059 -0.84509,-0.64095z" fill="#7d7d7d" stroke="none" stroke-width="0.5"/><path d="M230.56156,165.05686c-0.05637,-0.41037 0.23059,-0.78872 0.64095,-0.84509c0.41037,-0.05637 0.78872,0.23059 0.84509,0.64095c0.05637,0.41037 -0.23059,0.78872 -0.64095,0.84509c-0.41037,0.05637 -0.78872,-0.23059 -0.84509,-0.64095z" fill="#7d7d7d" stroke="none" stroke-width="0.5"/><path d="M236.53676,163.73135c-0.05637,-0.41037 0.23059,-0.78872 0.64095,-0.84509c0.41037,-0.05637 0.78872,0.23059 0.84509,0.64095c0.05637,0.41037 -0.23059,0.78872 -0.64095,0.84509c-0.41037,0.05637 -0.78872,-0.23059 -0.84509,-0.64095z" fill="#7d7d7d" stroke="none" stroke-width="0.5"/><path d="M242.31002,163.14016c-0.05637,-0.41037 0.23059,-0.78872 0.64095,-0.84509c0.41037,-0.05637 0.78872,0.23059 0.84509,0.64095c0.05637,0.41037 -0.23059,0.78872 -0.64095,0.84509c-0.41037,0.05637 -0.78872,-0.23059 -0.84509,-0.64095z" fill="#7d7d7d" stroke="none" stroke-width="0.5"/><path d="M246.23197,162.29858c-0.05637,-0.41037 0.23059,-0.78872 0.64095,-0.84509c0.41037,-0.05637 0.78872,0.23059 0.84509,0.64095c0.05637,0.41037 -0.23059,0.78872 -0.64095,0.84509c-0.41037,0.05637 -0.78872,-0.23059 -0.84509,-0.64095z" fill="#7d7d7d" stroke="none" stroke-width="0.5"/><path d="M249.42942,162.06122c-0.05637,-0.41037 0.23059,-0.78872 0.64095,-0.84509c0.41037,-0.05637 0.78872,0.23059 0.84509,0.64095c0.05637,0.41037 -0.23059,0.78872 -0.64095,0.84509c-0.41037,0.05637 -0.78872,-0.23059 -0.84509,-0.64095z" fill="#7d7d7d" stroke="none" stroke-width="0.5"/><path d="M249.3962,160.34982c-0.05637,-0.41037 0.23059,-0.78872 0.64095,-0.84509c0.41037,-0.05637 0.78872,0.23059 0.84509,0.64095c0.05637,0.41037 -0.23059,0.78872 -0.64095,0.84509c-0.41037,0.05637 -0.78872,-0.23059 -0.84509,-0.64095z" fill="#7d7d7d" stroke="none" stroke-width="0.5"/><path d="M249.20948,158.25574c-0.05637,-0.41037 0.23059,-0.78872 0.64095,-0.84509c0.41037,-0.05637 0.78872,0.23059 0.84509,0.64095c0.05637,0.41037 -0.23059,0.78872 -0.64095,0.84509c-0.41037,0.05637 -0.78872,-0.23059 -0.84509,-0.64095z" fill="#7d7d7d" stroke="none" stroke-width="0.5"/><path d="M246.19276,159.07391c-0.05637,-0.41037 0.23059,-0.78872 0.64095,-0.84509c0.41037,-0.05637 0.78872,0.23059 0.84509,0.64095c0.05637,0.41037 -0.23059,0.78872 -0.64095,0.84509c-0.41037,0.05637 -0.78872,-0.23059 -0.84509,-0.64095z" fill="#7d7d7d" stroke="none" stroke-width="0.5"/><path d="M242.18914,159.32107c-0.05637,-0.41037 0.23059,-0.78872 0.64095,-0.84509c0.41037,-0.05637 0.78872,0.23059 0.84509,0.64095c0.05637,0.41037 -0.23059,0.78872 -0.64095,0.84509c-0.41037,0.05637 -0.78872,-0.23059 -0.84509,-0.64095z" fill="#7d7d7d" stroke="none" stroke-width="0.5"/><path d="M235.53787,160.13382c-0.05637,-0.41037 0.23059,-0.78872 0.64095,-0.84509c0.41037,-0.05637 0.78872,0.23059 0.84509,0.64095c0.05637,0.41037 -0.23059,0.78872 -0.64095,0.84509c-0.41037,0.05637 -0.78872,-0.23059 -0.84509,-0.64095z" fill="#7d7d7d" stroke="none" stroke-width="0.5"/><path d="M229.35473,160.68038c-0.05637,-0.41037 0.23059,-0.78872 0.64095,-0.84509c0.41037,-0.05637 0.78872,0.23059 0.84509,0.64095c0.05637,0.41037 -0.23059,0.78872 -0.64095,0.84509c-0.41037,0.05637 -0.78872,-0.23059 -0.84509,-0.64095z" fill="#7d7d7d" stroke="none" stroke-width="0.5"/></g></g></svg>