<svg version="1.1" xmlns="http://www.w3.org/2000/svg" xmlns:xlink="http://www.w3.org/1999/xlink" width="29.75569" height="48.33535" viewBox="0,0,29.75569,48.33535"><g transform="translate(-224.96811,-140.68275)"><g data-paper-data="{&quot;isPaintingLayer&quot;:true}" fill-rule="nonzero" stroke="none" stroke-width="0.5" stroke-linecap="butt" stroke-linejoin="miter" stroke-miterlimit="10" stroke-dasharray="" stroke-dashoffset="0" style="mix-blend-mode: normal"><path d="M247.40967,166.09974l0.22202,0.54599c0.3528,0.81422 0.66968,1.64709 0.9845,2.47633c0.54409,1.88741 2.14652,7.8321 0.17985,9.32175c-0.92284,0.69901 -1.50784,-0.89364 -1.9009,-2.54558c-0.06901,-0.95015 -0.12228,-1.87987 -0.12257,-2.82073l-0.02554,-0.04302l0.02133,-0.00268l-0.10724,-0.86559c-0.04137,-0.37124 -0.3556,-0.65511 -0.74171,-0.65511c-0.41421,0 -0.67366,0.26842 -0.67366,0.6784c0,0.02038 0.00106,0.04084 0.00269,0.06081l0.11198,1.48166l0.00139,-0.0001c-0.00029,0.00231 -0.00056,0.00466 -0.00084,0.00697c-0.07794,0.62698 -0.02489,1.65646 0.172,2.69128c0.14281,1.88854 0.27905,3.81852 0.04422,5.67793c-0.00157,0.88214 0.18162,4.81631 -0.49501,5.29173c-0.23731,0.16675 -2.49879,-0.03549 -2.88821,-0.03613c-0.19633,-0.00032 -1.76033,0.07407 -2.1232,-0.16892c0.0849,-0.30206 0.14132,-0.72763 0.17887,-1.06829c0.06453,-0.13076 0.11462,-0.26049 0.12112,-0.38181c0.08369,-1.5617 0.12408,-2.81526 -0.21909,-4.17549c0,-0.00107 -0.00249,-0.10107 -0.00249,-0.10214l0.00068,-0.00546l0.2162,-0.02391l-0.10379,-0.88209c-0.03709,-0.37567 -0.36753,-0.66973 -0.75683,-0.66973c-0.38611,0 -0.71144,0.28709 -0.75281,0.65834l-0.08158,0.7751l0.01936,0.00237l-0.02378,0.04356c-0.0004,0.28514 0.06292,1.18096 0.10026,2.19961c-0.85385,-1.87249 -2.61321,-2.93305 -4.47028,-3.01488c-0.00377,-1.4079 0.06158,-2.81471 0.24306,-4.1622c0.09231,-0.68539 0.36997,-1.55766 0.34453,-2.27449c0.06557,-0.35542 0.14457,-0.71696 0.22243,-1.06984l-0.03361,-0.08131l0.03843,-0.00015l0.00303,-0.77354c0,-0.40997 -0.26131,-0.67626 -0.67553,-0.67626c-0.36345,0 -0.66274,0.2512 -0.73157,0.59089l-0.21574,0.9702l0.16878,0.03743c-0.03196,0.14405 -0.0614,0.28574 -0.09082,0.43037c-0.34032,1.0407 -0.51024,2.1253 -0.59131,3.25862c-0.34278,0.94729 -1.08575,1.66064 -2.32424,0.9671c-0.49801,-0.27889 -0.32909,-2.41683 -0.32935,-2.80397c-0.00181,-2.68285 0.8707,-5.30126 2.16413,-7.64212c0.27003,-0.05443 0.45267,-0.26465 0.45267,-0.26465c2.11199,-2.47677 7.13949,-1.15852 10.0579,-1.28893c1.38768,-0.06201 2.95391,-0.30457 4.24632,0.27731z" data-paper-data="{&quot;noHover&quot;:false,&quot;origItem&quot;:[&quot;Path&quot;,{&quot;applyMatrix&quot;:true,&quot;segments&quot;:[[[496.43499,290.36259],[0,0],[-2.5848,-1.17581]],[[487.97232,289.8161],[2.77535,-0.1253],[-5.83683,0.26353]],[[467.94253,292.40451],[4.22399,-5.00478],[0,0]],[[467.04065,292.93661],[0.54007,-0.10999],[-2.58686,4.73015]],[[462.74809,308.31721],[-0.00361,-5.42119],[0.00052,0.7823]],[[463.40716,313.95383],[-0.99603,-0.56354],[2.47697,1.40145]],[[467.85663,312.01728],[-0.68556,1.91418],[0.16213,-2.29009]],[[469.04847,305.38632],[-0.68063,2.10294],[0.05884,-0.29223]],[[469.23279,304.51134],[-0.06392,0.29109],[0,0]],[468.89492,304.43626],[[469.33295,302.4651],[0,0],[0.13765,-0.68639]],[[470.80364,301.26165],[-0.7269,0],[0.82843,0]],[[472.30364,302.76165],[0,-0.82843],[0,0]],[472.30364,304.31721],[472.22701,304.31721],[[472.29469,304.48088],[0,0],[-0.15574,0.71307]],[[471.85883,306.6273],[0.13113,-0.71819],[0.05089,1.4485]],[[471.17926,311.18297],[0.18462,-1.38496],[-0.70876,5.31694]],[[470.96654,327.54421],[-0.3625,-5.35496],[0.04402,0.65029]],[[471.04523,332.88685],[-0.26208,-0.2819],[0.49196,0.52915]],[[473.2066,333.05036],[-0.71548,-0.10061],[1.3984,0.14085]],[[478.67406,333.37583],[-1.38221,0.40107],[1.57041,-0.45568]],[[479.30654,321.33511],[-0.00212,1.5314],[0,0]],[479.35432,321.24715],[479.31523,321.24227],[[479.53498,319.48423],[0,0],[0.08274,-0.75016]],[[481.02587,318.15054],[-0.77221,0],[0.7786,0]],[[482.51869,319.50288],[-0.07417,-0.75912],[0,0]],[482.73891,321.48489],[482.30218,321.53342],[[482.3008,321.54447],[0,0],[0.00001,0.00215]],[[482.30082,321.55093],[-0.00001,-0.00215],[0.68633,2.74861]],[[482.74519,330.18819],[0.16737,-3.1557],[-0.013,0.24515]],[[482.50156,330.95975],[0.12905,-0.26423],[-0.0751,0.68836]],[[482.14107,332.91845],[0.1698,-0.61036],[0.72575,0.49101]],[[486.3685,333.26168],[-0.39266,-0.00064],[0.77885,0.00126]],[[492.12257,333.34191],[-0.47462,0.33694],[1.35326,-0.96069]],[[493.08432,322.66845],[-0.00313,1.78255],[0.46966,-3.75727]],[[492.96593,311.26793],[0.28561,3.81615],[-0.39377,-2.09104]],[[492.63336,305.8747],[-0.15588,1.26694],[0.00057,-0.00467]],[[492.63509,305.8607],[-0.00058,0.00467],[0,0]],[492.63231,305.8609],[[492.41967,302.88397],[0,0],[-0.00326,-0.04034]],[[492.41476,302.76165],[0,0.04118],[0,-0.82843]],[[493.91476,301.26165],[-0.82843,0],[0.77221,0]],[[495.40564,302.59534],[-0.08274,-0.75016],[0,0]],[495.62539,304.35338],[495.58269,304.35872],[[495.63408,304.44622],[0,0],[0.00057,1.90117]],[[495.88986,310.1828],[-0.13802,-1.91996],[0.78614,3.33805]],[[499.49447,315.31377],[-1.84568,1.41247],[3.93334,-3.01012]],[[499.15688,296.56475],[1.08818,3.81386],[-0.62963,-1.67564]],[[497.2027,291.57475],[0.70559,1.64528],[0,0]],[496.76188,290.47383]],&quot;closed&quot;:true}]}" fill="#515151"/><path d="M244.95738,183.79596l0.40847,-0.09556c0,0 0.08409,-0.01665 0.20108,-0.01054c-0.00447,-0.71329 -0.02528,-1.32829 -0.02477,-1.61712c0.23483,-1.8594 0.08361,-3.75335 -0.0592,-5.6419c-0.19689,-1.03482 -0.24423,-2.04202 -0.16629,-2.669c0.00029,-0.00231 0.00058,-0.00462 0.00087,-0.00693l-0.00139,0.0001l-0.10632,-1.47323c-0.00163,-0.01996 -0.00246,-0.04015 -0.00246,-0.06053c0,-0.40997 0.33579,-0.74232 0.75,-0.74232c0.38611,0 0.70407,0.28877 0.74544,0.66002l0.10988,0.87002l-0.02135,0.00264l0.02569,0.0433c0.00029,0.94086 0.05888,1.88877 0.12789,2.83892c0.39307,1.65194 0.87946,3.23822 1.8023,2.53921c1.96667,-1.48965 0.3753,-7.39112 -0.16879,-9.27853c-0.31481,-0.82924 -0.62429,-1.65524 -0.97709,-2.46945l-0.22041,-0.54482l-0.16344,-0.05505c-1.2924,-0.58188 -2.84366,-0.33246 -4.23133,-0.27044c-2.91841,0.13041 -7.9029,-1.19582 -10.0149,1.28095c0,0 -0.18091,0.2089 -0.45094,0.26333c-1.29343,2.34087 -2.14808,4.92872 -2.14628,7.61156c0.00026,0.38715 -0.16848,2.51057 0.32953,2.78945c1.23849,0.69356 1.88196,-0.01108 2.22474,-0.95837c0.08107,-1.13333 0.2556,-2.24083 0.59592,-3.28153c0.02942,-0.14461 0.0602,-0.28896 0.09216,-0.43301l-0.16893,-0.03716l0.21902,-0.97549c0.06882,-0.33968 0.37189,-0.59556 0.73534,-0.59556c0.41421,0 0.75,0.33235 0.75,0.74232v0.76982h-0.03832l0.03384,0.081c-0.07787,0.35288 -0.15236,0.7068 -0.21793,1.06222c0.02544,0.71683 -0.24748,1.56913 -0.33978,2.25452c-0.18246,1.35472 -0.25327,2.75828 -0.25431,4.16296c-0.47391,-0.02438 -0.95455,0.01501 -1.42848,0.12093c-0.01783,-0.53827 -0.03299,-1.0811 -0.03786,-1.62414c-0.75941,0.55147 -1.75008,0.6734 -2.99114,-0.04908c-0.76411,-0.44483 -0.99806,-2.17251 -1.0038,-2.92916c-0.0263,-3.46581 0.72475,-6.55032 2.42772,-9.59828c0,0 0.20243,-0.36065 0.57712,-0.39485c2.63736,-2.92668 7.48515,-1.58453 11.04972,-1.746v0.00001c1.68339,-0.07625 3.29918,-0.2528 4.87978,0.38939l0.27506,0.08805c0,0 0.39623,0.13073 0.49876,0.48972c0.12602,0.12861 0.18265,0.26873 0.18265,0.26873l0.21522,0.53314c0.36945,0.85378 0.69399,1.71954 1.02291,2.58932c0.76685,2.6533 2.35323,8.93608 -0.39102,10.95659c-1.00602,0.74071 -1.81417,0.71824 -2.44725,0.26417c0.0026,0.75529 -0.03111,1.50766 -0.12545,2.25467c0.00294,1.46585 0.23738,5.34751 -1.07468,6.3751c-1.03347,0.8094 -4.82283,0.47578 -6.50223,-0.21449c-0.12658,0.13855 -0.2709,0.25791 -0.43518,0.3547c0.25112,-1.42374 0.32964,-2.78261 0.18359,-3.64884c-0.09107,-0.54016 -0.24548,-1.03574 -0.45201,-1.48441c-0.04112,-0.98719 -0.10587,-1.85231 -0.10548,-2.13413l0.02389,-0.04353l-0.01954,-0.00242l0.10988,-0.87002c0.04137,-0.37124 0.35933,-0.66002 0.74544,-0.66002c0.3893,0 0.70933,0.29357 0.74641,0.66925l0.11011,0.98086l-0.21837,0.02401l-0.00069,0.00546c0,0.00107 0.00001,0.00213 0.00001,0.0032c0.1824,0.72298 0.25731,1.44378 0.27491,2.19496c1.50923,0.04393 3.0186,0.08129 4.53206,0.08129zM244.95738,185.2806c-1.52141,0 -3.03849,-0.03775 -4.55538,-0.08196c-0.00854,0.19531 -0.01859,0.39365 -0.0294,0.59548c-0.0065,0.12132 -0.05729,0.25106 -0.12182,0.38183c-0.03755,0.34066 -0.09534,0.66727 -0.18024,0.96932c0.36288,0.243 1.91738,0.16955 2.11372,0.16985c0.38942,0.00062 2.63973,0.20644 2.87704,0.0397c0.3077,-0.2162 0.43466,-1.14566 0.48179,-2.17791z" fill="#323232"/><path d="M245.58927,185.15798c-0.04713,1.03226 -0.1751,2.00182 -0.48279,2.21803c-0.23731,0.16675 -2.55872,-0.01793 -2.94814,-0.01856c-0.19633,-0.00032 -1.77265,0.04558 -2.13552,-0.19741c0.0849,-0.30206 0.14047,-0.64583 0.17802,-0.98649c0.06453,-0.13076 0.11632,-0.26826 0.12282,-0.38957c0.01082,-0.20183 0.02441,-0.41079 0.03295,-0.6061c1.51689,0.04422 3.12447,0.08138 4.64588,0.08138z" data-paper-data="{&quot;noHover&quot;:false,&quot;origItem&quot;:[&quot;Path&quot;,{&quot;applyMatrix&quot;:true,&quot;segments&quot;:[[[244.95738,185.24194],[0,0],[-1.52141,0]],[[240.402,185.15912],[1.51689,0.04468],[-0.00854,0.19733]],[[240.3726,185.76076],[0.01082,-0.20392],[-0.0065,0.12257]],[[240.25078,186.14654],[0.06453,-0.13211],[-0.03755,0.34418]],[[240.07053,187.12589],[0.0849,-0.30518],[0.36288,0.24551]],[[242.18425,187.29751],[-0.19633,-0.00032],[0.38942,0.00063]],[[245.06129,187.33762],[-0.23731,0.16847],[0.3077,-0.21844]],[[245.54308,185.13718],[-0.04713,1.04294],[0,0]]],&quot;closed&quot;:true}]}" fill="#454545"/><path d="M238.28699,178.34372c0.23931,2.91348 0.17272,11.55668 -3.1666,6.16583c-0.28746,-0.46406 -0.55315,-0.97399 -0.77385,-1.47245c-0.16653,-1.23457 -0.61346,-2.77155 -0.44949,-4.01387c0.35845,-2.71595 3.11576,-2.18092 4.38994,-0.67951z" data-paper-data="{&quot;noHover&quot;:false,&quot;origItem&quot;:[&quot;Path&quot;,{&quot;applyMatrix&quot;:true,&quot;segments&quot;:[[[481.97189,357.48066],[2.35996,-2.81489],[-0.44323,5.46227]],[[487.74989,368.86194],[-6.18487,10.10691],[0.53241,-0.87003]],[[489.13713,366.13443],[-0.40877,0.93452],[0.30844,-2.31461]],[[489.98481,358.74748],[0.30369,2.32913],[-0.66392,-5.09193]]],&quot;closed&quot;:true}],&quot;index&quot;:null}" fill="#454545"/><path d="M238.9675,177.41949c0.55213,0.05591 0.62694,0.64825 0.62694,0.64825c0.02524,0.20237 0.05264,0.41467 0.08088,0.63503c0.00888,0.0296 0.03854,0.13944 0.03523,0.27632c0.19881,1.57065 0.41085,3.48986 0.18975,5.12296c0.3666,0.19555 0.3666,0.65617 0.3666,0.65617c0,0.77349 -0.00144,1.49011 0.10922,2.25682l0.00096,0.41934c0.15233,0.04307 0.30465,0.08615 0.45697,0.12922c0,0 0.72114,0.20393 0.5151,0.91769c-0.20604,0.71376 -0.92718,0.50983 -0.92718,0.50983c-0.25926,-0.07331 -0.51852,-0.14663 -0.77778,-0.21994l-0.6884,-0.44983c0,0 -0.6,-0.44539 -0.15,-1.03925c0.02424,-0.03199 0.04892,-0.06097 0.07391,-0.08716l0.0002,-0.07467c-0.01592,-0.11027 -0.02959,-0.21981 -0.04134,-0.32883c-2.00244,2.47716 -4.80172,-1.24251 -5.71047,-3.37243c-0.07677,-0.50546 -0.19392,-1.05746 -0.29625,-1.62502c0.38206,-1.24622 0.4812,-2.64013 0.28923,-3.95756c1.36281,-2.43529 4.08566,-2.1444 5.84643,-0.41695zM234.14855,179.3625c-0.15184,1.15264 0.26962,2.5102 0.42384,3.65565c0.20439,0.46248 0.42741,0.91923 0.69362,1.3498c3.09243,5.00172 3.11061,-2.92921 2.889,-5.63238c-1.17998,-1.39304 -3.6745,-1.89298 -4.00646,0.62692z" data-paper-data="{&quot;index&quot;:null}" fill="#323232"/><path d="M233.52788,182.27322c-0.71151,0.23474 -0.94868,-0.46948 -0.94868,-0.46948l-0.08896,-0.27224c-0.67968,-1.63875 -0.0498,-2.7434 0.41266,-4.34542c0,0 0.20604,-0.71376 0.92718,-0.50983c0.72114,0.20393 0.5151,0.91769 0.5151,0.91769c-0.3445,1.1934 -1.01498,2.1805 -0.47623,3.35273l0.13326,0.38759c0,0 0.23717,0.70423 -0.47434,0.93897z" fill="#323232"/><path d="M237.45996,169.28805c0.1287,-0.17639 0.36087,-0.34949 0.75933,-0.25666c0.73005,0.17006 0.55822,0.89266 0.55822,0.89266c-0.1354,0.55563 -0.78411,3.1889 -1.1985,3.51113c-0.62965,0.48963 -1.68179,0.30075 -2.60675,-0.03311l0.01139,0.04762l-0.43145,0.1011c0.1793,2.23954 -1.21445,5.07739 -3.31708,6.06623c-2.9175,1.37206 -4.33819,-1.41486 -4.09373,-3.83269c0.11615,-1.14877 0.45529,-2.17079 0.85155,-3.24706c0.86412,-5.00712 4.70892,-5.49477 8.74387,-3.46487l0.586,0.15771c0,0 0.05846,0.01705 0.13715,0.05794z" fill="#515151"/><path d="M238.68008,169.73344c-0.21206,0.71203 -0.93145,0.50215 -0.93145,0.50215l-0.45493,-0.17245c-2.81731,-1.9423 -6.06036,-3.50843 -7.70423,-0.0178c0.13257,0.34762 -0.10504,0.68527 -0.10504,0.68527c-1.3993,1.97831 -2.34247,4.66504 -1.59693,7.09438c0.62791,2.04605 3.25617,0.59454 4.08763,-0.29293c1.04243,-1.08323 1.52401,-2.65879 1.86273,-4.09236l-0.025,0.04068c0,0 -0.02631,-0.74187 0.72323,-0.76792c0.74954,-0.02604 0.77585,0.71583 0.77585,0.71583l-0.01398,0.35154c-0.40982,1.71336 -1.00963,3.45196 -2.2256,4.76452c-1.6795,1.77518 -5.47426,2.89419 -6.60198,-0.23273c-0.929,-2.57594 0.00554,-5.6188 1.41576,-7.87453c-0.00255,-0.16715 0.04437,-0.29625 0.04437,-0.29625c1.92727,-5.30109 6.45124,-3.89462 10.22053,-1.29598l0.0217,-0.03337c0,0 0.7194,0.20988 0.50733,0.92192z" fill="#323232"/><path d="M239.29992,170.22457c0.30729,1.66428 -2.07611,1.50223 -3.65065,0.762c-1.03548,-2.26861 1.34746,-5.98008 3.46502,-3.05799c0.81906,1.13025 0.70095,1.87866 0.18563,2.29599z" fill="#515151"/><path d="M244.29071,141.01625c0.75,0 0.75,0.74232 0.75,0.74232l-0.02643,0.63521c-0.11111,0.40324 -0.22222,0.80647 -0.33333,1.20971c0,0 -0.19734,0.71616 -0.92091,0.52084c-0.72357,-0.19532 -0.52623,-0.91148 -0.52623,-0.91148c0.11111,-0.40324 0.22222,-0.80647 0.33333,-1.20971l-0.02643,-0.24458c0,0 0,-0.74232 0.75,-0.74232z" fill="#593800"/><path d="M233.87149,141.67358c0.53033,-0.5249 1.06066,0 1.06066,0l0.41743,0.42913c0.25926,0.36658 0.51852,0.73316 0.77778,1.09973c0,0 0.4301,0.60813 -0.18433,1.03383c-0.61442,0.4257 -1.04452,-0.18244 -1.04452,-0.18244c-0.25926,-0.36658 -0.51852,-0.73316 -0.77778,-1.09973l-0.24924,-0.23071c0,0 -0.53033,-0.5249 0,-1.0498z" fill="#593800"/><path d="M228.91823,149.34491l-0.12357,0.15184c-1.42752,2.63158 -2.45503,4.97845 -1.98747,8.09735c0.67586,4.5083 6.74007,9.70895 11.20929,10.27249c10.12628,1.38423 17.89941,-10.72879 11.47525,-19.01174c-3.5902,-4.6994 -9.54165,-5.30944 -14.8683,-3.32096c-1.8502,0.6907 -4.24192,1.50565 -5.54423,3.10997c0.08536,0.36989 -0.16097,0.70104 -0.16097,0.70104zM226.97468,148.82302c1.35394,-2.67449 4.35479,-3.85952 7.048,-4.86531c6.05692,-2.26201 12.73216,-1.3951 16.82251,3.87571c7.27258,9.49617 -1.42149,23.25454 -13.05869,21.70227c-5.24769,-0.74487 -11.83515,-6.40028 -12.66285,-11.69411c-0.4949,-3.16534 0.40679,-5.74757 1.7849,-8.41299c-0.07753,-0.31071 0.06612,-0.60557 0.06612,-0.60557z" data-paper-data="{&quot;index&quot;:null}" fill="#8c8372"/><path d="M229.03385,148.61013c1.30231,-1.60431 3.71699,-2.43714 5.56719,-3.12783c5.32665,-1.98848 11.34637,-1.35987 14.93657,3.33952c6.42416,8.28294 -1.40083,20.48484 -11.5271,19.10061c-4.46922,-0.56354 -10.58383,-5.8138 -11.25969,-10.3221c-0.46756,-3.1189 0.56873,-5.50256 1.99626,-8.13414l0.12406,-0.15258c0,0 0.24807,-0.33358 0.16272,-0.70347z" data-paper-data="{&quot;noHover&quot;:false,&quot;origItem&quot;:[&quot;Path&quot;,{&quot;applyMatrix&quot;:true,&quot;segments&quot;:[[461.79205,256.51809],[[461.57425,256.7885],[0,0],[-2.51619,4.68647]],[[458.07109,271.20873],[-0.82414,-5.55431],[1.19129,8.02865]],[[477.82886,289.50257],[-7.87755,-1.00359],[17.84882,2.46512]],[[498.05541,255.64538],[11.32339,14.75074],[-6.32818,-8.36895]],[[471.84818,249.73122],[9.38889,-3.5412],[-3.26121,1.23003]],[[462.07578,255.26964],[2.29549,-2.85706],[0.15045,0.65872]]],&quot;closed&quot;:true}]}" fill="#e6d8c0"/><path d="M231.58292,142.05332c0.70225,-0.26064 0.96559,0.43441 0.96559,0.43441l0.3252,0.85924c0.34582,0.77469 0.60212,1.58935 0.81128,2.41059c0,0 0.1819,0.72016 -0.54571,0.9002c-0.72761,0.18004 -0.90951,-0.54012 -0.90951,-0.54012c-0.18851,-0.75321 -0.42418,-1.49994 -0.74428,-2.2083l-0.34147,-0.90034c0,0 -0.26334,-0.69506 0.4389,-0.9557z" fill="#593800"/><path d="M239.85845,140.69648c0.7398,0.12204 0.6165,0.85425 0.6165,0.85425l-0.10091,0.53781c0,0.86181 0.00264,1.67031 -0.11865,2.5244c0,0 -0.10607,0.73486 -0.84853,0.62988c-0.74246,-0.10498 -0.6364,-0.83984 -0.6364,-0.83984c0.11516,-0.78343 0.10357,-1.52248 0.10357,-2.31444l0.12132,-0.78188c0,0 0.1233,-0.73223 0.86309,-0.61019z" fill="#593800"/><path d="M254.6005,150.72444c0.38587,0.63654 -0.25725,1.01845 -0.25725,1.01845l-0.5254,0.31103c-0.66712,0.43972 -1.35134,0.85534 -2.05179,1.24096c0,0 -0.65562,0.3605 -1.01985,-0.28841c-0.36423,-0.64891 0.29139,-1.00941 0.29139,-1.00941c0.6655,-0.36546 1.31517,-0.76028 1.94821,-1.17845l0.58571,-0.34881c0,0 0.64312,-0.38192 1.02899,0.25462z" fill="#593800"/><path d="M227.31913,149.82972c0.21694,0.04085 0.61047,0.18906 0.61047,0.72677c0,0.74232 -0.75,0.74232 -0.75,0.74232l-0.52714,-0.12467c-0.44444,-0.29327 -0.88889,-0.58652 -1.33333,-0.87979c0,0 -0.62404,-0.41177 -0.20801,-1.02941c0.41603,-0.61765 1.04006,-0.20588 1.04006,-0.20588c0.38932,0.25688 0.77863,0.51378 1.16795,0.77066z" fill="#593800"/><path d="M247.7147,162.16362l0.19397,0.45738c0.15714,0.93319 0.26311,1.19292 0.68395,2.02285c0.07869,0.15518 0.15783,0.50622 0.19275,0.74921c0.26225,-0.53762 1.61173,-1.69205 1.47225,-1.80487c-0.75465,-0.61041 -1.70226,-1.30386 -2.60697,-1.8059c-0.00556,0.08441 -0.01442,0.16559 -0.02883,0.24402c0.06192,0.07602 0.09288,0.13731 0.09288,0.13731zM247.87929,160.22327c0.87688,0.4389 3.26608,1.77253 3.70085,2.66437c0.55276,1.13387 -1.61363,4.37574 -2.99408,4.18106c-1.26365,-0.17821 -1.88331,-2.72708 -2.10772,-3.92669c-1.06052,0.29363 -3.56616,-0.14978 -4.55945,-0.15153c-3.65043,-0.00641 -7.47571,1.45096 -11.07226,0.3561c-0.49957,-3.65991 -0.46859,-7.696 -0.44033,-11.53354c-1.22403,-0.60462 -3.97841,-1.92896 -4.22576,-3.16748c-0.23568,-1.18009 1.48135,-3.21214 2.62683,-3.33881c1.65339,-0.18283 2.07017,1.87252 3.44693,2.54452l0.36416,0.4062c3.61379,-0.05994 7.21957,-0.36085 10.80043,-0.36085c0.54714,0 1.22851,-0.07915 1.89856,-0.07861c0.89263,-1.27096 2.00279,-3.22485 3.73312,-3.00287c1.70692,0.21897 4.04935,2.9824 3.0152,4.69433c-0.66735,1.10472 -2.82038,1.21728 -3.93647,1.77294l-0.05508,0.10839c0,0 -0.05327,0.05274 -0.14295,0.10806c-0.00627,0.24517 -0.01238,0.45597 -0.01238,0.60424c0,2.67679 -0.20457,5.36083 -0.24361,8.05499c0.12156,0.02439 0.20401,0.0652 0.20401,0.0652zM250.77201,148.75815c0.53564,-0.87161 -1.44373,-2.28648 -1.98481,-2.48144c-0.48875,-0.17611 -1.29577,0.89166 -1.90282,1.80049c0.34095,0.15098 0.631,0.38338 0.83548,0.73505c0.1122,0.19295 0.17115,0.55489 0.20009,0.97576c0.92282,-0.27748 2.59903,-0.61813 2.85206,-1.02985zM245.07536,149.34231c-0.00945,-0.00748 -0.01863,-0.01499 -0.02754,-0.02254c-0.70931,0.0123 -1.47033,0.06148 -1.62894,0.06148c-3.62874,0 -7.28628,0.30923 -10.94962,0.36318c-0.12396,0.03534 -0.23766,0.03033 -0.33757,0.00424c-0.07004,0.00072 -0.14009,0.00134 -0.21013,0.00186c0.03359,3.14777 0.37232,6.26823 0.37232,9.40461c0,0.8912 0.31588,2.52102 -0.30274,3.23179c0.84331,-0.47957 2.62966,-0.1849 3.62457,-0.26064c2.38254,-0.1814 4.64364,-0.62046 7.05317,-0.62046c1.05336,0 3.59478,0.6184 3.5,-0.49488c0,-3.57088 0.98879,-8.11647 0.19903,-11.55557c-0.0132,-0.05751 -0.15003,-0.09318 -0.35842,-0.11387c-0.17567,0.14089 -0.52653,0.32354 -0.93413,0.0008zM229.22331,146.76165c-0.25192,-0.34845 -1.5883,1.41037 -1.56608,1.62323c0.03227,0.30903 1.68704,1.21235 2.75959,1.76608c0.001,-0.23465 0.0017,-0.46822 0.00196,-0.70053c-0.07457,-0.10557 -0.1249,-0.24804 -0.1249,-0.44033c0,-0.26781 0.09762,-0.43901 0.22242,-0.54844c-0.49499,-0.4624 -0.77889,-0.98894 -1.29299,-1.70001z" fill="#2a2a2a"/><path d="M246.04519,149.30686c0.20839,0.02069 0.34641,0.05761 0.35962,0.11512c0.78976,3.4391 -0.19609,8.04799 -0.19609,11.61887c0.09478,1.11328 -2.46106,0.50759 -3.51442,0.50759c-2.40953,0 -4.72115,0.43925 -7.1037,0.62064c-0.99491,0.07575 -2.79324,-0.22855 -3.63655,0.25102c0.61862,-0.71077 0.29469,-2.35248 0.29469,-3.24369c0,-3.1364 -0.33195,-6.30987 -0.36555,-9.45764c0.07004,-0.00052 0.14056,-0.00168 0.2106,-0.00241c0.09991,0.02609 0.21441,0.03021 0.33837,-0.00514c3.66334,-0.05395 7.38464,-0.37186 11.01338,-0.37186c0.15861,0 0.92582,-0.04464 1.63512,-0.05693c0.00891,0.00754 0.01824,0.01518 0.02769,0.02267c0.40759,0.32274 0.76117,0.14263 0.93684,0.00174z" data-paper-data="{&quot;noHover&quot;:false,&quot;origItem&quot;:[&quot;Path&quot;,{&quot;applyMatrix&quot;:true,&quot;segments&quot;:[[[245.07536,148.93189],[0.40759,0.32608],[-0.00945,-0.00756]],[[245.04782,148.90912],[0.00891,0.00762],[-0.70931,0.01243]],[[243.41888,148.97124],[0.15861,0],[-3.62874,0]],[[232.46926,149.33818],[3.66334,-0.05451],[-0.12396,0.03571]],[[232.13169,149.34245],[0.09991,0.02636],[-0.07004,0.00073]],[[231.92156,149.34433],[0.07004,-0.00053],[0.03359,3.18033]],[[232.29388,158.84624],[0,-3.16884],[0,0.90042]],[[231.99115,162.11146],[0.61862,-0.71812],[0.84331,-0.48453]],[[235.61572,161.84812],[-0.99491,0.07653],[2.38254,-0.18328]],[[242.66888,161.22124],[-2.40953,0],[1.05336,0]],[[246.16888,160.72124],[0.09478,1.1248],[0,-3.60782]],[[246.36791,149.04612],[0.78976,3.47468],[-0.0132,-0.0581]],[[246.00949,148.93108],[0.20839,0.0209],[-0.17567,0.14235]]],&quot;closed&quot;:true}]}" fill="#474747"/><path d="M247.58969,161.98838c0.01441,-0.07843 0.02646,-0.16205 0.03203,-0.24646c0.90472,0.50204 1.93126,1.23588 2.68591,1.84628c0.13948,0.11282 -1.26436,1.31654 -1.52661,1.85416c-0.03492,-0.24299 -0.12538,-0.59632 -0.20407,-0.75151c-0.42084,-0.82993 -0.54752,-1.17062 -0.70466,-2.1038l-0.19008,-0.46105c0,0 -0.0306,-0.06159 -0.09252,-0.13762z" data-paper-data="{&quot;noHover&quot;:false,&quot;origItem&quot;:[&quot;Path&quot;,{&quot;applyMatrix&quot;:true,&quot;segments&quot;:[[247.7147,161.88583],[[247.90868,162.34794],[0,0],[0.15714,0.94284]],[[248.59262,164.39172],[-0.42084,-0.83852],[0.07869,0.15679]],[[248.78537,165.14868],[-0.03492,-0.2455],[0.26225,-0.54318]],[[250.25763,163.32513],[0.13948,0.11399],[-0.75465,-0.61672]],[[247.65065,161.50055],[0.90472,0.50723],[-0.00556,0.08528]],[[247.62182,161.7471],[0.01441,-0.07924],[0.06192,0.07681]]],&quot;closed&quot;:true}]}" fill="#525252"/><path d="M247.89637,149.83165c-0.02893,-0.42087 -0.10544,-0.7983 -0.21764,-0.99126c-0.20449,-0.35166 -0.50338,-0.61085 -0.84433,-0.76182c0.60704,-0.90883 1.46159,-2.02739 1.95035,-1.85128c0.54108,0.19496 2.56946,1.6773 2.03382,2.5489c-0.25303,0.41173 -1.99938,0.77797 -2.9222,1.05545z" data-paper-data="{&quot;noHover&quot;:false,&quot;origItem&quot;:[&quot;Path&quot;,{&quot;applyMatrix&quot;:true,&quot;segments&quot;:[[[250.77201,148.34169],[-0.25303,0.41599],[0.53564,-0.88063]],[[248.7872,145.83459],[0.54108,0.19698],[-0.48875,-0.17793]],[[246.88438,147.6537],[0.60704,-0.91823],[0.34095,0.15254]],[[247.71986,148.39635],[-0.20449,-0.3553],[0.1122,0.19495]],[[247.91995,149.3822],[-0.02893,-0.42522],[0.92282,-0.28035]]],&quot;closed&quot;:true}]}" fill="#525252"/><path d="M230.56629,148.46264c-0.1248,0.10943 -0.22738,0.30114 -0.22738,0.56895c0,0.19228 0.04489,0.34348 0.11946,0.44904c-0.00026,0.23232 -0.01012,0.47494 -0.01113,0.70959c-1.07255,-0.55373 -2.80771,-1.49802 -2.83998,-1.80706c-0.02222,-0.21286 1.36816,-2.01929 1.62008,-1.67086c0.51411,0.71107 0.84396,1.28793 1.33895,1.75032z" data-paper-data="{&quot;noHover&quot;:false,&quot;origItem&quot;:[&quot;Path&quot;,{&quot;applyMatrix&quot;:true,&quot;segments&quot;:[[[229.22331,146.32453],[0.51411,0.71843],[-0.25192,-0.35205]],[[227.65723,147.96455],[-0.02222,-0.21506],[0.03227,0.31223]],[[230.41682,149.7489],[-1.07255,-0.55946],[0.001,-0.23708]],[[230.41878,149.04112],[-0.00026,0.23472],[-0.07457,-0.10666]],[[230.29388,148.59624],[0,0.19427],[0,-0.27058]],[[230.5163,148.04213],[-0.1248,0.11056],[-0.49499,-0.46718]]],&quot;closed&quot;:true}]}" fill="#525252"/><path d="M231.95823,163.4542c-0.29442,-0.36907 -0.63498,-0.70615 -1.00787,-0.99755c0,0 -0.05008,-0.03965 -0.10923,-0.11026c-0.88684,0.55112 -1.097,1.08672 -0.71073,2.26515c0.05198,0.15859 0.35667,1.24309 0.70947,1.22863c0.17417,-0.00714 0.92065,-1.32499 1.39608,-2.2028zM231.75429,160.347c0.67082,0.33198 0.33541,0.99593 0.33541,0.99593l-0.05781,0.07275c0.39114,0.32779 0.7531,0.69267 1.07667,1.08551c0.1423,-0.03711 0.31587,-0.0286 0.52073,0.07278c0.67082,0.33198 0.33541,0.99593 0.33541,0.99593c-0.47307,0.93263 -1.77312,3.63154 -2.96681,3.74666c-1.52762,0.14732 -3.05086,-2.8059 -2.81736,-4.08525c0.20986,-1.14983 1.84851,-2.17167 2.77794,-2.63686l-0.21041,0.08454c0,0 0.33541,-0.66395 1.00623,-0.33198z" fill="#2a2a2a"/><path d="M232.28234,163.6189c-0.47543,0.87781 -1.27533,2.26313 -1.44951,2.27027c-0.3528,0.01446 -0.69436,-1.09535 -0.74634,-1.25394c-0.38627,-1.17843 -0.13921,-1.78673 0.74763,-2.33784c0.05915,0.07061 0.112,0.10995 0.112,0.10995c0.37289,0.29141 0.75778,0.64823 1.05221,1.01732z" data-paper-data="{&quot;noHover&quot;:false,&quot;origItem&quot;:[&quot;Path&quot;,{&quot;applyMatrix&quot;:true,&quot;segments&quot;:[[[231.95823,163.18976],[0,0],[-0.29442,-0.37289]],[[230.95036,162.18189],[0.37289,0.29442],[0,0]],[[230.84113,162.07049],[0.05915,0.07134],[-0.88684,0.55682]],[[230.13039,164.35906],[-0.38627,-1.19062],[0.05198,0.16023]],[[230.83987,165.60041],[-0.3528,0.01461],[0.17417,-0.00721]],[[232.23595,163.37482],[-0.47543,0.88689],[0,0]]],&quot;closed&quot;:true}]}" fill="#525252"/></g></g></svg>