<svg version="1.1" xmlns="http://www.w3.org/2000/svg" xmlns:xlink="http://www.w3.org/1999/xlink" width="52.75" height="52.75" viewBox="0,0,52.75,52.75"><g transform="translate(-213.625,-153.625)"><g data-paper-data="{&quot;isPaintingLayer&quot;:true}" fill-rule="nonzero" stroke-linecap="butt" stroke-linejoin="miter" stroke-miterlimit="10" stroke-dasharray="" stroke-dashoffset="0" style="mix-blend-mode: normal"><path d="M214.875,205.125v-50.25h50.25v50.25z" fill="#7f7f7f" stroke="#5e5e5e" stroke-width="2.5"/><path d="M229.99731,182.92659c0.00085,-1.63886 -0.95064,-3.4505 -0.20641,-4.90966c1.50153,-2.94397 4.58354,-0.29303 6.10438,-1.36136c2.00933,-1.41148 -0.82929,-4.19124 2.07908,-5.80726c1.71893,-0.95512 6.21191,-0.66697 7.7585,0.86175c0.73543,0.72694 0.69021,2.14577 1.58264,2.66815c0.56682,0.33178 1.39802,0.24517 1.82405,0.74503c0.70393,0.82591 1.46796,1.8895 1.33984,2.96711c-0.13635,1.14685 -2.3133,1.24703 -2.51381,2.38442c-0.08254,0.4682 0.17292,0.93499 0.25937,1.40248c-0.5124,1.40153 -2.00902,4.97922 -3.3119,5.83344c-1.59288,1.04436 -6.78316,1.31353 -8.80974,1.7027c-0.86407,0.16593 -1.81218,0.46411 -2.63514,0.15285c-1.21345,-0.45895 -2.30022,-2.79793 -2.86076,-3.79982l-0.65327,-1.30326c0,0 -0.41839,-0.83677 0.04318,-1.53656zM232.97913,183.56297l0.34587,0.69367c0.44044,0.79926 0.44069,2.06979 1.28432,2.41779c0.37186,0.15339 3.63124,-1.29063 4.00634,-1.34038c3.78337,-0.50182 4.8985,0.2841 6.52183,-3.82036c-0.1663,-2.05138 0.02611,-3.53187 2.30515,-4.08874c0.60269,-0.14726 -1.29945,-0.08073 -1.8102,-0.43294c-2.53536,-1.74842 -2.00069,-4.52962 -5.99564,-3.51673c-0.68936,0.17478 0.10039,1.4602 -0.14202,2.12878c-0.47083,1.29858 -0.84071,2.81313 -1.92398,3.67017c-1.1561,0.91466 -2.93008,0.36826 -4.40373,0.4072c-0.23074,0.0061 -0.67321,-0.34112 -0.6836,-0.11052c-0.05136,1.14057 0.61925,2.22637 0.62263,3.36809c0,0 0,0.29265 -0.12698,0.62398z" fill="#d6b991" stroke="none" stroke-width="0.5"/><path d="M233.04896,182.9635c-0.00338,-1.14172 -0.67894,-2.25535 -0.62758,-3.39592c0.01038,-0.23059 0.57706,0.12257 0.8078,0.11647c1.47366,-0.03894 3.12571,0.48778 4.28182,-0.42688c1.08327,-0.85704 1.50553,-2.41628 1.97636,-3.71486c0.24241,-0.66858 -0.54358,-1.95433 0.14578,-2.12911c3.99495,-1.01289 3.51886,1.80122 6.05421,3.54964c0.51075,0.35222 2.41677,0.29465 1.81409,0.44192c-2.27903,0.55687 -2.47072,2.07548 -2.30442,4.12686c-1.62333,4.10446 -2.81374,3.36076 -6.59712,3.86257c-0.37511,0.04975 -3.65778,1.48201 -4.02965,1.32861c-0.84362,-0.34799 -0.85719,-1.6334 -1.29763,-2.43265l-0.3489,-0.69895c0.12698,-0.33133 0.12523,-0.62771 0.12523,-0.62771z" data-paper-data="{&quot;noHover&quot;:false,&quot;origItem&quot;:[&quot;Path&quot;,{&quot;applyMatrix&quot;:true,&quot;segments&quot;:[[[341.12911,333.00357],[0.20422,-0.53289],[0,0]],[[341.68539,334.11923],[0,0],[0.70838,1.28547]],[[343.751,338.00784],[-1.35683,-0.55969],[0.59808,0.24671]],[[350.19454,335.85206],[-0.6033,0.08002],[6.08493,-0.80709]],[[360.68382,329.70765],[-2.61086,6.60134],[-0.26747,-3.29931]],[[364.39127,323.13159],[-3.66545,0.89563],[0.96932,-0.23685]],[[361.47987,322.43527],[0.82145,0.56648],[-4.0777,-2.81204]],[[351.83687,316.77919],[6.42522,-1.62907],[-1.10872,0.28111]],[[351.60846,320.20298],[0.38987,-1.0753],[-0.75725,2.08855]],[[348.51405,326.10584],[1.74226,-1.37841],[-1.8594,1.47108]],[[341.43138,326.76075],[2.37013,-0.06263],[-0.37111,0.00981]],[[340.33193,326.58299],[0.0167,-0.37087],[-0.08261,1.83441]],[[341.33333,332],[-0.00544,-1.83626],[0,0]]],&quot;closed&quot;:true}]}" fill="#e5c69b" stroke="none" stroke-width="0.5"/><path d="M241.57332,177.85524c-0.30484,1.52422 -1.82906,1.21937 -1.82906,1.21937l-0.11912,-0.30275c-0.48359,0.20725 -0.96718,0.41451 -1.45078,0.62176c0,0 -1.42872,0.61231 -2.04103,-0.81641c-0.61231,-1.42872 0.81641,-2.04103 0.81641,-2.04103c0.48359,-0.20725 0.96718,-0.41451 1.45078,-0.62176l1.95342,0.11176c0,0 1.52422,0.30484 1.21937,1.82906z" fill="#d6b991" stroke="none" stroke-width="0.5"/><path d="M240.82871,182.7729c0.9951,1.19413 -0.19902,2.18923 -0.19902,2.18923l-0.92208,0.6685c-0.07435,0.40289 -0.14871,0.80578 -0.22306,1.20867c0,0 -0.377,1.50799 -1.88499,1.13099c-1.50799,-0.377 -1.13099,-1.88499 -1.13099,-1.88499c0.20198,-0.70246 0.40397,-1.40493 0.60595,-2.10739l1.56497,-1.40403c0,0 1.19413,-0.9951 2.18923,0.19902z" fill="#d6b991" stroke="none" stroke-width="0.5"/></g></g></svg>