<svg version="1.1" xmlns="http://www.w3.org/2000/svg" xmlns:xlink="http://www.w3.org/1999/xlink" width="173.03535" height="248.95445" viewBox="0,0,173.03535,248.95445"><g transform="translate(-185.5234,-69.25)"><g stroke="none" stroke-miterlimit="10"><path d="M195.3963,72.68724c4.20783,-1.10495 9.44533,-0.98241 13.83227,-0.98241c7.47731,-0.12797 15.34609,-0.50324 23.00893,-0.50324c8.21257,0 16.29162,-0.50156 24.51099,-0.50156c8,0 16.01094,0.00088 24.01094,0.00088c8.51108,0 17.11318,0.50317 25.51033,0.50317c2.472,-0.05992 5.43948,0.90887 7.83064,1.48133c2.51866,0.60298 5.51516,-0.65178 8.00255,0.00139c1.41751,0.37223 3.15635,0.99677 4.64341,0.30126c-1.06091,2.26831 -0.21803,6.43455 -0.21803,8.97075c0,5.72607 -0.99659,11.30313 -0.99659,17.00257c0,9.54295 -0.49232,19.34493 -0.49232,29.00787c0,9.70531 1.00274,19.23526 1.00798,28.89009c0.00052,8.59451 0.50251,17.43287 0.50251,26.14387c0,7.82887 0.99635,15.55578 0.99635,23.51582c0,6.08099 -0.23293,12.6489 0.98069,18.56096c0.43186,2.10379 -0.46829,4.1201 0.53295,6.12258c-0.07364,4.87285 0.47618,9.49727 0.47618,14.33208c0,3.50977 -0.62744,7.71336 0.48289,11.05451c0.11028,7.25631 0.51001,14.17468 0.51001,21.45162c0,1.33333 -0.00076,2.6672 -0.00076,4.00053c0,0.49533 0.56971,1.11956 0.21946,1.46981c-0.13317,0.13317 -3.95009,-0.21888 -4.47088,-0.21888c-4,0 -8.00373,0.00215 -12.00373,0.00215c-9.76274,0 -19.4727,0.86837 -29.18379,1.02433c-3.01989,1.50994 -7.24521,0.24617 -10.5049,1.00092c-4.82604,1.11742 -10.28506,0.98037 -15.3347,0.98037c-7.46515,0 -14.61306,0.49893 -22.00996,0.49893c-7.16544,0 -14.52452,-0.50269 -21.50873,-0.50269c-2.08481,0 -3.88595,-0.01551 -5.82984,-0.48089c-0.78404,-0.1877 -2.07763,0.32527 -2.77895,0.0915c-0.09029,-0.0301 1.11564,-3.75034 1.33538,-4.18982l-0.05056,-0.17234l0.0706,0.00001l-0.00018,-1.00009c0,-0.41421 -0.33618,-0.7502 -0.75039,-0.7502c-0.2994,0 -0.55799,0.17536 -0.67824,0.42904l-0.44949,0.899c-0.33671,0.26312 -0.62398,0.35954 -0.73467,0.02746c-0.23377,-0.70132 0.27918,-1.99423 0.09148,-2.77827c-1.05274,-4.39732 0.05047,-9.89409 -2.00354,-14.00212c0.08741,-3.60594 0.01747,-7.22246 0.01747,-10.8295c0,-1.57914 0.34523,-3.64179 -0.02144,-5.17339c-0.38147,-1.59342 -1.00174,-3.33648 -1.00174,-5.00147c-0.30732,-0.61464 -0.50074,-1.31348 -0.50074,-2.00067l-0.10814,-0.13869l0.04896,-0.02447l-0.49318,-0.98588c-0.12026,-0.25368 -0.37902,-0.42944 -0.67842,-0.42944c-0.24674,0 -0.46574,0.11906 -0.60242,0.30295c-0.02929,-0.94005 -0.14847,-1.8952 -0.14847,-2.55383c0,-4.73793 -0.5045,-9.20784 -0.5045,-14.00524c0,-2.64026 0.35591,-5.02303 0.46593,-7.58718c0.25509,-0.00819 0.58814,-0.07055 1.01905,-0.2045c1.00942,-0.31377 1.15815,-2.10603 0.99202,-2.88504c-0.64131,-3.00725 -1.21995,-6.02385 -2.00306,-9.00607c-0.61047,-2.32479 -0.3879,-4.77728 -1.50186,-7.00521c0.06072,-2.50494 -0.37041,-5.60323 -1.00141,-8.00618c-0.43565,-1.65904 0.01953,-4.10308 0.01953,-5.83228c0,-2.4522 -0.50007,-4.64266 -0.50007,-7.00562c0,-4.33333 0.00147,-8.67669 0.00147,-13.01002c0,-2.62575 0.14755,-5.84589 -1.01837,-8.17772c0.05034,-2.07662 -0.4858,-4.05071 -0.99857,-6.00341c-0.24257,-0.92374 0.22661,-2.05857 0.00082,-3.00169c-0.89649,-3.74466 -0.97668,-7.89201 -0.97668,-11.83317c0,-7.29914 -1.49414,-14.6453 -1.49414,-22.00708c-0.12045,-7.03828 -1.99548,-13.79105 -1.99548,-21.00402c0,-1.88859 -0.05507,-3.4059 -0.51911,-5.17305c-0.65311,-2.48715 0.62481,-5.48814 0.00159,-8.00114c-0.267,-1.07662 -0.80707,-2.50167 -1.30478,-3.61464c2.19901,-0.17321 4.11682,-0.9246 6.24951,-1.48463z" fill="#eedbb7" stroke-width="0.5"/><path d="M242.16667,281.58333c0.75,0 0.75,0.75 0.75,0.75l-0.03849,0.5705c-0.63436,1.83928 -0.73326,2.99349 -2.36717,3.81669c6.2506,-0.10726 12.37594,-0.47052 18.73899,-0.47052c5.04963,0 10.50153,0.13751 15.32757,-0.97991c3.25969,-0.75475 7.48023,0.50992 10.50012,-1.00003c9.71109,-0.15596 19.40958,-1.02006 29.17232,-1.02006c4,0 8,0 12,0c0.52079,0 4.3365,0.35284 4.46967,0.21967c0.35025,-0.35025 -0.21967,-0.97434 -0.21967,-1.46967c0,-1.33333 0,-2.66667 0,-4c0,-7.27694 -0.40421,-14.19172 -0.51449,-21.44803c-1.11033,-3.34115 -0.48551,-7.5422 -0.48551,-11.05197c0,-4.8348 -0.55357,-9.45483 -0.47994,-14.32769c-1.00124,-2.00248 -0.10269,-4.01655 -0.53455,-6.12034c-1.21362,-5.91206 -0.98551,-12.47098 -0.98551,-18.55197c0,-0.61426 -0.00595,-1.22703 -0.01695,-1.83849c-0.11189,-0.06301 -0.18005,-0.13118 -0.18005,-0.13118c-2.57079,-2.66499 -0.75032,-6.44536 -3.44099,-9.13603l-0.40686,-1.15713c0,0 -0.23717,-0.71151 0.47434,-0.94868c0.71151,-0.23717 0.94868,0.47434 0.94868,0.47434l0.25981,0.84287c0.79518,0.79518 1.798,2.30217 2.07149,3.46166c-0.29526,-5.03884 -0.70948,-10.02871 -0.70948,-15.06736c0,-8.711 -0.49955,-17.53044 -0.50007,-26.12495c-0.00524,-9.65483 -0.99993,-19.16974 -0.99993,-28.87505c0,-9.66294 0.5,-19.45705 0.5,-29c0,-1.69932 0.0889,-3.38753 0.21368,-5.07196c-1.29524,1.71558 -1.78836,4.13623 -2.14003,6.1921c-0.55096,3.22088 -1.65698,5.51061 -1.65698,8.87986v1c0,0 0,0.75 -0.75,0.75c-0.75,0 -0.75,-0.75 -0.75,-0.75v-1c0,-1.31033 -0.20481,-2.82959 0.00968,-4.12014c0.2847,-1.71298 1.39024,-3.29083 1.66667,-5c0.4468,-2.76263 1.23826,-5.69956 3.20999,-7.74353c0,0 0.24822,-0.24822 0.57485,-0.23521c0.28322,-3.28538 0.62215,-6.56757 0.62215,-9.90113c0,-2.53619 -0.84124,-6.70136 0.21967,-8.96967c-1.48705,0.69551 -3.22448,0.07183 -4.64198,-0.30039c-2.48739,-0.65317 -5.48134,0.60298 -8,0c-2.39116,-0.57246 -5.35569,-1.53986 -7.82769,-1.47994c-5.57575,0 -11.23731,-0.22045 -16.90408,-0.36859l-0.31559,0.31559c-1.41429,1.3643 -2.35052,0.92124 -4.07686,1.20999c-2.05071,0.343 -4.09065,2.03912 -6.24027,1.66667c-1.72033,-0.29807 -3.20624,-1.84093 -4.62922,-2.78294c0,0 -0.30608,-0.20405 -0.34661,-0.5407c-5.66246,0 -11.32491,0 -16.98737,0c-8.21938,0 -16.28743,0.5 -24.5,0.5c-7.66284,0 -15.52269,0.37203 -23,0.5c-4.38694,0 -9.61985,-0.12501 -13.82769,0.97994c-2.13269,0.56003 -4.04847,1.31011 -6.24747,1.48332c0.4977,1.11297 1.03809,2.5378 1.3051,3.61442c0.62322,2.513 -0.65311,5.51285 0,8c0.46404,1.76715 0.52006,3.28372 0.52006,5.17231c0,7.21296 1.87955,13.96172 2,21c0,2.26576 0.14209,4.52937 0.3388,6.79033c0.39168,-0.35347 0.93266,-0.50062 1.82787,-0.54033l1.00208,0.41251c0,0 0.67082,0.33541 0.33541,1.00623c-0.33541,0.67082 -1.00623,0.33541 -1.00623,0.33541l-0.33126,-0.25415c-1.05159,-0.0842 -0.98127,0.15716 -1.28849,1.15384c0,0 -0.08398,0.25195 -0.30193,0.40602c0.42288,4.24117 0.92375,8.47232 0.92375,12.69014c0,3.94115 0.08345,8.08303 0.97994,11.82769c0.22579,0.94312 -0.24257,2.07626 0,3c0.51277,1.95271 1.05034,3.92338 1,6c1.16592,2.33183 1.02006,5.54656 1.02006,8.17231c0,4.33333 0,8.66667 0,13c0,2.36296 0.5,4.5478 0.5,7c0,1.72921 -0.45571,4.16865 -0.02006,5.82769c0.631,2.40296 1.06072,5.49506 1,8c1.11396,2.22793 0.88953,4.67521 1.5,7c0.78311,2.98222 1.35869,5.99275 2,9c0.16613,0.77902 0.01665,2.57006 -0.99277,2.88383c-0.43091,0.13395 -0.76382,0.19653 -1.01891,0.20472c-0.11001,2.56415 -0.46826,4.9435 -0.46826,7.58376c0,4.7974 0.5,9.26207 0.5,14c0,0.65863 0.11838,1.61299 0.14767,2.55304c0.13668,-0.1839 0.35559,-0.30304 0.60233,-0.30304c0.2994,0 0.55783,0.17544 0.67809,0.42912l0.49273,0.98547l-0.04895,0.02447l0.10807,0.13862c0,0.68718 0.19268,1.38536 0.5,2c0,1.66499 0.61853,3.40658 1,5c0.36667,1.5316 0.02006,3.59318 0.02006,5.17231c0,3.60704 0.06735,7.22175 -0.02006,10.82769c2.05401,4.10803 0.94726,9.60268 2,14c0.1877,0.78404 -0.32572,2.07669 -0.09195,2.77802c0.11069,0.33208 0.39772,0.23554 0.73443,-0.02759l0.4495,-0.89899c0.12026,-0.25368 0.37868,-0.42912 0.67809,-0.42912c0.41421,0 0.75,0.33579 0.75,0.75v1h-0.07058l0.05051,0.17231c-0.21974,0.43948 -1.42593,4.1596 -1.33564,4.1897c0.70132,0.23377 1.99397,-0.27965 2.77802,-0.09195c1.94389,0.46538 3.74287,0.47994 5.82769,0.47994c6.98421,0 14.33456,0.5 21.5,0.5c0.53941,0 1.07744,-0.00266 1.61432,-0.00759c-0.02862,-0.05001 -0.0542,-0.10701 -0.07583,-0.17191c-0.23717,-0.71151 0.47434,-0.94868 0.47434,-0.94868c1.90061,-0.58585 1.65918,-1.5478 2.19233,-3.19233l-0.03849,-0.09616c0,0 0,-0.75 0.75,-0.75zM278.95347,72.59302c1.86673,0.29028 3.9415,-1.36447 5.75973,-1.66667c0.85141,-0.14151 1.48802,0.01427 2.09853,-0.1054c-2.02267,-0.04286 -4.04446,-0.07095 -6.06173,-0.07095c-1.63178,0 -3.26357,0 -4.89535,0c0.97078,0.77549 2.05412,1.68057 3.09882,1.84302zM187.51786,73.68848c-0.01152,-0.05687 -0.01786,-0.11951 -0.01786,-0.18848c0,-0.26047 0.09046,-0.43048 0.20855,-0.54145c0.11097,-0.11809 0.28098,-0.20855 0.54145,-0.20855c2.47312,0 4.49955,-0.92257 6.82769,-1.47994c4.40175,-1.0538 9.61401,-1.02006 14.17231,-1.02006c1.13556,0.02753 1.82047,-0.48911 3,-0.5c6.6654,-0.06156 13.3343,0 20,0c8.21274,0 16.27996,-0.5 24.5,-0.5c8,0 16,0 24,0c8.50973,0 17.10422,0.5 25.5,0.5c2.64,0.04518 5.63748,0.85443 8.17231,1.52006c1.65904,0.43565 4.09848,-0.02006 5.82769,-0.02006c2.43778,0 5.05753,0.36471 7.53033,0.71967c1.29459,9.01874 -0.78033,18.1418 -0.78033,27.03033c0,9.54513 -0.5,19.33585 -0.5,29c0,9.70533 0.99464,19.2195 0.99993,28.8746c0.00052,8.59236 0.50007,17.41556 0.50007,26.1254c0,7.82501 1,15.54037 1,23.5c0,6.025 -0.18066,12.4334 0.96317,18.29408c0.40322,2.06597 -0.44871,4.10266 0.51676,6.03361c0.05967,4.97321 0.52006,9.73413 0.52006,14.67231c0,3.42435 -0.62588,7.53696 0.46317,10.79408c0.22526,7.33251 0.53683,14.35106 0.53683,21.70592c0,1.22153 0.65065,5.66001 -0.21967,6.53033c-0.6274,0.6274 -3.64915,0.21967 -4.53033,0.21967c-4.33333,0 -8.66667,0 -13,0c-9.6276,0 -19.26049,1.19204 -28.82768,0.97994c-3.04072,1.52036 -7.26196,0.18432 -10.49988,0.99997c-4.87676,1.22849 -10.56887,1.02009 -15.67243,1.02009c-7.46604,0 -14.60034,0.5 -22,0.5c-7.16174,0 -14.52093,-0.5 -21.5,-0.5c-2.19164,0 -4.11486,0.02021 -6.17231,-0.52006c-0.83661,-0.21969 -2.50752,0.46374 -3.22198,-0.09195c-1.10752,-0.8614 -0.59477,-2.86287 0.02636,-4.40573c-0.6312,-0.00197 -1.34968,-0.29749 -1.77005,-0.83796c-0.55569,-0.71446 0.12774,-2.38537 -0.09195,-3.22198c-1.16087,-4.42082 0.0721,-9.85579 -2,-14c-0.06371,-3.72268 -0.02006,-7.44907 -0.02006,-11.17231c0,-1.42869 0.37995,-3.45717 0.02006,-4.82769c-0.41004,-1.56149 -1,-3.3695 -1,-5c-0.19379,-0.38758 -0.342,-0.80838 -0.42505,-1.23869c-0.0299,0.06854 -0.06187,0.13543 -0.09501,0.20009v0.86629c0,0.41421 -0.33579,0.75 -0.75,0.75c-0.2994,0 -0.55783,-0.17544 -0.67809,-0.42912l-0.49273,-0.98547l0.34242,-0.17121c-0.77314,-1.84964 -0.4216,-3.90733 -0.4216,-6.1642c0,-4.36115 -0.5,-8.54907 -0.5,-13c0,-3.12579 0.5,-5.88082 0.5,-9v-1v0c0,-0.41421 0.33579,-0.75 0.75,-0.75c0.2994,0 0.55783,0.17544 0.67809,0.42912l0.49273,0.98547l-0.26933,0.13467c0.11098,0.06139 0.23,0.06702 0.36134,-0.01077c0.18241,-0.10804 -0.40331,-3.77551 -0.49277,-4.11617c-1.08255,-4.12255 -1.07911,-9.15821 -3,-13c-0.11868,-6.93482 -1.52006,-14.16213 -1.52006,-21.17231c0,-4.33333 0,-8.66667 0,-13c0,-2.54462 0.14886,-5.57008 -0.97994,-7.82769c-0.03633,-2.12283 -0.52109,-3.99957 -1,-6c-0.22579,-0.94312 0.24257,-2.07626 0,-3c-0.99781,-3.79984 -1.02006,-8.16695 -1.02006,-12.17231c0,-7.2972 -1.5,-14.63658 -1.5,-22c0.04985,-2.05666 -0.49729,-4.81166 -0.97994,-6.82769c-0.22579,-0.94312 0.24257,-2.07626 0,-3c-0.9507,-3.62045 -1.02006,-7.31895 -1.02006,-11.17231c0,-2.10177 -0.48172,-4.02125 -0.5,-6c-0.03441,-3.72539 0.32237,-7.3556 -1.42082,-10.66459zM327.33209,200.32997c-0.00454,0.40981 0.00019,0.81175 0.05486,1.20221c-0.01687,-0.40117 -0.03524,-0.80189 -0.05486,-1.20221z" fill="#b0a287" stroke-width="0.5"/><path d="M224.40384,242.62182c0.71151,0.23717 0.47434,0.94868 0.47434,0.94868l-0.30453,0.88297c0.08921,8.10532 2.67635,15.75787 2.67635,23.87986c0,4.68893 -0.01766,9.17593 -0.67229,13.7583c-0.28369,1.98583 -0.42087,3.92535 -1.88072,5.43869c0,0 -0.53033,0.53033 -1.06066,0c-0.53033,-0.53033 0,-1.06066 0,-1.06066c1.21986,-1.15794 1.22951,-2.99958 1.45262,-4.56131c0.64611,-4.52277 0.66105,-8.94482 0.66105,-13.57503c0,-8.20031 -2.72793,-15.91357 -2.65698,-24.12014l0.36214,-1.11703c0,0 0.23717,-0.71151 0.94868,-0.47434z" fill="#cfbf9f" stroke-width="0.5"/><path d="M209.83333,219.25c0.75,0 0.75,0.75 0.75,0.75c0,0.33333 0,2 0,2.33333c0,5 0,10 0,15c0,3.01061 0.27355,6.60378 -0.67635,9.45347c0.04941,4.48898 -0.04592,10.79406 -2.08767,14.91605c-0.74699,1.50807 -2.05379,2.91761 -3.02861,4.37983c0,0 -0.41603,0.62404 -1.04006,0.20801c-0.62404,-0.41603 -0.20801,-1.04006 -0.20801,-1.04006c0.95742,-1.43614 2.22813,-2.81683 2.97139,-4.28683c1.98977,-3.93531 1.87515,-10.11685 1.91233,-14.41728c0.92744,-2.78233 0.65698,-6.27134 0.65698,-9.2132c0,-5 0,-10 0,-15c0,-0.33333 0,-0.66667 0,-1v-1.33333c0,0 0,-0.75 0.75,-0.75z" fill="#cfbf9f" stroke-width="0.5"/><path d="M293.01524,223.93906c0.72761,0.1819 0.54571,0.90951 0.54571,0.90951l-0.31656,1.24307c0.01947,4.30267 0.00562,8.60565 0.00562,12.90836c0,8.21312 -0.28059,16.40047 2.32365,24.2132c0.05134,6.82188 -0.32365,13.71575 -0.32365,20.45347c0,0 0,0.75 -0.75,0.75c-0.75,0 -0.75,-0.75 -0.75,-0.75c0,-6.64936 0.28075,-13.48397 0.34302,-20.2132c-2.62601,-7.87804 -2.34302,-16.17108 -2.34302,-24.45347c0,-4.36383 -0.01159,-8.72784 0.00562,-13.09164l0.35011,-1.4236c0,0 0.1819,-0.72761 0.90951,-0.54571z" fill="#cfbf9f" stroke-width="0.5"/><path d="M316.98476,201.93906c0.72761,-0.1819 0.90951,0.54571 0.90951,0.54571l0.32582,1.30554c0.70077,2.15955 0.64459,4.5315 1.02138,6.76355c0.85839,5.08497 2.04002,10.04455 3.94271,14.80557c0.8867,1.77704 1.7639,3.91718 2.36697,5.75657c0.33177,1.0119 0.09601,2.18299 0.62258,3.22116c1.67346,3.29933 2.85947,6.89077 4.03778,10.42568c0,0 0.23717,0.71151 -0.47434,0.94868c-0.71151,0.23717 -0.94868,-0.47434 -0.94868,-0.47434c-1.16081,-3.48244 -2.35076,-6.9763 -3.96222,-10.24099c-1.39491,-2.82597 -1.54142,-6.09041 -3.01044,-9.02227c-1.95861,-4.8924 -3.16797,-9.97548 -4.05729,-15.19443c-0.36614,-2.14867 -0.26936,-4.50741 -0.97862,-6.56979l-0.34085,-1.36112c0,0 -0.1819,-0.72761 0.54571,-0.90951z" fill="#cfbf9f" stroke-width="0.5"/><path d="M305.16667,115.75c-0.75,0 -0.75,-0.75 -0.75,-0.75v-1c0,-7.00771 -0.40483,-14.26098 1.43771,-21.01548c0.61613,-3.632 2.15895,-7.19345 3.61938,-10.60487c1.42167,-3.32089 2.84632,-5.5477 1.64806,-9.14248c0,0 -0.23717,-0.71151 0.47434,-0.94868c0.71151,-0.23717 0.94868,0.47434 0.94868,0.47434c2.28764,6.86292 -4.12495,13.81178 -5.22576,20.54516c-1.85424,6.62077 -1.40242,13.81255 -1.40242,20.69201v1c0,0 0,0.75 -0.75,0.75z" fill="#cfbf9f" stroke-width="0.5"/><path d="M242.49792,110.67082c-0.67082,-0.33541 -0.33541,-1.00623 -0.33541,-1.00623l0.6888,-1.37437c1.51871,-2.2365 2.09632,-5.00895 2.95577,-7.57723c2.8872,-5.58802 -0.05709,-13.40048 -0.05709,-19.37965c0,0 0,-0.75 0.75,-0.75c0.75,0 0.75,0.75 0.75,0.75c0,6.33799 2.86026,13.95047 -0.05709,19.95368c-0.88067,2.65415 -1.51314,5.42201 -3.04423,7.7561l-0.64453,1.2923c0,0 -0.33541,0.67082 -1.00623,0.33541z" fill="#cfbf9f" stroke-width="0.5"/><path d="M235.83333,70.25c0.75,0 0.75,0.75 0.75,0.75l-0.03849,0.4295c0.33018,1.01846 0.2933,1.91302 0.62889,2.90766c3.4129,5.34048 2.34467,13.64599 0.37111,19.56668c0,0 -0.23717,0.71151 -0.94868,0.47434c-0.71151,-0.23717 -0.47434,-0.94868 -0.47434,-0.94868c1.79354,-5.38063 3.07876,-13.62144 -0.29556,-18.43332c-0.3598,-1.08807 -0.33789,-2.02955 -0.70444,-3.09234l-0.03849,-0.90384c0,0 0,-0.75 0.75,-0.75z" fill="#cfbf9f" stroke-width="0.5"/><path d="M201.83333,101.08333c-0.75,0 -0.75,-0.75 -0.75,-0.75c0,-1.5 0,-3.66667 0,-5.16667c0,-7.72056 0.33333,-15.50905 0.33333,-23.16667c0,0 0,-0.75 0.75,-0.75c0.75,0 0.75,0.75 0.75,0.75c0,7.65863 -0.33333,15.44534 -0.33333,23.16667c0,1.5 0,3 0,4.5v0.66667c0,0 0,0.75 -0.75,0.75z" fill="#cfbf9f" stroke-width="0.5"/><path d="M313.83333,132.83333c0,4.51033 -3.8802,8.16667 -8.66667,8.16667c-4.78647,0 -8.66667,-3.65634 -8.66667,-8.16667c0,-4.51033 3.8802,-8.16667 8.66667,-8.16667c4.78647,0 8.66667,3.65634 8.66667,8.16667z" fill="#e5d4b0" stroke-width="0"/><path d="M304.83333,140.33333c0,3.31371 -3.13401,6 -7,6c-3.86599,0 -7,-2.68629 -7,-6c0,-3.31371 3.13401,-6 7,-6c3.86599,0 7,2.68629 7,6z" fill="#e5d4b0" stroke-width="0"/><path d="M313.15538,181.16667c0,3.58985 -1.93757,6.5 -4.32769,6.5c-2.39012,0 -4.32769,-2.91015 -4.32769,-6.5c0,-3.58985 1.93757,-6.5 4.32769,-6.5c2.39012,0 4.32769,2.91015 4.32769,6.5z" fill="#e5d4b0" stroke-width="0"/><path d="M211.5,150.33333c0,2.02504 -2.16396,3.66667 -4.83333,3.66667c-2.66938,0 -4.83333,-1.64162 -4.83333,-3.66667c0,-2.02504 2.16396,-3.66667 4.83333,-3.66667c2.66938,0 4.83333,1.64162 4.83333,3.66667z" fill="#e5d4b0" stroke-width="0"/><path d="M226.16667,88.66667c0,2.76142 -2.01472,5 -4.5,5c-2.48528,0 -4.5,-2.23858 -4.5,-5c0,-2.76142 2.01472,-5 4.5,-5c2.48528,0 4.5,2.23858 4.5,5z" fill="#e5d4b0" stroke-width="0"/><path d="M235.83333,95.83333c0,3.40576 -2.91015,6.16667 -6.5,6.16667c-3.58985,0 -6.5,-2.76091 -6.5,-6.16667c0,-3.40576 2.91015,-6.16667 6.5,-6.16667c3.58985,0 6.5,2.76091 6.5,6.16667z" fill="#e5d4b0" stroke-width="0"/><path d="M273.83333,77.66667c0,1.10457 -0.89543,2 -2,2c-1.10457,0 -2,-0.89543 -2,-2c0,-1.10457 0.89543,-2 2,-2c1.10457,0 2,0.89543 2,2z" fill="#e5d4b0" stroke-width="0"/><path d="M252.5,218.5c0,2.66938 -5.29796,4.83333 -11.83333,4.83333c-6.53537,0 -11.83333,-2.16396 -11.83333,-4.83333c0,-2.66938 5.29796,-4.83333 11.83333,-4.83333c6.53537,0 11.83333,2.16396 11.83333,4.83333z" fill="#e5d4b0" stroke-width="0"/><path d="M251.16667,227c0,3.4978 -2.38781,6.33333 -5.33333,6.33333c-2.94552,0 -5.33333,-2.83553 -5.33333,-6.33333c0,-3.4978 2.38781,-6.33333 5.33333,-6.33333c2.94552,0 5.33333,2.83553 5.33333,6.33333z" fill="#e5d4b0" stroke-width="0"/><path d="M258.83333,232.16667c0,2.30119 -2.61167,4.16667 -5.83333,4.16667c-3.22166,0 -5.83333,-1.86548 -5.83333,-4.16667c0,-2.30119 2.61167,-4.16667 5.83333,-4.16667c3.22166,0 5.83333,1.86548 5.83333,4.16667z" fill="#e5d4b0" stroke-width="0"/><path d="M310.16667,259.66667c0,1.65685 -1.19391,3 -2.66667,3c-1.47276,0 -2.66667,-1.34315 -2.66667,-3c0,-1.65685 1.19391,-3 2.66667,-3c1.47276,0 2.66667,1.34315 2.66667,3z" fill="#e5d4b0" stroke-width="0"/><text transform="translate(203.49065,105.77714) scale(0.1267,0.1267)" font-size="40" xml:space="preserve" fill="#60594a" stroke-width="1" font-family="Sans Serif" font-weight="normal" text-anchor="start"><tspan x="0" dy="0">*Added New Tiles</tspan><tspan x="0" dy="46.150000000000006px">    *Tesla Coil</tspan><tspan x="0" dy="46.150000000000006px">    *Hand Crank</tspan><tspan x="0" dy="46.150000000000006px">    *Generator</tspan><tspan x="0" dy="46.150000000000006px">    *Ballista</tspan><tspan x="0" dy="46.150000000000006px">    *Anvil</tspan><tspan x="0" dy="46.150000000000006px">    *Charcoal Furnace</tspan><tspan x="0" dy="46.150000000000006px">    *Statue</tspan><tspan x="0" dy="46.150000000000006px">    *Engraved Stone</tspan><tspan x="0" dy="46.150000000000006px">    *Disco Flooring</tspan><tspan x="0" dy="46.150000000000006px">*Removed Tiles</tspan><tspan x="0" dy="46.150000000000006px">    *Voltaic Pile</tspan><tspan x="0" dy="46.150000000000006px">*New Enemies:</tspan><tspan x="0" dy="46.150000000000006px">    *Beetle</tspan><tspan x="0" dy="46.150000000000006px">    *Golem</tspan><tspan x="0" dy="46.150000000000006px">    *Grub</tspan><tspan x="0" dy="46.150000000000006px">*Fixed LOTS AND LOTS of bugs</tspan><tspan x="0" dy="46.150000000000006px">*Tweaked sprites and rendering </tspan><tspan x="0" dy="46.150000000000006px">*Added Pickaxe Upgrades</tspan><tspan x="0" dy="46.150000000000006px">    *Basic</tspan><tspan x="0" dy="46.150000000000006px">    *Iron</tspan><tspan x="0" dy="46.150000000000006px">    *Reinforced</tspan><tspan x="0" dy="46.150000000000006px">    *Laser</tspan><tspan x="0" dy="46.150000000000006px">*Flooring can be placed under tiles</tspan><tspan x="0" dy="46.150000000000006px">*Distributors can be turned on and off</tspan><tspan x="0" dy="46.150000000000006px">*New Gun</tspan><tspan x="0" dy="46.150000000000006px">    *SMG</tspan><tspan x="0" dy="46.150000000000006px">*Changed save codes (beta 1.9 worlds </tspan><tspan x="0" dy="46.150000000000006px">wont be compatible)</tspan><tspan x="0" dy="46.150000000000006px">*Added death animation</tspan></text><text transform="translate(202.91666,95.31458) scale(0.5,0.5)" font-size="40" xml:space="preserve" fill="#60594a" stroke-width="1" font-family="Sans Serif" font-weight="normal" text-anchor="start"><tspan x="0" dy="0">Changelog:</tspan></text><text transform="translate(185.64947,303.41585) scale(0.25215,0.25215)" font-size="40" xml:space="preserve" fill="#ffffff" stroke-width="1" font-family="Sans Serif" font-weight="normal" text-anchor="start"><tspan x="0" dy="0">R1.0.1</tspan><tspan x="0" dy="46.150000000000006px">Created by WheatenEye/Angrymilk_</tspan></text><text transform="translate(252.7956,123.12849) scale(0.11019,0.11019)" font-size="40" xml:space="preserve" fill="#60594a" stroke-width="1" font-family="Sans Serif" font-weight="normal" text-anchor="start"><tspan x="0" dy="0">*Added Music</tspan><tspan x="0" dy="46.150000000000006px">    *Orange - Waterflame</tspan><tspan x="0" dy="46.150000000000006px">    *Chaotic - Waterflame</tspan><tspan x="0" dy="46.150000000000006px">    *Flight of Fantasy - Rickvanman</tspan><tspan x="0" dy="46.150000000000006px">    *Efficiency - Rickvanman</tspan><tspan x="0" dy="46.150000000000006px">    *Childhood Memories </tspan><tspan x="0" dy="46.150000000000006px">     of Winter - Rickvanman</tspan><tspan x="0" dy="46.150000000000006px">*Optimized code</tspan></text><text transform="translate(251.01273,166.38084) scale(0.11019,0.11019)" font-size="40" xml:space="preserve" fill="#60594a" stroke-width="1" font-family="Sans Serif" font-weight="normal" text-anchor="start"><tspan x="0" dy="0">*1.0.1 Changes:</tspan><tspan x="0" dy="46.150000000000006px">   *Updated controls</tspan><tspan x="0" dy="46.150000000000006px">   *Fixed MANY game ruining bugs</tspan><tspan x="0" dy="46.150000000000006px">   *Changed Gun Safe sprite</tspan><tspan x="0" dy="46.150000000000006px">   *New Music Track </tspan><tspan x="0" dy="46.150000000000006px">   *Final Fight - ParagonX9</tspan></text></g></g></svg>