<svg version="1.1" xmlns="http://www.w3.org/2000/svg" xmlns:xlink="http://www.w3.org/1999/xlink" width="38.77586" height="36.8346" viewBox="0,0,38.77586,36.8346"><defs><linearGradient x1="226.35306" y1="188.23275" x2="226.35306" y2="193.32116" gradientUnits="userSpaceOnUse" id="color-1"><stop offset="0" stop-color="#4d3b2e"/><stop offset="1" stop-color="#271e17"/></linearGradient></defs><g transform="translate(-221.28785,-161.48269)"><g data-paper-data="{&quot;isPaintingLayer&quot;:true}" fill-rule="nonzero" stroke-linejoin="miter" stroke-miterlimit="10" stroke-dasharray="" stroke-dashoffset="0" style="mix-blend-mode: normal"><path d="M225.71763,188.36463l0.1089,-0.00012c0.59532,-0.00074 1.1062,0.03241 1.65973,0.24078c1.09877,0.5757 3.84841,1.78625 3.08568,3.31233c-0.14144,0.283 -0.4441,0.54128 -0.67957,0.75127c-0.2699,0.24069 -0.48069,0.33839 -0.83392,0.43616c-1.28111,0.36485 -2.75043,0.19338 -4.05381,0.02563c-1.21991,-0.15701 -2.30589,-0.26453 -2.96679,-1.35649c-0.32364,-1.60451 1.62963,-3.41708 3.3825,-3.54143c0.10398,0.13222 0.29729,0.13188 0.29729,0.13188z" data-paper-data="{&quot;noHover&quot;:false,&quot;origItem&quot;:[&quot;Path&quot;,{&quot;applyMatrix&quot;:true,&quot;segments&quot;:[[[236.73193,174.2664],[0.35994,0.48491],[-6.06787,0.456]],[[225.05501,187.19505],[-1.12034,-5.88437],[2.28781,4.00464]],[[235.30031,192.13772],[-4.22296,-0.57581],[4.5119,0.6152]],[[249.27257,192.05402],[-4.43481,1.33806],[1.22278,-0.35859]],[[252.15278,190.4635],[-0.93429,0.88269],[0.8151,-0.77009]],[[254.50067,187.71919],[-0.48963,1.03786],[2.64034,-5.59671]],[[243.84504,175.63021],[3.80362,2.11133],[-1.91613,-0.76414]],[[238.13176,174.75131],[2.06079,-0.00269],[0,0]],[237.75676,174.75131]],&quot;closed&quot;:true}]}" fill="url(#color-1)" stroke="#937257" stroke-width="1.5" stroke-linecap="butt"/><path d="M228.65388,195.03357l8.76239,-18.15945l2.5716,1.24086l-8.76239,18.15945z" fill="#999999" stroke="#7d7d7d" stroke-width="1.5" stroke-linecap="butt"/><path d="M227.36898,197.56729v-2.28426h5.42513v2.28426z" fill="#999999" stroke="#7d7d7d" stroke-width="1.5" stroke-linecap="butt"/><path d="M226.6829,180.17344l-1.05486,11.51676" fill="none" stroke="#2b2b2b" stroke-width="1.5" stroke-linecap="round"/><path d="M254.11773,186.33112l-0.11808,9.56489" fill="none" stroke="#2b2b2b" stroke-width="1.5" stroke-linecap="round"/><path d="M251.4332,194.98954l-12.0459,-16.16915l2.28975,-1.70585l12.0459,16.16915z" fill="#999999" stroke="#7d7d7d" stroke-width="2" stroke-linecap="butt"/><path d="M248.78395,197.28176v-3.56916h5.85343v3.56916z" fill="#999999" stroke="#7d7d7d" stroke-width="1.5" stroke-linecap="butt"/><path d="M254.23581,181.54867l-0.11808,9.56489" fill="none" stroke="#2b2b2b" stroke-width="1.5" stroke-linecap="round"/><path d="M234.78032,177.48073l0.83884,-3.76231l23.54931,5.25053l-0.83884,3.76231z" fill="#707070" stroke="#5a5a5a" stroke-width="1.5" stroke-linecap="butt"/><path d="M231.8454,177.2812c0.28492,-0.16902 0.50987,-0.37017 0.68242,-0.59787c-0.03275,-0.15635 -0.08945,-0.31122 -0.17336,-0.46409c-0.00171,-0.00312 -0.00343,-0.00621 -0.00516,-0.00929c-0.4516,-0.13195 -0.90382,-0.2912 -1.32566,-0.46781c-0.79251,0.08452 -1.74449,0.415 -2.46852,0.30426l-0.09349,-0.06535l-0.01152,0.03656l-0.52058,-0.16394c-0.03636,0.6459 -0.02926,1.29446 0.01928,1.94445l1.38359,-0.41722l0.09595,0.31819c0.5666,-0.26457 1.15751,-0.45038 1.77248,-0.50368zM228.89623,182.23446l0.00359,-0.00423c0.19219,-0.42793 0.67355,-0.94554 1.22644,-1.51651c-0.10393,0.01207 -0.2093,0.02261 -0.31612,0.03163l-0.10029,-0.04684l-0.00267,0.04431l-1.28352,-0.07725c0.1331,0.52342 0.29098,1.04658 0.47257,1.56889zM232.53822,172.95207c-0.30742,-0.83802 -0.73728,-1.69741 -1.18671,-2.50227l-0.00035,0.00051l-1.26507,-0.88166c-0.07036,-0.04734 -0.13683,-0.10102 -0.19845,-0.16064c-0.62388,1.07653 -1.09246,2.17408 -1.41685,3.28601c0.72355,-0.29305 1.47411,-0.43158 2.20643,-0.2785c0.02648,0.00554 0.98141,0.23151 1.861,0.53654zM226.7542,184.73866c-2.68011,-6.27705 -2.45893,-13.3338 1.99242,-18.83287c0.82015,-1.01318 3.36204,-3.87486 4.82332,-3.66182c2.48461,0.36222 2.90117,3.67258 2.83049,5.45729c0.46627,5.60059 0.2899,11.43624 -3.70164,15.79078l-0.07262,0.0236l0.02136,0.0241l-1.15182,1.02106c-0.11945,0.11098 -0.25977,0.20358 -0.41835,0.27128c-0.14207,0.06066 -0.28844,0.09692 -0.43441,0.11065l-0.72398,0.51927c-0.09123,0.06834 -0.19203,0.12697 -0.30152,0.17372c-0.41016,0.17512 -0.85609,0.14687 -1.22529,-0.03958c-1.14433,0.29857 -1.63794,-0.8575 -1.63794,-0.8575zM233.0657,167.82801c0.14451,0.12261 0.30125,0.23243 0.46515,0.33453c-0.01113,-0.14397 -0.0225,-0.28727 -0.03401,-0.42981c0.0052,-0.05886 -0.18234,-2.63502 -0.25045,-2.60311c-0.41827,0.19599 -1.12403,1.03994 -1.76655,1.90497c0.02336,0.01022 0.04645,0.02104 0.06925,0.03247l1.36235,0.67266l-0.03799,0.07694z" fill="#707070" stroke="#5a5a5a" stroke-width="1.5" stroke-linecap="butt"/></g></g></svg>