<svg version="1.1" xmlns="http://www.w3.org/2000/svg" xmlns:xlink="http://www.w3.org/1999/xlink" width="52.75" height="52.75" viewBox="0,0,52.75,52.75"><g transform="translate(-213.625,-153.625)"><g data-paper-data="{&quot;isPaintingLayer&quot;:true}" fill-rule="nonzero" stroke-linecap="butt" stroke-linejoin="miter" stroke-miterlimit="10" stroke-dasharray="" stroke-dashoffset="0" style="mix-blend-mode: normal"><path d="M214.875,205.125v-50.25h50.25v50.25z" fill="#7f7f7f" stroke="#5e5e5e" stroke-width="2.5"/><path d="M229.4838,180.34803c-0.10652,-0.31955 -0.03598,-0.55057 0.08285,-0.71146c0.00177,-0.20292 0.08565,-0.43397 0.3716,-0.62459c0.40232,-0.26822 0.72465,-0.13643 0.91925,0.01358c1.48574,-0.56015 2.80559,-1.35469 4.27258,-1.86436c0,0 0.21683,-0.07227 0.45858,-0.02493c0.14319,-0.0942 0.27662,-0.12756 0.27662,-0.12756l0.37448,-0.07372c3.2203,-1.57497 8.08214,-0.88519 11.46107,-0.20556c1.01108,0.20337 3.31593,0.66759 3.96902,1.61532c1.06587,1.54675 -0.7538,2.60081 -0.74744,4.31378c-0.00737,2.34375 -1.02001,4.74944 -0.42919,7.09977c0.25678,1.02148 2.42157,3.60818 1.92928,4.53931c-0.56588,1.07032 -5.535,0.12841 -6.49679,-0.03189c-2.07857,-0.36689 -3.28873,-3.72564 -5.62472,-3.11785c-1.69515,0.44106 -1.56706,2.20694 -2.68439,2.97588c-1.20412,0.82867 -5.73929,0.25201 -7.16049,0.01515c-0.4671,-0.11129 -1.14424,0.07171 -1.4013,-0.33387c-0.28636,-0.4518 0.04584,-1.07663 0.1789,-1.59472c0.26836,-1.04494 1.19281,-2.08287 1.62114,-3.1072c1.16626,-2.78902 0.76086,-5.67887 -0.66921,-8.2021c-0.24204,-0.00912 -0.55551,-0.11395 -0.70185,-0.55299zM235.64275,178.69915c-1.30808,0.41047 -2.55697,1.15046 -3.87976,1.70498c1.24481,2.3152 1.81553,4.94276 1.16781,7.58342c-0.38374,1.56445 -2.41386,4.64644 -2.34096,4.53573c1.5682,0.26137 3.20783,0.13233 4.79659,0.13233c0.43046,0 0.9855,0.46479 1.28229,0.153c1.06825,-1.1222 1.25377,-2.7482 3.25983,-3.23852c3.1929,-0.78041 3.90612,2.7347 6.2637,3.09655c0.44599,0.07433 3.00741,0.3089 4.22024,0.54275c-0.52256,-0.64754 -1.12562,-1.99188 -1.18459,-2.13493c-1.15392,-2.79932 0.08392,-5.58032 0.0734,-8.41593c0.00432,-1.37416 0.11956,-2.37375 1.24905,-3.20168c0.42911,-0.31455 -0.97316,-0.43062 -1.455,-0.65624c-0.88228,-0.41313 -1.83202,-0.55847 -2.78688,-0.75045c-2.57046,-0.51681 -6.94587,-0.89864 -9.34367,0.33483l-0.70629,0.19646c0,0 -0.18485,0.04622 -0.39772,0.00421c-0.11677,0.07975 -0.21803,0.1135 -0.21803,0.1135z" fill="#5a5a5a" stroke="none" stroke-width="0.5"/><path d="M235.82983,178.54134c0.21286,0.04201 0.39955,-0.00543 0.39955,-0.00543l0.71045,-0.19887c2.3978,-1.23347 6.83132,-0.84638 9.40178,-0.32957c0.95486,0.19198 1.91414,0.34687 2.79642,0.76c0.48184,0.22562 1.88783,0.34714 1.45872,0.66169c-1.12949,0.82793 -1.23958,1.83903 -1.2439,3.21318c0.01053,2.83561 -1.23378,5.66257 -0.07986,8.46188c0.05897,0.14305 0.65916,1.49134 1.18172,2.13888c-1.21283,-0.23386 -3.78359,-0.45926 -4.22958,-0.53359c-2.35758,-0.36185 -3.11236,-3.8665 -6.30526,-3.08609c-2.00606,0.49032 -2.20824,2.11072 -3.27649,3.23292c-0.2968,0.31178 -0.85802,-0.15685 -1.28848,-0.15685c-1.58876,0 -3.24088,0.1165 -4.80908,-0.14487c-0.0729,0.11071 1.95006,-2.98528 2.3338,-4.54973c0.64772,-2.64066 0.0811,-5.31207 -1.16371,-7.62727c1.32279,-0.55452 2.58655,-1.31137 3.89462,-1.72185c0,0 0.10253,-0.03468 0.2193,-0.11443z" data-paper-data="{&quot;noHover&quot;:false,&quot;origItem&quot;:[&quot;Path&quot;,{&quot;applyMatrix&quot;:true,&quot;segments&quot;:[[[469.03238,355.93536],[0,0],[-2.42065,0.7596]],[[461.85273,359.0905],[2.44787,-1.02616],[2.30357,4.28437]],[[464.0138,373.12391],[1.19863,-4.88664],[-0.71013,2.89508]],[[459.68176,381.51745],[-0.13491,0.20487],[2.90201,0.48367]],[[468.55804,381.76234],[-2.94006,0],[0.79659,0]],[[470.93097,382.04547],[-0.54923,0.57697],[1.97684,-2.07667]],[[476.96341,376.05246],[-3.71229,0.90736],[5.9086,-1.44418]],[[488.55463,381.78275],[-4.3628,-0.66963],[0.82532,0.13755]],[[496.36434,382.78714],[-2.24439,-0.43276],[-0.96703,-1.1983]],[[494.17222,378.83636],[0.10912,0.26472],[-2.13538,-5.18024]],[[494.30804,363.26234],[0.01949,5.24741],[0.008,-2.54293]],[[496.61946,357.3375],[-2.09018,1.53213],[0.79409,-0.58208]],[[493.92691,356.1231],[0.89167,0.41752],[-1.63269,-0.76451]],[[488.76969,354.73436],[1.767,0.35527],[-4.75674,-0.95637]],[[471.47886,355.35398],[4.43722,-2.28259],[0,0]],[470.17184,355.71755],[[469.43585,355.72533],[0.39391,0.07774],[-0.2161,0.14758]]],&quot;closed&quot;:true}]}" fill="#767676" stroke="none" stroke-width="0.5"/><path d="M225.25848,173.98759c-1.04943,-0.24236 -2.11839,-0.80409 -3.18354,-0.90822c0.21774,5.34581 5.02041,6.00168 9.72453,6.07401c1.46474,-0.51186 2.58849,-0.82601 2.56157,-2.57728v-0.58659c-2.89428,-0.96246 -6.10035,-1.30857 -9.10254,-2.00191zM221.66203,171.44246c3.85245,0.06551 9.53366,1.78308 13.22552,3.0137l0.64656,0.31417c0,0 0.62743,0.31371 0.42308,0.94114c0.025,0.10944 0.02499,0.18914 0.02499,0.18914v0.67548c-0.02927,2.63014 -1.66499,3.4514 -3.92302,4.17749c-5.80089,0.06456 -11.5916,-1.30473 -11.61298,-8.09527c0,0 -0.00001,-0.56076 0.4664,-0.74946c0.1887,-0.46641 0.74946,-0.4664 0.74946,-0.4664z" fill="#5a5a5a" stroke="none" stroke-width="0.5"/><path d="M225.2179,173.95839c3.0022,0.69334 6.29885,1.06762 9.19313,2.03008l-0.00013,0.59136c0.02692,1.75127 -1.10856,2.09403 -2.5733,2.60589c-4.70411,-0.07233 -9.58974,-0.7827 -9.80748,-6.12851c1.06515,0.10413 2.13835,0.65882 3.18777,0.90118z" data-paper-data="{&quot;noHover&quot;:false,&quot;origItem&quot;:[&quot;Path&quot;,{&quot;applyMatrix&quot;:true,&quot;segments&quot;:[[[225.25848,173.98759],[0,0],[-1.04943,-0.24236]],[[222.07494,173.07937],[1.06515,0.10413],[0.21774,5.34581]],[[231.79947,179.15338],[-4.70411,-0.07233],[1.46474,-0.51186]],[[234.36104,176.5761],[0.02692,1.75127],[0,0]],[[234.36104,175.9895],[0,0],[-2.89428,-0.96246]],[[225.25849,173.98759],[3.0022,0.69334],[0,0]]],&quot;closed&quot;:true,&quot;fillColor&quot;:[0,0,0,1]}]}" fill="#767676" stroke="none" stroke-width="0.5"/><path d="M232.31193,171.84812c-2.59092,0.00657 -5.2689,0.10468 -7.81473,0.52898c-0.15636,0.02606 -1.24759,0.20579 -1.9896,0.18392c0.60496,0.45385 1.39493,1.19323 1.45127,1.24957c2.47312,1.97235 4.2212,2.21953 7.3632,1.9577c0.58524,-0.04878 2.44736,0.09297 2.83519,-0.11994c0.55526,-0.30483 -0.03253,-3.62318 -0.74006,-3.54143c-0.27019,-0.04503 -0.54038,-0.09007 -0.81057,-0.13509zM233.15258,170.4193c0.17704,0.02951 0.35409,0.05902 0.53113,0.08853c1.88561,0.4987 3.41302,4.88174 1.42147,6.45567c-0.59285,0.46852 -2.88298,0.35656 -3.6494,0.42044c-3.56946,0.29746 -5.75899,-0.10377 -8.57809,-2.36536c-0.79425,-0.79425 -3.21445,-2.10102 -2.45047,-3.5889c0.42947,-0.83641 2.32499,-0.46357 3.0593,-0.52481c2.96334,-0.2471 5.85291,-0.65265 8.83734,-0.67708c0.0685,-0.00866 0.13483,-0.00754 0.19573,-0.00105c0.02838,-0.00008 0.05677,-0.00011 0.08517,-0.00011c0,0 0.31107,0 0.5478,0.1927z" fill="#5a5a5a" stroke="none" stroke-width="0.5"/><path d="M232.65587,171.94958c0.27019,0.04503 0.54212,0.09441 0.81231,0.13944c0.70754,-0.08175 1.29588,3.27069 0.74063,3.57552c-0.38784,0.21291 -2.25653,0.0849 -2.84177,0.13368c-3.142,0.26183 -4.98911,-0.01578 -7.46221,-1.98813c-0.05633,-0.05633 -0.84508,-0.80671 -1.45004,-1.26056c0.74202,0.02187 1.83543,-0.16528 1.99179,-0.19135c2.54583,-0.4243 5.3224,-0.52835 7.91332,-0.53492z" data-paper-data="{&quot;noHover&quot;:false,&quot;origItem&quot;:[&quot;Path&quot;,{&quot;applyMatrix&quot;:true,&quot;segments&quot;:[[[463.79383,347.93961],[0,0],[-4.79461,0.01216]],[[449.33238,348.91852],[4.71116,-0.78519],[-0.28935,0.04823]],[[445.65053,349.25886],[1.37313,0.04048],[1.11951,0.83986]],[[448.33616,351.57124],[-0.10425,-0.10425],[4.57659,3.64993]],[[461.96206,355.19404],[-5.81439,0.48453],[1.083,-0.09025]],[[467.20871,354.97207],[-0.71771,0.39401],[1.02753,-0.56409]],[[465.83918,348.41852],[1.30933,-0.15128],[-0.5,-0.08333]],[[464.33918,348.16852],[0.5,0.08333],[0,0]]],&quot;closed&quot;:true}]}" fill="#767676" stroke="none" stroke-width="0.5"/><path d="M232.36771,185.86984v-16.95876h26.88405v12.27687c-3.78373,0.33957 -6.82939,2.0824 -9.03549,4.68189z" fill="#767676" stroke="#5a5a5a" stroke-width="1.5"/><path d="M232.36771,180.36971v-11.45863h26.88405v11.45863z" fill="#767676" stroke="#5a5a5a" stroke-width="1.5"/><path d="M246.19669,184.15c1.46007,-0.44141 3.9609,-1.331 4.44146,-0.32357c0.17793,0.37301 -1.42228,2.66597 -1.77028,2.89784c-0.76059,0.50679 -1.87324,0.18609 -2.68426,0.11763c-1.97194,-0.16646 -3.72686,0.23874 -5.43985,-0.3198c-0.09269,0.04468 -0.185,0.08846 -0.27708,0.13122l-0.0091,0.02764l-0.02927,-0.00988c-0.26704,0.12327 -0.53235,0.23776 -0.79979,0.34027l-0.10055,0.23765c-0.10942,0.27576 -0.37589,0.47045 -0.68725,0.47045c-0.14617,0 -0.28245,-0.04291 -0.39723,-0.11697l-0.58623,0.19795c-0.07825,0.0285 -0.1626,0.04402 -0.25053,0.04402c-0.04463,0 -0.08835,-0.004 -0.1308,-0.01167l-0.11057,0.16801c-0.13183,0.20678 -0.36134,0.34365 -0.62242,0.34365c-0.33306,0 -0.61475,-0.22277 -0.7078,-0.52924l-0.1483,-0.45067c-0.11062,0.06664 -0.23985,0.10491 -0.37789,0.10491c-0.25753,0 -0.48435,-0.13319 -0.617,-0.33528v0.58528c0,0.41421 -0.33149,0.75 -0.74039,0.75c-0.33306,0 -0.61475,-0.22277 -0.7078,-0.52924l-0.2414,-0.73359l0.04184,-0.01413c-0.02838,-0.0533 -0.05437,-0.10801 -0.07756,-0.16438c-0.17478,-0.42487 -0.19629,-1.22247 -0.06995,-2.01773c-0.00582,-0.01781 -0.01172,-0.03573 -0.01772,-0.05376c0,0 -0.17247,-0.52413 0.22273,-0.82264c0.39223,-1.22649 1.18452,-2.05945 2.35225,-0.79407c0.08314,0.0901 0.14167,0.24574 0.18512,0.43792c0.08823,-0.0376 0.18516,-0.05838 0.28688,-0.05838c0.25753,0 0.48435,0.13319 0.617,0.33528c0.13264,-0.20209 0.35947,-0.33528 0.617,-0.33528c0.18397,0 0.35227,0.06797 0.48176,0.18047c0.1738,-0.07201 0.37591,-0.09487 0.60502,-0.04865c0.05099,0.01029 0.09947,0.02453 0.14556,0.04239c0.02159,-0.02002 0.04401,-0.03994 0.06732,-0.05979l-0.158,-0.20007l0.61239,-0.49627c0.12742,-0.10508 0.29001,-0.16808 0.46713,-0.16808c0.40891,0 0.74039,0.33579 0.74039,0.75c0,0.07754 -0.01162,0.15234 -0.03319,0.2227l-0.22062,0.78219c0.00028,0.05699 0.00025,0.11205 -0.00014,0.16529l0.39001,-0.13169c0.23947,-0.08013 0.48879,-0.11509 0.74233,-0.11913l-0.00193,-0.00587l0.02812,-0.00949c0.02781,-0.03486 0.05864,-0.06715 0.09208,-0.09646l-0.00779,-0.04733l0.09002,-0.0152c0.08662,-0.05682 0.18571,-0.09581 0.29219,-0.11183l0.72839,-0.12297l0.01889,0.1148h0.10283c0.10938,0 0.21877,-0.00001 0.32815,-0.00003c0.81598,-0.18219 1.62247,-0.12497 2.75682,-0.12497l-0.08432,-0.04582c0,0 0.3391,-0.17175 0.65332,-0.02364zM248.11856,185.41512c-0.13561,0.05042 -0.27073,0.09608 -0.39884,0.13596c0.14959,-0.00338 0.27265,-0.02798 0.34413,-0.08642c0.01912,-0.01564 0.03733,-0.03218 0.05471,-0.04954z" fill="#767676" stroke="none" stroke-width="0.5"/><path d="M257.2034,175.10642c0,0.23692 -0.10985,0.44817 -0.28139,0.58562l-0.00709,0.02655c0,0 -0.23717,0.71151 -0.94868,0.47434c-0.57093,-0.19031 -0.53103,-0.68604 -0.49297,-0.8745l-0.05687,-0.0191c-0.5099,-0.25495 -1.0357,-0.45237 -1.56139,-0.65099c-0.06336,0.19009 -0.12673,0.38016 -0.19009,0.57025l-0.1089,0.44473c0,0 -0.18191,0.72761 -0.90951,0.5457c-0.72761,-0.1819 -0.5457,-0.9095 -0.5457,-0.9095l0.1411,-0.55527c0.07439,-0.22316 0.14878,-0.44633 0.22316,-0.6695c-0.03241,-0.01562 -0.06477,-0.03145 -0.09706,-0.04752c0,0 -0.67082,-0.33541 -0.33541,-1.00623c0.26479,-0.52959 0.73864,-0.43204 0.92642,-0.36749c0.04068,-0.08957 0.07885,-0.17771 0.11467,-0.2653c-0.08106,-0.01471 -0.16225,-0.02872 -0.24356,-0.042c0,0 -0.7398,-0.1233 -0.6165,-0.8631c0.1233,-0.73979 0.8631,-0.61649 0.8631,-0.61649c0.13262,0.02248 0.2649,0.04659 0.39684,0.0722c0.04075,-0.15771 0.22402,-0.67706 0.85316,-0.5722c0.73979,0.1233 0.61649,0.86309 0.61649,0.86309c-0.0029,0.01711 -0.00583,0.03415 -0.0088,0.05113c0.38021,0.10276 0.75825,0.21445 1.13464,0.33199c0.00756,-0.12661 0.01101,-0.25369 0.00937,-0.38142c0,0 0,-0.75 0.75,-0.75c0.75,0 0.75,0.75 0.75,0.75c-0.00331,0.33936 -0.03794,0.67086 -0.08758,0.99876l0.00361,0.0022c0,0 0.62404,0.41602 0.20801,1.04006c-0.14183,0.21274 -0.30784,0.30461 -0.46505,0.33329c-0.05194,0.28449 -0.0978,0.57081 -0.12676,0.86176c0.0832,0.12751 0.13189,0.29803 0.08348,0.52051c0.00612,0.03858 0.00929,0.07813 0.00929,0.11842zM255.84466,173.11423c-0.42967,-0.13787 -0.86188,-0.26936 -1.29719,-0.3877c-0.06282,0.16897 -0.13184,0.33742 -0.20772,0.50839c0.4612,0.17361 0.92418,0.34147 1.37654,0.54779c0.03982,-0.22384 0.08442,-0.44638 0.12837,-0.66848z" fill="#8a8a8a" stroke="none" stroke-width="0.5"/><path d="M237.91492,177.71859c-0.23717,0.71151 -0.94868,0.47434 -0.94868,0.47434l-0.375,-0.125c-0.70771,-0.29189 -0.73166,-0.23866 -1.17718,0.38201c0,0 -0.46853,0.58565 -1.05418,0.11713c-0.58565,-0.46852 -0.11713,-1.05417 -0.11713,-1.05417c0.9098,-1.06913 1.47152,-1.26289 2.82282,-0.86799l0.375,0.125c0,0 0.71151,0.23717 0.47434,0.94868z" fill="#8a8a8a" stroke="none" stroke-width="0.5"/><path d="M242.20341,171.10642c0,0.75 -0.75,0.75 -0.75,0.75l-0.3767,-0.0102c-0.53586,0.0876 -1.08033,0.13349 -1.6233,0.1352c0,0 -0.75,0 -0.75,-0.75c0,-0.75 0.75,-0.75 0.75,-0.75c0.46049,0.00171 0.92275,-0.03743 1.3767,-0.11479l0.6233,-0.01021c0,0 0.75,0 0.75,0.75z" fill="#8a8a8a" stroke="none" stroke-width="0.5"/><path d="M228.18884,172.83433c0.14709,0.73543 -0.58835,0.88252 -0.58835,0.88252l-0.64879,0.12936c-0.25,0.04166 -0.5,0.08334 -0.75,0.125c0,0 -0.7398,0.1233 -0.8631,-0.6165c-0.1233,-0.73979 0.6165,-0.86309 0.6165,-0.86309c0.25,-0.04166 0.5,-0.08334 0.75,-0.125l0.60121,-0.12064c0,0 0.73543,-0.14709 0.88252,0.58835z" fill="#8a8a8a" stroke="none" stroke-width="0.5"/><path d="M240.31384,186.70933c0.14709,0.73543 -0.58835,0.88252 -0.58835,0.88252l-0.26265,0.05237c0.03828,0.05701 0.07647,0.11407 0.1146,0.17117l0.21247,0.55385c0,0 0.23717,0.71151 -0.47434,0.94868c-0.71151,0.23717 -0.94868,-0.47434 -0.94868,-0.47434l-0.03752,-0.19615c-0.16669,-0.25048 -0.3347,-0.50186 -0.50675,-0.75078c-0.50546,0.07095 -1.00764,0.15612 -1.48643,0.30477l0.28804,0.56958c0,0 0.33541,0.67082 -0.33541,1.00623c-0.67082,0.33541 -1.00623,-0.33541 -1.00623,-0.33541l-0.2789,-0.56554c-0.02745,0.02142 -0.0547,0.04335 -0.08176,0.06578c0,0 -0.58566,0.46852 -1.05418,-0.11713c-0.46852,-0.58565 0.11713,-1.05417 0.11713,-1.05417c0.08884,-0.06928 0.17848,-0.13469 0.26885,-0.19653c-0.04964,-0.11727 -0.09527,-0.236 -0.13684,-0.35566c0,0 -0.23717,-0.71151 0.47434,-0.94868c0.71151,-0.23717 0.94868,0.47434 0.94868,0.47434c0.01676,0.05343 0.03505,0.10644 0.05478,0.15901c0.3992,-0.14051 0.80874,-0.24299 1.22654,-0.32711c-0.16723,-0.19509 -0.34104,-0.38392 -0.52316,-0.5644c0,0 -0.53033,-0.53033 0,-1.06066c0.53033,-0.53033 1.06066,0 1.06066,0c0.41678,0.41997 0.7952,0.8726 1.15173,1.34325c0.10623,-0.01703 0.21278,-0.03451 0.31964,-0.05272l0.60121,-0.12064c0,0 0.73543,-0.14709 0.88252,0.58835z" fill="#8a8a8a" stroke="none" stroke-width="0.5"/><path d="M249.32841,183.10642c0,-0.41422 0.33578,-0.75 0.75,-0.75c0.41422,0 0.75,0.33578 0.75,0.75c0,0.41422 -0.33578,0.75 -0.75,0.75c-0.41422,0 -0.75,-0.33578 -0.75,-0.75z" fill="#8a8a8a" stroke="none" stroke-width="0.5"/></g></g></svg>