<svg version="1.1" xmlns="http://www.w3.org/2000/svg" xmlns:xlink="http://www.w3.org/1999/xlink" width="32.5" height="34.87333" viewBox="0,0,32.5,34.87333"><defs><linearGradient x1="240" y1="163.31334" x2="240" y2="178.60779" gradientUnits="userSpaceOnUse" id="color-1"><stop offset="0" stop-color="#707070"/><stop offset="1" stop-color="#252525"/></linearGradient><linearGradient x1="239.50001" y1="167.2759" x2="239.50001" y2="185.09971" gradientUnits="userSpaceOnUse" id="color-2"><stop offset="0" stop-color="#b8b0a2"/><stop offset="1" stop-color="#918d84"/></linearGradient><linearGradient x1="239.53228" y1="168.6718" x2="239.53228" y2="183.69774" gradientUnits="userSpaceOnUse" id="color-3"><stop offset="0" stop-color="#c4bcad"/><stop offset="1" stop-color="#a8a399"/></linearGradient><linearGradient x1="239.27778" y1="188.62874" x2="239.27778" y2="194.45955" gradientUnits="userSpaceOnUse" id="color-4"><stop offset="0" stop-color="#3d3d3d"/><stop offset="1" stop-color="#272727"/></linearGradient></defs><g transform="translate(-223.75,-162.56334)"><g data-paper-data="{&quot;isPaintingLayer&quot;:true}" fill-rule="nonzero" stroke-linejoin="miter" stroke-miterlimit="10" stroke-dasharray="" stroke-dashoffset="0" style="mix-blend-mode: normal"><path d="M224.5,178.60779v-15.29445h31v15.29445z" fill="url(#color-1)" stroke="#7d7d7d" stroke-width="1.5" stroke-linecap="butt"/><path d="M225.40362,179.96747l-0.77777,-0.88889" fill="none" stroke="#7d7d7d" stroke-width="1.5" stroke-linecap="round"/><path d="M254.29251,180.3008l1.11111,-1" fill="none" stroke="#7d7d7d" stroke-width="1.5" stroke-linecap="round"/><path d="M235.8219,181.05127c0,0.75 -0.75,0.75 -0.75,0.75h-0.33333c-1.26701,-0.0033 -1.81048,0.31356 -2.31064,1.54544c0,0 -0.29544,0.68936 -0.9848,0.39392c-0.68936,-0.29544 -0.39392,-0.9848 -0.39392,-0.9848c0.77376,-1.73925 1.78927,-2.45024 3.68936,-2.45456h0.33333c0,0 0.75,0 0.75,0.75z" fill="#918d84" stroke="none" stroke-width="0.5" stroke-linecap="butt"/><path d="M242.85383,179.72001c-0.33541,0.67082 -1.00623,0.33541 -1.00623,0.33541l-0.62669,-0.3148c-0.5296,-0.39724 -1.39877,0.36116 -1.74719,0.94888c0,0 -0.41602,0.62404 -1.04006,0.20802c-0.62404,-0.41602 -0.20801,-1.04006 -0.20801,-1.04006c0.92621,-1.30114 2.05712,-1.99523 3.58615,-1.49555l0.70664,0.35187c0,0 0.67082,0.33541 0.33541,1.00623z" fill="#918d84" stroke="none" stroke-width="0.5" stroke-linecap="butt"/><path d="M247.04667,183.80382c-0.53033,0.53033 -1.06066,0 -1.06066,0l-0.22223,-0.22222c-0.51579,-0.59365 -0.62646,-0.48803 -1.37474,-0.25363c0,0 -0.72114,0.20604 -0.92718,-0.51511c-0.20604,-0.72115 0.5151,-0.92718 0.5151,-0.92718c1.29119,-0.34517 1.85944,-0.28113 2.84748,0.63526l0.22223,0.22222c0,0 0.53033,0.53033 0,1.06066z" fill="#918d84" stroke="none" stroke-width="0.5" stroke-linecap="butt"/><path d="M239.37745,183.49571c0,0.75 -0.75,0.75 -0.75,0.75l-0.22727,-0.00754c-1.0985,0.15427 -1.66406,0.49389 -2.57893,1.1038c0,0 -0.62404,0.41602 -1.04006,-0.20802c-0.41602,-0.62404 0.20801,-1.04006 0.20801,-1.04006c1.08492,-0.72328 1.8912,-1.15106 3.19885,-1.34065l0.4394,-0.00753c0,0 0.75,0 0.75,0.75z" fill="#918d84" stroke="none" stroke-width="0.5" stroke-linecap="butt"/><path d="M224.5,178.60779v-15.29445h31v15.29445z" fill="none" stroke="#7d7d7d" stroke-width="1.5" stroke-linecap="butt"/><path d="M225.89584,196.68666v-17.16363h26.76389v17.16364z" fill="#7c583f" stroke="#704f39" stroke-width="1.5" stroke-linecap="butt"/><path d="M252.62984,178.87745c0.27283,0.61786 0.36312,1.31954 0.27308,1.97946c-2.50788,5.31581 -12.24482,4.63419 -17.53248,3.28467c-2.60512,-0.67036 -6.42239,-1.15133 -8.25329,-3.12863c-1.50913,-1.6298 -1.38883,-4.83172 0.30651,-6.4427c-0.01979,-0.12679 -0.00454,-0.22287 -0.00454,-0.22287c0.61301,-3.80606 4.36292,-5.40904 8.40453,-4.89765l0.48356,0.17617c0,0 0.06535,0.02941 0.14678,0.08825c1.35765,-0.8381 3.27051,-0.98176 5.05603,-0.89471c0.07431,-0.14457 0.17617,-0.23627 0.17617,-0.23627c2.34567,-2.09366 6.06237,-1.57489 7.89915,0.85993l0.40705,0.72034c0,0 0.27677,0.49829 -0.14153,0.83875c1.10635,0.62498 1.53065,1.67436 1.53513,3.44746v0.31501c1.20984,0.8809 1.75541,2.13146 1.27791,3.73939l-0.07441,0.14587zM229.81929,174.25101c0.22064,0.69515 -0.5516,0.89376 -0.5516,0.89376c-1.93837,0.34424 -1.90637,3.82502 -0.90834,4.9515c1.5009,1.69407 5.27265,2.0947 7.45238,2.65504c4.19477,1.08827 13.46691,2.02073 15.5446,-2.28479c0.07091,-0.33929 -0.03669,-0.70834 -0.20286,-1.01948l-0.16833,-0.67853c0,0 -0.0088,-0.0396 -0.01183,-0.10195c-0.04207,-0.24863 0.08103,-0.47025 0.08103,-0.47025l0.0651,-0.08951c0.49322,-1.41732 -0.42826,-2.25331 -1.80481,-2.77845c0,0 -0.73819,-0.28479 -0.42183,-0.94929c0.21907,-0.46013 0.64038,-0.4651 0.87882,-0.42464c-0.06714,-1.6575 -0.5786,-1.95215 -2.63385,-2.21646c0,0 -0.79506,-0.10225 -0.68148,-0.81794c0.11358,-0.71569 0.90863,-0.61345 0.90863,-0.61345c0.36561,0.04702 0.70171,0.10331 1.01012,0.17089l-0.12619,-0.23233c-1.03049,-1.42577 -3.01003,-1.92385 -4.56122,-1.21182l0.95056,1.02301c0,0 0.35917,0.64663 -0.35917,0.96995c-0.71834,0.32332 -1.07751,-0.32332 -1.07751,-0.32332l0.24781,-0.25025c-1.86893,-0.24033 -6.04606,-0.7425 -6.88208,1.28278c0,0 -0.31636,0.66451 -1.05455,0.37972c-0.73819,-0.28479 -0.42183,-0.94929 -0.42183,-0.94929c0.05773,-0.11206 0.12015,-0.21916 0.18697,-0.32151c-2.74367,-0.27287 -5.26129,0.60485 -6.06602,2.89335c0.22734,0.03131 0.49243,0.15075 0.60749,0.51328z" fill="url(#color-2)" stroke="none" stroke-width="0.5" stroke-linecap="butt"/><path d="M229.16002,173.72544c0.80474,-2.2885 3.34293,-3.19311 6.08659,-2.92023c-0.06682,0.10235 -0.06469,0.28633 -0.12242,0.39839c0,0 -0.38528,0.59076 0.35292,0.87555c0.73819,0.28479 1.06258,-0.38503 1.06258,-0.38503c0.83602,-2.02528 5.06872,-1.52283 6.93765,-1.2825l-0.24823,0.25003c0,0 0.36569,0.6508 1.08403,0.32748c0.71834,-0.32332 0.29293,-0.89426 0.29293,-0.89426l-0.89364,-1.10429c1.55121,-0.71203 3.54861,-0.20034 4.5791,1.22543l0.04001,0.28952c-0.3084,-0.06758 -0.64213,-0.12109 -1.00773,-0.16811c0,0 -0.71305,-0.16423 -0.82664,0.55146c-0.11358,0.71569 0.68548,0.82279 0.68548,0.82279c2.05526,0.26429 2.57385,0.57387 2.64099,2.23137c-0.23844,-0.04047 -0.65943,-0.03426 -0.87851,0.42587c-0.31637,0.66451 0.42276,0.95472 0.42276,0.95472c1.37653,0.52514 2.29739,1.37455 1.80417,2.79187l-0.06519,0.08995c0,0 -0.12361,0.22374 -0.08153,0.47237c0.00304,0.06235 0.01171,0.10238 0.01171,0.10238l0.1675,0.68116c0.16617,0.31115 0.27233,0.68383 0.20143,1.02312c-2.07769,4.30552 -11.42385,3.39801 -15.61863,2.30975c-2.17973,-0.56034 -5.97704,-0.98645 -7.47794,-2.68052c-0.99803,-1.12648 -1.03332,-4.63011 0.90505,-4.97436c0,0 0.77316,-0.20363 0.55252,-0.89877c-0.11506,-0.36252 -0.37965,-0.48383 -0.60697,-0.51514z" data-paper-data="{&quot;noHover&quot;:false,&quot;origItem&quot;:[&quot;Path&quot;,{&quot;applyMatrix&quot;:true,&quot;segments&quot;:[[[460.47497,347.02378],[-0.21491,-0.75217],[0.41208,1.44229]],[[459.44476,348.87815],[0,0],[-3.62027,0.71425]],[[457.74825,359.15155],[-1.86401,-2.33721],[2.80322,3.51485]],[[471.66698,364.66025],[-4.07106,-1.1626],[7.83455,2.25795]],[[500.6995,359.91975],[-3.88048,8.93312],[0.13244,-0.70395]],[[500.32063,357.80452],[0.31036,0.64557],[0,0]],[500.00625,356.39671],[[499.98414,356.18518],[0.00568,0.12937],[-0.07858,-0.51586]],[500.13548,355.20949],[[500.25706,355.02378],[0,0],[0.92117,-2.94066]],[[496.88625,349.25903],[2.57095,1.08956],[0,0]],[[496.09841,347.28943],[-0.59088,1.37872],[0.40915,-0.95467]],[[497.73978,346.4084],[-0.44533,-0.08396],[-0.1254,-3.439]],[[492.82055,341.80968],[3.83859,0.54837],[0,0]],[[491.54776,340.11262],[-0.21213,1.48492],[0.21213,-1.48492]],[[493.24481,338.83983],[0,0],[0.68283,0.09755]],[[495.1314,339.19439],[-0.576,-0.14022],[0,0]],[[494.89572,338.71236],[0,0],[-1.92464,-2.95819]],[[486.37675,336.19807],[2.89717,-1.47733],[0,0]],[488.1521,338.3206],[[487.48128,340.33306],[1.34164,-0.67082],[-1.34164,0.67082]],[485.46882,339.66224],[[485.93166,339.14301],[0,0],[-3.49058,-0.49865]],[[473.07806,341.80452],[1.56142,-4.20206],[0,0]],[[471.10847,342.59236],[1.37872,0.59088],[-1.37872,-0.59088]],[[470.32063,340.62276],[0,0],[0.10782,-0.2325]],[[470.66983,339.95569],[-0.1248,0.21235],[-5.12433,-0.56616]],[[459.34037,345.95883],[1.50299,-4.74819],[0.42459,0.06495]]],&quot;closed&quot;:true}]}" fill="url(#color-3)" stroke="none" stroke-width="0.5" stroke-linecap="butt"/><path d="M235.12476,175.60683c0,0.75 -0.80313,0.75 -0.80313,0.75h-0.35694c-1.35677,-0.0033 -1.93874,0.31356 -2.47433,1.54544c0,0 -0.31637,0.68936 -1.05456,0.39392c-0.73819,-0.29544 -0.42183,-0.9848 -0.42183,-0.9848c0.82857,-1.73925 1.91602,-2.45024 3.95072,-2.45456h0.35694c0,0 0.80313,0 0.80313,0.75z" fill="#918d84" stroke="none" stroke-width="0.5" stroke-linecap="butt"/><path d="M242.65484,173.38668c-0.35917,0.67082 -1.07751,0.33541 -1.07751,0.33541l-0.67109,-0.3148c-0.56712,-0.39724 -1.49786,0.36116 -1.87096,0.94888c0,0 -0.44549,0.62404 -1.11374,0.20802c-0.66825,-0.41602 -0.22275,-1.04006 -0.22275,-1.04006c0.99182,-1.30114 2.20285,-1.99523 3.8402,-1.49555l0.7567,0.35187c0,0 0.71834,0.33541 0.35917,1.00623z" fill="#918d84" stroke="none" stroke-width="0.5" stroke-linecap="butt"/><path d="M247.15778,180.5816c-0.53033,0.53033 -1.06066,0 -1.06066,0l-0.22223,-0.22222c-0.51579,-0.59365 -0.62646,-0.48803 -1.37474,-0.25363c0,0 -0.72114,0.20604 -0.92718,-0.51511c-0.20604,-0.72115 0.5151,-0.92718 0.5151,-0.92718c1.29119,-0.34517 1.85944,-0.28113 2.84748,0.63526l0.22223,0.22222c0,0 0.53033,0.53033 0,1.06066z" fill="#918d84" stroke="none" stroke-width="0.5" stroke-linecap="butt"/><path d="M239.48856,180.27349c0,0.75 -0.75,0.75 -0.75,0.75l-0.22727,-0.00754c-1.0985,0.15427 -1.66406,0.49389 -2.57893,1.1038c0,0 -0.62404,0.41602 -1.04006,-0.20802c-0.41602,-0.62404 0.20801,-1.04006 0.20801,-1.04006c1.08492,-0.72328 1.8912,-1.15106 3.19885,-1.34065l0.4394,-0.00753c0,0 0.75,0 0.75,0.75z" fill="#918d84" stroke="none" stroke-width="0.5" stroke-linecap="butt"/><path d="M254.73696,179.3008l-4.79869,7.44444h-21.04879l-3.70808,-7.55555z" fill="#999999" stroke="#7d7d7d" stroke-width="1.5" stroke-linecap="round"/><path d="M225.89584,196.68666v-10.28503h26.76389v10.28503z" fill="#9a6d4e" stroke="#704f39" stroke-width="1.5" stroke-linecap="butt"/><path d="M242.53617,191.54415c0,1.61013 -1.45883,2.9154 -3.25839,2.9154c-1.79956,0 -3.25839,-1.30527 -3.25839,-2.9154c0,-1.61013 1.45883,-2.9154 3.25839,-2.9154c1.79956,0 3.25839,1.30527 3.25839,2.9154z" fill="url(#color-4)" stroke="#704f39" stroke-width="1.5" stroke-linecap="butt"/><path d="M248.57628,178.25465c-0.68197,0.37367 -1.07198,-0.39045 -1.07198,-0.39045l-0.36351,-0.71517c-0.23099,-0.72262 -1.42914,-0.63749 -2.07418,-0.34768c0,0 -0.72508,0.27601 -1.02749,-0.52856c-0.30242,-0.80457 0.42266,-1.08057 0.42266,-1.08057c1.56305,-0.53501 2.95202,-0.38199 3.9948,1.12103l0.41168,0.80362c0,0 0.39001,0.76412 -0.29195,1.13779z" fill="#918d84" stroke="none" stroke-width="0.5" stroke-linecap="butt"/><path d="M224.5,178.60779v-15.29445h31v15.29445z" fill="none" stroke="#7d7d7d" stroke-width="1.5" stroke-linecap="butt"/><path d="M227.09807,188.69719c0,-0.41421 0.33579,-0.75 0.75,-0.75c0.41421,0 0.75,0.33579 0.75,0.75c0,0.41421 -0.33579,0.75 -0.75,0.75c-0.41421,0 -0.75,-0.33579 -0.75,-0.75z" fill="#ff0000" stroke="none" stroke-width="0.5" stroke-linecap="butt"/></g></g></svg>