<svg version="1.1" xmlns="http://www.w3.org/2000/svg" xmlns:xlink="http://www.w3.org/1999/xlink" width="35.00001" height="39.08849" viewBox="0,0,35.00001,39.08849"><defs><linearGradient x1="239.68755" y1="180.75275" x2="239.68755" y2="189.25275" gradientUnits="userSpaceOnUse" id="color-1"><stop offset="0" stop-color="#1a1a1a"/><stop offset="1" stop-color="#ff6f00"/></linearGradient><linearGradient x1="239.90661" y1="161.014" x2="239.90661" y2="172.764" gradientUnits="userSpaceOnUse" id="color-2"><stop offset="0" stop-color="#3a3a3a"/><stop offset="1" stop-color="#ff801f"/></linearGradient><radialGradient cx="239.59454" cy="185.3004" r="11.99697" gradientUnits="userSpaceOnUse" id="color-3"><stop offset="0" stop-color="#ff7d00"/><stop offset="1" stop-color="#ff7d00" stop-opacity="0"/></radialGradient></defs><g transform="translate(-222.43752,-160.264)"><g data-paper-data="{&quot;isPaintingLayer&quot;:true}" fill-rule="nonzero" stroke-linejoin="miter" stroke-miterlimit="10" stroke-dasharray="" stroke-dashoffset="0" style="mix-blend-mode: normal"><path d="M246.1042,188.98886c0,-0.41422 0.33578,-0.75 0.75,-0.75c0.41422,0 0.75,0.33578 0.75,0.75c0,0.41422 -0.33578,0.75 -0.75,0.75c-0.41422,0 -0.75,-0.33578 -0.75,-0.75z" fill="#e06c00" stroke="none" stroke-width="0.5" stroke-linecap="butt"/><path d="M243.2292,188.86386c0,-0.41422 0.33578,-0.75 0.75,-0.75c0.41422,0 0.75,0.33578 0.75,0.75c0,0.41422 -0.33578,0.75 -0.75,0.75c-0.41422,0 -0.75,-0.33578 -0.75,-0.75z" fill="#e06c00" stroke="none" stroke-width="0.5" stroke-linecap="butt"/><path d="M240.4792,188.73886c0,-0.41422 0.33578,-0.75 0.75,-0.75c0.41422,0 0.75,0.33578 0.75,0.75c0,0.41422 -0.33578,0.75 -0.75,0.75c-0.41422,0 -0.75,-0.33578 -0.75,-0.75z" fill="#e06c00" stroke="none" stroke-width="0.5" stroke-linecap="butt"/><path d="M237.54865,189.11386c0,-0.41422 0.33578,-0.75 0.75,-0.75c0.41422,0 0.75,0.33578 0.75,0.75c0,0.41422 -0.33578,0.75 -0.75,0.75c-0.41422,0 -0.75,-0.33578 -0.75,-0.75z" fill="#e06c00" stroke="none" stroke-width="0.5" stroke-linecap="butt"/><path d="M234.67365,188.98886c0,-0.41422 0.33578,-0.75 0.75,-0.75c0.41422,0 0.75,0.33578 0.75,0.75c0,0.41422 -0.33578,0.75 -0.75,0.75c-0.41422,0 -0.75,-0.33578 -0.75,-0.75z" fill="#e06c00" stroke="none" stroke-width="0.5" stroke-linecap="butt"/><path d="M231.92365,188.86386c0,-0.41422 0.33578,-0.75 0.75,-0.75c0.41422,0 0.75,0.33578 0.75,0.75c0,0.41422 -0.33578,0.75 -0.75,0.75c-0.41422,0 -0.75,-0.33578 -0.75,-0.75z" fill="#e06c00" stroke="none" stroke-width="0.5" stroke-linecap="butt"/><path d="M231.92365,188.86386c0,-0.41422 0.33578,-0.75 0.75,-0.75c0.41422,0 0.75,0.33578 0.75,0.75c0,0.41422 -0.33578,0.75 -0.75,0.75c-0.41422,0 -0.75,-0.33578 -0.75,-0.75z" fill="#e06c00" stroke="none" stroke-width="0.5" stroke-linecap="butt"/><path d="M229.04865,188.73886c0,-0.41422 0.33578,-0.75 0.75,-0.75c0.41422,0 0.75,0.33578 0.75,0.75c0,0.41422 -0.33578,0.75 -0.75,0.75c-0.41422,0 -0.75,-0.33578 -0.75,-0.75z" fill="#e06c00" stroke="none" stroke-width="0.5" stroke-linecap="butt"/><path d="M226.29865,188.61386c0,-0.41422 0.33578,-0.75 0.75,-0.75c0.41422,0 0.75,0.33578 0.75,0.75c0,0.41422 -0.33578,0.75 -0.75,0.75c-0.41422,0 -0.75,-0.33578 -0.75,-0.75z" fill="#e06c00" stroke="none" stroke-width="0.5" stroke-linecap="butt"/><path d="M246.14587,191.65553c0,-0.41422 0.33578,-0.75 0.75,-0.75c0.41422,0 0.75,0.33578 0.75,0.75c0,0.41422 -0.33578,0.75 -0.75,0.75c-0.41422,0 -0.75,-0.33578 -0.75,-0.75z" fill="#e06c00" stroke="none" stroke-width="0.5" stroke-linecap="butt"/><path d="M243.27087,191.53053c0,-0.41422 0.33578,-0.75 0.75,-0.75c0.41422,0 0.75,0.33578 0.75,0.75c0,0.41422 -0.33578,0.75 -0.75,0.75c-0.41422,0 -0.75,-0.33578 -0.75,-0.75z" fill="#e06c00" stroke="none" stroke-width="0.5" stroke-linecap="butt"/><path d="M240.52087,191.40553c0,-0.41422 0.33578,-0.75 0.75,-0.75c0.41422,0 0.75,0.33578 0.75,0.75c0,0.41422 -0.33578,0.75 -0.75,0.75c-0.41422,0 -0.75,-0.33578 -0.75,-0.75z" fill="#e06c00" stroke="none" stroke-width="0.5" stroke-linecap="butt"/><path d="M237.59031,191.78053c0,-0.41422 0.33578,-0.75 0.75,-0.75c0.41422,0 0.75,0.33578 0.75,0.75c0,0.41422 -0.33578,0.75 -0.75,0.75c-0.41422,0 -0.75,-0.33578 -0.75,-0.75z" fill="#e06c00" stroke="none" stroke-width="0.5" stroke-linecap="butt"/><path d="M234.71531,191.65553c0,-0.41422 0.33578,-0.75 0.75,-0.75c0.41422,0 0.75,0.33578 0.75,0.75c0,0.41422 -0.33578,0.75 -0.75,0.75c-0.41422,0 -0.75,-0.33578 -0.75,-0.75z" fill="#e06c00" stroke="none" stroke-width="0.5" stroke-linecap="butt"/><path d="M231.96531,191.53053c0,-0.41422 0.33578,-0.75 0.75,-0.75c0.41422,0 0.75,0.33578 0.75,0.75c0,0.41422 -0.33578,0.75 -0.75,0.75c-0.41422,0 -0.75,-0.33578 -0.75,-0.75z" fill="#e06c00" stroke="none" stroke-width="0.5" stroke-linecap="butt"/><path d="M231.96531,191.53053c0,-0.41422 0.33578,-0.75 0.75,-0.75c0.41422,0 0.75,0.33578 0.75,0.75c0,0.41422 -0.33578,0.75 -0.75,0.75c-0.41422,0 -0.75,-0.33578 -0.75,-0.75z" fill="#e06c00" stroke="none" stroke-width="0.5" stroke-linecap="butt"/><path d="M229.09031,191.40553c0,-0.41422 0.33578,-0.75 0.75,-0.75c0.41422,0 0.75,0.33578 0.75,0.75c0,0.41422 -0.33578,0.75 -0.75,0.75c-0.41422,0 -0.75,-0.33578 -0.75,-0.75z" fill="#e06c00" stroke="none" stroke-width="0.5" stroke-linecap="butt"/><path d="M226.34031,191.28053c0,-0.41422 0.33578,-0.75 0.75,-0.75c0.41422,0 0.75,0.33578 0.75,0.75c0,0.41422 -0.33578,0.75 -0.75,0.75c-0.41422,0 -0.75,-0.33578 -0.75,-0.75z" fill="#e06c00" stroke="none" stroke-width="0.5" stroke-linecap="butt"/><path d="M247.00698,193.21109c0.41422,0 0.75,0.33578 0.75,0.75c0,0.41422 -0.33578,0.75 -0.75,0.75c-0.41422,0 -0.75,-0.33578 -0.75,-0.75c0,-0.41422 0.33578,-0.75 0.75,-0.75z" data-paper-data="{&quot;index&quot;:null}" fill="#e06c00" stroke="none" stroke-width="0.5" stroke-linecap="butt"/><path d="M244.13198,193.33609c0.41422,0 0.75,0.33578 0.75,0.75c0,0.41422 -0.33578,0.75 -0.75,0.75c-0.41422,0 -0.75,-0.33578 -0.75,-0.75c0,-0.41422 0.33578,-0.75 0.75,-0.75z" data-paper-data="{&quot;index&quot;:null}" fill="#e06c00" stroke="none" stroke-width="0.5" stroke-linecap="butt"/><path d="M241.38198,193.46109c0.41422,0 0.75,0.33578 0.75,0.75c0,0.41422 -0.33578,0.75 -0.75,0.75c-0.41422,0 -0.75,-0.33578 -0.75,-0.75c0,-0.41422 0.33578,-0.75 0.75,-0.75z" data-paper-data="{&quot;index&quot;:null}" fill="#e06c00" stroke="none" stroke-width="0.5" stroke-linecap="butt"/><path d="M238.45143,193.08609c0.41422,0 0.75,0.33578 0.75,0.75c0,0.41422 -0.33578,0.75 -0.75,0.75c-0.41422,0 -0.75,-0.33578 -0.75,-0.75c0,-0.41422 0.33578,-0.75 0.75,-0.75z" data-paper-data="{&quot;index&quot;:null}" fill="#e06c00" stroke="none" stroke-width="0.5" stroke-linecap="butt"/><path d="M235.57643,193.21109c0.41422,0 0.75,0.33578 0.75,0.75c0,0.41422 -0.33578,0.75 -0.75,0.75c-0.41422,0 -0.75,-0.33578 -0.75,-0.75c0,-0.41422 0.33578,-0.75 0.75,-0.75z" data-paper-data="{&quot;index&quot;:null}" fill="#e06c00" stroke="none" stroke-width="0.5" stroke-linecap="butt"/><path d="M232.82643,193.33609c0.41422,0 0.75,0.33578 0.75,0.75c0,0.41422 -0.33578,0.75 -0.75,0.75c-0.41422,0 -0.75,-0.33578 -0.75,-0.75c0,-0.41422 0.33578,-0.75 0.75,-0.75z" data-paper-data="{&quot;index&quot;:null}" fill="#e06c00" stroke="none" stroke-width="0.5" stroke-linecap="butt"/><path d="M232.82643,193.33609c0.41422,0 0.75,0.33578 0.75,0.75c0,0.41422 -0.33578,0.75 -0.75,0.75c-0.41422,0 -0.75,-0.33578 -0.75,-0.75c0,-0.41422 0.33578,-0.75 0.75,-0.75z" data-paper-data="{&quot;index&quot;:null}" fill="#e06c00" stroke="none" stroke-width="0.5" stroke-linecap="butt"/><path d="M229.95143,193.46109c0.41422,0 0.75,0.33578 0.75,0.75c0,0.41422 -0.33578,0.75 -0.75,0.75c-0.41422,0 -0.75,-0.33578 -0.75,-0.75c0,-0.41422 0.33578,-0.75 0.75,-0.75z" data-paper-data="{&quot;index&quot;:null}" fill="#e06c00" stroke="none" stroke-width="0.5" stroke-linecap="butt"/><path d="M227.20143,193.58609c0.41422,0 0.75,0.33578 0.75,0.75c0,0.41422 -0.33578,0.75 -0.75,0.75c-0.41422,0 -0.75,-0.33578 -0.75,-0.75c0,-0.41422 0.33578,-0.75 0.75,-0.75z" data-paper-data="{&quot;index&quot;:null}" fill="#e06c00" stroke="none" stroke-width="0.5" stroke-linecap="butt"/><path d="M251.92366,188.76664c0,-0.41422 0.33578,-0.75 0.75,-0.75c0.41422,0 0.75,0.33578 0.75,0.75c0,0.41422 -0.33578,0.75 -0.75,0.75c-0.41422,0 -0.75,-0.33578 -0.75,-0.75z" fill="#e06c00" stroke="none" stroke-width="0.5" stroke-linecap="butt"/><path d="M248.9931,189.14164c0,-0.41422 0.33578,-0.75 0.75,-0.75c0.41422,0 0.75,0.33578 0.75,0.75c0,0.41422 -0.33578,0.75 -0.75,0.75c-0.41422,0 -0.75,-0.33578 -0.75,-0.75z" fill="#e06c00" stroke="none" stroke-width="0.5" stroke-linecap="butt"/><path d="M251.96531,191.43332c0,-0.41422 0.33578,-0.75 0.75,-0.75c0.41422,0 0.75,0.33578 0.75,0.75c0,0.41422 -0.33578,0.75 -0.75,0.75c-0.41422,0 -0.75,-0.33578 -0.75,-0.75z" fill="#e06c00" stroke="none" stroke-width="0.5" stroke-linecap="butt"/><path d="M249.03477,191.80832c0,-0.41422 0.33578,-0.75 0.75,-0.75c0.41422,0 0.75,0.33578 0.75,0.75c0,0.41422 -0.33578,0.75 -0.75,0.75c-0.41422,0 -0.75,-0.33578 -0.75,-0.75z" fill="#e06c00" stroke="none" stroke-width="0.5" stroke-linecap="butt"/><path d="M252.82643,193.48886c0.41422,0 0.75,0.33578 0.75,0.75c0,0.41422 -0.33578,0.75 -0.75,0.75c-0.41422,0 -0.75,-0.33578 -0.75,-0.75c0,-0.41422 0.33578,-0.75 0.75,-0.75z" data-paper-data="{&quot;index&quot;:null}" fill="#e06c00" stroke="none" stroke-width="0.5" stroke-linecap="butt"/><path d="M249.89588,193.11386c0.41422,0 0.75,0.33578 0.75,0.75c0,0.41422 -0.33578,0.75 -0.75,0.75c-0.41422,0 -0.75,-0.33578 -0.75,-0.75c0,-0.41422 0.33578,-0.75 0.75,-0.75z" data-paper-data="{&quot;index&quot;:null}" fill="#e06c00" stroke="none" stroke-width="0.5" stroke-linecap="butt"/><path d="M246.1667,182.99026c0,-0.41422 0.33578,-0.75 0.75,-0.75c0.41422,0 0.75,0.33578 0.75,0.75c0,0.41422 -0.33578,0.75 -0.75,0.75c-0.41422,0 -0.75,-0.33578 -0.75,-0.75z" fill="#e06c00" stroke="none" stroke-width="0.5" stroke-linecap="butt"/><path d="M243.2917,182.86526c0,-0.41422 0.33578,-0.75 0.75,-0.75c0.41422,0 0.75,0.33578 0.75,0.75c0,0.41422 -0.33578,0.75 -0.75,0.75c-0.41422,0 -0.75,-0.33578 -0.75,-0.75z" fill="#e06c00" stroke="none" stroke-width="0.5" stroke-linecap="butt"/><path d="M240.5417,182.74026c0,-0.41422 0.33578,-0.75 0.75,-0.75c0.41422,0 0.75,0.33578 0.75,0.75c0,0.41422 -0.33578,0.75 -0.75,0.75c-0.41422,0 -0.75,-0.33578 -0.75,-0.75z" fill="#e06c00" stroke="none" stroke-width="0.5" stroke-linecap="butt"/><path d="M237.54865,186.3083c0,-0.41422 0.33578,-0.75 0.75,-0.75c0.41422,0 0.75,0.33578 0.75,0.75c0,0.41422 -0.33578,0.75 -0.75,0.75c-0.41422,0 -0.75,-0.33578 -0.75,-0.75z" fill="#e06c00" stroke="none" stroke-width="0.5" stroke-linecap="butt"/><path d="M234.73615,182.99026c0,-0.41422 0.33578,-0.75 0.75,-0.75c0.41422,0 0.75,0.33578 0.75,0.75c0,0.41422 -0.33578,0.75 -0.75,0.75c-0.41422,0 -0.75,-0.33578 -0.75,-0.75z" fill="#e06c00" stroke="none" stroke-width="0.5" stroke-linecap="butt"/><path d="M231.98615,182.86526c0,-0.41422 0.33578,-0.75 0.75,-0.75c0.41422,0 0.75,0.33578 0.75,0.75c0,0.41422 -0.33578,0.75 -0.75,0.75c-0.41422,0 -0.75,-0.33578 -0.75,-0.75z" fill="#e06c00" stroke="none" stroke-width="0.5" stroke-linecap="butt"/><path d="M231.98615,182.86526c0,-0.41422 0.33578,-0.75 0.75,-0.75c0.41422,0 0.75,0.33578 0.75,0.75c0,0.41422 -0.33578,0.75 -0.75,0.75c-0.41422,0 -0.75,-0.33578 -0.75,-0.75z" fill="#e06c00" stroke="none" stroke-width="0.5" stroke-linecap="butt"/><path d="M229.11115,182.74026c0,-0.41422 0.33578,-0.75 0.75,-0.75c0.41422,0 0.75,0.33578 0.75,0.75c0,0.41422 -0.33578,0.75 -0.75,0.75c-0.41422,0 -0.75,-0.33578 -0.75,-0.75z" fill="#e06c00" stroke="none" stroke-width="0.5" stroke-linecap="butt"/><path d="M226.36115,182.61526c0,-0.41422 0.33578,-0.75 0.75,-0.75c0.41422,0 0.75,0.33578 0.75,0.75c0,0.41422 -0.33578,0.75 -0.75,0.75c-0.41422,0 -0.75,-0.33578 -0.75,-0.75z" fill="#e06c00" stroke="none" stroke-width="0.5" stroke-linecap="butt"/><path d="M251.98616,182.76805c0,-0.41422 0.33578,-0.75 0.75,-0.75c0.41422,0 0.75,0.33578 0.75,0.75c0,0.41422 -0.33578,0.75 -0.75,0.75c-0.41422,0 -0.75,-0.33578 -0.75,-0.75z" fill="#e06c00" stroke="none" stroke-width="0.5" stroke-linecap="butt"/><path d="M248.9931,186.33609c0,-0.41422 0.33578,-0.75 0.75,-0.75c0.41422,0 0.75,0.33578 0.75,0.75c0,0.41422 -0.33578,0.75 -0.75,0.75c-0.41422,0 -0.75,-0.33578 -0.75,-0.75z" fill="#e06c00" stroke="none" stroke-width="0.5" stroke-linecap="butt"/><path d="M223.18754,178.16783v-16.56059h33.5v16.56059z" fill="#717171" stroke="#5a5a5a" stroke-width="1.5" stroke-linecap="butt"/><path d="M223.18754,198.60249v-20.43466h33.5v20.43466z" fill="#717171" stroke="#5a5a5a" stroke-width="1.5" stroke-linecap="butt"/><path d="M227.79865,189.25275v-8.5h23.77778v8.5z" fill="url(#color-1)" stroke="#5a5a5a" stroke-width="1.5" stroke-linecap="butt"/><path d="M223.18754,198.60249v-3.66433h33.5v3.66433z" fill="#ffea00" stroke="#1f1f1f" stroke-width="1.5" stroke-linecap="butt"/><path d="M228.82146,195.13617l-5,2.86383l0.07143,-3.02747z" fill="#414141" stroke="#414141" stroke-width="1.5" stroke-linecap="round"/><path d="M231.10716,198.42857l3.85301,-2.85714l3.78985,-0.21429l-2.21074,2.92857z" fill="#414141" stroke="#414141" stroke-width="1.5" stroke-linecap="round"/><path d="M243.2292,198.5l1.83486,-3.44165l4.11454,-0.06883l-1.83486,3.37282z" fill="#414141" stroke="#414141" stroke-width="1.5" stroke-linecap="round"/><path d="M252.39288,198.24725l2.07143,-3.31868l1.92857,0.06146v2.88848z" fill="#414141" stroke="#414141" stroke-width="1.5" stroke-linecap="round"/><path d="M223.18753,198.60249v-3.66433h33.5v3.66433z" fill="none" stroke="#1f1f1f" stroke-width="1.5" stroke-linecap="butt"/><path d="M248.6991,169.39621c0,3.79926 -3.94822,6.87917 -8.81859,6.87917c-4.87037,0 -8.8186,-3.0799 -8.8186,-6.87916c0,-3.79926 3.94822,-6.87916 8.8186,-6.87916c4.87037,0 8.81859,3.0799 8.81859,6.87917z" fill="#717171" stroke="#5a5a5a" stroke-width="1.5" stroke-linecap="butt"/><path d="M248.7252,166.889c0,3.24468 -3.94822,5.875 -8.81859,5.875c-4.87037,0 -8.8186,-2.63032 -8.8186,-5.875c0,-3.24468 3.94822,-5.875 8.8186,-5.875c4.87037,0 8.81859,2.63032 8.81859,5.875z" fill="url(#color-2)" stroke="#5a5a5a" stroke-width="1.5" stroke-linecap="butt"/><path d="M231.26457,170.85491l-0.14401,-4.59091" fill="none" stroke="#5a5a5a" stroke-width="1.5" stroke-linecap="round"/><path d="M248.7252,166.889l-0.05747,3.875" fill="none" stroke="#5a5a5a" stroke-width="1.5" stroke-linecap="round"/><path d="M248.0695,189.11782c-0.06469,0 -0.12855,-0.00314 -0.19143,-0.00925c-0.04498,0.00438 -0.09047,0.00723 -0.13643,0.0085l-3.49977,0.11207l-0.01684,-0.42307c-5.30101,0.95317 -11.26727,1.05123 -16.16697,-0.05924l0.39125,-1.12113l-0.74366,-0.11113l0.37813,-2.03426c0.12564,-0.75842 0.85487,-1.34027 1.73568,-1.34027c0.77641,0 1.43506,0.45212 1.66633,1.07873l0.22901,0.57497c0.40176,-0.54053 0.64628,-2.07097 1.42328,-2.20917c2.10209,-0.37386 1.85221,2.38583 2.80061,0.36456l0.47096,-1.58355c0.18667,-0.6891 0.87935,-1.20075 1.7053,-1.20075c0.86781,0 1.58847,0.56482 1.72973,1.3068l0.26871,1.26489c0.13378,0.01976 0.27479,0.00563 0.42381,-0.0502l0.93311,0.77706c0.51289,-0.32324 1.27005,-0.62651 2.32928,-0.89461c0.34614,-0.08761 0.60971,0.11471 0.82659,0.42307l0.45173,-1.70117c0.17046,-0.70895 0.87372,-1.24025 1.71539,-1.24025c0.81548,0 1.50106,0.49877 1.69796,1.17462l0.49983,1.5686c0.0238,0.07532 0.04529,0.15499 0.06387,0.23769c0.20744,-0.0774 0.43499,-0.12012 0.67366,-0.12012c0.96916,0 1.75481,0.70444 1.75481,1.57343v0v2.28862c0,0 0,1.57343 -1.75481,1.57343c-0.49746,0 -0.85389,-0.12644 -1.10928,-0.30764c-0.17296,0.05112 -0.35778,0.07877 -0.54982,0.07877z" data-paper-data="{&quot;index&quot;:null}" fill="#ff6f00" stroke="none" stroke-width="0.5" stroke-linecap="butt"/><path d="M248.06953,189.24335c-0.06469,0 -0.12858,-0.00222 -0.19144,-0.00657c-0.045,0.00311 -0.0905,0.00512 -0.13643,0.00603l-3.49976,0.07955l-0.01685,-0.30032c-5.30102,0.67664 -11.26727,0.74624 -16.16697,-0.04206l0.39126,-0.79586l-0.74366,-0.0789l0.37812,-1.44408c0.12564,-0.53838 0.85487,-0.95144 1.73568,-0.95144c0.7764,0 1.43505,0.32094 1.66631,0.76577l0.22902,0.40816c0.40174,-0.38371 0.64628,-1.47017 1.42328,-1.56826c2.10209,-0.2654 1.8522,1.69367 2.80061,0.2588l0.47096,-1.12413c0.18667,-0.48917 0.87934,-0.85238 1.7053,-0.85238c0.86779,0 1.58846,0.40095 1.72971,0.92767l0.26871,0.89792c0.13378,0.01404 0.27479,0.00401 0.42381,-0.03563l0.9331,0.55162c0.51291,-0.22947 1.27006,-0.44475 2.3293,-0.63508c0.34615,-0.0622 0.6097,0.08143 0.82658,0.30033l0.45173,-1.20763c0.17046,-0.50329 0.87373,-0.88044 1.71539,-0.88044c0.81549,0 1.50105,0.35405 1.69795,0.83384l0.49983,1.11351c0.02378,0.05347 0.04528,0.11003 0.06387,0.16873c0.20742,-0.05493 0.43499,-0.08527 0.67366,-0.08527c0.96916,0 1.75481,0.50007 1.75481,1.11695v0v1.62465c0,0 0,1.11694 -1.75481,1.11694c-0.49747,0 -0.85389,-0.08976 -1.1093,-0.21839c-0.17294,0.03627 -0.35776,0.05591 -0.5498,0.05591z" data-paper-data="{&quot;index&quot;:null}" fill="#ffae00" stroke="none" stroke-width="0.5" stroke-linecap="butt"/><path d="M227.79864,189.25275v-8.5h23.77778v8.5z" fill="none" stroke="#5a5a5a" stroke-width="1.5" stroke-linecap="butt"/><path d="M233.34996,181.37178l-0.125,7" fill="none" stroke="#5a5a5a" stroke-width="1.5" stroke-linecap="round"/><path d="M239.75004,181.61386l-0.125,7" fill="none" stroke="#5a5a5a" stroke-width="1.5" stroke-linecap="round"/><path d="M245.75274,188.21205l-0.125,-6.875" fill="none" stroke="#5a5a5a" stroke-width="1.5" stroke-linecap="round"/><path d="M251.48342,185.3004c0,3.79926 -5.32283,6.87916 -11.88889,6.87916c-6.56606,0 -11.88889,-3.0799 -11.88889,-6.87916c0,-3.79926 5.32283,-6.87916 11.88889,-6.87916c6.56606,0 11.88889,3.0799 11.88889,6.87916z" fill="url(#color-3)" stroke="none" stroke-width="0" stroke-linecap="butt"/></g></g></svg>