<svg version="1.1" xmlns="http://www.w3.org/2000/svg" xmlns:xlink="http://www.w3.org/1999/xlink" width="33.4146" height="26.68006" viewBox="0,0,33.4146,26.68006"><g transform="translate(-222.26688,-165.98913)"><g data-paper-data="{&quot;isPaintingLayer&quot;:true}" fill-rule="nonzero" stroke="none" stroke-linecap="butt" stroke-linejoin="miter" stroke-miterlimit="10" stroke-dasharray="" stroke-dashoffset="0" style="mix-blend-mode: normal"><path d="M233.17374,180.00002c0,-3.77005 3.05623,-6.82628 6.82628,-6.82628c3.77005,0 6.82628,3.05623 6.82628,6.82628c0,3.77005 -3.05623,6.82628 -6.82628,6.82628c-3.77005,0 -6.82628,-3.05623 -6.82628,-6.82628z" fill="#da0000" stroke-width="0"/><path d="M245.32836,172.17156c1.1473,-0.52103 2.30538,-0.84744 3.3986,-0.67231c4.04646,0.64824 3.66332,5.66389 2.26533,8.47172c-1.45004,0.71623 -2.9306,1.23022 -4.37544,1.95933c2.4048,0.46844 5.41996,2.68767 7.09315,3.68353c0.5869,0.34931 2.09126,1.06598 1.96386,1.9999c-0.14756,1.08164 -1.56301,1.29325 -2.32502,1.49786c-3.70995,0.95312 -11.41343,1.494 -13.62649,-2.70821c-0.20236,-0.38425 0.0233,0.90643 -0.17958,1.29041c-0.59556,1.12716 -1.81708,2.28073 -2.76096,3.1071c-0.60164,0.46313 -1.17192,0.94505 -1.84409,1.30695c-1.89884,1.02232 -3.97728,0.78501 -3.68904,-1.85879c0.35358,-3.24304 2.01984,-5.39794 3.4362,-8.10483c0.14478,-0.27668 -0.60651,0.15879 -0.9171,0.19121c-1.00106,0.10446 -2.00283,0.19919 -3.00357,0.30928c-1.53914,0.1665 -4.7599,0.52433 -4.12563,-2.22537c0.44976,-1.94981 5.13316,-4.52583 6.56024,-5.82891c0.68415,-0.6247 1.21044,-2.27345 2.25858,-2.39208c0.78775,-0.08915 2.92447,1.0989 3.97932,2.22231c-0.36776,-2.26097 0.40024,-6.67157 1.52365,-7.17617c1.33435,-0.59933 2.17046,0.373 2.80407,1.21636c0.76138,1.01342 1.2908,2.33184 1.56392,3.71071z" fill="#da0000" stroke-width="0.5"/><path d="M234.1338,184.08785c-1.34635,0.0015 -2.69206,-0.0783 -4.03402,-0.19512l-0.0377,-0.01836l-0.00214,0.01228l-0.99845,-0.17454c-0.27168,-0.0451 -0.5207,-0.20995 -0.66341,-0.47014c-0.22438,-0.40909 -0.10875,-0.9131 0.2521,-1.18693l0.75102,-0.59112l0.18162,0.23074c0.97141,-0.92495 2.28308,-2.02562 3.18107,-2.30486c-0.04908,-0.01819 -0.09248,-0.03594 -0.12713,-0.05226c-0.52221,-0.24593 -2.17974,-1.27087 -2.123,-1.78392c0.26396,-2.38677 4.90469,-1.04311 6.16253,-1.73301c0.81533,-0.44719 1.56752,-2.70926 1.85704,-3.38309c0.6204,0.22145 1.30529,0.31093 1.8612,0.66435c0.30042,0.191 0.09796,0.96778 0.64934,0.74713c1.10815,-0.44347 2.12596,-1.3867 3.06905,-2.09432l0.7429,-0.58473c0.04345,-0.03546 0.09073,-0.06747 0.14167,-0.09541c0.45013,-0.24689 1.01518,-0.08213 1.26206,0.36801c0.16569,0.30209 0.14597,0.65593 -0.02097,0.93063l-0.46093,0.78903l-0.19351,-0.11305c-0.64991,1.68902 -1.73526,2.9082 -2.42768,4.76537c-0.21351,0.57267 1.22211,-0.02685 1.83284,-0.05008l0.03523,0.01202l0.00044,-0.01132l0.91311,0.0354c0.32138,0.00687 0.63036,0.18042 0.79605,0.48251c0.20109,0.36664 0.12909,0.80951 -0.14778,1.0946l-0.67169,0.72482l-0.14692,-0.13615c-0.18911,0.24703 -0.38852,0.48584 -0.59683,0.71527c-0.331,0.36456 -1.18262,1.30447 -0.69021,1.30607c1.95804,0.00636 3.65354,0.99243 5.62271,1.34474l0.0843,0.06461l0.01266,-0.03042l0.93686,0.38991c0.19112,0.07763 0.35775,0.21906 0.46469,0.41403c0.24689,0.45013 0.08213,1.01518 -0.36801,1.26206l-0.8398,0.46061l-0.18381,-0.33513c-2.34788,1.06586 -5.35798,0.70853 -7.95916,1.09465c-0.69978,0.10388 -1.77784,-0.34857 -2.42233,0.11769c-1.24772,0.90268 -2.52539,3.24071 -4.45709,1.82531c-0.63237,-0.46335 -1.37499,-3.38821 -1.35463,-4.21742c0.0389,-0.09682 0.0778,-0.19364 0.1167,-0.29045z" fill="#f30000" stroke-width="0.5"/><path d="M222.50258,172.64619c0.53033,-0.53033 1.06066,0 1.06066,0l0.1288,0.1288c1.28569,1.33422 2.15421,4.25727 2.02028,6.13049c-0.10929,1.52862 -1.24064,3.88764 1.05022,4.22145c0,0 0.7398,0.1233 0.6165,0.86309c-0.1233,0.7398 -0.86309,0.6165 -0.86309,0.6165c-4.9769,-0.90258 -0.79982,-7.84932 -3.88457,-10.77087l-0.1288,-0.1288c0,0 -0.53033,-0.53033 0,-1.06066z" fill="#f28c8c" stroke-width="0.5"/><path d="M250.73954,177.18438c-0.53033,0.53033 -1.06066,0 -1.06066,0l-0.37073,-0.4024c-1.79561,-1.07736 -4.00804,-2.97524 -4.2255,-5.21797c-0.08205,-0.84622 0.46567,-4.22661 0.10895,-4.08758c0,0 -0.7398,-0.1233 -0.6165,-0.86309c0.1233,-0.7398 0.86309,-0.6165 0.86309,-0.6165c2.86932,0.90139 0.43057,3.84437 1.2245,6.01896c0.53649,1.46947 2.14432,2.71622 3.41719,3.47994l0.65965,0.62798c0,0 0.53033,0.53033 0,1.06066z" fill="#f28c8c" stroke-width="0.5"/><path d="M250.62749,186.72845c0.0305,-0.20447 0.16324,-0.6494 0.7409,-0.6494c0.75,0 0.75,0.75 0.75,0.75l-0.10688,0.51467c-2.68202,4.47004 -8.28745,2.7957 -12.6213,2.81128c0,0 -0.75,0 -0.75,-0.75c0,-0.75 0.75,-0.75 0.75,-0.75c3.57826,0.01096 8.93705,1.60843 11.23728,-1.92656z" fill="#f28c8c" stroke-width="0.5"/></g></g></svg>