<svg version="1.1" xmlns="http://www.w3.org/2000/svg" xmlns:xlink="http://www.w3.org/1999/xlink" width="136.84922" height="105.28918" viewBox="0,0,136.84922,105.28918"><g transform="translate(-133.25724,-83.72421)"><g data-paper-data="{&quot;isPaintingLayer&quot;:true}" fill-rule="nonzero" stroke="none" stroke-width="0.5" stroke-linecap="butt" stroke-linejoin="miter" stroke-miterlimit="10" stroke-dasharray="" stroke-dashoffset="0" style="mix-blend-mode: normal"><path d="M204.85499,91.44701c0.75,0 0.75,0.75 0.75,0.75l-0.03849,0.31412c0.4713,1.45548 1.69873,2.15609 2.20518,3.58342c0,0 0.23717,0.71151 -0.47434,0.94868c-0.71151,0.23717 -0.94869,-0.47434 -0.94869,-0.47434c-0.40796,-1.35196 -1.71427,-2.14356 -2.20518,-3.58341l-0.03849,-0.78847c0,0 0,-0.75 0.75,-0.75z" fill="#8c5900"/><path d="M239.43043,84.14347c0.33541,0.67082 -0.33541,1.00623 -0.33541,1.00623l-0.64953,0.31634c-1.08606,0.32773 -1.96218,1.49748 -2.28213,2.55778c0,0 -0.23717,0.71151 -0.94868,0.47434c-0.71151,-0.23717 -0.47434,-0.94868 -0.47434,-0.94868c0.55004,-1.55018 1.65737,-2.94817 3.23081,-3.50647l0.45306,-0.23495c0,0 0.67082,-0.33541 1.00623,0.33541z" fill="#8c5900"/><path d="M220.2143,85.30583c0,0.75 -0.75,0.75 -0.75,0.75l-0.03848,-0.03849c-0.89797,0.00526 -0.03733,3.11002 0.82694,3.26298c0,0 0.71151,0.23717 0.47434,0.94868c-0.23717,0.71151 -0.94869,0.47434 -0.94869,0.47434c-2.17594,-0.88745 -3.22933,-5.00903 -0.82694,-6.10903l0.51282,-0.03848c0,0 0.75,0 0.75,0.75z" fill="#8c5900"/><path d="M259.98445,90.62007c0.75,0 0.75,0.75 0.75,0.75l-0.00968,0.94708c-0.54161,1.57781 -1.70654,2.61307 -3.08076,3.53602c0,0 -0.62404,0.41602 -1.04006,-0.20802c-0.41602,-0.62404 0.20801,-1.04006 0.20801,-1.04006c0.91448,-0.60443 2.09639,-1.45727 2.43218,-2.52822l-0.00969,-0.70681c0,0 0,-0.75 0.75,-0.75z" fill="#8c5900"/><path d="M187.64533,108.12479c0.33541,-0.67082 1.00623,-0.33541 1.00623,-0.33541l0.74622,0.41614c1.05892,1.13126 2.72613,1.67031 3.85906,2.75647c0,0 0.53033,0.53033 0,1.06066c-0.53033,0.53033 -1.06066,0 -1.06066,0c-1.05892,-1.13126 -2.72613,-1.67031 -3.85906,-2.75647l-0.35637,-0.13515c0,0 -0.67082,-0.33541 -0.33541,-1.00623z" fill="#8c5900"/><path d="M195.52145,97.54974c0.71151,-0.23717 0.94869,0.47434 0.94869,0.47434l0.23787,0.7346c1.13063,1.69594 1.83722,3.44565 2.98242,5.15079c0,0 0.41603,0.62403 -0.20801,1.04006c-0.62404,0.41603 -1.04006,-0.20801 -1.04006,-0.20801c-1.16148,-1.7573 -1.92203,-3.58414 -3.08182,-5.32381l-0.31342,-0.91929c0,0 -0.23717,-0.71151 0.47434,-0.94868z" fill="#8c5900"/><path d="M155.6988,165.86268l0.22202,0.55164c0.3528,0.82264 0.66968,1.66413 0.9845,2.50195c0.54409,1.90693 2.14652,7.91312 0.17985,9.41818c-0.92284,0.70624 -1.50784,-0.90288 -1.9009,-2.57191c-0.06901,-0.95998 -0.12228,-1.89932 -0.12257,-2.84991l-0.02554,-0.04346l0.02133,-0.00271l-0.10724,-0.87454c-0.04137,-0.37508 -0.3556,-0.66189 -0.74171,-0.66189c-0.41421,0 -0.67366,0.2712 -0.67366,0.68542c0,0.02059 0.00106,0.04126 0.00269,0.06144l0.11198,1.49699l0.00139,-0.0001c-0.00029,0.00233 -0.00056,0.00471 -0.00084,0.00704c-0.07794,0.63347 -0.02489,1.6736 0.172,2.71912c0.14281,1.90808 0.27905,3.85802 0.04422,5.73666c-0.00157,0.89127 0.18162,4.86613 -0.49501,5.34647c-0.23731,0.16847 -2.49879,-0.03586 -2.88821,-0.0365c-0.19633,-0.00032 -1.76033,0.07484 -2.1232,-0.17067c0.0849,-0.30518 0.14132,-0.73516 0.17887,-1.07934c0.06453,-0.13211 0.11462,-0.26318 0.12112,-0.38576c0.08369,-1.57785 0.12408,-2.84438 -0.21909,-4.21868c0,-0.00108 -0.00249,-0.10212 -0.00249,-0.1032l0.00068,-0.00552l0.2162,-0.02416l-0.10379,-0.89121c-0.03709,-0.37956 -0.36753,-0.67666 -0.75683,-0.67666c-0.38611,0 -0.71144,0.29006 -0.75281,0.66515l-0.08158,0.78312l0.01936,0.00239l-0.02378,0.04401c-0.00106,0.7657 0.44803,5.89013 -0.33717,6.11797c-0.6911,0.20053 -2.04586,-0.09545 -2.74506,-0.16588c-0.35774,-0.0503 -0.83859,0.18103 -1.08457,-0.08354c-0.13104,-0.14095 -0.02285,-2.34947 -0.04486,-2.67461c-0.18125,-2.67748 -0.26968,-5.56445 0.0847,-8.22292c0.09231,-0.69248 0.36997,-1.57377 0.34453,-2.29802c0.06557,-0.3591 0.14457,-0.72438 0.22243,-1.08091l-0.03361,-0.08215l0.03843,-0.00015l0.00303,-0.78154c0,-0.41421 -0.26131,-0.68326 -0.67553,-0.68326c-0.36345,0 -0.66274,0.2538 -0.73157,0.597l-0.21574,0.98024l0.16878,0.03782c-0.03196,0.14554 -0.0614,0.2887 -0.09082,0.43482c-0.34032,1.05147 -0.51024,2.14728 -0.59131,3.29233c-0.34278,0.95709 -1.08575,1.67782 -2.32424,0.9771c-0.49801,-0.28177 -0.32909,-2.44183 -0.32935,-2.83298c-0.00181,-2.7106 0.8707,-5.3561 2.16413,-7.72117c0.27003,-0.05499 0.45267,-0.26739 0.45267,-0.26739c2.11199,-2.50239 7.13949,-1.1705 10.0579,-1.30226c1.38768,-0.06265 2.95391,-0.30772 4.24632,0.28018z" data-paper-data="{&quot;noHover&quot;:false,&quot;origItem&quot;:[&quot;Path&quot;,{&quot;applyMatrix&quot;:true,&quot;segments&quot;:[[[496.43499,290.36259],[0,0],[-2.5848,-1.17581]],[[487.97232,289.8161],[2.77535,-0.1253],[-5.83683,0.26353]],[[467.94253,292.40451],[4.22399,-5.00478],[0,0]],[[467.04065,292.93661],[0.54007,-0.10999],[-2.58686,4.73015]],[[462.74809,308.31721],[-0.00361,-5.42119],[0.00052,0.7823]],[[463.40716,313.95383],[-0.99603,-0.56354],[2.47697,1.40145]],[[467.85663,312.01728],[-0.68556,1.91418],[0.16213,-2.29009]],[[469.04847,305.38632],[-0.68063,2.10294],[0.05884,-0.29223]],[[469.23279,304.51134],[-0.06392,0.29109],[0,0]],[468.89492,304.43626],[[469.33295,302.4651],[0,0],[0.13765,-0.68639]],[[470.80364,301.26165],[-0.7269,0],[0.82843,0]],[[472.30364,302.76165],[0,-0.82843],[0,0]],[472.30364,304.31721],[472.22701,304.31721],[[472.29469,304.48088],[0,0],[-0.15574,0.71307]],[[471.85883,306.6273],[0.13113,-0.71819],[0.05089,1.4485]],[[471.17926,311.18297],[0.18462,-1.38496],[-0.70876,5.31694]],[[470.96654,327.54421],[-0.3625,-5.35496],[0.04402,0.65029]],[[471.04523,332.88685],[-0.26208,-0.2819],[0.49196,0.52915]],[[473.2066,333.05036],[-0.71548,-0.10061],[1.3984,0.14085]],[[478.67406,333.37583],[-1.38221,0.40107],[1.57041,-0.45568]],[[479.30654,321.33511],[-0.00212,1.5314],[0,0]],[479.35432,321.24715],[479.31523,321.24227],[[479.53498,319.48423],[0,0],[0.08274,-0.75016]],[[481.02587,318.15054],[-0.77221,0],[0.7786,0]],[[482.51869,319.50288],[-0.07417,-0.75912],[0,0]],[482.73891,321.48489],[482.30218,321.53342],[[482.3008,321.54447],[0,0],[0.00001,0.00215]],[[482.30082,321.55093],[-0.00001,-0.00215],[0.68633,2.74861]],[[482.74519,330.18819],[0.16737,-3.1557],[-0.013,0.24515]],[[482.50156,330.95975],[0.12905,-0.26423],[-0.0751,0.68836]],[[482.14107,332.91845],[0.1698,-0.61036],[0.72575,0.49101]],[[486.3685,333.26168],[-0.39266,-0.00064],[0.77885,0.00126]],[[492.12257,333.34191],[-0.47462,0.33694],[1.35326,-0.96069]],[[493.08432,322.66845],[-0.00313,1.78255],[0.46966,-3.75727]],[[492.96593,311.26793],[0.28561,3.81615],[-0.39377,-2.09104]],[[492.63336,305.8747],[-0.15588,1.26694],[0.00057,-0.00467]],[[492.63509,305.8607],[-0.00058,0.00467],[0,0]],[492.63231,305.8609],[[492.41967,302.88397],[0,0],[-0.00326,-0.04034]],[[492.41476,302.76165],[0,0.04118],[0,-0.82843]],[[493.91476,301.26165],[-0.82843,0],[0.77221,0]],[[495.40564,302.59534],[-0.08274,-0.75016],[0,0]],[495.62539,304.35338],[495.58269,304.35872],[[495.63408,304.44622],[0,0],[0.00057,1.90117]],[[495.88986,310.1828],[-0.13802,-1.91996],[0.78614,3.33805]],[[499.49447,315.31377],[-1.84568,1.41247],[3.93334,-3.01012]],[[499.15688,296.56475],[1.08818,3.81386],[-0.62963,-1.67564]],[[497.2027,291.57475],[0.70559,1.64528],[0,0]],[496.76188,290.47383]],&quot;closed&quot;:true}]}" fill="#0060b9"/><path d="M153.24651,185.24195c-1.52141,0 -3.03849,-0.03814 -4.55538,-0.08281c-0.00854,0.19733 -0.01859,0.39772 -0.0294,0.60164c-0.0065,0.12257 -0.05729,0.25366 -0.12182,0.38578c-0.03755,0.34418 -0.09534,0.67417 -0.18024,0.97935c0.36288,0.24551 1.91738,0.1713 2.11372,0.17161c0.38942,0.00063 2.63973,0.20858 2.87704,0.04011c0.3077,-0.21844 0.43466,-1.15751 0.48179,-2.20044zM153.24651,183.74195l0.40847,-0.09655c0,0 0.08409,-0.01682 0.20108,-0.01065c-0.00447,-0.72067 -0.02528,-1.34203 -0.02477,-1.63385c0.23483,-1.87863 0.08361,-3.79218 -0.0592,-5.70026c-0.19689,-1.04552 -0.24423,-2.06314 -0.16629,-2.69661c0.00029,-0.00233 0.00058,-0.00467 0.00087,-0.007l-0.00139,0.0001l-0.10632,-1.48847c-0.00163,-0.02017 -0.00246,-0.04057 -0.00246,-0.06116c0,-0.41421 0.33579,-0.75 0.75,-0.75c0.38611,0 0.70407,0.29176 0.74544,0.66685l0.10988,0.87902l-0.02135,0.00267l0.02569,0.04375c0.00029,0.95059 0.05888,1.90831 0.12789,2.86829c0.39307,1.66903 0.87946,3.27172 1.8023,2.56548c1.96667,-1.50506 0.3753,-7.46758 -0.16879,-9.37451c-0.31481,-0.83782 -0.62429,-1.67236 -0.97709,-2.495l-0.22041,-0.55046l-0.16344,-0.05562c-1.2924,-0.5879 -2.84366,-0.3359 -4.23133,-0.27324c-2.91841,0.13176 -7.9029,-1.20819 -10.0149,1.2942c0,0 -0.18091,0.21106 -0.45094,0.26605c-1.29343,2.36508 -2.14808,4.9797 -2.14628,7.6903c0.00026,0.39115 -0.16848,2.53654 0.32953,2.81831c1.23849,0.70073 1.88196,-0.01119 2.22474,-0.96828c0.08107,-1.14505 0.2556,-2.26401 0.59592,-3.31548c0.02942,-0.14611 0.0602,-0.29195 0.09216,-0.43749l-0.16893,-0.03754l0.21902,-0.98558c0.06882,-0.34319 0.37189,-0.60172 0.73534,-0.60172c0.41421,0 0.75,0.33579 0.75,0.75v0.77778h-0.03832l0.03384,0.08184c-0.07787,0.35653 -0.15236,0.71411 -0.21793,1.07321c0.02544,0.72425 -0.24748,1.58536 -0.33978,2.27784c-0.31415,2.35665 -0.29734,4.85962 -0.16322,7.26273c1.44918,0.00713 2.89374,0.04583 4.33712,0.08891c-0.04066,-1.04642 -0.11067,-1.97952 -0.11026,-2.27557l0.02389,-0.04398l-0.01954,-0.00244l0.10988,-0.87902c0.04137,-0.37508 0.35933,-0.66685 0.74544,-0.66685c0.3893,0 0.70933,0.29661 0.74641,0.67617l0.11011,0.99101l-0.21837,0.02426l-0.00069,0.00552c0,0.00108 0.00001,0.00215 0.00001,0.00323c0.1824,0.73046 0.25731,1.45872 0.27491,2.21767c1.50923,0.04438 3.0186,0.08213 4.53206,0.08213zM142.81175,187.1101c0.24598,0.26458 0.72295,0.03145 1.08068,0.08175c0.6992,0.07043 2.04263,0.36327 2.73373,0.16274c0.33846,-0.09821 0.44369,-1.08806 0.45397,-2.24396c-1.43496,-0.04289 -2.87105,-0.08162 -4.31177,-0.08946c-0.01706,0.76785 -0.05288,1.98539 0.04339,2.08893zM151.21773,164.07583c1.68339,-0.07704 3.29918,-0.25542 4.87978,0.39342l0.27506,0.08896c0,0 0.39623,0.13208 0.49876,0.49479c0.12602,0.12994 0.18265,0.27151 0.18265,0.27151l0.21522,0.53866c0.36945,0.86261 0.69399,1.73733 1.02291,2.61611c0.76685,2.68075 2.35323,9.02852 -0.39102,11.06993c-1.00602,0.74837 -1.81417,0.72567 -2.44725,0.2669c0.0026,0.7631 -0.03111,1.52326 -0.12545,2.27799c0.00294,1.48101 0.23738,5.40283 -1.07468,6.44105c-1.03347,0.81777 -4.82283,0.4807 -6.50223,-0.21671c-0.15559,0.17206 -0.33798,0.31484 -0.5513,0.42196c-0.74974,0.37652 -2.68004,0.02083 -3.48849,-0.05948c-0.53305,-0.07716 -1.67093,-0.17692 -2.03043,-0.58491c-0.646,-0.73316 -0.406,-3.53651 -0.40698,-4.49296c-0.00153,-1.47984 -0.10207,-3.06778 -0.11617,-4.65762c-0.75941,0.55717 -1.75008,0.68037 -2.99114,-0.04959c-0.76411,-0.44943 -0.99806,-2.19498 -1.0038,-2.95946c-0.0263,-3.50166 0.72475,-6.61808 2.42772,-9.69757c0,0 0.20243,-0.36438 0.57712,-0.39893c2.63736,-2.95695 7.48515,-1.60092 11.04972,-1.76406z" fill="#00488c"/><path d="M153.8784,185.11806c-0.04713,1.04294 -0.1751,2.02253 -0.48279,2.24097c-0.23731,0.16847 -2.55872,-0.01812 -2.94814,-0.01875c-0.19633,-0.00032 -1.77265,0.04605 -2.13552,-0.19945c0.0849,-0.30518 0.14047,-0.65251 0.17802,-0.99669c0.06453,-0.13211 0.11632,-0.27103 0.12282,-0.3936c0.01082,-0.20392 0.02441,-0.41504 0.03295,-0.61237c1.51689,0.04468 3.12447,0.08222 4.64588,0.08222z" data-paper-data="{&quot;noHover&quot;:false,&quot;origItem&quot;:[&quot;Path&quot;,{&quot;applyMatrix&quot;:true,&quot;segments&quot;:[[[244.95738,185.24194],[0,0],[-1.52141,0]],[[240.402,185.15912],[1.51689,0.04468],[-0.00854,0.19733]],[[240.3726,185.76076],[0.01082,-0.20392],[-0.0065,0.12257]],[[240.25078,186.14654],[0.06453,-0.13211],[-0.03755,0.34418]],[[240.07053,187.12589],[0.0849,-0.30518],[0.36288,0.24551]],[[242.18425,187.29751],[-0.19633,-0.00032],[0.38942,0.00063]],[[245.06129,187.33762],[-0.23731,0.16847],[0.3077,-0.21844]],[[245.54308,185.13718],[-0.04713,1.04294],[0,0]]],&quot;closed&quot;:true}]}" fill="#00529f"/><path d="M142.72473,184.99674c1.44072,0.00784 2.96493,0.04817 4.39988,0.09106c-0.01027,1.1559 -0.11829,2.19616 -0.45674,2.29437c-0.6911,0.20053 -2.11251,-0.08547 -2.8117,-0.15589c-0.35774,-0.0503 -0.8445,0.16785 -1.09048,-0.09672c-0.09627,-0.10354 -0.05802,-1.36496 -0.04095,-2.13281z" data-paper-data="{&quot;noHover&quot;:false,&quot;origItem&quot;:[&quot;Path&quot;,{&quot;applyMatrix&quot;:true,&quot;segments&quot;:[[[234.52262,187.11009],[-0.09627,-0.10354],[0.24598,0.26458]],[[235.6033,187.19185],[-0.35774,-0.0503],[0.6992,0.07043]],[[238.33703,187.35458],[-0.6911,0.20053],[0.33846,-0.09821]],[[238.791,185.11062],[-0.01027,1.1559],[-1.43496,-0.04289]],[[234.47923,185.02116],[1.44072,0.00784],[-0.01706,0.76785]]],&quot;closed&quot;:true}]}" fill="#00529f"/><path d="M162.78667,146.00889c0.37195,0.65127 -0.27933,1.02322 -0.27933,1.02322l-0.11596,0.06622c-0.88569,0.50534 -1.79273,0.97498 -2.7166,1.40658c0,0 -0.67964,0.31716 -0.9968,-0.36247c-0.31716,-0.67964 0.36247,-0.9968 0.36247,-0.9968c0.88696,-0.41345 1.75748,-0.86418 2.60704,-1.34986l0.11596,-0.06622c0,0 0.65127,-0.37195 1.02322,0.27933z" fill="#8c5900"/><path d="M152.57984,140.51972c0.75,0 0.75,0.75 0.75,0.75l-0.02643,0.64178c-0.11111,0.40741 -0.22222,0.81481 -0.33333,1.22222c0,0 -0.19734,0.72357 -0.92091,0.52623c-0.72357,-0.19734 -0.52623,-0.92091 -0.52623,-0.92091c0.11111,-0.40741 0.22222,-0.81481 0.33333,-1.22222l-0.02643,-0.24711c0,0 0,-0.75 0.75,-0.75z" fill="#8c5900"/><path d="M142.16062,141.18383c0.53033,-0.53033 1.06066,0 1.06066,0l0.41743,0.43357c0.25926,0.37037 0.51852,0.74074 0.77778,1.11111c0,0 0.4301,0.61442 -0.18433,1.04452c-0.61442,0.4301 -1.04452,-0.18433 -1.04452,-0.18433c-0.25926,-0.37037 -0.51852,-0.74074 -0.77778,-1.11111l-0.24924,-0.2331c0,0 -0.53033,-0.53033 0,-1.06066z" fill="#8c5900"/><path d="M134.06691,146.07592c0.41603,-0.62404 1.04006,-0.20801 1.04006,-0.20801l0.37776,0.25425c0.33333,0.25926 0.66667,0.51852 1,0.77778c0,0 0.59201,0.46046 0.13156,1.05247c-0.46046,0.59201 -1.05247,0.13156 -1.05247,0.13156c-0.33333,-0.25926 -0.66667,-0.51852 -1,-0.77778l-0.2889,-0.1902c0,0 -0.62404,-0.41603 -0.20801,-1.04006z" fill="#8c5900"/><path d="M137.20736,148.9345l-0.12357,0.15341c-1.42752,2.6588 -2.45503,5.02995 -1.98747,8.18111c0.67586,4.55494 6.74007,9.80938 11.20929,10.37875c10.12628,1.39855 17.89941,-10.83977 11.47525,-19.2084c-3.5902,-4.74801 -9.54165,-5.36436 -14.8683,-3.35531c-1.8502,0.69784 -4.24192,1.52123 -5.54423,3.14214c0.08536,0.37372 -0.16097,0.70829 -0.16097,0.70829zM135.26381,148.40723c1.35394,-2.70216 4.35479,-3.89944 7.048,-4.91564c6.05692,-2.28541 12.73216,-1.40953 16.82251,3.9158c7.27258,9.5944 -1.42149,23.49509 -13.05869,21.92677c-5.24769,-0.75258 -11.83515,-6.46649 -12.66285,-11.81508c-0.4949,-3.19808 0.40679,-5.80703 1.7849,-8.50002c-0.07753,-0.31392 0.06612,-0.61183 0.06612,-0.61183z" data-paper-data="{&quot;index&quot;:null}" fill="#8d7f67"/><path d="M137.32298,148.19212c1.30231,-1.62091 3.71699,-2.46235 5.56719,-3.16019c5.32665,-2.00905 11.34637,-1.37394 14.93657,3.37407c6.42416,8.36862 -1.40083,20.69674 -11.5271,19.29819c-4.46922,-0.56937 -10.58383,-5.87394 -11.25969,-10.42888c-0.46756,-3.15116 0.56873,-5.55948 1.99626,-8.21828l0.12406,-0.15416c0,0 0.24807,-0.33703 0.16272,-0.71075z" data-paper-data="{&quot;noHover&quot;:false,&quot;origItem&quot;:[&quot;Path&quot;,{&quot;applyMatrix&quot;:true,&quot;segments&quot;:[[461.79205,256.51809],[[461.57425,256.7885],[0,0],[-2.51619,4.68647]],[[458.07109,271.20873],[-0.82414,-5.55431],[1.19129,8.02865]],[[477.82886,289.50257],[-7.87755,-1.00359],[17.84882,2.46512]],[[498.05541,255.64538],[11.32339,14.75074],[-6.32818,-8.36895]],[[471.84818,249.73122],[9.38889,-3.5412],[-3.26121,1.23003]],[[462.07578,255.26964],[2.29549,-2.85706],[0.15045,0.65872]]],&quot;closed&quot;:true}]}" fill="#e6d0a9"/><path d="M143.2377,161.86441c-0.05467,-0.32819 -0.09999,-0.6521 -0.13732,-0.974c-0.61991,-0.00989 -1.23969,-0.016 -1.85922,-0.01682c-0.00022,0.04725 -0.00045,0.09449 -0.00071,0.14174c-0.00187,0.33801 -0.40187,0.94877 -0.06975,1.01164c0.65393,0.12378 1.34507,0.19083 2.05924,0.21905zM144.91655,161.5846l0.00907,0.66541c0.59909,-0.01714 1.20604,-0.05058 1.81336,-0.09086l-0.10595,-0.64811c0,-0.17971 -0.00272,-0.35746 -0.0084,-0.53363c-0.60177,-0.01837 -1.20357,-0.03582 -1.80534,-0.051c0.02809,0.21766 0.06033,0.43677 0.09725,0.6582zM148.32925,161.37065l0.11331,0.66488c0.95273,-0.07099 1.88879,-0.13694 2.77843,-0.16027c-0.05217,-0.16028 -0.05217,-0.29259 -0.05217,-0.29259c0,-0.15142 0,-0.30882 0,-0.47079c-0.94716,-0.02263 -1.89501,-0.05148 -2.84318,-0.08125c0.00241,0.11257 0.0036,0.22587 0.0036,0.34002zM152.87083,157.32764c0,0.70501 0,1.41002 0,2.11502c0.48128,0.00673 0.96231,0.01102 1.44305,0.01218c-0.07853,-0.34968 -0.13605,-0.7079 -0.1649,-1.08148c-0.02866,-0.37113 0.52351,-1.03799 0.15745,-1.10556c-0.39806,-0.07347 -0.89766,-0.06983 -1.44214,-0.02647c0.00654,0.05318 0.00654,0.08631 0.00654,0.08631zM152.87083,161.15717v0.4255c0,0 -0.00001,0.07961 -0.02435,0.19012c0.76902,-0.1162 1.5717,-0.27148 2.2216,-0.02948c-0.08753,-0.22546 -0.17341,-0.44808 -0.25548,-0.66976l-0.23977,0.08363c-0.56696,0 -1.13433,-0.00454 -1.70201,-0.01248c0,0.00416 0,0.00832 0,0.01248zM141.24048,157.89377c0.00019,0.42592 0.00119,0.85187 0.00189,1.27782c0.57554,0.00077 1.15131,0.00609 1.72721,0.01478c-0.01781,-0.42977 -0.0257,-0.86313 -0.02695,-1.30547c-0.56817,0.00663 -1.13573,0.01092 -1.70216,0.01287zM146.46336,159.27049c-0.07895,-0.48342 -0.1881,-0.96426 -0.33288,-1.4513c-0.49516,0.01341 -0.99057,0.02503 -1.48591,0.03487c0.00104,0.46465 0.00941,0.91759 0.0298,1.36672c0.5963,0.01467 1.19266,0.03167 1.789,0.0497zM151.16882,159.40987c0,-0.68206 0,-1.36232 0,-1.959c-0.82031,0.12123 -1.61792,0.24787 -2.23067,0.27295c-0.35312,0.01445 -0.7067,0.02798 -1.06062,0.0406c0.13437,0.52338 0.23776,1.03939 0.3115,1.5599c0.99375,0.03128 1.98716,0.06184 2.97978,0.08555zM139.60662,157.41505c-0.04248,-0.10096 -0.06818,-0.22316 -0.06818,-0.37107c0,-0.851 0.851,-0.851 0.851,-0.851h0.14183c3.89166,0 7.83617,-0.10555 11.72983,-0.28261c0.69369,-0.03154 2.53378,-0.40154 3.14547,0.05878c1.17558,0.88467 1.06152,6.18688 0.65669,7.15489c-4.18027,0.51578 -8.22706,0.56786 -12.43664,0.44393c-0.39989,-0.01177 -3.1076,0.06381 -3.45111,-0.16027c-1.2515,-0.81638 -0.63708,-4.41808 -0.63708,-5.65456c0,0 -0.00001,-0.15815 0.06818,-0.3381z" fill="#000000"/><path d="M152.83119,157.19527c0.54448,-0.04336 1.10701,-0.04918 1.50507,0.02429c0.36606,0.06756 -0.1594,0.78729 -0.13074,1.15842c0.02885,0.37358 0.05877,0.77599 0.1373,1.12567c-0.48074,-0.00115 -1.02326,-0.00777 -1.50454,-0.0145c0,-0.70501 -0.00217,-1.50136 -0.00217,-2.20637c0,0 0.00161,-0.03433 -0.00492,-0.08751z" data-paper-data="{&quot;noHover&quot;:false,&quot;origItem&quot;:[&quot;Path&quot;,{&quot;applyMatrix&quot;:true,&quot;segments&quot;:[[[244.5817,157.32764],[0,0],[0,0.70501]],[[244.5817,159.44267],[0,-0.70501],[0.48128,0.00673]],[[246.02475,159.45484],[-0.48074,-0.00115],[-0.07853,-0.34968]],[[245.85985,158.37336],[0.02885,0.37358],[-0.02866,-0.37113]],[[246.01731,157.26781],[0.36606,0.06756],[-0.39806,-0.07347]],[[244.57517,157.24133],[0.54448,-0.04336],[0.00654,0.05318]]],&quot;closed&quot;:true}]}" fill="#ffb900"/><path d="M152.81587,161.1306c0.56768,0.00794 1.24208,0.00406 1.80904,0.00406l0.2402,-0.08259c0.08207,0.22168 0.16994,0.48148 0.25748,0.70694c-0.64991,-0.242 -1.56121,-0.0854 -2.33023,0.03081c0.02434,-0.11051 0.02233,-0.19891 0.02233,-0.19891l0.00103,-0.44723c0,-0.00416 0.00015,-0.00891 0.00015,-0.01308z" data-paper-data="{&quot;noHover&quot;:false,&quot;origItem&quot;:[&quot;Path&quot;,{&quot;applyMatrix&quot;:true,&quot;segments&quot;:[[[244.5817,161.15716],[0,-0.00416],[0,0]],[244.5817,161.58266],[[244.55735,161.77278],[0.02434,-0.11051],[0.76902,-0.1162]],[[246.77895,161.7433],[-0.64991,-0.242],[-0.08753,-0.22546]],[[246.52348,161.07353],[0.08207,0.22168],[0,0]],[[246.28371,161.15716],[0,0],[-0.56696,0]],[[244.5817,161.14468],[0.56768,0.00794],[0,0.00416]]],&quot;closed&quot;:true}]}" fill="#ffb900"/><path d="M148.27205,161.01203c0.94817,0.02977 2.00393,0.06083 2.95109,0.08346c0,0.16197 0.00238,0.33778 0.00238,0.4892c0,0 -0.00149,0.14334 0.05068,0.30362c-0.88964,0.02333 -1.93399,0.09627 -2.88672,0.16726l-0.11662,-0.69126c0,-0.11415 0.00158,-0.23971 -0.00082,-0.35228z" data-paper-data="{&quot;noHover&quot;:false,&quot;origItem&quot;:[&quot;Path&quot;,{&quot;applyMatrix&quot;:true,&quot;segments&quot;:[[[240.04012,161.37064],[0,-0.11415],[0,0]],[[240.15343,162.03551],[0,0],[0.95273,-0.07099]],[[242.93186,161.87525],[-0.88964,0.02333],[-0.05217,-0.16028]],[[242.87969,161.58266],[0,0],[0,-0.15142]],[[242.87969,161.11187],[0,0.16197],[-0.94716,-0.02263]],[[240.03651,161.03062],[0.94817,0.02977],[0.00241,0.11257]]],&quot;closed&quot;:true}]}" fill="#ffb900"/><path d="M148.14191,159.3559c-0.07374,-0.52051 -0.18259,-1.08938 -0.31696,-1.61276c0.35392,-0.01262 0.7239,-0.04856 1.07703,-0.06301c0.61275,-0.02508 1.49529,-0.13704 2.3156,-0.25827c0,0.59668 0,1.33497 0,2.01703c-0.99263,-0.02371 -2.08192,-0.05171 -3.07567,-0.08299z" data-paper-data="{&quot;noHover&quot;:false,&quot;origItem&quot;:[&quot;Path&quot;,{&quot;applyMatrix&quot;:true,&quot;segments&quot;:[[[242.87969,159.40986],[-0.99263,-0.02371],[0,-0.68206]],[[242.87969,157.45086],[0,0.59668],[-0.82031,0.12123]],[[240.64903,157.72381],[0.61275,-0.02508],[-0.35312,0.01445]],[[239.58841,157.76441],[0.35392,-0.01262],[0.13437,0.52338]],[[239.89991,159.32431],[-0.07374,-0.52051],[0.99375,0.03128]]],&quot;closed&quot;:true}]}" fill="#ffb900"/><path d="M144.62938,159.25535c-0.02038,-0.44913 -0.02895,-0.97095 -0.02999,-1.4356c0.49534,-0.00984 1.07122,-0.03157 1.56638,-0.04498c0.14478,0.48704 0.26299,1.04769 0.34194,1.5311c-0.59633,-0.01803 -1.28202,-0.03585 -1.87833,-0.05052z" data-paper-data="{&quot;noHover&quot;:false,&quot;origItem&quot;:[&quot;Path&quot;,{&quot;applyMatrix&quot;:true,&quot;segments&quot;:[[[238.17423,159.27048],[-0.59633,-0.01803],[-0.07895,-0.48342]],[[237.84135,157.81918],[0.14478,0.48704],[-0.49516,0.01341]],[[236.35544,157.85406],[0.49534,-0.00984],[0.00104,0.46465]],[[236.38524,159.22077],[-0.02038,-0.44913],[0.5963,0.01467]]],&quot;closed&quot;:true}]}" fill="#ffb900"/><path d="M144.77259,160.8942c0.60177,0.01518 1.29627,0.03161 1.89804,0.04998c0.00567,0.17617 0.01891,0.38204 0.01891,0.56175l0.09821,0.68222c-0.60732,0.04029 -1.30787,0.07948 -1.90696,0.09663l-0.02097,-0.70041c-0.03692,-0.22143 -0.05914,-0.4725 -0.08723,-0.69017z" data-paper-data="{&quot;noHover&quot;:false,&quot;origItem&quot;:[&quot;Path&quot;,{&quot;applyMatrix&quot;:true,&quot;segments&quot;:[[[236.62742,161.58459],[-0.03692,-0.22143],[0,0]],[[236.63649,162.25],[0,0],[0.59909,-0.01714]],[[238.44986,162.15913],[-0.60732,0.04029],[0,0]],[[238.34391,161.51102],[0,0],[0,-0.17971]],[[238.33551,160.97739],[0.00567,0.17617],[-0.60177,-0.01837]],[[236.53017,160.92639],[0.60177,0.01518],[0.02809,0.21766]]],&quot;closed&quot;:true}]}" fill="#ffb900"/><path d="M143.27797,162.27622c-0.71417,-0.02822 -1.50442,-0.1008 -2.15836,-0.22458c-0.33212,-0.06287 0.07046,-0.72772 0.07233,-1.06572c0.00026,-0.04725 0.00395,-0.09954 0.00416,-0.14679c0.61953,0.00082 1.33094,0.00899 1.95085,0.01888c0.03733,0.3219 0.09075,0.69336 0.14543,1.02155z" data-paper-data="{&quot;noHover&quot;:false,&quot;origItem&quot;:[&quot;Path&quot;,{&quot;applyMatrix&quot;:true,&quot;segments&quot;:[[[234.94857,161.8644],[0,0],[-0.05467,-0.32819]],[[234.81125,160.8904],[0.03733,0.3219],[-0.61991,-0.00989]],[[232.95203,160.87359],[0.61953,0.00082],[-0.00022,0.04725]],[[232.95132,161.01533],[0.00026,-0.04725],[-0.00187,0.33801]],[[232.88157,162.02697],[-0.33212,-0.06287],[0.65393,0.12378]],[[234.9408,162.24602],[-0.71417,-0.02822],[0,0]]],&quot;closed&quot;:true}]}" fill="#ffb900"/><path d="M142.98738,157.84603c0.00125,0.44235 0.00967,0.94476 0.02748,1.37453c-0.5759,-0.00869 -1.24256,-0.01447 -1.8181,-0.01524c-0.00071,-0.42596 -0.00169,-0.91938 -0.00188,-1.34531c0.56643,-0.00195 1.22434,-0.00736 1.79251,-0.01399z" data-paper-data="{&quot;noHover&quot;:false,&quot;origItem&quot;:[&quot;Path&quot;,{&quot;applyMatrix&quot;:true,&quot;segments&quot;:[[[232.95135,157.89376],[0.56643,-0.00195],[0.00019,0.42592]],[[232.95324,159.17158],[-0.00071,-0.42596],[0.57554,0.00077]],[[234.68045,159.18637],[-0.5759,-0.00869],[-0.01781,-0.42977]],[[234.6535,157.88089],[0.00125,0.44235],[-0.56817,0.00663]]],&quot;closed&quot;:true}]}" fill="#ffb900"/><path d="M153.15245,148.86171c-0.9108,0.77651 -3.17605,2.91751 -1.99926,3.67173c0.41216,0.26416 2.50255,0.19021 2.87619,0.20454c0.86631,0.03322 1.8994,0.74679 2.59115,0.22422c0.43284,-0.32698 -0.45148,-0.987 -0.7007,-1.46883c-0.58353,-1.12816 -0.75513,-2.30792 -2.10539,-2.54125l-0.228,0.02027c0,0 -0.21845,0.00001 -0.43399,-0.11068zM153.5337,147.27335c0.03319,-0.00297 0.05275,-0.00297 0.05275,-0.00297l0.59722,0.02027c1.88376,0.4754 5.41395,4.84063 3.58932,6.92403c-0.79954,0.91294 -6.9065,0.33893 -7.73611,-0.39645c-2.38603,-2.11504 0.8779,-5.41985 2.42005,-6.58394c0,0 0.5847,-0.43852 1.07676,0.03907z" fill="#000000"/><path d="M153.58108,148.91591l0.23432,-0.02051c1.35026,0.23333 1.57623,1.48238 2.15977,2.61054c0.24922,0.48183 1.12495,1.16144 0.69211,1.48842c-0.69175,0.52257 -1.76348,-0.16701 -2.62979,-0.20023c-0.37365,-0.01433 -2.52119,0.03197 -2.93335,-0.23219c-1.1768,-0.75422 1.12159,-2.97817 2.03239,-3.75469c0.21554,0.11068 0.44455,0.10865 0.44455,0.10865z" data-paper-data="{&quot;noHover&quot;:false,&quot;origItem&quot;:[&quot;Path&quot;,{&quot;applyMatrix&quot;:true,&quot;segments&quot;:[[[489.89726,256.3898],[0.37992,0.19509],[-1.6054,1.3687]],[[486.37332,262.86168],[-2.07425,-1.3294],[0.72648,0.46561]],[[491.44297,263.2222],[-0.6586,-0.02525],[1.52698,0.05855]],[[496.0102,263.61742],[-1.2193,0.92109],[0.76294,-0.57634]],[[494.77513,261.02843],[0.43928,0.84928],[-1.02855,-1.98853]],[[491.06411,256.54916],[2.38001,0.41127],[0,0]],[490.66223,256.58488]],&quot;closed&quot;:true}]}" fill="#ffbaba"/><path d="M141.32101,148.6917c-0.09043,0.09595 -0.17168,0.14765 -0.17168,0.14765c-0.60167,0.38147 -1.21362,0.76238 -1.73541,1.24741c-2.59542,2.41258 -0.39355,2.79533 1.91126,2.55223c0.15117,-0.01594 2.03481,-0.18073 2.07182,-0.25734c0.43096,-0.8922 -1.08449,-3.37502 -2.076,-3.68995zM140.37807,147.33371c0.23613,-0.37279 0.72698,-0.37279 0.72698,-0.37279l0.18783,0.00422c2.01837,0.30859 4.83206,4.12914 3.50304,6.38595c-1.17097,1.98842 -7.59916,1.69484 -8.21862,-0.54687c-0.70231,-2.54152 1.88748,-4.27016 3.65826,-5.40081c0,0 0.05429,-0.03455 0.14251,-0.06971z" fill="#000000"/><path d="M143.44428,152.41302c-0.03701,0.07661 -1.95464,0.26518 -2.10581,0.28113c-2.30481,0.2431 -4.57222,-0.21689 -1.9768,-2.62947c0.52179,-0.48503 1.19481,-0.8999 1.79647,-1.28137c0,0 0.08522,-0.05092 0.17565,-0.14687c0.99151,0.31493 2.54144,2.88439 2.11048,3.77658z" data-paper-data="{&quot;noHover&quot;:false,&quot;origItem&quot;:[&quot;Path&quot;,{&quot;applyMatrix&quot;:true,&quot;segments&quot;:[[[469.04287,256.09013],[1.74766,0.5551],[-0.1594,0.16912]],[[468.74027,256.35038],[0,0],[-1.06051,0.67239]],[[465.6814,258.5491],[0.91972,-0.85493],[-4.57475,4.25247]],[[469.05023,263.04772],[-4.06251,0.42849],[0.26646,-0.0281]],[[472.70207,262.59413],[-0.06523,0.13503],[0.75962,-1.57261]]],&quot;closed&quot;:true}]}" fill="#ffbaba"/><path d="M140.35721,151.21595c0,-0.47 0.38101,-0.851 0.851,-0.851c0.47,0 0.851,0.38101 0.851,0.851c0,0.47 -0.38101,0.851 -0.851,0.851c-0.47,0 -0.851,-0.38101 -0.851,-0.851z" fill="#000000"/><path d="M152.3081,151.1349c0,-0.64904 0.52615,-1.1752 1.1752,-1.1752c0.64904,0 1.1752,0.52615 1.1752,1.1752c0,0.64904 -0.52615,1.1752 -1.1752,1.1752c-0.64904,0 -1.1752,-0.52615 -1.1752,-1.1752z" fill="#000000"/><path d="M139.87205,141.56748c0.70225,-0.26334 0.96559,0.4389 0.96559,0.4389l0.3252,0.86813c0.34582,0.7827 0.60212,1.60579 0.81128,2.43553c0,0 0.1819,0.72761 -0.54571,0.90951c-0.72761,0.1819 -0.90951,-0.54571 -0.90951,-0.54571c-0.18851,-0.761 -0.42418,-1.51546 -0.74428,-2.23114l-0.34147,-0.90965c0,0 -0.26334,-0.70225 0.4389,-0.96559z" fill="#8c5900"/><path d="M148.14758,140.1966c0.7398,0.1233 0.6165,0.86309 0.6165,0.86309l-0.10091,0.54337c0,0.87072 0.00264,1.68759 -0.11865,2.55051c0,0 -0.10607,0.74246 -0.84853,0.6364c-0.74246,-0.10607 -0.6364,-0.84853 -0.6364,-0.84853c0.11516,-0.79153 0.10357,-1.53823 0.10357,-2.33838l0.12132,-0.78997c0,0 0.1233,-0.7398 0.86309,-0.6165z" fill="#8c5900"/><path d="M158.55462,144.07273c0.53033,0.53033 0,1.06066 0,1.06066l-0.44444,0.44444c-0.34924,0.34255 -0.63999,0.74836 -0.87915,1.17511c0,0 -0.3721,0.65118 -1.02329,0.27908c-0.65118,-0.3721 -0.27908,-1.02329 -0.27908,-1.02329c0.31215,-0.53791 0.6844,-1.04851 1.12085,-1.49156l0.44444,-0.44444c0,0 0.53033,-0.53033 1.06066,0z" fill="#8c5900"/><path d="M162.88963,150.3283c0.38587,0.64312 -0.25725,1.02899 -0.25725,1.02899l-0.5254,0.31425c-0.66712,0.44427 -1.35134,0.86419 -2.05179,1.2538c0,0 -0.65562,0.36423 -1.01985,-0.29139c-0.36423,-0.65562 0.29139,-1.01985 0.29139,-1.01985c0.6655,-0.36924 1.31517,-0.76814 1.94821,-1.19064l0.58571,-0.35242c0,0 0.64312,-0.38587 1.02899,0.25725z" fill="#8c5900"/><path d="M135.60826,149.42432c0.21694,0.04127 0.61047,0.19102 0.61047,0.73429c0,0.75 -0.75,0.75 -0.75,0.75l-0.52714,-0.12596c-0.44444,-0.2963 -0.88889,-0.59259 -1.33333,-0.88889c0,0 -0.62404,-0.41603 -0.20801,-1.04006c0.41603,-0.62404 1.04006,-0.20801 1.04006,-0.20801c0.38932,0.25954 0.77863,0.51909 1.16795,0.77863z" fill="#8c5900"/><path d="M208.99439,94.04832c-1.53799,1.37374 -3.42825,2.49116 -5.12335,3.47268c-1.94065,1.12372 -3.77836,3.80673 -5.37691,5.40529c-3.50566,3.50566 -8.12285,9.57128 -8.04975,14.90592c-0.05896,5.76601 -0.00968,11.75981 -0.00968,17.52129c1.90954,5.72861 2.58196,10.61834 7.00652,15.0809c1.54002,2.31002 3.88378,2.9163 6.15418,4.24786c2.62942,1.54211 6.19561,3.20544 9.37349,3.20544c5.38404,1.73646 11.58694,3.29809 17.24564,3.29809c3.23268,0 6.64664,0.26244 9.80317,-0.26597c2.55187,-0.42719 4.9383,-1.91379 7.32545,-2.72767c2.87393,-0.95798 5.27927,-2.58037 7.83665,-4.06118c2.25356,-1.30489 3.43507,-4.21864 5.10127,-5.95658c1.01973,-0.95451 1.1381,-2.28151 1.82187,-3.44739c2.29494,-3.91306 3.15494,-8.39504 4.58368,-12.68126c-0.07237,-5.28175 1.11385,-12.13006 -0.5513,-17.12551c-0.03267,-3.19559 -0.96694,-7.65493 -2.15777,-10.58337c-0.76907,-1.89124 -2.61127,-3.48091 -3.25285,-5.40566c-3.62226,-3.39059 -8.07673,-9.19443 -13.54016,-9.026c-5.74998,-1.85448 -11.20068,-2.47114 -17.24565,-2.47114c-3.91953,0 -7.72163,0.93414 -11.24767,2.68021c-1.77784,0.88038 -4.07345,0.86019 -5.55544,2.22435c-1.25688,0.05996 -2.47876,0.57111 -3.3401,1.4913zM209.25561,92.30875c0.93231,-0.76079 2.15843,-1.43838 3.30614,-1.35595c1.27201,-1.42203 3.80752,-1.3456 5.47045,-2.186c3.69891,-1.86934 7.78417,-2.83273 11.9067,-2.83273c6.06114,0 11.74536,0.49444 17.48592,2.49051c5.89111,0.14341 10.76863,5.74685 14.57586,9.71802c0.66532,1.99594 2.57474,3.62824 3.36269,5.62023c1.19259,3.01493 2.29709,7.66932 2.25259,10.91712c1.68959,5.06875 0.60614,12.24264 0.55129,17.60605c-1.8159,5.44768 -2.76173,12.71027 -6.82552,16.94904c-0.76584,0.71686 -1.18824,1.84148 -1.87986,2.70164c-2.89171,3.59642 -7.38401,6.25838 -11.64437,7.6785c-2.4774,0.80221 -4.91748,2.34639 -7.55952,2.78528c-3.24111,0.5384 -6.72691,0.28534 -10.04344,0.28534c-5.66127,0 -12.13562,-1.45709 -17.48592,-3.31746c-3.30426,0 -7.21225,-1.73831 -9.92182,-3.41009c-2.38912,-1.47407 -4.86835,-2.08698 -6.5256,-4.57286c-4.6397,-4.59196 -5.35036,-9.86127 -7.32714,-15.79161c0,-5.80907 0.06981,-11.95983 -0.00969,-17.76156c0.05953,-5.82131 4.62237,-12.09986 8.48909,-15.96658c1.72625,-1.72625 3.57699,-4.34179 5.64898,-5.6206c1.77663,-1.09653 3.84085,-2.19936 5.37691,-3.7514c0,0 0.36731,-0.36732 0.79624,-0.18488z" fill="#8d7f67"/><path d="M209.76932,93.78744c0.86135,-0.9202 2.08768,-1.43381 3.34456,-1.49376c1.482,-1.36416 3.78544,-1.34701 5.56328,-2.22739c3.52604,-1.74607 7.34385,-2.6822 11.26339,-2.6822c6.04497,0 11.51765,0.62257 17.26763,2.47705c5.46343,-0.16843 9.93344,5.64837 13.5557,9.03896c0.64158,1.92475 2.48811,3.52084 3.25717,5.41208c1.19083,2.92844 2.1301,7.40024 2.16277,10.59584c1.66515,4.99545 0.47944,11.86591 0.55181,17.14766c-1.42874,4.28622 -2.29506,8.78432 -4.59001,12.69738c-0.68377,1.16588 -0.80491,2.49695 -1.82464,3.45146c-1.6662,1.73794 -2.85441,4.65894 -5.10797,5.96384c-2.55738,1.48082 -4.97182,3.10963 -7.84575,4.06761c-2.38715,0.81388 -4.78292,2.30444 -7.33479,2.73163c-3.15653,0.52841 -6.58321,0.26815 -9.81589,0.26815c-5.6587,0 -11.88488,-1.56633 -17.26892,-3.30278c-3.17789,0 -6.75471,-1.67008 -9.38414,-3.21219c-2.27041,-1.33156 -4.62067,-1.94432 -6.16069,-4.25435c-4.42456,-4.46257 -5.10664,-9.37049 -7.01618,-15.0991c0,-5.76148 -0.05051,-11.77749 0.00845,-17.5435c-0.07309,-5.33464 4.55258,-11.42078 8.05824,-14.92644c1.59856,-1.59856 3.44308,-4.28935 5.38374,-5.41307c1.6951,-0.98153 3.59205,-2.10416 5.13004,-3.4779z" data-paper-data="{&quot;noHover&quot;:false,&quot;origItem&quot;:[&quot;Path&quot;,{&quot;applyMatrix&quot;:true,&quot;segments&quot;:[[[417.98878,188.09663],[0,0],[-3.07598,2.74748]],[[407.74209,195.042],[3.39019,-1.96305],[-3.88131,2.24743]],[[396.98826,205.85258],[3.19712,-3.19712],[-7.01132,7.01132]],[[380.88876,235.66442],[-0.14619,-10.66929],[-0.11792,11.53202]],[[380.86939,270.707],[0,-11.52296],[3.81908,11.45723]],[[394.88244,300.8688],[-8.84912,-8.92513],[3.08003,4.62005]],[[407.1908,309.36452],[-4.54081,-2.66311],[5.25885,3.08423]],[[425.93779,315.7754],[-6.35578,0],[10.76809,3.47292]],[[460.42908,322.37157],[-11.3174,0],[6.46536,0]],[[480.03541,321.83964],[-6.31306,1.05682],[5.10375,-0.85438]],[[494.6863,316.3843],[-4.7743,1.62776],[5.74785,-1.91595]],[[510.35959,308.26193],[-5.11476,2.96164],[4.50711,-2.60979]],[[520.56213,296.34876],[-3.33239,3.47588],[2.03946,-1.90902]],[[524.20587,289.45399],[-1.36754,2.33176],[4.58989,-7.82612]],[[533.37323,264.09147],[-2.85748,8.57244],[-0.14474,-10.5635]],[[532.27064,229.84045],[3.3303,9.9909],[-0.06535,-6.39119]],[[527.95509,208.67371],[2.38167,5.85688],[-1.53813,-3.78249]],[[521.4494,197.86239],[1.28316,3.84949],[-7.24452,-6.78118]],[[494.36908,179.8104],[10.92686,-0.33686],[-11.49995,-3.70896]],[[459.87778,174.86812],[12.08995,0],[-7.83907,0]],[[437.38243,180.22854],[7.05208,-3.49214],[-3.55568,1.76075]],[[426.27154,184.67724],[2.96399,-2.72832],[-2.51376,0.11991]],[[419.59134,187.65985],[1.72269,-1.8404],[0,0]]],&quot;closed&quot;:true}]}" fill="#e6d0a9"/><path d="M253.29198,129.40939c-0.00656,0.47877 0.0799,0.96447 0.23716,1.41672c0,0 0.17605,0.52817 -0.23025,0.82607c0.02343,2.4916 0.10215,5.01039 0.16838,7.53328c0.77185,-0.09377 1.52977,-0.19976 2.26234,-0.31742c1.44671,-0.23236 2.62659,-1.10259 4.13471,-1.10259l0.48624,-0.16907c0.02506,-1.94578 0.08124,-3.92193 -0.52632,-5.74463c-0.115,-0.34499 -0.20184,-2.46275 -0.67809,-2.57638c-1.94831,-0.46484 -3.9048,-0.07852 -5.85417,0.03099zM251.79198,129.40939v-0.07258c-4.62264,0.05307 -9.30218,0.5776 -13.93469,0.87882c0.04376,3.57289 0.99254,7.03154 1.5425,10.53727c2.17961,-0.10862 4.33167,-0.36632 6.40651,-1.05794c1.96009,-0.02005 4.08592,-0.13828 6.16527,-0.34467c-0.07954,-3.05643 -0.1796,-6.10728 -0.1796,-9.11396c0,0 0,-0.09976 0.03638,-0.22651c-0.022,-0.1998 -0.03433,-0.40037 -0.03638,-0.60044zM225.05418,147.05083c0.01727,-1.26031 -0.06435,-2.58568 -0.20193,-3.9232c-2.88626,0.03332 -5.81556,0.13444 -8.60408,0.53288c-1.73662,0.24813 -3.23896,1.23141 -4.98058,1.36827c0.26426,2.14192 0.93169,4.24345 1.66787,5.48682c1.00116,1.6909 0.49211,2.40078 2.66978,2.40078c3.25106,0 6.86335,0.42881 10.36554,0.40903c-0.86498,-1.63862 -0.91659,-4.58939 -0.91659,-6.27457zM223.96128,136.97201c-0.22529,-1.3517 -0.38361,-3.28334 -1.44389,-4.27581c0,0 -0.23336,-0.23337 -0.23568,-0.5453c-2.67057,0.31063 -5.33526,0.66673 -7.86099,1.47746c-0.02205,0.14687 -0.07418,0.25115 -0.07418,0.25115l-0.23495,0.45305c-0.57331,1.71991 -1.3954,3.10091 -1.96731,4.77835c-0.76907,1.08378 -1.03943,2.70738 -0.99134,4.42998c1.68058,-0.07173 3.23436,-1.12954 4.91198,-1.36916c2.78029,-0.39712 5.72351,-0.52111 8.61157,-0.54852c-0.20606,-1.59077 -0.46843,-3.17073 -0.71518,-4.6512zM226.55418,147.05083c0,1.2577 0.0032,5.11257 0.88292,5.80956l0.11506,0.42215c1.84142,-0.09357 3.63138,-0.352 5.29872,-0.90778c1.76782,-0.01808 3.59615,-0.11813 5.43839,-0.30149c-0.00401,-0.03785 -0.00401,-0.06078 -0.00401,-0.06078c0,-2.20518 0,-4.686 0,-6.89119c0,-0.94939 -0.06638,-1.89118 -0.17451,-2.82834c-3.54865,0.09008 -7.13889,-0.03929 -10.56105,0.81625c-0.49725,0.00234 -0.99758,0.00455 -1.50001,0.00787c0.22906,1.28735 0.49114,2.62808 0.50449,3.93375zM239.78526,145.1213c0,2.20518 0,4.41035 0,6.61553v0.16947c3.58596,-0.44378 7.17689,-1.20317 10.4314,-2.28802c0.50714,0 1.15323,-0.07847 1.86799,-0.21592c-0.01703,-0.08622 -0.01703,-0.14635 -0.01703,-0.14635c0,-1.10259 0,-2.75647 0,-3.85906c0,-1.5014 -0.02429,-3.00762 -0.05845,-4.51406c-2.0325,0.20606 -4.11846,0.31799 -5.9626,0.29272c-2.08652,0.69551 -4.25042,0.95404 -6.44166,1.06298c0.11157,0.9547 0.18034,1.91454 0.18034,2.88271zM231.98856,130.42536c-2.58238,0.86079 -5.33725,1.22106 -8.11444,1.54246c2.14748,2.59508 1.6811,6.41992 1.96918,9.64914c0.5108,-0.00081 1.01892,0.00068 1.52313,0.00349c3.41602,-0.85401 6.99975,-0.7234 10.54102,-0.81316c-0.54424,-3.49143 -1.49049,-6.94026 -1.54889,-10.50276c-1.46361,0.07756 -2.92138,0.12521 -4.37,0.12084zM253.56762,145.39694c0,1.10259 0,2.20518 0,3.30777v0.35451c2.06172,-0.55015 4.28162,-1.42697 5.33521,-2.26308c0.14297,-0.11345 0.296,-1.96533 0.37011,-2.18767c0.57221,-1.71662 0.47409,-3.64979 0.99325,-5.41452l-0.1616,0.05211c-1.49125,0 -2.68957,0.85415 -4.13471,1.10259c-0.78271,0.13456 -1.61202,0.25716 -2.46461,0.36441c0.03619,1.56332 0.06235,3.12644 0.06235,4.68386zM213.19161,132.96931c-0.01129,-0.51005 0.52257,-0.68801 0.52257,-0.68801c5.79665,-1.93222 12.32727,-1.43429 18.03411,-3.33657c6.85523,-0.01981 13.87894,-1.11227 20.79369,-1.11227c2.17486,0.0298 5.06671,-0.94215 7.17819,0.05709c1.25898,0.59581 1.10481,1.68568 1.28024,2.77795c0.46984,2.92521 0.85806,5.46652 0.82694,8.50969c-0.68504,2.0551 -1.03528,4.48028 -1.37824,6.61553c-0.14416,0.89757 0.33243,1.16884 -0.48563,2.06408c-1.4701,1.60882 -7.37146,3.2421 -9.50656,3.2421c-5.302,1.76733 -11.75928,2.8333 -17.36578,2.75648c-5.34551,1.78184 -11.93691,0.56098 -17.48592,0.56098c-5.58655,0 -7.35935,-11.9408 -4.80845,-15.96447c0.52954,-1.63532 1.33885,-2.93497 1.89175,-4.59367l0.31634,-0.64953c0,0 0.06224,-0.12449 0.18673,-0.23939z" fill="#000000"/><path d="M253.26237,129.26606c1.94937,-0.10951 3.95706,-0.50064 5.90537,-0.0358c0.47625,0.11363 0.58138,2.24633 0.69638,2.59132c0.60757,1.8227 0.5471,3.86414 0.52203,5.80992l-0.48983,0.17237c-1.50812,0 -2.73127,0.88052 -4.17797,1.11288c-0.73257,0.11766 -1.50687,0.2166 -2.27872,0.31037c-0.06623,-2.52289 -0.1583,-5.11198 -0.18173,-7.60359c0.40631,-0.2979 0.23585,-0.83275 0.23585,-0.83275c-0.15725,-0.45225 -0.23835,-0.94261 -0.23179,-1.42137z" data-paper-data="{&quot;noHover&quot;:false,&quot;origItem&quot;:[&quot;Path&quot;,{&quot;applyMatrix&quot;:true,&quot;segments&quot;:[[[506.58395,258.81879],[0,0],[-0.01312,0.95753]],[[507.05827,261.65222],[-0.31451,-0.9045],[0,0]],[[506.59776,263.30436],[0.81262,-0.59581],[0.04686,4.98321]],[[506.93452,278.37091],[-0.13246,-5.04577],[1.5437,-0.18754]],[[511.45921,277.73607],[-1.46515,0.23533],[2.89341,-0.46473]],[[519.72863,275.53089],[-3.01624,0],[0,0]],[[520.70112,275.19274],[0,0],[0.05013,-3.89156]],[[519.64847,263.70349],[1.21513,3.64539],[-0.22999,-0.68997]],[[518.29229,258.55073],[0.9525,0.22726],[-3.89661,-0.92968]],[[506.58395,258.61271],[3.89873,-0.21903],[0,0]]],&quot;closed&quot;:true}]}" fill="#ffb900"/><path d="M253.47009,140.67755c0.85259,-0.10725 1.7053,-0.24292 2.48801,-0.37748c1.44513,-0.24845 2.68277,-1.09574 4.17401,-1.09574l0.16233,-0.05162c-0.51916,1.76472 -0.40029,3.74903 -0.9725,5.46565c-0.07411,0.22233 -0.24601,2.10421 -0.38898,2.21767c-1.05359,0.83611 -3.33154,1.71452 -5.39326,2.26467l-0.00144,-0.35551c0,-1.10259 -0.01735,-2.22779 -0.01735,-3.33038c0,-1.55742 -0.01464,-3.17395 -0.05084,-4.73727z" data-paper-data="{&quot;noHover&quot;:false,&quot;origItem&quot;:[&quot;Path&quot;,{&quot;applyMatrix&quot;:true,&quot;segments&quot;:[[[507.13524,290.79389],[0,-3.11484],[0,2.20518]],[[507.13524,297.40942],[0,-2.20518],[0,0]],[[507.13524,298.11844],[0,0],[4.12344,-1.10031]],[[517.80565,293.59229],[-2.10718,1.67222],[0.28594,-0.22691]],[[518.54588,289.21696],[-0.14822,0.44467],[1.14442,-3.43325]],[[520.53237,278.38792],[-1.03832,3.52945],[0,0]],[[520.20918,278.49215],[0,0],[-2.9825,0]],[[511.93976,280.69733],[2.89027,-0.49689],[-1.56543,0.26912]],[[507.01054,281.42616],[1.70518,-0.2145],[0.07239,3.12665]]],&quot;closed&quot;:true}]}" fill="#ffb900"/><path d="M239.5633,142.21087c2.19124,-0.10894 4.39868,-0.38971 6.48521,-1.08522c1.84414,0.02527 3.96544,-0.07002 5.99793,-0.27608c0.03416,1.50644 0.07055,3.03807 0.07055,4.53947c0,1.10259 -0.00394,2.78528 -0.00394,3.88787c0,0 -0.00039,0.06096 0.01664,0.14718c-0.71476,0.13745 -1.36565,0.22388 -1.87279,0.22388c-3.25451,1.08484 -6.92268,1.84821 -10.50863,2.29199l-0.00052,-0.17004c0,-2.20518 -0.01143,-4.4537 -0.01143,-6.65888c0,-0.96818 -0.06145,-1.94545 -0.17302,-2.90015z" data-paper-data="{&quot;noHover&quot;:false,&quot;origItem&quot;:[&quot;Path&quot;,{&quot;applyMatrix&quot;:true,&quot;segments&quot;:[[[479.57051,290.24259],[0,-1.93636],[0,4.41036]],[[479.57051,303.47366],[0,-4.41036],[0,0]],[[479.57051,303.81259],[0,0],[7.17191,-0.88756]],[[500.43332,299.23656],[-6.50903,2.16968],[1.01428,0]],[[504.1693,298.80472],[-1.42952,0.2749],[-0.03406,-0.17243]],[[504.13524,298.51201],[0,0],[0,-2.20518]],[[504.13524,290.79389],[0,2.20518],[0,-3.0028]],[[504.01834,281.76577],[0.06832,3.01287],[-4.06499,0.41212]],[[492.09315,282.35121],[3.68828,0.05054],[-4.17305,1.39102]],[[479.20983,284.47716],[4.38247,-0.21787],[0.22314,1.90941]]],&quot;closed&quot;:true}]}" fill="#ffb900"/><path d="M251.86877,129.9804c-0.03638,0.12675 -0.03582,0.22729 -0.03582,0.22729c0,3.00669 0.10176,6.11222 0.1813,9.16865c-2.07935,0.20639 -4.23844,0.34769 -6.19853,0.36774c-2.07484,0.69162 -4.27106,0.93617 -6.45067,1.04479c-0.54996,-3.50573 -1.50526,-7.02858 -1.54901,-10.60147c4.63251,-0.30122 9.39178,-0.82945 14.01442,-0.88251l0.0002,0.07282c0.00205,0.20007 0.01612,0.4029 0.03812,0.6027z" data-paper-data="{&quot;noHover&quot;:false,&quot;origItem&quot;:[&quot;Path&quot;,{&quot;applyMatrix&quot;:true,&quot;segments&quot;:[[[503.58395,258.81879],[0.00409,0.40015],[0,0]],[[503.58395,258.67364],[0,0],[-9.24527,0.10613]],[[475.71458,260.43128],[9.26502,-0.60244],[0.08751,7.14579]],[[478.79957,281.50582],[-1.09991,-7.01147],[4.35922,-0.21724]],[[491.6126,279.38995],[-4.14968,1.38323],[3.92018,-0.04009]],[[503.94314,278.70061],[-4.1587,0.41278],[-0.15909,-6.11286]],[[503.58395,260.47268],[0,6.01337],[0,0]],[[503.65671,260.01967],[-0.07276,0.2535],[-0.044,-0.3996]]],&quot;closed&quot;:true}]}" fill="#ffb900"/><path d="M236.39331,130.26857c0.0584,3.5625 1.01105,7.07568 1.5553,10.56712c-3.54128,0.08976 -7.19259,-0.02681 -10.60861,0.82719c-0.50421,-0.0028 -1.01919,-0.00943 -1.52999,-0.00862c-0.28808,-3.22922 0.16815,-7.1161 -1.97933,-9.71117c2.77719,-0.32139 5.58524,-0.70597 8.16762,-1.56677c1.44862,0.00437 2.93141,-0.03018 4.39502,-0.10774z" data-paper-data="{&quot;noHover&quot;:false,&quot;origItem&quot;:[&quot;Path&quot;,{&quot;applyMatrix&quot;:true,&quot;segments&quot;:[[[463.97712,260.85072],[2.89724,0.00873],[-5.16475,1.72158]],[[447.74824,263.93564],[5.55438,-0.64279],[4.29496,5.19016]],[[451.68661,283.23391],[-0.57617,-6.45844],[1.0216,-0.00162]],[[454.73286,283.24088],[-1.00841,-0.00561],[6.83204,-1.70801]],[[475.81491,281.61455],[-7.08255,0.17952],[-1.08849,-6.98287]],[[472.71712,260.60904],[0.1168,7.12499],[-2.92722,0.15513]]],&quot;closed&quot;:true}]}" fill="#ffb900"/><path d="M226.00994,143.08674c0.50243,-0.00331 1.00738,-0.01077 1.50463,-0.01311c3.42216,-0.85554 7.08424,-0.72453 10.63289,-0.81462c0.10813,0.93716 0.18363,1.89292 0.18363,2.84231c0,2.20518 -0.00469,4.7344 -0.00469,6.93958c0,0 -0.00018,0.0232 0.00383,0.06105c-1.84224,0.18336 -3.70418,0.30418 -5.47199,0.32226c-1.66734,0.55578 -3.49682,0.80303 -5.33823,0.8966l-0.117,-0.42387c-0.87972,-0.69699 -0.89839,-4.59492 -0.89839,-5.85262c-0.01335,-1.30567 -0.2656,-2.67023 -0.49466,-3.95758z" data-paper-data="{&quot;noHover&quot;:false,&quot;origItem&quot;:[&quot;Path&quot;,{&quot;applyMatrix&quot;:true,&quot;segments&quot;:[[[453.10836,294.10165],[-0.0267,-2.61134],[0,2.51541]],[[454.8742,305.72077],[-1.75943,-1.39399],[0,0]],[[455.10431,306.56506],[0,0],[3.68283,-0.18713]],[[465.70175,304.74951],[-3.33468,1.11156],[3.53563,-0.03615]],[[476.57853,304.14653],[-3.68449,0.36672],[-0.00802,-0.0757]],[[476.57051,304.02496],[0,0],[0,-4.41036]],[[476.57051,290.24259],[0,4.41036],[0,-1.89878]],[[476.2215,284.58592],[0.21626,1.87432],[-7.09731,0.18017]],[[455.09941,286.21841],[6.84431,-1.71108],[-0.9945,0.00468]],[[452.09938,286.23414],[1.00487,-0.00663],[0.45812,2.5747]]],&quot;closed&quot;:true}]}" fill="#ffb900"/><path d="M226.01186,153.3539c-3.50219,0.01978 -7.1826,-0.39547 -10.43366,-0.39547c-2.17767,0 -1.68797,-0.73326 -2.68912,-2.42416c-0.73618,-1.24337 -1.40307,-3.38352 -1.66734,-5.52544c1.74161,-0.13686 3.26677,-1.14456 5.00339,-1.3927c2.78852,-0.39844 5.77957,-0.48684 8.66582,-0.52016c0.13759,1.33752 0.22969,2.68556 0.21242,3.94587c0,1.68518 0.04351,4.67343 0.90849,6.31205z" data-paper-data="{&quot;noHover&quot;:false,&quot;origItem&quot;:[&quot;Path&quot;,{&quot;applyMatrix&quot;:true,&quot;segments&quot;:[[[450.10836,294.10165],[0,3.37036],[0.03454,-2.52062]],[[449.70449,286.25525],[0.27517,2.67504],[-5.77251,0.06664]],[[432.49632,287.321],[5.57704,-0.79687],[-3.47323,0.49627]],[[422.53517,290.05754],[3.48323,-0.27372],[0.52853,4.28384]],[[425.8709,301.03118],[-1.47236,-2.48673],[2.00231,3.3818]],[[431.21046,305.83273],[-4.35534,0],[6.50211,0]],[[451.94154,306.6508],[-7.00438,0.03955],[-1.72996,-3.27724]]],&quot;closed&quot;:true}]}" fill="#ffb900"/><path d="M224.72011,141.64759c-2.88806,0.02741 -5.89456,0.17301 -8.67486,0.57013c-1.67762,0.23962 -3.25001,1.28366 -4.93059,1.3554c-0.04808,-1.7226 0.21168,-3.36771 0.98075,-4.45149c0.57191,-1.67744 1.40613,-3.10309 1.97943,-4.823l0.23825,-0.4563c0,0 0.05368,-0.1056 0.07573,-0.25248c2.52573,-0.81073 5.25274,-1.16798 7.9233,-1.47861c0.00232,0.31193 0.23858,0.54769 0.23858,0.54769c1.06028,0.99247 1.23477,2.95424 1.46005,4.30594c0.24675,1.48048 0.50328,3.09196 0.70935,4.68273z" data-paper-data="{&quot;noHover&quot;:false,&quot;origItem&quot;:[&quot;Path&quot;,{&quot;applyMatrix&quot;:true,&quot;segments&quot;:[[[447.92255,273.94402],[0.49349,2.96095],[-0.45057,-2.7034]],[[445.03476,265.3924],[2.12056,1.98494],[0,0]],[[444.56339,264.30181],[0.00464,0.62386],[-5.34113,0.62126]],[[428.84141,267.25674],[5.05146,-1.62146],[-0.0441,0.29375]],[428.69304,267.75904],[[428.22313,268.66515],[0,0],[-1.14661,3.43982]],[[424.28851,278.22184],[1.14382,-3.35487],[-1.53814,2.16755]],[[422.30582,287.0818],[-0.09617,-3.44519],[3.36116,-0.14347]],[[432.12978,284.34347],[-3.35523,0.47925],[5.56059,-0.79425]],[[449.35291,283.24643],[-5.77611,0.05483],[-0.41213,-3.18153]]],&quot;closed&quot;:true}]}" fill="#ffb900"/><path d="M241.41132,103.14596c-0.00603,0.02456 -0.01066,0.03847 -0.01066,0.03847c-0.38024,1.07163 -1.15566,1.75754 -1.34943,2.91508c-0.63889,3.81653 1.60664,7.53274 4.20037,10.09978c4.0186,4.0186 11.29845,2.56357 14.92688,-1.10259c2.99784,-2.99784 3.21975,-5.63822 2.54649,-9.82413c-0.07103,-0.44165 0.34565,-0.94255 0.13188,-1.33549c-0.04119,-0.07572 -3.50078,-0.2428 -3.80193,-0.23982c-5.45921,-0.05582 -11.06415,-0.55129 -16.53884,-0.55129zM240.21555,102.35519c0.02668,-0.70923 0.74924,-0.70923 0.74924,-0.70923h0.55129c5.4653,0 11.09294,0.62591 16.53884,0.55129c1.01469,0.00804 4.33571,-0.00136 5.01879,0.86276c0.37022,0.46834 0.035,1.41355 0.13189,1.97228c0.79544,4.58713 0.34793,7.81067 -2.96646,11.12506c-4.23032,4.1943 -12.42662,5.72418 -17.0482,1.10259c-2.91804,-2.94309 -5.33824,-7.07905 -4.62035,-11.40072c0.21068,-1.26828 1.06725,-2.02313 1.40704,-3.14915c0,0 0.06734,-0.20203 0.23792,-0.35489z" fill="#000000"/><path d="M241.47734,103.11435c5.47468,0 11.15344,0.49144 16.61265,0.54726c0.30115,-0.00297 3.76781,0.17283 3.80899,0.24855c0.21377,0.39294 -0.20073,0.89761 -0.12969,1.33926c0.67326,4.18591 0.45147,6.87233 -2.54637,9.87018c-3.62843,3.66616 -10.99197,5.12927 -15.01056,1.11067c-2.59374,-2.56704 -4.84585,-6.33425 -4.20696,-10.15078c0.19377,-1.15754 0.97602,-1.85473 1.35626,-2.92636c0,0 0.00472,-0.01402 0.01075,-0.03858z" data-paper-data="{&quot;noHover&quot;:false,&quot;origItem&quot;:[&quot;Path&quot;,{&quot;applyMatrix&quot;:true,&quot;segments&quot;:[[[482.82263,206.29192],[0,0],[-0.01206,0.04913]],[[482.8013,206.36885],[0,0],[-0.76048,2.14326]],[[480.10243,212.19902],[0.38755,-2.31508],[-1.27779,7.63306]],[[488.50318,232.39858],[-5.18747,-5.13408],[8.03719,8.03719]],[[518.35695,230.1934],[-7.25687,7.33232],[5.99569,-5.99569]],[[523.44993,210.54514],[1.34652,8.37183],[-0.14207,-0.8833]],[[523.71369,207.87416],[0.42753,0.78589],[-0.08238,-0.15144]],[[516.10984,207.39451],[0.60229,-0.00594],[-10.91842,-0.11165]],[[483.03216,206.29192],[10.94937,0],[0,0]]],&quot;closed&quot;:true}]}" fill="#ffbaba"/><path d="M255.5741,106.33197c0.95162,0 1.937,0.31976 2.74316,0.84408c0.57819,0.21755 1.1113,0.54928 1.53316,0.99714c0.01434,0.27983 0.02819,0.5395 0.03534,0.78821c0.38739,0.95 0.2513,2.04685 -0.77103,3.09434c-1.43583,1.86445 -4.98583,2.61624 -6.16308,-0.00075c-0.91266,-2.02881 0.42846,-5.21704 2.371,-5.67911c0.13835,-0.04391 0.25144,-0.04391 0.25144,-0.04391z" fill="#000000"/><path d="M203.27117,107.38954c-0.04064,1.42246 -0.2296,3.00997 -0.00241,4.36717c0.44758,2.6737 3.67096,6.24686 5.57861,8.13488c3.3503,3.35031 6.77426,1.69031 10.4417,-0.14341c1.37321,-0.68661 3.16308,-1.21945 4.20954,-2.33742c2.63376,-2.63375 2.51726,-4.37612 3.09778,-7.85923c0.05048,-0.30285 0.67266,-2.98223 0.17765,-3.04601c-1.45764,-0.18783 -3.19309,0.05709 -4.67464,0.05709c-4.09989,0 -8.28404,-0.10174 -12.284,0.54161c-1.66562,0.26789 -3.33461,-0.2667 -4.96165,0.27565c-0.3157,0.00323 -0.63138,0.00645 -0.94708,0.00968zM202.47557,106.16647c0.21816,-0.27693 0.60418,-0.27693 0.60418,-0.27693h0.82694c0.2356,0.00323 0.4712,0.00646 0.70681,0.00969c1.64558,-0.54852 3.29801,0.01284 4.96165,-0.27564c4.05906,-0.70387 8.36117,-0.56098 12.52427,-0.56098c1.2889,0 4.09207,-0.50932 5.24866,0.05709c1.72221,0.8434 0.96365,3.26387 0.72895,4.67211c-0.6199,3.71937 -0.67051,5.83238 -3.51775,8.67962c-4.14562,3.97449 -12.18212,7.07126 -16.77256,2.48082c-2.1531,-2.17158 -5.49136,-5.90189 -5.99857,-8.95526c-0.26527,-1.59688 -0.00969,-3.46082 -0.00969,-5.08179c0,0 -0.00001,-0.71432 0.69711,-0.74872z" fill="#000000"/><path d="M203.86389,107.36369c0.3157,-0.00323 0.63247,-0.00818 0.94816,-0.01141c1.62704,-0.54234 3.30783,-0.02024 4.97344,-0.28813c3.99995,-0.64335 8.24809,-0.53816 12.34797,-0.53816c1.48155,0 3.22485,-0.23558 4.68249,-0.04775c0.495,0.06378 -0.12261,2.752 -0.17309,3.05485c-0.58052,3.48311 -0.46391,5.26204 -3.09766,7.8958c-1.04646,1.11796 -2.85287,1.67264 -4.22608,2.35924c-3.66744,1.83372 -7.15811,3.48776 -10.50841,0.13745c-1.90765,-1.88802 -5.14339,-5.50503 -5.59097,-8.17873c-0.22719,-1.35719 -0.03262,-2.95965 0.00802,-4.38211z" data-paper-data="{&quot;noHover&quot;:false,&quot;origItem&quot;:[&quot;Path&quot;,{&quot;applyMatrix&quot;:true,&quot;segments&quot;:[[[406.54234,214.77907],[0,0],[-0.08127,2.84492]],[[406.53753,223.5134],[-0.45439,-2.71438],[0.89516,5.3474]],[[417.69474,239.78315],[-3.8153,-3.77604],[6.70061,6.70061]],[[438.57814,239.49633],[-7.33487,3.66744],[2.74641,-1.37321]],[[446.99722,234.82149],[-2.09292,2.23593],[5.26751,-5.26751]],[[453.19279,219.10304],[-1.16104,6.96622],[0.10095,-0.60569]],[[453.5481,213.01101],[0.99001,0.12757],[-2.91528,-0.37565]],[[444.19882,213.12519],[2.96309,0],[-8.19977,0]],[[419.63083,214.20841],[7.9999,-1.2867],[-3.33124,0.53579]],[[409.70753,214.7597],[3.25408,-1.08469],[-0.63139,0.00646]],[[407.81337,214.77907],[0.63139,-0.00646],[0,0]]],&quot;closed&quot;:true}]}" fill="#ffbaba"/><path d="M217.92427,116.38344c-0.05816,-0.01932 -0.116,-0.04057 -0.17348,-0.06379c-3.38673,-1.36807 -2.82163,-7.37468 0.34579,-8.65416c1.07495,-0.43422 2.74386,-0.00838 3.76963,0.32245c0.81206,0.28814 1.39303,0.86121 1.76359,1.58581c0.07844,0.10658 0.14349,0.21657 0.19125,0.32984c0.12975,0.30768 0.20401,0.63096 0.22944,0.96232c0.46627,2.67175 -1.03631,6.12592 -3.86495,6.21692c-0.91291,0.02937 -1.66651,-0.23893 -2.26128,-0.69939zM218.89433,114.53833c0.05338,0.06012 0.10934,0.11709 0.16787,0.17052c0.15048,0.00713 0.29938,-0.00459 0.44542,-0.03299c-0.05429,-0.0066 -0.10909,-0.01514 -0.16435,-0.02567c-0.16003,-0.03048 -0.30955,-0.06796 -0.44894,-0.11186z" fill="#000000"/><path d="M187.42944,111.09715c0.67082,-0.33541 1.00623,0.33541 1.00623,0.33541l0.13516,0.35637c0.98222,0.98222 2.2476,2.45313 3.5659,2.85094c0,0 0.71151,0.23717 0.47434,0.94868c-0.23717,0.71151 -0.94868,0.47434 -0.94868,0.47434c-1.57643,-0.55935 -2.96525,-2.02633 -4.15222,-3.2133l-0.41613,-0.74621c0,0 -0.33541,-0.67083 0.33541,-1.00624z" fill="#8c5900"/><path d="M194.10474,102.4729c0.75,0 0.75,0.75 0.75,0.75l-0.0571,0.53993c0.94761,0.9476 0.4524,2.36764 1.49131,3.3401c0,0 0.53033,0.53033 0,1.06066c-0.53033,0.53033 -1.06066,0 -1.06066,0c-1.12297,-1.17133 -0.82,-2.83027 -1.81646,-3.82673l-0.05709,-1.11396c0,0 0,-0.75 0.75,-0.75z" fill="#8c5900"/><path d="M199.363,97.17963c0.53033,-0.53033 1.06066,0 1.06066,0l0.45683,0.5688c0.38486,1.1933 -0.06025,1.63236 1.17954,2.00648c0,0 0.71151,0.23717 0.47434,0.94868c-0.23717,0.71151 -0.94868,0.47434 -0.94868,0.47434c-1.83336,-0.65052 -1.58111,-1.3817 -2.12823,-2.95517l-0.09447,0.01752c0,0 -0.53033,-0.53033 0,-1.06066z" fill="#8c5900"/><path d="M211.47052,85.93406c0.75,0 0.75,0.75 0.75,0.75v0.27564c-0.02415,1.76233 1.06852,3.37059 1.6154,5.00013c0,0 0.23717,0.71151 -0.47434,0.94868c-0.71151,0.23717 -0.94868,-0.47434 -0.94868,-0.47434c-0.60901,-1.84117 -1.67204,-3.48604 -1.69237,-5.47447v-0.27564c0,0 0,-0.75 0.75,-0.75z" fill="#8c5900"/><path d="M249.47521,88.47179c-0.20638,-0.08181 -0.43971,-0.26681 -0.43971,-0.68514c0,-0.75 0.75,-0.75 0.75,-0.75l0.98716,0.51283c0.72887,2.25992 -0.18177,4.01929 -2.40387,4.80774c0,0 -0.71151,0.23717 -0.94868,-0.47434c-0.23717,-0.71151 0.47434,-0.94868 0.47434,-0.94868c1.30306,-0.39321 1.82866,-1.27683 1.58077,-2.46242z" fill="#8c5900"/><path d="M265.77305,94.75478c0.75,0 0.75,0.75 0.75,0.75l-0.03849,0.51282c-0.71429,2.14287 -2.66831,3.57774 -4.8847,4.3334c0,0 -0.71151,0.23717 -0.94868,-0.47434c-0.23717,-0.71151 0.47434,-0.94868 0.47434,-0.94868c1.8086,-0.58564 3.38761,-1.73951 3.93601,-3.38472l-0.03849,-0.03848c0,0 0,-0.75 0.75,-0.75z" fill="#8c5900"/><path d="M270.10646,105.97938c0,0.75 -0.75,0.75 -0.75,0.75l-0.03848,-0.03849c-2.33466,0.77822 -2.0969,1.45079 -2.83343,3.66037c0,0 -0.23718,0.71151 -0.94869,0.47434c-0.71151,-0.23717 -0.47434,-0.94868 -0.47434,-0.94868c0.84589,-2.53768 1.00743,-3.68416 3.78211,-4.60905l0.51282,-0.03848c0,0 0.75,0 0.75,0.75z" fill="#8c5900"/><path d="M211.66923,94.12654c0,0.27704 -0.10234,0.45175 -0.2314,0.56191c0.15772,0.90557 0.69745,1.56303 1.01986,2.50868c0,0 0.23717,0.71151 -0.47434,0.94868c-0.71151,0.23717 -0.94869,-0.47434 -0.94869,-0.47434c-0.42383,-1.30889 -1.1262,-2.09013 -1.14108,-3.54493l1.02565,-0.75c0,0 0.75,0 0.75,0.75z" fill="#8c5900"/><path d="M224.18878,84.04302c0.71151,-0.23717 0.94869,0.47434 0.94869,0.47434l0.27564,0.82695c0.65782,1.97346 0.28743,3.24969 0.31413,5.19882c0,0 0,0.75 -0.75,0.75c-0.75,0 -0.75,-0.75 -0.75,-0.75c0.01879,-1.83695 0.37052,-2.90144 -0.23716,-4.72448l-0.27564,-0.82694c0,0 -0.23717,-0.71151 0.47434,-0.94868z" fill="#8c5900"/><path d="M247.55936,86.98067c0.53033,0.53033 0,1.06066 0,1.06066l-0.44364,0.41526c-0.29567,0.97982 -0.49086,1.59085 -1.21025,2.34121c0,0 -0.53033,0.53033 -1.06066,0c-0.53033,-0.53033 0,-1.06066 0,-1.06066c0.62699,-0.58689 0.70488,-1.2517 0.99493,-2.06914l0.65895,-0.68733c0,0 0.53033,-0.53033 1.06066,0z" fill="#8c5900"/><path d="M254.08043,93.33807c0.23717,0.71151 -0.47434,0.94868 -0.47434,0.94868l-0.66981,0.20212c-0.31598,0.33756 -0.6396,0.66798 -0.96655,0.99493c0,0 -0.53033,0.53033 -1.06066,0c-0.53033,-0.53033 0,-1.06066 0,-1.06066c0.40817,-0.40817 0.82194,-0.81077 1.23862,-1.21025l0.98407,-0.34917c0,0 0.71152,-0.23717 0.94869,0.47434z" fill="#8c5900"/><path d="M239.38785,89.44054c0,-0.41421 0.33578,-0.75 0.75,-0.75c0.41422,0 0.75,0.33579 0.75,0.75c0,0.41421 -0.33578,0.75 -0.75,0.75c-0.41422,0 -0.75,-0.33579 -0.75,-0.75z" fill="#8c5900"/><path d="M254.8241,97.43431c0,-0.41421 0.33578,-0.75 0.75,-0.75c0.41422,0 0.75,0.33579 0.75,0.75c0,0.41421 -0.33578,0.75 -0.75,0.75c-0.41422,0 -0.75,-0.33579 -0.75,-0.75z" fill="#8c5900"/><path d="M220.91947,94.40219c0,-0.41421 0.33578,-0.75 0.75,-0.75c0.41422,0 0.75,0.33579 0.75,0.75c0,0.41421 -0.33578,0.75 -0.75,0.75c-0.41422,0 -0.75,-0.33579 -0.75,-0.75z" fill="#8c5900"/><path d="M215.68217,92.19701c0,-0.41421 0.33578,-0.75 0.75,-0.75c0.41422,0 0.75,0.33579 0.75,0.75c0,0.41421 -0.33578,0.75 -0.75,0.75c-0.41422,0 -0.75,-0.33579 -0.75,-0.75z" fill="#8c5900"/><path d="M206.31017,99.63949c0,-0.41421 0.33578,-0.75 0.75,-0.75c0.41422,0 0.75,0.33579 0.75,0.75c0,0.41421 -0.33578,0.75 -0.75,0.75c-0.41422,0 -0.75,-0.33579 -0.75,-0.75z" fill="#8c5900"/><path d="M202.72675,99.63949c0,-0.41421 0.33578,-0.75 0.75,-0.75c0.41422,0 0.75,0.33579 0.75,0.75c0,0.41421 -0.33578,0.75 -0.75,0.75c-0.41422,0 -0.75,-0.33579 -0.75,-0.75z" fill="#8c5900"/><path d="M197.2138,106.80632c0,-0.41421 0.33578,-0.75 0.75,-0.75c0.41422,0 0.75,0.33579 0.75,0.75c0,0.41421 -0.33578,0.75 -0.75,0.75c-0.41422,0 -0.75,-0.33579 -0.75,-0.75z" fill="#8c5900"/><path d="M194.45733,110.38973c0,-0.41421 0.33578,-0.75 0.75,-0.75c0.41422,0 0.75,0.33579 0.75,0.75c0,0.41421 -0.33578,0.75 -0.75,0.75c-0.41422,0 -0.75,-0.33579 -0.75,-0.75z" fill="#8c5900"/><path d="M194.18168,115.07574c0,-0.41421 0.33578,-0.75 0.75,-0.75c0.41422,0 0.75,0.33579 0.75,0.75c0,0.41421 -0.33578,0.75 -0.75,0.75c-0.41422,0 -0.75,-0.33579 -0.75,-0.75z" fill="#8c5900"/><path d="M264.19611,113.6975c0,-0.41421 0.33578,-0.75 0.75,-0.75c0.41422,0 0.75,0.33579 0.75,0.75c0,0.41421 -0.33578,0.75 -0.75,0.75c-0.41422,0 -0.75,-0.33579 -0.75,-0.75z" fill="#8c5900"/><path d="M220.54592,122.81483c0.53033,0.53033 0,1.06066 0,1.06066l-0.56881,0.45683c-5.56669,1.79537 -10.18234,1.43419 -14.98686,-1.74136c0,0 -0.62404,-0.41602 -0.20801,-1.04006c0.41602,-0.62404 1.04006,-0.20802 1.04006,-0.20802c4.31486,2.89793 8.63262,3.32161 13.68046,1.56641l-0.01751,-0.09446c0,0 0.53033,-0.53033 1.06066,0z" fill="#8d7f67"/></g></g></svg>