<svg version="1.1" xmlns="http://www.w3.org/2000/svg" xmlns:xlink="http://www.w3.org/1999/xlink" width="31.96864" height="48.12934" viewBox="0,0,31.96864,48.12934"><g transform="translate(-223.24558,-140.88875)"><g data-paper-data="{&quot;isPaintingLayer&quot;:true}" fill-rule="nonzero" stroke-linecap="butt" stroke-linejoin="miter" stroke-miterlimit="10" stroke-dasharray="" stroke-dashoffset="0" style="mix-blend-mode: normal"><path d="M247.40968,165.86267l0.22202,0.55164c0.3528,0.82264 0.66968,1.66413 0.9845,2.50195c0.54409,1.90693 2.14652,7.91312 0.17985,9.41818c-0.92284,0.70624 -1.50784,-0.90288 -1.9009,-2.57191c-0.06901,-0.95998 -0.12228,-1.89932 -0.12257,-2.84991l-0.02554,-0.04346l0.02133,-0.00271l-0.10724,-0.87454c-0.04137,-0.37508 -0.3556,-0.66189 -0.74171,-0.66189c-0.41421,0 -0.67366,0.2712 -0.67366,0.68542c0,0.02059 0.00106,0.04126 0.00269,0.06144l0.11198,1.49699l0.00139,-0.0001c-0.00029,0.00233 -0.00056,0.00471 -0.00084,0.00704c-0.07794,0.63347 -0.02489,1.6736 0.172,2.71912c0.14281,1.90808 0.27905,3.85802 0.04422,5.73666c-0.00157,0.89127 0.18162,4.86613 -0.49501,5.34647c-0.23731,0.16847 -2.49879,-0.03586 -2.88821,-0.0365c-0.19633,-0.00032 -1.76033,0.07484 -2.1232,-0.17067c0.0849,-0.30518 0.14132,-0.73516 0.17887,-1.07934c0.06453,-0.13211 0.11462,-0.26318 0.12112,-0.38576c0.08369,-1.57785 0.12408,-2.84438 -0.21909,-4.21868c0,-0.00108 -0.00249,-0.10212 -0.00249,-0.1032l0.00068,-0.00552l0.2162,-0.02416l-0.10379,-0.89121c-0.03709,-0.37956 -0.36753,-0.67666 -0.75683,-0.67666c-0.38611,0 -0.71144,0.29006 -0.75281,0.66515l-0.08158,0.78312l0.01936,0.00239l-0.02378,0.04401c-0.0004,0.28809 0.06292,1.19318 0.10026,2.22236c-0.85385,-1.89186 -2.61321,-2.96339 -4.47028,-3.04607c-0.00377,-1.42246 0.06158,-2.84383 0.24306,-4.20526c0.09231,-0.69248 0.36997,-1.57377 0.34453,-2.29802c0.06557,-0.3591 0.14457,-0.72438 0.22243,-1.08091l-0.03361,-0.08215l0.03843,-0.00015l0.00303,-0.78154c0,-0.41421 -0.26131,-0.68326 -0.67553,-0.68326c-0.36345,0 -0.66274,0.2538 -0.73157,0.597l-0.21574,0.98024l0.16878,0.03782c-0.03196,0.14554 -0.0614,0.2887 -0.09082,0.43482c-0.34032,1.05147 -0.51024,2.14728 -0.59131,3.29233c-0.34278,0.95709 -1.08575,1.67782 -2.32424,0.9771c-0.49801,-0.28177 -0.32909,-2.44183 -0.32935,-2.83298c-0.00181,-2.7106 0.8707,-5.3561 2.16413,-7.72117c0.27003,-0.05499 0.45267,-0.26739 0.45267,-0.26739c2.11199,-2.50239 7.13949,-1.1705 10.0579,-1.30226c1.38768,-0.06265 2.95391,-0.30772 4.24632,0.28018z" data-paper-data="{&quot;noHover&quot;:false,&quot;origItem&quot;:[&quot;Path&quot;,{&quot;applyMatrix&quot;:true,&quot;segments&quot;:[[[496.43499,290.36259],[0,0],[-2.5848,-1.17581]],[[487.97232,289.8161],[2.77535,-0.1253],[-5.83683,0.26353]],[[467.94253,292.40451],[4.22399,-5.00478],[0,0]],[[467.04065,292.93661],[0.54007,-0.10999],[-2.58686,4.73015]],[[462.74809,308.31721],[-0.00361,-5.42119],[0.00052,0.7823]],[[463.40716,313.95383],[-0.99603,-0.56354],[2.47697,1.40145]],[[467.85663,312.01728],[-0.68556,1.91418],[0.16213,-2.29009]],[[469.04847,305.38632],[-0.68063,2.10294],[0.05884,-0.29223]],[[469.23279,304.51134],[-0.06392,0.29109],[0,0]],[468.89492,304.43626],[[469.33295,302.4651],[0,0],[0.13765,-0.68639]],[[470.80364,301.26165],[-0.7269,0],[0.82843,0]],[[472.30364,302.76165],[0,-0.82843],[0,0]],[472.30364,304.31721],[472.22701,304.31721],[[472.29469,304.48088],[0,0],[-0.15574,0.71307]],[[471.85883,306.6273],[0.13113,-0.71819],[0.05089,1.4485]],[[471.17926,311.18297],[0.18462,-1.38496],[-0.70876,5.31694]],[[470.96654,327.54421],[-0.3625,-5.35496],[0.04402,0.65029]],[[471.04523,332.88685],[-0.26208,-0.2819],[0.49196,0.52915]],[[473.2066,333.05036],[-0.71548,-0.10061],[1.3984,0.14085]],[[478.67406,333.37583],[-1.38221,0.40107],[1.57041,-0.45568]],[[479.30654,321.33511],[-0.00212,1.5314],[0,0]],[479.35432,321.24715],[479.31523,321.24227],[[479.53498,319.48423],[0,0],[0.08274,-0.75016]],[[481.02587,318.15054],[-0.77221,0],[0.7786,0]],[[482.51869,319.50288],[-0.07417,-0.75912],[0,0]],[482.73891,321.48489],[482.30218,321.53342],[[482.3008,321.54447],[0,0],[0.00001,0.00215]],[[482.30082,321.55093],[-0.00001,-0.00215],[0.68633,2.74861]],[[482.74519,330.18819],[0.16737,-3.1557],[-0.013,0.24515]],[[482.50156,330.95975],[0.12905,-0.26423],[-0.0751,0.68836]],[[482.14107,332.91845],[0.1698,-0.61036],[0.72575,0.49101]],[[486.3685,333.26168],[-0.39266,-0.00064],[0.77885,0.00126]],[[492.12257,333.34191],[-0.47462,0.33694],[1.35326,-0.96069]],[[493.08432,322.66845],[-0.00313,1.78255],[0.46966,-3.75727]],[[492.96593,311.26793],[0.28561,3.81615],[-0.39377,-2.09104]],[[492.63336,305.8747],[-0.15588,1.26694],[0.00057,-0.00467]],[[492.63509,305.8607],[-0.00058,0.00467],[0,0]],[492.63231,305.8609],[[492.41967,302.88397],[0,0],[-0.00326,-0.04034]],[[492.41476,302.76165],[0,0.04118],[0,-0.82843]],[[493.91476,301.26165],[-0.82843,0],[0.77221,0]],[[495.40564,302.59534],[-0.08274,-0.75016],[0,0]],[495.62539,304.35338],[495.58269,304.35872],[[495.63408,304.44622],[0,0],[0.00057,1.90117]],[[495.88986,310.1828],[-0.13802,-1.91996],[0.78614,3.33805]],[[499.49447,315.31377],[-1.84568,1.41247],[3.93334,-3.01012]],[[499.15688,296.56475],[1.08818,3.81386],[-0.62963,-1.67564]],[[497.2027,291.57475],[0.70559,1.64528],[0,0]],[496.76188,290.47383]],&quot;closed&quot;:true}]}" fill="#baab00" stroke="none" stroke-width="0.5"/><path d="M244.95739,183.74194l0.40847,-0.09655c0,0 0.08409,-0.01682 0.20108,-0.01065c-0.00447,-0.72067 -0.02528,-1.34203 -0.02477,-1.63385c0.23483,-1.87863 0.08361,-3.79218 -0.0592,-5.70026c-0.19689,-1.04552 -0.24423,-2.06314 -0.16629,-2.69661c0.00029,-0.00233 0.00058,-0.00467 0.00087,-0.007l-0.00139,0.0001l-0.10632,-1.48847c-0.00163,-0.02017 -0.00246,-0.04057 -0.00246,-0.06116c0,-0.41421 0.33579,-0.75 0.75,-0.75c0.38611,0 0.70407,0.29176 0.74544,0.66685l0.10988,0.87902l-0.02135,0.00267l0.02569,0.04375c0.00029,0.95059 0.05888,1.90831 0.12789,2.86829c0.39307,1.66903 0.87946,3.27172 1.8023,2.56548c1.96667,-1.50506 0.3753,-7.46758 -0.16879,-9.37451c-0.31481,-0.83782 -0.62429,-1.67236 -0.97709,-2.495l-0.22041,-0.55046l-0.16344,-0.05562c-1.2924,-0.5879 -2.84366,-0.3359 -4.23133,-0.27324c-2.91841,0.13176 -7.9029,-1.20819 -10.0149,1.2942c0,0 -0.18091,0.21106 -0.45094,0.26605c-1.29343,2.36508 -2.14808,4.9797 -2.14628,7.6903c0.00026,0.39115 -0.16848,2.53654 0.32953,2.81831c1.23849,0.70073 1.88196,-0.01119 2.22474,-0.96828c0.08107,-1.14505 0.2556,-2.26401 0.59592,-3.31548c0.02942,-0.14611 0.0602,-0.29195 0.09216,-0.43749l-0.16893,-0.03754l0.21902,-0.98558c0.06882,-0.34319 0.37189,-0.60172 0.73534,-0.60172c0.41421,0 0.75,0.33579 0.75,0.75v0.77778h-0.03832l0.03384,0.08184c-0.07787,0.35653 -0.15236,0.71411 -0.21793,1.07321c0.02544,0.72425 -0.24748,1.58536 -0.33978,2.27784c-0.18246,1.36873 -0.25327,2.78681 -0.25431,4.20602c-0.47391,-0.02463 -0.95455,0.01517 -1.42848,0.12218c-0.01783,-0.54384 -0.03299,-1.09228 -0.03786,-1.64094c-0.75941,0.55717 -1.75008,0.68037 -2.99114,-0.04959c-0.76411,-0.44943 -0.99806,-2.19498 -1.0038,-2.95946c-0.0263,-3.50166 0.72475,-6.61808 2.42772,-9.69757c0,0 0.20243,-0.36438 0.57712,-0.39893c2.63736,-2.95695 7.48515,-1.60092 11.04972,-1.76406v0.00001c1.68339,-0.07704 3.29918,-0.25542 4.87978,0.39342l0.27506,0.08896c0,0 0.39623,0.13208 0.49876,0.49479c0.12602,0.12994 0.18265,0.27151 0.18265,0.27151l0.21522,0.53866c0.36945,0.86261 0.69399,1.73733 1.02291,2.61611c0.76685,2.68075 2.35323,9.02852 -0.39102,11.06993c-1.00602,0.74837 -1.81417,0.72567 -2.44725,0.2669c0.0026,0.7631 -0.03111,1.52326 -0.12545,2.27799c0.00294,1.48101 0.23738,5.40283 -1.07468,6.44105c-1.03347,0.81777 -4.82283,0.4807 -6.50223,-0.21671c-0.12658,0.13998 -0.2709,0.26058 -0.43518,0.35837c0.25112,-1.43847 0.32964,-2.81139 0.18359,-3.68659c-0.09107,-0.54575 -0.24548,-1.04645 -0.45201,-1.49977c-0.04112,-0.9974 -0.10587,-1.87147 -0.10548,-2.15621l0.02389,-0.04398l-0.01954,-0.00244l0.10988,-0.87902c0.04137,-0.37508 0.35933,-0.66685 0.74544,-0.66685c0.3893,0 0.70933,0.29661 0.74641,0.67617l0.11011,0.99101l-0.21837,0.02426l-0.00069,0.00552c0,0.00108 0.00001,0.00215 0.00001,0.00323c0.1824,0.73046 0.25731,1.45872 0.27491,2.21767c1.50923,0.04438 3.0186,0.08213 4.53206,0.08213zM244.95739,185.24194c-1.52141,0 -3.03849,-0.03814 -4.55538,-0.08281c-0.00854,0.19733 -0.01859,0.39772 -0.0294,0.60164c-0.0065,0.12257 -0.05729,0.25366 -0.12182,0.38578c-0.03755,0.34418 -0.09534,0.67417 -0.18024,0.97935c0.36288,0.24551 1.91738,0.1713 2.11372,0.17161c0.38942,0.00063 2.63973,0.20858 2.87704,0.04011c0.3077,-0.21844 0.43466,-1.15751 0.48179,-2.20044z" fill="#8c7a00" stroke="none" stroke-width="0.5"/><path d="M245.58928,185.11805c-0.04713,1.04294 -0.1751,2.02253 -0.48279,2.24097c-0.23731,0.16847 -2.55872,-0.01812 -2.94814,-0.01875c-0.19633,-0.00032 -1.77265,0.04605 -2.13552,-0.19945c0.0849,-0.30518 0.14047,-0.65251 0.17802,-0.99669c0.06453,-0.13211 0.11632,-0.27103 0.12282,-0.3936c0.01082,-0.20392 0.02441,-0.41504 0.03295,-0.61237c1.51689,0.04468 3.12447,0.08222 4.64588,0.08222z" data-paper-data="{&quot;noHover&quot;:false,&quot;origItem&quot;:[&quot;Path&quot;,{&quot;applyMatrix&quot;:true,&quot;segments&quot;:[[[244.95738,185.24194],[0,0],[-1.52141,0]],[[240.402,185.15912],[1.51689,0.04468],[-0.00854,0.19733]],[[240.3726,185.76076],[0.01082,-0.20392],[-0.0065,0.12257]],[[240.25078,186.14654],[0.06453,-0.13211],[-0.03755,0.34418]],[[240.07053,187.12589],[0.0849,-0.30518],[0.36288,0.24551]],[[242.18425,187.29751],[-0.19633,-0.00032],[0.38942,0.00063]],[[245.06129,187.33762],[-0.23731,0.16847],[0.3077,-0.21844]],[[245.54308,185.13718],[-0.04713,1.04294],[0,0]]],&quot;closed&quot;:true}]}" fill="#9e8a00" stroke="none" stroke-width="0.5"/><path d="M238.287,178.2333c0.23931,2.94362 0.17272,11.67623 -3.1666,6.22961c-0.28746,-0.46886 -0.55315,-0.98407 -0.77385,-1.48768c-0.16653,-1.24734 -0.61346,-2.80022 -0.44949,-4.05539c0.35845,-2.74404 3.11576,-2.20348 4.38994,-0.68654z" data-paper-data="{&quot;noHover&quot;:false,&quot;origItem&quot;:[&quot;Path&quot;,{&quot;applyMatrix&quot;:true,&quot;segments&quot;:[[[481.97189,357.48066],[2.35996,-2.81489],[-0.44323,5.46227]],[[487.74989,368.86194],[-6.18487,10.10691],[0.53241,-0.87003]],[[489.13713,366.13443],[-0.40877,0.93452],[0.30844,-2.31461]],[[489.98481,358.74748],[0.30369,2.32913],[-0.66392,-5.09193]]],&quot;closed&quot;:true}],&quot;index&quot;:null}" fill="#9e8a00" stroke="none" stroke-width="0.5"/><path d="M238.96751,177.29951c0.55213,0.05649 0.62694,0.65496 0.62694,0.65496c0.02524,0.20446 0.05264,0.41896 0.08088,0.6416c0.00888,0.02991 0.03854,0.14088 0.03523,0.27918c0.19881,1.5869 0.41085,3.52596 0.18975,5.17595c0.3666,0.19757 0.3666,0.66296 0.3666,0.66296c0,0.78149 -0.00144,1.50552 0.10922,2.28017l0.00096,0.42368c0.15233,0.04352 0.30465,0.08704 0.45697,0.13056c0,0 0.72114,0.20604 0.5151,0.92718c-0.20604,0.72114 -0.92718,0.5151 -0.92718,0.5151c-0.25926,-0.07407 -0.51852,-0.14815 -0.77778,-0.22222l-0.6884,-0.45448c0,0 -0.6,-0.45 -0.15,-1.05c0.02424,-0.03232 0.04892,-0.0616 0.07391,-0.08806l0.0002,-0.07544c-0.01592,-0.11141 -0.02959,-0.22208 -0.04134,-0.33223c-2.00244,2.50278 -4.80172,-1.25536 -5.71047,-3.40732c-0.07677,-0.51069 -0.19392,-1.0684 -0.29625,-1.64183c0.38206,-1.25911 0.4812,-2.66744 0.28923,-3.9985c1.36281,-2.46048 4.08566,-2.16658 5.84643,-0.42126zM234.14856,179.26262c-0.15184,1.16456 0.26962,2.53617 0.42384,3.69347c0.20439,0.46726 0.42741,0.92874 0.69362,1.36376c3.09243,5.05346 3.11061,-2.95951 2.889,-5.69064c-1.17998,-1.40745 -3.6745,-1.91256 -4.00646,0.63341z" data-paper-data="{&quot;index&quot;:null}" fill="#8c7a00" stroke="none" stroke-width="0.5"/><path d="M233.52789,182.20345c-0.71151,0.23717 -0.94868,-0.47434 -0.94868,-0.47434l-0.08896,-0.27506c-0.67968,-1.6557 -0.0498,-2.77178 0.41266,-4.39037c0,0 0.20604,-0.72114 0.92718,-0.5151c0.72114,0.20604 0.5151,0.92718 0.5151,0.92718c-0.3445,1.20574 -1.01498,2.20306 -0.47623,3.38741l0.13326,0.3916c0,0 0.23717,0.71151 -0.47434,0.94868z" fill="#8c7a00" stroke="none" stroke-width="0.5"/><path d="M237.45997,169.08396c0.1287,-0.17821 0.36087,-0.35311 0.75933,-0.25932c0.73005,0.17182 0.55822,0.90189 0.55822,0.90189c-0.1354,0.56138 -0.78411,3.22189 -1.1985,3.54745c-0.62965,0.49469 -1.68179,0.30386 -2.60675,-0.03345l0.01139,0.04811l-0.43145,0.10215c0.1793,2.26271 -1.21445,5.12991 -3.31708,6.12898c-2.9175,1.38625 -4.33819,-1.4295 -4.09373,-3.87234c0.11615,-1.16065 0.45529,-2.19325 0.85155,-3.28065c0.86412,-5.05892 4.70892,-5.55161 8.74387,-3.50071l0.586,0.15934c0,0 0.05846,0.01723 0.13715,0.05854z" fill="#baab00" stroke="none" stroke-width="0.5"/><path d="M238.68009,169.53395c-0.21206,0.7194 -0.93145,0.50734 -0.93145,0.50734l-0.45493,-0.17423c-2.81731,-1.96239 -6.06036,-3.54472 -7.70423,-0.01798c0.13257,0.35122 -0.10504,0.69236 -0.10504,0.69236c-1.3993,1.99877 -2.34247,4.7133 -1.59693,7.16777c0.62791,2.06722 3.25617,0.60069 4.08763,-0.29596c1.04243,-1.09444 1.52401,-2.68629 1.86273,-4.13469l-0.025,0.0411c0,0 -0.02631,-0.74954 0.72323,-0.77586c0.74954,-0.02631 0.77585,0.72323 0.77585,0.72323l-0.01398,0.35518c-0.40982,1.73108 -1.00963,3.48767 -2.2256,4.81381c-1.6795,1.79354 -5.47426,2.92413 -6.60198,-0.23514c-0.929,-2.60259 0.00554,-5.67692 1.41576,-7.95599c-0.00255,-0.16888 0.04437,-0.29931 0.04437,-0.29931c1.92727,-5.35593 6.45124,-3.93491 10.22053,-1.30939l0.0217,-0.03372c0,0 0.7194,0.21205 0.50733,0.93146z" fill="#8c7a00" stroke="none" stroke-width="0.5"/><path d="M224.04733,168.39785l1.91248,-26.7089l28.45265,1.9817l-1.91248,26.7089z" fill="#999999" stroke="#7d7d7d" stroke-width="1.5"/><path d="M225.42805,149.11538l0.53177,-7.42643l28.45265,1.9817l-0.53177,7.42643z" fill="#999999" stroke="#7d7d7d" stroke-width="1.5"/><path d="M226.98461,151.61893c0.02918,-0.4075 0.38779,-0.71452 0.80097,-0.68574c0.41318,0.02878 0.72448,0.38246 0.6953,0.78996c-0.02918,0.4075 -0.38779,0.71452 -0.80097,0.68574c-0.41318,-0.02878 -0.72448,-0.38246 -0.6953,-0.78996z" fill="#7d7d7d" stroke="none" stroke-width="0.5"/><path d="M231.89357,151.66422c0.02918,-0.4075 0.38779,-0.71452 0.80097,-0.68574c0.41318,0.02878 0.72448,0.38246 0.6953,0.78996c-0.02918,0.4075 -0.38779,0.71452 -0.80097,0.68574c-0.41318,-0.02878 -0.72448,-0.38246 -0.6953,-0.78996z" fill="#7d7d7d" stroke="none" stroke-width="0.5"/><path d="M237.28015,152.03939c0.02918,-0.4075 0.38779,-0.71452 0.80097,-0.68574c0.41318,0.02878 0.72448,0.38246 0.6953,0.78996c-0.02918,0.4075 -0.38779,0.71452 -0.80097,0.68574c-0.41318,-0.02878 -0.72448,-0.38246 -0.6953,-0.78996z" fill="#7d7d7d" stroke="none" stroke-width="0.5"/><path d="M242.95895,152.53379c0.02918,-0.4075 0.38779,-0.71452 0.80097,-0.68574c0.41318,0.02878 0.72448,0.38246 0.6953,0.78996c-0.02918,0.4075 -0.38779,0.71452 -0.80097,0.68574c-0.41318,-0.02878 -0.72448,-0.38246 -0.6953,-0.78996z" fill="#7d7d7d" stroke="none" stroke-width="0.5"/><path d="M246.75655,152.69942c0.02918,-0.4075 0.38779,-0.71452 0.80097,-0.68574c0.41318,0.02878 0.72448,0.38246 0.6953,0.78996c-0.02918,0.4075 -0.38779,0.71452 -0.80097,0.68574c-0.41318,-0.02878 -0.72448,-0.38246 -0.6953,-0.78996z" fill="#7d7d7d" stroke="none" stroke-width="0.5"/><path d="M250.74661,152.97732c0.02918,-0.4075 0.38779,-0.71452 0.80097,-0.68574c0.41318,0.02878 0.72448,0.38246 0.6953,0.78996c-0.02918,0.4075 -0.38779,0.71452 -0.80097,0.68574c-0.41318,-0.02878 -0.72448,-0.38246 -0.6953,-0.78996z" fill="#7d7d7d" stroke="none" stroke-width="0.5"/><path d="M250.6139,156.23081c0.02918,-0.4075 0.38779,-0.71452 0.80097,-0.68574c0.41318,0.02878 0.72448,0.38246 0.6953,0.78996c-0.02918,0.4075 -0.38779,0.71452 -0.80097,0.68574c-0.41318,-0.02878 -0.72448,-0.38246 -0.6953,-0.78996z" fill="#7d7d7d" stroke="none" stroke-width="0.5"/><path d="M250.3603,159.77249c0.02918,-0.4075 0.38779,-0.71452 0.80097,-0.68574c0.41318,0.02878 0.72448,0.38246 0.6953,0.78996c-0.02918,0.4075 -0.38779,0.71452 -0.80097,0.68574c-0.41318,-0.02878 -0.72448,-0.38246 -0.6953,-0.78996z" fill="#7d7d7d" stroke="none" stroke-width="0.5"/><path d="M250.19236,163.51787c0.02918,-0.4075 0.38779,-0.71452 0.80097,-0.68574c0.41318,0.02878 0.72448,0.38246 0.6953,0.78996c-0.02918,0.4075 -0.38779,0.71452 -0.80097,0.68574c-0.41318,-0.02878 -0.72448,-0.38246 -0.6953,-0.78996z" fill="#7d7d7d" stroke="none" stroke-width="0.5"/><path d="M250.06782,168.05725c0.02918,-0.4075 0.38779,-0.71452 0.80097,-0.68574c0.41318,0.02878 0.72448,0.38246 0.6953,0.78996c-0.02918,0.4075 -0.38779,0.71452 -0.80097,0.68574c-0.41318,-0.02878 -0.72448,-0.38246 -0.6953,-0.78996z" fill="#7d7d7d" stroke="none" stroke-width="0.5"/><path d="M246.76897,167.92636c0.02918,-0.4075 0.38779,-0.71452 0.80097,-0.68574c0.41318,0.02878 0.72448,0.38246 0.6953,0.78996c-0.02918,0.4075 -0.38779,0.71452 -0.80097,0.68574c-0.41318,-0.02878 -0.72448,-0.38246 -0.6953,-0.78996z" fill="#7d7d7d" stroke="none" stroke-width="0.5"/><path d="M243.39855,167.395c0.02918,-0.4075 0.38779,-0.71452 0.80097,-0.68574c0.41318,0.02878 0.72448,0.38246 0.6953,0.78996c-0.02918,0.4075 -0.38779,0.71452 -0.80097,0.68574c-0.41318,-0.02878 -0.72448,-0.38246 -0.6953,-0.78996z" fill="#7d7d7d" stroke="none" stroke-width="0.5"/><path d="M237.00036,167.14711c0.02918,-0.4075 0.38779,-0.71452 0.80097,-0.68574c0.41318,0.02878 0.72448,0.38246 0.6953,0.78996c-0.02918,0.4075 -0.38779,0.71452 -0.80097,0.68574c-0.41318,-0.02878 -0.72448,-0.38246 -0.6953,-0.78996z" fill="#7d7d7d" stroke="none" stroke-width="0.5"/><path d="M231.33565,166.45596c0.02918,-0.4075 0.38779,-0.71452 0.80097,-0.68574c0.41318,0.02878 0.72448,0.38246 0.6953,0.78996c-0.02918,0.4075 -0.38779,0.71452 -0.80097,0.68574c-0.41318,-0.02878 -0.72448,-0.38246 -0.6953,-0.78996z" fill="#7d7d7d" stroke="none" stroke-width="0.5"/><path d="M225.83523,166.2706c0.02918,-0.4075 0.38779,-0.71452 0.80097,-0.68574c0.41318,0.02878 0.72448,0.38246 0.6953,0.78996c-0.02918,0.4075 -0.38779,0.71452 -0.80097,0.68574c-0.41318,-0.02878 -0.72448,-0.38246 -0.6953,-0.78996z" fill="#7d7d7d" stroke="none" stroke-width="0.5"/><path d="M226.34469,161.95577c0.02918,-0.4075 0.38779,-0.71452 0.80097,-0.68574c0.41318,0.02878 0.72448,0.38246 0.6953,0.78996c-0.02918,0.4075 -0.38779,0.71452 -0.80097,0.68574c-0.41318,-0.02878 -0.72448,-0.38246 -0.6953,-0.78996z" fill="#7d7d7d" stroke="none" stroke-width="0.5"/><path d="M226.42696,158.00668c0.02918,-0.4075 0.38779,-0.71452 0.80097,-0.68574c0.41318,0.02878 0.72448,0.38246 0.6953,0.78996c-0.02918,0.4075 -0.38779,0.71452 -0.80097,0.68574c-0.41318,-0.02878 -0.72448,-0.38246 -0.6953,-0.78996z" fill="#7d7d7d" stroke="none" stroke-width="0.5"/><path d="M226.78032,154.47195c0.02918,-0.4075 0.38779,-0.71452 0.80097,-0.68574c0.41318,0.02878 0.72448,0.38246 0.6953,0.78996c-0.02918,0.4075 -0.38779,0.71452 -0.80097,0.68574c-0.41318,-0.02878 -0.72448,-0.38246 -0.6953,-0.78996z" fill="#7d7d7d" stroke="none" stroke-width="0.5"/><path d="M226.98826,147.36775c0.02918,-0.4075 0.38779,-0.71452 0.80097,-0.68574c0.41318,0.02878 0.72448,0.38246 0.6953,0.78996c-0.02918,0.4075 -0.38779,0.71452 -0.80097,0.68574c-0.41318,-0.02878 -0.72448,-0.38246 -0.6953,-0.78996z" fill="#7d7d7d" stroke="none" stroke-width="0.5"/><path d="M227.04349,145.19644c0.02918,-0.4075 0.38779,-0.71452 0.80097,-0.68574c0.41318,0.02878 0.72448,0.38246 0.6953,0.78996c-0.02918,0.4075 -0.38779,0.71452 -0.80097,0.68574c-0.41318,-0.02878 -0.72448,-0.38246 -0.6953,-0.78996z" fill="#7d7d7d" stroke="none" stroke-width="0.5"/><path d="M227.17734,143.32722c0.02918,-0.4075 0.38779,-0.71452 0.80097,-0.68574c0.41318,0.02878 0.72448,0.38246 0.6953,0.78996c-0.02918,0.4075 -0.38779,0.71452 -0.80097,0.68574c-0.41318,-0.02878 -0.72448,-0.38246 -0.6953,-0.78996z" fill="#7d7d7d" stroke="none" stroke-width="0.5"/><path d="M231.463,147.87715c0.02918,-0.4075 0.38779,-0.71452 0.80097,-0.68574c0.41318,0.02878 0.72448,0.38246 0.6953,0.78996c-0.02918,0.4075 -0.38779,0.71452 -0.80097,0.68574c-0.41318,-0.02878 -0.72448,-0.38246 -0.6953,-0.78996z" fill="#7d7d7d" stroke="none" stroke-width="0.5"/><path d="M237.58306,147.80905c0.02918,-0.4075 0.38779,-0.71452 0.80097,-0.68574c0.41318,0.02878 0.72448,0.38246 0.6953,0.78996c-0.02918,0.4075 -0.38779,0.71452 -0.80097,0.68574c-0.41318,-0.02878 -0.72448,-0.38246 -0.6953,-0.78996z" fill="#7d7d7d" stroke="none" stroke-width="0.5"/><path d="M243.35457,148.40878c0.02918,-0.4075 0.38779,-0.71452 0.80097,-0.68574c0.41318,0.02878 0.72448,0.38246 0.6953,0.78996c-0.02918,0.4075 -0.38779,0.71452 -0.80097,0.68574c-0.41318,-0.02878 -0.72448,-0.38246 -0.6953,-0.78996z" fill="#7d7d7d" stroke="none" stroke-width="0.5"/><path d="M247.36576,148.39154c0.02918,-0.4075 0.38779,-0.71452 0.80097,-0.68574c0.41318,0.02878 0.72448,0.38246 0.6953,0.78996c-0.02918,0.4075 -0.38779,0.71452 -0.80097,0.68574c-0.41318,-0.02878 -0.72448,-0.38246 -0.6953,-0.78996z" fill="#7d7d7d" stroke="none" stroke-width="0.5"/><path d="M250.54372,148.81062c0.02918,-0.4075 0.38779,-0.71452 0.80097,-0.68574c0.41318,0.02878 0.72448,0.38246 0.6953,0.78996c-0.02918,0.4075 -0.38779,0.71452 -0.80097,0.68574c-0.41318,-0.02878 -0.72448,-0.38246 -0.6953,-0.78996z" fill="#7d7d7d" stroke="none" stroke-width="0.5"/><path d="M250.86298,147.15206c0.02918,-0.4075 0.38779,-0.71452 0.80097,-0.68574c0.41318,0.02878 0.72448,0.38246 0.6953,0.78996c-0.02918,0.4075 -0.38779,0.71452 -0.80097,0.68574c-0.41318,-0.02878 -0.72448,-0.38246 -0.6953,-0.78996z" fill="#7d7d7d" stroke="none" stroke-width="0.5"/><path d="M251.11067,145.09303c0.02918,-0.4075 0.38779,-0.71452 0.80097,-0.68574c0.41318,0.02878 0.72448,0.38246 0.6953,0.78996c-0.02918,0.4075 -0.38779,0.71452 -0.80097,0.68574c-0.41318,-0.02878 -0.72448,-0.38246 -0.6953,-0.78996z" fill="#7d7d7d" stroke="none" stroke-width="0.5"/><path d="M247.99019,145.27117c0.02918,-0.4075 0.38779,-0.71452 0.80097,-0.68574c0.41318,0.02878 0.72448,0.38246 0.6953,0.78996c-0.02918,0.4075 -0.38779,0.71452 -0.80097,0.68574c-0.41318,-0.02878 -0.72448,-0.38246 -0.6953,-0.78996z" fill="#7d7d7d" stroke="none" stroke-width="0.5"/><path d="M244.02126,144.69813c0.02918,-0.4075 0.38779,-0.71452 0.80097,-0.68574c0.41318,0.02878 0.72448,0.38246 0.6953,0.78996c-0.02918,0.4075 -0.38779,0.71452 -0.80097,0.68574c-0.41318,-0.02878 -0.72448,-0.38246 -0.6953,-0.78996z" fill="#7d7d7d" stroke="none" stroke-width="0.5"/><path d="M237.34495,144.13426c0.02918,-0.4075 0.38779,-0.71452 0.80097,-0.68574c0.41318,0.02878 0.72448,0.38246 0.6953,0.78996c-0.02918,0.4075 -0.38779,0.71452 -0.80097,0.68574c-0.41318,-0.02878 -0.72448,-0.38246 -0.6953,-0.78996z" fill="#7d7d7d" stroke="none" stroke-width="0.5"/><path d="M231.18149,143.40837c0.02918,-0.4075 0.38779,-0.71452 0.80097,-0.68574c0.41318,0.02878 0.72448,0.38246 0.6953,0.78996c-0.02918,0.4075 -0.38779,0.71452 -0.80097,0.68574c-0.41318,-0.02878 -0.72448,-0.38246 -0.6953,-0.78996z" fill="#7d7d7d" stroke="none" stroke-width="0.5"/></g></g></svg>