<svg version="1.1" xmlns="http://www.w3.org/2000/svg" xmlns:xlink="http://www.w3.org/1999/xlink" width="29.75569" height="47.0529" viewBox="0,0,29.75569,47.0529"><g transform="translate(-224.96811,-141.96049)"><g data-paper-data="{&quot;isPaintingLayer&quot;:true}" fill-rule="nonzero" stroke="none" stroke-width="0.5" stroke-linecap="butt" stroke-linejoin="miter" stroke-miterlimit="10" stroke-dasharray="" stroke-dashoffset="0" style="mix-blend-mode: normal"><path d="M247.40967,165.86267l0.22202,0.55164c0.3528,0.82264 0.66968,1.66413 0.9845,2.50195c0.54409,1.90693 2.14652,7.91312 0.17985,9.41818c-0.92284,0.70624 -1.50784,-0.90288 -1.9009,-2.57191c-0.06901,-0.95998 -0.12228,-1.89932 -0.12257,-2.84991l-0.02554,-0.04346l0.02133,-0.00271l-0.10724,-0.87454c-0.04137,-0.37508 -0.3556,-0.66189 -0.74171,-0.66189c-0.41421,0 -0.67366,0.2712 -0.67366,0.68542c0,0.02059 0.00106,0.04126 0.00269,0.06144l0.11198,1.49699l0.00139,-0.0001c-0.00029,0.00233 -0.00056,0.00471 -0.00084,0.00704c-0.07794,0.63347 -0.02489,1.6736 0.172,2.71912c0.14281,1.90808 0.27905,3.85802 0.04422,5.73666c-0.00157,0.89127 0.18162,4.86613 -0.49501,5.34647c-0.23731,0.16847 -2.49879,-0.03586 -2.88821,-0.0365c-0.19633,-0.00032 -1.76033,0.07484 -2.1232,-0.17067c0.0849,-0.30518 0.14132,-0.73516 0.17887,-1.07934c0.06453,-0.13211 0.11462,-0.26318 0.12112,-0.38576c0.08369,-1.57785 0.12408,-2.84438 -0.21909,-4.21868c0,-0.00108 -0.00249,-0.10212 -0.00249,-0.1032l0.00068,-0.00552l0.2162,-0.02416l-0.10379,-0.89121c-0.03709,-0.37956 -0.36753,-0.67666 -0.75683,-0.67666c-0.38611,0 -0.71144,0.29006 -0.75281,0.66515l-0.08158,0.78312l0.01936,0.00239l-0.02378,0.04401c-0.00106,0.7657 0.44803,5.89013 -0.33717,6.11797c-0.6911,0.20053 -2.04586,-0.09545 -2.74506,-0.16588c-0.35774,-0.0503 -0.83859,0.18103 -1.08457,-0.08354c-0.13104,-0.14095 -0.02285,-2.34947 -0.04486,-2.67461c-0.18125,-2.67748 -0.26968,-5.56445 0.0847,-8.22292c0.09231,-0.69248 0.36997,-1.57377 0.34453,-2.29802c0.06557,-0.3591 0.14457,-0.72438 0.22243,-1.08091l-0.03361,-0.08215l0.03843,-0.00015l0.00303,-0.78154c0,-0.41421 -0.26131,-0.68326 -0.67553,-0.68326c-0.36345,0 -0.66274,0.2538 -0.73157,0.597l-0.21574,0.98024l0.16878,0.03782c-0.03196,0.14554 -0.0614,0.2887 -0.09082,0.43482c-0.34032,1.05147 -0.51024,2.14728 -0.59131,3.29233c-0.34278,0.95709 -1.08575,1.67782 -2.32424,0.9771c-0.49801,-0.28177 -0.32909,-2.44183 -0.32935,-2.83298c-0.00181,-2.7106 0.8707,-5.3561 2.16413,-7.72117c0.27003,-0.05499 0.45267,-0.26739 0.45267,-0.26739c2.11199,-2.50239 7.13949,-1.1705 10.0579,-1.30226c1.38768,-0.06265 2.95391,-0.30772 4.24632,0.28018z" data-paper-data="{&quot;noHover&quot;:false,&quot;origItem&quot;:[&quot;Path&quot;,{&quot;applyMatrix&quot;:true,&quot;segments&quot;:[[[496.43499,290.36259],[0,0],[-2.5848,-1.17581]],[[487.97232,289.8161],[2.77535,-0.1253],[-5.83683,0.26353]],[[467.94253,292.40451],[4.22399,-5.00478],[0,0]],[[467.04065,292.93661],[0.54007,-0.10999],[-2.58686,4.73015]],[[462.74809,308.31721],[-0.00361,-5.42119],[0.00052,0.7823]],[[463.40716,313.95383],[-0.99603,-0.56354],[2.47697,1.40145]],[[467.85663,312.01728],[-0.68556,1.91418],[0.16213,-2.29009]],[[469.04847,305.38632],[-0.68063,2.10294],[0.05884,-0.29223]],[[469.23279,304.51134],[-0.06392,0.29109],[0,0]],[468.89492,304.43626],[[469.33295,302.4651],[0,0],[0.13765,-0.68639]],[[470.80364,301.26165],[-0.7269,0],[0.82843,0]],[[472.30364,302.76165],[0,-0.82843],[0,0]],[472.30364,304.31721],[472.22701,304.31721],[[472.29469,304.48088],[0,0],[-0.15574,0.71307]],[[471.85883,306.6273],[0.13113,-0.71819],[0.05089,1.4485]],[[471.17926,311.18297],[0.18462,-1.38496],[-0.70876,5.31694]],[[470.96654,327.54421],[-0.3625,-5.35496],[0.04402,0.65029]],[[471.04523,332.88685],[-0.26208,-0.2819],[0.49196,0.52915]],[[473.2066,333.05036],[-0.71548,-0.10061],[1.3984,0.14085]],[[478.67406,333.37583],[-1.38221,0.40107],[1.57041,-0.45568]],[[479.30654,321.33511],[-0.00212,1.5314],[0,0]],[479.35432,321.24715],[479.31523,321.24227],[[479.53498,319.48423],[0,0],[0.08274,-0.75016]],[[481.02587,318.15054],[-0.77221,0],[0.7786,0]],[[482.51869,319.50288],[-0.07417,-0.75912],[0,0]],[482.73891,321.48489],[482.30218,321.53342],[[482.3008,321.54447],[0,0],[0.00001,0.00215]],[[482.30082,321.55093],[-0.00001,-0.00215],[0.68633,2.74861]],[[482.74519,330.18819],[0.16737,-3.1557],[-0.013,0.24515]],[[482.50156,330.95975],[0.12905,-0.26423],[-0.0751,0.68836]],[[482.14107,332.91845],[0.1698,-0.61036],[0.72575,0.49101]],[[486.3685,333.26168],[-0.39266,-0.00064],[0.77885,0.00126]],[[492.12257,333.34191],[-0.47462,0.33694],[1.35326,-0.96069]],[[493.08432,322.66845],[-0.00313,1.78255],[0.46966,-3.75727]],[[492.96593,311.26793],[0.28561,3.81615],[-0.39377,-2.09104]],[[492.63336,305.8747],[-0.15588,1.26694],[0.00057,-0.00467]],[[492.63509,305.8607],[-0.00058,0.00467],[0,0]],[492.63231,305.8609],[[492.41967,302.88397],[0,0],[-0.00326,-0.04034]],[[492.41476,302.76165],[0,0.04118],[0,-0.82843]],[[493.91476,301.26165],[-0.82843,0],[0.77221,0]],[[495.40564,302.59534],[-0.08274,-0.75016],[0,0]],[495.62539,304.35338],[495.58269,304.35872],[[495.63408,304.44622],[0,0],[0.00057,1.90117]],[[495.88986,310.1828],[-0.13802,-1.91996],[0.78614,3.33805]],[[499.49447,315.31377],[-1.84568,1.41247],[3.93334,-3.01012]],[[499.15688,296.56475],[1.08818,3.81386],[-0.62963,-1.67564]],[[497.2027,291.57475],[0.70559,1.64528],[0,0]],[496.76188,290.47383]],&quot;closed&quot;:true}]}" fill="#0060b9"/><path d="M244.95738,185.24194c-1.52141,0 -3.03849,-0.03814 -4.55538,-0.08281c-0.00854,0.19733 -0.01859,0.39772 -0.0294,0.60164c-0.0065,0.12257 -0.05729,0.25366 -0.12182,0.38578c-0.03755,0.34418 -0.09534,0.67417 -0.18024,0.97935c0.36288,0.24551 1.91738,0.1713 2.11372,0.17161c0.38942,0.00063 2.63973,0.20858 2.87704,0.04011c0.3077,-0.21844 0.43466,-1.15751 0.48179,-2.20044zM244.95738,183.74194l0.40847,-0.09655c0,0 0.08409,-0.01682 0.20108,-0.01065c-0.00447,-0.72067 -0.02528,-1.34203 -0.02477,-1.63385c0.23483,-1.87863 0.08361,-3.79218 -0.0592,-5.70026c-0.19689,-1.04552 -0.24423,-2.06314 -0.16629,-2.69661c0.00029,-0.00233 0.00058,-0.00467 0.00087,-0.007l-0.00139,0.0001l-0.10632,-1.48847c-0.00163,-0.02017 -0.00246,-0.04057 -0.00246,-0.06116c0,-0.41421 0.33579,-0.75 0.75,-0.75c0.38611,0 0.70407,0.29176 0.74544,0.66685l0.10988,0.87902l-0.02135,0.00267l0.02569,0.04375c0.00029,0.95059 0.05888,1.90831 0.12789,2.86829c0.39307,1.66903 0.87946,3.27172 1.8023,2.56548c1.96667,-1.50506 0.3753,-7.46758 -0.16879,-9.37451c-0.31481,-0.83782 -0.62429,-1.67236 -0.97709,-2.495l-0.22041,-0.55046l-0.16344,-0.05562c-1.2924,-0.5879 -2.84366,-0.3359 -4.23133,-0.27324c-2.91841,0.13176 -7.9029,-1.20819 -10.0149,1.2942c0,0 -0.18091,0.21106 -0.45094,0.26605c-1.29343,2.36508 -2.14808,4.9797 -2.14628,7.6903c0.00026,0.39115 -0.16848,2.53654 0.32953,2.81831c1.23849,0.70073 1.88196,-0.01119 2.22474,-0.96828c0.08107,-1.14505 0.2556,-2.26401 0.59592,-3.31548c0.02942,-0.14611 0.0602,-0.29195 0.09216,-0.43749l-0.16893,-0.03754l0.21902,-0.98558c0.06882,-0.34319 0.37189,-0.60172 0.73534,-0.60172c0.41421,0 0.75,0.33579 0.75,0.75v0.77778h-0.03832l0.03384,0.08184c-0.07787,0.35653 -0.15236,0.71411 -0.21793,1.07321c0.02544,0.72425 -0.24748,1.58536 -0.33978,2.27784c-0.31415,2.35665 -0.29734,4.85962 -0.16322,7.26273c1.44918,0.00713 2.89374,0.04583 4.33712,0.08891c-0.04066,-1.04642 -0.11067,-1.97952 -0.11026,-2.27557l0.02389,-0.04398l-0.01954,-0.00244l0.10988,-0.87902c0.04137,-0.37508 0.35933,-0.66685 0.74544,-0.66685c0.3893,0 0.70933,0.29661 0.74641,0.67617l0.11011,0.99101l-0.21837,0.02426l-0.00069,0.00552c0,0.00108 0.00001,0.00215 0.00001,0.00323c0.1824,0.73046 0.25731,1.45872 0.27491,2.21767c1.50923,0.04438 3.0186,0.08213 4.53206,0.08213zM234.52262,187.11009c0.24598,0.26458 0.72295,0.03145 1.08068,0.08175c0.6992,0.07043 2.04263,0.36327 2.73373,0.16274c0.33846,-0.09821 0.44369,-1.08806 0.45397,-2.24396c-1.43496,-0.04289 -2.87105,-0.08162 -4.31177,-0.08946c-0.01706,0.76785 -0.05288,1.98539 0.04339,2.08893zM242.9286,164.07582c1.68339,-0.07704 3.29918,-0.25542 4.87978,0.39342l0.27506,0.08896c0,0 0.39623,0.13208 0.49876,0.49479c0.12602,0.12994 0.18265,0.27151 0.18265,0.27151l0.21522,0.53866c0.36945,0.86261 0.69399,1.73733 1.02291,2.61611c0.76685,2.68075 2.35323,9.02852 -0.39102,11.06993c-1.00602,0.74837 -1.81417,0.72567 -2.44725,0.2669c0.0026,0.7631 -0.03111,1.52326 -0.12545,2.27799c0.00294,1.48101 0.23738,5.40283 -1.07468,6.44105c-1.03347,0.81777 -4.82283,0.4807 -6.50223,-0.21671c-0.15559,0.17206 -0.33798,0.31484 -0.5513,0.42196c-0.74974,0.37652 -2.68004,0.02083 -3.48849,-0.05948c-0.53305,-0.07716 -1.67093,-0.17692 -2.03043,-0.58491c-0.646,-0.73316 -0.406,-3.53651 -0.40698,-4.49296c-0.00153,-1.47984 -0.10207,-3.06778 -0.11617,-4.65762c-0.75941,0.55717 -1.75008,0.68037 -2.99114,-0.04959c-0.76411,-0.44943 -0.99806,-2.19498 -1.0038,-2.95946c-0.0263,-3.50166 0.72475,-6.61808 2.42772,-9.69757c0,0 0.20243,-0.36438 0.57712,-0.39893c2.63736,-2.95695 7.48515,-1.60092 11.04972,-1.76406z" fill="#00488c"/><path d="M245.58927,185.11805c-0.04713,1.04294 -0.1751,2.02253 -0.48279,2.24097c-0.23731,0.16847 -2.55872,-0.01812 -2.94814,-0.01875c-0.19633,-0.00032 -1.77265,0.04605 -2.13552,-0.19945c0.0849,-0.30518 0.14047,-0.65251 0.17802,-0.99669c0.06453,-0.13211 0.11632,-0.27103 0.12282,-0.3936c0.01082,-0.20392 0.02441,-0.41504 0.03295,-0.61237c1.51689,0.04468 3.12447,0.08222 4.64588,0.08222z" data-paper-data="{&quot;noHover&quot;:false,&quot;origItem&quot;:[&quot;Path&quot;,{&quot;applyMatrix&quot;:true,&quot;selected&quot;:true,&quot;segments&quot;:[[[244.95738,185.24194],[0,0],[-1.52141,0],7],[[240.402,185.15912],[1.51689,0.04468],[-0.00854,0.19733],7],[[240.3726,185.76076],[0.01082,-0.20392],[-0.0065,0.12257],7],[[240.25078,186.14654],[0.06453,-0.13211],[-0.03755,0.34418],7],[[240.07053,187.12589],[0.0849,-0.30518],[0.36288,0.24551],7],[[242.18425,187.29751],[-0.19633,-0.00032],[0.38942,0.00063],7],[[245.06129,187.33762],[-0.23731,0.16847],[0.3077,-0.21844],7],[[245.54308,185.13718],[-0.04713,1.04294],[0,0],7]],&quot;closed&quot;:true}]}" fill="#00529f"/><path d="M234.4356,184.99673c1.44072,0.00784 2.96493,0.04817 4.39988,0.09106c-0.01027,1.1559 -0.11829,2.19616 -0.45674,2.29437c-0.6911,0.20053 -2.11251,-0.08547 -2.8117,-0.15589c-0.35774,-0.0503 -0.8445,0.16785 -1.09048,-0.09672c-0.09627,-0.10354 -0.05802,-1.36496 -0.04095,-2.13281z" data-paper-data="{&quot;noHover&quot;:false,&quot;origItem&quot;:[&quot;Path&quot;,{&quot;applyMatrix&quot;:true,&quot;selected&quot;:true,&quot;segments&quot;:[[[234.52262,187.11009],[-0.09627,-0.10354],[0.24598,0.26458],7],[[235.6033,187.19185],[-0.35774,-0.0503],[0.6992,0.07043],7],[[238.33703,187.35458],[-0.6911,0.20053],[0.33846,-0.09821],7],[[238.791,185.11062],[-0.01027,1.1559],[-1.43496,-0.04289],7],[[234.47923,185.02116],[1.44072,0.00784],[-0.01706,0.76785],7]],&quot;closed&quot;:true}]}" fill="#00529f"/><path d="M254.49754,147.43284c0.37195,0.61172 -0.27933,0.96108 -0.27933,0.96108l-0.11596,0.0622c-0.88569,0.47465 -1.79273,0.91577 -2.7166,1.32116c0,0 -0.67964,0.2979 -0.9968,-0.34046c-0.31716,-0.63837 0.36247,-0.93626 0.36247,-0.93626c0.88696,-0.38834 1.75748,-0.8117 2.60704,-1.26788l0.11596,-0.0622c0,0 0.65127,-0.34936 1.02322,0.26237z" fill="#8c5900"/><path d="M244.29071,142.27702c0.75,0 0.75,0.70445 0.75,0.70445l-0.02643,0.6028c-0.11111,0.38267 -0.22222,0.76533 -0.33333,1.14799c0,0 -0.19734,0.67963 -0.92091,0.49427c-0.72357,-0.18536 -0.52623,-0.86498 -0.52623,-0.86498c0.11111,-0.38267 0.22222,-0.76533 0.33333,-1.14799l-0.02643,-0.2321c0,0 0,-0.70445 0.75,-0.70445z" fill="#8c5900"/><path d="M233.87149,142.90081c0.53033,-0.49812 1.06066,0 1.06066,0l0.41743,0.40724c0.25926,0.34788 0.51852,0.69575 0.77778,1.04363c0,0 0.4301,0.57711 -0.18433,0.98109c-0.61442,0.40398 -1.04452,-0.17314 -1.04452,-0.17314c-0.25926,-0.34788 -0.51852,-0.69575 -0.77778,-1.04363l-0.24924,-0.21894c0,0 -0.53033,-0.49812 0,-0.99625z" fill="#8c5900"/><path d="M225.77778,147.4958c0.41603,-0.58614 1.04006,-0.19538 1.04006,-0.19538l0.37776,0.23881c0.33333,0.24352 0.66667,0.48703 1,0.73055c0,0 0.59201,0.4325 0.13156,0.98855c-0.46046,0.55606 -1.05247,0.12357 -1.05247,0.12357c-0.33333,-0.24352 -0.66667,-0.48703 -1,-0.73055l-0.2889,-0.17865c0,0 -0.62404,-0.39076 -0.20801,-0.9769z" fill="#8c5900"/><path d="M228.91823,150.18077l-0.12357,0.14409c-1.42752,2.49733 -2.45503,4.72448 -1.98747,7.68427c0.67586,4.27832 6.74007,9.21366 11.20929,9.74845c10.12628,1.31362 17.89941,-10.18147 11.47525,-18.04187c-3.5902,-4.45966 -9.54165,-5.03858 -14.8683,-3.15154c-1.8502,0.65546 -4.24192,1.42885 -5.54423,2.95132c0.08536,0.35102 -0.16097,0.66528 -0.16097,0.66528zM226.97468,149.68553c1.35394,-2.53806 4.35479,-3.66263 7.048,-4.61711c6.05692,-2.14662 12.73216,-1.32393 16.82251,3.67799c7.27258,9.01173 -1.42149,22.06823 -13.05869,20.59515c-5.24769,-0.70688 -11.83515,-6.07378 -12.66285,-11.09755c-0.4949,-3.00386 0.40679,-5.45437 1.7849,-7.98381c-0.07753,-0.29486 0.06612,-0.57467 0.06612,-0.57467z" data-paper-data="{&quot;index&quot;:null}" fill="#8d7f67"/><path d="M229.03385,149.48348c1.30231,-1.52247 3.71699,-2.31281 5.56719,-2.96827c5.32665,-1.88704 11.34637,-1.2905 14.93657,3.16916c6.42416,7.86039 -1.40083,19.43982 -11.5271,18.12621c-4.46922,-0.53479 -10.58383,-5.51721 -11.25969,-9.79553c-0.46756,-2.95979 0.56873,-5.22185 1.99626,-7.71918l0.12406,-0.1448c0,0 0.24807,-0.31656 0.16272,-0.66759z" data-paper-data="{&quot;noHover&quot;:false,&quot;origItem&quot;:[&quot;Path&quot;,{&quot;applyMatrix&quot;:true,&quot;segments&quot;:[[461.79205,256.51809],[[461.57425,256.7885],[0,0],[-2.51619,4.68647]],[[458.07109,271.20873],[-0.82414,-5.55431],[1.19129,8.02865]],[[477.82886,289.50257],[-7.87755,-1.00359],[17.84882,2.46512]],[[498.05541,255.64538],[11.32339,14.75074],[-6.32818,-8.36895]],[[471.84818,249.73122],[9.38889,-3.5412],[-3.26121,1.23003]],[[462.07578,255.26964],[2.29549,-2.85706],[0.15045,0.65872]]],&quot;closed&quot;:true}]}" fill="#e6d0a9"/><path d="M241.91253,163.81032c0.0516,-0.15481 0.12566,-0.26471 0.20996,-0.34191c0.12588,-0.42645 0.6177,-0.49671 0.6177,-0.49671c0.52791,-0.0742 1.06194,-0.11606 1.59505,-0.11675l0.72551,-0.10364c0.03871,-0.00616 0.0784,-0.00936 0.11884,-0.00936c0.41421,0 0.75,0.33579 0.75,0.75c0,0.26446 -0.13688,0.49695 -0.34365,0.63049l-0.65699,0.43799l-0.07475,-0.11212c-0.43279,0.3668 -0.89169,0.45204 -1.89684,0.4603l-0.5705,-0.1496c0,0 -0.71151,-0.23717 -0.47434,-0.94868z" fill="#66c7ff"/><path d="M234.94857,162.32545c-0.05467,-0.30826 -0.09999,-0.6125 -0.13732,-0.91485c-0.61991,-0.00929 -1.23969,-0.01503 -1.85922,-0.0158c-0.00022,0.04438 -0.00045,0.08875 -0.00071,0.13313c-0.00187,0.31748 -0.40187,0.89115 -0.06975,0.9502c0.65393,0.11626 1.34507,0.17924 2.05924,0.20575zM236.62742,162.06263l0.00907,0.625c0.59909,-0.0161 1.20604,-0.04751 1.81336,-0.08534l-0.10595,-0.60875c0,-0.1688 -0.00272,-0.33575 -0.0084,-0.50122c-0.60177,-0.01725 -1.20357,-0.03364 -1.80534,-0.0479c0.02809,0.20444 0.06033,0.41024 0.09725,0.61823zM240.04012,161.86167l0.11331,0.6245c0.95273,-0.06668 1.88879,-0.12862 2.77843,-0.15054c-0.05217,-0.15055 -0.05217,-0.27482 -0.05217,-0.27482c0,-0.14222 0,-0.29007 0,-0.4422c-0.94716,-0.02126 -1.89501,-0.04835 -2.84318,-0.07632c0.00241,0.10573 0.0036,0.21215 0.0036,0.31937zM244.5817,158.06421c0,0.66219 0,1.32439 0,1.98657c0.48128,0.00632 0.96231,0.01035 1.44305,0.01144c-0.07853,-0.32844 -0.13605,-0.66491 -0.1649,-1.0158c-0.02866,-0.34859 0.52351,-0.97495 0.15745,-1.03842c-0.39806,-0.06901 -0.89766,-0.06559 -1.44214,-0.02486c0.00654,0.04995 0.00654,0.08107 0.00654,0.08107zM244.5817,161.66116v0.39966c0,0 -0.00001,0.07478 -0.02435,0.17857c0.76902,-0.10914 1.5717,-0.25499 2.2216,-0.02769c-0.08753,-0.21177 -0.17341,-0.42087 -0.25548,-0.62909l-0.23977,0.07855c-0.56696,0 -1.13433,-0.00426 -1.70201,-0.01172c0,0.00391 0,0.00781 0,0.01172zM232.95135,158.59595c0.00019,0.40005 0.00119,0.80014 0.00189,1.20022c0.57554,0.00072 1.15131,0.00572 1.72721,0.01388c-0.01781,-0.40367 -0.0257,-0.81071 -0.02695,-1.22619c-0.56817,0.00623 -1.13573,0.01026 -1.70216,0.01209zM238.17423,159.88906c-0.07895,-0.45406 -0.1881,-0.9057 -0.33288,-1.36316c-0.49516,0.0126 -0.99057,0.02351 -1.48591,0.03275c0.00104,0.43643 0.00941,0.86186 0.0298,1.28372c0.5963,0.01378 1.19266,0.02975 1.789,0.04668zM242.87969,160.01997c0,-0.64064 0,-1.27959 0,-1.84003c-0.82031,0.11387 -1.61792,0.23282 -2.23067,0.25637c-0.35312,0.01357 -0.7067,0.02628 -1.06062,0.03813c0.13437,0.4916 0.23776,0.97627 0.3115,1.46517c0.99375,0.02938 1.98716,0.05808 2.97978,0.08035zM231.31749,158.1463c-0.04248,-0.09483 -0.06818,-0.20961 -0.06818,-0.34853c0,-0.79932 0.851,-0.79932 0.851,-0.79932h0.14183c3.89166,0 7.83617,-0.09914 11.72983,-0.26545c0.69369,-0.02962 2.53378,-0.37715 3.14547,0.05521c1.17558,0.83094 1.06152,5.81115 0.65669,6.72037c-4.18027,0.48446 -8.22706,0.53337 -12.43664,0.41697c-0.39989,-0.01106 -3.1076,0.05993 -3.45111,-0.15054c-1.2515,-0.7668 -0.63708,-4.14977 -0.63708,-5.31116c0,0 -0.00001,-0.14855 0.06818,-0.31757z" fill="#000000"/><path d="M244.54206,157.93987c0.54448,-0.04073 1.10701,-0.04619 1.50507,0.02281c0.36606,0.06346 -0.1594,0.73948 -0.13074,1.08807c0.02885,0.35089 0.05877,0.72886 0.1373,1.05731c-0.48074,-0.00108 -1.02326,-0.0073 -1.50454,-0.01362c0,-0.66219 -0.00217,-1.41018 -0.00217,-2.07238c0,0 0.00161,-0.03225 -0.00492,-0.0822z" data-paper-data="{&quot;noHover&quot;:false,&quot;origItem&quot;:[&quot;Path&quot;,{&quot;applyMatrix&quot;:true,&quot;selected&quot;:true,&quot;segments&quot;:[[[244.5817,157.32764],[0,0],[0,0.70501],7],[[244.5817,159.44267],[0,-0.70501],[0.48128,0.00673],7],[[246.02475,159.45484],[-0.48074,-0.00115],[-0.07853,-0.34968],7],[[245.85985,158.37336],[0.02885,0.37358],[-0.02866,-0.37113],7],[[246.01731,157.26781],[0.36606,0.06756],[-0.39806,-0.07347],7],[[244.57517,157.24133],[0.54448,-0.04336],[0.00654,0.05318],7]],&quot;closed&quot;:true}]}" fill="#ffb900"/><path d="M244.52674,161.6362c0.56768,0.00746 1.24208,0.00381 1.80904,0.00381l0.2402,-0.07757c0.08207,0.20822 0.16994,0.45224 0.25748,0.66401c-0.64991,-0.2273 -1.56121,-0.08021 -2.33023,0.02894c0.02434,-0.1038 0.02233,-0.18683 0.02233,-0.18683l0.00103,-0.42007c0,-0.00391 0.00015,-0.00837 0.00015,-0.01229z" data-paper-data="{&quot;noHover&quot;:false,&quot;origItem&quot;:[&quot;Path&quot;,{&quot;applyMatrix&quot;:true,&quot;selected&quot;:true,&quot;segments&quot;:[[[244.5817,161.15716],[0,-0.00416],[0,0],7],[[244.5817,161.58266],[0,0],[0,0],7],[[244.55735,161.77278],[0.02434,-0.11051],[0.76902,-0.1162],7],[[246.77895,161.7433],[-0.64991,-0.242],[-0.08753,-0.22546],7],[[246.52348,161.07353],[0.08207,0.22168],[0,0],7],[[246.28371,161.15716],[0,0],[-0.56696,0],7],[[244.5817,161.14468],[0.56768,0.00794],[0,0.00416],7]],&quot;closed&quot;:true}]}" fill="#ffb900"/><path d="M239.98292,161.52483c0.94817,0.02796 2.00393,0.05714 2.95109,0.07839c0,0.15213 0.00238,0.31727 0.00238,0.45949c0,0 -0.00149,0.13463 0.05068,0.28518c-0.88964,0.02191 -1.93399,0.09042 -2.88672,0.1571l-0.11662,-0.64928c0,-0.10722 0.00158,-0.22515 -0.00082,-0.33089z" data-paper-data="{&quot;noHover&quot;:false,&quot;origItem&quot;:[&quot;Path&quot;,{&quot;applyMatrix&quot;:true,&quot;selected&quot;:true,&quot;segments&quot;:[[[240.04012,161.37064],[0,-0.11415],[0,0],7],[[240.15343,162.03551],[0,0],[0.95273,-0.07099],7],[[242.93186,161.87525],[-0.88964,0.02333],[-0.05217,-0.16028],7],[[242.87969,161.58266],[0,0],[0,-0.15142],7],[[242.87969,161.11187],[0,0.16197],[-0.94716,-0.02263],7],[[240.03651,161.03062],[0.94817,0.02977],[0.00241,0.11257],7]],&quot;closed&quot;:true}]}" fill="#ffb900"/><path d="M239.85278,159.96928c-0.07374,-0.4889 -0.18259,-1.02322 -0.31696,-1.51482c0.35392,-0.01185 0.7239,-0.04561 1.07703,-0.05918c0.61275,-0.02356 1.49529,-0.12872 2.3156,-0.24259c0,0.56044 0,1.2539 0,1.89454c-0.99263,-0.02227 -2.08192,-0.04857 -3.07567,-0.07795z" data-paper-data="{&quot;noHover&quot;:false,&quot;origItem&quot;:[&quot;Path&quot;,{&quot;applyMatrix&quot;:true,&quot;selected&quot;:true,&quot;segments&quot;:[[[242.87969,159.40986],[-0.99263,-0.02371],[0,-0.68206],7],[[242.87969,157.45086],[0,0.59668],[-0.82031,0.12123],7],[[240.64903,157.72381],[0.61275,-0.02508],[-0.35312,0.01445],7],[[239.58841,157.76441],[0.35392,-0.01262],[0.13437,0.52338],7],[[239.89991,159.32431],[-0.07374,-0.52051],[0.99375,0.03128],7]],&quot;closed&quot;:true}]}" fill="#ffb900"/><path d="M236.34025,159.87484c-0.02038,-0.42185 -0.02895,-0.91198 -0.02999,-1.34842c0.49534,-0.00924 1.07122,-0.02965 1.56638,-0.04225c0.14478,0.45746 0.26299,0.98406 0.34194,1.43812c-0.59633,-0.01694 -1.28202,-0.03367 -1.87833,-0.04745z" data-paper-data="{&quot;noHover&quot;:false,&quot;origItem&quot;:[&quot;Path&quot;,{&quot;applyMatrix&quot;:true,&quot;selected&quot;:true,&quot;segments&quot;:[[[238.17423,159.27048],[-0.59633,-0.01803],[-0.07895,-0.48342],7],[[237.84135,157.81918],[0.14478,0.48704],[-0.49516,0.01341],7],[[236.35544,157.85406],[0.49534,-0.00984],[0.00104,0.46465],7],[[236.38524,159.22077],[-0.02038,-0.44913],[0.5963,0.01467],7]],&quot;closed&quot;:true}]}" fill="#ffb900"/><path d="M236.48346,161.41416c0.60177,0.01426 1.29627,0.02969 1.89804,0.04694c0.00567,0.16547 0.01891,0.35884 0.01891,0.52763l0.09821,0.64079c-0.60732,0.03784 -1.30787,0.07465 -1.90696,0.09076l-0.02097,-0.65787c-0.03692,-0.20798 -0.05914,-0.44381 -0.08723,-0.64826z" data-paper-data="{&quot;noHover&quot;:false,&quot;origItem&quot;:[&quot;Path&quot;,{&quot;applyMatrix&quot;:true,&quot;selected&quot;:true,&quot;segments&quot;:[[[236.62742,161.58459],[-0.03692,-0.22143],[0,0],7],[[236.63649,162.25],[0,0],[0.59909,-0.01714],7],[[238.44986,162.15913],[-0.60732,0.04029],[0,0],7],[[238.34391,161.51102],[0,0],[0,-0.17971],7],[[238.33551,160.97739],[0.00567,0.17617],[-0.60177,-0.01837],7],[[236.53017,160.92639],[0.60177,0.01518],[0.02809,0.21766],7]],&quot;closed&quot;:true}]}" fill="#ffb900"/><path d="M234.98884,162.71225c-0.71417,-0.02651 -1.50442,-0.09468 -2.15836,-0.21094c-0.33212,-0.05905 0.07046,-0.68353 0.07233,-1.001c0.00026,-0.04438 0.00395,-0.09349 0.00416,-0.13788c0.61953,0.00077 1.33094,0.00844 1.95085,0.01773c0.03733,0.30235 0.09075,0.65125 0.14543,0.95951z" data-paper-data="{&quot;noHover&quot;:false,&quot;origItem&quot;:[&quot;Path&quot;,{&quot;applyMatrix&quot;:true,&quot;selected&quot;:true,&quot;segments&quot;:[[[234.94857,161.8644],[0,0],[-0.05467,-0.32819],7],[[234.81125,160.8904],[0.03733,0.3219],[-0.61991,-0.00989],7],[[232.95203,160.87359],[0.61953,0.00082],[-0.00022,0.04725],7],[[232.95132,161.01533],[0.00026,-0.04725],[-0.00187,0.33801],7],[[232.88157,162.02697],[-0.33212,-0.06287],[0.65393,0.12378],7],[[234.9408,162.24602],[-0.71417,-0.02822],[0,0],7]],&quot;closed&quot;:true}]}" fill="#ffb900"/><path d="M234.69825,158.5511c0.00125,0.41549 0.00967,0.88738 0.02748,1.29105c-0.5759,-0.00816 -1.24256,-0.01359 -1.8181,-0.01431c-0.00071,-0.40009 -0.00169,-0.86355 -0.00188,-1.26361c0.56643,-0.00183 1.22434,-0.00691 1.79251,-0.01314z" data-paper-data="{&quot;noHover&quot;:false,&quot;origItem&quot;:[&quot;Path&quot;,{&quot;applyMatrix&quot;:true,&quot;selected&quot;:true,&quot;segments&quot;:[[[232.95135,157.89376],[0.56643,-0.00195],[0.00019,0.42592],7],[[232.95324,159.17158],[-0.00071,-0.42596],[0.57554,0.00077],7],[[234.68045,159.18637],[-0.5759,-0.00869],[-0.01781,-0.42977],7],[[234.6535,157.88089],[0.00125,0.44235],[-0.56817,0.00663],7]],&quot;closed&quot;:true}]}" fill="#ffb900"/><path d="M233.03188,150.09313c-0.09043,0.09791 -0.17168,0.15066 -0.17168,0.15066c-0.60167,0.38925 -1.21362,0.77793 -1.73541,1.27285c-2.59542,2.46179 -0.39355,2.85234 1.91126,2.60428c0.15117,-0.01627 2.03481,-0.18442 2.07182,-0.26259c0.43096,-0.9104 -1.08449,-3.44386 -2.076,-3.76521zM232.08894,148.70744c0.23613,-0.38039 0.72698,-0.38039 0.72698,-0.38039l0.18783,0.00431c2.01837,0.31488 4.83206,4.21336 3.50304,6.51619c-1.17097,2.02897 -7.59916,1.72941 -8.21862,-0.55802c-0.70231,-2.59336 1.88748,-4.35725 3.65826,-5.51096c0,0 0.05429,-0.03525 0.14251,-0.07113z" fill="#000000"/><path d="M235.15515,153.89035c-0.03701,0.07817 -1.95464,0.27059 -2.10581,0.28686c-2.30481,0.24806 -4.57222,-0.22131 -1.9768,-2.6831c0.52179,-0.49492 1.19481,-0.91825 1.79647,-1.3075c0,0 0.08522,-0.05196 0.17565,-0.14987c0.99151,0.32135 2.54144,2.94322 2.11048,3.85361z" data-paper-data="{&quot;noHover&quot;:false,&quot;origItem&quot;:[&quot;Path&quot;,{&quot;applyMatrix&quot;:true,&quot;segments&quot;:[[[469.04287,256.09013],[1.74766,0.5551],[-0.1594,0.16912]],[[468.74027,256.35038],[0,0],[-1.06051,0.67239]],[[465.6814,258.5491],[0.91972,-0.85493],[-4.57475,4.25247]],[[469.05023,263.04772],[-4.06251,0.42849],[0.26646,-0.0281]],[[472.70207,262.59413],[-0.06523,0.13503],[0.75962,-1.57261]]],&quot;closed&quot;:true}]}" fill="#ffbaba"/><path d="M232.06808,152.66886c0,-0.47959 0.38101,-0.86836 0.851,-0.86836c0.47,0 0.851,0.38878 0.851,0.86836c0,0.47959 -0.38101,0.86836 -0.851,0.86836c-0.47,0 -0.851,-0.38878 -0.851,-0.86836z" fill="#000000"/><path d="M244.86332,149.76575c-0.9108,0.58074 -3.17605,2.18194 -1.99926,2.74601c0.41216,0.19756 2.50255,0.14225 2.87619,0.15297c0.86631,0.02484 1.8994,0.55851 2.59115,0.16769c0.43284,-0.24454 -0.45148,-0.73816 -0.7007,-1.09851c-0.58353,-0.84373 -0.75513,-1.72605 -2.10539,-1.90055l-0.228,0.01516c0,0 -0.21845,0.00001 -0.43399,-0.08278zM245.24457,148.57785c0.03319,-0.00222 0.05275,-0.00222 0.05275,-0.00222l0.59722,0.01516c1.88376,0.35554 5.41395,3.62021 3.58932,5.17834c-0.79954,0.68277 -6.9065,0.25348 -7.73611,-0.2965c-2.38603,-1.58179 0.8779,-4.05339 2.42005,-4.92399c0,0 0.5847,-0.32796 1.07676,0.02922z" fill="#000000"/><path d="M245.29195,149.80628l0.23432,-0.01534c1.35026,0.1745 1.57623,1.10864 2.15977,1.95237c0.24922,0.36035 1.12495,0.86862 0.69211,1.11316c-0.69175,0.39082 -1.76348,-0.1249 -2.62979,-0.14975c-0.37365,-0.01072 -2.52119,0.02391 -2.93335,-0.17365c-1.1768,-0.56407 1.12159,-2.22731 2.03239,-2.80805c0.21554,0.08278 0.44455,0.08126 0.44455,0.08126z" data-paper-data="{&quot;noHover&quot;:false,&quot;origItem&quot;:[&quot;Path&quot;,{&quot;applyMatrix&quot;:true,&quot;segments&quot;:[[[489.89726,256.3898],[0.37992,0.19509],[-1.6054,1.3687]],[[486.37332,262.86168],[-2.07425,-1.3294],[0.72648,0.46561]],[[491.44297,263.2222],[-0.6586,-0.02525],[1.52698,0.05855]],[[496.0102,263.61742],[-1.2193,0.92109],[0.76294,-0.57634]],[[494.77513,261.02843],[0.43928,0.84928],[-1.02855,-1.98853]],[[491.06411,256.54916],[2.38001,0.41127],[0,0]],[490.66223,256.58488]],&quot;closed&quot;:true}]}" fill="#ffbaba"/><path d="M244.01897,151.46582c0,-0.4854 0.52615,-0.87891 1.1752,-0.87891c0.64904,0 1.1752,0.3935 1.1752,0.87891c0,0.4854 -0.52615,0.87891 -1.1752,0.87891c-0.64904,0 -1.1752,-0.3935 -1.1752,-0.87891z" fill="#000000"/><path d="M231.58292,143.26115c0.70225,-0.24735 0.96559,0.41225 0.96559,0.41225l0.3252,0.81541c0.34582,0.73517 0.60212,1.50827 0.81128,2.28762c0,0 0.1819,0.68342 -0.54571,0.85428c-0.72761,0.17085 -0.90951,-0.51257 -0.90951,-0.51257c-0.18851,-0.71478 -0.42418,-1.42343 -0.74428,-2.09564l-0.34147,-0.85441c0,0 -0.26334,-0.6596 0.4389,-0.90695z" fill="#8c5900"/><path d="M239.85845,141.97353c0.7398,0.11581 0.6165,0.81067 0.6165,0.81067l-0.10091,0.51037c0,0.81784 0.00264,1.5851 -0.11865,2.39562c0,0 -0.10607,0.69737 -0.84853,0.59775c-0.74246,-0.09963 -0.6364,-0.797 -0.6364,-0.797c0.11516,-0.74346 0.10357,-1.44481 0.10357,-2.19637l0.12132,-0.742c0,0 0.1233,-0.69487 0.86309,-0.57906z" fill="#8c5900"/><path d="M250.26549,145.61426c0.53033,0.49812 0,0.99625 0,0.99625l-0.44444,0.41745c-0.34924,0.32175 -0.63999,0.70291 -0.87915,1.10375c0,0 -0.3721,0.61163 -1.02329,0.26213c-0.65118,-0.3495 -0.27908,-0.96115 -0.27908,-0.96115c0.31215,-0.50524 0.6844,-0.98483 1.12085,-1.40098l0.44444,-0.41745c0,0 0.53033,-0.49812 1.06066,0z" fill="#8c5900"/><path d="M254.6005,151.48993c0.38587,0.60406 -0.25725,0.9665 -0.25725,0.9665l-0.5254,0.29517c-0.66712,0.41729 -1.35134,0.81171 -2.05179,1.17766c0,0 -0.65562,0.34211 -1.01985,-0.27369c-0.36423,-0.6158 0.29139,-0.95791 0.29139,-0.95791c0.6655,-0.34682 1.31517,-0.72149 1.94821,-1.11833l0.58571,-0.33102c0,0 0.64312,-0.36244 1.02899,0.24163z" fill="#8c5900"/><path d="M227.31913,150.64085c0.21694,0.03876 0.61047,0.17942 0.61047,0.6897c0,0.70445 -0.75,0.70445 -0.75,0.70445l-0.52714,-0.11831c-0.44444,-0.27831 -0.88889,-0.5566 -1.33333,-0.83491c0,0 -0.62404,-0.39076 -0.20801,-0.9769c0.41603,-0.58614 1.04006,-0.19538 1.04006,-0.19538c0.38932,0.24378 0.77863,0.48757 1.16795,0.73134z" fill="#8c5900"/></g></g></svg>