<svg version="1.1" xmlns="http://www.w3.org/2000/svg" xmlns:xlink="http://www.w3.org/1999/xlink" width="38.375" height="38.16972" viewBox="0,0,38.375,38.16972"><defs><linearGradient x1="239.9657" y1="186.46858" x2="239.9657" y2="197.32088" gradientUnits="userSpaceOnUse" id="color-1"><stop offset="0" stop-color="#4d3b2e"/><stop offset="1" stop-color="#271e17"/></linearGradient><linearGradient x1="247.43172" y1="189.5335" x2="247.43172" y2="193.89508" gradientUnits="userSpaceOnUse" id="color-2"><stop offset="0" stop-color="#69513e"/><stop offset="1" stop-color="#69513e" stop-opacity="0"/></linearGradient><linearGradient x1="244.31271" y1="187.64348" x2="244.31271" y2="194.11316" gradientUnits="userSpaceOnUse" id="color-3"><stop offset="0" stop-color="#69513e"/><stop offset="1" stop-color="#69513e" stop-opacity="0"/></linearGradient><linearGradient x1="240.50966" y1="185.8976" x2="240.50966" y2="192.95007" gradientUnits="userSpaceOnUse" id="color-4"><stop offset="0" stop-color="#69513e"/><stop offset="1" stop-color="#69513e" stop-opacity="0"/></linearGradient><linearGradient x1="236.61144" y1="185.95073" x2="236.61144" y2="192.21879" gradientUnits="userSpaceOnUse" id="color-5"><stop offset="0" stop-color="#69513e"/><stop offset="1" stop-color="#69513e" stop-opacity="0"/></linearGradient><linearGradient x1="233.22133" y1="187.35146" x2="233.22133" y2="192.58661" gradientUnits="userSpaceOnUse" id="color-6"><stop offset="0" stop-color="#69513e"/><stop offset="1" stop-color="#69513e" stop-opacity="0"/></linearGradient><linearGradient x1="231.14461" y1="189.60619" x2="231.14461" y2="193.75187" gradientUnits="userSpaceOnUse" id="color-7"><stop offset="0" stop-color="#69513e"/><stop offset="1" stop-color="#69513e" stop-opacity="0"/></linearGradient><linearGradient x1="257.0625" y1="179.95435" x2="257.0625" y2="187.03368" gradientUnits="userSpaceOnUse" id="color-8"><stop offset="0" stop-color="#69513e"/><stop offset="1" stop-color="#69513e" stop-opacity="0"/></linearGradient></defs><g transform="translate(-220.8125,-160.76236)"><g data-paper-data="{&quot;isPaintingLayer&quot;:true}" fill-rule="nonzero" stroke-linejoin="miter" stroke-miterlimit="10" stroke-dasharray="" stroke-dashoffset="0" style="mix-blend-mode: normal"><path d="M248.3125,186.46858v-12.22671h3.75v12.22671z" fill="#4b4b4b" stroke="#414141" stroke-width="1.5" stroke-linecap="butt"/><path d="M227.9375,186.46858v-12.22671h3.75v12.22671z" fill="#4b4b4b" stroke="#414141" stroke-width="1.5" stroke-linecap="butt"/><path d="M238.6105,186.74984l0.23225,-0.00026c1.26966,-0.00157 2.35924,0.06913 3.53978,0.51352c2.34341,1.22783 8.20768,3.80962 6.58097,7.06436c-0.30166,0.60356 -0.94716,1.15442 -1.44935,1.60226c-0.57562,0.51333 -1.02518,0.72169 -1.77854,0.93022c-2.73229,0.77814 -5.86597,0.41243 -8.64575,0.05466c-2.60177,-0.33486 -4.91789,-0.56418 -6.32741,-2.89305c-0.69024,-3.42202 3.4756,-7.28778 7.21402,-7.55297c0.22176,0.28199 0.63404,0.28126 0.63404,0.28126z" data-paper-data="{&quot;noHover&quot;:false,&quot;origItem&quot;:[&quot;Path&quot;,{&quot;applyMatrix&quot;:true,&quot;segments&quot;:[[[236.73193,174.2664],[0.35994,0.48491],[-6.06787,0.456]],[[225.05501,187.19505],[-1.12034,-5.88437],[2.28781,4.00464]],[[235.30031,192.13772],[-4.22296,-0.57581],[4.5119,0.6152]],[[249.27257,192.05402],[-4.43481,1.33806],[1.22278,-0.35859]],[[252.15278,190.4635],[-0.93429,0.88269],[0.8151,-0.77009]],[[254.50067,187.71919],[-0.48963,1.03786],[2.64034,-5.59671]],[[243.84504,175.63021],[3.80362,2.11133],[-1.91613,-0.76414]],[[238.13176,174.75131],[2.06079,-0.00269],[0,0]],[237.75676,174.75131]],&quot;closed&quot;:true}]}" fill="url(#color-1)" stroke="none" stroke-width="0.5" stroke-linecap="butt"/><path d="M247.43172,193.89508c-0.77013,0 -0.77013,-0.72693 -0.77013,-0.72693c0,-0.72693 0,-2.18079 0,-2.90772c0,0 0,-0.72693 0.77013,-0.72693c0.77013,0 0.77013,0.72693 0.77013,0.72693c0,0.72693 0,1.45386 0,2.18079v0.72693c0,0 0,0.72693 -0.77013,0.72693z" fill="url(#color-2)" stroke="none" stroke-width="0.5" stroke-linecap="butt"/><path d="M244.2742,194.11316c-0.77013,0 -0.77013,-0.60464 -0.77013,-0.60464v-0.42325c0,-1.61493 0.07701,-3.22134 0.07701,-4.83714c0,0 0,-0.60464 0.77013,-0.60464c0.77013,0 0.77013,0.60464 0.77013,0.60464c0,1.61579 -0.07701,3.22234 -0.07701,4.83714v0.42325c0,0 0,0.60464 -0.77013,0.60464z" fill="url(#color-3)" stroke="none" stroke-width="0.5" stroke-linecap="butt"/><path d="M240.5776,192.95007c-0.77013,0 -0.77013,-0.52234 -0.77013,-0.52234v-0.36563c0,-1.85464 0.0992,-3.74813 -0.15086,-5.59397c0,0 -0.06972,-0.52019 0.69724,-0.56748c0.76697,-0.04729 0.83669,0.47291 0.83669,0.47291c0.2493,1.87856 0.15719,3.80152 0.15719,5.68855v0.36563c0,0 0,0.52234 -0.77013,0.52234z" fill="url(#color-4)" stroke="none" stroke-width="0.5" stroke-linecap="butt"/><path d="M236.64995,192.21879c-0.77013,0 -0.77013,-0.52234 -0.77013,-0.52234v-0.31341c0.00315,-1.63304 -0.07701,-3.27307 -0.07701,-4.90998c0,0 0,-0.52234 0.77013,-0.52234c0.77013,0 0.77013,0.52234 0.77013,0.52234c0,1.63733 0.07417,3.27635 0.07701,4.90998v0.31341c0,0 0,0.52234 -0.77013,0.52234z" fill="url(#color-5)" stroke="none" stroke-width="0.5" stroke-linecap="butt"/><path d="M233.18438,192.58661c-0.77013,0 -0.77013,-0.53961 -0.77013,-0.53961v-0.26981c0.00219,-1.29698 0.17164,-2.53796 0.00316,-3.83633c0,0 -0.06972,-0.5374 0.69724,-0.58625c0.76697,-0.04886 0.83669,0.48854 0.83669,0.48854c0.17279,1.33187 0.00068,2.60515 0.00316,3.93405v0.26981c0,0 0,0.53961 -0.77013,0.53961z" fill="url(#color-6)" stroke="none" stroke-width="0.5" stroke-linecap="butt"/><path d="M231.00952,193.74261c-0.76418,-0.10706 -0.66865,-0.96353 -0.66865,-0.96353l0.07107,-0.58346c0,-0.57544 0,-1.15086 0,-1.72629c0,0 0,-0.86315 0.77013,-0.86315c0.77013,0 0.77013,0.86315 0.77013,0.86315c0,0.57544 0,1.15086 0,1.72629l-0.08296,0.79758c0,0 -0.09552,0.85649 -0.8597,0.74942z" fill="url(#color-7)" stroke="none" stroke-width="0.5" stroke-linecap="butt"/><path d="M240.45524,185.39005c0.86561,0.08139 1.69282,0.2522 2.57504,0.58612c3.23297,1.69646 9.47588,4.63286 7.29732,8.96219c-0.38983,0.77469 -1.13285,1.46267 -1.78799,2.03871c-0.42862,0.37687 -0.83247,0.64312 -1.28167,0.8543c-0.37364,-0.08568 -0.82134,-0.05251 -1.30409,0.03685c-3.19047,-1.48491 -5.60836,0.53469 -10.90176,-0.64162l-0.35546,0.23698c-0.71662,-0.0649 -1.43083,-0.10142 -2.1386,-0.09586c-1.30005,-0.58858 -2.41878,-1.48012 -3.21135,-2.85149c-1.12721,-5.16977 5.55631,-10.69258 10.87876,-9.23407c0,0 0.1085,0.03072 0.22978,0.10788zM237.98654,186.49607c-3.73842,0.26518 -7.88441,4.09656 -7.19417,7.51858c1.40952,2.32887 3.71037,2.53952 6.31215,2.87439c2.77979,0.35777 5.87603,0.72946 8.60833,-0.04868c0.75336,-0.20854 1.19888,-0.41164 1.77449,-0.92497c0.50218,-0.44784 1.14488,-0.99238 1.44654,-1.59593c1.62672,-3.25473 -4.22154,-5.80244 -6.56495,-7.03028c-1.18053,-0.44438 -2.2503,-0.51268 -3.51996,-0.51113h-0.23104c0,0 -0.40963,0 -0.63139,-0.28199z" fill="#937257" stroke="none" stroke-width="0.5" stroke-linecap="butt"/><path d="M257.0625,187.03368c-1.25,0 -1.25,-1.17989 -1.25,-1.17989c0,-1.17989 0,-3.53966 0,-4.71955c0,0 0,-1.17989 1.25,-1.17989c1.25,0 1.25,1.17989 1.25,1.17989c0,1.17989 0,2.35978 0,3.53966v1.17989c0,0 0,1.17989 -1.25,1.17989z" fill="url(#color-8)" stroke="none" stroke-width="0.5" stroke-linecap="butt"/><path d="M234.47133,197.15655c-0.75,0 -0.75,-0.75 -0.75,-0.75v-0.5c0,-4.14088 -0.5,-8.22731 -0.5,-12.375c0,0 0,-0.75 0.75,-0.75c0.75,0 0.75,0.75 0.75,0.75c0,4.14716 0.5,8.23343 0.5,12.375v0.5c0,0 0,0.75 -0.75,0.75z" fill="#2b2b2b" stroke="none" stroke-width="0.5" stroke-linecap="butt"/><path d="M242.22599,182.3573c0,0 0.23717,-0.71151 0.94868,-0.47434c0.71151,0.23717 0.47434,0.94868 0.47434,0.94868c-0.7854,2.35621 -2.08804,4.38914 -2.875,6.75l0.03849,-0.11217c0,0 0,0.44044 -0.33752,0.64628c0.03036,1.88736 0.17561,3.73185 0.45231,5.35542l0.125,0.75c0,0 0.1233,0.73979 -0.61649,0.86309c-0.73979,0.1233 -0.86309,-0.61649 -0.86309,-0.61649l-0.125,-0.75c-0.69484,-4.25045 -0.56902,-9.75114 0.125,-13.9966c0,0 0.1233,-0.7398 0.86309,-0.6165c0.73979,0.1233 0.61649,0.8631 0.61649,0.8631c-0.22058,1.29425 -0.38348,2.73107 -0.48026,4.21941c0.59232,-1.25331 1.20746,-2.4904 1.65395,-3.82989z" fill="#2b2b2b" stroke="none" stroke-width="0.5" stroke-linecap="butt"/><path d="M231.4518,183.63377c0.53033,0.53033 0,1.06066 0,1.06066l-0.56181,0.55532c-2.33638,1.84473 -2.30981,4.27784 -5.96852,4.28935c0,0 -0.75,0 -0.75,-0.75c0,-0.75 0.75,-0.75 0.75,-0.75c3.05226,0.01134 2.99929,-2.31752 5.03148,-3.96065l0.43819,-0.44468c0,0 0.53033,-0.53033 1.06066,0z" fill="#2b2b2b" stroke="none" stroke-width="0.5" stroke-linecap="butt"/><path d="M254.80769,188.74569c-0.33541,0.67082 -1.00623,0.33541 -1.00623,0.33541l-0.8188,-0.41407c-1.29914,-1.04022 -2.14458,-2.52382 -3.43931,-3.5461c0,0 -0.58565,-0.46852 -0.11713,-1.05417c0.46852,-0.58565 1.05417,-0.11713 1.05417,-0.11713c1.24859,1.00955 2.05708,2.45234 3.31069,3.4539l0.6812,0.33593c0,0 0.67082,0.33541 0.33541,1.00623z" fill="#2b2b2b" stroke="none" stroke-width="0.5" stroke-linecap="butt"/><path d="M221.5625,196.57949v-24.89563h3.75v24.89563z" fill="#707070" stroke="#5a5a5a" stroke-width="1.5" stroke-linecap="butt"/><path d="M254.6875,196.57949v-24.89563h3.75v24.89563z" fill="#707070" stroke="#5a5a5a" stroke-width="1.5" stroke-linecap="butt"/><path d="M237.9375,179.98079l-0.10407,17.61844" fill="none" stroke="#e6bc00" stroke-width="1.5" stroke-linecap="round"/><path d="M243.1875,179.98079l-0.70695,17.34317" fill="none" stroke="#e6bc00" stroke-width="1.5" stroke-linecap="round"/><path d="M235.0625,197.22891v-18.2085h9.875v18.47956" fill="none" stroke="#ffd200" stroke-width="1.5" stroke-linecap="butt"/><path d="M236.0625,179.0204l8.375,8.9559l-8.5,7.10786l3.92521,2.47998" fill="none" stroke="#ffd200" stroke-width="1.5" stroke-linecap="round"/><path d="M240.19967,197.53789l3.86283,-2.59588l-8.25,-7.53432l8.25,-7.25002" fill="none" stroke="#ffd200" stroke-width="1.5" stroke-linecap="round"/><path d="M221.5625,177.58479v-15.97461h36.875v15.97461z" fill="#ff0000" stroke="#ff0000" stroke-width="1.5" stroke-linecap="butt"/><path d="M221.5625,183.49402v-21.98166h36.875v21.98166z" fill="#707070" stroke="#5a5a5a" stroke-width="1.5" stroke-linecap="butt"/><path d="M221.5625,179.30469v-17.69452h36.875v17.69452z" fill="#707070" stroke="#5a5a5a" stroke-width="1.5" stroke-linecap="butt"/><path d="M233.13118,197.37212c-0.14745,-0.13478 -0.26438,-0.35017 -0.16482,-0.67909c0.20604,-0.68069 0.92718,-0.48621 0.92718,-0.48621c1.97462,0.53292 4.31114,1.17576 6.54399,1.3101c-1.47159,0.13502 -3.17862,0.20008 -5.38543,-0.29032l-0.35547,0.23698c-0.52363,-0.04742 -1.04596,-0.07969 -1.56544,-0.09147z" fill="#937257" stroke="none" stroke-width="0.5" stroke-linecap="butt"/><path d="M247.54011,196.47983c0.1819,0.6868 -0.54571,0.8585 -0.54571,0.8585l-0.21338,-0.01601c-0.26905,0.20254 -0.54766,0.38277 -0.83467,0.54241c-0.85116,-0.39483 -1.64749,-0.54042 -2.45834,-0.56414c0.85421,-0.20416 1.65109,-0.5501 2.35597,-1.08387l0.78662,-0.25199c0,0 0.72761,-0.1717 0.90951,0.5151z" fill="#937257" stroke="none" stroke-width="0.5" stroke-linecap="butt"/><path d="M233.48146,197.5682c0,0 -0.72114,-0.19448 -0.5151,-0.87517c0.20604,-0.68069 0.92718,-0.48621 0.92718,-0.48621c1.97462,0.53292 4.31114,1.17576 6.54399,1.3101c-1.47159,0.13502 -3.17862,0.20008 -5.38543,-0.29032l-0.46941,0.31294c-0.26457,-0.02035 -0.56088,0.01221 -0.87953,0.08829c-0.07422,-0.01992 -0.14813,-0.0398 -0.2217,-0.05963z" fill="#937257" stroke="none" stroke-width="0.5" stroke-linecap="butt"/><path d="M247.54011,196.47983c0.1819,0.6868 -0.54571,0.8585 -0.54571,0.8585l-0.21338,-0.01601c-0.26905,0.20254 -0.54766,0.38277 -0.83467,0.54241c-0.85116,-0.39483 -1.64749,-0.54042 -2.45834,-0.56414c0.85421,-0.20416 1.65109,-0.5501 2.35597,-1.08387l0.78662,-0.25199c0,0 0.72761,-0.1717 0.90951,0.5151z" fill="#937257" stroke="none" stroke-width="0.5" stroke-linecap="butt"/><path d="M247.54011,196.47983c0.1819,0.6868 -0.54571,0.8585 -0.54571,0.8585l-0.21338,-0.01601c-3.64089,2.74082 -9.03204,1.39592 -13.29956,0.24588c0,0 -0.72114,-0.19448 -0.5151,-0.87517c0.20604,-0.68069 0.92718,-0.48621 0.92718,-0.48621c3.73962,1.00926 8.77723,2.41279 11.95044,0.0099l0.78662,-0.25199c0,0 0.72761,-0.1717 0.90951,0.5151z" fill="#937257" stroke="none" stroke-width="0.5" stroke-linecap="butt"/></g></g></svg>