<svg version="1.1" xmlns="http://www.w3.org/2000/svg" xmlns:xlink="http://www.w3.org/1999/xlink" width="35.61665" height="45.29743" viewBox="0,0,35.61665,45.29743"><g transform="translate(-222.16679,-147.72541)"><g data-paper-data="{&quot;isPaintingLayer&quot;:true}" fill-rule="nonzero" stroke="none" stroke-width="0.5" stroke-linecap="butt" stroke-linejoin="miter" stroke-miterlimit="10" stroke-dasharray="" stroke-dashoffset="0" style="mix-blend-mode: normal"><path d="M238.64967,170.14802l0.12177,-0.0107c1.90473,0.34558 3.90176,0.98324 5.63649,1.92041c4.45298,1.23054 12.00943,4.26494 11.98857,10.37978c0,3.76583 -1.05593,7.44846 -4.65566,8.78541c-1.68076,0.62424 -3.80074,0.10267 -5.52758,0.10267c-5.93316,0 -11.86123,-0.7838 -17.69131,-1.80905c-1.21864,-0.49746 -3.21521,-0.79848 -4.03242,-2.05551c-2.26397,-3.48244 0.0693,-8.54391 1.68385,-11.63307c0.81754,-1.10787 1.31433,-2.54595 2.28284,-3.51483c2.18906,-2.18991 6.60157,-2.70619 9.65255,-2.40402c0.21245,0.23935 0.5409,0.23893 0.5409,0.23893z" data-paper-data="{&quot;noHover&quot;:false,&quot;origItem&quot;:[&quot;Path&quot;,{&quot;applyMatrix&quot;:true,&quot;segments&quot;:[[[475.4407,341.74103],[0.44427,0.4598],[-6.38038,-0.58049]],[[455.31947,346.31655],[4.57787,-4.20696],[-2.02538,1.86128]],[[450.55749,353.044],[1.70968,-2.12828],[-3.37643,5.93449]],[[447.03376,375.32376],[-4.73452,-6.68997],[1.70897,2.41482]],[[455.45536,379.252],[-2.54847,-0.95567],[12.19216,1.96955]],[[492.3169,382.70083],[-12.40772,0],[3.61126,0]],[[503.85303,382.52435],[-3.51489,1.1992],[7.52794,-2.56836]],[[513.5669,365.70083],[0,7.23438],[0.04362,-11.74696]],[[488.54648,345.85765],[9.31229,2.36394],[-3.62774,-1.80034]],[[476.8203,342.18042],[3.98326,0.66388],[0,0]],[476.5669,342.20083]],&quot;closed&quot;:true}]}" fill="#c4c493"/><path d="M226.20196,184.58549c0.17397,0.75751 -0.52189,0.94689 -0.52189,0.94689l-0.53423,0.14283c-0.51248,0.0912 -1.03319,0.13898 -1.55247,0.14075c0,0 -0.71728,0 -0.71728,-0.78082c0,-0.78082 0.71728,-0.78082 0.71728,-0.78082c0.4404,0.00178 0.88249,-0.03897 1.31663,-0.1195l0.42214,-0.11746c0,0 0.69585,-0.18937 0.86981,0.56812z" fill="#9c9c75"/><path d="M224.43019,179.56941c0,-0.43124 0.32113,-0.78082 0.71728,-0.78082c0.39615,0 0.71728,0.34958 0.71728,0.78082c0,0.43124 -0.32113,0.78082 -0.71728,0.78082c-0.39615,0 -0.71728,-0.34958 -0.71728,-0.78082z" fill="#9c9c75"/><path d="M229.1906,174.29306c-0.17397,0.75751 -0.86981,0.56812 -0.86981,0.56812l-0.30422,-0.10683c-0.2391,0 -0.47818,0 -0.71728,0c0,0 -0.71728,0 -0.71728,-0.78082c0,-0.78082 0.71728,-0.78082 0.71728,-0.78082c0.2391,0 0.47818,0 0.71728,0l0.65215,0.15345c0,0 0.69586,0.18938 0.52189,0.94689z" fill="#9c9c75"/><path d="M227.53838,186.72692c0.71728,0 0.71728,0.78082 0.71728,0.78082c0,0.30364 0,1.25799 0,1.56164c0,0 0,0.78082 -0.71728,0.78082c-0.71728,0 -0.71728,-0.78082 -0.71728,-0.78082c0,-0.30364 0,-0.60731 0,-0.91096v-0.65068c0,0 0,-0.78082 0.71728,-0.78082z" fill="#9c9c75"/><path d="M243.14445,191.90906c-0.69586,-0.18937 -0.52189,-0.94689 -0.52189,-0.94689l0.09812,-0.33116c0,-0.26027 0,-0.52055 0,-0.78082c0,0 0,-0.78082 0.71728,-0.78082c0.71728,0 0.71728,0.78082 0.71728,0.78082c0,0.26027 0,0.52055 0,0.78082l-0.14096,0.70992c0,0 -0.17397,0.75751 -0.86981,0.56812z" fill="#9c9c75"/><path d="M251.64739,188.54983c0.59681,-0.43312 0.99467,0.21657 0.99467,0.21657l0.09036,0.21381c0.19925,0.17351 0.39848,0.34704 0.59773,0.52055c0,0 0.5601,0.48779 0.11202,1.0975c-0.44807,0.60971 -1.00817,0.12194 -1.00817,0.12194c-0.19925,-0.17351 -0.39848,-0.34704 -0.59773,-0.52055l-0.38782,-0.56701c0,0 -0.39788,-0.64969 0.19893,-1.0828z" fill="#9c9c75"/><path d="M254.19708,183.86392c0,-0.78082 0.71728,-0.78082 0.71728,-0.78082l-0.15878,0.13114c0.48583,-0.35142 0.99036,-0.67476 1.51164,-0.95966c0,0 0.64155,-0.34919 0.96233,0.34919c0.32078,0.69839 -0.32078,1.04758 -0.32078,1.04758c-0.469,0.25411 -0.92205,0.54509 -1.35745,0.86225l-0.63697,0.13115c0,0 -0.71728,0 -0.71728,-0.78082z" fill="#9c9c75"/><path d="M252.25534,177.64895c-0.50719,-0.55212 0,-1.10425 0,-1.10425l0.02901,0.29185c0,-0.26027 0,-0.52055 0,-0.78082c0,0 0,-0.78082 0.71728,-0.78082c0.71728,0 0.71728,0.78082 0.71728,0.78082c0,0.26027 0,0.52055 0,0.78082l-0.44918,0.8124c0,0 -0.50719,0.55212 -1.01438,0z" fill="#9c9c75"/><path d="M238.1176,169.96025c-3.05099,-0.30217 -7.43257,0.19185 -9.62162,2.38177c-0.96851,0.96888 -1.45956,2.39408 -2.2771,3.50194c-1.61455,3.08917 -3.94895,8.1152 -1.68499,11.59764c0.8172,1.25703 2.80843,1.54737 4.02707,2.04483c5.83008,1.02525 11.69341,1.79527 17.62657,1.79527c1.72685,0 3.83562,0.53237 5.51639,-0.09187c3.59973,-1.33695 4.64502,-4.99159 4.64502,-8.75742c0.02086,-6.11483 -7.51137,-9.09875 -11.96434,-10.32929c-1.73472,-0.93716 -3.70253,-1.56858 -5.60726,-1.91416l-0.12117,0.01062c0,0 -0.32608,0 -0.53853,-0.23935zM239.5535,168.75318c1.81717,0.37404 3.68991,0.98615 5.32878,1.88531c5.18183,1.38619 12.88129,4.91618 12.90117,11.79393c0,4.40789 -1.42348,8.74226 -5.63593,10.2425c-1.87608,0.66815 -4.03717,0.16842 -5.96002,0.16842c-6.04743,0 -12.06046,-0.74497 -17.99807,-1.84855c-1.60821,-0.6565 -3.7188,-1.0199 -4.81932,-2.64008c-2.71725,-4.00036 -0.24672,-9.76658 1.66229,-13.38857c0.88828,-1.2134 1.43247,-2.7331 2.50474,-3.78569c2.75366,-2.70313 8.08857,-3.1998 11.57906,-2.66478c0,0 0.25477,0.03962 0.4373,0.23753z" fill="#878765"/><path d="M247.57475,163.9666c-0.87736,-0.12432 -1.73856,-0.03107 -2.61568,-0.11131c-0.36118,3.22785 -1.98321,5.64832 -6.2942,4.23958c-0.91725,-0.29973 -1.64767,-1.01091 -2.34833,-1.66458c-0.82887,-1.4026 -1.20375,-2.46256 -1.13691,-3.67211c-0.07024,0.00299 -0.1164,-0.00337 -0.1164,-0.00337c-0.83553,-0.11504 -2.13091,-0.29341 -3.07625,-0.42358c-0.40069,2.626 -0.06783,5.34528 1.34311,7.75364c1.37302,2.40816 6.09571,4.4683 8.74647,3.65289c2.01336,-0.61933 2.99035,-2.33936 4.06646,-4.05189c1.05219,-1.67363 1.61484,-3.68578 1.79781,-5.73858zM247.75006,162.45788l0.25855,-0.02696c0.00102,-0.69686 -0.03852,-1.38996 -0.11433,-2.06771c-0.11839,-1.05833 -2.43467,-2.71849 -3.20505,-1.838c0.21386,1.21403 0.35629,2.53813 0.35217,3.81335c0.90617,0.10171 1.7972,-0.00309 2.70867,0.11933zM234.64554,161.16442l0.593,0.08165c0,0 0.08997,0.01239 0.20199,0.06227c0.07432,-0.26079 0.164,-0.53333 0.26897,-0.82086c0.29584,-0.81036 0.72642,-2.46634 1.71652,-2.47377c0.2542,-0.00191 -0.51706,-0.07105 -0.73947,-0.20326c-0.89425,-0.53155 -1.60535,-0.88606 -2.59431,-1.20347l-0.02566,-0.00241c-0.77105,1.30175 -1.38434,2.74017 -1.7724,4.2361c0.78379,0.10792 1.56756,0.21585 2.35135,0.32377zM233.93274,155.07162c0.05796,-0.00105 0.0948,0.00403 0.0948,0.00403l0.47159,0.07536c1.21783,0.39088 4.5166,1.34471 4.32203,3.22409c-0.01138,0.10988 -1.41935,1.60329 -1.5863,1.97776c-0.89532,2.00824 -0.88761,3.21041 0.17269,5.09778c0.72145,0.65044 1.30966,1.13563 2.25709,1.25893c0.72712,0.09462 1.84271,0.49473 2.56328,0.2918c2.82868,-0.7966 1.09717,-7.26152 1.12821,-9.04608c1.46259,-1.48633 5.07917,-1.06091 5.7913,1.336c1.03206,3.47362 0.01625,8.33996 -1.80984,11.24457c-1.25704,1.99845 -2.53302,4.01901 -4.90066,4.67696c-3.33084,0.92561 -8.57798,-1.34798 -10.32768,-4.33849c-2.82951,-4.94442 -1.85064,-10.97012 0.99615,-15.50198c0,0 0.32402,-0.51539 0.82733,-0.30073z" fill="#757575"/><path d="M244.99517,162.53287c0.00804,-1.30899 -0.13403,-2.74795 -0.34424,-3.99334c0.77341,-0.90661 3.16543,0.82422 3.28062,1.91012c0.07377,0.69542 0.09534,1.44892 0.09218,2.16422l-0.26207,0.03159c-0.91149,-0.12233 -1.86025,-0.01149 -2.76648,-0.11259z" data-paper-data="{&quot;noHover&quot;:false,&quot;origItem&quot;:[&quot;Path&quot;,{&quot;applyMatrix&quot;:true,&quot;segments&quot;:[[[495.58456,327.32855],[-1.90612,-0.23517],[0,0]],[[496.12524,327.27675],[0,0],[0.00213,-1.3387]],[[495.88614,323.30455],[0.15855,1.302],[-0.24758,-2.03311]],[[489.18359,319.77363],[1.61105,-1.69147],[0.44722,2.33222]],[[489.92007,327.09932],[0.0086,-2.44978],[1.89501,0.19539]]],&quot;closed&quot;:true}]}" fill="#a3a3a3"/><path d="M232.23586,161.02881c0.39281,-1.53693 1.0334,-3.09306 1.80877,-4.43208l0.0261,0.00221c0.9884,0.32222 1.7559,0.70442 2.64889,1.24679c0.22209,0.13489 0.99793,0.21287 0.74361,0.21576c-0.99054,0.01124 -1.44848,1.77641 -1.74693,2.60931c-0.1059,0.29553 -0.20868,0.58061 -0.28382,0.84857c-0.11191,-0.0508 -0.2059,-0.06238 -0.2059,-0.06238l-0.60639,-0.0817c-0.78379,-0.10792 -1.60053,-0.23854 -2.38431,-0.34646z" data-paper-data="{&quot;noHover&quot;:false,&quot;origItem&quot;:[&quot;Path&quot;,{&quot;applyMatrix&quot;:true,&quot;segments&quot;:[[[468.17974,324.84374],[-1.63909,-0.20732],[0,0]],[469.41986,325.0006],[[469.84227,325.12022],[-0.23426,-0.09582],[0.15542,-0.50099]],[[470.40475,323.5433],[-0.21951,0.55236],[0.61867,-1.55676]],[[473.99442,318.79104],[-2.07053,0.01427],[0.5316,-0.00366]],[[472.448,318.40056],[0.46512,0.25398],[-1.87009,-1.02115]],[[467.02266,316.08862],[2.06816,0.60978],[0,0]],[[466.96899,316.08397],[0,0],[-1.61245,2.50074]],[[463.26248,324.22177],[0.81151,-2.87375],[1.63909,0.20732]]],&quot;closed&quot;:true}]}" fill="#a3a3a3"/><path d="M231.94719,159.71498c0.1123,0.10305 0.18403,0.2122 0.22694,0.32089c1.24437,0.09639 3.41024,0.06659 4.18714,0.83249c1.15862,1.14222 0.36934,3.12401 1.22286,4.42107c0.82759,1.25765 2.8851,0.96883 4.12468,1.19112c1.93238,-0.82631 1.64723,-3.31672 2.94499,-4.46366c0.2281,-0.20158 1.48481,-0.24182 1.86891,-0.2629c0.47469,-0.02605 2.34154,-0.14766 2.65067,0.20173c1.59352,1.80106 -0.01279,7.30931 -0.78084,9.14417c-0.89577,1.56319 -2.04179,3.88917 -3.45871,4.84133c-3.4143,2.29439 -8.52613,-0.14714 -11.37957,-2.38969c-0.964,-1.15614 -2.4234,-2.12562 -2.94988,-3.68785c-0.86406,-2.564 -0.56772,-6.24094 -0.25493,-8.93288l0.58811,-1.06359c0,0 0.4494,-0.66631 1.00963,-0.15225zM231.7101,161.68245c-0.25884,2.38403 -0.44691,5.36307 0.23728,7.55453c0.38339,1.22799 1.79335,2.10362 2.53754,3.0121c2.4585,1.88976 6.82436,4.05485 9.77433,2.22146c1.14858,-0.71384 2.16983,-2.94187 2.89276,-4.19139c0.48497,-1.17256 1.68956,-6.90186 0.7932,-6.78687c-0.35835,0.04596 -2.23179,-0.35776 -2.42238,-0.15478c-0.17547,0.18687 -0.50696,1.87486 -0.74019,2.25102c-0.73481,1.18508 -1.79837,2.08857 -2.93587,2.564c-1.79274,-0.20044 -4.21509,-0.00933 -5.40635,-1.81962c-0.47594,-0.72326 -0.50796,-3.78756 -0.92196,-4.08315c-0.78942,-0.56362 -2.76957,-0.4545 -3.80837,-0.5673z" fill="#c20000"/><path d="M235.49102,162.2044c0.41399,0.29559 0.51302,3.436 0.98895,4.15925c1.19126,1.81029 3.62149,1.57968 5.41423,1.78012c1.1375,-0.47544 2.11011,-1.34587 2.8449,-2.53096c0.23323,-0.37615 0.64727,-2.12186 0.82273,-2.30872c0.1906,-0.20297 2.06801,0.2085 2.42637,0.16254c0.89636,-0.11498 -0.30428,5.65002 -0.78925,6.82258c-0.72293,1.24953 -1.75795,3.50722 -2.90654,4.22106c-2.94997,1.83338 -7.38973,-0.34107 -9.84823,-2.23083c-0.74418,-0.90849 -2.16122,-1.81044 -2.54461,-3.03843c-0.68419,-2.19146 -0.48586,-5.20853 -0.22702,-7.59256c1.03881,0.1128 3.02905,-0.00769 3.81846,0.55592z" data-paper-data="{&quot;noHover&quot;:false,&quot;origItem&quot;:[&quot;Path&quot;,{&quot;applyMatrix&quot;:true,&quot;segments&quot;:[[[462.04101,325.8389],[2.17239,0.21669],[-0.5413,4.57985]],[[462.53723,340.35163],[-1.43082,-4.20995],[0.80176,2.35903]],[[467.84385,346.13806],[-1.55627,-1.74526],[5.14134,3.63034]],[[488.2844,350.40562],[-6.16912,3.52205],[2.40198,-1.37133]],[[494.33389,342.3537],[-1.51182,2.40041],[1.01418,-2.25257]],[[495.99266,329.31572],[1.87452,-0.22089],[-0.74939,0.08831]],[[490.92686,329.01838],[0.39857,-0.38993],[-0.36693,0.35898]],[[489.37895,333.34271],[0.48774,-0.72261],[-1.53665,2.27662]],[[483.23931,338.26831],[2.3788,-0.91334],[-3.74906,-0.38507]],[[471.9333,334.7727],[2.49121,3.47768],[-0.9953,-1.38942]],[[470.00526,326.92872],[0.86576,0.56783],[-1.65086,-1.08275]]],&quot;closed&quot;:true}]}" fill="#df0000"/><path d="M228.99683,172.62013c-0.43037,-0.62466 0.14346,-1.09314 0.14346,-1.09314l0.68172,-0.5065c0.01845,-0.0067 0.03688,-0.01339 0.05533,-0.02008c-0.0223,-0.03572 -0.04453,-0.07152 -0.06669,-0.10741c0,0 -0.39788,-0.64969 0.19893,-1.0828c0.59681,-0.43312 0.99467,0.21657 0.99467,0.21657c0.90902,1.49861 1.96046,2.8424 3.14617,3.95191c0.02707,-0.00337 0.05459,-0.00511 0.08248,-0.00511c0.04484,0 0.08869,0.00448 0.13126,0.01304l0.70395,0.12772l-0.04823,0.31503c1.991,0.27454 4.1279,1.55108 6.0724,2.03769c1.17335,0.29363 1.74194,-0.43044 2.62874,-0.40695c0.18066,0.00478 0.33708,0.02271 0.47388,0.0526c0.56434,-0.63829 1.10966,-1.38098 1.60496,-1.91043c0.59864,-0.63993 1.37877,-1.01158 2.16274,-1.3564l0.29067,-0.39553c0.13132,-0.18187 0.33525,-0.29868 0.56424,-0.29868c0.39615,0 0.71728,0.34958 0.71728,0.78082c0,0.13115 -0.02969,0.25473 -0.08217,0.36325l-0.35219,0.76677c-0.3332,0.69485 -0.68469,1.10615 -1.10393,1.41945c0.15483,0.14137 0.29002,0.37933 0.20187,0.76319c-0.17397,0.75751 -0.86981,0.56812 -0.86981,0.56812l-0.1863,-0.11745c-0.2391,0.04337 -0.47818,0.08676 -0.71728,0.13013c0,0 -0.21928,0.03978 -0.43405,-0.05784c-0.15806,0.28704 -0.22297,0.64319 -0.39115,0.9697l0.2581,0.23843c0,0 0.50719,0.55212 0,1.10425c-0.50719,0.55212 -1.01438,0 -1.01438,0l-0.4449,-0.52548c-0.36469,0.07388 -0.78445,0.10547 -1.19127,0.12877c-0.00675,0.00044 -0.01352,0.00082 -0.02028,0.00116c-0.46795,0.02655 -0.91725,0.04288 -1.244,0.10104c-1.67243,0.00573 -3.23332,-0.33256 -4.67705,-0.95077c-0.0799,0.17394 -0.15978,0.34787 -0.23966,0.5218l-0.60232,0.56076c0,0 -0.59681,0.43313 -0.99467,-0.21656c-0.39787,-0.64969 0.19893,-1.0828 0.19893,-1.0828l0.11496,0.04022c0.06849,-0.14909 0.13696,-0.29819 0.20543,-0.44728c-0.29246,-0.13243 -0.58004,-0.31711 -0.86279,-0.57468c-1.62601,-1.10333 -3.0695,-2.58086 -4.31998,-4.31253c-0.16341,0.05929 -0.3268,0.11859 -0.49021,0.17788l-0.27464,0.27432c0,0 -0.57382,0.46849 -1.00418,-0.15616z" fill="#878765"/><path d="M230.76611,172.41191c0,-0.19778 0.06756,-0.3784 0.17891,-0.51598c-0.19628,-0.00579 -0.42631,-0.09859 -0.58138,-0.4362c-0.32078,-0.69839 0.32078,-1.04758 0.32078,-1.04758c0.43062,-0.23332 0.84959,-0.49437 1.25191,-0.78149c-0.07207,-0.71145 -0.1006,-1.3483 -0.01747,-2.03381h-0.19639v-0.91096c0,-0.43124 0.32113,-0.78082 0.71728,-0.78082c0.32266,0 0.59556,0.23192 0.68569,0.55098l0.23386,0.76374l-0.01495,0.00543l0.02573,0.03307c0.02167,0.10758 0.04686,0.2141 0.07347,0.31897c0.10336,-0.29299 0.36429,-0.50095 0.66982,-0.50095c0.39615,0 0.71728,0.34958 0.71728,0.78082c0,0.43124 -0.32113,0.78082 -0.71728,0.78082c-0.08427,0 -0.16514,-0.01582 -0.24026,-0.04488c0.00077,0.01485 0.00117,0.02981 0.00117,0.04488c0,0.0421 -0.00306,0.08343 -0.00895,0.12372l-0.11631,0.88629c-0.00171,0.01473 -0.00381,0.02935 -0.00627,0.04382l-0.11052,0.72192c0.02018,0.03252 0.03817,0.06677 0.05373,0.10252l0.03919,0.0853c0.08459,-0.16563 0.22292,-0.29423 0.38934,-0.35794c-0.00074,-0.01456 -0.00112,-0.02923 -0.00112,-0.044c0,-0.43124 0.32113,-0.78082 0.71728,-0.78082c0.39615,0 0.71728,0.34958 0.71728,0.78082c0,0.10059 -0.01747,0.19673 -0.04929,0.28504c0.12834,0.10438 0.22349,0.25442 0.26515,0.428l0.12761,0.4862c0.37982,-0.37293 0.89899,-0.61607 1.23564,-0.4937c0.22621,0.08222 0.53968,1.03877 0.81181,2.01304v-0.11585v0c0,-0.43124 0.32113,-0.78082 0.71728,-0.78082c0.24949,0 0.46922,0.13866 0.59773,0.34904c0.1285,-0.2104 0.34824,-0.34904 0.59773,-0.34904c0.39615,0 0.71728,0.34958 0.71728,0.78082c0,0.43124 -0.32113,0.78082 -0.71728,0.78082c-0.14141,0 -0.27328,-0.04456 -0.38438,-0.12147l0.01852,0.14117l-0.06428,0.00999c0.12261,0.30813 0.21905,0.6246 0.29954,0.99841c0.20287,0.08596 0.41602,0.24958 0.56291,0.44867c0.08039,-0.17728 0.22077,-0.31658 0.39227,-0.38642c-0.13963,-0.14246 -0.22688,-0.34505 -0.22688,-0.56981c0,-0.40586 0.28444,-0.7394 0.64816,-0.77725l-0.03845,-0.25111c-0.00787,-0.04633 -0.01199,-0.09408 -0.01199,-0.14288c0,-0.2774 0.13288,-0.52099 0.33313,-0.65951l-0.08507,-0.64828c-0.0059,-0.04029 -0.00895,-0.08162 -0.00895,-0.12372c0,-0.43124 0.32113,-0.78082 0.71728,-0.78082c0.17159,0 0.3291,0.06559 0.45254,0.17498l0.59327,0.51665l-0.08149,0.1109c0.29293,0.21639 0.50375,0.4571 0.73456,0.80431c0.1235,-0.10961 0.28117,-0.17535 0.45294,-0.17535c0.36532,0 0.66685,0.29729 0.71156,0.68176l0.06229,0.47465l0.13217,-0.05996c0.02354,-0.05389 0.05261,-0.10438 0.08638,-0.1506l-0.09135,-0.232c-0.04126,-0.09855 -0.06424,-0.20808 -0.06424,-0.32345c0,-0.43124 0.32113,-0.78082 0.71728,-0.78082c0.17159,0 0.3291,0.06559 0.45254,0.17498l0.13493,0.1175c-0.08572,-0.23781 -0.16117,-0.47197 -0.20768,-0.62482l0.01078,-0.06388l-0.02218,0.00403l-0.11733,-0.7663c-0.00787,-0.04633 -0.01199,-0.09408 -0.01199,-0.14288c0,-0.43124 0.32113,-0.78082 0.71728,-0.78082c0.22898,0 0.43291,0.11681 0.56424,0.29868l0.47404,0.64505l-0.01678,0.0146c0.38707,0.36693 0.60338,0.85987 0.44465,1.75873c-0.01713,0.09699 -0.0943,0.131 -0.19476,0.13321c0.01856,0.06016 0.03613,0.11714 0.05233,0.16967c0.10163,0.05847 0.1913,0.12096 0.24376,0.18219l0.54905,0.47815c0.16707,0.14296 0.27437,0.36495 0.27437,0.61422c0,0.16998 -0.04989,0.32728 -0.13461,0.45548c0.08472,0.1282 0.13461,0.2855 0.13461,0.45548c0,0.43124 -0.32113,0.78082 -0.71728,0.78082c-0.15072,0 -0.29058,-0.05061 -0.40603,-0.13706l-0.67586,-0.49049c-0.15701,-0.05365 -0.3008,-0.27233 -0.43414,-0.44216c-0.01901,0.03952 -0.04104,0.07704 -0.06576,0.11221c0.01169,0.0831 0.02111,0.16674 0.02855,0.25078l0.09109,-0.02833l0.23454,0.89361c0.0209,0.07325 0.03214,0.15113 0.03214,0.23185c0,0.43124 -0.32113,0.78082 -0.71728,0.78082c-0.18595,0 -0.35539,-0.07703 -0.48282,-0.20339c-0.0306,0.23421 -0.18626,0.48616 -0.58006,0.67549c0.13916,0.14242 0.22606,0.34465 0.22606,0.56899c0,0.43124 -0.32113,0.78082 -0.71728,0.78082c-0.39615,0 -0.71728,-0.34958 -0.71728,-0.78082c0,-0.21824 0.08226,-0.41559 0.21486,-0.55726c-0.3566,-0.20499 -0.77167,-0.58524 -1.06327,-0.99396c-0.02568,0.1538 -0.09274,0.29188 -0.18817,0.4001c0.05288,0.2549 0.07305,0.4953 0.06096,0.76072h0.1388v0.78082c0,0.43124 -0.32113,0.78082 -0.71728,0.78082c-0.17159,0 -0.3291,-0.06559 -0.45254,-0.17498l-0.59327,-0.51667l0.01608,-0.0219l-0.0752,-0.03571c-0.32584,-0.44115 -0.93333,-0.9678 -1.03172,-1.43275c-0.17207,-0.07015 -0.34351,-0.14141 -0.50313,-0.23365c-0.1297,0.20163 -0.34468,0.33346 -0.58797,0.33346c-0.277,0 -0.51732,-0.17093 -0.63682,-0.42116c-0.13148,0.17749 -0.33287,0.29103 -0.55865,0.29103c-0.24433,0 -0.46011,-0.13298 -0.58962,-0.33607l-0.45728,0.49779c-0.08503,0.09257 -0.19129,0.16198 -0.31017,0.19887c-0.00695,0.01012 -0.01402,0.02012 -0.0212,0.03003l-0.02883,0.02968l0.00156,0.00169l-0.71728,0.78082c-0.12981,0.14131 -0.30913,0.2287 -0.50719,0.2287c-0.21373,0 -0.40562,-0.10176 -0.53703,-0.2632l-0.03169,0.0345c-0.12981,0.14131 -0.30913,0.2287 -0.50719,0.2287c-0.39615,0 -0.71728,-0.34958 -0.71728,-0.78082c0,-0.04879 0.00411,-0.09655 0.01199,-0.14288l0.11733,-0.7663l0.19044,0.03455c0.02836,-0.34097 0.09379,-0.67401 0.21304,-0.98581c0.00411,-0.01073 0.09579,-0.38539 0.21404,-0.75918c-0.0481,0.01107 -0.09797,0.01688 -0.1491,0.01688c-0.03205,0 -0.06364,-0.00229 -0.09459,-0.00673c-0.40663,0.13061 -0.88318,0.18711 -1.16543,0.11071c-0.57156,-0.15473 -1.3224,-0.95317 -1.59083,-1.796c-0.00607,0.00016 -0.01215,0.00025 -0.01826,0.00025c-0.39615,0 -0.71728,-0.34958 -0.71728,-0.78082zM231.777,171.6517c0.0616,-0.06177 0.12317,-0.11148 0.18463,-0.15075c-0.00002,0 -0.00004,0 -0.00006,0c-0.03175,0 -0.06301,-0.00225 -0.09368,-0.0066c-0.08319,0.05106 -0.16685,0.10116 -0.25099,0.15024c0.04433,0.00908 0.08721,0.02262 0.12826,0.04013c0.01036,-0.0111 0.02097,-0.0221 0.03185,-0.03301zM233.29211,173.31988c0.04984,0.06627 0.10462,0.12282 0.16858,0.15928c0.04336,0.02472 0.10241,0.01529 0.17453,-0.01688v-0.018c-0.09817,-0.01632 -0.21928,-0.06254 -0.34311,-0.12438z" fill="#922323"/><path d="M236.26522,169.67905c0,-0.43124 0.32113,-0.78082 0.71728,-0.78082c0.39615,0 0.71728,0.34958 0.71728,0.78082c0,0.43124 -0.32113,0.78082 -0.71728,0.78082c-0.39615,0 -0.71728,-0.34958 -0.71728,-0.78082z" fill="#922323"/><path d="M243.07932,169.28863c0,-0.43124 0.32113,-0.78082 0.71728,-0.78082c0.39615,0 0.71728,0.34958 0.71728,0.78082c0,0.43124 -0.32113,0.78082 -0.71728,0.78082c-0.39615,0 -0.71728,-0.34958 -0.71728,-0.78082z" fill="#922323"/><path d="M247.14388,176.96669c0,-0.43124 0.32113,-0.78082 0.71728,-0.78082c0.39615,0 0.71728,0.34958 0.71728,0.78082c0,0.43124 -0.32113,0.78082 -0.71728,0.78082c-0.39615,0 -0.71728,-0.34958 -0.71728,-0.78082z" fill="#922323"/><path d="M232.08112,175.79546c0,-0.43124 0.32113,-0.78082 0.71728,-0.78082c0.39615,0 0.71728,0.34958 0.71728,0.78082c0,0.43124 -0.32113,0.78082 -0.71728,0.78082c-0.39615,0 -0.71728,-0.34958 -0.71728,-0.78082z" fill="#922323"/><path d="M236.26522,172.54205c0.39615,0 0.71728,0.34958 0.71728,0.78082c0,0.43124 -0.32113,0.78082 -0.71728,0.78082c-0.09331,0 -0.18245,-0.0194 -0.26422,-0.05469c-0.03962,0.15838 -0.12386,0.29673 -0.23714,0.39804c-0.33519,0.52978 -0.89533,0.2249 -0.89533,0.2249l-0.47842,-0.34075c-0.50883,-0.69359 -0.92096,-1.39186 -1.50119,-2.01784c0,0 -0.00599,-0.00653 -0.01604,-0.01889c-0.10168,0.29663 -0.3643,0.50785 -0.67223,0.50785c-0.39615,0 -0.71728,-0.34958 -0.71728,-0.78082c0,-0.41788 0.30154,-0.75907 0.68068,-0.77982c-0.19404,-0.13975 -0.32204,-0.37943 -0.32204,-0.65168c0,-0.43124 0.32113,-0.78082 0.71728,-0.78082c0.39615,0 0.71728,0.34958 0.71728,0.78082c0,0.15286 -0.04035,0.29545 -0.11009,0.41586c0.39952,-0.16394 0.73682,0.20324 0.73682,0.20324c0.42547,0.4667 0.77032,0.96028 1.12229,1.46453c0.01461,-0.00097 0.02933,-0.00146 0.04416,-0.00146c0.22576,0 0.42716,0.11354 0.55865,0.29103c0.1195,-0.25023 0.35983,-0.42116 0.63682,-0.42116zM232.59591,171.36982c0.04318,0.03111 0.0831,0.06715 0.11906,0.10741c0.01981,-0.04923 0.04607,-0.0992 0.07992,-0.1495c-0.06281,0.02377 -0.12959,0.0383 -0.19897,0.04209z" fill="#a62828"/><path d="M240.09068,175.01464c0,0.78082 -0.71728,0.78082 -0.71728,0.78082h-0.71728c0,0 -0.45209,0 -0.63845,-0.39072c-0.09839,0.30343 -0.36414,0.52086 -0.67656,0.52086c-0.39615,0 -0.71728,-0.34958 -0.71728,-0.78082c0,-0.43124 0.32113,-0.78082 0.71728,-0.78082c0.26931,0 0.50396,0.16157 0.62661,0.40052c0.13395,-0.53065 0.6884,-0.53065 0.6884,-0.53065h0.71728c0,0 0.71728,0 0.71728,0.78082z" fill="#a62828"/><path d="M243.43705,176.09844c-0.39787,0.64969 -0.99467,0.21656 -0.99467,0.21656l-0.40884,-0.30023c-0.44597,-0.38842 -0.88734,-0.7831 -1.32612,-1.18111c0,0 -0.55103,-0.49987 -0.09183,-1.09972c0.45919,-0.59984 1.01021,-0.09998 1.01021,-0.09998c0.4314,0.39138 0.86536,0.77949 1.30389,1.16135l0.30844,0.22031c0,0 0.03487,0.02531 0.08214,0.07288c0.02648,-0.40498 0.33668,-0.72455 0.71543,-0.72455c0.06288,0 0.12385,0.0088 0.18197,0.02535c-0.07987,-0.09581 -0.1435,-0.23005 -0.1722,-0.41753c-0.11792,-0.77019 0.58959,-0.89855 0.58959,-0.89855c0.2391,-0.04337 0.47818,-0.08676 0.71728,-0.13013l0.23747,-0.01063c0,0 0.71728,0 0.71728,0.78082c0,0.78082 -0.71728,0.78082 -0.71728,0.78082l-0.00163,-0.01062c-0.2391,0.04337 -0.47818,0.08676 -0.71728,0.13013c0,0 -0.1519,0.02756 -0.32665,-0.01948c0.129,0.14119 0.20872,0.33579 0.20872,0.55065c0,0.43124 -0.32113,0.78082 -0.71728,0.78082c-0.17822,0 -0.34126,-0.07075 -0.4667,-0.18787c-0.0129,0.11051 -0.05269,0.23132 -0.13194,0.36073z" fill="#a62828"/><path d="M246.42661,172.54205c0,-0.43124 0.32113,-0.78082 0.71728,-0.78082c0.39615,0 0.71728,0.34958 0.71728,0.78082c0,0.43124 -0.32113,0.78082 -0.71728,0.78082c-0.39615,0 -0.71728,-0.34958 -0.71728,-0.78082z" fill="#a62828"/><path d="M230.13938,182.14057c0.50719,-0.55212 1.01438,0 1.01438,0l0.59773,0.65068c0,0 0.50719,0.55212 0,1.10425c-0.50719,0.55212 -1.01438,0 -1.01438,0l-0.59773,-0.65068c0,0 -0.50719,-0.55212 0,-1.10425z" fill="#9c9c75"/><path d="M246.78524,183.73378c0,0.78082 -0.71728,0.78082 -0.71728,0.78082l-0.00163,-0.01062c-0.2391,0.04337 -0.47818,0.08676 -0.71728,0.13013c0,0 -0.70751,0.12837 -0.82543,-0.64183c-0.11792,-0.77019 0.58959,-0.89855 0.58959,-0.89855c0.2391,-0.04337 0.47818,-0.08676 0.71728,-0.13013l0.23747,-0.01063c0,0 0.71728,0 0.71728,0.78082z" fill="#9c9c75"/><path d="M246.9867,190.33797c-0.44807,0.60971 -1.00817,0.12194 -1.00817,0.12194l-0.59773,-0.52055c0,0 -0.5601,-0.48779 -0.11202,-1.0975c0.44807,-0.60971 1.00817,-0.12194 1.00817,-0.12194l0.59773,0.52055c0,0 0.5601,0.48779 0.11202,1.0975z" fill="#9c9c75"/><path d="M233.87344,180.38229c-0.17903,-0.09776 -0.35778,-0.29296 -0.35778,-0.68275c0,-0.78082 0.71728,-0.78082 0.71728,-0.78082l0.76109,0.43163c0.20751,0.45808 0.46016,0.89594 0.75536,1.29291c0,0 0.44807,0.60972 -0.11202,1.0975c-0.5601,0.48777 -1.00817,-0.12194 -1.00817,-0.12194c-0.2822,-0.38774 -0.53466,-0.80336 -0.75577,-1.23654z" fill="#9c9c75"/><path d="M236.75734,187.66087l-0.12371,-0.93218c0.02259,-0.14432 0.04296,-0.28884 0.06132,-0.43355c-0.34302,0.00623 -0.6856,0.01508 -1.02745,0.02711c0,0.39517 0,0.79033 0,1.18548v0.35855c0.38941,0.00899 0.77893,0.01698 1.16867,0.02304c-0.05963,-0.12401 -0.07883,-0.22847 -0.07883,-0.22847zM236.86294,182.17215c0,0 0,-0.10437 0.03505,-0.23679c-0.44787,0.09197 -0.89089,0.21379 -1.3205,0.3662c0.08999,0.19544 0.08999,0.39114 0.08999,0.39114c0,0.69266 0,1.38533 0,2.078c0.3851,-0.01317 0.77098,-0.02258 1.15728,-0.02902c0.0401,-0.85387 0.03818,-1.71171 0.03818,-2.56952zM238.2975,182.17215c0,0.85569 -0.00268,1.70825 -0.04077,2.55773c0.56013,-0.00047 1.12009,0.00324 1.6787,0.00868c-0.04577,-0.85415 -0.08383,-1.71001 -0.08383,-2.56643c0,0 0,-0.20692 0.09786,-0.40772c-0.56582,-0.05448 -1.15781,-0.05909 -1.7558,-0.01206c0.10385,0.20449 0.10384,0.41978 0.10384,0.41978zM238.04865,186.98542l0.11538,0.36918c0,0 0.05514,0.30007 -0.0762,0.56205c0.62986,0.1103 1.26297,0.20255 1.89772,0.2825c0.01744,-0.0775 0.04846,-0.1561 0.09902,-0.23092c-0.01094,-0.55635 -0.0351,-1.1141 -0.06389,-1.67289c-0.62559,-0.00761 -1.25314,-0.01312 -1.88075,-0.01284c-0.02593,0.23454 -0.05613,0.46883 -0.09128,0.70289zM241.28614,182.17215c0,0.86398 0.03643,1.72451 0.08085,2.58279c0.85686,0.01034 1.70804,0.01993 2.54915,0.01993l0.10976,-0.03854c-0.54765,-1.17998 -1.26978,-2.22191 -2.70122,-2.72547c-0.01981,-0.0054 -0.03969,-0.01073 -0.05964,-0.01599c0.0211,0.10286 0.0211,0.17726 0.0211,0.17726zM243.48881,188.55079c0.51962,0.0443 1.04354,0.03782 1.56363,0.0007c0.2837,-0.02025 1.03987,0.27099 0.85216,0.03856c-0.56994,-0.70568 -0.93502,-1.56099 -1.28256,-2.42571c-0.03317,0.01312 -0.05375,0.01872 -0.05375,0.01872l-0.65215,0.15345c-0.81282,0 -1.63628,-0.01018 -2.46583,-0.02171c0.03501,0.68633 0.06407,1.37169 0.07254,2.05674c0.65559,0.0658 1.31151,0.12345 1.96594,0.17925zM231.26065,186.71365c-0.07336,0.3344 -0.11832,0.68651 -0.13172,1.05664c1.03721,0.00764 2.07094,0.03341 3.104,0.06008c0,-0.45467 0,-0.93939 0,-1.43676c-1.0038,0.06583 -1.99726,0.16723 -2.97228,0.32004zM231.93275,185.0478c0.75933,-0.0934 1.52713,-0.16083 2.30019,-0.20887c0,-0.66564 0,-1.32219 0,-1.9298c-0.93757,0.52829 -1.7439,1.23777 -2.30019,2.13867zM229.57065,188.54883c0,-0.20506 0.04946,-0.35625 0.12241,-0.46775c-0.00287,-0.03312 -0.00287,-0.05279 -0.00287,-0.05279c0.01858,-6.42625 7.22791,-8.82292 12.03557,-7.51678c2.63927,0.97888 4.17593,3.86454 5.02266,6.61917c0.13729,0.44663 0.60077,1.82258 0.43927,2.15776c-0.24732,0.51329 -1.49602,0.77616 -2.01694,0.81938c-2.36453,0.19613 -4.96343,-0.21885 -7.29107,-0.65068c-2.4523,0.00991 -4.89242,-0.12747 -7.35268,-0.12747h-0.2391c0,0 -0.71728,0 -0.71728,-0.78082z" fill="#000000"/><path d="M241.22994,181.95954c0.01995,0.00526 0.04036,0.00996 0.06018,0.01536c1.43144,0.50357 2.22369,1.61625 2.77134,2.79624l-0.11158,0.04062c-0.84112,0 -1.76011,-0.00997 -2.61697,-0.0203c-0.04442,-0.85828 -0.08376,-1.78834 -0.08376,-2.65232c0,0 0.00188,-0.07675 -0.01922,-0.17962z" data-paper-data="{&quot;noHover&quot;:false,&quot;origItem&quot;:[&quot;Path&quot;,{&quot;applyMatrix&quot;:true,&quot;segments&quot;:[[[482.0669,365.20083],[0,0],[0,1.65976]],[[482.23597,370.16254],[-0.0929,-1.64883],[1.79191,0.01985]],[[487.5669,370.20083],[-1.75898,0],[0,0]],[[487.79644,370.12679],[0,0],[-1.14526,-2.26682]],[[482.14752,364.89101],[2.99349,0.96737],[-0.04144,-0.01038]],[[482.02278,364.86029],[0.04172,0.0101],[0.04412,0.19761]]],&quot;closed&quot;:true}]}" fill="#ffe77b"/><path d="M241.47849,188.39096c-0.00847,-0.68505 -0.03671,-1.41134 -0.07172,-2.09767c0.82954,0.01152 1.70701,-0.00758 2.51984,-0.00758l0.67084,-0.14391c0,0 0.02137,-0.0049 0.05455,-0.01802c0.34755,0.86472 0.72568,1.78328 1.29562,2.48897c0.18772,0.23243 -0.57347,-0.04995 -0.85716,-0.0297c-0.52009,0.03712 -1.09125,0.06312 -1.61087,0.01883c-0.65443,-0.0558 -1.34551,-0.14512 -2.00111,-0.21091z" data-paper-data="{&quot;noHover&quot;:false,&quot;origItem&quot;:[&quot;Path&quot;,{&quot;applyMatrix&quot;:true,&quot;segments&quot;:[[[486.67323,377.4546],[-1.36859,-0.10719],[1.08665,0.08511]],[[489.94318,377.45594],[-1.08765,0.07131],[0.59327,-0.0389]],[[491.72526,377.53001],[0.39257,0.44651],[-1.19188,-1.35565]],[[489.0431,372.87008],[0.72681,1.66118],[-0.06938,0.0252]],[488.9307,372.90604],[[487.5669,373.20083],[0,0],[-1.69981,0]],[[482.41024,373.15914],[1.73479,0.02213],[0.07321,1.31848]],[[482.56194,377.11026],[-0.01771,-1.31601],[1.37102,0.12639]]],&quot;closed&quot;:true}]}" fill="#ffe77b"/><path d="M238.10525,186.24668c0.6276,-0.00028 1.32518,0.00605 1.95077,0.01365c0.02879,0.55879 0.05758,1.18014 0.06852,1.73649c-0.05057,0.0748 -0.08703,0.16085 -0.10447,0.23835c-0.63474,-0.07995 -1.34276,-0.18032 -1.97262,-0.29063c0.13131,-0.262 0.06907,-0.58395 0.06907,-0.58395l-0.11447,-0.38687c0.03515,-0.23406 0.07726,-0.49251 0.1032,-0.72705z" data-paper-data="{&quot;noHover&quot;:false,&quot;origItem&quot;:[&quot;Path&quot;,{&quot;applyMatrix&quot;:true,&quot;segments&quot;:[[[475.29649,374.44743],[0.0735,-0.44964],[0,0]],[475.53777,375.15665],[[475.37844,376.2364],[0.27462,-0.50332],[1.31719,0.2119]],[[479.34703,376.77911],[-1.3274,-0.15359],[0.03648,-0.14889]],[[479.55411,376.33552],[-0.10574,0.14371],[-0.02287,-1.06878]],[[479.42048,373.1218],[0.06023,1.07348],[-1.30827,-0.01462]],[[475.48737,373.09714],[1.31247,-0.00055],[-0.05423,0.45055]]],&quot;closed&quot;:true}]}" fill="#ffe77b"/><path d="M238.16767,181.70867c0.59799,-0.04704 1.24208,-0.04232 1.8079,0.01216c-0.09786,0.20079 -0.09403,0.41073 -0.09403,0.41073c0,0.85643 0.03341,1.79705 0.07917,2.65119c-0.5586,-0.00545 -1.16818,-0.00851 -1.72832,-0.00805c0.03808,-0.84949 0.03529,-1.78758 0.03529,-2.64326c0,0 0.00383,-0.21828 -0.10002,-0.42277z" data-paper-data="{&quot;noHover&quot;:false,&quot;origItem&quot;:[&quot;Path&quot;,{&quot;applyMatrix&quot;:true,&quot;segments&quot;:[[[475.8169,365.20083],[0,0],[0,1.64383]],[[475.73164,370.1144],[0.07964,-1.63191],[1.17138,-0.0009]],[[479.24222,370.13109],[-1.16817,-0.01048],[-0.09571,-1.64085]],[[479.0669,365.20083],[0,1.64524],[0,0]],[[479.27153,364.41757],[-0.20463,0.38575],[-1.18326,-0.10467]],[[475.59973,364.39441],[1.25053,-0.09035],[0.21717,0.39283]]],&quot;closed&quot;:true}]}" fill="#ffe77b"/><path d="M236.84477,184.78895c-0.3863,0.00643 -0.81135,0.01624 -1.19646,0.02941c0,-0.69266 -0.01358,-1.47094 -0.01358,-2.1636c0,0 0.00577,-0.20074 -0.08423,-0.39618c0.42961,-0.15242 0.92125,-0.27769 1.36911,-0.36965c-0.03505,0.13242 -0.0328,0.23812 -0.0328,0.23812c0,0.85781 -0.00196,1.80805 -0.04206,2.66191z" data-paper-data="{&quot;noHover&quot;:false,&quot;origItem&quot;:[&quot;Path&quot;,{&quot;applyMatrix&quot;:true,&quot;segments&quot;:[[[472.8169,365.20083],[0,1.64789],[0,0]],[[472.8902,364.74594],[-0.0733,0.25439],[-0.9366,0.17668]],[[470.1287,365.44943],[0.89842,-0.29279],[0.1882,0.37546]],[[470.3169,366.20083],[0,0],[0,1.33065]],[[470.3169,370.19278],[0,-1.33065],[0.80533,-0.0253]],[[472.73706,370.13703],[-0.80784,0.01237],[0.08387,-1.64034]]],&quot;closed&quot;:true}]}" fill="#ffe77b"/><path d="M236.86599,187.93002c-0.38974,-0.00606 -0.83944,-0.01452 -1.22885,-0.02351l-0.00967,-0.3703c0,-0.39517 0.00958,-0.85892 0.00958,-1.25408c0.34185,-0.01204 0.73964,-0.02528 1.08266,-0.03151c-0.01836,0.1447 -0.02749,0.29949 -0.0501,0.44381l0.12098,1.00387c0,0 0.01576,0.10773 0.0754,0.23175z" data-paper-data="{&quot;noHover&quot;:false,&quot;origItem&quot;:[&quot;Path&quot;,{&quot;applyMatrix&quot;:true,&quot;segments&quot;:[[472.59603,375.745],[[472.33731,373.95423],[0,0],[0.04725,-0.27724]],[[472.46556,373.12136],[-0.0384,0.27799],[-0.71733,0.01198]],[[470.3169,373.17344],[0.71489,-0.02313],[0,0.75913]],[[470.3169,375.45083],[0,-0.75913],[0,0]],[[470.3169,376.13964],[0,0],[0.81437,0.01726]],[[472.76088,376.1839],[-0.81505,-0.01165],[-0.12472,-0.23825]]],&quot;closed&quot;:true}]}" fill="#ffe77b"/><path d="M234.27695,186.37324c0,0.49737 0,1.02282 0,1.4775c-1.03306,-0.02667 -2.15535,-0.05391 -3.19256,-0.06155c0.01339,-0.37012 0.05662,-0.75413 0.12997,-1.08853c0.97502,-0.1528 2.0588,-0.26159 3.0626,-0.32743z" data-paper-data="{&quot;noHover&quot;:false,&quot;origItem&quot;:[&quot;Path&quot;,{&quot;applyMatrix&quot;:true,&quot;segments&quot;:[[[461.10112,373.92533],[2.03899,-0.29355],[-0.1534,0.6424]],[[460.82566,375.9552],[0.02801,-0.71103],[2.16907,0.01469]],[[467.3169,376.07062],[-2.16038,-0.05124],[0,-0.87346]],[[467.3169,373.31051],[0,0.95548],[-2.0992,0.12646]]],&quot;closed&quot;:true}]}" fill="#ffe77b"/><path d="M234.2693,182.87533c0,0.60761 0.00306,1.32745 0.00306,1.99308c-0.77305,0.04803 -1.61663,0.1198 -2.37596,0.21318c0.55629,-0.90089 1.43535,-1.67798 2.37291,-2.20627z" data-paper-data="{&quot;noHover&quot;:false,&quot;origItem&quot;:[&quot;Path&quot;,{&quot;applyMatrix&quot;:true,&quot;segments&quot;:[[[462.50663,370.72513],[1.16335,-1.73067],[1.58794,-0.17941]],[[467.3169,370.32389],[-1.61665,0.09228],[0,-1.27872]],[[467.3169,366.61663],[0,1.16727],[-1.96069,1.01488]]],&quot;closed&quot;:true}]}" fill="#ffe77b"/><path d="M231.73287,173.43414c0.61506,0.40173 0.24603,1.07127 0.24603,1.07127l-0.33215,0.59815c-0.34082,0.73758 -0.65132,1.49404 -0.94904,2.25774c0.25537,0.10313 0.51302,0.20191 0.77339,0.29613l0.57213,0.30263c0,0 0.64155,0.34919 0.32078,1.04758c-0.32078,0.69839 -0.96233,0.34919 -0.96233,0.34919l-0.38423,-0.21791c-0.29269,-0.10648 -0.58221,-0.2182 -0.86914,-0.33497c-0.24933,0.66383 -0.4973,1.32767 -0.75523,1.98399c0,0 -0.28255,0.71768 -0.94183,0.4101c-0.65928,-0.30758 -0.37673,-1.02526 -0.37673,-1.02526c0.25499,-0.6464 0.50079,-1.29907 0.7473,-1.95188c-0.53974,-0.25459 -1.07314,-0.52703 -1.60426,-0.81611c0,0 -0.64155,-0.34919 -0.32078,-1.04758c0.32078,-0.69839 0.96233,-0.34919 0.96233,-0.34919c0.50113,0.27277 1.00408,0.53044 1.51299,0.77135c0.31216,-0.80189 0.63647,-1.59712 0.9915,-2.3742l0.38513,-0.70322c0,0 0.36903,-0.66955 0.98409,-0.26782z" fill="#000000"/><path d="M255.58033,178.75888c0.2664,0.72498 -0.39958,1.01496 -0.39958,1.01496l-0.63729,0.27604c-0.76016,0.27568 -1.51435,0.58978 -2.25211,0.94584c0.2635,0.3601 0.52745,0.71981 0.7922,1.07904l0.37236,0.53983c0,0 0.43037,0.62466 -0.14346,1.09314c-0.57382,0.46849 -1.00418,-0.15616 -1.00418,-0.15616l-0.34492,-0.50126c-0.33176,-0.45286 -0.66295,-0.90608 -0.99394,-1.35957c-0.60299,0.34482 -1.18975,0.72113 -1.754,1.13107c0,0 -0.59681,0.43313 -0.99467,-0.21656c-0.39787,-0.64969 0.19893,-1.0828 0.19893,-1.0828c0.53101,-0.38497 1.08036,-0.74257 1.64361,-1.0741c-0.75896,-1.0409 -1.51875,-2.08269 -2.28402,-3.12403c0,0 -0.44807,-0.60972 0.11202,-1.0975c0.5601,-0.48777 1.00817,0.12194 1.00817,0.12194c0.82965,1.12893 1.65057,2.2592 2.47238,3.38719c0.8867,-0.44588 1.79789,-0.83353 2.71799,-1.16757l0.55817,-0.2445c0,0 0.66597,-0.29 0.93236,0.43498z" fill="#000000"/><path d="M253.99242,152.60138c0.62404,-0.41603 1.04006,0.20801 1.04006,0.20801l0.36576,0.66773c0.06236,0.83068 -0.8062,1.45824 -1.18882,2.19819c-0.26961,0.52141 0.36073,1.64903 0,2.25c-0.09744,0.16234 -0.8575,1.12614 -1.31287,0.85299c0.21957,0.4155 0.50837,1.05984 0.51,1.39395c0.00616,1.25995 -0.94576,1.72175 -1.77959,2.38882c0,0 -0.58565,0.46852 -1.05417,-0.11713c-0.46852,-0.58565 0.11713,-1.05417 0.11713,-1.05417c0.12816,-0.10253 1.30321,-0.80076 1.22041,-1.11118c-0.18224,-0.68317 -0.89488,-2.10216 -0.28222,-2.8335c0.26564,-0.3171 1.17919,0.24105 1.22935,-0.16956c0.08352,-0.68368 -0.33299,-1.57568 0,-2.25c0.38281,-0.77521 1.39287,-0.57783 1.06118,-1.30181l-0.13424,-0.08227c0,0 -0.41603,-0.62404 0.20801,-1.04006z" fill="#b2eeff"/><path d="M229.28345,147.72541c0.75,0 0.75,0.75 0.75,0.75v0.375c0,0.62743 -0.16503,1.5199 -0.04228,2.12674c0.10698,0.52887 1.72845,0.66585 1.98519,1.21124c0.30042,0.63818 -0.58449,2.6839 -0.70311,3.41031c0,0 -0.1233,0.7398 -0.86309,0.6165c-0.7398,-0.1233 -0.6165,-0.86309 -0.6165,-0.86309c0.08084,-0.47677 0.86033,-2.32004 0.79689,-2.58969c-0.1826,-0.77605 -1.72633,-0.54554 -2.01481,-1.28876c-0.23999,-0.61829 -0.04228,-1.93213 -0.04228,-2.62326v-0.375c0,0 0,-0.75 0.75,-0.75z" fill="#b2eeff"/><path d="M238.90845,148.97541c0.75,0 0.75,0.75 0.75,0.75v0.625c-0.00732,1.97002 2.03624,2.26704 1.99811,4.05317c-0.01287,0.60296 -0.47235,1.11137 -0.6616,1.684c0,0 -0.23717,0.71151 -0.94868,0.47434c-0.71151,-0.23717 -0.47434,-0.94868 -0.47434,-0.94868c0.79687,-2.3729 -1.40493,-2.54279 -1.41349,-5.26283v-0.625c0,0 0,-0.75 0.75,-0.75z" fill="#b2eeff"/><path d="M248.94948,151.10138c0.62404,0.41603 0.20801,1.04006 0.20801,1.04006l-0.20322,0.29439c-0.64351,1.13884 -1.10598,1.64847 -2.25881,0.9825c-0.44955,-0.2597 -0.04499,1.03797 -0.03701,1.55709c0,0 0,0.75 -0.75,0.75c-0.75,0 -0.75,-0.75 -0.75,-0.75c0.00837,-0.75186 0.16134,-2.54045 0.96299,-2.94291c0.45132,-0.22658 1.31306,0.20504 1.49119,-0.2675l0.29678,-0.45561c0,0 0.41603,-0.62404 1.04006,-0.20801z" fill="#b2eeff"/></g></g></svg>