<svg version="1.1" xmlns="http://www.w3.org/2000/svg" xmlns:xlink="http://www.w3.org/1999/xlink" width="120.57962" height="139.16624" viewBox="0,0,120.57962,139.16624"><g transform="translate(-355.10579,-110.41689)"><g data-paper-data="{&quot;isPaintingLayer&quot;:true}" fill-rule="nonzero" stroke-linecap="butt" stroke-linejoin="miter" stroke-miterlimit="10" stroke-dasharray="" stroke-dashoffset="0" style="mix-blend-mode: normal"><path d="M356.35579,248.33313v-136.66624h118.07962v136.66624z" fill="#7f7f7f" stroke="#5e5e5e" stroke-width="2.5"/><path d="M356.35579,248.33313v-50.25h118.07962v50.25z" fill="#7f7f7f" stroke="#5e5e5e" stroke-width="2.5"/><text transform="translate(366.05392,152.78177) scale(0.18147,0.18147)" font-size="40" xml:space="preserve" fill="#ffffff" fill-rule="nonzero" stroke="none" stroke-width="1" stroke-linecap="butt" stroke-linejoin="miter" stroke-miterlimit="10" stroke-dasharray="" stroke-dashoffset="0" font-family="Sans Serif" font-weight="normal" text-anchor="start" style="mix-blend-mode: normal"><tspan x="0" dy="0">Slower firerate compared to</tspan><tspan x="0" dy="46.150000000000006px">oother guns, but way higher</tspan><tspan x="0" dy="46.150000000000006px">damage as well as multiple </tspan><tspan x="0" dy="46.150000000000006px">bullets being fired. </tspan></text><text transform="translate(371.11094,134.13239) scale(0.45777,0.45777)" font-size="40" xml:space="preserve" fill="#ffffff" fill-rule="nonzero" stroke="none" stroke-width="1" stroke-linecap="butt" stroke-linejoin="miter" stroke-miterlimit="10" stroke-dasharray="" stroke-dashoffset="0" font-family="Sans Serif" font-weight="normal" text-anchor="start" style="mix-blend-mode: normal"><tspan x="0" dy="0">SHOTGUN</tspan></text><path d="M382.67066,216.64869c1.50309,0.50103 1.00206,2.00411 1.00206,2.00411l-0.39702,1.18337c-1.17865,4.31492 -3.38632,7.26404 -4.90169,11.32998c-0.53258,1.42899 -0.2996,3.07658 -0.8669,4.49214c-1.22417,3.05462 -3.73165,3.54645 -6.16775,2.95153l-1.01459,0.12683l-0.02719,-0.21756c-0.14561,0.06902 -0.29122,0.13803 -0.43682,0.20704l0.03972,-0.59047c-0.05493,-0.02264 -0.10969,-0.0457 -0.16424,-0.06918c-0.01769,-0.00395 -0.03536,-0.00792 -0.05304,-0.01188l-0.2635,0.52701l-1.65932,-0.82966c-0.12567,-0.05957 -0.24226,-0.1352 -0.3471,-0.22423c-1.88634,-0.44988 -3.74183,-0.9145 -5.66888,-1.35445c0,0 -1.54382,-0.35627 -1.18755,-1.90009c0.35627,-1.54382 1.90009,-1.18755 1.90009,-1.18755c2.74033,0.63851 5.29368,1.29686 8.03535,1.90308l0.01825,0.01293l0.002,-0.008l1.65787,0.41446c0.18087,0.04105 0.34999,0.11304 0.50149,0.21011c0.86051,-0.03365 1.64082,-0.19337 1.90765,-1.17258c1.49287,-5.47836 4.15015,-9.97578 5.63904,-15.44324l0.44798,-1.35167c0,0 0.50102,-1.50308 2.00411,-1.00205z" fill="#868686" stroke="none" stroke-width="0.5"/><path d="M371.64702,207.79537c2.98495,0.74624 6.80248,1.3328 9.39025,3.13315c0.79447,0.55273 -1.3744,4.64711 -1.74625,5.51403c-2.2894,5.33757 -5.38298,11.09214 -6.39147,16.84253c-2.4295,0.09892 -5.32761,-1.11084 -7.61484,-1.80369c-0.10392,-0.03148 -3.4602,-1.03349 -3.81454,-1.45332c-0.46428,-0.55006 0.81732,-1.18993 1.15312,-1.82661c0.99573,-1.88787 2.06731,-3.62962 2.96822,-5.55945c2.26711,-4.85638 3.92163,-9.94842 5.95457,-14.87177z" data-paper-data="{&quot;noHover&quot;:false,&quot;origItem&quot;:[&quot;Path&quot;,{&quot;applyMatrix&quot;:true,&quot;segments&quot;:[[[416.06851,312.0524],[0,0],[-3.20776,7.76851]],[[406.76863,335.38371],[3.57725,-7.66283],[-1.42153,3.04506]],[[402.06622,344.12437],[1.57115,-2.97885],[-0.52986,1.00461]],[[400.24372,347.00332],[-0.73258,-0.86794],[0.55912,0.66244]],[[406.23886,349.27834],[-0.16397,-0.04967],[3.60899,1.09324]],[[418.19363,352.11284],[-3.83349,0.15608],[1.59128,-9.07349]],[[428.20214,325.68187],[-3.61243,8.4221],[0.58673,-1.36791]],[[430.97534,317.00601],[1.25359,0.87214],[-4.08322,-2.84076]],[[416.22699,312.09202],[4.70993,1.17748],[0,0]]],&quot;closed&quot;:true}]}" fill="#868686" stroke="none" stroke-width="0.5"/><path d="M376.74115,226.45469c-1.12034,1.12034 -2.24067,0 -2.24067,0l-0.43448,-0.49186c-2.46772,-3.94969 -4.75843,-7.98532 -6.6531,-12.23763c0,0 -0.64348,-1.44784 0.80436,-2.09132c1.44784,-0.64349 2.09132,0.80436 2.09132,0.80436c1.82585,4.11934 4.05507,8.02331 6.44455,11.84515l-0.01197,-0.06936c0,0 1.12034,1.12033 0,2.24067z" fill="#969696" stroke="none" stroke-width="0.5"/><path d="M370.55733,207.41291c0.07464,-0.20282 0.20597,-0.41303 0.41619,-0.62325c1.12034,-1.12034 2.24067,0 2.24067,0l0.10522,0.11442c2.71123,2.27369 6.18987,5.97069 7.36718,9.36744c1.01543,2.92968 1.29754,5.65517 -3.90367,3.77789c-1.00085,-0.36124 -1.25795,-1.72961 -1.72646,-2.68496c-1.39593,-2.84652 -2.93703,-5.42752 -4.54951,-8.24587c0,0 -0.53515,-0.93652 0.05037,-1.70567z" fill="#969696" stroke="none" stroke-width="0.5"/><path d="M371.5448,207.83361c-2.03294,4.92335 -3.62676,9.93002 -5.89387,14.78639c-0.90091,1.92983 -1.98446,3.65159 -2.98019,5.53946c-0.3358,0.63668 -1.6193,1.27449 -1.15502,1.82456c0.35435,0.41983 3.69555,1.41033 3.79946,1.44181c2.28722,0.69285 5.14692,1.8953 7.57642,1.79639c1.00849,-5.75039 4.05356,-11.41325 6.34297,-16.75082c0.37184,-0.86692 2.55201,-4.94567 1.75754,-5.49839c-2.58777,-1.80035 -6.36192,-2.36804 -9.34688,-3.11428zM370.87476,204.55073c0.3798,-0.05599 0.694,0.02257 0.694,0.02257l0.84501,0.21125c3.08273,0.77068 8.72122,1.52012 10.93337,4.0683c2.02271,2.32996 0.321,4.98908 -0.54156,7.32695c-2.38609,6.46712 -4.95084,13.18504 -7.83563,19.43441c-4.11354,1.12623 -14.37643,-0.20706 -16.50944,-4.7894c-0.60293,-1.29527 2.41069,-5.85712 2.90177,-6.70517c3.4114,-5.89116 5.07204,-12.42518 7.73217,-18.63338c0,0 0.53795,-1.25521 1.78031,-0.93553z" fill="#777777" stroke="none" stroke-width="0.5"/><path d="M382.50232,220.13821c-0.43831,-0.46874 -0.43831,-1.14142 -0.43831,-1.14142l0.00162,-1.61822c-0.17077,-1.909 -0.59433,-3.68322 -0.8344,-5.57909c0,0 -0.19652,-1.57216 1.37564,-1.76868c1.57216,-0.19652 1.76868,1.37563 1.76868,1.37563c0.24398,1.98063 0.67126,3.82766 0.85562,5.82854l0.00042,0.45318c0.74782,0.50444 0.62273,1.50515 0.62273,1.50515c-0.96966,7.71968 -5.51764,14.26293 -9.28038,20.8698l-0.67781,0.75676c0,0 -0.46668,0.46668 -1.09884,0.49644c-0.45842,0.60137 -1.28901,0.60137 -1.28901,0.60137l-0.59553,-0.0473c-3.67041,-0.92818 -11.99786,-2.56886 -13.71545,-5.9137c-0.72817,-1.41803 -0.57714,-3.39506 -0.58232,-4.9185c0,0 0,-1.58439 1.58439,-1.58439c1.58439,0 1.58439,1.58439 1.58439,1.58439c-0.00395,1.00311 -0.12283,2.52764 0.26269,3.5316c0.48695,1.26809 1.19624,0.74477 2.38277,1.06903c2.42273,0.66211 4.72495,1.7131 7.09521,2.51733c0.14198,-1.29787 0.27741,-2.59645 0.4073,-3.89558c0,0 0.15766,-1.57653 1.73419,-1.41888c1.57653,0.15765 1.41888,1.73418 1.41888,1.73418c-0.07101,0.71007 -0.14386,1.41997 -0.21909,2.12962c3.09612,-5.22692 6.52315,-10.5738 7.6366,-16.56727z" fill="#777777" stroke="none" stroke-width="0.5"/><path d="M410.1517,216.64869c1.50309,0.50103 1.00206,2.00411 1.00206,2.00411l-0.39702,1.18337c-1.17865,4.31492 -3.38632,7.26404 -4.90169,11.32998c-0.53258,1.42899 -0.2996,3.07658 -0.8669,4.49214c-1.22417,3.05462 -3.73165,3.54645 -6.16775,2.95153l-1.01459,0.12683l-0.02719,-0.21756c-0.14561,0.06902 -0.29122,0.13803 -0.43682,0.20704l0.03972,-0.59047c-0.05493,-0.02264 -0.10969,-0.0457 -0.16424,-0.06918c-0.01769,-0.00395 -0.03536,-0.00792 -0.05304,-0.01188l-0.2635,0.52701l-1.65932,-0.82966c-0.12567,-0.05957 -0.24226,-0.1352 -0.3471,-0.22423c-1.88634,-0.44988 -3.74183,-0.9145 -5.66888,-1.35445c0,0 -1.54382,-0.35627 -1.18755,-1.90009c0.35627,-1.54382 1.90009,-1.18755 1.90009,-1.18755c2.74033,0.63851 5.29368,1.29686 8.03535,1.90308l0.01825,0.01293l0.002,-0.008l1.65787,0.41446c0.18087,0.04105 0.34999,0.11304 0.50149,0.21011c0.86051,-0.03365 1.64082,-0.19337 1.90765,-1.17258c1.49287,-5.47836 4.15015,-9.97578 5.63904,-15.44324l0.44798,-1.35167c0,0 0.50102,-1.50308 2.00411,-1.00205z" fill="#efcc6c" stroke="none" stroke-width="0.5"/><path d="M399.12804,207.79537c2.98495,0.74624 6.80248,1.3328 9.39025,3.13315c0.79447,0.55273 -1.3744,4.64711 -1.74625,5.51403c-2.2894,5.33757 -5.38298,11.09214 -6.39147,16.84253c-2.4295,0.09892 -5.32761,-1.11084 -7.61484,-1.80369c-0.10392,-0.03148 -3.4602,-1.03349 -3.81454,-1.45332c-0.46428,-0.55006 0.81732,-1.18993 1.15312,-1.82661c0.99573,-1.88787 2.06731,-3.62962 2.96822,-5.55945c2.26711,-4.85638 3.92163,-9.94842 5.95457,-14.87177z" data-paper-data="{&quot;noHover&quot;:false,&quot;origItem&quot;:[&quot;Path&quot;,{&quot;applyMatrix&quot;:true,&quot;segments&quot;:[[[416.06851,312.0524],[0,0],[-3.20776,7.76851]],[[406.76863,335.38371],[3.57725,-7.66283],[-1.42153,3.04506]],[[402.06622,344.12437],[1.57115,-2.97885],[-0.52986,1.00461]],[[400.24372,347.00332],[-0.73258,-0.86794],[0.55912,0.66244]],[[406.23886,349.27834],[-0.16397,-0.04967],[3.60899,1.09324]],[[418.19363,352.11284],[-3.83349,0.15608],[1.59128,-9.07349]],[[428.20214,325.68187],[-3.61243,8.4221],[0.58673,-1.36791]],[[430.97534,317.00601],[1.25359,0.87214],[-4.08322,-2.84076]],[[416.22699,312.09202],[4.70993,1.17748],[0,0]]],&quot;closed&quot;:true}]}" fill="#efcc6c" stroke="none" stroke-width="0.5"/><path d="M404.22217,226.45469c-1.12034,1.12034 -2.24067,0 -2.24067,0l-0.43448,-0.49186c-2.46772,-3.94969 -4.75843,-7.98532 -6.6531,-12.23763c0,0 -0.64348,-1.44784 0.80436,-2.09132c1.44784,-0.64349 2.09132,0.80436 2.09132,0.80436c1.82585,4.11934 4.05507,8.02331 6.44455,11.84515l-0.01197,-0.06936c0,0 1.12034,1.12033 0,2.24067z" fill="#ffda73" stroke="none" stroke-width="0.5"/><path d="M398.03841,207.41291c0.07464,-0.20282 0.20597,-0.41303 0.41619,-0.62325c1.12034,-1.12034 2.24067,0 2.24067,0l0.10522,0.11442c2.71123,2.27369 6.18987,5.97069 7.36718,9.36744c1.01543,2.92968 1.29754,5.65517 -3.90367,3.77789c-1.00085,-0.36124 -1.25795,-1.72961 -1.72646,-2.68496c-1.39593,-2.84652 -2.93703,-5.42752 -4.54951,-8.24587c0,0 -0.53515,-0.93652 0.05037,-1.70567z" fill="#ffda73" stroke="none" stroke-width="0.5"/><path d="M393.92215,229.02545c0.88389,0.88389 0,1.76777 0,1.76777l-0.3441,0.34105c-0.43601,0.38756 -0.87202,0.77513 -1.30803,1.16269c0,0 -0.93426,0.83045 -1.76472,-0.10381c-0.83045,-0.93426 0.10381,-1.76471 0.10381,-1.76471c0.43601,-0.38756 0.87202,-0.77513 1.30803,-1.16269l0.23724,-0.24029c0,0 0.88389,-0.88389 1.76777,0z" fill="#d7b761" stroke="none" stroke-width="0.5"/><path d="M398.6832,228.4967c0.39529,-1.18586 1.58114,-0.79057 1.58114,-0.79057l0.54839,0.18893c0.43601,0.19378 0.87202,0.38756 1.30803,0.58134c0,0 1.14227,0.50767 0.63459,1.64993c-0.50768,1.14226 -1.64994,0.63459 -1.64994,0.63459c-0.43601,-0.19378 -0.87201,-0.38756 -1.30802,-0.58134l-0.32362,-0.10174c0,0 -1.18586,-0.39529 -0.79057,-1.58114z" fill="#d7b761" stroke="none" stroke-width="0.5"/><path d="M395.33033,222.22923c-1.04007,0.69338 -1.73344,-0.34669 -1.73344,-0.34669l-0.0641,-0.18031c-0.33912,-0.29067 -0.67823,-0.58135 -1.01735,-0.87202c0,0 -0.94908,-0.81349 -0.13559,-1.76256c0.81349,-0.94907 1.76256,-0.13558 1.76256,-0.13558c0.33912,0.29067 0.67824,0.58134 1.01736,0.87202l0.51725,0.6917c0,0 0.69338,1.04006 -0.34668,1.73344z" fill="#d7b761" stroke="none" stroke-width="0.5"/><path d="M406.14085,212.13366c-1.11804,-0.55902 -0.55902,-1.67705 -0.55902,-1.67705l0.53683,-0.74882c0.33912,-0.24223 0.67824,-0.48445 1.01736,-0.72668c0,0 1.01716,-0.72655 1.74371,0.29062c0.72655,1.01717 -0.29062,1.74371 -0.29062,1.74371c-0.33912,0.24223 -0.67824,0.48445 -1.01736,0.72668l0.24615,-0.16747c0,0 -0.55901,1.11803 -1.67705,0.55902z" fill="#d7b761" stroke="none" stroke-width="0.5"/><path d="M392.33391,238.00351c-1.11804,-0.55901 -0.55902,-1.67705 -0.55902,-1.67705l0.22285,-0.41761c0.14533,-0.43601 0.29067,-0.87201 0.43601,-1.30802c0,0 0.39529,-1.18586 1.58114,-0.79057c1.18586,0.39529 0.79057,1.58113 0.79057,1.58113c-0.14533,0.43601 -0.29068,0.87202 -0.43601,1.30803l-0.35849,0.74507c0,0 -0.55901,1.11803 -1.67705,0.55902z" fill="#d7b761" stroke="none" stroke-width="0.5"/><path d="M408.06592,224.67723c0,-0.69035 0.55964,-1.25 1.25,-1.25c0.69036,0 1.25,0.55965 1.25,1.25c0,0.69035 -0.55964,1.25 -1.25,1.25c-0.69036,0 -1.25,-0.55965 -1.25,-1.25z" fill="#d7b761" stroke="none" stroke-width="0.5"/><path d="M399.02585,207.83361c-2.03294,4.92335 -3.62676,9.93002 -5.89387,14.78639c-0.90091,1.92983 -1.98446,3.65159 -2.98019,5.53946c-0.3358,0.63668 -1.6193,1.27449 -1.15502,1.82456c0.35435,0.41983 3.69555,1.41033 3.79946,1.44181c2.28722,0.69285 5.14692,1.8953 7.57642,1.79639c1.00849,-5.75039 4.05356,-11.41325 6.34297,-16.75082c0.37184,-0.86692 2.55201,-4.94567 1.75754,-5.49839c-2.58777,-1.80035 -6.36192,-2.36804 -9.34688,-3.11428zM398.35582,204.55073c0.3798,-0.05599 0.694,0.02257 0.694,0.02257l0.84501,0.21125c3.08273,0.77068 8.72122,1.52012 10.93337,4.0683c2.02271,2.32996 0.321,4.98908 -0.54156,7.32695c-2.38609,6.46712 -4.95084,13.18504 -7.83563,19.43441c-4.11354,1.12623 -14.37643,-0.20706 -16.50944,-4.7894c-0.60293,-1.29527 2.41069,-5.85712 2.90177,-6.70517c3.4114,-5.89116 5.07204,-12.42518 7.73217,-18.63338c0,0 0.53795,-1.25521 1.78031,-0.93553z" fill="#c9ab5a" stroke="none" stroke-width="0.5"/><path d="M409.98336,220.1382c-0.43831,-0.46874 -0.43831,-1.14142 -0.43831,-1.14142l0.00162,-1.61822c-0.17077,-1.909 -0.59433,-3.68322 -0.8344,-5.57909c0,0 -0.19652,-1.57216 1.37564,-1.76868c1.57216,-0.19652 1.76868,1.37563 1.76868,1.37563c0.24398,1.98063 0.67126,3.82766 0.85562,5.82854l0.00042,0.45318c0.74782,0.50444 0.62273,1.50515 0.62273,1.50515c-0.96966,7.71968 -5.51764,14.26293 -9.28038,20.8698l-0.67781,0.75676c0,0 -0.46668,0.46668 -1.09884,0.49644c-0.45842,0.60137 -1.28901,0.60137 -1.28901,0.60137l-0.59553,-0.0473c-3.67041,-0.92818 -11.99786,-2.56886 -13.71545,-5.9137c-0.72817,-1.41803 -0.57714,-3.39506 -0.58232,-4.9185c0,0 0,-1.58439 1.58439,-1.58439c1.58439,0 1.58439,1.58439 1.58439,1.58439c-0.00395,1.00311 -0.12283,2.52764 0.26269,3.5316c0.48695,1.26809 1.19624,0.74477 2.38277,1.06903c2.42273,0.66211 4.72495,1.7131 7.09521,2.51733c0.14198,-1.29787 0.27741,-2.59645 0.4073,-3.89558c0,0 0.15766,-1.57653 1.73419,-1.41888c1.57653,0.15765 1.41888,1.73418 1.41888,1.73418c-0.07101,0.71007 -0.14386,1.41997 -0.21909,2.12962c3.09612,-5.22692 6.52315,-10.5738 7.6366,-16.56727z" fill="#c9ab5a" stroke="none" stroke-width="0.5"/><path d="M399.34573,213.05034c0,-0.69035 0.55964,-1.25 1.25,-1.25c0.69036,0 1.25,0.55965 1.25,1.25c0,0.69035 -0.55964,1.25 -1.25,1.25c-0.69036,0 -1.25,-0.55965 -1.25,-1.25z" fill="#efcc6c" stroke="none" stroke-width="0.5"/><path d="M400.50842,220.89849c0,-0.69035 0.55964,-1.25 1.25,-1.25c0.69036,0 1.25,0.55965 1.25,1.25c0,0.69035 -0.55964,1.25 -1.25,1.25c-0.69036,0 -1.25,-0.55965 -1.25,-1.25z" fill="#efcc6c" stroke="none" stroke-width="0.5"/><path d="M437.63274,216.64868c1.50309,0.50103 1.00206,2.00411 1.00206,2.00411l-0.39702,1.18337c-1.17865,4.31492 -3.38632,7.26404 -4.90169,11.32998c-0.53258,1.42899 -0.2996,3.07658 -0.8669,4.49214c-1.22417,3.05462 -3.73165,3.54645 -6.16775,2.95153l-1.01459,0.12683l-0.02719,-0.21756c-0.14561,0.06902 -0.29122,0.13803 -0.43682,0.20704l0.03972,-0.59047c-0.05493,-0.02264 -0.10969,-0.0457 -0.16424,-0.06918c-0.01769,-0.00395 -0.03536,-0.00792 -0.05304,-0.01188l-0.2635,0.52701l-1.65932,-0.82966c-0.12567,-0.05957 -0.24226,-0.1352 -0.3471,-0.22423c-1.88634,-0.44988 -3.74183,-0.9145 -5.66888,-1.35445c0,0 -1.54382,-0.35627 -1.18755,-1.90009c0.35627,-1.54382 1.90009,-1.18755 1.90009,-1.18755c2.74033,0.63851 5.29368,1.29686 8.03535,1.90308l0.01825,0.01293l0.002,-0.008l1.65787,0.41446c0.18087,0.04105 0.34999,0.11304 0.50149,0.21011c0.86051,-0.03365 1.64082,-0.19337 1.90765,-1.17258c1.49287,-5.47836 4.15015,-9.97578 5.63904,-15.44324l0.44798,-1.35167c0,0 0.50102,-1.50308 2.00411,-1.00205z" fill="#d3d3d3" stroke="none" stroke-width="0.5"/><path d="M426.60908,207.79536c2.98495,0.74624 6.80248,1.3328 9.39025,3.13315c0.79447,0.55273 -1.3744,4.64711 -1.74625,5.51403c-2.2894,5.33757 -5.38298,11.09214 -6.39147,16.84253c-2.4295,0.09892 -5.32761,-1.11084 -7.61484,-1.80369c-0.10392,-0.03148 -3.4602,-1.03349 -3.81454,-1.45332c-0.46428,-0.55006 0.81732,-1.18993 1.15312,-1.82661c0.99573,-1.88787 2.06731,-3.62962 2.96822,-5.55945c2.26711,-4.85638 3.92163,-9.94842 5.95457,-14.87177z" data-paper-data="{&quot;noHover&quot;:false,&quot;origItem&quot;:[&quot;Path&quot;,{&quot;applyMatrix&quot;:true,&quot;segments&quot;:[[[416.06851,312.0524],[0,0],[-3.20776,7.76851]],[[406.76863,335.38371],[3.57725,-7.66283],[-1.42153,3.04506]],[[402.06622,344.12437],[1.57115,-2.97885],[-0.52986,1.00461]],[[400.24372,347.00332],[-0.73258,-0.86794],[0.55912,0.66244]],[[406.23886,349.27834],[-0.16397,-0.04967],[3.60899,1.09324]],[[418.19363,352.11284],[-3.83349,0.15608],[1.59128,-9.07349]],[[428.20214,325.68187],[-3.61243,8.4221],[0.58673,-1.36791]],[[430.97534,317.00601],[1.25359,0.87214],[-4.08322,-2.84076]],[[416.22699,312.09202],[4.70993,1.17748],[0,0]]],&quot;closed&quot;:true}]}" fill="#d3d3d3" stroke="none" stroke-width="0.5"/><path d="M431.70321,226.45468c-1.12034,1.12034 -2.24067,0 -2.24067,0l-0.43448,-0.49186c-2.46772,-3.94969 -4.75843,-7.98532 -6.6531,-12.23763c0,0 -0.64348,-1.44784 0.80436,-2.09132c1.44784,-0.64349 2.09132,0.80436 2.09132,0.80436c1.82585,4.11934 4.05507,8.02331 6.44455,11.84515l-0.01197,-0.06936c0,0 1.12034,1.12033 0,2.24067z" fill="#e4e4e4" stroke="none" stroke-width="0.5"/><path d="M425.51944,207.4129c0.07464,-0.20282 0.20597,-0.41303 0.41619,-0.62325c1.12034,-1.12034 2.24067,0 2.24067,0l0.10522,0.11442c2.71123,2.27369 6.18987,5.97069 7.36718,9.36744c1.01543,2.92968 1.29754,5.65517 -3.90367,3.77789c-1.00085,-0.36124 -1.25795,-1.72961 -1.72646,-2.68496c-1.39593,-2.84652 -2.93703,-5.42752 -4.54951,-8.24587c0,0 -0.53515,-0.93652 0.05037,-1.70567z" fill="#e4e4e4" stroke="none" stroke-width="0.5"/><path d="M426.50689,207.8336c-2.03294,4.92335 -3.62676,9.93002 -5.89387,14.78639c-0.90091,1.92983 -1.98446,3.65159 -2.98019,5.53946c-0.3358,0.63668 -1.6193,1.27449 -1.15502,1.82456c0.35435,0.41983 3.69555,1.41033 3.79946,1.44181c2.28722,0.69285 5.14692,1.8953 7.57642,1.79639c1.00849,-5.75039 4.05356,-11.41325 6.34297,-16.75082c0.37184,-0.86692 2.55201,-4.94567 1.75754,-5.49839c-2.58777,-1.80035 -6.36192,-2.36804 -9.34688,-3.11428zM425.83685,204.55072c0.3798,-0.05599 0.694,0.02257 0.694,0.02257l0.84501,0.21125c3.08273,0.77068 8.72122,1.52012 10.93337,4.0683c2.02271,2.32996 0.321,4.98908 -0.54156,7.32695c-2.38609,6.46712 -4.95084,13.18504 -7.83563,19.43441c-4.11354,1.12623 -14.37643,-0.20706 -16.50944,-4.7894c-0.60293,-1.29527 2.41069,-5.85712 2.90177,-6.70517c3.4114,-5.89116 5.07204,-12.42518 7.73217,-18.63338c0,0 0.53795,-1.25521 1.78031,-0.93553z" fill="#b3b3b3" stroke="none" stroke-width="0.5"/><path d="M437.4644,220.1382c-0.43831,-0.46874 -0.43831,-1.14142 -0.43831,-1.14142l0.00162,-1.61822c-0.17077,-1.909 -0.59433,-3.68322 -0.8344,-5.57909c0,0 -0.19652,-1.57216 1.37564,-1.76868c1.57216,-0.19652 1.76868,1.37563 1.76868,1.37563c0.24398,1.98063 0.67126,3.82766 0.85562,5.82854l0.00042,0.45318c0.74782,0.50444 0.62273,1.50515 0.62273,1.50515c-0.96966,7.71968 -5.51764,14.26293 -9.28038,20.8698l-0.67781,0.75676c0,0 -0.46668,0.46668 -1.09884,0.49644c-0.45842,0.60137 -1.28901,0.60137 -1.28901,0.60137l-0.59553,-0.0473c-3.67041,-0.92818 -11.99786,-2.56886 -13.71545,-5.9137c-0.72817,-1.41803 -0.57714,-3.39506 -0.58232,-4.9185c0,0 0,-1.58439 1.58439,-1.58439c1.58439,0 1.58439,1.58439 1.58439,1.58439c-0.00395,1.00311 -0.12283,2.52764 0.26269,3.5316c0.48695,1.26809 1.19624,0.74477 2.38277,1.06903c2.42273,0.66211 4.72495,1.7131 7.09521,2.51733c0.14198,-1.29787 0.27741,-2.59645 0.4073,-3.89558c0,0 0.15766,-1.57653 1.73419,-1.41888c1.57653,0.15765 1.41888,1.73418 1.41888,1.73418c-0.07101,0.71007 -0.14386,1.41997 -0.21909,2.12962c3.09612,-5.22692 6.52315,-10.5738 7.6366,-16.56727z" fill="#b3b3b3" stroke="none" stroke-width="0.5"/><path d="M460.78046,235.17286c-0.13527,0.30766 -0.42438,0.63641 -1.04223,0.63641c-1.1612,0 -1.1612,-1.1612 -1.1612,-1.1612l0.02255,-0.47791c0.07599,-0.37059 0.15199,-0.74118 0.22798,-1.11177c-0.30944,-0.91386 -0.04106,-2.19396 0.14166,-3.25374c-0.00001,-0.5046 -0.03067,-0.99332 -0.12105,-1.44177c-0.40424,-2.00572 -2.24501,-4.16963 -0.10271,-6.11599c1.43509,-1.30383 4.69766,-0.64165 6.42827,-1.62067c1.12973,-0.63909 2.87075,-2.87331 4.39341,-2.24984c0.65377,0.26769 0.34878,1.37026 0.56813,2.0418c0.72562,2.22147 1.55568,3.29216 0.68845,5.65452c-0.43752,1.0938 -0.94991,3.31798 -1.75816,4.14259c-1.37106,1.39882 -4.21838,2.11509 -5.8786,3.36025c-0.44868,0.33651 -1.61054,1.26997 -2.40651,1.5973z" fill="#dedac3" stroke="none" stroke-width="0.5"/><path d="M446.00593,217.74085c0.04282,-0.05841 0.09313,-0.11711 0.15184,-0.17582c0.82109,-0.82109 1.64218,0 1.64218,0c1.70067,1.70815 3.67483,3.26391 6.01457,3.96115c1.14024,0.33979 3.66548,0.64296 4.38342,1.71298c0.55797,0.83161 0.1044,2.48327 -0.07309,3.38056c-0.52635,2.66106 0.01158,4.62772 0.02255,7.27778v1.25092c0,0.64131 -0.51989,1.1612 -1.1612,1.1612c-0.26564,0 -0.51045,-0.0892 -0.70611,-0.23928l-0.99135,-0.74351l0.25549,-0.34066c-0.67052,-0.539 -1.28867,-1.15745 -1.88096,-1.76868c-1.2704,-1.31103 -3.59776,-2.24591 -5.12949,-3.39471c-0.84707,-0.6353 -2.88407,-1.74127 -3.34409,-2.6613c-0.79651,-1.59302 -0.12259,-5.2152 -0.12259,-7.02408v-1.25092c0,0 0,-1.00776 0.93882,-1.14564z" fill="#d4d0ba" stroke="none" stroke-width="0.5"/><path d="M458.04219,207.76021c2.74667,2.06 5.36776,4.03633 8.09937,6.08003c0.7735,0.4641 1.49222,1.0225 2.25192,1.50887c0.41316,0.26451 1.62421,0.37641 1.28095,0.7269c-1.1406,1.16462 -3.75126,1.76187 -5.211,2.57193c-1.5516,0.86104 -3.22029,1.6573 -4.78071,2.52323c-0.5514,0.30599 -0.9263,1.25206 -1.54158,1.11386c-1.63495,-0.36723 -4.7319,-2.83783 -6.12966,-3.88614c-2.31483,-0.92593 -3.9974,-3.46122 -6.09165,-4.31922c0.10577,0.03642 0.25655,0.07931 0.33063,0.06215c0.41818,-0.09689 0.81482,-0.28176 1.19822,-0.47482c1.0446,-0.52601 1.53524,-0.94304 2.4347,-1.62259c2.28893,-1.72932 5.1967,-3.20631 7.73563,-4.69356z" data-paper-data="{&quot;noHover&quot;:false,&quot;origItem&quot;:[&quot;Path&quot;,{&quot;applyMatrix&quot;:true,&quot;segments&quot;:[[[469.78459,315.78736],[0,0],[-5.4662,3.20197]],[[453.22175,325.82543],[4.92795,-3.72314],[-1.93648,1.46304]],[[447.98496,329.29685],[2.24898,-1.13247],[-0.82544,0.41565]],[[445.4057,330.31391],[0.90033,-0.20859],[-0.15949,0.03695]],[[444.69384,330.18047],[0.22771,0.07841],[4.50881,1.84722]],[[457.79426,339.42092],[-4.98372,-1.99349],[3.0093,2.25698]],[[470.90171,347.74005],[-3.51997,-0.79062],[1.32468,0.29754]],[[474.1968,345.34589],[-1.18714,0.65878],[3.35951,-1.86431]],[[484.43084,339.95955],[-3.34051,1.85377],[3.14274,-1.74402]],[[495.63707,334.46173],[-2.45566,2.50736],[0.73902,-0.75458]],[[492.87881,332.90229],[0.88951,0.56948],[-1.63559,-1.04712]],[[488.03111,329.67049],[1.66531,0.99919],[-5.88104,-4.39998]],[[470.68982,316.66867],[5.91345,4.43509],[0,0]]],&quot;closed&quot;:true}]}" fill="#e9e5cd" stroke="none" stroke-width="0.5"/><path d="M444.47702,213.97255c1.1612,0 1.1612,1.1612 1.1612,1.1612l-0.08305,0.31929c0.74445,1.86112 0.94345,3.39614 1.32832,5.32051c0.00587,1.41848 -0.60351,4.5657 0.11843,5.82109c0.47539,0.82667 1.93683,1.56708 2.67513,2.1208c2.07458,1.55593 4.07617,3.04064 5.8786,4.86135c0.38043,0.38429 2.6031,2.38592 3.17517,2.1905c0.74716,-0.25523 1.90666,-1.55642 2.56235,-2.04818c2.1357,-1.57806 4.22658,-2.49614 6.13022,-4.39544c0.62439,-0.62296 2.40292,-1.48516 2.78468,-2.20005c0.24771,-0.46387 -0.12398,-2.64741 -0.12259,-3.23345c0.00593,-2.50417 -0.48999,-4.99919 -0.50036,-7.50551c0,0 0,-1.1612 1.1612,-1.1612c1.1612,0 1.1612,1.1612 1.1612,1.1612c-0.01452,2.92138 0.50036,5.81845 0.50036,8.75643c0,0.52051 0.02881,2.71008 -0.12259,3.02114c-0.50557,1.03873 -2.3955,1.97739 -3.21972,2.80362c-1.97597,1.9808 -4.20817,2.95192 -6.37896,4.61117c-0.82553,0.61915 -2.45891,2.27372 -3.44206,2.45513c-1.7431,0.32163 -2.98382,-1.02976 -4.20597,-1.95476c-2.28964,-1.73295 -4.40888,-3.74448 -6.75496,-5.50404c-1.06069,-0.79552 -2.67888,-1.69146 -3.32929,-2.88288c-0.9409,-1.72353 -0.39142,-4.78078 -0.38193,-6.68809c-0.34782,-1.73912 -0.50269,-3.00978 -1.17351,-4.68684l-0.08305,-1.18181c0,0 0,-1.1612 1.1612,-1.1612z" fill="#bebaa7" stroke="none" stroke-width="0.5"/><path d="M457.62032,207.39728c-2.53893,1.48725 -5.40416,2.93315 -7.69309,4.66247c-0.89945,0.67955 -1.38777,1.08639 -2.43238,1.6124c-0.3834,0.19306 -0.77983,0.37552 -1.19801,0.4724c-0.07408,0.01716 -0.22488,-0.02556 -0.33064,-0.06198c2.09425,0.85799 3.77003,3.36606 6.08487,4.29199c1.39776,1.04832 4.45318,3.49683 6.08813,3.86406c0.61529,0.1382 0.9791,-0.80605 1.5305,-1.11204c1.56042,-0.86593 3.2019,-1.6408 4.75349,-2.50184c1.45974,-0.81006 4.06445,-1.389 5.20505,-2.55362c0.34326,-0.35049 -0.86799,-0.45982 -1.28115,-0.72433c-0.7597,-0.48636 -1.47815,-1.037 -2.25165,-1.5011c-2.73162,-2.0437 -5.30799,-3.97906 -8.05466,-6.03907zM458.20263,205.1913c0.48861,-0.00205 0.85558,0.36492 0.85558,0.36492l0.376,0.3925c2.72237,2.04177 5.25922,3.94088 7.9571,5.96974c1.61291,0.96775 4.92472,2.3607 4.47307,4.77972c-0.06008,0.32179 -2.10273,1.94902 -2.55064,2.19986c-2.76744,1.54986 -5.7352,2.71186 -8.50624,4.25312c-1.12859,0.62772 -1.30837,1.51265 -2.97281,1.3898c-0.55626,-0.04106 -0.92268,-0.63177 -1.41738,-0.88943c-1.84941,-0.96328 -3.83196,-1.99834 -5.50404,-3.25239c-2.14896,-0.85958 -5.13013,-2.80379 -6.36447,-4.81888c-0.36559,-0.59684 -1.09268,-1.17239 -0.97112,-1.86167c0.24629,-1.39658 1.92826,-1.65211 2.88518,-2.12696c3.60411,-1.78843 6.9579,-4.37442 10.42628,-6.46024c0,0 0.7288,-0.43728 1.31349,0.05989z" fill="#bebaa7" stroke="none" stroke-width="0.5"/><path d="M458.7375,233.8078c-1.1612,0 -1.1612,-1.1612 -1.1612,-1.1612l0.00565,-1.1365c-0.50169,-2.50844 -0.50602,-5.05969 -0.50602,-7.61993c0,0 0,-1.1612 1.1612,-1.1612c1.1612,0 1.1612,1.1612 1.1612,1.1612c0,2.4871 0.00725,4.95375 0.49472,7.39109l0.00565,1.36534c0,0 0,1.1612 -1.1612,1.1612z" fill="#bebaa7" stroke="none" stroke-width="0.5"/><path d="M458.48731,236.30961c-1.1612,0 -1.1612,-1.1612 -1.1612,-1.1612v-0.25018c0.00379,-0.76181 -0.07459,-1.52782 -0.22763,-2.27411c0,0 -0.22773,-1.13865 0.91092,-1.36638c1.13865,-0.22773 1.36638,0.91092 1.36638,0.91092c0.17568,0.89735 0.26895,1.81519 0.27273,2.72957v0.25018c0,0 0,1.1612 -1.1612,1.1612z" fill="#bebaa7" stroke="none" stroke-width="0.5"/><text transform="translate(367.2704,229.46902) scale(0.5,0.5)" font-size="40" xml:space="preserve" fill="#ffffff" fill-rule="nonzero" stroke="none" stroke-width="1" stroke-linecap="butt" stroke-linejoin="miter" stroke-miterlimit="10" stroke-dasharray="" stroke-dashoffset="0" font-family="Sans Serif" font-weight="normal" text-anchor="start" style="mix-blend-mode: normal"><tspan x="0" dy="0">7</tspan></text><text transform="translate(452.6442,227.76861) scale(0.5,0.5)" font-size="40" xml:space="preserve" fill="#ffffff" fill-rule="nonzero" stroke="none" stroke-width="1" stroke-linecap="butt" stroke-linejoin="miter" stroke-miterlimit="10" stroke-dasharray="" stroke-dashoffset="0" font-family="Sans Serif" font-weight="normal" text-anchor="start" style="mix-blend-mode: normal"><tspan x="0" dy="0">5</tspan></text><text transform="translate(394.75142,229.46901) scale(0.5,0.5)" font-size="40" xml:space="preserve" fill="#ffffff" fill-rule="nonzero" stroke="none" stroke-width="1" stroke-linecap="butt" stroke-linejoin="miter" stroke-miterlimit="10" stroke-dasharray="" stroke-dashoffset="0" font-family="Sans Serif" font-weight="normal" text-anchor="start" style="mix-blend-mode: normal"><tspan x="0" dy="0">3</tspan></text><text transform="translate(422.23246,229.469) scale(0.5,0.5)" font-size="40" xml:space="preserve" fill="#ffffff" fill-rule="nonzero" stroke="none" stroke-width="1" stroke-linecap="butt" stroke-linejoin="miter" stroke-miterlimit="10" stroke-dasharray="" stroke-dashoffset="0" font-family="Sans Serif" font-weight="normal" text-anchor="start" style="mix-blend-mode: normal"><tspan x="0" dy="0">4</tspan></text></g></g></svg>