<svg version="1.1" xmlns="http://www.w3.org/2000/svg" xmlns:xlink="http://www.w3.org/1999/xlink" width="37.24166" height="34.50354" viewBox="0,0,37.24166,34.50354"><g transform="translate(-221.7918,-158.39431)"><g data-paper-data="{&quot;isPaintingLayer&quot;:true}" fill-rule="nonzero" stroke="none" stroke-width="0.5" stroke-linecap="butt" stroke-linejoin="miter" stroke-miterlimit="10" stroke-dasharray="" stroke-dashoffset="0" style="mix-blend-mode: normal"><path d="M239.0267,172.12971l0.12732,-0.00972c1.99163,0.31375 4.07978,0.89269 5.89365,1.74355c4.65615,1.11721 12.55736,3.87216 12.53555,9.42384c0,3.41901 -1.10411,6.76248 -4.86808,7.9763c-1.75744,0.56675 -3.97414,0.09322 -5.77978,0.09322c-6.20386,0 -12.4024,-0.71162 -18.49848,-1.64245c-1.27424,-0.45165 -3.3619,-0.72494 -4.21639,-1.86621c-2.36726,-3.16172 0.07246,-7.75704 1.76068,-10.56171c0.85484,-1.00584 1.3743,-2.31148 2.38699,-3.19113c2.28894,-1.98823 6.90276,-2.45696 10.09295,-2.18261c0.22214,0.2173 0.56558,0.21693 0.56558,0.21693z" data-paper-data="{&quot;noHover&quot;:false,&quot;origItem&quot;:[&quot;Path&quot;,{&quot;applyMatrix&quot;:true,&quot;segments&quot;:[[[475.4407,341.74103],[0.44427,0.4598],[-6.38038,-0.58049]],[[455.31947,346.31655],[4.57787,-4.20696],[-2.02538,1.86128]],[[450.55749,353.044],[1.70968,-2.12828],[-3.37643,5.93449]],[[447.03376,375.32376],[-4.73452,-6.68997],[1.70897,2.41482]],[[455.45536,379.252],[-2.54847,-0.95567],[12.19216,1.96955]],[[492.3169,382.70083],[-12.40772,0],[3.61126,0]],[[503.85303,382.52435],[-3.51489,1.1992],[7.52794,-2.56836]],[[513.5669,365.70083],[0,7.23438],[0.04362,-11.74696]],[[488.54648,345.85765],[9.31229,2.36394],[-3.62774,-1.80034]],[[476.8203,342.18042],[3.98326,0.66388],[0,0]],[476.5669,342.20083]],&quot;closed&quot;:true}]}" fill="#c4c493"/><path d="M226.01106,185.23754c0.1819,0.68774 -0.5457,0.85968 -0.5457,0.85968l-0.5586,0.12967c-0.53586,0.0828 -1.08033,0.12618 -1.6233,0.12779c0,0 -0.75,0 -0.75,-0.70891c0,-0.70891 0.75,-0.70891 0.75,-0.70891c0.46049,0.00162 0.92275,-0.03538 1.3767,-0.1085l0.4414,-0.10664c0,0 0.7276,-0.17193 0.9095,0.5158z" fill="#9c9c75"/><path d="M224.15846,180.68343c0,-0.39153 0.33578,-0.70891 0.75,-0.70891c0.41422,0 0.75,0.31738 0.75,0.70891c0,0.39153 -0.33578,0.70891 -0.75,0.70891c-0.41422,0 -0.75,-0.31738 -0.75,-0.70891z" fill="#9c9c75"/><path d="M229.13607,175.89301c-0.1819,0.68774 -0.9095,0.5158 -0.9095,0.5158l-0.3181,-0.09699c-0.25,0 -0.5,0 -0.75,0c0,0 -0.75,0 -0.75,-0.70891c0,-0.70891 0.75,-0.70891 0.75,-0.70891c0.25,0 0.5,0 0.75,0l0.6819,0.13931c0,0 0.72761,0.17194 0.5457,0.85968z" fill="#9c9c75"/><path d="M227.40846,187.18176c0.75,0 0.75,0.70891 0.75,0.70891c0,0.27568 0,1.14214 0,1.41782c0,0 0,0.70891 -0.75,0.70891c-0.75,0 -0.75,-0.70891 -0.75,-0.70891c0,-0.27568 0,-0.55138 0,-0.82706v-0.59076c0,0 0,-0.70891 0.75,-0.70891z" fill="#9c9c75"/><path d="M243.72656,191.88664c-0.72761,-0.17193 -0.5457,-0.85968 -0.5457,-0.85968l0.1026,-0.30066c0,-0.2363 0,-0.47261 0,-0.70891c0,0 0,-0.70891 0.75,-0.70891c0.75,0 0.75,0.70891 0.75,0.70891c0,0.2363 0,0.47261 0,0.70891l-0.14739,0.64454c0,0 -0.1819,0.68774 -0.9095,0.5158z" fill="#9c9c75"/><path d="M252.61744,188.83678c0.62404,-0.39323 1.04006,0.19662 1.04006,0.19662l0.09448,0.19412c0.20834,0.15753 0.41666,0.31508 0.625,0.47261c0,0 0.58565,0.44286 0.11713,0.99642c-0.46852,0.55356 -1.05417,0.11071 -1.05417,0.11071c-0.20834,-0.15753 -0.41666,-0.31508 -0.625,-0.47261l-0.40552,-0.51479c0,0 -0.41603,-0.58985 0.20801,-0.98308z" fill="#9c9c75"/><path d="M255.28346,184.58243c0,-0.70891 0.75,-0.70891 0.75,-0.70891l-0.16602,0.11906c0.508,-0.31906 1.03554,-0.61261 1.58061,-0.87128c0,0 0.67082,-0.31703 1.00623,0.31703c0.33541,0.63407 -0.33541,0.9511 -0.33541,0.9511c-0.4904,0.23071 -0.96412,0.49489 -1.41938,0.78284l-0.66603,0.11907c0,0 -0.75,0 -0.75,-0.70891z" fill="#9c9c75"/><path d="M253.25313,178.93983c-0.53033,-0.50127 0,-1.00255 0,-1.00255l0.03033,0.26497c0,-0.2363 0,-0.47261 0,-0.70891c0,0 0,-0.70891 0.75,-0.70891c0.75,0 0.75,0.70891 0.75,0.70891c0,0.2363 0,0.47261 0,0.70891l-0.46967,0.73758c0,0 -0.53033,0.50127 -1.06066,0z" fill="#9c9c75"/><path d="M238.47036,171.95923c-3.19019,-0.27434 -7.77168,0.17418 -10.06061,2.16242c-1.01269,0.87965 -1.52615,2.17359 -2.38099,3.17942c-1.68822,2.80467 -4.12912,7.36781 -1.76187,10.52953c0.85449,1.14126 2.93657,1.40486 4.2108,1.85651c6.09608,0.93082 12.22691,1.62993 18.43077,1.62993c1.80563,0 4.01062,0.48334 5.76807,-0.08341c3.76397,-1.21382 4.85694,-4.53188 4.85694,-7.95089c0.02181,-5.55168 -7.85407,-8.26078 -12.51021,-9.37799c-1.81387,-0.85085 -3.87146,-1.42412 -5.86309,-1.73787l-0.1267,0.00964c0,0 -0.34096,0 -0.5631,-0.2173zM239.97177,170.86334c1.90008,0.3396 3.85826,0.89533 5.5719,1.71168c5.41825,1.25852 13.469,4.46342 13.48979,10.70774c0,4.00194 -1.48842,7.93712 -5.89307,9.2992c-1.96168,0.60662 -4.22136,0.15291 -6.23194,0.15291c-6.32334,0 -12.61071,-0.67636 -18.81923,-1.67831c-1.68159,-0.59604 -3.88847,-0.92597 -5.0392,-2.39694c-2.84123,-3.63194 -0.25798,-8.86711 1.73813,-12.15552c0.9288,-1.10165 1.49782,-2.48139 2.61901,-3.43704c2.8793,-2.45418 8.45761,-2.90511 12.10735,-2.41936c0,0 0.26639,0.03597 0.45725,0.21565z" fill="#878765"/><path d="M248.35899,166.51759c-0.91739,-0.11287 -1.81788,-0.02821 -2.73502,-0.10106c-0.37766,2.93057 -2.07369,5.12813 -6.58137,3.84913c-0.95909,-0.27213 -1.72285,-0.91781 -2.45547,-1.51128c-0.86668,-1.27343 -1.25867,-2.23576 -1.18878,-3.33392c-0.07345,0.00271 -0.12171,-0.00306 -0.12171,-0.00306c-0.87365,-0.10445 -2.22813,-0.26639 -3.2166,-0.38457c-0.41897,2.38415 -0.07093,4.853 1.40439,7.03956c1.43566,2.18638 6.37382,4.05678 9.14553,3.31647c2.10522,-0.56229 3.12678,-2.12391 4.25199,-3.67872c1.1002,-1.51949 1.68851,-3.34633 1.87984,-5.21008zM248.54229,165.14782l0.27034,-0.02448c0.00107,-0.63268 -0.04028,-1.26195 -0.11955,-1.87728c-0.12379,-0.96086 -2.54575,-2.46812 -3.35128,-1.66873c0.22361,1.10222 0.37254,2.30438 0.36824,3.46216c0.94751,0.09234 1.87919,-0.00281 2.83225,0.10834zM234.83988,163.97348l0.62006,0.07413c0,0 0.09407,0.01125 0.2112,0.05653c0.07771,-0.23678 0.17148,-0.48421 0.28124,-0.74526c0.30934,-0.73573 0.75957,-2.23919 1.79484,-2.24594c0.2658,-0.00173 -0.54065,-0.06451 -0.77321,-0.18454c-0.93505,-0.4826 -1.67859,-0.80445 -2.71267,-1.09264l-0.02683,-0.00219c-0.80623,1.18186 -1.4475,2.48781 -1.85326,3.84597c0.81955,0.09798 1.63908,0.19597 2.45863,0.29395zM234.09456,158.4418c0.0606,-0.00095 0.09913,0.00366 0.09913,0.00366l0.49311,0.06842c1.27339,0.35488 4.72267,1.22087 4.51922,2.92716c-0.0119,0.09976 -1.48411,1.45563 -1.65867,1.79562c-0.93617,1.82329 -0.92811,2.91474 0.18057,4.62829c0.75436,0.59053 1.36941,1.03105 2.36007,1.14299c0.76029,0.08591 1.92678,0.44916 2.68023,0.26492c2.95774,-0.72324 1.14722,-6.59276 1.17969,-8.21296c1.52932,-1.34944 5.3109,-0.9632 6.05553,1.21296c1.07914,3.15371 0.01699,7.57188 -1.89241,10.20899c-1.31439,1.8144 -2.64859,3.64887 -5.12426,4.24623c-3.48281,0.84036 -8.96935,-1.22384 -10.79888,-3.93893c-2.9586,-4.48906 -1.93507,-9.95981 1.0416,-14.0743c0,0 0.3388,-0.46793 0.86508,-0.27303z" fill="#757575"/><path d="M245.66171,165.21589c0.00841,-1.18844 -0.14014,-2.49487 -0.35995,-3.62556c0.8087,-0.82311 3.30986,0.74831 3.4303,1.73421c0.07713,0.63137 0.09969,1.31548 0.09638,1.9649l-0.27403,0.02868c-0.95307,-0.11106 -1.94512,-0.01044 -2.8927,-0.10222z" data-paper-data="{&quot;noHover&quot;:false,&quot;origItem&quot;:[&quot;Path&quot;,{&quot;applyMatrix&quot;:true,&quot;segments&quot;:[[[495.58456,327.32855],[-1.90612,-0.23517],[0,0]],[[496.12524,327.27675],[0,0],[0.00213,-1.3387]],[[495.88614,323.30455],[0.15855,1.302],[-0.24758,-2.03311]],[[489.18359,319.77363],[1.61105,-1.69147],[0.44722,2.33222]],[[489.92007,327.09932],[0.0086,-2.44978],[1.89501,0.19539]]],&quot;closed&quot;:true}]}" fill="#a3a3a3"/><path d="M232.32026,163.85035c0.41073,-1.39539 1.08055,-2.8082 1.8913,-4.0239l0.02729,0.002c1.03349,0.29254 1.83602,0.63954 2.76975,1.13197c0.23223,0.12247 1.04346,0.19327 0.77754,0.19589c-1.03573,0.0102 -1.51457,1.61281 -1.82664,2.369c-0.11073,0.26831 -0.2182,0.52713 -0.29677,0.77042c-0.11702,-0.04612 -0.2153,-0.05664 -0.2153,-0.05664l-0.63406,-0.07418c-0.81955,-0.09798 -1.67355,-0.21657 -2.4931,-0.31455z" data-paper-data="{&quot;noHover&quot;:false,&quot;origItem&quot;:[&quot;Path&quot;,{&quot;applyMatrix&quot;:true,&quot;segments&quot;:[[[468.17974,324.84374],[-1.63909,-0.20732],[0,0]],[469.41986,325.0006],[[469.84227,325.12022],[-0.23426,-0.09582],[0.15542,-0.50099]],[[470.40475,323.5433],[-0.21951,0.55236],[0.61867,-1.55676]],[[473.99442,318.79104],[-2.07053,0.01427],[0.5316,-0.00366]],[[472.448,318.40056],[0.46512,0.25398],[-1.87009,-1.02115]],[[467.02266,316.08862],[2.06816,0.60978],[0,0]],[[466.96899,316.08397],[0,0],[-1.61245,2.50074]],[[463.26248,324.22177],[0.81151,-2.87375],[1.63909,0.20732]]],&quot;closed&quot;:true}]}" fill="#a3a3a3"/><path d="M232.01842,162.65753c0.11742,0.09356 0.19243,0.19266 0.2373,0.29134c1.30114,0.08751 3.56583,0.06046 4.37818,0.75582c1.21148,1.03702 0.38619,2.8363 1.27865,4.0139c0.86535,1.14182 3.01673,0.8796 4.31287,1.08143c2.02054,-0.75021 1.72239,-3.01126 3.07935,-4.05257c0.2385,-0.18302 1.55256,-0.21955 1.95417,-0.23868c0.49635,-0.02365 2.44837,-0.13406 2.77161,0.18315c1.66623,1.63519 -0.01337,6.63615 -0.81646,8.30202c-0.93664,1.41922 -2.13495,3.53099 -3.61651,4.39546c-3.57008,2.08308 -8.91513,-0.13359 -11.89876,-2.16961c-1.00798,-1.04967 -2.53397,-1.92986 -3.08447,-3.34821c-0.90349,-2.32787 -0.59362,-5.66617 -0.26656,-8.11019l0.61494,-0.96564c0,0 0.4699,-0.60494 1.05569,-0.13823zM231.77052,164.4438c-0.27065,2.16447 -0.4673,4.86915 0.24811,6.85879c0.40088,1.1149 1.87517,1.90988 2.65331,2.73469c2.57067,1.71572 7.13572,3.68141 10.22028,2.01687c1.20099,-0.6481 2.26883,-2.67093 3.02474,-3.80538c0.50709,-1.06457 1.76665,-6.26622 0.82939,-6.16182c-0.3747,0.04173 -2.33362,-0.32481 -2.5329,-0.14052c-0.18347,0.16966 -0.53009,1.70219 -0.77396,2.04371c-0.76833,1.07594 -1.88042,1.89622 -3.06982,2.32787c-1.87453,-0.18198 -4.4074,-0.00847 -5.65301,-1.65204c-0.49765,-0.65665 -0.53114,-3.43874 -0.96402,-3.70711c-0.82543,-0.51171 -2.89593,-0.41264 -3.98212,-0.51505z" fill="#c20000"/><path d="M235.72394,164.91768c0.43288,0.26836 0.53642,3.11955 1.03407,3.7762c1.24561,1.64357 3.78672,1.4342 5.66125,1.61618c1.1894,-0.43165 2.20638,-1.22192 2.9747,-2.29786c0.24387,-0.3415 0.6768,-1.92644 0.86026,-2.09609c0.19929,-0.18428 2.16237,0.1893 2.53707,0.14757c0.93726,-0.10439 -0.31817,5.12967 -0.82526,6.19425c-0.75591,1.13445 -1.83816,3.18422 -3.03915,3.83231c-3.08456,1.66454 -7.72688,-0.30966 -10.29755,-2.02538c-0.77813,-0.82482 -2.25982,-1.6437 -2.6607,-2.7586c-0.71541,-1.98964 -0.50803,-4.72884 -0.23738,-6.89331c1.0862,0.10241 3.16725,-0.00699 3.99268,0.50472z" data-paper-data="{&quot;noHover&quot;:false,&quot;origItem&quot;:[&quot;Path&quot;,{&quot;applyMatrix&quot;:true,&quot;segments&quot;:[[[462.04101,325.8389],[2.17239,0.21669],[-0.5413,4.57985]],[[462.53723,340.35163],[-1.43082,-4.20995],[0.80176,2.35903]],[[467.84385,346.13806],[-1.55627,-1.74526],[5.14134,3.63034]],[[488.2844,350.40562],[-6.16912,3.52205],[2.40198,-1.37133]],[[494.33389,342.3537],[-1.51182,2.40041],[1.01418,-2.25257]],[[495.99266,329.31572],[1.87452,-0.22089],[-0.74939,0.08831]],[[490.92686,329.01838],[0.39857,-0.38993],[-0.36693,0.35898]],[[489.37895,333.34271],[0.48774,-0.72261],[-1.53665,2.27662]],[[483.23931,338.26831],[2.3788,-0.91334],[-3.74906,-0.38507]],[[471.9333,334.7727],[2.49121,3.47768],[-0.9953,-1.38942]],[[470.00526,326.92872],[0.86576,0.56783],[-1.65086,-1.08275]]],&quot;closed&quot;:true}]}" fill="#df0000"/><path d="M228.93345,174.37415c-0.45,-0.56713 0.15,-0.99247 0.15,-0.99247l0.71283,-0.45985c0.01929,-0.00608 0.03857,-0.01216 0.05786,-0.01823c-0.02332,-0.03243 -0.04656,-0.06494 -0.06973,-0.09752c0,0 -0.41603,-0.58985 0.20801,-0.98308c0.62404,-0.39323 1.04006,0.19662 1.04006,0.19662c0.95049,1.36059 2.0499,2.58062 3.28971,3.58795c0.0283,-0.00306 0.05708,-0.00464 0.08625,-0.00464c0.04688,0 0.09274,0.00406 0.13724,0.01184l0.73606,0.11596l-0.05043,0.28602c2.08184,0.24926 4.31623,1.40823 6.34945,1.85002c1.22689,0.26659 1.82141,-0.3908 2.74867,-0.36947c0.1889,0.00434 0.35246,0.02062 0.4955,0.04776c0.59008,-0.5795 1.16029,-1.25379 1.67819,-1.73449c0.62596,-0.58099 1.44167,-0.91841 2.26141,-1.23148l0.30393,-0.3591c0.13732,-0.16512 0.35055,-0.27117 0.58998,-0.27117c0.41422,0 0.75,0.31738 0.75,0.70891c0,0.11907 -0.03105,0.23127 -0.08592,0.32979l-0.36826,0.69615c-0.34841,0.63086 -0.71593,1.00428 -1.1543,1.28872c0.16189,0.12835 0.30326,0.3444 0.21108,0.69291c-0.1819,0.68774 -0.9095,0.5158 -0.9095,0.5158l-0.1948,-0.10663c-0.25,0.03938 -0.5,0.07877 -0.75,0.11815c0,0 -0.22929,0.03612 -0.45385,-0.05252c-0.16527,0.2606 -0.23315,0.58396 -0.409,0.88039l0.26988,0.21647c0,0 0.53033,0.50127 0,1.00255c-0.53033,0.50127 -1.06066,0 -1.06066,0l-0.4652,-0.47709c-0.38133,0.06708 -0.82024,0.09575 -1.24563,0.11691c-0.00706,0.0004 -0.01413,0.00075 -0.02121,0.00105c-0.4893,0.0241 -0.95909,0.03893 -1.30076,0.09173c-1.74874,0.0052 -3.38084,-0.30193 -4.89044,-0.8632c-0.08354,0.15792 -0.16707,0.31583 -0.2506,0.47374l-0.6298,0.50911c0,0 -0.62404,0.39324 -1.04006,-0.19661c-0.41602,-0.58985 0.20801,-0.98308 0.20801,-0.98308l0.1202,0.03651c0.07161,-0.13536 0.1432,-0.27073 0.21481,-0.40609c-0.30581,-0.12024 -0.6065,-0.28791 -0.90216,-0.52176c-1.7002,-1.00172 -3.20955,-2.34317 -4.51708,-3.91536c-0.17086,0.05383 -0.34171,0.10767 -0.51257,0.1615l-0.28717,0.24905c0,0 -0.6,0.42534 -1.05,-0.14178z" fill="#878765"/><path d="M230.78346,174.18511c0,-0.17957 0.07064,-0.34355 0.18708,-0.46846c-0.20523,-0.00526 -0.44576,-0.08951 -0.6079,-0.39602c-0.33541,-0.63407 0.33541,-0.9511 0.33541,-0.9511c0.45027,-0.21183 0.88835,-0.44884 1.30903,-0.70952c-0.07536,-0.64593 -0.10519,-1.22412 -0.01827,-1.8465h-0.20535v-0.82706c0,-0.39153 0.33578,-0.70891 0.75,-0.70891c0.33738,0 0.62273,0.21056 0.71698,0.50023l0.24453,0.6934l-0.01563,0.00493l0.0269,0.03002c0.02266,0.09767 0.049,0.19438 0.07683,0.28959c0.10808,-0.26601 0.38091,-0.45482 0.70038,-0.45482c0.41422,0 0.75,0.31738 0.75,0.70891c0,0.39153 -0.33578,0.70891 -0.75,0.70891c-0.08811,0 -0.17268,-0.01436 -0.25122,-0.04075c0.00081,0.01348 0.00122,0.02707 0.00122,0.04075c0,0.03822 -0.0032,0.07574 -0.00936,0.11232l-0.12162,0.80467c-0.00179,0.01337 -0.00398,0.02665 -0.00655,0.03978l-0.11557,0.65543c0.0211,0.02952 0.03991,0.06062 0.05618,0.09307l0.04098,0.07745c0.08845,-0.15037 0.23309,-0.26714 0.40711,-0.32497c-0.00078,-0.01322 -0.00117,-0.02654 -0.00117,-0.03994c0,-0.39153 0.33578,-0.70891 0.75,-0.70891c0.41422,0 0.75,0.31738 0.75,0.70891c0,0.09133 -0.01827,0.17861 -0.05154,0.25879c0.13419,0.09477 0.23369,0.23099 0.27724,0.38859l0.13343,0.44142c0.39715,-0.33858 0.94001,-0.55933 1.29202,-0.44823c0.23653,0.07465 0.5643,0.9431 0.84884,1.82765v-0.10518v0c0,-0.39153 0.33578,-0.70891 0.75,-0.70891c0.26087,0 0.49063,0.12589 0.625,0.3169c0.13437,-0.19102 0.36413,-0.3169 0.625,-0.3169c0.41422,0 0.75,0.31738 0.75,0.70891c0,0.39153 -0.33578,0.70891 -0.75,0.70891c-0.14786,0 -0.28574,-0.04046 -0.40191,-0.11028l0.01937,0.12817l-0.06721,0.00907c0.1282,0.27975 0.22904,0.56707 0.31321,0.90646c0.21212,0.07805 0.435,0.2266 0.58859,0.40735c0.08405,-0.16096 0.23084,-0.28742 0.41017,-0.35083c-0.146,-0.12934 -0.23723,-0.31327 -0.23723,-0.51733c0,-0.36848 0.29742,-0.6713 0.67773,-0.70567l-0.0402,-0.22798c-0.00823,-0.04206 -0.01253,-0.08541 -0.01253,-0.12972c0,-0.25185 0.13894,-0.47301 0.34832,-0.59877l-0.08895,-0.58857c-0.00616,-0.03658 -0.00936,-0.0741 -0.00936,-0.11232c0,-0.39153 0.33578,-0.70891 0.75,-0.70891c0.17942,0 0.34411,0.05955 0.47319,0.15887l0.62034,0.46907l-0.08521,0.10068c0.3063,0.19646 0.52674,0.415 0.76808,0.73024c0.12913,-0.09952 0.294,-0.1592 0.47361,-0.1592c0.38198,0 0.69727,0.26991 0.74402,0.61897l0.06513,0.43094l0.1382,-0.05443c0.02462,-0.04892 0.05501,-0.09477 0.09032,-0.13673l-0.09551,-0.21064c-0.04314,-0.08947 -0.06717,-0.18891 -0.06717,-0.29366c0,-0.39153 0.33578,-0.70891 0.75,-0.70891c0.17942,0 0.34411,0.05955 0.47319,0.15887l0.14108,0.10668c-0.08964,-0.21591 -0.16852,-0.4285 -0.21715,-0.56728l0.01128,-0.058l-0.02319,0.00366l-0.12268,-0.69573c-0.00823,-0.04206 -0.01253,-0.08541 -0.01253,-0.12972c0,-0.39153 0.33578,-0.70891 0.75,-0.70891c0.23943,0 0.45267,0.10605 0.58998,0.27117l0.49567,0.58564l-0.01754,0.01326c0.40473,0.33313 0.63091,0.78068 0.46493,1.59675c-0.01791,0.08806 -0.09861,0.11894 -0.20364,0.12094c0.01941,0.05462 0.03778,0.10636 0.05472,0.15405c0.10627,0.05308 0.20003,0.10982 0.25488,0.16541l0.5741,0.43412c0.17469,0.1298 0.28689,0.33134 0.28689,0.55766c0,0.15432 -0.05217,0.29714 -0.14075,0.41353c0.08858,0.11639 0.14075,0.25921 0.14075,0.41353c0,0.39153 -0.33578,0.70891 -0.75,0.70891c-0.15759,0 -0.30384,-0.04595 -0.42455,-0.12444l-0.70669,-0.44532c-0.16418,-0.04871 -0.31452,-0.24725 -0.45395,-0.40144c-0.01988,0.03588 -0.04291,0.06995 -0.06876,0.10187c0.01223,0.07545 0.02207,0.15138 0.02985,0.22768l0.09525,-0.02572l0.24524,0.81131c0.02185,0.06651 0.03361,0.13721 0.03361,0.2105c0,0.39153 -0.33578,0.70891 -0.75,0.70891c-0.19444,0 -0.3716,-0.06994 -0.50485,-0.18466c-0.03199,0.21264 -0.19476,0.44139 -0.60652,0.61328c0.14551,0.1293 0.23637,0.31291 0.23637,0.51659c0,0.39153 -0.33578,0.70891 -0.75,0.70891c-0.41422,0 -0.75,-0.31738 -0.75,-0.70891c0,-0.19814 0.08601,-0.37731 0.22466,-0.50594c-0.37287,-0.18611 -0.80688,-0.53134 -1.11178,-0.90242c-0.02685,0.13964 -0.09697,0.265 -0.19675,0.36325c0.05529,0.23143 0.07638,0.44968 0.06374,0.69066h0.14513v0.70891c0,0.39153 -0.33578,0.70891 -0.75,0.70891c-0.17942,0 -0.34411,-0.05955 -0.47319,-0.15887l-0.62033,-0.46908l0.01682,-0.01988l-0.07863,-0.03242c-0.34071,-0.40052 -0.97591,-0.87867 -1.0788,-1.3008c-0.17992,-0.06369 -0.35918,-0.12839 -0.52608,-0.21213c-0.13562,0.18306 -0.36041,0.30275 -0.61479,0.30275c-0.28963,0 -0.54092,-0.15518 -0.66587,-0.38238c-0.13748,0.16114 -0.34806,0.26422 -0.58413,0.26422c-0.25547,0 -0.4811,-0.12073 -0.61653,-0.30512l-0.47814,0.45194c-0.08891,0.08404 -0.20002,0.14707 -0.32432,0.18055c-0.00727,0.00919 -0.01466,0.01827 -0.02217,0.02726l-0.03015,0.02695l0.00163,0.00154l-0.75,0.70891c-0.13573,0.12829 -0.32323,0.20763 -0.53033,0.20763c-0.22348,0 -0.42413,-0.09238 -0.56153,-0.23896l-0.03314,0.03132c-0.13573,0.12829 -0.32323,0.20763 -0.53033,0.20763c-0.41422,0 -0.75,-0.31738 -0.75,-0.70891c0,-0.0443 0.0043,-0.08766 0.01253,-0.12972l0.12268,-0.69573l0.19913,0.03137c0.02966,-0.30957 0.09806,-0.61193 0.22276,-0.89502c0.0043,-0.00975 0.10016,-0.3499 0.22381,-0.68926c-0.05029,0.01005 -0.10244,0.01533 -0.1559,0.01533c-0.03352,0 -0.06654,-0.00208 -0.0989,-0.00611c-0.42518,0.11858 -0.92348,0.16988 -1.2186,0.10051c-0.59764,-0.14048 -1.38274,-0.86539 -1.66341,-1.63059c-0.00635,0.00015 -0.01271,0.00023 -0.01909,0.00023c-0.41422,0 -0.75,-0.31738 -0.75,-0.70891zM231.84047,173.49492c0.06441,-0.05608 0.12879,-0.10121 0.19306,-0.13687c-0.00002,0 -0.00004,0 -0.00006,0c-0.0332,0 -0.06589,-0.00204 -0.09795,-0.00599c-0.08698,0.04636 -0.17446,0.09185 -0.26245,0.1364c0.04635,0.00824 0.09119,0.02053 0.13411,0.03643c0.01083,-0.01008 0.02193,-0.02007 0.0333,-0.02997zM233.4247,175.00946c0.05211,0.06017 0.10939,0.11151 0.17627,0.14461c0.04534,0.02244 0.10709,0.01389 0.1825,-0.01533v-0.01634c-0.10265,-0.01482 -0.22929,-0.05678 -0.35876,-0.11292z" fill="#922323"/><path d="M236.53346,171.70393c0,-0.39153 0.33578,-0.70891 0.75,-0.70891c0.41422,0 0.75,0.31738 0.75,0.70891c0,0.39153 -0.33578,0.70891 -0.75,0.70891c-0.41422,0 -0.75,-0.31738 -0.75,-0.70891z" fill="#922323"/><path d="M243.65846,171.34948c0,-0.39153 0.33578,-0.70891 0.75,-0.70891c0.41422,0 0.75,0.31738 0.75,0.70891c0,0.39153 -0.33578,0.70891 -0.75,0.70891c-0.41422,0 -0.75,-0.31738 -0.75,-0.70891z" fill="#922323"/><path d="M247.90846,178.32041c0,-0.39153 0.33578,-0.70891 0.75,-0.70891c0.41422,0 0.75,0.31738 0.75,0.70891c0,0.39153 -0.33578,0.70891 -0.75,0.70891c-0.41422,0 -0.75,-0.31738 -0.75,-0.70891z" fill="#922323"/><path d="M232.15846,177.25705c0,-0.39153 0.33578,-0.70891 0.75,-0.70891c0.41422,0 0.75,0.31738 0.75,0.70891c0,0.39153 -0.33578,0.70891 -0.75,0.70891c-0.41422,0 -0.75,-0.31738 -0.75,-0.70891z" fill="#922323"/><path d="M236.53346,174.30326c0.41422,0 0.75,0.31738 0.75,0.70891c0,0.39153 -0.33578,0.70891 -0.75,0.70891c-0.09756,0 -0.19077,-0.01761 -0.27627,-0.04965c-0.04142,0.14379 -0.12951,0.2694 -0.24796,0.36138c-0.35048,0.48099 -0.93618,0.20418 -0.93618,0.20418l-0.50024,-0.30937c-0.53204,-0.62971 -0.96298,-1.26368 -1.56968,-1.832c0,0 -0.00627,-0.00593 -0.01677,-0.01715c-0.10632,0.26931 -0.38092,0.46108 -0.7029,0.46108c-0.41422,0 -0.75,-0.31738 -0.75,-0.70891c0,-0.37939 0.3153,-0.68916 0.71173,-0.708c-0.2029,-0.12688 -0.33673,-0.34449 -0.33673,-0.59166c0,-0.39153 0.33578,-0.70891 0.75,-0.70891c0.41422,0 0.75,0.31738 0.75,0.70891c0,0.13879 -0.04219,0.26824 -0.11511,0.37756c0.41775,-0.14884 0.77044,0.18452 0.77044,0.18452c0.44488,0.42372 0.80546,0.87184 1.17349,1.32965c0.01528,-0.00088 0.03067,-0.00132 0.04618,-0.00132c0.23606,0 0.44664,0.10308 0.58413,0.26422c0.12496,-0.22719 0.37625,-0.38238 0.66587,-0.38238zM232.69674,173.23899c0.04515,0.02824 0.08689,0.06097 0.12449,0.09752c0.02072,-0.04469 0.04817,-0.09006 0.08356,-0.13573c-0.06567,0.02158 -0.1355,0.03477 -0.20805,0.03821z" fill="#a62828"/><path d="M240.53346,176.54814c0,0.70891 -0.75,0.70891 -0.75,0.70891h-0.75c0,0 -0.47272,0 -0.66757,-0.35474c-0.10288,0.27549 -0.38076,0.47289 -0.70743,0.47289c-0.41422,0 -0.75,-0.31738 -0.75,-0.70891c0,-0.39153 0.33578,-0.70891 0.75,-0.70891c0.2816,0 0.52695,0.14669 0.65519,0.36363c0.14006,-0.48178 0.71981,-0.48178 0.71981,-0.48178h0.75c0,0 0.75,0 0.75,0.70891z" fill="#a62828"/><path d="M244.0325,177.53212c-0.41602,0.58985 -1.04006,0.19661 -1.04006,0.19661l-0.42749,-0.27258c-0.46632,-0.35265 -0.92783,-0.71098 -1.38662,-1.07233c0,0 -0.57617,-0.45383 -0.09602,-0.99844c0.48014,-0.5446 1.0563,-0.09077 1.0563,-0.09077c0.45108,0.35533 0.90484,0.7077 1.36338,1.05439l0.32251,0.20002c0,0 0.03646,0.02298 0.08589,0.06616c0.02769,-0.36768 0.35204,-0.65782 0.74808,-0.65782c0.06574,0 0.1295,0.00799 0.19027,0.02302c-0.08351,-0.08699 -0.15005,-0.20886 -0.18006,-0.37908c-0.1233,-0.69926 0.61649,-0.8158 0.61649,-0.8158c0.25,-0.03938 0.5,-0.07877 0.75,-0.11815l0.2483,-0.00965c0,0 0.75,0 0.75,0.70891c0,0.70891 -0.75,0.70891 -0.75,0.70891l-0.0017,-0.00964c-0.25,0.03938 -0.5,0.07877 -0.75,0.11815c0,0 -0.15883,0.02502 -0.34155,-0.01768c0.13489,0.12818 0.21825,0.30486 0.21825,0.49994c0,0.39153 -0.33578,0.70891 -0.75,0.70891c-0.18635,0 -0.35683,-0.06424 -0.488,-0.17057c-0.01349,0.10033 -0.05509,0.21002 -0.13796,0.32751z" fill="#a62828"/><path d="M247.15846,174.30326c0,-0.39153 0.33578,-0.70891 0.75,-0.70891c0.41422,0 0.75,0.31738 0.75,0.70891c0,0.39153 -0.33578,0.70891 -0.75,0.70891c-0.41422,0 -0.75,-0.31738 -0.75,-0.70891z" fill="#a62828"/><path d="M230.12813,183.01779c0.53033,-0.50127 1.06066,0 1.06066,0l0.625,0.59076c0,0 0.53033,0.50127 0,1.00255c-0.53033,0.50127 -1.06066,0 -1.06066,0l-0.625,-0.59076c0,0 -0.53033,-0.50127 0,-1.00255z" fill="#9c9c75"/><path d="M247.53346,184.46428c0,0.70891 -0.75,0.70891 -0.75,0.70891l-0.0017,-0.00964c-0.25,0.03938 -0.5,0.07877 -0.75,0.11815c0,0 -0.73979,0.11654 -0.86309,-0.58272c-0.1233,-0.69926 0.61649,-0.8158 0.61649,-0.8158c0.25,-0.03938 0.5,-0.07877 0.75,-0.11815l0.2483,-0.00965c0,0 0.75,0 0.75,0.70891z" fill="#9c9c75"/><path d="M247.74411,190.46024c-0.46852,0.55356 -1.05417,0.11071 -1.05417,0.11071l-0.625,-0.47261c0,0 -0.58565,-0.44286 -0.11713,-0.99642c0.46852,-0.55356 1.05417,-0.11071 1.05417,-0.11071l0.625,0.47261c0,0 0.58565,0.44286 0.11713,0.99642z" fill="#9c9c75"/><path d="M234.03256,181.42145c-0.1872,-0.08876 -0.3741,-0.26598 -0.3741,-0.61987c0,-0.70891 0.75,-0.70891 0.75,-0.70891l0.79582,0.39187c0.21698,0.41589 0.48115,0.81342 0.78983,1.17384c0,0 0.46852,0.55357 -0.11713,0.99642c-0.58565,0.44285 -1.05417,-0.11071 -1.05417,-0.11071c-0.29507,-0.35203 -0.55905,-0.72937 -0.79025,-1.12266z" fill="#9c9c75"/><path d="M237.04803,188.02969l-0.12936,-0.84633c0.02363,-0.13103 0.04492,-0.26224 0.06412,-0.39362c-0.35867,0.00566 -0.71688,0.01369 -1.07433,0.02461c0,0.35877 0,0.71754 0,1.0763v0.32553c0.40718,0.00816 0.81447,0.01542 1.22199,0.02092c-0.06236,-0.11259 -0.08243,-0.20743 -0.08243,-0.20743zM237.15846,183.04646c0,0 0,-0.09476 0.03665,-0.21498c-0.4683,0.0835 -0.93154,0.1941 -1.38075,0.33247c0.0941,0.17744 0.0941,0.35512 0.0941,0.35512c0,0.62887 0,1.25774 0,1.88662c0.40267,-0.01196 0.80616,-0.0205 1.21008,-0.02635c0.04193,-0.77523 0.03992,-1.55407 0.03992,-2.33287zM238.65846,183.04646c0,0.77688 -0.00281,1.55093 -0.04263,2.32217c0.58569,-0.00043 1.1712,0.00294 1.75529,0.00788c-0.04785,-0.77548 -0.08766,-1.55252 -0.08766,-2.33007c0,0 0,-0.18787 0.10232,-0.37017c-0.59163,-0.04946 -1.21063,-0.05365 -1.8359,-0.01095c0.10859,0.18566 0.10858,0.38112 0.10858,0.38112zM238.39826,187.41645l0.12064,0.33518c0,0 0.05765,0.27243 -0.07967,0.51029c0.65859,0.10015 1.32059,0.1839 1.9843,0.25648c0.01824,-0.07036 0.05067,-0.14172 0.10354,-0.20965c-0.01144,-0.50511 -0.0367,-1.01149 -0.06681,-1.51882c-0.65413,-0.00691 -1.31032,-0.01191 -1.96655,-0.01165c-0.02712,0.21294 -0.05869,0.42565 -0.09544,0.63815zM241.78346,183.04646c0,0.78441 0.03809,1.56568 0.08454,2.34493c0.89595,0.00939 1.78597,0.0181 2.66546,0.0181l0.11477,-0.03499c-0.57263,-1.07131 -1.32772,-2.01728 -2.82446,-2.47446c-0.02072,-0.00491 -0.04151,-0.00975 -0.06237,-0.01452c0.02206,0.09339 0.02206,0.16094 0.02206,0.16094zM244.08663,188.83765c0.54333,0.04022 1.09115,0.03433 1.63497,0.00063c0.29664,-0.01838 1.08732,0.24603 0.89104,0.03501c-0.59594,-0.64069 -0.97768,-1.41723 -1.34108,-2.20231c-0.03469,0.01191 -0.0562,0.01699 -0.0562,0.01699l-0.6819,0.13931c-0.84991,0 -1.71094,-0.00924 -2.57833,-0.01971c0.03661,0.62312 0.06699,1.24536 0.07585,1.86732c0.68551,0.05974 1.37135,0.11208 2.05564,0.16274zM231.30057,187.16971c-0.0767,0.3036 -0.12372,0.62329 -0.13773,0.95933c1.08453,0.00694 2.16543,0.03033 3.24562,0.05455c0,-0.4128 0,-0.85287 0,-1.30444c-1.0496,0.05977 -2.08839,0.15183 -3.10789,0.29057zM232.00333,185.65728c0.79397,-0.08479 1.59681,-0.14602 2.40514,-0.18963c0,-0.60433 0,-1.20042 0,-1.75207c-0.98034,0.47964 -1.82346,1.12378 -2.40514,1.9417zM229.53346,188.83588c0,-0.18617 0.05172,-0.32344 0.128,-0.42467c-0.003,-0.03007 -0.003,-0.04793 -0.003,-0.04793c0.01943,-5.83441 7.55768,-8.01036 12.58469,-6.82451c2.75969,0.88872 4.36645,3.50863 5.25182,6.00957c0.14355,0.4055 0.62818,1.65472 0.45931,1.95903c-0.25861,0.46602 -1.56427,0.70468 -2.10896,0.74392c-2.47241,0.17807 -5.18989,-0.19869 -7.62372,-0.59076c-2.56419,0.009 -5.11563,-0.11573 -7.68814,-0.11573h-0.25c0,0 -0.75,0 -0.75,-0.70891z" fill="#000000"/><path d="M241.7247,182.85343c0.02086,0.00477 0.0422,0.00905 0.06293,0.01395c1.49675,0.45719 2.32515,1.4674 2.89778,2.53871l-0.11667,0.03688c-0.87949,0 -1.84041,-0.00906 -2.73637,-0.01843c-0.04645,-0.77924 -0.08758,-1.62364 -0.08758,-2.40805c0,0 0.00197,-0.06968 -0.02009,-0.16308z" data-paper-data="{&quot;noHover&quot;:false,&quot;origItem&quot;:[&quot;Path&quot;,{&quot;applyMatrix&quot;:true,&quot;segments&quot;:[[[482.0669,365.20083],[0,0],[0,1.65976]],[[482.23597,370.16254],[-0.0929,-1.64883],[1.79191,0.01985]],[[487.5669,370.20083],[-1.75898,0],[0,0]],[[487.79644,370.12679],[0,0],[-1.14526,-2.26682]],[[482.14752,364.89101],[2.99349,0.96737],[-0.04144,-0.01038]],[[482.02278,364.86029],[0.04172,0.0101],[0.04412,0.19761]]],&quot;closed&quot;:true}]}" fill="#ffe77b"/><path d="M241.98459,188.69255c-0.00886,-0.62196 -0.03838,-1.28136 -0.07499,-1.90448c0.86739,0.01046 1.7849,-0.00688 2.63481,-0.00688l0.70145,-0.13066c0,0 0.02235,-0.00445 0.05704,-0.01636c0.36341,0.78508 0.75879,1.61905 1.35473,2.25974c0.19628,0.21102 -0.59964,-0.04535 -0.89627,-0.02697c-0.54382,0.0337 -1.14104,0.05731 -1.68436,0.01709c-0.68429,-0.05066 -1.4069,-0.13175 -2.09241,-0.19149z" data-paper-data="{&quot;noHover&quot;:false,&quot;origItem&quot;:[&quot;Path&quot;,{&quot;applyMatrix&quot;:true,&quot;segments&quot;:[[[486.67323,377.4546],[-1.36859,-0.10719],[1.08665,0.08511]],[[489.94318,377.45594],[-1.08765,0.07131],[0.59327,-0.0389]],[[491.72526,377.53001],[0.39257,0.44651],[-1.19188,-1.35565]],[[489.0431,372.87008],[0.72681,1.66118],[-0.06938,0.0252]],[488.9307,372.90604],[[487.5669,373.20083],[0,0],[-1.69981,0]],[[482.41024,373.15914],[1.73479,0.02213],[0.07321,1.31848]],[[482.56194,377.11026],[-0.01771,-1.31601],[1.37102,0.12639]]],&quot;closed&quot;:true}]}" fill="#ffe77b"/><path d="M238.45745,186.74574c0.65624,-0.00026 1.38565,0.00549 2.03978,0.01239c0.03011,0.50733 0.0602,1.07145 0.07164,1.57656c-0.05287,0.06791 -0.091,0.14604 -0.10924,0.2164c-0.6637,-0.07259 -1.40403,-0.16372 -2.06262,-0.26387c0.13731,-0.23787 0.07222,-0.53017 0.07222,-0.53017l-0.11969,-0.35124c0.03675,-0.2125 0.08079,-0.44715 0.10791,-0.66009z" data-paper-data="{&quot;noHover&quot;:false,&quot;origItem&quot;:[&quot;Path&quot;,{&quot;applyMatrix&quot;:true,&quot;segments&quot;:[[[475.29649,374.44743],[0.0735,-0.44964],[0,0]],[475.53777,375.15665],[[475.37844,376.2364],[0.27462,-0.50332],[1.31719,0.2119]],[[479.34703,376.77911],[-1.3274,-0.15359],[0.03648,-0.14889]],[[479.55411,376.33552],[-0.10574,0.14371],[-0.02287,-1.06878]],[[479.42048,373.1218],[0.06023,1.07348],[-1.30827,-0.01462]],[[475.48737,373.09714],[1.31247,-0.00055],[-0.05423,0.45055]]],&quot;closed&quot;:true}]}" fill="#ffe77b"/><path d="M238.52271,182.62566c0.62527,-0.0427 1.29875,-0.03842 1.89039,0.01104c-0.10232,0.1823 -0.09832,0.3729 -0.09832,0.3729c0,0.77755 0.03493,1.63155 0.08279,2.40703c-0.58408,-0.00495 -1.22148,-0.00773 -1.80717,-0.00731c0.03982,-0.77125 0.0369,-1.62295 0.0369,-2.39982c0,0 0.004,-0.19818 -0.10459,-0.38384z" data-paper-data="{&quot;noHover&quot;:false,&quot;origItem&quot;:[&quot;Path&quot;,{&quot;applyMatrix&quot;:true,&quot;segments&quot;:[[[475.8169,365.20083],[0,0],[0,1.64383]],[[475.73164,370.1144],[0.07964,-1.63191],[1.17138,-0.0009]],[[479.24222,370.13109],[-1.16817,-0.01048],[-0.09571,-1.64085]],[[479.0669,365.20083],[0,1.64524],[0,0]],[[479.27153,364.41757],[-0.20463,0.38575],[-1.18326,-0.10467]],[[475.59973,364.39441],[1.25053,-0.09035],[0.21717,0.39283]]],&quot;closed&quot;:true}]}" fill="#ffe77b"/><path d="M237.13945,185.42227c-0.40392,0.00584 -0.84837,0.01475 -1.25104,0.0267c0,-0.62887 -0.0142,-1.33547 -0.0142,-1.96434c0,0 0.00603,-0.18226 -0.08807,-0.3597c0.44921,-0.13838 0.96328,-0.25212 1.43158,-0.33561c-0.03665,0.12023 -0.0343,0.21619 -0.0343,0.21619c0,0.77881 -0.00205,1.64153 -0.04398,2.41676z" data-paper-data="{&quot;noHover&quot;:false,&quot;origItem&quot;:[&quot;Path&quot;,{&quot;applyMatrix&quot;:true,&quot;segments&quot;:[[[472.8169,365.20083],[0,1.64789],[0,0]],[[472.8902,364.74594],[-0.0733,0.25439],[-0.9366,0.17668]],[[470.1287,365.44943],[0.89842,-0.29279],[0.1882,0.37546]],[[470.3169,366.20083],[0,0],[0,1.33065]],[[470.3169,370.19278],[0,-1.33065],[0.80533,-0.0253]],[[472.73706,370.13703],[-0.80784,0.01237],[0.08387,-1.64034]]],&quot;closed&quot;:true}]}" fill="#ffe77b"/><path d="M237.16164,188.27405c-0.40752,-0.0055 -0.87774,-0.01319 -1.28492,-0.02134l-0.01011,-0.3362c0,-0.35877 0.01002,-0.77982 0.01002,-1.13858c0.35745,-0.01093 0.77339,-0.02295 1.13206,-0.02861c-0.0192,0.13137 -0.02875,0.27191 -0.05238,0.40293l0.1265,0.91141c0,0 0.01648,0.09781 0.07884,0.2104z" data-paper-data="{&quot;noHover&quot;:false,&quot;origItem&quot;:[&quot;Path&quot;,{&quot;applyMatrix&quot;:true,&quot;segments&quot;:[[472.59603,375.745],[[472.33731,373.95423],[0,0],[0.04725,-0.27724]],[[472.46556,373.12136],[-0.0384,0.27799],[-0.71733,0.01198]],[[470.3169,373.17344],[0.71489,-0.02313],[0,0.75913]],[[470.3169,375.45083],[0,-0.75913],[0,0]],[[470.3169,376.13964],[0,0],[0.81437,0.01726]],[[472.76088,376.1839],[-0.81505,-0.01165],[-0.12472,-0.23825]]],&quot;closed&quot;:true}]}" fill="#ffe77b"/><path d="M234.45448,186.86064c0,0.45157 0,0.92862 0,1.34142c-1.08019,-0.02422 -2.25369,-0.04894 -3.33822,-0.05588c0.014,-0.33603 0.0592,-0.68468 0.1359,-0.98828c1.0195,-0.13873 2.15273,-0.2375 3.20233,-0.29727z" data-paper-data="{&quot;noHover&quot;:false,&quot;origItem&quot;:[&quot;Path&quot;,{&quot;applyMatrix&quot;:true,&quot;segments&quot;:[[[461.10112,373.92533],[2.03899,-0.29355],[-0.1534,0.6424]],[[460.82566,375.9552],[0.02801,-0.71103],[2.16907,0.01469]],[[467.3169,376.07062],[-2.16038,-0.05124],[0,-0.87346]],[[467.3169,373.31051],[0,0.95548],[-2.0992,0.12646]]],&quot;closed&quot;:true}]}" fill="#ffe77b"/><path d="M234.44648,183.68489c0,0.55165 0.00319,1.2052 0.00319,1.80953c-0.80832,0.04361 -1.69039,0.10877 -2.48436,0.19355c0.58167,-0.81792 1.50083,-1.52344 2.48118,-2.00308z" data-paper-data="{&quot;noHover&quot;:false,&quot;origItem&quot;:[&quot;Path&quot;,{&quot;applyMatrix&quot;:true,&quot;segments&quot;:[[[462.50663,370.72513],[1.16335,-1.73067],[1.58794,-0.17941]],[[467.3169,370.32389],[-1.61665,0.09228],[0,-1.27872]],[[467.3169,366.61663],[0,1.16727],[-1.96069,1.01488]]],&quot;closed&quot;:true}]}" fill="#ffe77b"/><path d="M231.79433,175.11319c0.64312,0.36473 0.25725,0.97261 0.25725,0.97261l-0.3473,0.54306c-0.35637,0.66965 -0.68104,1.35644 -0.99233,2.04981c0.26702,0.09363 0.53642,0.18331 0.80868,0.26886l0.59824,0.27476c0,0 0.67082,0.31703 0.33541,0.9511c-0.33541,0.63407 -1.00623,0.31703 -1.00623,0.31703l-0.40176,-0.19784c-0.30604,-0.09668 -0.60877,-0.19811 -0.90879,-0.30412c-0.26071,0.60269 -0.51999,1.20539 -0.78968,1.80127c0,0 -0.29544,0.65159 -0.9848,0.37233c-0.68936,-0.27925 -0.39392,-0.93083 -0.39392,-0.93083c0.26662,-0.58687 0.52364,-1.17943 0.7814,-1.77212c-0.56437,-0.23114 -1.1221,-0.47849 -1.67745,-0.74095c0,0 -0.67082,-0.31703 -0.33541,-0.9511c0.33541,-0.63407 1.00623,-0.31703 1.00623,-0.31703c0.52399,0.24765 1.04989,0.48158 1.58202,0.70031c0.3264,-0.72804 0.66551,-1.45003 1.03674,-2.15554l0.4027,-0.63846c0,0 0.38587,-0.60788 1.02899,-0.24316z" fill="#000000"/><path d="M256.72982,179.94754c0.27855,0.65821 -0.41781,0.92149 -0.41781,0.92149l-0.66637,0.25062c-0.79485,0.25029 -1.58344,0.53546 -2.35486,0.85873c0.27552,0.32693 0.55152,0.65352 0.82834,0.97966l0.38935,0.49012c0,0 0.45,0.56713 -0.15,0.99247c-0.6,0.42534 -1.05,-0.14178 -1.05,-0.14178l-0.36065,-0.4551c-0.3469,-0.41115 -0.6932,-0.82264 -1.03929,-1.23436c-0.6305,0.31306 -1.24403,0.65471 -1.83403,1.02691c0,0 -0.62404,0.39324 -1.04006,-0.19661c-0.41602,-0.58985 0.20801,-0.98308 0.20801,-0.98308c0.55524,-0.34952 1.12965,-0.67418 1.7186,-0.97518c-0.79359,-0.94504 -1.58804,-1.89088 -2.38823,-2.83632c0,0 -0.46852,-0.55357 0.11713,-0.99642c0.58565,-0.44285 1.05417,0.11071 1.05417,0.11071c0.8675,1.02496 1.72588,2.05114 2.58518,3.07524c0.92715,-0.40481 1.87992,-0.75676 2.84199,-1.06004l0.58363,-0.22198c0,0 0.69635,-0.26329 0.9749,0.39492z" fill="#000000"/></g></g></svg>