<svg version="1.1" xmlns="http://www.w3.org/2000/svg" xmlns:xlink="http://www.w3.org/1999/xlink" width="38.375" height="36.14105" viewBox="0,0,38.375,36.14105"><defs><linearGradient x1="240.00001" y1="194.35249" x2="240.00001" y2="198.60249" gradientUnits="userSpaceOnUse" id="color-1"><stop offset="0" stop-color="#414141"/><stop offset="1" stop-color="#ff6300"/></linearGradient><linearGradient x1="240.26645" y1="194.60854" x2="240.26645" y2="197.98354" gradientUnits="userSpaceOnUse" id="color-2"><stop offset="0" stop-color="#ff7d00" stop-opacity="0"/><stop offset="1" stop-color="#ff7d00"/></linearGradient></defs><g transform="translate(-220.8125,-163.21144)"><g data-paper-data="{&quot;isPaintingLayer&quot;:true}" fill-rule="nonzero" stroke-linejoin="miter" stroke-miterlimit="10" stroke-dasharray="" stroke-dashoffset="0" style="mix-blend-mode: normal"><path d="M221.5625,198.60249v-15.625h36.875v15.625z" fill="#8c8c8c" stroke="#707070" stroke-width="1.5" stroke-linecap="butt"/><path d="M221.5625,190.06159v-7.0841h36.875v7.0841z" fill="#999999" stroke="#707070" stroke-width="1.5" stroke-linecap="butt"/><path d="M221.5625,182.97749v-19.01605h36.875v19.01605z" fill="#999999" stroke="#707070" stroke-width="1.5" stroke-linecap="butt"/><path d="M228.11111,198.60249v-4.25h23.77778v4.25z" fill="url(#color-1)" stroke="#666666" stroke-width="1.5" stroke-linecap="butt"/><path d="M231.11489,198.02868c-0.2504,0.05602 -0.59986,0.09511 -1.08758,0.09511c-1.72048,0 -1.72048,-0.48642 -1.72048,-0.48642v-0.70752v0c0,-0.26864 0.77028,-0.48642 1.72048,-0.48642c0.23401,0 0.45711,0.01321 0.66048,0.03714c0.01823,-0.02557 0.0393,-0.05019 0.06263,-0.07348l0.49005,-0.48493c0.19305,-0.20894 0.8652,-0.36313 1.66473,-0.36313c0.8252,0 1.51471,0.16425 1.68183,0.38342l0.44289,0.52591c0.21263,-0.09533 0.47105,-0.15787 0.81041,-0.13079c1.03851,0.08288 1.78085,0.17664 2.28371,0.27657l0.91485,-0.24023c0.14611,0.01726 0.28435,0.02163 0.41552,0.01552l0.26345,-0.39104c0.13849,-0.22939 0.84506,-0.404 1.69588,-0.404c0.80979,0 1.48891,0.15818 1.67193,0.37121l0.46175,0.48955c0.92984,0.62487 0.68484,-0.22828 2.74581,-0.1127c0.7618,0.04272 1.00154,0.51586 1.39543,0.68296l0.22453,-0.17775c0.22674,-0.19372 0.8725,-0.33349 1.63372,-0.33349c0.86357,0 1.57853,0.17988 1.70172,0.41434l0.37073,0.62889l-0.72911,0.03436l0.3836,0.34659c-4.80383,0.3433 -10.65336,0.31298 -15.85065,0.01831l-0.01652,0.13079l-3.43129,-0.03465c-0.04505,-0.0004 -0.08966,-0.00128 -0.13376,-0.00263c-0.06164,0.00189 -0.12426,0.00286 -0.18768,0.00286c-0.18828,0 -0.36949,-0.00855 -0.53906,-0.02435z" data-paper-data="{&quot;index&quot;:null}" fill="#ff8800" stroke="none" stroke-width="0.5" stroke-linecap="butt"/><path d="M231.65394,198.09181c-0.18829,0 -0.36949,-0.00608 -0.53905,-0.01729c-0.25041,0.03977 -0.59986,0.06752 -1.08759,0.06752c-1.72048,0 -1.72048,-0.3453 -1.72048,-0.3453v-0.50226v0c0,-0.1907 0.77028,-0.3453 1.72048,-0.3453c0.23401,0 0.45712,0.00938 0.66048,0.02636c0.01824,-0.01815 0.03931,-0.03563 0.06263,-0.05216l0.49005,-0.34424c0.19305,-0.14832 0.86519,-0.25778 1.66473,-0.25778c0.8252,0 1.51471,0.1166 1.68183,0.27219l0.44289,0.37334c0.21263,-0.06767 0.47104,-0.11207 0.81041,-0.09284c1.03851,0.05884 1.78084,0.12539 2.28372,0.19633l0.91484,-0.17053c0.14611,0.01226 0.28435,0.01536 0.41552,0.01102l0.26345,-0.27759c0.13849,-0.16284 0.84506,-0.28679 1.69587,-0.28679c0.80979,0 1.48891,0.11228 1.67193,0.26351l0.46175,0.34752c0.92985,0.44358 0.68484,-0.16206 2.74581,-0.08001c0.7618,0.03032 1.00155,0.36619 1.39543,0.48482l0.22454,-0.12618c0.22674,-0.13752 0.8725,-0.23674 1.63371,-0.23674c0.86357,0 1.57853,0.12769 1.70172,0.29413l0.37073,0.44644l-0.72911,0.02439l0.3836,0.24604c-4.80383,0.2437 -10.65335,0.22218 -15.85065,0.013l-0.01652,0.09284l-3.43129,-0.02459c-0.04504,-0.00028 -0.08965,-0.0009 -0.13376,-0.00186c-0.06164,0.00134 -0.12428,0.00203 -0.1877,0.00203z" data-paper-data="{&quot;index&quot;:null}" fill="#ffb900" stroke="none" stroke-width="0.5" stroke-linecap="butt"/><path d="M228.82895,197.98354v-3.375h22.875v3.375z" fill="url(#color-2)" stroke="none" stroke-width="0" stroke-linecap="butt"/><path d="M233.66242,194.60645l-0.125,3.5" fill="none" stroke="#666666" stroke-width="1.5" stroke-linecap="round"/><path d="M239.9375,198.22749l0.125,-3.5" fill="none" stroke="#666666" stroke-width="1.5" stroke-linecap="round"/><path d="M245.9402,194.58909l0.125,3.4375" fill="none" stroke="#666666" stroke-width="1.5" stroke-linecap="round"/><path d="M228.11111,198.60249v-4.25h23.77778v4.25z" fill="none" stroke="#666666" stroke-width="1.5" stroke-linecap="butt"/><path d="M221.5625,190.06159v-7.0841h36.875v7.0841z" fill="#707070" stroke="#5a5a5a" stroke-width="1.5" stroke-linecap="butt"/><path d="M221.5625,182.97749v-19.01605h36.875v19.01605z" fill="#707070" stroke="#5a5a5a" stroke-width="1.5" stroke-linecap="butt"/><path d="M240.45395,188.23354l0.125,3.375l-2,-0.375v-2.875l3.625,-0.25v2.875l-3.625,-0.75" data-paper-data="{&quot;index&quot;:null}" fill="none" stroke="#5a5a5a" stroke-width="1.5" stroke-linecap="round"/><path d="M238.76645,188.82283l3.28571,0.28571" fill="none" stroke="#5a5a5a" stroke-width="1.5" stroke-linecap="round"/></g></g></svg>