<svg version="1.1" xmlns="http://www.w3.org/2000/svg" xmlns:xlink="http://www.w3.org/1999/xlink" width="38.43928" height="38.04576" viewBox="0,0,38.43928,38.04576"><g transform="translate(-220.7877,-160.95468)"><g data-paper-data="{&quot;isPaintingLayer&quot;:true}" fill-rule="nonzero" stroke-linejoin="miter" stroke-miterlimit="10" stroke-dasharray="" stroke-dashoffset="0" style="mix-blend-mode: normal"><path d="M252.79753,184.71023l-14.81818,-0.09091" data-paper-data="{&quot;index&quot;:null}" fill="#72987f" stroke="#6f937c" stroke-width="1.5" stroke-linecap="round"/><path d="M238.61569,178.80113l18.09091,-0.18182" data-paper-data="{&quot;index&quot;:null}" fill="#72987f" stroke="#6f937c" stroke-width="1.5" stroke-linecap="round"/><path d="M221.70662,174.98295l11.36364,0.27273" data-paper-data="{&quot;index&quot;:null}" fill="#72987f" stroke="#6f937c" stroke-width="1.5" stroke-linecap="round"/><path d="M249.16117,175.71023h-11.45455" data-paper-data="{&quot;index&quot;:null}" fill="#72987f" stroke="#6f937c" stroke-width="1.5" stroke-linecap="round"/><path d="M226.79754,166.80113l11.54545,-0.0909" data-paper-data="{&quot;index&quot;:null}" fill="#72987f" stroke="#6f937c" stroke-width="1.5" stroke-linecap="round"/><path d="M241.5248,191.61931l14.36364,0.18182" data-paper-data="{&quot;index&quot;:null}" fill="#72987f" stroke="#6f937c" stroke-width="1.5" stroke-linecap="round"/><path d="M250.61571,197.16477l-15.72727,-0.09091" data-paper-data="{&quot;index&quot;:null}" fill="#72987f" stroke="#6f937c" stroke-width="1.5" stroke-linecap="round"/><path d="M227.07026,191.98295l8.90909,0.18182" data-paper-data="{&quot;index&quot;:null}" fill="#72987f" stroke="#6f937c" stroke-width="1.5" stroke-linecap="round"/><path d="M228.97934,179.16477h5.36364" data-paper-data="{&quot;index&quot;:null}" fill="#72987f" stroke="#6f937c" stroke-width="1.5" stroke-linecap="round"/><path d="M221.5377,171.16963l14.36364,-0.09091" fill="none" stroke="#516c5a" stroke-width="1.5" stroke-linecap="round"/><path d="M242.17406,184.07872h-11.45454" fill="none" stroke="#516c5a" stroke-width="1.5" stroke-linecap="round"/><path d="M241.5377,193.07872l11.54546,-0.0909" fill="none" stroke="#516c5a" stroke-width="1.5" stroke-linecap="round"/><path d="M239.44677,196.71508l10.54546,0.09091" fill="none" stroke="#516c5a" stroke-width="1.5" stroke-linecap="round"/><path d="M252.81043,167.80599l-8.90909,-0.18182" fill="none" stroke="#516c5a" stroke-width="1.5" stroke-linecap="round"/><path d="M245.5377,180.62417h5.36364" fill="none" stroke="#516c5a" stroke-width="1.5" stroke-linecap="round"/><path d="M221.5873,170.375l6.875,-8.625l10.125,0.875l7,3.625l6.875,-3.125l4.5,2.5l1.5,8.75l-1.875,8.125l1.75,15.375l-13.75,0.375l-14.625,-0.625l-7.875,0.5l0.625,-9l-0.875,-5.75z" fill="#668872" stroke="#4c6655" stroke-width="1.5" stroke-linecap="round"/><path d="M245.0873,197.5l0.25,-5.625l2,-7.5" fill="none" stroke="#4c6655" stroke-width="1.5" stroke-linecap="round"/><path d="M245.5873,177.5l-5.75,0.625l-7.125,3.875l-10.5,-5l0.37497,-2.875l21.75,-4.25l1,2.375z" fill="#516c5a" stroke="#4c6655" stroke-width="1.5" stroke-linecap="round"/><path d="M222.08727,182.75l1.125,-5l9.87503,5v6.125l-2.75,2.125l-7.125,-2z" fill="#516c5a" stroke="#4c6655" stroke-width="1.5" stroke-linecap="round"/><path d="M233.5873,188.75l3.125,8.25" fill="none" stroke="#4c6655" stroke-width="1.5" stroke-linecap="round"/><path d="M255.8373,183l-3.625,3.75l-5.25,-2.5l-2,-13.25l-6.125,1.5l-6,4.375l-10.5,-2.25l-0.75,-3.875l6.25,-9l10,1.125l7.125,3l7.25,-2.625l4.25,3l0.25,4.75l-7.125,1.75l-4.375,-2l0.125,-3.875" fill="#6f937c" stroke="#4c6655" stroke-width="1.5" stroke-linecap="round"/><path d="M255.83727,181.875l-5.875,-8.875" fill="none" stroke="#4c6655" stroke-width="1.5" stroke-linecap="round"/><path d="M241.4738,182.15334c-0.02411,0.24016 -0.01771,0.48432 0.01564,0.72059c0.60206,4.26534 2.80416,-1.76007 0.57469,-1.06168l-0.37572,0.25531c0,0 -0.08629,0.05177 -0.21461,0.08578zM241.05884,180.7018l0.59322,-0.33183c5.28316,-1.41232 2.27119,8.5391 -0.92952,4.52997c-0.40571,-0.50818 -0.62534,-1.17024 -0.71801,-1.81387c-0.08894,-0.61775 -0.02875,-1.26472 0.13243,-1.86766c0,0 0.20503,-0.71761 0.92188,-0.5166z" fill="#4c6655" stroke="none" stroke-width="0.5" stroke-linecap="butt"/><path d="M241.66424,182.02379l0.39267,-0.26102c2.22947,-0.69839 -0.01359,5.36316 -0.61565,1.09782c-0.03335,-0.23627 -0.02358,-0.5055 0.00053,-0.74566c0.12832,-0.03401 0.22245,-0.09115 0.22245,-0.09115z" data-paper-data="{&quot;noHover&quot;:false,&quot;origItem&quot;:[&quot;Path&quot;,{&quot;applyMatrix&quot;:true,&quot;segments&quot;:[[[288.78237,182.84001],[0.12832,-0.03401],[-0.02411,0.24016]],[[288.79802,183.5606],[-0.03335,-0.23627],[0.60206,4.26534]],[[289.37271,182.49892],[2.22947,-0.69839],[0,0]],[288.99698,182.75423]],&quot;closed&quot;:true}]}" fill="#252525" stroke="none" stroke-width="0.5" stroke-linecap="butt"/><path d="M238.31749,190.28681c-0.03018,0.06812 -0.05758,0.10921 -0.05758,0.10921c-0.84636,1.23423 -0.56322,1.86895 0.7093,2.61175c0.3475,0.20284 0.13574,-0.81455 0.04393,-1.2063c-0.17495,-0.74651 -0.2759,-1.16058 -0.69565,-1.51466zM237.20528,189.3655c0.0206,-0.40792 0.42852,-0.61188 0.42852,-0.61188l0.92974,-0.09147c1.44462,0.87247 3.68658,5.5923 0.40567,5.84563c-2.74236,0.21175 -2.9937,-3.35585 -1.95737,-4.9438c0,0 0.06918,-0.10377 0.19344,-0.19847z" fill="#4c6655" stroke="none" stroke-width="0.5" stroke-linecap="butt"/><path d="M239.06154,191.81401c0.09181,0.39175 0.27257,1.44348 -0.07493,1.24064c-1.27252,-0.7428 -1.58122,-1.47373 -0.73486,-2.70796c0,0 0.03007,-0.04146 0.06025,-0.10958c0.41975,0.35408 0.57458,0.83039 0.74953,1.5769z" data-paper-data="{&quot;noHover&quot;:false,&quot;origItem&quot;:[&quot;Path&quot;,{&quot;applyMatrix&quot;:true,&quot;segments&quot;:[[[285.62606,190.97348],[0.41975,0.35408],[-0.03018,0.06812]],[[285.56848,191.08269],[0,0],[-0.84636,1.23423]],[[286.27778,193.69444],[-1.27252,-0.7428],[0.3475,0.20284]],[[286.32171,192.48814],[0.09181,0.39175],[-0.17495,-0.74651]]],&quot;closed&quot;:true}]}" fill="#252525" stroke="none" stroke-width="0.5" stroke-linecap="butt"/><path d="M254.61907,192.99052c-0.06494,0.03094 -0.11049,0.04395 -0.11049,0.04395c-0.48099,0.1335 -0.93752,0.35201 -1.37672,0.58924c-0.23414,0.12647 -0.93431,0.25697 -0.7002,0.38349c1.02857,0.55585 2.99743,-0.03025 2.18741,-1.01668zM253.2151,191.89768c-0.02077,-0.12266 -0.00727,-0.26729 0.06475,-0.43534c0.29544,-0.68936 0.9848,-0.39392 0.9848,-0.39392l0.90281,0.40164c0.48724,0.52349 0.87644,1.23928 0.88508,1.95438c0.0564,4.66392 -7.85444,1.57559 -3.69043,-1.08816c0.26905,-0.17212 0.55633,-0.31578 0.85299,-0.4386z" fill="#4c6655" stroke="none" stroke-width="0.5" stroke-linecap="butt"/><path d="M252.38438,194.02346c-0.23411,-0.12652 0.46337,-0.27143 0.69751,-0.39789c0.4392,-0.23723 0.98805,-0.48417 1.46904,-0.61767c0,0 0.04603,-0.01225 0.11096,-0.04319c0.81002,0.98644 -1.24894,1.6146 -2.27752,1.05875z" data-paper-data="{&quot;noHover&quot;:false,&quot;origItem&quot;:[&quot;Path&quot;,{&quot;applyMatrix&quot;:true,&quot;segments&quot;:[[[301.92764,193.67719],[0.81002,0.98644],[-0.06494,0.03094]],[[301.81715,193.72114],[0,0],[-0.48099,0.1335]],[[300.44043,194.31038],[0.4392,-0.23723],[-0.23414,0.12647]],[[299.74024,194.69387],[-0.23411,-0.12652],[1.02857,0.55585]]],&quot;closed&quot;:true}]}" fill="#252525" stroke="none" stroke-width="0.5" stroke-linecap="butt"/><path d="M247.50864,189.01229c1.13293,-0.09453 3.69358,-0.66708 3.60593,-0.93396c-0.15634,-0.47602 -2.49091,-2.19382 -2.82333,-1.97655c-0.24409,0.15954 -0.70361,2.15406 -0.7826,2.91051zM246.32722,190.17732c-0.33024,-0.20769 -0.33024,-0.64177 -0.33024,-0.64177v-0.33333c0.00751,-0.91388 0.69039,-3.98614 1.65019,-4.45512c1.74391,-0.85212 6.18426,2.45526 4.6951,4.46689c-0.53213,0.71883 -2.05871,0.72426 -2.84573,0.93493c-0.98251,0.263 -1.60625,0.47975 -2.6334,0.35132c0,0 -0.35109,-0.05016 -0.53592,-0.32292z" fill="#4c6655" stroke="none" stroke-width="0.5" stroke-linecap="butt"/><path d="M248.26239,186.06095c0.33242,-0.21727 2.74381,1.55549 2.90015,2.03151c0.08765,0.26687 -2.55978,0.85682 -3.69271,0.95134c0.07899,-0.75644 0.54848,-2.82332 0.79256,-2.98286z" data-paper-data="{&quot;noHover&quot;:false,&quot;origItem&quot;:[&quot;Path&quot;,{&quot;applyMatrix&quot;:true,&quot;segments&quot;:[[[294.81721,189.69896],[0.07899,-0.75644],[1.13293,-0.09453]],[[298.42314,188.76501],[0.08765,0.26687],[-0.15634,-0.47602]],[[295.59981,186.78846],[0.33242,-0.21727],[-0.24409,0.15954]]],&quot;closed&quot;:true}]}" fill="#252525" stroke="none" stroke-width="0.5" stroke-linecap="butt"/><path d="M228.75458,182.34689c-0.1034,1.38324 1.32702,4.36435 2.68429,2.88055c1.63429,-1.78664 -1.07036,-2.59965 -2.68429,-2.88055zM227.26344,182.14232c-0.22937,-0.50958 0.25577,-0.87343 0.25577,-0.87343l1.00051,-0.4758c0.93412,0.14043 1.65874,0.45967 2.52271,0.83088c2.13135,0.91574 3.89785,4.25204 0.47745,5.29607c-2.84451,0.86824 -4.55548,-2.46758 -4.25644,-4.77772z" fill="#4c6655" stroke="none" stroke-width="0.5" stroke-linecap="butt"/><path d="M231.47194,185.26495c-1.35728,1.4838 -2.85557,-1.57071 -2.75217,-2.95395c1.61394,0.2809 4.38646,1.16732 2.75217,2.95395z" data-paper-data="{&quot;noHover&quot;:false,&quot;origItem&quot;:[&quot;Path&quot;,{&quot;applyMatrix&quot;:true,&quot;segments&quot;:[[[276.06315,183.03356],[1.61394,0.2809],[-0.1034,1.38324]],[[278.74745,185.91411],[-1.35728,1.4838],[1.63429,-1.78664]]],&quot;closed&quot;:true}]}" fill="#252525" stroke="none" stroke-width="0.5" stroke-linecap="butt"/><path d="M242.16324,174.38504c-0.15718,0.09334 -0.31019,0.1152 -0.31019,0.1152c-2.76878,0.33745 -1.40792,1.42115 0.22519,0.69783c0.47222,-0.20915 0.73417,-0.82461 0.085,-0.81302zM240.9108,173.18636c0.21618,-0.28969 0.61396,-0.28969 0.61396,-0.28969l0.77273,0.00754c2.71045,0.62067 1.7904,3.59144 -0.60845,3.82391c-3.6633,0.35501 -3.56085,-2.65502 -0.77824,-3.54175z" fill="#4c6655" stroke="none" stroke-width="0.5" stroke-linecap="butt"/><path d="M242.12427,175.2176c-1.63311,0.72332 -3.00333,-0.41391 -0.23455,-0.75136c0,0 0.15733,-0.01651 0.31451,-0.10985c0.64917,-0.01158 0.39227,0.65205 -0.07995,0.8612z" data-paper-data="{&quot;noHover&quot;:false,&quot;origItem&quot;:[&quot;Path&quot;,{&quot;applyMatrix&quot;:true,&quot;segments&quot;:[[[289.47181,175.07171],[0.64917,-0.01158],[-0.15718,0.09334]],[[289.16162,175.18691],[0,0],[-2.76878,0.33745]],[[289.38681,175.88474],[-1.63311,0.72332],[0.47222,-0.20915]]],&quot;closed&quot;:true}]}" fill="#252525" stroke="none" stroke-width="0.5" stroke-linecap="butt"/></g></g></svg>