<svg version="1.1" xmlns="http://www.w3.org/2000/svg" xmlns:xlink="http://www.w3.org/1999/xlink" width="30.29167" height="30.29167" viewBox="0,0,30.29167,30.29167"><defs><linearGradient x1="240" y1="165.60419" x2="240" y2="194.39584" gradientUnits="userSpaceOnUse" id="color-1"><stop offset="0" stop-color="#66b8ff"/><stop offset="1" stop-color="#6766ff"/></linearGradient></defs><g transform="translate(-224.85417,-164.85416)"><g data-paper-data="{&quot;isPaintingLayer&quot;:true}" fill-rule="nonzero" stroke-linecap="butt" stroke-linejoin="miter" stroke-miterlimit="10" stroke-dasharray="" stroke-dashoffset="0" style="mix-blend-mode: normal"><path d="M225.60417,194.39584v-28.79167h28.79167v28.79167z" fill="url(#color-1)" stroke="#ffffff" stroke-width="1.5"/><path d="M243.48446,173.07119c-1.51387,2.11127 -3.07826,4.33987 -4.81537,6.07699c-1.28425,2.5685 -3.61729,4.86455 -5.29613,7.18761c-0.55291,0.76507 -1.33456,1.28202 -1.76538,2.14367c-0.87358,0.87358 -1.67281,2.02584 -2.39587,3.02636c-0.16051,0.22209 -0.66733,0.20607 -0.66733,0.48011c0,0.29036 1.24699,0.59849 1.52041,0.37298c0.79711,-0.65747 1.82818,-1.87201 2.28875,-2.79314c1.35938,-1.38683 3.04513,-2.82964 4.16125,-4.41345c1.01131,-1.43508 2.01125,-3.05329 3.27856,-4.28734c0.64765,-1.29529 1.94401,-2.35273 2.77417,-3.53075c1.39524,-1.97988 2.55681,-4.08383 4.01651,-6.02483c0.04376,-0.08601 0.81888,-1.05451 0.81817,-1.06274c-0.0086,-0.10083 -1.02383,-0.54738 -1.19173,-0.42084c-0.44559,0.3358 -0.88528,0.65909 -1.27008,1.01914c0.02917,0.197 -0.09779,0.36628 -0.09779,0.36628c-0.34582,0.45937 -0.69237,0.93485 -1.04116,1.41889c-0.00454,0.01701 -0.00897,0.03413 -0.01327,0.05135l-0.25048,0.34579c0,0 -0.01928,0.01928 -0.05322,0.04396zM242.93592,172.22201c0.41536,-1.3109 1.56346,-2.61162 2.80858,-3.2192c0.6902,-0.3368 2.44924,0.15309 2.59122,1.09234c0.08664,0.57309 -0.71307,1.23377 -0.9472,1.71142c-1.46827,1.96185 -2.62184,4.09918 -4.05379,6.08061c-0.84688,1.17185 -2.12564,2.23372 -2.77416,3.53075c-2.6504,2.70392 -4.65332,5.98744 -7.43981,8.70079c-0.46734,0.93468 -2.13663,3.18852 -3.23228,3.34601c-0.67052,0.09638 -2.28984,-0.66082 -2.28984,-1.47884c0,-0.43598 0.62308,-0.71696 0.84585,-1.03308c0.70699,-1.00322 1.52805,-2.15855 2.39587,-3.02636c0.4315,-0.86299 1.22425,-1.37581 1.76538,-2.14368c1.66142,-2.35759 4.00461,-4.60456 5.29613,-7.18761c1.81886,-1.81886 3.45619,-4.17303 5.03405,-6.37317z" fill="#704f39" stroke="none" stroke-width="0.5"/><path d="M243.55555,173.00125l0.21473,-0.29385c0.0043,-0.01722 0.04445,-0.08629 0.04899,-0.1033c0.34879,-0.48404 0.69547,-0.95943 1.04129,-1.4188c0,0 0.12668,-0.16945 0.09752,-0.36646c0.3848,-0.36005 0.82537,-0.68271 1.27096,-1.01852c0.1679,-0.12653 1.18521,0.32166 1.1938,0.42249c0.0007,0.00824 -0.77428,0.97686 -0.81804,1.06286c-1.4597,1.941 -2.61774,4.0486 -4.01298,6.02848c-0.83015,1.17802 -2.11963,2.25114 -2.76727,3.54643c-1.26731,1.23406 -2.30918,2.88629 -3.32049,4.32137c-1.11612,1.58381 -2.80861,3.02321 -4.16799,4.41005c-0.46057,0.92113 -1.49232,2.13522 -2.28943,2.79268c-0.27342,0.22552 -1.52292,-0.08459 -1.52292,-0.37495c0,-0.27403 0.54781,-0.3059 0.70832,-0.52801c0.72306,-1.00052 1.48133,-2.10484 2.35492,-2.97842c0.43082,-0.86165 1.21224,-1.3788 1.76515,-2.14388c1.67884,-2.32306 4.04322,-4.67248 5.32747,-7.24098c1.73711,-1.73711 3.30882,-3.962 4.82269,-6.07327c0.03394,-0.02468 0.05328,-0.04393 0.05328,-0.04393z" data-paper-data="{&quot;noHover&quot;:false,&quot;origItem&quot;:[&quot;Path&quot;,{&quot;applyMatrix&quot;:true,&quot;segments&quot;:[[[242.54591,170.80006],[0.05383,-0.03914],[-2.40109,3.34861]],[[234.90843,180.43854],[2.75517,-2.75517],[-2.0369,4.0738]],[[226.50843,191.83854],[2.66275,-3.68452],[-0.87695,1.21345]],[[223.70843,195.23854],[0.68331,-1.36663],[-1.38556,1.38556]],[[219.90843,200.03854],[1.14682,-1.58688],[-0.25458,0.35226]],[[218.85,200.8],[0,-0.43463],[0,0.46053]],[[221.26147,201.39157],[-0.43366,0.35769],[1.26427,-1.04278]],[[224.89157,196.96147],[-0.73049,1.46098],[2.15606,-2.1996]],[[231.49157,189.96147],[-1.77024,2.51202],[1.604,-2.27613]],[[236.69157,183.16147],[-2.01003,1.95729],[1.02721,-2.05441]],[[241.09157,177.56147],[-1.31668,1.86841],[2.21293,-3.14022]],[[247.46201,168.0057],[-2.31518,3.07855],[0.0694,-0.13641]],[[248.75969,166.32014],[0.00111,0.01306],[-0.01363,-0.15992]],[[246.86953,165.65265],[0.2663,-0.20069],[-0.70673,0.53261]],[[244.8551,167.26907],[0.61032,-0.57107],[0.04626,0.31246]],[[244.7,167.85],[0,0],[-0.54849,0.7286]],[[243.04865,170.10045],[0.55321,-0.76772],[-0.0072,0.02699]],[[243.02761,170.1819],[0.00682,-0.02731],[0,0]],[242.63033,170.73033]],&quot;closed&quot;:true}]}" fill="#9a6d4e" stroke="none" stroke-width="0.5"/><path d="M247.23656,174.78502c0.01848,-0.01807 -0.00423,-0.08761 0.01431,-0.10627c0.08742,-0.15317 0.28761,-0.36671 0.51118,-0.59978c2.63997,1.53973 3.02303,3.72215 3.288,6.24169c-0.53792,-1.37893 -1.32671,-2.68407 -1.97233,-3.49072c-0.53902,-0.67346 -1.1288,-1.01561 -1.48599,-1.82151z" data-paper-data="{&quot;noHover&quot;:false,&quot;origItem&quot;:[&quot;Path&quot;,{&quot;applyMatrix&quot;:true,&quot;segments&quot;:[[[499.66049,342.30794],[0,0],[1.54544,2.19205]],[[505.20098,346.83999],[-2.00917,-1.68867],[2.40653,2.02265]],[[513.14928,356.09253],[-2.42581,-3.79434],[-2.29025,-7.36018]],[[499.74897,339.58069],[8.79372,3.02298],[-0.52837,0.8285]],[[498.59747,341.65903],[0.16968,-0.50904],[-0.04421,0.06671]],[[498.46458,341.85644],[0.04439,-0.0649],[0,0]]],&quot;closed&quot;:true}]}" fill="#868686" stroke="none" stroke-width="0.5"/><path d="M250.77177,185.28571c0.04786,-0.23992 0.07633,-0.46159 0.08951,-0.67206c-0.19758,-1.20627 -0.78278,-3.52624 0.06021,-3.8113c0.70181,-0.23731 1.23599,0.71332 1.35713,1.17782c0.27321,1.04763 0.06452,2.18143 -0.37067,3.17638l0.03706,0.26639c0,0 0.0372,0.29638 -0.17701,0.45669l-0.02184,0.10947c-0.05327,0.26702 -0.3129,0.44029 -0.57991,0.38703c-0.23766,-0.0474 -0.40105,-0.25829 -0.39656,-0.49236l-0.00027,-0.54949l0.02196,-0.00001z" fill="#777777" stroke="none" stroke-width="0.5"/><path d="M247.57303,172.95912c-0.41006,0.27367 -0.68374,-0.13639 -0.68374,-0.13639l-0.11706,-0.2472c-1.33406,-0.87629 -3.51785,-1.04914 -4.54336,-2.16363c-1.78538,-1.14259 -3.4912,-1.53006 -5.51314,-1.92897c-0.0581,-0.01146 -1.09208,-0.21723 -1.12155,-0.22617c-0.23679,-0.0718 -0.56777,-0.62123 -0.63567,-0.3833c-0.10684,0.37437 -0.167,0.89658 -0.35484,1.34803c0,0 -0.18939,0.45516 -0.64455,0.26578c-0.45517,-0.18938 -0.26578,-0.64455 -0.26578,-0.64455c0.11584,-0.27841 0.54557,-1.68571 0.71784,-1.78938c0.46636,-0.28066 1.46845,0.25857 1.96025,0.35549c2.3831,0.46969 4.4171,0.87878 6.49932,2.25462c0.89999,1.03739 3.19063,1.27801 4.43968,2.08594l0.39898,0.52601c0,0 0.27367,0.41006 -0.13639,0.68373z" fill="#969696" stroke="none" stroke-width="0.5"/><path d="M245.15609,171.10556c-0.33437,0.33437 -0.66873,0 -0.66873,0l-0.25409,-0.26081c-0.00215,-0.00315 -0.00432,-0.0063 -0.0065,-0.00944c-0.09393,-0.00346 -0.19754,-0.01451 -0.31437,-0.03782c-0.73531,-0.14668 -1.30101,-0.75 -1.89239,-1.2572c-0.92908,-0.30085 -1.92292,-0.49243 -2.58712,-0.62764c-1.10999,-0.43982 -3.7447,-1.37557 -5.11849,-1.15834c-0.26307,0.49753 -0.56489,1.17805 -0.56615,1.61633c-0.00024,0.08267 2.14746,0.1031 2.39981,0.07143c1.16342,-0.14602 2.42824,0.291 3.57428,0.51961c0.62663,0.125 2.81659,0.63944 3.11799,1.27191c0.1567,0.32879 0.22008,0.77296 0.04396,1.09176c-0.06755,0.12227 -0.28451,0.20828 -0.49766,0.24358c0.40246,0.33387 0.91959,0.94961 1.02074,1.02761c1.21851,0.93963 1.84156,1.73943 3.07992,0.50995c0.06013,-0.10536 0.60795,-0.8751 1.01497,-1.20875c-0.16631,-0.05683 -0.33553,-0.14488 -0.41407,-0.22941c-0.46558,-0.50113 -0.83244,-1.0999 -1.4445,-1.57661c-0.13231,-0.10306 -0.24628,-0.17336 -0.34897,-0.2203c-0.01735,0.07504 -0.05906,0.1546 -0.13861,0.23415zM233.46559,170.97118c0.76763,-0.29618 1.4647,-0.02517 2.36568,0.06502c1.54945,0.15509 3.09404,0.08674 4.63521,0.20198c-0.2805,-0.12498 -0.56591,-0.23551 -0.93703,-0.30954c-1.70514,-0.34014 -3.15707,-0.4179 -4.85245,-0.47173c-0.41903,-0.01331 -0.82766,0.01468 -1.17542,-0.10781c0.00445,0.22946 -0.00248,0.44247 -0.03599,0.62208zM235.73808,171.97733c-0.72699,-0.07264 -1.58133,-0.50963 -2.19165,0.01281l-0.41651,0.31238c-0.07968,0.06112 -0.17937,0.09744 -0.28754,0.09744c-0.26116,0 -0.47287,-0.21171 -0.47287,-0.47287v-0.52541h0.09213c-0.1834,-1.55063 -0.07917,-3.85081 1.13348,-4.4248c0.01067,-0.00505 0.02147,-0.00999 0.03239,-0.01481c0.00881,-0.01597 0.01727,-0.03124 0.02534,-0.04575c0,0 0.17132,-0.30016 0.47839,-0.2544c0.1739,-0.12679 0.40066,-0.08156 0.40066,-0.08156l0.00333,0.02646c2.2149,-0.278 4.58003,0.17434 6.51914,1.2811c0.49731,0.113 0.92415,0.44795 1.3388,0.81044c0.79171,0.27598 1.54879,0.63147 2.11424,1.0951c0.22297,-0.05215 0.4595,-0.12617 0.62913,-0.09234c0.34341,0.0685 0.68184,0.2459 1.00189,0.48126l0.37028,0.17228c0.54841,0.6123 1.16287,1.34001 1.92861,1.63448c0,0 0.04943,0.02057 0.10893,0.06444c0.13532,0.01699 0.25156,0.13095 0.3186,0.50001c0.03906,0.21504 -0.14741,0.51054 -0.4074,0.82099c3.38133,2.14535 3.29641,5.08246 3.75254,8.71658c-0.12627,0.67194 -0.26122,1.34207 -0.39496,2.01256l-0.09644,0.48347c-0.05327,0.26702 -0.3129,0.44029 -0.57991,0.38703c-0.26701,-0.05327 -0.44029,-0.31289 -0.38703,-0.57991l0.09644,-0.48347c0.01751,-0.08779 0.03496,-0.17561 0.05239,-0.26342c-0.49904,-0.76104 -0.7879,-2.49915 -0.98209,-3.22011c-0.53263,-1.97749 -2.42442,-3.02831 -3.08653,-4.79385l-0.3256,-0.15511c0,0 -0.05527,-0.03154 -0.11475,-0.09181c-1.4453,0.7857 -2.73193,-0.15965 -4.05078,-1.46801c-0.28943,-0.28714 -1.46964,-1.2647 -1.39508,-1.68939c-1.72958,-0.19438 -3.46768,-0.07796 -5.20756,-0.25181zM247.57206,174.98211c0.35718,0.80589 0.95538,1.1435 1.4944,1.81696c0.64561,0.80665 1.42905,2.11431 1.96697,3.49324c-0.26496,-2.51953 -0.61753,-4.64382 -3.2575,-6.18354c-0.22357,0.23307 -0.41734,0.44268 -0.50476,0.59584c-0.01854,0.01865 -0.03704,0.03701 -0.05552,0.05508z" fill="#777777" stroke="none" stroke-width="0.5"/><path d="M239.92927,171.20745c-1.36505,-0.06656 -2.76899,-0.02855 -4.12884,-0.16466c-0.00698,-0.0007 -0.01394,-0.00141 -0.0209,-0.00214c-0.60854,0.03158 -1.64241,0.15158 -2.16077,-0.1288c-0.06119,0.01684 -0.12269,0.03703 -0.18465,0.06093c0.01041,-0.05581 0.01827,-0.1154 0.02404,-0.17791c-0.0126,-0.01254 -0.02451,-0.02558 -0.03572,-0.03913c-0.27216,-0.32899 -0.06557,-1.07244 0.00709,-1.44335c0,0 0.06437,-0.32187 0.35402,-0.37564c0.12505,-0.46548 0.39974,-1.02152 0.60959,-1.39574l0.23646,0.02764c2.06879,-0.25966 4.27128,0.17728 6.08066,1.20999c1.20826,0.19803 1.99707,1.76943 3.23494,2.01635c0.82524,0.16461 0.9921,-0.27876 1.73137,0.29702c0.61205,0.47671 0.97793,1.08319 1.4435,1.58433c0.07853,0.08454 0.24761,0.17312 0.41393,0.22996c-0.40702,0.33365 -0.95744,1.11007 -1.01757,1.21543c-1.23836,1.22947 -1.8663,0.43669 -3.08483,-0.50294c-0.10115,-0.078 -0.66737,-0.73746 -1.06983,-1.07132c0.07649,-0.01266 0.153,-0.03118 0.22277,-0.05536c-0.88792,-0.45531 -1.62993,-1.01052 -2.65525,-1.28465zM234.15381,170.15615c0.03438,0.03841 0.2579,0.04538 0.55587,0.03709h-0.29107v0c-0.1153,0 -0.22096,-0.04127 -0.30302,-0.10984c0.0057,0.02566 0.01787,0.05001 0.03822,0.07275z" fill="#868686" stroke="none" stroke-width="0.5"/><path d="M233.57795,171.34914c-0.47287,0 -0.47287,-0.47287 -0.47287,-0.47287l0.03383,-0.2807c0.31853,-0.75676 0.34618,-1.76109 0.51119,-2.58617c0.60841,-1.1948 1.66794,-0.88182 2.8578,-0.64419c2.3991,0.47914 4.58562,1.67842 6.80813,2.5466c0,0 0.43905,0.17562 0.26343,0.61467c-0.17562,0.43905 -0.61467,0.26343 -0.61467,0.26343c-2.04792,-0.83465 -4.00053,-1.75464 -6.15896,-2.40267c-0.48594,-0.14589 -2.21416,-0.53616 -2.24921,-0.10836c-0.17486,0.87432 -0.22275,1.84483 -0.53963,2.66793l0.03382,-0.07054c0,0 0,0.47287 -0.47287,0.47287z" fill="#969696" stroke="none" stroke-width="0.5"/><path d="M245.50476,170.35086c0,0.47287 -0.47287,0.47287 -0.47287,0.47287h-0.10509c-0.38308,-0.00154 -0.76762,-0.04063 -1.14355,-0.11427c0,0 -0.23163,-0.04632 -0.33472,-0.23721c-2.9943,-0.81674 -5.22971,-2.89285 -8.45792,-2.90837c-1.39808,0.2442 -1.63886,2.17988 -1.67118,3.48225c0.27016,-0.09113 0.55288,-0.14352 0.90136,-0.21322l0.51307,-0.00918c0,0 0.47287,0 0.47287,0.47287c0,0.47287 -0.47287,0.47287 -0.47287,0.47287l-0.32759,-0.00918c-0.52486,0.10497 -0.86091,0.10695 -1.28016,0.44002c0,0 -0.3783,0.28372 -0.66201,-0.09457c-0.118,-0.15733 -0.12149,-0.2983 -0.08531,-0.40931c-0.00927,-0.05021 -0.00927,-0.08458 -0.00927,-0.08458v-0.10508c0.00766,-1.90467 0.33015,-4.41305 2.52792,-4.88401c1.1327,-0.00456 2.33595,-0.12371 3.39207,0.35413c1.9119,0.86503 3.7732,2.31034 5.8894,2.70013c0,0 0.18474,0.03695 0.29768,0.18081c0.14978,0.01406 0.3002,0.02089 0.45023,0.02017h0.10509c0,0 0.47287,0 0.47287,0.47287z" fill="#777777" stroke="none" stroke-width="0.5"/><path d="M233.98694,186.32404c0.21148,-0.42294 0.63442,-0.21147 0.63442,-0.21147l0.17431,0.08898c0.17514,0.07005 0.35028,0.14011 0.52541,0.21016c0,0 0.18124,0.0725 0.26425,0.24078c0.54154,-0.63992 1.08161,-1.28745 1.59872,-1.97693c0.30132,-0.18653 -1.06934,-1.35483 -1.32738,-1.34568c-0.79104,0.02804 -0.69204,1.12305 -0.90225,1.33328c-0.16288,0.16288 -0.47241,-0.07032 -0.69101,0.00228c-0.51888,0.17232 -0.82127,1.54076 -0.98115,1.91452c-0.17335,0.40523 -1.02074,1.01137 -1.62409,1.39524c-0.11823,0.14846 -0.24028,0.2943 -0.3673,0.43672c0.00637,0.04005 0.01273,0.0801 0.0191,0.12015l0.10468,-0.18329c0,0 0.39345,0.2623 0.13115,0.65575c-0.2623,0.39345 -0.65575,0.13115 -0.65575,0.13115l-0.14661,-0.1683c-0.43851,0.40695 -1.18816,1.10354 -1.13235,1.53865c0.03293,0.25668 0.47887,0.20105 0.70056,0.33455c0.10881,0.04408 1.55877,0.85105 1.56121,0.84849c0.2105,-0.2218 0.42811,-0.55024 0.64732,-0.90993c-0.14707,-0.11216 -0.29414,-0.22431 -0.44121,-0.33647l-0.35917,-0.47098c0,0 -0.28372,-0.3783 0.09457,-0.66201c0.3783,-0.28372 0.66201,0.09457 0.66201,0.09457l0.27132,0.36969c0.08587,0.06303 0.17174,0.12604 0.25761,0.18906c0.1693,-0.28258 0.33712,-0.55057 0.50088,-0.76891c0.48972,-0.65296 1.00404,-1.27152 1.5238,-1.88626c-0.03732,-0.00889 -0.06015,-0.01802 -0.06015,-0.01802c-0.17514,-0.07005 -0.35028,-0.14011 -0.52541,-0.21016l-0.24602,-0.12118c0,0 -0.42295,-0.21148 -0.21148,-0.63442zM234.36259,183.35046c0.26072,-0.22514 0.61849,-0.50602 0.72918,-0.56997c1.28715,-0.74369 3.67328,1.04625 2.84887,2.46253c-1.29724,1.72965 -2.70637,3.22319 -3.99311,4.93885c-0.33878,0.45171 -1.19364,2.12328 -1.62421,2.33879c-0.74888,0.37482 -1.79833,-0.58287 -2.43192,-0.83282c-0.27083,-0.16202 -1.10225,-0.60228 -1.19092,-0.92643c-0.14055,-0.51377 0.52197,-1.49551 0.81259,-1.88254c1.30981,-1.74436 2.7985,-3.85014 4.35228,-5.40983c0,0 0.22886,-0.22886 0.49724,-0.11856z" fill="#bebaa7" stroke="none" stroke-width="0.5"/><path d="M234.22417,186.94029l0.24934,0.12719c0.17514,0.07005 0.35241,0.14786 0.52755,0.21792c0,0 0.02289,0.00964 0.06021,0.01853c-0.51977,0.61474 -1.06371,1.26869 -1.55343,1.92166c-0.16377,0.21834 -0.33846,0.48594 -0.50776,0.76852c-0.08587,-0.06303 -0.17546,-0.12691 -0.26132,-0.18993l-0.27641,-0.37167c0,0 -0.29066,-0.38298 -0.66895,-0.09927c-0.3783,0.28372 -0.05571,0.61253 -0.05571,0.61253l0.35437,0.46824c0.14707,0.11216 0.28939,0.2226 0.43646,0.33476c-0.21921,0.35969 -0.4561,0.7481 -0.66658,0.9699c-0.00242,0.00256 -1.46296,-0.81092 -1.57178,-0.855c-0.22169,-0.1335 -0.6709,-0.08143 -0.70383,-0.33811c-0.05581,-0.43511 0.69093,-1.1361 1.12944,-1.54306l0.20079,0.13615c0,0 0.34231,0.29903 0.60461,-0.09441c0.2623,-0.39345 -0.13559,-0.66324 -0.13559,-0.66324l-0.04724,0.15734c-0.00637,-0.04005 -0.07012,-0.05402 -0.07649,-0.09407c0.12702,-0.14241 0.2476,-0.2925 0.36584,-0.44096c0.60335,-0.38387 1.47669,-1.02928 1.65003,-1.43451c0.15989,-0.37377 0.47581,-1.74122 0.99468,-1.91354c0.2186,-0.0726 0.53412,0.16307 0.697,0.0002c0.21022,-0.21022 0.11212,-1.30472 0.90317,-1.33276c0.25804,-0.00915 1.63801,1.16742 1.33668,1.35395c-0.51711,0.68948 -1.05305,1.34438 -1.59459,1.9843c-0.083,-0.16828 -0.32088,-0.21345 -0.32088,-0.21345c-0.17514,-0.07005 -0.34582,-0.13415 -0.52096,-0.20421l-0.17203,-0.0868c0,0 -0.41601,-0.20694 -0.62749,0.21601c-0.21148,0.42294 0.25088,0.58782 0.25088,0.58782z" data-paper-data="{&quot;noHover&quot;:false,&quot;origItem&quot;:[&quot;Path&quot;,{&quot;applyMatrix&quot;:true,&quot;segments&quot;:[[[229.56535,189.6678],[-0.33541,0.67082],[0.33541,-0.67082]],[230.57158,189.33239],[[230.84804,189.47352],[0,0],[0.27778,0.11111]],[[231.68138,189.80686],[-0.27778,-0.11111],[0,0]],[[232.1005,190.18876],[-0.13165,-0.26691],[0.85892,-1.01495]],[[234.63617,187.05321],[-0.82017,1.09356],[0.47792,-0.29586]],[[232.53086,184.91889],[0.40927,-0.01451],[-1.25465,0.04448]],[[231.09983,187.03354],[0.33342,-0.33342],[-0.25833,0.25833]],[[230.00384,187.03715],[0.34671,-0.11514],[-0.82297,0.27331]],[[228.44768,190.07372],[0.25359,-0.59282],[-0.27494,0.64271]],[[225.87176,192.28666],[0.95695,-0.60884],[-0.18753,0.23547]],[[225.2892,192.97932],[0.20146,-0.22588],[0.0101,0.06352]],[[225.3195,193.16988],[-0.0101,-0.06352],[0,0]],[225.48553,192.87918],[[225.69354,193.91924],[0.41603,-0.62404],[-0.41603,0.62404]],[224.65348,194.12725],[[224.42095,193.86032],[0,0],[-0.69551,0.64545]],[[222.62498,196.30071],[-0.08852,-0.69011],[0.05222,0.40711]],[[223.73611,196.83133],[-0.35161,-0.21173],[0.17258,0.06991]],[[226.21227,198.17709],[-0.00385,0.00406],[0.33386,-0.35179]],[[227.23896,196.73388],[-0.34768,0.57049],[-0.23326,-0.17789]],[[226.53917,196.20021],[0.23326,0.17789],[0,0]],[225.9695,195.45321],[[226.1195,194.40321],[-0.6,0.45],[0.6,-0.45]],[227.1695,194.55321],[[227.59983,195.13955],[0,0],[0.13619,0.09996]],[[228.00841,195.43942],[-0.13619,-0.09996],[0.26852,-0.44819]],[[228.80283,194.21988],[-0.25974,0.34631],[0.77673,-1.03564]],[[231.21969,191.22816],[-0.82438,0.97502],[-0.05919,-0.0141]],[[231.12429,191.19957],[0,0],[-0.27778,-0.11111]],[[230.29096,190.86624],[0.27778,0.11111],[0,0]],[229.90076,190.67403]],&quot;closed&quot;:true}]}" fill="#e9e5cd" stroke="none" stroke-width="0.5"/></g></g></svg>