<svg version="1.1" xmlns="http://www.w3.org/2000/svg" xmlns:xlink="http://www.w3.org/1999/xlink" width="52.75" height="52.75" viewBox="0,0,52.75,52.75"><defs><linearGradient x1="240" y1="181.04669" x2="240" y2="189.54669" gradientUnits="userSpaceOnUse" id="color-1"><stop offset="0" stop-color="#414141"/><stop offset="1" stop-color="#1a1a1a"/></linearGradient></defs><g transform="translate(-213.625,-153.625)"><g data-paper-data="{&quot;isPaintingLayer&quot;:true}" fill-rule="nonzero" stroke-linecap="butt" stroke-linejoin="miter" stroke-miterlimit="10" stroke-dasharray="" stroke-dashoffset="0" style="mix-blend-mode: normal"><path d="M214.875,205.125v-50.25h50.25v50.25z" fill="#7f7f7f" stroke="#5e5e5e" stroke-width="2.5"/><path d="M221.5625,197.11305v-8.5h36.875v8.5z" fill="#8c8c8c" stroke="#707070" stroke-width="1.5"/><path d="M221.5625,192.86305v-20.39105h36.875v20.39105z" fill="#8c8c8c" stroke="#707070" stroke-width="1.5"/><path d="M225.11111,189.54669v-13.75833h29.77778v13.75833z" fill="#ef8f3c" stroke="#e06c00" stroke-width="1.5"/><path d="M246.16667,181.58418c0,-0.41422 0.33578,-0.75 0.75,-0.75c0.41422,0 0.75,0.33578 0.75,0.75c0,0.41422 -0.33578,0.75 -0.75,0.75c-0.41422,0 -0.75,-0.33578 -0.75,-0.75z" fill="#e06c00" stroke="none" stroke-width="0.5"/><path d="M243.29167,181.45918c0,-0.41422 0.33578,-0.75 0.75,-0.75c0.41422,0 0.75,0.33578 0.75,0.75c0,0.41422 -0.33578,0.75 -0.75,0.75c-0.41422,0 -0.75,-0.33578 -0.75,-0.75z" fill="#e06c00" stroke="none" stroke-width="0.5"/><path d="M240.54167,181.33418c0,-0.41422 0.33578,-0.75 0.75,-0.75c0.41422,0 0.75,0.33578 0.75,0.75c0,0.41422 -0.33578,0.75 -0.75,0.75c-0.41422,0 -0.75,-0.33578 -0.75,-0.75z" fill="#e06c00" stroke="none" stroke-width="0.5"/><path d="M237.61111,181.70918c0,-0.41422 0.33578,-0.75 0.75,-0.75c0.41422,0 0.75,0.33578 0.75,0.75c0,0.41422 -0.33578,0.75 -0.75,0.75c-0.41422,0 -0.75,-0.33578 -0.75,-0.75z" fill="#e06c00" stroke="none" stroke-width="0.5"/><path d="M234.73611,181.58418c0,-0.41422 0.33578,-0.75 0.75,-0.75c0.41422,0 0.75,0.33578 0.75,0.75c0,0.41422 -0.33578,0.75 -0.75,0.75c-0.41422,0 -0.75,-0.33578 -0.75,-0.75z" fill="#e06c00" stroke="none" stroke-width="0.5"/><path d="M231.98611,181.45918c0,-0.41422 0.33578,-0.75 0.75,-0.75c0.41422,0 0.75,0.33578 0.75,0.75c0,0.41422 -0.33578,0.75 -0.75,0.75c-0.41422,0 -0.75,-0.33578 -0.75,-0.75z" fill="#e06c00" stroke="none" stroke-width="0.5"/><path d="M231.98611,181.45918c0,-0.41422 0.33578,-0.75 0.75,-0.75c0.41422,0 0.75,0.33578 0.75,0.75c0,0.41422 -0.33578,0.75 -0.75,0.75c-0.41422,0 -0.75,-0.33578 -0.75,-0.75z" fill="#e06c00" stroke="none" stroke-width="0.5"/><path d="M229.11111,181.33418c0,-0.41422 0.33578,-0.75 0.75,-0.75c0.41422,0 0.75,0.33578 0.75,0.75c0,0.41422 -0.33578,0.75 -0.75,0.75c-0.41422,0 -0.75,-0.33578 -0.75,-0.75z" fill="#e06c00" stroke="none" stroke-width="0.5"/><path d="M226.36111,181.20918c0,-0.41422 0.33578,-0.75 0.75,-0.75c0.41422,0 0.75,0.33578 0.75,0.75c0,0.41422 -0.33578,0.75 -0.75,0.75c-0.41422,0 -0.75,-0.33578 -0.75,-0.75z" fill="#e06c00" stroke="none" stroke-width="0.5"/><path d="M246.20832,184.25085c0,-0.41422 0.33578,-0.75 0.75,-0.75c0.41422,0 0.75,0.33578 0.75,0.75c0,0.41422 -0.33578,0.75 -0.75,0.75c-0.41422,0 -0.75,-0.33578 -0.75,-0.75z" fill="#e06c00" stroke="none" stroke-width="0.5"/><path d="M243.33332,184.12585c0,-0.41422 0.33578,-0.75 0.75,-0.75c0.41422,0 0.75,0.33578 0.75,0.75c0,0.41422 -0.33578,0.75 -0.75,0.75c-0.41422,0 -0.75,-0.33578 -0.75,-0.75z" fill="#e06c00" stroke="none" stroke-width="0.5"/><path d="M240.58332,184.00085c0,-0.41422 0.33578,-0.75 0.75,-0.75c0.41422,0 0.75,0.33578 0.75,0.75c0,0.41422 -0.33578,0.75 -0.75,0.75c-0.41422,0 -0.75,-0.33578 -0.75,-0.75z" fill="#e06c00" stroke="none" stroke-width="0.5"/><path d="M237.65278,184.37585c0,-0.41422 0.33578,-0.75 0.75,-0.75c0.41422,0 0.75,0.33578 0.75,0.75c0,0.41422 -0.33578,0.75 -0.75,0.75c-0.41422,0 -0.75,-0.33578 -0.75,-0.75z" fill="#e06c00" stroke="none" stroke-width="0.5"/><path d="M234.77778,184.25085c0,-0.41422 0.33578,-0.75 0.75,-0.75c0.41422,0 0.75,0.33578 0.75,0.75c0,0.41422 -0.33578,0.75 -0.75,0.75c-0.41422,0 -0.75,-0.33578 -0.75,-0.75z" fill="#e06c00" stroke="none" stroke-width="0.5"/><path d="M232.02778,184.12585c0,-0.41422 0.33578,-0.75 0.75,-0.75c0.41422,0 0.75,0.33578 0.75,0.75c0,0.41422 -0.33578,0.75 -0.75,0.75c-0.41422,0 -0.75,-0.33578 -0.75,-0.75z" fill="#e06c00" stroke="none" stroke-width="0.5"/><path d="M232.02778,184.12585c0,-0.41422 0.33578,-0.75 0.75,-0.75c0.41422,0 0.75,0.33578 0.75,0.75c0,0.41422 -0.33578,0.75 -0.75,0.75c-0.41422,0 -0.75,-0.33578 -0.75,-0.75z" fill="#e06c00" stroke="none" stroke-width="0.5"/><path d="M229.15278,184.00085c0,-0.41422 0.33578,-0.75 0.75,-0.75c0.41422,0 0.75,0.33578 0.75,0.75c0,0.41422 -0.33578,0.75 -0.75,0.75c-0.41422,0 -0.75,-0.33578 -0.75,-0.75z" fill="#e06c00" stroke="none" stroke-width="0.5"/><path d="M226.40278,183.87585c0,-0.41422 0.33578,-0.75 0.75,-0.75c0.41422,0 0.75,0.33578 0.75,0.75c0,0.41422 -0.33578,0.75 -0.75,0.75c-0.41422,0 -0.75,-0.33578 -0.75,-0.75z" fill="#e06c00" stroke="none" stroke-width="0.5"/><path d="M247.06944,185.80641c0.41422,0 0.75,0.33578 0.75,0.75c0,0.41422 -0.33578,0.75 -0.75,0.75c-0.41422,0 -0.75,-0.33578 -0.75,-0.75c0,-0.41422 0.33578,-0.75 0.75,-0.75z" data-paper-data="{&quot;index&quot;:null}" fill="#e06c00" stroke="none" stroke-width="0.5"/><path d="M244.19444,185.93141c0.41422,0 0.75,0.33578 0.75,0.75c0,0.41422 -0.33578,0.75 -0.75,0.75c-0.41422,0 -0.75,-0.33578 -0.75,-0.75c0,-0.41422 0.33578,-0.75 0.75,-0.75z" data-paper-data="{&quot;index&quot;:null}" fill="#e06c00" stroke="none" stroke-width="0.5"/><path d="M241.44444,186.05641c0.41422,0 0.75,0.33578 0.75,0.75c0,0.41422 -0.33578,0.75 -0.75,0.75c-0.41422,0 -0.75,-0.33578 -0.75,-0.75c0,-0.41422 0.33578,-0.75 0.75,-0.75z" data-paper-data="{&quot;index&quot;:null}" fill="#e06c00" stroke="none" stroke-width="0.5"/><path d="M238.51389,185.68141c0.41422,0 0.75,0.33578 0.75,0.75c0,0.41422 -0.33578,0.75 -0.75,0.75c-0.41422,0 -0.75,-0.33578 -0.75,-0.75c0,-0.41422 0.33578,-0.75 0.75,-0.75z" data-paper-data="{&quot;index&quot;:null}" fill="#e06c00" stroke="none" stroke-width="0.5"/><path d="M235.63889,185.80641c0.41422,0 0.75,0.33578 0.75,0.75c0,0.41422 -0.33578,0.75 -0.75,0.75c-0.41422,0 -0.75,-0.33578 -0.75,-0.75c0,-0.41422 0.33578,-0.75 0.75,-0.75z" data-paper-data="{&quot;index&quot;:null}" fill="#e06c00" stroke="none" stroke-width="0.5"/><path d="M232.88889,185.93141c0.41422,0 0.75,0.33578 0.75,0.75c0,0.41422 -0.33578,0.75 -0.75,0.75c-0.41422,0 -0.75,-0.33578 -0.75,-0.75c0,-0.41422 0.33578,-0.75 0.75,-0.75z" data-paper-data="{&quot;index&quot;:null}" fill="#e06c00" stroke="none" stroke-width="0.5"/><path d="M232.88889,185.93141c0.41422,0 0.75,0.33578 0.75,0.75c0,0.41422 -0.33578,0.75 -0.75,0.75c-0.41422,0 -0.75,-0.33578 -0.75,-0.75c0,-0.41422 0.33578,-0.75 0.75,-0.75z" data-paper-data="{&quot;index&quot;:null}" fill="#e06c00" stroke="none" stroke-width="0.5"/><path d="M230.01389,186.05641c0.41422,0 0.75,0.33578 0.75,0.75c0,0.41422 -0.33578,0.75 -0.75,0.75c-0.41422,0 -0.75,-0.33578 -0.75,-0.75c0,-0.41422 0.33578,-0.75 0.75,-0.75z" data-paper-data="{&quot;index&quot;:null}" fill="#e06c00" stroke="none" stroke-width="0.5"/><path d="M227.26389,186.18141c0.41422,0 0.75,0.33578 0.75,0.75c0,0.41422 -0.33578,0.75 -0.75,0.75c-0.41422,0 -0.75,-0.33578 -0.75,-0.75c0,-0.41422 0.33578,-0.75 0.75,-0.75z" data-paper-data="{&quot;index&quot;:null}" fill="#e06c00" stroke="none" stroke-width="0.5"/><path d="M251.98612,181.36196c0,-0.41422 0.33578,-0.75 0.75,-0.75c0.41422,0 0.75,0.33578 0.75,0.75c0,0.41422 -0.33578,0.75 -0.75,0.75c-0.41422,0 -0.75,-0.33578 -0.75,-0.75z" fill="#e06c00" stroke="none" stroke-width="0.5"/><path d="M249.05556,181.73696c0,-0.41422 0.33578,-0.75 0.75,-0.75c0.41422,0 0.75,0.33578 0.75,0.75c0,0.41422 -0.33578,0.75 -0.75,0.75c-0.41422,0 -0.75,-0.33578 -0.75,-0.75z" fill="#e06c00" stroke="none" stroke-width="0.5"/><path d="M252.02778,184.02864c0,-0.41422 0.33578,-0.75 0.75,-0.75c0.41422,0 0.75,0.33578 0.75,0.75c0,0.41422 -0.33578,0.75 -0.75,0.75c-0.41422,0 -0.75,-0.33578 -0.75,-0.75z" fill="#e06c00" stroke="none" stroke-width="0.5"/><path d="M249.09723,184.40364c0,-0.41422 0.33578,-0.75 0.75,-0.75c0.41422,0 0.75,0.33578 0.75,0.75c0,0.41422 -0.33578,0.75 -0.75,0.75c-0.41422,0 -0.75,-0.33578 -0.75,-0.75z" fill="#e06c00" stroke="none" stroke-width="0.5"/><path d="M252.88889,186.08418c0.41422,0 0.75,0.33578 0.75,0.75c0,0.41422 -0.33578,0.75 -0.75,0.75c-0.41422,0 -0.75,-0.33578 -0.75,-0.75c0,-0.41422 0.33578,-0.75 0.75,-0.75z" data-paper-data="{&quot;index&quot;:null}" fill="#e06c00" stroke="none" stroke-width="0.5"/><path d="M249.95834,185.70918c0.41422,0 0.75,0.33578 0.75,0.75c0,0.41422 -0.33578,0.75 -0.75,0.75c-0.41422,0 -0.75,-0.33578 -0.75,-0.75c0,-0.41422 0.33578,-0.75 0.75,-0.75z" data-paper-data="{&quot;index&quot;:null}" fill="#e06c00" stroke="none" stroke-width="0.5"/><path d="M246.16667,178.77862c0,-0.41422 0.33578,-0.75 0.75,-0.75c0.41422,0 0.75,0.33578 0.75,0.75c0,0.41422 -0.33578,0.75 -0.75,0.75c-0.41422,0 -0.75,-0.33578 -0.75,-0.75z" fill="#e06c00" stroke="none" stroke-width="0.5"/><path d="M243.29167,178.65362c0,-0.41422 0.33578,-0.75 0.75,-0.75c0.41422,0 0.75,0.33578 0.75,0.75c0,0.41422 -0.33578,0.75 -0.75,0.75c-0.41422,0 -0.75,-0.33578 -0.75,-0.75z" fill="#e06c00" stroke="none" stroke-width="0.5"/><path d="M240.54167,178.52862c0,-0.41422 0.33578,-0.75 0.75,-0.75c0.41422,0 0.75,0.33578 0.75,0.75c0,0.41422 -0.33578,0.75 -0.75,0.75c-0.41422,0 -0.75,-0.33578 -0.75,-0.75z" fill="#e06c00" stroke="none" stroke-width="0.5"/><path d="M237.61111,178.90362c0,-0.41422 0.33578,-0.75 0.75,-0.75c0.41422,0 0.75,0.33578 0.75,0.75c0,0.41422 -0.33578,0.75 -0.75,0.75c-0.41422,0 -0.75,-0.33578 -0.75,-0.75z" fill="#e06c00" stroke="none" stroke-width="0.5"/><path d="M234.73611,178.77862c0,-0.41422 0.33578,-0.75 0.75,-0.75c0.41422,0 0.75,0.33578 0.75,0.75c0,0.41422 -0.33578,0.75 -0.75,0.75c-0.41422,0 -0.75,-0.33578 -0.75,-0.75z" fill="#e06c00" stroke="none" stroke-width="0.5"/><path d="M231.98611,178.65362c0,-0.41422 0.33578,-0.75 0.75,-0.75c0.41422,0 0.75,0.33578 0.75,0.75c0,0.41422 -0.33578,0.75 -0.75,0.75c-0.41422,0 -0.75,-0.33578 -0.75,-0.75z" fill="#e06c00" stroke="none" stroke-width="0.5"/><path d="M231.98611,178.65362c0,-0.41422 0.33578,-0.75 0.75,-0.75c0.41422,0 0.75,0.33578 0.75,0.75c0,0.41422 -0.33578,0.75 -0.75,0.75c-0.41422,0 -0.75,-0.33578 -0.75,-0.75z" fill="#e06c00" stroke="none" stroke-width="0.5"/><path d="M229.11111,178.52862c0,-0.41422 0.33578,-0.75 0.75,-0.75c0.41422,0 0.75,0.33578 0.75,0.75c0,0.41422 -0.33578,0.75 -0.75,0.75c-0.41422,0 -0.75,-0.33578 -0.75,-0.75z" fill="#e06c00" stroke="none" stroke-width="0.5"/><path d="M226.36111,178.40362c0,-0.41422 0.33578,-0.75 0.75,-0.75c0.41422,0 0.75,0.33578 0.75,0.75c0,0.41422 -0.33578,0.75 -0.75,0.75c-0.41422,0 -0.75,-0.33578 -0.75,-0.75z" fill="#e06c00" stroke="none" stroke-width="0.5"/><path d="M251.98612,178.55641c0,-0.41422 0.33578,-0.75 0.75,-0.75c0.41422,0 0.75,0.33578 0.75,0.75c0,0.41422 -0.33578,0.75 -0.75,0.75c-0.41422,0 -0.75,-0.33578 -0.75,-0.75z" fill="#e06c00" stroke="none" stroke-width="0.5"/><path d="M249.05556,178.93141c0,-0.41422 0.33578,-0.75 0.75,-0.75c0.41422,0 0.75,0.33578 0.75,0.75c0,0.41422 -0.33578,0.75 -0.75,0.75c-0.41422,0 -0.75,-0.33578 -0.75,-0.75z" fill="#e06c00" stroke="none" stroke-width="0.5"/><path d="M224.83333,178.18141v-15.29445h30.33333v15.29445z" fill="#999999" stroke="#7d7d7d" stroke-width="1.5"/><path d="M224.83333,190.06612v-11.55556h30.33333v11.55556z" fill="#999999" stroke="#7d7d7d" stroke-width="1.5"/><path d="M231.11458,189.54669v-8.5h17.77083v8.5z" fill="url(#color-1)" stroke="#7d7d7d" stroke-width="1.5"/></g></g></svg>