<svg version="1.1" xmlns="http://www.w3.org/2000/svg" xmlns:xlink="http://www.w3.org/1999/xlink" width="52.75" height="52.75" viewBox="0,0,52.75,52.75"><g transform="translate(-213.625,-153.625)"><g data-paper-data="{&quot;isPaintingLayer&quot;:true}" fill-rule="nonzero" stroke-linecap="butt" stroke-linejoin="miter" stroke-miterlimit="10" stroke-dasharray="" stroke-dashoffset="0" style="mix-blend-mode: normal"><path d="M214.875,205.125v-50.25h50.25v50.25z" fill="#7f7f7f" stroke="#5e5e5e" stroke-width="2.5"/><path d="M242.91751,193.65575c-0.13527,0.30766 -0.42438,0.63641 -1.04223,0.63641c-1.1612,0 -1.1612,-1.1612 -1.1612,-1.1612l0.02255,-0.47791c0.07599,-0.37059 0.15199,-0.74118 0.22798,-1.11177c-0.30944,-0.91386 -0.04106,-2.19396 0.14166,-3.25374c-0.00001,-0.5046 -0.03067,-0.99332 -0.12105,-1.44177c-0.40424,-2.00572 -2.24501,-4.16963 -0.10271,-6.11599c1.43509,-1.30383 4.69766,-0.64165 6.42827,-1.62067c1.12973,-0.63909 2.87075,-2.87331 4.39341,-2.24984c0.65377,0.26769 0.34878,1.37026 0.56813,2.0418c0.72562,2.22147 1.55568,3.29216 0.68845,5.65452c-0.43752,1.0938 -0.94991,3.31798 -1.75816,4.14259c-1.37106,1.39882 -4.21838,2.11509 -5.8786,3.36025c-0.44868,0.33651 -1.61054,1.26997 -2.40651,1.5973z" fill="#dedac3" stroke="none" stroke-width="0.5"/><path d="M228.14298,176.22374c0.04282,-0.05841 0.09313,-0.11711 0.15184,-0.17582c0.82109,-0.82109 1.64218,0 1.64218,0c1.70067,1.70815 3.67483,3.26391 6.01457,3.96115c1.14024,0.33979 3.66548,0.64296 4.38342,1.71298c0.55797,0.83161 0.1044,2.48327 -0.07309,3.38056c-0.52635,2.66106 0.01158,4.62772 0.02255,7.27778v1.25092c0,0.64131 -0.51989,1.1612 -1.1612,1.1612c-0.26564,0 -0.51045,-0.0892 -0.70611,-0.23928l-0.99135,-0.74351l0.25549,-0.34066c-0.67052,-0.539 -1.28867,-1.15745 -1.88096,-1.76868c-1.2704,-1.31103 -3.59776,-2.24591 -5.12949,-3.39471c-0.84707,-0.6353 -2.88407,-1.74127 -3.34409,-2.6613c-0.79651,-1.59302 -0.12259,-5.2152 -0.12259,-7.02408v-1.25092c0,0 0,-1.00776 0.93882,-1.14564z" fill="#d4d0ba" stroke="none" stroke-width="0.5"/><path d="M240.17924,166.2431c2.74667,2.06 5.36776,4.03633 8.09937,6.08003c0.7735,0.4641 1.49222,1.0225 2.25192,1.50887c0.41316,0.26451 1.62421,0.37641 1.28095,0.7269c-1.1406,1.16462 -3.75126,1.76187 -5.211,2.57193c-1.5516,0.86104 -3.22029,1.6573 -4.78071,2.52323c-0.5514,0.30599 -0.9263,1.25206 -1.54158,1.11386c-1.63495,-0.36723 -4.7319,-2.83783 -6.12966,-3.88614c-2.31483,-0.92593 -3.9974,-3.46122 -6.09165,-4.31922c0.10577,0.03642 0.25655,0.07931 0.33063,0.06215c0.41818,-0.09689 0.81482,-0.28176 1.19822,-0.47482c1.0446,-0.52601 1.53524,-0.94304 2.4347,-1.62259c2.28893,-1.72932 5.1967,-3.20631 7.73563,-4.69356z" data-paper-data="{&quot;noHover&quot;:false,&quot;origItem&quot;:[&quot;Path&quot;,{&quot;applyMatrix&quot;:true,&quot;segments&quot;:[[[469.78459,315.78736],[0,0],[-5.4662,3.20197]],[[453.22175,325.82543],[4.92795,-3.72314],[-1.93648,1.46304]],[[447.98496,329.29685],[2.24898,-1.13247],[-0.82544,0.41565]],[[445.4057,330.31391],[0.90033,-0.20859],[-0.15949,0.03695]],[[444.69384,330.18047],[0.22771,0.07841],[4.50881,1.84722]],[[457.79426,339.42092],[-4.98372,-1.99349],[3.0093,2.25698]],[[470.90171,347.74005],[-3.51997,-0.79062],[1.32468,0.29754]],[[474.1968,345.34589],[-1.18714,0.65878],[3.35951,-1.86431]],[[484.43084,339.95955],[-3.34051,1.85377],[3.14274,-1.74402]],[[495.63707,334.46173],[-2.45566,2.50736],[0.73902,-0.75458]],[[492.87881,332.90229],[0.88951,0.56948],[-1.63559,-1.04712]],[[488.03111,329.67049],[1.66531,0.99919],[-5.88104,-4.39998]],[[470.68982,316.66867],[5.91345,4.43509],[0,0]]],&quot;closed&quot;:true}]}" fill="#e9e5cd" stroke="none" stroke-width="0.5"/><path d="M226.61407,172.45544c1.1612,0 1.1612,1.1612 1.1612,1.1612l-0.08305,0.31929c0.74445,1.86112 0.94345,3.39614 1.32832,5.32051c0.00587,1.41848 -0.60351,4.5657 0.11843,5.82109c0.47539,0.82667 1.93683,1.56708 2.67513,2.1208c2.07458,1.55593 4.07617,3.04064 5.8786,4.86135c0.38043,0.38429 2.6031,2.38592 3.17517,2.1905c0.74716,-0.25523 1.90666,-1.55642 2.56235,-2.04818c2.1357,-1.57806 4.22658,-2.49614 6.13022,-4.39544c0.62439,-0.62296 2.40292,-1.48516 2.78468,-2.20005c0.24771,-0.46387 -0.12398,-2.64741 -0.12259,-3.23345c0.00593,-2.50417 -0.48999,-4.99919 -0.50036,-7.50551c0,0 0,-1.1612 1.1612,-1.1612c1.1612,0 1.1612,1.1612 1.1612,1.1612c-0.01452,2.92138 0.50036,5.81845 0.50036,8.75643c0,0.52051 0.02881,2.71008 -0.12259,3.02114c-0.50557,1.03873 -2.3955,1.97739 -3.21972,2.80362c-1.97597,1.9808 -4.20817,2.95192 -6.37896,4.61117c-0.82553,0.61915 -2.45891,2.27372 -3.44206,2.45513c-1.7431,0.32163 -2.98382,-1.02976 -4.20597,-1.95476c-2.28964,-1.73295 -4.40888,-3.74448 -6.75496,-5.50404c-1.06069,-0.79552 -2.67888,-1.69146 -3.32929,-2.88288c-0.9409,-1.72353 -0.39142,-4.78078 -0.38193,-6.68809c-0.34782,-1.73912 -0.50269,-3.00978 -1.17351,-4.68684l-0.08305,-1.18181c0,0 0,-1.1612 1.1612,-1.1612z" fill="#bebaa7" stroke="none" stroke-width="0.5"/><path d="M239.75737,165.88017c-2.53893,1.48725 -5.40416,2.93315 -7.69309,4.66247c-0.89945,0.67955 -1.38777,1.08639 -2.43238,1.6124c-0.3834,0.19306 -0.77983,0.37552 -1.19801,0.4724c-0.07408,0.01716 -0.22488,-0.02556 -0.33064,-0.06198c2.09425,0.85799 3.77003,3.36606 6.08487,4.29199c1.39776,1.04832 4.45318,3.49683 6.08813,3.86406c0.61529,0.1382 0.9791,-0.80605 1.5305,-1.11204c1.56042,-0.86593 3.2019,-1.6408 4.75349,-2.50184c1.45974,-0.81006 4.06445,-1.389 5.20505,-2.55362c0.34326,-0.35049 -0.86799,-0.45982 -1.28115,-0.72433c-0.7597,-0.48636 -1.47815,-1.037 -2.25165,-1.5011c-2.73162,-2.0437 -5.30799,-3.97906 -8.05466,-6.03907zM240.33968,163.67419c0.48861,-0.00205 0.85558,0.36492 0.85558,0.36492l0.376,0.3925c2.72237,2.04177 5.25922,3.94088 7.9571,5.96974c1.61291,0.96775 4.92472,2.3607 4.47307,4.77972c-0.06008,0.32179 -2.10273,1.94902 -2.55064,2.19986c-2.76744,1.54986 -5.7352,2.71186 -8.50624,4.25312c-1.12859,0.62772 -1.30837,1.51265 -2.97281,1.3898c-0.55626,-0.04106 -0.92268,-0.63177 -1.41738,-0.88943c-1.84941,-0.96328 -3.83196,-1.99834 -5.50404,-3.25239c-2.14896,-0.85958 -5.13013,-2.80379 -6.36447,-4.81888c-0.36559,-0.59684 -1.09268,-1.17239 -0.97112,-1.86167c0.24629,-1.39658 1.92826,-1.65211 2.88518,-2.12696c3.60411,-1.78843 6.9579,-4.37442 10.42628,-6.46024c0,0 0.7288,-0.43728 1.31349,0.05989z" fill="#bebaa7" stroke="none" stroke-width="0.5"/><path d="M240.87455,192.29069c-1.1612,0 -1.1612,-1.1612 -1.1612,-1.1612l0.00565,-1.1365c-0.50169,-2.50844 -0.50602,-5.05969 -0.50602,-7.61993c0,0 0,-1.1612 1.1612,-1.1612c1.1612,0 1.1612,1.1612 1.1612,1.1612c0,2.4871 0.00725,4.95375 0.49472,7.39109l0.00565,1.36534c0,0 0,1.1612 -1.1612,1.1612z" fill="#bebaa7" stroke="none" stroke-width="0.5"/><path d="M240.62436,194.7925c-1.1612,0 -1.1612,-1.1612 -1.1612,-1.1612v-0.25018c0.00379,-0.76181 -0.07459,-1.52782 -0.22763,-2.27411c0,0 -0.22773,-1.13865 0.91092,-1.36638c1.13865,-0.22773 1.36638,0.91092 1.36638,0.91092c0.17568,0.89735 0.26895,1.81519 0.27273,2.72957v0.25018c0,0 0,1.1612 -1.1612,1.1612z" fill="#bebaa7" stroke="none" stroke-width="0.5"/></g></g></svg>