<svg version="1.1" xmlns="http://www.w3.org/2000/svg" xmlns:xlink="http://www.w3.org/1999/xlink" width="33.6742" height="35.10974" viewBox="0,0,33.6742,35.10974"><g transform="translate(-223.1629,-162.44513)"><g data-paper-data="{&quot;isPaintingLayer&quot;:true}" fill-rule="nonzero" stroke="none" stroke-width="0.5" stroke-linecap="butt" stroke-linejoin="miter" stroke-miterlimit="10" stroke-dasharray="" stroke-dashoffset="0" style="mix-blend-mode: normal"><path d="M238.30994,165.54288c0.34352,-0.10001 0.70684,-0.19057 1.02213,-0.3575c-0.36769,1.55552 2.49033,2.96888 3.53308,3.503c0.98471,0.50439 2.29472,0.40012 3.34355,0.40217c0.49848,0.00097 1.01952,0.13735 1.49944,0.00258c0.04171,-0.01171 0.08894,-0.0429 0.13705,-0.08528c-0.84907,1.76466 2.69748,3.28258 4.11337,3.58885c0.53413,-0.10035 1.08121,-0.14864 1.60334,-0.29946c0.05515,-0.01593 0.12009,-0.03893 0.19045,-0.06746c-0.10411,0.26547 -0.18487,0.54721 -0.24849,0.75786c-0.63037,2.08741 -1.38425,4.10204 -2.20006,6.14156c-1.89609,4.74023 -4.49192,9.0608 -7.08549,13.45483c-0.62876,0.61946 -1.65407,2.19522 -2.37789,2.56625c-1.1829,0.60634 -1.27951,-3.32897 -1.69122,-3.58185c-1.85355,-1.13846 -3.45958,1.73826 -4.08541,1.33717c-0.72725,-0.46609 -1.35039,-1.13719 -2.15025,-1.46332c-1.32465,-0.54011 -4.04676,-1.61284 -5.464,-1.59676c-1.55622,0.01766 -3.43675,2.35662 -2.33159,-0.03408c3.10266,-7.83823 5.02719,-16.11403 8.13174,-23.95986c1.36321,0.01993 2.72952,0.0787 4.06025,-0.30872z" data-paper-data="{&quot;noHover&quot;:false,&quot;origItem&quot;:[&quot;Path&quot;,{&quot;applyMatrix&quot;:true,&quot;segments&quot;:[[[59.30746,205.25813],[1.36321,0.01993],[-3.10455,7.84583]],[[51.19866,229.14253],[3.10266,-7.83823],[-1.10516,2.3907]],[[53.52742,229.17297],[-1.55622,0.01766],[1.41724,-0.01608]],[[58.97645,230.75781],[-1.32465,-0.54011],[0.79985,0.32613]],[[61.1176,232.21748],[-0.72725,-0.46609],[0.62583,0.40109]],[[65.18734,230.87835],[-1.85355,-1.13846],[0.41171,0.25288]],[[66.87337,234.46064],[-1.1829,0.60634],[0.72383,-0.37102]],[[69.24122,231.89686],[-0.62876,0.61946],[2.59357,-4.39403]],[[76.29383,218.4937],[-1.89609,4.74023],[0.81581,-2.03953]],[[78.49941,212.37077],[-0.63037,2.08741],[0.06362,-0.21066]],[[78.74873,211.61441],[-0.10411,0.26547],[-0.07035,0.02853]],[[78.55833,211.68197],[0.05515,-0.01593],[-0.52213,0.15082]],[[76.95595,211.98303],[0.53413,-0.10035],[-1.41589,-0.30627]],[[72.85574,208.40826],[-0.84907,1.76466],[-0.04811,0.04238]],[[72.71888,208.49367],[0.04171,-0.01171],[-0.47992,0.13477]],[[71.22344,208.49367],[0.49848,0.00097],[-1.04882,-0.00205]],[[67.89198,208.09653],[0.98471,0.50439],[-1.04275,-0.53412]],[[64.37334,204.59523],[-0.36769,1.55552],[-0.31528,0.16693]],[[63.35471,204.9525],[0.34352,-0.10001],[-1.33073,0.38742]]],&quot;closed&quot;:true}]}" fill="#9a6d4e"/><path d="M228.60067,190.70079c-0.88388,-0.88388 0,-1.76777 0,-1.76777l0.3105,-0.25772c0.23326,-0.38618 0.46652,-0.77236 0.69978,-1.15853c1.09789,-2.77052 2.05651,-5.67329 2.91251,-8.52412c0.52397,-1.74503 0.13444,-3.64444 0.78,-5.3286c0.24775,-0.64634 1.05068,-1.50774 1.18466,-2.27804c0.09932,-0.57107 -0.17207,-1.21193 0.0726,-1.73741c0.95499,-2.05108 2.9447,-1.61207 3.73285,-3.72448c0,0 0.46424,-1.1606 1.62483,-0.69636c1.1606,0.46424 0.69636,1.62483 0.69636,1.62483c-0.61454,1.46772 -0.53654,1.80295 -1.96792,2.82247c-0.54443,0.38778 -1.60126,0.28519 -1.77642,0.93024c-1.59986,5.89155 -2.64331,12.12843 -5.01984,18.02236c-0.26522,0.44462 -0.53044,0.88924 -0.79566,1.33386l-0.68646,0.73924c0,0 -0.88388,0.88388 -1.76777,0z" fill="#a57554"/><path d="M237.46023,185.07756c1.25,0 1.25,1.25 1.25,1.25l-0.02427,0.49438c-0.43976,2.19879 -0.9853,4.36713 -1.80981,6.45009c0,0 -0.46424,1.1606 -1.62483,0.69636c-1.1606,-0.46424 -0.69636,-1.62483 -0.69636,-1.62483c0.78154,-1.92996 1.27083,-3.96833 1.67955,-6.0119l-0.02427,-0.00409c0,0 0,-1.25 1.25,-1.25z" fill="#a57554"/><path d="M239.94996,180.44504c-0.03092,0.29575 -0.20972,1.15077 -1.24353,1.15077c-1.25,0 -1.25,-1.25 -1.25,-1.25l0.17813,-0.89236c2.21739,-3.67105 2.33139,-7.36687 3.89911,-11.28615c0,0 0.46424,-1.1606 1.62483,-0.69636c1.1606,0.46424 0.69636,1.62483 0.69636,1.62483c-1.56441,3.91103 -1.79377,7.63855 -3.9049,11.34926z" fill="#a57554"/><path d="M241.19882,195.80247c-1.25,0 -1.25,-1.25 -1.25,-1.25v-0.49848c0.02633,-2.02195 1.09243,-3.42563 1.25228,-5.35721c0.05812,-0.70229 -0.0963,-2.4891 0.01647,-3.10409c0.3977,-2.16874 2.13995,-4.13884 2.4924,-6.23099c0.18613,-1.1049 -0.38876,-2.11518 0.0726,-3.23285c0.63543,-1.53935 2.87829,-3.07894 3.82158,-4.65108c0,0 0.64312,-1.07187 1.71499,-0.42875c1.07187,0.64312 0.42875,1.71499 0.42875,1.71499c-0.13251,0.22085 -1.53335,2.56667 -1.6261,2.67185c-0.57659,0.65391 -1.72559,0.83258 -2.02952,1.6497c-0.31955,0.85912 0.24428,1.84851 0.0726,2.74891c-0.18768,0.98431 -0.93513,1.77658 -1.30774,2.70676c-0.89515,2.23462 -0.94146,4.06903 -1.16818,6.4019c-0.18176,1.87021 -1.27377,3.23237 -1.24012,5.11086v0.49848c0,0 0,1.25 -1.25,1.25z" fill="#8d6348"/><path d="M234.26764,165.89827c-3.10455,7.84583 -5.00614,16.04617 -8.1088,23.8844c-1.10516,2.3907 0.77254,0.04809 2.32876,0.03044c1.41724,-0.01608 4.12438,1.04473 5.44903,1.58484c0.79985,0.32613 1.4139,0.99358 2.14115,1.45967c0.62583,0.40109 2.2162,-2.47759 4.06974,-1.33914c0.41171,0.25288 0.50313,4.18863 1.68603,3.58229c0.72383,-0.37102 1.73909,-1.94431 2.36785,-2.56378c2.59357,-4.39403 5.15652,-8.66293 7.05261,-13.40316c0.81581,-2.03953 1.57521,-4.03553 2.20557,-6.12294c0.06362,-0.21066 0.1452,-0.49088 0.24932,-0.75635c-0.07035,0.02853 -0.13525,0.05163 -0.19039,0.06756c-0.52213,0.15082 -1.06825,0.20071 -1.60238,0.30106c-1.41589,-0.30627 -4.94928,-1.81011 -4.10021,-3.57477c-0.04811,0.04238 -0.09515,0.0737 -0.13687,0.08541c-0.47992,0.13477 -0.99696,0.00097 -1.49544,0c-1.04882,-0.00205 -2.34675,0.10724 -3.33146,-0.39715c-1.04275,-0.53412 -3.88633,-1.94578 -3.51864,-3.5013c-0.31528,0.16693 -0.67511,0.25726 -1.01863,0.35727c-1.33073,0.38742 -2.68404,0.32556 -4.04725,0.30563zM231.98752,164.86621c-0.00937,-0.06938 -0.01437,-0.14345 -0.01437,-0.22252c0,-1.25 1.25,-1.25 1.25,-1.25h0.49848c1.93613,0 3.31481,-0.43896 5.12709,-0.6959c0.79041,-0.11206 1.75681,-0.49752 2.39487,-0.01774c0.73801,0.55494 -0.14153,2.25594 0.67529,2.68655c0.71159,0.37512 1.42976,0.74118 2.11292,1.16587c1.66922,1.03768 4.55434,-0.99001 6.17778,0.65055c0.40412,0.40838 -0.4046,1.12911 -0.30909,1.69565c0.06441,0.38206 1.59836,1.18007 2.01564,1.24449c1.41584,-0.31406 3.61585,-1.77966 4.8377,0.15614c0.48848,0.77392 -1.3161,5.12171 -1.68318,6.04441c-2.4957,6.27327 -5.3905,11.98131 -8.89873,17.75181c-0.8061,0.81582 -2.5324,3.10671 -3.6139,3.41798c-1.10418,0.3178 -3.3712,-0.65716 -3.94238,-1.57745c-0.20748,-0.3343 -0.36631,-0.93689 -0.37077,-1.44388c-0.26621,0.20599 -0.55538,0.38825 -0.75515,0.46559c-0.67117,0.25984 -1.43688,0.48188 -2.1364,0.31258c-0.56783,-0.13742 -0.83366,-0.83037 -1.32284,-1.14977c-1.14215,-0.74573 -4.25152,-1.75844 -5.54288,-1.78747c-1.68845,-0.03795 -2.62499,2.37909 -4.62248,0.3816c-1.30215,-1.30215 -0.47893,-2.60375 -0.02747,-3.84052c3.17691,-7.84511 5.02228,-16.1112 8.14988,-23.98798z" fill="#704f39"/></g></g></svg>