<svg version="1.1" xmlns="http://www.w3.org/2000/svg" xmlns:xlink="http://www.w3.org/1999/xlink" width="132" height="128.66666" viewBox="0,0,132,128.66666"><defs><radialGradient cx="240" cy="180.00002" r="66" gradientUnits="userSpaceOnUse" id="color-1"><stop offset="0" stop-color="#f5fdff"/><stop offset="1" stop-color="#f5fdff" stop-opacity="0"/></radialGradient></defs><g transform="translate(-174,-115.66669)"><g data-paper-data="{&quot;isPaintingLayer&quot;:true}" fill-rule="nonzero" stroke-linejoin="miter" stroke-miterlimit="10" stroke-dasharray="" stroke-dashoffset="0" style="mix-blend-mode: normal"><path d="M174,180.00002c0,-35.53032 29.54921,-64.33333 66,-64.33333c36.45079,0 66,28.80301 66,64.33333c0,35.53032 -29.54921,64.33333 -66,64.33333c-36.45079,0 -66,-28.80301 -66,-64.33333z" data-paper-data="{&quot;index&quot;:null}" fill="url(#color-1)" stroke="none" stroke-width="0" stroke-linecap="butt"/><path d="M226.38794,197.60828l14.98575,-19.981l55.19752,-17.23362" data-paper-data="{&quot;index&quot;:null}" fill="none" stroke="#c7f4ff" stroke-width="1.5" stroke-linecap="round"/><path d="M231.3832,191.86374l7.9924,24.72648" data-paper-data="{&quot;index&quot;:null}" fill="none" stroke="#c7f4ff" stroke-width="1.5" stroke-linecap="round"/><path d="M236.62821,210.34616l-23.22792,13.73694" data-paper-data="{&quot;index&quot;:null}" fill="none" stroke="#c7f4ff" stroke-width="1.5" stroke-linecap="round"/><path d="M221.39269,219.83714l0.24976,14.23646" data-paper-data="{&quot;index&quot;:null}" fill="none" stroke="#c7f4ff" stroke-width="1.5" stroke-linecap="round"/><path d="M198.91407,215.59117l5.49477,-27.9734l31.47008,-1.9981l5.9943,10.24026" data-paper-data="{&quot;index&quot;:null}" fill="none" stroke="#c7f4ff" stroke-width="1.5" stroke-linecap="round"/><path d="M201.66146,200.10589l-18.23267,-3.99621" data-paper-data="{&quot;index&quot;:null}" fill="none" stroke="#c7f4ff" stroke-width="1.5" stroke-linecap="round"/><path d="M189.67286,159.39461l21.22981,26.47482" data-paper-data="{&quot;index&quot;:null}" fill="none" stroke="#c7f4ff" stroke-width="1.5" stroke-linecap="round"/><path d="M195.66716,168.63583l-14.98575,17.9829" data-paper-data="{&quot;index&quot;:null}" fill="none" stroke="#c7f4ff" stroke-width="1.5" stroke-linecap="round"/><path d="M238.87607,180.62442l-24.97625,-14.23646l12.48812,-31.47007" data-paper-data="{&quot;index&quot;:null}" fill="none" stroke="#c7f4ff" stroke-width="1.5" stroke-linecap="round"/><path d="M217.89602,154.39936l-17.9829,-1.2488l-8.74169,-10.73979" data-paper-data="{&quot;index&quot;:null}" fill="none" stroke="#c7f4ff" stroke-width="1.5" stroke-linecap="round"/><path d="M238.6263,155.14864l-11.23931,18.48243" data-paper-data="{&quot;index&quot;:null}" fill="none" stroke="#c7f4ff" stroke-width="1.5" stroke-linecap="round"/><path d="M241.37369,140.41266l24.22697,29.22221" data-paper-data="{&quot;index&quot;:null}" fill="none" stroke="#c7f4ff" stroke-width="1.5" stroke-linecap="round"/><path d="M255.85992,156.64723l17.48338,-12.48812" data-paper-data="{&quot;index&quot;:null}" fill="none" stroke="#c7f4ff" stroke-width="1.5" stroke-linecap="round"/><path d="M265.85042,148.90459l-11.23931,-17.73313" data-paper-data="{&quot;index&quot;:null}" fill="none" stroke="#c7f4ff" stroke-width="1.5" stroke-linecap="round"/><path d="M268.34804,129.67288l-11.23931,4.99525" data-paper-data="{&quot;index&quot;:null}" fill="none" stroke="#c7f4ff" stroke-width="1.5" stroke-linecap="round"/><path d="M247.61775,123.42881l-3.74643,19.48148" data-paper-data="{&quot;index&quot;:null}" fill="none" stroke="#c7f4ff" stroke-width="1.5" stroke-linecap="round"/><path d="M259.85611,222.58452l-18.73218,-44.95724l40.21177,11.48907" data-paper-data="{&quot;index&quot;:null}" fill="none" stroke="#c7f4ff" stroke-width="1.5" stroke-linecap="round"/><path d="M267.59876,184.62063l31.71983,-7.9924" data-paper-data="{&quot;index&quot;:null}" fill="none" stroke="#c7f4ff" stroke-width="1.5" stroke-linecap="round"/><path d="M276.34044,221.58548l-5.74454,-35.21651" data-paper-data="{&quot;index&quot;:null}" fill="none" stroke="#c7f4ff" stroke-width="1.5" stroke-linecap="round"/><path d="M275.09164,205.35091l15.9848,1.74834" data-paper-data="{&quot;index&quot;:null}" fill="none" stroke="#c7f4ff" stroke-width="1.5" stroke-linecap="round"/><path d="M271.59496,196.85899l-8.49193,34.46722" data-paper-data="{&quot;index&quot;:null}" fill="none" stroke="#c7f4ff" stroke-width="1.5" stroke-linecap="round"/><path d="M237.62726,230.32716l15.48528,-21.47958" data-paper-data="{&quot;index&quot;:null}" fill="none" stroke="#c7f4ff" stroke-width="1.5" stroke-linecap="round"/><path d="M235.8822,225.58168l-6.24406,10.98955" data-paper-data="{&quot;index&quot;:null}" fill="none" stroke="#c7f4ff" stroke-width="1.5" stroke-linecap="round"/><path d="M218.14579,187.61777l-1.74834,20.23076" data-paper-data="{&quot;index&quot;:null}" fill="none" stroke="#c7f4ff" stroke-width="1.5" stroke-linecap="round"/></g></g></svg>