<svg version="1.1" xmlns="http://www.w3.org/2000/svg" xmlns:xlink="http://www.w3.org/1999/xlink" width="30.16322" height="27.32846" viewBox="0,0,30.16322,27.32846"><g transform="translate(-224.91839,-166.33577)"><g data-paper-data="{&quot;isPaintingLayer&quot;:true}" fill-rule="nonzero" stroke="none" stroke-width="0.5" stroke-linecap="butt" stroke-linejoin="miter" stroke-miterlimit="10" stroke-dasharray="" stroke-dashoffset="0" style="mix-blend-mode: normal"><path d="M234.0159,170.98184l-0.40217,-0.71121c-0.21803,-0.37074 -0.99098,-0.84454 -0.71933,-1.178c0.24932,-0.30605 2.00475,-0.41257 2.37781,-0.42933c2.69803,-0.12117 5.60881,0.24351 8.2857,0.75197c0.12665,0.17772 0.26407,0.28031 0.26407,0.28031c0.36045,0.2631 0.68833,0.58948 1.08623,0.79153c0.41686,0.21168 1.42148,-0.07852 1.35443,0.38417c-0.08104,0.55921 -0.82178,1.51904 -1.27025,2.25114c-0.24642,0.15441 -0.4671,0.43267 -0.4671,0.93182c0,1.12467 1.13139,1.13118 1.13139,1.13118l1.15904,-0.70619c0.04249,-0.10793 0.09405,-0.22189 0.15323,-0.33968c1.22292,1.54381 3.91009,4.16999 4.20892,5.94617c0.10169,0.60443 -0.37173,1.62929 -0.84853,2.51695c-0.0016,0.00237 -0.0032,0.00478 -0.00479,0.00716c-0.05619,0.08428 -0.09999,0.16712 -0.1327,0.24611c-0.24956,0.45341 -0.4868,0.86216 -0.62443,1.13686c0,0 -0.58464,0.96848 0.42129,1.47145c1.00593,0.50297 1.50718,-0.4993 1.50718,-0.4993c0.00697,-0.01397 0.0972,0.00624 0.10431,-0.0079c1.50086,1.6009 1.09464,1.97057 -0.26413,4.07539c-0.11685,0.18101 -1.14205,2.4924 -1.29009,2.53577c-0.32638,0.09563 -2.36451,-0.64558 -2.80749,-0.73383c-2.48115,-0.49425 -4.90356,-0.71855 -7.34362,-1.45057c0,0 -1.08355,-0.32353 -1.40672,0.7537c-0.03631,0.12102 -0.05501,0.23251 -0.05948,0.33511c-1.71481,-0.0368 -3.78872,-0.26834 -4.6577,-1.4673c0.29077,-0.70432 -0.35889,-1.2454 -0.35889,-1.2454l-0.07793,-0.0462c-0.06355,-0.28127 -0.31783,-0.98866 -1.21574,-0.89887c-0.16754,0.01675 -0.30803,0.05545 -0.42489,0.11021c-0.69695,0.00942 -1.39685,0.04448 -2.0902,0.11382c-0.49855,0.04985 -1.12765,0.73752 -1.45942,0.36207c-0.35221,-0.39858 -0.62534,-4.21021 -0.74858,-5.02101c-0.07591,-0.49942 -0.64411,-1.12593 -0.29581,-1.49182c0.30648,-0.32195 2.28342,-0.87024 2.79728,-1.07462c0,0 1.04501,-0.42478 0.62732,-1.469c-0.32508,-0.8127 -1.02932,-0.74155 -1.32578,-0.66931c-0.13967,-0.56555 -0.59929,-1.11372 -0.46674,-1.67696c0.12795,-0.54369 0.955,-0.59793 1.37537,-0.96572c0.88093,-0.77073 1.52593,-1.70313 2.1653,-2.66033c0.24696,0.24011 0.70101,0.50139 1.32069,0.14729c0.97649,-0.55799 0.4229,-1.53764 0.4229,-1.53764z" data-paper-data="{&quot;noHover&quot;:false,&quot;origItem&quot;:[&quot;Path&quot;,{&quot;applyMatrix&quot;:true,&quot;segments&quot;:[[[288.2683,172.2711],[0.97649,-0.55799],[-0.61968,0.35411]],[[286.95052,172.12123],[0.24696,0.24011],[-0.63937,0.9572]],[[284.79373,174.77018],[0.88093,-0.77073],[-0.42037,0.36778]],[[283.42069,175.73067],[0.12795,-0.54369],[-0.13255,0.56324]],[[283.88911,177.40203],[-0.13967,-0.56555],[0.29646,-0.07224]],[[285.21524,178.06968],[-0.32508,-0.8127],[0.41769,1.04423]],[[284.58871,179.5316],[0,0],[-0.51386,0.20439]],[[281.79136,180.60212],[0.30648,-0.32195],[-0.3483,0.36589]],[[282.08652,182.08858],[-0.07591,-0.49942],[0.12324,0.8108]],[[282.82897,187.0938],[-0.35221,-0.39858],[0.33177,0.37545]],[[284.28745,186.7303],[-0.49855,0.04985],[0.69335,-0.06934]],[[286.37486,186.61281],[-0.69695,0.00942],[0.11686,-0.05477]],[[286.79921,186.50196],[-0.16754,0.01675],[0.89791,-0.08979]],[[288.01018,187.39614],[-0.06355,-0.28127],[0,0]],[288.08779,187.44208],[[288.44308,188.68478],[0.29077,-0.70432],[0.86898,1.19896]],[[293.08141,190.14475],[-1.71481,-0.0368],[0.00447,-0.1026]],[[293.14081,189.80963],[-0.03631,0.12102],[0.32317,-1.07724]],[[294.54122,189.05557],[0,0],[2.44006,0.73202]],[[301.85972,190.5142],[-2.48115,-0.49425],[0.44298,0.08824]],[[304.66289,191.25145],[-0.32638,0.09563],[0.14803,-0.04337]],[[305.94739,188.72169],[-0.11685,0.18101],[1.35877,-2.10482]],[[306.2055,184.65672],[1.50086,1.6009],[-0.00711,0.01414]],[[306.18439,184.69889],[0.00697,-0.01397],[0,0]],[[304.67549,185.20185],[1.00593,0.50297],[-1.00593,-0.50297]],[[304.17252,183.69295],[0,0],[0.13763,-0.27471]],[[304.79527,182.5612],[-0.24956,0.45341],[0.03271,-0.07899]],[[304.9277,182.31619],[-0.05619,0.08428],[0.00159,-0.00239]],[[304.93248,182.30906],[-0.0016,0.00237],[0.4768,-0.88765]],[[305.77981,179.80255],[0.10169,0.60443],[-0.29884,-1.77618]],[[301.58125,173.88501],[1.22292,1.54381],[-0.05918,0.1178]],[[301.42751,174.22406],[0.04249,-0.10793],[0,0]],[300.26911,174.93104],[[299.14444,173.80637],[0,1.12467],[0,-0.49914]],[[299.61238,172.8752],[-0.24642,0.15441],[0.44847,-0.73211]],[[300.8837,170.62483],[-0.08104,0.55921],[0.06705,-0.46269]],[[299.53395,170.24354],[0.41686,0.21168],[-0.3979,-0.20205]],[[298.4526,169.45425],[0.36045,0.2631],[0,0]],[[298.18982,169.17442],[0.12665,0.17772],[-2.67689,-0.50846]],[[289.93558,168.4219],[2.69803,-0.12117],[-0.37307,0.01675]],[[287.56513,168.84753],[0.24932,-0.30605],[-0.27165,0.33345]],[[288.23676,169.94923],[-0.21803,-0.37074],[0,0]],[288.6868,170.73662]],&quot;closed&quot;:true}]}" fill="#9eb0c0"/><path d="M226.58083,181.12421c-0.18857,-0.87357 0.69886,-1.22854 0.69886,-1.22854c0.86687,-0.34675 3.11062,-1.62898 3.94382,-1.56012c1.07283,0.08867 2.23956,1.69546 3.23618,2.15948c4.17113,1.94208 8.59425,3.65869 13.2176,3.65869c0.83702,0.00108 3.32031,-0.48648 3.94648,-0.1002c2.48496,1.53293 0.48356,7.57342 -1.90801,8.35234c-1.3137,0.42786 -3.91567,-0.73143 -5.22546,-1.00072c-3.03899,-0.62481 -6.26674,0.1204 -9.30314,-0.5043c-1.32764,-0.75 -1.58417,-1.72895 -2.65328,-2.53097c-1.16489,-0.87388 -3.22682,0.59261 -4.49347,-0.18126c-1.60625,-0.98134 -1.58001,-3.83923 -1.58186,-5.42198l-0.10549,-0.77387c0,0 -0.06206,-0.4965 0.22777,-0.86855z" fill="#93a4b4"/><path d="M232.51103,169.13461c-0.00095,-0.02235 -0.00143,-0.04518 -0.00143,-0.06849c0,-1.12467 1.12467,-1.12467 1.12467,-1.12467c2.36932,0 4.61772,0.10893 6.96107,0.34799c1.62419,0.16569 3.55373,-0.26006 5.03273,0.7245c1.56855,1.04417 2.0359,3.45933 0.52487,4.87803c-1.33797,1.25621 -4.92187,0.68138 -6.57953,0.51756c-2.66995,-0.2781 -5.34356,-0.74185 -7.06722,-2.95604l-0.3278,-1.31494c0,0 -0.08906,-0.62345 0.33264,-1.00393z" fill="#a9bcce"/><path d="M233.6214,172.55437c-0.61968,0.35411 -1.07083,0.09024 -1.31779,-0.14987c-0.63937,0.9572 -1.27586,1.87822 -2.15679,2.64895c-0.42037,0.36778 -1.24508,0.4168 -1.37304,0.9605c-0.13255,0.56324 0.32875,1.10581 0.46842,1.67136c0.29646,-0.07224 1.00105,-0.14505 1.32613,0.66765c0.41769,1.04423 -0.62654,1.46192 -0.62654,1.46192c-0.51386,0.20439 -2.49086,0.74856 -2.79735,1.07051c-0.3483,0.36589 0.21924,0.98704 0.29515,1.48646c0.12324,0.8108 0.39024,4.60665 0.74245,5.00523c0.33177,0.37545 0.95994,-0.31365 1.45848,-0.3635c0.69335,-0.06934 1.39046,-0.10807 2.08741,-0.11749c0.11686,-0.05477 0.25681,-0.09409 0.42435,-0.11085c0.89791,-0.08979 1.14742,0.61291 1.21097,0.89418l0.07762,0.04594c0,0 0.64606,0.53838 0.35529,1.2427c0.86898,1.19896 2.92351,1.42317 4.63832,1.45997c0.00447,-0.1026 0.0231,-0.2141 0.05941,-0.33512c0.32317,-1.07724 1.40041,-0.75407 1.40041,-0.75407c2.44006,0.73202 4.83735,0.96438 7.3185,1.45863c0.44298,0.08824 2.47678,0.83288 2.80316,0.73725c0.14803,-0.04337 1.16765,-2.34875 1.2845,-2.52976c1.35877,-2.10482 1.75898,-2.46406 0.25812,-4.06497c-0.00711,0.01414 -0.01415,0.0282 -0.02112,0.04216c0,0 -0.50297,1.00593 -1.5089,0.50297c-1.00593,-0.50297 -0.50297,-1.5089 -0.50297,-1.5089c0.13763,-0.27471 0.37319,-0.67834 0.62275,-1.13175c0.03271,-0.07899 0.07624,-0.16074 0.13243,-0.24502c0.00159,-0.00239 0.00318,-0.00476 0.00478,-0.00713c0.4768,-0.88765 0.94902,-1.90208 0.84733,-2.50651c-0.29884,-1.77618 -2.97564,-4.37373 -4.19855,-5.91754c-0.05918,0.1178 -0.11125,0.23112 -0.15375,0.33905l-1.1584,0.70698c0,0 -1.12467,0 -1.12467,-1.12467c0,-0.49914 0.22153,-0.77676 0.46795,-0.93117c0.44847,-0.73211 1.19027,-1.69117 1.27131,-2.25037c0.06705,-0.46269 -0.93289,-0.16962 -1.34975,-0.38129c-0.3979,-0.20205 -0.7209,-0.52619 -1.08135,-0.78929c0,0 -0.13613,-0.1021 -0.26278,-0.27983c-2.67689,-0.50846 -5.5562,-0.87368 -8.25423,-0.75252c-0.37307,0.01675 -2.12113,0.11957 -2.37045,0.42562c-0.27165,0.33345 0.4536,0.73097 0.67164,1.1017l0.45003,0.78739c0,0 0.55799,0.97649 -0.41849,1.53448zM233.87241,166.59285c3.355,-0.68463 7.52106,0.14258 10.82866,0.7996c0,0 0.75272,0.15054 0.89006,0.82475c1.0609,0.57222 2.53632,0.80355 2.84162,2.20374c0.11111,0.50958 -0.06853,1.09496 -0.3505,1.68584l0.49478,0.50887c1.39567,1.86089 4.41748,4.77665 4.77831,7.12325c0.14097,0.91679 -0.24462,2.04191 -0.73009,3.09589l0.07163,0.04995c0.98364,0.98469 2.35818,2.09412 2.38448,3.64953c0.02655,1.5702 -2.09766,4.50187 -3.03531,5.74961c-0.36566,0.48658 -0.66081,1.12934 -1.22726,1.35205c-0.36296,0.1427 -2.35815,-0.29501 -2.90538,-0.40445c-2.41993,-0.48399 -4.80822,-0.76834 -7.187,-1.3407l-1.15525,0.79169c-3.20953,-0.01403 -7.05443,-0.39879 -8.16007,-3.49962c-1.43829,0.14844 -3.7963,0.628 -4.65507,-0.06625c-0.49111,-0.39703 -0.44301,-1.18414 -0.61814,-1.7909c-0.47412,-1.64258 -1.87622,-6.17272 -0.85601,-7.70134c0.23457,-0.35147 1.01683,-0.75428 1.83427,-1.10785l-0.0649,-0.32448c-0.10016,-0.50081 -0.53173,-2.50376 -0.43027,-2.82989c0.43214,-1.389 3.12514,-3.17527 4.02244,-4.52226c0,0 0.20422,-0.30632 0.55423,-0.45161c-0.74257,-2.02865 0.11393,-3.27283 2.67477,-3.79541z" fill="#81909d"/><path d="M240.83288,173.46341c0.29343,-0.17778 0.82685,-0.35993 1.36026,0.17349c0.79526,0.79526 0,1.59052 0,1.59052l-0.79752,0.438c-2.70403,0.2704 -4.04885,0.47693 -6.21854,-1.4144c0,0 -0.8464,-0.7406 -0.1058,-1.587c0.7406,-0.8464 1.587,-0.1058 1.587,-0.1058c1.56885,1.3786 2.25917,1.12142 4.1746,0.90519z" fill="#81909d"/><path d="M236.77074,181.9339c-0.30897,1.0814 -1.39037,0.77243 -1.39037,0.77243l-1.38996,-0.63494c-0.38249,-0.5224 -0.85106,-0.99097 -1.37346,-1.37346c0,0 -0.89973,-0.6748 -0.22493,-1.57454c0.6748,-0.89973 1.57454,-0.22493 1.57454,-0.22493c0.68311,0.52167 1.30166,1.14021 1.82333,1.82333l0.20843,-0.17825c0,0 1.0814,0.30897 0.77243,1.39037z" fill="#81909d"/><path d="M239.13607,182.94869c0.50297,-1.00593 1.5089,-0.50297 1.5089,-0.50297l0.27156,0.13697c0.75578,0.42602 1.3363,0.65046 2.06132,0.78287c0.08104,-0.01104 0.13259,-0.01104 0.13259,-0.01104c1.13083,0.00132 2.18885,0.12414 3.31322,0.00558l0.22608,-0.00558c0,0 1.12467,0 1.12467,1.12467c0,1.12467 -1.12467,1.12467 -1.12467,1.12467l-0.00226,-0.00558c-0.85311,0.08149 -1.66276,0.04987 -2.4906,0.02482c-0.29879,0.11822 -0.58749,0.08935 -0.58749,0.08935c-0.02126,-0.00221 -0.04242,-0.00446 -0.0635,-0.00675c-0.05452,0.00812 -0.11032,0.01233 -0.16711,0.01233c-0.1603,0 -0.31276,-0.03354 -0.45076,-0.09397c-1.10745,-0.17556 -1.99906,-0.49054 -3.06387,-1.0751l-0.18512,-0.09137c0,0 -1.00593,-0.50297 -0.50297,-1.5089z" fill="#81909d"/></g></g></svg>