<svg version="1.1" xmlns="http://www.w3.org/2000/svg" xmlns:xlink="http://www.w3.org/1999/xlink" width="11.56201" height="10.69002" viewBox="0,0,11.56201,10.69002"><g transform="translate(-234.21899,-174.65498)"><g data-paper-data="{&quot;isPaintingLayer&quot;:true}" fill-rule="nonzero" stroke="none" stroke-width="0.5" stroke-linecap="butt" stroke-linejoin="miter" stroke-miterlimit="10" stroke-dasharray="" stroke-dashoffset="0" style="mix-blend-mode: normal"><path d="M234.48942,181.61229c0.00047,-0.90286 -0.52372,-1.90091 -0.11371,-2.70478c0.82721,-1.62186 2.52512,-0.16143 3.36296,-0.74999c1.10696,-0.7776 -0.45686,-2.30899 1.14539,-3.19928c0.94698,-0.52618 3.4222,-0.36744 4.27423,0.47475c0.40516,0.40048 0.38024,1.18213 0.87189,1.46991c0.31227,0.18278 0.77018,0.13507 1.00489,0.41044c0.3878,0.455 0.80871,1.04094 0.73813,1.63461c-0.07512,0.63181 -1.27442,0.687 -1.38488,1.3136c-0.04547,0.25794 0.09526,0.5151 0.14289,0.77264c-0.28229,0.77212 -1.10679,2.7431 -1.82456,3.2137c-0.87753,0.57535 -3.73691,0.72364 -4.85337,0.93803c-0.47602,0.09141 -0.99835,0.25568 -1.45172,0.08421c-0.6685,-0.25284 -1.26721,-1.54141 -1.57602,-2.09336l-0.35989,-0.71798c0,0 -0.2305,-0.46098 0.02379,-0.84651zM236.13213,181.96288l0.19054,0.38215c0.24264,0.44032 0.24278,1.14027 0.70754,1.33198c0.20486,0.0845 2.00049,-0.71102 2.20713,-0.73843c2.0843,-0.27646 2.69863,0.15651 3.59294,-2.10467c-0.09162,-1.13013 0.01438,-1.94574 1.26993,-2.25253c0.33203,-0.08113 -0.71588,-0.04447 -0.99726,-0.23851c-1.39675,-0.96322 -1.1022,-2.49541 -3.30306,-1.9374c-0.37978,0.09629 0.05531,0.80444 -0.07824,1.17277c-0.25938,0.7154 -0.46316,1.54978 -1.05994,2.02193c-0.63691,0.5039 -1.61421,0.20288 -2.42606,0.22433c-0.12712,0.00336 -0.37088,-0.18793 -0.3766,-0.06089c-0.02829,0.62835 0.34115,1.22653 0.34301,1.85551c0,0 0,0.16122 -0.06995,0.34376z" fill="#9d92d6"/><path d="M236.1706,181.63262c-0.00186,-0.62898 -0.37403,-1.24249 -0.34574,-1.87085c0.00572,-0.12703 0.31791,0.06753 0.44502,0.06416c0.81185,-0.02145 1.72198,0.26872 2.3589,-0.23517c0.59678,-0.47215 0.82941,-1.33115 1.0888,-2.04655c0.13355,-0.36833 -0.29946,-1.07666 0.08031,-1.17295c2.20086,-0.55801 1.93857,0.99231 3.33532,1.95553c0.28138,0.19404 1.33142,0.16233 0.9994,0.24346c-1.25554,0.30679 -1.36114,1.1434 -1.26953,2.27353c-0.89431,2.26119 -1.55012,1.85148 -3.63442,2.12793c-0.20665,0.02741 -2.01511,0.81645 -2.21997,0.73194c-0.46476,-0.19171 -0.47223,-0.89986 -0.71488,-1.34017l-0.19221,-0.38506c0.06995,-0.18253 0.06899,-0.34581 0.06899,-0.34581z" data-paper-data="{&quot;noHover&quot;:false,&quot;origItem&quot;:[&quot;Path&quot;,{&quot;applyMatrix&quot;:true,&quot;segments&quot;:[[[341.12911,333.00357],[0.20422,-0.53289],[0,0]],[[341.68539,334.11923],[0,0],[0.70838,1.28547]],[[343.751,338.00784],[-1.35683,-0.55969],[0.59808,0.24671]],[[350.19454,335.85206],[-0.6033,0.08002],[6.08493,-0.80709]],[[360.68382,329.70765],[-2.61086,6.60134],[-0.26747,-3.29931]],[[364.39127,323.13159],[-3.66545,0.89563],[0.96932,-0.23685]],[[361.47987,322.43527],[0.82145,0.56648],[-4.0777,-2.81204]],[[351.83687,316.77919],[6.42522,-1.62907],[-1.10872,0.28111]],[[351.60846,320.20298],[0.38987,-1.0753],[-0.75725,2.08855]],[[348.51405,326.10584],[1.74226,-1.37841],[-1.8594,1.47108]],[[341.43138,326.76075],[2.37013,-0.06263],[-0.37111,0.00981]],[[340.33193,326.58299],[0.0167,-0.37087],[-0.08261,1.83441]],[[341.33333,332],[-0.00544,-1.83626],[0,0]]],&quot;closed&quot;:true}]}" fill="#9cace6"/><path d="M240.86675,178.81843c-0.16794,0.83971 -1.00765,0.67176 -1.00765,0.67176l-0.06562,-0.16679c-0.26641,0.11418 -0.53283,0.22836 -0.79925,0.34253c0,0 -0.7871,0.33733 -1.12442,-0.44977c-0.33733,-0.7871 0.44977,-1.12442 0.44977,-1.12442c0.26641,-0.11418 0.53283,-0.22836 0.79925,-0.34253l1.07616,0.06157c0,0 0.83971,0.16794 0.67176,1.00765z" fill="#9d92d6"/><path d="M240.45654,181.52762c0.54821,0.65786 -0.10964,1.20607 -0.10964,1.20607l-0.50798,0.36828c-0.04096,0.22196 -0.08193,0.44391 -0.12289,0.66587c0,0 -0.20769,0.83077 -1.03846,0.62307c-0.83077,-0.20769 -0.62307,-1.03846 -0.62307,-1.03846c0.11127,-0.38699 0.22255,-0.77399 0.33382,-1.16098l0.86216,-0.77349c0,0 0.65786,-0.54821 1.20607,0.10964z" fill="#9d92d6"/></g></g></svg>