<svg version="1.1" xmlns="http://www.w3.org/2000/svg" xmlns:xlink="http://www.w3.org/1999/xlink" width="52.75" height="52.75" viewBox="0,0,52.75,52.75"><g transform="translate(-213.625,-153.625)"><g data-paper-data="{&quot;isPaintingLayer&quot;:true}" fill-rule="nonzero" stroke-linejoin="miter" stroke-miterlimit="10" stroke-dasharray="" stroke-dashoffset="0" style="mix-blend-mode: normal"><path d="M214.875,205.125v-50.25h50.25v50.25z" fill="#7f7f7f" stroke="#5e5e5e" stroke-width="2.5" stroke-linecap="butt"/><path d="M220.76421,199.23585v-38.47171h38.47171v38.47171z" fill="#827c6d" stroke="#5d594e" stroke-width="1.5" stroke-linecap="butt"/><path d="M241.31053,161.66073l-20.06448,18.88953l0.00001,-11.83986l7.04968,-7.04968z" fill="#ffea00" stroke="#1f1f1f" stroke-width="1.5" stroke-linecap="round"/><path d="M221.33642,198.4456l-0.09038,-5.69397l32.44662,-31.27167h4.69979l0.09038,7.23045l-32.26585,30.00634z" fill="#ffea00" stroke="#1f1f1f" stroke-width="1.5" stroke-linecap="round"/><path d="M258.48284,194.01696l-4.22766,4.79017h-14.66188l18.61969,-17.17231z" fill="#ffea00" stroke="#1f1f1f" stroke-width="1.5" stroke-linecap="round"/><path d="M221.33644,166.81241l-0.09038,-5.24207l6.23625,-0.18076z" fill="#414141" stroke="#1f1f1f" stroke-width="1.5" stroke-linecap="round"/><path d="M258.54697,198.44561l-3.4986,-0.23324l3.61522,-4.54819z" fill="#414141" stroke="#1f1f1f" stroke-width="1.5" stroke-linecap="round"/><path d="M242.03358,161.38959l11.47833,0.36152l-31.90434,30.00634l0.27114,-11.20719z" fill="#414141" stroke="#1f1f1f" stroke-width="1.5" stroke-linecap="round"/><path d="M258.5732,169.31086l-0.09246,12.01958l-19.41623,17.56707h-12.66678z" fill="#414141" stroke="#1f1f1f" stroke-width="1.5" stroke-linecap="round"/><path d="M220.76421,199.23585v-38.47171h38.47171v38.47171z" fill="none" stroke="#1f1f1f" stroke-width="1.5" stroke-linecap="butt"/><text transform="translate(224.49789,195.70915) rotate(-37.10186) scale(0.27541,0.27541)" font-size="40" xml:space="preserve" fill="#ff0000" fill-rule="nonzero" stroke="none" stroke-width="1" stroke-linecap="butt" stroke-linejoin="miter" stroke-miterlimit="10" stroke-dasharray="" stroke-dashoffset="0" font-family="Sans Serif" font-weight="normal" text-anchor="start" style="mix-blend-mode: normal"><tspan x="0" dy="0">Flooring</tspan></text></g></g></svg>