<svg version="1.1" xmlns="http://www.w3.org/2000/svg" xmlns:xlink="http://www.w3.org/1999/xlink" width="10.9855" height="11.65204" viewBox="0,0,10.9855,11.65204"><g transform="translate(-234.50112,-173.32097)"><g data-paper-data="{&quot;isPaintingLayer&quot;:true}" fill-rule="nonzero" stroke="none" stroke-width="0.5" stroke-linecap="butt" stroke-linejoin="miter" stroke-miterlimit="10" stroke-dasharray="" stroke-dashoffset="0" style="mix-blend-mode: normal"><path d="M239.06233,181.20275c-0.2505,-0.07656 -0.47402,-0.21172 -0.64998,-0.41637c-0.19618,-0.09977 -0.33858,-0.21064 -0.39567,-0.32598c-0.71577,-1.44626 1.23219,-2.40768 2.11215,-2.70811c0.37148,0.06262 0.78567,0.00395 1.11445,0.18787c0.84222,0.47115 1.10171,1.02925 1.00782,1.55304c0.14496,1.02573 -0.57465,2.57112 -1.60959,2.62762c-0.90864,0.04961 -1.37802,-0.3486 -1.57919,-0.91807z" fill="#ff0000"/><path d="M236.7889,176.73783c-0.03549,0.09522 -0.09744,0.19386 -0.19607,0.29249c-0.19854,0.19854 -0.39707,0.24842 -0.56779,0.23313c-0.46458,0.93476 0.66561,1.00685 0.90412,2.37501c0.15874,0.91061 -0.83205,1.98949 -0.53394,2.86327c0.69652,2.0416 4.47633,0.56171 5.63027,0.18035c0.98525,-0.41305 0.40878,-0.8745 1.09542,-1.67349c0.28131,-0.32733 1.00854,-0.27394 1.0908,-0.69763c0.23423,-1.2064 -1.70574,-2.3334 -1.88953,-3.31583c-0.07232,-0.38657 0.45347,-1.05925 0.0783,-1.17723c-0.40285,-0.12668 -2.65859,-1.4092 -3.01741,-1.08962c-0.28929,0.25765 -0.64813,1.75858 -1.05255,2.22218c-0.54376,-0.04426 -1.11434,-0.2939 -1.54163,-0.21264zM235.91767,175.49112c0.65451,-0.41297 0.93609,-0.41765 1.8768,0.0584c0.30879,-0.88468 -0.44379,-1.16283 0.69745,-2.02782c0.88747,-0.67265 4.95915,0.48465 5.55401,1.41476c0.32948,0.51517 -0.34452,1.21534 -0.24312,1.8184c0.04143,0.2464 1.24579,1.53194 1.43342,1.91562c0.94169,1.92568 -0.9569,4.48831 -2.63672,5.39742c-2.12328,0.71304 -6.45762,2.05244 -7.61973,-1.06965c-0.43037,-1.15621 0.61837,-2.1092 0.46606,-3.13673c-0.2715,-1.83153 -1.84383,-1.99612 -0.21899,-4.08004c0,0 0.28619,-0.35774 0.69082,-0.29035z" fill="#e2db8b"/><path d="M238.2992,176.9115c0.40441,-0.4636 0.78683,-1.97495 1.07611,-2.23261c0.35882,-0.31958 2.65114,0.97147 3.054,1.09816c0.37516,0.11798 -0.14308,0.7972 -0.07076,1.18377c0.18379,0.98243 2.13544,2.15759 1.9012,3.36399c-0.08226,0.42369 -0.81505,0.38281 -1.09636,0.71014c-0.68664,0.79899 -0.12864,1.27793 -1.11389,1.69098c-1.15394,0.38137 -4.99456,1.85126 -5.69108,-0.19034c-0.2981,-0.87378 0.68015,-1.97834 0.52141,-2.88895c-0.23851,-1.36817 -1.36483,-1.46925 -0.90025,-2.40401c0.17071,0.01529 0.37183,-0.03949 0.57037,-0.23803c0.09864,-0.09864 0.16297,-0.20089 0.19846,-0.29612c0.42729,-0.08126 1.00703,0.15874 1.55079,0.20301z" data-paper-data="{&quot;noHover&quot;:false,&quot;origItem&quot;:[&quot;Path&quot;,{&quot;applyMatrix&quot;:true,&quot;segments&quot;:[[[236.7889,176.73783],[0.42729,-0.08126],[-0.03549,0.09522]],[[236.59283,177.03032],[0.09864,-0.09864],[-0.19854,0.19854]],[[236.02504,177.26346],[0.17071,0.01529],[-0.46458,0.93476]],[[236.92916,179.63847],[-0.23851,-1.36817],[0.15874,0.91061]],[[236.39522,182.50174],[-0.2981,-0.87378],[0.69652,2.0416]],[[242.02549,182.68209],[-1.15394,0.38137],[0.98525,-0.41305]],[[243.12091,181.00859],[-0.68664,0.79899],[0.28131,-0.32733]],[[244.21171,180.31096],[-0.08226,0.42369],[0.23423,-1.2064]],[[242.32218,176.99513],[0.18379,0.98243],[-0.07232,-0.38657]],[[242.40049,175.8179],[0.37516,0.11798],[-0.40285,-0.12668]],[[239.38308,174.72829],[0.35882,-0.31958],[-0.28929,0.25765]],[[238.33053,176.95047],[0.40441,-0.4636],[-0.54376,-0.04426]]],&quot;closed&quot;:true}]}" fill="#f5ee98"/><path d="M239.66541,178.23543c-0.73544,-0.14709 -0.58835,-0.88252 -0.58835,-0.88252l0.52503,-1.14873c0.25,-0.125 0.5,-0.25 0.75,-0.375c0,0 0.67082,-0.33541 1.00623,0.33541c0.33541,0.67082 -0.33541,1.00623 -0.33541,1.00623c-0.25,0.125 -0.5,0.25 -0.75,0.375l0.27503,0.10127c0,0 -0.14709,0.73544 -0.88252,0.58835z" fill="#fff79e"/><path d="M236.6875,178.37499c0,-0.41421 0.33579,-0.75 0.75,-0.75c0.41421,0 0.75,0.33579 0.75,0.75c0,0.41421 -0.33579,0.75 -0.75,0.75c-0.41421,0 -0.75,-0.33579 -0.75,-0.75z" fill="#fff79e"/><path d="M240.0625,181.74999c0,0.75 -0.75,0.75 -0.75,0.75l-0.3733,-0.0102c-0.25,-0.04167 -0.5,-0.08333 -0.75,-0.125c0,0 -0.7398,-0.1233 -0.6165,-0.86309c0.1233,-0.7398 0.86309,-0.6165 0.86309,-0.6165c0.25,0.04167 0.5,0.08333 0.75,0.125l0.1267,-0.0102c0,0 0.75,0 0.75,0.75z" fill="#fff79e"/></g></g></svg>