<svg version="1.1" xmlns="http://www.w3.org/2000/svg" xmlns:xlink="http://www.w3.org/1999/xlink" width="165.84906" height="50.59888" viewBox="0,0,165.84906,50.59888"><g transform="translate(-157.07547,-161.60709)"><g data-paper-data="{&quot;isPaintingLayer&quot;:true}" fill-rule="nonzero" stroke-linecap="butt" stroke-linejoin="miter" stroke-miterlimit="10" stroke-dasharray="" stroke-dashoffset="0" style="mix-blend-mode: normal"><path d="M157.82547,211.45597v-49.09888h164.34906v49.09888z" fill="#858585" stroke="#595959" stroke-width="1.5"/><text transform="translate(163.98221,187.87149) scale(0.65596,0.65596)" font-size="40" xml:space="preserve" fill="#ffffff" fill-rule="nonzero" stroke="none" stroke-width="1" stroke-linecap="butt" stroke-linejoin="miter" stroke-miterlimit="10" stroke-dasharray="" stroke-dashoffset="0" font-family="&quot;Stencil&quot;, Sans Serif" font-weight="400" text-anchor="start" style="mix-blend-mode: normal"><tspan x="0" dy="0">INDUSTRIAL</tspan></text><path d="M202.03857,210.06776c-0.75,0 -0.75,-0.75 -0.75,-0.75l0.05364,-0.22146c-0.06087,-0.15217 -0.12174,-0.30434 -0.1826,-0.45651c-0.01257,0.00193 -0.02514,0.00385 -0.03771,0.00575c0,0.11296 0,0.22592 0,0.33888v0.66667c0,0 0,0.75 -0.75,0.75c-0.75,0 -0.75,-0.75 -0.75,-0.75c0,-0.16839 0,-0.58176 0,-0.94309c-0.05388,-0.00876 -0.11207,-0.01959 -0.17358,-0.033c-0.22794,0.24181 -0.55122,0.39276 -0.90975,0.39276c-0.69036,0 -1.25,-0.55964 -1.25,-1.25c0,-0.3105 0.11321,-0.59456 0.30061,-0.81315c-0.04195,-0.16345 -0.07052,-0.34224 -0.08283,-0.53783v-0.00001c-0.40684,-0.67668 -0.40684,-1.42186 -0.40684,-1.42186c0,-4.13456 -0.49427,-8.03386 -0.95698,-12.07622c-0.21233,0.16648 -0.47989,0.26573 -0.77062,0.26573c-0.69036,0 -1.25,-0.55964 -1.25,-1.25c0,-0.69036 0.55964,-1.25 1.25,-1.25c0.1917,0 0.37332,0.04315 0.53567,0.12027c-0.28667,-2.55373 -1.25184,-4.9833 1.35339,-7.1803c1.04669,-0.88267 2.67882,-0.60591 4.04259,-0.72764c3.65431,-0.32618 9.28351,1.32351 10.27509,5.20833c0.14235,-0.05636 0.29752,-0.08733 0.45992,-0.08733c0.69036,0 1.25,0.55964 1.25,1.25c0,0.69036 -0.55964,1.25 -1.25,1.25c-0.14678,0 -0.28764,-0.0253 -0.41848,-0.07177c-0.06723,0.34678 -0.16618,0.70596 -0.29948,1.07764c-0.36853,1.02754 -1.24821,1.79316 -2.18009,2.44387c0.98195,0.38592 1.85589,0.84583 2.33334,1.37094c1.07769,1.18524 2.28992,2.66358 2.21703,4.26386c-0.05505,1.20887 -1.08697,2.11805 -1.99875,3.01384c0.44846,0.18984 0.7631,0.63399 0.7631,1.15162c0,0.69036 -0.55964,1.25 -1.25,1.25c-0.50758,0 -0.94451,-0.30254 -1.14028,-0.73713c-2.07661,1.91431 -4.7183,3.31743 -7.41197,4.00374c0.02731,0.06828 0.05463,0.13657 0.08194,0.20485l0.05364,0.77854c0,0 0,0.75 -0.75,0.75zM200.96004,191.27587l0.09341,-0.07058c1.24769,-0.17824 4.6338,-0.21638 5.62496,-1.48907c0.32926,-0.4228 -0.67205,-0.88397 -1.153,-1.12032c-1.21418,-0.5967 -3.95206,-1.36519 -5.18737,-0.98046c-0.20958,0.06528 0.10976,0.42531 0.15254,0.64061c0.13895,0.69934 0.30335,1.3953 0.3925,2.10272c0.03836,0.3044 0.05993,0.61052 0.07696,0.9171zM201.59613,197.03585c0.23714,2.09159 0.41481,4.15176 0.47814,6.30455c0.55358,-0.19986 1.08221,-0.46681 1.5607,-0.79025c1.16304,-0.78617 4.1856,-2.2565 5.07316,-3.31261c0.12839,-0.15276 -0.39703,-0.06371 -0.58297,-0.13614c-0.54799,-0.21347 -1.05327,-0.53303 -1.61131,-0.71863c-0.85926,-0.28578 -1.74096,-0.50529 -2.62724,-0.69105c-0.77797,-0.16305 -1.54083,-0.38745 -2.29049,-0.65588z" fill="#00b818" stroke="none" stroke-width="0.5"/><path d="M224.53857,204.4011c-0.26482,0 -0.43613,-0.0935 -0.54695,-0.21448c0.02238,0.26722 0.05828,0.53703 0.11572,0.81739l0.01456,0.48042c0,0 0,0.75 -0.75,0.75c-0.75,0 -0.75,-0.75 -0.75,-0.75l0.01456,-0.18625c-0.03109,-0.15868 -0.05684,-0.3146 -0.07818,-0.46879c-0.09378,0.04431 -0.20972,0.07171 -0.35305,0.07171c-0.03115,0 -0.061,-0.00129 -0.08962,-0.00377c-0.00728,0.10855 -0.01477,0.21712 -0.02246,0.32571c0,0 -0.04278,0.5989 -0.37991,1.18872c0.15213,0.20706 0.24199,0.4627 0.24199,0.73934c0,0.69036 -0.55964,1.25 -1.25,1.25c-0.55302,0 -1.02216,-0.35913 -1.18693,-0.85689c-0.03191,-0.00143 -0.06421,-0.0033 -0.09691,-0.00564c-2.49365,-0.17812 -2.31553,-2.67176 -2.31553,-2.67176c0.19494,-2.70696 0.28855,-5.42318 0.19503,-8.13869c-0.06537,-1.89799 -0.69154,-3.80637 -0.40138,-5.68319c0.24992,-1.61652 -0.06556,-3.92002 1.36479,-4.71358c3.16584,-1.75641 6.06228,1.65706 7.74884,3.39289c4.05124,4.1696 7.79086,8.37805 10.42244,13.60265l-0.2,2.63607c0,0 -1.11803,2.23607 -3.3541,1.11803c-1.29152,-0.64576 -1.46409,-1.66449 -1.37944,-2.40993c-0.45582,-0.84532 -0.94475,-1.65332 -1.46279,-2.43353c-0.62156,0.30739 -1.23973,0.30739 -1.23973,0.30739c-0.84044,0 -2.29213,0 -3.76232,0c0.06591,0.16477 0.13181,0.32954 0.19772,0.49431l0.05364,0.61188c0,0 0,0.75 -0.75,0.75zM226.19951,197.54492h0.17793c-0.70607,-0.79815 -1.43852,-1.58665 -2.19156,-2.37932c-0.06146,-0.0647 -1.17729,-1.07847 -2.12569,-2.14532c0.01295,0.16331 0.02342,0.31452 0.0329,0.44561c0.09844,1.36236 0.16209,2.72124 0.19164,4.07902c1.30493,0 2.60985,0 3.91478,0z" fill="#00b818" stroke="none" stroke-width="0.5"/><path d="M249.70524,191.9011c-0.75,0 -0.75,-0.75 -0.75,-0.75l0.01456,-0.51958c-0.00631,-0.03156 -0.01262,-0.06312 -0.01894,-0.09468c-0.20295,-0.00121 -0.33149,-0.02099 -0.33149,-0.02099c-0.74443,-0.12366 -1.47969,-0.33173 -2.2333,-0.37097c-0.57773,-0.03008 -1.14958,0.14329 -1.7277,0.16472c-0.19789,0.00734 -0.68886,-0.24974 -0.58882,-0.07885c0.42036,0.71803 1.54143,0.63054 2.28772,0.99841c1.86613,0.91986 3.78832,1.72858 5.62015,2.71496c1.33654,0.71968 3.45778,0.87132 3.92041,2.31709c0.49424,1.54455 -0.30297,3.32305 -1.23497,4.72467c0.12306,0.78528 0.1257,1.51774 0.1257,2.33188v0.33333c0,0 0,0.75 -0.75,0.75c-0.35244,0 -0.53926,-0.16562 -0.63829,-0.3412c-0.12949,0.03352 -0.28645,0.02907 -0.47359,-0.04578c-0.69636,-0.27854 -0.41781,-0.9749 -0.41781,-0.9749l0.23644,-0.59111c-0.56397,0.19229 -1.16592,0.33475 -1.69646,0.54811c-2.44082,0.98159 -4.87688,1.6758 -7.44144,2.01063l0.01448,0.47758c0,0 0,0.75 -0.75,0.75c-0.44268,0 -0.62407,-0.26128 -0.6984,-0.47541c-0.10873,0.08392 -0.25942,0.14208 -0.46827,0.14208c-0.75,0 -0.75,-0.75 -0.75,-0.75c0,-0.12881 0,-0.32929 0,-0.53497l-1.47377,-0.53514c0,0 -2.23607,-1.11803 -1.11803,-3.3541h0.00001c1.11803,-2.23607 3.3541,-1.11803 3.3541,-1.11803l0.29022,0.54343c0.09775,-0.00656 0.1954,-0.01433 0.29295,-0.02324c-0.11351,-0.18822 -0.17882,-0.40879 -0.17882,-0.64462c0,-0.69036 0.55964,-1.25 1.25,-1.25c0.69036,0 1.25,0.55964 1.25,1.25c0,0.08375 -0.00824,0.16557 -0.02394,0.24471c0.74789,-0.18449 1.48662,-0.41223 2.21333,-0.65671c0.79295,-0.26676 1.59692,-0.49961 2.3991,-0.73733c-0.96701,-0.36158 -1.89331,-1.04368 -2.2986,-1.23922c-2.79263,-1.34734 -8.46343,-3.25418 -7.78232,-7.6368c0.77726,-5.00133 7.03403,-4.3502 10.25019,-3.88509c0,0 2.47093,0.38014 2.09079,2.85107c-0.142,0.923 -0.57573,1.44818 -1.06344,1.74395c0.01122,0.05611 0.02244,0.11222 0.03367,0.16833l0.01456,0.81375c0,0 0,0.75 -0.75,0.75z" fill="#00b818" stroke="none" stroke-width="0.5"/><path d="M255.95524,205.6511c0,-0.66622 0.5212,-1.21071 1.1781,-1.24797c-0.03383,-0.21626 -0.03383,-0.35822 -0.03383,-0.35822l0.11055,-0.93521c1.32649,-4.26503 1.19688,-8.09914 0.51852,-12.48464c0,0 -0.38014,-2.47093 2.09079,-2.85107c2.47093,-0.38014 2.85107,2.09079 2.85107,2.09079c0.41256,2.69519 0.625,5.23027 0.51409,7.75383c0.11225,-0.03309 0.23107,-0.05085 0.35405,-0.05085c0.69036,0 1.25,0.55964 1.25,1.25c0,0.69036 -0.55964,1.25 -1.25,1.25c-0.19764,0 -0.38458,-0.04587 -0.55073,-0.12755c-0.17998,1.42005 -0.4737,2.85081 -0.90292,4.31855v-0.00001c-0.06642,0.60516 -0.43542,2.28616 -2.48542,2.28616c-0.5396,0 -0.96272,-0.11647 -1.29453,-0.29912c-0.21149,0.39027 -0.62467,0.6553 -1.09974,0.6553c-0.69036,0 -1.25,-0.55964 -1.25,-1.25z" fill="#00b818" stroke="none" stroke-width="0.5"/><path d="M279.37191,201.9011c-0.3274,0 -0.6058,-0.20978 -0.70812,-0.50226c-0.13434,0.20227 -0.3642,0.3356 -0.62521,0.3356c-0.20072,0 -0.38302,-0.07885 -0.51763,-0.20726c-0.12983,0.22358 -0.37188,0.37393 -0.64904,0.37393c-0.41421,0 -0.75,-0.33579 -0.75,-0.75c0,-0.09273 0.01683,-0.18152 0.0476,-0.2635c-2.77831,-0.54384 -7.46484,-0.97969 -8.65033,-3.61798c-0.8004,-1.78125 1.16123,-7.01348 2.68537,-8.09933c1.04605,-0.74524 2.53549,-0.41201 3.80323,-0.61802c0,0 2.49264,-0.19174 2.68438,2.30089c0.03997,0.51964 -0.03672,0.93928 -0.18316,1.27803c0.0725,0.15831 0.11292,0.33439 0.11292,0.51991c0,0.69036 -0.55964,1.25 -1.25,1.25c-0.34921,0 -0.66497,-0.1432 -0.89177,-0.37407c-0.05672,0.00804 -0.08888,0.01051 -0.08888,0.01051c-1.02431,-0.15988 -2.42189,0.33832 -2.3114,1.68266c0.02005,0.244 0.47589,-0.15796 0.72029,-0.14362c0.77683,0.04557 1.55101,0.16012 2.31226,0.32151c2.07202,0.43926 5.13545,0.8789 7.19867,2.30225c0.16866,-0.08482 0.35917,-0.13257 0.56083,-0.13257c0.69036,0 1.25,0.55964 1.25,1.25c0,0.23212 -0.06327,0.44946 -0.1735,0.63573c0.27547,0.50228 0.46271,1.07425 0.5372,1.72804c0.16689,1.46486 -0.7594,2.9069 -1.65117,4.10882c0.11716,-0.03634 0.2417,-0.05592 0.37081,-0.05592c0.69036,0 1.25,0.55964 1.25,1.25c0,0.69036 -0.55964,1.25 -1.25,1.25c-0.69036,0 -1.25,-0.55964 -1.25,-1.25c0,-0.06424 0.00485,-0.12735 0.01419,-0.18899c-2.47626,2.38236 -6.26543,2.40399 -9.5808,1.76297c-0.03821,0.19104 -0.07641,0.38207 -0.11462,0.57311l0.01456,0.01958c0,0 0,0.75 -0.75,0.75c-0.24501,0 -0.40998,-0.08004 -0.52106,-0.18782c-0.09704,0.18042 -0.28429,0.35449 -0.64561,0.35449c-0.35925,0 -0.54642,-0.17208 -0.64393,-0.35138c-0.05712,0.01164 -0.12005,0.01805 -0.1894,0.01805c-0.75,0 -0.75,-0.75 -0.75,-0.75c0,-0.49929 0,-1.1332 0,-1.65976l-0.17581,-0.09964c0,0 -2.08013,-1.38675 -0.69338,-3.46688l0.00001,0.00002c0.40675,-0.61012 0.87315,-0.92199 1.32921,-1.05807c-0.08115,-0.16572 -0.1267,-0.35204 -0.1267,-0.549c0,-0.69036 0.55964,-1.25 1.25,-1.25c0.69036,0 1.25,0.55964 1.25,1.25c0,0.32984 -0.12775,0.62984 -0.33647,0.85322c0.06515,0.03668 0.10084,0.06047 0.10084,0.06047l-0.05154,0.09068c1.38708,0.44483 7.40096,1.85152 8.13651,-0.76089c-0.0325,0.0043 -0.06566,0.00652 -0.09934,0.00652z" fill="#00b818" stroke="none" stroke-width="0.5"/><path d="M199.44689,187.51272c-0.01445,1.90111 -0.08368,3.75024 -0.08538,5.58922l0.66123,-0.09446l0.00534,0.03737l0.08283,-0.04679c0.97835,0 2.22156,0.10384 3.52128,0.34079c0.13225,-0.0196 0.26405,-0.04781 0.39462,-0.08708c1.62187,-0.48784 3.57214,-2.82865 3.72585,-4.51825c0.06029,-0.66272 -1.85404,-1.00436 -2.14843,-1.10276c-1.72068,-0.57513 -4.10535,-1.03353 -5.80943,-0.4l-0.30191,0.25421c0,0 -0.01624,0.01082 -0.046,0.02774zM203.66542,195.78831c-1.1607,0.19533 -2.37139,0.09489 -3.59207,-0.26025l-0.05061,0.3543l-0.60101,-0.08586c0.08035,1.57947 0.25463,3.16654 0.6003,4.78773c0.22581,1.05902 0.02002,2.7642 0.39154,3.72981c0.34492,0.89646 3.88669,-1.58731 4.20508,-1.8452c0.75955,-0.59168 3.56496,-1.2804 3.83363,-2.12025c0.90569,-2.83114 -1.99101,-4.06558 -4.78686,-4.56027zM197.85486,185.63125c0.1313,-0.1464 0.25128,-0.22639 0.25128,-0.22639l0.89809,-0.54579c2.93626,-0.90897 10.6808,-0.41707 11.24214,3.69724c0.18479,1.3544 -1.09693,3.29414 -1.87077,4.26948c-0.44395,0.55954 -0.91315,1.03673 -1.40318,1.4361c3.1084,1.21785 5.45202,3.42506 3.77433,7.07936c-0.96042,2.09195 -3.02478,1.79952 -4.56637,3.07975c-1.88136,1.48995 -5.68349,4.00325 -7.79492,1.3548c-0.73052,-0.91632 -0.55713,-3.50345 -0.80846,-4.67019c-1.04073,-4.83133 -0.62749,-9.36768 -0.62749,-14.2607c0,0 0,-1.00812 0.90534,-1.21367z" fill="#009b15" stroke="none" stroke-width="0.5"/><path d="M229.79951,199.89492c-3.00288,0 -5.9318,0.42526 -8.896,0.8539c-0.02797,1.14972 -0.05685,2.30762 -0.054,3.4961c0,0 0,1.25 -1.25,1.25c-1.25,0 -1.25,-1.25 -1.25,-1.25c0.0089,-4.21148 0,-8.37686 0,-12.6c0,-0.747 -0.07387,-3.29193 0.36612,-3.68388c2.68576,-2.39257 7.60829,3.22263 9.46475,4.7078c3.49277,2.82522 4.63855,6.68475 6.00499,10.7808l0.2,0.6c0,0 0.39528,1.18585 -0.79057,1.58114c-1.18585,0.39528 -1.58114,-0.79057 -1.58114,-0.79057l-0.2,-0.6c-0.4908,-1.47351 -0.93277,-2.94884 -1.4986,-4.34528zM226.61865,194.62101c-1.37456,-1.09965 -2.66423,-2.29415 -4.01162,-3.40941c-0.31876,-0.26385 -0.6812,-0.47082 -1.03492,-0.68554c-0.38451,-0.2334 -1.3581,-1.15746 -1.08871,-0.79725c0.87,1.16328 0.2626,3.22283 0.36297,4.62751c0.09409,1.31678 0.11436,2.59355 0.10443,3.86026c2.70699,-0.38898 5.3887,-0.75699 8.12456,-0.81402c-0.63679,-1.02607 -1.42514,-1.96754 -2.45672,-2.78155z" fill="#009b15" stroke="none" stroke-width="0.5"/><path d="M239.74951,202.04492c0,-1.25 1.25,-1.25 1.25,-1.25h0.4c3.71414,0 6.64531,0.17799 9.80751,-1.91668c1.09337,-0.20576 -2.20096,-1.32697 -2.9567,-1.71043c-1.634,-0.82908 -2.8057,-2.29246 -4.3245,-3.26997c-0.75722,-0.48735 -1.85272,-0.4184 -2.48505,-1.05954c-0.60659,-0.61503 -1.26358,-1.38415 -1.29008,-2.24758c-0.10058,-3.27714 5.98972,-4.08577 8.07205,-4.38324c0,0 1.23744,-0.17678 1.41421,1.06066c0.17678,1.23744 -1.06066,1.41421 -1.06066,1.41421c-0.89629,0.12804 -1.8063,0.18028 -2.68959,0.37912c-0.65651,0.14779 -2.98425,0.98228 -3.23837,1.63763c-0.15548,0.40097 0.83109,0.22909 1.22953,0.39096c1.34821,0.54772 1.41007,0.70943 2.50251,1.57876c1.9408,1.54444 4.97886,2.48462 6.60498,4.204c0.54969,0.58122 1.30147,1.24219 1.26224,2.04121c-0.03909,0.79622 -0.9704,1.26503 -1.4556,1.89755c-3.71152,2.48633 -7.04503,2.48332 -11.39249,2.48332h-0.4c0,0 -1.25,0 -1.25,-1.25z" fill="#009b15" stroke="none" stroke-width="0.5"/><path d="M259.60423,204.83077c-1.18585,-0.39528 -0.79057,-1.58114 -0.79057,-1.58114l0.13585,-0.20472c0,-4.21555 0.2,-8.39249 0.2,-12.6c0,0 0,-1.25 1.25,-1.25c1.25,0 1.25,1.25 1.25,1.25c0,4.20824 -0.2,8.38421 -0.2,12.6l-0.26415,0.99528c0,0 -0.39528,1.18585 -1.58114,0.79057z" fill="#009b15" stroke="none" stroke-width="0.5"/><path d="M269.37379,204.19977c0.24515,-1.22573 1.47087,-0.98058 1.47087,-0.98058l0.93163,0.18829c3.07801,0.44717 5.27201,-0.30832 8.20422,-0.90688c0.89938,-2.41182 -1.9501,-3.31241 -3.98123,-3.62182c-3.40154,-0.51817 -7.3738,0.54409 -7.04663,-4.52247c0.07468,-1.15656 0.3005,-2.50971 1.16297,-3.39527c0.9235,-0.94823 2.86781,-1.29504 4.0886,-1.70197c0,0 1.18585,-0.39528 1.58114,0.79057c0.39528,1.18585 -0.79057,1.58114 -0.79057,1.58114c-1.97146,0.65715 -3.35899,0.60679 -3.54843,2.90276c-0.0122,0.1479 -0.16309,1.30884 0.17215,1.56707c1.0574,0.81449 3.5839,0.12492 4.78123,0.31046c3.00965,0.46637 7.22874,2.38556 6.21633,6.12105c-0.18382,0.67823 -0.66504,1.23808 -0.99756,1.85713c-3.45589,1.36544 -6.46763,2.01775 -10.19578,1.49312l-1.06837,-0.21171c0,0 -1.22573,-0.24515 -0.98058,-1.47087z" fill="#009b15" stroke="none" stroke-width="0.5"/><path d="M160.45524,165.98443c0,-0.41421 0.33579,-0.75 0.75,-0.75c0.41421,0 0.75,0.33579 0.75,0.75c0,0.41421 -0.33579,0.75 -0.75,0.75c-0.41421,0 -0.75,-0.33579 -0.75,-0.75z" fill="#595959" stroke="none" stroke-width="0.5"/><path d="M173.95524,165.31776c0,-0.41421 0.33579,-0.75 0.75,-0.75c0.41421,0 0.75,0.33579 0.75,0.75c0,0.41421 -0.33579,0.75 -0.75,0.75c-0.41421,0 -0.75,-0.33579 -0.75,-0.75z" fill="#595959" stroke="none" stroke-width="0.5"/><path d="M191.62191,165.31776c0,-0.41421 0.33579,-0.75 0.75,-0.75c0.41421,0 0.75,0.33579 0.75,0.75c0,0.41421 -0.33579,0.75 -0.75,0.75c-0.41421,0 -0.75,-0.33579 -0.75,-0.75z" fill="#595959" stroke="none" stroke-width="0.5"/><path d="M207.95524,165.31776c0,-0.41421 0.33579,-0.75 0.75,-0.75c0.41421,0 0.75,0.33579 0.75,0.75c0,0.41421 -0.33579,0.75 -0.75,0.75c-0.41421,0 -0.75,-0.33579 -0.75,-0.75z" fill="#595959" stroke="none" stroke-width="0.5"/><path d="M227.28857,165.98443c0,-0.41421 0.33579,-0.75 0.75,-0.75c0.41421,0 0.75,0.33579 0.75,0.75c0,0.41421 -0.33579,0.75 -0.75,0.75c-0.41421,0 -0.75,-0.33579 -0.75,-0.75z" fill="#595959" stroke="none" stroke-width="0.5"/><path d="M240.45524,165.48443c0,-0.41421 0.33579,-0.75 0.75,-0.75c0.41421,0 0.75,0.33579 0.75,0.75c0,0.41421 -0.33579,0.75 -0.75,0.75c-0.41421,0 -0.75,-0.33579 -0.75,-0.75z" fill="#595959" stroke="none" stroke-width="0.5"/><path d="M256.45524,165.48443c0,-0.41421 0.33579,-0.75 0.75,-0.75c0.41421,0 0.75,0.33579 0.75,0.75c0,0.41421 -0.33579,0.75 -0.75,0.75c-0.41421,0 -0.75,-0.33579 -0.75,-0.75z" fill="#595959" stroke="none" stroke-width="0.5"/><path d="M274.12191,166.1511c0,-0.41421 0.33579,-0.75 0.75,-0.75c0.41421,0 0.75,0.33579 0.75,0.75c0,0.41421 -0.33579,0.75 -0.75,0.75c-0.41421,0 -0.75,-0.33579 -0.75,-0.75z" fill="#595959" stroke="none" stroke-width="0.5"/><path d="M288.78857,165.6511c0,-0.41421 0.33579,-0.75 0.75,-0.75c0.41421,0 0.75,0.33579 0.75,0.75c0,0.41421 -0.33579,0.75 -0.75,0.75c-0.41421,0 -0.75,-0.33579 -0.75,-0.75z" fill="#595959" stroke="none" stroke-width="0.5"/><path d="M299.95524,166.6511c0,-0.41421 0.33579,-0.75 0.75,-0.75c0.41421,0 0.75,0.33579 0.75,0.75c0,0.41421 -0.33579,0.75 -0.75,0.75c-0.41421,0 -0.75,-0.33579 -0.75,-0.75z" fill="#595959" stroke="none" stroke-width="0.5"/><path d="M316.45524,167.6511c0,-0.41421 0.33579,-0.75 0.75,-0.75c0.41421,0 0.75,0.33579 0.75,0.75c0,0.41421 -0.33579,0.75 -0.75,0.75c-0.41421,0 -0.75,-0.33579 -0.75,-0.75z" fill="#595959" stroke="none" stroke-width="0.5"/><path d="M317.62191,176.98443c0,-0.41421 0.33579,-0.75 0.75,-0.75c0.41421,0 0.75,0.33579 0.75,0.75c0,0.41421 -0.33579,0.75 -0.75,0.75c-0.41421,0 -0.75,-0.33579 -0.75,-0.75z" fill="#595959" stroke="none" stroke-width="0.5"/><path d="M318.12191,188.98443c0,-0.41421 0.33579,-0.75 0.75,-0.75c0.41421,0 0.75,0.33579 0.75,0.75c0,0.41421 -0.33579,0.75 -0.75,0.75c-0.41421,0 -0.75,-0.33579 -0.75,-0.75z" fill="#595959" stroke="none" stroke-width="0.5"/><path d="M317.62191,198.98443c0,-0.41421 0.33579,-0.75 0.75,-0.75c0.41421,0 0.75,0.33579 0.75,0.75c0,0.41421 -0.33579,0.75 -0.75,0.75c-0.41421,0 -0.75,-0.33579 -0.75,-0.75z" fill="#595959" stroke="none" stroke-width="0.5"/><path d="M317.78857,208.48443c0,-0.41421 0.33579,-0.75 0.75,-0.75c0.41421,0 0.75,0.33579 0.75,0.75c0,0.41421 -0.33579,0.75 -0.75,0.75c-0.41421,0 -0.75,-0.33579 -0.75,-0.75z" fill="#595959" stroke="none" stroke-width="0.5"/><path d="M303.28857,208.1511c0,-0.41421 0.33579,-0.75 0.75,-0.75c0.41421,0 0.75,0.33579 0.75,0.75c0,0.41421 -0.33579,0.75 -0.75,0.75c-0.41421,0 -0.75,-0.33579 -0.75,-0.75z" fill="#595959" stroke="none" stroke-width="0.5"/><path d="M293.45524,208.1511c0,-0.41421 0.33579,-0.75 0.75,-0.75c0.41421,0 0.75,0.33579 0.75,0.75c0,0.41421 -0.33579,0.75 -0.75,0.75c-0.41421,0 -0.75,-0.33579 -0.75,-0.75z" fill="#595959" stroke="none" stroke-width="0.5"/><path d="M273.78857,209.48443c0,-0.41421 0.33579,-0.75 0.75,-0.75c0.41421,0 0.75,0.33579 0.75,0.75c0,0.41421 -0.33579,0.75 -0.75,0.75c-0.41421,0 -0.75,-0.33579 -0.75,-0.75z" fill="#595959" stroke="none" stroke-width="0.5"/><path d="M259.28857,209.48443c0,-0.41421 0.33579,-0.75 0.75,-0.75c0.41421,0 0.75,0.33579 0.75,0.75c0,0.41421 -0.33579,0.75 -0.75,0.75c-0.41421,0 -0.75,-0.33579 -0.75,-0.75z" fill="#595959" stroke="none" stroke-width="0.5"/><path d="M242.12191,208.6511c0,-0.41421 0.33579,-0.75 0.75,-0.75c0.41421,0 0.75,0.33579 0.75,0.75c0,0.41421 -0.33579,0.75 -0.75,0.75c-0.41421,0 -0.75,-0.33579 -0.75,-0.75z" fill="#595959" stroke="none" stroke-width="0.5"/><path d="M229.12191,208.81776c0,-0.41421 0.33579,-0.75 0.75,-0.75c0.41421,0 0.75,0.33579 0.75,0.75c0,0.41421 -0.33579,0.75 -0.75,0.75c-0.41421,0 -0.75,-0.33579 -0.75,-0.75z" fill="#595959" stroke="none" stroke-width="0.5"/><path d="M210.95524,209.1511c0,-0.41421 0.33579,-0.75 0.75,-0.75c0.41421,0 0.75,0.33579 0.75,0.75c0,0.41421 -0.33579,0.75 -0.75,0.75c-0.41421,0 -0.75,-0.33579 -0.75,-0.75z" fill="#595959" stroke="none" stroke-width="0.5"/><path d="M192.62191,208.1511c0,-0.41421 0.33579,-0.75 0.75,-0.75c0.41421,0 0.75,0.33579 0.75,0.75c0,0.41421 -0.33579,0.75 -0.75,0.75c-0.41421,0 -0.75,-0.33579 -0.75,-0.75z" fill="#595959" stroke="none" stroke-width="0.5"/><path d="M174.78857,208.6511c0,-0.41421 0.33579,-0.75 0.75,-0.75c0.41421,0 0.75,0.33579 0.75,0.75c0,0.41421 -0.33579,0.75 -0.75,0.75c-0.41421,0 -0.75,-0.33579 -0.75,-0.75z" fill="#595959" stroke="none" stroke-width="0.5"/><path d="M160.12191,208.31776c0,-0.41421 0.33579,-0.75 0.75,-0.75c0.41421,0 0.75,0.33579 0.75,0.75c0,0.41421 -0.33579,0.75 -0.75,0.75c-0.41421,0 -0.75,-0.33579 -0.75,-0.75z" fill="#595959" stroke="none" stroke-width="0.5"/><path d="M160.12191,197.98443c0,-0.41421 0.33579,-0.75 0.75,-0.75c0.41421,0 0.75,0.33579 0.75,0.75c0,0.41421 -0.33579,0.75 -0.75,0.75c-0.41421,0 -0.75,-0.33579 -0.75,-0.75z" fill="#595959" stroke="none" stroke-width="0.5"/><path d="M159.78857,186.98443c0,-0.41421 0.33579,-0.75 0.75,-0.75c0.41421,0 0.75,0.33579 0.75,0.75c0,0.41421 -0.33579,0.75 -0.75,0.75c-0.41421,0 -0.75,-0.33579 -0.75,-0.75z" fill="#595959" stroke="none" stroke-width="0.5"/><path d="M159.62191,176.1511c0,-0.41421 0.33579,-0.75 0.75,-0.75c0.41421,0 0.75,0.33579 0.75,0.75c0,0.41421 -0.33579,0.75 -0.75,0.75c-0.41421,0 -0.75,-0.33579 -0.75,-0.75z" fill="#595959" stroke="none" stroke-width="0.5"/><path d="M231.95524,194.31776c0,-0.69036 0.55964,-1.25 1.25,-1.25c0.69036,0 1.25,0.55964 1.25,1.25c0,0.69036 -0.55964,1.25 -1.25,1.25c-0.69036,0 -1.25,-0.55964 -1.25,-1.25z" fill="#00b818" stroke="none" stroke-width="0.5"/><path d="M213.45524,191.98443c0,-0.69036 0.55964,-1.25 1.25,-1.25c0.69036,0 1.25,0.55964 1.25,1.25c0,0.69036 -0.55964,1.25 -1.25,1.25c-0.69036,0 -1.25,-0.55964 -1.25,-1.25z" fill="#00b818" stroke="none" stroke-width="0.5"/><path d="M251.28857,191.31776c0,-0.69036 0.55964,-1.25 1.25,-1.25c0.69036,0 1.25,0.55964 1.25,1.25c0,0.69036 -0.55964,1.25 -1.25,1.25c-0.69036,0 -1.25,-0.55964 -1.25,-1.25z" fill="#00b818" stroke="none" stroke-width="0.5"/><path d="M194.62191,197.48443c0,-0.41421 0.33579,-0.75 0.75,-0.75c0.41421,0 0.75,0.33579 0.75,0.75c0,0.41421 -0.33579,0.75 -0.75,0.75c-0.41421,0 -0.75,-0.33579 -0.75,-0.75z" fill="#00b818" stroke="none" stroke-width="0.5"/><path d="M229.95524,191.48443c0,-0.41421 0.33579,-0.75 0.75,-0.75c0.41421,0 0.75,0.33579 0.75,0.75c0,0.41421 -0.33579,0.75 -0.75,0.75c-0.41421,0 -0.75,-0.33579 -0.75,-0.75z" fill="#00b818" stroke="none" stroke-width="0.5"/><path d="M226.12191,204.81776c0,-0.41421 0.33579,-0.75 0.75,-0.75c0.41421,0 0.75,0.33579 0.75,0.75c0,0.41421 -0.33579,0.75 -0.75,0.75c-0.41421,0 -0.75,-0.33579 -0.75,-0.75z" fill="#00b818" stroke="none" stroke-width="0.5"/><path d="M255.62191,192.1511c0,-0.41421 0.33579,-0.75 0.75,-0.75c0.41421,0 0.75,0.33579 0.75,0.75c0,0.41421 -0.33579,0.75 -0.75,0.75c-0.41421,0 -0.75,-0.33579 -0.75,-0.75z" fill="#00b818" stroke="none" stroke-width="0.5"/><path d="M264.12191,204.31776c0,-0.41421 0.33579,-0.75 0.75,-0.75c0.41421,0 0.75,0.33579 0.75,0.75c0,0.41421 -0.33579,0.75 -0.75,0.75c-0.41421,0 -0.75,-0.33579 -0.75,-0.75z" fill="#00b818" stroke="none" stroke-width="0.5"/><path d="M248.62191,206.6511c0,-0.41421 0.33579,-0.75 0.75,-0.75c0.41421,0 0.75,0.33579 0.75,0.75c0,0.41421 -0.33579,0.75 -0.75,0.75c-0.41421,0 -0.75,-0.33579 -0.75,-0.75z" fill="#00b818" stroke="none" stroke-width="0.5"/><path d="M281.12191,192.81776c0,-0.41421 0.33579,-0.75 0.75,-0.75c0.41421,0 0.75,0.33579 0.75,0.75c0,0.41421 -0.33579,0.75 -0.75,0.75c-0.41421,0 -0.75,-0.33579 -0.75,-0.75z" fill="#00b818" stroke="none" stroke-width="0.5"/></g></g></svg>