<svg version="1.1" xmlns="http://www.w3.org/2000/svg" xmlns:xlink="http://www.w3.org/1999/xlink" width="18.64273" height="34.87238" viewBox="0,0,18.64273,34.87238"><g transform="translate(-230.67864,-162.68303)"><g data-paper-data="{&quot;isPaintingLayer&quot;:true}" fill-rule="nonzero" stroke-linejoin="miter" stroke-miterlimit="10" stroke-dasharray="" stroke-dashoffset="0" style="mix-blend-mode: normal"><path d="M248.57138,192.19759c0,2.54483 -3.83752,4.60782 -8.57136,4.60782c-4.73384,0 -8.57136,-2.06299 -8.57136,-4.60782c0,-2.54483 3.83752,-4.60781 8.57136,-4.60781c4.73384,0 8.57136,2.06298 8.57136,4.60781z" fill="#0089f2" stroke="#006dc1" stroke-width="1.5" stroke-linecap="butt"/><path d="M248.57138,192.05361c0,2.54483 -3.83752,4.60782 -8.57136,4.60782c-4.73384,0 -8.57136,-2.063 -8.57136,-4.60782c0,-2.54483 3.83752,-4.60782 8.57136,-4.60782c4.73384,0 8.57136,2.06299 8.57136,4.60782z" fill="none" stroke="#006dc1" stroke-width="1.5" stroke-linecap="butt"/><path d="M231.42865,192.62958v-13.86065h17.14273v13.86065z" fill="#0089f2" stroke="none" stroke-width="0" stroke-linecap="butt"/><path d="M248.57138,192.4982v-11.68213" fill="none" stroke="#006dc1" stroke-width="1.5" stroke-linecap="round"/><path d="M231.42865,192.44283v-11.51604" fill="none" stroke="#006dc1" stroke-width="1.5" stroke-linecap="round"/><path d="M248.57138,180.81607c0,2.54483 -3.83752,4.60782 -8.57136,4.60782c-4.73384,0 -8.57136,-2.06299 -8.57136,-4.60782c0,-2.54483 3.83752,-4.60782 8.57136,-4.60782c4.73384,0 8.57136,2.06299 8.57136,4.60782z" fill="none" stroke="#c96100" stroke-width="1.5" stroke-linecap="butt"/><path d="M248.57138,180.81607c0,2.54483 -3.83752,4.60782 -8.57136,4.60782c-4.73384,0 -8.57136,-2.06299 -8.57136,-4.60782c0,-2.54483 3.83752,-4.60781 8.57136,-4.60781c4.73384,0 8.57136,2.06298 8.57136,4.60781z" fill="#999999" stroke="#7d7d7d" stroke-width="1.5" stroke-linecap="butt"/><path d="M248.57138,180.67209c0,2.54483 -3.83752,4.60782 -8.57136,4.60782c-4.73384,0 -8.57136,-2.06299 -8.57136,-4.60782c0,-2.54483 3.83752,-4.60783 8.57136,-4.60783c4.73384,0 8.57136,2.063 8.57136,4.60783z" fill="none" stroke="#7d7d7d" stroke-width="1.5" stroke-linecap="butt"/><path d="M231.42865,181.24805v-13.86066h17.14273v13.86066z" fill="#999999" stroke="none" stroke-width="0" stroke-linecap="butt"/><path d="M248.57138,181.11668v-11.68213" fill="none" stroke="#7d7d7d" stroke-width="1.5" stroke-linecap="round"/><path d="M231.42865,169.54527v11.51604" fill="none" stroke="#7d7d7d" stroke-width="1.5" stroke-linecap="round"/><path d="M248.57138,169.57853c0,2.54483 -3.83752,4.60782 -8.57136,4.60782c-4.73384,0 -8.57136,-2.06299 -8.57136,-4.60782c0,-2.54483 3.83752,-4.60782 8.57136,-4.60782c4.73384,0 8.57136,2.06299 8.57136,4.60782z" fill="#999999" stroke="#7d7d7d" stroke-width="1.5" stroke-linecap="butt"/><path d="M248.57138,169.43454c0,2.54483 -3.83752,4.60782 -8.57136,4.60782c-4.73384,0 -8.57136,-2.063 -8.57136,-4.60782c0,-2.54483 3.83752,-4.60782 8.57136,-4.60782c4.73384,0 8.57136,2.06299 8.57136,4.60782z" fill="none" stroke="#7d7d7d" stroke-width="1.5" stroke-linecap="butt"/><path d="M243.47595,179.4171c0.33541,0.67082 -0.33541,1.00623 -0.33541,1.00623l-0.58541,0.20418c-0.58869,0 -1.17738,0 -1.76608,0c0.01409,0.4594 0.01608,0.9189 0.01608,1.375l-0.13956,0.77209c0,0 -0.14709,0.73544 -0.88252,0.58835c-0.73544,-0.14709 -0.58835,-0.88252 -0.58835,-0.88252l0.11044,-0.47791c0,-0.45329 0.00087,-0.9138 -0.01201,-1.375c-0.70433,0 -1.40866,0 -2.11299,0c0,0 -0.75,0 -0.75,-0.75c0,-0.75 0.75,-0.75 0.75,-0.75c0.66776,0 1.33553,0 2.00329,0c-0.0681,-0.51568 -0.17428,-1.02312 -0.3398,-1.51283c0,0 -0.23717,-0.71151 0.47434,-0.94868c0.71151,-0.23717 0.94868,0.47434 0.94868,0.47434c0.21286,0.64617 0.34178,1.31236 0.41978,1.98717c0.6229,0 1.24581,0 1.86871,0l-0.08541,-0.04582c0,0 0.67082,-0.33541 1.00623,0.33541z" fill="#e4e4e4" stroke="none" stroke-width="0.5" stroke-linecap="butt"/><path d="M243.31434,190.93111c0,0.75 -0.75,0.75 -0.75,0.75h-0.625c-1.42525,-0.00529 -2.97166,0.12534 -4.3767,0.3648c0,0 -0.7398,0.1233 -0.86309,-0.6165c-0.1233,-0.7398 0.6165,-0.86309 0.6165,-0.86309c1.49629,-0.2446 3.10718,-0.38043 4.6233,-0.3852h0.625c0,0 0.75,0 0.75,0.75z" fill="#e4e4e4" stroke="none" stroke-width="0.5" stroke-linecap="butt"/><path d="M243.32138,169.56003c0,0.98402 -1.48387,1.78173 -3.31433,1.78173c-1.83046,0 -3.31433,-0.79771 -3.31433,-1.78173c0,-0.98402 1.48387,-1.78172 3.31433,-1.78172c1.83046,0 3.31433,0.7977 3.31433,1.78172z" fill="#999999" stroke="#7d7d7d" stroke-width="1.5" stroke-linecap="butt"/><path d="M236.69273,169.72706v-5.35956h6.62866v5.35956z" fill="#999999" stroke="none" stroke-width="0" stroke-linecap="butt"/><path d="M243.32139,169.67626v-4.51718" fill="none" stroke="#7d7d7d" stroke-width="1.5" stroke-linecap="round"/><path d="M236.69273,165.20189v4.45296" fill="none" stroke="#7d7d7d" stroke-width="1.5" stroke-linecap="round"/><path d="M243.32138,165.21475c0,0.98402 -1.48387,1.78173 -3.31433,1.78173c-1.83046,0 -3.31433,-0.79771 -3.31433,-1.78173c0,-0.98402 1.48387,-1.78173 3.31433,-1.78173c1.83046,0 3.31433,0.79771 3.31433,1.78173z" fill="#999999" stroke="#7d7d7d" stroke-width="1.5" stroke-linecap="butt"/></g></g></svg>