<svg version="1.1" xmlns="http://www.w3.org/2000/svg" xmlns:xlink="http://www.w3.org/1999/xlink" width="30.29167" height="30.29167" viewBox="0,0,30.29167,30.29167"><defs><linearGradient x1="240" y1="165.60418" x2="240" y2="194.39583" gradientUnits="userSpaceOnUse" id="color-1"><stop offset="0" stop-color="#66b8ff"/><stop offset="1" stop-color="#6766ff"/></linearGradient></defs><g transform="translate(-224.85417,-164.85416)"><g data-paper-data="{&quot;isPaintingLayer&quot;:true}" fill-rule="nonzero" stroke-linecap="butt" stroke-linejoin="miter" stroke-miterlimit="10" stroke-dasharray="" stroke-dashoffset="0" style="mix-blend-mode: normal"><path d="M225.60417,194.39583v-28.79167h28.79167v28.79167z" fill="url(#color-1)" stroke="#ffffff" stroke-width="1.5"/><path d="M242.88619,172.92195c-1.49709,2.08787 -3.04414,4.29177 -4.762,6.00963c-1.27001,2.54003 -3.5772,4.81064 -5.23743,7.10794c-0.54678,0.75659 -1.31976,1.26781 -1.74581,2.11991c-0.8639,0.8639 -1.65427,2.00339 -2.36931,2.99282c-0.15873,0.21964 -0.65993,0.20379 -0.65993,0.47478c0,0.28714 1.23317,0.59186 1.50355,0.36885c0.78828,-0.65018 1.80792,-1.85126 2.26339,-2.76218c1.34431,-1.37146 3.01137,-2.79827 4.11512,-4.36453c1.0001,-1.41918 1.98896,-3.01945 3.24222,-4.23982c0.64047,-1.28093 1.92246,-2.32665 2.74342,-3.49162c1.37977,-1.95794 2.52847,-4.03857 3.97199,-5.95806c0.04327,-0.08505 0.8098,-1.04282 0.8091,-1.05095c-0.0085,-0.09971 -1.01248,-0.54131 -1.17852,-0.41618c-0.44065,0.33208 -0.87547,0.65178 -1.256,1.00784c0.02884,0.19482 -0.09671,0.36221 -0.09671,0.36221c-0.34199,0.45428 -0.68469,0.92449 -1.02962,1.40316c-0.00449,0.01683 -0.00887,0.03376 -0.01312,0.05078l-0.24771,0.34195c0,0 -0.01907,0.01907 -0.05264,0.04347zM242.34373,172.08218c0.41075,-1.29637 1.54613,-2.58268 2.77745,-3.18352c0.68256,-0.33307 2.42209,0.15139 2.5625,1.08023c0.08568,0.56674 -0.70517,1.22009 -0.93671,1.69246c-1.45199,1.94011 -2.59277,4.05374 -4.00885,6.01322c-0.8375,1.15886 -2.10209,2.20896 -2.74342,3.49162c-2.62102,2.67395 -4.60175,5.92107 -7.35734,8.60435c-0.46216,0.92432 -2.11294,3.15318 -3.19645,3.30892c-0.66309,0.09531 -2.26447,-0.65349 -2.26447,-1.46244c0,-0.43115 0.61617,-0.70902 0.83647,-1.02164c0.69915,-0.99211 1.51112,-2.13462 2.36931,-2.99282c0.42671,-0.85343 1.21069,-1.36056 1.74581,-2.11991c1.643,-2.33146 3.96022,-4.55352 5.23743,-7.10794c1.7987,-1.7987 3.41788,-4.12678 4.97825,-6.30253z" fill="#704f39" stroke="none" stroke-width="0.5"/><path d="M242.95649,172.85278l0.21235,-0.29059c0.00425,-0.01703 0.04396,-0.08533 0.04845,-0.10215c0.34493,-0.47868 0.68776,-0.9488 1.02974,-1.40308c0,0 0.12527,-0.16757 0.09644,-0.36239c0.38054,-0.35606 0.81623,-0.67514 1.25688,-1.00723c0.16604,-0.12513 1.17207,0.3181 1.18057,0.41782c0.00069,0.00814 -0.76569,0.96603 -0.80896,1.05108c-1.44352,1.91949 -2.58873,4.00372 -3.9685,5.96166c-0.82095,1.16496 -2.09614,2.22619 -2.7366,3.50712c-1.25326,1.22038 -2.28359,2.85429 -3.28369,4.27347c-1.10375,1.56625 -2.77748,2.9897 -4.12179,4.36116c-0.45546,0.91093 -1.47578,2.11155 -2.26405,2.76173c-0.27039,0.22302 -1.50605,-0.08365 -1.50605,-0.3708c0,-0.27099 0.54174,-0.30251 0.70047,-0.52215c0.71505,-0.98943 1.46492,-2.08151 2.32882,-2.94541c0.42605,-0.8521 1.1988,-1.36352 1.74559,-2.12011c1.66023,-2.29731 3.99841,-4.62069 5.26842,-7.16072c1.71786,-1.71786 3.27215,-3.91808 4.76924,-6.00595c0.03356,-0.0244 0.05269,-0.04344 0.05269,-0.04344z" data-paper-data="{&quot;noHover&quot;:false,&quot;origItem&quot;:[&quot;Path&quot;,{&quot;applyMatrix&quot;:true,&quot;segments&quot;:[[[242.54591,170.80006],[0.05383,-0.03914],[-2.40109,3.34861]],[[234.90843,180.43854],[2.75517,-2.75517],[-2.0369,4.0738]],[[226.50843,191.83854],[2.66275,-3.68452],[-0.87695,1.21345]],[[223.70843,195.23854],[0.68331,-1.36663],[-1.38556,1.38556]],[[219.90843,200.03854],[1.14682,-1.58688],[-0.25458,0.35226]],[[218.85,200.8],[0,-0.43463],[0,0.46053]],[[221.26147,201.39157],[-0.43366,0.35769],[1.26427,-1.04278]],[[224.89157,196.96147],[-0.73049,1.46098],[2.15606,-2.1996]],[[231.49157,189.96147],[-1.77024,2.51202],[1.604,-2.27613]],[[236.69157,183.16147],[-2.01003,1.95729],[1.02721,-2.05441]],[[241.09157,177.56147],[-1.31668,1.86841],[2.21293,-3.14022]],[[247.46201,168.0057],[-2.31518,3.07855],[0.0694,-0.13641]],[[248.75969,166.32014],[0.00111,0.01306],[-0.01363,-0.15992]],[[246.86953,165.65265],[0.2663,-0.20069],[-0.70673,0.53261]],[[244.8551,167.26907],[0.61032,-0.57107],[0.04626,0.31246]],[[244.7,167.85],[0,0],[-0.54849,0.7286]],[[243.04865,170.10045],[0.55321,-0.76772],[-0.0072,0.02699]],[[243.02761,170.1819],[0.00682,-0.02731],[0,0]],[242.63033,170.73033]],&quot;closed&quot;:true}]}" fill="#9a6d4e" stroke="none" stroke-width="0.5"/><path d="M247.03203,173.50093c0.01543,-0.01904 -0.01359,-0.08209 0.00183,-0.1017c0.06559,-0.15389 0.2308,-0.37703 0.41591,-0.62112c2.65608,1.16147 3.2561,3.17578 3.7818,5.52064c-0.65791,-1.24029 -1.5441,-2.38355 -2.24078,-3.07284c-0.58164,-0.57548 -1.17482,-0.83323 -1.59965,-1.5534z" data-paper-data="{&quot;noHover&quot;:false,&quot;origItem&quot;:[&quot;Path&quot;,{&quot;applyMatrix&quot;:true,&quot;segments&quot;:[[[499.66049,342.30794],[0,0],[1.54544,2.19205]],[[505.20098,346.83999],[-2.00917,-1.68867],[2.40653,2.02265]],[[513.14928,356.09253],[-2.42581,-3.79434],[-2.29025,-7.36018]],[[499.74897,339.58069],[8.79372,3.02298],[-0.52837,0.8285]],[[498.59747,341.65903],[0.16968,-0.50904],[-0.04421,0.06671]],[[498.46458,341.85644],[0.04439,-0.0649],[0,0]]],&quot;closed&quot;:true}]}" fill="#d3d3d3" stroke="none" stroke-width="0.5"/><path d="M234.36315,168.08296c1.92075,-0.47131 4.0438,-0.30095 5.86174,0.47383c1.16011,0.05419 2.07549,1.44834 3.26885,1.54536c0.79558,0.06468 0.90421,-0.37135 1.66383,0.09016c0.62891,0.3821 1.04008,0.91344 1.53365,1.33458c0.08326,0.07105 0.25227,0.13599 0.4152,0.17131c-0.34694,0.35896 -0.78046,1.1508 -0.82558,1.25665c-1.03206,1.29408 -1.71058,0.61592 -2.96162,-0.13589c-0.10385,-0.06241 -0.70958,-0.62171 -1.12536,-0.89218c0.19696,-0.05661 0.38901,-0.156 0.43926,-0.27861c0.13102,-0.31966 0.02019,-0.71808 -0.16346,-1.0107c-0.35328,-0.56288 -2.41926,-0.7872 -3.02336,-0.83632c-1.10484,-0.08983 -2.33666,-0.37743 -3.41683,-0.11237c-0.23429,0.05749 -2.32137,0.26264 -2.33021,0.18472c-0.0534,-0.47097 0.22899,-1.28962 0.43807,-1.7907z" data-paper-data="{&quot;noHover&quot;:false,&quot;origItem&quot;:[&quot;Path&quot;,{&quot;applyMatrix&quot;:true,&quot;segments&quot;:[[[456.00275,327.98003],[0,0],[-0.53821,1.65636]],[[455.07251,333.79221],[-0.29314,-1.49187],[0.0485,0.24682]],[[462.27566,332.57698],[-0.73412,0.24471],[3.38454,-1.12818]],[[473.25,332],[-3.55565,0],[1.94416,0]],[[483.31066,333.93934],[-1.2758,-1.70778],[0.66323,0.88779]],[[484.09164,337.17082],[0.33579,-1.05607],[-0.12879,0.40505]],[[482.75168,338.19383],[0.615,-0.2322],[1.3996,0.75665]],[[486.40903,340.65253],[-0.34824,-0.17253],[4.19514,2.07845]],[[495.90253,340.34097],[-2.96326,4.40562],[0.11672,-0.35016]],[[498.21158,336.13014],[-1.01589,1.23783],[-0.53009,-0.07057]],[[496.83951,335.69206],[0.28466,0.2055],[-1.68748,-1.21818]],[[491.59097,331.84747],[2.11003,1.05814],[-2.54857,-1.27805]],[[486.25,332],[2.56038,0],[-3.84057,0]],[[475.50973,327.98063],[3.72311,-0.1283],[-6.0136,-2.00453]],[[456.72434,327.92302],[6.01838,-2.00613],[0,0]]],&quot;closed&quot;:true}]}" fill="#d3d3d3" stroke="none" stroke-width="0.5"/><path d="M251.51339,183.00729c0.0188,-0.23129 0.02135,-0.44325 0.0107,-0.64301c-0.31832,-1.11489 -1.12388,-3.23664 -0.36085,-3.59758c0.63524,-0.30049 1.2427,0.53667 1.40773,0.96104c0.3722,0.95713 0.2998,2.04827 -0.00123,3.03339l0.0641,0.24693c0,0 0.06752,0.27517 -0.11674,0.44969l-0.00858,0.10553c-0.02093,0.25741 -0.24657,0.44912 -0.50398,0.4282c-0.22911,-0.01862 -0.40616,-0.19942 -0.42758,-0.42044l-0.06047,-0.5177l0.02069,-0.00241z" fill="#b3b3b3" stroke="none" stroke-width="0.5"/><path d="M247.149,171.74371c-0.35637,0.30278 -0.65915,-0.05359 -0.65915,-0.05359l-0.13738,-0.22009c-1.35295,-0.67948 -3.42945,-0.60307 -4.51779,-1.54078c-1.80737,-0.88094 -3.45703,-1.0591 -5.40579,-1.21343c-0.056,-0.00443 -1.05275,-0.08502 -1.0815,-0.09021c-0.23096,-0.04171 -0.603,-0.52312 -0.64092,-0.2915c-0.05965,0.36443 -0.05912,0.86305 -0.18664,1.30898c0,0 -0.12857,0.44961 -0.57817,0.32104c-0.44961,-0.12857 -0.32104,-0.57817 -0.32104,-0.57817c0.07864,-0.275 0.32935,-1.64804 0.48029,-1.7646c0.40865,-0.31554 1.41189,0.08273 1.88589,0.12017c2.29681,0.18144 4.25805,0.34402 6.37065,1.4122c0.96164,0.87882 3.14622,0.85456 4.41159,1.47893l0.43355,0.45189c0,0 0.30278,0.35637 -0.05359,0.65915z" fill="#e4e4e4" stroke="none" stroke-width="0.5"/><path d="M245.86084,169.40642c0.58379,0.51682 1.24247,1.13514 1.99621,1.3287c0,0 0.04883,0.01396 0.1097,0.04878c0.12935,0.00118 0.25136,0.09581 0.35497,0.4362c0.06037,0.19832 -0.08295,0.49718 -0.2939,0.81817c3.42093,1.65087 3.66271,4.42749 4.49064,7.80156c-0.04536,0.64694 -0.09907,1.29312 -0.15163,1.93951l-0.0379,0.46609c-0.02093,0.25741 -0.24657,0.44912 -0.50398,0.4282c-0.25741,-0.02093 -0.44912,-0.24657 -0.4282,-0.50398l0.0379,-0.46609c0.00688,-0.08464 0.0137,-0.16929 0.0205,-0.25394c-0.55358,-0.66238 -1.01617,-2.26836 -1.27813,-2.92637c-0.71851,-1.80482 -2.61607,-2.58763 -3.43335,-4.17857l-0.32377,-0.11047c0,0 -0.05553,-0.02366 -0.11818,-0.07394c-1.27568,0.89863 -2.5915,0.14891 -3.97747,-0.93933c-0.30709,-0.24112 -1.54679,-1.04585 -1.4985,-1.45055c0.01606,-0.1346 0.23598,-0.41275 0.49039,-0.56537c-0.07985,-0.01439 -0.15194,-0.02969 -0.20331,-0.0429c-0.66104,-0.1701 -1.06692,-0.39347 -1.76493,-0.45021c-1.64385,-0.13365 -3.02036,-0.04784 -4.62365,0.0872c-0.71631,0.06033 -1.38585,0.24404 -1.85171,-0.54867c-0.33061,-0.56257 0.27582,-2.13595 0.49883,-2.67504c0,0 0.12853,-0.30159 0.42287,-0.29211c0.14996,-0.13852 0.36857,-0.12074 0.36857,-0.12074l0.00603,0.02457c2.0564,-0.5046 4.33438,-0.33755 6.28267,0.49278c1.11568,0.12059 2.00486,1.40806 3.08741,1.49608c0.27193,0.02211 0.68551,-0.25705 0.95744,-0.23494c0.33107,0.02692 0.66937,0.15698 0.99671,0.34366zM247.36973,173.64985c0.42483,0.72017 1.02545,0.97273 1.60709,1.5482c0.69667,0.68929 1.57809,1.83552 2.236,3.07581c-0.5257,-2.34486 -1.09062,-4.30772 -3.7467,-5.4692c-0.18511,0.24409 -0.34472,0.46282 -0.41031,0.61671c-0.01543,0.01961 -0.03084,0.03894 -0.04628,0.05799zM234.16608,168.09487c-0.20908,0.50108 -0.48928,1.31153 -0.43589,1.7825c0.00884,0.07792 2.03462,-0.13814 2.26891,-0.19563c1.08017,-0.26505 2.31976,0.00814 3.42459,0.09796c0.6041,0.04911 2.72384,0.29388 3.07712,0.85677c0.18365,0.29262 0.29206,0.70417 0.16103,1.02384c-0.05025,0.12261 -0.24524,0.22741 -0.44221,0.28402c0.41578,0.27047 0.97047,0.79397 1.07432,0.85638c1.25103,0.75181 1.92569,1.43711 2.95775,0.14303c0.04512,-0.10585 0.47692,-0.89112 0.82386,-1.25008c-0.16293,-0.03532 -0.33201,-0.09974 -0.41527,-0.17078c-0.49357,-0.42115 -0.90482,-0.94511 -1.53374,-1.32721c-0.75962,-0.46151 -0.86785,-0.02285 -1.66343,-0.08753c-1.19337,-0.09702 -2.07564,-1.46606 -3.23575,-1.52026c-1.81794,-0.77478 -3.91491,-0.96379 -5.83566,-0.49247z" fill="#b3b3b3" stroke="none" stroke-width="0.5"/></g></g></svg>