<svg version="1.1" xmlns="http://www.w3.org/2000/svg" xmlns:xlink="http://www.w3.org/1999/xlink" width="29.75569" height="48.72744" viewBox="0,0,29.75569,48.72744"><g transform="translate(-224.96811,-140.18275)"><g data-paper-data="{&quot;isPaintingLayer&quot;:true}" fill-rule="nonzero" stroke="none" stroke-width="0.5" stroke-linecap="butt" stroke-linejoin="miter" stroke-miterlimit="10" stroke-dasharray="" stroke-dashoffset="0" style="mix-blend-mode: normal"><path d="M247.3823,165.17971c0.0781,0.04241 0.12494,0.0814 0.12494,0.0814l0.4584,0.39831c3.94891,2.21204 5.67837,5.68107 1.95523,9.21343c-0.68316,0.93421 -1.35257,1.79047 -2.25243,2.53266c-1.89395,1.5621 -5.02412,1.94795 -5.49519,-1.24761c-0.3395,-2.30303 1.26774,-5.05624 3.24775,-6.166l-0.15513,-0.41535l0.04631,-0.0173c-0.79486,-0.58098 -1.53874,-1.34913 -1.47794,-2.14755c0.04001,-0.52546 1.88996,-2.54458 2.28113,-2.96939c0,0 0.51108,-0.54892 1.05999,-0.03785c0.2996,0.27894 0.28342,0.56916 0.20693,0.77525z" data-paper-data="{&quot;index&quot;:null}" fill="#515151"/><path d="M246.32962,164.41615c0.47984,-0.57643 1.05625,-0.09659 1.05625,-0.09659l-0.01595,0.03679c4.27862,1.67162 7.97616,4.64042 4.59764,9.22147c0,0 -0.08228,0.11155 -0.22404,0.20338c-1.10935,2.43971 -3.14417,4.92656 -5.82367,5.60241c-3.25264,0.8204 -4.42418,-2.96192 -3.8681,-5.3553c0.42555,-1.74818 1.55156,-3.22381 2.76207,-4.52737l0.28737,-0.2092c0,0 0.63749,-0.39511 1.0326,0.24238c0.3951,0.63749 -0.24239,1.0326 -0.24239,1.0326l0.02025,-0.04364c-1.01516,1.08721 -2.07005,2.37295 -2.3996,3.84803c-0.28255,1.18974 -0.0391,4.1896 2.02803,3.56138c2.45436,-0.7459 4.18539,-3.03976 5.06789,-5.31447c0,0 0.15129,-0.38723 0.5169,-0.47245c2.01616,-3.32796 -1.10284,-5.14261 -4.30083,-6.39205l-0.39786,-0.28111c0,0 -0.57642,-0.47983 -0.09658,-1.05625z" data-paper-data="{&quot;index&quot;:null}" fill="#323232"/><path d="M247.40967,165.8627l0.22202,0.55164c0.3528,0.82264 0.66968,1.66413 0.9845,2.50195c0.09274,0.32503 0.21623,0.76915 0.34754,1.28977c-0.97178,0.6283 -1.76264,1.56846 -2.20101,2.68983l-0.01569,-0.0267l0.02133,-0.00271l-0.10724,-0.87454c-0.04137,-0.37508 -0.3556,-0.66189 -0.74171,-0.66189c-0.41421,0 -0.67366,0.2712 -0.67366,0.68542c0,0.02059 0.00106,0.04126 0.00269,0.06144l0.11198,1.49699l0.00139,-0.0001c-0.00029,0.00233 -0.00056,0.00471 -0.00084,0.00704c-0.07794,0.63347 -0.02489,1.6736 0.172,2.71912c0.10401,1.38967 0.20453,2.80155 0.16076,4.19191c-0.81514,0.15964 -1.61255,0.35274 -2.29191,0.80566c-0.85057,0.56705 -0.8286,1.91115 -1.52155,2.66271c-0.37436,0.40601 -0.95117,0.60008 -1.46755,0.84717c0.0427,-1.17994 0.01421,-2.21293 -0.26105,-3.31527c0,-0.00108 -0.00249,-0.10212 -0.00249,-0.1032l0.00068,-0.00552l0.2162,-0.02416l-0.10379,-0.89121c-0.03709,-0.37956 -0.36753,-0.67666 -0.75683,-0.67666c-0.38611,0 -0.71144,0.29006 -0.75281,0.66515l-0.08158,0.78312l0.01936,0.00239l-0.02378,0.04401c-0.00106,0.7657 0.44803,5.89013 -0.33717,6.11797c-0.6911,0.20053 -2.04586,-0.09545 -2.74506,-0.16588c-0.35774,-0.0503 -0.83859,0.18103 -1.08457,-0.08354c-0.13104,-0.14095 -0.02285,-2.34947 -0.04486,-2.67461c-0.18125,-2.67748 -0.26968,-5.56445 0.0847,-8.22292c0.09231,-0.69248 0.36997,-1.57377 0.34453,-2.29802c0.06557,-0.3591 0.14457,-0.72438 0.22243,-1.08091l-0.03361,-0.08215l0.03843,-0.00015l0.00303,-0.78154c0,-0.41421 -0.26131,-0.68326 -0.67553,-0.68326c-0.36345,0 -0.66274,0.2538 -0.73157,0.597l-0.21574,0.98024l0.16878,0.03782c-0.03196,0.14554 -0.0614,0.2887 -0.09082,0.43482c-0.02741,0.08471 -0.05373,0.16969 -0.07898,0.25498c-0.11298,-1.69228 -0.77728,-3.39479 -1.79669,-4.92394c0.24087,-0.55086 0.50749,-1.09023 0.79489,-1.61576c0.27003,-0.05499 0.45267,-0.26739 0.45267,-0.26739c2.11199,-2.50239 7.13949,-1.1705 10.0579,-1.30226c1.38768,-0.06265 2.95391,-0.30772 4.24632,0.28018z" data-paper-data="{&quot;noHover&quot;:false,&quot;origItem&quot;:[&quot;Path&quot;,{&quot;applyMatrix&quot;:true,&quot;segments&quot;:[[[496.43499,290.36259],[0,0],[-2.5848,-1.17581]],[[487.97232,289.8161],[2.77535,-0.1253],[-5.83683,0.26353]],[[467.94253,292.40451],[4.22399,-5.00478],[0,0]],[[467.04065,292.93661],[0.54007,-0.10999],[-2.58686,4.73015]],[[462.74809,308.31721],[-0.00361,-5.42119],[0.00052,0.7823]],[[463.40716,313.95383],[-0.99603,-0.56354],[2.47697,1.40145]],[[467.85663,312.01728],[-0.68556,1.91418],[0.16213,-2.29009]],[[469.04847,305.38632],[-0.68063,2.10294],[0.05884,-0.29223]],[[469.23279,304.51134],[-0.06392,0.29109],[0,0]],[468.89492,304.43626],[[469.33295,302.4651],[0,0],[0.13765,-0.68639]],[[470.80364,301.26165],[-0.7269,0],[0.82843,0]],[[472.30364,302.76165],[0,-0.82843],[0,0]],[472.30364,304.31721],[472.22701,304.31721],[[472.29469,304.48088],[0,0],[-0.15574,0.71307]],[[471.85883,306.6273],[0.13113,-0.71819],[0.05089,1.4485]],[[471.17926,311.18297],[0.18462,-1.38496],[-0.70876,5.31694]],[[470.96654,327.54421],[-0.3625,-5.35496],[0.04402,0.65029]],[[471.04523,332.88685],[-0.26208,-0.2819],[0.49196,0.52915]],[[473.2066,333.05036],[-0.71548,-0.10061],[1.3984,0.14085]],[[478.67406,333.37583],[-1.38221,0.40107],[1.57041,-0.45568]],[[479.30654,321.33511],[-0.00212,1.5314],[0,0]],[479.35432,321.24715],[479.31523,321.24227],[[479.53498,319.48423],[0,0],[0.08274,-0.75016]],[[481.02587,318.15054],[-0.77221,0],[0.7786,0]],[[482.51869,319.50288],[-0.07417,-0.75912],[0,0]],[482.73891,321.48489],[482.30218,321.53342],[[482.3008,321.54447],[0,0],[0.00001,0.00215]],[[482.30082,321.55093],[-0.00001,-0.00215],[0.68633,2.74861]],[[482.74519,330.18819],[0.16737,-3.1557],[-0.013,0.24515]],[[482.50156,330.95975],[0.12905,-0.26423],[-0.0751,0.68836]],[[482.14107,332.91845],[0.1698,-0.61036],[0.72575,0.49101]],[[486.3685,333.26168],[-0.39266,-0.00064],[0.77885,0.00126]],[[492.12257,333.34191],[-0.47462,0.33694],[1.35326,-0.96069]],[[493.08432,322.66845],[-0.00313,1.78255],[0.46966,-3.75727]],[[492.96593,311.26793],[0.28561,3.81615],[-0.39377,-2.09104]],[[492.63336,305.8747],[-0.15588,1.26694],[0.00057,-0.00467]],[[492.63509,305.8607],[-0.00058,0.00467],[0,0]],[492.63231,305.8609],[[492.41967,302.88397],[0,0],[-0.00326,-0.04034]],[[492.41476,302.76165],[0,0.04118],[0,-0.82843]],[[493.91476,301.26165],[-0.82843,0],[0.77221,0]],[[495.40564,302.59534],[-0.08274,-0.75016],[0,0]],[495.62539,304.35338],[495.58269,304.35872],[[495.63408,304.44622],[0,0],[0.00057,1.90117]],[[495.88986,310.1828],[-0.13802,-1.91996],[0.78614,3.33805]],[[499.49447,315.31377],[-1.84568,1.41247],[3.93334,-3.01012]],[[499.15688,296.56475],[1.08818,3.81386],[-0.62963,-1.67564]],[[497.2027,291.57475],[0.70559,1.64528],[0,0]],[496.76188,290.47383]],&quot;closed&quot;:true}]}" fill="#515151"/><path d="M234.4356,184.99676c1.44072,0.00784 2.96493,0.04817 4.39988,0.09106c-0.01027,1.1559 -0.11829,2.19616 -0.45674,2.29437c-0.6911,0.20053 -2.11251,-0.08547 -2.8117,-0.15589c-0.35774,-0.0503 -0.8445,0.16785 -1.09048,-0.09672c-0.09627,-0.10354 -0.05802,-1.36496 -0.04095,-2.13281z" data-paper-data="{&quot;noHover&quot;:false,&quot;origItem&quot;:[&quot;Path&quot;,{&quot;applyMatrix&quot;:true,&quot;segments&quot;:[[[234.52262,187.11009],[-0.09627,-0.10354],[0.24598,0.26458]],[[235.6033,187.19185],[-0.35774,-0.0503],[0.6992,0.07043]],[[238.33703,187.35458],[-0.6911,0.20053],[0.33846,-0.09821]],[[238.791,185.11062],[-0.01027,1.1559],[-1.43496,-0.04289]],[[234.47923,185.02116],[1.44072,0.00784],[-0.01706,0.76785]]],&quot;closed&quot;:true}]}" fill="#454545"/><path d="M233.52423,173.35985c0.02942,-0.14611 0.0602,-0.29195 0.09216,-0.43749l-0.16893,-0.03754l0.21902,-0.98558c0.06882,-0.34319 0.37189,-0.60172 0.73534,-0.60172c0.41421,0 0.75,0.33579 0.75,0.75v0.77778h-0.03832l0.03384,0.08184c-0.07787,0.35653 -0.15236,0.71411 -0.21793,1.07321c0.02544,0.72425 -0.24748,1.58536 -0.33978,2.27784c-0.31415,2.35665 -0.29734,4.85962 -0.16322,7.26273c1.44918,0.00713 2.89374,0.04583 4.33712,0.08891c-0.04066,-1.04642 -0.11067,-1.97952 -0.11026,-2.27557l0.02389,-0.04398l-0.01954,-0.00244l0.10988,-0.87902c0.04137,-0.37508 0.35933,-0.66685 0.74544,-0.66685c0.3893,0 0.70933,0.29661 0.74641,0.67617l0.11011,0.99101l-0.21837,0.02426l-0.00069,0.00552c0,0.00108 0.00001,0.00215 0.00001,0.00323c0.1824,0.73046 0.25731,1.45872 0.27491,2.21767c0.55066,0.0162 1.10133,0.03151 1.65222,0.04442c-0.05904,0.09085 -0.12418,0.17672 -0.19727,0.25599c-0.65792,0.71356 -1.94117,0.77245 -2.42272,1.61515c-0.39621,0.69336 0.19194,1.59566 0.13289,2.39205c-0.0086,0.11595 -0.05353,0.23419 -0.12135,0.35381c-0.00225,-0.00093 -0.0045,-0.00186 -0.00674,-0.00279c-0.15559,0.17206 -0.33798,0.31484 -0.5513,0.42196c-0.74974,0.37652 -2.68004,0.02083 -3.48849,-0.05948c-0.53305,-0.07716 -1.67093,-0.17692 -2.03043,-0.58491c-0.646,-0.73316 -0.406,-3.53651 -0.40698,-4.49296c-0.00153,-1.47984 -0.10207,-3.06778 -0.11617,-4.65762c-0.04549,0.03337 -0.0918,0.06518 -0.13895,0.09535c0.30903,-1.43073 0.51122,-2.74521 0.67178,-3.65995c0.10887,-0.62022 0.13163,-1.25068 0.07847,-1.88189c0.01433,-0.0465 0.02898,-0.09287 0.04394,-0.13911zM234.52262,187.11012c0.24598,0.26458 0.72295,0.03145 1.08068,0.08175c0.6992,0.07043 2.04263,0.36327 2.73373,0.16274c0.33846,-0.09821 0.44369,-1.08806 0.45397,-2.24396c-1.43496,-0.04289 -2.87105,-0.08162 -4.31177,-0.08946c-0.01706,0.76785 -0.05288,1.98539 0.04339,2.08893z" fill="#323232"/><path d="M245.02168,178.69765c0.16397,1.25517 -0.28296,2.80805 -0.44949,4.05539c-0.2207,0.50361 -0.48639,1.01882 -0.77385,1.48768c-3.33932,5.44662 -3.40591,-3.28599 -3.1666,-6.22961c1.27418,-1.51694 4.03149,-2.0575 4.38994,0.68654z" data-paper-data="{&quot;noHover&quot;:false,&quot;origItem&quot;:[&quot;Path&quot;,{&quot;applyMatrix&quot;:true,&quot;segments&quot;:[[[481.97189,357.48066],[2.35996,-2.81489],[-0.44323,5.46227]],[[487.74989,368.86194],[-6.18487,10.10691],[0.53241,-0.87003]],[[489.13713,366.13443],[-0.40877,0.93452],[0.30844,-2.31461]],[[489.98481,358.74748],[0.30369,2.32913],[-0.66392,-5.09193]]],&quot;closed&quot;:true}]}" fill="#454545"/><path d="M245.79064,183.13891c-0.90875,2.15196 -3.70803,5.9101 -5.71047,3.40732c-0.01175,0.11015 -0.02542,0.22082 -0.04134,0.33223l0.0002,0.07544c0.02499,0.02646 0.04967,0.05574 0.07391,0.08806c0.45,0.6 -0.15,1.05 -0.15,1.05l-0.6884,0.45448c-0.25926,0.07407 -0.51852,0.14815 -0.77778,0.22222c0,0 -0.72114,0.20604 -0.92718,-0.5151c-0.20604,-0.72114 0.5151,-0.92718 0.5151,-0.92718c0.15232,-0.04352 0.30464,-0.08704 0.45697,-0.13056l0.00096,-0.42368c0.11066,-0.77465 0.10922,-1.49868 0.10922,-2.28017c0,0 0,-0.46539 0.3666,-0.66296c-0.2211,-1.64999 -0.00906,-3.58905 0.18975,-5.17595c-0.00331,-0.1383 0.02635,-0.24927 0.03523,-0.27918c0.02824,-0.22264 0.05564,-0.43714 0.08088,-0.6416c0,0 0.07481,-0.59847 0.62694,-0.65496c1.83919,-1.82305 4.72807,-2.06252 6.02022,0.76652c0.0987,0.21609 0.17142,0.44228 0.2228,0.67594c0.00465,0 0.00929,0 0.01394,0c-0.00026,0.57127 0.01497,1.16099 0.0538,1.75062c-0.09195,0.98942 -0.34039,1.99737 -0.47135,2.86851zM240.76372,178.40702c-0.22161,2.73113 -0.20343,10.7441 2.889,5.69064c0.26621,-0.43502 0.48923,-0.8965 0.69362,-1.36376c0.15422,-1.1573 0.57568,-2.52891 0.42384,-3.69347c-0.33196,-2.54597 -2.82648,-2.04086 -4.00646,-0.63341z" fill="#323232"/><path d="M233.48792,166.29083c-0.07649,-0.20609 -0.09267,-0.49631 0.20693,-0.77525c0.54891,-0.51107 1.05999,0.03785 1.05999,0.03785c0.39117,0.42481 2.24112,2.44393 2.28113,2.96939c0.0608,0.79842 -0.68308,1.56657 -1.47794,2.14755l0.04631,0.0173l-0.15513,0.41535c1.98001,1.10976 3.58725,3.86297 3.24775,6.166c-0.47107,3.19556 -3.60124,2.80971 -5.49519,1.24761c-0.89986,-0.74219 -1.56927,-1.59845 -2.25243,-2.53266c-3.72314,-3.53236 -1.99368,-7.00139 1.95523,-9.21343l0.4584,-0.39831c0,0 0.04684,-0.03899 0.12494,-0.0814z" fill="#515151"/><path d="M234.54061,165.52728c0.47984,0.57642 -0.09658,1.05625 -0.09658,1.05625l-0.39786,0.28111c-3.19799,1.24944 -6.31699,3.06409 -4.30083,6.39205c0.36561,0.08522 0.5169,0.47245 0.5169,0.47245c0.8825,2.27471 2.61353,4.56857 5.06789,5.31447c2.06713,0.62822 2.31058,-2.37164 2.02803,-3.56138c-0.32955,-1.47508 -1.38444,-2.76082 -2.3996,-3.84803l0.02025,0.04364c0,0 -0.63749,-0.39511 -0.24239,-1.0326c0.39511,-0.63749 1.0326,-0.24238 1.0326,-0.24238l0.28737,0.2092c1.21051,1.30356 2.33652,2.77919 2.76207,4.52737c0.55608,2.39338 -0.61546,6.1757 -3.8681,5.3553c-2.6795,-0.67585 -4.71432,-3.1627 -5.82367,-5.60241c-0.14176,-0.09183 -0.22404,-0.20338 -0.22404,-0.20338c-3.37852,-4.58105 0.31902,-7.54985 4.59764,-9.22147l-0.01595,-0.03679c0,0 0.57641,-0.47984 1.05625,0.09659z" fill="#323232"/><path d="M244.29071,140.5197c0.75,0 0.75,0.75 0.75,0.75l-0.02643,0.64178c-0.11111,0.40741 -0.22222,0.81481 -0.33333,1.22222c0,0 -0.19734,0.72357 -0.92091,0.52623c-0.72357,-0.19734 -0.52623,-0.92091 -0.52623,-0.92091c0.11111,-0.40741 0.22222,-0.81481 0.33333,-1.22222l-0.02643,-0.24711c0,0 0,-0.75 0.75,-0.75z" fill="#593800"/><path d="M233.87149,141.18383c0.53033,-0.53033 1.06066,0 1.06066,0l0.41743,0.43357c0.25926,0.37037 0.51852,0.74074 0.77778,1.11111c0,0 0.4301,0.61442 -0.18433,1.04452c-0.61442,0.4301 -1.04452,-0.18433 -1.04452,-0.18433c-0.25926,-0.37037 -0.51852,-0.74074 -0.77778,-1.11111l-0.24924,-0.2331c0,0 -0.53033,-0.53033 0,-1.06066z" fill="#593800"/><path d="M228.91823,148.93452l-0.12357,0.15341c-1.42752,2.6588 -2.45503,5.02995 -1.98747,8.18111c0.67586,4.55494 6.74007,9.80938 11.20929,10.37875c10.12628,1.39855 17.89941,-10.83977 11.47525,-19.2084c-3.5902,-4.74801 -9.54165,-5.36436 -14.8683,-3.35531c-1.8502,0.69784 -4.24192,1.52123 -5.54423,3.14214c0.08536,0.37372 -0.16097,0.70829 -0.16097,0.70829zM226.97468,148.40723c1.35394,-2.70216 4.35479,-3.89944 7.048,-4.91564c6.05692,-2.28541 12.73216,-1.40953 16.82251,3.9158c7.27258,9.5944 -1.42149,23.49509 -13.05869,21.92677c-5.24769,-0.75258 -11.83515,-6.46649 -12.66285,-11.81508c-0.4949,-3.19808 0.40679,-5.80703 1.7849,-8.50002c-0.07753,-0.31392 0.06612,-0.61183 0.06612,-0.61183z" data-paper-data="{&quot;index&quot;:null}" fill="#8c8372"/><path d="M229.03385,148.19214c1.30231,-1.62091 3.71699,-2.46235 5.56719,-3.16019c5.32665,-2.00905 11.34637,-1.37394 14.93657,3.37407c6.42416,8.36862 -1.40083,20.69674 -11.5271,19.29819c-4.46922,-0.56937 -10.58383,-5.87394 -11.25969,-10.42888c-0.46756,-3.15116 0.56873,-5.55948 1.99626,-8.21828l0.12406,-0.15416c0,0 0.24807,-0.33703 0.16272,-0.71075z" data-paper-data="{&quot;noHover&quot;:false,&quot;origItem&quot;:[&quot;Path&quot;,{&quot;applyMatrix&quot;:true,&quot;segments&quot;:[[461.79205,256.51809],[[461.57425,256.7885],[0,0],[-2.51619,4.68647]],[[458.07109,271.20873],[-0.82414,-5.55431],[1.19129,8.02865]],[[477.82886,289.50257],[-7.87755,-1.00359],[17.84882,2.46512]],[[498.05541,255.64538],[11.32339,14.75074],[-6.32818,-8.36895]],[[471.84818,249.73122],[9.38889,-3.5412],[-3.26121,1.23003]],[[462.07578,255.26964],[2.29549,-2.85706],[0.15045,0.65872]]],&quot;closed&quot;:true}]}" fill="#e6d8c0"/><path d="M231.58292,141.5675c0.70225,-0.26334 0.96559,0.4389 0.96559,0.4389l0.3252,0.86813c0.34582,0.7827 0.60212,1.60579 0.81128,2.43553c0,0 0.1819,0.72761 -0.54571,0.90951c-0.72761,0.1819 -0.90951,-0.54571 -0.90951,-0.54571c-0.18851,-0.761 -0.42418,-1.51546 -0.74428,-2.23114l-0.34147,-0.90965c0,0 -0.26334,-0.70225 0.4389,-0.96559z" fill="#593800"/><path d="M239.85845,140.19662c0.7398,0.1233 0.6165,0.86309 0.6165,0.86309l-0.10091,0.54337c0,0.87072 0.00264,1.68759 -0.11865,2.55051c0,0 -0.10607,0.74246 -0.84853,0.6364c-0.74246,-0.10607 -0.6364,-0.84853 -0.6364,-0.84853c0.11516,-0.79153 0.10357,-1.53823 0.10357,-2.33838l0.12132,-0.78997c0,0 0.1233,-0.7398 0.86309,-0.6165z" fill="#593800"/><path d="M254.6005,150.32832c0.38587,0.64312 -0.25725,1.02899 -0.25725,1.02899l-0.5254,0.31425c-0.66712,0.44427 -1.35134,0.86419 -2.05179,1.2538c0,0 -0.65562,0.36423 -1.01985,-0.29139c-0.36423,-0.65562 0.29139,-1.01985 0.29139,-1.01985c0.6655,-0.36924 1.31517,-0.76814 1.94821,-1.19064l0.58571,-0.35242c0,0 0.64312,-0.38587 1.02899,0.25725z" fill="#593800"/><path d="M227.31913,149.42434c0.21694,0.04127 0.61047,0.19102 0.61047,0.73429c0,0.75 -0.75,0.75 -0.75,0.75l-0.52714,-0.12596c-0.44444,-0.2963 -0.88889,-0.59259 -1.33333,-0.88889c0,0 -0.62404,-0.41603 -0.20801,-1.04006c0.41603,-0.62404 1.04006,-0.20801 1.04006,-0.20801c0.38932,0.25954 0.77863,0.51909 1.16795,0.77863z" fill="#593800"/><path d="M250.6282,170.71627c-0.33541,0.67082 -1.00623,0.33541 -1.00623,0.33541l-0.18225,-0.09257c-0.54384,-0.23529 -1.07081,-0.51619 -1.56503,-0.8431c0,0 -0.62404,-0.41603 -0.20801,-1.04006c0.41603,-0.62404 1.04006,-0.20801 1.04006,-0.20801c0.41577,0.27976 0.86245,0.51691 1.32386,0.71246l0.26219,0.12965c0,0 0.67082,0.33541 0.33541,1.00623z" fill="#515151"/><path d="M246.29071,178.57529c-0.75,0 -0.75,-0.75 -0.75,-0.75v-0.66667c0,-2.34611 -0.22222,-4.65336 -0.22222,-7c0,0 0,-0.75 0.75,-0.75c0.75,0 0.75,0.75 0.75,0.75c0,2.34611 0.22222,4.65336 0.22222,7v0.66667c0,0 0,0.75 -0.75,0.75z" fill="#323232"/><path d="M247.7147,161.88583l0.19397,0.46211c0.15714,0.94284 0.26311,1.20526 0.68395,2.04378c0.07869,0.15679 0.15783,0.51146 0.19275,0.75696c0.26225,-0.54318 1.61173,-1.70955 1.47225,-1.82354c-0.75465,-0.61672 -1.70226,-1.31735 -2.60697,-1.82458c-0.00556,0.08528 -0.01442,0.1673 -0.02883,0.24654c0.06192,0.07681 0.09288,0.13873 0.09288,0.13873zM247.87929,159.92541c0.87688,0.44344 3.26608,1.79087 3.70085,2.69193c0.55276,1.1456 -1.61363,4.421 -2.99408,4.22431c-1.26365,-0.18005 -1.88331,-2.75529 -2.10772,-3.96731c-1.06052,0.29667 -3.56616,-0.15133 -4.55945,-0.1531c-3.65043,-0.00648 -7.47571,1.46597 -11.07226,0.35978c-0.49957,-3.69777 -0.46859,-7.77561 -0.44033,-11.65285c-1.22403,-0.61087 -3.97841,-1.94891 -4.22576,-3.20025c-0.23568,-1.1923 1.48135,-3.24537 2.62683,-3.37335c1.65339,-0.18472 2.07017,1.89189 3.44693,2.57084l0.36416,0.4104c3.61379,-0.06056 7.21957,-0.36458 10.80043,-0.36458c0.54714,0 1.22851,-0.07997 1.89856,-0.07942c0.89263,-1.28411 2.00279,-3.25821 3.73312,-3.03393c1.70692,0.22124 4.04935,3.01325 3.0152,4.74289c-0.66735,1.11615 -2.82038,1.22987 -3.93647,1.79128l-0.05508,0.10951c0,0 -0.05327,0.05329 -0.14295,0.10918c-0.00627,0.24771 -0.01238,0.46069 -0.01238,0.61049c0,2.70448 -0.20457,5.41628 -0.24361,8.13831c0.12156,0.02464 0.20401,0.06587 0.20401,0.06587zM250.77201,148.34169c0.53564,-0.88063 -1.44373,-2.31013 -1.98481,-2.50711c-0.48875,-0.17793 -1.29577,0.90088 -1.90282,1.81911c0.34095,0.15254 0.631,0.38735 0.83548,0.74265c0.1122,0.19495 0.17115,0.56063 0.20009,0.98585c0.92282,-0.28035 2.59903,-0.62452 2.85206,-1.0405zM245.07536,148.93189c-0.00945,-0.00756 -0.01863,-0.01515 -0.02754,-0.02277c-0.70931,0.01243 -1.47033,0.06212 -1.62894,0.06212c-3.62874,0 -7.28628,0.31243 -10.94962,0.36694c-0.12396,0.03571 -0.23766,0.03064 -0.33757,0.00428c-0.07004,0.00073 -0.14009,0.00135 -0.21013,0.00188c0.03359,3.18033 0.37232,6.33307 0.37232,9.5019c0,0.90042 0.31588,2.5471 -0.30274,3.26522c0.84331,-0.48453 2.62966,-0.18681 3.62457,-0.26334c2.38254,-0.18328 4.64364,-0.62688 7.05317,-0.62688c1.05336,0 3.59478,0.6248 3.5,-0.5c0,-3.60782 0.98879,-8.20043 0.19903,-11.67511c-0.0132,-0.0581 -0.15003,-0.09414 -0.35842,-0.11505c-0.17567,0.14235 -0.52653,0.32689 -0.93413,0.00081zM229.22331,146.32453c-0.25192,-0.35205 -1.5883,1.42496 -1.56608,1.64002c0.03227,0.31223 1.68704,1.22489 2.75959,1.78435c0.001,-0.23708 0.0017,-0.47306 0.00196,-0.70778c-0.07457,-0.10666 -0.1249,-0.25061 -0.1249,-0.44488c0,-0.27058 0.09762,-0.44355 0.22242,-0.55411c-0.49499,-0.46718 -0.77889,-0.99917 -1.29299,-1.7176z" fill="#2a2a2a"/><path d="M246.04519,148.89607c0.20839,0.0209 0.34641,0.05821 0.35962,0.11631c0.78976,3.47468 -0.19609,8.13124 -0.19609,11.73906c0.09478,1.1248 -2.46106,0.51284 -3.51442,0.51284c-2.40953,0 -4.72115,0.44379 -7.1037,0.62706c-0.99491,0.07653 -2.79324,-0.23091 -3.63655,0.25362c0.61862,-0.71812 0.29469,-2.37682 0.29469,-3.27724c0,-3.16884 -0.33195,-6.37514 -0.36555,-9.55547c0.07004,-0.00053 0.14056,-0.0017 0.2106,-0.00243c0.09991,0.02636 0.21441,0.03052 0.33837,-0.00519c3.66334,-0.05451 7.38464,-0.37571 11.01338,-0.37571c0.15861,0 0.92582,-0.0451 1.63512,-0.05752c0.00891,0.00762 0.01824,0.01534 0.02769,0.0229c0.40759,0.32608 0.76117,0.14411 0.93684,0.00176z" data-paper-data="{&quot;noHover&quot;:false,&quot;origItem&quot;:[&quot;Path&quot;,{&quot;applyMatrix&quot;:true,&quot;segments&quot;:[[[245.07536,148.93189],[0.40759,0.32608],[-0.00945,-0.00756]],[[245.04782,148.90912],[0.00891,0.00762],[-0.70931,0.01243]],[[243.41888,148.97124],[0.15861,0],[-3.62874,0]],[[232.46926,149.33818],[3.66334,-0.05451],[-0.12396,0.03571]],[[232.13169,149.34245],[0.09991,0.02636],[-0.07004,0.00073]],[[231.92156,149.34433],[0.07004,-0.00053],[0.03359,3.18033]],[[232.29388,158.84624],[0,-3.16884],[0,0.90042]],[[231.99115,162.11146],[0.61862,-0.71812],[0.84331,-0.48453]],[[235.61572,161.84812],[-0.99491,0.07653],[2.38254,-0.18328]],[[242.66888,161.22124],[-2.40953,0],[1.05336,0]],[[246.16888,160.72124],[0.09478,1.1248],[0,-3.60782]],[[246.36791,149.04612],[0.78976,3.47468],[-0.0132,-0.0581]],[[246.00949,148.93108],[0.20839,0.0209],[-0.17567,0.14235]]],&quot;closed&quot;:true}]}" fill="#474747"/><path d="M247.58969,161.70878c0.01441,-0.07924 0.02646,-0.16373 0.03203,-0.24901c0.90472,0.50723 1.93126,1.24866 2.68591,1.86538c0.13948,0.11399 -1.26436,1.33016 -1.52661,1.87334c-0.03492,-0.2455 -0.12538,-0.60249 -0.20407,-0.75928c-0.42084,-0.83852 -0.54752,-1.18273 -0.70466,-2.12556l-0.19008,-0.46582c0,0 -0.0306,-0.06223 -0.09252,-0.13904z" data-paper-data="{&quot;noHover&quot;:false,&quot;origItem&quot;:[&quot;Path&quot;,{&quot;applyMatrix&quot;:true,&quot;segments&quot;:[[247.7147,161.88583],[[247.90868,162.34794],[0,0],[0.15714,0.94284]],[[248.59262,164.39172],[-0.42084,-0.83852],[0.07869,0.15679]],[[248.78537,165.14868],[-0.03492,-0.2455],[0.26225,-0.54318]],[[250.25763,163.32513],[0.13948,0.11399],[-0.75465,-0.61672]],[[247.65065,161.50055],[0.90472,0.50723],[-0.00556,0.08528]],[[247.62182,161.7471],[0.01441,-0.07924],[0.06192,0.07681]]],&quot;closed&quot;:true}]}" fill="#525252"/><path d="M247.89637,149.42629c-0.02893,-0.42522 -0.10544,-0.80656 -0.21764,-1.00151c-0.20449,-0.3553 -0.50338,-0.61717 -0.84433,-0.7697c0.60704,-0.91823 1.46159,-2.04836 1.95035,-1.87043c0.54108,0.19698 2.56946,1.69465 2.03382,2.57527c-0.25303,0.41599 -1.99938,0.78602 -2.9222,1.06637z" data-paper-data="{&quot;noHover&quot;:false,&quot;origItem&quot;:[&quot;Path&quot;,{&quot;applyMatrix&quot;:true,&quot;segments&quot;:[[[250.77201,148.34169],[-0.25303,0.41599],[0.53564,-0.88063]],[[248.7872,145.83459],[0.54108,0.19698],[-0.48875,-0.17793]],[[246.88438,147.6537],[0.60704,-0.91823],[0.34095,0.15254]],[[247.71986,148.39635],[-0.20449,-0.3553],[0.1122,0.19495]],[[247.91995,149.3822],[-0.02893,-0.42522],[0.92282,-0.28035]]],&quot;closed&quot;:true}]}" fill="#525252"/><path d="M230.56629,148.04312c-0.1248,0.11056 -0.22738,0.30426 -0.22738,0.57484c0,0.19427 0.04489,0.34703 0.11946,0.45369c-0.00026,0.23472 -0.01012,0.47985 -0.01113,0.71693c-1.07255,-0.55946 -2.80771,-1.51352 -2.83998,-1.82575c-0.02222,-0.21506 1.36816,-2.04018 1.62008,-1.68814c0.51411,0.71843 0.84396,1.30125 1.33895,1.76843z" data-paper-data="{&quot;noHover&quot;:false,&quot;origItem&quot;:[&quot;Path&quot;,{&quot;applyMatrix&quot;:true,&quot;segments&quot;:[[[229.22331,146.32453],[0.51411,0.71843],[-0.25192,-0.35205]],[[227.65723,147.96455],[-0.02222,-0.21506],[0.03227,0.31223]],[[230.41682,149.7489],[-1.07255,-0.55946],[0.001,-0.23708]],[[230.41878,149.04112],[-0.00026,0.23472],[-0.07457,-0.10666]],[[230.29388,148.59624],[0,0.19427],[0,-0.27058]],[[230.5163,148.04213],[-0.1248,0.11056],[-0.49499,-0.46718]]],&quot;closed&quot;:true}]}" fill="#525252"/><path d="M231.95823,163.18976c-0.29442,-0.37289 -0.63498,-0.71345 -1.00787,-1.00787c0,0 -0.05008,-0.04006 -0.10923,-0.1114c-0.88684,0.55682 -1.097,1.09796 -0.71073,2.28858c0.05198,0.16023 0.35667,1.25595 0.70947,1.24134c0.17417,-0.00721 0.92065,-1.3387 1.39608,-2.22559zM231.75429,160.05042c0.67082,0.33541 0.33541,1.00623 0.33541,1.00623l-0.05781,0.0735c0.39114,0.33118 0.7531,0.69984 1.07667,1.09674c0.1423,-0.03749 0.31587,-0.0289 0.52073,0.07353c0.67082,0.33541 0.33541,1.00623 0.33541,1.00623c-0.47307,0.94228 -1.77312,3.66911 -2.96681,3.78542c-1.52762,0.14884 -3.05086,-2.83493 -2.81736,-4.12751c0.20986,-1.16172 1.84851,-2.19413 2.77794,-2.66414l-0.21041,0.08541c0,0 0.33541,-0.67082 1.00623,-0.33541z" fill="#2a2a2a"/><path d="M232.28234,163.35616c-0.47543,0.88689 -1.27533,2.28654 -1.44951,2.29375c-0.3528,0.01461 -0.69436,-1.10668 -0.74634,-1.26691c-0.38627,-1.19062 -0.13921,-1.80521 0.74763,-2.36202c0.05915,0.07134 0.112,0.11109 0.112,0.11109c0.37289,0.29442 0.75778,0.65494 1.05221,1.02784z" data-paper-data="{&quot;noHover&quot;:false,&quot;origItem&quot;:[&quot;Path&quot;,{&quot;applyMatrix&quot;:true,&quot;segments&quot;:[[[231.95823,163.18976],[0,0],[-0.29442,-0.37289]],[[230.95036,162.18189],[0.37289,0.29442],[0,0]],[[230.84113,162.07049],[0.05915,0.07134],[-0.88684,0.55682]],[[230.13039,164.35906],[-0.38627,-1.19062],[0.05198,0.16023]],[[230.83987,165.60041],[-0.3528,0.01461],[0.17417,-0.00721]],[[232.23595,163.37482],[-0.47543,0.88689],[0,0]]],&quot;closed&quot;:true}]}" fill="#525252"/></g></g></svg>