<svg version="1.1" xmlns="http://www.w3.org/2000/svg" xmlns:xlink="http://www.w3.org/1999/xlink" width="120.57962" height="199.29938" viewBox="0,0,120.57962,199.29938"><g transform="translate(-355.10579,-80.35031)"><g data-paper-data="{&quot;isPaintingLayer&quot;:true}" fill-rule="nonzero" stroke-linecap="butt" stroke-linejoin="miter" stroke-miterlimit="10" stroke-dasharray="" stroke-dashoffset="0" style="mix-blend-mode: normal"><path d="M356.35579,278.39969v-196.79938h118.07962v196.79938z" fill="#7f7f7f" stroke="#5e5e5e" stroke-width="2.5"/><path d="M356.35579,278.39969v-50.25h118.07962v50.25z" fill="#7f7f7f" stroke="#5e5e5e" stroke-width="2.5"/><path d="M418.31311,266.93044c-0.13527,0.30766 -0.42438,0.63641 -1.04223,0.63641c-1.1612,0 -1.1612,-1.1612 -1.1612,-1.1612l0.02255,-0.47791c0.07599,-0.37059 0.15199,-0.74118 0.22798,-1.11177c-0.30944,-0.91386 -0.04106,-2.19396 0.14166,-3.25374c-0.00001,-0.5046 -0.03067,-0.99332 -0.12105,-1.44177c-0.40424,-2.00572 -2.24501,-4.16963 -0.10271,-6.11599c1.43509,-1.30383 4.69766,-0.64165 6.42827,-1.62067c1.12973,-0.63909 2.87075,-2.87331 4.39341,-2.24984c0.65377,0.26769 0.34878,1.37026 0.56813,2.0418c0.72562,2.22147 1.55568,3.29216 0.68845,5.65452c-0.43752,1.0938 -0.94991,3.31798 -1.75816,4.14259c-1.37106,1.39882 -4.21838,2.11509 -5.8786,3.36025c-0.44868,0.33651 -1.61054,1.26997 -2.40651,1.5973z" fill="#dedac3" stroke="none" stroke-width="0.5"/><path d="M403.53858,249.49843c0.04282,-0.05841 0.09313,-0.11711 0.15184,-0.17582c0.82109,-0.82109 1.64218,0 1.64218,0c1.70067,1.70815 3.67483,3.26391 6.01457,3.96115c1.14024,0.33979 3.66548,0.64296 4.38342,1.71298c0.55797,0.83161 0.1044,2.48327 -0.07309,3.38056c-0.52635,2.66106 0.01158,4.62772 0.02255,7.27778v1.25092c0,0.64131 -0.51989,1.1612 -1.1612,1.1612c-0.26564,0 -0.51045,-0.0892 -0.70611,-0.23928l-0.99135,-0.74351l0.25549,-0.34066c-0.67052,-0.539 -1.28867,-1.15745 -1.88096,-1.76868c-1.2704,-1.31103 -3.59776,-2.24591 -5.12949,-3.39471c-0.84707,-0.6353 -2.88407,-1.74127 -3.34409,-2.6613c-0.79651,-1.59302 -0.12259,-5.2152 -0.12259,-7.02408v-1.25092c0,0 0,-1.00776 0.93882,-1.14564z" fill="#d4d0ba" stroke="none" stroke-width="0.5"/><path d="M415.57484,239.51779c2.74667,2.06 5.36776,4.03633 8.09937,6.08003c0.7735,0.4641 1.49222,1.0225 2.25192,1.50887c0.41316,0.26451 1.62421,0.37641 1.28095,0.7269c-1.1406,1.16462 -3.75126,1.76187 -5.211,2.57193c-1.5516,0.86104 -3.22029,1.6573 -4.78071,2.52323c-0.5514,0.30599 -0.9263,1.25206 -1.54158,1.11386c-1.63495,-0.36723 -4.7319,-2.83783 -6.12966,-3.88614c-2.31483,-0.92593 -3.9974,-3.46122 -6.09165,-4.31922c0.10577,0.03642 0.25655,0.07931 0.33063,0.06215c0.41818,-0.09689 0.81482,-0.28176 1.19822,-0.47482c1.0446,-0.52601 1.53524,-0.94304 2.4347,-1.62259c2.28893,-1.72932 5.1967,-3.20631 7.73563,-4.69356z" data-paper-data="{&quot;noHover&quot;:false,&quot;origItem&quot;:[&quot;Path&quot;,{&quot;applyMatrix&quot;:true,&quot;segments&quot;:[[[469.78459,315.78736],[0,0],[-5.4662,3.20197]],[[453.22175,325.82543],[4.92795,-3.72314],[-1.93648,1.46304]],[[447.98496,329.29685],[2.24898,-1.13247],[-0.82544,0.41565]],[[445.4057,330.31391],[0.90033,-0.20859],[-0.15949,0.03695]],[[444.69384,330.18047],[0.22771,0.07841],[4.50881,1.84722]],[[457.79426,339.42092],[-4.98372,-1.99349],[3.0093,2.25698]],[[470.90171,347.74005],[-3.51997,-0.79062],[1.32468,0.29754]],[[474.1968,345.34589],[-1.18714,0.65878],[3.35951,-1.86431]],[[484.43084,339.95955],[-3.34051,1.85377],[3.14274,-1.74402]],[[495.63707,334.46173],[-2.45566,2.50736],[0.73902,-0.75458]],[[492.87881,332.90229],[0.88951,0.56948],[-1.63559,-1.04712]],[[488.03111,329.67049],[1.66531,0.99919],[-5.88104,-4.39998]],[[470.68982,316.66867],[5.91345,4.43509],[0,0]]],&quot;closed&quot;:true}]}" fill="#e9e5cd" stroke="none" stroke-width="0.5"/><path d="M402.00967,245.73013c1.1612,0 1.1612,1.1612 1.1612,1.1612l-0.08305,0.31929c0.74445,1.86112 0.94345,3.39614 1.32832,5.32051c0.00587,1.41848 -0.60351,4.5657 0.11843,5.82109c0.47539,0.82667 1.93683,1.56708 2.67513,2.1208c2.07458,1.55593 4.07617,3.04064 5.8786,4.86135c0.38043,0.38429 2.6031,2.38592 3.17517,2.1905c0.74716,-0.25523 1.90666,-1.55642 2.56235,-2.04818c2.1357,-1.57806 4.22658,-2.49614 6.13022,-4.39544c0.62439,-0.62296 2.40292,-1.48516 2.78468,-2.20005c0.24771,-0.46387 -0.12398,-2.64741 -0.12259,-3.23345c0.00593,-2.50417 -0.48999,-4.99919 -0.50036,-7.50551c0,0 0,-1.1612 1.1612,-1.1612c1.1612,0 1.1612,1.1612 1.1612,1.1612c-0.01452,2.92138 0.50036,5.81845 0.50036,8.75643c0,0.52051 0.02881,2.71008 -0.12259,3.02114c-0.50557,1.03873 -2.3955,1.97739 -3.21972,2.80362c-1.97597,1.9808 -4.20817,2.95192 -6.37896,4.61117c-0.82553,0.61915 -2.45891,2.27372 -3.44206,2.45513c-1.7431,0.32163 -2.98382,-1.02976 -4.20597,-1.95476c-2.28964,-1.73295 -4.40888,-3.74448 -6.75496,-5.50404c-1.06069,-0.79552 -2.67888,-1.69146 -3.32929,-2.88288c-0.9409,-1.72353 -0.39142,-4.78078 -0.38193,-6.68809c-0.34782,-1.73912 -0.50269,-3.00978 -1.17351,-4.68684l-0.08305,-1.18181c0,0 0,-1.1612 1.1612,-1.1612z" fill="#bebaa7" stroke="none" stroke-width="0.5"/><path d="M415.15297,239.15486c-2.53893,1.48725 -5.40416,2.93315 -7.69309,4.66247c-0.89945,0.67955 -1.38777,1.08639 -2.43238,1.6124c-0.3834,0.19306 -0.77983,0.37552 -1.19801,0.4724c-0.07408,0.01716 -0.22488,-0.02556 -0.33064,-0.06198c2.09425,0.85799 3.77003,3.36606 6.08487,4.29199c1.39776,1.04832 4.45318,3.49683 6.08813,3.86406c0.61529,0.1382 0.9791,-0.80605 1.5305,-1.11204c1.56042,-0.86593 3.2019,-1.6408 4.75349,-2.50184c1.45974,-0.81006 4.06445,-1.389 5.20505,-2.55362c0.34326,-0.35049 -0.86799,-0.45982 -1.28115,-0.72433c-0.7597,-0.48636 -1.47815,-1.037 -2.25165,-1.5011c-2.73162,-2.0437 -5.30799,-3.97906 -8.05466,-6.03907zM415.73528,236.94888c0.48861,-0.00205 0.85558,0.36492 0.85558,0.36492l0.376,0.3925c2.72237,2.04177 5.25922,3.94088 7.9571,5.96974c1.61291,0.96775 4.92472,2.3607 4.47307,4.77972c-0.06008,0.32179 -2.10273,1.94902 -2.55064,2.19986c-2.76744,1.54986 -5.7352,2.71186 -8.50624,4.25312c-1.12859,0.62772 -1.30837,1.51265 -2.97281,1.3898c-0.55626,-0.04106 -0.92268,-0.63177 -1.41738,-0.88943c-1.84941,-0.96328 -3.83196,-1.99834 -5.50404,-3.25239c-2.14896,-0.85958 -5.13013,-2.80379 -6.36447,-4.81888c-0.36559,-0.59684 -1.09268,-1.17239 -0.97112,-1.86167c0.24629,-1.39658 1.92826,-1.65211 2.88518,-2.12696c3.60411,-1.78843 6.9579,-4.37442 10.42628,-6.46024c0,0 0.7288,-0.43728 1.31349,0.05989z" fill="#bebaa7" stroke="none" stroke-width="0.5"/><path d="M416.27015,265.56538c-1.1612,0 -1.1612,-1.1612 -1.1612,-1.1612l0.00565,-1.1365c-0.50169,-2.50844 -0.50602,-5.05969 -0.50602,-7.61993c0,0 0,-1.1612 1.1612,-1.1612c1.1612,0 1.1612,1.1612 1.1612,1.1612c0,2.4871 0.00725,4.95375 0.49472,7.39109l0.00565,1.36534c0,0 0,1.1612 -1.1612,1.1612z" fill="#bebaa7" stroke="none" stroke-width="0.5"/><path d="M416.01996,268.06719c-1.1612,0 -1.1612,-1.1612 -1.1612,-1.1612v-0.25018c0.00379,-0.76181 -0.07459,-1.52782 -0.22763,-2.27411c0,0 -0.22773,-1.13865 0.91092,-1.36638c1.13865,-0.22773 1.36638,0.91092 1.36638,0.91092c0.17568,0.89735 0.26895,1.81519 0.27273,2.72957v0.25018c0,0 0,1.1612 -1.1612,1.1612z" fill="#bebaa7" stroke="none" stroke-width="0.5"/><text transform="translate(398.03573,110.33356) scale(0.18429,0.18429)" font-size="40" xml:space="preserve" fill="#ffffff" fill-rule="nonzero" stroke="none" stroke-width="1" stroke-linecap="butt" stroke-linejoin="miter" stroke-miterlimit="10" stroke-dasharray="" stroke-dashoffset="0" font-family="Sans Serif" font-weight="normal" text-anchor="start" style="mix-blend-mode: normal"><tspan x="0" dy="0">(Machine)</tspan></text><text transform="translate(361.64474,102.62884) scale(0.45777,0.45777)" font-size="40" xml:space="preserve" fill="#ffffff" fill-rule="nonzero" stroke="none" stroke-width="1" stroke-linecap="butt" stroke-linejoin="miter" stroke-miterlimit="10" stroke-dasharray="" stroke-dashoffset="0" font-family="Sans Serif" font-weight="normal" text-anchor="start" style="mix-blend-mode: normal"><tspan x="0" dy="0">GUN BENCH</tspan></text><text transform="translate(372.11693,124.68378) scale(0.16057,0.16057)" font-size="40" xml:space="preserve" fill="#ffffff" fill-rule="nonzero" stroke="none" stroke-width="1" stroke-linecap="butt" stroke-linejoin="miter" stroke-miterlimit="10" stroke-dasharray="" stroke-dashoffset="0" font-family="Sans Serif" font-weight="normal" text-anchor="start" style="mix-blend-mode: normal"><tspan x="0" dy="0">The Gun Bench is imperative</tspan><tspan x="0" dy="46.150000000000006px">to the creation of firearms.</tspan><tspan x="0" dy="46.150000000000006px">If you die in the Mines with</tspan><tspan x="0" dy="46.150000000000006px">a firmarm, you will lose it</tspan><tspan x="0" dy="46.150000000000006px">and will need to make a new</tspan><tspan x="0" dy="46.150000000000006px">one. Bullet Casings can also</tspan><tspan x="0" dy="46.150000000000006px">be filled with coal here to</tspan><tspan x="0" dy="46.150000000000006px">make Ammo. Crafted guns </tspan><tspan x="0" dy="46.150000000000006px">will immediately be added </tspan><tspan x="0" dy="46.150000000000006px">to the Gun Safe, where you </tspan><tspan x="0" dy="46.150000000000006px">will be able to select the</tspan><tspan x="0" dy="46.150000000000006px">one you want to bring into</tspan><tspan x="0" dy="46.150000000000006px">the Mines .</tspan></text><path d="M449.90033,238.81757c0.34352,-0.10001 0.70684,-0.19057 1.02213,-0.3575c-0.36769,1.55552 2.49033,2.96888 3.53308,3.503c0.98471,0.50439 2.29472,0.40012 3.34355,0.40217c0.49848,0.00097 1.01952,0.13735 1.49944,0.00258c0.04171,-0.01171 0.08894,-0.0429 0.13705,-0.08528c-0.84907,1.76466 2.69748,3.28258 4.11337,3.58885c0.53413,-0.10035 1.08121,-0.14864 1.60334,-0.29946c0.05515,-0.01593 0.12009,-0.03893 0.19045,-0.06746c-0.10411,0.26547 -0.18487,0.54721 -0.24849,0.75786c-0.63037,2.08741 -1.38425,4.10204 -2.20006,6.14156c-1.89609,4.74023 -4.49192,9.0608 -7.08549,13.45483c-0.62876,0.61946 -1.65407,2.19522 -2.37789,2.56625c-1.1829,0.60634 -1.27951,-3.32897 -1.69122,-3.58185c-1.85355,-1.13846 -3.45958,1.73826 -4.08541,1.33717c-0.72725,-0.46609 -1.35039,-1.13719 -2.15025,-1.46332c-1.32465,-0.54011 -4.04676,-1.61284 -5.464,-1.59676c-1.55622,0.01766 -3.43675,2.35662 -2.33159,-0.03408c3.10266,-7.83823 5.02719,-16.11403 8.13174,-23.95986c1.36321,0.01993 2.72952,0.0787 4.06025,-0.30872z" data-paper-data="{&quot;noHover&quot;:false,&quot;origItem&quot;:[&quot;Path&quot;,{&quot;applyMatrix&quot;:true,&quot;segments&quot;:[[[59.30746,205.25813],[1.36321,0.01993],[-3.10455,7.84583]],[[51.19866,229.14253],[3.10266,-7.83823],[-1.10516,2.3907]],[[53.52742,229.17297],[-1.55622,0.01766],[1.41724,-0.01608]],[[58.97645,230.75781],[-1.32465,-0.54011],[0.79985,0.32613]],[[61.1176,232.21748],[-0.72725,-0.46609],[0.62583,0.40109]],[[65.18734,230.87835],[-1.85355,-1.13846],[0.41171,0.25288]],[[66.87337,234.46064],[-1.1829,0.60634],[0.72383,-0.37102]],[[69.24122,231.89686],[-0.62876,0.61946],[2.59357,-4.39403]],[[76.29383,218.4937],[-1.89609,4.74023],[0.81581,-2.03953]],[[78.49941,212.37077],[-0.63037,2.08741],[0.06362,-0.21066]],[[78.74873,211.61441],[-0.10411,0.26547],[-0.07035,0.02853]],[[78.55833,211.68197],[0.05515,-0.01593],[-0.52213,0.15082]],[[76.95595,211.98303],[0.53413,-0.10035],[-1.41589,-0.30627]],[[72.85574,208.40826],[-0.84907,1.76466],[-0.04811,0.04238]],[[72.71888,208.49367],[0.04171,-0.01171],[-0.47992,0.13477]],[[71.22344,208.49367],[0.49848,0.00097],[-1.04882,-0.00205]],[[67.89198,208.09653],[0.98471,0.50439],[-1.04275,-0.53412]],[[64.37334,204.59523],[-0.36769,1.55552],[-0.31528,0.16693]],[[63.35471,204.9525],[0.34352,-0.10001],[-1.33073,0.38742]]],&quot;closed&quot;:true}]}" fill="#9a6d4e" stroke="none" stroke-width="0.5"/><path d="M440.19106,263.97548c-0.88388,-0.88388 0,-1.76777 0,-1.76777l0.3105,-0.25772c0.23326,-0.38618 0.46652,-0.77236 0.69978,-1.15853c1.09789,-2.77052 2.05651,-5.67329 2.91251,-8.52412c0.52397,-1.74503 0.13444,-3.64444 0.78,-5.3286c0.24775,-0.64634 1.05068,-1.50774 1.18466,-2.27804c0.09932,-0.57107 -0.17207,-1.21193 0.0726,-1.73741c0.95499,-2.05108 2.9447,-1.61207 3.73285,-3.72448c0,0 0.46424,-1.1606 1.62483,-0.69636c1.1606,0.46424 0.69636,1.62483 0.69636,1.62483c-0.61454,1.46772 -0.53654,1.80295 -1.96792,2.82247c-0.54443,0.38778 -1.60126,0.28519 -1.77642,0.93024c-1.59986,5.89155 -2.64331,12.12843 -5.01984,18.02236c-0.26522,0.44462 -0.53044,0.88924 -0.79566,1.33386l-0.68646,0.73924c0,0 -0.88388,0.88388 -1.76777,0z" fill="#a57554" stroke="none" stroke-width="0.5"/><path d="M449.05062,258.35225c1.25,0 1.25,1.25 1.25,1.25l-0.02427,0.49438c-0.43976,2.19879 -0.9853,4.36713 -1.80981,6.45009c0,0 -0.46424,1.1606 -1.62483,0.69636c-1.1606,-0.46424 -0.69636,-1.62483 -0.69636,-1.62483c0.78154,-1.92996 1.27083,-3.96833 1.67955,-6.0119l-0.02427,-0.00409c0,0 0,-1.25 1.25,-1.25z" fill="#a57554" stroke="none" stroke-width="0.5"/><path d="M451.54035,253.71972c-0.03092,0.29575 -0.20972,1.15077 -1.24353,1.15077c-1.25,0 -1.25,-1.25 -1.25,-1.25l0.17813,-0.89236c2.21739,-3.67105 2.33139,-7.36687 3.89911,-11.28615c0,0 0.46424,-1.1606 1.62483,-0.69636c1.1606,0.46424 0.69636,1.62483 0.69636,1.62483c-1.56441,3.91103 -1.79377,7.63855 -3.9049,11.34926z" fill="#a57554" stroke="none" stroke-width="0.5"/><path d="M452.78921,269.07714c-1.25,0 -1.25,-1.25 -1.25,-1.25v-0.49848c0.02633,-2.02195 1.09243,-3.42563 1.25228,-5.35721c0.05812,-0.70229 -0.0963,-2.4891 0.01647,-3.10409c0.3977,-2.16874 2.13995,-4.13884 2.4924,-6.23099c0.18613,-1.1049 -0.38876,-2.11518 0.0726,-3.23285c0.63543,-1.53935 2.87829,-3.07894 3.82158,-4.65108c0,0 0.64312,-1.07187 1.71499,-0.42875c1.07187,0.64312 0.42875,1.71499 0.42875,1.71499c-0.13251,0.22085 -1.53335,2.56667 -1.6261,2.67185c-0.57659,0.65391 -1.72559,0.83258 -2.02952,1.6497c-0.31955,0.85912 0.24428,1.84851 0.0726,2.74891c-0.18768,0.98431 -0.93513,1.77658 -1.30774,2.70676c-0.89515,2.23462 -0.94146,4.06903 -1.16818,6.4019c-0.18176,1.87021 -1.27377,3.23237 -1.24012,5.11086v0.49848c0,0 0,1.25 -1.25,1.25z" fill="#8d6348" stroke="none" stroke-width="0.5"/><path d="M445.85803,239.17296c-3.10455,7.84583 -5.00614,16.04617 -8.1088,23.8844c-1.10516,2.3907 0.77254,0.04809 2.32876,0.03044c1.41724,-0.01608 4.12438,1.04473 5.44903,1.58484c0.79985,0.32613 1.4139,0.99358 2.14115,1.45967c0.62583,0.40109 2.2162,-2.47759 4.06974,-1.33914c0.41171,0.25288 0.50313,4.18863 1.68603,3.58229c0.72383,-0.37102 1.73909,-1.94431 2.36785,-2.56378c2.59357,-4.39403 5.15652,-8.66293 7.05261,-13.40316c0.81581,-2.03953 1.57521,-4.03553 2.20557,-6.12294c0.06362,-0.21066 0.1452,-0.49088 0.24932,-0.75635c-0.07035,0.02853 -0.13525,0.05163 -0.19039,0.06756c-0.52213,0.15082 -1.06825,0.20071 -1.60238,0.30106c-1.41589,-0.30627 -4.94928,-1.81011 -4.10021,-3.57477c-0.04811,0.04238 -0.09515,0.0737 -0.13687,0.08541c-0.47992,0.13477 -0.99696,0.00097 -1.49544,0c-1.04882,-0.00205 -2.34675,0.10724 -3.33146,-0.39715c-1.04275,-0.53412 -3.88633,-1.94578 -3.51864,-3.5013c-0.31528,0.16693 -0.67511,0.25726 -1.01863,0.35727c-1.33073,0.38742 -2.68404,0.32556 -4.04725,0.30563zM443.57791,238.1409c-0.00937,-0.06938 -0.01437,-0.14345 -0.01437,-0.22252c0,-1.25 1.25,-1.25 1.25,-1.25h0.49848c1.93613,0 3.31481,-0.43896 5.12709,-0.6959c0.79041,-0.11206 1.75681,-0.49752 2.39487,-0.01774c0.73801,0.55494 -0.14153,2.25594 0.67529,2.68655c0.71159,0.37512 1.42976,0.74118 2.11292,1.16587c1.66922,1.03768 4.55434,-0.99001 6.17778,0.65055c0.40412,0.40838 -0.4046,1.12911 -0.30909,1.69565c0.06441,0.38206 1.59836,1.18007 2.01564,1.24449c1.41584,-0.31406 3.61585,-1.77966 4.8377,0.15614c0.48848,0.77392 -1.3161,5.12171 -1.68318,6.04441c-2.4957,6.27327 -5.3905,11.98131 -8.89873,17.75181c-0.8061,0.81582 -2.5324,3.10671 -3.6139,3.41798c-1.10418,0.3178 -3.3712,-0.65716 -3.94238,-1.57745c-0.20748,-0.3343 -0.36631,-0.93689 -0.37077,-1.44388c-0.26621,0.20599 -0.55538,0.38825 -0.75515,0.46559c-0.67117,0.25984 -1.43688,0.48188 -2.1364,0.31258c-0.56783,-0.13742 -0.83366,-0.83037 -1.32284,-1.14977c-1.14215,-0.74573 -4.25152,-1.75844 -5.54288,-1.78747c-1.68845,-0.03795 -2.62499,2.37909 -4.62248,0.3816c-1.30215,-1.30215 -0.47893,-2.60375 -0.02747,-3.84052c3.17691,-7.84511 5.02228,-16.1112 8.14988,-23.98798z" fill="#704f39" stroke="none" stroke-width="0.5"/><path d="M391.63006,246.91477c1.50309,0.50103 1.00206,2.00411 1.00206,2.00411l-0.39702,1.18337c-1.17865,4.31492 -3.38632,7.26404 -4.90169,11.32998c-0.53258,1.42899 -0.2996,3.07658 -0.8669,4.49214c-1.22417,3.05462 -3.73165,3.54645 -6.16775,2.95153l-1.01459,0.12683l-0.02719,-0.21756c-0.14561,0.06902 -0.29122,0.13803 -0.43682,0.20704l0.03972,-0.59047c-0.05493,-0.02264 -0.10969,-0.0457 -0.16424,-0.06918c-0.01769,-0.00395 -0.03536,-0.00792 -0.05304,-0.01188l-0.2635,0.52701l-1.65932,-0.82966c-0.12567,-0.05957 -0.24226,-0.1352 -0.3471,-0.22423c-1.88634,-0.44988 -3.74183,-0.9145 -5.66888,-1.35445c0,0 -1.54382,-0.35627 -1.18755,-1.90009c0.35627,-1.54382 1.90009,-1.18755 1.90009,-1.18755c2.74033,0.63851 5.29368,1.29686 8.03535,1.90308l0.01825,0.01293l0.002,-0.008l1.65787,0.41446c0.18087,0.04105 0.34999,0.11304 0.50149,0.21011c0.86051,-0.03365 1.64082,-0.19337 1.90765,-1.17258c1.49287,-5.47836 4.15015,-9.97578 5.63904,-15.44324l0.44798,-1.35167c0,0 0.50102,-1.50308 2.00411,-1.00205z" fill="#d3d3d3" stroke="none" stroke-width="0.5"/><path d="M380.6064,238.06145c2.98495,0.74624 6.80248,1.3328 9.39025,3.13315c0.79447,0.55273 -1.3744,4.64711 -1.74625,5.51403c-2.2894,5.33757 -5.38298,11.09214 -6.39147,16.84253c-2.4295,0.09892 -5.32761,-1.11084 -7.61484,-1.80369c-0.10392,-0.03148 -3.4602,-1.03349 -3.81454,-1.45332c-0.46428,-0.55006 0.81732,-1.18993 1.15312,-1.82661c0.99573,-1.88787 2.06731,-3.62962 2.96822,-5.55945c2.26711,-4.85638 3.92163,-9.94842 5.95457,-14.87177z" data-paper-data="{&quot;noHover&quot;:false,&quot;origItem&quot;:[&quot;Path&quot;,{&quot;applyMatrix&quot;:true,&quot;segments&quot;:[[[416.06851,312.0524],[0,0],[-3.20776,7.76851]],[[406.76863,335.38371],[3.57725,-7.66283],[-1.42153,3.04506]],[[402.06622,344.12437],[1.57115,-2.97885],[-0.52986,1.00461]],[[400.24372,347.00332],[-0.73258,-0.86794],[0.55912,0.66244]],[[406.23886,349.27834],[-0.16397,-0.04967],[3.60899,1.09324]],[[418.19363,352.11284],[-3.83349,0.15608],[1.59128,-9.07349]],[[428.20214,325.68187],[-3.61243,8.4221],[0.58673,-1.36791]],[[430.97534,317.00601],[1.25359,0.87214],[-4.08322,-2.84076]],[[416.22699,312.09202],[4.70993,1.17748],[0,0]]],&quot;closed&quot;:true}]}" fill="#d3d3d3" stroke="none" stroke-width="0.5"/><path d="M385.70053,256.72076c-1.12034,1.12034 -2.24067,0 -2.24067,0l-0.43448,-0.49186c-2.46772,-3.94969 -4.75843,-7.98532 -6.6531,-12.23763c0,0 -0.64348,-1.44784 0.80436,-2.09132c1.44784,-0.64349 2.09132,0.80436 2.09132,0.80436c1.82585,4.11934 4.05507,8.02331 6.44455,11.84515l-0.01197,-0.06936c0,0 1.12034,1.12033 0,2.24067z" fill="#e4e4e4" stroke="none" stroke-width="0.5"/><path d="M379.51676,237.67899c0.07464,-0.20282 0.20597,-0.41303 0.41619,-0.62325c1.12034,-1.12034 2.24067,0 2.24067,0l0.10522,0.11442c2.71123,2.27369 6.18987,5.97069 7.36718,9.36744c1.01543,2.92968 1.29754,5.65517 -3.90367,3.77789c-1.00085,-0.36124 -1.25795,-1.72961 -1.72646,-2.68496c-1.39593,-2.84652 -2.93703,-5.42752 -4.54951,-8.24587c0,0 -0.53515,-0.93652 0.05037,-1.70567z" fill="#e4e4e4" stroke="none" stroke-width="0.5"/><path d="M380.50421,238.09969c-2.03294,4.92335 -3.62676,9.93002 -5.89387,14.78639c-0.90091,1.92983 -1.98446,3.65159 -2.98019,5.53946c-0.3358,0.63668 -1.6193,1.27449 -1.15502,1.82456c0.35435,0.41983 3.69555,1.41033 3.79946,1.44181c2.28722,0.69285 5.14692,1.8953 7.57642,1.79639c1.00849,-5.75039 4.05356,-11.41325 6.34297,-16.75082c0.37184,-0.86692 2.55201,-4.94567 1.75754,-5.49839c-2.58777,-1.80035 -6.36192,-2.36804 -9.34688,-3.11428zM379.83417,234.81681c0.3798,-0.05599 0.694,0.02257 0.694,0.02257l0.84501,0.21125c3.08273,0.77068 8.72122,1.52012 10.93337,4.0683c2.02271,2.32996 0.321,4.98908 -0.54156,7.32695c-2.38609,6.46712 -4.95084,13.18504 -7.83563,19.43441c-4.11354,1.12623 -14.37643,-0.20706 -16.50944,-4.7894c-0.60293,-1.29527 2.41069,-5.85712 2.90177,-6.70517c3.4114,-5.89116 5.07204,-12.42518 7.73217,-18.63338c0,0 0.53795,-1.25521 1.78031,-0.93553z" fill="#b3b3b3" stroke="none" stroke-width="0.5"/><path d="M391.46172,250.40429c-0.43831,-0.46874 -0.43831,-1.14142 -0.43831,-1.14142l0.00162,-1.61822c-0.17077,-1.909 -0.59433,-3.68322 -0.8344,-5.57909c0,0 -0.19652,-1.57216 1.37564,-1.76868c1.57216,-0.19652 1.76868,1.37563 1.76868,1.37563c0.24398,1.98063 0.67126,3.82766 0.85562,5.82854l0.00042,0.45318c0.74782,0.50444 0.62273,1.50515 0.62273,1.50515c-0.96966,7.71968 -5.51764,14.26293 -9.28038,20.8698l-0.67781,0.75676c0,0 -0.46668,0.46668 -1.09884,0.49644c-0.45842,0.60137 -1.28901,0.60137 -1.28901,0.60137l-0.59553,-0.0473c-3.67041,-0.92818 -11.99786,-2.56886 -13.71545,-5.9137c-0.72817,-1.41803 -0.57714,-3.39506 -0.58232,-4.9185c0,0 0,-1.58439 1.58439,-1.58439c1.58439,0 1.58439,1.58439 1.58439,1.58439c-0.00395,1.00311 -0.12283,2.52764 0.26269,3.5316c0.48695,1.26809 1.19624,0.74477 2.38277,1.06903c2.42273,0.66211 4.72495,1.7131 7.09521,2.51733c0.14198,-1.29787 0.27741,-2.59645 0.4073,-3.89558c0,0 0.15766,-1.57653 1.73419,-1.41888c1.57653,0.15765 1.41888,1.73418 1.41888,1.73418c-0.07101,0.71007 -0.14386,1.41997 -0.21909,2.12962c3.09612,-5.22692 6.52315,-10.5738 7.6366,-16.56727z" fill="#b3b3b3" stroke="none" stroke-width="0.5"/><text transform="translate(374.75847,259.7351) scale(0.5,0.5)" font-size="40" xml:space="preserve" fill="#ffffff" fill-rule="nonzero" stroke="none" stroke-width="1" stroke-linecap="butt" stroke-linejoin="miter" stroke-miterlimit="10" stroke-dasharray="" stroke-dashoffset="0" font-family="Sans Serif" font-weight="normal" text-anchor="start" style="mix-blend-mode: normal"><tspan x="0" dy="0">5</tspan></text><text transform="translate(410.0507,260.69025) scale(0.5,0.5)" font-size="40" xml:space="preserve" fill="#ffffff" fill-rule="nonzero" stroke="none" stroke-width="1" stroke-linecap="butt" stroke-linejoin="miter" stroke-miterlimit="10" stroke-dasharray="" stroke-dashoffset="0" font-family="Sans Serif" font-weight="normal" text-anchor="start" style="mix-blend-mode: normal"><tspan x="0" dy="0">3</tspan></text><text transform="translate(440.15039,259.27469) scale(0.5,0.5)" font-size="40" xml:space="preserve" fill="#ffffff" fill-rule="nonzero" stroke="none" stroke-width="1" stroke-linecap="butt" stroke-linejoin="miter" stroke-miterlimit="10" stroke-dasharray="" stroke-dashoffset="0" font-family="Sans Serif" font-weight="normal" text-anchor="start" style="mix-blend-mode: normal"><tspan x="0" dy="0">10</tspan></text></g></g></svg>