<svg version="1.1" xmlns="http://www.w3.org/2000/svg" xmlns:xlink="http://www.w3.org/1999/xlink" width="52.75" height="52.75" viewBox="0,0,52.75,52.75"><g transform="translate(-213.625,-153.625)"><g data-paper-data="{&quot;isPaintingLayer&quot;:true}" fill-rule="nonzero" stroke-linejoin="miter" stroke-miterlimit="10" stroke-dasharray="" stroke-dashoffset="0" style="mix-blend-mode: normal"><path d="M214.875,205.125v-50.25h50.25v50.25z" fill="#7f7f7f" stroke="#5e5e5e" stroke-width="2.5" stroke-linecap="butt"/><path d="M227.39589,199.23585v-17.22171h25.20833v17.22171z" fill="#999999" stroke="#7d7d7d" stroke-width="1.5" stroke-linecap="butt"/><path d="M227.39589,195.75v-13.73585h25.20833v13.73585z" fill="#999999" stroke="#7d7d7d" stroke-width="1.5" stroke-linecap="butt"/><path d="M229.64596,193v-32.23585h20.70833v32.23585z" fill="#999999" stroke="#7d7d7d" stroke-width="1.5" stroke-linecap="butt"/><path d="M229.64596,167.99999v-7.23585h20.70833v7.23585z" fill="#999999" stroke="#7d7d7d" stroke-width="1.5" stroke-linecap="butt"/><path d="M232.66608,189.4375v-18.875h14.66792v18.875z" fill="#d3d3d3" stroke="#b3b3b3" stroke-width="1.5" stroke-linecap="butt"/><path d="M237.27781,173.04364v2.22222" fill="none" stroke="#545454" stroke-width="1.5" stroke-linecap="round"/><path d="M242.72225,175.37698v-2.44445" fill="none" stroke="#545454" stroke-width="1.5" stroke-linecap="round"/><path d="M239.50274,177.34674c0.26091,-0.27332 0.63825,-0.42374 1.28337,-0.32808c0.84508,0.12532 1.69353,1.72572 1.26522,2.47786c-0.29454,0.51724 -3.17231,0.72317 -3.52919,0.19445c-0.63628,-0.94263 0.07333,-2.0322 0.9806,-2.34423z" fill="#545454" stroke="none" stroke-width="0.5" stroke-linecap="butt"/><path d="M237.27782,181.33334v2.22222" fill="none" stroke="#545454" stroke-width="1.5" stroke-linecap="round"/><path d="M242.72226,181.22222v2.44445" fill="none" stroke="#545454" stroke-width="1.5" stroke-linecap="round"/><path d="M239.50275,185.63644c0.26091,-0.27332 0.63825,-0.42374 1.28337,-0.32808c0.84508,0.12532 1.69353,1.72572 1.26522,2.47786c-0.29454,0.51724 -3.17231,0.72317 -3.5292,0.19445c-0.63628,-0.94263 0.07333,-2.0322 0.9806,-2.34423z" fill="#545454" stroke="none" stroke-width="0.5" stroke-linecap="butt"/><path d="M240.87632,162.99872c-0.11664,0.23323 -0.79484,0.47849 -0.53267,0.6318c0.34483,0.20165 1.39544,-0.02066 1.19539,0.65322c-0.13039,0.43923 -1.27952,1.88097 -2.01843,1.60441c-1.41895,-0.53109 0.54642,-0.94919 0.23167,-1.27677c-0.18698,-0.19461 -1.06731,0.04597 -1.20144,-0.32217c-0.11186,-0.30704 0.81503,-1.92658 1.36129,-1.9493c0.10559,-0.05131 0.23157,-0.08112 0.36684,-0.08112c0.35658,0 0.64856,0.20709 0.67298,0.46937c0.00394,0.01992 0.0041,0.04184 0.0004,0.06665c-0.00782,0.05238 -0.03288,0.1176 -0.07604,0.20391z" fill="#867b00" stroke="none" stroke-width="0.5" stroke-linecap="butt"/></g></g></svg>