<svg version="1.1" xmlns="http://www.w3.org/2000/svg" xmlns:xlink="http://www.w3.org/1999/xlink" width="40.33047" height="40.2136" viewBox="0,0,40.33047,40.2136"><g transform="translate(-219.83476,-159.88914)"><g data-paper-data="{&quot;isPaintingLayer&quot;:true}" fill-rule="nonzero" stroke-linecap="butt" stroke-linejoin="miter" stroke-miterlimit="10" stroke-dasharray="" stroke-dashoffset="0" style="mix-blend-mode: normal"><path d="M219.83477,200.10274v-40.20547h40.33047v40.20547z" fill="#7d7d7d" stroke="none" stroke-width="0"/><path d="M220.76424,199.11085v-38.47171h38.47171v38.47171z" fill="#999999" stroke="#7d7d7d" stroke-width="1.5"/><path d="M222.31477,163.25c0,-0.41421 0.33579,-0.75 0.75,-0.75c0.41421,0 0.75,0.33579 0.75,0.75c0,0.41421 -0.33579,0.75 -0.75,0.75c-0.41421,0 -0.75,-0.33579 -0.75,-0.75z" fill="#7d7d7d" stroke="none" stroke-width="0.5"/><path d="M255.81477,163.375c0,-0.41421 0.33579,-0.75 0.75,-0.75c0.41421,0 0.75,0.33579 0.75,0.75c0,0.41421 -0.33579,0.75 -0.75,0.75c-0.41421,0 -0.75,-0.33579 -0.75,-0.75z" fill="#7d7d7d" stroke="none" stroke-width="0.5"/><path d="M256.56476,197c0,-0.41421 0.33579,-0.75 0.75,-0.75c0.41421,0 0.75,0.33579 0.75,0.75c0,0.41421 -0.33579,0.75 -0.75,0.75c-0.41421,0 -0.75,-0.33579 -0.75,-0.75z" fill="#7d7d7d" stroke="none" stroke-width="0.5"/><path d="M222.06477,197.25c0,-0.41421 0.33579,-0.75 0.75,-0.75c0.41421,0 0.75,0.33579 0.75,0.75c0,0.41421 -0.33579,0.75 -0.75,0.75c-0.41421,0 -0.75,-0.33579 -0.75,-0.75z" fill="#7d7d7d" stroke="none" stroke-width="0.5"/></g></g></svg>