<svg version="1.1" xmlns="http://www.w3.org/2000/svg" xmlns:xlink="http://www.w3.org/1999/xlink" width="35.29323" height="37.62195" viewBox="0,0,35.29323,37.62195"><g transform="translate(-222.35339,-161.18902)"><g data-paper-data="{&quot;isPaintingLayer&quot;:true}" fill-rule="nonzero" stroke="none" stroke-linecap="butt" stroke-linejoin="miter" stroke-miterlimit="10" stroke-dasharray="" stroke-dashoffset="0" style="mix-blend-mode: normal"><path d="M232.48293,184.98608c-3.20922,-3.69969 -2.8116,-9.30047 0.88809,-12.50969c3.69969,-3.20922 9.30046,-2.81161 12.50968,0.88808c3.20922,3.69969 2.81161,9.30047 -0.88808,12.50969c-3.69969,3.20922 -9.30048,2.81161 -12.50969,-0.88808z" fill="#da0000" stroke-width="0"/><path d="M231.29608,167.67139c0.17289,-1.73659 0.58643,-3.35086 1.55582,-4.53897c3.58809,-4.39767 9.33112,-0.45379 11.72387,3.17197c-0.14936,2.23492 -0.56223,4.36589 -0.69254,6.60351c2.23207,-2.55572 6.98582,-4.62627 9.34147,-5.939c0.82628,-0.46047 2.73013,-1.7649 3.76054,-0.96339c1.19338,0.92831 0.46347,2.77117 0.17918,3.82629c-1.43571,5.1071 -6.13997,14.71241 -12.71223,14.44422c-0.60096,-0.02453 1.10217,0.60186 1.42126,1.11172c0.93666,1.49668 1.47005,3.76166 1.80432,5.46667c0.13686,1.0426 0.31803,2.06069 0.2846,3.11746c-0.09445,2.9853 -1.82285,5.31058 -4.79011,3.12836c-3.63981,-2.67685 -5.06388,-6.17039 -7.32293,-9.74804c-0.23089,-0.3657 -0.23115,0.83698 -0.40811,1.23163c-0.57037,1.27194 -1.1529,2.53798 -1.7163,3.81345c-0.86989,1.95972 -2.67892,6.06712 -5.53265,3.39675c-2.02357,-1.89355 -1.85592,-9.29452 -2.42561,-11.90966c-0.27311,-1.25371 -1.88282,-3.02979 -1.29672,-4.36798c0.44051,-1.00575 3.34848,-2.74029 5.42733,-3.22357c-2.96438,-1.13028 -7.71511,-5.11486 -7.53913,-6.8114c0.20904,-2.01509 1.95491,-2.34126 3.40555,-2.51443c1.74318,-0.2081 3.6906,0.07363 5.53238,0.70443z" fill="#da0000" stroke-width="0.5"/><path d="M242.10142,190.74076c-0.63679,1.98314 -1.39297,3.92676 -2.20187,5.84729l-0.04493,0.0468l0.01707,0.00899l-0.73088,1.38733c-0.19535,0.37863 -0.55627,0.66706 -1.00712,0.7537c-0.70886,0.13623 -1.39611,-0.27324 -1.62804,-0.93454l-0.51396,-1.38639l0.42595,-0.15791c-0.9009,-1.86935 -1.89907,-4.3231 -1.88404,-5.77787c-0.05007,0.06363 -0.09681,0.11911 -0.13728,0.16239c-0.60997,0.65221 -2.90581,2.6064 -3.63434,2.27935c-3.38912,-1.52145 0.79188,-7.71699 0.37302,-9.89653c-0.2715,-1.41278 -3.24529,-3.59393 -4.10006,-4.34004c0.62052,-0.8084 1.07733,-1.77441 1.86156,-2.42522c0.42381,-0.3517 1.47149,0.31507 1.40829,-0.60152c-0.12705,-1.84217 -1.03284,-3.78851 -1.62719,-5.51301l-0.50841,-1.3714c-0.03159,-0.08081 -0.05629,-0.16562 -0.07325,-0.25388c-0.14989,-0.77997 0.36088,-1.53378 1.14085,-1.68367c0.52345,-0.10059 1.0351,0.09637 1.36035,0.47257l0.94305,1.05318l-0.2583,0.23128c2.17856,1.75858 3.45861,3.93535 5.86457,5.83633c0.7419,0.58618 0.54049,-1.81224 0.79614,-2.72254l0.03442,-0.04617l-0.01647,-0.00603l0.4855,-1.32771c0.16264,-0.46996 0.56483,-0.84255 1.08829,-0.94315c0.63529,-0.12209 1.25323,0.19412 1.5416,0.73711l0.74847,1.33304l-0.2702,0.15171c0.27399,0.3957 0.53098,0.80267 0.76994,1.21828c0.37971,0.66041 1.35949,2.36046 1.59556,1.63617c0.93866,-2.8801 3.1953,-4.90864 4.64864,-7.64094l0.13515,-0.09346l-0.03879,-0.03308l1.01877,-1.19443c0.20501,-0.24457 0.49234,-0.42281 0.83019,-0.48773c0.77997,-0.14989 1.53378,0.36088 1.68367,1.14085l0.27965,1.45517l-0.5807,0.1116c0.45511,3.963 -1.49967,8.22564 -2.16566,12.23901c-0.17917,1.0797 -1.35703,2.45234 -0.97636,3.62262c0.73697,2.26563 3.57321,5.25657 0.57231,7.42916c-0.98238,0.71122 -5.64156,0.41653 -6.85286,-0.007c-0.1241,-0.10323 -0.2482,-0.20645 -0.3723,-0.30968z" fill="#f30000" stroke-width="0.5"/><path d="M240.05505,188.14355c-1.87643,2.34127 -4.80648,3.91599 -5.2723,-0.75928c-0.091,-0.91337 1.18366,-2.02919 0.55427,-2.69731c-0.6647,-0.70561 -4.90757,-0.71549 -4.82225,-2.43276c0.07752,-1.56032 2.64905,-2.04736 3.73855,-2.41596c3.35571,-1.12713 -3.24933,-1.09042 -2.3036,-4.12495c1.02876,-3.30095 6.78375,0.9993 8.54187,0.30282c0.62037,-0.24576 -0.48919,-1.60295 0.04614,-2.00132c0.58884,-0.43818 1.48861,-0.25993 2.20046,-0.081c0.65837,0.1655 1.57845,1.20535 1.74719,1.98532c0.11931,-0.53383 0.8016,-1.09269 1.08118,-1.40387l0.67115,-0.74249c0.31182,-0.35748 0.84665,-0.44235 1.25805,-0.17875c0.3038,0.19465 0.46309,0.52985 0.44735,0.8661l-0.02814,0.95652l-0.26538,-0.00781c0.00341,1.3682 -0.56431,2.24115 -0.77337,4.04083c-0.12132,1.04433 2.04808,0.21976 2.12161,1.94027c0.03708,0.86776 -1.64051,1.78696 -2.29225,2.14617c-0.50558,0.27865 -1.83755,0.34568 -1.52089,0.82836c0.52991,0.80775 1.47731,0.44113 1.25594,2.09031c-0.3477,2.5904 -4.97321,2.44439 -6.38558,1.6888z" fill="#f24c4c" stroke-width="0.5"/></g></g></svg>