<svg version="1.1" xmlns="http://www.w3.org/2000/svg" xmlns:xlink="http://www.w3.org/1999/xlink" width="63.06578" height="34.07289" viewBox="0,0,63.06578,34.07289"><g transform="translate(-209.64468,-164.07468)"><g data-paper-data="{&quot;isPaintingLayer&quot;:true}" fill-rule="nonzero" stroke="none" stroke-width="0.5" stroke-linecap="butt" stroke-linejoin="miter" stroke-miterlimit="10" stroke-dasharray="" stroke-dashoffset="0" style="mix-blend-mode: normal"><path d="M247.29225,181.62434c0.20385,0.04315 0.40921,0.07929 0.61607,0.10775c5.48649,-0.01374 8.14882,-2.2428 12.01012,-5.35944c0.24006,-0.48075 0.78033,-1.14626 0.9547,-1.44014c0.7079,-1.19306 2.02754,-3.58002 2.19171,-4.88686c-1.32094,-0.88116 -2.61131,0.84572 -3.29635,1.64676c-2.634,3.08 -4.02131,6.70417 -8.37397,7.92714c-2.28653,0.62324 -5.2065,0.43141 -7.45729,-0.33437c-0.23317,-0.07933 -2.14228,-1.07702 -3.15526,-1.45003l0.65978,0.4267c1.52311,1.45409 3.61141,2.55091 5.85049,3.36249zM251.49375,182.81386c1.06137,0.22851 2.09999,0.40423 3.07339,0.53455c2.15188,0.59107 6.21712,0.74354 8.03476,-0.70698c1.2761,-1.01837 2.11679,-2.44443 3.25551,-3.59039c-0.02862,-0.07546 -0.05498,-0.15629 -0.07894,-0.24272c-0.27293,-0.98464 1.68292,-4.05533 1.77302,-5.38095c0.02745,-0.40384 0.03404,-2.19184 0.1639,-3.13333c-1.39853,2.14011 -2.48858,4.56126 -4.63373,6.11221c-0.46973,0.33961 -1.4242,1.10066 -2.24017,1.10142c-3.19472,2.55863 -5.69795,4.5318 -9.34775,5.30618zM267.02891,179.94516c-1.25758,1.16683 -2.10052,2.74136 -3.47604,3.81147c-2.20218,1.71322 -6.67694,1.72223 -9.29857,1.00212c-2.25838,-0.3174 -4.8521,-0.85582 -7.29662,-1.71053c0.32208,0.20049 0.64163,0.40259 0.95844,0.60565c4.95862,2.72405 8.96902,7.1849 15.08804,4.65066c3.82594,-1.55879 5.58561,-5.14622 7.16351,-8.59828c0.19694,-0.43087 0.32653,-1.23145 0.48156,-2.04352c-1.03618,1.01838 -2.52899,2.26024 -3.62032,2.28245zM238.65814,180.18383c0,0 -0.46555,-0.44756 -0.08808,-0.92335c0.07757,-0.64984 0.13168,-2.19108 0.53253,-2.55317c1.13006,-1.02079 2.91153,0.11606 3.88755,0.62359c2.2356,1.16253 5.55313,1.5779 7.99229,0.90207c4.32257,-1.15343 5.94443,-5.63604 8.62603,-8.62982c1.38273,-1.5437 3.36875,-1.37078 4.81475,-0.16916c0.05878,1.73129 -1.02541,3.66224 -1.76949,5.29408c-0.00878,0.01926 -0.0197,0.0453 -0.03262,0.07698c0.37266,-0.28799 0.69348,-0.52841 0.77855,-0.62396c1.36266,-1.53041 2.22804,-3.48843 3.387,-5.16167c2.30821,-2.07816 2.48155,1.09692 2.37258,2.79479c-0.0956,1.48971 -0.12663,4.68927 -1.26689,6.21748c0.12142,-0.09504 0.23417,-0.17923 0.31454,-0.23291c0.90397,-0.60379 1.52278,-1.226 2.23364,-2.03064c0.13094,-0.28884 0.26188,-0.57771 0.39282,-0.86655l0.32563,-0.73046c0.11084,-0.26511 0.38077,-0.45228 0.69617,-0.45228c0.38611,0 0.70407,0.2805 0.74544,0.64109l0.10988,0.84506l-0.26431,0.03176c0.96167,5.22673 -4.26067,12.48394 -8.85112,14.39325c-6.71709,2.75472 -11.02035,-1.757 -16.46751,-4.74943c-2.52618,-1.61908 -5.22921,-3.18355 -8.01225,-4.3302l-0.45711,-0.36653z" data-paper-data="{&quot;index&quot;:null}" fill="#343645"/><path d="M247.88115,181.77244c-0.20686,-0.02846 -0.41531,-0.0667 -0.61917,-0.10985c-2.23907,-0.81157 -4.34565,-1.93511 -5.86876,-3.3892l-0.56215,-0.44736c1.01299,0.37302 2.91846,1.35978 3.15163,1.43912c2.25078,0.76577 5.13184,0.92998 7.41837,0.30674c4.35266,-1.22297 5.68944,-4.77664 8.32343,-7.85664c0.68505,-0.80104 2.06351,-2.57341 3.38445,-1.69226c-0.16417,1.30684 -1.47815,3.7118 -2.18605,4.90487c-0.17436,0.29388 -0.71455,0.9678 -0.95461,1.44856c-3.8613,3.11663 -6.60064,5.38228 -12.08713,5.39602z" data-paper-data="{&quot;noHover&quot;:false,&quot;origItem&quot;:[&quot;Path&quot;,{&quot;applyMatrix&quot;:true,&quot;selected&quot;:true,&quot;segments&quot;:[[[470.67144,360.56289],[0.41373,0.05919],[-10.97298,0.02857],7],[[446.6512,371.71244],[7.72259,-6.48372],[-0.48012,1.00014],7],[[444.74181,374.70845],[0.34874,-0.61137],[-1.4158,2.48202],7],[[440.35839,384.87488],[0.32833,-2.71869],[2.64188,1.83313],7],[[446.9511,381.44902],[-1.37009,1.66646],[5.26798,-6.4075],7],[[463.69903,364.95772],[-8.70533,2.54422],[4.57305,-1.29656],7],[[478.6136,365.65334],[-4.50157,-1.59309],[0.46635,0.16504],7],[[484.92413,368.66991],[-2.02597,-0.77601],[0,0],7],[[483.60457,367.78224],[0,0],[-3.04622,-3.02504],7],[[471.90359,360.78705],[4.47815,1.68836],[-0.40771,-0.08976],7]],&quot;closed&quot;:true}],&quot;index&quot;:null}" fill="#4c4f66"/><path d="M263.50305,183.75248c1.37552,-1.07011 2.22238,-2.62142 3.47995,-3.78825c1.09134,-0.02221 2.67477,-1.30463 3.71095,-2.323c-0.15503,0.81206 -0.28191,1.61891 -0.47886,2.04978c-1.5779,3.45206 -3.35337,7.09197 -7.17931,8.65076c-6.11902,2.53424 -10.21102,-1.9625 -15.16964,-4.68654c-0.31681,-0.20305 -0.5364,-0.40519 -0.85848,-0.60568c2.44452,0.85471 5.03589,1.37718 7.29426,1.69456c2.62164,0.72011 6.99896,0.72158 9.20114,-0.99165z" data-paper-data="{&quot;noHover&quot;:false,&quot;origItem&quot;:[&quot;Path&quot;,{&quot;applyMatrix&quot;:true,&quot;selected&quot;:true,&quot;segments&quot;:[[[439.38235,356.3511],[-2.75104,2.22621],[4.40437,-3.56412],7],[[457.9795,354.26632],[-5.24327,-1.49808],[4.51674,0.66029],7],[[472.57273,357.82483],[-4.88904,-1.7781],[-0.64417,-0.4171],7],[[470.65585,356.56487],[0.63363,0.42242],[-9.91724,-5.66699],7],[[440.47977,346.88983],[12.23804,-5.27214],[-7.65188,3.24285],7],[[426.15274,364.77736],[3.1558,-7.18152],[-0.39389,0.89637],7],[[425.18962,369.02862],[0.31005,-1.68939],[2.07236,-2.11859],7],[[432.43027,364.28031],[-2.18266,0.04621],[2.51515,-2.42742],7]],&quot;closed&quot;:true}],&quot;index&quot;:null}" fill="#4c4f66"/><path d="M251.45357,182.84248c3.6498,-0.77438 6.14674,-2.79394 9.34145,-5.35257c0.81597,-0.00077 1.76777,-0.73516 2.23749,-1.07478c2.14515,-1.55095 3.32217,-4.01242 4.7207,-6.15253c-0.12987,0.94149 -0.12907,2.74041 -0.15652,3.14425c-0.0901,1.32563 -2.04326,4.4306 -1.77033,5.41524c0.02395,0.08643 0.04981,0.16878 0.07844,0.24424c-1.13872,1.14596 -2.00396,2.59948 -3.28006,3.61785c-1.81764,1.45054 -5.93616,1.29345 -8.08804,0.70238c-0.9734,-0.13032 -2.02177,-0.31557 -3.08313,-0.54407z" data-paper-data="{&quot;noHover&quot;:false,&quot;origItem&quot;:[&quot;Path&quot;,{&quot;applyMatrix&quot;:true,&quot;selected&quot;:true,&quot;segments&quot;:[[[457.35383,357.20035],[1.9468,0.27112],[-4.30376,-1.22965],7],[[441.28431,358.67113],[3.63529,-3.01763],[-2.55221,2.11857],7],[[434.77328,366.14042],[2.27745,-2.38401],[0.05726,0.15698],7],[[434.93117,366.64535],[-0.04791,-0.17979],[0.54586,2.04841],7],[[431.38512,377.83967],[0.18021,-2.75779],[-0.0549,0.84015],7],[[431.05731,384.35814],[0.25973,-1.95865],[2.79707,-4.4522],7],[[440.32478,371.64253],[-4.2903,3.22654],[0.93945,-0.70652],7],[[444.80512,369.35117],[-1.63194,0.0016],[6.38942,-5.32288],7],[[463.50061,358.31241],[-7.29961,1.61098],[-2.12273,-0.47537],7]],&quot;closed&quot;:true}],&quot;index&quot;:null}" fill="#4c4f66"/><path d="M234.44683,181.30479c0.20686,-0.02845 0.41221,-0.0646 0.61607,-0.10775c2.23908,-0.81157 4.32738,-1.90839 5.85049,-3.36249l0.65978,-0.4267c-1.01298,0.37302 -2.92209,1.3707 -3.15526,1.45003c-2.25079,0.76577 -5.17076,0.95761 -7.45729,0.33437c-4.35266,-1.22297 -5.73997,-4.84714 -8.37396,-7.92714c-0.68505,-0.80104 -1.97542,-2.52792 -3.29636,-1.64676c0.16416,1.30683 1.48381,3.69378 2.19171,4.88686c0.17437,0.29388 0.71464,0.95939 0.9547,1.44014c3.8613,3.11663 6.52363,5.3457 12.01012,5.35944zM227.78804,182.92111c0.9734,-0.13032 2.01203,-0.30605 3.07339,-0.53455c-3.64981,-0.77438 -6.15304,-2.74754 -9.34775,-5.30618c-0.81597,-0.00077 -1.77044,-0.76181 -2.24017,-1.10142c-2.14515,-1.55095 -3.2352,-3.9721 -4.63374,-6.11221c0.12986,0.94149 0.13645,2.72949 0.1639,3.13333c0.09011,1.32563 2.04596,4.39632 1.77303,5.38095c-0.02396,0.08643 -0.05032,0.16726 -0.07895,0.24272c1.13873,1.14597 1.97941,2.57203 3.25552,3.59039c1.81764,1.45054 5.88288,1.29805 8.03476,0.70698zM218.80231,183.32934c-1.37552,-1.0701 -2.21846,-2.64463 -3.47604,-3.81146c-1.09133,-0.02222 -2.58415,-1.26408 -3.62033,-2.28245c0.15502,0.81207 0.28462,1.61265 0.48156,2.04352c1.5779,3.45206 3.33757,7.03949 7.16351,8.59828c6.11902,2.53424 10.12942,-1.92662 15.08804,-4.65066c0.31681,-0.20305 0.63636,-0.40515 0.95844,-0.60565c-2.44453,0.85471 -5.03825,1.39314 -7.29662,1.71053c-2.62164,0.72011 -7.0964,0.7111 -9.29858,-1.00212zM243.78507,178.83321c0.37747,0.47579 -0.08808,0.92335 -0.08808,0.92335l-0.45711,0.36653c-2.78303,1.14667 -5.48607,2.71114 -8.01225,4.3302c-5.44716,2.99242 -9.75042,7.50414 -16.46752,4.74943c-4.59045,-1.9093 -9.81279,-9.16652 -8.85112,-14.39325l-0.26431,-0.03176l0.10988,-0.84506c0.04137,-0.36059 0.35934,-0.64109 0.74544,-0.64109c0.3154,0 0.58533,0.18717 0.69617,0.45228l0.32563,0.73046c0.13094,0.28884 0.26188,0.57771 0.39282,0.86655c0.71086,0.80464 1.32967,1.42685 2.23364,2.03064c0.08037,0.05368 0.19311,0.13788 0.31453,0.23291c-1.14027,-1.52821 -1.17129,-4.72777 -1.2669,-6.21748c-0.10896,-1.69787 0.06438,-4.87295 2.37259,-2.79479c1.15896,1.67323 2.02435,3.63127 3.387,5.16167c0.08507,0.09554 0.4059,0.33596 0.77855,0.62396c-0.01293,-0.03168 -0.02384,-0.05772 -0.03262,-0.07698c-0.74408,-1.63184 -1.82828,-3.5628 -1.76949,-5.29408c1.446,-1.20162 3.43202,-1.37454 4.81475,0.16916c2.68161,2.99378 4.30346,7.4764 8.62604,8.62982c2.43916,0.67582 5.7567,0.26045 7.99229,-0.90207c0.97602,-0.50754 2.75748,-1.64439 3.88755,-0.62359c0.40085,0.36209 0.45496,1.90333 0.53253,2.55317z" data-paper-data="{&quot;index&quot;:null}" fill="#343645"/><path d="M235.09317,181.23533c-0.20386,0.04315 -0.41231,0.08138 -0.61917,0.10984c-5.48649,-0.01373 -8.22583,-2.27937 -12.08713,-5.39601c-0.24006,-0.48075 -0.78025,-1.15468 -0.95462,-1.44856c-0.7079,-1.19307 -2.02189,-3.59804 -2.18605,-4.90487c1.32094,-0.88116 2.6994,0.89121 3.38445,1.69226c2.63399,3.08 3.97076,6.63366 8.32343,7.85663c2.28652,0.62324 5.16758,0.45904 7.41837,-0.30674c0.23318,-0.07933 2.13865,-1.0661 3.15163,-1.43912l-0.56215,0.44736c-1.52311,1.45409 -3.62969,2.57763 -5.86877,3.3892z" data-paper-data="{&quot;noHover&quot;:false,&quot;origItem&quot;:[&quot;Path&quot;,{&quot;applyMatrix&quot;:true,&quot;segments&quot;:[[[235.33572,180.28144],[0.20686,0.0296],[-5.48649,0.01429]],[[223.3256,185.85622],[3.8613,-3.24186],[-0.24006,0.50007]],[[222.37091,187.35422],[0.17437,-0.30569],[-0.7079,1.24101]],[[220.1792,192.43744],[0.16416,-1.35934],[1.32094,0.91656]],[[223.47555,190.72451],[-0.68505,0.83323],[2.63399,-3.20375]],[[231.84952,182.47886],[-4.35267,1.27211],[2.28653,-0.64828]],[[239.3068,182.82667],[-2.25079,-0.79655],[0.23317,0.08252]],[[242.46207,184.33495],[-1.01298,-0.388],[0,0]],[[241.80229,183.89112],[0,0],[-1.52311,-1.51252]],[[235.9518,180.39352],[2.23908,0.84418],[-0.20386,-0.04488]]],&quot;closed&quot;:true}],&quot;index&quot;:null}" fill="#4c4f66"/><path d="M215.37215,179.53693c1.25758,1.16683 2.10443,2.71814 3.47995,3.78824c2.20218,1.71322 6.57951,1.71175 9.20114,0.99165c2.25837,-0.31739 4.84974,-0.83985 7.29426,-1.69456c-0.32209,0.20049 -0.54167,0.40263 -0.85848,0.60568c-4.95862,2.72404 -9.05063,7.22078 -15.16965,4.68654c-3.82594,-1.5588 -5.60141,-5.19871 -7.17931,-8.65076c-0.19695,-0.43087 -0.32384,-1.23771 -0.47886,-2.04978c1.03618,1.01838 2.61962,2.3008 3.71095,2.32301z" data-paper-data="{&quot;noHover&quot;:false,&quot;origItem&quot;:[&quot;Path&quot;,{&quot;applyMatrix&quot;:true,&quot;segments&quot;:[[[219.69118,178.17555],[-1.37552,1.1131],[2.20218,-1.78206]],[[228.98975,177.13316],[-2.62163,-0.74904],[2.25837,0.33014]],[[236.28637,178.91241],[-2.44452,-0.88905],[-0.32208,-0.20855]],[[235.32793,178.28243],[0.31681,0.21121],[-4.95862,-2.83349]],[[220.23989,173.44491],[6.11902,-2.63607],[-3.82594,1.62142]],[[213.07637,182.38868],[1.5779,-3.59076],[-0.19694,0.44818]],[[212.59481,184.51431],[0.15502,-0.8447],[1.03618,-1.05929]],[[216.21514,182.14015],[-1.09133,0.0231],[1.25758,-1.21371]]],&quot;closed&quot;:true}],&quot;index&quot;:null}" fill="#4c4f66"/><path d="M230.90159,182.41518c-1.06137,0.2285 -2.10973,0.41375 -3.08313,0.54407c-2.15188,0.59108 -6.27041,0.74816 -8.08805,-0.70237c-1.2761,-1.01836 -2.14134,-2.47189 -3.28006,-3.61785c0.02863,-0.07546 0.05448,-0.15781 0.07844,-0.24424c0.27293,-0.98464 -1.68023,-4.08961 -1.77033,-5.41524c-0.02745,-0.40385 -0.02666,-2.20276 -0.15652,-3.14425c1.39853,2.14011 2.57555,4.60158 4.7207,6.15253c0.46973,0.33961 1.42152,1.07401 2.23749,1.07478c3.19471,2.55863 5.69166,4.5782 9.34146,5.35257z" data-paper-data="{&quot;noHover&quot;:false,&quot;origItem&quot;:[&quot;Path&quot;,{&quot;applyMatrix&quot;:true,&quot;segments&quot;:[[[228.67692,178.60017],[0.9734,0.13556],[-2.15188,-0.61482]],[[220.64216,179.33556],[1.81764,-1.50881],[-1.27611,1.05928]],[[217.38664,183.07021],[1.13872,-1.192],[0.02863,0.07849]],[[217.46559,183.32267],[-0.02396,-0.0899],[0.27293,1.0242]],[[215.69256,188.91983],[0.0901,-1.37889],[-0.02745,0.42007]],[[215.52866,192.17907],[0.12986,-0.97932],[1.39854,-2.2261]],[[220.16239,185.82126],[-2.14515,1.61327],[0.46973,-0.35326]],[[222.40256,184.67558],[-0.81597,0.0008],[3.19471,-2.66144]],[[231.75031,179.1562],[-3.6498,0.80549],[-1.06136,-0.23768]]],&quot;closed&quot;:true}],&quot;index&quot;:null}" fill="#4c4f66"/><path d="M248.20867,170.56393l-0.32936,-0.01716c-1.24498,-0.26597 -2.24109,-0.47187 -3.24206,-1.27801c0,0 -0.48301,-0.39802 -0.17804,-0.88858c0.01031,-1.1316 0.16848,-2.10595 0.64745,-3.15628l0.32638,-0.70599c0.11315,-0.26031 0.38051,-0.44323 0.69232,-0.44323c0.3118,0 0.57916,0.18292 0.69231,0.44323l0.32638,0.70599l-0.02387,0.01019c0.02575,0.04331 0.04989,0.08758 0.07217,0.13297c0.1767,0.35976 -0.43368,0.96559 -0.09214,1.19027c1.0264,0.67521 1.79055,0.69839 2.31999,2.0962l-0.18182,0.89636c0,0 -0.08573,0.20605 -0.28097,0.3438c-0.03436,0.67025 -0.74872,0.67025 -0.74872,0.67025zM247.84564,169.01432l0.11883,0.07469c0.00933,0.0019 0.01868,0.00382 0.02803,0.00574c-0.15546,-0.4662 -1.24974,-1.22994 -1.93551,-1.95855c-0.07203,0.41337 -0.09732,0.83631 -0.09832,1.29356c0.5736,0.3672 1.18488,0.49248 1.87065,0.63175c0.00915,-0.02999 0.01631,-0.04718 0.01631,-0.04718z" fill="#44485c"/><path d="M247.8621,169.09781c-0.68578,-0.13926 -1.37742,-0.28614 -1.95102,-0.65334c0.001,-0.45727 0.0404,-0.9306 0.11244,-1.34398c0.68577,0.7286 1.84885,1.56207 2.00431,2.02825c-0.00935,-0.00191 -0.01909,-0.00345 -0.02842,-0.00536l-0.11971,-0.07388c0,0 -0.00845,0.01831 -0.01761,0.0483z" data-paper-data="{&quot;noHover&quot;:false,&quot;origItem&quot;:[&quot;Path&quot;,{&quot;applyMatrix&quot;:true,&quot;segments&quot;:[[495.69128,335.75889],[[495.92895,335.91426],[0,0],[0.01866,0.00397]],[[495.98501,335.9262],[-0.01871,-0.00399],[-0.31092,-0.96985]],[[492.114,331.85172],[1.37153,1.51575],[-0.14407,0.85997]],[[491.91736,334.54281],[0.002,-0.95127],[1.1472,0.7639]],[[495.65867,335.85706],[-1.37155,-0.28972],[0.0183,-0.06238]]],&quot;closed&quot;:true}]}" fill="#747a9c"/><path d="M238.60617,169.1725l-0.66666,0.40057c-1.45445,0.86831 -2.58689,1.70476 -4.24367,2.23568c0,0 -0.5846,0.18734 -0.87063,-0.28705c-0.36654,-0.18997 -0.36654,-0.63733 -0.36654,-0.63733c0.00189,-1.12091 -1.14859,-4.60471 -0.68038,-5.43069c1.38135,-2.43684 5.85074,1.14164 6.83315,2.23756l0.04423,0.0395c0,0 0.23516,0.22609 0.2357,0.5277c0.29594,0.56485 -0.2852,0.91404 -0.2852,0.91404zM237.1445,168.35021l0.04467,-0.02684c-0.75449,-0.78044 -1.62729,-1.40771 -2.67365,-1.81594c-0.44875,-0.17508 -1.7523,-0.74062 -1.37646,-0.44699c0.75263,0.588 0.8194,2.74738 0.82128,4.1078c1.15755,-0.48445 2.05617,-1.13649 3.18417,-1.81803z" fill="#44485c"/><path d="M233.93669,170.2106c-0.00188,-1.36043 -0.07947,-3.59698 -0.8321,-4.18499c-0.37583,-0.29363 0.94452,0.26177 1.39327,0.43685c1.04636,0.40823 1.98642,1.0865 2.74092,1.86695l-0.04477,0.02762c-1.12799,0.68155 -2.09976,1.36912 -3.25731,1.85356z" data-paper-data="{&quot;noHover&quot;:false,&quot;origItem&quot;:[&quot;Path&quot;,{&quot;applyMatrix&quot;:true,&quot;segments&quot;:[[[474.289,334.37731],[-2.25599,1.41786],[0,0]],[[474.37833,334.32148],[0,0],[-1.50899,-1.62361]],[[469.03103,330.54367],[2.09272,0.84927],[-0.89749,-0.36422]],[[466.2781,329.61377],[-0.75167,-0.61085],[1.50527,1.22326]],[[467.92067,338.15948],[-0.00377,-2.83017],[2.3151,-1.00784]]],&quot;closed&quot;:true}]}" fill="#747a9c"/><path d="M234.82534,197.98668c-0.6,0.43262 -1.05,-0.14421 -1.05,-0.14421l-0.39542,-0.83269c0.03814,-0.30191 0.08402,-0.5604 0.14774,-0.79038c-0.10481,0.04413 -0.68543,0.25554 -0.98981,-0.32971c-0.33541,-0.64491 0.33541,-0.96736 0.33541,-0.96736l0.91004,-0.31288c1.60141,0.15576 1.29095,-1.40804 2.07334,-3.10042c0,0 0.30461,-0.65889 0.98997,-0.36604c0.68536,0.29284 0.38075,0.95172 0.38075,0.95172c-0.54082,1.16984 -0.70933,2.35305 -1.25328,3.12021c-0.0265,0.32026 -0.31541,0.52858 -0.31541,0.52858c-0.67978,0.45289 -0.70887,0.64304 -0.78792,1.42554l0.10459,-0.19178c0,0 0.45,0.57682 -0.15,1.00944z" fill="#776451"/><path d="M243.06978,197.47186c-0.75,0 -0.75,-0.72103 -0.75,-0.72103l0.26191,0.06677c-0.26692,-0.22127 -0.54814,-0.42767 -0.8402,-0.61808c-0.09297,-0.04689 -0.1765,-0.09995 -0.25162,-0.15847c-0.02247,-0.01367 -0.045,-0.02724 -0.06759,-0.04072c0,0 -0.3083,-0.18526 -0.36144,-0.50415c-0.34805,-0.73293 -0.2308,-1.75353 -0.39316,-2.52953c0,0 -0.14709,-0.70703 0.58835,-0.84843c0.73543,-0.14141 0.88252,0.56562 0.88252,0.56562c0.12606,0.60912 0.25278,1.08087 0.26363,1.70778c0.00187,0.10764 -0.08114,0.31021 -0.10827,0.43255c0.03528,0.02168 0.07044,0.04354 0.10548,0.06559c0.41225,-0.1921 0.87981,-0.29406 1.33706,-0.302l1.01926,0.53487c0,0 0.6103,0.41909 0.17437,1.00582c-0.43593,0.58673 -1.04623,0.16763 -1.04623,0.16763l-0.1474,-0.26626c-0.03329,-0.00087 -0.06653,0.00001 -0.09972,0.00244l0.18305,0.71859c0,0 0,0.72103 -0.75,0.72103z" fill="#776451"/><path d="M234.02917,178.37813l0.00092,-0.05646c-2.76438,2.27563 -3.30924,4.58225 -2.50426,8.0361c1.21669,5.90164 7.45209,5.87181 12.3993,4.82171c3.8588,-1.22317 3.50565,-3.77423 3.70135,-7.1161c0.07378,-1.2599 0.3499,-1.98806 -0.38714,-3.10301c0,0 -0.05863,-0.09018 -0.09483,-0.22292l-0.60648,0.14406c0,0 -0.73214,0.15641 -0.89484,-0.54745c-0.1627,-0.70386 0.56945,-0.86027 0.56945,-0.86027l0.57728,-0.10128c1.70493,-1.51716 2.92275,-2.58248 2.91875,-4.96309c0.00974,-5.78079 -8.11037,-6.94015 -12.62965,-5.50266c-1.31967,0.6375 -3.96291,1.85821 -4.39433,3.36022c-0.69792,2.42985 3.04942,5.41761 4.42675,6.96076c0,0 0.48809,0.54744 -0.08135,1.01669c-0.56944,0.46924 -1.05754,-0.07821 -1.05754,-0.07821c-0.48739,-0.54721 -1.12474,-1.17733 -1.77708,-1.86685c-0.09231,0.05508 -0.1663,0.07877 -0.1663,0.07877zM248.51133,180.19608c2.57159,4.00897 0.36356,10.90323 -4.1858,12.37313c-5.80631,1.24768 -12.84413,0.87174 -14.26736,-5.91361c-0.90621,-3.95018 -0.18982,-6.80099 2.99573,-9.42883l0.12542,-0.05425c-1.3671,-1.61429 -2.47335,-3.44966 -1.94667,-5.26728c0.58779,-2.02854 3.4729,-3.4695 5.27234,-4.33077c5.53099,-1.78337 14.69326,-0.07221 14.70368,6.83495c-0.00382,2.52871 -1.15093,4.06454 -2.91155,5.57049c0.1384,0.09954 0.21421,0.21617 0.21421,0.21617z" fill="#44485c"/><path d="M234.24352,178.31267c0.65234,0.68952 1.29162,1.30482 1.77901,1.85204c0,0 0.38823,0.55205 0.95767,0.08281c0.56944,-0.46924 0.08274,-1.03148 0.08274,-1.03148c-1.37733,-1.54315 -5.11082,-4.55388 -4.4129,-6.98372c0.43142,-1.502 3.09533,-2.73421 4.415,-3.3717c4.51928,-1.43748 12.69565,-0.25764 12.68591,5.52315c0.00401,2.38062 -1.20639,3.46643 -2.91131,4.98359l-0.57725,0.10164c0,0 -0.73198,0.16414 -0.56928,0.86798c0.1627,0.70386 0.79545,0.53765 0.79545,0.53765l0.70566,-0.13193c0.0362,0.13274 0.09463,0.22445 0.09463,0.22445c0.73704,1.11495 0.4546,1.86059 0.38082,3.12049c-0.1957,3.34187 0.12864,5.91472 -3.73016,7.13789c-4.94721,1.05011 -11.23722,1.06242 -12.4539,-4.83922c-0.80498,-3.45385 -0.26806,-5.80184 2.49632,-8.07747l-0.00104,0.05687c0,0 0.17033,0.00205 0.26264,-0.05303z" data-paper-data="{&quot;noHover&quot;:false,&quot;origItem&quot;:[&quot;Path&quot;,{&quot;applyMatrix&quot;:true,&quot;segments&quot;:[[408.39101,396.82302],[[408.39285,396.70555],[0,0],[-5.52875,4.73412]],[[403.38433,413.42353],[-1.60997,-7.18526],[2.43337,12.27753]],[[428.18293,423.45443],[-9.89442,2.18459],[7.71761,-2.54465]],[[435.58563,408.65038],[-0.39139,6.9523],[0.14756,-2.62103]],[[434.81134,402.195],[1.47409,2.3195],[0,0]],[[434.62168,401.73125],[0.0724,0.27615],[0,0]],[433.40873,402.03095],[[431.61905,400.89206],[0.3254,1.46428],[-0.3254,-1.46428]],[432.75794,399.10239],[[433.91251,398.89169],[0,0],[3.40985,-3.15625]],[[439.75,388.56667],[0.00802,4.95254],[0.01948,-12.02611]],[[414.49069,377.11915],[9.03856,-2.99047],[-2.63934,1.32622]],[[405.70204,384.1096],[0.86284,-3.1247],[-1.39584,5.05496]],[[414.55555,398.59048],[-2.75467,-3.2103],[0,0]],[[414.39285,400.70555],[1.13888,-0.97619],[-1.13888,0.97619]],[[412.27778,400.54285],[0,0],[-0.97478,-1.1384]],[[408.72361,396.65913],[1.30468,1.43446],[-0.18462,0.11457]]],&quot;closed&quot;:true}]}" fill="#747a9c"/><path d="M244.1509,180.26241c0.14966,-0.11301 0.57721,-0.36473 1.00476,0.04631c0.53033,0.50984 0,1.01969 0,1.01969l-0.37649,0.25429c-2.45317,0.78299 -4.50304,0.32588 -6.84905,-0.57536c0,0 -0.69636,-0.26779 -0.41781,-0.93725c0.27855,-0.66946 0.97491,-0.40167 0.97491,-0.40167c1.96012,0.75457 3.63115,1.20079 5.66369,0.59398z" fill="#44485c"/><path d="M235.54236,171.8908c0.0435,-0.01808 0.09036,-0.03085 0.14113,-0.03746c0.11176,-0.01453 0.21665,-0.01388 0.31473,-0.00011c0.03978,-0.00488 0.0821,-0.00748 0.12712,-0.00748c0.71308,0 0.74818,0.65179 0.74991,0.71596c0.09178,0.18933 0.15292,0.3999 0.18406,0.61078c0.20513,-0.30185 0.35267,-0.64161 0.40951,-0.96425c0.05095,-0.28921 0.5049,-0.66105 0.26501,-0.84229c-0.61066,-0.46135 -1.55375,-0.11236 -2.25484,0.42571c0.02513,0.03201 0.04603,0.06533 0.06338,0.09914zM233.21158,173.32272l-0.04776,-0.90381c0.58103,-1.59577 3.98267,-3.87477 5.68636,-2.01608c0.57507,0.62738 0.2089,1.39526 0.09834,2.04183c-0.471,2.7546 -3.79371,4.34676 -5.70918,1.6259c0,0 -0.25648,-0.39453 -0.02776,-0.74782z" fill="#000000"/><path d="M235.43152,171.77654c0.70109,-0.53807 1.73149,-0.90096 2.34215,-0.43961c0.23989,0.18124 -0.20399,0.5849 -0.25494,0.87411c-0.05684,0.32264 -0.23581,0.70428 -0.44094,1.00613c-0.03115,-0.21089 -0.1353,-0.508 -0.22708,-0.69734c-0.00173,-0.06417 0.02985,-0.64822 -0.68322,-0.64822c-0.04502,0 -0.08476,-0.00177 -0.12454,0.00311c-0.09808,-0.01378 -0.2003,-0.02062 -0.31206,-0.0061c-0.05077,0.0066 -0.19347,-0.00786 -0.23696,0.01022c-0.01735,-0.0338 -0.03728,-0.0703 -0.06241,-0.1023z" data-paper-data="{&quot;noHover&quot;:false,&quot;origItem&quot;:[&quot;Path&quot;,{&quot;applyMatrix&quot;:true,&quot;segments&quot;:[[[411.41738,383.32704],[-0.0347,-0.07031],[0.08699,-0.03763]],[[411.69963,383.24912],[-0.10153,0.01373],[0.22353,-0.03022]],[[412.3291,383.2489],[-0.19616,-0.02865],[0.07956,-0.01016]],[[412.58333,383.23333],[-0.09004,0],[1.42616,0]],[[414.08315,384.72279],[-0.00346,-0.1335],[0.18356,0.39389]],[[414.45127,385.99344],[-0.06229,-0.43871],[0.41025,-0.62796]],[[415.27029,383.98745],[-0.11367,0.6712],[0.10189,-0.60165]],[[415.8003,382.23519],[0.47979,0.37705],[-1.22132,-0.95978]],[[411.29062,383.12081],[1.40217,-1.11937],[0.05026,0.06659]]],&quot;closed&quot;:true}]}" fill="#ff6363"/><path d="M246.13114,170.14358c-0.14261,0.0274 -0.25529,0.01537 -0.25529,0.01537c-2.6545,-0.28771 -1.42091,0.76763 0.07849,1.25003c-0.06469,-0.40548 0.0636,-0.83872 0.42311,-1.15084c-0.08757,-0.04167 -0.17059,-0.08014 -0.24631,-0.11456zM245.15182,168.70038c0.30213,-0.34005 0.79402,-0.18242 0.79402,-0.18242l0.25,0.08012c0.7571,0.24347 2.02721,0.55942 2.5662,1.1587c2.21103,2.45836 -1.28369,3.45074 -3.21426,3.03357c-3.40323,-0.7354 -3.50187,-3.91021 -0.39595,-4.08997z" fill="#000000"/><path d="M246.42205,170.23641c-0.35951,0.31213 -0.49903,0.80289 -0.43434,1.20837c-1.49939,-0.48241 -2.73412,-1.61027 -0.07962,-1.32256c0,0 0.11912,0.01831 0.26173,-0.00908c0.07572,0.03442 0.16466,0.08161 0.25223,0.12328z" data-paper-data="{&quot;noHover&quot;:false,&quot;origItem&quot;:[&quot;Path&quot;,{&quot;applyMatrix&quot;:true,&quot;segments&quot;:[[[432.59494,379.69219],[0.15143,0.0716],[-0.28522,0.05701]],[[432.08435,379.72416],[0,0],[-5.309,-0.59854]],[[432.24133,382.32468],[-2.99879,-1.00359],[-0.12938,-0.84354]],[[433.08756,379.93051],[-0.71902,0.64933],[-0.17513,-0.08668]]],&quot;closed&quot;:true}]}" fill="#ff6363"/><path d="M228.96326,182.90203c0.08283,-0.71663 0.82824,-0.637 0.82824,-0.637l0.79011,0.08546c0.26325,0.05587 0.52651,0.11177 0.78976,0.16765c0,0 0.73214,0.15642 0.56944,0.86027c-0.1627,0.70386 -0.89484,0.54745 -0.89484,0.54745c-0.23675,-0.05094 -0.4735,-0.10187 -0.71025,-0.15281l-0.70988,-0.07478c0,0 -0.74541,-0.07962 -0.66259,-0.79625z" fill="#44485c"/><path d="M234.30534,179.18207l0.89142,0.36802c0.19445,0.16022 0.38889,0.32046 0.58333,0.48069c0,0 0.56944,0.46925 0.08134,1.01669c-0.48809,0.54744 -1.05754,0.0782 -1.05754,0.0782c-0.19445,-0.16022 -0.38889,-0.32046 -0.58333,-0.48069l-0.44192,-0.11267c0,0 -0.57497,-0.20729 -0.48928,-0.74691c-0.02919,0.01251 -0.06034,0.02414 -0.09354,0.03478c-0.35342,0.11326 -0.5898,0.0015 -0.73822,-0.13969c-0.00385,0.02981 -0.0094,0.06072 -0.01681,0.09276c-0.1627,0.70386 -0.89484,0.54745 -0.89484,0.54745c-0.60012,-0.14255 -1.18003,-0.4213 -1.65873,-0.79732l-0.12557,-0.11771c0,0 -0.53033,-0.50984 0,-1.01969c0.53033,-0.50984 1.06066,0 1.06066,0l0.0411,0.04251c0.27567,0.24531 0.6384,0.41968 1.00794,0.4845c0,0 0.11238,0.02402 0.23931,0.09555c-0.23018,-0.5346 -0.53386,-0.97399 -0.87134,-1.49309l-0.22702,-0.51493c0,0 -0.27855,-0.66945 0.41781,-0.93724c0.69636,-0.26779 0.9749,0.40167 0.9749,0.40167l0.1063,0.28621c0.47183,0.72576 0.87094,1.34286 1.15885,2.15699c0,0 0.0434,0.12515 0.03738,0.28624c0.28599,-0.12473 0.59778,-0.01232 0.59778,-0.01232z" fill="#44485c"/><path d="M229.05657,181.36055c-0.14709,-0.70702 0.58835,-0.84843 0.58835,-0.84843l0.71084,-0.08012c0.27778,0.0534 0.55555,0.10682 0.83333,0.16023c0,0 0.73543,0.14141 0.58835,0.84843c-0.14709,0.70702 -0.88252,0.56562 -0.88252,0.56562c-0.27778,-0.0534 -0.55555,-0.10682 -0.83333,-0.16022l-0.12249,0.08011c0,0 -0.73543,0.14141 -0.88252,-0.56562z" fill="#44485c"/><path d="M234.73946,187.41058l0.80254,-0.34309c0.25,0 0.5,0 0.75,0c0,0 0.75,0 0.75,0.72103c0,0.72103 -0.75,0.72103 -0.75,0.72103c-0.25,0 -0.5,0 -0.75,0l-0.0308,0.13759c0,0 -0.22232,0.12825 -0.48397,0.10826c-0.07345,0.38816 -0.40347,0.50499 -0.59547,0.54016c0.07242,0.06025 0.14003,0.14256 0.19772,0.25348c0.33541,0.64491 -0.33541,0.96736 -0.33541,0.96736c-1.00365,0.44605 -1.36077,0.90294 -1.33541,1.99887l0.00415,-0.16223c0,0 0.33541,0.64492 -0.33541,0.96737c-0.67082,0.32245 -1.00623,-0.32245 -1.00623,-0.32245l-0.16252,-0.48269c0.00771,-0.48853 0.06654,-0.90679 0.18353,-1.2732c-0.41682,0.06619 -0.70019,-0.29704 -0.70019,-0.29704l-0.39542,-0.67344c-0.10797,-1.13009 0.08963,-1.68046 0.84264,-2.55173c0,0 0.4881,-0.54744 1.05754,-0.0782c0.56944,0.46924 0.08135,1.01669 0.08135,1.01669c-0.5186,0.55594 -0.59914,0.7145 -0.4907,1.454l0.10459,-0.03253c0,0 0.04235,0.05428 0.08374,0.14203c0.17946,-0.19898 0.39294,-0.38134 0.64304,-0.55392c-0.55231,-0.33412 -0.2476,-0.92 -0.2476,-0.92l0.92082,-0.87926c0.25,0 0.5,0 0.75,0c0,0 0.0324,0.00001 0.08374,0.00648c0.07363,-0.2972 0.36372,-0.46453 0.36372,-0.46453z" fill="#44485c"/><path d="M245.15567,191.58305c-0.53033,0.50984 -1.06067,0 -1.06067,0l-0.08333,-0.08012c-0.31098,-0.31012 -0.69488,-0.56455 -1.10761,-0.73221c0,0 -0.68536,-0.29284 -0.38075,-0.95173c0.30461,-0.65889 0.98997,-0.36604 0.98997,-0.36604c0.52826,0.23377 1.0239,0.55279 1.45209,0.93278c-0.00438,-0.03574 -0.0067,-0.07359 -0.0067,-0.11367c0,-0.4 0.23081,-0.57809 0.43635,-0.65739c-0.16513,-0.08603 -0.31764,-0.24836 -0.3493,-0.5527c-0.07463,-0.71745 0.67165,-0.7892 0.67165,-0.7892c0.59025,-0.03901 1.19109,0.093 1.753,0.30513c-0.0076,-0.04573 -0.01171,-0.09513 -0.01171,-0.14847c0,-0.72103 0.75,-0.72103 0.75,-0.72103c0.7988,0.00414 1.54628,-0.15946 2.34204,-0.23676l1.00464,0.28267c0,0 0.70225,0.25317 0.43891,0.92829c-0.26334,0.67512 -0.96559,0.42196 -0.96559,0.42196l-0.32869,-0.19801c-0.74845,0.07114 -1.45072,0.20383 -2.19244,0.23655c0.14521,0.14743 0.33192,0.43193 0.12882,0.80171c0.2268,0.10189 0.45519,0.23008 0.689,0.39136l0.36094,0.7224c0,0 0.1819,0.6995 -0.5457,0.87438c-0.72761,0.17487 -0.90951,-0.52462 -0.90951,-0.52462l0.19427,0.0815c-0.8307,-0.64061 -1.69359,-0.49671 -2.71667,-0.49671c0,0 -0.16664,0 -0.34282,-0.07551c0.054,0.18663 0.03886,0.42604 -0.21018,0.66547z" fill="#44485c"/><path d="M250.87534,181.37936c0,0.72103 -0.75,0.72103 -0.75,0.72103l-0.32936,-0.01716c-0.27406,-0.09133 -0.62903,-0.02516 -0.85647,0.14791c0,0 -0.636,0.38215 -1.0335,-0.22929c-0.3975,-0.61143 0.2385,-0.99358 0.2385,-0.99358c0.58502,-0.31195 1.31704,-0.43878 1.97687,-0.33278l0.00397,-0.01717c0,0 0.75,0 0.75,0.72103z" fill="#4e5269"/><path d="M251.792,184.02313c0,0.72103 -0.75,0.72103 -0.75,0.72103h-0.08334c-0.42676,-0.00631 -0.85992,0.06798 -1.26283,0.20334c0,0 -0.71151,0.22801 -0.94868,-0.45602c-0.23717,-0.68403 0.47434,-0.91204 0.47434,-0.91204c0.55881,-0.17275 1.15022,-0.27106 1.73717,-0.27735h0.08334c0,0 0.75,0 0.75,0.72103z" fill="#4e5269"/><path d="M228.25867,187.48407c-0.6,-0.43262 -0.15,-1.00944 -0.15,-1.00944l0.51459,-0.53274c0.27778,-0.13352 0.55555,-0.26705 0.83334,-0.40057c0,0 0.67082,-0.32245 1.00623,0.32245c0.33541,0.64491 -0.33541,0.96737 -0.33541,0.96737c-0.27778,0.13352 -0.55555,0.26704 -0.83334,0.40057l0.01459,0.10816c0,0 -0.45,0.57682 -1.05,0.14421z" fill="#4e5269"/><path d="M246.79547,175.43664c0,0.75 -0.75,0.75 -0.75,0.75l0.07179,-0.01786c-1.58703,0.35259 -3.74183,0.38638 -5.2423,1.11591c0.22228,0.39486 0.41192,0.84345 0.60003,1.34316l-0.73047,1.11598c0,0 -0.67082,0.33541 -1.00623,-0.33541c-0.19691,-0.39382 -0.04702,-0.67204 0.11034,-0.83466c-0.34522,-0.85498 -0.73357,-1.46827 -1.78404,-1.6777c0,0 -0.73214,-0.1627 -0.56944,-0.89484c0.1627,-0.73214 0.89484,-0.56944 0.89484,-0.56944c0.62582,0.14912 1.1124,0.37752 1.50708,0.68117c1.71134,-0.91759 4.00517,-0.98842 5.8948,-1.40844l0.25361,-0.01786c0,0 0.75,0 0.75,0.75z" fill="#000000"/></g></g></svg>