<svg version="1.1" xmlns="http://www.w3.org/2000/svg" xmlns:xlink="http://www.w3.org/1999/xlink" width="150.43927" height="52.75" viewBox="0,0,150.43927,52.75"><g transform="translate(-164.78036,-153.625)"><g data-paper-data="{&quot;isPaintingLayer&quot;:true}" fill-rule="nonzero" stroke-linecap="butt" stroke-linejoin="miter" stroke-miterlimit="10" stroke-dasharray="" stroke-dashoffset="0" style="mix-blend-mode: normal"><path d="M166.03036,205.125v-50.25h147.93927v50.25z" fill="#7f7f7f" stroke="#5e5e5e" stroke-width="2.5"/><path d="M268.83883,180.40295c-0.03926,-0.50314 0.21703,-0.9303 0.21703,-0.9303c2.19068,-3.62795 4.8086,-8.47671 8.5153,-10.85175c1.76303,-1.12965 3.35564,-0.2299 5.14516,-0.60621c1.19675,-0.25166 2.37329,-0.95708 3.58395,-0.78433c1.30219,0.18581 2.10325,1.5841 3.20842,2.29741c1.06362,0.6865 4.07516,0.21268 5.2328,0.2393c1.90549,1.11713 4.85806,4.73601 5.11082,7.21745c0.06372,0.62555 -0.42646,1.21625 -0.39611,1.8443c0.07563,1.56492 3.31489,2.6573 3.48056,4.1554c0.16265,1.47072 -2.77861,3.84343 -3.78139,4.69106c-1.37743,1.16431 -2.34714,2.75813 -4.14464,3.35198c-1.55918,0.51511 -3.30018,-0.15021 -4.80583,0.38212c-2.05771,0.72753 -3.1531,1.03425 -5.46466,1.03718c-2.68153,-0.0112 -4.8668,-0.8153 -7.37706,-1.61052c-4.97817,-1.57702 -10.45892,-2.63366 -8.85529,-9.42966zM271.73666,180.61823c-0.01029,0.25565 -0.07163,0.43967 -0.07163,0.43967l-0.35422,1.0492c-1.3083,4.84884 3.66347,4.96769 6.93867,5.97908c2.21952,0.6854 4.11653,1.48317 6.4908,1.47123c2.86842,0.00395 6.61315,-0.50081 9.37566,-1.27723c1.13124,-0.31794 2.3303,-2.09645 3.17452,-2.81151c0.76996,-0.65217 1.3525,-1.51022 2.14048,-2.14049c0.16533,-0.13224 0.76364,0.0592 0.62684,-0.10239c-1.02377,-1.20924 -3.09773,-1.7507 -3.45338,-3.93419c-0.10945,-0.67197 0.37393,-1.32706 0.37433,-2.00788c0.0005,-0.83324 -2.2477,-4.34135 -2.97877,-4.72431c-1.84923,0.06567 -4.24001,0.40533 -5.93853,-0.53114c-0.5772,-0.31824 -1.18709,-1.85599 -2.18465,-1.93999c-0.89291,-0.07518 -1.69955,0.58755 -2.57954,0.75654c-0.85338,0.16388 -3.31938,-0.45752 -4.10008,0.16423c-3.22173,2.5658 -5.37672,6.11738 -7.46051,9.60918z" fill="#252525" stroke="none" stroke-width="0.5"/><path d="M279.16324,170.96227c0.7807,-0.62175 3.26634,-0.00956 4.11972,-0.17344c0.87999,-0.16899 1.70263,-0.83349 2.59554,-0.75831c0.99755,0.08399 1.62322,1.62444 2.20042,1.94267c1.69852,0.93647 4.11556,0.61413 5.96479,0.54846c0.73106,0.38296 2.99192,3.91627 2.99142,4.74951c-0.0004,0.68083 -0.48246,1.3457 -0.37302,2.01768c0.35564,2.1835 2.42814,2.74096 3.4519,3.9502c0.1368,0.16158 -0.46174,-0.0289 -0.62707,0.10334c-0.78798,0.63027 -1.3745,1.49924 -2.14446,2.15141c-0.84422,0.71507 -2.05429,2.50915 -3.18554,2.82709c-2.76251,0.77642 -6.55327,1.29805 -9.42168,1.2941c-2.37428,0.01194 -4.30464,-0.80018 -6.52416,-1.48558c-3.2752,-1.01139 -8.26566,-1.16432 -6.95736,-6.01316l0.35372,-1.05322c0,0 0.06122,-0.18582 0.07151,-0.44147c2.0838,-3.4918 4.26254,-7.09348 7.48427,-9.65928z" data-paper-data="{&quot;noHover&quot;:false,&quot;origItem&quot;:[&quot;Path&quot;,{&quot;applyMatrix&quot;:true,&quot;segments&quot;:[[[483.32901,330.02966],[3.60626,-6.04297],[-0.01781,0.44244]],[483.20504,330.79057],[[482.59202,332.60634],[0,0],[-2.26417,8.3915]],[[494.60022,342.95386],[-5.66812,-1.75034],[3.84115,1.18617]],[[505.83333,345.5],[-4.10897,0.02066],[4.96414,0.00683]],[[522.05903,343.2896],[-4.78085,1.34368],[1.95775,-0.55023]],[[527.55291,338.42394],[-1.46102,1.23751],[1.3325,-1.12865]],[[531.25727,334.71957],[-1.36369,1.09076],[0.28613,-0.22886]],[[532.34209,334.54238],[0.23675,0.27964],[-1.77175,-2.09273]],[[526.36561,327.73379],[0.61548,3.7788],[-0.18941,-1.16293]],[[527.01344,324.25891],[-0.0007,1.17825],[0.00086,-1.44202]],[[521.85833,316.08292],[1.26519,0.66276],[-3.20031,0.11365]],[[511.58099,315.16371],[2.93949,1.62068],[-0.99891,-0.55075]],[[507.8002,311.80633],[1.72638,0.14536],[-1.54528,-0.13011]],[[503.336,313.11561],[1.52292,-0.29246],[-1.47688,0.28362]],[[496.24032,313.39983],[1.3511,-1.07602],[-5.57559,4.44043]]],&quot;closed&quot;:true}]}" fill="#3d3d3d" stroke="none" stroke-width="0.5"/><path d="M294.32943,179.0532c-1.34125,0.5365 -1.87775,-0.80475 -1.87775,-0.80475l-0.21946,-0.65991c-0.72827,-1.46679 -1.78106,-0.70158 -3.51977,-0.55571c0,0 -1.43958,0.11996 -1.55954,-1.31961c-0.11996,-1.43958 1.31961,-1.55955 1.31961,-1.55955c3.04849,-0.25243 4.09823,-0.68667 6.11069,1.7556l0.55097,1.26618c0,0 0.5365,1.34125 -0.80475,1.87775z" fill="#313131" stroke="none" stroke-width="0.5"/><path d="M285.99222,173.66716c0,1.44457 -1.44457,1.44457 -1.44457,1.44457l0.15775,-0.04313c-2.11986,0.5164 -3.04927,1.18712 -5.32512,0.99734c0,0 -1.43573,-0.15953 -1.27621,-1.59526c0.15953,-1.43573 1.59526,-1.27621 1.59526,-1.27621c1.70264,0.26593 2.62299,-0.49932 4.30535,-0.92875l0.54297,-0.04313c0,0 1.44457,0 1.44457,1.44457z" fill="#313131" stroke="none" stroke-width="0.5"/><path d="M295.59797,185.82371c-1.37044,0.45681 -1.82725,-0.91362 -1.82725,-0.91362l0.14558,-0.43698c-0.44942,-0.32102 -0.89884,-0.64203 -1.34826,-0.96305c0,0 -1.1755,-0.83964 -0.33586,-2.01513c0.83964,-1.17549 2.01513,-0.33585 2.01513,-0.33585c0.44942,0.32102 0.89884,0.64202 1.34826,0.96304l0.91602,1.87434c0,0 0.45681,1.37043 -0.91363,1.82725z" fill="#313131" stroke="none" stroke-width="0.5"/><path d="M280.71768,179.37384c0.45681,1.37044 -0.91363,1.82725 -0.91363,1.82725l-0.38861,0.11424c-1.91865,0.95413 -2.58316,1.00893 -3.37076,2.95421c0,0 -0.5867,1.32006 -1.90676,0.73337c-1.32006,-0.5867 -0.73337,-1.90676 -0.73337,-1.90676c1.197,-2.53891 2.2386,-3.11877 4.71883,-4.36495l0.76704,-0.27098c0,0 1.37044,-0.45681 1.82725,0.91363z" fill="#313131" stroke="none" stroke-width="0.5"/><path d="M290.54074,180.67269c-0.45681,1.37044 -1.82725,0.91363 -1.82725,0.91363l-1.07893,-0.36199c-0.383,-0.21758 -0.71524,-0.72951 -1.14898,-0.65274c-0.28583,0.05059 -0.04534,0.57877 -0.068,0.86815c0,0 -0.64603,1.29206 -1.93809,0.64603c-1.29206,-0.64603 -0.64603,-1.93809 -0.64603,-1.93809c0.49096,-0.73787 0.64304,-1.90238 1.47287,-2.2136c0.97661,-0.36627 2.05894,0.33528 3.08842,0.50292l1.23238,0.40845c0,0 1.37044,0.45681 0.91363,1.82725z" fill="#313131" stroke="none" stroke-width="0.5"/><path d="M284.64399,184.26067c0,1.44457 -1.44457,1.44457 -1.44457,1.44457l-1.33483,-0.01115c-0.66514,-0.12922 -1.42898,0.02355 -1.99326,0.39865c0,0 -1.25423,0.71671 -1.97094,-0.53753c-0.71671,-1.25424 0.53753,-1.97094 0.53753,-1.97094c1.1399,-0.59675 2.50328,-0.86943 3.78502,-0.75701l0.97648,-0.01116c0,0 1.44457,0 1.44457,1.44457z" fill="#313131" stroke="none" stroke-width="0.5"/><path d="M291.3853,186.57198c0,1.44457 -1.44457,1.44457 -1.44457,1.44457c-0.51363,0 -2.1829,0 -2.69653,0c0,0 -1.44457,0 -1.44457,-1.44457c0,-1.44457 1.44457,-1.44457 1.44457,-1.44457c0.51363,0 1.02724,0 1.54087,0h1.15566c0,0 1.44457,0 1.44457,1.44457z" fill="#313131" stroke="none" stroke-width="0.5"/><text transform="translate(279.09895,186.79656) scale(0.5,0.5)" font-size="40" xml:space="preserve" fill="#ffffff" fill-rule="nonzero" stroke="none" stroke-width="1" stroke-linecap="butt" stroke-linejoin="miter" stroke-miterlimit="10" stroke-dasharray="" stroke-dashoffset="0" font-family="Sans Serif" font-weight="normal" text-anchor="start" style="mix-blend-mode: normal"><tspan x="0" dy="0">1</tspan></text><path d="M245.35001,176.58212c0,1.25 -1.25,1.25 -1.25,1.25l-0.7434,-0.0481c-2.94941,-0.87282 -5.86518,0.03962 -8.8566,0.0481c0,0 -1.25,0 -1.25,-1.25c0,-1.25 1.25,-1.25 1.25,-1.25c3.27835,0.01077 6.2865,-0.85638 9.5434,0.0481l0.0566,-0.0481c0,0 1.25,0 1.25,1.25z" fill="#ffffff" stroke="none" stroke-width="0.5"/><path d="M246.75005,183.78212c0,1.25 -1.25,1.25 -1.25,1.25l-0.57678,-0.01256c-3.09494,-0.44307 -6.10567,-0.58744 -9.22322,-0.58744c0,0 -1.25,0 -1.25,-1.25c0,-1.25 1.25,-1.25 1.25,-1.25c3.23459,0 6.36627,0.15485 9.57678,0.61256l0.22322,-0.01256c0,0 1.25,0 1.25,1.25z" fill="#ffffff" stroke="none" stroke-width="0.5"/><path d="M192.76948,165.36274c0.34352,-0.10001 0.70684,-0.19057 1.02213,-0.3575c-0.36769,1.55552 2.49033,2.96888 3.53308,3.503c0.98471,0.50439 2.29472,0.40012 3.34355,0.40217c0.49848,0.00097 1.01952,0.13735 1.49944,0.00258c0.04171,-0.01171 0.08894,-0.0429 0.13705,-0.08528c-0.84907,1.76466 2.69748,3.28258 4.11337,3.58885c0.53413,-0.10035 1.08121,-0.14864 1.60334,-0.29946c0.05515,-0.01593 0.12009,-0.03893 0.19045,-0.06746c-0.10411,0.26547 -0.18487,0.54721 -0.24849,0.75786c-0.63037,2.08741 -1.38425,4.10204 -2.20006,6.14156c-1.89609,4.74023 -4.49192,9.0608 -7.08549,13.45483c-0.62876,0.61946 -1.65407,2.19522 -2.37789,2.56625c-1.1829,0.60634 -1.27951,-3.32897 -1.69122,-3.58185c-1.85355,-1.13846 -3.45958,1.73826 -4.08541,1.33717c-0.72725,-0.46609 -1.35039,-1.13719 -2.15025,-1.46332c-1.32465,-0.54011 -4.04676,-1.61284 -5.464,-1.59676c-1.55622,0.01766 -3.43675,2.35662 -2.33159,-0.03408c3.10266,-7.83823 5.02719,-16.11403 8.13174,-23.95986c1.36321,0.01993 2.72952,0.0787 4.06025,-0.30872z" data-paper-data="{&quot;noHover&quot;:false,&quot;origItem&quot;:[&quot;Path&quot;,{&quot;applyMatrix&quot;:true,&quot;segments&quot;:[[[59.30746,205.25813],[1.36321,0.01993],[-3.10455,7.84583]],[[51.19866,229.14253],[3.10266,-7.83823],[-1.10516,2.3907]],[[53.52742,229.17297],[-1.55622,0.01766],[1.41724,-0.01608]],[[58.97645,230.75781],[-1.32465,-0.54011],[0.79985,0.32613]],[[61.1176,232.21748],[-0.72725,-0.46609],[0.62583,0.40109]],[[65.18734,230.87835],[-1.85355,-1.13846],[0.41171,0.25288]],[[66.87337,234.46064],[-1.1829,0.60634],[0.72383,-0.37102]],[[69.24122,231.89686],[-0.62876,0.61946],[2.59357,-4.39403]],[[76.29383,218.4937],[-1.89609,4.74023],[0.81581,-2.03953]],[[78.49941,212.37077],[-0.63037,2.08741],[0.06362,-0.21066]],[[78.74873,211.61441],[-0.10411,0.26547],[-0.07035,0.02853]],[[78.55833,211.68197],[0.05515,-0.01593],[-0.52213,0.15082]],[[76.95595,211.98303],[0.53413,-0.10035],[-1.41589,-0.30627]],[[72.85574,208.40826],[-0.84907,1.76466],[-0.04811,0.04238]],[[72.71888,208.49367],[0.04171,-0.01171],[-0.47992,0.13477]],[[71.22344,208.49367],[0.49848,0.00097],[-1.04882,-0.00205]],[[67.89198,208.09653],[0.98471,0.50439],[-1.04275,-0.53412]],[[64.37334,204.59523],[-0.36769,1.55552],[-0.31528,0.16693]],[[63.35471,204.9525],[0.34352,-0.10001],[-1.33073,0.38742]]],&quot;closed&quot;:true}]}" fill="#9a6d4e" stroke="none" stroke-width="0.5"/><path d="M183.06021,190.52065c-0.88388,-0.88388 0,-1.76777 0,-1.76777l0.3105,-0.25772c0.23326,-0.38618 0.46652,-0.77236 0.69978,-1.15853c1.09789,-2.77052 2.05651,-5.67329 2.91251,-8.52412c0.52397,-1.74503 0.13444,-3.64444 0.78,-5.3286c0.24775,-0.64634 1.05068,-1.50774 1.18466,-2.27804c0.09932,-0.57107 -0.17207,-1.21193 0.0726,-1.73741c0.95499,-2.05108 2.9447,-1.61207 3.73285,-3.72448c0,0 0.46424,-1.1606 1.62483,-0.69636c1.1606,0.46424 0.69636,1.62483 0.69636,1.62483c-0.61454,1.46772 -0.53654,1.80295 -1.96792,2.82247c-0.54443,0.38778 -1.60126,0.28519 -1.77642,0.93024c-1.59986,5.89155 -2.64331,12.12843 -5.01984,18.02236c-0.26522,0.44462 -0.53044,0.88924 -0.79566,1.33386l-0.68646,0.73924c0,0 -0.88388,0.88388 -1.76777,0z" fill="#a57554" stroke="none" stroke-width="0.5"/><path d="M191.91977,184.89742c1.25,0 1.25,1.25 1.25,1.25l-0.02427,0.49438c-0.43976,2.19879 -0.9853,4.36713 -1.80981,6.45009c0,0 -0.46424,1.1606 -1.62483,0.69636c-1.1606,-0.46424 -0.69636,-1.62483 -0.69636,-1.62483c0.78154,-1.92996 1.27083,-3.96833 1.67955,-6.0119l-0.02427,-0.00409c0,0 0,-1.25 1.25,-1.25z" fill="#a57554" stroke="none" stroke-width="0.5"/><path d="M194.4095,180.2649c-0.03092,0.29575 -0.20972,1.15077 -1.24353,1.15077c-1.25,0 -1.25,-1.25 -1.25,-1.25l0.17813,-0.89236c2.21739,-3.67105 2.33139,-7.36687 3.89911,-11.28615c0,0 0.46424,-1.1606 1.62483,-0.69636c1.1606,0.46424 0.69636,1.62483 0.69636,1.62483c-1.56441,3.91103 -1.79377,7.63855 -3.9049,11.34926z" fill="#a57554" stroke="none" stroke-width="0.5"/><path d="M195.65836,195.62233c-1.25,0 -1.25,-1.25 -1.25,-1.25v-0.49848c0.02633,-2.02195 1.09243,-3.42563 1.25228,-5.35721c0.05812,-0.70229 -0.0963,-2.4891 0.01647,-3.10409c0.3977,-2.16874 2.13995,-4.13884 2.4924,-6.23099c0.18613,-1.1049 -0.38876,-2.11518 0.0726,-3.23285c0.63543,-1.53935 2.87829,-3.07894 3.82158,-4.65108c0,0 0.64312,-1.07187 1.71499,-0.42875c1.07187,0.64312 0.42875,1.71499 0.42875,1.71499c-0.13251,0.22085 -1.53335,2.56667 -1.6261,2.67185c-0.57659,0.65391 -1.72559,0.83258 -2.02952,1.6497c-0.31955,0.85912 0.24428,1.84851 0.0726,2.74891c-0.18768,0.98431 -0.93513,1.77658 -1.30774,2.70676c-0.89515,2.23462 -0.94146,4.06903 -1.16818,6.4019c-0.18176,1.87021 -1.27377,3.23237 -1.24012,5.11086v0.49848c0,0 0,1.25 -1.25,1.25z" fill="#8d6348" stroke="none" stroke-width="0.5"/><path d="M188.72718,165.71813c-3.10455,7.84583 -5.00614,16.04617 -8.1088,23.8844c-1.10516,2.3907 0.77254,0.04809 2.32876,0.03044c1.41724,-0.01608 4.12438,1.04473 5.44903,1.58484c0.79985,0.32613 1.4139,0.99358 2.14115,1.45967c0.62583,0.40109 2.2162,-2.47759 4.06974,-1.33914c0.41171,0.25288 0.50313,4.18863 1.68603,3.58229c0.72383,-0.37102 1.73909,-1.94431 2.36785,-2.56378c2.59357,-4.39403 5.15652,-8.66293 7.05261,-13.40316c0.81581,-2.03953 1.57521,-4.03553 2.20557,-6.12294c0.06362,-0.21066 0.1452,-0.49088 0.24932,-0.75635c-0.07035,0.02853 -0.13525,0.05163 -0.19039,0.06756c-0.52213,0.15082 -1.06825,0.20071 -1.60238,0.30106c-1.41589,-0.30627 -4.94928,-1.81011 -4.10021,-3.57477c-0.04811,0.04238 -0.09515,0.0737 -0.13687,0.08541c-0.47992,0.13477 -0.99696,0.00097 -1.49544,0c-1.04882,-0.00205 -2.34675,0.10724 -3.33146,-0.39715c-1.04275,-0.53412 -3.88633,-1.94578 -3.51864,-3.5013c-0.31528,0.16693 -0.67511,0.25726 -1.01863,0.35727c-1.33073,0.38742 -2.68404,0.32556 -4.04725,0.30563zM186.44706,164.68607c-0.00937,-0.06938 -0.01437,-0.14345 -0.01437,-0.22252c0,-1.25 1.25,-1.25 1.25,-1.25h0.49848c1.93613,0 3.31481,-0.43896 5.12709,-0.6959c0.79041,-0.11206 1.75681,-0.49752 2.39487,-0.01774c0.73801,0.55494 -0.14153,2.25594 0.67529,2.68655c0.71159,0.37512 1.42976,0.74118 2.11292,1.16587c1.66922,1.03768 4.55434,-0.99001 6.17778,0.65055c0.40412,0.40838 -0.4046,1.12911 -0.30909,1.69565c0.06441,0.38206 1.59836,1.18007 2.01564,1.24449c1.41584,-0.31406 3.61585,-1.77966 4.8377,0.15614c0.48848,0.77392 -1.3161,5.12171 -1.68318,6.04441c-2.4957,6.27327 -5.3905,11.98131 -8.89873,17.75181c-0.8061,0.81582 -2.5324,3.10671 -3.6139,3.41798c-1.10418,0.3178 -3.3712,-0.65716 -3.94238,-1.57745c-0.20748,-0.3343 -0.36631,-0.93689 -0.37077,-1.44388c-0.26621,0.20599 -0.55538,0.38825 -0.75515,0.46559c-0.67117,0.25984 -1.43688,0.48188 -2.1364,0.31258c-0.56783,-0.13742 -0.83366,-0.83037 -1.32284,-1.14977c-1.14215,-0.74573 -4.25152,-1.75844 -5.54288,-1.78747c-1.68845,-0.03795 -2.62499,2.37909 -4.62248,0.3816c-1.30215,-1.30215 -0.47893,-2.60375 -0.02747,-3.84052c3.17691,-7.84511 5.02228,-16.1112 8.14988,-23.98798z" fill="#704f39" stroke="none" stroke-width="0.5"/><text transform="translate(181.72977,187.89786) scale(0.5,0.5)" font-size="40" xml:space="preserve" fill="#ffffff" fill-rule="nonzero" stroke="none" stroke-width="1" stroke-linecap="butt" stroke-linejoin="miter" stroke-miterlimit="10" stroke-dasharray="" stroke-dashoffset="0" font-family="Sans Serif" font-weight="normal" text-anchor="start" style="mix-blend-mode: normal"><tspan x="0" dy="0">10</tspan></text></g></g></svg>