<svg version="1.1" xmlns="http://www.w3.org/2000/svg" xmlns:xlink="http://www.w3.org/1999/xlink" width="521.96079" height="403.98861" viewBox="0,0,521.96079,403.98861"><g transform="translate(20.78973,22.14769)"><g data-paper-data="{&quot;isPaintingLayer&quot;:true}" fill-rule="nonzero" stroke-linejoin="miter" stroke-miterlimit="10" stroke-dasharray="" stroke-dashoffset="0" style="mix-blend-mode: normal"><path d="M-20.78972,381.84093v-403.68179h521.57951v403.68179z" fill="#394639" stroke="none" stroke-width="0" stroke-linecap="butt"/><path d="M487.39771,37.73604l-42.44318,-0.94318l-0.94318,-46.21591" data-paper-data="{&quot;index&quot;:null}" fill="none" stroke="#333f33" stroke-width="2.5" stroke-linecap="round"/><path d="M444.95453,36.79288l-30.18182,21.69318l-44.32954,-10.375l-6.60228,-62.24999" data-paper-data="{&quot;index&quot;:null}" fill="none" stroke="#333f33" stroke-width="2.5" stroke-linecap="round"/><path d="M370.44317,47.16788l-38.67046,9.43182l-49.98863,-26.40909l6.60227,-48.10227" data-paper-data="{&quot;index&quot;:null}" fill="none" stroke="#333f33" stroke-width="2.5" stroke-linecap="round"/><path d="M327.85382,100.95681l-6.79532,-17.47368l11.16375,-26.21053" data-paper-data="{&quot;index&quot;:null}" fill="none" stroke="#333f33" stroke-width="2.5" stroke-linecap="round"/><path d="M287.08189,104.35447l2.4269,-17.95906l32.03508,-3.88304" data-paper-data="{&quot;index&quot;:null}" fill="none" stroke="#333f33" stroke-width="2.5" stroke-linecap="round"/><path d="M447.25733,94.64687l-33.49122,-4.8538l1.94152,-30.57894" data-paper-data="{&quot;index&quot;:null}" fill="none" stroke="#333f33" stroke-width="2.5" stroke-linecap="round"/><path d="M498.22224,125.22582l-78.1462,13.10526l-20.38596,-27.18128l14.56141,-21.35673" data-paper-data="{&quot;index&quot;:null}" fill="none" stroke="#333f33" stroke-width="2.5" stroke-linecap="round"/><path d="M431.23979,167.93926l-11.16375,-5.82456l-0.48538,-22.81286" data-paper-data="{&quot;index&quot;:null}" fill="none" stroke="#333f33" stroke-width="2.5" stroke-linecap="round"/><path d="M400.17546,111.14979l-36.88889,4.36842" data-paper-data="{&quot;index&quot;:null}" fill="none" stroke="#333f33" stroke-width="2.5" stroke-linecap="round"/><path d="M268.63746,76.20243l21.35672,9.22222" data-paper-data="{&quot;index&quot;:null}" fill="none" stroke="#333f33" stroke-width="2.5" stroke-linecap="round"/><path d="M421.53219,161.14394l-24.75439,9.70761" data-paper-data="{&quot;index&quot;:null}" fill="none" stroke="#333f33" stroke-width="2.5" stroke-linecap="round"/><path d="M279.80118,30.65857l-43.19883,7.2807l-38.83041,-13.59064l1.94152,-32.03508" data-paper-data="{&quot;index&quot;:null}" fill="none" stroke="#333f33" stroke-width="2.5" stroke-linecap="round"/><path d="M180.29828,63.17903l0.48538,-27.18129l17.47368,-12.1345" data-paper-data="{&quot;index&quot;:null}" fill="none" stroke="#333f33" stroke-width="2.5" stroke-linecap="round"/><path d="M155.54388,23.37786l24.75439,12.61989" data-paper-data="{&quot;index&quot;:null}" fill="none" stroke="#333f33" stroke-width="2.5" stroke-linecap="round"/><path d="M235.63161,37.45385l-6.30995,25.23977" data-paper-data="{&quot;index&quot;:null}" fill="none" stroke="#333f33" stroke-width="2.5" stroke-linecap="round"/><path d="M54.09945,369.66028l5.82457,-24.269l29.12281,-8.73684l23.29824,5.33918v23.78362" data-paper-data="{&quot;index&quot;:null}" fill="none" stroke="#333f33" stroke-width="2.5" stroke-linecap="round"/><path d="M58.46788,345.39127l-17.47368,-21.35672l16.9883,-35.43275l-5.82456,-18.92982l3.88304,-26.21052" data-paper-data="{&quot;index&quot;:null}" fill="none" stroke="#333f33" stroke-width="2.5" stroke-linecap="round"/><path d="M-18.22218,325.49066l36.88889,-11.64912l22.32749,9.22222" data-paper-data="{&quot;index&quot;:null}" fill="none" stroke="#333f33" stroke-width="2.5" stroke-linecap="round"/><path d="M112.83045,343.44975l12.1345,-10.19299l22.32748,-1.45614" data-paper-data="{&quot;index&quot;:null}" fill="none" stroke="#333f33" stroke-width="2.5" stroke-linecap="round"/><path d="M125.45033,331.31523l2.4269,-15.53216l17.95907,-17.47368" data-paper-data="{&quot;index&quot;:null}" fill="none" stroke="#333f33" stroke-width="2.5" stroke-linecap="round"/><path d="M114.77197,297.33864l13.10526,16.50293" data-paper-data="{&quot;index&quot;:null}" fill="none" stroke="#333f33" stroke-width="2.5" stroke-linecap="round"/><path d="M88.07606,335.68367l10.19298,-17.95906" data-paper-data="{&quot;index&quot;:null}" fill="none" stroke="#333f33" stroke-width="2.5" stroke-linecap="round"/><path d="M57.49711,290.5433l28.63743,-8.25146" data-paper-data="{&quot;index&quot;:null}" fill="none" stroke="#333f33" stroke-width="2.5" stroke-linecap="round"/><path d="M26.43279,255.11057l14.56141,-0.97076l11.64912,7.2807" data-paper-data="{&quot;index&quot;:null}" fill="none" stroke="#333f33" stroke-width="2.5" stroke-linecap="round"/><path d="M379.30412,261.42051l-1.45614,32.52047l-29.60819,10.19298l0.48538,46.59649l-25.23977,9.22222l-2.4269,17.95907" data-paper-data="{&quot;index&quot;:null}" fill="none" stroke="#333f33" stroke-width="2.5" stroke-linecap="round"/><path d="M349.69593,303.64858h-14.5614l-30.09357,-4.8538l-2.4269,-13.10527l2.4269,-23.78362" data-paper-data="{&quot;index&quot;:null}" fill="none" stroke="#333f33" stroke-width="2.5" stroke-linecap="round"/><path d="M269.12282,369.1749l-10.67836,-39.80117l11.16374,-36.88889l32.52047,-7.76608" data-paper-data="{&quot;index&quot;:null}" fill="none" stroke="#333f33" stroke-width="2.5" stroke-linecap="round"/><path d="M256.50293,329.85911l-23.29825,6.30994l-7.76609,-10.19298" data-paper-data="{&quot;index&quot;:null}" fill="none" stroke="#333f33" stroke-width="2.5" stroke-linecap="round"/><path d="M233.20471,337.62519l-0.97076,2.91228l-3.39767,9.7076" data-paper-data="{&quot;index&quot;:null}" fill="none" stroke="#333f33" stroke-width="2.5" stroke-linecap="round"/><path d="M269.60821,292.48483l-8.73684,-8.25146" data-paper-data="{&quot;index&quot;:null}" fill="none" stroke="#333f33" stroke-width="2.5" stroke-linecap="round"/><path d="M349.21055,349.27431l19.90059,18.44445" data-paper-data="{&quot;index&quot;:null}" fill="none" stroke="#333f33" stroke-width="2.5" stroke-linecap="round"/><path d="M-3.92423,49.32695l24.75439,8.73684l-3.88304,28.63742l-28.63742,6.30994" data-paper-data="{&quot;index&quot;:null}" fill="none" stroke="#333f33" stroke-width="2.5" stroke-linecap="round"/><path d="M63.54361,99.80648l-30.57894,-4.85379l-16.01754,-9.70761" data-paper-data="{&quot;index&quot;:null}" fill="none" stroke="#333f33" stroke-width="2.5" stroke-linecap="round"/><path d="M31.9939,93.98192l-2.91229,22.81286l-35.43274,3.39766" data-paper-data="{&quot;index&quot;:null}" fill="none" stroke="#333f33" stroke-width="2.5" stroke-linecap="round"/><path d="M73.73659,133.2977l-33.9766,-2.4269l-9.7076,-15.04678" data-paper-data="{&quot;index&quot;:null}" fill="none" stroke="#333f33" stroke-width="2.5" stroke-linecap="round"/><path d="M38.30384,131.35619l-13.59064,29.60818" data-paper-data="{&quot;index&quot;:null}" fill="none" stroke="#333f33" stroke-width="2.5" stroke-linecap="round"/><path d="M20.34477,58.06379l20.38597,-7.76608l25.23976,1.94152" data-paper-data="{&quot;index&quot;:null}" fill="none" stroke="#333f33" stroke-width="2.5" stroke-linecap="round"/><path d="M53.836,-7.08584l2.4269,17.58239l-15.04678,37.37427" data-paper-data="{&quot;index&quot;:null}" fill="none" stroke="#333f33" stroke-width="2.5" stroke-linecap="round"/><path d="M56.26291,10.38784l12.1345,1.94152" data-paper-data="{&quot;index&quot;:null}" fill="none" stroke="#333f33" stroke-width="2.5" stroke-linecap="round"/><path d="M156.51466,171.33693l-33.49123,9.7076l-4.8538,-10.67837l10.67836,-32.52046l27.18128,5.82456l0.48539,27.18129l16.50292,12.1345" data-paper-data="{&quot;index&quot;:null}" fill="none" stroke="#333f33" stroke-width="2.5" stroke-linecap="round"/><path d="M129.81875,137.8457l-1.45614,-11.64912" data-paper-data="{&quot;index&quot;:null}" fill="none" stroke="#333f33" stroke-width="2.5" stroke-linecap="round"/><path d="M118.16963,170.36616l-22.81286,0.97077" data-paper-data="{&quot;index&quot;:null}" fill="none" stroke="#333f33" stroke-width="2.5" stroke-linecap="round"/><path d="M155.05848,142.6995l10.19298,-7.2807l15.04678,4.8538" data-paper-data="{&quot;index&quot;:null}" fill="none" stroke="#333f33" stroke-width="2.5" stroke-linecap="round"/><path d="M165.2515,122.31354l-0.48538,12.1345" data-paper-data="{&quot;index&quot;:null}" fill="none" stroke="#333f33" stroke-width="2.5" stroke-linecap="round"/><path d="M366.19886,207.63517l-32.52046,-4.8538l-8.25146,-18.44444" data-paper-data="{&quot;index&quot;:null}" fill="none" stroke="#333f33" stroke-width="2.5" stroke-linecap="round"/><path d="M322.51463,221.22581l10.19299,-19.90058" data-paper-data="{&quot;index&quot;:null}" fill="none" stroke="#333f33" stroke-width="2.5" stroke-linecap="round"/><path d="M237.08775,123.17903l-8.73684,-10.67836l0.97076,-6.79533" data-paper-data="{&quot;index&quot;:null}" fill="none" stroke="#333f33" stroke-width="2.5" stroke-linecap="round"/><path d="M196.31582,276.07376l9.22223,-13.59064" data-paper-data="{&quot;index&quot;:null}" fill="none" stroke="#333f33" stroke-width="2.5" stroke-linecap="round"/><path d="M200.68424,267.33691l-8.73684,-7.2807" data-paper-data="{&quot;index&quot;:null}" fill="none" stroke="#333f33" stroke-width="2.5" stroke-linecap="round"/><path d="M37.68753,-12.40904l-0.94318,46.2159l-42.44318,0.94318" fill="none" stroke="#2a342a" stroke-width="2.5" stroke-linecap="round"/><path d="M117.858,-17.12495l-6.60227,62.24999l-44.32954,10.375l-30.18182,-21.69318" fill="none" stroke="#2a342a" stroke-width="2.5" stroke-linecap="round"/><path d="M193.31253,-20.89768l6.60227,48.10227l-49.98863,26.40909l-38.67045,-9.43182" fill="none" stroke="#2a342a" stroke-width="2.5" stroke-linecap="round"/><path d="M149.47663,54.28659l11.16375,26.21052l-6.79532,17.47369" fill="none" stroke="#2a342a" stroke-width="2.5" stroke-linecap="round"/><path d="M160.155,79.52635l32.03508,3.88304l2.4269,17.95906" fill="none" stroke="#2a342a" stroke-width="2.5" stroke-linecap="round"/><path d="M65.99125,56.22811l1.94152,30.57894l-33.49122,4.8538" fill="none" stroke="#2a342a" stroke-width="2.5" stroke-linecap="round"/><path d="M67.44737,86.80705l14.56141,21.35673l-20.38596,27.18129l-78.1462,-13.10526" fill="none" stroke="#2a342a" stroke-width="2.5" stroke-linecap="round"/><path d="M62.10823,136.31581l-0.48538,22.81287l-11.16375,5.82456" fill="none" stroke="#2a342a" stroke-width="2.5" stroke-linecap="round"/><path d="M81.52343,108.16378l36.88889,4.36842" fill="none" stroke="#2a342a" stroke-width="2.5" stroke-linecap="round"/><path d="M191.70471,82.43863l21.35673,-9.22222" fill="none" stroke="#2a342a" stroke-width="2.5" stroke-linecap="round"/><path d="M84.9211,167.86554l-24.75439,-9.70761" fill="none" stroke="#2a342a" stroke-width="2.5" stroke-linecap="round"/><path d="M281.98541,-10.67248l1.94152,32.03508l-38.83041,13.59065l-43.19883,-7.2807" fill="none" stroke="#2a342a" stroke-width="2.5" stroke-linecap="round"/><path d="M283.44155,20.87723l17.47368,12.1345l0.48538,27.18129" fill="none" stroke="#2a342a" stroke-width="2.5" stroke-linecap="round"/><path d="M301.40058,33.01173l24.75439,-12.61988" fill="none" stroke="#2a342a" stroke-width="2.5" stroke-linecap="round"/><path d="M252.37722,59.70762l-6.30994,-25.23977" fill="none" stroke="#2a342a" stroke-width="2.5" stroke-linecap="round"/><path d="M369.35383,362.79122v-23.78362l23.29825,-5.33918l29.12281,8.73684l5.82456,24.26901" fill="none" stroke="#2a342a" stroke-width="2.5" stroke-linecap="round"/><path d="M425.65793,240.47545l3.88304,26.21052l-5.82456,18.92982l16.9883,35.43275l-17.47369,21.35672" fill="none" stroke="#2a342a" stroke-width="2.5" stroke-linecap="round"/><path d="M440.7047,320.07777l22.32748,-9.22222l36.88889,11.64912" fill="none" stroke="#2a342a" stroke-width="2.5" stroke-linecap="round"/><path d="M334.40646,328.8146l22.32749,1.45614l12.1345,10.19299" fill="none" stroke="#2a342a" stroke-width="2.5" stroke-linecap="round"/><path d="M335.8626,295.32338l17.95907,17.47368l2.4269,15.53216" fill="none" stroke="#2a342a" stroke-width="2.5" stroke-linecap="round"/><path d="M353.82167,310.85555l13.10526,-16.50293" fill="none" stroke="#2a342a" stroke-width="2.5" stroke-linecap="round"/><path d="M393.62283,332.69765l-10.19298,-17.95906" fill="none" stroke="#2a342a" stroke-width="2.5" stroke-linecap="round"/><path d="M395.56435,279.30584l28.63743,8.25146" fill="none" stroke="#2a342a" stroke-width="2.5" stroke-linecap="round"/><path d="M429.05558,258.4345l11.64912,-7.2807l14.5614,0.97076" fill="none" stroke="#2a342a" stroke-width="2.5" stroke-linecap="round"/><path d="M160.64039,374.92572l-2.4269,-17.95906l-25.23977,-9.22222l0.48538,-46.59649l-29.60819,-10.19298l-1.45614,-32.52047" fill="none" stroke="#2a342a" stroke-width="2.5" stroke-linecap="round"/><path d="M176.65792,258.91988l2.42691,23.78362l-2.42691,13.10527l-30.09356,4.8538h-14.5614" fill="none" stroke="#2a342a" stroke-width="2.5" stroke-linecap="round"/><path d="M179.57021,281.73274l32.52047,7.76608l11.16374,36.88889l-10.67836,39.80117" fill="none" stroke="#2a342a" stroke-width="2.5" stroke-linecap="round"/><path d="M256.26025,322.99003l-7.76609,10.19298l-23.29824,-6.30994" fill="none" stroke="#2a342a" stroke-width="2.5" stroke-linecap="round"/><path d="M252.86261,347.25906l-3.39766,-9.7076l-0.97076,-2.91228" fill="none" stroke="#2a342a" stroke-width="2.5" stroke-linecap="round"/><path d="M220.82752,281.24736l-8.73684,8.25146" fill="none" stroke="#2a342a" stroke-width="2.5" stroke-linecap="round"/><path d="M132.48834,346.2883l-19.90059,18.44444" fill="none" stroke="#2a342a" stroke-width="2.5" stroke-linecap="round"/><path d="M493.38919,90.02515l-28.63742,-6.30994l-3.88304,-28.63743l24.75439,-8.73684" fill="none" stroke="#2a342a" stroke-width="2.5" stroke-linecap="round"/><path d="M464.75178,82.25906l-16.01755,9.70761l-30.57894,4.8538" fill="none" stroke="#2a342a" stroke-width="2.5" stroke-linecap="round"/><path d="M488.05001,117.20644l-35.43274,-3.39766l-2.91228,-22.81287" fill="none" stroke="#2a342a" stroke-width="2.5" stroke-linecap="round"/><path d="M451.64651,112.83801l-9.7076,15.04678l-33.97661,2.4269" fill="none" stroke="#2a342a" stroke-width="2.5" stroke-linecap="round"/><path d="M443.39505,128.37016l13.59064,29.60819" fill="none" stroke="#2a342a" stroke-width="2.5" stroke-linecap="round"/><path d="M415.7284,49.25322l25.23976,-1.94152l20.38596,7.76608" fill="none" stroke="#2a342a" stroke-width="2.5" stroke-linecap="round"/><path d="M440.48277,44.8848l-15.04678,-37.37427l2.42691,-17.58238" fill="none" stroke="#2a342a" stroke-width="2.5" stroke-linecap="round"/><path d="M425.43599,7.40183l-12.1345,1.94152" fill="none" stroke="#2a342a" stroke-width="2.5" stroke-linecap="round"/><path d="M308.68129,180.00003l16.50292,-12.1345l0.48539,-27.18129l27.18128,-5.82456l10.67836,32.52046l-4.8538,10.67837l-33.49123,-9.7076" fill="none" stroke="#2a342a" stroke-width="2.5" stroke-linecap="round"/><path d="M351.88015,134.85968l1.45614,-11.64912" fill="none" stroke="#2a342a" stroke-width="2.5" stroke-linecap="round"/><path d="M363.52927,167.38014l22.81286,0.97077" fill="none" stroke="#2a342a" stroke-width="2.5" stroke-linecap="round"/><path d="M301.40058,137.28658l15.04678,-4.8538l10.19299,7.2807" fill="none" stroke="#2a342a" stroke-width="2.5" stroke-linecap="round"/><path d="M316.93278,131.46202l-0.48538,-12.1345" fill="none" stroke="#2a342a" stroke-width="2.5" stroke-linecap="round"/><path d="M156.27194,181.35091l-8.25147,18.44444l-32.52046,4.8538" fill="none" stroke="#2a342a" stroke-width="2.5" stroke-linecap="round"/><path d="M159.18424,218.2398l-10.19298,-19.90059" fill="none" stroke="#2a342a" stroke-width="2.5" stroke-linecap="round"/><path d="M252.37723,102.71933l0.97076,6.79532l-8.73685,10.67836" fill="none" stroke="#2a342a" stroke-width="2.5" stroke-linecap="round"/><path d="M276.16085,259.49709l9.22222,13.59064" fill="none" stroke="#2a342a" stroke-width="2.5" stroke-linecap="round"/><path d="M281.01464,264.35089l8.73684,-7.2807" fill="none" stroke="#2a342a" stroke-width="2.5" stroke-linecap="round"/><path d="M413.52342,187.66085l-2.4269,13.10526" fill="none" stroke="#2a342a" stroke-width="2.5" stroke-linecap="round"/><path d="M34.75001,186.50003c0,-1.38071 1.11929,-2.5 2.5,-2.5c1.38071,0 2.5,1.11929 2.5,2.5c0,1.38071 -1.11929,2.5 -2.5,2.5c-1.38071,0 -2.5,-1.11929 -2.5,-2.5z" fill="#565956" stroke="none" stroke-width="0.5" stroke-linecap="butt"/><path d="M115.25003,85.50003c0,-1.38071 1.11929,-2.5 2.5,-2.5c1.38071,0 2.5,1.11929 2.5,2.5c0,1.38071 -1.11929,2.5 -2.5,2.5c-1.38071,0 -2.5,-1.11929 -2.5,-2.5z" fill="#565956" stroke="none" stroke-width="0.5" stroke-linecap="butt"/><path d="M205.75003,171.00003c0,-1.38071 1.11929,-2.5 2.5,-2.5c1.38071,0 2.5,1.11929 2.5,2.5c0,1.38071 -1.11929,2.5 -2.5,2.5c-1.38071,0 -2.5,-1.11929 -2.5,-2.5z" fill="#565956" stroke="none" stroke-width="0.5" stroke-linecap="butt"/><path d="M302.00003,322.00003c0,-1.38071 1.11929,-2.5 2.5,-2.5c1.38071,0 2.5,1.11929 2.5,2.5c0,1.38071 -1.11929,2.5 -2.5,2.5c-1.38071,0 -2.5,-1.11929 -2.5,-2.5z" fill="#565956" stroke="none" stroke-width="0.5" stroke-linecap="butt"/><path d="M452.00003,220.00003c0,-1.38071 1.11929,-2.5 2.5,-2.5c1.38071,0 2.5,1.11929 2.5,2.5c0,1.38071 -1.11929,2.5 -2.5,2.5c-1.38071,0 -2.5,-1.11929 -2.5,-2.5z" fill="#565956" stroke="none" stroke-width="0.5" stroke-linecap="butt"/><path d="M390.00003,70.00002c0,-1.38071 1.11929,-2.5 2.5,-2.5c1.38071,0 2.5,1.11929 2.5,2.5c0,1.38071 -1.11929,2.5 -2.5,2.5c-1.38071,0 -2.5,-1.11929 -2.5,-2.5z" fill="#565956" stroke="none" stroke-width="0.5" stroke-linecap="butt"/><path d="M144,13.00003c0,-1.38071 1.11929,-2.5 2.5,-2.5c1.38071,0 2.5,1.11929 2.5,2.5c0,1.38071 -1.11929,2.5 -2.5,2.5c-1.38071,0 -2.5,-1.11929 -2.5,-2.5z" fill="#565956" stroke="none" stroke-width="0.5" stroke-linecap="butt"/><path d="M458.00003,26.00003c0,-1.38071 1.11929,-2.5 2.5,-2.5c1.38071,0 2.5,1.11929 2.5,2.5c0,1.38071 -1.11929,2.5 -2.5,2.5c-1.38071,0 -2.5,-1.11929 -2.5,-2.5z" fill="#565956" stroke="none" stroke-width="0.5" stroke-linecap="butt"/><path d="M36.00001,345.00003c0,-1.38071 1.11929,-2.5 2.5,-2.5c1.38071,0 2.5,1.11929 2.5,2.5c0,1.38071 -1.11929,2.5 -2.5,2.5c-1.38071,0 -2.5,-1.11929 -2.5,-2.5z" fill="#565956" stroke="none" stroke-width="0.5" stroke-linecap="butt"/><path d="M100.25003,96.00003c0,-0.69035 0.55965,-1.25 1.25,-1.25c0.69035,0 1.25,0.55965 1.25,1.25c0,0.69035 -0.55965,1.25 -1.25,1.25c-0.69035,0 -1.25,-0.55965 -1.25,-1.25z" fill="#565956" stroke="none" stroke-width="0.5" stroke-linecap="butt"/><path d="M124.25003,102.00003c0,-0.69035 0.55965,-1.25 1.25,-1.25c0.69035,0 1.25,0.55965 1.25,1.25c0,0.69035 -0.55965,1.25 -1.25,1.25c-0.69035,0 -1.25,-0.55965 -1.25,-1.25z" fill="#565956" stroke="none" stroke-width="0.5" stroke-linecap="butt"/><path d="M375.25003,85.00003c0,-0.69035 0.55964,-1.25 1.25,-1.25c0.69036,0 1.25,0.55965 1.25,1.25c0,0.69035 -0.55964,1.25 -1.25,1.25c-0.69036,0 -1.25,-0.55965 -1.25,-1.25z" fill="#565956" stroke="none" stroke-width="0.5" stroke-linecap="butt"/><path d="M392.25003,25.00003c0,-0.69036 0.55964,-1.25 1.25,-1.25c0.69036,0 1.25,0.55964 1.25,1.25c0,0.69036 -0.55964,1.25 -1.25,1.25c-0.69036,0 -1.25,-0.55964 -1.25,-1.25z" fill="#565956" stroke="none" stroke-width="0.5" stroke-linecap="butt"/><path d="M451.25003,199.00003c0,-0.69036 0.55964,-1.25 1.25,-1.25c0.69036,0 1.25,0.55964 1.25,1.25c0,0.69036 -0.55964,1.25 -1.25,1.25c-0.69036,0 -1.25,-0.55964 -1.25,-1.25z" fill="#565956" stroke="none" stroke-width="0.5" stroke-linecap="butt"/><path d="M435.25003,239.00003c0,-0.69036 0.55964,-1.25 1.25,-1.25c0.69036,0 1.25,0.55964 1.25,1.25c0,0.69036 -0.55964,1.25 -1.25,1.25c-0.69036,0 -1.25,-0.55964 -1.25,-1.25z" fill="#565956" stroke="none" stroke-width="0.5" stroke-linecap="butt"/><path d="M278.25003,324.00003c0,-0.69036 0.55964,-1.25 1.25,-1.25c0.69036,0 1.25,0.55964 1.25,1.25c0,0.69036 -0.55964,1.25 -1.25,1.25c-0.69036,0 -1.25,-0.55964 -1.25,-1.25z" fill="#565956" stroke="none" stroke-width="0.5" stroke-linecap="butt"/><path d="M297.25003,300.00003c0,-0.69036 0.55964,-1.25 1.25,-1.25c0.69036,0 1.25,0.55964 1.25,1.25c0,0.69036 -0.55964,1.25 -1.25,1.25c-0.69036,0 -1.25,-0.55964 -1.25,-1.25z" fill="#565956" stroke="none" stroke-width="0.5" stroke-linecap="butt"/><path d="M162.25,338.00003c0,-0.69036 0.55964,-1.25 1.25,-1.25c0.69036,0 1.25,0.55964 1.25,1.25c0,0.69036 -0.55964,1.25 -1.25,1.25c-0.69036,0 -1.25,-0.55964 -1.25,-1.25z" fill="#565956" stroke="none" stroke-width="0.5" stroke-linecap="butt"/><path d="M60.25003,312.00003c0,-0.69036 0.55965,-1.25 1.25,-1.25c0.69035,0 1.25,0.55964 1.25,1.25c0,0.69036 -0.55965,1.25 -1.25,1.25c-0.69035,0 -1.25,-0.55964 -1.25,-1.25z" fill="#565956" stroke="none" stroke-width="0.5" stroke-linecap="butt"/><path d="M7.25003,347.00003c0,-0.69036 0.55964,-1.25 1.25,-1.25c0.69036,0 1.25,0.55964 1.25,1.25c0,0.69036 -0.55964,1.25 -1.25,1.25c-0.69036,0 -1.25,-0.55964 -1.25,-1.25z" fill="#565956" stroke="none" stroke-width="0.5" stroke-linecap="butt"/><path d="M22.25003,189.00003c0,-0.69036 0.55964,-1.25 1.25,-1.25c0.69036,0 1.25,0.55964 1.25,1.25c0,0.69036 -0.55964,1.25 -1.25,1.25c-0.69036,0 -1.25,-0.55964 -1.25,-1.25z" fill="#565956" stroke="none" stroke-width="0.5" stroke-linecap="butt"/><path d="M46.25003,168.00003c0,-0.69036 0.55965,-1.25 1.25,-1.25c0.69035,0 1.25,0.55964 1.25,1.25c0,0.69036 -0.55965,1.25 -1.25,1.25c-0.69035,0 -1.25,-0.55964 -1.25,-1.25z" fill="#565956" stroke="none" stroke-width="0.5" stroke-linecap="butt"/></g></g></svg>