<svg version="1.1" xmlns="http://www.w3.org/2000/svg" xmlns:xlink="http://www.w3.org/1999/xlink" width="120.57962" height="199.29938" viewBox="0,0,120.57962,199.29938"><g transform="translate(-355.10579,-80.3503)"><g data-paper-data="{&quot;isPaintingLayer&quot;:true}" fill-rule="nonzero" stroke-linecap="butt" stroke-linejoin="miter" stroke-miterlimit="10" stroke-dasharray="" stroke-dashoffset="0" style="mix-blend-mode: normal"><path d="M356.35579,278.39968v-196.79938h118.07962v196.79938z" fill="#7f7f7f" stroke="#5e5e5e" stroke-width="2.5"/><path d="M356.35579,278.39968v-50.25h118.07962v50.25z" fill="#7f7f7f" stroke="#5e5e5e" stroke-width="2.5"/><text transform="translate(398.03573,114.75659) scale(0.18429,0.18429)" font-size="40" xml:space="preserve" fill="#ffffff" fill-rule="nonzero" stroke="none" stroke-width="1" stroke-linecap="butt" stroke-linejoin="miter" stroke-miterlimit="10" stroke-dasharray="" stroke-dashoffset="0" font-family="Sans Serif" font-weight="normal" text-anchor="start" style="mix-blend-mode: normal"><tspan x="0" dy="0">(Machine)</tspan></text><text transform="translate(386.57357,102.62892) scale(0.45777,0.45777)" font-size="40" xml:space="preserve" fill="#ffffff" fill-rule="nonzero" stroke="none" stroke-width="1" stroke-linecap="butt" stroke-linejoin="miter" stroke-miterlimit="10" stroke-dasharray="" stroke-dashoffset="0" font-family="Sans Serif" font-weight="normal" text-anchor="start" style="mix-blend-mode: normal"><tspan x="0" dy="0">CHEST</tspan></text><text transform="translate(361.27651,124.32842) scale(0.21265,0.21265)" font-size="40" xml:space="preserve" fill="#ffffff" fill-rule="nonzero" stroke="none" stroke-width="1" stroke-linecap="butt" stroke-linejoin="miter" stroke-miterlimit="10" stroke-dasharray="" stroke-dashoffset="0" font-family="Sans Serif" font-weight="normal" text-anchor="start" style="mix-blend-mode: normal"><tspan x="0" dy="0">The Chest is used to store</tspan><tspan x="0" dy="46.150000000000006px">large amounts of items</tspan><tspan x="0" dy="46.150000000000006px">in one place. Select an</tspan><tspan x="0" dy="46.150000000000006px">item and click "deposit" to</tspan><tspan x="0" dy="46.150000000000006px">put all of that item into</tspan><tspan x="0" dy="46.150000000000006px">a chest. If you want those</tspan><tspan x="0" dy="46.150000000000006px">items back, select the item</tspan><tspan x="0" dy="46.150000000000006px">you want and click </tspan><tspan x="0" dy="46.150000000000006px">"withdraw" to get them</tspan><tspan x="0" dy="46.150000000000006px">back in your inventory.</tspan></text><path d="M381.38326,238.81757c0.34352,-0.10001 0.70684,-0.19057 1.02213,-0.3575c-0.36769,1.55552 2.49033,2.96888 3.53308,3.503c0.98471,0.50439 2.29472,0.40012 3.34355,0.40217c0.49848,0.00097 1.01952,0.13735 1.49944,0.00258c0.04171,-0.01171 0.08894,-0.0429 0.13705,-0.08528c-0.84907,1.76466 2.69748,3.28258 4.11337,3.58885c0.53413,-0.10035 1.08121,-0.14864 1.60334,-0.29946c0.05515,-0.01593 0.12009,-0.03893 0.19045,-0.06746c-0.10411,0.26547 -0.18487,0.54721 -0.24849,0.75786c-0.63037,2.08741 -1.38425,4.10204 -2.20006,6.14156c-1.89609,4.74023 -4.49192,9.0608 -7.08549,13.45483c-0.62876,0.61946 -1.65407,2.19522 -2.37789,2.56625c-1.1829,0.60634 -1.27951,-3.32897 -1.69122,-3.58185c-1.85355,-1.13846 -3.45958,1.73826 -4.08541,1.33717c-0.72725,-0.46609 -1.35039,-1.13719 -2.15025,-1.46332c-1.32465,-0.54011 -4.04676,-1.61284 -5.464,-1.59676c-1.55622,0.01766 -3.43675,2.35662 -2.33159,-0.03408c3.10266,-7.83823 5.02719,-16.11403 8.13174,-23.95986c1.36321,0.01993 2.72952,0.0787 4.06025,-0.30872z" data-paper-data="{&quot;noHover&quot;:false,&quot;origItem&quot;:[&quot;Path&quot;,{&quot;applyMatrix&quot;:true,&quot;segments&quot;:[[[59.30746,205.25813],[1.36321,0.01993],[-3.10455,7.84583]],[[51.19866,229.14253],[3.10266,-7.83823],[-1.10516,2.3907]],[[53.52742,229.17297],[-1.55622,0.01766],[1.41724,-0.01608]],[[58.97645,230.75781],[-1.32465,-0.54011],[0.79985,0.32613]],[[61.1176,232.21748],[-0.72725,-0.46609],[0.62583,0.40109]],[[65.18734,230.87835],[-1.85355,-1.13846],[0.41171,0.25288]],[[66.87337,234.46064],[-1.1829,0.60634],[0.72383,-0.37102]],[[69.24122,231.89686],[-0.62876,0.61946],[2.59357,-4.39403]],[[76.29383,218.4937],[-1.89609,4.74023],[0.81581,-2.03953]],[[78.49941,212.37077],[-0.63037,2.08741],[0.06362,-0.21066]],[[78.74873,211.61441],[-0.10411,0.26547],[-0.07035,0.02853]],[[78.55833,211.68197],[0.05515,-0.01593],[-0.52213,0.15082]],[[76.95595,211.98303],[0.53413,-0.10035],[-1.41589,-0.30627]],[[72.85574,208.40826],[-0.84907,1.76466],[-0.04811,0.04238]],[[72.71888,208.49367],[0.04171,-0.01171],[-0.47992,0.13477]],[[71.22344,208.49367],[0.49848,0.00097],[-1.04882,-0.00205]],[[67.89198,208.09653],[0.98471,0.50439],[-1.04275,-0.53412]],[[64.37334,204.59523],[-0.36769,1.55552],[-0.31528,0.16693]],[[63.35471,204.9525],[0.34352,-0.10001],[-1.33073,0.38742]]],&quot;closed&quot;:true}]}" fill="#9a6d4e" stroke="none" stroke-width="0.5"/><path d="M371.67399,263.97548c-0.88388,-0.88388 0,-1.76777 0,-1.76777l0.3105,-0.25772c0.23326,-0.38618 0.46652,-0.77236 0.69978,-1.15853c1.09789,-2.77052 2.05651,-5.67329 2.91251,-8.52412c0.52397,-1.74503 0.13444,-3.64444 0.78,-5.3286c0.24775,-0.64634 1.05068,-1.50774 1.18466,-2.27804c0.09932,-0.57107 -0.17207,-1.21193 0.0726,-1.73741c0.95499,-2.05108 2.9447,-1.61207 3.73285,-3.72448c0,0 0.46424,-1.1606 1.62483,-0.69636c1.1606,0.46424 0.69636,1.62483 0.69636,1.62483c-0.61454,1.46772 -0.53654,1.80295 -1.96792,2.82247c-0.54443,0.38778 -1.60126,0.28519 -1.77642,0.93024c-1.59986,5.89155 -2.64331,12.12843 -5.01984,18.02236c-0.26522,0.44462 -0.53044,0.88924 -0.79566,1.33386l-0.68646,0.73924c0,0 -0.88388,0.88388 -1.76777,0z" fill="#a57554" stroke="none" stroke-width="0.5"/><path d="M380.53355,258.35225c1.25,0 1.25,1.25 1.25,1.25l-0.02427,0.49438c-0.43976,2.19879 -0.9853,4.36713 -1.80981,6.45009c0,0 -0.46424,1.1606 -1.62483,0.69636c-1.1606,-0.46424 -0.69636,-1.62483 -0.69636,-1.62483c0.78154,-1.92996 1.27083,-3.96833 1.67955,-6.0119l-0.02427,-0.00409c0,0 0,-1.25 1.25,-1.25z" fill="#a57554" stroke="none" stroke-width="0.5"/><path d="M383.02328,253.71972c-0.03092,0.29575 -0.20972,1.15077 -1.24353,1.15077c-1.25,0 -1.25,-1.25 -1.25,-1.25l0.17813,-0.89236c2.21739,-3.67105 2.33139,-7.36687 3.89911,-11.28615c0,0 0.46424,-1.1606 1.62483,-0.69636c1.1606,0.46424 0.69636,1.62483 0.69636,1.62483c-1.56441,3.91103 -1.79377,7.63855 -3.9049,11.34926z" fill="#a57554" stroke="none" stroke-width="0.5"/><path d="M384.27214,269.07714c-1.25,0 -1.25,-1.25 -1.25,-1.25v-0.49848c0.02633,-2.02195 1.09243,-3.42563 1.25228,-5.35721c0.05812,-0.70229 -0.0963,-2.4891 0.01647,-3.10409c0.3977,-2.16874 2.13995,-4.13884 2.4924,-6.23099c0.18613,-1.1049 -0.38876,-2.11518 0.0726,-3.23285c0.63543,-1.53935 2.87829,-3.07894 3.82158,-4.65108c0,0 0.64312,-1.07187 1.71499,-0.42875c1.07187,0.64312 0.42875,1.71499 0.42875,1.71499c-0.13251,0.22085 -1.53335,2.56667 -1.6261,2.67185c-0.57659,0.65391 -1.72559,0.83258 -2.02952,1.6497c-0.31955,0.85912 0.24428,1.84851 0.0726,2.74891c-0.18768,0.98431 -0.93513,1.77658 -1.30774,2.70676c-0.89515,2.23462 -0.94146,4.06903 -1.16818,6.4019c-0.18176,1.87021 -1.27377,3.23237 -1.24012,5.11086v0.49848c0,0 0,1.25 -1.25,1.25z" fill="#8d6348" stroke="none" stroke-width="0.5"/><path d="M377.34096,239.17296c-3.10455,7.84583 -5.00614,16.04617 -8.1088,23.8844c-1.10516,2.3907 0.77254,0.04809 2.32876,0.03044c1.41724,-0.01608 4.12438,1.04473 5.44903,1.58484c0.79985,0.32613 1.4139,0.99358 2.14115,1.45967c0.62583,0.40109 2.2162,-2.47759 4.06974,-1.33914c0.41171,0.25288 0.50313,4.18863 1.68603,3.58229c0.72383,-0.37102 1.73909,-1.94431 2.36785,-2.56378c2.59357,-4.39403 5.15652,-8.66293 7.05261,-13.40316c0.81581,-2.03953 1.57521,-4.03553 2.20557,-6.12294c0.06362,-0.21066 0.1452,-0.49088 0.24932,-0.75635c-0.07035,0.02853 -0.13525,0.05163 -0.19039,0.06756c-0.52213,0.15082 -1.06825,0.20071 -1.60238,0.30106c-1.41589,-0.30627 -4.94928,-1.81011 -4.10021,-3.57477c-0.04811,0.04238 -0.09515,0.0737 -0.13687,0.08541c-0.47992,0.13477 -0.99696,0.00097 -1.49544,0c-1.04882,-0.00205 -2.34675,0.10724 -3.33146,-0.39715c-1.04275,-0.53412 -3.88633,-1.94578 -3.51864,-3.5013c-0.31528,0.16693 -0.67511,0.25726 -1.01863,0.35727c-1.33073,0.38742 -2.68404,0.32556 -4.04725,0.30563zM375.06084,238.1409c-0.00937,-0.06938 -0.01437,-0.14345 -0.01437,-0.22252c0,-1.25 1.25,-1.25 1.25,-1.25h0.49848c1.93613,0 3.31481,-0.43896 5.12709,-0.6959c0.79041,-0.11206 1.75681,-0.49752 2.39487,-0.01774c0.73801,0.55494 -0.14153,2.25594 0.67529,2.68655c0.71159,0.37512 1.42976,0.74118 2.11292,1.16587c1.66922,1.03768 4.55434,-0.99001 6.17778,0.65055c0.40412,0.40838 -0.4046,1.12911 -0.30909,1.69565c0.06441,0.38206 1.59836,1.18007 2.01564,1.24449c1.41584,-0.31406 3.61585,-1.77966 4.8377,0.15614c0.48848,0.77392 -1.3161,5.12171 -1.68318,6.04441c-2.4957,6.27327 -5.3905,11.98131 -8.89873,17.75181c-0.8061,0.81582 -2.5324,3.10671 -3.6139,3.41798c-1.10418,0.3178 -3.3712,-0.65716 -3.94238,-1.57745c-0.20748,-0.3343 -0.36631,-0.93689 -0.37077,-1.44388c-0.26621,0.20599 -0.55538,0.38825 -0.75515,0.46559c-0.67117,0.25984 -1.43688,0.48188 -2.1364,0.31258c-0.56783,-0.13742 -0.83366,-0.83037 -1.32284,-1.14977c-1.14215,-0.74573 -4.25152,-1.75844 -5.54288,-1.78747c-1.68845,-0.03795 -2.62499,2.37909 -4.62248,0.3816c-1.30215,-1.30215 -0.47893,-2.60375 -0.02747,-3.84052c3.17691,-7.84511 5.02228,-16.1112 8.14988,-23.98798z" fill="#704f39" stroke="none" stroke-width="0.5"/><text transform="translate(371.40252,259.47423) scale(0.5,0.5)" font-size="40" xml:space="preserve" fill="#ffffff" fill-rule="nonzero" stroke="none" stroke-width="1" stroke-linecap="butt" stroke-linejoin="miter" stroke-miterlimit="10" stroke-dasharray="" stroke-dashoffset="0" font-family="Sans Serif" font-weight="normal" text-anchor="start" style="mix-blend-mode: normal"><tspan x="0" dy="0">15</tspan></text><path d="M455.66725,246.71524c1.50309,0.50103 1.00206,2.00411 1.00206,2.00411l-0.39702,1.18337c-1.17865,4.31492 -3.38632,7.26404 -4.90169,11.32998c-0.53258,1.42899 -0.2996,3.07658 -0.8669,4.49214c-1.22417,3.05462 -3.73165,3.54645 -6.16775,2.95153l-1.01459,0.12683l-0.02719,-0.21756c-0.14561,0.06902 -0.29122,0.13803 -0.43682,0.20704l0.03972,-0.59047c-0.05493,-0.02264 -0.10969,-0.0457 -0.16424,-0.06918c-0.01769,-0.00395 -0.03536,-0.00792 -0.05304,-0.01188l-0.2635,0.52701l-1.65932,-0.82966c-0.12567,-0.05957 -0.24226,-0.1352 -0.3471,-0.22423c-1.88634,-0.44988 -3.74183,-0.9145 -5.66888,-1.35445c0,0 -1.54382,-0.35627 -1.18755,-1.90009c0.35627,-1.54382 1.90009,-1.18755 1.90009,-1.18755c2.74033,0.63851 5.29368,1.29686 8.03535,1.90308l0.01825,0.01293l0.002,-0.008l1.65787,0.41446c0.18087,0.04105 0.34999,0.11304 0.50149,0.21011c0.86051,-0.03365 1.64082,-0.19337 1.90765,-1.17258c1.49287,-5.47836 4.15015,-9.97578 5.63904,-15.44324l0.44798,-1.35167c0,0 0.50102,-1.50308 2.00411,-1.00205z" fill="#d3d3d3" stroke="none" stroke-width="0.5"/><path d="M444.64359,237.86192c2.98495,0.74624 6.80248,1.3328 9.39025,3.13315c0.79447,0.55273 -1.3744,4.64711 -1.74625,5.51403c-2.2894,5.33757 -5.38298,11.09214 -6.39147,16.84253c-2.4295,0.09892 -5.32761,-1.11084 -7.61484,-1.80369c-0.10392,-0.03148 -3.4602,-1.03349 -3.81454,-1.45332c-0.46428,-0.55006 0.81732,-1.18993 1.15312,-1.82661c0.99573,-1.88787 2.06731,-3.62962 2.96822,-5.55945c2.26711,-4.85638 3.92163,-9.94842 5.95457,-14.87177z" data-paper-data="{&quot;noHover&quot;:false,&quot;origItem&quot;:[&quot;Path&quot;,{&quot;applyMatrix&quot;:true,&quot;segments&quot;:[[[416.06851,312.0524],[0,0],[-3.20776,7.76851]],[[406.76863,335.38371],[3.57725,-7.66283],[-1.42153,3.04506]],[[402.06622,344.12437],[1.57115,-2.97885],[-0.52986,1.00461]],[[400.24372,347.00332],[-0.73258,-0.86794],[0.55912,0.66244]],[[406.23886,349.27834],[-0.16397,-0.04967],[3.60899,1.09324]],[[418.19363,352.11284],[-3.83349,0.15608],[1.59128,-9.07349]],[[428.20214,325.68187],[-3.61243,8.4221],[0.58673,-1.36791]],[[430.97534,317.00601],[1.25359,0.87214],[-4.08322,-2.84076]],[[416.22699,312.09202],[4.70993,1.17748],[0,0]]],&quot;closed&quot;:true}]}" fill="#d3d3d3" stroke="none" stroke-width="0.5"/><path d="M449.73772,256.52124c-1.12034,1.12034 -2.24067,0 -2.24067,0l-0.43448,-0.49186c-2.46772,-3.94969 -4.75843,-7.98532 -6.6531,-12.23763c0,0 -0.64348,-1.44784 0.80436,-2.09132c1.44784,-0.64349 2.09132,0.80436 2.09132,0.80436c1.82585,4.11934 4.05507,8.02331 6.44455,11.84515l-0.01197,-0.06936c0,0 1.12034,1.12033 0,2.24067z" fill="#e4e4e4" stroke="none" stroke-width="0.5"/><path d="M443.55394,237.47946c0.07464,-0.20282 0.20597,-0.41303 0.41619,-0.62325c1.12034,-1.12034 2.24067,0 2.24067,0l0.10522,0.11442c2.71123,2.27369 6.18987,5.97069 7.36718,9.36744c1.01543,2.92968 1.29754,5.65517 -3.90367,3.77789c-1.00085,-0.36124 -1.25795,-1.72961 -1.72646,-2.68496c-1.39593,-2.84652 -2.93703,-5.42752 -4.54951,-8.24587c0,0 -0.53515,-0.93652 0.05037,-1.70567z" fill="#e4e4e4" stroke="none" stroke-width="0.5"/><path d="M444.54139,237.90016c-2.03294,4.92335 -3.62676,9.93002 -5.89387,14.78639c-0.90091,1.92983 -1.98446,3.65159 -2.98019,5.53946c-0.3358,0.63668 -1.6193,1.27449 -1.15502,1.82456c0.35435,0.41983 3.69555,1.41033 3.79946,1.44181c2.28722,0.69285 5.14692,1.8953 7.57642,1.79639c1.00849,-5.75039 4.05356,-11.41325 6.34297,-16.75082c0.37184,-0.86692 2.55201,-4.94567 1.75754,-5.49839c-2.58777,-1.80035 -6.36192,-2.36804 -9.34688,-3.11428zM443.87135,234.61728c0.3798,-0.05599 0.694,0.02257 0.694,0.02257l0.84501,0.21125c3.08273,0.77068 8.72122,1.52012 10.93337,4.0683c2.02271,2.32996 0.321,4.98908 -0.54156,7.32695c-2.38609,6.46712 -4.95084,13.18504 -7.83563,19.43441c-4.11354,1.12623 -14.37643,-0.20706 -16.50944,-4.7894c-0.60293,-1.29527 2.41069,-5.85712 2.90177,-6.70517c3.4114,-5.89116 5.07204,-12.42518 7.73217,-18.63338c0,0 0.53795,-1.25521 1.78031,-0.93553z" fill="#b3b3b3" stroke="none" stroke-width="0.5"/><path d="M455.49891,250.20476c-0.43831,-0.46874 -0.43831,-1.14142 -0.43831,-1.14142l0.00162,-1.61822c-0.17077,-1.909 -0.59433,-3.68322 -0.8344,-5.57909c0,0 -0.19652,-1.57216 1.37564,-1.76868c1.57216,-0.19652 1.76868,1.37563 1.76868,1.37563c0.24398,1.98063 0.67126,3.82766 0.85562,5.82854l0.00042,0.45318c0.74782,0.50444 0.62273,1.50515 0.62273,1.50515c-0.96966,7.71968 -5.51764,14.26293 -9.28038,20.8698l-0.67781,0.75676c0,0 -0.46668,0.46668 -1.09884,0.49644c-0.45842,0.60137 -1.28901,0.60137 -1.28901,0.60137l-0.59553,-0.0473c-3.67041,-0.92818 -11.99786,-2.56886 -13.71545,-5.9137c-0.72817,-1.41803 -0.57714,-3.39506 -0.58232,-4.9185c0,0 0,-1.58439 1.58439,-1.58439c1.58439,0 1.58439,1.58439 1.58439,1.58439c-0.00395,1.00311 -0.12283,2.52764 0.26269,3.5316c0.48695,1.26809 1.19624,0.74476 2.38277,1.06902c2.42273,0.66211 4.72495,1.7131 7.09521,2.51733c0.14198,-1.29787 0.27741,-2.59645 0.4073,-3.89558c0,0 0.15766,-1.57653 1.73419,-1.41888c1.57653,0.15765 1.41888,1.73418 1.41888,1.73418c-0.07101,0.71007 -0.14386,1.41997 -0.21909,2.12962c3.09612,-5.22692 6.52315,-10.5738 7.6366,-16.56727z" fill="#b3b3b3" stroke="none" stroke-width="0.5"/><text transform="translate(438.79566,259.53557) scale(0.5,0.5)" font-size="40" xml:space="preserve" fill="#ffffff" fill-rule="nonzero" stroke="none" stroke-width="1" stroke-linecap="butt" stroke-linejoin="miter" stroke-miterlimit="10" stroke-dasharray="" stroke-dashoffset="0" font-family="Sans Serif" font-weight="normal" text-anchor="start" style="mix-blend-mode: normal"><tspan x="0" dy="0">1</tspan></text><path d="M420.96138,253.60668c0,1.25 -1.25,1.25 -1.25,1.25c-0.94001,0 -1.9632,0 -3.01069,0c-0.0329,0.79813 -0.05509,1.59782 -0.05509,2.40181v1.32793c0,0 0,1.25 -1.25,1.25c-1.25,0 -1.25,-1.25 -1.25,-1.25v-1.32793c0,-0.80492 0.02214,-1.60444 0.05499,-2.40181c-1.08584,0 -2.14786,0 -3.12077,0c0,0 -1.25,0 -1.25,-1.25c0,-1.25 1.25,-1.25 1.25,-1.25c1.08199,0 2.16398,0 3.24597,0c0.078,-1.45386 0.15179,-2.91185 0.15179,-4.39371c0,0 0,-1.25 1.25,-1.25c1.25,0 1.25,1.25 1.25,1.25c0,1.48009 -0.07375,2.93909 -0.15173,4.39371c0.74052,0 1.48104,0 2.22156,0h0.66397c0,0 1.25,0 1.25,1.25z" fill="#ffffff" stroke="none" stroke-width="0.5"/></g></g></svg>