<svg version="1.1" xmlns="http://www.w3.org/2000/svg" xmlns:xlink="http://www.w3.org/1999/xlink" width="52.75" height="52.75" viewBox="0,0,52.75,52.75"><g transform="translate(-213.625,-153.625)"><g data-paper-data="{&quot;isPaintingLayer&quot;:true}" fill-rule="nonzero" stroke-linejoin="miter" stroke-miterlimit="10" stroke-dasharray="" stroke-dashoffset="0" style="mix-blend-mode: normal"><path d="M214.875,205.125v-50.25h50.25v50.25z" fill="#7f7f7f" stroke="#5e5e5e" stroke-width="2.5" stroke-linecap="butt"/><path d="M220.7642,199.23585v-38.47171h38.47171v38.47171z" fill="#9a6d4e" stroke="#704f39" stroke-width="1.5" stroke-linecap="butt"/><path d="M220.76421,199.23586v-9.09671h38.47171v9.09671z" fill="#845d44" stroke="#704f39" stroke-width="1.5" stroke-linecap="butt"/><path d="M243.45813,160.76414v7.44444l-21.66667,-0.11111" fill="none" stroke="#704f39" stroke-width="1.5" stroke-linecap="round"/><path d="M243.79146,168.09747h15.44444" fill="none" stroke="#704f39" stroke-width="1.5" stroke-linecap="round"/><path d="M235.50168,169.26516l-0.11111,3.44444h-14.55556" fill="none" stroke="#704f39" stroke-width="1.5" stroke-linecap="round"/><path d="M250.94613,169.15405l-0.11111,3.55556h-14.88889" fill="none" stroke="#704f39" stroke-width="1.5" stroke-linecap="round"/><path d="M250.94613,172.70961l7.44444,-0.11111" fill="none" stroke="#704f39" stroke-width="1.5" stroke-linecap="round"/><path d="M258.16836,179.48739l-19.66667,-0.11111l0.11111,-5.66667" fill="none" stroke="#704f39" stroke-width="1.5" stroke-linecap="round"/><path d="M238.16835,179.26516h-16.44444" fill="none" stroke="#704f39" stroke-width="1.5" stroke-linecap="round"/><path d="M227.72391,179.26516v-5.33333" fill="none" stroke="#704f39" stroke-width="1.5" stroke-linecap="round"/><path d="M234.94614,180.15405l0.11111,4.77778l-13.66667,0.11111" fill="none" stroke="#704f39" stroke-width="1.5" stroke-linecap="round"/><path d="M235.50168,185.15405l22.66667,-0.22222" fill="none" stroke="#704f39" stroke-width="1.5" stroke-linecap="round"/><path d="M249.39057,185.5985v3.88889" fill="none" stroke="#704f39" stroke-width="1.5" stroke-linecap="round"/><path d="M231.94613,185.70961l-0.11111,3.44444" fill="none" stroke="#704f39" stroke-width="1.5" stroke-linecap="round"/><path d="M240.41834,166.15405c0,-0.41421 0.33579,-0.75 0.75,-0.75c0.41421,0 0.75,0.33579 0.75,0.75c0,0.41421 -0.33579,0.75 -0.75,0.75c-0.41421,0 -0.75,-0.33579 -0.75,-0.75z" fill="#797979" stroke="none" stroke-width="0.5" stroke-linecap="butt"/><path d="M240.41834,162.82072c0,-0.41421 0.33579,-0.75 0.75,-0.75c0.41421,0 0.75,0.33579 0.75,0.75c0,0.41421 -0.33579,0.75 -0.75,0.75c-0.41421,0 -0.75,-0.33579 -0.75,-0.75z" fill="#797979" stroke="none" stroke-width="0.5" stroke-linecap="butt"/><path d="M245.30723,166.04294c0,-0.41421 0.33579,-0.75 0.75,-0.75c0.41421,0 0.75,0.33579 0.75,0.75c0,0.41421 -0.33579,0.75 -0.75,0.75c-0.41421,0 -0.75,-0.33579 -0.75,-0.75z" fill="#797979" stroke="none" stroke-width="0.5" stroke-linecap="butt"/><path d="M245.08501,162.70961c0,-0.41421 0.33579,-0.75 0.75,-0.75c0.41421,0 0.75,0.33579 0.75,0.75c0,0.41421 -0.33579,0.75 -0.75,0.75c-0.41421,0 -0.75,-0.33579 -0.75,-0.75z" fill="#797979" stroke="none" stroke-width="0.5" stroke-linecap="butt"/><path d="M252.41834,170.48739c0,-0.41421 0.33579,-0.75 0.75,-0.75c0.41421,0 0.75,0.33579 0.75,0.75c0,0.41421 -0.33579,0.75 -0.75,0.75c-0.41421,0 -0.75,-0.33579 -0.75,-0.75z" fill="#797979" stroke="none" stroke-width="0.5" stroke-linecap="butt"/><path d="M247.64057,170.37627c0,-0.41421 0.33579,-0.75 0.75,-0.75c0.41421,0 0.75,0.33579 0.75,0.75c0,0.41421 -0.33579,0.75 -0.75,0.75c-0.41421,0 -0.75,-0.33579 -0.75,-0.75z" fill="#797979" stroke="none" stroke-width="0.5" stroke-linecap="butt"/><path d="M236.9739,170.04294c0,-0.41421 0.33579,-0.75 0.75,-0.75c0.41421,0 0.75,0.33579 0.75,0.75c0,0.41421 -0.33579,0.75 -0.75,0.75c-0.41421,0 -0.75,-0.33579 -0.75,-0.75z" fill="#797979" stroke="none" stroke-width="0.5" stroke-linecap="butt"/><path d="M232.19612,170.26516c0,-0.41421 0.33579,-0.75 0.75,-0.75c0.41421,0 0.75,0.33579 0.75,0.75c0,0.41421 -0.33579,0.75 -0.75,0.75c-0.41421,0 -0.75,-0.33579 -0.75,-0.75z" fill="#797979" stroke="none" stroke-width="0.5" stroke-linecap="butt"/><path d="M224.9739,174.82072c0,-0.41421 0.33579,-0.75 0.75,-0.75c0.41421,0 0.75,0.33579 0.75,0.75c0,0.41421 -0.33579,0.75 -0.75,0.75c-0.41421,0 -0.75,-0.33579 -0.75,-0.75z" fill="#797979" stroke="none" stroke-width="0.5" stroke-linecap="butt"/><path d="M224.9739,177.37627c0,-0.41421 0.33579,-0.75 0.75,-0.75c0.41421,0 0.75,0.33579 0.75,0.75c0,0.41421 -0.33579,0.75 -0.75,0.75c-0.41421,0 -0.75,-0.33579 -0.75,-0.75z" fill="#797979" stroke="none" stroke-width="0.5" stroke-linecap="butt"/><path d="M229.41834,174.5985c0,-0.41421 0.33579,-0.75 0.75,-0.75c0.41421,0 0.75,0.33579 0.75,0.75c0,0.41421 -0.33579,0.75 -0.75,0.75c-0.41421,0 -0.75,-0.33579 -0.75,-0.75z" fill="#797979" stroke="none" stroke-width="0.5" stroke-linecap="butt"/><path d="M229.30723,177.26516c0,-0.41421 0.33579,-0.75 0.75,-0.75c0.41421,0 0.75,0.33579 0.75,0.75c0,0.41421 -0.33579,0.75 -0.75,0.75c-0.41421,0 -0.75,-0.33579 -0.75,-0.75z" fill="#797979" stroke="none" stroke-width="0.5" stroke-linecap="butt"/><path d="M235.64057,174.82072c0,-0.41421 0.33579,-0.75 0.75,-0.75c0.41421,0 0.75,0.33579 0.75,0.75c0,0.41421 -0.33579,0.75 -0.75,0.75c-0.41421,0 -0.75,-0.33579 -0.75,-0.75z" fill="#797979" stroke="none" stroke-width="0.5" stroke-linecap="butt"/><path d="M235.64057,177.26516c0,-0.41421 0.33579,-0.75 0.75,-0.75c0.41421,0 0.75,0.33579 0.75,0.75c0,0.41421 -0.33579,0.75 -0.75,0.75c-0.41421,0 -0.75,-0.33579 -0.75,-0.75z" fill="#797979" stroke="none" stroke-width="0.5" stroke-linecap="butt"/><path d="M239.86279,174.48739c0,-0.41421 0.33579,-0.75 0.75,-0.75c0.41421,0 0.75,0.33579 0.75,0.75c0,0.41421 -0.33579,0.75 -0.75,0.75c-0.41421,0 -0.75,-0.33579 -0.75,-0.75z" fill="#797979" stroke="none" stroke-width="0.5" stroke-linecap="butt"/><path d="M239.9739,177.48739c0,-0.41421 0.33579,-0.75 0.75,-0.75c0.41421,0 0.75,0.33579 0.75,0.75c0,0.41421 -0.33579,0.75 -0.75,0.75c-0.41421,0 -0.75,-0.33579 -0.75,-0.75z" fill="#797979" stroke="none" stroke-width="0.5" stroke-linecap="butt"/><path d="M256.30723,174.37627c0,-0.41421 0.33579,-0.75 0.75,-0.75c0.41421,0 0.75,0.33579 0.75,0.75c0,0.41421 -0.33579,0.75 -0.75,0.75c-0.41421,0 -0.75,-0.33579 -0.75,-0.75z" fill="#797979" stroke="none" stroke-width="0.5" stroke-linecap="butt"/><path d="M256.41834,177.15405c0,-0.41421 0.33579,-0.75 0.75,-0.75c0.41421,0 0.75,0.33579 0.75,0.75c0,0.41421 -0.33579,0.75 -0.75,0.75c-0.41421,0 -0.75,-0.33579 -0.75,-0.75z" fill="#797979" stroke="none" stroke-width="0.5" stroke-linecap="butt"/><path d="M236.64057,181.04294c0,-0.41421 0.33579,-0.75 0.75,-0.75c0.41421,0 0.75,0.33579 0.75,0.75c0,0.41421 -0.33579,0.75 -0.75,0.75c-0.41421,0 -0.75,-0.33579 -0.75,-0.75z" fill="#797979" stroke="none" stroke-width="0.5" stroke-linecap="butt"/><path d="M236.86279,183.37627c0,-0.41421 0.33579,-0.75 0.75,-0.75c0.41421,0 0.75,0.33579 0.75,0.75c0,0.41421 -0.33579,0.75 -0.75,0.75c-0.41421,0 -0.75,-0.33579 -0.75,-0.75z" fill="#797979" stroke="none" stroke-width="0.5" stroke-linecap="butt"/><path d="M232.41834,180.82072c0,-0.41421 0.33579,-0.75 0.75,-0.75c0.41421,0 0.75,0.33579 0.75,0.75c0,0.41421 -0.33579,0.75 -0.75,0.75c-0.41421,0 -0.75,-0.33579 -0.75,-0.75z" fill="#797979" stroke="none" stroke-width="0.5" stroke-linecap="butt"/><path d="M232.41834,182.93183c0,-0.41421 0.33579,-0.75 0.75,-0.75c0.41421,0 0.75,0.33579 0.75,0.75c0,0.41421 -0.33579,0.75 -0.75,0.75c-0.41421,0 -0.75,-0.33579 -0.75,-0.75z" fill="#797979" stroke="none" stroke-width="0.5" stroke-linecap="butt"/><path d="M232.86279,187.04294c0,-0.41421 0.33579,-0.75 0.75,-0.75c0.41421,0 0.75,0.33579 0.75,0.75c0,0.41421 -0.33579,0.75 -0.75,0.75c-0.41421,0 -0.75,-0.33579 -0.75,-0.75z" fill="#797979" stroke="none" stroke-width="0.5" stroke-linecap="butt"/><path d="M232.86279,188.5985c0,-0.41421 0.33579,-0.75 0.75,-0.75c0.41421,0 0.75,0.33579 0.75,0.75c0,0.41421 -0.33579,0.75 -0.75,0.75c-0.41421,0 -0.75,-0.33579 -0.75,-0.75z" fill="#797979" stroke="none" stroke-width="0.5" stroke-linecap="butt"/><path d="M229.52945,186.5985c0,-0.41421 0.33579,-0.75 0.75,-0.75c0.41421,0 0.75,0.33579 0.75,0.75c0,0.41421 -0.33579,0.75 -0.75,0.75c-0.41421,0 -0.75,-0.33579 -0.75,-0.75z" fill="#797979" stroke="none" stroke-width="0.5" stroke-linecap="butt"/><path d="M229.52945,188.5985c0,-0.41421 0.33579,-0.75 0.75,-0.75c0.41421,0 0.75,0.33579 0.75,0.75c0,0.41421 -0.33579,0.75 -0.75,0.75c-0.41421,0 -0.75,-0.33579 -0.75,-0.75z" fill="#797979" stroke="none" stroke-width="0.5" stroke-linecap="butt"/><path d="M250.75168,186.5985c0,-0.41421 0.33579,-0.75 0.75,-0.75c0.41421,0 0.75,0.33579 0.75,0.75c0,0.41421 -0.33579,0.75 -0.75,0.75c-0.41421,0 -0.75,-0.33579 -0.75,-0.75z" fill="#797979" stroke="none" stroke-width="0.5" stroke-linecap="butt"/><path d="M250.52945,188.5985c0,-0.41421 0.33579,-0.75 0.75,-0.75c0.41421,0 0.75,0.33579 0.75,0.75c0,0.41421 -0.33579,0.75 -0.75,0.75c-0.41421,0 -0.75,-0.33579 -0.75,-0.75z" fill="#797979" stroke="none" stroke-width="0.5" stroke-linecap="butt"/><path d="M246.52945,186.5985c0,-0.41421 0.33579,-0.75 0.75,-0.75c0.41421,0 0.75,0.33579 0.75,0.75c0,0.41421 -0.33579,0.75 -0.75,0.75c-0.41421,0 -0.75,-0.33579 -0.75,-0.75z" fill="#797979" stroke="none" stroke-width="0.5" stroke-linecap="butt"/><path d="M247.08501,188.70961c0,-0.41421 0.33579,-0.75 0.75,-0.75c0.41421,0 0.75,0.33579 0.75,0.75c0,0.41421 -0.33579,0.75 -0.75,0.75c-0.41421,0 -0.75,-0.33579 -0.75,-0.75z" fill="#797979" stroke="none" stroke-width="0.5" stroke-linecap="butt"/><path d="M256.64056,186.48739c0,-0.41421 0.33579,-0.75 0.75,-0.75c0.41421,0 0.75,0.33579 0.75,0.75c0,0.41421 -0.33579,0.75 -0.75,0.75c-0.41421,0 -0.75,-0.33579 -0.75,-0.75z" fill="#797979" stroke="none" stroke-width="0.5" stroke-linecap="butt"/><path d="M256.52945,188.5985c0,-0.41421 0.33579,-0.75 0.75,-0.75c0.41421,0 0.75,0.33579 0.75,0.75c0,0.41421 -0.33579,0.75 -0.75,0.75c-0.41421,0 -0.75,-0.33579 -0.75,-0.75z" fill="#797979" stroke="none" stroke-width="0.5" stroke-linecap="butt"/><path d="M221.9739,163.15405c0,-0.41421 0.33579,-0.75 0.75,-0.75c0.41421,0 0.75,0.33579 0.75,0.75c0,0.41421 -0.33579,0.75 -0.75,0.75c-0.41421,0 -0.75,-0.33579 -0.75,-0.75z" fill="#797979" stroke="none" stroke-width="0.5" stroke-linecap="butt"/><path d="M221.86279,166.15405c0,-0.41421 0.33579,-0.75 0.75,-0.75c0.41421,0 0.75,0.33579 0.75,0.75c0,0.41421 -0.33579,0.75 -0.75,0.75c-0.41421,0 -0.75,-0.33579 -0.75,-0.75z" fill="#797979" stroke="none" stroke-width="0.5" stroke-linecap="butt"/><path d="M227.16834,190.82072l-0.11111,7.55556" fill="none" stroke="#704f39" stroke-width="1.5" stroke-linecap="round"/><path d="M233.61279,198.93183l0.22222,-8.11111" fill="none" stroke="#704f39" stroke-width="1.5" stroke-linecap="round"/><path d="M236.94612,198.48738v-7.33333" fill="none" stroke="#704f39" stroke-width="1.5" stroke-linecap="round"/><path d="M244.61279,198.93183v-7.77778" fill="none" stroke="#704f39" stroke-width="1.5" stroke-linecap="round"/><path d="M249.39057,198.37627v-8" fill="none" stroke="#704f39" stroke-width="1.5" stroke-linecap="round"/><path d="M254.39057,190.70961l0.11111,7.77778" fill="none" stroke="#704f39" stroke-width="1.5" stroke-linecap="round"/><path d="M234.39057,195.15405l1.66667,-0.11111" fill="none" stroke="#704f39" stroke-width="1.5" stroke-linecap="round"/><path d="M250.05723,193.15405h3.55556" fill="none" stroke="#704f39" stroke-width="1.5" stroke-linecap="round"/></g></g></svg>