<svg version="1.1" xmlns="http://www.w3.org/2000/svg" xmlns:xlink="http://www.w3.org/1999/xlink" width="35.58878" height="42.53567" viewBox="0,0,35.58878,42.53567"><g transform="translate(-221.3649,-157.92777)"><g data-paper-data="{&quot;isPaintingLayer&quot;:true}" fill-rule="nonzero" stroke-linejoin="miter" stroke-miterlimit="10" stroke-dasharray="" stroke-dashoffset="0" style="mix-blend-mode: normal"><path d="M239.66974,198.95352c4.10858,0.00977 9.46649,-3.23645 11.30357,-6.96357c0.82341,-1.64681 1.60328,-3.16816 1.73701,-5.03972c0.03572,-0.49991 -0.2709,-3.19766 -1.30443,-1.44356c-0.23267,0.39488 0.08532,0.9227 0.01093,1.37496c-0.25016,1.5208 -1.23206,3.27284 -1.92287,4.63841c-1.76766,2.23186 -3.52258,3.83364 -5.91235,5.30758c-0.58247,0.35924 -3.55985,0.47938 -3.78725,0.89536c-0.14356,0.26262 -0.18486,0.7504 -0.22853,1.23054zM238.46494,200.41503c-0.71151,-0.23717 -0.47434,-0.94868 -0.47434,-0.94868c0.22301,-0.65947 0.20938,-2.11746 0.58689,-2.62044c0.8069,-1.07509 2.54332,-0.67887 3.65055,-1.00307c2.47877,-0.72579 4.44368,-3.20662 6.00241,-5.13124c0.58062,-1.17798 1.52458,-2.77141 1.70574,-4.07025c0.09672,-0.69342 -0.23718,-1.34266 0.25283,-2.01174c1.04721,-1.42991 3.59225,-1.08493 4.00973,0.5603c0.63755,2.51256 -0.80931,5.32188 -1.88379,7.47085c-2.14186,4.23399 -7.9383,7.78288 -12.64522,7.79276h-0.72573c0,0 -0.02434,0 -0.06426,-0.00438c-0.11558,0.02471 -0.25292,0.01986 -0.41482,-0.03411z" data-paper-data="{&quot;index&quot;:null}" fill="#704f39" stroke="none" stroke-width="0.5" stroke-linecap="butt"/><path d="M239.53164,198.99001c0.04367,-0.48014 0.15609,-1.03809 0.29966,-1.30071c0.2274,-0.41598 3.19101,-0.54673 3.77348,-0.90598c2.38977,-1.47394 4.0719,-3.02525 5.83956,-5.25711c0.69081,-1.36557 1.68622,-3.08919 1.93638,-4.60999c0.07439,-0.45226 -0.17582,-1.05334 0.05685,-1.44823c1.03352,-1.75411 1.3483,0.95211 1.31258,1.45202c-0.13373,1.87156 -0.90343,3.42368 -1.72684,5.07048c-1.83709,3.72712 -7.27889,7.00956 -11.38747,6.99979z" data-paper-data="{&quot;noHover&quot;:false,&quot;origItem&quot;:[&quot;Path&quot;,{&quot;applyMatrix&quot;:true,&quot;segments&quot;:[[[479.53365,318.87538],[0,0],[0.08734,0.96028]],[[479.9907,321.33646],[-0.28712,-0.52524],[0.4548,0.83196]],[[487.5652,323.12718],[-1.16493,-0.71849],[4.77954,2.94789]],[[499.38991,333.74235],[-3.53532,-4.46372],[1.38161,2.73113]],[[503.23564,343.01916],[-0.50032,-3.0416],[0.14878,0.90451]],[[503.21378,345.76907],[-0.46534,-0.78977],[2.06705,3.50821]],[[505.82264,342.88196],[0.07144,0.99982],[-0.26746,-3.74312]],[[502.34862,332.80253],[1.64681,3.29361],[-3.67417,-7.45424]],[[479.74147,318.87538],[8.21716,-0.01954],[0,0]]],&quot;closed&quot;:true}],&quot;index&quot;:null}" fill="#9a6d4e" stroke="none" stroke-width="0.5" stroke-linecap="butt"/><path d="M239.76683,159.43769c0.04367,0.48014 0.08496,0.96792 0.22852,1.23054c0.2274,0.41598 3.20478,0.53612 3.78725,0.89536c2.38977,1.47394 4.14469,3.07572 5.91235,5.30758c0.69081,1.36557 1.67271,3.1176 1.92287,4.63841c0.07439,0.45226 -0.2436,0.98007 -0.01093,1.37496c1.03352,1.75411 1.34015,-0.94365 1.30443,-1.44356c-0.13373,-1.87156 -0.9136,-3.39291 -1.73701,-5.03972c-1.83709,-3.72712 -7.195,-6.97334 -11.30357,-6.96357zM239.08075,157.94207c0.03992,-0.00439 0.06426,-0.00438 0.06426,-0.00438h0.72572c4.70692,0.00987 10.50336,3.55876 12.64522,7.79276c1.07449,2.14897 2.52135,4.95829 1.8838,7.47085c-0.41747,1.64524 -2.96251,1.99022 -4.00973,0.5603c-0.49001,-0.66908 -0.15611,-1.31832 -0.25284,-2.01174c-0.18116,-1.29883 -1.12511,-2.89227 -1.70574,-4.07025c-1.55873,-1.92461 -3.52364,-4.40545 -6.00241,-5.13124c-1.10724,-0.32421 -2.84365,0.07201 -3.65055,-1.00307c-0.37751,-0.50298 -0.36389,-1.96096 -0.58689,-2.62044c0,0 -0.23717,-0.71151 0.47434,-0.94868c0.1619,-0.05397 0.29924,-0.05882 0.41482,-0.03411z" fill="#704f39" stroke="none" stroke-width="0.5" stroke-linecap="butt"/><path d="M239.83684,159.40094c4.10858,-0.00977 9.55039,3.27266 11.38747,6.99979c0.82341,1.64681 1.59311,3.19893 1.72684,5.07048c0.03572,0.49991 -0.27906,3.20612 -1.31258,1.45201c-0.23267,-0.39488 0.01754,-0.99597 -0.05685,-1.44822c-0.25016,-1.5208 -1.24558,-3.24443 -1.93638,-4.60999c-1.76766,-2.23186 -3.44979,-3.78316 -5.83956,-5.25711c-0.58247,-0.35924 -3.54608,-0.49 -3.77348,-0.90598c-0.14356,-0.26262 -0.25599,-0.82057 -0.29966,-1.30071z" data-paper-data="{&quot;noHover&quot;:false,&quot;origItem&quot;:[&quot;Path&quot;,{&quot;applyMatrix&quot;:true,&quot;segments&quot;:[[[479.53365,318.87538],[0,0],[0.08734,0.96028]],[[479.9907,321.33646],[-0.28712,-0.52524],[0.4548,0.83196]],[[487.5652,323.12718],[-1.16493,-0.71849],[4.77954,2.94789]],[[499.38991,333.74235],[-3.53532,-4.46372],[1.38161,2.73113]],[[503.23564,343.01916],[-0.50032,-3.0416],[0.14878,0.90451]],[[503.21378,345.76907],[-0.46534,-0.78977],[2.06705,3.50821]],[[505.82264,342.88196],[0.07144,0.99982],[-0.26746,-3.74312]],[[502.34862,332.80253],[1.64681,3.29361],[-3.67417,-7.45424]],[[479.74147,318.87538],[8.21716,-0.01954],[0,0]]],&quot;closed&quot;:true}]}" fill="#9a6d4e" stroke="none" stroke-width="0.5" stroke-linecap="butt"/><path d="M254.61509,176.78236l0.00122,4.875l-32.5,0.00816l-0.00122,-4.875z" data-paper-data="{&quot;index&quot;:null}" fill="#91664a" stroke="#704f39" stroke-width="1.5" stroke-linecap="butt"/><path d="M227.36509,176.78921l0.00122,4.875l-5.125,0.00129l-0.00122,-4.875z" data-paper-data="{&quot;index&quot;:null}" fill="#9a6d4e" stroke="#704f39" stroke-width="1.5" stroke-linecap="butt"/><path d="M239.14501,160.13913l0.12095,38.22131" fill="none" stroke="#e6e6e6" stroke-width="1.5" stroke-linecap="round"/><path d="M255.45099,173.07512l0.00304,12.125l-6.25,0.00157l-0.00304,-12.125z" data-paper-data="{&quot;index&quot;:null}" fill="#9a6d4e" stroke="#704f39" stroke-width="1.5" stroke-linecap="butt"/><path d="M239.45719,197.82914c0.27614,-0.00007 0.50006,0.22373 0.50013,0.49987c0.00007,0.27614 -0.22373,0.50006 -0.49987,0.50013c-0.27614,0.00007 -0.50006,-0.22373 -0.50013,-0.49987c-0.00007,-0.27614 0.22373,-0.50006 0.49987,-0.50013z" data-paper-data="{&quot;index&quot;:null}" fill="#7d7d7d" stroke="none" stroke-width="0.5" stroke-linecap="butt"/><path d="M239.18949,159.57924c0.27614,-0.00007 0.50006,0.22373 0.50013,0.49987c0.00007,0.27614 -0.22373,0.50006 -0.49987,0.50013c-0.27614,0.00007 -0.50006,-0.22373 -0.50013,-0.49987c-0.00007,-0.27614 0.22373,-0.50006 0.49987,-0.50013z" data-paper-data="{&quot;index&quot;:null}" fill="#7d7d7d" stroke="none" stroke-width="0.5" stroke-linecap="butt"/><path d="M225.64283,179.30618c-0.24834,0.44727 -0.74533,0.22378 -0.74533,0.22378l-0.02935,-0.0722c-0.71049,0.00016 -1.39814,-0.05018 -2.08755,0.11054c0,0 -0.53896,0.12139 -0.67384,-0.36365c-0.13488,-0.48504 0.40407,-0.60643 0.40407,-0.60643c0.78979,-0.17298 1.54781,-0.14027 2.35702,-0.14046l0.52629,0.17767c0,0 0.49698,0.2235 0.24864,0.67077z" data-paper-data="{&quot;index&quot;:null}" fill="#7d7d7d" stroke="none" stroke-width="0.5" stroke-linecap="butt"/><path d="M256.20167,175.82493l0.00182,7.25l-7.625,0.00191l-0.00182,-7.25z" data-paper-data="{&quot;index&quot;:null}" fill="#999999" stroke="#7d7d7d" stroke-width="1.5" stroke-linecap="butt"/></g></g></svg>