<svg version="1.1" xmlns="http://www.w3.org/2000/svg" xmlns:xlink="http://www.w3.org/1999/xlink" width="30.29168" height="30.29168" viewBox="0,0,30.29168,30.29168"><defs><linearGradient x1="240" y1="165.60417" x2="240" y2="194.39583" gradientUnits="userSpaceOnUse" id="color-1"><stop offset="0" stop-color="#66b8ff"/><stop offset="1" stop-color="#6766ff"/></linearGradient></defs><g transform="translate(-224.85416,-164.85415)"><g data-paper-data="{&quot;isPaintingLayer&quot;:true}" fill-rule="nonzero" stroke-linecap="butt" stroke-linejoin="miter" stroke-miterlimit="10" stroke-dasharray="" stroke-dashoffset="0" style="mix-blend-mode: normal"><path d="M225.60417,194.39583v-28.79167h28.79167v28.79167z" fill="url(#color-1)" stroke="#ffffff" stroke-width="1.5"/><path d="M241.702,171.48854c0.26202,-0.30167 0.54307,-0.54947 0.8013,-0.54947c0.67315,0 0.96301,0.94289 1.48014,1.37383c0.94373,0.78644 1.79574,1.50835 2.34985,2.35534c1.94609,0.19473 1.97887,2.24415 0.49335,3.41923c-0.33819,1.30624 -1.36509,4.7845 -2.33144,5.44106c-1.98154,1.3463 -3.62834,0.02645 -5.5994,0.48541c-1.16884,0.27216 -2.53116,3.04863 -3.07645,4.00289c-1.24047,1.49893 -2.75687,4.91882 -4.30002,5.89627c-0.74818,0.47391 -2.03348,0.17382 -2.86942,0.22451c-0.79216,0.04804 -1.6755,0.39541 -2.35966,-0.41651c-0.26247,-0.31149 -0.16305,-2.84861 -0.31455,-3.45013c0,0 -0.1819,-0.72761 0.54571,-0.90951c0.1507,-0.03767 0.27799,-0.03633 0.3851,-0.01052c1.01962,-1.46183 1.91811,-3.00595 3.00316,-4.42022c0.66587,-0.86791 1.94382,-1.75952 2.15896,-2.89245c0.29615,-1.55947 -0.75792,-3.18205 -0.51395,-4.69441c0.14542,-0.90147 0.39895,-1.25701 0.79291,-1.40886l0.15348,-0.40928l0.23778,0.08917l0.0883,-0.10596l0.12214,0.10178c0.00603,-0.01335 0.01211,-0.02672 0.01826,-0.0401l-0.09456,-0.11188c0.08129,-0.06825 0.16349,-0.1343 0.2464,-0.19858c1.40658,-2.71303 5.03252,-5.73685 7.80205,-4.35028c0.3329,0.16667 0.58385,0.36337 0.78058,0.57866z" fill="#0060b9" stroke="none" stroke-width="0.5"/><path d="M245.45212,179.51698c0.60948,-1.05842 1.52493,-1.89202 1.60264,-3.1745c0.08976,-1.48144 -0.57083,-2.1058 -1.47358,-1.38693c-0.24325,1.0794 -0.75507,2.10529 -1.3267,3.10563l-0.39925,0.4347c0.54583,0.31497 1.06535,0.70093 1.50258,1.13488zM248.54768,175.49744c0.26268,2.00284 -0.89305,3.1741 -1.7932,4.76374l-0.46553,0.59642c0,0 -0.00288,0.00361 -0.00848,0.01002c0.55528,1.11219 0.46165,2.36176 -0.89539,3.49625c-1.5393,1.28685 -4.31219,1.21008 -6.3533,0.82849l-0.05232,0.07686c-2.37356,2.84826 -4.34061,5.86279 -6.7,8.7c0,0 -0.48014,0.57617 -1.0563,0.09603c-0.57617,-0.48014 -0.09602,-1.05631 -0.09602,-1.05631c2.31005,-2.76674 4.23759,-5.7155 6.54033,-8.50741c-0.02801,-0.10901 -0.03054,-0.23929 0.00822,-0.39435c0.1819,-0.72761 0.9095,-0.5457 0.9095,-0.5457c1.54698,0.38962 4.4828,0.77405 5.83632,-0.34718c2.08781,-1.7295 -1.40299,-3.86548 -2.87301,-4.07658c-0.15574,0.04202 -0.31148,0.08404 -0.46722,0.12606c-0.07426,0.08718 -0.14206,0.1356 -0.14206,0.1356c-0.66486,0.4717 -1.13961,0.94434 -1.65977,1.56983l-0.15213,0.23589c0,0 -0.41602,0.62403 -1.04006,0.20801c-0.62404,-0.41602 -0.20802,-1.04006 -0.20802,-1.04006l0.24788,-0.36411c0.46394,-0.55567 0.91403,-1.01815 1.44625,-1.45233c0.10226,-0.29224 0.3945,-0.43836 0.3945,-0.43836l0.55351,-0.25679c0.31223,-0.07368 0.62446,-0.14735 0.93669,-0.22103c0.34294,0.03886 0.71189,0.12653 1.08908,0.25568c0.04474,-0.25632 0.22579,-0.43738 0.22579,-0.43738l0.17915,-0.14177c0.87783,-1.5362 1.77303,-7.43846 -0.70716,-4.8604c-0.25537,1.67353 -1.65041,3.65086 -2.19048,4.6046l-0.68266,0.61355c0,0 -0.58565,0.46852 -1.05417,-0.11713c-0.46852,-0.58565 0.11713,-1.05418 0.11713,-1.05418l0.31734,-0.18645c0.68118,-1.18295 1.2905,-2.06282 1.74043,-3.36733c0.00644,-0.01868 0.044,-0.14234 0.08683,-0.30947c-0.12545,-0.3332 0.08089,-0.6421 0.1352,-0.71504c0.01691,-0.20023 -0.00029,-0.35801 -0.08772,-0.38738c-0.36508,-0.12264 -1.48508,0.19817 -1.93192,0.1957c-3.38177,0.87304 -7.68919,5.28341 -6.34857,9.18704c0.02399,0.01329 0.04831,0.0281 0.07296,0.04453c0.62404,0.41602 0.20801,1.04006 0.20801,1.04006l-0.17285,0.25608c-1.59896,2.77679 -3.87355,4.81739 -5.16182,7.82334c0,0 -0.29544,0.68936 -0.9848,0.39391c-0.68936,-0.29544 -0.39392,-0.98479 -0.39392,-0.98479c1.28489,-2.99807 3.5301,-5.04977 5.12881,-7.78654c-1.89785,-4.94041 3.02817,-10.38111 7.46891,-11.4624c0.68064,-0.00336 2.29491,-0.36947 2.86809,-0.0043c0.26145,0.16657 0.45826,0.36281 0.60047,0.58206c1.35884,-0.82457 2.94263,-0.77639 3.54698,1.37046c0.10459,0.37157 0.16606,0.73563 0.19084,1.09306c1.30096,-0.38154 2.57255,0.25116 2.82965,2.21147z" fill="#00488c" stroke="none" stroke-width="0.5"/><path d="M225.60417,194.39584v-28.79167h28.79167v28.79167z" fill="none" stroke="#ffffff" stroke-width="1.5"/></g></g></svg>