<svg version="1.1" xmlns="http://www.w3.org/2000/svg" xmlns:xlink="http://www.w3.org/1999/xlink" width="30.29167" height="30.29167" viewBox="0,0,30.29167,30.29167"><defs><linearGradient x1="240" y1="165.60418" x2="240" y2="194.39583" gradientUnits="userSpaceOnUse" id="color-1"><stop offset="0" stop-color="#66b8ff"/><stop offset="1" stop-color="#6766ff"/></linearGradient></defs><g transform="translate(-224.85417,-164.85416)"><g data-paper-data="{&quot;isPaintingLayer&quot;:true}" fill-rule="nonzero" stroke-linecap="butt" stroke-linejoin="miter" stroke-miterlimit="10" stroke-dasharray="" stroke-dashoffset="0" style="mix-blend-mode: normal"><path d="M225.60417,194.39583v-28.79167h28.79167v28.79167z" fill="url(#color-1)" stroke="#ffffff" stroke-width="1.5"/><path d="M244.73196,175.55217c-0.25841,0.51128 -0.83407,0.98571 -1.79098,1.31279c-1.56741,0.53574 -3.41673,0.4606 -5.03402,0.00938c-0.23137,-0.40777 -0.75988,-0.38417 -0.75988,-0.38417l0.20581,0.12752c-0.50857,-0.29825 -1.09379,-0.48076 -1.5855,-0.80606c-1.64801,-1.09029 -0.46412,-2.73605 0.75465,-3.59616c1.75405,-1.23787 4.32427,-0.72557 6.11703,0.05252c1.35495,0.56937 2.26653,1.61516 2.26082,2.59189c-0.19248,0.25111 -0.17481,0.5808 -0.17481,0.5808z" data-paper-data="{&quot;noHover&quot;:false,&quot;origItem&quot;:[&quot;Path&quot;,{&quot;applyMatrix&quot;:true,&quot;segments&quot;:[[293.26464,182.89063],[[294.18148,182.78536],[-0.46997,-0.11817],[1.37685,-0.58507]],[[296.42446,178.05743],[0.02217,2.25093],[0.00547,-2.99327]],[[292.82042,169.49621],[2.80567,1.71471],[-1.94948,-1.19144]],[[287.34653,170.60716],[0.53234,-2.97932],[-0.15883,0.88891]],[[287.18737,173.31146],[0.11055,-0.8962],[0,0]],[287.24009,172.94747],[[287.16625,174.23848],[0.43288,-0.57294],[0.3476,2.54806]],[[290.20249,181.24779],[-1.70507,-1.87862],[1.04095,1.1469]],[[293.11311,182.96778],[-0.87582,-0.05288],[0,0]]],&quot;closed&quot;:true}]}" fill="#816e3a" stroke="none" stroke-width="0.5"/><path d="M235.20363,177.26121c0.09761,0.05664 0.19734,0.11057 0.29805,0.16406c0.13467,0.29612 0.44636,0.43018 0.44636,0.43018c2.26417,0.9734 5.11637,1.32926 7.50615,0.50879c0.50305,-0.17271 1.01941,-0.45629 1.48593,-0.82168c0.18178,2.03265 -0.00153,4.31314 -0.25222,6.24018c-0.004,1.44427 -0.22843,2.88372 -0.23245,4.33502c-0.00154,0.5577 0.19905,1.67499 -0.02833,2.20207c-0.23842,0.55263 -2.04384,0.85731 -2.56711,0.98319c-2.4179,0.58168 -4.54522,0.20678 -6.56726,-1.24353c-0.50109,-2.08892 0.06492,-5.05036 0.20284,-7.21107c0.11397,-1.78553 -0.06744,-3.72384 -0.29195,-5.58722z" data-paper-data="{&quot;noHover&quot;:false,&quot;origItem&quot;:[&quot;Path&quot;,{&quot;applyMatrix&quot;:true,&quot;segments&quot;:[[[277.26388,174.50923],[2.57984,-0.92396],[-3.12191,1.11811]],[[267.04039,178.56447],[2.63296,-1.97302],[-0.81144,3.72387]],[[269.26996,188.51188],[-2.28611,-3.0466],[0.49475,0.65933]],[[272.19823,191.51298],[-0.92182,0.00034],[0.8792,-0.00033]],[[275.30252,190.21126],[-0.78511,0.33648],[2.04312,-0.87562]],[[281.50245,187.90694],[-2.03321,0.87138],[2.86183,-0.81766]],[[290.4017,184.50448],[-2.74772,1.48988],[-0.79705,-0.4341]],[[288.34294,182.91874],[0.54831,0.60246],[-2.60479,-2.86205]],[[284.52199,172.1062],[0.00617,3.77472],[0,0]],[[284.85659,171.21785],[-0.3346,0.36917],[0.01405,-0.17409]],[[284.9071,170.69964],[-0.02037,0.17164],[-2.48377,1.44718]]],&quot;closed&quot;:true}]}" fill="#efcc6c" stroke="none" stroke-width="0.5"/><path d="M234.74231,178.95921c-0.19508,-0.12519 -0.55923,-0.44797 -0.31571,-1.01187c0.32356,-0.74925 1.07282,-0.42569 1.07282,-0.42569l0.5101,0.22715c1.0273,0.6072 2.12687,1.0361 3.2216,1.50887c1.64589,0.71435 3.59997,1.12056 5.12725,2.09144c0.94408,0.60014 2.46078,1.49008 0.36307,2.79301c-0.54537,0.33874 -1.8067,-0.6076 -2.30386,-0.86075c-2.34447,-1.19377 -4.88208,-2.10661 -7.29826,-3.15004c0,0 -0.74925,-0.32357 -0.42569,-1.07282c0.01532,-0.03546 0.03158,-0.06852 0.04867,-0.09932z" fill="#ffda73" stroke="none" stroke-width="0.5"/><path d="M245.32698,186.51369c-0.32357,0.74925 -1.07282,0.42569 -1.07282,0.42569c-3.07664,-1.32865 -6.57571,-2.83973 -9.65236,-4.16839c0,0 -0.74925,-0.32356 -0.42569,-1.07282c0.32356,-0.74925 1.07282,-0.42569 1.07282,-0.42569c3.07624,1.32847 6.15645,2.65867 9.23269,3.98715l0.41967,0.18123c0,0 0.74925,0.32357 0.42569,1.07282z" fill="#ffda73" stroke="none" stroke-width="0.5"/><path d="M246.35379,176.00737c0.43954,2.46383 0.25267,5.40402 -0.06983,7.88314c-0.00469,1.69504 -0.21624,3.37437 -0.2225,5.07982c-0.00185,0.50532 0.04228,1.627 -0.19857,2.06343c-0.64526,1.16917 -2.45579,1.5429 -3.6334,1.82564c-3.07903,0.73927 -5.87301,0.16701 -8.27761,-1.92376c-0.77259,-2.41885 -0.22017,-5.6439 -0.05307,-8.18807c0.16268,-2.47698 -0.31067,-5.24178 -0.59024,-7.70513c0,0 -0.02567,-0.22924 0.07217,-0.45761c-0.07667,-1.41574 0.93018,-2.77958 2.2293,-3.68652c2.24842,-1.56965 5.30942,-1.11465 7.65116,-0.10791c1.04535,0.46098 2.54056,1.32434 3.10903,2.39022c0.48013,0.90021 0.38877,1.84051 -0.02328,2.6793zM235.52748,182.85535c-0.13791,2.1607 -0.71673,5.08875 -0.21565,7.17767c2.02205,1.45031 4.12172,1.82018 6.53962,1.2385c0.52327,-0.12588 2.31844,-0.42574 2.55685,-0.97837c0.22738,-0.52708 0.02175,-1.63997 0.0233,-2.19768c0.00402,-1.45131 0.21966,-2.86846 0.22365,-4.31272c0.25068,-1.92704 0.44593,-4.18231 0.26415,-6.21496c-0.46651,0.36539 -0.98036,0.65084 -1.48341,0.82355c-2.38977,0.82047 -5.20594,0.46483 -7.47011,-0.50857c0,0 -0.3112,-0.13439 -0.44587,-0.43051c-0.10071,-0.05349 -0.19993,-0.10777 -0.29754,-0.16441c0.22451,1.86338 0.41898,3.78195 0.30501,5.56747zM244.69313,175.43401c0,0 -0.01826,-0.3257 0.17423,-0.5768c0.00571,-0.97673 -0.89838,-1.9989 -2.25333,-2.56828c-1.79275,-0.77809 -4.31046,-1.29369 -6.06451,-0.05583c-1.21877,0.86011 -2.39904,2.47834 -0.75102,3.56863c0.4917,0.3253 1.07119,0.49716 1.57976,0.79541l-0.20453,-0.12582c0,0 0.52336,-0.02933 0.75472,0.37844c1.61729,0.45122 3.41992,0.53019 4.98732,-0.00555c0.95691,-0.32707 1.52598,-0.78813 1.78439,-1.29941z" fill="#c9ab5a" stroke="none" stroke-width="0.5"/><path d="M244.9931,174.4035c0.00094,-0.01013 0.00206,-0.02055 0.0034,-0.03121c-0.15947,-0.22327 -0.14169,-0.50239 -0.14169,-0.50239l0.04326,-0.45656c-0.23277,-1.72977 -0.43169,-3.17616 -2.03906,-4.12903c-1.56474,-0.76586 -4.55585,-1.68915 -6.12488,-0.3335c-1.25959,1.0883 -1.50923,4.37288 -1.33096,6.06709c2.04875,0.82422 4.56656,0.67858 6.69923,0.55534c0.97387,-0.05627 2.30373,-0.35819 2.8907,-1.16975zM246.49765,174.3816l-0.0852,0.61384c-2.08278,3.23528 -9.08994,2.64177 -12.14914,1.17368c0,0 -0.68197,-0.333 -0.34897,-1.01498c0.01222,-0.02503 0.02491,-0.04869 0.03803,-0.07105c-0.18705,-2.20972 0.16863,-5.85288 1.85786,-7.25778c2.0993,-1.74594 5.59928,-0.86566 7.74384,0.17944c2.04005,1.23767 2.4857,2.9742 2.78716,5.21439l-0.03302,0.73953c0.15802,0.18931 0.18945,0.42292 0.18945,0.42292z" fill="#c9ab5a" stroke="none" stroke-width="0.5"/><path d="M242.11856,175.59896c-2.13267,0.12324 -4.69173,0.26025 -6.74049,-0.56397c-0.17828,-1.69421 0.07473,-5.01707 1.33432,-6.10537c1.56903,-1.35565 4.60443,-0.43147 6.16917,0.33439c1.60738,0.95287 1.81296,2.4278 2.04573,4.15757l-0.04406,0.459c0,0 -0.01865,0.2812 0.14082,0.50447c-0.00134,0.01066 -0.00253,0.02121 -0.00347,0.03135c-0.58698,0.81156 -1.92815,1.1263 -2.90202,1.18257z" data-paper-data="{&quot;noHover&quot;:false,&quot;origItem&quot;:[&quot;Path&quot;,{&quot;applyMatrix&quot;:true,&quot;segments&quot;:[[[479.29333,231.24683],[-1.79803,2.486],[0.00289,-0.03104]],[[479.30375,231.15124],[-0.00409,0.03265],[-0.4885,-0.68392]],[478.86972,229.6123],[[479.00223,228.21375],[0,0],[-0.71304,-5.29868]],[[472.7561,215.5656],[4.92378,2.91885],[-4.79316,-2.34601]],[[453.9942,214.54402],[4.8063,-4.15266],[-3.85843,3.3337]],[[449.91719,233.12891],[-0.54611,-5.18976],[6.27581,2.52476]],[[470.43847,234.83005],[-6.53285,0.37749],[2.9832,-0.17238]]],&quot;closed&quot;:true}]}" fill="#efcc6c" stroke="none" stroke-width="0.5"/><path d="M243.04317,173.53729c-0.81613,0 -0.81613,-0.81613 -0.81613,-0.81613l0.0082,-0.01674c-0.07602,-1.469 -2.66153,-2.22388 -3.94981,-2.20679c0,0 -0.81613,0 -0.81613,-0.81613c0,-0.81613 0.81613,-0.81613 0.81613,-0.81613c2.30363,0.02299 5.10858,1.20945 5.56566,3.60821l0.0082,0.24758c0,0 0,0.81613 -0.81613,0.81613z" fill="#ffda73" stroke="none" stroke-width="0.5"/></g></g></svg>