<svg version="1.1" xmlns="http://www.w3.org/2000/svg" xmlns:xlink="http://www.w3.org/1999/xlink" width="38.37501" height="39.7821" viewBox="0,0,38.37501,39.7821"><defs><linearGradient x1="240" y1="160.32039" x2="240" y2="177.58644" gradientUnits="userSpaceOnUse" id="color-1"><stop offset="0" stop-color="#4e4e4e"/><stop offset="1" stop-color="#e16012"/></linearGradient><linearGradient x1="240.00001" y1="181.63821" x2="240.00001" y2="191.8487" gradientUnits="userSpaceOnUse" id="color-2"><stop offset="0" stop-color="#474747"/><stop offset="1" stop-color="#f1630c"/></linearGradient><radialGradient cx="240.20636" cy="186.74343" r="11.99697" gradientUnits="userSpaceOnUse" id="color-3"><stop offset="0" stop-color="#ffa000"/><stop offset="1" stop-color="#ffa000" stop-opacity="0"/></radialGradient></defs><g transform="translate(-220.8125,-159.57039)"><g data-paper-data="{&quot;isPaintingLayer&quot;:true}" fill-rule="nonzero" stroke-linejoin="miter" stroke-miterlimit="10" stroke-dasharray="" stroke-dashoffset="0" style="mix-blend-mode: normal"><path d="M221.5625,177.58644v-17.26605h36.875v17.26605z" fill="url(#color-1)" stroke="#5a5a5a" stroke-width="1.5" stroke-linecap="butt"/><path d="M238.375,164.944c0,1.66322 -1.95753,3.01152 -4.37224,3.01152c-2.41472,0 -4.37224,-1.3483 -4.37224,-3.01152c0,-1.66322 1.95752,-3.01152 4.37224,-3.01152c2.41472,0 4.37224,1.3483 4.37224,3.01152z" fill="#526a7c" stroke="#445867" stroke-width="1.5" stroke-linecap="butt"/><path d="M229.63052,175.15449v-10.21049h8.02666v10.21049z" fill="#526a7c" stroke="none" stroke-width="0" stroke-linecap="butt"/><path d="M238.24449,176.18701c0,1.66322 -1.95752,3.01152 -4.37224,3.01152c-2.41472,0 -4.37224,-1.3483 -4.37224,-3.01152c0,-1.66322 1.95753,-3.01152 4.37224,-3.01152c2.41472,0 4.37224,1.3483 4.37224,3.01152z" fill="#4e6577" stroke="#445867" stroke-width="1.5" stroke-linecap="butt"/><path d="M229.5,176.18701l0.13052,-11.24301" fill="none" stroke="#445867" stroke-width="1.5" stroke-linecap="round"/><path d="M238.375,164.944l-0.13052,11.24301" fill="none" stroke="#445867" stroke-width="1.5" stroke-linecap="round"/><path d="M228,166.125c0,-0.41422 0.33578,-0.75 0.75,-0.75c0.41422,0 0.75,0.33578 0.75,0.75c0,0.41422 -0.33578,0.75 -0.75,0.75c-0.41422,0 -0.75,-0.33578 -0.75,-0.75z" fill="#445867" stroke="none" stroke-width="0.5" stroke-linecap="butt"/><path d="M230,168.625c0,-0.41422 0.33578,-0.75 0.75,-0.75c0.41422,0 0.75,0.33578 0.75,0.75c0,0.41422 -0.33578,0.75 -0.75,0.75c-0.41422,0 -0.75,-0.33578 -0.75,-0.75z" fill="#445867" stroke="none" stroke-width="0.5" stroke-linecap="butt"/><path d="M230.5,165.375c0,-0.41422 0.33578,-0.75 0.75,-0.75c0.41422,0 0.75,0.33578 0.75,0.75c0,0.41422 -0.33578,0.75 -0.75,0.75c-0.41422,0 -0.75,-0.33578 -0.75,-0.75z" fill="#445867" stroke="none" stroke-width="0.5" stroke-linecap="butt"/><path d="M231.625,163c0,-0.41422 0.33578,-0.75 0.75,-0.75c0.41422,0 0.75,0.33578 0.75,0.75c0,0.41422 -0.33578,0.75 -0.75,0.75c-0.41422,0 -0.75,-0.33578 -0.75,-0.75z" fill="#445867" stroke="none" stroke-width="0.5" stroke-linecap="butt"/><path d="M233.125,164.5c0,-0.41422 0.33578,-0.75 0.75,-0.75c0.41422,0 0.75,0.33578 0.75,0.75c0,0.41422 -0.33578,0.75 -0.75,0.75c-0.41422,0 -0.75,-0.33578 -0.75,-0.75z" fill="#445867" stroke="none" stroke-width="0.5" stroke-linecap="butt"/><path d="M236.5,164.25c0,-0.41422 0.33578,-0.75 0.75,-0.75c0.41422,0 0.75,0.33578 0.75,0.75c0,0.41422 -0.33578,0.75 -0.75,0.75c-0.41422,0 -0.75,-0.33578 -0.75,-0.75z" fill="#445867" stroke="none" stroke-width="0.5" stroke-linecap="butt"/><path d="M235.25,166.125c0,-0.41422 0.33578,-0.75 0.75,-0.75c0.41422,0 0.75,0.33578 0.75,0.75c0,0.41422 -0.33578,0.75 -0.75,0.75c-0.41422,0 -0.75,-0.33578 -0.75,-0.75z" fill="#445867" stroke="none" stroke-width="0.5" stroke-linecap="butt"/><path d="M238.5,167.625c0,-0.41422 0.33578,-0.75 0.75,-0.75c0.41422,0 0.75,0.33578 0.75,0.75c0,0.41422 -0.33578,0.75 -0.75,0.75c-0.41422,0 -0.75,-0.33578 -0.75,-0.75z" fill="#445867" stroke="none" stroke-width="0.5" stroke-linecap="butt"/><path d="M238.375,165.5c0,-0.41422 0.33578,-0.75 0.75,-0.75c0.41422,0 0.75,0.33578 0.75,0.75c0,0.41422 -0.33578,0.75 -0.75,0.75c-0.41422,0 -0.75,-0.33578 -0.75,-0.75z" fill="#445867" stroke="none" stroke-width="0.5" stroke-linecap="butt"/><path d="M238.125,171.125c0,-0.41422 0.33578,-0.75 0.75,-0.75c0.41422,0 0.75,0.33578 0.75,0.75c0,0.41422 -0.33578,0.75 -0.75,0.75c-0.41422,0 -0.75,-0.33578 -0.75,-0.75z" fill="#445867" stroke="none" stroke-width="0.5" stroke-linecap="butt"/><path d="M236.375,169.5c0,-0.41422 0.33578,-0.75 0.75,-0.75c0.41422,0 0.75,0.33578 0.75,0.75c0,0.41422 -0.33578,0.75 -0.75,0.75c-0.41422,0 -0.75,-0.33578 -0.75,-0.75z" fill="#445867" stroke="none" stroke-width="0.5" stroke-linecap="butt"/><path d="M234,168.25c0,-0.41422 0.33578,-0.75 0.75,-0.75c0.41422,0 0.75,0.33578 0.75,0.75c0,0.41422 -0.33578,0.75 -0.75,0.75c-0.41422,0 -0.75,-0.33578 -0.75,-0.75z" fill="#445867" stroke="none" stroke-width="0.5" stroke-linecap="butt"/><path d="M231.875,167.375c0,-0.41422 0.33578,-0.75 0.75,-0.75c0.41422,0 0.75,0.33578 0.75,0.75c0,0.41422 -0.33578,0.75 -0.75,0.75c-0.41422,0 -0.75,-0.33578 -0.75,-0.75z" fill="#445867" stroke="none" stroke-width="0.5" stroke-linecap="butt"/><path d="M228.25,171.25c0,-0.41422 0.33578,-0.75 0.75,-0.75c0.41422,0 0.75,0.33578 0.75,0.75c0,0.41422 -0.33578,0.75 -0.75,0.75c-0.41422,0 -0.75,-0.33578 -0.75,-0.75z" fill="#445867" stroke="none" stroke-width="0.5" stroke-linecap="butt"/><path d="M227.875,167.875c0,-0.41422 0.33578,-0.75 0.75,-0.75c0.41422,0 0.75,0.33578 0.75,0.75c0,0.41422 -0.33578,0.75 -0.75,0.75c-0.41422,0 -0.75,-0.33578 -0.75,-0.75z" fill="#445867" stroke="none" stroke-width="0.5" stroke-linecap="butt"/><path d="M228.375,174c0,-0.41422 0.33578,-0.75 0.75,-0.75c0.41422,0 0.75,0.33578 0.75,0.75c0,0.41422 -0.33578,0.75 -0.75,0.75c-0.41422,0 -0.75,-0.33578 -0.75,-0.75z" fill="#445867" stroke="none" stroke-width="0.5" stroke-linecap="butt"/><path d="M231.125,171.375c0,-0.41422 0.33578,-0.75 0.75,-0.75c0.41422,0 0.75,0.33578 0.75,0.75c0,0.41422 -0.33578,0.75 -0.75,0.75c-0.41422,0 -0.75,-0.33578 -0.75,-0.75z" fill="#445867" stroke="none" stroke-width="0.5" stroke-linecap="butt"/><path d="M232.25,170c0,-0.41422 0.33578,-0.75 0.75,-0.75c0.41422,0 0.75,0.33578 0.75,0.75c0,0.41422 -0.33578,0.75 -0.75,0.75c-0.41422,0 -0.75,-0.33578 -0.75,-0.75z" fill="#445867" stroke="none" stroke-width="0.5" stroke-linecap="butt"/><path d="M234.375,170.875c0,-0.41422 0.33578,-0.75 0.75,-0.75c0.41422,0 0.75,0.33578 0.75,0.75c0,0.41422 -0.33578,0.75 -0.75,0.75c-0.41422,0 -0.75,-0.33578 -0.75,-0.75z" fill="#445867" stroke="none" stroke-width="0.5" stroke-linecap="butt"/><path d="M237.625,172.625c0,-0.41422 0.33578,-0.75 0.75,-0.75c0.41422,0 0.75,0.33578 0.75,0.75c0,0.41422 -0.33578,0.75 -0.75,0.75c-0.41422,0 -0.75,-0.33578 -0.75,-0.75z" fill="#445867" stroke="none" stroke-width="0.5" stroke-linecap="butt"/><path d="M235.75,172.25c0,-0.41422 0.33578,-0.75 0.75,-0.75c0.41422,0 0.75,0.33578 0.75,0.75c0,0.41422 -0.33578,0.75 -0.75,0.75c-0.41422,0 -0.75,-0.33578 -0.75,-0.75z" fill="#445867" stroke="none" stroke-width="0.5" stroke-linecap="butt"/><path d="M230.375,173.5c0,-0.41422 0.33578,-0.75 0.75,-0.75c0.41422,0 0.75,0.33578 0.75,0.75c0,0.17256 -0.05828,0.33152 -0.15623,0.45825c0.24129,0.12465 0.40623,0.37644 0.40623,0.66675c0,0.41422 -0.33578,0.75 -0.75,0.75c-0.41422,0 -0.75,-0.33578 -0.75,-0.75c0,-0.17256 0.05828,-0.33152 0.15623,-0.45825c-0.24129,-0.12465 -0.40623,-0.37644 -0.40623,-0.66675z" fill="#445867" stroke="none" stroke-width="0.5" stroke-linecap="butt"/><path d="M233.25,172.25c0,-0.41422 0.33578,-0.75 0.75,-0.75c0.41422,0 0.75,0.33578 0.75,0.75c0,0.41422 -0.33578,0.75 -0.75,0.75c-0.41422,0 -0.75,-0.33578 -0.75,-0.75zM233.25,173.75c0,-0.41422 0.33578,-0.75 0.75,-0.75c0.41422,0 0.75,0.33578 0.75,0.75c0,0.41422 -0.33578,0.75 -0.75,0.75c-0.41422,0 -0.75,-0.33578 -0.75,-0.75z" fill="#445867" stroke="none" stroke-width="0.5" stroke-linecap="butt"/><path d="M235.5,174.5c0,-0.41422 0.33578,-0.75 0.75,-0.75c0.41422,0 0.75,0.33578 0.75,0.75c0,0.41422 -0.33578,0.75 -0.75,0.75c-0.41422,0 -0.75,-0.33578 -0.75,-0.75z" fill="#445867" stroke="none" stroke-width="0.5" stroke-linecap="butt"/><path d="M234.875,177.375c0,-0.41422 0.33578,-0.75 0.75,-0.75c0.41422,0 0.75,0.33578 0.75,0.75c0,0.41422 -0.33578,0.75 -0.75,0.75c-0.41422,0 -0.75,-0.33578 -0.75,-0.75z" fill="#445867" stroke="none" stroke-width="0.5" stroke-linecap="butt"/><path d="M234.125,175.5c0,-0.41422 0.33578,-0.75 0.75,-0.75c0.41422,0 0.75,0.33578 0.75,0.75c0,0.41422 -0.33578,0.75 -0.75,0.75c-0.41422,0 -0.75,-0.33578 -0.75,-0.75z" fill="#445867" stroke="none" stroke-width="0.5" stroke-linecap="butt"/><path d="M231.125,176.75c0,-0.41422 0.33578,-0.75 0.75,-0.75c0.41422,0 0.75,0.33578 0.75,0.75c0,0.41422 -0.33578,0.75 -0.75,0.75c-0.41422,0 -0.75,-0.33578 -0.75,-0.75z" fill="#445867" stroke="none" stroke-width="0.5" stroke-linecap="butt"/><path d="M232.25,175.375c0,-0.41422 0.33578,-0.75 0.75,-0.75c0.41422,0 0.75,0.33578 0.75,0.75c0,0.41422 -0.33578,0.75 -0.75,0.75c-0.41422,0 -0.75,-0.33578 -0.75,-0.75z" fill="#445867" stroke="none" stroke-width="0.5" stroke-linecap="butt"/><path d="M233.125,177.25c0,-0.41422 0.33578,-0.75 0.75,-0.75c0.41422,0 0.75,0.33578 0.75,0.75c0,0.41422 -0.33578,0.75 -0.75,0.75c-0.41422,0 -0.75,-0.33578 -0.75,-0.75z" fill="#445867" stroke="none" stroke-width="0.5" stroke-linecap="butt"/><path d="M236.125,176.25c0,-0.41422 0.33578,-0.75 0.75,-0.75c0.41422,0 0.75,0.33578 0.75,0.75c0,0.41422 -0.33578,0.75 -0.75,0.75c-0.41422,0 -0.75,-0.33578 -0.75,-0.75z" fill="#445867" stroke="none" stroke-width="0.5" stroke-linecap="butt"/><path d="M229.5,176.25c0,-0.41422 0.33578,-0.75 0.75,-0.75c0.41422,0 0.75,0.33578 0.75,0.75c0,0.41422 -0.33578,0.75 -0.75,0.75c-0.41422,0 -0.75,-0.33578 -0.75,-0.75z" fill="#445867" stroke="none" stroke-width="0.5" stroke-linecap="butt"/><path d="M228.375,177.25c0,-0.41422 0.33578,-0.75 0.75,-0.75c0.41422,0 0.75,0.33578 0.75,0.75c0,0.41422 -0.33578,0.75 -0.75,0.75c-0.41422,0 -0.75,-0.33578 -0.75,-0.75z" fill="#445867" stroke="none" stroke-width="0.5" stroke-linecap="butt"/><path d="M230.125,178.75c0,-0.41422 0.33578,-0.75 0.75,-0.75c0.41422,0 0.75,0.33578 0.75,0.75c0,0.41422 -0.33578,0.75 -0.75,0.75c-0.41422,0 -0.75,-0.33578 -0.75,-0.75z" fill="#445867" stroke="none" stroke-width="0.5" stroke-linecap="butt"/><path d="M234.875,179.25c0,-0.41422 0.33578,-0.75 0.75,-0.75c0.41422,0 0.75,0.33578 0.75,0.75c0,0.41422 -0.33578,0.75 -0.75,0.75c-0.41422,0 -0.75,-0.33578 -0.75,-0.75z" fill="#445867" stroke="none" stroke-width="0.5" stroke-linecap="butt"/><path d="M237.375,178c0,-0.41422 0.33578,-0.75 0.75,-0.75c0.41422,0 0.75,0.33578 0.75,0.75c0,0.41422 -0.33578,0.75 -0.75,0.75c-0.41422,0 -0.75,-0.33578 -0.75,-0.75z" fill="#445867" stroke="none" stroke-width="0.5" stroke-linecap="butt"/><path d="M238,176c0,-0.41422 0.33578,-0.75 0.75,-0.75c0.41422,0 0.75,0.33578 0.75,0.75c0,0.41422 -0.33578,0.75 -0.75,0.75c-0.41422,0 -0.75,-0.33578 -0.75,-0.75z" fill="#445867" stroke="none" stroke-width="0.5" stroke-linecap="butt"/><path d="M237.5,162.5c0,-0.41422 0.33578,-0.75 0.75,-0.75c0.41422,0 0.75,0.33578 0.75,0.75c0,0.41422 -0.33578,0.75 -0.75,0.75c-0.41422,0 -0.75,-0.33578 -0.75,-0.75z" fill="#445867" stroke="none" stroke-width="0.5" stroke-linecap="butt"/><path d="M232.875,161.25c0,-0.41422 0.33578,-0.75 0.75,-0.75c0.41422,0 0.75,0.33578 0.75,0.75c0,0.41422 -0.33578,0.75 -0.75,0.75c-0.41422,0 -0.75,-0.33578 -0.75,-0.75z" fill="#445867" stroke="none" stroke-width="0.5" stroke-linecap="butt"/><path d="M228.75,163.875c0,-0.41422 0.33578,-0.75 0.75,-0.75c0.41422,0 0.75,0.33578 0.75,0.75c0,0.41422 -0.33578,0.75 -0.75,0.75c-0.41422,0 -0.75,-0.33578 -0.75,-0.75z" fill="#445867" stroke="none" stroke-width="0.5" stroke-linecap="butt"/><path d="M229.75,162.375c0,-0.41422 0.33578,-0.75 0.75,-0.75c0.41422,0 0.75,0.33578 0.75,0.75c0,0.41422 -0.33578,0.75 -0.75,0.75c-0.41422,0 -0.75,-0.33578 -0.75,-0.75z" fill="#445867" stroke="none" stroke-width="0.5" stroke-linecap="butt"/><path d="M236,161.5c0,-0.41422 0.33578,-0.75 0.75,-0.75c0.41422,0 0.75,0.33578 0.75,0.75c0,0.41422 -0.33578,0.75 -0.75,0.75c-0.41422,0 -0.75,-0.33578 -0.75,-0.75z" fill="#445867" stroke="none" stroke-width="0.5" stroke-linecap="butt"/><path d="M245.99725,161.93248c2.41472,0 4.37224,1.3483 4.37224,3.01152c0,1.66322 -1.95752,3.01152 -4.37224,3.01152c-2.41472,0 -4.37224,-1.3483 -4.37224,-3.01152c0,-1.66322 1.95753,-3.01152 4.37224,-3.01152z" data-paper-data="{&quot;index&quot;:null}" fill="#526a7c" stroke="#445867" stroke-width="1.5" stroke-linecap="butt"/><path d="M242.34283,175.15449v-10.21049h8.02666v10.21049z" data-paper-data="{&quot;index&quot;:null}" fill="#526a7c" stroke="none" stroke-width="0" stroke-linecap="butt"/><path d="M246.12776,173.17549c2.41472,0 4.37224,1.3483 4.37224,3.01152c0,1.66322 -1.95753,3.01152 -4.37224,3.01152c-2.41472,0 -4.37224,-1.3483 -4.37224,-3.01152c0,-1.66322 1.95752,-3.01152 4.37224,-3.01152z" data-paper-data="{&quot;index&quot;:null}" fill="#4e6577" stroke="#445867" stroke-width="1.5" stroke-linecap="butt"/><path d="M250.5,176.18701l-0.13052,-11.24301" data-paper-data="{&quot;index&quot;:null}" fill="none" stroke="#445867" stroke-width="1.5" stroke-linecap="round"/><path d="M241.75552,176.18701l-0.13052,-11.24301" data-paper-data="{&quot;index&quot;:null}" fill="none" stroke="#445867" stroke-width="1.5" stroke-linecap="round"/><path d="M251.25,166.875c-0.41422,0 -0.75,-0.33578 -0.75,-0.75c0,-0.41422 0.33578,-0.75 0.75,-0.75c0.41422,0 0.75,0.33578 0.75,0.75c0,0.41422 -0.33578,0.75 -0.75,0.75z" data-paper-data="{&quot;index&quot;:null}" fill="#445867" stroke="none" stroke-width="0.5" stroke-linecap="butt"/><path d="M249.25,169.375c-0.41422,0 -0.75,-0.33578 -0.75,-0.75c0,-0.41422 0.33578,-0.75 0.75,-0.75c0.41422,0 0.75,0.33578 0.75,0.75c0,0.41422 -0.33578,0.75 -0.75,0.75z" data-paper-data="{&quot;index&quot;:null}" fill="#445867" stroke="none" stroke-width="0.5" stroke-linecap="butt"/><path d="M248.75,166.125c-0.41422,0 -0.75,-0.33578 -0.75,-0.75c0,-0.41422 0.33578,-0.75 0.75,-0.75c0.41422,0 0.75,0.33578 0.75,0.75c0,0.41422 -0.33578,0.75 -0.75,0.75z" data-paper-data="{&quot;index&quot;:null}" fill="#445867" stroke="none" stroke-width="0.5" stroke-linecap="butt"/><path d="M247.625,163.75c-0.41422,0 -0.75,-0.33578 -0.75,-0.75c0,-0.41422 0.33578,-0.75 0.75,-0.75c0.41422,0 0.75,0.33578 0.75,0.75c0,0.41422 -0.33578,0.75 -0.75,0.75z" data-paper-data="{&quot;index&quot;:null}" fill="#445867" stroke="none" stroke-width="0.5" stroke-linecap="butt"/><path d="M246.125,165.25c-0.41422,0 -0.75,-0.33578 -0.75,-0.75c0,-0.41422 0.33578,-0.75 0.75,-0.75c0.41422,0 0.75,0.33578 0.75,0.75c0,0.41422 -0.33578,0.75 -0.75,0.75z" data-paper-data="{&quot;index&quot;:null}" fill="#445867" stroke="none" stroke-width="0.5" stroke-linecap="butt"/><path d="M242.75,165c-0.41422,0 -0.75,-0.33578 -0.75,-0.75c0,-0.41422 0.33578,-0.75 0.75,-0.75c0.41422,0 0.75,0.33578 0.75,0.75c0,0.41422 -0.33578,0.75 -0.75,0.75z" data-paper-data="{&quot;index&quot;:null}" fill="#445867" stroke="none" stroke-width="0.5" stroke-linecap="butt"/><path d="M244,166.875c-0.41422,0 -0.75,-0.33578 -0.75,-0.75c0,-0.41422 0.33578,-0.75 0.75,-0.75c0.41422,0 0.75,0.33578 0.75,0.75c0,0.41422 -0.33578,0.75 -0.75,0.75z" data-paper-data="{&quot;index&quot;:null}" fill="#445867" stroke="none" stroke-width="0.5" stroke-linecap="butt"/><path d="M240.75,168.375c-0.41422,0 -0.75,-0.33578 -0.75,-0.75c0,-0.41422 0.33578,-0.75 0.75,-0.75c0.41422,0 0.75,0.33578 0.75,0.75c0,0.41422 -0.33578,0.75 -0.75,0.75z" data-paper-data="{&quot;index&quot;:null}" fill="#445867" stroke="none" stroke-width="0.5" stroke-linecap="butt"/><path d="M240.875,166.25c-0.41422,0 -0.75,-0.33578 -0.75,-0.75c0,-0.41422 0.33578,-0.75 0.75,-0.75c0.41422,0 0.75,0.33578 0.75,0.75c0,0.41422 -0.33578,0.75 -0.75,0.75z" data-paper-data="{&quot;index&quot;:null}" fill="#445867" stroke="none" stroke-width="0.5" stroke-linecap="butt"/><path d="M241.125,171.875c-0.41422,0 -0.75,-0.33578 -0.75,-0.75c0,-0.41422 0.33578,-0.75 0.75,-0.75c0.41422,0 0.75,0.33578 0.75,0.75c0,0.41422 -0.33578,0.75 -0.75,0.75z" data-paper-data="{&quot;index&quot;:null}" fill="#445867" stroke="none" stroke-width="0.5" stroke-linecap="butt"/><path d="M242.875,170.25c-0.41422,0 -0.75,-0.33578 -0.75,-0.75c0,-0.41422 0.33578,-0.75 0.75,-0.75c0.41422,0 0.75,0.33578 0.75,0.75c0,0.41422 -0.33578,0.75 -0.75,0.75z" data-paper-data="{&quot;index&quot;:null}" fill="#445867" stroke="none" stroke-width="0.5" stroke-linecap="butt"/><path d="M245.25,169c-0.41422,0 -0.75,-0.33578 -0.75,-0.75c0,-0.41422 0.33578,-0.75 0.75,-0.75c0.41422,0 0.75,0.33578 0.75,0.75c0,0.41422 -0.33578,0.75 -0.75,0.75z" data-paper-data="{&quot;index&quot;:null}" fill="#445867" stroke="none" stroke-width="0.5" stroke-linecap="butt"/><path d="M247.375,168.125c-0.41422,0 -0.75,-0.33578 -0.75,-0.75c0,-0.41422 0.33578,-0.75 0.75,-0.75c0.41422,0 0.75,0.33578 0.75,0.75c0,0.41422 -0.33578,0.75 -0.75,0.75z" data-paper-data="{&quot;index&quot;:null}" fill="#445867" stroke="none" stroke-width="0.5" stroke-linecap="butt"/><path d="M251,172c-0.41422,0 -0.75,-0.33578 -0.75,-0.75c0,-0.41422 0.33578,-0.75 0.75,-0.75c0.41422,0 0.75,0.33578 0.75,0.75c0,0.41422 -0.33578,0.75 -0.75,0.75z" data-paper-data="{&quot;index&quot;:null}" fill="#445867" stroke="none" stroke-width="0.5" stroke-linecap="butt"/><path d="M251.375,168.625c-0.41422,0 -0.75,-0.33578 -0.75,-0.75c0,-0.41422 0.33578,-0.75 0.75,-0.75c0.41422,0 0.75,0.33578 0.75,0.75c0,0.41422 -0.33578,0.75 -0.75,0.75z" data-paper-data="{&quot;index&quot;:null}" fill="#445867" stroke="none" stroke-width="0.5" stroke-linecap="butt"/><path d="M250.875,174.75c-0.41422,0 -0.75,-0.33578 -0.75,-0.75c0,-0.41422 0.33578,-0.75 0.75,-0.75c0.41422,0 0.75,0.33578 0.75,0.75c0,0.41422 -0.33578,0.75 -0.75,0.75z" data-paper-data="{&quot;index&quot;:null}" fill="#445867" stroke="none" stroke-width="0.5" stroke-linecap="butt"/><path d="M248.125,172.125c-0.41422,0 -0.75,-0.33578 -0.75,-0.75c0,-0.41422 0.33578,-0.75 0.75,-0.75c0.41422,0 0.75,0.33578 0.75,0.75c0,0.41422 -0.33578,0.75 -0.75,0.75z" data-paper-data="{&quot;index&quot;:null}" fill="#445867" stroke="none" stroke-width="0.5" stroke-linecap="butt"/><path d="M247,170.75c-0.41422,0 -0.75,-0.33578 -0.75,-0.75c0,-0.41422 0.33578,-0.75 0.75,-0.75c0.41422,0 0.75,0.33578 0.75,0.75c0,0.41422 -0.33578,0.75 -0.75,0.75z" data-paper-data="{&quot;index&quot;:null}" fill="#445867" stroke="none" stroke-width="0.5" stroke-linecap="butt"/><path d="M244.875,171.625c-0.41422,0 -0.75,-0.33578 -0.75,-0.75c0,-0.41422 0.33578,-0.75 0.75,-0.75c0.41422,0 0.75,0.33578 0.75,0.75c0,0.41422 -0.33578,0.75 -0.75,0.75z" data-paper-data="{&quot;index&quot;:null}" fill="#445867" stroke="none" stroke-width="0.5" stroke-linecap="butt"/><path d="M241.625,173.375c-0.41422,0 -0.75,-0.33578 -0.75,-0.75c0,-0.41422 0.33578,-0.75 0.75,-0.75c0.41422,0 0.75,0.33578 0.75,0.75c0,0.41422 -0.33578,0.75 -0.75,0.75z" data-paper-data="{&quot;index&quot;:null}" fill="#445867" stroke="none" stroke-width="0.5" stroke-linecap="butt"/><path d="M243.5,173c-0.41422,0 -0.75,-0.33578 -0.75,-0.75c0,-0.41422 0.33578,-0.75 0.75,-0.75c0.41422,0 0.75,0.33578 0.75,0.75c0,0.41422 -0.33578,0.75 -0.75,0.75z" data-paper-data="{&quot;index&quot;:null}" fill="#445867" stroke="none" stroke-width="0.5" stroke-linecap="butt"/><path d="M249.21877,174.16675c0.09795,0.12673 0.15623,0.28569 0.15623,0.45825c0,0.41422 -0.33578,0.75 -0.75,0.75c-0.41422,0 -0.75,-0.33578 -0.75,-0.75c0,-0.29031 0.16494,-0.5421 0.40623,-0.66675c-0.09795,-0.12673 -0.15623,-0.28569 -0.15623,-0.45825c0,-0.41422 0.33578,-0.75 0.75,-0.75c0.41422,0 0.75,0.33578 0.75,0.75c0,0.29031 -0.16494,0.5421 -0.40623,0.66675z" data-paper-data="{&quot;index&quot;:null}" fill="#445867" stroke="none" stroke-width="0.5" stroke-linecap="butt"/><path d="M246,173c-0.41422,0 -0.75,-0.33578 -0.75,-0.75c0,-0.41422 0.33578,-0.75 0.75,-0.75c0.41422,0 0.75,0.33578 0.75,0.75c0,0.41422 -0.33578,0.75 -0.75,0.75zM246,174.5c-0.41422,0 -0.75,-0.33578 -0.75,-0.75c0,-0.41422 0.33578,-0.75 0.75,-0.75c0.41422,0 0.75,0.33578 0.75,0.75c0,0.41422 -0.33578,0.75 -0.75,0.75z" data-paper-data="{&quot;index&quot;:null}" fill="#445867" stroke="none" stroke-width="0.5" stroke-linecap="butt"/><path d="M243.75,175.25c-0.41422,0 -0.75,-0.33578 -0.75,-0.75c0,-0.41422 0.33578,-0.75 0.75,-0.75c0.41422,0 0.75,0.33578 0.75,0.75c0,0.41422 -0.33578,0.75 -0.75,0.75z" data-paper-data="{&quot;index&quot;:null}" fill="#445867" stroke="none" stroke-width="0.5" stroke-linecap="butt"/><path d="M244.375,178.125c-0.41422,0 -0.75,-0.33578 -0.75,-0.75c0,-0.41422 0.33578,-0.75 0.75,-0.75c0.41422,0 0.75,0.33578 0.75,0.75c0,0.41422 -0.33578,0.75 -0.75,0.75z" data-paper-data="{&quot;index&quot;:null}" fill="#445867" stroke="none" stroke-width="0.5" stroke-linecap="butt"/><path d="M245.125,176.25c-0.41422,0 -0.75,-0.33578 -0.75,-0.75c0,-0.41422 0.33578,-0.75 0.75,-0.75c0.41422,0 0.75,0.33578 0.75,0.75c0,0.41422 -0.33578,0.75 -0.75,0.75z" data-paper-data="{&quot;index&quot;:null}" fill="#445867" stroke="none" stroke-width="0.5" stroke-linecap="butt"/><path d="M248.125,177.5c-0.41422,0 -0.75,-0.33578 -0.75,-0.75c0,-0.41422 0.33578,-0.75 0.75,-0.75c0.41422,0 0.75,0.33578 0.75,0.75c0,0.41422 -0.33578,0.75 -0.75,0.75z" data-paper-data="{&quot;index&quot;:null}" fill="#445867" stroke="none" stroke-width="0.5" stroke-linecap="butt"/><path d="M247,176.125c-0.41422,0 -0.75,-0.33578 -0.75,-0.75c0,-0.41422 0.33578,-0.75 0.75,-0.75c0.41422,0 0.75,0.33578 0.75,0.75c0,0.41422 -0.33578,0.75 -0.75,0.75z" data-paper-data="{&quot;index&quot;:null}" fill="#445867" stroke="none" stroke-width="0.5" stroke-linecap="butt"/><path d="M246.125,178c-0.41422,0 -0.75,-0.33578 -0.75,-0.75c0,-0.41422 0.33578,-0.75 0.75,-0.75c0.41422,0 0.75,0.33578 0.75,0.75c0,0.41422 -0.33578,0.75 -0.75,0.75z" data-paper-data="{&quot;index&quot;:null}" fill="#445867" stroke="none" stroke-width="0.5" stroke-linecap="butt"/><path d="M243.125,177c-0.41422,0 -0.75,-0.33578 -0.75,-0.75c0,-0.41422 0.33578,-0.75 0.75,-0.75c0.41422,0 0.75,0.33578 0.75,0.75c0,0.41422 -0.33578,0.75 -0.75,0.75z" data-paper-data="{&quot;index&quot;:null}" fill="#445867" stroke="none" stroke-width="0.5" stroke-linecap="butt"/><path d="M249.75,177c-0.41422,0 -0.75,-0.33578 -0.75,-0.75c0,-0.41422 0.33578,-0.75 0.75,-0.75c0.41422,0 0.75,0.33578 0.75,0.75c0,0.41422 -0.33578,0.75 -0.75,0.75z" data-paper-data="{&quot;index&quot;:null}" fill="#445867" stroke="none" stroke-width="0.5" stroke-linecap="butt"/><path d="M250.875,178c-0.41422,0 -0.75,-0.33578 -0.75,-0.75c0,-0.41422 0.33578,-0.75 0.75,-0.75c0.41422,0 0.75,0.33578 0.75,0.75c0,0.41422 -0.33578,0.75 -0.75,0.75z" data-paper-data="{&quot;index&quot;:null}" fill="#445867" stroke="none" stroke-width="0.5" stroke-linecap="butt"/><path d="M249.125,179.5c-0.41422,0 -0.75,-0.33578 -0.75,-0.75c0,-0.41422 0.33578,-0.75 0.75,-0.75c0.41422,0 0.75,0.33578 0.75,0.75c0,0.41422 -0.33578,0.75 -0.75,0.75z" data-paper-data="{&quot;index&quot;:null}" fill="#445867" stroke="none" stroke-width="0.5" stroke-linecap="butt"/><path d="M244.375,180c-0.41422,0 -0.75,-0.33578 -0.75,-0.75c0,-0.41422 0.33578,-0.75 0.75,-0.75c0.41422,0 0.75,0.33578 0.75,0.75c0,0.41422 -0.33578,0.75 -0.75,0.75z" data-paper-data="{&quot;index&quot;:null}" fill="#445867" stroke="none" stroke-width="0.5" stroke-linecap="butt"/><path d="M241.875,178.75c-0.41422,0 -0.75,-0.33578 -0.75,-0.75c0,-0.41422 0.33578,-0.75 0.75,-0.75c0.41422,0 0.75,0.33578 0.75,0.75c0,0.41422 -0.33578,0.75 -0.75,0.75z" data-paper-data="{&quot;index&quot;:null}" fill="#445867" stroke="none" stroke-width="0.5" stroke-linecap="butt"/><path d="M241.25,176.75c-0.41422,0 -0.75,-0.33578 -0.75,-0.75c0,-0.41422 0.33578,-0.75 0.75,-0.75c0.41422,0 0.75,0.33578 0.75,0.75c0,0.41422 -0.33578,0.75 -0.75,0.75z" data-paper-data="{&quot;index&quot;:null}" fill="#445867" stroke="none" stroke-width="0.5" stroke-linecap="butt"/><path d="M241.75,163.25c-0.41422,0 -0.75,-0.33578 -0.75,-0.75c0,-0.41422 0.33578,-0.75 0.75,-0.75c0.41422,0 0.75,0.33578 0.75,0.75c0,0.41422 -0.33578,0.75 -0.75,0.75z" data-paper-data="{&quot;index&quot;:null}" fill="#445867" stroke="none" stroke-width="0.5" stroke-linecap="butt"/><path d="M246.375,162c-0.41422,0 -0.75,-0.33578 -0.75,-0.75c0,-0.41422 0.33578,-0.75 0.75,-0.75c0.41422,0 0.75,0.33578 0.75,0.75c0,0.41422 -0.33578,0.75 -0.75,0.75z" data-paper-data="{&quot;index&quot;:null}" fill="#445867" stroke="none" stroke-width="0.5" stroke-linecap="butt"/><path d="M250.5,164.625c-0.41422,0 -0.75,-0.33578 -0.75,-0.75c0,-0.41422 0.33578,-0.75 0.75,-0.75c0.41422,0 0.75,0.33578 0.75,0.75c0,0.41422 -0.33578,0.75 -0.75,0.75z" data-paper-data="{&quot;index&quot;:null}" fill="#445867" stroke="none" stroke-width="0.5" stroke-linecap="butt"/><path d="M249.5,163.125c-0.41422,0 -0.75,-0.33578 -0.75,-0.75c0,-0.41422 0.33578,-0.75 0.75,-0.75c0.41422,0 0.75,0.33578 0.75,0.75c0,0.41422 -0.33578,0.75 -0.75,0.75z" data-paper-data="{&quot;index&quot;:null}" fill="#445867" stroke="none" stroke-width="0.5" stroke-linecap="butt"/><path d="M243.25,162.25c-0.41422,0 -0.75,-0.33578 -0.75,-0.75c0,-0.41422 0.33578,-0.75 0.75,-0.75c0.41422,0 0.75,0.33578 0.75,0.75c0,0.41422 -0.33578,0.75 -0.75,0.75z" data-paper-data="{&quot;index&quot;:null}" fill="#445867" stroke="none" stroke-width="0.5" stroke-linecap="butt"/><path d="M221.5625,177.58644v-17.26605h8.02666v17.26605z" fill="#707070" stroke="#5a5a5a" stroke-width="1.5" stroke-linecap="butt"/><path d="M250.41085,177.58644v-17.26605h8.02666v17.26605z" fill="#707070" stroke="#5a5a5a" stroke-width="1.5" stroke-linecap="butt"/><path d="M221.5625,198.60249v-21.01605h36.875v21.01605z" fill="#707070" stroke="#5a5a5a" stroke-width="1.5" stroke-linecap="butt"/><path d="M228.21429,191.8487v-10.21049h23.57143v10.21049z" fill="url(#color-2)" stroke="#5a5a5a" stroke-width="1.5" stroke-linecap="butt"/><path d="M231.6282,191.41611c-0.19204,0 -0.37686,-0.02765 -0.54982,-0.07877c-0.25539,0.1812 -0.61182,0.30764 -1.10928,0.30764c-1.75481,0 -1.75481,-1.57343 -1.75481,-1.57343v-2.28862v0c0,-0.86899 0.78565,-1.57343 1.75481,-1.57343c0.23867,0 0.46622,0.04272 0.67366,0.12012c0.01858,-0.0827 0.04007,-0.16237 0.06387,-0.23769l0.49983,-1.5686c0.1969,-0.67585 0.88248,-1.17462 1.69796,-1.17462c0.84167,0 1.54493,0.5313 1.71539,1.24025l0.45173,1.70117c0.21688,-0.30836 0.48045,-0.51068 0.82659,-0.42307c1.05923,0.2681 1.81639,0.57137 2.32928,0.89461l0.93311,-0.77706c0.14902,0.05583 0.29003,0.06996 0.42381,0.0502l0.26871,-1.26489c0.14126,-0.74198 0.86192,-1.3068 1.72973,-1.3068c0.82595,0 1.51863,0.51165 1.7053,1.20075l0.47096,1.58355c0.9484,2.02127 0.69852,-0.73842 2.80061,-0.36456c0.777,0.1382 1.02152,1.66864 1.42328,2.20917l0.22901,-0.57497c0.23127,-0.62661 0.88992,-1.07873 1.66633,-1.07873c0.88081,0 1.61004,0.58185 1.73568,1.34027l0.37813,2.03426l-0.74366,0.11113l0.39125,1.12113c-4.8997,1.11047 -10.86596,1.01241 -16.16697,0.05924l-0.01684,0.42307l-3.49977,-0.11207c-0.04596,-0.00127 -0.09145,-0.00412 -0.13643,-0.0085c-0.06288,0.00611 -0.12674,0.00925 -0.19143,0.00925z" data-paper-data="{&quot;index&quot;:null}" fill="#ff6f00" stroke="none" stroke-width="0.5" stroke-linecap="butt"/><path d="M231.62824,191.54158c-0.19204,0 -0.37686,-0.01964 -0.5498,-0.05591c-0.25541,0.12863 -0.61183,0.21839 -1.1093,0.21839c-1.75481,0 -1.75481,-1.11694 -1.75481,-1.11694v-1.62465v0c0,-0.61688 0.78565,-1.11695 1.75481,-1.11695c0.23867,0 0.46624,0.03034 0.67366,0.08527c0.01859,-0.0587 0.04009,-0.11526 0.06387,-0.16873l0.49983,-1.11351c0.1969,-0.47979 0.88246,-0.83384 1.69795,-0.83384c0.84166,0 1.54493,0.37715 1.71539,0.88044l0.45173,1.20763c0.21688,-0.2189 0.48043,-0.36253 0.82658,-0.30033c1.05924,0.19033 1.81639,0.40561 2.3293,0.63508l0.9331,-0.55162c0.14902,0.03964 0.29003,0.04967 0.42381,0.03563l0.26871,-0.89792c0.14125,-0.52672 0.86192,-0.92767 1.72971,-0.92767c0.82596,0 1.51863,0.36321 1.7053,0.85238l0.47096,1.12413c0.94841,1.43487 0.69852,-0.5242 2.80061,-0.2588c0.777,0.09809 1.02154,1.18455 1.42328,1.56826l0.22902,-0.40816c0.23126,-0.44483 0.88991,-0.76577 1.66631,-0.76577c0.88081,0 1.61004,0.41306 1.73568,0.95144l0.37812,1.44408l-0.74366,0.0789l0.39126,0.79586c-4.8997,0.7883 -10.86595,0.7187 -16.16697,0.04206l-0.01685,0.30032l-3.49976,-0.07955c-0.04593,-0.00091 -0.09143,-0.00292 -0.13643,-0.00603c-0.06286,0.00435 -0.12675,0.00657 -0.19144,0.00657z" data-paper-data="{&quot;index&quot;:null}" fill="#ffae00" stroke="none" stroke-width="0.5" stroke-linecap="butt"/><path d="M240,191.73948v-9.01381" fill="none" stroke="#5a5a5a" stroke-width="1.5" stroke-linecap="round"/><path d="M246.1875,182.41071v9.33194" fill="none" stroke="#5a5a5a" stroke-width="1.5" stroke-linecap="round"/><path d="M234.4375,182.51676v9.33194" fill="none" stroke="#5a5a5a" stroke-width="1.5" stroke-linecap="round"/><path d="M228.42064,191.84867v-10.21049h23.57143v10.21049z" fill="none" stroke="#5a5a5a" stroke-width="1.5" stroke-linecap="butt"/><path d="M252.09525,186.74343c0,3.79926 -5.32283,6.87916 -11.88889,6.87916c-6.56606,0 -11.88889,-3.0799 -11.88889,-6.87916c0,-3.79926 5.32283,-6.87916 11.88889,-6.87916c6.56606,0 11.88889,3.0799 11.88889,6.87916z" fill="url(#color-3)" stroke="none" stroke-width="0" stroke-linecap="butt"/></g></g></svg>