<svg version="1.1" xmlns="http://www.w3.org/2000/svg" xmlns:xlink="http://www.w3.org/1999/xlink" width="44.27757" height="24.94184" viewBox="0,0,44.27757,24.94184"><g transform="translate(-238.27104,-164.82759)"><g data-paper-data="{&quot;isPaintingLayer&quot;:true}" fill-rule="nonzero" stroke="none" stroke-width="0.5" stroke-linecap="butt" stroke-linejoin="miter" stroke-miterlimit="10" stroke-dasharray="" stroke-dashoffset="0" style="mix-blend-mode: normal"><path d="M277.07305,178.91015c0.03937,-0.01312 0.06597,-0.01755 0.06597,-0.01755l0.42224,-0.00269c0.01632,0.00644 0.03264,0.01272 0.04894,0.01885c0.59,-0.00228 1.17181,-0.00767 1.74026,-0.02174c0,0 0.20919,-0.00481 0.35091,0.13194c0.51095,-0.10254 1.02388,-0.27039 1.55028,-0.43579c0.19835,-0.06232 0.42288,-1.1359 0.3467,-1.2008c-0.00621,-0.0053 -1.23113,0.06139 -1.32549,0.04714c-2.401,0.05824 -4.76166,-0.21708 -7.15688,-0.23307c-1.42515,-0.00951 -3.02136,0.42539 -4.43589,0.20161c-1.72159,0.30998 -3.59851,0.18394 -5.33464,0.17235c-1.91606,-0.01279 -4.04622,0.5138 -5.94367,0.80999c-1.00593,-0.15913 -2.57599,-0.028 -3.56332,0.23524c-0.33865,0.09029 -0.80781,1.27074 -0.57421,1.43771c0.22047,0.15758 0.49901,-0.2594 0.77,-0.26082c1.22074,-0.00639 2.60737,0.01319 3.81255,-0.1873c0.94097,0.14887 1.80636,-0.18273 2.73983,-0.18763c2.83438,-0.01485 6.02325,-0.57157 8.8282,-0.12781c2.39649,-0.39867 5.08907,-0.37576 7.65821,-0.37967zM277.44081,179.83979c-2.67743,0.00429 -5.51298,-0.03215 -8.02225,0.38528c-2.82085,-0.44627 -5.97605,0.14684 -8.8282,0.12781c-0.92894,-0.0062 -1.79739,0.33673 -2.73983,0.18763c-1.19722,0.19916 -2.59886,0.19539 -3.81255,0.1873c-0.38244,-0.00256 -0.96679,0.33716 -1.31756,0.08645c-0.65813,-0.47039 -0.33615,-2.20862 0.12697,-2.69266c0.75675,-0.79094 3.52996,-0.8379 4.55068,-0.67642c3.78533,-0.68155 7.57882,-0.40485 11.27831,-0.98234c1.41644,0.22409 3.0061,-0.19412 4.43589,-0.20161c2.41758,-0.01266 4.80048,0.28829 7.22318,0.23515c0.51894,0.0863 1.51034,-0.17719 1.9216,0.22207c0.67402,0.65434 0.05665,2.35125 -0.61122,2.71288c-1.20481,0.65237 -2.9115,0.8281 -4.20502,0.40845z" data-paper-data="{&quot;index&quot;:null}" fill="#704f39"/><path d="M277.1702,178.89314c0,0 -0.02661,0.00449 -0.06598,0.01761c-2.56914,0.00391 -5.26294,-0.01098 -7.65942,0.3877c-2.80495,-0.44376 -6.05477,0.10748 -8.88916,0.12233c-0.93348,0.0049 -1.79889,0.3362 -2.73986,0.18733c-1.20518,0.20049 -2.52968,0.17553 -3.75043,0.18192c-0.27099,0.00142 -0.61164,0.42383 -0.83211,0.26625c-0.23361,-0.16697 0.23541,-1.35058 0.57408,-1.44087c0.98733,-0.26324 2.5574,-0.39518 3.56334,-0.23604c1.89746,-0.29619 4.02876,-0.83016 5.94481,-0.81738c1.73613,0.01159 3.66453,0.12345 5.38613,-0.18652c1.41453,0.22379 3.0194,-0.19657 4.44453,-0.18705c2.39521,0.01599 4.75677,0.29623 7.15777,0.238c0.09435,0.01425 1.31929,-0.05225 1.32551,-0.04695c0.07619,0.0649 -0.14821,1.1411 -0.34656,1.20342c-0.52641,0.16539 -1.03934,0.33431 -1.5503,0.43686c-0.14173,-0.13674 -0.3509,-0.13226 -0.3509,-0.13226c-0.56844,0.01406 -1.15026,0.01961 -1.74026,0.02189c-0.01629,-0.00613 -0.09495,-0.01354 -0.11128,-0.01998l-0.35989,0.00379z" data-paper-data="{&quot;noHover&quot;:false,&quot;origItem&quot;:[&quot;Path&quot;,{&quot;applyMatrix&quot;:true,&quot;segments&quot;:[[[242.54591,170.80006],[0.05383,-0.03914],[-2.40109,3.34861]],[[234.90843,180.43854],[2.75517,-2.75517],[-2.0369,4.0738]],[[226.50843,191.83854],[2.66275,-3.68452],[-0.87695,1.21345]],[[223.70843,195.23854],[0.68331,-1.36663],[-1.38556,1.38556]],[[219.90843,200.03854],[1.14682,-1.58688],[-0.25458,0.35226]],[[218.85,200.8],[0,-0.43463],[0,0.46053]],[[221.26147,201.39157],[-0.43366,0.35769],[1.26427,-1.04278]],[[224.89157,196.96147],[-0.73049,1.46098],[2.15606,-2.1996]],[[231.49157,189.96147],[-1.77024,2.51202],[1.604,-2.27613]],[[236.69157,183.16147],[-2.01003,1.95729],[1.02721,-2.05441]],[[241.09157,177.56147],[-1.31668,1.86841],[2.21293,-3.14022]],[[247.46201,168.0057],[-2.31518,3.07855],[0.0694,-0.13641]],[[248.75969,166.32014],[0.00111,0.01306],[-0.01363,-0.15992]],[[246.86953,165.65265],[0.2663,-0.20069],[-0.70673,0.53261]],[[244.8551,167.26907],[0.61032,-0.57107],[0.04626,0.31246]],[[244.7,167.85],[0,0],[-0.54849,0.7286]],[[243.04865,170.10045],[0.55321,-0.76772],[-0.0072,0.02699]],[[243.02761,170.1819],[0.00682,-0.02731],[0,0]],[242.63033,170.73033]],&quot;closed&quot;:true}],&quot;index&quot;:null}" fill="#9a6d4e"/><path d="M279.08198,174.80866c-0.33887,-0.76439 -0.20364,-1.39685 -0.33361,-2.20468c-0.15567,-0.9676 -0.57047,-2.35335 -1.19696,-3.60981c1.60199,1.79118 2.89185,3.45062 2.29231,6.28687c-0.30622,0.00866 -0.58382,0.01332 -0.74716,-0.0228c-0.02492,0.00114 -0.05934,-0.05913 -0.0838,-0.05765z" data-paper-data="{&quot;noHover&quot;:false,&quot;origItem&quot;:[&quot;Path&quot;,{&quot;applyMatrix&quot;:true,&quot;segments&quot;:[[[499.66049,342.30794],[0,0],[1.54544,2.19205]],[[505.20098,346.83999],[-2.00917,-1.68867],[2.40653,2.02265]],[[513.14928,356.09253],[-2.42581,-3.79434],[-2.29025,-7.36018]],[[499.74897,339.58069],[8.79372,3.02298],[-0.52837,0.8285]],[[498.59747,341.65903],[0.16968,-0.50904],[-0.04421,0.06671]],[[498.46458,341.85644],[0.04439,-0.0649],[0,0]]],&quot;closed&quot;:true}],&quot;index&quot;:null}" fill="#938174"/><path d="M275.92267,188.84174c-0.52923,-0.12127 -1.35946,-0.36756 -1.71157,-0.68487c-0.05825,-0.0525 1.32225,-1.63117 1.50526,-1.78835c0.84374,-0.72465 1.32605,-1.89405 1.89541,-2.84513c0.31131,-0.52003 1.33015,-2.33127 1.07764,-2.94599c-0.13127,-0.31956 -0.39097,-0.6414 -0.72721,-0.72069c-0.12897,-0.03041 -0.3215,0.06804 -0.48209,0.19536c0.02173,-0.49554 -0.08108,-1.31356 -0.07146,-1.43433c0.11582,-1.45496 -0.04136,-2.40131 1.61158,-2.48847c0.11235,0.02484 1.00864,0.13259 1.50242,0.05906c-0.06601,0.15309 -0.11145,0.32835 -0.10206,0.4374c0.05562,0.64643 0.24881,1.28991 0.19397,2.02375c-0.06624,0.88636 -0.48414,0.72119 -0.89414,1.40605c-0.61499,1.02728 -0.01304,2.58267 -0.64354,3.558c-0.42677,1.92952 -1.52269,3.75581 -3.02301,5.04439z" data-paper-data="{&quot;noHover&quot;:false,&quot;origItem&quot;:[&quot;Path&quot;,{&quot;applyMatrix&quot;:true,&quot;segments&quot;:[[[456.00275,327.98003],[0,0],[-0.53821,1.65636]],[[455.07251,333.79221],[-0.29314,-1.49187],[0.0485,0.24682]],[[462.27566,332.57698],[-0.73412,0.24471],[3.38454,-1.12818]],[[473.25,332],[-3.55565,0],[1.94416,0]],[[483.31066,333.93934],[-1.2758,-1.70778],[0.66323,0.88779]],[[484.09164,337.17082],[0.33579,-1.05607],[-0.12879,0.40505]],[[482.75168,338.19383],[0.615,-0.2322],[1.3996,0.75665]],[[486.40903,340.65253],[-0.34824,-0.17253],[4.19514,2.07845]],[[495.90253,340.34097],[-2.96326,4.40562],[0.11672,-0.35016]],[[498.21158,336.13014],[-1.01589,1.23783],[-0.53009,-0.07057]],[[496.83951,335.69206],[0.28466,0.2055],[-1.68748,-1.21818]],[[491.59097,331.84747],[2.11003,1.05814],[-2.54857,-1.27805]],[[486.25,332],[2.56038,0],[-3.84057,0]],[[475.50973,327.98063],[3.72311,-0.1283],[-6.0136,-2.00453]],[[456.72434,327.92302],[6.01838,-2.00613],[0,0]]],&quot;closed&quot;:true}],&quot;index&quot;:null}" fill="#938174"/><path d="M273.86294,165.98223l-0.01399,0.01543l-0.38602,-0.35023c-0.16736,-0.14595 -0.2115,-0.39512 -0.09342,-0.59234c0.13266,-0.22158 0.41983,-0.29368 0.64142,-0.16103l0.09084,0.05438c0.24913,-0.04843 0.43373,0.16651 0.43373,0.16651l0.16362,0.19573c0.9765,0.32793 1.9063,0.9035 2.46856,1.76286c0.24929,0.38103 0.57714,1.36202 -0.03671,1.7041c-0.73733,0.41089 -1.99508,-1.47824 -2.71701,-2.3855c-0.15632,-0.12482 -0.33025,-0.246 -0.52935,-0.36519z" data-paper-data="{&quot;index&quot;:null}" fill="#706258"/><path d="M280.51038,176.12723c0.45355,-0.11387 0.56742,0.33969 0.56742,0.33969l0.11554,0.61548c-0.22783,1.39251 -1.51786,3.15569 -1.36207,4.44906c-0.35941,2.33985 -1.36757,4.02997 -2.55552,6.00407c-0.24516,0.4074 -0.50451,1.45518 -0.99885,1.60416c-0.1826,0.05502 -1.44543,-0.53941 -1.71489,-0.63534c0,0 -0.44054,-0.15684 -0.2837,-0.59738c0.15684,-0.44054 0.59738,-0.2837 0.59738,-0.2837c0.43694,0.15556 0.84229,0.44593 1.17346,0.60931c0.21049,0.10383 0.03517,-0.47878 0.13553,-0.69093c0.0125,-0.02641 0.52652,-0.88418 0.55548,-0.93232c1.00761,-1.67517 1.82192,-3.12086 2.15618,-5.10352c-0.13003,-1.43069 1.13958,-3.07561 1.3735,-4.57142l-0.09917,-0.23975c0,0 -0.11387,-0.45355 0.33969,-0.56742z" data-paper-data="{&quot;index&quot;:null}" fill="#b19b8c"/><path d="M281.54803,178.90429c-0.03847,0.37486 -0.12937,0.72572 -0.29998,1.01071c-0.14013,0.23409 -0.60774,0.40823 -0.74787,0.64232c-0.55788,0.9319 -0.02749,2.40394 -0.57813,3.38173c-0.45738,2.06787 -1.64608,4.01828 -3.25236,5.39786l0.01648,0.01919c0,0 -0.11265,0.18819 -0.31255,0.22964c-0.16344,0.24498 -0.48354,0.17417 -0.48354,0.17417c-0.56826,-0.13204 -2.20092,-0.55357 -2.46636,-1.14966c-0.37403,-0.83995 0.16476,-1.27784 0.63036,-1.82552c1.04215,-1.22585 1.91238,-2.29582 2.75952,-3.7109c0.35972,-0.60087 0.41401,-1.06096 0.66,-1.69766c0.01912,-0.04947 0.0486,-0.11702 0.08332,-0.19035c-0.2721,0.11823 -0.62627,0.13541 -0.74512,0.07021c-0.35733,-0.19604 -0.29116,-1.67254 -0.30875,-2.06259c-0.07943,-1.76036 0.07576,-3.26681 1.54863,-3.78211c-0.00448,-0.08021 0.00857,-0.13914 0.00857,-0.13914l0.09839,-0.32764c-0.81909,-1.59001 -0.35255,-3.58898 -1.40308,-5.223c-0.383,-0.59574 -1.42057,-1.90594 -1.63756,-2.74147c-0.07282,-0.04369 -0.14566,-0.08736 -0.21852,-0.13098l-0.40123,-0.24019c-0.22158,-0.13266 -0.29368,-0.41983 -0.16103,-0.64142c0.13266,-0.22158 0.41983,-0.29368 0.64142,-0.16103l0.40123,0.24019c0.55644,0.3331 1.11338,0.66515 1.66608,1.00443c2.26358,2.63553 4.38193,4.44679 3.73579,8.18987c0.38381,0.01503 0.71029,0.07221 0.83653,0.23665c0.21668,0.28222 0.22272,0.43651 0.14847,0.54243c-0.00707,0.06977 -0.0241,0.11761 -0.0241,0.11761c-0.28081,0.72576 -0.16079,1.62118 -0.07979,2.39665zM279.01722,175.23144c0.02448,-0.00148 0.04916,-0.00278 0.07409,-0.00393c0.16334,0.03612 0.4341,0.03346 0.74032,0.0248c0.59953,-2.83626 -0.66888,-4.43722 -2.27087,-6.22841c0.62648,1.25646 1.04648,2.64006 1.20215,3.60765c0.12996,0.80782 -0.01381,1.44332 0.32506,2.20771zM276.06033,188.62745c1.50033,-1.28858 2.56591,-3.10449 2.99268,-5.03401c0.63049,-0.97533 0.02972,-2.48919 0.64471,-3.51648c0.41,-0.68486 0.8298,-0.51784 0.89605,-1.40419c0.05485,-0.73385 -0.13229,-1.3731 -0.18792,-2.01954c-0.00938,-0.10905 0.03653,-0.28406 0.10253,-0.43715c-0.49377,0.07353 -1.38372,-0.0318 -1.49607,-0.05664c-1.65294,0.08716 -1.48771,1.03452 -1.60352,2.48947c-0.00961,0.12078 0.09374,0.87646 0.07202,1.37199c0.16059,-0.12733 0.35923,-0.22503 0.4882,-0.19461c0.33626,0.07928 0.60804,0.40679 0.73932,0.72635c0.25252,0.61472 -0.78094,2.48159 -1.09226,3.00161c-0.56937,0.95107 -1.06791,2.11841 -1.91165,2.84307c-0.18301,0.15718 -1.53674,1.67963 -1.47849,1.73214c0.35212,0.3173 1.1744,0.5606 1.70363,0.68187z" data-paper-data="{&quot;index&quot;:null}" fill="#706258"/><path d="M240.14864,183.0913c-0.25521,0 -0.48064,-0.12747 -0.61611,-0.32221l-0.44874,-0.62823l0.02209,-0.01578l-0.05432,-0.0333c-0.98855,-1.97025 -1.30292,-3.74236 0.66115,-5.17897c0,0 0.16617,-0.1187 0.38704,-0.1455c0.09755,-0.12753 0.2558,-0.23392 0.51152,-0.26234c0.15288,-0.01699 0.27789,0.00087 0.38003,0.03998c0.10281,-0.07208 0.22453,-0.11902 0.35624,-0.13189l0.80919,-0.08991l0.00213,0.01921l0.03921,-0.02265c0.23186,0 0.46372,0 0.69558,0c0.61364,-0.15423 1.49513,-0.0009 2.16407,-0.00115c1.04603,-0.00039 2.03696,0.09887 3.00696,0.24051c0.12583,-0.16816 0.29399,-0.25224 0.29399,-0.25224l0.4344,-0.1655c2.06345,-0.2265 3.86448,-0.06835 5.15301,1.22068l0.18742,-0.18742l0.54545,0.54545v0c0.07967,0.07967 0.14149,0.17717 0.17897,0.28601c0.40958,0.18061 0.73106,0.46264 0.84452,0.91646c0.48087,1.92344 -3.86375,3.37312 -5.0308,3.76213c-2.40739,0.89701 -5.02485,0.81756 -7.5645,0.67822c-0.74856,-0.04107 -1.82629,0.04724 -2.53548,-0.40219c-0.12042,0.08241 -0.2661,0.13061 -0.42304,0.13061z" fill="#0060b9"/><path d="M239.86923,182.58542c0.25619,-0.70489 0.96108,-0.4487 0.96108,-0.4487l0.66084,0.2408c3.84556,1.23004 6.97889,0.53304 10.65995,-0.98985c0.65466,-0.27084 3.79063,-2.60406 2.61346,-3.04107c-2.7393,-1.66877 -6.18384,-1.16877 -9.28211,-1.18633c-1.62498,-0.00921 -3.15947,-0.31879 -4.72945,0.2536c0,0 -0.70599,0.25314 -0.95913,-0.45285c-0.25314,-0.70599 0.45285,-0.95913 0.45285,-0.95913c1.7705,-0.62606 3.42907,-0.35152 5.25282,-0.34153c3.46096,0.01897 7.04289,-0.4129 10.10892,1.44614c1.92298,1.7607 -0.04398,4.09919 -1.90123,5.22978c-3.79493,2.31017 -8.53548,2.78957 -12.67246,1.47012l-0.71685,-0.25991c0,0 -0.70489,-0.25619 -0.4487,-0.96107z" fill="#00488c"/></g></g></svg>