<svg version="1.1" xmlns="http://www.w3.org/2000/svg" xmlns:xlink="http://www.w3.org/1999/xlink" width="23.18234" height="40.36549" viewBox="0,0,23.18234,40.36549"><g transform="translate(-229.81728,-159.85728)"><g data-paper-data="{&quot;isPaintingLayer&quot;:true}" fill-rule="nonzero" stroke-linejoin="miter" stroke-miterlimit="10" stroke-dasharray="" stroke-dashoffset="0" style="mix-blend-mode: normal"><path d="M244.8125,170.18669l0.5,2.63351l-6.875,14.29621l9.25,10.34594l-1.125,1.97513l-2.375,-0.18811l-11.875,-12.79135l8.25,-15.33081z" fill="#6e89a2" stroke="#495a6b" stroke-width="1.5" stroke-linecap="round"/><path d="M244.04507,184.63475c-0.53033,0.39904 -1.06066,0 -1.06066,0l-0.18032,-0.14056c-0.6562,-0.62534 -0.73801,-0.80328 -1.70394,-0.4121c0,0 -0.67082,0.25237 -1.00623,-0.25237c-0.33541,-0.50474 0.33541,-0.75712 0.33541,-0.75712c1.63457,-0.58474 2.44458,-0.3085 3.54606,0.71653l0.06968,0.04755c0,0 0.53033,0.39904 0,0.79808z" fill="#1f272e" stroke="none" stroke-width="0.5" stroke-linecap="butt"/><path d="M231.15845,183.66495c0,-0.56433 0.75,-0.56433 0.75,-0.56433l0.36217,0.02896c1.26137,0.34899 1.78002,1.01195 2.59848,1.78175c0,0 0.46852,0.44066 -0.11713,0.79319c-0.58565,0.35253 -1.05417,-0.08813 -1.05417,-0.08813c-0.57165,-0.53766 -1.00986,-1.23135 -1.90152,-1.41609l0.11217,0.02896c0,0 -0.75,0 -0.75,-0.56433z" fill="#1f272e" stroke="none" stroke-width="0.5" stroke-linecap="butt"/><path d="M244.01889,188.38427c-0.14709,0.55337 -0.88252,0.4427 -0.88252,0.4427l-0.24074,-0.11205c-0.94296,0.19536 -1.10861,0.76522 -1.40066,1.43012c0,0 -0.23717,0.53536 -0.94868,0.3569c-0.71151,-0.17846 -0.47434,-0.71382 -0.47434,-0.71382c0.47134,-1.05607 0.91059,-1.74588 2.34934,-2.14394l1.00926,0.07606c0,0 0.73544,0.11067 0.58835,0.66404z" fill="#1f272e" stroke="none" stroke-width="0.5" stroke-linecap="butt"/><path d="M239.68878,196.85533c-0.53033,0.39904 -1.06066,0 -1.06066,0l-0.55618,-0.85965c0.44097,-0.90234 0.90078,-1.17223 2.09934,-1.48556c0,0 0.71151,-0.17846 0.94868,0.3569c0.23717,0.53536 -0.47434,0.71382 -0.47434,0.71382c-0.76006,0.17946 -0.93801,0.19064 -1.15066,0.77174l0.19382,-0.29533c0,0 0.53033,0.39904 0,0.79808z" fill="#1f272e" stroke="none" stroke-width="0.5" stroke-linecap="butt"/><path d="M236.90845,195.70386c-0.75,0 -0.75,-0.56433 -0.75,-0.56433l0.0102,-0.3775c-0.29312,-1.54655 0.52406,-1.78575 2.3648,-1.78575c0,0 0.75,0 0.75,0.56433c0,0.56433 -0.75,0.56433 -0.75,0.56433c-0.35696,0 -0.71379,-0.16735 -1.06147,-0.10652c-0.25592,0.04478 0.12322,0.38445 0.17626,0.57807l0.0102,0.56304c0,0 0,0.56433 -0.75,0.56433z" fill="#1f272e" stroke="none" stroke-width="0.5" stroke-linecap="butt"/><path d="M250.20427,196.14435c-0.33541,0.50474 -1.00623,0.25237 -1.00623,0.25237l-0.16459,-0.12853c-0.81531,-0.00228 -1.70386,-0.08 -2.16435,0.44658c0,0 -0.46852,0.44066 -1.05417,0.08813c-0.58565,-0.35253 -0.11713,-0.79319 -0.11713,-0.79319c0.95065,-0.8138 1.93463,-0.86685 3.33565,-0.87017l0.83541,0.24769c0,0 0.67082,0.25237 0.33541,0.75712z" fill="#1f272e" stroke="none" stroke-width="0.5" stroke-linecap="butt"/><path d="M234.65845,187.33305c0,-0.31166 0.33579,-0.56433 0.75,-0.56433c0.41421,0 0.75,0.25266 0.75,0.56433c0,0.31166 -0.33579,0.56433 -0.75,0.56433c-0.41421,0 -0.75,-0.25266 -0.75,-0.56433z" fill="#415261" stroke="none" stroke-width="0.5" stroke-linecap="butt"/><path d="M242.03345,194.19899c0,-0.31166 0.33579,-0.56433 0.75,-0.56433c0.41421,0 0.75,0.25266 0.75,0.56433c0,0.31166 -0.33579,0.56433 -0.75,0.56433c-0.41421,0 -0.75,-0.25266 -0.75,-0.56433z" fill="#415261" stroke="none" stroke-width="0.5" stroke-linecap="butt"/><path d="M244.28345,197.96116c0,-0.31166 0.33579,-0.56433 0.75,-0.56433c0.41421,0 0.75,0.25266 0.75,0.56433c0,0.31166 -0.33579,0.56433 -0.75,0.56433c-0.41421,0 -0.75,-0.25266 -0.75,-0.56433z" fill="#415261" stroke="none" stroke-width="0.5" stroke-linecap="butt"/><path d="M236.15845,181.87792c0,-0.31166 0.33579,-0.56433 0.75,-0.56433c0.41421,0 0.75,0.25266 0.75,0.56433c0,0.31166 -0.33579,0.56433 -0.75,0.56433c-0.41421,0 -0.75,-0.25266 -0.75,-0.56433z" fill="#4c5761" stroke="none" stroke-width="0.5" stroke-linecap="butt"/><path d="M240.03345,192.69414c0,-0.31166 0.33579,-0.56433 0.75,-0.56433c0.41421,0 0.75,0.25266 0.75,0.56433c0,0.31166 -0.33579,0.56433 -0.75,0.56433c-0.41421,0 -0.75,-0.25266 -0.75,-0.56433z" fill="#4c5761" stroke="none" stroke-width="0.5" stroke-linecap="butt"/><path d="M235.57194,172.08217c0.23717,-0.59197 0.94869,-0.39465 0.94869,-0.39465l0.375,0.104c1.33554,0.38604 2.10595,1.04712 2.88687,2.01384c0,0 0.41603,0.51919 -0.20801,0.86533c-0.62404,0.34613 -1.04006,-0.17307 -1.04006,-0.17307c-0.57391,-0.72313 -1.10674,-1.2594 -2.11313,-1.52215l-0.375,-0.104c0,0 -0.71151,-0.19734 -0.47434,-0.78931z" fill="#1f272e" stroke="none" stroke-width="0.5" stroke-linecap="butt"/><path d="M232.82194,176.32481c-0.23717,-0.59197 0.47434,-0.7893 0.47434,-0.7893l0.61217,-0.13602c1.20959,0 2.08879,0.12954 3.23717,0.44802c0,0 0.71151,0.19733 0.47434,0.7893c-0.23717,0.59197 -0.94868,0.39465 -0.94868,0.39465c-1.01498,-0.28149 -1.69531,-0.38397 -2.76283,-0.38397l-0.13783,0.07198c0,0 -0.71152,0.19733 -0.94869,-0.39465z" fill="#1f272e" stroke="none" stroke-width="0.5" stroke-linecap="butt"/><path d="M241.40845,171.5515c0,-0.34462 0.33579,-0.624 0.75,-0.624c0.41421,0 0.75,0.27937 0.75,0.624c0,0.34462 -0.33579,0.624 -0.75,0.624c-0.41421,0 -0.75,-0.27937 -0.75,-0.624z" fill="#415261" stroke="none" stroke-width="0.5" stroke-linecap="butt"/><path d="M237.90845,176.54347c0,-0.34462 0.33579,-0.624 0.75,-0.624c0.41421,0 0.75,0.27937 0.75,0.624c0,0.34462 -0.33579,0.624 -0.75,0.624c-0.41421,0 -0.75,-0.27937 -0.75,-0.624z" fill="#415261" stroke="none" stroke-width="0.5" stroke-linecap="butt"/><path d="M236.52706,177.51729c-0.64601,-0.35837 -1.09577,0.9638 -0.9781,1.44933c0.04191,0.17297 0.71609,0.47476 1.11936,0.63908c-0.22526,-0.55264 -0.14843,-1.42945 -0.03295,-2.04967zM237.73996,176.4968c0.71378,0.19832 0.48353,0.81307 0.48353,0.81307c-0.11673,0.30894 -0.58104,1.12253 -0.27181,1.46273c0.4195,0.46152 1.21246,0.00674 1.31905,0.97973c0.19052,1.73909 -1.80476,1.53243 -2.91045,1.1507c-2.91119,-1.00508 -2.84588,-5.2874 0.62729,-4.61527l0.48613,0.16965c0.08015,0.00037 0.16869,0.01228 0.26626,0.03939z" data-paper-data="{&quot;index&quot;:null}" fill="#e4ddb2" stroke="none" stroke-width="0.5" stroke-linecap="butt"/><path d="M236.64531,177.51383c-0.11548,0.62022 -0.19252,1.58147 0.03274,2.13411c-0.40327,-0.16431 -1.1295,-0.48541 -1.17141,-0.65838c-0.11766,-0.48554 0.37939,-1.87349 1.0254,-1.51513z" data-paper-data="{&quot;noHover&quot;:false,&quot;origItem&quot;:[&quot;Path&quot;,{&quot;applyMatrix&quot;:true,&quot;segments&quot;:[[[436.89795,344.55388],[0,0],[0.23095,1.44025]],[[436.83204,349.31349],[0.45051,-1.2833],[0.80654,-0.38156]],[[439.07077,347.82947],[-0.08383,0.40166],[0.23532,-1.12748]],[[437.11456,344.46392],[1.29201,-0.83218],[0,0]]],&quot;closed&quot;:true}],&quot;index&quot;:null}" fill="#f8f0c1" stroke="none" stroke-width="0.5" stroke-linecap="butt"/><path d="M245.69897,177.66051c0.11548,0.62022 0.1923,1.49704 -0.03295,2.04967c0.40327,-0.16431 1.07745,-0.46611 1.11936,-0.63908c0.11766,-0.48554 -0.3321,-1.80771 -0.9781,-1.44933zM244.86063,176.56189l0.48613,-0.16965c3.47317,-0.67213 3.53849,3.61019 0.62729,4.61527c-1.10569,0.38173 -3.10097,0.5884 -2.91045,-1.1507c0.10659,-0.97298 0.89954,-0.51821 1.31905,-0.97973c0.30923,-0.3402 -0.15508,-1.15379 -0.27181,-1.46273c0,0 -0.23025,-0.61476 0.48353,-0.81307c0.09757,-0.0271 0.1861,-0.03902 0.26626,-0.03939z" fill="#e4ddb2" stroke="none" stroke-width="0.5" stroke-linecap="butt"/><path d="M245.8023,177.57892c0.64601,-0.35837 1.14306,1.02959 1.0254,1.51513c-0.04191,0.17297 -0.76814,0.49406 -1.17141,0.65838c0.22526,-0.55264 0.14821,-1.51389 0.03273,-2.13411z" data-paper-data="{&quot;noHover&quot;:false,&quot;origItem&quot;:[&quot;Path&quot;,{&quot;applyMatrix&quot;:true,&quot;segments&quot;:[[[436.89795,344.55388],[0,0],[0.23095,1.44025]],[[436.83204,349.31349],[0.45051,-1.2833],[0.80654,-0.38156]],[[439.07077,347.82947],[-0.08383,0.40166],[0.23532,-1.12748]],[[437.11456,344.46392],[1.29201,-0.83218],[0,0]]],&quot;closed&quot;:true}]}" fill="#f8f0c1" stroke="none" stroke-width="0.5" stroke-linecap="butt"/><path d="M240.33794,161.20822c-0.1132,0.15917 -0.29683,0.23093 -0.43937,0.26327c-0.1659,0.11719 -0.44583,0.23255 -0.79889,0.06429c-1.38011,0.19455 -2.49227,1.09791 -3.55226,1.85807c-2.87101,2.05894 -4.23014,3.6311 -4.23014,6.93228c-0.07458,5.72389 6.57314,7.09703 11.69683,7.10717c6.04275,-0.75537 9.29508,-4.8511 8.32528,-9.96593c-1.59951,-4.09003 -5.90322,-6.79301 -11.00147,-6.25915zM239.29459,160.21956l0.2744,-0.21998c6.11034,-0.86031 11.34897,2.26184 13.22618,7.15637c1.16235,5.90441 -2.70737,10.72065 -9.67472,11.56602c-1.90844,0.00334 -4.19603,0.27394 -6.0351,-0.24536c-3.78631,-1.06914 -7.23353,-4.64626 -7.26807,-8.15048c0,-4.17958 4.06308,-9.79216 9.4773,-10.10657z" fill="#495a6b" stroke="none" stroke-width="0.5" stroke-linecap="butt"/><path d="M240.33223,161.16543c5.09825,-0.53386 9.45656,2.20293 11.05607,6.29297c0.9698,5.11484 -2.32308,9.26199 -8.36584,10.01736c-5.12369,-0.01014 -11.82941,-1.42063 -11.75483,-7.14452c0,-3.30118 1.37623,-4.91115 4.24724,-6.97009c1.05999,-0.76016 2.19225,-1.67253 3.57236,-1.86709c0.35306,0.16826 0.63721,0.05213 0.80311,-0.06505c0.14254,-0.03234 0.3287,-0.1044 0.4419,-0.26358z" data-paper-data="{&quot;noHover&quot;:false,&quot;origItem&quot;:[&quot;Path&quot;,{&quot;applyMatrix&quot;:true,&quot;segments&quot;:[[[426.17588,306.34951],[0,0],[-0.2264,0.36962]],[[425.29714,306.96085],[0.28508,-0.0751],[-0.3318,0.27212]],[[423.69936,307.11013],[0.70612,0.39072],[-2.76022,0.45178]],[[416.59484,311.42481],[2.11998,-1.7652],[-5.74202,4.78112]],[[408.13456,327.52247],[0,-7.66576],[-0.14916,13.29162]],[[431.52822,344.02625],[-10.24738,-0.02354],[12.0855,-1.75406]],[[448.17878,320.88405],[1.9396,11.87732],[-3.19902,-9.49758]],[[426.17584,306.34949],[10.1965,-1.2397],[0,0]]],&quot;closed&quot;:true,&quot;fillColor&quot;:[0,0,0,1]}]}" fill="#84a4c2" stroke="none" stroke-width="0.5" stroke-linecap="butt"/><path d="M246.39187,172.58525c-3.99208,1.18264 -11.48504,0.98046 -12.84238,-3.08672c-0.21223,0.07555 -0.55538,0.11969 -0.85169,-0.19931c-0.46852,-0.50441 0.11713,-0.90794 0.11713,-0.90794c4.37096,-2.97242 7.87205,-5.01682 13.73505,-3.32918c2.33393,0.86074 3.1779,1.87416 4.27929,3.76002l0.07918,0.5042c0,0 0,0.64596 -0.75,0.64596c-0.1663,0 -0.29573,-0.03176 -0.39646,-0.0812c-1.16981,0.84193 -2.13681,1.86593 -3.37012,2.69416zM234.89825,168.7895c0.67147,3.54144 7.59842,3.52624 10.77679,2.6609c1.21132,-0.86485 2.18436,-1.89662 3.38989,-2.73614l-0.118,-0.02284c0,0 0.01647,-0.04256 0.05375,-0.10149c-0.69507,-1.08408 -1.36854,-1.72343 -2.98377,-2.32023c-4.81162,-1.37745 -7.76348,0.07664 -11.16921,2.3766c0.03863,0.08166 0.05054,0.1432 0.05054,0.1432z" fill="#000000" stroke="none" stroke-width="0.5" stroke-linecap="butt"/><path d="M234.79773,168.64498c3.40573,-2.29997 6.44789,-3.77819 11.25951,-2.40074c1.61523,0.59681 2.29834,1.25989 2.9934,2.34397c-0.03728,0.05894 -0.05372,0.10221 -0.05372,0.10221l0.118,0.02301c-1.20553,0.83952 -2.18985,1.89937 -3.40117,2.76422c-3.17837,0.86533 -10.19404,0.85298 -10.86551,-2.68846c0,0 -0.01189,-0.06255 -0.05052,-0.14421z" data-paper-data="{&quot;noHover&quot;:false,&quot;origItem&quot;:[&quot;Path&quot;,{&quot;applyMatrix&quot;:true,&quot;segments&quot;:[[[415.29649,323.95423],[0,0],[1.34295,8.22368]],[[436.85007,330.13319],[-6.35673,2.00942],[2.42263,-2.00831]],[[443.62986,323.77952],[-2.41107,1.94947],[0,0]],[443.39387,323.72648],[[443.50137,323.4908],[-0.07456,0.13687],[-1.39014,-2.51738]],[[437.53383,318.10291],[3.23045,1.38586],[-9.62324,-3.19863]],[[415.19541,323.62168],[6.81147,-5.34082],[0.07726,0.18961]]],&quot;closed&quot;:true}]}" fill="#ff9e9e" stroke="none" stroke-width="0.5" stroke-linecap="butt"/><path d="M242.05236,166.78898c0.02266,-0.00084 0.0456,-0.00138 0.06883,-0.00158c1.99806,-0.01746 1.79045,3.85294 -0.18757,3.82691c-1.5153,-0.01994 -1.67607,-1.38932 -1.39314,-2.50066c0.03417,-0.22359 0.10478,-0.43751 0.21698,-0.6258c0.10647,-0.23644 0.22934,-0.43631 0.35423,-0.57427c0,0 0.41417,-0.44588 0.94069,-0.12458z" fill="#000000" stroke="none" stroke-width="0.5" stroke-linecap="butt"/><path d="M237.03345,171.04889c0,0.35676 -0.33578,0.64596 -0.75,0.64596c-0.40588,0 -0.73646,-0.27768 -0.74959,-0.62451c-0.2244,-0.11164 -0.37541,-0.3205 -0.37541,-0.55974c0,-0.07634 0.01538,-0.14958 0.0436,-0.21755c-0.11955,0.06939 -0.26359,0.10989 -0.4186,0.10989c-0.41422,0 -0.75,-0.2892 -0.75,-0.64596c0,-0.02302 0.0014,-0.04576 0.00413,-0.06816c-0.0815,-0.10335 -0.12913,-0.22813 -0.12913,-0.36248c0,-0.35676 0.33578,-0.64596 0.75,-0.64596c0.41422,0 0.75,0.2892 0.75,0.64596c0,0.02302 -0.0014,0.04576 -0.00412,0.06816c0.0815,0.10335 0.12912,0.22813 0.12912,0.36248c0,0.07634 -0.01538,0.14957 -0.0436,0.21755c0.11955,-0.06939 0.26359,-0.10989 0.4186,-0.10989c0.40588,0 0.73646,0.27768 0.74959,0.62451c0.2244,0.11164 0.37541,0.32051 0.37541,0.55974z" fill="#ffe156" stroke="none" stroke-width="0.5" stroke-linecap="butt"/><path d="M233.90845,171.26421c0,-0.35676 0.33578,-0.64596 0.75,-0.64596c0.41422,0 0.75,0.2892 0.75,0.64596c0,0.35676 -0.33578,0.64596 -0.75,0.64596c-0.41422,0 -0.75,-0.2892 -0.75,-0.64596z" fill="#ffe156" stroke="none" stroke-width="0.5" stroke-linecap="butt"/><path d="M247.90845,170.5106c0,-0.35676 0.33578,-0.64596 0.75,-0.64596c0.41422,0 0.75,0.2892 0.75,0.64596c0,0.35676 -0.33578,0.64596 -0.75,0.64596c-0.41422,0 -0.75,-0.2892 -0.75,-0.64596z" fill="#ffe156" stroke="none" stroke-width="0.5" stroke-linecap="butt"/><path d="M246.15845,170.94123c0,-0.35676 0.33578,-0.64596 0.75,-0.64596c0.41422,0 0.75,0.2892 0.75,0.64596c0,0.35676 -0.33578,0.64596 -0.75,0.64596c-0.41422,0 -0.75,-0.2892 -0.75,-0.64596z" fill="#ffe156" stroke="none" stroke-width="0.5" stroke-linecap="butt"/><path d="M235.78345,163.62037c0,-0.35676 0.33578,-0.64596 0.75,-0.64596c0.41422,0 0.75,0.2892 0.75,0.64596c0,0.35676 -0.33578,0.64596 -0.75,0.64596c-0.41422,0 -0.75,-0.2892 -0.75,-0.64596z" fill="#4c6071" stroke="none" stroke-width="0.5" stroke-linecap="butt"/><path d="M239.28345,175.5706c0,-0.35676 0.33578,-0.64596 0.75,-0.64596c0.41422,0 0.75,0.2892 0.75,0.64596c0,0.35676 -0.33578,0.64596 -0.75,0.64596c-0.41422,0 -0.75,-0.2892 -0.75,-0.64596z" fill="#4c6071" stroke="none" stroke-width="0.5" stroke-linecap="butt"/><path d="M248.28345,173.20209c0,-0.35676 0.33578,-0.64596 0.75,-0.64596c0.41422,0 0.75,0.2892 0.75,0.64596c0,0.35676 -0.33578,0.64596 -0.75,0.64596c-0.41422,0 -0.75,-0.2892 -0.75,-0.64596z" fill="#4c6071" stroke="none" stroke-width="0.5" stroke-linecap="butt"/><path d="M247.28345,164.15867c0,-0.35676 0.33578,-0.64596 0.75,-0.64596c0.41422,0 0.75,0.2892 0.75,0.64596c0,0.35676 -0.33578,0.64596 -0.75,0.64596c-0.41422,0 -0.75,-0.2892 -0.75,-0.64596z" fill="#4c6071" stroke="none" stroke-width="0.5" stroke-linecap="butt"/></g></g></svg>