<svg version="1.1" xmlns="http://www.w3.org/2000/svg" xmlns:xlink="http://www.w3.org/1999/xlink" width="47.7309" height="48.63505" viewBox="0,0,47.7309,48.63505"><g transform="translate(-202.56728,-151.60622)"><g data-paper-data="{&quot;isPaintingLayer&quot;:true}" fill-rule="nonzero" stroke-linejoin="miter" stroke-miterlimit="10" stroke-dasharray="" stroke-dashoffset="0" style="mix-blend-mode: normal"><path d="M209.27706,172.11065c-0.64601,-0.41609 -1.09577,1.11904 -0.9781,1.68278c0.04191,0.20083 0.71609,0.55123 1.11936,0.74201c-0.22526,-0.64165 -0.14843,-1.65968 -0.03295,-2.37981zM210.48996,170.92579c0.71378,0.23025 0.48353,0.94404 0.48353,0.94404c-0.11673,0.3587 -0.58104,1.30333 -0.27181,1.69833c0.4195,0.53585 1.21246,0.00784 1.31905,1.13753c0.19052,2.0192 -1.80476,1.77925 -2.91045,1.33603c-2.91119,-1.16696 -2.84588,-6.13902 0.62729,-5.35863l0.48613,0.19697c0.08015,0.00043 0.16869,0.01426 0.26626,0.04573z" data-paper-data="{&quot;index&quot;:null}" fill="#e4ddb2" stroke="none" stroke-width="0.5" stroke-linecap="butt"/><path d="M209.39531,172.10663c-0.11548,0.72012 -0.19252,1.8362 0.03273,2.47785c-0.40327,-0.19078 -1.12949,-0.56359 -1.17141,-0.76442c-0.11766,-0.56374 0.37939,-2.17524 1.0254,-1.75915z" data-paper-data="{&quot;noHover&quot;:false,&quot;origItem&quot;:[&quot;Path&quot;,{&quot;applyMatrix&quot;:true,&quot;selected&quot;:true,&quot;segments&quot;:[[[436.89795,344.55388],[0,0],[0.23095,1.44025],7],[[436.83204,349.31349],[0.45051,-1.2833],[0.80654,-0.38156],7],[[439.07077,347.82947],[-0.08383,0.40166],[0.23532,-1.12748],7],[[437.11456,344.46392],[1.29201,-0.83218],[0,0],7]],&quot;closed&quot;:true}],&quot;index&quot;:null}" fill="#f8f0c1" stroke="none" stroke-width="0.5" stroke-linecap="butt"/><path d="M218.44898,172.27694c0.11548,0.72012 0.1923,1.73815 -0.03296,2.3798c0.40327,-0.19078 1.07745,-0.54118 1.11936,-0.74201c0.11766,-0.56374 -0.3321,-2.09886 -0.97811,-1.68277zM217.61064,171.00137l0.48613,-0.19697c3.47317,-0.78039 3.53848,4.19168 0.62729,5.35863c-1.10569,0.44322 -3.10097,0.68317 -2.91045,-1.33604c0.10659,-1.1297 0.89955,-0.60167 1.31905,-1.13753c0.30923,-0.395 -0.15508,-1.33963 -0.2718,-1.69832c0,0 -0.23025,-0.71378 0.48353,-0.94403c0.09757,-0.03147 0.18611,-0.04531 0.26626,-0.04574z" fill="#e4ddb2" stroke="none" stroke-width="0.5" stroke-linecap="butt"/><path d="M218.55231,172.18221c0.646,-0.41609 1.14306,1.19541 1.0254,1.75916c-0.04192,0.20083 -0.76814,0.57364 -1.17141,0.76442c0.22525,-0.64165 0.14821,-1.75772 0.03273,-2.47785z" data-paper-data="{&quot;noHover&quot;:false,&quot;origItem&quot;:[&quot;Path&quot;,{&quot;applyMatrix&quot;:true,&quot;segments&quot;:[[[218.44898,172.27694],[0,0],[0.11548,0.72012]],[[218.41602,174.65674],[0.22525,-0.64165],[0.40327,-0.19078]],[[219.53539,173.91473],[-0.04192,0.20083],[0.11766,-0.56374]],[[218.55728,172.23196],[0.646,-0.41609],[0,0]]],&quot;closed&quot;:true}]}" fill="#f8f0c1" stroke="none" stroke-width="0.5" stroke-linecap="butt"/><path d="M244.8125,160.5625l0.5,3.5l-6.875,19l9.25,13.75l-1.125,2.625l-2.375,-0.25l-11.875,-17l8.25,-20.375z" fill="#6e89a2" stroke="#495a6b" stroke-width="1.5" stroke-linecap="round"/><path d="M236.07194,165.36324c0.23717,-0.71151 0.94869,-0.47434 0.94869,-0.47434l0.375,0.125c1.33554,0.464 2.10595,1.25857 2.88687,2.42049c0,0 0.41603,0.62403 -0.20801,1.04006c-0.62404,0.41602 -1.04006,-0.20801 -1.04006,-0.20801c-0.57391,-0.86915 -1.10674,-1.51371 -2.11313,-1.82951l-0.375,-0.125c0,0 -0.71151,-0.23718 -0.47434,-0.94869z" fill="#1f272e" stroke="none" stroke-width="0.5" stroke-linecap="butt"/><path d="M233.32194,170.46259c-0.23717,-0.71151 0.47434,-0.94868 0.47434,-0.94868l0.61217,-0.16349c1.20959,0 2.08879,0.15569 3.23717,0.53849c0,0 0.71151,0.23717 0.47434,0.94868c-0.23717,0.71151 -0.94868,0.47434 -0.94868,0.47434c-1.01498,-0.33833 -1.69531,-0.46151 -2.76283,-0.46151l-0.13783,0.08651c0,0 -0.71152,0.23717 -0.94869,-0.47434z" fill="#1f272e" stroke="none" stroke-width="0.5" stroke-linecap="butt"/><path d="M244.04507,179.7643c-0.53033,0.53033 -1.06066,0 -1.06066,0l-0.18032,-0.18681c-0.6562,-0.83109 -0.73801,-1.06758 -1.70394,-0.5477c0,0 -0.67082,0.33541 -1.00623,-0.33541c-0.33541,-0.67082 0.33541,-1.00623 0.33541,-1.00623c1.63457,-0.77713 2.44458,-0.41 3.54606,0.95229l0.06968,0.0632c0,0 0.53033,0.53033 0,1.06066z" fill="#1f272e" stroke="none" stroke-width="0.5" stroke-linecap="butt"/><path d="M231.15845,178.47541c0,-0.75 0.75,-0.75 0.75,-0.75l0.36217,0.03849c1.26137,0.46381 1.78002,1.34491 2.59848,2.36799c0,0 0.46852,0.58565 -0.11713,1.05417c-0.58565,0.46852 -1.05417,-0.11713 -1.05417,-0.11713c-0.57165,-0.71457 -1.00986,-1.6365 -1.90152,-1.88201l0.11217,0.03849c0,0 -0.75,0 -0.75,-0.75z" fill="#1f272e" stroke="none" stroke-width="0.5" stroke-linecap="butt"/><path d="M244.01889,184.7475c-0.14709,0.73544 -0.88252,0.58835 -0.88252,0.58835l-0.24074,-0.14892c-0.94296,0.25964 -1.10861,1.01699 -1.40066,1.90066c0,0 -0.23717,0.71151 -0.94868,0.47434c-0.71151,-0.23717 -0.47434,-0.94868 -0.47434,-0.94868c0.47134,-1.40355 0.91059,-2.32031 2.34934,-2.84934l1.00926,0.10108c0,0 0.73544,0.14709 0.58835,0.88252z" fill="#1f272e" stroke="none" stroke-width="0.5" stroke-linecap="butt"/><path d="M239.68878,196.00574c-0.53033,0.53033 -1.06066,0 -1.06066,0l-0.55618,-1.1425c0.44097,-1.19924 0.90078,-1.55793 2.09934,-1.97434c0,0 0.71151,-0.23717 0.94868,0.47434c0.23717,0.71151 -0.47434,0.94868 -0.47434,0.94868c-0.76006,0.23851 -0.93801,0.25336 -1.15066,1.02566l0.19382,-0.3925c0,0 0.53033,0.53033 0,1.06066z" fill="#1f272e" stroke="none" stroke-width="0.5" stroke-linecap="butt"/><path d="M236.90845,194.47541c-0.75,0 -0.75,-0.75 -0.75,-0.75l0.0102,-0.5017c-0.29312,-2.0554 0.52406,-2.3733 2.3648,-2.3733c0,0 0.75,0 0.75,0.75c0,0.75 -0.75,0.75 -0.75,0.75c-0.35696,0 -0.71379,-0.22241 -1.06147,-0.14157c-0.25592,0.05951 0.12322,0.51094 0.17626,0.76827l0.0102,0.7483c0,0 0,0.75 -0.75,0.75z" fill="#1f272e" stroke="none" stroke-width="0.5" stroke-linecap="butt"/><path d="M250.20427,195.06082c-0.33541,0.67082 -1.00623,0.33541 -1.00623,0.33541l-0.16459,-0.17082c-0.81531,-0.00303 -1.70386,-0.10632 -2.16435,0.59352c0,0 -0.46852,0.58565 -1.05417,0.11713c-0.58565,-0.46852 -0.11713,-1.05417 -0.11713,-1.05417c0.95065,-1.08157 1.93463,-1.15207 3.33565,-1.15648l0.83541,0.32918c0,0 0.67082,0.33541 0.33541,1.00623z" fill="#1f272e" stroke="none" stroke-width="0.5" stroke-linecap="butt"/><path d="M234.65845,183.35041c0,-0.41421 0.33579,-0.75 0.75,-0.75c0.41421,0 0.75,0.33579 0.75,0.75c0,0.41421 -0.33579,0.75 -0.75,0.75c-0.41421,0 -0.75,-0.33579 -0.75,-0.75z" fill="#415261" stroke="none" stroke-width="0.5" stroke-linecap="butt"/><path d="M241.90845,164.72541c0,-0.41421 0.33579,-0.75 0.75,-0.75c0.41421,0 0.75,0.33579 0.75,0.75c0,0.41421 -0.33579,0.75 -0.75,0.75c-0.41421,0 -0.75,-0.33579 -0.75,-0.75z" fill="#415261" stroke="none" stroke-width="0.5" stroke-linecap="butt"/><path d="M238.40845,170.72541c0,-0.41421 0.33579,-0.75 0.75,-0.75c0.41421,0 0.75,0.33579 0.75,0.75c0,0.41421 -0.33579,0.75 -0.75,0.75c-0.41421,0 -0.75,-0.33579 -0.75,-0.75z" fill="#415261" stroke="none" stroke-width="0.5" stroke-linecap="butt"/><path d="M242.03345,192.47541c0,-0.41421 0.33579,-0.75 0.75,-0.75c0.41421,0 0.75,0.33579 0.75,0.75c0,0.41421 -0.33579,0.75 -0.75,0.75c-0.41421,0 -0.75,-0.33579 -0.75,-0.75z" fill="#415261" stroke="none" stroke-width="0.5" stroke-linecap="butt"/><path d="M244.28345,197.47541c0,-0.41421 0.33579,-0.75 0.75,-0.75c0.41421,0 0.75,0.33579 0.75,0.75c0,0.41421 -0.33579,0.75 -0.75,0.75c-0.41421,0 -0.75,-0.33579 -0.75,-0.75z" fill="#415261" stroke="none" stroke-width="0.5" stroke-linecap="butt"/><path d="M236.15845,176.10041c0,-0.41421 0.33579,-0.75 0.75,-0.75c0.41421,0 0.75,0.33579 0.75,0.75c0,0.41421 -0.33579,0.75 -0.75,0.75c-0.41421,0 -0.75,-0.33579 -0.75,-0.75z" fill="#4c5761" stroke="none" stroke-width="0.5" stroke-linecap="butt"/><path d="M240.03345,190.47541c0,-0.41421 0.33579,-0.75 0.75,-0.75c0.41421,0 0.75,0.33579 0.75,0.75c0,0.41421 -0.33579,0.75 -0.75,0.75c-0.41421,0 -0.75,-0.33579 -0.75,-0.75z" fill="#4c5761" stroke="none" stroke-width="0.5" stroke-linecap="butt"/><path d="M213.08794,153.17476c-0.1132,0.18481 -0.29683,0.26812 -0.43937,0.30567c-0.1659,0.13606 -0.44583,0.27 -0.79889,0.07464c-1.38011,0.22589 -2.49227,1.27474 -3.55226,2.15734c-2.87101,2.39056 -4.23014,4.21595 -4.23014,8.04883c-0.07458,6.64581 6.57314,8.24012 11.69683,8.25189c6.04275,-0.87703 9.29508,-5.63244 8.32528,-11.5711c-1.59951,-4.74879 -5.90322,-7.88713 -11.00147,-7.26728zM212.04459,152.02686l0.2744,-0.25541c6.11034,-0.99888 11.34897,2.62614 13.22618,8.30901c1.16235,6.85541 -2.70737,12.44737 -9.67472,13.4289c-1.90844,0.00388 -4.19603,0.31806 -6.0351,-0.28488c-3.78631,-1.24134 -7.23353,-5.39461 -7.26807,-9.46324c0,-4.85277 4.06308,-11.36934 9.4773,-11.73439z" fill="#495a6b" stroke="none" stroke-width="0.5" stroke-linecap="butt"/><path d="M213.08223,153.12507c5.09825,-0.61985 9.45656,2.55775 11.05607,7.30655c0.9698,5.93866 -2.32308,10.75378 -8.36584,11.63081c-5.12369,-0.01177 -11.82941,-1.64944 -11.75483,-8.29525c0,-3.83288 1.37623,-5.70217 4.24724,-8.09273c1.05999,-0.8826 2.19225,-1.94192 3.57236,-2.16781c0.35306,0.19536 0.63721,0.06053 0.80311,-0.07553c0.14254,-0.03755 0.3287,-0.12122 0.4419,-0.30603z" data-paper-data="{&quot;noHover&quot;:false,&quot;origItem&quot;:[&quot;Path&quot;,{&quot;applyMatrix&quot;:true,&quot;segments&quot;:[[[426.17588,306.34951],[0,0],[-0.2264,0.36962]],[[425.29714,306.96085],[0.28508,-0.0751],[-0.3318,0.27212]],[[423.69936,307.11013],[0.70612,0.39072],[-2.76022,0.45178]],[[416.59484,311.42481],[2.11998,-1.7652],[-5.74202,4.78112]],[[408.13456,327.52247],[0,-7.66576],[-0.14916,13.29162]],[[431.52822,344.02625],[-10.24738,-0.02354],[12.0855,-1.75406]],[[448.17878,320.88405],[1.9396,11.87732],[-3.19902,-9.49758]],[[426.17584,306.34949],[10.1965,-1.2397],[0,0]]],&quot;closed&quot;:true,&quot;fillColor&quot;:[0,0,0,1]}]}" fill="#84a4c2" stroke="none" stroke-width="0.5" stroke-linecap="butt"/><path d="M219.14187,166.38423c-3.99208,1.37312 -11.48504,1.13838 -12.84238,-3.58388c-0.21223,0.08772 -0.55538,0.13897 -0.85169,-0.23141c-0.46852,-0.58565 0.11713,-1.05418 0.11713,-1.05418c4.37096,-3.45117 7.87205,-5.82486 13.73505,-3.86539c2.33393,0.99937 3.1779,2.17602 4.27929,4.36563l0.07918,0.58541c0,0 0,0.75 -0.75,0.75c-0.1663,0 -0.29573,-0.03688 -0.39646,-0.09428c-1.16981,0.97753 -2.13681,2.16647 -3.37012,3.1281zM207.64825,161.97712c0.67147,4.11184 7.59842,4.09419 10.77679,3.08948c1.21132,-1.00415 2.18436,-2.2021 3.38989,-3.17684l-0.118,-0.02652c0,0 0.01647,-0.04941 0.05375,-0.11784c-0.69507,-1.25869 -1.36854,-2.00101 -2.98377,-2.69394c-4.81162,-1.59931 -7.76348,0.08898 -11.16921,2.75939c0.03863,0.09481 0.05054,0.16627 0.05054,0.16627z" fill="#000000" stroke="none" stroke-width="0.5" stroke-linecap="butt"/><path d="M207.54773,161.80932c3.40573,-2.67041 6.44789,-4.38673 11.25951,-2.78742c1.61523,0.69293 2.29834,1.46281 2.9934,2.7215c-0.03728,0.06843 -0.05372,0.11867 -0.05372,0.11867l0.118,0.02672c-1.20553,0.97474 -2.18985,2.20529 -3.40117,3.20944c-3.17837,1.00471 -10.19404,0.99036 -10.86551,-3.12148c0,0 -0.01189,-0.07263 -0.05052,-0.16744z" data-paper-data="{&quot;noHover&quot;:false,&quot;origItem&quot;:[&quot;Path&quot;,{&quot;applyMatrix&quot;:true,&quot;segments&quot;:[[[415.29649,323.95423],[0,0],[1.34295,8.22368]],[[436.85007,330.13319],[-6.35673,2.00942],[2.42263,-2.00831]],[[443.62986,323.77952],[-2.41107,1.94947],[0,0]],[443.39387,323.72648],[[443.50137,323.4908],[-0.07456,0.13687],[-1.39014,-2.51738]],[[437.53383,318.10291],[3.23045,1.38586],[-9.62324,-3.19863]],[[415.19541,323.62168],[6.81147,-5.34082],[0.07726,0.18961]]],&quot;closed&quot;:true}]}" fill="#ff9e9e" stroke="none" stroke-width="0.5" stroke-linecap="butt"/><path d="M214.70244,159.35241c0.0242,-0.00105 0.0487,-0.00171 0.07351,-0.00196c2.1339,-0.02165 1.91218,4.77765 -0.20032,4.74537c-1.61832,-0.02472 -1.79002,-1.72276 -1.48786,-3.10083c0.03649,-0.27725 0.1119,-0.54252 0.23173,-0.776c0.11371,-0.29318 0.24493,-0.54103 0.37831,-0.7121c0,0 0.44233,-0.5529 1.00464,-0.15448z" fill="#000000" stroke="none" stroke-width="0.5" stroke-linecap="butt"/><path d="M209.78345,164.60042c0,0.41422 -0.33578,0.75 -0.75,0.75c-0.40588,0 -0.73646,-0.32241 -0.74959,-0.7251c-0.2244,-0.12962 -0.37541,-0.37212 -0.37541,-0.6499c0,-0.08863 0.01538,-0.17367 0.0436,-0.25259c-0.11955,0.08057 -0.26359,0.12759 -0.4186,0.12759c-0.41422,0 -0.75,-0.33578 -0.75,-0.75c0,-0.02673 0.0014,-0.05313 0.00413,-0.07914c-0.0815,-0.12 -0.12913,-0.26487 -0.12913,-0.42086c0,-0.41422 0.33578,-0.75 0.75,-0.75c0.41422,0 0.75,0.33578 0.75,0.75c0,0.02673 -0.0014,0.05313 -0.00412,0.07914c0.0815,0.12 0.12912,0.26487 0.12912,0.42086c0,0.08863 -0.01538,0.17366 -0.0436,0.25259c0.11955,-0.08057 0.26359,-0.12759 0.4186,-0.12759c0.40588,0 0.73646,0.32241 0.74959,0.7251c0.2244,0.12962 0.37541,0.37213 0.37541,0.6499z" fill="#ffe156" stroke="none" stroke-width="0.5" stroke-linecap="butt"/><path d="M206.65845,164.85042c0,-0.41422 0.33578,-0.75 0.75,-0.75c0.41422,0 0.75,0.33578 0.75,0.75c0,0.41422 -0.33578,0.75 -0.75,0.75c-0.41422,0 -0.75,-0.33578 -0.75,-0.75z" fill="#ffe156" stroke="none" stroke-width="0.5" stroke-linecap="butt"/><path d="M220.65845,163.97542c0,-0.41422 0.33578,-0.75 0.75,-0.75c0.41422,0 0.75,0.33578 0.75,0.75c0,0.41422 -0.33578,0.75 -0.75,0.75c-0.41422,0 -0.75,-0.33578 -0.75,-0.75z" fill="#ffe156" stroke="none" stroke-width="0.5" stroke-linecap="butt"/><path d="M218.90845,164.47542c0,-0.41422 0.33578,-0.75 0.75,-0.75c0.41422,0 0.75,0.33578 0.75,0.75c0,0.41422 -0.33578,0.75 -0.75,0.75c-0.41422,0 -0.75,-0.33578 -0.75,-0.75z" fill="#ffe156" stroke="none" stroke-width="0.5" stroke-linecap="butt"/><path d="M208.53345,155.97542c0,-0.41422 0.33578,-0.75 0.75,-0.75c0.41422,0 0.75,0.33578 0.75,0.75c0,0.41422 -0.33578,0.75 -0.75,0.75c-0.41422,0 -0.75,-0.33578 -0.75,-0.75z" fill="#4c6071" stroke="none" stroke-width="0.5" stroke-linecap="butt"/><path d="M212.03345,169.85042c0,-0.41422 0.33578,-0.75 0.75,-0.75c0.41422,0 0.75,0.33578 0.75,0.75c0,0.41422 -0.33578,0.75 -0.75,0.75c-0.41422,0 -0.75,-0.33578 -0.75,-0.75z" fill="#4c6071" stroke="none" stroke-width="0.5" stroke-linecap="butt"/><path d="M221.03345,167.10042c0,-0.41422 0.33578,-0.75 0.75,-0.75c0.41422,0 0.75,0.33578 0.75,0.75c0,0.41422 -0.33578,0.75 -0.75,0.75c-0.41422,0 -0.75,-0.33578 -0.75,-0.75z" fill="#4c6071" stroke="none" stroke-width="0.5" stroke-linecap="butt"/><path d="M220.03345,156.60042c0,-0.41422 0.33578,-0.75 0.75,-0.75c0.41422,0 0.75,0.33578 0.75,0.75c0,0.41422 -0.33578,0.75 -0.75,0.75c-0.41422,0 -0.75,-0.33578 -0.75,-0.75z" fill="#4c6071" stroke="none" stroke-width="0.5" stroke-linecap="butt"/></g></g></svg>