<svg version="1.1" xmlns="http://www.w3.org/2000/svg" xmlns:xlink="http://www.w3.org/1999/xlink" width="52.75" height="52.75" viewBox="0,0,52.75,52.75"><g transform="translate(-213.62506,-153.625)"><g data-paper-data="{&quot;isPaintingLayer&quot;:true}" fill-rule="nonzero" stroke-linecap="butt" stroke-linejoin="miter" stroke-miterlimit="10" stroke-dasharray="" stroke-dashoffset="0" style="mix-blend-mode: normal"><path d="M214.87507,205.125v-50.25h50.25v50.25z" fill="#7f7f7f" stroke="#5e5e5e" stroke-width="2.5"/><path d="M258.56682,180.9215c0.15573,0.02971 0.31973,0.12186 0.46006,0.33235c0.41602,0.62404 -0.20801,1.04007 -0.20801,1.04007l-1.66602,-0.29071c0.09926,-5.07217 -5.96256,-8.18633 -9.36667,-10.73334c0,0 -0.6,-0.45 -0.15,-1.05c0.45,-0.6 1.05,-0.15 1.05,-0.15c3.71069,2.79029 9.13229,5.76176 9.88064,10.85162z" fill="#b70000" stroke="none" stroke-width="0.5"/><path d="M260.40285,181.25322c-0.00949,0 -0.01886,-0.00012 -0.02811,-0.00036c-0.12887,0.10445 -0.29308,0.16702 -0.47189,0.16702c-0.36867,0 -0.6752,-0.266 -0.73816,-0.61653l-0.16395,-0.81971c-0.86974,-4.44148 -4.58104,-8.53098 -9.07831,-9.41165c0,0 -0.73543,-0.14709 -0.58835,-0.88253c0.14709,-0.73543 0.88252,-0.58835 0.88252,-0.58835c3.73981,0.76128 6.95317,3.38317 8.80784,6.71426c-0.05057,-0.41673 -0.09663,-0.8343 -0.1388,-1.25324c-0.2344,-0.83061 -0.56827,-1.67787 -1.01248,-2.78038l-0.32702,-0.81754c-0.03859,-0.09037 -0.05996,-0.18985 -0.05996,-0.29433c0,-0.41422 0.33578,-0.75 0.75,-0.75c0.24849,0 0.46876,0.12085 0.60524,0.30698l0.49476,0.65968l-0.15812,0.11859l0.08781,0.21953c0.03284,0.08278 0.06569,0.16553 0.09849,0.24825c0.60638,0.91081 0.92748,2.00227 1.13228,3.15709c0.3485,1.21261 0.55041,2.42413 0.4472,3.64078c0.05634,0.45278 0.12145,0.89683 0.20536,1.32519l0.00365,0.90724c0,0 0,0.75 -0.75,0.75z" fill="#b70000" stroke="none" stroke-width="0.5"/><path d="M238.46378,159.85178c-0.1819,0.72761 -0.90951,0.54571 -0.90951,0.54571l-0.48476,-0.14427c-1.47442,0 -3.32603,-0.28168 -4.72955,0.28287c-0.14407,0.05795 -0.27692,0.14343 -0.40381,0.23661c4.76985,0.15953 8.9523,1.33554 12.49702,4.86685c0,0 0.53033,0.53033 0,1.06066c-0.53033,0.53033 -1.06066,0 -1.06066,0c-3.53881,-3.55386 -7.77007,-4.447 -12.63634,-4.447h-0.83333c-0.41421,0 -0.75,-0.33579 -0.75,-0.75c0,-0.17157 0.05761,-0.32969 0.15455,-0.45606l0.49545,-0.66061l0.2047,0.15353c1.64286,-1.99051 4.354,-1.78686 7.06196,-1.78686l0.84857,0.18906c0,0 0.72761,0.1819 0.54571,0.90951z" fill="#b70000" stroke="none" stroke-width="0.5"/><path d="M229.65284,164.33655c0,-0.75 0.75,-0.75 0.75,-0.75l0.18625,0.01456c4.03395,-0.79023 8.20198,1.42706 11.53296,3.42565c0,0 0.64312,0.38587 0.25725,1.02899c-0.38587,0.64312 -1.02899,0.25725 -1.02899,0.25725c-2.96921,-1.78152 -6.84748,-3.98265 -10.46704,-3.24102l-0.48042,0.01456c0,0 -0.75,0 -0.75,-0.75z" fill="#b70000" stroke="none" stroke-width="0.5"/><path d="M259.1607,180.67549c0.16011,0.03055 0.32873,0.12529 0.47301,0.3417c0.42773,0.6416 -0.21386,1.06934 -0.21386,1.06934l-1.71291,-0.29889c0.10205,-5.21493 -6.13038,-8.41674 -9.6303,-11.03544c0,0 -0.61689,-0.46267 -0.15422,-1.07955c0.46267,-0.61689 1.07955,-0.15422 1.07955,-0.15422c3.81513,2.86883 9.38933,5.92393 10.15874,11.15705z" fill="#ce0000" stroke="none" stroke-width="0.5"/><path d="M261.0484,181.01655c-0.00976,0 -0.01939,-0.00012 -0.0289,-0.00037c-0.1325,0.10739 -0.30133,0.17172 -0.48517,0.17172c-0.37905,0 -0.6942,-0.27349 -0.75894,-0.63388l-0.16856,-0.84278c-0.89422,-4.56649 -4.70998,-8.77109 -9.33383,-9.67655c0,0 -0.75613,-0.15123 -0.60491,-0.90737c0.15123,-0.75613 0.90736,-0.60491 0.90736,-0.60491c3.84507,0.78271 7.14887,3.47839 9.05574,6.90324c-0.05199,-0.42846 -0.09935,-0.85778 -0.14271,-1.28851c-0.241,-0.85399 -0.58426,-1.7251 -1.04098,-2.85864l-0.33622,-0.84055c-0.03968,-0.09291 -0.06165,-0.19519 -0.06165,-0.30261c0,-0.42588 0.34523,-0.77111 0.77111,-0.77111c0.25548,0 0.48195,0.12425 0.62228,0.31562l0.50869,0.67825l-0.16257,0.12193l0.09028,0.22571c0.03376,0.08511 0.06754,0.17019 0.10126,0.25524c0.62345,0.93645 0.95358,2.05863 1.16415,3.24595c0.35831,1.24674 0.5659,2.49236 0.45979,3.74325c0.05793,0.46552 0.12487,0.92207 0.21114,1.36249l0.00375,0.93278c0,0 0,0.77111 -0.77111,0.77111z" fill="#ce0000" stroke="none" stroke-width="0.5"/><path d="M238.49184,159.01275c-0.18702,0.74809 -0.93511,0.56107 -0.93511,0.56107l-0.4984,-0.14833c-1.51592,0 -3.41964,-0.28961 -4.86267,0.29083c-0.14812,0.05958 -0.28471,0.14747 -0.41518,0.24327c4.9041,0.16402 9.20427,1.37313 12.84876,5.00383c0,0 0.54526,0.54526 0,1.09051c-0.54526,0.54526 -1.09051,0 -1.09051,0c-3.63841,-3.65389 -7.98877,-4.57216 -12.992,-4.57216h-0.85678c-0.42587,0 -0.77111,-0.34524 -0.77111,-0.77111c0,-0.1764 0.05923,-0.33897 0.1589,-0.4689l0.50939,-0.6792l0.21046,0.15785c1.6891,-2.04653 4.47655,-1.83715 7.26073,-1.83715l0.87245,0.19438c0,0 0.74809,0.18702 0.56107,0.93511z" fill="#ce0000" stroke="none" stroke-width="0.5"/><path d="M229.4329,163.62374c0,-0.77111 0.77111,-0.77111 0.77111,-0.77111l0.19149,0.01497c4.14749,-0.81247 8.43283,1.46723 11.85757,3.52207c0,0 0.66122,0.39673 0.26449,1.05795c-0.39673,0.66122 -1.05795,0.26449 -1.05795,0.26449c-3.05278,-1.83166 -7.04021,-4.09475 -10.76164,-3.33224l-0.49394,0.01497c0,0 -0.77111,0 -0.77111,-0.77111z" fill="#ce0000" stroke="none" stroke-width="0.5"/><path d="M244.62905,168.64795c-2.40109,3.34861 -4.88231,6.88331 -7.63748,9.63848c-2.0369,4.0738 -5.73725,7.71549 -8.4,11.4c-0.87695,1.21345 -2.11669,2.03337 -2.8,3.4c-1.38556,1.38556 -2.65318,3.21311 -3.8,4.8c-0.25458,0.35226 -1.05843,0.32684 -1.05843,0.76147c0,0.46053 1.9778,0.94925 2.41146,0.59157c1.26427,-1.04278 2.89962,-2.96912 3.63011,-4.4301c2.15606,-2.1996 4.82976,-4.48798 6.6,-7c1.604,-2.27613 3.18997,-4.84271 5.2,-6.8c1.02721,-2.05441 3.08332,-3.73158 4.4,-5.6c2.21293,-3.14022 4.05526,-6.47722 6.37044,-9.55577c0.0694,-0.13641 1.29879,-1.67251 1.29767,-1.68556c-0.01363,-0.15992 -1.62386,-0.86818 -1.89016,-0.66748c-0.70673,0.53261 -1.40411,1.04535 -2.01443,1.61642c0.04626,0.31246 -0.1551,0.58093 -0.1551,0.58093c-0.54849,0.7286 -1.09814,1.48273 -1.65135,2.25045c-0.0072,0.02699 -0.01422,0.05414 -0.02104,0.08145l-0.39728,0.54843c0,0 -0.03059,0.03058 -0.08442,0.06972zM243.75903,167.3011c0.65878,-2.07917 2.47975,-4.1422 4.45459,-5.10586c1.09471,-0.53419 3.88465,0.2428 4.10984,1.73252c0.13741,0.90896 -1.13098,1.95683 -1.50233,2.71443c-2.32876,3.11162 -4.15839,6.50155 -6.42956,9.64424c-1.34321,1.85863 -3.37141,3.54282 -4.4,5.6c-4.20369,4.28859 -7.38047,9.49645 -11.8,13.8c-0.74123,1.48246 -3.38882,5.05719 -5.12659,5.30698c-1.06349,0.15287 -3.63184,-1.0481 -3.63184,-2.34552c0,-0.6915 0.98824,-1.13715 1.34157,-1.63854c1.12132,-1.59118 2.42359,-3.42359 3.8,-4.8c0.68438,-1.36876 1.94175,-2.18212 2.8,-3.4c2.63511,-3.73929 6.35156,-7.30312 8.4,-11.4c2.88482,-2.88482 5.48173,-6.6187 7.98431,-10.10825z" fill="#b3b3b3" stroke="none" stroke-width="0.5"/><path d="M244.74181,168.53702l0.34058,-0.46606c0.00682,-0.02731 0.07051,-0.13685 0.07771,-0.16384c0.55321,-0.76772 1.10305,-1.52172 1.65154,-2.25032c0,0 0.20092,-0.26876 0.15467,-0.58122c0.61032,-0.57107 1.3091,-1.08282 2.01583,-1.61543c0.2663,-0.20069 1.87982,0.51018 1.89345,0.67011c0.00111,0.01306 -1.22804,1.54935 -1.29745,1.68576c-2.31518,3.07855 -4.15191,6.42133 -6.36484,9.56155c-1.31668,1.86841 -3.36187,3.57045 -4.38907,5.62486c-2.01003,1.95729 -3.66252,4.57783 -5.26652,6.85396c-1.77024,2.51202 -4.45463,4.795 -6.61069,6.99461c-0.73049,1.46098 -2.36691,3.38659 -3.63118,4.42937c-0.43366,0.35769 -2.41546,-0.13416 -2.41546,-0.5947c0,-0.43463 0.86886,-0.48518 1.12344,-0.83745c1.14682,-1.58688 2.34949,-3.33841 3.73505,-4.72397c0.68331,-1.36663 1.92269,-2.18687 2.79964,-3.40032c2.66275,-3.68452 6.41281,-7.41084 8.44971,-11.48465c2.75517,-2.75517 5.248,-6.28398 7.64909,-9.63259c0.05383,-0.03914 0.0845,-0.06967 0.0845,-0.06967z" data-paper-data="{&quot;noHover&quot;:false,&quot;origItem&quot;:[&quot;Path&quot;,{&quot;applyMatrix&quot;:true,&quot;segments&quot;:[[[242.54591,170.80006],[0.05383,-0.03914],[-2.40109,3.34861]],[[234.90843,180.43854],[2.75517,-2.75517],[-2.0369,4.0738]],[[226.50843,191.83854],[2.66275,-3.68452],[-0.87695,1.21345]],[[223.70843,195.23854],[0.68331,-1.36663],[-1.38556,1.38556]],[[219.90843,200.03854],[1.14682,-1.58688],[-0.25458,0.35226]],[[218.85,200.8],[0,-0.43463],[0,0.46053]],[[221.26147,201.39157],[-0.43366,0.35769],[1.26427,-1.04278]],[[224.89157,196.96147],[-0.73049,1.46098],[2.15606,-2.1996]],[[231.49157,189.96147],[-1.77024,2.51202],[1.604,-2.27613]],[[236.69157,183.16147],[-2.01003,1.95729],[1.02721,-2.05441]],[[241.09157,177.56147],[-1.31668,1.86841],[2.21293,-3.14022]],[[247.46201,168.0057],[-2.31518,3.07855],[0.0694,-0.13641]],[[248.75969,166.32014],[0.00111,0.01306],[-0.01363,-0.15992]],[[246.86953,165.65265],[0.2663,-0.20069],[-0.70673,0.53261]],[[244.8551,167.26907],[0.61032,-0.57107],[0.04626,0.31246]],[[244.7,167.85],[0,0],[-0.54849,0.7286]],[[243.04865,170.10045],[0.55321,-0.76772],[-0.0072,0.02699]],[[243.02761,170.1819],[0.00682,-0.02731],[0,0]],[242.63033,170.73033]],&quot;closed&quot;:true}]}" fill="#d3d3d3" stroke="none" stroke-width="0.5"/><path d="M244.56824,166.36721c1.27598,0.10374 1.45021,-0.59559 2.66852,0.1446c1.00867,0.61282 1.66812,1.46501 2.45973,2.14046c0.13354,0.11395 0.4046,0.21811 0.66591,0.27476c-0.55643,0.57572 -1.25174,1.8457 -1.3241,2.01547c-1.65526,2.0755 -2.7435,0.98784 -4.74996,-0.21794c-0.16656,-0.10009 -1.13806,-0.99712 -1.8049,-1.43091c0.3159,-0.0908 0.62391,-0.2502 0.7045,-0.44684c0.21013,-0.51269 0.03238,-1.15169 -0.26217,-1.621c-0.12115,-0.19302 -0.36787,-0.36122 -0.6904,-0.50716c0.35777,-0.24045 0.71448,-0.48711 1.06868,-0.73959c0.40452,0.20553 0.82248,0.35224 1.26419,0.38815z" data-paper-data="{&quot;noHover&quot;:false,&quot;origItem&quot;:[&quot;Path&quot;,{&quot;applyMatrix&quot;:true,&quot;segments&quot;:[[[456.00275,327.98003],[0,0],[-0.53821,1.65636]],[[455.07251,333.79221],[-0.29314,-1.49187],[0.0485,0.24682]],[[462.27566,332.57698],[-0.73412,0.24471],[3.38454,-1.12818]],[[473.25,332],[-3.55565,0],[1.94416,0]],[[483.31066,333.93934],[-1.2758,-1.70778],[0.66323,0.88779]],[[484.09164,337.17082],[0.33579,-1.05607],[-0.12879,0.40505]],[[482.75168,338.19383],[0.615,-0.2322],[1.3996,0.75665]],[[486.40903,340.65253],[-0.34824,-0.17253],[4.19514,2.07845]],[[495.90253,340.34097],[-2.96326,4.40562],[0.11672,-0.35016]],[[498.21158,336.13014],[-1.01589,1.23783],[-0.53009,-0.07057]],[[496.83951,335.69206],[0.28466,0.2055],[-1.68748,-1.21818]],[[491.59097,331.84747],[2.11003,1.05814],[-2.54857,-1.27805]],[[486.25,332],[2.56038,0],[-3.84057,0]],[[475.50973,327.98063],[3.72311,-0.1283],[-6.0136,-2.00453]],[[456.72434,327.92302],[6.01838,-2.00613],[0,0]]],&quot;closed&quot;:true}]}" fill="#d3d3d3" stroke="none" stroke-width="0.5"/><path d="M248.36467,165.25138c0.93631,0.8289 1.99272,1.82059 3.2016,2.13102c0,0 0.07831,0.02239 0.17594,0.07823c0.20746,0.00189 0.40314,0.15366 0.56932,0.6996c0.0251,0.08246 0.02824,0.17575 0.01324,0.27768c-1.09753,1.03931 -2.19953,2.5551 -3.09386,4.18553c-0.62552,0.19158 -1.17767,0.45476 -1.62011,0.79762c-0.03177,0.02462 -0.06338,0.04922 -0.09482,0.07381c-1.55821,0.18338 -3.15929,-0.81898 -4.82341,-2.12562c-0.49253,-0.38672 -2.4808,-1.67738 -2.40335,-2.32645c0.02576,-0.21588 0.37848,-0.66198 0.78651,-0.90677c-0.04943,-0.00891 -0.097,-0.01803 -0.14152,-0.0271c0.41509,-0.38893 0.79751,-0.82032 1.14473,-1.2856c0.05911,-0.0394 0.1182,-0.07896 0.17726,-0.1187c0.33807,0.1503 0.59607,0.3228 0.71954,0.51953c0.29455,0.46931 0.46841,1.12938 0.25827,1.64207c-0.08059,0.19664 -0.39333,0.36473 -0.70923,0.45553c0.66684,0.43379 1.55648,1.2734 1.72304,1.37349c2.00646,1.20578 3.0885,2.30489 4.74376,0.22939c0.07236,-0.16977 0.76491,-1.42922 1.32134,-2.00493c-0.26131,-0.05665 -0.53249,-0.15997 -0.66603,-0.27391c-0.79161,-0.67546 -1.45119,-1.51581 -2.45987,-2.12863c-1.21831,-0.74019 -1.3919,-0.03665 -2.66788,-0.14039c-0.43722,-0.03555 -0.84841,-0.17756 -1.24482,-0.37657c0.50905,-0.36226 1.01301,-0.73658 1.50763,-1.12181c0.4289,-0.04815 1.00307,-0.40528 1.39437,-0.37347c0.53098,0.04317 1.07357,0.25177 1.59856,0.55117z" fill="#b3b3b3" stroke="none" stroke-width="0.5"/><path d="M241.84182,169.37071c0.33101,0.43598 1.83886,1.32755 2.11097,1.51012c2.45945,1.65018 4.7551,1.93204 5.92768,-1.24506c0.23128,-0.30837 1.11645,-0.62023 0.7978,-0.83712c-0.71359,-0.4857 -4.36206,-3.11756 -5.56084,-3.1113c-0.00377,0.16483 -0.06071,0.31652 -0.15435,0.43859l-0.49545,0.66061c-0.79785,1.0638 -1.62777,1.8096 -2.62581,2.58416zM240.31987,168.66133c0.20159,-1.01609 1.02551,-1.86867 1.98304,-2.47272c0.63343,-0.81447 1.29226,-1.61453 2.16089,-1.89691c1.77608,-0.57738 4.52752,1.77486 5.85384,2.77818c0.55255,0.41799 1.50502,0.48589 1.73936,1.13789c0.28803,0.80139 -0.45185,1.60686 -0.86887,2.16288c-0.40424,0.95123 -2.21155,3.27255 -3.32125,3.53064c-1.64464,0.38251 -6.78767,-2.25756 -7.5011,-4.16868c-0.03329,-0.03262 -0.0661,-0.07002 -0.09814,-0.11274c-0.32922,-0.43896 -0.09644,-0.79764 0.05224,-0.95855z" fill="#b3b3b3" stroke="none" stroke-width="0.5"/></g></g></svg>