<svg version="1.1" xmlns="http://www.w3.org/2000/svg" xmlns:xlink="http://www.w3.org/1999/xlink" width="132" height="128.66666" viewBox="0,0,132,128.66666"><defs><radialGradient cx="240" cy="180.00001" r="66" gradientUnits="userSpaceOnUse" id="color-1"><stop offset="0" stop-color="#f5fdff"/><stop offset="1" stop-color="#f5fdff" stop-opacity="0"/></radialGradient></defs><g transform="translate(-174,-115.66667)"><g data-paper-data="{&quot;isPaintingLayer&quot;:true}" fill-rule="nonzero" stroke-linejoin="miter" stroke-miterlimit="10" stroke-dasharray="" stroke-dashoffset="0" style="mix-blend-mode: normal"><path d="M306,180.00001c0,35.53032 -29.54921,64.33333 -66,64.33333c-36.45079,0 -66,-28.80301 -66,-64.33333c0,-35.53032 29.54921,-64.33333 66,-64.33333c36.45079,0 66,28.80301 66,64.33333z" fill="url(#color-1)" stroke="none" stroke-width="0" stroke-linecap="butt"/><path d="M252.57995,161.93117l-14.65438,19.53917l-53.97697,16.85254" fill="none" stroke="#c7f4ff" stroke-width="1.5" stroke-linecap="round"/><path d="M247.69515,167.54868l-7.81567,-24.17972" fill="none" stroke="#c7f4ff" stroke-width="1.5" stroke-linecap="round"/><path d="M242.56612,149.47495l22.71429,-13.43318" fill="none" stroke="#c7f4ff" stroke-width="1.5" stroke-linecap="round"/><path d="M257.46474,140.19384l-0.24424,-13.92166" fill="none" stroke="#c7f4ff" stroke-width="1.5" stroke-linecap="round"/><path d="M279.44631,144.34592l-5.37327,27.35484l-30.7742,1.95392l-5.86175,-10.01382" fill="none" stroke="#c7f4ff" stroke-width="1.5" stroke-linecap="round"/><path d="M276.75967,159.48878l17.8295,3.90784" fill="none" stroke="#c7f4ff" stroke-width="1.5" stroke-linecap="round"/><path d="M267.7228,173.41044l20.76037,25.8894" fill="none" stroke="#c7f4ff" stroke-width="1.5" stroke-linecap="round"/><path d="M282.62142,190.26297l14.65438,-17.58525" fill="none" stroke="#c7f4ff" stroke-width="1.5" stroke-linecap="round"/><path d="M240.36796,178.53947l24.42396,13.92166l-12.21198,30.77419" fill="none" stroke="#c7f4ff" stroke-width="1.5" stroke-linecap="round"/><path d="M260.88409,204.18463l17.58525,1.22119l8.54839,10.50231" fill="none" stroke="#c7f4ff" stroke-width="1.5" stroke-linecap="round"/><path d="M251.60299,185.37818l-10.99078,18.07374" fill="none" stroke="#c7f4ff" stroke-width="1.5" stroke-linecap="round"/><path d="M214.23432,189.28601l23.69125,28.57604" fill="none" stroke="#c7f4ff" stroke-width="1.5" stroke-linecap="round"/><path d="M223.75967,201.98647l-17.09678,12.21198" fill="none" stroke="#c7f4ff" stroke-width="1.5" stroke-linecap="round"/><path d="M213.99008,209.5579l10.99078,17.34101" fill="none" stroke="#c7f4ff" stroke-width="1.5" stroke-linecap="round"/><path d="M222.53847,223.47956l-10.99078,4.88479" fill="none" stroke="#c7f4ff" stroke-width="1.5" stroke-linecap="round"/><path d="M235.48317,215.41965l-3.66359,19.0507" fill="none" stroke="#c7f4ff" stroke-width="1.5" stroke-linecap="round"/><path d="M198.84722,170.23532l39.32259,11.23502l-18.31797,-43.96313" fill="none" stroke="#c7f4ff" stroke-width="1.5" stroke-linecap="round"/><path d="M212.2804,174.63163l-31.01843,7.81567" fill="none" stroke="#c7f4ff" stroke-width="1.5" stroke-linecap="round"/><path d="M209.34953,172.92195l-5.61751,-34.43779" fill="none" stroke="#c7f4ff" stroke-width="1.5" stroke-linecap="round"/><path d="M204.95321,154.35974l-15.63134,-1.70968" fill="none" stroke="#c7f4ff" stroke-width="1.5" stroke-linecap="round"/><path d="M208.37257,162.66389l8.30415,-33.70507" fill="none" stroke="#c7f4ff" stroke-width="1.5" stroke-linecap="round"/><path d="M226.4463,150.94039l15.14286,-21.00461" fill="none" stroke="#c7f4ff" stroke-width="1.5" stroke-linecap="round"/><path d="M236.70437,134.57633l-6.10599,-10.74654" fill="none" stroke="#c7f4ff" stroke-width="1.5" stroke-linecap="round"/><path d="M260.63985,171.70076l1.70968,-19.78341" fill="none" stroke="#c7f4ff" stroke-width="1.5" stroke-linecap="round"/></g></g></svg>