<svg version="1.1" xmlns="http://www.w3.org/2000/svg" xmlns:xlink="http://www.w3.org/1999/xlink" width="41.99037" height="37.24514" viewBox="0,0,41.99037,37.24514"><g transform="translate(-216.09072,-159.28915)"><g data-paper-data="{&quot;isPaintingLayer&quot;:true}" fill-rule="nonzero" stroke="none" stroke-linecap="butt" stroke-linejoin="miter" stroke-miterlimit="10" stroke-dasharray="" stroke-dashoffset="0" style="mix-blend-mode: normal"><path d="M230.96529,180.15458c0,-4.28689 3.47522,-7.7621 7.76211,-7.7621c4.28689,0 7.7621,3.47521 7.7621,7.7621c0,4.28689 -3.47521,7.76211 -7.7621,7.76211c-4.28689,0 -7.76211,-3.47522 -7.76211,-7.76211z" fill="#da0000" stroke-width="0"/><path d="M240.11133,168.02531c1.11033,-1.04908 2.30963,-1.87926 3.63203,-2.10885c4.89473,-0.84982 6.43005,5.05179 5.9326,8.82152c-1.38059,1.39207 -2.87579,2.56428 -4.24534,3.96907c2.94168,-0.40966 7.27244,0.94779 9.58292,1.43088c0.81044,0.16945 2.81743,0.3989 3.03904,1.51985c0.25664,1.29826 -1.28295,2.09813 -2.07608,2.63273c-3.87846,2.55339 -12.49804,6.20635 -16.68983,2.25952c-0.38329,-0.3609 0.38357,1.0301 0.30212,1.55023c-0.23909,1.52683 -1.18549,3.33037 -1.94237,4.64945c-0.50749,0.76787 -0.97162,1.54494 -1.59983,2.22451c-1.77466,1.91972 -4.25115,2.46589 -4.96151,-0.67887c-0.87136,-3.85755 0.19075,-6.98427 0.74901,-10.6455c0.05708,-0.37423 -0.63289,0.42084 -0.97624,0.58029c-1.10665,0.51388 -2.21795,1.01688 -3.32202,1.53709c-1.69917,0.79685 -5.2511,2.47512 -5.60641,-0.92729c-0.25195,-2.41264 4.10371,-7.21004 5.22693,-9.26593c0.53848,-0.9856 0.4928,-3.0832 1.64785,-3.63186c0.86811,-0.41235 3.78572,0.10862 5.43745,0.98139c-1.31179,-2.44756 -2.16765,-7.80695 -1.07825,-8.82778c1.29397,-1.21249 2.63542,-0.42682 3.69391,0.29069c1.27195,0.8622 2.39801,2.16542 3.25401,3.63886z" fill="#da0000" stroke-width="0.5"/><path d="M234.02449,189.47626c-1.55847,0.94603 -3.17322,1.79746 -4.80959,2.60338l-0.05655,0.00518l0.00613,0.01573l-1.27896,0.49811c-0.34633,0.13831 -0.7504,0.12202 -1.0982,-0.07928c-0.54684,-0.31649 -0.7664,-0.9814 -0.54047,-1.55168l0.45533,-1.21147l0.37221,0.13989c0.47648,-1.75273 1.22383,-3.94766 2.06815,-4.90094c-0.0696,0.01336 -0.13233,0.02323 -0.18391,0.02864c-0.77739,0.0814 -3.41623,0.05674 -3.71036,-0.57735c-1.36828,-2.94981 4.94966,-4.64833 5.92277,-6.32969c0.63078,-1.08986 -0.08451,-4.23765 -0.22176,-5.22124c0.87395,-0.17862 1.73004,-0.55535 2.62185,-0.53587c0.48194,0.01053 0.79225,1.0523 1.27617,0.40999c0.97257,-1.29092 1.48997,-3.09736 2.08607,-4.5785l0.4504,-1.19837c0.02546,-0.07155 0.05777,-0.14179 0.09718,-0.20988c0.34824,-0.60169 1.11831,-0.80716 1.72,-0.45892c0.4038,0.23371 0.62914,0.6574 0.62843,1.09269l0.0195,1.23725l-0.30344,0.00478c0.43184,2.41229 0.02974,4.58575 0.53027,7.22262c0.15434,0.8131 1.39678,-0.88826 2.08792,-1.34353l0.04924,-0.01079l-0.00743,-0.01343l1.08252,-0.59943c0.37708,-0.21746 0.85671,-0.23314 1.26052,0.00057c0.49008,0.28364 0.7173,0.84714 0.59655,1.37156l-0.26967,1.3107l-0.26567,-0.05466c-0.04579,0.41878 -0.10928,0.83527 -0.18965,1.24713c-0.12771,0.65445 -0.45493,2.34048 0.11657,1.99697c2.27252,-1.36597 4.92809,-1.41296 7.45615,-2.38601l0.14297,0.01572l-0.00667,-0.04412l1.35868,-0.20545c0.27583,-0.04413 0.56804,0.00282 0.82866,0.15366c0.60169,0.34824 0.80716,1.11831 0.45892,1.72l-0.6497,1.12256l-0.44797,-0.25927c-1.97205,2.88138 -5.70939,4.5787 -8.4516,6.85038c-0.73773,0.61114 -2.30381,0.84318 -2.72332,1.8353c-0.81216,1.92073 -0.65227,5.52508 -3.88256,5.24044c-1.05747,-0.09318 -3.96913,-2.96029 -4.52713,-3.93507c-0.02285,-0.13943 -0.0457,-0.27886 -0.06855,-0.41829z" fill="#f30000" stroke-width="0.5"/><path d="M232.7609,184.57211c-2.29875,-0.24412 -4.53816,-1.49036 -1.69886,-3.73581c0.55469,-0.43867 1.80835,-0.07557 1.98016,-0.76157c0.18146,-0.72448 -1.57568,-3.481 -0.42619,-4.13944c1.04442,-0.59825 2.42922,0.86749 3.12119,1.42107c2.12598,1.70841 -0.6432,-2.56112 1.71842,-3.2089c2.56897,-0.70466 2.17139,4.81606 3.35397,5.66709c0.41729,0.3003 0.83653,-0.98361 1.31746,-0.80191c0.529,0.19986 0.78736,0.85765 0.96716,1.3938c0.16629,0.49588 -0.12585,1.52496 -0.56169,1.95862c0.39589,-0.14449 1.04203,0.06583 1.3601,0.11786l0.76062,0.12677c0.36151,0.0537 0.63886,0.36537 0.63886,0.74182c0,0.27798 -0.15124,0.52064 -0.37592,0.65019l-0.6322,0.37932l-0.10524,-0.1754c-0.88615,0.5709 -1.68842,0.56546 -2.9428,1.17787c-0.7279,0.35537 0.70871,1.41996 -0.37684,2.18278c-0.54752,0.38474 -1.84109,-0.32147 -2.34501,-0.59497c-0.39091,-0.21216 -0.98802,-1.04836 -1.16952,-0.64231c-0.30374,0.6795 0.32787,1.1417 -0.83398,1.68358c-1.82494,0.85113 -3.65282,-2.21019 -3.7497,-3.44047z" fill="#f24c4c" stroke-width="0.5"/><path d="M253.92155,189.7914c0,0.75 -0.75,0.75 -0.75,0.75l-0.02273,-0.00754c-3.16758,0.45251 -5.88527,2.13141 -8.60723,3.76459c0,0 -0.64312,0.38587 -1.02899,-0.25725c-0.38587,-0.64312 0.25725,-1.02899 0.25725,-1.02899c2.89926,-1.73955 5.79079,-3.48098 9.16684,-3.96327l0.23486,-0.00754c0,0 0.75,0 0.75,0.75z" fill="#f28c8c" stroke-width="0.5"/><path d="M255.05253,169.8546c-0.67082,0.33541 -1.00623,-0.33541 -1.00623,-0.33541l-0.20798,-0.59301c0.05124,-4.72712 -5.74402,-8.15212 -9.9402,-8.13703c0,0 -0.75,0 -0.75,-0.75c0,-0.75 0.75,-0.75 0.75,-0.75c5.09217,0.01559 11.39398,4.04648 11.4402,9.63703l0.04962,-0.07781c0,0 0.33541,0.67082 -0.33541,1.00623z" fill="#f28c8c" stroke-width="0.5"/><path d="M216.77281,173.27847c0.67082,-0.33541 1.00623,0.33541 1.00623,0.33541l0.17243,0.38208c0.5175,0.64945 0.92315,1.31078 1.34951,2.02148c1.22624,2.14592 1.93228,3.92961 0.65425,6.27821c-0.34221,0.62887 -3.015,3.16864 -2.25098,3.94936c0.67756,0.69238 1.8428,1.22294 2.65354,1.76317c0,0 0.62404,0.41603 0.20801,1.04006c-0.41603,0.62404 -1.04006,0.20801 -1.04006,0.20801c-1.22393,-0.81637 -3.25148,-1.63336 -3.42282,-3.27012c-0.20429,-1.95148 2.21406,-3.40073 2.88227,-5.09607c0.61302,-1.55532 -0.22981,-2.80425 -0.97859,-4.11461c-0.38938,-0.64889 -0.75171,-1.25169 -1.22644,-1.84245l-0.34276,-0.6483c0,0 -0.33541,-0.67082 0.33541,-1.00623z" fill="#f28c8c" stroke-width="0.5"/></g></g></svg>