<svg version="1.1" xmlns="http://www.w3.org/2000/svg" xmlns:xlink="http://www.w3.org/1999/xlink" width="27.77704" height="19.54458" viewBox="0,0,27.77704,19.54458"><defs><linearGradient x1="239.72299" y1="176.27595" x2="239.72299" y2="184.77667" gradientUnits="userSpaceOnUse" id="color-1"><stop offset="0" stop-color="#ff9c9c"/><stop offset="1" stop-color="#ff8181"/></linearGradient></defs><g transform="translate(-225.83445,-170.64558)"><g data-paper-data="{&quot;isPaintingLayer&quot;:true}" fill-rule="nonzero" stroke="none" stroke-width="0.5" stroke-linecap="butt" stroke-linejoin="miter" stroke-miterlimit="10" stroke-dasharray="" stroke-dashoffset="0" style="mix-blend-mode: normal"><path d="M227.63195,179.78032c3.05527,-3.09367 6.50634,-7.68447 11.22874,-7.68447c4.72836,-0.01519 12.24963,3.409 13.30948,8.50548c-1.13349,2.49121 -3.18417,5.77272 -5.5405,7.34777c-1.81741,1.21482 -5.27109,0.74641 -7.33788,0.74641c-5.51131,0 -10.75809,-2.31363 -12.01602,-8.36263c0.06587,-0.14387 0.13179,-0.28952 0.19767,-0.43339c0.09902,-0.05919 0.15851,-0.11918 0.15851,-0.11918z" data-paper-data="{&quot;noHover&quot;:false,&quot;origItem&quot;:[&quot;Path&quot;,{&quot;applyMatrix&quot;:true,&quot;segments&quot;:[[[227.5234,179.90171],[0.09902,-0.05919],[-0.06587,0.14387]],[[227.32578,180.33333],[0.06587,-0.14387],[1.25793,6.049]],[[239.29441,188.64558],[-5.51131,0],[2.06679,0]],[[246.59582,187.91231],[-1.81741,1.21482],[2.35633,-1.57506]],[[252.12018,180.60069],[-1.13349,2.49121],[-1.05985,-5.09649]],[[238.86583,172.14558],[4.72836,-0.01519],[-4.7224,0]],[[227.68188,179.78306],[3.05527,-3.09367],[0,0]]],&quot;closed&quot;:true}]}" fill="#4a5c4a"/><path d="M245.58012,186.14558c-5.03675,0 -10.05142,-0.2371 -15.09242,-0.27932c2.29875,1.96285 5.49647,2.77932 8.80672,2.77932c2.06679,0 5.48401,0.48155 7.30142,-0.73327c0.69477,-0.46441 1.36157,-1.07404 1.98554,-1.76673c-0.98805,0 -2.08623,0 -3.00126,0zM245.58012,184.64558c1.14286,0 2.28571,0 3.42857,0h0.28571c0,0 0.21057,0 0.40856,0.11157c0.99503,-1.36219 1.8279,-2.86125 2.41722,-4.15646c-0.33878,-1.62908 -1.33212,-3.08215 -2.68137,-4.30478c-0.12952,0.08332 -0.24822,0.11299 -0.24822,0.11299l-0.75333,0.16525c-0.57143,0 -1.14286,0 -1.71429,0c-5.54151,0 -11.02932,1 -16.57143,1c0,0 -0.14708,0 -0.31097,-0.06513c-0.74551,0.78604 -1.46125,1.56782 -2.15869,2.27403c0,0 -0.05946,0.05946 -0.15848,0.11866c-0.06587,0.14387 -0.13175,0.28774 -0.19762,0.43162c0.33202,1.59659 0.93863,2.92944 1.75308,4.02655c5.51619,0.00239 10.99579,0.2857 16.50126,0.2857zM246.72298,175.07415c0.38132,0 0.76264,0 1.14396,0c-2.77224,-1.86029 -6.32511,-2.93717 -9.00109,-2.92857c-2.9771,0 -5.43114,1.80585 -7.60392,3.91577c5.16478,-0.1164 10.28909,-0.9872 15.46105,-0.9872zM226.68189,178.66254c3.42051,-3.38112 6.94849,-8.01696 12.18394,-8.01696c5.65452,0.01572 13.85297,3.99605 14.74566,10.11632c-1.15916,3.15948 -4.34164,8.13467 -7.82928,9.07023c-1.98459,0.53236 -4.44554,0.31345 -6.48781,0.31345c-1.80952,0 -3.72141,0.16843 -5.48781,-0.31345c-3.82822,-1.04436 -7.41927,-5.86954 -7.97214,-9.66001c0.11167,-0.30408 0.22334,-0.60815 0.33501,-0.91223l-0.05364,0.13569c0,0 0,-0.62172 0.56606,-0.73304z" fill="#1e251e"/><path d="M229.03182,184.37683c-0.81445,-1.09711 -1.42401,-2.44768 -1.75603,-4.04427c0.06587,-0.14388 0.13181,-0.28953 0.19768,-0.4334c0.09902,-0.0592 0.15851,-0.11918 0.15851,-0.11918c0.69745,-0.70621 1.41527,-1.49951 2.16078,-2.28555c0.16389,0.06513 0.31102,0.065 0.31102,0.065c5.54211,0 11.12123,-1.00985 16.66275,-1.00985c0.57143,0 1.14485,0.00393 1.71628,0.00393l0.75365,-0.16454c0,0 0.11869,-0.02969 0.24821,-0.11301c1.34925,1.22263 2.34675,2.69596 2.68553,4.32504c-0.58932,1.29522 -1.42615,2.81349 -2.42118,4.17568c-0.19799,-0.11157 -0.40867,-0.11132 -0.40867,-0.11132l-0.28594,0.00051c-1.14286,0 -2.29052,0.00849 -3.43338,0.00849c-5.50547,0 -11.07301,-0.29513 -16.5892,-0.29752z" data-paper-data="{&quot;noHover&quot;:false,&quot;origItem&quot;:[&quot;Path&quot;,{&quot;applyMatrix&quot;:true,&quot;segments&quot;:[[[245.58012,184.64558],[-5.50547,0],[1.14286,0]],[[249.00869,184.64558],[-1.14286,0],[0,0]],[249.29441,184.64558],[[249.70297,184.75716],[-0.19799,-0.11157],[0.99503,-1.36219]],[[252.12018,180.60069],[-0.58932,1.29522],[-0.33878,-1.62908]],[[249.43881,176.29591],[1.34925,1.22263],[-0.12952,0.08332]],[249.19059,176.4089],[[248.43726,176.57415],[0,0],[-0.57143,0]],[[246.72298,176.57415],[0.57143,0],[-5.54151,0]],[[230.15155,177.57415],[5.54211,0],[0,0]],[[229.84057,177.50902],[0.16389,0.06513],[-0.74551,0.78604]],[[227.68188,179.78305],[0.69745,-0.70621],[0,0]],[[227.5234,179.90171],[0.09902,-0.0592],[-0.06587,0.14387]],[[227.32578,180.33333],[0.06587,-0.14388],[0.33202,1.59659]],[[229.07886,184.35988],[-0.81445,-1.09711],[5.51619,0.00239]]],&quot;closed&quot;:true}]}" fill="url(#color-1)"/><path d="M237.60051,181.02642c-0.57284,-0.34586 -0.26264,-0.96625 -0.26264,-0.96625l0.28335,-0.48063c0.43682,-0.37799 0.94967,-0.56428 1.44924,-0.59781c0.1803,-0.02861 0.35677,-0.01944 0.52529,0.02063c1.33891,0.19703 2.32485,1.48022 1.0041,2.99765c-1.25885,1.44631 -2.80198,0.33372 -2.99933,-0.97358z" fill="#000000"/></g></g></svg>