<svg version="1.1" xmlns="http://www.w3.org/2000/svg" xmlns:xlink="http://www.w3.org/1999/xlink" width="129.10949" height="219.81372" viewBox="0,0,129.10949,219.81372"><g transform="translate(-185.74367,-65.57337)"><g stroke="none" stroke-miterlimit="10"><path d="M195.86437,70.49176c1.88452,0.03427 3.74415,-0.01993 5.48471,-0.29682c2.37774,-0.37825 4.9849,-0.95502 7.39167,-0.9916c4.48496,0.00024 9.43943,-0.91118 13.66912,-2.02186c2.45003,-0.64336 5.33819,0.51933 7.83102,0.51933c2.80036,0 5.23126,0.49947 8.00357,0.49947c1.72921,0 4.17134,-0.45594 5.83038,-0.02029c2.42605,0.63706 4.57476,1.51998 7.17566,1.51998c2.79613,-0.06778 6.13555,0.83464 8.83191,1.48016c3.60314,0.86261 8.46109,0.02092 12.17794,0.02092c7.16982,0 14.11709,-0.8965 21.18096,-1.01739c3.60395,-1.80198 9.11719,0.36726 12.4375,-1.59005c0.18119,-0.10681 -0.36311,0.32579 -0.33566,0.53432c0.05615,0.42649 0.37034,0.77696 0.55951,1.1633c0.86696,1.77064 1.44241,3.88635 1.44241,5.83775c1.43167,2.86335 0.78078,5.98767 1.5023,9.00141c0.9118,3.80861 0.98296,7.79941 0.98296,11.82981c0,7.07992 1.50617,14.03447 1.50617,21.00557c0,3.87921 0.77767,8.59949 0.01349,12.38443c-0.60313,2.98728 -0.95582,6.64224 -1.00686,9.62441c0,3.04707 -0.47071,6.11799 -0.49738,9.00511c-0.04096,4.43439 0.50308,8.69059 0.50308,13.00934c0.03629,2.12088 0.48291,4.62874 1.02096,6.67771c0.40696,1.54978 -0.3767,3.42937 0.00029,5.00405c0.76101,3.17875 0.44215,6.65212 0.49958,10.00805c1.08291,2.16582 0.45649,5.41815 0.4788,7.83357c0.03853,4.17154 0.49696,8.66053 0.49696,13.00852c0,2.47788 -0.41826,4.97634 -0.98223,7.33206c-1.00384,4.19306 -0.02445,9.85263 -0.02445,14.17861c0,3.71685 -0.84616,8.57312 0.01646,12.17627c0.67056,2.80092 0.97782,5.88792 0.97782,8.82966c0,7 -0.00491,14.00379 -0.00491,21.00379c0,2 -0.00121,4.00079 -0.00121,6.00079c0,0.57132 0.33201,1.21255 0.05678,1.71319c-1.11591,2.0298 -2.94903,2.50092 -4.98153,3.05833c-0.84039,0.23048 -1.33833,1.14369 -2.11566,1.53755c-0.96546,0.48919 -3.59223,0.97101 -4.71474,0.9438c-6.98223,0.1195 -14.34155,0.50314 -21.50834,0.50314c-7.16347,0 -13.87825,1.50167 -21.00945,1.50167c-3.4283,0 -6.6067,-0.20758 -9.83224,-0.97979c-1.25949,-0.30153 -2.76486,0.32477 -4.00187,-0.00006c-2.32192,-0.60972 -4.51539,-1.06059 -7.0033,-1.00027c-1.81381,-0.9069 -4.16277,-0.52048 -6.17518,-0.52048c-3.10747,0 -7.16387,-0.70225 -10.17679,0.01906c-1.51279,0.36217 -3.25904,1.01746 -4.82959,0.97939c-2.20791,0.03778 -5.02447,1.4545 -7.17486,2.01918c-1.52313,0.39996 -3.27347,-0.16944 -4.65717,-0.50071c-2.86967,-0.68701 -6.17724,-1.02162 -9.17566,-1.02162c-1.35732,0.0329 -2.54723,-0.66021 -3.8291,-0.98068c-0.49901,-0.12475 -1.28752,0.28636 -1.53485,-0.16465c-0.2995,-0.54611 0.1114,-2.89604 0.1114,-3.60605c0,-3.32085 -0.4911,-7.89037 0.97813,-10.82881c0.11957,-6.98668 0.51517,-14.0454 0.51517,-21.17589c0,-7.05214 0.994,-13.99531 0.994,-21.00592c0,-4.99223 -0.28171,-10.44365 -1.52541,-15.17987c-0.51404,-1.95757 -0.06574,-4.13134 -1.00199,-6.00384c0.06454,-2.66254 -0.83944,-5.48165 -1.50224,-8.00571c-0.91868,-3.49851 -0.15903,-7.5907 -1.2343,-11.08615c0.00081,0 0.00161,0 0.00242,0c0.29941,0 0.55779,-0.1757 0.67806,-0.42938l0.49264,-0.98621l-0.30857,-0.15443c0.61058,-1.39291 0.38744,-2.75367 0.38744,-4.68488c0,-5.01492 -0.99907,-10.05484 -0.99907,-15.01189c0,-1.57913 0.34753,-3.64452 -0.01914,-5.17612c-0.38735,-1.61798 -0.95933,-3.90524 -0.49877,-5.65913c0.84391,-3.21376 1.02298,-6.78387 1.02298,-10.17874c0,-4.55396 -1.67642,-10.24284 -0.51561,-14.83451c0.56941,-2.25235 1.52234,-3.72562 1.52234,-6.17504c0,-6.99707 0.50603,-13.90096 0.50603,-21.0057c0,-5.99554 -1.96142,-11.79359 -0.51615,-17.83051c0.31502,-1.31583 -0.1372,-1.72454 0.50077,-3.00048c0.0137,-0.80061 -0.38658,-3.01939 0.30119,-3.64247c2.43965,-2.21018 6.74563,0.21794 9.4728,0.21794c0.57568,0 3.22424,0.23775 3.53166,-0.22032c1.51669,-2.26001 -1.88275,-2.4764 -3.1518,-3.11093c-1.40558,-0.70279 -2.76008,-1.34636 -4.19692,-1.79355z" fill="#eedbb7" stroke-width="0.25"/><path d="M216.5,272v0.5c0,1.88431 0.94994,5.30715 2.6443,6.36201c0.28297,0.17617 0.72265,-0.1849 1,0c0.39332,0.26222 0.64087,0.97395 1.1057,0.88799c0,0 0.75,0 0.75,0.75c0,0.75 -0.75,0.75 -0.75,0.75c-2.23433,-0.17949 -4.14869,-2.15564 -5.2501,-4.52583c-0.00229,1.4719 -0.0541,3.20133 -1.21957,4.30616c-0.53724,0.50928 -1.50254,0.22467 -2.13603,0.60766c-0.52634,0.31821 -0.44842,1.1473 -0.72348,1.69742c0,0 -0.33541,0.67082 -1.00623,0.33541c-0.67082,-0.33541 -0.33541,-1.00623 -0.33541,-1.00623c0.18953,-0.37905 1.03691,-2.13538 1.27652,-2.30258c0.5207,-0.36334 1.43767,0.07822 1.86397,-0.39234c1.08042,-1.19259 0.78033,-3.01206 0.78033,-4.46967c0,-3.12889 0.37962,-5.99948 -0.97994,-8.82768c0,-1.99657 -0.52006,-4.04025 -0.52006,-6.17232v-0.5c0,0 0,-0.75 0.75,-0.75c0.75,0 0.75,0.75 0.75,0.75v0.5c0,2.02634 0.47994,3.93586 0.47994,5.82768c0.80974,1.53708 1.06266,3.24142 1.11419,4.98989c0.40587,0.18437 0.40587,0.68243 0.40587,0.68243z" fill="#b0a287" stroke-width="0.5"/><path d="M265.25,272.75c0.75,0 0.75,0.75 0.75,0.75v0.5c0,3.12383 0.77492,7.51855 -0.57918,10.33541c0,0 -0.33541,0.67082 -1.00623,0.33541c-0.67082,-0.33541 -0.33541,-1.00623 -0.33541,-1.00623c1.27343,-2.41728 0.42082,-6.92031 0.42082,-9.66459v-0.5c0,0 0,-0.75 0.75,-0.75z" fill="#b0a287" stroke-width="0.5"/><path d="M307.75,245.25c0.75,0 0.75,0.75 0.75,0.75c0,4.66666 0,9.83334 0,14.5c0,5.24477 -1.41865,12.98565 0.92082,17.66459c0,0 0.33541,0.67082 -0.33541,1.00623c-0.67082,0.33541 -1.00623,-0.33541 -1.00623,-0.33541c-2.47698,-4.95396 -1.07918,-12.80518 -1.07918,-18.33541c0,-4.66666 0,-9.33334 0,-14v-0.5c0,0 0,-0.75 0.75,-0.75z" fill="#b0a287" stroke-width="0.5"/><path d="M302.25,79.75c-0.75,0 -0.75,-0.75 -0.75,-0.75v-0.5c0,-2.09256 0.65493,-8.11129 -1.58541,-8.82918c0,0 -0.67082,-0.33541 -0.33541,-1.00623c0.33541,-0.67082 1.00623,-0.33541 1.00623,-0.33541c3.05282,1.81991 2.41459,6.89054 2.41459,10.17082v0.5c0,0 0,0.75 -0.75,0.75z" fill="#b0a287" stroke-width="0.5"/><path d="M248.25,77.25c-0.75,0 -0.75,-0.75 -0.75,-0.75v-0.5c0,-2.66701 -0.31221,-3.75 2.75,-3.75c0,0 0.1264,0 0.27541,0.05189c0.06161,-0.91322 -0.02541,-1.85644 -0.02541,-2.80189c0,0 0,-0.75 0.75,-0.75c0.75,0 0.75,0.75 0.75,0.75c0,1.76347 0.27777,3.57666 -0.52006,5.17231l0.02006,0.82769c0,0 0,0.75 -0.75,0.75c-0.75,0 -0.75,-0.75 -0.75,-0.75l0.02006,-1.17231c0.09509,-0.19017 0.17379,-0.38291 0.23872,-0.57788c-0.00572,0.0002 -0.00878,0.0002 -0.00878,0.0002c-0.49533,0 -1.11942,-0.56992 -1.46967,-0.21967c-0.58441,0.58441 0.21967,1.64319 0.21967,2.46967v0.5c0,0 0,0.75 -0.75,0.75z" fill="#b0a287" stroke-width="0.5"/><path d="M212.28033,77.53033c-0.53033,0.53033 -1.06066,0 -1.06066,0l-0.30508,-0.35951c-2.41505,-1.27226 -5.91818,-1.42082 -8.66459,-1.42082c0,0 -0.75,0 -0.75,-0.75c0,-0.75 0.75,-0.75 0.75,-0.75c3.04276,0 6.60709,0.26764 9.33541,1.57918l0.69492,0.64049c0,0 0.53033,0.53033 0,1.06066z" fill="#b0a287" stroke-width="0.5"/><path d="M234.25,252.75c0.75,0 0.75,0.75 0.75,0.75v1c-0.03004,1.29735 0.7353,2.07764 0.99032,3.37986c0.27917,1.42556 0.00968,3.17262 0.00968,4.62014c0,3.53536 0.80391,8.23054 -0.02006,11.67231c-0.52226,2.18149 -0.97994,4.53932 -0.97994,6.82769c0,0 0,0.75 -0.75,0.75c-0.75,0 -0.75,-0.75 -0.75,-0.75c0,-2.37144 0.4281,-4.91803 1.02006,-7.17231c0.8473,-3.22668 -0.02006,-7.98722 -0.02006,-11.32769c0,-1.37006 0.27322,-3.03308 0.00968,-4.37986c-0.27102,-1.38505 -0.98589,-2.1753 -1.00968,-3.62014v-1c0,0 0,-0.75 0.75,-0.75z" fill="#cfbf9f" stroke-width="0.5"/><path d="M294.75,264.25c-0.75,0 -0.75,-0.75 -0.75,-0.75v-0.5c0,-1.25839 -0.05161,-2.02897 0.52006,-3.17231c-0.06999,-4.63159 0.59168,-9.09468 1.5,-13.5c0.54983,-2.66668 -0.02006,-6.07967 -0.02006,-8.82769c0,-6 0,-12 0,-18c0,0 0,-0.75 0.75,-0.75c0.75,0 0.75,0.75 0.75,0.75c0,6 0,12 0,18c0,7.83282 -1.4276,14.96499 -1.52006,22.67231c-0.55748,1.11497 -0.47994,1.60588 -0.47994,2.82769v0.5c0,0 0,0.75 -0.75,0.75z" fill="#cfbf9f" stroke-width="0.5"/><path d="M298.73214,196.25021c0.74979,-0.01786 0.76765,0.73192 0.76765,0.73192l0.0147,0.96589c1.99451,5.98353 2.1753,12.57548 4.96545,18.37966c0,1.89133 0.57102,3.70813 1,5.5c0.97067,4.05453 0.02006,9.47777 0.02006,13.67231c0,0 0,0.75 -0.75,0.75c-0.75,0 -0.75,-0.75 -0.75,-0.75c0,-3.99726 1.02454,-9.50245 0.02006,-13.32769c-0.46435,-1.76832 -1,-3.63853 -1,-5.5c-2.99342,-5.68224 -2.99702,-12.50774 -4.98324,-18.46639l-0.03661,-1.18806c0,0 -0.01786,-0.74979 0.73192,-0.76765z" fill="#cfbf9f" stroke-width="0.5"/><path d="M197.75,240.75c0.75,0 0.75,0.75 0.75,0.75l-0.01925,1.16882c-1.03284,2.18985 -2.15618,5.66312 -1.50082,8.15887c0.45026,1.71468 1.56981,3.26535 2,5c0.30252,1.21986 0.02006,2.91111 0.02006,4.17231c0,4.61717 -0.89965,8.83769 -2.02006,13.17231c-0.52468,2.02985 -2.19266,3.3873 -3.05912,5.1631c0,0 -0.33541,0.67082 -1.00623,0.33541c-0.67082,-0.33541 -0.33541,-1.00623 -0.33541,-1.00623c0.83306,-1.63405 2.49117,-2.96319 2.94088,-4.8369c1.02495,-4.27037 1.97994,-8.29295 1.97994,-12.82769c0,-1.13487 0.29617,-2.73551 0.02006,-3.82769c-0.43573,-1.72357 -1.58553,-3.26876 -2,-5c-0.65013,-2.71563 0.29465,-6.4721 1.49918,-8.84113l-0.01925,-0.83118c0,0 0,-0.75 0.75,-0.75z" fill="#cfbf9f" stroke-width="0.5"/><path d="M213.25,85.25c-0.75,0 -0.75,-0.75 -0.75,-0.75l0.07918,-0.16459c-0.29803,-0.59607 -0.58778,-1.19657 -0.85951,-1.80508c-2.20517,-0.98472 -4.34898,-2.22071 -6.64198,-2.80039c-3.13064,-0.79145 -7.57726,0.02006 -10.82769,0.02006c0,0 -0.75,0 -0.75,-0.75c0,-0.75 0.75,-0.75 0.75,-0.75c3.39175,0 7.89149,-0.79358 11.17231,0.02006c2.51823,0.62452 5.02425,1.94868 7.35802,3.19961c0.38952,0.7267 0.77176,1.45745 1.14049,2.19492l0.07918,0.83541c0,0 0,0.75 -0.75,0.75z" fill="#cfbf9f" stroke-width="0.5"/><path d="M243.75,82.25c-0.75,0 -0.75,-0.75 -0.75,-0.75l0.07918,-0.83541c1.08229,-2.05445 1.64579,-7.15419 0.5,-9.32918c0,0 -0.33541,-0.67082 0.33541,-1.00623c0.67082,-0.33541 1.00623,0.33541 1.00623,0.33541c1.32682,2.76011 0.77591,8.01663 -0.5,10.67082l0.07918,0.16459c0,0 0,0.75 -0.75,0.75z" fill="#cfbf9f" stroke-width="0.5"/><path d="M296.75,100.25c-0.75,0 -0.75,-0.75 -0.75,-0.75l0.02006,-1.17231c1.1288,-2.2576 0.97994,-5.28306 0.97994,-7.82769c0,-2.04424 0.51744,-4.86029 0.02006,-6.82769c-0.51644,-2.04284 -1.48966,-3.95865 -2,-6c-0.30017,-1.2007 -0.49295,-3.645 -1.60547,-4.00149c0,0 -0.67082,-0.33541 -0.33541,-1.00623c0.33541,-0.67082 1.00623,-0.33541 1.00623,-0.33541c1.74402,1.03968 1.91421,3.07726 2.39453,4.99851c0.51135,2.04539 1.49107,3.94788 2,6c0.52293,2.10858 0.02006,4.99331 0.02006,7.17231c0,2.62575 0.14585,5.84048 -1.02006,8.17231l0.02006,0.82769c0,0 0,0.75 -0.75,0.75z" fill="#cfbf9f" stroke-width="0.5"/><path d="M306.25,112.75c-0.75,0 -0.75,-0.75 -0.75,-0.75c0,-1.33333 0,-3.66667 0,-5c0.0558,-3.26046 1.40436,-7.46012 0.52006,-10.82769c-0.59196,-2.25428 -1.02006,-4.80087 -1.02006,-7.17231c0,0 0,-0.75 0.75,-0.75c0.75,0 0.75,0.75 0.75,0.75c0,2.28837 0.45768,4.6462 0.97994,6.82769c0.8577,3.58263 -0.56307,7.74275 -0.47994,11.17231c0,1.33333 0,2.66667 0,4v1c0,0 0,0.75 -0.75,0.75z" fill="#cfbf9f" stroke-width="0.5"/><path d="M301.5,120c0,-0.53299 0.37877,-0.68721 0.59796,-0.73183c0.11202,-0.48438 0.29584,-0.95966 0.4221,-1.44048c1.15537,-4.39984 -1.08506,-8.87475 1.05912,-13.1631c0,0 0.33541,-0.67082 1.00623,-0.33541c0.67082,0.33541 0.33541,1.00623 0.33541,1.00623c-1.5803,3.1606 -0.92082,7.14312 -0.92082,10.66459c0,1.44829 -0.53271,2.65061 -0.5,4l-1.25,0.75c0,0 -0.75,0 -0.75,-0.75z" fill="#cfbf9f" stroke-width="0.5"/><path d="M188.07004,70.25117c-0.10704,-0.00077 -0.21373,-0.00117 -0.32004,-0.00117c0,0 -0.75,0 -0.75,-0.75c0,-0.47049 0.29515,-0.64584 0.51514,-0.71118c0.04055,-0.16514 0.15097,-0.3354 0.39945,-0.45964c0.67082,-0.33541 1.00623,0.33541 1.00623,0.33541l0.04566,0.10226c3.96068,0.10267 8.38385,0.61937 12.16338,-0.00716c2.46029,-0.40784 5.11488,-0.93294 7.6112,-1.00963c4.42865,-0.00023 9.14588,-0.97671 13.33662,-1.97999c2.66456,-0.63791 5.50301,0.47994 8.17231,0.47994c2.4522,0 4.63704,0.5 7,0.5c2.19217,0 5.0462,-0.48894 7.17231,0.02006c2.32814,0.55737 4.35457,1.47994 6.82769,1.47994c2.96383,0.05072 6.32816,0.77321 9.17231,1.52006c3.38668,0.88932 8.30187,-0.02006 11.82769,-0.02006c7.01652,0 13.93377,-1.14705 20.82769,-0.97994c1.98753,-0.99376 3.97607,0.03147 6,-0.5c1.47469,-0.38724 2.58824,-0.52006 4.17231,-0.52006c1.1388,0 2.39899,-0.94136 3.3943,-0.38799c0.43805,0.24355 0.17547,0.99075 0.33564,1.46567c0.81186,2.40738 2,4.41572 2,7c1.43184,2.86368 0.71821,6.02281 1.5,9c1.017,3.87291 1.02006,8.0678 1.02006,12.17231c0,7.07967 1.5,14.02278 1.5,21c0,3.98943 0.73371,8.71267 -0.00968,12.62014c-0.54177,2.84769 -1.05853,6.5656 -0.99032,9.37986c0,2.79369 0.17188,5.53729 -0.52006,8.17231c-1.1183,4.2587 0.52006,9.58903 0.52006,13.82769c-0.04775,1.9699 0.51852,4.40035 0.97994,6.32769c0.37699,1.57468 -0.40696,3.45022 0,5c0.82388,3.13749 0.5805,6.67907 0.5,10c1.38837,2.77674 -0.25804,6.11325 0.5,9c0.99482,3.78846 0.52006,8.179 0.52006,12.17231c0,2.55756 -0.38237,5.24386 -1.02006,7.67231c-0.28371,1.08043 0.02006,2.70185 0.02006,3.82769c0,3.33333 0,6.66667 0,10c0,3.52582 -0.90938,8.44101 -0.02006,11.82769c0.75211,2.86418 1.02006,6.15946 1.02006,9.17231c0,7 0,14 0,21c0,2.1154 0.83143,6.38902 -0.05709,8.28701c-1.14483,2.44551 -3.61913,3.41867 -6.02059,3.94292c-1.04918,0.22904 -0.82693,0.93921 -1.8853,1.46297c-1.21267,0.60012 -3.91183,1.03356 -5.28701,1.05709c-1.13556,-0.02753 -1.82047,0.48911 -3,0.5c-6.16551,0.05694 -12.33419,0 -18.5,0c-7.16126,0 -13.86153,1.5 -21,1.5c-7.25262,0 -14.03009,-1.89783 -21.17231,-2.02006c-1.71852,-0.85926 -3.91619,-0.47994 -5.82769,-0.47994c-2.92722,0 -7.01681,-0.75818 -9.82769,-0.02006c-1.63885,0.43035 -3.45469,0.99067 -5.17231,1.02006c-1.51866,-0.03681 -2.39949,1.12574 -3.82769,1.47994c-0.97707,0.24231 -2.02233,0.26594 -3,0.5c-1.74147,0.41692 -3.75027,-0.08133 -5.34463,-0.5c-2.70826,-0.71117 -5.97716,-0.97994 -8.82769,-0.97994c-1.3681,-0.02341 -5.79597,-0.66557 -6.63799,-1.8557c-0.3931,-0.55561 -0.11201,-2.68251 -0.11201,-3.3943c0,-2.79369 -0.17188,-5.53729 0.52006,-8.17231c0.37477,-1.42719 -0.21875,-2.5625 0.5,-4c-0.16483,-6.79991 0.47994,-13.8645 0.47994,-20.82769c0,-7.05294 1,-13.9916 1,-21c0,-4.94069 -0.35457,-10.12702 -1.47994,-14.82769c-0.47401,-1.97993 -0.06502,-4.13004 -1,-6c-0.04703,-2.74818 -0.87405,-5.38541 -1.5,-8c-0.53554,-2.23697 0.08116,-4.78685 -0.5,-7c-0.58895,-2.24284 -1.14317,-4.31469 -0.80039,-6.70264c0.4276,0 0.85521,0 1.28281,0c-0.41878,-1.41703 -0.00248,-3.69397 -0.00248,-4.96967c0,-4.63924 -1,-9.38568 -1,-14c0,-3.56713 -1.31203,-7.69666 -0.47994,-11.17231c0.75356,-3.14765 0.97994,-6.50694 0.97994,-9.82769c0,-4.69115 -1.65664,-10.42751 -0.47994,-15.17231c0.53031,-2.13835 1.47994,-3.52117 1.47994,-5.82769c0,-7.00025 0.5,-13.89369 0.5,-21c0,-6.06012 -2.08398,-12.06385 -0.47994,-18.17231c0.29612,-1.12768 -0.07598,-1.84804 0.5,-3c-0.02117,-0.87338 -0.23619,-2.16956 0,-3c0.99482,-3.49775 5.88955,-2.6858 8.40225,-2.05762c1.28543,0.32136 2.1788,0.45909 3.50184,0.47772c-0.33863,-0.18817 -0.67213,-0.40824 -1.00956,-0.57696c-1.63986,-0.81993 -3.1254,-1.49146 -4.8369,-1.94088c-2.38124,-0.6253 -3.9588,0.0864 -6.35802,-1.19961zM195.88736,70.53619c1.43684,0.4472 2.79247,1.0902 4.19805,1.79299c1.26905,0.63453 4.71161,0.94114 3.19492,3.20115c-0.30741,0.45807 -2.95465,0.21967 -3.53033,0.21967c-2.72717,0 -7.03002,-2.42985 -9.46967,-0.21967c-0.68777,0.62308 -0.28669,2.84137 -0.30039,3.64198c-0.63797,1.27594 -0.18498,1.68417 -0.5,3c-1.44527,6.03692 0.52006,11.83215 0.52006,17.82769c0,7.10473 -0.5,14.00293 -0.5,21c0,2.44942 -0.95065,3.91996 -1.52006,6.17231c-1.16081,4.59167 0.52006,10.27373 0.52006,14.82769c0,3.39487 -0.17615,6.95855 -1.02006,10.17231c-0.46056,1.7539 0.11265,4.03739 0.5,5.65537c0.36667,1.5316 0.02006,3.59318 0.02006,5.17231c0,4.95705 1,9.98508 1,15c0,1.93121 0.22284,3.28822 -0.38774,4.68113l0.30856,0.15428l-0.49273,0.98547c-0.12026,0.25368 -0.37868,0.42912 -0.67809,0.42912c-0.00081,0 -0.00161,0 -0.00242,0c1.07527,3.49545 0.31367,7.57918 1.23235,11.07769c0.6628,2.52406 1.56454,5.33746 1.5,8c0.93625,1.8725 0.48596,4.04243 1,6c1.2437,4.73622 1.52006,10.18008 1.52006,15.17231c0,7.01061 -1,13.94786 -1,21c0,7.13049 -0.40049,14.18563 -0.52006,21.17231c-1.46922,2.93844 -0.97994,7.50684 -0.97994,10.82769c0,0.71001 -0.41151,3.05959 -0.11201,3.6057c0.24733,0.451 1.03532,0.03961 1.53433,0.16436c1.28187,0.32047 2.47037,1.01284 3.82769,0.97994c2.99842,0 6.30264,0.33305 9.17231,1.02006c1.3837,0.33127 3.13224,0.89996 4.65537,0.5c2.15039,-0.56468 4.9644,-1.98228 7.17231,-2.02006c1.57055,0.03807 3.3149,-0.61777 4.82769,-0.97994c3.01292,-0.72131 7.06484,-0.02006 10.17231,-0.02006c2.01241,0 4.3585,-0.38684 6.17231,0.52006c2.48791,-0.06031 4.67808,0.39028 7,1c1.23701,0.32483 2.74051,-0.30153 4,0c3.22554,0.77221 6.39939,0.97994 9.82769,0.97994c7.1312,0 13.83653,-1.5 21,-1.5c7.16679,0 14.51777,-0.3805 21.5,-0.5c1.12251,0.02721 3.74753,-0.45372 4.71299,-0.94291c0.77733,-0.39387 1.27431,-1.30655 2.1147,-1.53703c2.0325,-0.55741 3.8635,-1.02728 4.97941,-3.05708c0.27523,-0.50064 -0.05709,-1.14167 -0.05709,-1.71299c0,-2 0,-4 0,-6c0,-7 0,-14 0,-21c0,-2.94174 -0.30938,-6.02677 -0.97994,-8.82769c-0.86261,-3.60315 -0.02006,-8.45546 -0.02006,-12.17231c0,-4.32598 -0.98378,-9.97925 0.02006,-14.17231c0.56397,-2.35572 0.97994,-4.84981 0.97994,-7.32769c0,-4.34799 -0.46147,-8.82846 -0.5,-13c-0.02231,-2.41542 0.60297,-5.66187 -0.47994,-7.82769c-0.05743,-3.35593 0.26101,-6.82125 -0.5,-10c-0.37699,-1.57468 0.40696,-3.45022 0,-5c-0.53805,-2.04897 -0.98377,-4.55143 -1.02006,-6.67231c0,-4.31875 -0.54096,-8.56561 -0.5,-13c0.02667,-2.88712 0.5,-5.95293 0.5,-9c0.05104,-2.98217 0.40655,-6.63286 1.00968,-9.62014c0.76418,-3.78494 -0.00968,-8.50065 -0.00968,-12.37986c0,-6.9711 -1.5,-13.92008 -1.5,-21c0,-4.0304 -0.06814,-8.01908 -0.97994,-11.82769c-0.72151,-3.01374 -0.06833,-6.13665 -1.5,-9c0,-1.9514 -0.57392,-4.06626 -1.44088,-5.8369c-0.18917,-0.38634 -0.50297,-0.73661 -0.55912,-1.1631c-0.02745,-0.20853 0.51683,-0.64114 0.33564,-0.53433c-3.32031,1.9573 -8.82944,-0.21003 -12.43339,1.59195c-7.06387,0.12089 -14.00249,1.02006 -21.17231,1.02006c-3.71685,0 -8.56917,0.84255 -12.17231,-0.02006c-2.69636,-0.64552 -6.03156,-1.54772 -8.82769,-1.47994c-2.6009,0 -4.74626,-0.883 -7.17231,-1.52006c-1.65904,-0.43565 -4.09848,0.02006 -5.82769,0.02006c-2.77231,0 -5.19964,-0.5 -8,-0.5c-2.49283,0 -5.37766,-1.16342 -7.82769,-0.52006c-4.22969,1.11068 -9.17842,2.02025 -13.66338,2.02001c-2.40677,0.03658 -5.01106,0.61212 -7.3888,0.99037c-1.74056,0.27689 -3.59825,0.33014 -5.48277,0.29587z" fill="#b0a287" stroke-width="0.5"/><path d="M222.75,99.5c0,4.97056 -4.92487,9 -11,9c-6.07513,0 -11,-4.02944 -11,-9c0,-4.97056 4.92487,-9 11,-9c6.07513,0 11,4.02944 11,9z" fill="#e5d4b0" stroke-width="0"/><path d="M232.75,110.25c0,5.66092 -4.36522,10.25 -9.75,10.25c-5.38478,0 -9.75,-4.58908 -9.75,-10.25c0,-5.66092 4.36522,-10.25 9.75,-10.25c5.38478,0 9.75,4.58908 9.75,10.25z" fill="#e5d4b0" stroke-width="0"/><path d="M299.25,153c0,4.69442 -3.24594,8.5 -7.25,8.5c-4.00406,0 -7.25,-3.80558 -7.25,-8.5c0,-4.69442 3.24594,-8.5 7.25,-8.5c4.00406,0 7.25,3.80558 7.25,8.5z" fill="#e5d4b0" stroke-width="0"/><path d="M217.75,204.25c0,2.62335 -2.91015,4.75 -6.5,4.75c-3.58985,0 -6.5,-2.12665 -6.5,-4.75c0,-2.62335 2.91015,-4.75 6.5,-4.75c3.58985,0 6.5,2.12665 6.5,4.75z" fill="#e5d4b0" stroke-width="0"/><path d="M287.25,258.25c0,4.83249 -3.58172,8.75 -8,8.75c-4.41828,0 -8,-3.91751 -8,-8.75c0,-4.83249 3.58172,-8.75 8,-8.75c4.41828,0 8,3.91751 8,8.75z" fill="#e5d4b0" stroke-width="0"/><path d="M270.75,245.5c0,2.48528 -2.79822,4.5 -6.25,4.5c-3.45178,0 -6.25,-2.01472 -6.25,-4.5c0,-2.48528 2.79822,-4.5 6.25,-4.5c3.45178,0 6.25,2.01472 6.25,4.5z" fill="#e5d4b0" stroke-width="0"/><path d="M212.25,209.5c0,2.48528 -1.45507,4.5 -3.25,4.5c-1.79493,0 -3.25,-2.01472 -3.25,-4.5c0,-2.48528 1.45507,-4.5 3.25,-4.5c1.79493,0 3.25,2.01472 3.25,4.5z" fill="#e5d4b0" stroke-width="0"/><path d="M211.75,217.25c0,1.24264 -1.34315,2.25 -3,2.25c-1.65685,0 -3,-1.00736 -3,-2.25c0,-1.24264 1.34315,-2.25 3,-2.25c1.65685,0 3,1.00736 3,2.25z" fill="#e5d4b0" stroke-width="0"/><text transform="translate(204.51105,95.25001) scale(0.5,0.5)" font-size="40" xml:space="preserve" fill="#60594a" stroke-width="1" font-family="Sans Serif" font-weight="normal" text-anchor="start"><tspan x="0" dy="0">Controls:</tspan></text><text transform="translate(196.75,115.2428) scale(0.31802,0.31802)" font-size="40" xml:space="preserve" fill="#60594a" stroke-width="1" font-family="Sans Serif" font-weight="normal" text-anchor="start"><tspan x="0" dy="0">WASD: Movement</tspan></text><text transform="translate(196.75,129.73136) scale(0.31259,0.31259)" font-size="40" xml:space="preserve" fill="#60594a" stroke-width="1" font-family="Sans Serif" font-weight="normal" text-anchor="start"><tspan x="0" dy="0">Left Click: Interact</tspan></text><text transform="translate(196.75028,141.1977) scale(0.22708,0.22708)" font-size="40" xml:space="preserve" fill="#60594a" stroke-width="1" font-family="Sans Serif" font-weight="normal" text-anchor="start"><tspan x="0" dy="0">Q: Options/Escape Mines</tspan></text><text transform="translate(192.82473,155.64829) scale(0.22708,0.22708)" font-size="40" xml:space="preserve" fill="#60594a" stroke-width="1" font-family="Sans Serif" font-weight="normal" text-anchor="start"><tspan x="0" dy="0">1/2: Change Inventory Tab</tspan></text></g></g></svg>