<svg version="1.1" xmlns="http://www.w3.org/2000/svg" xmlns:xlink="http://www.w3.org/1999/xlink" width="52.75" height="52.75" viewBox="0,0,52.75,52.75"><g transform="translate(-213.625,-153.625)"><g data-paper-data="{&quot;isPaintingLayer&quot;:true}" fill-rule="nonzero" stroke-linejoin="miter" stroke-miterlimit="10" stroke-dasharray="" stroke-dashoffset="0" style="mix-blend-mode: normal"><path d="M214.875,205.125v-50.25h50.25v50.25z" fill="#7f7f7f" stroke="#5e5e5e" stroke-width="2.5" stroke-linecap="butt"/><path d="M224.25175,179.88347c4.4162,-0.05908 8.15462,0.61793 12.47334,-0.67963l0.68164,-0.2048c0,0 0.2595,-0.07797 0.50639,0.02243c0.08566,-0.13006 0.40902,-0.53827 0.94101,-0.2521c0.62681,0.33718 0.28963,0.96399 0.28963,0.96399l-0.37592,0.5402c-3.21447,2.11144 -1.90563,7.85877 -2.45349,11.01664c-0.14367,0.8063 -0.36426,2.64499 -0.79177,3.3158c-1.23132,1.93209 -8.33105,4.21225 -9.94744,2.1778c-0.56953,-0.71682 -0.49738,-2.28192 -0.60898,-3.1579c-0.42977,-3.37331 2.02805,-10.241 -1.48749,-12.46766c0,0 -0.58574,-0.40434 -0.1814,-0.99008c0.26679,-0.38648 0.61256,-0.34192 0.81693,-0.26688c0.081,-0.01704 0.13755,-0.01781 0.13755,-0.01781zM226.37824,193.446c0.08417,0.66066 -0.00326,1.92276 0.34776,2.50004c0.35981,0.59173 2.30406,0.00693 2.79903,-0.09698c3.19419,-0.67058 4.85254,-1.61894 5.38679,-4.80218c0.55339,-3.18977 -0.26646,-7.37804 1.51167,-10.28141c-3.72976,0.96059 -7.08294,0.5861 -10.83784,0.54121c2.25739,3.27669 0.32019,8.43138 0.79259,12.13932z" fill="#686868" stroke="none" stroke-width="0.5" stroke-linecap="butt"/><path d="M226.82724,183.26596l-1.19554,-3.97919l29.63934,-8.90509l1.19554,3.97919z" fill="#919191" stroke="#686868" stroke-width="1.5" stroke-linecap="butt"/><path d="M226.75584,184.33158l-1.91489,-6.37345l8.8588,-2.66161l1.91489,6.37345z" fill="#919191" stroke="none" stroke-width="0" stroke-linecap="butt"/><path d="M222.998,180.07806l-1.91489,-6.37345l32.27304,-9.69638l1.91489,6.37345z" fill="#707070" stroke="#5a5a5a" stroke-width="1.5" stroke-linecap="butt"/><path d="M254.884,169.09348l-1.115,-3.71112l1.3066,-0.39257l1.115,3.71112z" fill="#8c8c8c" stroke="#5a5a5a" stroke-width="1.5" stroke-linecap="butt"/><path d="M252.01391,162.38563l0.28774,0.95771" fill="none" stroke="#5a5a5a" stroke-width="1.5" stroke-linecap="round"/><path d="M221.25493,171.23556l0.43161,1.43656" fill="none" stroke="#5a5a5a" stroke-width="1.5" stroke-linecap="round"/><path d="M237.88327,177.7667c0.51425,0.54594 -0.03169,1.06019 -0.03169,1.06019l-0.30394,0.26343c-0.65647,0.95099 -0.93862,1.69834 -1.41388,2.22785c-1.35698,2.86918 -0.67115,6.78223 -1.1881,9.76198c-0.53425,3.18324 -2.23627,4.14476 -5.43046,4.81533c-0.49496,0.10391 -2.45195,0.68404 -2.81176,0.09231c-0.35102,-0.57728 -0.27125,-1.84454 -0.35542,-2.5052c-0.4724,-3.70794 1.46282,-8.93408 -0.79456,-12.21077c2.95308,0.0353 5.69538,0.2727 8.54621,-0.09479l0.20836,-0.51734c0.33413,-0.82963 0.6249,-1.5478 1.1312,-2.28945c0,0 0.39567,-0.57319 0.97679,-0.23354l0.40706,-0.40169c0,0 0.54594,-0.51425 1.06019,0.03169z" fill="#919191" stroke="none" stroke-width="0.5" stroke-linecap="butt"/><path d="M244.60615,178.07005c0.74665,-0.07075 0.81741,0.6759 0.81741,0.6759l0.06313,0.72769c-0.1431,4.45393 -4.99704,7.15427 -9.18637,7.0404c0,0 -0.74966,-0.02241 -0.72725,-0.77207c0.02241,-0.74966 0.77207,-0.72725 0.77207,-0.72725c3.35467,0.11082 7.54396,-1.99008 7.64223,-5.58589l-0.05712,-0.54138c0,0 -0.07075,-0.74665 0.6759,-0.81741z" fill="#686868" stroke="none" stroke-width="0.5" stroke-linecap="butt"/><path d="M241.2109,182.23722c-0.06639,0.74706 -0.81345,0.68067 -0.81345,0.68067l-0.62652,-0.05698c-1.54779,-0.12847 -2.033,-0.64359 -2.0688,-2.19629c0,0 0.02241,-0.74966 0.77207,-0.72725c0.74966,0.02241 0.72725,0.77207 0.72725,0.77207c-0.09799,0.68165 -0.072,0.70924 0.61429,0.65214l0.71449,0.06219c0,0 0.74706,0.06639 0.68067,0.81345z" fill="#686868" stroke="none" stroke-width="0.5" stroke-linecap="butt"/><path d="M229.1189,182.71062c0.48391,2.22489 -0.10585,4.68993 0.00462,6.97176c0.02672,0.55193 0.1236,1.10634 0.06954,1.65626c-0.052,0.52902 -0.71105,1.50386 -0.18554,1.58387c0.64303,0.09789 1.84423,-0.02243 2.48849,-0.216c1.0969,-0.76659 0.56328,-1.51134 0.51143,-2.7019c-0.07816,-1.79469 0.11919,-4.01483 0.41493,-5.76795c0.0234,-0.13871 0.20923,-1.46991 0.49753,-2.18873c-0.86268,0.23496 -2.4395,0.40543 -2.6614,0.43896c-0.38398,0.04754 -0.76594,0.12191 -1.13959,0.22374zM227.67629,181.96037c0.09934,-0.18303 0.2512,-0.28998 0.2512,-0.28998l0.53924,-0.33272c0.51772,-0.15377 1.04938,-0.26655 1.58491,-0.33645c0.76241,-0.1152 4.06258,-0.93658 4.58811,-0.23185c0.28498,0.38216 -0.63237,3.12538 -0.73946,3.7237c-0.51981,2.90426 0.84134,7.73119 -1.74813,9.56233c-0.82512,0.24791 -3.13419,0.65386 -3.9288,0.14583c-1.08873,-0.69608 -0.62738,-2.05307 -0.52267,-3.01356c0.25546,-2.34334 0.52502,-6.32971 -0.14334,-8.5326c0,0 -0.12073,-0.40182 0.11896,-0.69468z" fill="#5a5a5a" stroke="none" stroke-width="0.5" stroke-linecap="butt"/><path d="M230.25213,182.43729c0.2219,-0.03353 1.82233,-0.20133 2.68501,-0.43629c-0.2883,0.71882 -0.47045,2.05155 -0.49385,2.19025c-0.29574,1.75312 -0.49368,4.06434 -0.41552,5.85904c0.05185,1.19057 0.57079,1.93932 -0.5261,2.70591c-0.64425,0.19356 -1.86772,0.31138 -2.51075,0.21349c-0.52551,-0.08 0.12964,-1.05641 0.18164,-1.58543c0.05406,-0.54992 -0.0542,-1.11141 -0.08092,-1.66334c-0.11047,-2.28183 0.49378,-4.83228 0.00988,-7.05717c0.37366,-0.10183 0.76663,-0.17891 1.15061,-0.22645z" data-paper-data="{&quot;noHover&quot;:false,&quot;origItem&quot;:[&quot;Path&quot;,{&quot;applyMatrix&quot;:true,&quot;segments&quot;:[[[229.1189,182.71062],[0.37366,-0.10183],[0.48391,2.22489]],[[229.12351,189.68238],[-0.11047,-2.28183],[0.02672,0.55193]],[[229.19305,191.33864],[0.05406,-0.54992],[-0.052,0.52902]],[[229.00751,192.92251],[-0.52551,-0.08],[0.64303,0.09789]],[[231.496,192.70651],[-0.64425,0.19356],[1.0969,-0.76659]],[[232.00743,190.00461],[0.05185,1.19057],[-0.07816,-1.79469]],[[232.42236,184.23666],[-0.29574,1.75312],[0.0234,-0.13871]],[[232.91989,182.04792],[-0.2883,0.71882],[-0.86268,0.23496]],[[230.25849,182.48688],[0.2219,-0.03353],[-0.38398,0.04754]]],&quot;closed&quot;:true}]}" fill="#707070" stroke="none" stroke-width="0.5" stroke-linecap="butt"/></g></g></svg>