<svg version="1.1" xmlns="http://www.w3.org/2000/svg" xmlns:xlink="http://www.w3.org/1999/xlink" width="38.375" height="35.72609" viewBox="0,0,38.375,35.72609"><defs><linearGradient x1="240" y1="182.53613" x2="240" y2="191.03613" gradientUnits="userSpaceOnUse" id="color-1"><stop offset="0" stop-color="#414141"/><stop offset="1" stop-color="#ff6f00"/></linearGradient><radialGradient cx="240" cy="186.78613" r="10.09091" gradientUnits="userSpaceOnUse" id="color-2"><stop offset="0" stop-color="#ffbb00"/><stop offset="1" stop-color="#ffbb00" stop-opacity="0"/></radialGradient></defs><g transform="translate(-220.8125,-163.6264)"><g data-paper-data="{&quot;isPaintingLayer&quot;:true}" fill-rule="nonzero" stroke-linecap="butt" stroke-linejoin="miter" stroke-miterlimit="10" stroke-dasharray="" stroke-dashoffset="0" style="mix-blend-mode: normal"><path d="M221.5625,198.60249v-8.5h36.875v8.5z" fill="#8c8c8c" stroke="#707070" stroke-width="1.5"/><path d="M221.5625,194.35249v-20.39105h36.875v20.39105z" fill="#8c8c8c" stroke="#707070" stroke-width="1.5"/><path d="M225.11111,191.03613v-13.75833h29.77778v13.75833z" fill="#ef8f3c" stroke="#e06c00" stroke-width="1.5"/><path d="M246.16667,183.07362c0,-0.41422 0.33578,-0.75 0.75,-0.75c0.41422,0 0.75,0.33578 0.75,0.75c0,0.41422 -0.33578,0.75 -0.75,0.75c-0.41422,0 -0.75,-0.33578 -0.75,-0.75z" fill="#e06c00" stroke="none" stroke-width="0.5"/><path d="M243.29167,182.94862c0,-0.41422 0.33578,-0.75 0.75,-0.75c0.41422,0 0.75,0.33578 0.75,0.75c0,0.41422 -0.33578,0.75 -0.75,0.75c-0.41422,0 -0.75,-0.33578 -0.75,-0.75z" fill="#e06c00" stroke="none" stroke-width="0.5"/><path d="M240.54167,182.82362c0,-0.41422 0.33578,-0.75 0.75,-0.75c0.41422,0 0.75,0.33578 0.75,0.75c0,0.41422 -0.33578,0.75 -0.75,0.75c-0.41422,0 -0.75,-0.33578 -0.75,-0.75z" fill="#e06c00" stroke="none" stroke-width="0.5"/><path d="M237.61111,183.19862c0,-0.41422 0.33578,-0.75 0.75,-0.75c0.41422,0 0.75,0.33578 0.75,0.75c0,0.41422 -0.33578,0.75 -0.75,0.75c-0.41422,0 -0.75,-0.33578 -0.75,-0.75z" fill="#e06c00" stroke="none" stroke-width="0.5"/><path d="M234.73611,183.07362c0,-0.41422 0.33578,-0.75 0.75,-0.75c0.41422,0 0.75,0.33578 0.75,0.75c0,0.41422 -0.33578,0.75 -0.75,0.75c-0.41422,0 -0.75,-0.33578 -0.75,-0.75z" fill="#e06c00" stroke="none" stroke-width="0.5"/><path d="M231.98611,182.94862c0,-0.41422 0.33578,-0.75 0.75,-0.75c0.41422,0 0.75,0.33578 0.75,0.75c0,0.41422 -0.33578,0.75 -0.75,0.75c-0.41422,0 -0.75,-0.33578 -0.75,-0.75z" fill="#e06c00" stroke="none" stroke-width="0.5"/><path d="M231.98611,182.94862c0,-0.41422 0.33578,-0.75 0.75,-0.75c0.41422,0 0.75,0.33578 0.75,0.75c0,0.41422 -0.33578,0.75 -0.75,0.75c-0.41422,0 -0.75,-0.33578 -0.75,-0.75z" fill="#e06c00" stroke="none" stroke-width="0.5"/><path d="M229.11111,182.82362c0,-0.41422 0.33578,-0.75 0.75,-0.75c0.41422,0 0.75,0.33578 0.75,0.75c0,0.41422 -0.33578,0.75 -0.75,0.75c-0.41422,0 -0.75,-0.33578 -0.75,-0.75z" fill="#e06c00" stroke="none" stroke-width="0.5"/><path d="M226.36111,182.69862c0,-0.41422 0.33578,-0.75 0.75,-0.75c0.41422,0 0.75,0.33578 0.75,0.75c0,0.41422 -0.33578,0.75 -0.75,0.75c-0.41422,0 -0.75,-0.33578 -0.75,-0.75z" fill="#e06c00" stroke="none" stroke-width="0.5"/><path d="M246.20833,185.74029c0,-0.41422 0.33578,-0.75 0.75,-0.75c0.41422,0 0.75,0.33578 0.75,0.75c0,0.41422 -0.33578,0.75 -0.75,0.75c-0.41422,0 -0.75,-0.33578 -0.75,-0.75z" fill="#e06c00" stroke="none" stroke-width="0.5"/><path d="M243.33333,185.61529c0,-0.41422 0.33578,-0.75 0.75,-0.75c0.41422,0 0.75,0.33578 0.75,0.75c0,0.41422 -0.33578,0.75 -0.75,0.75c-0.41422,0 -0.75,-0.33578 -0.75,-0.75z" fill="#e06c00" stroke="none" stroke-width="0.5"/><path d="M240.58333,185.49029c0,-0.41422 0.33578,-0.75 0.75,-0.75c0.41422,0 0.75,0.33578 0.75,0.75c0,0.41422 -0.33578,0.75 -0.75,0.75c-0.41422,0 -0.75,-0.33578 -0.75,-0.75z" fill="#e06c00" stroke="none" stroke-width="0.5"/><path d="M237.65278,185.86529c0,-0.41422 0.33578,-0.75 0.75,-0.75c0.41422,0 0.75,0.33578 0.75,0.75c0,0.41422 -0.33578,0.75 -0.75,0.75c-0.41422,0 -0.75,-0.33578 -0.75,-0.75z" fill="#e06c00" stroke="none" stroke-width="0.5"/><path d="M234.77778,185.74029c0,-0.41422 0.33578,-0.75 0.75,-0.75c0.41422,0 0.75,0.33578 0.75,0.75c0,0.41422 -0.33578,0.75 -0.75,0.75c-0.41422,0 -0.75,-0.33578 -0.75,-0.75z" fill="#e06c00" stroke="none" stroke-width="0.5"/><path d="M232.02778,185.61529c0,-0.41422 0.33578,-0.75 0.75,-0.75c0.41422,0 0.75,0.33578 0.75,0.75c0,0.41422 -0.33578,0.75 -0.75,0.75c-0.41422,0 -0.75,-0.33578 -0.75,-0.75z" fill="#e06c00" stroke="none" stroke-width="0.5"/><path d="M232.02778,185.61529c0,-0.41422 0.33578,-0.75 0.75,-0.75c0.41422,0 0.75,0.33578 0.75,0.75c0,0.41422 -0.33578,0.75 -0.75,0.75c-0.41422,0 -0.75,-0.33578 -0.75,-0.75z" fill="#e06c00" stroke="none" stroke-width="0.5"/><path d="M229.15278,185.49029c0,-0.41422 0.33578,-0.75 0.75,-0.75c0.41422,0 0.75,0.33578 0.75,0.75c0,0.41422 -0.33578,0.75 -0.75,0.75c-0.41422,0 -0.75,-0.33578 -0.75,-0.75z" fill="#e06c00" stroke="none" stroke-width="0.5"/><path d="M226.40278,185.36529c0,-0.41422 0.33578,-0.75 0.75,-0.75c0.41422,0 0.75,0.33578 0.75,0.75c0,0.41422 -0.33578,0.75 -0.75,0.75c-0.41422,0 -0.75,-0.33578 -0.75,-0.75z" fill="#e06c00" stroke="none" stroke-width="0.5"/><path d="M247.06944,187.29585c0.41422,0 0.75,0.33578 0.75,0.75c0,0.41422 -0.33578,0.75 -0.75,0.75c-0.41422,0 -0.75,-0.33578 -0.75,-0.75c0,-0.41422 0.33578,-0.75 0.75,-0.75z" data-paper-data="{&quot;index&quot;:null}" fill="#e06c00" stroke="none" stroke-width="0.5"/><path d="M244.19444,187.42085c0.41422,0 0.75,0.33578 0.75,0.75c0,0.41422 -0.33578,0.75 -0.75,0.75c-0.41422,0 -0.75,-0.33578 -0.75,-0.75c0,-0.41422 0.33578,-0.75 0.75,-0.75z" data-paper-data="{&quot;index&quot;:null}" fill="#e06c00" stroke="none" stroke-width="0.5"/><path d="M241.44444,187.54585c0.41422,0 0.75,0.33578 0.75,0.75c0,0.41422 -0.33578,0.75 -0.75,0.75c-0.41422,0 -0.75,-0.33578 -0.75,-0.75c0,-0.41422 0.33578,-0.75 0.75,-0.75z" data-paper-data="{&quot;index&quot;:null}" fill="#e06c00" stroke="none" stroke-width="0.5"/><path d="M238.51389,187.17085c0.41422,0 0.75,0.33578 0.75,0.75c0,0.41422 -0.33578,0.75 -0.75,0.75c-0.41422,0 -0.75,-0.33578 -0.75,-0.75c0,-0.41422 0.33578,-0.75 0.75,-0.75z" data-paper-data="{&quot;index&quot;:null}" fill="#e06c00" stroke="none" stroke-width="0.5"/><path d="M235.63889,187.29585c0.41422,0 0.75,0.33578 0.75,0.75c0,0.41422 -0.33578,0.75 -0.75,0.75c-0.41422,0 -0.75,-0.33578 -0.75,-0.75c0,-0.41422 0.33578,-0.75 0.75,-0.75z" data-paper-data="{&quot;index&quot;:null}" fill="#e06c00" stroke="none" stroke-width="0.5"/><path d="M232.88889,187.42085c0.41422,0 0.75,0.33578 0.75,0.75c0,0.41422 -0.33578,0.75 -0.75,0.75c-0.41422,0 -0.75,-0.33578 -0.75,-0.75c0,-0.41422 0.33578,-0.75 0.75,-0.75z" data-paper-data="{&quot;index&quot;:null}" fill="#e06c00" stroke="none" stroke-width="0.5"/><path d="M232.88889,187.42085c0.41422,0 0.75,0.33578 0.75,0.75c0,0.41422 -0.33578,0.75 -0.75,0.75c-0.41422,0 -0.75,-0.33578 -0.75,-0.75c0,-0.41422 0.33578,-0.75 0.75,-0.75z" data-paper-data="{&quot;index&quot;:null}" fill="#e06c00" stroke="none" stroke-width="0.5"/><path d="M230.01389,187.54585c0.41422,0 0.75,0.33578 0.75,0.75c0,0.41422 -0.33578,0.75 -0.75,0.75c-0.41422,0 -0.75,-0.33578 -0.75,-0.75c0,-0.41422 0.33578,-0.75 0.75,-0.75z" data-paper-data="{&quot;index&quot;:null}" fill="#e06c00" stroke="none" stroke-width="0.5"/><path d="M227.26389,187.67085c0.41422,0 0.75,0.33578 0.75,0.75c0,0.41422 -0.33578,0.75 -0.75,0.75c-0.41422,0 -0.75,-0.33578 -0.75,-0.75c0,-0.41422 0.33578,-0.75 0.75,-0.75z" data-paper-data="{&quot;index&quot;:null}" fill="#e06c00" stroke="none" stroke-width="0.5"/><path d="M251.98612,182.8514c0,-0.41422 0.33578,-0.75 0.75,-0.75c0.41422,0 0.75,0.33578 0.75,0.75c0,0.41422 -0.33578,0.75 -0.75,0.75c-0.41422,0 -0.75,-0.33578 -0.75,-0.75z" fill="#e06c00" stroke="none" stroke-width="0.5"/><path d="M249.05556,183.2264c0,-0.41422 0.33578,-0.75 0.75,-0.75c0.41422,0 0.75,0.33578 0.75,0.75c0,0.41422 -0.33578,0.75 -0.75,0.75c-0.41422,0 -0.75,-0.33578 -0.75,-0.75z" fill="#e06c00" stroke="none" stroke-width="0.5"/><path d="M252.02778,185.51808c0,-0.41422 0.33578,-0.75 0.75,-0.75c0.41422,0 0.75,0.33578 0.75,0.75c0,0.41422 -0.33578,0.75 -0.75,0.75c-0.41422,0 -0.75,-0.33578 -0.75,-0.75z" fill="#e06c00" stroke="none" stroke-width="0.5"/><path d="M249.09723,185.89308c0,-0.41422 0.33578,-0.75 0.75,-0.75c0.41422,0 0.75,0.33578 0.75,0.75c0,0.41422 -0.33578,0.75 -0.75,0.75c-0.41422,0 -0.75,-0.33578 -0.75,-0.75z" fill="#e06c00" stroke="none" stroke-width="0.5"/><path d="M252.88889,187.57362c0.41422,0 0.75,0.33578 0.75,0.75c0,0.41422 -0.33578,0.75 -0.75,0.75c-0.41422,0 -0.75,-0.33578 -0.75,-0.75c0,-0.41422 0.33578,-0.75 0.75,-0.75z" data-paper-data="{&quot;index&quot;:null}" fill="#e06c00" stroke="none" stroke-width="0.5"/><path d="M249.95834,187.19862c0.41422,0 0.75,0.33578 0.75,0.75c0,0.41422 -0.33578,0.75 -0.75,0.75c-0.41422,0 -0.75,-0.33578 -0.75,-0.75c0,-0.41422 0.33578,-0.75 0.75,-0.75z" data-paper-data="{&quot;index&quot;:null}" fill="#e06c00" stroke="none" stroke-width="0.5"/><path d="M246.16667,180.26806c0,-0.41422 0.33578,-0.75 0.75,-0.75c0.41422,0 0.75,0.33578 0.75,0.75c0,0.41422 -0.33578,0.75 -0.75,0.75c-0.41422,0 -0.75,-0.33578 -0.75,-0.75z" fill="#e06c00" stroke="none" stroke-width="0.5"/><path d="M243.29167,180.14306c0,-0.41422 0.33578,-0.75 0.75,-0.75c0.41422,0 0.75,0.33578 0.75,0.75c0,0.41422 -0.33578,0.75 -0.75,0.75c-0.41422,0 -0.75,-0.33578 -0.75,-0.75z" fill="#e06c00" stroke="none" stroke-width="0.5"/><path d="M240.54167,180.01806c0,-0.41422 0.33578,-0.75 0.75,-0.75c0.41422,0 0.75,0.33578 0.75,0.75c0,0.41422 -0.33578,0.75 -0.75,0.75c-0.41422,0 -0.75,-0.33578 -0.75,-0.75z" fill="#e06c00" stroke="none" stroke-width="0.5"/><path d="M237.61111,180.39306c0,-0.41422 0.33578,-0.75 0.75,-0.75c0.41422,0 0.75,0.33578 0.75,0.75c0,0.41422 -0.33578,0.75 -0.75,0.75c-0.41422,0 -0.75,-0.33578 -0.75,-0.75z" fill="#e06c00" stroke="none" stroke-width="0.5"/><path d="M234.73611,180.26806c0,-0.41422 0.33578,-0.75 0.75,-0.75c0.41422,0 0.75,0.33578 0.75,0.75c0,0.41422 -0.33578,0.75 -0.75,0.75c-0.41422,0 -0.75,-0.33578 -0.75,-0.75z" fill="#e06c00" stroke="none" stroke-width="0.5"/><path d="M231.98611,180.14306c0,-0.41422 0.33578,-0.75 0.75,-0.75c0.41422,0 0.75,0.33578 0.75,0.75c0,0.41422 -0.33578,0.75 -0.75,0.75c-0.41422,0 -0.75,-0.33578 -0.75,-0.75z" fill="#e06c00" stroke="none" stroke-width="0.5"/><path d="M231.98611,180.14306c0,-0.41422 0.33578,-0.75 0.75,-0.75c0.41422,0 0.75,0.33578 0.75,0.75c0,0.41422 -0.33578,0.75 -0.75,0.75c-0.41422,0 -0.75,-0.33578 -0.75,-0.75z" fill="#e06c00" stroke="none" stroke-width="0.5"/><path d="M229.11111,180.01806c0,-0.41422 0.33578,-0.75 0.75,-0.75c0.41422,0 0.75,0.33578 0.75,0.75c0,0.41422 -0.33578,0.75 -0.75,0.75c-0.41422,0 -0.75,-0.33578 -0.75,-0.75z" fill="#e06c00" stroke="none" stroke-width="0.5"/><path d="M226.36111,179.89306c0,-0.41422 0.33578,-0.75 0.75,-0.75c0.41422,0 0.75,0.33578 0.75,0.75c0,0.41422 -0.33578,0.75 -0.75,0.75c-0.41422,0 -0.75,-0.33578 -0.75,-0.75z" fill="#e06c00" stroke="none" stroke-width="0.5"/><path d="M251.98612,180.04585c0,-0.41422 0.33578,-0.75 0.75,-0.75c0.41422,0 0.75,0.33578 0.75,0.75c0,0.41422 -0.33578,0.75 -0.75,0.75c-0.41422,0 -0.75,-0.33578 -0.75,-0.75z" fill="#e06c00" stroke="none" stroke-width="0.5"/><path d="M249.05556,180.42085c0,-0.41422 0.33578,-0.75 0.75,-0.75c0.41422,0 0.75,0.33578 0.75,0.75c0,0.41422 -0.33578,0.75 -0.75,0.75c-0.41422,0 -0.75,-0.33578 -0.75,-0.75z" fill="#e06c00" stroke="none" stroke-width="0.5"/><path d="M224.83333,179.67085v-15.29445h30.33333v15.29445z" fill="#999999" stroke="#7d7d7d" stroke-width="1.5"/><path d="M224.83333,191.55556v-11.55556h30.33333v11.55556z" fill="#999999" stroke="#7d7d7d" stroke-width="1.5"/><path d="M231.11458,191.03613v-8.5h17.77083v8.5z" fill="url(#color-1)" stroke="#7d7d7d" stroke-width="1.5"/><path d="M233.86364,191.09309c-0.13679,0 -0.26845,-0.02197 -0.39165,-0.06258c-0.18192,0.14395 -0.43582,0.2444 -0.79017,0.2444c-1.25,0 -1.25,-1.25 -1.25,-1.25v-1.81818v0c0,-0.69036 0.55964,-1.25 1.25,-1.25c0.17002,0 0.33211,0.03394 0.47987,0.09543c0.01324,-0.0657 0.02855,-0.12899 0.0455,-0.18883l0.35604,-1.24616c0.14026,-0.53693 0.62861,-0.93317 1.2095,-0.93317c0.59954,0 1.1005,0.42209 1.22192,0.98531l0.32178,1.35148c0.15449,-0.24497 0.34224,-0.4057 0.5888,-0.3361c0.75452,0.21299 1.29386,0.45393 1.65921,0.71072l0.66468,-0.61733c0.10615,0.04435 0.20659,0.05558 0.30189,0.03988l0.19141,-1.00488c0.10062,-0.58947 0.61397,-1.03818 1.23213,-1.03818c0.58835,0 1.08176,0.40647 1.21473,0.95392l0.33548,1.25804c0.67557,1.60578 0.49757,-0.58663 1.99495,-0.28962c0.55348,0.10979 0.72766,1.32564 1.01384,1.75506l0.16313,-0.45678c0.16474,-0.49781 0.63391,-0.85699 1.18697,-0.85699c0.62742,0 1.14687,0.46225 1.23637,1.06477l0.26935,1.6161l-0.52973,0.08829l0.2787,0.89067c-3.49019,0.8822 -7.74012,0.8043 -11.51617,0.04706l-0.012,0.3361l-2.49298,-0.08903c-0.03273,-0.00101 -0.06514,-0.00327 -0.09718,-0.00675c-0.04479,0.00486 -0.09028,0.00735 -0.13636,0.00735z" fill="#ff8800" stroke="none" stroke-width="0.5"/><path d="M233.86363,191.19278c-0.1368,0 -0.26845,-0.0156 -0.39164,-0.04442c-0.18193,0.10219 -0.43582,0.1735 -0.79018,0.1735c-1.25,0 -1.25,-0.88735 -1.25,-0.88735v-1.29069v0c0,-0.49007 0.55964,-0.88735 1.25,-0.88735c0.17002,0 0.33212,0.0241 0.47987,0.06774c0.01325,-0.04664 0.02856,-0.09157 0.0455,-0.13405l0.35604,-0.88462c0.14026,-0.38116 0.6286,-0.66244 1.2095,-0.66244c0.59954,0 1.1005,0.29963 1.22192,0.69946l0.32178,0.95939c0.15449,-0.1739 0.34223,-0.288 0.5888,-0.23859c0.75452,0.1512 1.29386,0.32223 1.65922,0.50453l0.66467,-0.43823c0.10615,0.03149 0.20659,0.03946 0.30189,0.02831l0.19141,-0.71335c0.10062,-0.41845 0.61397,-0.73698 1.23212,-0.73698c0.58835,0 1.08176,0.28855 1.21473,0.67717l0.33548,0.89306c0.67558,1.13992 0.49757,-0.41644 1.99495,-0.2056c0.55348,0.07793 0.72767,0.94105 1.01384,1.24589l0.16314,-0.32426c0.16474,-0.35339 0.63391,-0.60836 1.18696,-0.60836c0.62742,0 1.14687,0.32815 1.23637,0.75586l0.26935,1.14724l-0.52973,0.06268l0.2787,0.63227c-3.49019,0.62626 -7.74011,0.57096 -11.51617,0.03341l-0.012,0.23859l-2.49298,-0.0632c-0.03272,-0.00072 -0.06513,-0.00232 -0.09718,-0.00479c-0.04478,0.00345 -0.09029,0.00522 -0.13637,0.00522z" fill="#ffb900" stroke="none" stroke-width="0.5"/><path d="M231.11458,191.03613v-8.5h17.77083v8.5z" fill="none" stroke="#7d7d7d" stroke-width="1.5"/><path d="M250,186.78613c0,5.57306 -4.47715,10.09091 -10,10.09091c-5.52285,0 -10,-4.51785 -10,-10.09091c0,-5.57306 4.47715,-10.09091 10,-10.09091c5.52285,0 10,4.51785 10,10.09091z" fill="url(#color-2)" stroke="none" stroke-width="0"/></g></g></svg>