<svg version="1.1" xmlns="http://www.w3.org/2000/svg" xmlns:xlink="http://www.w3.org/1999/xlink" width="52.75" height="52.75" viewBox="0,0,52.75,52.75"><g transform="translate(-213.625,-153.625)"><g data-paper-data="{&quot;isPaintingLayer&quot;:true}" fill-rule="nonzero" stroke-linecap="butt" stroke-linejoin="miter" stroke-miterlimit="10" stroke-dasharray="" stroke-dashoffset="0" style="mix-blend-mode: normal"><path d="M214.875,205.125v-50.25h50.25v50.25z" fill="#7f7f7f" stroke="#5e5e5e" stroke-width="2.5"/><path d="M230.11635,187.59177v-0.40483c0.01187,-5.68183 0,-11.3002 0,-17.00302c0,0 0,-0.04653 0.00898,-0.12165c-0.20039,-0.73084 0.46015,-1.25927 0.46015,-1.25927c4.1559,-3.29165 15.29961,-5.32185 18.80924,0.26113c1.23302,1.96145 -0.08242,5.38234 -0.39516,7.57149c-0.40675,2.80035 0.21498,5.3264 0.21498,8.12232c0,0.65542 0.05701,2.49043 -0.20673,3.36417c0.0043,0.04841 0.0043,0.07691 0.0043,0.07691l-0.01256,0.58161c-1.47651,9.65249 -14.0173,6.81415 -18.37561,1.12922c-0.03304,-0.50725 -0.21114,-1.0401 -0.26871,-1.55167c-0.23889,-0.35169 -0.23889,-0.76641 -0.23889,-0.76641zM246.48715,188.68185c-0.51788,-0.16667 -1.01803,-0.3804 -1.44122,-0.48076c-2.52857,-0.59966 -5.61825,-0.36842 -8.21432,-0.3714c-0.72105,-0.00082 -4.50534,0.25592 -3.91318,1.08751c3.07351,3.51357 12.46481,6.42767 13.56873,-0.23535zM241.17098,185.53525c1.51397,0.10989 2.94023,-0.10727 4.44933,0.23271c0.26272,0.05919 0.72907,0.24714 1.10013,0.43418c-0.0869,-0.42166 -0.0059,-1.04761 -0.0059,-1.4442c0,-2.90346 -0.60285,-5.54155 -0.18986,-8.47588c0.13928,-0.97495 1.38487,-5.16265 0.81935,-5.78802c-3.28955,-3.63765 -10.96009,-2.71169 -14.72769,-0.09055c-0.00031,5.25578 -0.01162,10.42905 -0.00232,15.6601c2.58981,-1.26964 5.78526,-0.72953 8.55695,-0.52834z" fill="#7d7d7d" stroke="none" stroke-width="0.5"/><path d="M232.58201,186.10198c-0.0093,-5.23105 -0.00301,-10.47631 -0.00269,-15.73209c3.76759,-2.62114 11.51211,-3.5472 14.80166,0.09045c0.56553,0.62537 -0.66744,4.84015 -0.80673,5.8151c-0.41299,2.93433 0.17323,5.61665 0.17323,8.52011c0,0.39659 -0.08428,1.02519 0.00262,1.44685c-0.37106,-0.18705 -0.83992,-0.37326 -1.10265,-0.43245c-1.50911,-0.33998 -2.95587,-0.11526 -4.46985,-0.22515c-2.77168,-0.2012 -6.00578,-0.75247 -8.59559,0.51718z" data-paper-data="{&quot;noHover&quot;:false,&quot;origItem&quot;:[&quot;Path&quot;,{&quot;applyMatrix&quot;:true,&quot;segments&quot;:[[[304.27692,371.75679],[-5.54337,-0.40239],[3.02795,0.21979]],[[313.17559,372.22221],[-3.01821,-0.67995],[0.52545,0.11837]],[[315.37585,373.09058],[-0.74212,-0.37409],[-0.1738,-0.84333]],[[315.36405,370.20217],[0,0.79319],[0,-5.80691]],[[314.98434,353.25042],[-0.82599,5.86865],[0.27856,-1.94991]],[[316.62303,341.67438],[1.13105,1.25074],[-6.5791,-7.27531]],[[287.16766,341.49327],[7.53518,-5.24228],[-0.00062,10.51155]],[[287.16303,372.81347],[-0.0186,-10.46211],[5.17962,-2.53929]]],&quot;closed&quot;:true}]}" fill="#999999" stroke="none" stroke-width="0.5"/><path d="M232.86935,188.90762c-0.59215,-0.83158 3.20306,-1.11106 3.9241,-1.11024c2.59608,0.00297 5.77068,-0.21365 8.29925,0.38601c0.42319,0.10036 0.92533,0.32068 1.44321,0.48735c-1.10392,6.66302 -10.59305,3.75044 -13.66656,0.23687z" data-paper-data="{&quot;noHover&quot;:false,&quot;origItem&quot;:[&quot;Path&quot;,{&quot;applyMatrix&quot;:true,&quot;segments&quot;:[[[314.90927,378.04999],[-2.20783,13.32603],[-1.03575,-0.33335]],[[312.02683,377.08846],[0.84638,0.20072],[-5.05715,-1.19932]],[[295.59819,376.34567],[5.19215,0.00595],[-1.44209,-0.00165]],[[287.77182,378.52068],[-1.18431,-1.66317],[6.14701,7.02713]]],&quot;closed&quot;:true}]}" fill="#5d5d5d" stroke="none" stroke-width="0.5"/><path d="M240.07028,164.88558c1.25,0 1.25,1.25 1.25,1.25v0.40483c0,0.29336 -0.23362,2.39935 -0.02829,3.05448c0.1911,0.0383 0.3912,0.07752 0.59977,0.11093c0.11922,-0.03541 0.22576,-0.04862 0.28904,0.03776l1.33056,0c0.69036,0 1.25,0.55964 1.25,1.25c0,0.69036 -0.55964,1.25 -1.25,1.25h-1.41692l0,-0.01946c-0.02562,0.00511 -0.05133,0.0099 -0.07715,0.01435l-0.00053,0.00269c-0.00293,-0.00037 -0.00585,-0.00073 -0.00877,-0.0011c-0.00072,0.00012 -0.00145,0.00024 -0.00217,0.00037c-0.17571,0.02962 -0.34184,0.04766 -0.4989,0.05494c-0.05241,1.78716 -0.18665,3.57317 -0.18665,5.37796c0,0 0,1.25 -1.25,1.25c-1.25,0 -1.25,-1.25 -1.25,-1.25c0,-1.43069 -0.09872,-2.91282 0.00314,-4.33937c0.02782,-0.38955 0.04961,-1.05026 0.18016,-1.49523h-0.09504l-0.02712,0.18985l-1.39873,-0.19982c-0.61548,-0.07792 -1.09142,-0.6034 -1.09142,-1.24004c0,-0.69036 0.55964,-1.25 1.25,-1.25h1.23625c-0.106,-0.9813 -0.05724,-2.02041 -0.05724,-2.79834v-0.40483c0,0 0,-1.25 1.25,-1.25z" fill="#686868" stroke="none" stroke-width="0.5"/></g></g></svg>