<svg version="1.1" xmlns="http://www.w3.org/2000/svg" xmlns:xlink="http://www.w3.org/1999/xlink" width="120.57962" height="139.16624" viewBox="0,0,120.57962,139.16624"><g transform="translate(-355.10579,-110.41689)"><g data-paper-data="{&quot;isPaintingLayer&quot;:true}" fill-rule="nonzero" stroke-linecap="butt" stroke-linejoin="miter" stroke-miterlimit="10" stroke-dasharray="" stroke-dashoffset="0" style="mix-blend-mode: normal"><path d="M356.35579,248.33313v-136.66624h118.07962v136.66624z" fill="#7f7f7f" stroke="#5e5e5e" stroke-width="2.5"/><path d="M356.35579,248.33313v-50.25h118.07962v50.25z" fill="#7f7f7f" stroke="#5e5e5e" stroke-width="2.5"/><text transform="translate(371.16048,152.78177) scale(0.18147,0.18147)" font-size="40" xml:space="preserve" fill="#ffffff" fill-rule="nonzero" stroke="none" stroke-width="1" stroke-linecap="butt" stroke-linejoin="miter" stroke-miterlimit="10" stroke-dasharray="" stroke-dashoffset="0" font-family="Sans Serif" font-weight="normal" text-anchor="start" style="mix-blend-mode: normal"><tspan x="0" dy="0">When Ammo Casings are</tspan><tspan x="0" dy="46.150000000000006px">filled with Coal, you get </tspan><tspan x="0" dy="46.150000000000006px">useable Ammo which can</tspan><tspan x="0" dy="46.150000000000006px">be shot out of a gun.</tspan></text><text transform="translate(386.58242,134.18633) scale(0.45777,0.45777)" font-size="40" xml:space="preserve" fill="#ffffff" fill-rule="nonzero" stroke="none" stroke-width="1" stroke-linecap="butt" stroke-linejoin="miter" stroke-miterlimit="10" stroke-dasharray="" stroke-dashoffset="0" font-family="Sans Serif" font-weight="normal" text-anchor="start" style="mix-blend-mode: normal"><tspan x="0" dy="0">AMMO</tspan></text><path d="M422.64312,216.39576c-0.39578,0.78308 -1.27747,1.50973 -2.74309,2.01068c-2.40066,0.82054 -5.23311,0.70546 -7.71018,0.01437c-0.35437,-0.62455 -1.16384,-0.5884 -1.16384,-0.5884l0.31522,0.19531c-0.77893,-0.4568 -1.67527,-0.73634 -2.42837,-1.23458c-2.52411,-1.6699 -0.71085,-4.19057 1.15584,-5.50793c2.68653,-1.89594 6.62312,-1.1113 9.36893,0.08044c2.07526,0.87205 3.47145,2.4738 3.46271,3.96977c-0.29481,0.3846 -0.26774,0.88956 -0.26774,0.88956z" data-paper-data="{&quot;noHover&quot;:false,&quot;origItem&quot;:[&quot;Path&quot;,{&quot;applyMatrix&quot;:true,&quot;segments&quot;:[[293.26464,182.89063],[[294.18148,182.78536],[-0.46997,-0.11817],[1.37685,-0.58507]],[[296.42446,178.05743],[0.02217,2.25093],[0.00547,-2.99327]],[[292.82042,169.49621],[2.80567,1.71471],[-1.94948,-1.19144]],[[287.34653,170.60716],[0.53234,-2.97932],[-0.15883,0.88891]],[[287.18737,173.31146],[0.11055,-0.8962],[0,0]],[287.24009,172.94747],[[287.16625,174.23848],[0.43288,-0.57294],[0.3476,2.54806]],[[290.20249,181.24779],[-1.70507,-1.87862],[1.04095,1.1469]],[[293.11311,182.96778],[-0.87582,-0.05288],[0,0]]],&quot;closed&quot;:true}]}" fill="#816e3a" stroke="none" stroke-width="0.5"/><path d="M408.0494,219.01335c0.1495,0.08675 0.30225,0.16935 0.4565,0.25127c0.20626,0.45354 0.68365,0.65887 0.68365,0.65887c3.46783,1.49087 7.83631,2.03592 11.49652,0.77927c0.77048,-0.26452 1.56135,-0.69886 2.27587,-1.25849c0.27842,3.11323 -0.00234,6.60606 -0.3863,9.55754c-0.00612,2.21206 -0.34987,4.41675 -0.35603,6.63958c-0.00236,0.85418 0.30487,2.56544 -0.04339,3.37272c-0.36516,0.84641 -3.13037,1.31307 -3.93182,1.50587c-3.70329,0.89091 -6.96152,0.3167 -10.05851,-1.90461c-0.76747,-3.19942 0.09944,-7.73521 0.31067,-11.04457c0.17456,-2.73474 -0.10329,-5.70348 -0.44716,-8.55747z" data-paper-data="{&quot;noHover&quot;:false,&quot;origItem&quot;:[&quot;Path&quot;,{&quot;applyMatrix&quot;:true,&quot;segments&quot;:[[[277.26388,174.50923],[2.57984,-0.92396],[-3.12191,1.11811]],[[267.04039,178.56447],[2.63296,-1.97302],[-0.81144,3.72387]],[[269.26996,188.51188],[-2.28611,-3.0466],[0.49475,0.65933]],[[272.19823,191.51298],[-0.92182,0.00034],[0.8792,-0.00033]],[[275.30252,190.21126],[-0.78511,0.33648],[2.04312,-0.87562]],[[281.50245,187.90694],[-2.03321,0.87138],[2.86183,-0.81766]],[[290.4017,184.50448],[-2.74772,1.48988],[-0.79705,-0.4341]],[[288.34294,182.91874],[0.54831,0.60246],[-2.60479,-2.86205]],[[284.52199,172.1062],[0.00617,3.77472],[0,0]],[[284.85659,171.21785],[-0.3346,0.36917],[0.01405,-0.17409]],[[284.9071,170.69964],[-0.02037,0.17164],[-2.48377,1.44718]]],&quot;closed&quot;:true}]}" fill="#efcc6c" stroke="none" stroke-width="0.5"/><path d="M407.34284,221.61404c-0.29879,-0.19174 -0.85652,-0.68612 -0.48354,-1.54979c0.49557,-1.14756 1.64314,-0.65199 1.64314,-0.65199l0.78128,0.34791c1.57342,0.92999 3.25754,1.58691 4.93425,2.31101c2.52087,1.09411 5.51376,1.71627 7.85297,3.20328c1.44597,0.91919 3.76896,2.28223 0.55608,4.27781c-0.83529,0.51882 -2.76717,-0.93061 -3.52863,-1.31834c-3.59082,-1.8284 -7.47746,-3.22652 -11.17811,-4.82465c0,0 -1.14756,-0.49558 -0.65199,-1.64314c0.02346,-0.05431 0.04837,-0.10494 0.07455,-0.15212z" fill="#ffda73" stroke="none" stroke-width="0.5"/><path d="M423.55447,233.18458c-0.49558,1.14756 -1.64314,0.65199 -1.64314,0.65199c-4.71223,-2.03498 -10.07145,-4.34937 -14.78369,-6.38436c0,0 -1.14756,-0.49557 -0.65199,-1.64314c0.49557,-1.14756 1.64314,-0.65199 1.64314,-0.65199c4.71161,2.03471 9.42931,4.07206 14.14092,6.10677l0.64277,0.27758c0,0 1.14756,0.49558 0.65199,1.64314z" fill="#ffda73" stroke="none" stroke-width="0.5"/><path d="M425.12714,217.09296c0.6732,3.77364 0.38699,8.27688 -0.10696,12.07393c-0.00718,2.59615 -0.33119,5.16824 -0.34079,7.78033c-0.00284,0.77396 0.06476,2.49193 -0.30414,3.16038c-0.98829,1.79072 -3.76132,2.36312 -5.56497,2.79617c-4.71589,1.13227 -8.99519,0.25579 -12.6781,-2.94646c-1.18331,-3.70474 -0.33722,-8.64428 -0.08129,-12.54096c0.24917,-3.79378 -0.47583,-8.02839 -0.90402,-11.80129c0,0 -0.03931,-0.3511 0.11053,-0.70088c-0.11743,-2.16836 1.42467,-4.25724 3.41442,-5.64632c3.44371,-2.4041 8.13198,-1.70722 11.71862,-0.16528c1.60107,0.70605 3.89115,2.02838 4.76184,3.66089c0.73537,1.37877 0.59545,2.81895 -0.03566,4.10365zM408.54542,227.58141c-0.21123,3.30936 -1.09776,7.794 -0.33029,10.99342c3.097,2.22132 6.31288,2.78782 10.01617,1.89691c0.80145,-0.1928 3.55095,-0.65207 3.91611,-1.49848c0.34826,-0.80728 0.03332,-2.5118 0.03569,-3.36599c0.00616,-2.22284 0.33643,-4.39337 0.34255,-6.60543c0.38395,-2.95148 0.68299,-6.40569 0.40457,-9.51892c-0.71452,0.55963 -1.50153,0.99684 -2.27201,1.26136c-3.66021,1.25664 -7.97349,0.71194 -11.44133,-0.77893c0,0 -0.47664,-0.20584 -0.6829,-0.65938c-0.15425,-0.08192 -0.30621,-0.16506 -0.45571,-0.25181c0.34386,2.85398 0.64171,5.79249 0.46715,8.52722zM422.58366,216.21478c0,0 -0.02796,-0.49884 0.26685,-0.88344c0.00874,-1.49597 -1.37597,-3.06155 -3.45123,-3.93362c-2.7458,-1.19174 -6.60196,-1.98144 -9.28849,-0.08551c-1.86669,1.31736 -3.6744,3.79586 -1.15028,5.46577c0.75309,0.49823 1.64065,0.76146 2.41958,1.21826l-0.31326,-0.19271c0,0 0.80158,-0.04492 1.15594,0.57963c2.47706,0.69109 5.23799,0.81204 7.63865,-0.0085c1.46561,-0.50095 2.33721,-1.20711 2.73299,-1.99019z" fill="#c9ab5a" stroke="none" stroke-width="0.5"/><path d="M423.04309,214.63644c0.00144,-0.01552 0.00316,-0.03147 0.00521,-0.0478c-0.24425,-0.34196 -0.21702,-0.76947 -0.21702,-0.76947l0.06626,-0.69928c-0.35652,-2.64934 -0.66118,-4.86465 -3.12306,-6.32408c-2.39658,-1.173 -6.9778,-2.58712 -9.38095,-0.51079c-1.92921,1.66685 -2.31156,6.69756 -2.03851,9.29244c3.1379,1.26238 6.99421,1.03932 10.26064,0.85057c1.4916,-0.08619 3.52842,-0.54861 4.42743,-1.79161zM425.34748,214.6029l-0.13049,0.94017c-3.19001,4.9552 -13.92228,4.04617 -18.6078,1.79762c0,0 -1.04452,-0.51003 -0.53449,-1.55455c0.01872,-0.03833 0.03816,-0.07458 0.05824,-0.10882c-0.28649,-3.38444 0.25828,-8.96435 2.84553,-11.11612c3.21531,-2.6741 8.57593,-1.32585 11.86057,0.27484c3.12457,1.89563 3.80713,4.55532 4.26885,7.98643l-0.05058,1.13268c0.24203,0.28995 0.29017,0.64775 0.29017,0.64775z" fill="#c9ab5a" stroke="none" stroke-width="0.5"/><path d="M418.64041,216.46743c-3.26642,0.18875 -7.18592,0.3986 -10.32383,-0.86379c-0.27305,-2.59488 0.11445,-7.68421 2.04367,-9.35107c2.40315,-2.07633 7.05221,-0.66085 9.44879,0.51215c2.46189,1.45943 2.77675,3.71845 3.13327,6.36779l-0.06748,0.70301c0,0 -0.02857,0.43069 0.21568,0.77265c-0.00205,0.01632 -0.00387,0.03249 -0.00531,0.04801c-0.89902,1.243 -2.95318,1.72505 -4.44478,1.81124z" data-paper-data="{&quot;noHover&quot;:false,&quot;origItem&quot;:[&quot;Path&quot;,{&quot;applyMatrix&quot;:true,&quot;segments&quot;:[[[479.29333,231.24683],[-1.79803,2.486],[0.00289,-0.03104]],[[479.30375,231.15124],[-0.00409,0.03265],[-0.4885,-0.68392]],[478.86972,229.6123],[[479.00223,228.21375],[0,0],[-0.71304,-5.29868]],[[472.7561,215.5656],[4.92378,2.91885],[-4.79316,-2.34601]],[[453.9942,214.54402],[4.8063,-4.15266],[-3.85843,3.3337]],[[449.91719,233.12891],[-0.54611,-5.18976],[6.27581,2.52476]],[[470.43847,234.83005],[-6.53285,0.37749],[2.9832,-0.17238]]],&quot;closed&quot;:true}]}" fill="#efcc6c" stroke="none" stroke-width="0.5"/><path d="M420.05655,213.30974c-1.25,0 -1.25,-1.25 -1.25,-1.25l0.01256,-0.02564c-0.11644,-2.24994 -4.07644,-3.40612 -6.04958,-3.37995c0,0 -1.25,0 -1.25,-1.25c0,-1.25 1.25,-1.25 1.25,-1.25c3.52827,0.03521 7.82438,1.85241 8.52445,5.52639l0.01256,0.3792c0,0 0,1.25 -1.25,1.25z" fill="#ffda73" stroke="none" stroke-width="0.5"/></g></g></svg>