<svg version="1.1" xmlns="http://www.w3.org/2000/svg" xmlns:xlink="http://www.w3.org/1999/xlink" width="18.43234" height="42.89041" viewBox="0,0,18.43234,42.89041"><g transform="translate(-233.06729,-138.79477)"><g data-paper-data="{&quot;isPaintingLayer&quot;:true}" fill-rule="nonzero" stroke-linejoin="miter" stroke-miterlimit="10" stroke-dasharray="" stroke-dashoffset="0" style="mix-blend-mode: normal"><path d="M238.65845,144.58292l1.625,32.03715l2,3.73035l2.375,-2.85263l1.375,-33.35374z" fill="#6e89a2" stroke="#495a6b" stroke-width="1.5" stroke-linecap="round"/><path d="M247.72545,155.1243c-0.57686,0.47004 -0.89547,-0.26471 -0.89547,-0.26471l-0.10674,-0.2572c-0.35163,-1.1078 -0.36312,-1.39684 -1.30521,-1.04738c0,0 -0.64801,0.21357 -0.76783,-0.63212c-0.11982,-0.84569 0.52818,-1.05926 0.52818,-1.05926c1.56921,-0.47478 2.16368,0.1444 2.7619,1.96671l0.04343,0.08918c0,0 0.3186,0.73475 -0.25826,1.20479z" fill="#1f272e" stroke="none" stroke-width="0.5" stroke-linecap="butt"/><path d="M237.53474,150.29728c0.18261,-0.85191 0.8158,-0.66472 0.8158,-0.66472l0.29639,0.1341c0.95199,0.84165 1.17531,1.97191 1.61718,3.33829c0,0 0.25295,0.78217 -0.35557,1.16819c-0.60852,0.38602 -0.86146,-0.39614 -0.86146,-0.39614c-0.30862,-0.95434 -0.45411,-2.11091 -1.14711,-2.61232l0.08532,0.07171c0,0 -0.63318,-0.18718 -0.45057,-1.03909z" fill="#1f272e" stroke="none" stroke-width="0.5" stroke-linecap="butt"/><path d="M247.94572,160.63134c-0.30326,0.79866 -0.88832,0.44804 -0.88832,0.44804l-0.16699,-0.22923c-0.85932,0.05959 -1.18358,0.8785 -1.6453,1.80936c0,0 -0.37348,0.74899 -0.91642,0.30202c-0.54294,-0.44697 -0.16947,-1.19598 -0.16947,-1.19598c0.73968,-1.47665 1.33374,-2.40835 2.67722,-2.6502l0.82746,0.3667c0,0 0.58509,0.35063 0.28183,1.14929z" fill="#1f272e" stroke="none" stroke-width="0.5" stroke-linecap="butt"/><path d="M239.21801,172.48553c-0.57686,0.47004 -0.89547,-0.26471 -0.89547,-0.26471l-0.19137,-1.43656c0.66429,-1.25214 1.13983,-1.54483 2.25311,-1.71869c0,0 0.65843,-0.09182 0.68543,0.77556c0.02699,0.86738 -0.63146,0.95921 -0.63146,0.95921c-0.69976,0.08123 -0.8536,0.05368 -1.22118,0.87787l0.2592,-0.39746c0,0 0.3186,0.73475 -0.25826,1.20479z" fill="#1f272e" stroke="none" stroke-width="0.5" stroke-linecap="butt"/><path d="M237.24332,170.05335c-0.63318,-0.18718 -0.45057,-1.03909 -0.45057,-1.03909l0.13077,-0.56732c0.253,-2.40786 1.02031,-2.56501 2.57436,-2.1056c0,0 0.63318,0.18718 0.45057,1.03909c-0.18261,0.85191 -0.8158,0.66473 -0.8158,0.66473c-0.30137,-0.08909 -0.54846,-0.43078 -0.86168,-0.42573c-0.23055,0.00373 -0.02038,0.61112 -0.03825,0.91666l-0.1736,0.85253c0,0 -0.18261,0.85191 -0.8158,0.66473z" fill="#1f272e" stroke="none" stroke-width="0.5" stroke-linecap="butt"/><path d="M248.32581,174.03662c-0.44651,0.67827 -0.93117,0.12986 -0.93117,0.12986l-0.09736,-0.23511c-0.68759,-0.20692 -1.41261,-0.54601 -1.97177,0.134c0,0 -0.53814,0.5483 -0.9185,-0.13005c-0.38036,-0.67835 0.15779,-1.22666 0.15779,-1.22666c1.06594,-0.99129 1.91384,-0.82578 3.09773,-0.48113l0.62514,0.5824c0,0 0.48468,0.54841 0.03816,1.22668z" fill="#1f272e" stroke="none" stroke-width="0.5" stroke-linecap="butt"/><path d="M239.53345,149.23053c0,-0.48643 0.33578,-0.88075 0.75,-0.88075c0.41422,0 0.75,0.39432 0.75,0.88075c0,0.48643 -0.33578,0.88075 -0.75,0.88075c-0.41422,0 -0.75,-0.39432 -0.75,-0.88075z" fill="#4c5761" stroke="none" stroke-width="0.5" stroke-linecap="butt"/><path d="M240.53345,162.4418c0,-0.48643 0.33578,-0.88075 0.75,-0.88075c0.41422,0 0.75,0.39432 0.75,0.88075c0,0.48643 -0.33578,0.88075 -0.75,0.88075c-0.41422,0 -0.75,-0.39432 -0.75,-0.88075z" fill="#4c5761" stroke="none" stroke-width="0.5" stroke-linecap="butt"/><path d="M242.28345,168.60706c0,-0.48643 0.33578,-0.88075 0.75,-0.88075c0.41422,0 0.75,0.39432 0.75,0.88075c0,0.48643 -0.33578,0.88075 -0.75,0.88075c-0.41422,0 -0.75,-0.39432 -0.75,-0.88075z" fill="#4c5761" stroke="none" stroke-width="0.5" stroke-linecap="butt"/><path d="M242.28345,171.24932c0,-0.48643 0.33578,-0.88075 0.75,-0.88075c0.41422,0 0.75,0.39432 0.75,0.88075c0,0.48643 -0.33578,0.88075 -0.75,0.88075c-0.41422,0 -0.75,-0.39432 -0.75,-0.88075z" fill="#4c5761" stroke="none" stroke-width="0.5" stroke-linecap="butt"/><path d="M241.28345,175.50628c0,-0.48643 0.33578,-0.88075 0.75,-0.88075c0.41422,0 0.75,0.39432 0.75,0.88075c0,0.48643 -0.33578,0.88075 -0.75,0.88075c-0.41422,0 -0.75,-0.39432 -0.75,-0.88075z" fill="#4c5761" stroke="none" stroke-width="0.5" stroke-linecap="butt"/><path d="M237.64283,153.45058c0.18858,-0.70968 0.7543,-0.47312 0.7543,-0.47312l0.29816,0.12468c1.06189,0.46281 1.67445,1.25534 2.29535,2.41429c0,0 0.33078,0.62243 -0.16539,1.03739c-0.49617,0.41496 -0.82696,-0.20747 -0.82696,-0.20747c-0.45632,-0.86692 -0.87997,-1.50983 -1.68015,-1.82482l-0.29816,-0.12468c0,0 -0.56572,-0.23657 -0.37715,-0.94626z" fill="#1f272e" stroke="none" stroke-width="0.5" stroke-linecap="butt"/><path d="M235.45629,158.53686c-0.18858,-0.70968 0.37715,-0.94625 0.37715,-0.94625l0.48674,-0.16307c0.96175,0 1.6608,0.15529 2.57388,0.53711c0,0 0.56572,0.23656 0.37715,0.94625c-0.18858,0.70968 -0.7543,0.47312 -0.7543,0.47312c-0.80701,-0.33746 -1.34794,-0.46033 -2.19674,-0.46033l-0.10959,0.08628c0,0 -0.56573,0.23656 -0.7543,-0.47312z" fill="#1f272e" stroke="none" stroke-width="0.5" stroke-linecap="butt"/><path d="M242.28345,152.81439c0,-0.41314 0.26699,-0.74807 0.59632,-0.74807c0.32934,0 0.59632,0.33493 0.59632,0.74807c0,0.41314 -0.26699,0.74807 -0.59632,0.74807c-0.32934,0 -0.59632,-0.33493 -0.59632,-0.74807z" fill="#415261" stroke="none" stroke-width="0.5" stroke-linecap="butt"/><path d="M239.50059,158.799c0,-0.41314 0.26699,-0.74807 0.59632,-0.74807c0.32934,0 0.59632,0.33493 0.59632,0.74807c0,0.41314 -0.26699,0.74807 -0.59632,0.74807c-0.32934,0 -0.59632,-0.33493 -0.59632,-0.74807z" fill="#415261" stroke="none" stroke-width="0.5" stroke-linecap="butt"/><path d="M238.40225,159.96646c-0.51364,-0.42963 -0.87125,1.15545 -0.77769,1.73753c0.03333,0.20737 0.56936,0.56917 0.89,0.76616c-0.17911,-0.66253 -0.11802,-1.71368 -0.0262,-2.45724zM239.36663,158.74305c0.56753,0.23775 0.38446,0.97476 0.38446,0.97476c-0.09281,0.37036 -0.46199,1.34575 -0.21612,1.7536c0.33354,0.55329 0.96403,0.00809 1.04878,1.17456c0.15149,2.08491 -1.43497,1.83714 -2.3141,1.37951c-2.3147,-1.20493 -2.26277,-6.33879 0.49876,-5.53301l0.38652,0.20338c0.06373,0.00045 0.13413,0.01472 0.2117,0.04722z" data-paper-data="{&quot;index&quot;:null}" fill="#e4ddb2" stroke="none" stroke-width="0.5" stroke-linecap="butt"/><path d="M238.49626,159.96231c-0.09182,0.74356 -0.15308,1.89595 0.02603,2.55848c-0.32064,-0.19699 -0.89807,-0.58194 -0.93139,-0.7893c-0.09355,-0.58208 0.30165,-2.24602 0.81529,-1.8164z" data-paper-data="{&quot;noHover&quot;:false,&quot;origItem&quot;:[&quot;Path&quot;,{&quot;applyMatrix&quot;:true,&quot;segments&quot;:[[[436.89795,344.55388],[0,0],[0.23095,1.44025]],[[436.83204,349.31349],[0.45051,-1.2833],[0.80654,-0.38156]],[[439.07077,347.82947],[-0.08383,0.40166],[0.23532,-1.12748]],[[437.11456,344.46392],[1.29201,-0.83218],[0,0]]],&quot;closed&quot;:true}],&quot;index&quot;:null}" fill="#f8f0c1" stroke="none" stroke-width="0.5" stroke-linecap="butt"/><path d="M245.69486,160.13817c0.09182,0.74356 0.15289,1.79472 -0.0262,2.45724c0.32064,-0.19699 0.85668,-0.55879 0.89,-0.76616c0.09355,-0.58208 -0.26405,-2.16717 -0.77769,-1.73753zM245.02829,158.82109l0.38652,-0.20338c2.76153,-0.80579 2.81346,4.32808 0.49876,5.53301c-0.87913,0.45763 -2.46559,0.7054 -2.3141,-1.37951c0.08475,-1.16646 0.71523,-0.62125 1.04878,-1.17456c0.24587,-0.40785 -0.1233,-1.38322 -0.21612,-1.7536c0,0 -0.18307,-0.737 0.38446,-0.97476c0.07757,-0.0325 0.14797,-0.04678 0.2117,-0.04722z" fill="#e4ddb2" stroke="none" stroke-width="0.5" stroke-linecap="butt"/><path d="M245.77701,160.04036c0.51364,-0.42963 0.90885,1.23432 0.81529,1.8164c-0.03333,0.20737 -0.61075,0.59231 -0.93139,0.7893c0.17911,-0.66253 0.11784,-1.81491 0.02602,-2.55848z" data-paper-data="{&quot;noHover&quot;:false,&quot;origItem&quot;:[&quot;Path&quot;,{&quot;applyMatrix&quot;:true,&quot;segments&quot;:[[[436.89795,344.55388],[0,0],[0.23095,1.44025]],[[436.83204,349.31349],[0.45051,-1.2833],[0.80654,-0.38156]],[[439.07077,347.82947],[-0.08383,0.40166],[0.23532,-1.12748]],[[437.11456,344.46392],[1.29201,-0.83218],[0,0]]],&quot;closed&quot;:true}]}" fill="#f8f0c1" stroke="none" stroke-width="0.5" stroke-linecap="butt"/><path d="M241.43228,140.41438c-0.09,0.19081 -0.23601,0.27685 -0.34934,0.31561c-0.13191,0.14048 -0.35448,0.27878 -0.6352,0.07707c-1.09733,0.23324 -1.98161,1.31621 -2.82441,2.22755c-2.28275,2.46835 -3.36339,4.35314 -3.36339,8.31075c-0.0593,6.86207 5.22632,8.50827 9.30018,8.52043c4.8046,-0.90557 7.39054,-5.81573 6.61946,-11.94765c-1.27178,-4.90332 -4.69366,-8.1438 -8.7473,-7.50377zM240.60271,139.2291l0.21818,-0.26372c4.85835,-1.03139 9.02359,2.7116 10.51618,8.57941c0.92419,7.0785 -2.15263,12.85244 -7.6924,13.8659c-1.5174,0.00401 -3.33628,0.3284 -4.79852,-0.29415c-3.01051,-1.28173 -5.7514,-5.57017 -5.77886,-9.77119c0,-5.01069 3.23056,-11.73932 7.53542,-12.11625z" fill="#495a6b" stroke="none" stroke-width="0.5" stroke-linecap="butt"/><path d="M241.42774,140.36306c4.05363,-0.64003 7.51894,2.64098 8.79071,7.54432c0.77109,6.13192 -1.84708,11.10372 -6.65171,12.0093c-4.07386,-0.01215 -9.4056,-1.70311 -9.3463,-8.56519c0,-3.95761 1.09424,-5.88773 3.37699,-8.35608c0.8428,-0.91132 1.74306,-2.00512 2.8404,-2.23836c0.28072,0.20172 0.50665,0.0625 0.63855,-0.07799c0.11333,-0.03877 0.26135,-0.12517 0.35135,-0.31599z" data-paper-data="{&quot;noHover&quot;:false,&quot;origItem&quot;:[&quot;Path&quot;,{&quot;applyMatrix&quot;:true,&quot;segments&quot;:[[[426.17588,306.34951],[0,0],[-0.2264,0.36962]],[[425.29714,306.96085],[0.28508,-0.0751],[-0.3318,0.27212]],[[423.69936,307.11013],[0.70612,0.39072],[-2.76022,0.45178]],[[416.59484,311.42481],[2.11998,-1.7652],[-5.74202,4.78112]],[[408.13456,327.52247],[0,-7.66576],[-0.14916,13.29162]],[[431.52822,344.02625],[-10.24738,-0.02354],[12.0855,-1.75406]],[[448.17878,320.88405],[1.9396,11.87732],[-3.19902,-9.49758]],[[426.17584,306.34949],[10.1965,-1.2397],[0,0]]],&quot;closed&quot;:true,&quot;fillColor&quot;:[0,0,0,1]}]}" fill="#84a4c2" stroke="none" stroke-width="0.5" stroke-linecap="butt"/><path d="M237.02725,149.32991c2.70791,-2.75732 5.12674,-4.52949 8.95247,-2.87813c1.28427,0.71548 1.82741,1.51041 2.38006,2.81006c-0.02965,0.07066 -0.04271,0.12254 -0.04271,0.12254l0.09382,0.02759c-0.95852,1.00646 -1.74115,2.27706 -2.70428,3.31388c-2.52713,1.0374 -8.10531,1.02259 -8.6392,-3.22305c0,0 -0.00945,-0.075 -0.04017,-0.17289z" data-paper-data="{&quot;noHover&quot;:false,&quot;origItem&quot;:[&quot;Path&quot;,{&quot;applyMatrix&quot;:true,&quot;segments&quot;:[[[415.29649,323.95423],[0,0],[1.34295,8.22368]],[[436.85007,330.13319],[-6.35673,2.00942],[2.42263,-2.00831]],[[443.62986,323.77952],[-2.41107,1.94947],[0,0]],[443.39387,323.72648],[[443.50137,323.4908],[-0.07456,0.13687],[-1.39014,-2.51738]],[[437.53383,318.10291],[3.23045,1.38586],[-9.62324,-3.19863]],[[415.19541,323.62168],[6.81147,-5.34082],[0.07726,0.18961]]],&quot;closed&quot;:true}]}" fill="#ff9e9e" stroke="none" stroke-width="0.5" stroke-linecap="butt"/><path d="M237.81099,143.30617c0,-0.4277 0.26698,-0.77441 0.59632,-0.77441c0.32935,0 0.59632,0.34671 0.59632,0.77441c0,0.4277 -0.26698,0.77441 -0.59632,0.77441c-0.32935,0 -0.59632,-0.34671 -0.59632,-0.77441z" fill="#4c6071" stroke="none" stroke-width="0.5" stroke-linecap="butt"/><path d="M240.59385,157.63268c0,-0.4277 0.26698,-0.77441 0.59632,-0.77441c0.32935,0 0.59632,0.34671 0.59632,0.77441c0,0.4277 -0.26698,0.77441 -0.59632,0.77441c-0.32935,0 -0.59632,-0.34671 -0.59632,-0.77441z" fill="#4c6071" stroke="none" stroke-width="0.5" stroke-linecap="butt"/><path d="M247.74978,154.79319c0,-0.4277 0.26698,-0.77441 0.59632,-0.77441c0.32935,0 0.59632,0.34671 0.59632,0.77441c0,0.4277 -0.26698,0.77441 -0.59632,0.77441c-0.32935,0 -0.59632,-0.34671 -0.59632,-0.77441z" fill="#4c6071" stroke="none" stroke-width="0.5" stroke-linecap="butt"/><path d="M247.70386,149.28383c0.06026,-0.09507 0.21534,-0.29966 0.46522,-0.36174c-0.50529,-1.09685 -1.05398,-1.78937 -2.22141,-2.43975c-3.67687,-1.58711 -5.98789,-0.03863 -8.56612,2.53208c0.01919,0.02236 0.02925,0.03643 0.02925,0.03643c1.63452,2.47595 7.88371,1.33926 10.29306,0.23298zM246.24578,154.0537c-3.17411,1.41781 -9.13178,1.17543 -10.21101,-3.70051c-0.16875,0.09058 -0.44159,0.14349 -0.67718,-0.23894c-0.37252,-0.60471 0.09313,-1.08848 0.09313,-1.08848c3.47536,-3.56348 6.25909,-6.01442 10.92077,-3.99117c1.85572,1.03188 2.52676,2.24683 3.40247,4.50769l0.06295,0.60446c0,0 0,0.77441 -0.59632,0.77441c-0.13223,0 -0.23514,-0.03808 -0.31522,-0.09735c-0.93012,1.00933 -1.69899,2.23697 -2.67959,3.22989zM245.67584,152.69321c0.44202,-0.47584 0.84414,-0.99384 1.24254,-1.51236c-2.79531,0.89104 -6.76489,1.28784 -9.25203,-0.02757c1.5782,2.56653 5.86599,2.41985 8.00949,1.53993z" fill="#000000" stroke="none" stroke-width="0.5" stroke-linecap="butt"/><path d="M237.61761,151.14212c2.48714,1.31541 6.55426,0.91889 9.34957,0.02785c-0.39839,0.51853 -0.79982,1.05444 -1.24184,1.53028c-2.1435,0.87992 -6.52953,1.0084 -8.10774,-1.55813z" data-paper-data="{&quot;noHover&quot;:false,&quot;origItem&quot;:[&quot;Path&quot;,{&quot;applyMatrix&quot;:true,&quot;segments&quot;:[[[245.67584,152.69321],[-2.1435,0.87992],[0.44202,-0.47584]],[[246.91838,151.18085],[-0.39839,0.51853],[-2.79531,0.89104]],[[237.66635,151.15328],[2.48714,1.31541],[1.5782,2.56653]]],&quot;closed&quot;:true}]}" fill="#93b7d8" stroke="none" stroke-width="0.5" stroke-linecap="butt"/><path d="M237.36143,149.05881c0,0 -0.01011,-0.01445 -0.02931,-0.0368c2.57823,-2.57071 4.98271,-4.15043 8.65959,-2.56332c1.16743,0.65037 1.7216,1.37332 2.2269,2.47016c-0.24988,0.06208 -0.40569,0.27079 -0.46595,0.36585c-2.40935,1.10629 -8.75671,2.24007 -10.39123,-0.23589z" data-paper-data="{&quot;noHover&quot;:false,&quot;origItem&quot;:[&quot;Path&quot;,{&quot;applyMatrix&quot;:true,&quot;segments&quot;:[[[247.70386,149.28383],[-2.40935,1.10629],[0.06026,-0.09507]],[[248.16907,148.92209],[-0.24988,0.06208],[-0.50529,-1.09685]],[[245.94766,146.48234],[1.16743,0.65037],[-3.67687,-1.58711]],[[237.38155,149.01442],[2.57823,-2.57071],[0.01919,0.02236]],[[237.4108,149.05085],[0,0],[1.63452,2.47595]]],&quot;closed&quot;:true}]}" fill="#93b7d8" stroke="none" stroke-width="0.5" stroke-linecap="butt"/><path d="M246.95468,143.9515c0,-0.4277 0.26698,-0.77441 0.59632,-0.77441c0.32935,0 0.59632,0.34671 0.59632,0.77441c0,0.4277 -0.26698,0.77441 -0.59632,0.77441c-0.32935,0 -0.59632,-0.34671 -0.59632,-0.77441z" fill="#4c6071" stroke="none" stroke-width="0.5" stroke-linecap="butt"/><path d="M238.80487,152.21185c0,0.4277 -0.26698,0.77441 -0.59632,0.77441c-0.32272,0 -0.58557,-0.33291 -0.596,-0.7487c-0.17842,-0.13383 -0.29849,-0.38423 -0.29849,-0.67104c0,-0.09151 0.01223,-0.17932 0.03467,-0.26081c-0.09506,0.08319 -0.20958,0.13174 -0.33283,0.13174c-0.32935,0 -0.59632,-0.34671 -0.59632,-0.77441c0,-0.0276 0.00111,-0.05486 0.00329,-0.08172c-0.0648,-0.1239 -0.10267,-0.27349 -0.10267,-0.43455c0,-0.4277 0.26698,-0.77441 0.59632,-0.77441c0.32935,0 0.59632,0.34671 0.59632,0.77441c0,0.0276 -0.00111,0.05486 -0.00328,0.08172c0.0648,0.1239 0.10266,0.27349 0.10266,0.43455c0,0.09151 -0.01223,0.17931 -0.03467,0.26081c0.09506,-0.08319 0.20958,-0.13174 0.33283,-0.13174c0.32272,0 0.58557,0.33291 0.596,0.7487c0.17842,0.13383 0.29849,0.38424 0.29849,0.67104z" fill="#ffe156" stroke="none" stroke-width="0.5" stroke-linecap="butt"/><path d="M236.32018,152.46997c0,-0.4277 0.26698,-0.77441 0.59632,-0.77441c0.32935,0 0.59632,0.34671 0.59632,0.77441c0,0.4277 -0.26698,0.77441 -0.59632,0.77441c-0.32935,0 -0.59632,-0.34671 -0.59632,-0.77441z" fill="#ffe156" stroke="none" stroke-width="0.5" stroke-linecap="butt"/><path d="M247.45162,151.5665c0,-0.4277 0.26698,-0.77441 0.59632,-0.77441c0.32935,0 0.59632,0.34671 0.59632,0.77441c0,0.4277 -0.26698,0.77441 -0.59632,0.77441c-0.32935,0 -0.59632,-0.34671 -0.59632,-0.77441z" fill="#ffe156" stroke="none" stroke-width="0.5" stroke-linecap="butt"/><path d="M246.06019,152.08277c0,-0.4277 0.26698,-0.77441 0.59632,-0.77441c0.32935,0 0.59632,0.34671 0.59632,0.77441c0,0.4277 -0.26698,0.77441 -0.59632,0.77441c-0.32935,0 -0.59632,-0.34671 -0.59632,-0.77441z" fill="#ffe156" stroke="none" stroke-width="0.5" stroke-linecap="butt"/></g></g></svg>