<svg version="1.1" xmlns="http://www.w3.org/2000/svg" xmlns:xlink="http://www.w3.org/1999/xlink" width="30.29167" height="30.29167" viewBox="0,0,30.29167,30.29167"><defs><linearGradient x1="240" y1="165.60418" x2="240" y2="194.39583" gradientUnits="userSpaceOnUse" id="color-1"><stop offset="0" stop-color="#66b8ff"/><stop offset="1" stop-color="#6766ff"/></linearGradient></defs><g transform="translate(-224.85417,-164.85416)"><g data-paper-data="{&quot;isPaintingLayer&quot;:true}" fill-rule="nonzero" stroke-linecap="butt" stroke-linejoin="miter" stroke-miterlimit="10" stroke-dasharray="" stroke-dashoffset="0" style="mix-blend-mode: normal"><path d="M225.60417,194.39583v-28.79167h28.79167v28.79167z" fill="url(#color-1)" stroke="#ffffff" stroke-width="1.5"/><path d="M231.39043,180.271c-0.45365,-2.9099 -1.88707,-6.01373 -1.28555,-9.01222c0.61856,-3.0835 4.15646,-3.14015 5.92824,-1.22564c1.34747,1.4276 2.59933,3.37243 2.96995,5.31709l0.19713,0.9841c0.07226,0.40984 0.41924,0.74104 0.85389,0.79515c0.48499,0.06037 0.94937,-0.24384 1.07655,-0.70083l0.23773,-0.80681l-0.30178,-0.22499c0.81392,-2.14171 0.95826,-4.6195 2.61468,-6.39687c2.30721,-2.4757 5.09374,-0.96288 5.77498,1.81495c0.24719,1.00796 0.36634,2.05897 0.5733,3.07592c0.20848,4.99816 -2.67562,10.84838 -5.79995,14.63024c-1.06998,1.29516 -2.53001,2.06578 -3.11968,3.72953c-4.4861,-2.99403 -7.95205,-6.25855 -9.79947,-11.38268c0.12717,-0.29147 0.08,-0.59692 0.08,-0.59692z" data-paper-data="{&quot;noHover&quot;:false,&quot;origItem&quot;:[&quot;Path&quot;,{&quot;applyMatrix&quot;:true,&quot;segments&quot;:[[[233.36323,180.72184],[0.09795,-0.22457],[1.42299,3.94798]],[[240.8571,189.44704],[-3.45546,-2.30681],[0.4542,-1.28188]],[[243.24235,186.57856],[-0.82416,0.99788],[2.40654,-2.91381]],[[247.68934,175.3772],[0.16058,3.85093],[-0.15941,-0.78353]],[[247.25458,173.01613],[0.1904,0.7766],[-0.52473,-2.14023]],[[242.82635,171.63036],[1.77715,-1.90745],[-1.27587,1.36942]],[[240.81693,176.56024],[0.62693,-1.65012],[0,0]],[241.07565,176.63717],[[240.86245,177.35417],[0,0],[-0.09796,0.3521]],[[240.04738,177.89647],[0.37357,0.04651],[-0.33479,-0.04169]],[[239.40128,177.2827],[0.05566,0.31577],[0,0]],[[239.24927,176.52452],[0,0],[-0.28547,-1.4983]],[[236.96966,172.42543],[1.0379,1.09992],[-1.36473,-1.47507]],[[232.42236,173.3564],[0.47645,-2.37574],[-0.46332,2.31025]],[[233.42508,180.26533],[-0.34943,-2.24199],[0,0]]],&quot;closed&quot;:true}]}" fill="#ff6161" stroke="none" stroke-width="0.5"/><path d="M231.37692,176.61982c0.04877,0.43774 0.10964,0.87197 0.18556,1.29634c0.20412,0.85779 0.45105,1.71173 0.72984,2.55389c0.61247,1.48666 1.61644,3.3477 2.0268,4.97269c0.13693,0.28641 0.2752,0.56883 0.41421,0.84686l-0.29582,1.08541l-0.2896,-0.11481c-0.38213,-0.17322 -0.6899,-0.40521 -0.94467,-0.68046c-0.49666,-1.01344 -0.97993,-2.08169 -1.42557,-3.18539c-0.01702,-0.05245 -0.03423,-0.10485 -0.05167,-0.15717c-0.38205,-1.14614 -0.72972,-2.27646 -1.02537,-3.40884l-0.21872,-0.1585c-0.23594,-0.81745 -0.43993,-1.64202 -0.60342,-2.46691c-0.01358,-0.47287 -0.0106,-0.97101 0.01493,-1.47633c-0.1345,-1.07158 -0.20689,-2.16306 -0.20335,-3.28845c0.64944,-3.90365 5.44447,-3.22821 7.96841,-1.45105c0.20807,0.27491 0.4027,0.56462 0.58469,0.8638l0.37032,0.849c-0.45767,0.11598 -0.90315,0.34578 -1.36785,0.39608c-0.19313,-0.35866 -0.40503,-0.70675 -0.63701,-1.03076c-1.62614,-1.07121 -5.02152,-1.9103 -5.42367,0.49665c0.00466,1.25398 0.03773,2.67354 0.19196,4.05796c0.00063,0.16818 0.0033,0.33337 0.0077,0.49432c0.05492,0.26755 0.11432,0.53497 0.17787,0.80202c0.11589,0.6478 0.26684,1.27262 0.46327,1.85191c0.07528,0.222 0.1656,0.4569 0.26657,0.70198c0.57275,1.73016 1.27997,3.41062 2.0268,4.97269c0.17808,0.70517 0.24438,1.36589 0.11839,1.93227c-0.10105,-0.03471 -0.19749,-0.07305 -0.2896,-0.11481l-0.75622,-0.29978c-0.063,-0.12599 -0.12583,-0.2529 -0.18845,-0.38068c-0.75555,-0.81627 -1.04502,-2.01296 -1.42557,-3.18539c-0.48755,-1.20751 -0.93005,-2.45745 -1.29576,-3.72451l-0.40919,-0.29653c-0.09451,-0.57812 -0.17023,-1.33481 -0.19423,-2.17038c-0.27975,-1.41141 -0.44097,-2.82374 -0.44097,-4.20292c0.04161,-3.73899 3.45,-5.60598 6.52922,-3.63175c0.6442,0.41303 1.20477,0.97541 1.69175,1.61884c0.1074,0.07562 0.21068,0.15324 0.30936,0.23258l0.27533,0.63122c0.66763,1.09756 1.16502,2.32256 1.53085,3.41194c0,0 0.23717,0.71151 -0.47434,0.94868c-0.71151,0.23717 -0.94868,-0.47434 -0.94868,-0.47434c-0.26766,-0.80988 -0.62957,-1.75762 -1.10536,-2.6412c-0.07625,0.00825 -0.15302,0.01167 -0.23044,0.00897c-1.49294,-0.05223 -2.15552,-2.36924 -3.95443,-1.77222c-1.35961,0.45123 -1.69193,3.11769 -1.68385,5.2871z" fill="#ff8a8a" stroke="none" stroke-width="0.5"/><path d="M241.84097,174.87685c-0.076,0.29187 -0.13092,0.54615 -0.16367,0.74645c0,0 -0.1233,0.7398 -0.86309,0.6165c-0.7398,-0.1233 -0.6165,-0.86309 -0.6165,-0.86309c0.50707,-2.97524 3.65349,-10.21946 8.13409,-7.38969c0.8459,0.53423 1.14161,1.48897 1.73745,2.23377l0.01028,0.0832l0.02879,-0.01439l0.36825,0.7365c0.05487,0.10422 0.08593,0.22294 0.08593,0.34891c0,0.41421 -0.33579,0.75 -0.75,0.75c-0.17941,0 -0.34411,-0.063 -0.47319,-0.16808l-0.62033,-0.49627l0.18327,-0.22909l-0.0886,-0.17721c-0.50063,-0.43787 -0.93267,-0.8831 -1.60808,-1.09111c-3.11692,-0.95994 -4.26059,1.63298 -4.65327,4.03506l-0.19398,0.46211c0,0 -0.17245,0.34491 -0.51736,0.41643z" fill="#ff8a8a" stroke="none" stroke-width="0.5"/><path d="M234.80722,187.88863c-0.10356,-0.10817 -0.2152,-0.20994 -0.33823,-0.30297c0,0 -0.58565,-0.46852 -0.11713,-1.05417c0.46852,-0.58565 1.05417,-0.11713 1.05417,-0.11713c0.44779,0.37176 0.74675,0.83861 1.05585,1.29559c1.52905,1.2286 3.2885,1.05882 5.06361,0.47216c3.97615,-1.97201 4.29777,-6.12939 6.1282,-9.5405c0.24375,-0.45424 0.69205,-1.16121 1.17037,-1.6746c0.09936,-0.29287 0.19784,-0.5859 0.29554,-0.87899l0.04231,-0.03829l-0.02022,-0.01011l0.36773,-0.73547c0.12026,-0.25368 0.37868,-0.42912 0.67809,-0.42912c0.41421,0 0.75,0.33579 0.75,0.75c0,0.04687 -0.0043,0.09274 -0.01253,0.13724l-0.12268,0.73606l-0.19654,-0.03276l-0.02471,0.04943c-0.04225,0.4192 -0.17702,0.72895 -0.373,1.036c-1.12214,3.33937 -2.31701,6.68669 -3.93729,9.79554c-1.30923,1.08696 -2.77478,1.89036 -4.07641,2.95632c-0.89458,0.73261 0.14222,2.04539 -1.83966,2.06759c-0.63472,0.00711 -0.90921,-0.90049 -1.44639,-1.23866c-0.72248,-0.45482 -1.58215,-0.51478 -2.28432,-1.02332c-0.45683,-0.33086 -0.76278,-0.76137 -1.05345,-1.19509c-0.0339,-0.02544 -0.06774,-0.05134 -0.10154,-0.07769l-0.3225,-0.21161c0,0 -0.42646,-0.28431 -0.33926,-0.73541zM240.5507,189.97758c-0.17577,0.03248 -0.35073,0.05952 -0.52484,0.08069c0.16831,0.10607 0.32397,0.22017 0.41748,0.36888c0.00398,-0.14292 0.02112,-0.28057 0.05934,-0.35792c0.01528,-0.03092 0.0313,-0.06146 0.04802,-0.09164z" fill="#ff5151" stroke="none" stroke-width="0.5"/><path d="M229.45566,180.15153c-0.55793,-3.01115 -1.87107,-6.07212 -1.19949,-9.17341c0.99582,-4.59858 6.35673,-5.18223 9.23162,-2.13939c0.94473,1.01673 1.80467,2.20496 2.45073,3.4842c0.22207,-0.6007 0.48112,-1.15458 0.6505,-1.51034c1.92495,-4.0433 7.9749,-7.67836 10.33941,-1.64933c0.57156,1.45738 0.68634,3.08095 0.98786,4.60452c0.33425,8.14959 -5.24669,14.37424 -9.99228,20.26353c-5.84762,-0.31688 -10.66513,-7.60458 -12.42035,-12.5688l-0.13755,-0.63609c0,0 -0.07112,-0.35463 0.08957,-0.67489zM231.38367,180.9369c1.84742,5.12413 5.24291,8.33051 9.72901,11.32453c0.58967,-1.66377 2.02672,-2.42788 3.09669,-3.72304c3.12433,-3.78187 5.98183,-9.5402 5.77336,-14.53836c-0.20696,-1.01695 -0.31723,-2.05649 -0.56443,-3.06444c-0.68124,-2.77783 -3.4418,-4.27432 -5.74901,-1.79861c-1.65642,1.77738 -1.79484,4.25685 -2.60876,6.39854l0.3359,0.09985l-0.27679,0.93059c-0.12718,0.45699 -0.5732,0.76424 -1.05819,0.70387c-0.43465,-0.05411 -0.76653,-0.38679 -0.8388,-0.79662l-0.19735,-0.98406c-0.37062,-1.94466 -1.61207,-3.89265 -2.95954,-5.32024c-1.77178,-1.91451 -5.28503,-1.8752 -5.90359,1.2083c-0.60151,2.9985 0.84813,6.05727 1.30178,8.96719c0,0 0.04688,0.30104 -0.08028,0.59251z" fill="#ff1f1f" stroke="none" stroke-width="0.5"/></g></g></svg>