<svg version="1.1" xmlns="http://www.w3.org/2000/svg" xmlns:xlink="http://www.w3.org/1999/xlink" width="35.78572" height="25.06127" viewBox="0,0,35.78572,25.06127"><defs><linearGradient x1="240.28854" y1="168.66664" x2="240.28854" y2="190.86852" gradientUnits="userSpaceOnUse" id="color-1"><stop offset="0" stop-color="#ff9c9c"/><stop offset="1" stop-color="#ff8383"/></linearGradient></defs><g transform="translate(-222.40155,-167.21364)"><g data-paper-data="{&quot;isPaintingLayer&quot;:true}" fill-rule="nonzero" stroke="none" stroke-width="0.5" stroke-linecap="butt" stroke-linejoin="miter" stroke-miterlimit="10" stroke-dasharray="" stroke-dashoffset="0" style="mix-blend-mode: normal"><path d="M227.57127,174.24276c1.39534,-2.01282 3.60917,-3.30254 5.80926,-4.18368c5.67815,-1.89272 11.48352,-2.29123 16.34042,1.60386c2.12371,1.69439 3.35318,3.94992 4.35531,6.43374c0.50505,1.2518 0.4593,2.47401 1.31637,3.08844c-0.66792,1.09018 -1.32875,2.96085 -1.58022,3.4656c-1.28534,2.57992 -4.84871,5.43072 -7.69895,5.89855c-5.16917,0 -12.95708,1.63929 -17.04325,-2.51149c-2.01731,-1.98592 -4.85541,-5.74291 -3.55798,-8.794l0.11735,-0.22965c0,0 0.13338,-0.26838 0.06394,-0.54941c0.705,-1.30683 1.0662,-3.05128 1.87775,-4.22196z" data-paper-data="{&quot;noHover&quot;:false,&quot;origItem&quot;:[&quot;Path&quot;,{&quot;applyMatrix&quot;:true,&quot;segments&quot;:[[[225.74332,178.46917],[0.705,-1.30683],[0.06945,0.28104]],[225.67951,179.01671],[[225.56219,179.24556],[0,0],[-1.29743,3.05109]],[[229.11045,188.00811],[-2.01731,-1.98592],[4.08617,4.15078]],[[246.08969,190.50528],[-5.16917,0],[2.85024,-0.46783]],[[253.76538,184.63374],[-1.28534,2.57992],[0.25147,-0.50475]],[[255.34285,181.18045],[-0.66792,1.09018],[-0.85707,-0.61443]],[[254.02662,178.1027],[0.50505,1.2518],[-1.00213,-2.48382]],[[249.68303,171.69552],[2.12371,1.69439],[-4.8569,-3.89509]],[[233.40952,170.09982],[5.67815,-1.89272],[-2.20009,0.88114]],[[227.61713,174.26269],[1.39534,-2.01282],[-0.81155,1.17068]]],&quot;closed&quot;:true}]}" fill="url(#color-1)"/><path d="M233.04441,173.53844c0,0.75 -0.75,0.75 -0.75,0.75l-1.24462,-0.21967c-0.54132,-0.54812 -0.75017,-1.17991 -1.4625,-1.4054c0,0 -0.69636,-0.27854 -0.41781,-0.9749c0.27855,-0.69636 0.9749,-0.41781 0.9749,-0.41781c1.02921,0.45887 1.19939,0.9827 1.96607,1.73745l0.18396,-0.21967c0,0 0.75,0 0.75,0.75z" fill="#ff6767"/><path d="M237.43727,172.00273c-0.75,0 -0.75,-0.75 -0.75,-0.75l0.0102,-0.30527c-0.06802,-0.45909 -0.22846,-0.9155 -0.47475,-1.30886c0,0 -0.38587,-0.64312 0.25725,-1.02899c0.64312,-0.38587 1.02899,0.25725 1.02899,0.25725c0.32717,0.56239 0.55278,1.19367 0.66811,1.834l0.0102,0.55187c0,0 0,0.75 -0.75,0.75z" fill="#ff6767"/><path d="M244.24471,172.20926c-0.67082,-0.33541 -0.33541,-1.00623 -0.33541,-1.00623l0.07388,-0.07361c0.08703,-0.48143 0.08703,-0.98626 0,-1.46768c0,0 -0.12329,-0.7398 0.6165,-0.8631c0.73979,-0.1233 0.86309,0.6165 0.86309,0.6165c0.10082,0.6458 0.10082,1.31508 0,1.96088l-0.21183,0.49783c0,0 -0.33541,0.67082 -1.00623,0.33541z" fill="#ff6767"/><path d="M249.36557,174.6386c-0.38587,-0.64312 0.25725,-1.02899 0.25725,-1.02899l0.52917,-0.27173c0.05345,-0.16885 0.1069,-0.3377 0.16035,-0.50655c0,0 0.27854,-0.69636 0.9749,-0.41781c0.69636,0.27855 0.41781,0.9749 0.41781,0.9749c-0.13702,0.30734 -0.27406,0.61468 -0.41108,0.92202l-0.89941,0.58542c0,0 -0.64312,0.38587 -1.029,-0.25725z" fill="#ff6767"/><path d="M248.86584,185.9313c0.75,0 0.75,0.75 0.75,0.75l-0.01021,0.59099c0.04144,0.37756 0.2202,0.77003 0.50482,1.02154c0,0 0.53033,0.53033 0,1.06066c-0.53033,0.53033 -1.06066,0 -1.06066,0c-0.46737,-0.50077 -0.78919,-1.16398 -0.92375,-1.83561l-0.0102,-0.83758c0,0 0,-0.75 0.75,-0.75z" fill="#ff6767"/><path d="M243.43727,186.9313c0.75,0 0.75,0.75 0.75,0.75v0.14286c-0.0028,0.87352 0.14042,1.69592 0.14285,2.57143c0,0 0,0.75 -0.75,0.75c-0.75,0 -0.75,-0.75 -0.75,-0.75c0.0028,-0.87352 -0.14042,-1.69592 -0.14285,-2.57143v-0.14286c0,0 0,-0.75 0.75,-0.75z" fill="#ff6767"/><path d="M237.76202,187.38226c0.72761,0.1819 0.5457,0.90951 0.5457,0.90951l-0.12046,0.38952c0,0.57143 0,1.14286 0,1.71429c0,0 0,0.75 -0.75,0.75c-0.75,0 -0.75,-0.75 -0.75,-0.75c0,-0.57143 0,-1.14286 0,-1.71429l0.16525,-0.75333c0,0 0.1819,-0.72761 0.9095,-0.5457z" fill="#ff6767"/><path d="M233.11045,186.57954c0.53033,0.53033 0,1.06066 0,1.06066c-0.38095,0.38095 -1.33333,1.33334 -1.71428,1.71429c0,0 -0.53033,0.53033 -1.06066,0c-0.53033,-0.53033 0,-1.06066 0,-1.06066c0.38095,-0.38095 0.7619,-0.76191 1.14285,-1.14286l0.57143,-0.57143c0,0 0.53033,-0.53033 1.06066,0z" fill="#ff6767"/><path d="M223.80961,180.1877c-0.20224,0.05445 -0.42087,0.08891 -0.65806,0.10075c0,0 -0.75,0 -0.75,-0.75c0,-0.75 0.75,-0.75 0.75,-0.75c1.44206,0.1444 1.80282,-2.67236 2.32812,-3.72613c1.54547,-3.10029 4.26715,-5.11375 7.41391,-6.37096c6.19306,-2.06436 12.42615,-2.39599 17.72649,1.83287c2.07976,1.6679 3.52474,3.84578 4.51355,6.30711c0.34936,0.86961 0.65851,3.46085 1.50836,3.24538l0.05687,0.0351l0.00457,-0.02745l0.84498,0.14083c0.36151,0.0537 0.63887,0.36537 0.63887,0.74182c0,0.41422 -0.33578,0.75 -0.75,0.75h-0.31931c-1.43875,1.28327 -1.47244,3.24542 -2.94668,5.14013c-1.79834,2.31125 -5.07516,4.65734 -7.95786,5.14303c-5.77792,0 -13.57315,1.60209 -18.16362,-2.9314c-2.18658,-2.21407 -4.5927,-5.56455 -4.24018,-8.88108zM225.74332,178.46917c0.06945,0.28104 -0.06381,0.54754 -0.06381,0.54754l-0.11732,0.22885c-1.29743,3.05109 1.53095,6.77663 3.54826,8.76255c4.08617,4.15078 11.81007,2.49717 16.97924,2.49717c2.85024,-0.46783 6.39035,-3.29162 7.67569,-5.87154c0.25147,-0.50475 0.90954,-2.36311 1.57747,-3.45329c-0.85707,-0.61443 -0.81117,-1.82595 -1.31623,-3.07775c-1.00213,-2.48382 -2.21989,-4.71278 -4.3436,-6.40718c-4.8569,-3.89509 -10.59536,-3.48842 -16.27351,-1.5957c-2.20009,0.88114 -4.39705,2.15004 -5.79239,4.16287c-0.81155,1.17068 -1.16881,2.89966 -1.87381,4.20648z" fill="#1e251e"/></g></g></svg>