<svg version="1.1" xmlns="http://www.w3.org/2000/svg" xmlns:xlink="http://www.w3.org/1999/xlink" width="52.75" height="52.75" viewBox="0,0,52.75,52.75"><g transform="translate(-213.625,-153.625)"><g data-paper-data="{&quot;isPaintingLayer&quot;:true}" fill-rule="nonzero" stroke-linejoin="miter" stroke-miterlimit="10" stroke-dasharray="" stroke-dashoffset="0" style="mix-blend-mode: normal"><path d="M214.875,205.125v-50.25h50.25v50.25z" fill="#7f7f7f" stroke="#5e5e5e" stroke-width="2.5" stroke-linecap="butt"/><path d="M220.76424,199.23585v-38.47171h38.47171v38.47171z" fill="#827c6d" stroke="#5d594e" stroke-width="1.5" stroke-linecap="butt"/><path d="M246.86442,198.25548c-2.08139,0.04471 -4.14922,0.18021 -6.1289,0.39345c0,0 -0.74568,0.08032 -0.82601,-0.66537c-0.08032,-0.74569 0.66537,-0.82601 0.66537,-0.82601c3.5214,-0.3793 7.31639,-0.51978 10.98023,-0.34598c1.67644,-0.10332 3.34743,-0.30317 4.98025,-0.65855c1.02528,-0.20466 0.82756,-2.65977 0.83109,-3.52616c0.01226,-3.00429 -0.53005,-7.28802 0.3072,-10.43576c0.00013,-0.02868 0.00027,-0.05737 0.00041,-0.08606l-0.01253,-0.11633l-0.16432,-0.01882l0.09208,-0.80413c0.03836,-0.37943 0.35938,-0.67497 0.74868,-0.67366c0.3893,0.00131 0.70833,0.29899 0.74414,0.67867l0.08668,0.80473l-0.01825,0.00196l0.02155,0.03939c-0.00115,0.56993 -0.00306,1.13986 -0.00574,1.70979c-0.01243,0.10856 -0.0241,0.21719 -0.03506,0.32589c0.01096,0.77487 -0.06058,1.58474 -0.06222,2.07259c-0.00475,1.41464 0.18972,3.91416 0.03847,6.2369c0.01625,0.63368 0.02672,1.26646 0.0246,1.8976c-0.00281,0.83545 0.32966,2.89324 -0.0952,3.59659c-0.76984,1.27446 -2.57139,0.76019 -3.78384,0.75449c-1.22638,-0.14043 -2.48652,-0.23922 -3.76271,-0.29945c-1.23246,0.07277 -2.46775,0.09726 -3.69676,0.09478l-0.17985,0.06739c0,0 -0.47166,0.11623 -0.74935,-0.21798zM257.72201,197.0407c-0.04236,0.04548 -0.0859,0.08914 -0.13069,0.13089c0.07195,-0.00031 0.11362,-0.0022 0.11416,-0.00619c0.00566,-0.04155 0.01117,-0.08312 0.01652,-0.12471z" fill="#787265" stroke="none" stroke-width="0.5" stroke-linecap="butt"/><path d="M236.75696,196.55838c0.88698,-0.77259 1.34316,-1.90212 1.63136,-3.15001c0.04206,-0.75647 0.11302,-1.51634 0.18709,-2.27771c0.00325,-2.46769 0.10045,-4.96581 -0.06495,-7.34765c-0.0478,-0.30583 -0.08058,-0.60861 -0.07441,-0.88121c-0.00506,-0.0504 -0.01027,-0.10075 -0.01561,-0.15102c0.001,-0.29879 0.00201,-0.59758 0.00301,-0.89637l0.02284,-0.03913l-0.01926,-0.0022l0.09208,-0.80413c0.03836,-0.37943 0.35938,-0.67497 0.74868,-0.67366c0.41421,0.00139 0.74887,0.3383 0.74748,0.75251l-0.00273,0.81342l-0.08576,-0.00029l-0.00594,0.05185c-0.00006,0.01638 -0.00011,0.03276 -0.00017,0.04914c0.65417,2.2299 0.78244,4.6875 0.69261,7.16667c0.2525,2.13089 0.54519,4.43386 -0.37195,6.38649c0.0788,0.68136 0.1868,1.35015 0.33344,2.00202c0,0 0.16024,0.73268 -0.57244,0.89292c-0.33953,0.07426 -0.55613,-0.04324 -0.69082,-0.19071c-3.83275,2.26067 -10.10147,0.07706 -14.68533,-0.00008c-0.31093,0.01497 -0.60424,0.02642 -0.89888,0.01491c-0.17837,0.00967 -0.35344,0.02363 -0.5249,0.04236l-0.14744,0.01588l-0.01882,0.16432l-0.80413,-0.09208c-0.37943,-0.03836 -0.67497,-0.35938 -0.67366,-0.74868c0.00131,-0.3893 0.29899,-0.70833 0.67867,-0.74414l0.80473,-0.08668c0.27217,-0.02895 0.54948,-0.04716 0.83129,-0.05614c0.76152,-0.21279 1.87823,-0.06701 2.547,-0.02634c3.94044,0.23966 6.68262,0.81464 10.33691,-0.18426z" fill="#787265" stroke="none" stroke-width="0.5" stroke-linecap="butt"/><path d="M255.40935,177.45905c0.88714,-0.79116 1.34356,-1.94766 1.63201,-3.22532c0.04222,-0.77449 0.11333,-1.55245 0.18756,-2.33197c0.00376,-2.52643 0.10149,-5.08403 -0.06342,-7.52254c-0.04773,-0.3131 -0.08046,-0.62308 -0.07422,-0.90217c-0.00505,-0.0516 -0.01025,-0.10315 -0.01558,-0.15461c0.00107,-0.3059 0.00213,-0.61181 0.0032,-0.9177l0.02284,-0.04007l-0.01926,-0.00226l0.09225,-0.82329c0.03844,-0.38847 0.35952,-0.69111 0.74882,-0.68985c0.41421,0.00134 0.7488,0.34621 0.74732,0.77028l-0.0029,0.83279l-0.08576,-0.00028l-0.00595,0.05308c-0.00006,0.01677 -0.00012,0.03354 -0.00018,0.0503c0.6537,2.28285 0.78147,4.79892 0.69112,7.33711c0.25205,2.18156 0.54427,4.53929 -0.37328,6.53859c0.07866,0.69756 0.18652,1.38225 0.33303,2.0496c0,0 0.16009,0.75009 -0.57263,0.91429c-0.33954,0.07609 -0.55612,-0.04415 -0.69078,-0.19512c-3.83323,2.31525 -10.10149,0.08092 -14.68534,0.00286c-0.31094,0.01539 -0.60424,0.02717 -0.89888,0.01544c-0.17838,0.00993 -0.35344,0.02427 -0.5249,0.04347l-0.14744,0.01629l-0.01885,0.16824l-0.80411,-0.09411c-0.37943,-0.0392 -0.67489,-0.3678 -0.6735,-0.76636c0.00139,-0.39856 0.29914,-0.72525 0.67883,-0.76199l0.80474,-0.08891c0.27218,-0.02969 0.54949,-0.0484 0.83131,-0.05764c0.76157,-0.218 1.87824,-0.06899 2.54701,-0.02748c3.9404,0.24457 6.68245,0.83269 10.33695,-0.19072z" fill="#787265" stroke="none" stroke-width="0.5" stroke-linecap="butt"/><path d="M227.81373,179.43445c-2.02305,0.04696 -4.03296,0.1883 -5.95719,0.41045c0,0 -0.7248,0.08368 -0.8027,-0.69157c-0.0779,-0.77525 0.64691,-0.85891 0.64691,-0.85891c3.42278,-0.39515 7.11142,-0.54206 10.67252,-0.3622c1.62947,-0.10779 3.25367,-0.31596 4.8408,-0.6858c0.99659,-0.21301 0.80497,-2.76544 0.8086,-3.6662c0.0126,-3.12345 -0.51353,-7.57695 0.30096,-10.84973c0.00014,-0.02982 0.00028,-0.05964 0.00042,-0.08947l-0.01215,-0.12095l-0.15971,-0.01953l0.08968,-0.83604c0.03737,-0.39449 0.34946,-0.70182 0.72785,-0.70055c0.37838,0.00127 0.6884,0.31069 0.72312,0.70542l0.08407,0.83663l-0.01774,0.00205l0.02094,0.04095c-0.00124,0.59254 -0.00323,1.18507 -0.00597,1.7776c-0.0121,0.11286 -0.02348,0.22581 -0.03416,0.33883c0.01048,0.80559 -0.05924,1.64761 -0.06095,2.15481c-0.00494,1.47075 0.18351,4.06936 0.03597,6.48426c0.01565,0.65881 0.02568,1.31668 0.02348,1.97286c-0.00292,0.86858 0.31976,3.00791 -0.09335,3.73925c-0.74855,1.32518 -2.49948,0.79093 -3.67795,0.78527c-1.19197,-0.14572 -2.41677,-0.24814 -3.65717,-0.31047c-1.19793,0.07594 -2.39859,0.10168 -3.59315,0.09938l-0.17482,0.0701c0,0 -0.45847,0.12095 -0.72829,-0.22646zM238.36725,178.16903c-0.04118,0.0473 -0.08352,0.0927 -0.12705,0.13611c0.06994,-0.00034 0.11043,-0.00232 0.11096,-0.00646c0.00552,-0.0432 0.01088,-0.08641 0.01609,-0.12965z" fill="#787265" stroke="none" stroke-width="0.5" stroke-linecap="butt"/><path d="M233.20219,161.41972c2.08122,-0.0517 4.14859,-0.19415 6.12754,-0.41403c0,0 0.74541,-0.08282 0.82824,0.66259c0.08282,0.74541 -0.66259,0.82824 -0.66259,0.82824c-3.52011,0.39112 -7.31461,0.54435 -10.97901,0.38285c-1.67609,0.10895 -3.34639,0.31441 -4.97801,0.67526c-1.02459,0.2081 -0.81862,2.66253 -0.81925,3.52893c-0.00217,3.00431 0.55452,7.2862 -0.27216,10.43673c-0.00004,0.02869 -0.00008,0.05737 -0.00012,0.08606l0.01292,0.11629l0.16439,0.01827l-0.08938,0.80443c-0.03709,0.37956 -0.35711,0.67617 -0.74641,0.67617c-0.3893,0 -0.70933,-0.29661 -0.74641,-0.67617l-0.08938,-0.80443l0.01824,-0.00203l-0.02168,-0.03932c-0.00077,-0.56993 -0.00077,-1.13987 0,-1.7098c0.01207,-0.1086 0.02338,-0.21727 0.03397,-0.32601c-0.01356,-0.77482 0.05526,-1.58493 0.05526,-2.07279c0,-1.41465 -0.20286,-3.9135 -0.05941,-6.23674c-0.01838,-0.63362 -0.03097,-1.26636 -0.03097,-1.89751c0,-0.83545 -0.33937,-2.89211 0.08312,-3.59689c0.76555,-1.27703 2.56882,-0.76882 3.78129,-0.76719c1.22684,0.13632 2.48731,0.23086 3.76369,0.28681c1.23221,-0.07691 2.46741,-0.10555 3.69642,-0.1072l0.17962,-0.06799c0,0 0.47127,-0.11782 0.75008,0.21546zM222.34874,162.67095c0.0422,-0.04563 0.08561,-0.08943 0.13025,-0.13133c-0.07195,0.00055 -0.11361,0.00258 -0.11414,0.00657c-0.00552,0.04156 -0.01089,0.08315 -0.01611,0.12476z" fill="#8e8878" stroke="none" stroke-width="0.5" stroke-linecap="butt"/><path d="M244.03803,162.99007c-0.88438,0.77556 -1.33677,1.90662 -1.62077,3.15547c-0.03952,0.75661 -0.10793,1.51671 -0.17944,2.27833c0.00503,2.46768 -0.08378,4.96612 0.08963,7.3474c0.04883,0.30567 0.08263,0.60834 0.07736,0.88095c0.00523,0.05038 0.0106,0.1007 0.01612,0.15096c0,0.29879 0,0.59758 0,0.89638l-0.02271,0.03921l0.01927,0.00214l-0.08938,0.80443c-0.03709,0.37956 -0.35711,0.67617 -0.74641,0.67617c-0.41421,0 -0.75,-0.33579 -0.75,-0.75v-0.81342h0.08577l0.00576,-0.05187c0,-0.01638 0,-0.03276 0,-0.04914c-0.66165,-2.2277 -0.79818,-4.68484 -0.71667,-7.1643c-0.25965,-2.13003 -0.56008,-4.432 0.3505,-6.38771c-0.08109,-0.68109 -0.19134,-1.34952 -0.34017,-2.00089c0,0 -0.1627,-0.73214 0.56944,-0.89484c0.33927,-0.07539 0.55627,0.04137 0.69145,0.18839c3.82514,-2.27352 10.10116,-0.11098 14.68525,-0.04923c0.31088,-0.01601 0.60414,-0.02845 0.89882,-0.01793c0.17834,-0.01026 0.35336,-0.02482 0.52475,-0.04412l0.14738,-0.01638l0.01827,-0.16439l0.80443,0.08938c0.37956,0.03709 0.67617,0.35711 0.67617,0.74641c0,0.3893 -0.29661,0.70933 -0.67617,0.74641l-0.80443,0.08938c-0.27207,0.02986 -0.54932,0.04901 -0.8311,0.05893c-0.7608,0.21535 -1.87799,0.07332 -2.5469,0.03489c-3.94122,-0.22642 -6.68531,-0.79219 -10.33623,0.21897z" fill="#8e8878" stroke="none" stroke-width="0.5" stroke-linecap="butt"/><path d="M224.63528,181.80669c-0.88438,0.82362 -1.33677,2.02476 -1.62077,3.351c-0.03952,0.80349 -0.10792,1.61069 -0.17944,2.41951c0.00503,2.6206 -0.08378,5.27384 0.08962,7.80268c0.04882,0.32461 0.08263,0.64603 0.07737,0.93554c0.00523,0.05351 0.0106,0.10695 0.01612,0.16032c0,0.3173 0,0.63461 0,0.95192l-0.02271,0.04163l0.01926,0.00227l-0.08938,0.85428c-0.03708,0.40308 -0.35712,0.71807 -0.74642,0.71807c-0.41422,0 -0.75,-0.35659 -0.75,-0.79647v-0.86383h0.08577l0.00576,-0.05508c0,-0.01739 0,-0.03479 0,-0.05218c-0.66165,-2.36574 -0.79818,-4.97514 -0.71667,-7.60824c-0.25965,-2.26202 -0.56008,-4.70663 0.3505,-6.78352c-0.08109,-0.72329 -0.19134,-1.43314 -0.34017,-2.12487c0,0 -0.1627,-0.77751 0.56944,-0.95029c0.33927,-0.08007 0.55627,0.04393 0.69145,0.20006c3.82514,-2.41441 10.10115,-0.11786 14.68525,-0.05228c0.31088,-0.01701 0.60415,-0.03021 0.89882,-0.01904c0.17834,-0.0109 0.35335,-0.02636 0.52475,-0.04685l0.14738,-0.01739l0.01827,-0.17457l0.80443,0.09492c0.37956,0.03938 0.67617,0.37924 0.67617,0.79266c0,0.41342 -0.29661,0.75328 -0.67617,0.79267l-0.80443,0.09492c-0.27207,0.03172 -0.54932,0.05204 -0.8311,0.06258c-0.76081,0.22869 -1.87799,0.07786 -2.5469,0.03705c-3.94123,-0.24046 -6.68532,-0.84128 -10.33623,0.23254z" fill="#8e8878" stroke="none" stroke-width="0.5" stroke-linecap="butt"/><path d="M252.94862,180.17455c2.02288,-0.05375 4.0323,-0.20185 5.95578,-0.43045c0,0 0.72451,-0.08611 0.80502,0.68887c0.0805,0.77498 -0.64402,0.86108 -0.64402,0.86108c-3.42144,0.40664 -7.10956,0.56593 -10.67124,0.39803c-1.6291,0.11327 -3.25259,0.32688 -4.83847,0.70205c-0.99586,0.21636 -0.79568,2.76813 -0.79629,3.6689c-0.00211,3.12347 0.53897,7.57518 -0.26453,10.85067c-0.00003,0.02982 -0.00008,0.05965 -0.00012,0.08947l0.01256,0.1209l0.15978,0.01899l-0.08687,0.83634c-0.03605,0.39461 -0.3471,0.70299 -0.72549,0.70299c-0.37839,0 -0.68944,-0.30837 -0.72549,-0.70299l-0.08687,-0.83634l0.01773,-0.00211l-0.02107,-0.04088c-0.00074,-0.59254 -0.00074,-1.18507 0,-1.77761c0.01173,-0.11291 0.02272,-0.22589 0.03302,-0.33894c-0.01318,-0.80556 0.05371,-1.6478 0.05371,-2.155c0,-1.47076 -0.19717,-4.06872 -0.05774,-6.4841c-0.01786,-0.65875 -0.0301,-1.31659 -0.0301,-1.97277c0,-0.86859 -0.32986,-3.00682 0.08079,-3.73955c0.7441,-1.32769 2.49682,-0.79931 3.67529,-0.79762c1.19245,0.14172 2.41759,0.24002 3.65819,0.29819c1.19767,-0.07996 2.39824,-0.10973 3.5928,-0.11145l0.17458,-0.07069c0,0 0.45806,-0.12249 0.72905,0.22401zM242.39941,181.47541c0.04102,-0.04743 0.08321,-0.09298 0.12659,-0.13654c-0.06993,0.00057 -0.11043,0.00269 -0.11094,0.00683c-0.00537,0.04321 -0.01058,0.08645 -0.01565,0.12971z" fill="#8e8878" stroke="none" stroke-width="0.5" stroke-linecap="butt"/><path d="M227.03041,175.39856l0.81342,1.17495l-0.54228,2.16913" fill="none" stroke="#787265" stroke-width="1.5" stroke-linecap="round"/><path d="M239.41254,169.43345l-1.26533,-0.36152" fill="none" stroke="#787265" stroke-width="1.5" stroke-linecap="round"/><path d="M235.97808,179.01379l-0.27114,-1.26533" fill="none" stroke="#787265" stroke-width="1.5" stroke-linecap="round"/><path d="M232.72438,164.28176v-2.8018" fill="none" stroke="#787265" stroke-width="1.5" stroke-linecap="round"/><path d="M224.86128,164.91442l-0.99419,0.99419l-2.53066,-1.17495" fill="none" stroke="#787265" stroke-width="1.5" stroke-linecap="round"/><path d="M223.95746,167.89698v-1.89799" fill="none" stroke="#787265" stroke-width="1.5" stroke-linecap="round"/><path d="M247.0045,161.66072l-0.63266,1.71723" fill="none" stroke="#787265" stroke-width="1.5" stroke-linecap="round"/><path d="M248.45059,179.19455l-0.81342,-1.71723" fill="none" stroke="#787265" stroke-width="1.5" stroke-linecap="round"/><path d="M258.30207,172.77753h-1.26533" fill="none" stroke="#787265" stroke-width="1.5" stroke-linecap="round"/><path d="M240.49711,165.99899l1.80761,0.54228" fill="none" stroke="#787265" stroke-width="1.5" stroke-linecap="round"/><path d="M234.44161,180.18873l-0.99419,2.07875l-1.08457,1.08457" fill="none" stroke="#787265" stroke-width="1.5" stroke-linecap="round"/><path d="M233.62818,182.62901l1.35571,1.62685l-0.4519,1.17495" fill="none" stroke="#787265" stroke-width="1.5" stroke-linecap="round"/><path d="M235.61656,198.35522l0.09038,-2.07875" fill="none" stroke="#787265" stroke-width="1.5" stroke-linecap="round"/><path d="M221.69795,193.74582l1.35571,-0.36152l1.17495,-1.35571l1.08457,0.63266" fill="none" stroke="#787265" stroke-width="1.5" stroke-linecap="round"/><path d="M221.42681,182.62901l2.53066,0.4519" fill="none" stroke="#787265" stroke-width="1.5" stroke-linecap="round"/><path d="M248.9025,196.18609v2.25951" fill="none" stroke="#787265" stroke-width="1.5" stroke-linecap="round"/><path d="M243.57004,198.26484h14.00899" fill="none" stroke="#787265" stroke-width="1.5" stroke-linecap="round"/><path d="M258.93474,192.48049l-1.89799,-0.63266" fill="none" stroke="#787265" stroke-width="1.5" stroke-linecap="round"/><path d="M256.13293,179.73683l-0.4519,2.25951" fill="none" stroke="#787265" stroke-width="1.5" stroke-linecap="round"/><path d="M244.11233,179.64645l0.54228,2.71142" fill="none" stroke="#787265" stroke-width="1.5" stroke-linecap="round"/><path d="M221.24605,173.31981l1.26533,0.09038" fill="none" stroke="#5d594e" stroke-width="1.5" stroke-linecap="round"/><path d="M227.12078,161.7511v1.62685" fill="none" stroke="#5d594e" stroke-width="1.5" stroke-linecap="round"/><path d="M239.32216,179.10417l-0.72304,-0.99419" fill="none" stroke="#5d594e" stroke-width="1.5" stroke-linecap="round"/><path d="M242.12396,173.31981l-1.44609,-0.27114" fill="none" stroke="#5d594e" stroke-width="1.5" stroke-linecap="round"/><path d="M258.39245,165.09518h-0.81342" fill="none" stroke="#5d594e" stroke-width="1.5" stroke-linecap="round"/><path d="M252.24658,179.91759l0.09038,1.26533" fill="none" stroke="#5d594e" stroke-width="1.5" stroke-linecap="round"/><path d="M241.12977,191.57668l1.53647,0.27114" fill="none" stroke="#5d594e" stroke-width="1.5" stroke-linecap="round"/><path d="M258.57322,196.72837l-0.81342,-0.09038" fill="none" stroke="#5d594e" stroke-width="1.5" stroke-linecap="round"/><path d="M229.01878,198.53599l0.36152,-0.90381" fill="none" stroke="#5d594e" stroke-width="1.5" stroke-linecap="round"/><path d="M220.76424,199.23585v-38.47171h38.47171v38.47171z" fill="none" stroke="#5d594e" stroke-width="1.5" stroke-linecap="butt"/><path d="M258.9617,179.82721c0,0.75 -0.75,0.75 -0.75,0.75h-0.09038c-1.38301,-0.00186 -2.68722,-0.36357 -4.06712,-0.36152c-4.30262,-0.0064 -8.59789,0.19466 -12.9026,0.29963c0.15337,4.31619 0.45704,8.62261 0.45704,12.95935c0,1.6516 0.35336,3.24922 0.36152,4.88055v0.36152c0,0 0,0.75 -0.75,0.75c-0.75,0 -0.75,-0.75 -0.75,-0.75v-0.36152c0.00992,-1.62056 -0.36152,-3.23441 -0.36152,-4.88055c0,-4.32514 -0.313,-8.62164 -0.46295,-12.92704c-1.01094,0.01841 -2.02252,0.02958 -3.03494,0.02958c-5.16886,0 -10.29704,-0.63266 -15.45507,-0.63266c0,0 -0.75,0 -0.75,-0.75c0,-0.75 0.75,-0.75 0.75,-0.75c5.15872,0 10.28604,0.63266 15.45507,0.63266c0.99755,0 1.99417,-0.01036 2.9901,-0.02756c-0.02212,-0.90124 -0.03469,-1.80306 -0.03335,-2.7058c-0.53608,-4.82471 -0.27229,-9.91911 -0.27229,-14.7735c0,0 0,-0.75 0.75,-0.75c0.75,0 0.75,0.75 0.75,0.75c0,4.82685 -0.26309,9.89284 0.26999,14.69055c0.00124,0.92024 0.01601,1.83944 0.03995,2.75799c4.32009,-0.10079 8.62964,-0.29739 12.94904,-0.30319c1.38301,0.00186 2.68722,0.36357 4.06712,0.36152h0.09038c0,0 0.75,0 0.75,0.75z" fill="#5d594e" stroke="none" stroke-width="0.5" stroke-linecap="butt"/><text transform="translate(224.49789,195.70915) rotate(-37.10186) scale(0.27541,0.27541)" font-size="40" xml:space="preserve" fill="#ff0000" fill-rule="nonzero" stroke="none" stroke-width="1" stroke-linecap="butt" stroke-linejoin="miter" stroke-miterlimit="10" stroke-dasharray="" stroke-dashoffset="0" font-family="Sans Serif" font-weight="normal" text-anchor="start" style="mix-blend-mode: normal"><tspan x="0" dy="0">Flooring</tspan></text></g></g></svg>