<svg version="1.1" xmlns="http://www.w3.org/2000/svg" xmlns:xlink="http://www.w3.org/1999/xlink" width="34.99102" height="23.4593" viewBox="0,0,34.99102,23.4593"><defs><linearGradient x1="239.94433" y1="170.71913" x2="239.94433" y2="189.38031" gradientUnits="userSpaceOnUse" id="color-1"><stop offset="0" stop-color="#4d3b2e"/><stop offset="1" stop-color="#271e17"/></linearGradient><linearGradient x1="252.0625" y1="175.98944" x2="252.0625" y2="183.48944" gradientUnits="userSpaceOnUse" id="color-2"><stop offset="0" stop-color="#69513e"/><stop offset="1" stop-color="#69513e" stop-opacity="0"/></linearGradient><linearGradient x1="247" y1="172.73944" x2="247" y2="183.86444" gradientUnits="userSpaceOnUse" id="color-3"><stop offset="0" stop-color="#69513e"/><stop offset="1" stop-color="#69513e" stop-opacity="0"/></linearGradient><linearGradient x1="240.82723" y1="169.73729" x2="240.82723" y2="181.86443" gradientUnits="userSpaceOnUse" id="color-4"><stop offset="0" stop-color="#69513e"/><stop offset="1" stop-color="#69513e" stop-opacity="0"/></linearGradient><linearGradient x1="234.5" y1="169.82865" x2="234.5" y2="180.60697" gradientUnits="userSpaceOnUse" id="color-5"><stop offset="0" stop-color="#69513e"/><stop offset="1" stop-color="#69513e" stop-opacity="0"/></linearGradient><linearGradient x1="228.99748" y1="172.23729" x2="228.99748" y2="181.23944" gradientUnits="userSpaceOnUse" id="color-6"><stop offset="0" stop-color="#69513e"/><stop offset="1" stop-color="#69513e" stop-opacity="0"/></linearGradient><linearGradient x1="225.62673" y1="176.11444" x2="225.62673" y2="183.24319" gradientUnits="userSpaceOnUse" id="color-7"><stop offset="0" stop-color="#69513e"/><stop offset="1" stop-color="#69513e" stop-opacity="0"/></linearGradient></defs><g transform="translate(-222.50449,-168.27035)"><g data-paper-data="{&quot;isPaintingLayer&quot;:true}" fill-rule="nonzero" stroke="none" stroke-width="0.5" stroke-linecap="butt" stroke-linejoin="miter" stroke-miterlimit="10" stroke-dasharray="" stroke-dashoffset="0" style="mix-blend-mode: normal"><path d="M237.74469,171.20277l0.37697,-0.00045c2.06079,-0.00269 3.82931,0.11888 5.74545,0.88302c3.80362,2.11133 13.32197,6.55087 10.68163,12.14759c-0.48963,1.03786 -1.53735,1.98509 -2.35245,2.75518c-0.93429,0.88269 -1.66398,1.24099 -2.88676,1.59957c-4.43481,1.33806 -9.52112,0.7092 -14.03301,0.094c-4.22296,-0.57581 -7.98227,-0.97013 -10.27008,-4.97477c-1.12034,-5.88437 5.64128,-12.53178 11.70915,-12.98778c0.35994,0.48491 1.02911,0.48364 1.02911,0.48364z" data-paper-data="{&quot;noHover&quot;:false,&quot;origItem&quot;:[&quot;Path&quot;,{&quot;applyMatrix&quot;:true,&quot;segments&quot;:[[[236.73193,174.2664],[0.35994,0.48491],[-6.06787,0.456]],[[225.05501,187.19505],[-1.12034,-5.88437],[2.28781,4.00464]],[[235.30031,192.13772],[-4.22296,-0.57581],[4.5119,0.6152]],[[249.27257,192.05402],[-4.43481,1.33806],[1.22278,-0.35859]],[[252.15278,190.4635],[-0.93429,0.88269],[0.8151,-0.77009]],[[254.50067,187.71919],[-0.48963,1.03786],[2.64034,-5.59671]],[[243.84504,175.63021],[3.80362,2.11133],[-1.91613,-0.76414]],[[238.13176,174.75131],[2.06079,-0.00269],[0,0]],[237.75676,174.75131]],&quot;closed&quot;:true}]}" fill="url(#color-1)"/><path d="M252.0625,183.48944c-1.25,0 -1.25,-1.25 -1.25,-1.25c0,-1.25 0,-3.75 0,-5c0,0 0,-1.25 1.25,-1.25c1.25,0 1.25,1.25 1.25,1.25c0,1.25 0,2.5 0,3.75v1.25c0,0 0,1.25 -1.25,1.25z" fill="url(#color-2)"/><path d="M246.9375,183.86444c-1.25,0 -1.25,-1.03972 -1.25,-1.03972v-0.7278c0,-2.77696 0.125,-5.53928 0.125,-8.31776c0,0 0,-1.03972 1.25,-1.03972c1.25,0 1.25,1.03972 1.25,1.03972c0,2.77846 -0.125,5.54101 -0.125,8.31776v0.7278c0,0 0,1.03972 -1.25,1.03972z" fill="url(#color-3)"/><path d="M240.9375,181.86443c-1.25,0 -1.25,-0.89819 -1.25,-0.89819v-0.62873c0,-3.18917 0.16102,-6.44512 -0.24487,-9.61916c0,0 -0.11317,-0.8945 1.1317,-0.97582c1.24487,-0.08132 1.35804,0.81319 1.35804,0.81319c0.40464,3.23029 0.25513,6.53695 0.25513,9.7818v0.62873c0,0 0,0.89819 -1.25,0.89819z" fill="url(#color-4)"/><path d="M234.5625,180.60697c-1.25,0 -1.25,-0.89819 -1.25,-0.89819v-0.53892c0.00511,-2.80811 -0.125,-5.62825 -0.125,-8.44301c0,0 0,-0.89819 1.25,-0.89819c1.25,0 1.25,0.89819 1.25,0.89819c0,2.8155 0.12038,5.63388 0.125,8.44301v0.53892c0,0 0,0.89819 -1.25,0.89819z" fill="url(#color-5)"/><path d="M228.9375,181.23944c-1.25,0 -1.25,-0.92789 -1.25,-0.92789v-0.46395c0.00355,-2.23024 0.27859,-4.36417 0.00513,-6.59681c0,0 -0.11317,-0.92408 1.1317,-1.00809c1.24487,-0.08401 1.35804,0.84007 1.35804,0.84007c0.28045,2.29023 0.00111,4.47972 0.00513,6.76483v0.46395c0,0 0,0.92789 -1.25,0.92789z" fill="url(#color-6)"/><path d="M225.40746,183.22727c-1.24035,-0.1841 -1.0853,-1.65686 -1.0853,-1.65686l0.11535,-1.00329c0,-0.98949 0,-1.97897 0,-2.96846c0,0 0,-1.48423 1.25,-1.48423c1.25,0 1.25,1.48423 1.25,1.48423c0,0.98949 0,1.97897 0,2.96846l-0.13465,1.37148c0,0 -0.15504,1.47277 -1.39539,1.28867z" fill="url(#color-7)"/><path d="M236.73193,170.76639c-6.06787,0.456 -12.79727,7.04428 -11.67693,12.92865c2.28781,4.00464 6.02234,4.36687 10.24531,4.94268c4.5119,0.6152 9.53745,1.25436 13.97226,-0.0837c1.22278,-0.35859 1.94591,-0.70784 2.8802,-1.59053c0.8151,-0.77009 1.85827,-1.70645 2.3479,-2.74431c2.64034,-5.59671 -6.85202,-9.97764 -10.65564,-12.08898c-1.91613,-0.76414 -3.65249,-0.8816 -5.71328,-0.87891h-0.375c0,0 -0.66488,0 -1.02482,-0.48491zM240.73891,168.86452c1.40498,0.13996 2.74764,0.43368 4.17957,1.00787c5.24747,2.91717 15.38039,7.96648 11.84436,15.41103c-0.63274,1.33212 -1.83874,2.51515 -2.9021,3.50569c-1.21149,1.12852 -2.30107,1.68022 -3.8698,2.15948c-3.13857,0.93673 -6.19196,0.83765 -9.42146,0.67616c-6.68623,-0.33435 -14.30086,-0.54111 -17.86098,-7.06718c-1.82958,-8.88972 9.01851,-18.38652 17.65743,-15.87855c0,0 0.1761,0.05283 0.37296,0.1855z" fill="#937257"/></g></g></svg>