<svg version="1.1" xmlns="http://www.w3.org/2000/svg" xmlns:xlink="http://www.w3.org/1999/xlink" width="54.41662" height="14.36014" viewBox="0,0,54.41662,14.36014"><g transform="translate(-212.79169,-172.80669)"><g data-paper-data="{&quot;isPaintingLayer&quot;:true}" fill-rule="nonzero" stroke="none" stroke-linecap="butt" stroke-linejoin="miter" stroke-miterlimit="10" stroke-dasharray="" stroke-dashoffset="0" style="mix-blend-mode: normal"><path d="M265.61713,177.21784c-5.74609,0.0364 -11.58133,-0.21669 -17.44206,0.17448c-7.34034,-0.37857 -14.73417,-0.03367 -22.05155,0.14641c-3.16113,0.07567 -6.32256,0.1723 -9.48412,0.22701c-0.59743,0.01034 -1.98933,0.65923 -2.48707,0.15796c0.13584,0.19844 0.36867,0.56857 0.40273,0.76129c0.15287,0.86489 -0.01118,1.44459 0.29196,2.28632c-0.18997,0.65359 5.01174,0.34868 6.06213,0.41442c3.30899,0.20707 7.33788,0.4522 10.57618,1.25264c6.03544,-0.14446 11.78556,0.49954 17.89895,-0.11818c2.44154,-0.02654 5.15778,-0.45922 7.55819,-0.8835c2.82285,-0.49894 5.48713,0.13931 8.32333,-0.88212c0.83022,-0.10456 0.38651,-2.06678 0.36952,-2.77663zM266.85641,176.5798c0.25103,0.21548 0.25956,0.57189 0.25956,0.57189l0.01892,0.79034c0.04172,1.74281 0.47347,3.39162 -1.36083,4.22379c-2.92177,1.05225 -5.67322,0.39963 -8.55596,0.94532c-2.47288,0.46811 -5.22134,0.81972 -7.74041,0.90612c-6.20381,0.62686 -12.02426,-0.0346 -18.15583,0.11217c-4.24376,-1.04897 -8.94022,-0.81364 -13.23846,-1.3438c-1.83965,-0.22691 -4.32746,0.97392 -4.71083,-1.53868c-0.2655,-0.7372 -0.91302,-3.82023 -0.37064,-4.4376c0.30272,-0.34458 3.07087,-0.52745 3.60158,-0.54317c3.16071,-0.09366 6.32292,-0.15134 9.48412,-0.22701c7.32896,-0.1701 14.72372,-0.51177 22.07483,-0.14679c6.0544,-0.41323 12.02296,0.02617 17.93166,-0.17814c0,0 0.74978,-0.01795 0.76773,0.73184c0.00114,0.04745 -0.0008,0.09197 -0.00543,0.13374z" fill="#b3b3b3" stroke-width="0.5"/><path d="M265.68527,177.97562c0.01699,0.70985 0.46065,2.67758 -0.36957,2.78213c-2.8362,1.02144 -5.50093,0.38734 -8.32377,0.88628c-2.40042,0.42428 -5.1192,0.86687 -7.56073,0.89342c-6.11339,0.61772 -11.95689,-0.02507 -17.99233,0.1194c-3.2383,-0.80044 -7.27041,-1.05833 -10.57939,-1.26539c-1.05039,-0.06574 -6.2523,0.23701 -6.06233,-0.41658c-0.30314,-0.84173 -0.13921,-1.42591 -0.29208,-2.2908c-0.03406,-0.19272 -0.26685,-0.56429 -0.40268,-0.76274c0.49774,0.50127 1.88968,-0.1482 2.4871,-0.15854c3.16155,-0.05471 6.32323,-0.15409 9.48435,-0.22975c7.31738,-0.18008 14.8097,-0.53013 22.15004,-0.15157c5.86073,-0.39117 11.69702,-0.13104 17.4431,-0.16745z" data-paper-data="{&quot;noHover&quot;:false,&quot;origItem&quot;:[&quot;Path&quot;,{&quot;applyMatrix&quot;:true,&quot;selected&quot;:true,&quot;segments&quot;:[[[265.61713,177.21784],[0,0],[-5.74609,0.0364],7],[[248.17507,177.39232],[5.86073,-0.39117],[-7.34034,-0.37857],7],[[226.12352,177.53873],[7.31738,-0.18008],[-3.16113,0.07567],7],[[216.6394,177.76574],[3.16155,-0.05471],[-0.59743,0.01034],7],[[214.15233,177.9237],[0.49774,0.50127],[0.13584,0.19844],7],[[214.55506,178.68499],[-0.03406,-0.19272],[0.15287,0.86489],7],[[214.84702,180.97131],[-0.30314,-0.84173],[-0.18997,0.65359],7],[[220.90915,181.38573],[-1.05039,-0.06574],[3.30899,0.20707],7],[[231.48532,182.63837],[-3.2383,-0.80044],[6.03544,-0.14446],7],[[249.38428,182.52019],[-6.11339,0.61772],[2.44154,-0.02654],7],[[256.94247,181.63669],[-2.40042,0.42428],[2.82285,-0.49894],7],[[265.2658,180.75457],[-2.8362,1.02144],[0.83022,-0.10456],7],[[265.63532,177.97794],[0.01699,0.70985],[0,0],7]],&quot;closed&quot;:true,&quot;fillColor&quot;:[0,0,0,1],&quot;strokeWidth&quot;:0.5}]}" fill="#d3d3d3" stroke-width="0.25"/><path d="M250.75731,180.70801c-0.13692,1.6834 -0.49363,3.4473 0.02895,4.72689c0.11587,0.28372 1.44431,0.10288 1.58874,0.10389c1.5967,0.01121 3.2263,-0.26574 4.87986,-0.24032c0.42359,-0.1412 2.38069,-0.03575 2.58981,-0.29001c0.52026,-0.6326 0.19239,-2.13674 0.29001,-2.83981c0.27,-1.94445 2.56551,-7.62986 -0.25968,-7.62986c-2.48523,0 -6.41757,-0.67421 -8.64611,0.41126c-0.83205,0.40527 -0.35389,3.85118 -0.35389,4.58874v0.75c0,0 0,0.2182 -0.11769,0.41921zM249.29936,177.78352c-0.066,-1.58198 -0.00218,-3.36825 1.22174,-4.15597c2.1688,-1.39584 6.84247,-0.58874 9.35389,-0.58874c4.79996,0 2.17301,6.4355 1.74032,9.37014c-0.16192,1.09817 0.24533,2.75784 -0.70999,3.66019c-0.83258,0.78642 -2.39226,0.37067 -3.41019,0.70999c-1.76448,0.01964 -6.84018,1.19109 -8.03139,-0.63642c-1.14864,-1.7622 0.41721,-5.56367 -0.30026,-7.61672c0,0 -0.14639,-0.43916 0.13587,-0.74245z" fill="#b3b3b3" stroke-width="0.5"/><path d="M250.8251,180.29204l0.00007,-0.75746c0,-0.73756 -0.46238,-4.21587 0.36967,-4.62114c2.22854,-1.08546 6.22452,-0.41494 8.70975,-0.41494c2.82519,0 0.54446,5.74876 0.27445,7.69321c-0.09763,0.70307 0.21672,2.22351 -0.30354,2.85611c-0.20912,0.25427 -2.18467,0.15791 -2.60826,0.2991c-1.65356,-0.02542 -3.32221,0.24538 -4.91892,0.23417c-0.14443,-0.00101 -1.48031,0.17409 -1.59618,-0.10963c-0.52258,-1.2796 -0.18124,-3.07288 -0.04432,-4.75628c0.11769,-0.20101 0.11728,-0.42315 0.11728,-0.42315z" data-paper-data="{&quot;noHover&quot;:false,&quot;origItem&quot;:[&quot;Path&quot;,{&quot;applyMatrix&quot;:true,&quot;selected&quot;:true,&quot;segments&quot;:[[[250.75731,180.70801],[0.11769,-0.20101],[-0.13692,1.6834],7],[[250.78626,185.43491],[-0.52258,-1.2796],[0.11587,0.28372],7],[[252.375,185.5388],[-0.14443,-0.00101],[1.5967,0.01121],7],[[257.25486,185.29849],[-1.65356,-0.02542],[0.42359,-0.1412],7],[[259.84467,185.00847],[-0.20912,0.25427],[0.52026,-0.6326],7],[[260.13468,182.16867],[-0.09763,0.70307],[0.27,-1.94445],7],[[259.875,174.5388],[2.82519,0],[-2.48523,0],7],[[251.22889,174.95006],[2.22854,-1.08546],[-0.83205,0.40527],7],[[250.875,179.5388],[0,-0.73756],[0,0],7],[[250.875,180.2888],[0,0],[0,0],7]],&quot;closed&quot;:true}]}" fill="#d3d3d3" stroke-width="0.5"/></g></g></svg>