<svg version="1.1" xmlns="http://www.w3.org/2000/svg" xmlns:xlink="http://www.w3.org/1999/xlink" width="29.75569" height="48.83067" viewBox="0,0,29.75569,48.83067"><g transform="translate(-224.96811,-140.18271)"><g data-paper-data="{&quot;isPaintingLayer&quot;:true}" fill-rule="nonzero" stroke="none" stroke-width="0.5" stroke-linecap="butt" stroke-linejoin="miter" stroke-miterlimit="10" stroke-dasharray="" stroke-dashoffset="0" style="mix-blend-mode: normal"><path d="M247.40968,165.86267l0.22202,0.55164c0.3528,0.82264 0.66968,1.66413 0.9845,2.50195c0.54409,1.90693 2.14652,7.91312 0.17985,9.41818c-0.92284,0.70624 -1.50784,-0.90288 -1.9009,-2.57191c-0.06901,-0.95998 -0.12228,-1.89932 -0.12257,-2.84991l-0.02554,-0.04346l0.02133,-0.00271l-0.10724,-0.87454c-0.04137,-0.37508 -0.3556,-0.66189 -0.74171,-0.66189c-0.41421,0 -0.67366,0.2712 -0.67366,0.68542c0,0.02059 0.00106,0.04126 0.00269,0.06144l0.11198,1.49699l0.00139,-0.0001c-0.00029,0.00233 -0.00056,0.00471 -0.00084,0.00704c-0.07794,0.63347 -0.02489,1.6736 0.172,2.71912c0.14281,1.90808 0.27905,3.85802 0.04422,5.73666c-0.00157,0.89127 0.18162,4.86613 -0.49501,5.34647c-0.23731,0.16847 -2.49879,-0.03586 -2.88821,-0.0365c-0.19633,-0.00032 -1.76033,0.07484 -2.1232,-0.17067c0.0849,-0.30518 0.14132,-0.73516 0.17887,-1.07934c0.06453,-0.13211 0.11462,-0.26318 0.12112,-0.38576c0.08369,-1.57785 0.12408,-2.84438 -0.21909,-4.21868c0,-0.00108 -0.00249,-0.10212 -0.00249,-0.1032l0.00068,-0.00552l0.2162,-0.02416l-0.10379,-0.89121c-0.03709,-0.37956 -0.36753,-0.67666 -0.75683,-0.67666c-0.38611,0 -0.71144,0.29006 -0.75281,0.66515l-0.08158,0.78312l0.01936,0.00239l-0.02378,0.04401c-0.00106,0.7657 0.44803,5.89013 -0.33717,6.11797c-0.6911,0.20053 -2.04586,-0.09545 -2.74506,-0.16588c-0.35774,-0.0503 -0.83859,0.18103 -1.08457,-0.08354c-0.13104,-0.14095 -0.02285,-2.34947 -0.04486,-2.67461c-0.18125,-2.67748 -0.26968,-5.56445 0.0847,-8.22292c0.09231,-0.69248 0.36997,-1.57377 0.34453,-2.29802c0.06557,-0.3591 0.14457,-0.72438 0.22243,-1.08091l-0.03361,-0.08215l0.03843,-0.00015l0.00303,-0.78154c0,-0.41421 -0.26131,-0.68326 -0.67553,-0.68326c-0.36345,0 -0.66274,0.2538 -0.73157,0.597l-0.21574,0.98024l0.16878,0.03782c-0.03196,0.14554 -0.0614,0.2887 -0.09082,0.43482c-0.34032,1.05147 -0.51024,2.14728 -0.59131,3.29233c-0.34278,0.95709 -1.08575,1.67782 -2.32424,0.9771c-0.49801,-0.28177 -0.32909,-2.44183 -0.32935,-2.83298c-0.00181,-2.7106 0.8707,-5.3561 2.16413,-7.72117c0.27003,-0.05499 0.45267,-0.26739 0.45267,-0.26739c2.11199,-2.50239 7.13949,-1.1705 10.0579,-1.30226c1.38768,-0.06265 2.95391,-0.30772 4.24632,0.28018z" data-paper-data="{&quot;noHover&quot;:false,&quot;origItem&quot;:[&quot;Path&quot;,{&quot;applyMatrix&quot;:true,&quot;segments&quot;:[[[496.43499,290.36259],[0,0],[-2.5848,-1.17581]],[[487.97232,289.8161],[2.77535,-0.1253],[-5.83683,0.26353]],[[467.94253,292.40451],[4.22399,-5.00478],[0,0]],[[467.04065,292.93661],[0.54007,-0.10999],[-2.58686,4.73015]],[[462.74809,308.31721],[-0.00361,-5.42119],[0.00052,0.7823]],[[463.40716,313.95383],[-0.99603,-0.56354],[2.47697,1.40145]],[[467.85663,312.01728],[-0.68556,1.91418],[0.16213,-2.29009]],[[469.04847,305.38632],[-0.68063,2.10294],[0.05884,-0.29223]],[[469.23279,304.51134],[-0.06392,0.29109],[0,0]],[468.89492,304.43626],[[469.33295,302.4651],[0,0],[0.13765,-0.68639]],[[470.80364,301.26165],[-0.7269,0],[0.82843,0]],[[472.30364,302.76165],[0,-0.82843],[0,0]],[472.30364,304.31721],[472.22701,304.31721],[[472.29469,304.48088],[0,0],[-0.15574,0.71307]],[[471.85883,306.6273],[0.13113,-0.71819],[0.05089,1.4485]],[[471.17926,311.18297],[0.18462,-1.38496],[-0.70876,5.31694]],[[470.96654,327.54421],[-0.3625,-5.35496],[0.04402,0.65029]],[[471.04523,332.88685],[-0.26208,-0.2819],[0.49196,0.52915]],[[473.2066,333.05036],[-0.71548,-0.10061],[1.3984,0.14085]],[[478.67406,333.37583],[-1.38221,0.40107],[1.57041,-0.45568]],[[479.30654,321.33511],[-0.00212,1.5314],[0,0]],[479.35432,321.24715],[479.31523,321.24227],[[479.53498,319.48423],[0,0],[0.08274,-0.75016]],[[481.02587,318.15054],[-0.77221,0],[0.7786,0]],[[482.51869,319.50288],[-0.07417,-0.75912],[0,0]],[482.73891,321.48489],[482.30218,321.53342],[[482.3008,321.54447],[0,0],[0.00001,0.00215]],[[482.30082,321.55093],[-0.00001,-0.00215],[0.68633,2.74861]],[[482.74519,330.18819],[0.16737,-3.1557],[-0.013,0.24515]],[[482.50156,330.95975],[0.12905,-0.26423],[-0.0751,0.68836]],[[482.14107,332.91845],[0.1698,-0.61036],[0.72575,0.49101]],[[486.3685,333.26168],[-0.39266,-0.00064],[0.77885,0.00126]],[[492.12257,333.34191],[-0.47462,0.33694],[1.35326,-0.96069]],[[493.08432,322.66845],[-0.00313,1.78255],[0.46966,-3.75727]],[[492.96593,311.26793],[0.28561,3.81615],[-0.39377,-2.09104]],[[492.63336,305.8747],[-0.15588,1.26694],[0.00057,-0.00467]],[[492.63509,305.8607],[-0.00058,0.00467],[0,0]],[492.63231,305.8609],[[492.41967,302.88397],[0,0],[-0.00326,-0.04034]],[[492.41476,302.76165],[0,0.04118],[0,-0.82843]],[[493.91476,301.26165],[-0.82843,0],[0.77221,0]],[[495.40564,302.59534],[-0.08274,-0.75016],[0,0]],[495.62539,304.35338],[495.58269,304.35872],[[495.63408,304.44622],[0,0],[0.00057,1.90117]],[[495.88986,310.1828],[-0.13802,-1.91996],[0.78614,3.33805]],[[499.49447,315.31377],[-1.84568,1.41247],[3.93334,-3.01012]],[[499.15688,296.56475],[1.08818,3.81386],[-0.62963,-1.67564]],[[497.2027,291.57475],[0.70559,1.64528],[0,0]],[496.76188,290.47383]],&quot;closed&quot;:true}]}" fill="#0060b9"/><path d="M244.95739,185.24194c-1.52141,0 -3.03849,-0.03814 -4.55538,-0.08281c-0.00854,0.19733 -0.01859,0.39772 -0.0294,0.60164c-0.0065,0.12257 -0.05729,0.25366 -0.12182,0.38578c-0.03755,0.34418 -0.09534,0.67417 -0.18024,0.97935c0.36288,0.24551 1.91738,0.1713 2.11372,0.17161c0.38942,0.00063 2.63973,0.20858 2.87704,0.04011c0.3077,-0.21844 0.43466,-1.15751 0.48179,-2.20044zM244.95739,183.74194l0.40847,-0.09655c0,0 0.08409,-0.01682 0.20108,-0.01065c-0.00447,-0.72067 -0.02528,-1.34203 -0.02477,-1.63385c0.23483,-1.87863 0.08361,-3.79218 -0.0592,-5.70026c-0.19689,-1.04552 -0.24423,-2.06314 -0.16629,-2.69661c0.00029,-0.00233 0.00058,-0.00467 0.00087,-0.007l-0.00139,0.0001l-0.10632,-1.48847c-0.00163,-0.02017 -0.00246,-0.04057 -0.00246,-0.06116c0,-0.41421 0.33579,-0.75 0.75,-0.75c0.38611,0 0.70407,0.29176 0.74544,0.66685l0.10988,0.87902l-0.02135,0.00267l0.02569,0.04375c0.00029,0.95059 0.05888,1.90831 0.12789,2.86829c0.39307,1.66903 0.87946,3.27172 1.8023,2.56548c1.96667,-1.50506 0.3753,-7.46758 -0.16879,-9.37451c-0.31481,-0.83782 -0.62429,-1.67236 -0.97709,-2.495l-0.22041,-0.55046l-0.16344,-0.05562c-1.2924,-0.5879 -2.84366,-0.3359 -4.23133,-0.27324c-2.91841,0.13176 -7.9029,-1.20819 -10.0149,1.2942c0,0 -0.18091,0.21106 -0.45094,0.26605c-1.29343,2.36508 -2.14808,4.9797 -2.14628,7.6903c0.00026,0.39115 -0.16848,2.53654 0.32953,2.81831c1.23849,0.70073 1.88196,-0.01119 2.22474,-0.96828c0.08107,-1.14505 0.2556,-2.26401 0.59592,-3.31548c0.02942,-0.14611 0.0602,-0.29195 0.09216,-0.43749l-0.16893,-0.03754l0.21902,-0.98558c0.06882,-0.34319 0.37189,-0.60172 0.73534,-0.60172c0.41421,0 0.75,0.33579 0.75,0.75v0.77778h-0.03832l0.03384,0.08184c-0.07787,0.35653 -0.15236,0.71411 -0.21793,1.07321c0.02544,0.72425 -0.24748,1.58536 -0.33978,2.27784c-0.31415,2.35665 -0.29734,4.85962 -0.16322,7.26273c1.44918,0.00713 2.89374,0.04583 4.33712,0.08891c-0.04066,-1.04642 -0.11067,-1.97952 -0.11026,-2.27557l0.02389,-0.04398l-0.01954,-0.00244l0.10988,-0.87902c0.04137,-0.37508 0.35933,-0.66685 0.74544,-0.66685c0.3893,0 0.70933,0.29661 0.74641,0.67617l0.11011,0.99101l-0.21837,0.02426l-0.00069,0.00552c0,0.00108 0.00001,0.00215 0.00001,0.00323c0.1824,0.73046 0.25731,1.45872 0.27491,2.21767c1.50923,0.04438 3.0186,0.08213 4.53206,0.08213zM234.52263,187.11009c0.24598,0.26458 0.72295,0.03145 1.08068,0.08175c0.6992,0.07043 2.04263,0.36327 2.73373,0.16274c0.33846,-0.09821 0.44369,-1.08806 0.45397,-2.24396c-1.43496,-0.04289 -2.87105,-0.08162 -4.31177,-0.08946c-0.01706,0.76785 -0.05288,1.98539 0.04339,2.08893zM242.92861,164.07582c1.68339,-0.07704 3.29918,-0.25542 4.87978,0.39342l0.27506,0.08896c0,0 0.39623,0.13208 0.49876,0.49479c0.12602,0.12994 0.18265,0.27151 0.18265,0.27151l0.21522,0.53866c0.36945,0.86261 0.69399,1.73733 1.02291,2.61611c0.76685,2.68075 2.35323,9.02852 -0.39102,11.06993c-1.00602,0.74837 -1.81417,0.72567 -2.44725,0.2669c0.0026,0.7631 -0.03111,1.52326 -0.12545,2.27799c0.00294,1.48101 0.23738,5.40283 -1.07468,6.44105c-1.03347,0.81777 -4.82283,0.4807 -6.50223,-0.21671c-0.15559,0.17206 -0.33798,0.31484 -0.5513,0.42196c-0.74974,0.37652 -2.68004,0.02083 -3.48849,-0.05948c-0.53305,-0.07716 -1.67093,-0.17692 -2.03043,-0.58491c-0.646,-0.73316 -0.406,-3.53651 -0.40698,-4.49296c-0.00153,-1.47984 -0.10207,-3.06778 -0.11617,-4.65762c-0.75941,0.55717 -1.75008,0.68037 -2.99114,-0.04959c-0.76411,-0.44943 -0.99806,-2.19498 -1.0038,-2.95946c-0.0263,-3.50166 0.72475,-6.61808 2.42772,-9.69757c0,0 0.20243,-0.36438 0.57712,-0.39893c2.63736,-2.95695 7.48515,-1.60092 11.04972,-1.76406z" fill="#00488c"/><path d="M229.03386,148.19211c1.30231,-1.62091 3.71699,-2.46235 5.56719,-3.16019c5.32665,-2.00905 11.34637,-1.37394 14.93657,3.37407c6.42416,8.36862 -1.40083,20.69674 -11.5271,19.29819c-4.46922,-0.56937 -10.58383,-5.87394 -11.25969,-10.42888c-0.46756,-3.15116 0.56873,-5.55948 1.99626,-8.21828l0.12406,-0.15416c0,0 0.24807,-0.33703 0.16272,-0.71075z" data-paper-data="{&quot;noHover&quot;:false,&quot;origItem&quot;:[&quot;Path&quot;,{&quot;applyMatrix&quot;:true,&quot;segments&quot;:[[461.79205,256.51809],[[461.57425,256.7885],[0,0],[-2.51619,4.68647]],[[458.07109,271.20873],[-0.82414,-5.55431],[1.19129,8.02865]],[[477.82886,289.50257],[-7.87755,-1.00359],[17.84882,2.46512]],[[498.05541,255.64538],[11.32339,14.75074],[-6.32818,-8.36895]],[[471.84818,249.73122],[9.38889,-3.5412],[-3.26121,1.23003]],[[462.07578,255.26964],[2.29549,-2.85706],[0.15045,0.65872]]],&quot;closed&quot;:true}]}" fill="#e6d0a9"/><path d="M241.91254,163.56376c0.0516,-0.11908 0.12566,-0.20362 0.20996,-0.26301c0.12588,-0.32804 0.6177,-0.38208 0.6177,-0.38208c0.52791,-0.05708 1.06194,-0.08928 1.59505,-0.08981l0.72551,-0.07972c0.03871,-0.00474 0.0784,-0.0072 0.11884,-0.0072c0.41421,0 0.75,0.2583 0.75,0.57692c0,0.20343 -0.13688,0.38227 -0.34365,0.48499l-0.65699,0.33692l-0.07475,-0.08625c-0.43279,0.28215 -0.89169,0.34772 -1.89684,0.35408l-0.5705,-0.11508c0,0 -0.71151,-0.18244 -0.47434,-0.72975z" fill="#66c7ff"/><path d="M245.58928,185.11805c-0.04713,1.04294 -0.1751,2.02253 -0.48279,2.24097c-0.23731,0.16847 -2.55872,-0.01812 -2.94814,-0.01875c-0.19633,-0.00032 -1.77265,0.04605 -2.13552,-0.19945c0.0849,-0.30518 0.14047,-0.65251 0.17802,-0.99669c0.06453,-0.13211 0.11632,-0.27103 0.12282,-0.3936c0.01082,-0.20392 0.02441,-0.41504 0.03295,-0.61237c1.51689,0.04468 3.12447,0.08222 4.64588,0.08222z" data-paper-data="{&quot;noHover&quot;:false,&quot;origItem&quot;:[&quot;Path&quot;,{&quot;applyMatrix&quot;:true,&quot;segments&quot;:[[[244.95738,185.24194],[0,0],[-1.52141,0]],[[240.402,185.15912],[1.51689,0.04468],[-0.00854,0.19733]],[[240.3726,185.76076],[0.01082,-0.20392],[-0.0065,0.12257]],[[240.25078,186.14654],[0.06453,-0.13211],[-0.03755,0.34418]],[[240.07053,187.12589],[0.0849,-0.30518],[0.36288,0.24551]],[[242.18425,187.29751],[-0.19633,-0.00032],[0.38942,0.00063]],[[245.06129,187.33762],[-0.23731,0.16847],[0.3077,-0.21844]],[[245.54308,185.13718],[-0.04713,1.04294],[0,0]]],&quot;closed&quot;:true}]}" fill="#00529f"/><path d="M234.43561,184.99673c1.44072,0.00784 2.96493,0.04817 4.39988,0.09106c-0.01027,1.1559 -0.11829,2.19616 -0.45674,2.29437c-0.6911,0.20053 -2.11251,-0.08547 -2.8117,-0.15589c-0.35774,-0.0503 -0.8445,0.16785 -1.09048,-0.09672c-0.09627,-0.10354 -0.05802,-1.36496 -0.04095,-2.13281z" data-paper-data="{&quot;noHover&quot;:false,&quot;origItem&quot;:[&quot;Path&quot;,{&quot;applyMatrix&quot;:true,&quot;segments&quot;:[[[234.52262,187.11009],[-0.09627,-0.10354],[0.24598,0.26458]],[[235.6033,187.19185],[-0.35774,-0.0503],[0.6992,0.07043]],[[238.33703,187.35458],[-0.6911,0.20053],[0.33846,-0.09821]],[[238.791,185.11062],[-0.01027,1.1559],[-1.43496,-0.04289]],[[234.47923,185.02116],[1.44072,0.00784],[-0.01706,0.76785]]],&quot;closed&quot;:true}]}" fill="#00529f"/><path d="M254.49755,146.00887c0.37195,0.65127 -0.27933,1.02322 -0.27933,1.02322l-0.11596,0.06622c-0.88569,0.50534 -1.79273,0.97498 -2.7166,1.40658c0,0 -0.67964,0.31716 -0.9968,-0.36247c-0.31716,-0.67964 0.36247,-0.9968 0.36247,-0.9968c0.88696,-0.41345 1.75748,-0.86418 2.60704,-1.34986l0.11596,-0.06622c0,0 0.65127,-0.37195 1.02322,0.27933z" fill="#8c5900"/><path d="M244.29072,140.5197c0.75,0 0.75,0.75 0.75,0.75l-0.02643,0.64178c-0.11111,0.40741 -0.22222,0.81481 -0.33333,1.22222c0,0 -0.19734,0.72357 -0.92091,0.52623c-0.72357,-0.19734 -0.52623,-0.92091 -0.52623,-0.92091c0.11111,-0.40741 0.22222,-0.81481 0.33333,-1.22222l-0.02643,-0.24711c0,0 0,-0.75 0.75,-0.75z" fill="#8c5900"/><path d="M233.8715,141.18383c0.53033,-0.53033 1.06066,0 1.06066,0l0.41743,0.43357c0.25926,0.37037 0.51852,0.74074 0.77778,1.11111c0,0 0.4301,0.61442 -0.18433,1.04452c-0.61442,0.4301 -1.04452,-0.18433 -1.04452,-0.18433c-0.25926,-0.37037 -0.51852,-0.74074 -0.77778,-1.11111l-0.24924,-0.2331c0,0 -0.53033,-0.53033 0,-1.06066z" fill="#8c5900"/><path d="M225.77779,146.07591c0.41603,-0.62404 1.04006,-0.20801 1.04006,-0.20801l0.37776,0.25425c0.33333,0.25926 0.66667,0.51852 1,0.77778c0,0 0.59201,0.46046 0.13156,1.05247c-0.46046,0.59201 -1.05247,0.13156 -1.05247,0.13156c-0.33333,-0.25926 -0.66667,-0.51852 -1,-0.77778l-0.2889,-0.1902c0,0 -0.62404,-0.41603 -0.20801,-1.04006z" fill="#8c5900"/><path d="M228.91824,148.93449l-0.12357,0.15341c-1.42752,2.6588 -2.45503,5.02995 -1.98747,8.18111c0.67586,4.55494 6.74007,9.80938 11.20929,10.37875c10.12628,1.39855 17.89941,-10.83977 11.47525,-19.2084c-3.5902,-4.74801 -9.54165,-5.36436 -14.8683,-3.35531c-1.8502,0.69784 -4.24192,1.52123 -5.54423,3.14214c0.08536,0.37372 -0.16097,0.70829 -0.16097,0.70829zM226.97469,148.40723c1.35394,-2.70216 4.35479,-3.89944 7.048,-4.91564c6.05692,-2.28541 12.73216,-1.40953 16.82251,3.9158c7.27258,9.5944 -1.42149,23.49509 -13.05869,21.92677c-5.24769,-0.75258 -11.83515,-6.46649 -12.66285,-11.81508c-0.4949,-3.19808 0.40679,-5.80703 1.7849,-8.50002c-0.07753,-0.31392 0.06612,-0.61183 0.06612,-0.61183z" data-paper-data="{&quot;index&quot;:null}" fill="#8d7f67"/><path d="M244.86333,148.8617c-0.9108,0.77651 -3.17605,2.91751 -1.99926,3.67173c0.41216,0.26416 2.50255,0.19021 2.87619,0.20454c0.86631,0.03322 1.8994,0.74679 2.59115,0.22422c0.43284,-0.32698 -0.45148,-0.987 -0.7007,-1.46883c-0.58353,-1.12816 -0.75513,-2.30792 -2.10539,-2.54125l-0.228,0.02027c0,0 -0.21845,0.00001 -0.43399,-0.11068zM245.24458,147.27334c0.03319,-0.00297 0.05275,-0.00297 0.05275,-0.00297l0.59722,0.02027c1.88376,0.4754 5.41395,4.84063 3.58932,6.92403c-0.79954,0.91294 -6.9065,0.33893 -7.73611,-0.39645c-2.38603,-2.11504 0.8779,-5.41985 2.42005,-6.58394c0,0 0.5847,-0.43852 1.07676,0.03907z" fill="#000000"/><path d="M245.29196,148.9159l0.23432,-0.02051c1.35026,0.23333 1.57623,1.48238 2.15977,2.61054c0.24922,0.48183 1.12495,1.16144 0.69211,1.48842c-0.69175,0.52257 -1.76348,-0.16701 -2.62979,-0.20023c-0.37365,-0.01433 -2.52119,0.03197 -2.93335,-0.23219c-1.1768,-0.75422 1.12159,-2.97817 2.03239,-3.75469c0.21554,0.11068 0.44455,0.10865 0.44455,0.10865z" data-paper-data="{&quot;noHover&quot;:false,&quot;origItem&quot;:[&quot;Path&quot;,{&quot;applyMatrix&quot;:true,&quot;segments&quot;:[[[489.89726,256.3898],[0.37992,0.19509],[-1.6054,1.3687]],[[486.37332,262.86168],[-2.07425,-1.3294],[0.72648,0.46561]],[[491.44297,263.2222],[-0.6586,-0.02525],[1.52698,0.05855]],[[496.0102,263.61742],[-1.2193,0.92109],[0.76294,-0.57634]],[[494.77513,261.02843],[0.43928,0.84928],[-1.02855,-1.98853]],[[491.06411,256.54916],[2.38001,0.41127],[0,0]],[490.66223,256.58488]],&quot;closed&quot;:true}]}" fill="#ffbaba"/><path d="M233.03189,148.69169c-0.09043,0.09595 -0.17168,0.14765 -0.17168,0.14765c-0.60167,0.38147 -1.21362,0.76238 -1.73541,1.24741c-2.59542,2.41258 -0.39355,2.79533 1.91126,2.55223c0.15117,-0.01594 2.03481,-0.18073 2.07182,-0.25734c0.43096,-0.8922 -1.08449,-3.37502 -2.076,-3.68995zM232.08895,147.3337c0.23613,-0.37279 0.72698,-0.37279 0.72698,-0.37279l0.18783,0.00422c2.01837,0.30859 4.83206,4.12914 3.50304,6.38595c-1.17097,1.98842 -7.59916,1.69484 -8.21862,-0.54687c-0.70231,-2.54152 1.88748,-4.27016 3.65826,-5.40081c0,0 0.05429,-0.03455 0.14251,-0.06971z" fill="#000000"/><path d="M235.15516,152.41301c-0.03701,0.07661 -1.95464,0.26518 -2.10581,0.28113c-2.30481,0.2431 -4.57222,-0.21689 -1.9768,-2.62947c0.52179,-0.48503 1.19481,-0.8999 1.79647,-1.28137c0,0 0.08522,-0.05092 0.17565,-0.14687c0.99151,0.31493 2.54144,2.88439 2.11048,3.77658z" data-paper-data="{&quot;noHover&quot;:false,&quot;origItem&quot;:[&quot;Path&quot;,{&quot;applyMatrix&quot;:true,&quot;segments&quot;:[[[469.04287,256.09013],[1.74766,0.5551],[-0.1594,0.16912]],[[468.74027,256.35038],[0,0],[-1.06051,0.67239]],[[465.6814,258.5491],[0.91972,-0.85493],[-4.57475,4.25247]],[[469.05023,263.04772],[-4.06251,0.42849],[0.26646,-0.0281]],[[472.70207,262.59413],[-0.06523,0.13503],[0.75962,-1.57261]]],&quot;closed&quot;:true}]}" fill="#ffbaba"/><path d="M231.97718,150.03412c0,-0.47 0.38101,-0.851 0.851,-0.851c0.47,0 0.851,0.38101 0.851,0.851c0,0.47 -0.38101,0.851 -0.851,0.851c-0.47,0 -0.851,-0.38101 -0.851,-0.851z" fill="#000000"/><path d="M244.01898,150.22579c0,-0.64904 0.52615,-1.1752 1.1752,-1.1752c0.64904,0 1.1752,0.52615 1.1752,1.1752c0,0.64904 -0.52615,1.1752 -1.1752,1.1752c-0.64904,0 -1.1752,-0.52615 -1.1752,-1.1752z" fill="#000000"/><path d="M231.58293,141.56747c0.70225,-0.26334 0.96559,0.4389 0.96559,0.4389l0.3252,0.86813c0.34582,0.7827 0.60212,1.60579 0.81128,2.43553c0,0 0.1819,0.72761 -0.54571,0.90951c-0.72761,0.1819 -0.90951,-0.54571 -0.90951,-0.54571c-0.18851,-0.761 -0.42418,-1.51546 -0.74428,-2.23114l-0.34147,-0.90965c0,0 -0.26334,-0.70225 0.4389,-0.96559z" fill="#8c5900"/><path d="M239.85846,140.19659c0.7398,0.1233 0.6165,0.86309 0.6165,0.86309l-0.10091,0.54337c0,0.87072 0.00264,1.68759 -0.11865,2.55051c0,0 -0.10607,0.74246 -0.84853,0.6364c-0.74246,-0.10607 -0.6364,-0.84853 -0.6364,-0.84853c0.11516,-0.79153 0.10357,-1.53823 0.10357,-2.33838l0.12132,-0.78997c0,0 0.1233,-0.7398 0.86309,-0.6165z" fill="#8c5900"/><path d="M250.2655,144.07271c0.53033,0.53033 0,1.06066 0,1.06066l-0.44444,0.44444c-0.34924,0.34255 -0.63999,0.74836 -0.87915,1.17511c0,0 -0.3721,0.65118 -1.02329,0.27908c-0.65118,-0.3721 -0.27908,-1.02329 -0.27908,-1.02329c0.31215,-0.53791 0.6844,-1.04851 1.12085,-1.49156l0.44444,-0.44444c0,0 0.53033,-0.53033 1.06066,0z" fill="#8c5900"/><path d="M254.60051,150.32829c0.38587,0.64312 -0.25725,1.02899 -0.25725,1.02899l-0.5254,0.31425c-0.66712,0.44427 -1.35134,0.86419 -2.05179,1.2538c0,0 -0.65562,0.36423 -1.01985,-0.29139c-0.36423,-0.65562 0.29139,-1.01985 0.29139,-1.01985c0.6655,-0.36924 1.31517,-0.76814 1.94821,-1.19064l0.58571,-0.35242c0,0 0.64312,-0.38587 1.02899,0.25725z" fill="#8c5900"/><path d="M227.31914,149.42431c0.21694,0.04127 0.61047,0.19102 0.61047,0.73429c0,0.75 -0.75,0.75 -0.75,0.75l-0.52714,-0.12596c-0.44444,-0.2963 -0.88889,-0.59259 -1.33333,-0.88889c0,0 -0.62404,-0.41603 -0.20801,-1.04006c0.41603,-0.62404 1.04006,-0.20801 1.04006,-0.20801c0.38932,0.25954 0.77863,0.51909 1.16795,0.77863z" fill="#8c5900"/><path d="M233.58327,159.24095c0.03997,-0.34838 0.36518,-0.55163 0.36518,-0.55163c1.18181,-0.73863 2.90878,-1.98183 4.41438,-1.74258c1.08602,0.17258 2.0334,1.22295 3.14402,1.46422c1.06823,0.23207 2.27917,0.05172 3.32425,0.37688c2.53921,0.79005 2.28484,3.01205 0.33711,4.23453c-1.70383,0.35942 -3.56604,0.78537 -5.31827,0.68816c-1.00007,-0.05548 -2.21997,-0.71362 -3.17876,-0.63706c-0.64825,0.05176 -1.36868,0.39106 -1.94854,0.09667c-1.20982,-0.61422 -1.40041,-2.35791 -1.65427,-3.50031z" fill="#000000"/></g></g></svg>