<svg version="1.1" xmlns="http://www.w3.org/2000/svg" xmlns:xlink="http://www.w3.org/1999/xlink" width="37.49796" height="53.48176" viewBox="0,0,37.49796,53.48176"><g transform="translate(-221.10921,-134.26984)"><g data-paper-data="{&quot;isPaintingLayer&quot;:true}" fill-rule="nonzero" stroke="none" stroke-width="0.5" stroke-linecap="butt" stroke-linejoin="miter" stroke-miterlimit="10" stroke-dasharray="" stroke-dashoffset="0" style="mix-blend-mode: normal"><path d="M234.79564,153.65711c3.55756,0 7.22977,0.38556 10.79148,0.62615c2.60036,0.17565 4.94577,-0.22351 7.36274,0.9921c1.3706,1.1522 1.5264,3.01187 1.94867,4.70096c0.9325,3.72998 2.14306,7.74626 1.5,11.61158c-1.10541,3.34639 -3.70261,4.53661 -5.91083,2.17923c0.21168,4.73934 0.6684,10.81277 -2.65504,13.95789c-2.12351,0.11691 -4.17301,-0.18945 -6.28701,-0.19291c-0.54835,-0.0009 -1.61972,0.06594 -2.03033,-0.34467c-0.48769,-0.48769 -0.64967,-2.23196 -0.70095,-3.8351c-0.17181,0.28228 -0.35843,0.54262 -0.56047,0.77628c-2.27018,2.62541 -4.884,-0.78029 -5.84,-2.69229c-1.89578,-2.36973 -2.49299,-5.67602 -2.11764,-8.8781c-0.01486,-0.09258 -0.00873,-0.18188 0.00628,-0.26019c-0.80669,0.85096 -1.72461,1.58767 -2.77348,2.14289c-3.71082,1.96433 -6.94614,-1.24949 -6.34821,-4.90712c0.92066,-5.52398 2.40852,-8.7257 5.90414,-13.09522c0,0 0.29466,-0.36832 0.70871,-0.2871c1.9504,-2.13167 4.02785,-2.49437 7.00194,-2.49437zM240.29564,180.65711c-0.00458,1.23339 0.27226,2.46138 0.37244,3.68814c0.00661,0.08095 -0.10611,1.76753 -0.09211,1.78153c0.01303,0.01303 1.62049,-0.09483 1.71967,-0.09467c1.61303,0.00264 3.35994,0.10942 4.96299,0.30709c2.95215,-3.51628 1.66201,-10.72741 1.66201,-14.93209c0,-0.13019 0.00041,-0.26079 0.00106,-0.39174c-0.51934,-1.69827 -0.60021,-3.76324 -0.30442,-5.48326h-0.19665v-0.875c0,-0.41421 0.33579,-0.75 0.75,-0.75c0.33738,0 0.62273,0.22277 0.71698,0.52924l0.24453,0.73359l-0.02415,0.00805l0.04052,0.04833c0.24054,1.44583 0.27611,2.94065 0.27692,4.42497c0.87019,2.98141 2.97638,6.14989 4.51731,1.57503c0.59887,-3.58431 -0.63567,-7.43112 -1.5,-10.88842c-0.27178,-1.08711 -0.3795,-3.13723 -1.30133,-3.79904c-2.12334,-1.05309 -4.35601,-0.60774 -6.63726,-0.7579c-3.5367,-0.2328 -7.17742,-0.62385 -10.70852,-0.62385c-2.76324,0 -4.49463,0.22513 -6.28935,2.46852l-0.54463,0.40552c0,0 -0.13226,0.08817 -0.3156,0.12245c-2.90238,3.78015 -4.16144,6.68165 -4.98563,11.62681c-0.40555,2.37959 1.52632,4.83364 4.15179,3.34288c2.12007,-1.20378 3.61812,-3.09428 4.76053,-5.2152c0.10268,-0.22752 0.21057,-0.45095 0.32352,-0.66976c0.06262,-0.18946 0.12523,-0.37893 0.18785,-0.56839l0.24453,-0.73359c0.09425,-0.30647 0.3796,-0.52924 0.71698,-0.52924c0.41421,0 0.75,0.33579 0.75,0.75c0,0.08907 -0.01553,0.17452 -0.04402,0.25378l-0.24446,0.73339c-0.0765,0.22782 -0.15301,0.45563 -0.22951,0.68345c-0.07204,0.61736 -0.33541,1.43814 -0.59349,2.17923c2.92573,-1.09323 7.06106,0.59066 7.60129,3.77685c0.27554,1.68555 0.23446,4.09743 -0.24498,6.28708c0.25518,0.22069 0.25518,0.58622 0.25518,0.58622zM231.99217,172.27476c-0.59528,2.92871 -0.2738,5.90435 1.68523,8.35313c0.24296,0.48591 0.58333,0.91667 0.875,1.375c1.4832,2.33074 2.53806,1.39807 3.28174,-0.83296c0.80562,-2.41686 1.41061,-4.5643 0.97172,-7.13953c-0.43642,-2.67245 -5.09873,-3.9632 -6.79955,-1.77978z" fill="#745d44"/><path d="M231.97858,172.20902c1.70082,-2.18342 6.42749,-0.88509 6.8639,1.78736c0.43889,2.57523 -0.17586,4.79888 -0.98148,7.21573c-0.74368,2.23103 -1.83356,3.17085 -3.31676,0.84012c-0.29167,-0.45833 -0.64596,-0.89355 -0.88891,-1.37947c-1.95903,-2.44879 -2.28633,-5.51078 -1.69105,-8.43949z" data-paper-data="{&quot;noHover&quot;:false,&quot;origItem&quot;:[&quot;Path&quot;,{&quot;applyMatrix&quot;:true,&quot;segments&quot;:[[[231.99215,172.27475],[0,0],[-0.59528,2.92871]],[[233.67738,180.62789],[-1.95903,-2.44879],[0.24296,0.48591]],[[234.55238,182.00289],[-0.29167,-0.45833],[1.4832,2.33074]],[[237.83411,181.16993],[-0.74368,2.23103],[0.80562,-2.41686]],[[238.80583,174.0304],[0.43889,2.57523],[-0.43642,-2.67245]],[[232.00628,172.25063],[1.70082,-2.18342],[0,0]]],&quot;closed&quot;:true}]}" fill="#8c6f52"/><path d="M240.03415,180.0213c0.47944,-2.18965 0.54816,-4.50671 0.27262,-6.19226c-0.54022,-3.18619 -4.74652,-4.92127 -7.67226,-3.82804c0.25807,-0.7411 0.5268,-1.5791 0.59884,-2.19647c0.0765,-0.22782 0.15584,-0.46038 0.23235,-0.68819l0.24783,-0.73783c0.0285,-0.07926 0.0451,-0.16593 0.0451,-0.255c0,-0.41421 -0.26196,-0.68255 -0.67617,-0.68255c-0.33738,0 -0.61929,0.2186 -0.71354,0.52507l-0.24194,0.72972c-0.06262,0.18946 -0.12342,0.37565 -0.18604,0.56511c-0.11295,0.21881 -0.2189,0.4379 -0.32158,0.66541c-1.14242,2.12093 -2.63799,3.98357 -4.75806,5.18736c-2.62548,1.49075 -4.65631,-0.9566 -4.25076,-3.33619c0.82419,-4.94517 2.09992,-7.88103 5.0023,-11.66118c0.18334,-0.03427 0.31631,-0.12307 0.31631,-0.12307l0.54619,-0.4068c1.79472,-2.24339 3.54447,-2.47765 6.30771,-2.47765c3.53111,0 7.20472,0.39375 10.74142,0.62655c2.28125,0.15016 4.52777,-0.28602 6.65111,0.76707c0.92184,0.6618 1.0361,2.71941 1.30788,3.80651c0.86433,3.45731 2.10815,7.33464 1.50928,10.91895c-1.54093,4.57486 -3.74687,1.40961 -4.61706,-1.57179c-0.00082,-1.48432 -0.03153,-2.96191 -0.27207,-4.40773l-0.04042,-0.04811l0.02415,-0.00806l-0.24311,-0.73093c-0.09425,-0.30647 -0.37787,-0.52643 -0.71525,-0.52643c-0.41421,0 -0.66615,0.2813 -0.66615,0.69552l0.00172,0.87792l0.19685,0.00037c-0.2958,1.72002 -0.20904,3.80988 0.3103,5.50815c-0.00066,0.13095 -0.00115,0.26349 -0.00115,0.39368c0,4.20468 1.26397,11.45655 -1.68818,14.97284c-1.60304,-0.19767 -3.3627,-0.29968 -4.97573,-0.30232c-0.09918,-0.00016 -1.71206,0.10861 -1.72509,0.09558c-0.014,-0.014 0.08655,-1.79983 0.07994,-1.88078c-0.10019,-1.22676 -0.37761,-2.45466 -0.37303,-3.68806c0,0 0.00089,-0.36565 -0.2543,-0.58634z" data-paper-data="{&quot;noHover&quot;:false,&quot;origItem&quot;:[&quot;Path&quot;,{&quot;applyMatrix&quot;:true,&quot;segments&quot;:[[[240.29562,180.6571],[0,0],[-0.00458,1.23339]],[[240.66807,184.34524],[-0.10019,-1.22676],[0.00661,0.08095]],[[240.57596,186.12677],[-0.014,-0.014],[0.01303,0.01303]],[[242.29562,186.0321],[-0.09918,-0.00016],[1.61303,0.00264]],[[247.25861,186.3392],[-1.60304,-0.19767],[2.95215,-3.51628]],[[248.92062,171.4071],[0,4.20468],[0,-0.13019]],[[248.92169,171.01537],[-0.00066,0.13095],[-0.51934,-1.69827]],[[248.61727,165.5321],[-0.2958,1.72002],[0,0]],[248.42062,165.5321],[[248.42062,164.6571],[0,0],[0,-0.41421]],[[249.17062,163.9071],[-0.41421,0],[0.33738,0]],[[249.88761,164.43634],[-0.09425,-0.30647],[0,0]],[250.13214,165.16993],[250.10798,165.17798],[[250.14851,165.22632],[0,0],[0.24054,1.44583]],[[250.42543,169.65129],[-0.00082,-1.48432],[0.87019,2.98141]],[[254.94274,171.22632],[-1.54093,4.57486],[0.59887,-3.58431]],[[253.44274,160.33789],[0.86433,3.45731],[-0.27178,-1.08711]],[[252.14141,156.53886],[0.92184,0.6618],[-2.12334,-1.05309]],[[245.50415,155.78096],[2.28125,0.15016],[-3.5367,-0.2328]],[[234.79562,155.1571],[3.53111,0],[-2.76324,0]],[[228.50628,157.62563],[1.79472,-2.24339],[0,0]],[227.96165,158.03114],[[227.64605,158.15359],[0.18334,-0.03427],[-2.90238,3.78015]],[[222.66042,169.7804],[0.82419,-4.94517],[-0.40555,2.37959]],[[226.81221,173.12329],[-2.62548,1.49075],[2.12007,-1.20378]],[[231.57274,167.90809],[-1.14242,2.12093],[0.10268,-0.22752]],[[231.89626,167.23832],[-0.11295,0.21881],[0.06262,-0.18946]],[[232.08411,166.66993],[-0.06262,0.18946],[0,0]],[[232.32864,165.93634],[0,0],[0.09425,-0.30647]],[[233.04562,165.4071],[-0.33738,0],[0.41421,0]],[[233.79562,166.1571],[0,-0.41421],[0,0.08907]],[[233.7516,166.41088],[0.0285,-0.07926],[0,0]],[[233.50714,167.14428],[0,0],[-0.0765,0.22782]],[[233.27762,167.82772],[0.0765,-0.22782],[-0.07204,0.61736]],[[232.68414,170.00695],[0.25807,-0.7411],[2.92573,-1.09323]],[[240.28542,173.78381],[-0.54022,-3.18619],[0.27554,1.68555]],[[240.04044,180.07089],[0.47944,-2.18965],[0.25518,0.22069]]],&quot;closed&quot;:true}]}" fill="#8c6f52"/><path d="M226.617,162.93566c-0.27854,0.69636 -0.9749,0.41781 -0.9749,0.41781l-0.68187,-0.27554c-0.25,-0.125 -0.5,-0.25 -0.75,-0.375c0,0 -0.67082,-0.33541 -0.33541,-1.00623c0.33541,-0.67082 1.00623,-0.33541 1.00623,-0.33541c0.25,0.125 0.5,0.25 0.75,0.375l0.56813,0.22446c0,0 0.69636,0.27854 0.41781,0.9749z" fill="#745d44"/><path d="M253.29564,167.65711c0,-0.75 0.75,-0.75 0.75,-0.75c0.5,0 1.125,0 1.625,0c0,0 0.75,0 0.75,0.75c0,0.75 -0.75,0.75 -0.75,0.75c-0.5,0 -1,0 -1.5,0h-0.125c0,0 -0.75,0 -0.75,-0.75z" fill="#745d44"/><path d="M240.05652,169.514c0.64312,0.38587 0.25725,1.02899 0.25725,1.02899l-0.43247,0.70765c-0.16667,0.20833 -0.33333,0.41667 -0.5,0.625c0,0 -0.46852,0.58565 -1.05417,0.11713c-0.58565,-0.46852 -0.11713,-1.05417 -0.11713,-1.05417c0.16667,-0.20833 0.33333,-0.41667 0.5,-0.625l0.31753,-0.54235c0,0 0.38587,-0.64312 1.02899,-0.25725z" fill="#745d44"/><path d="M246.44564,181.45711c0.45,-0.6 1.05,-0.15 1.05,-0.15l0.51852,0.38935c0.4253,0.34088 0.86875,0.65964 1.3225,0.96161c0,0 0.62404,0.41603 0.20801,1.04006c-0.41603,0.62404 -1.04006,0.20801 -1.04006,0.20801c-0.48934,-0.32676 -0.96772,-0.6712 -1.4275,-1.03839l-0.48148,-0.36065c0,0 -0.6,-0.45 -0.15,-1.05z" fill="#745d44"/><path d="M240.50751,136.25188c3.28472,-0.04251 6.59246,-0.33756 9.89407,-0.3911c0.58877,-0.00953 3.01467,-0.32689 3.38869,-0.04016c0.42143,0.32308 0.76561,1.30679 1.03414,1.76342c0.5127,1.57498 2.1402,3.33278 2.32918,4.93152c0.16737,1.41604 -1.65023,2.81029 -1.65761,4.25199c-0.01009,1.97236 0.28504,4.16955 0.32563,6.21131c-0.28169,1.8774 -0.18456,4.04165 -0.61041,5.86244c-0.09164,0.39182 -2.13548,0.32462 -2.44287,0.36482c-2.74734,0.35928 -5.62413,0.19093 -8.38716,0.12301c-2.79271,-0.06822 -7.03378,0.83679 -9.67223,-0.05319c-2.16581,-0.73055 -4.19186,-2.55316 -6.24741,-3.59207c-1.52238,-0.49452 -3.33859,-1.36107 -4.73222,-2.11111c-0.21514,-0.11579 0.16319,-0.4623 0.26124,-0.6861c0.30682,-0.70034 0.5202,-1.74238 0.51253,-2.50882c-0.02261,-2.26064 0.95827,-5.05101 -0.55847,-6.90322c0.08607,-1.85538 0.80565,-3.94065 1.08858,-5.82622l0.01135,-0.07511c4.98951,-0.12126 10.56118,-0.45419 15.46298,-1.32143z" data-paper-data="{&quot;noHover&quot;:false,&quot;origItem&quot;:[&quot;Path&quot;,{&quot;applyMatrix&quot;:true,&quot;segments&quot;:[[[447.34125,279.91265],[9.83256,-1.72056],[0,0]],[[447.34125,280.06421],[0,0],[0,3.81336]],[[446.925,291.87784],[-0.38037,-3.69522],[3.54958,3.21331]],[[450.07188,305.32394],[-0.7156,-4.46451],[0.24262,1.51366]],[[449.79702,310.42579],[0.399,-1.47623],[-0.1275,0.47174]],[[449.4824,311.85762],[-0.4599,-0.16517],[2.97897,1.06986]],[[459.45283,314.60844],[-3.15781,-0.5263],[4.37389,1.44482]],[[472.83152,319.83358],[-4.50045,-0.80219],[5.4826,0.97725]],[[491.9052,317.07579],[-5.54382,0.69384],[5.48504,-0.68563]],[[508.42187,314.37403],[-5.32724,1.52591],[0.59606,-0.17073]],[[513.13968,312.93614],[-0.06497,0.80216],[0.30194,-3.72767]],[[512.59636,301.18793],[0,3.79683],[-0.6862,-4.02628]],[[510.10793,289.03725],[0.56538,3.90405],[-0.41327,-2.85367]],[[512.13138,280.15884],[0.75128,2.75106],[-0.84821,-3.10601]],[[506.07775,271.12264],[1.48146,2.96291],[-0.66662,-0.82346]],[[503.51722,267.95003],[0.92942,0.51394],[-0.82487,-0.45612]],[[496.83785,269.0438],[1.16167,-0.19361],[-6.51424,1.08571]],[[477.45283,272.76998],[6.48411,-1.05887],[-9.43769,3.16998]]],&quot;closed&quot;:true}]}" fill="#8c6f52"/><path d="M227.01452,145.93018c-0.43377,0.03271 -0.67785,-0.3879 -0.67785,-0.3879c-1.61638,-2.78541 -3.00638,-3.24372 -2.19489,-6.68001c0.17069,-0.72276 0.0278,-1.44627 0.8564,-1.94097c0.82268,-0.49117 4.49301,-0.02501 5.57578,-0.04257c5.22981,-0.92984 11.07313,0.48105 16.12692,-1.21047c1.60367,-0.28363 5.06324,-1.23002 6.60163,-0.5671c1.94109,0.83646 2.45996,4.4196 3.63902,6.06003c0.41284,0.57439 0.84003,1.32693 0.66997,2.01354c-0.19291,0.77884 -1.20268,1.88143 -1.71755,2.44098c-5.16275,2.50056 -11.03633,1.02608 -16.52307,2.00159c-2.53501,0.43544 -5.14655,0.22354 -7.6617,0.85398c-0.73682,0.1847 -2.12334,0.63959 -2.86784,0.20934c-0.51618,-0.29831 -1.0697,-1.62594 -1.52858,-2.11504z" fill="#9b7b5b"/><path d="M235.71565,163.13521c-0.52659,-0.53405 0.00746,-1.06063 0.00746,-1.06063l0.46198,-0.455c0.20163,-0.18676 0.40327,-0.37353 0.6049,-0.56029c-0.90052,-0.0424 -1.75532,-0.15897 -2.518,-0.40038c-2.21273,-0.7004 -4.27025,-2.55549 -6.34391,-3.61882c-1.11232,-0.36132 -4.49054,-1.53267 -5.21267,-2.42491c-0.99372,-1.22777 0.03701,-2.34486 0.23361,-3.60857c0.33889,-2.17823 0.86457,-5.24283 -0.37634,-7.0406c-0.08146,-2.07717 0.70464,-4.41397 1.01974,-6.51399l0.11128,-0.7417c0,0 0.11128,-0.7417 0.85298,-0.63041l-0.00001,-0.00001c0.04756,0.00713 0.0916,0.01687 0.13241,0.02883c5.01571,-0.04149 10.71069,-0.44441 15.67545,-1.30017c3.32627,-0.06328 6.63619,-0.35655 9.97891,-0.41075c1.03623,-0.01681 3.30145,-0.36741 4.18149,0.16922c0.69833,0.42584 1.22863,1.73818 1.62688,2.43203c0.56353,1.73109 2.29423,3.60876 2.44827,5.40501c0.13626,1.58888 -1.73425,2.94474 -1.65407,4.36366c0.11729,2.07571 0.2976,4.15127 0.32568,6.29265c-0.25855,1.72318 0.07228,4.7974 -0.72027,6.33919c-0.65425,1.27276 -1.74027,1.03851 -2.87746,1.1264c-3.13414,0.24223 -6.19228,0.33289 -9.34563,0.25536c-1.67671,-0.04149 -3.71731,0.20782 -5.69253,0.27898c0.00399,0.33022 -0.257,0.57194 -0.257,0.57194c-0.39146,0.3626 -0.78293,0.72518 -1.17441,1.08777l-0.42811,0.42264c0,0 -0.53405,0.52659 -1.06063,-0.00747zM225.08703,137.59964l-0.01125,0.07494c-0.28292,1.88557 -0.99621,3.95516 -1.08228,5.81054c1.51674,1.85221 0.53582,4.62145 0.55843,6.88209c0.00767,0.76646 -0.20761,1.80196 -0.51443,2.5023c-0.09804,0.22379 -0.47695,0.56885 -0.26179,0.68464c1.39363,0.75002 3.20356,1.60539 4.72594,2.09991c2.05554,1.03892 4.06183,2.84569 6.22764,3.57624c2.63845,0.88999 6.84316,-0.01675 9.63587,0.05147c2.76303,0.06792 5.62002,0.24875 8.36737,-0.11053c0.3074,-0.0402 2.34783,0.03086 2.43947,-0.36097c0.42586,-1.82079 0.32127,-3.97199 0.60297,-5.84939c-0.04059,-2.04176 -0.33905,-4.22034 -0.32896,-6.1927c0.00736,-1.44171 1.8266,-2.82389 1.65923,-4.23993c-0.18897,-1.59875 -1.81019,-3.34224 -2.32291,-4.91722c-0.26853,-0.45663 -0.60927,-1.43563 -1.03071,-1.75871c-0.37402,-0.28673 -2.79509,0.03574 -3.38386,0.04527c-3.30161,0.05355 -6.57694,0.36174 -9.86167,0.40426c-4.90179,0.86725 -10.42953,1.17652 -15.41904,1.29778z" fill="#745d44"/><path d="M231.63967,141.94583c-0.7417,-0.11129 -0.63041,-0.85298 -0.63041,-0.85298l0.02888,-0.12379c-0.00424,-0.32698 0.42235,-0.83995 0.12372,-0.97318c-0.10596,-0.04727 -0.9966,-0.0175 -1.53707,-0.0274c-0.50908,0.4533 -1.16652,0.85244 -1.82398,1.23516l-0.35716,0.26966c0,0 -0.60315,0.44576 -1.04892,-0.15738c-0.44576,-0.60315 0.15738,-1.04892 0.15738,-1.04892l0.49583,-0.36074c0.4558,-0.26359 1.19949,-0.59327 1.65488,-1.00114c0.06585,-0.17568 0.17641,-0.28315 0.29483,-0.34833c0.15684,-0.27494 0.14864,-0.58016 -0.15514,-0.91837c0,0 -0.44576,-0.60316 0.15738,-1.04892c0.60315,-0.44576 1.04892,0.15738 1.04892,0.15738c0.47456,0.71224 0.59544,1.32057 0.47845,1.85444c1.30234,0.17556 1.97386,0.40737 2.01068,2.34339l-0.04529,0.37068c0,0 -0.11129,0.7417 -0.85299,0.63041z" fill="#745d44"/><path d="M251.51372,141.54571c-0.44576,-0.60315 0.15738,-1.04892 0.15738,-1.04892l0.60113,-0.34581c1.53664,-0.23232 1.98012,-0.1399 3.45491,-0.99754c0,0 0.64868,-0.37643 1.02512,0.27226c0.37644,0.64868 -0.27225,1.02512 -0.27225,1.02512c-1.50402,0.87109 -2.43081,0.8555 -3.94985,1.17781l0.03247,0.07446c0,0 -0.60315,0.44576 -1.04892,-0.15738z" fill="#745d44"/><path d="M226.58868,152.65962c0.60315,-0.44576 1.04892,0.15738 1.04892,0.15738l0.32677,1.56466c-0.28683,0.24532 -0.51714,0.58491 -0.61845,0.94851c0,0 -0.23171,0.7133 -0.94501,0.48161c-0.7133,-0.23171 -0.48161,-0.94502 -0.48161,-0.94502c0.20968,-0.59354 0.57456,-1.14664 1.02577,-1.58556l-0.51378,0.42735c0,0 -0.44576,-0.60316 0.15738,-1.04892z" fill="#745d44"/><path d="M253.81857,155.66906c-0.44576,-0.60315 0.15738,-1.04892 0.15738,-1.04892l0.98355,-0.45375c0.24723,0.03709 0.49446,0.07419 0.7417,0.11128c0,0 0.7417,0.11128 0.63041,0.85298c-0.11128,0.7417 -0.85298,0.63041 -0.85298,0.63041c-0.24723,-0.03709 -0.49446,-0.07419 -0.7417,-0.11128l0.13056,0.17666c0,0 -0.60315,0.44576 -1.04892,-0.15738z" fill="#745d44"/><path d="M234.60818,150.24929c-0.70845,-0.25635 -1.07136,-0.81358 -0.04732,-1.91445c0.83095,-0.8933 3.15022,-0.54683 4.72949,-0.03686l0.11746,-0.35239l0.7336,0.24453c0.30647,0.09425 0.52923,0.3796 0.52923,0.71698c0,0.33738 -0.22277,0.62273 -0.52923,0.71698l-0.7336,0.24453c-1.86843,0.6175 -4.37427,2.90219 -4.79963,0.38067z" fill="#000000"/><path d="M252.20097,150.56245c-0.38067,0.38067 -0.76136,0.21485 -0.94589,0.09094l-0.71114,0.11852l-0.04997,-0.29978l-0.09557,-0.03185c-1.31558,0.27469 -2.98405,0.30843 -3.09602,-1.04349c-0.22751,-0.02913 -0.54459,-0.15466 -0.62154,-0.61637c-0.1233,-0.73979 0.6165,-0.8631 0.6165,-0.8631c0.97049,-0.16175 4.75832,-2.04005 5.29163,-0.47554c0.39278,1.15224 0.00043,1.67772 -0.58086,1.87488c0.00205,0.00161 0.00407,0.00322 0.00605,0.00481l0.18681,0.18032c0,0 0.53033,0.53033 0,1.06066z" fill="#000000"/><path d="M239.04421,144.82644c0.11129,-0.7417 0.85298,-0.63041 0.85298,-0.63041l0.49128,0.08403c1.57259,0.55554 1.96176,1.39471 1.50849,2.68176c3.54387,-0.07567 7.08501,-0.04358 10.56851,-1.17912c0,0 0.71317,-0.23215 0.94533,0.48101c0.23215,0.71316 -0.48101,0.94533 -0.48101,0.94533c-5.5472,1.8035 -11.18572,0.69818 -16.78538,1.69377c-1.869,0.32626 -5.90093,1.98236 -7.5538,0.69722c-0.91596,-0.71218 -1.67401,-2.67043 -2.38768,-3.63609l-0.05676,0.00714c0,0 -0.61362,-0.43123 -0.18239,-1.04486c0.43124,-0.61362 1.04486,-0.18239 1.04486,-0.18239l0.4006,0.32857c0.69772,0.94406 1.31332,2.58539 2.12404,3.36082c0.79069,0.75627 5.31338,-0.82658 6.35321,-1.00808c1.451,-0.24923 2.9068,-0.35826 4.36357,-0.41568c0.01876,-0.05491 0.0355,-0.08781 0.0355,-0.08781c0.44189,-0.83828 0.60283,-0.94658 -0.3605,-1.21498l-0.25043,-0.02725c0,0 -0.7417,-0.11128 -0.63041,-0.85298z" fill="#745d44"/><path d="M255.04564,150.90712c0,0.75 -0.75,0.75 -0.75,0.75h-0.25c-3.57414,0 -6.61778,-0.22789 -8.96065,-3.15648c0,0 -0.46852,-0.58565 0.11713,-1.05417c0.58565,-0.46852 1.05417,0.11713 1.05417,0.11713c2.02397,2.52996 4.67815,2.59352 7.78935,2.59352h0.25c0,0 0.75,0 0.75,0.75z" fill="#745d44"/><path d="M233.42064,151.78212c0,-0.75 0.75,-0.75 0.75,-0.75h0.25c2.32417,0.00863 4.17316,-1.449 5.90648,-2.83565c0,0 0.58565,-0.46852 1.05417,0.11713c0.46852,0.58565 -0.11713,1.05417 -0.11713,1.05417c-2.02371,1.61897 -4.14577,3.15586 -6.84352,3.16435h-0.25c0,0 -0.75,0 -0.75,-0.75z" fill="#745d44"/><path d="M249.47134,156.62228c0.41348,0.37824 -1.11507,0.13442 -1.67403,0.1743c-1.03751,0.07403 -2.09082,-0.00084 -3.12601,0.16842c-1.0064,0.14607 -2.03241,0.08245 -3.04826,0.08245c-0.4651,0 -1.70593,0.4301 -1.39345,0.08561c0.72088,-0.79471 1.22671,-1.36934 1.36219,-2.37275c2.89304,-0.03561 5.59807,-0.22508 7.87956,1.86197z" data-paper-data="{&quot;noHover&quot;:false,&quot;origItem&quot;:[&quot;Path&quot;,{&quot;applyMatrix&quot;:true,&quot;segments&quot;:[[[241.6385,154.77809],[2.89304,-0.03561],[-0.13547,1.00341]],[[240.27816,157.12121],[0.72088,-0.79471],[-0.31249,0.34449]],[[241.67062,157.0321],[-0.4651,0],[1.01585,0]],[[244.68093,156.91593],[-1.0064,0.14607],[1.03519,-0.16926]],[[247.74902,156.78355],[-1.03751,0.07403],[0.55896,-0.03989]],[[249.42177,156.61563],[0.41348,0.37824],[-2.28149,-2.08705]]],&quot;closed&quot;:true}]}" fill="#000000"/><path d="M245.8125,156.51816c0,-0.41422 0.33578,-0.75 0.75,-0.75c0.41422,0 0.75,0.33578 0.75,0.75c0,0.41422 -0.33578,0.75 -0.75,0.75c-0.41422,0 -0.75,-0.33578 -0.75,-0.75z" fill="#9ce6c9"/><path d="M241.6875,157.01816c0,-0.41422 0.33578,-0.75 0.75,-0.75c0.41422,0 0.75,0.33578 0.75,0.75c0,0.41422 -0.33578,0.75 -0.75,0.75c-0.41422,0 -0.75,-0.33578 -0.75,-0.75z" fill="#e4e6c8"/><path d="M244.1875,155.14316c0,-0.41422 0.33578,-0.75 0.75,-0.75c0.41422,0 0.75,0.33578 0.75,0.75c0,0.41422 -0.33578,0.75 -0.75,0.75c-0.41422,0 -0.75,-0.33578 -0.75,-0.75z" fill="#e4e6c8"/><path d="M241.1875,155.01816c0,-0.41422 0.33578,-0.75 0.75,-0.75c0.41422,0 0.75,0.33578 0.75,0.75c0,0.41422 -0.33578,0.75 -0.75,0.75c-0.41422,0 -0.75,-0.33578 -0.75,-0.75z" fill="#e5c69b"/><path d="M240.44416,153.55564c0.21863,-0.27353 0.60147,-0.27353 0.60147,-0.27353c2.62645,0 5.28266,-0.4039 7.62645,0.97632c0.60256,0.35484 2.36942,1.57446 2.24741,2.44016c-0.31999,2.27038 -4.49409,1.44167 -6.00916,1.6997c-1.33817,0.18852 -5.59925,0.83179 -6.09723,-0.95529c-0.33155,-1.18982 1.44913,-1.9489 1.35754,-3.03589v-0.25c0,0 0,-0.38284 0.27353,-0.60147zM241.63851,154.7781c-0.13547,1.00341 -0.63946,1.54841 -1.36034,2.34312c-0.31249,0.34449 0.92736,-0.08911 1.39246,-0.08911c1.01585,0 2.00391,0.02989 3.01031,-0.11618c1.03519,-0.16926 2.03058,-0.05834 3.06809,-0.13237c0.55896,-0.03989 2.08623,0.21032 1.67275,-0.16792c-2.28149,-2.08705 -4.89023,-1.87315 -7.78327,-1.83754z" fill="#745d44"/></g></g></svg>