<svg version="1.1" xmlns="http://www.w3.org/2000/svg" xmlns:xlink="http://www.w3.org/1999/xlink" width="10.26671" height="7.62865" viewBox="0,0,10.26671,7.62865"><g transform="translate(-234.86665,-176.18567)"><g data-paper-data="{&quot;isPaintingLayer&quot;:true}" fill="#9966ff" fill-rule="nonzero" stroke="none" stroke-width="0.5" stroke-linecap="butt" stroke-linejoin="miter" stroke-miterlimit="10" stroke-dasharray="" stroke-dashoffset="0" style="mix-blend-mode: normal"><path d="M245.10417,181.49256c-0.1819,0.72761 -0.90951,0.54571 -0.90951,0.54571l-0.3181,-0.10261c-1.50642,0 -3.0444,0.06612 -4.56426,-0.00768c-0.02003,0.16944 -0.04351,0.33815 -0.07095,0.50598l-0.125,0.75c0,0 -0.1233,0.7398 -0.86309,0.6165c-0.7398,-0.1233 -0.6165,-0.86309 -0.6165,-0.86309l0.125,-0.75c0.02176,-0.12767 0.0409,-0.25605 0.05769,-0.38504c-0.82309,-0.10309 -1.63583,-0.26852 -2.43006,-0.53015c0,0 -0.71151,-0.23717 -0.47434,-0.94868c0.23717,-0.71151 0.94868,-0.47434 0.94868,-0.47434c0.66972,0.22636 1.35925,0.37415 2.06004,0.46905c0.02472,-1.12921 -0.04722,-2.27658 -0.04722,-3.38254c0,0 0,-0.75 0.75,-0.75c0.75,0 0.75,0.75 0.75,0.75c0,1.15516 0.06387,2.34133 0.03481,3.51302c1.49132,0.06989 3.00582,-0.01302 4.46519,-0.01302l0.6819,0.14739c0,0 0.72761,0.1819 0.54571,0.90951z"/></g></g></svg>