<svg version="1.1" xmlns="http://www.w3.org/2000/svg" xmlns:xlink="http://www.w3.org/1999/xlink" width="15.08988" height="10.58255" viewBox="0,0,15.08988,10.58255"><g transform="translate(-232.95354,-172.389)"><g data-paper-data="{&quot;isPaintingLayer&quot;:true}" fill-rule="nonzero" stroke="none" stroke-width="0.5" stroke-linecap="butt" stroke-linejoin="miter" stroke-miterlimit="10" stroke-dasharray="" stroke-dashoffset="0" style="mix-blend-mode: normal"><path d="M240.24725,181.00861l-0.66846,0.28562c-2.4582,0.92183 -3.11671,0.04931 -4.81103,-1.64441c-1.52761,-1.74753 -3.67552,-8.85959 1.19833,-6.93257c2.66234,1.05263 3.51847,4.7253 4.65653,6.99386c0,0 0.11527,0.23055 0.07551,0.48891c0.12025,0.56382 -0.45089,0.80859 -0.45089,0.80859zM235.39207,174.10307c-2.41239,-1.13341 -0.06843,3.9061 0.47106,4.52197c1.34295,1.34342 1.34708,1.95528 3.18846,1.26488c-0.87134,-1.97935 -1.6315,-4.83403 -3.65951,-5.78686z" data-paper-data="{&quot;index&quot;:null}" fill="#000000"/><path d="M239.08362,179.92831c-1.84137,0.6904 -1.90079,0.08442 -3.24374,-1.259c-0.53949,-0.61587 -2.88027,-5.74544 -0.46788,-4.61203c2.02802,0.95282 2.84028,3.89168 3.71162,5.87104z" data-paper-data="{&quot;noHover&quot;:false,&quot;origItem&quot;:[&quot;Path&quot;,{&quot;applyMatrix&quot;:true,&quot;selected&quot;:true,&quot;segments&quot;:[[[483.89076,359.77985],[1.74268,-3.95871],[3.68275,1.3808],7],[[490.26767,357.25009],[-2.6859,2.68685],[1.07897,-1.23174],7],[[491.20979,348.20614],[4.82477,-2.26681],[-4.05604,1.90564],7]],&quot;closed&quot;:true}],&quot;index&quot;:null}" fill="#dcdcdc"/><path d="M240.29883,180.20002c-0.03976,-0.25836 0.07551,-0.48891 0.07551,-0.48891c1.13806,-2.26856 1.9942,-5.94123 4.65653,-6.99386c4.87385,-1.92702 2.72594,5.18503 1.19833,6.93257c-1.69431,1.69371 -2.35282,2.56623 -4.81103,1.64441l-0.66846,-0.28562c0,0 -0.57114,-0.24478 -0.45089,-0.80859zM241.94538,179.88993c1.84137,0.6904 1.84551,0.07854 3.18846,-1.26488c0.53949,-0.61587 2.88344,-5.65538 0.47106,-4.52197c-2.02802,0.95282 -2.78817,3.8075 -3.65951,5.78686z" fill="#000000"/><path d="M245.62497,174.05728c2.41239,-1.13341 0.0716,3.99617 -0.46788,4.61204c-1.34295,1.34342 -1.40237,1.9494 -3.24374,1.259c0.87134,-1.97935 1.68361,-4.91821 3.71163,-5.87103z" data-paper-data="{&quot;noHover&quot;:false,&quot;origItem&quot;:[&quot;Path&quot;,{&quot;applyMatrix&quot;:true,&quot;segments&quot;:[[[241.94538,179.88993],[0.87134,-1.97935],[1.84137,0.6904]],[[245.13384,178.62505],[-1.34295,1.34342],[0.53949,-0.61587]],[[245.6049,174.10307],[2.41239,-1.13341],[-2.02802,0.95282]]],&quot;closed&quot;:true}]}" fill="#dcdcdc"/><path d="M241.3198,182.52603c-0.82197,0.54565 -1.5729,0.54958 -2.17404,0.23029c-0.83731,-0.1391 -1.5828,-0.56368 -1.9694,-1.33109c-0.95931,-1.38429 0.24689,-3.98524 1.78028,-4.3753c0.45569,-0.11592 1.71746,0.27012 2.13599,0.37887c0.56873,0.37316 1.15281,0.67123 1.53985,1.26541c1.20922,1.85639 0.18624,3.2594 -1.31268,3.83181z" fill="#000000"/></g></g></svg>