<svg version="1.1" xmlns="http://www.w3.org/2000/svg" xmlns:xlink="http://www.w3.org/1999/xlink" width="33.21743" height="31.36902" viewBox="0,0,33.21743,31.36902"><g transform="translate(-223.60239,-164.69694)"><g data-paper-data="{&quot;isPaintingLayer&quot;:true}" fill-rule="nonzero" stroke="none" stroke-width="0.5" stroke-linecap="butt" stroke-linejoin="miter" stroke-miterlimit="10" stroke-dasharray="" stroke-dashoffset="0" style="mix-blend-mode: normal"><path d="M228.54717,169.67051c1.64033,-3.67839 7.12639,-4.53125 10.64584,-4.84874c5.06839,-0.45722 10.26378,0.15987 13.27835,4.94916c2.93239,4.14315 3.92534,8.74088 4.34847,13.64056c-0.98991,4.41451 -4.32985,9.9505 -9.00843,11.15741c-4.15111,1.5948 -9.83417,2.14652 -14.05825,0.50086c-5.81442,-1.07367 -7.49868,-5.35871 -9.66852,-10.23907c-1.37915,-5.10238 0.35872,-9.23312 3.19772,-13.51841c0.4013,-0.60573 0.75176,-1.1327 1.26483,-1.64176zM228.86244,171.24654c-0.17552,0.24049 -0.33768,0.49257 -0.51612,0.76193c-2.63772,3.9815 -4.31004,7.67349 -3.06125,12.40826c2.02406,4.5525 3.44494,8.41115 8.8156,9.43985c4.01867,1.55106 9.37003,1.02666 13.31526,-0.48905c4.20469,-1.09878 7.16819,-6.08872 8.13437,-10.04462c-0.49004,-4.63192 -1.35007,-8.91722 -4.1392,-12.85795c-2.75302,-4.40077 -7.49478,-4.80117 -12.09825,-4.38589c-3.15222,0.28436 -5.97887,0.48441 -8.23997,2.90658c-0.33444,0.35826 -0.7604,0.61258 -1.08739,0.93043c-0.03479,0.06299 -0.06624,0.1006 -0.06624,0.1006l-0.25466,0.30096c-0.07452,0.1303 -0.12995,0.27477 -0.15924,0.43962c0,0 -0.12453,0.53347 -0.64292,0.48929z" fill="#5f6f87"/><path d="M229.47195,170.73502c0.02928,-0.16485 0.08559,-0.31023 0.16011,-0.44052l0.25547,-0.30176c0,0 0.03169,-0.03784 0.06648,-0.10084c0.32699,-0.31785 0.75614,-0.57487 1.09058,-0.93313c2.2611,-2.42218 5.11175,-2.63092 8.26396,-2.91528c4.60347,-0.41528 9.37903,-0.0006 12.13204,4.40016c2.78912,3.94074 3.6591,8.26154 4.14913,12.89346c-0.96618,3.9559 -3.9504,8.97471 -8.15509,10.0735c-3.94523,1.51572 -9.33454,2.042 -13.3532,0.49094c-5.37066,-1.0287 -6.81547,-4.91481 -8.83954,-9.46731c-1.24879,-4.73476 0.43005,-8.46263 3.06778,-12.44414c0.17845,-0.26936 0.34228,-0.52357 0.51779,-0.76406c0.51839,0.04419 0.64447,-0.49103 0.64447,-0.49103z" data-paper-data="{&quot;noHover&quot;:false,&quot;origItem&quot;:[&quot;Path&quot;,{&quot;applyMatrix&quot;:true,&quot;segments&quot;:[[[459.56426,339.13247],[1.02396,0.18617],[-0.39517,0.45988]],[[458.39179,340.59683],[0.40649,-0.51842],[-6.00865,7.66308]],[[449.94023,365.4313],[-1.5882,-9.92268],[3.16673,9.69277]],[[465.70433,386.38263],[-10.50019,-3.0975],[7.70859,3.91713]],[[492.31393,387.84033],[-8.14445,2.37416],[8.58201,-1.47279]],[[510.41975,368.78102],[-2.67499,7.91932],[-0.09669,-9.57206]],[[504.6173,341.69637],[4.80643,8.58176],[-4.6472,-9.51676]],[[481.35664,330.48438],[9.24644,0],[-6.33147,0]],[[464.3954,334.91257],[4.96264,-4.54068],[-0.73401,0.6716]],[[462.05329,336.61638],[0.71153,-0.59026],[-0.08124,0.12253]],[461.90229,336.81008],[[461.33804,337.37912],[0,0],[-0.17314,0.25296]],[[460.93748,338.24961],[0.08961,-0.33204],[0,0]]],&quot;closed&quot;:true}]}" fill="#778caa"/><path d="M227.95472,185.39049c0.00232,-0.01039 0.00466,-0.0208 0.00698,-0.03119l-0.01256,0.00202l-0.04246,-0.24998c-0.14223,-0.10909 -0.24385,-0.26779 -0.27546,-0.45238l-0.12691,-0.69584c-0.02427,-0.09846 -0.02715,-0.21002 -0.01095,-0.32203c-0.21421,-0.11185 -0.36854,-0.32276 -0.39266,-0.57591c-0.02501,-0.26236 -0.11926,-1.25124 -0.14427,-1.51361c0,0 -0.06925,-0.72653 0.67755,-0.7939c0.7468,-0.06737 0.81604,0.65916 0.81604,0.65916c0.00516,0.05414 0.01032,0.10828 0.01548,0.16243c0.0753,-0.0338 0.15771,-0.05593 0.24499,-0.0638c0.36376,-0.03281 0.69088,0.19286 0.78929,0.52186l0.08428,0.26178c0.10475,0.00517 0.20462,0.03157 0.29465,0.07515c0.03021,-0.02959 0.06306,-0.05672 0.09822,-0.081c0.44844,-0.43734 0.98214,-0.62648 1.53157,-0.28546c0.04307,-0.01174 0.08783,-0.01989 0.13395,-0.02404c0.20849,-0.01881 0.40496,0.0473 0.55321,0.16911c0.10186,-0.0946 0.2316,-0.162 0.37781,-0.18878c0.01832,-0.54846 0.41232,-1.24123 0.80344,-1.46883c0.01317,-0.00767 0.02743,-0.01 0.04236,-0.00795l0.39006,-0.56279c0.12112,-0.1777 0.32087,-0.30243 0.5561,-0.32366c0.41245,-0.0372 0.7778,0.25791 0.81604,0.65916c0.00433,0.04541 0.00428,0.09022 0.00019,0.13407l-0.0542,0.72404l-0.0403,-0.00285l0.02682,0.09728c-0.29839,0.45763 -0.575,1.36963 -0.93016,1.25543c-0.0569,0.15594 -0.12478,0.31162 -0.20055,0.4609l0.0043,0.00145l-0.24211,0.67844c-0.05861,0.1768 -0.18518,0.32606 -0.35232,0.41567c-0.0174,0.07088 -0.03738,0.14139 -0.05961,0.21152l0.13497,0.02019l-0.11507,0.72829c-0.04463,0.33035 -0.31903,0.5987 -0.67443,0.63077c-0.24822,0.0224 -0.47937,-0.07557 -0.63244,-0.2446c-0.07686,0.28962 -0.3334,0.51492 -0.65715,0.54412c-0.07058,0.00636 -0.13976,0.00301 -0.20618,-0.00896c-0.025,0.20086 -0.1349,0.37941 -0.29651,0.49676c0.00982,0.06865 0.0082,0.13593 -0.00721,0.19711l0.00609,0.63578c0.00771,0.37881 -0.2867,0.70468 -0.68066,0.74023c-0.30821,0.0278 -0.59011,-0.12996 -0.72888,-0.37892l-0.3662,-0.62357l0.18746,-0.1042c-0.04134,-0.05956 -0.07997,-0.11913 -0.11596,-0.17882c-0.06941,0.0286 -0.14449,0.04744 -0.22357,0.05457c-0.37782,0.03408 -0.71612,-0.2107 -0.79966,-0.56047l-0.19666,-0.76485l0.00984,-0.00239z" fill="#d30000"/><path d="M251.29841,174.37658c0.69905,-0.26437 0.97079,0.4157 0.97079,0.4157l0.20428,0.54947l0.12995,0.71252c0.00435,0.02245 0.00765,0.0453 0.00986,0.0685c0.03824,0.40126 -0.2651,0.75669 -0.67755,0.7939c-0.0419,0.00378 -0.08331,0.00413 -0.12395,0.00129c-0.3198,0.3007 -0.58523,0.79921 -0.82083,1.07606l0.08345,0.45757c0.00435,0.02245 0.00765,0.0453 0.00986,0.0685c0.03824,0.40126 -0.2651,0.75669 -0.67755,0.7939c-0.28827,0.026 -0.55355,-0.11034 -0.7002,-0.33179l-0.21788,-0.31534c-0.2906,0.09709 -0.60754,0.17164 -0.88801,0.20042c-0.09444,0.26023 -0.33732,0.45687 -0.63831,0.48402c-0.33594,0.0303 -0.64064,-0.15986 -0.76278,-0.44827l-0.09412,-0.20828c-0.11202,0.00422 -0.21982,-0.01592 -0.31763,-0.05578c-0.12239,0.13954 -0.29865,0.23458 -0.50123,0.25286c-0.3554,0.03206 -0.67584,-0.18264 -0.78214,-0.49937l-0.25076,-0.69529c-0.21144,-0.7619 -0.83321,-0.99744 -1.22149,-1.78988c0,0 -0.30185,-0.66794 0.38472,-0.9616c0.68657,-0.29366 0.98842,0.37428 0.98842,0.37428c0.10772,0.27746 0.24164,0.47785 0.38617,0.65522c0.06625,-0.02607 0.13749,-0.04328 0.21231,-0.05003c0.28026,-0.02528 0.53878,0.10289 0.68769,0.31352l0.23649,0.3219c0.07918,-0.03758 0.16657,-0.0621 0.25949,-0.07048c0.12911,-0.01165 0.2536,0.00927 0.3649,0.05581l0.00786,-0.04587c0.28206,0.17986 0.82706,0.5797 1.15624,0.88496c-0.03513,-0.39911 0.26737,-0.75163 0.67803,-0.78867c0.02128,-0.00192 0.04242,-0.00295 0.0634,-0.00313c0.12109,-0.12648 0.28856,-0.21181 0.47938,-0.22903c0.17629,-0.01591 0.34398,0.02891 0.4812,0.11677c-0.07511,-0.27073 -0.14236,-0.5811 -0.02102,-0.71741c0.1086,-0.12199 0.29784,-0.07944 0.48244,-0.04641c-0.00934,-0.09798 -0.01614,-0.16932 -0.01614,-0.16932c-0.00706,-0.07411 -0.00247,-0.14668 0.01231,-0.21595l-0.00494,-0.01086c0,0 -0.27174,-0.68008 0.4273,-0.94445z" fill="#d30000"/><path d="M244.53737,170.50308c0.15907,-0.28544 0.5402,-0.35832 0.5402,-0.35832l0.83954,-0.14549c2.94524,0.02539 5.60679,2.13932 6.14687,4.70084c-0.40244,2.93567 -6.4938,3.4775 -8.42583,1.38399c-1.40848,-1.52619 -0.42325,-3.84737 0.5926,-5.32205c0,0 0.10992,-0.15881 0.30662,-0.25896z" fill="#000000"/><path d="M229.17773,175.73948l0.27345,-0.23897c1.75878,-0.92082 5.47832,-1.44727 6.76018,0.59683c0.94209,1.5023 -0.36908,3.58985 -1.19582,4.83546c-1.454,1.61453 -5.0711,3.62218 -7.31876,2.19158c-2.23248,-1.42093 -0.71399,-5.60952 0.64467,-7.16212c0,0 0.36352,-0.40844 0.83628,-0.22277z" fill="#000000"/><path d="M241.51673,191.89696c-0.01601,0.35874 -0.30229,0.65987 -0.6801,0.69395c-0.37484,0.03382 -0.71079,-0.20686 -0.79764,-0.55224l-0.11756,-0.43407l-0.14883,0.00853c-0.08322,0.36248 -0.26246,0.86281 -0.62451,1.48929l-0.66168,-1.30813l-0.2507,0.45122c-0.11388,0.2123 -0.33274,0.36579 -0.59607,0.38954c-0.21513,0.01941 -0.41744,-0.05159 -0.56721,-0.18091c-0.00961,0.01667 -0.01951,0.03325 -0.02967,0.04975c0.08652,0.32886 0.08862,0.58459 0.00021,0.87747l0.14524,0.02172l-0.11507,0.72829c-0.04463,0.33035 -0.31903,0.5987 -0.67443,0.63077c-0.35476,0.03201 -0.67467,-0.18186 -0.78157,-0.49764c-0.27137,-0.03537 -0.50178,-0.21353 -0.59959,-0.46048l-0.24239,-0.57209c-0.09201,0.06088 -0.18387,0.10177 -0.26902,0.11326c-0.44147,0.05952 -0.75413,-0.46231 -1.1312,-0.69348c0,0 -0.54791,-0.49825 -0.03575,-1.03129c0.29347,-0.30543 0.59867,-0.27226 0.8058,-0.18824c-0.00886,-0.3277 0.15801,-0.76563 0.80698,-0.86796c0.07434,-0.01171 0.14624,-0.01657 0.21579,-0.01512c0.09371,-0.05496 0.20132,-0.09075 0.31759,-0.10124c0.20078,-0.01811 0.39038,0.04252 0.53654,0.15582c0.17414,-0.40759 0.42658,-0.76736 0.70058,-0.81274c0.17157,-0.02842 0.32269,0.0259 0.46314,0.12333c0.03309,-0.33847 0.17239,-0.65662 0.44871,-0.83589c-0.01796,-0.05227 -0.03008,-0.10735 -0.03553,-0.1646c-0.02071,-0.21728 0.05874,-0.42113 0.20146,-0.5683l0.51138,-0.5322l0.026,0.02364l0.03562,-0.08087c0.34742,-0.22958 0.73355,-0.45905 1.15063,-0.68464c0.06087,-0.31136 0.32706,-0.5591 0.66767,-0.58984c0.13479,-0.01216 0.26454,0.01117 0.37949,0.0621c2.83727,-1.33527 6.61298,-2.41162 9.52379,-2.35474l-0.03336,-0.18288l0.73239,-0.12642c0.02308,-0.00423 0.04656,-0.00744 0.07041,-0.00959c0.41245,-0.0372 0.7778,0.25791 0.81604,0.65916c0.01537,0.16127 -0.02444,0.31515 -0.10434,0.44394c0.08754,0.14651 0.17289,0.32806 0.25613,0.55086c0.75906,2.03161 -1.02782,1.92764 -2.33769,1.6135c-0.2447,0.4236 -0.6929,0.53976 -1.15607,0.32839c-0.17446,0.79873 -0.622,1.98972 -0.8698,2.18542c-0.80282,0.63408 -1.66566,0.21634 -2.28331,0.04188c-0.2388,0.11178 -0.42681,0.1023 -0.63008,0.00798c-0.08253,0.06153 -0.14481,0.16593 -0.18298,0.32949l-0.03356,0.0304l0.01299,0.0072l-0.37273,0.63588c-0.11608,0.20419 -0.33061,0.35079 -0.58746,0.37395c-0.27363,0.02468 -0.52652,-0.0969 -0.67693,-0.2987c-0.11885,0.19189 -0.32663,0.32817 -0.5735,0.35044c-0.144,0.01299 -0.28226,-0.01452 -0.40287,-0.07293c-0.0519,0.05083 -0.11156,0.09439 -0.17738,0.12876z" fill="#d30000"/><path d="M232.90312,191.13385c0.19783,-0.8465 0.3158,-1.30769 0.61389,-1.54452c0.02304,-0.18054 0.11747,-0.31742 0.11747,-0.31742c3.25725,-4.71424 7.1282,-5.90169 12.88948,-6.89826c1.95146,-0.17773 3.75289,-0.03048 5.69892,-0.03044l0.81456,-0.07348c0.41245,-0.0372 0.77534,0.2321 0.81055,0.60152c0.0265,0.27807 -0.14023,0.53363 -0.40022,0.65886l-0.64821,0.32899l-0.11394,-0.184c-2.37205,1.55578 -5.78325,1.77422 -8.5513,2.53324c-2.22427,0.60991 -4.23921,1.97801 -6.24561,2.99634c-0.61965,0.38123 -1.13872,0.81234 -1.695,1.2652l-0.56787,0.4623c-0.07339,0.06104 -0.16039,0.10952 -0.25695,0.14109c-0.23723,0.23997 -0.48444,0.47292 -0.76899,0.69126l0.15437,0.17151l-0.64211,0.46798c-0.11314,0.0849 -0.25463,0.1414 -0.41155,0.15555c-0.41245,0.0372 -0.77534,-0.2321 -0.81055,-0.60152c-0.00243,-0.02554 -0.00323,-0.05087 -0.00249,-0.07593l0.01106,-0.6839l0.02351,-0.00002z" fill="#000000"/><path d="M237.27063,192.56414c-0.39689,0.57748 -1.03272,0.22857 -1.03272,0.22857l-0.35086,-0.20053c-1.60155,-1.20268 -3.06534,-2.22255 -4.40232,-3.71219c0,0 -0.46748,-0.52121 0.1184,-0.94963c0.58588,-0.42844 1.05336,0.09277 1.05336,0.09277c1.27779,1.42559 2.65491,2.38415 4.1962,3.5244l0.179,0.09023c0,0 0.63583,0.3489 0.23894,0.92638z" fill="#a9a9a9"/><path d="M238.84026,190.2564c-0.43742,0.55355 -1.04607,0.1678 -1.04607,0.1678l-0.62588,-0.43265c-0.81114,-0.94627 -1.6782,-1.89466 -2.60027,-2.75288c0,0 -0.51648,-0.48213 0.02669,-0.9541c0.54318,-0.47197 1.05966,0.01016 1.05966,0.01016c0.95709,0.89579 1.86003,1.87807 2.70531,2.86234l0.30936,0.16007c0,0 0.60865,0.38574 0.17121,0.93929z" fill="#a9a9a9"/><path d="M241.46143,189.26876c-0.41655,0.5663 -1.03967,0.19953 -1.03967,0.19953l-0.60418,-0.4858c-0.65636,-1.36199 -1.29942,-2.873 -2.31481,-4.04288c0,0 -0.45492,-0.5302 0.14077,-0.94745c0.59568,-0.41725 1.05061,0.11295 1.05061,0.11295c1.08381,1.27524 1.78913,2.85209 2.49991,4.32499l0.06081,-0.0944c0,0 0.62312,0.36677 0.20656,0.93305z" fill="#a9a9a9"/><path d="M243.06547,188.46445c-0.7233,0.18637 -0.91984,-0.46207 -0.91984,-0.46207l-0.14805,-0.51432c-0.56616,-1.17576 -0.90506,-2.42167 -1.47211,-3.59122c0,0 -0.29686,-0.61556 0.39138,-0.89177c0.68824,-0.27621 0.98509,0.33936 0.98509,0.33936c0.56305,1.17315 0.90423,2.41553 1.47211,3.59122l0.21818,0.69397c0,0 0.19654,0.64844 -0.52676,0.8348z" fill="#a9a9a9"/><path d="M246.71455,187.39246c-0.70898,0.22818 -0.95218,-0.40675 -0.95218,-0.40675l-0.17789,-0.46678c-0.43179,-1.33666 -1.10967,-2.55185 -1.44858,-3.91876c0,0 -0.16212,-0.65653 0.56966,-0.81202c0.73179,-0.1555 0.89391,0.50102 0.89391,0.50102c0.32847,1.33596 0.99887,2.52662 1.4245,3.83433l0.15636,0.40586c0,0 0.2432,0.63494 -0.46577,0.86311z" fill="#a9a9a9"/><path d="M250.12711,186.06314c-0.70049,0.2492 -0.96718,-0.37779 -0.96718,-0.37779l-0.14954,-0.35337c-0.43911,-0.91313 -0.73312,-1.86742 -1.14991,-2.7889c0,0 -0.28077,-0.62183 0.41418,-0.88364c0.69496,-0.26182 0.97573,0.36001 0.97573,0.36001c0.41121,0.91213 0.70016,1.85817 1.13649,2.76014l0.17405,0.40738c0,0 0.26668,0.62699 -0.43381,0.87619z" fill="#a9a9a9"/><path d="M252.58268,185.0213c-0.7468,0.06737 -0.81078,-0.60395 -0.81078,-0.60395l-0.0241,-0.28014c-0.12731,-0.67145 -0.22933,-1.2938 -0.47853,-1.93654c0,0 -0.2432,-0.63494 0.46577,-0.86311c0.70898,-0.22818 0.95218,0.40675 0.95218,0.40675c0.27066,0.71405 0.39743,1.40373 0.53837,2.14713l0.03989,0.39118c0,0 0.06399,0.67132 -0.68281,0.7387z" fill="#a9a9a9"/><path d="M230.30123,173.85933c-0.20847,0.26422 -0.48951,0.45871 -0.80531,0.60692l0.10636,0.19529l-0.70311,0.36245c-0.08871,0.04829 -0.18899,0.07972 -0.29672,0.08944c-0.41245,0.0372 -0.7778,-0.25791 -0.81604,-0.65916c-0.01508,-0.15821 0.02295,-0.30931 0.09984,-0.43658l0.20225,-0.34504c-0.11773,-0.64915 0.56109,-0.81434 0.56109,-0.81434l0.25662,-0.06245c0.05587,-0.0773 0.13578,-0.152 0.24741,-0.21951c0.63699,-0.38517 1.0329,0.23453 1.0329,0.23453l0.00908,0.08297c0.09943,0.11129 0.16521,0.25285 0.18027,0.41086c0.01439,0.15094 -0.01957,0.2954 -0.08948,0.41888z" fill="#d30000"/><path d="M231.90626,172.23128c0.10679,-0.24229 0.34245,-0.37329 0.34245,-0.37329c2.46923,-0.60244 2.14525,1.49501 0.15975,1.68082l-0.6981,-0.72089c0,0 -0.03336,-0.34997 0.1959,-0.58664z" fill="#d30000"/><path d="M236.68454,176.41389c-0.72356,-0.19202 -0.52618,-0.89595 -0.52618,-0.89595l0.1228,-0.42002c0.03915,-0.24779 0.0783,-0.49559 0.11745,-0.74337c0,0 0.11394,-0.72118 0.85524,-0.61032c0.39684,0.05934 0.54859,0.29359 0.60392,0.49848c0.28087,0.22946 0.25148,0.62211 0.25148,0.62211l-0.25648,0.5128l0.0018,0.00036c0,0 0.04418,0.46352 -0.31859,0.68442c-0.02441,0.04418 -0.05606,0.09312 -0.09616,0.14087l-0.0348,0.0696c-0.00481,-0.0054 -0.00964,-0.0108 -0.01444,-0.0162c-0.14172,0.13964 -0.36567,0.24757 -0.70602,0.15724z" fill="#d30000"/><path d="M238.02466,178.68337c-0.00315,0.05009 -0.0063,0.10019 -0.00945,0.15028l0.021,0.00314l-0.15422,0.97608c-0.04463,0.33035 -0.31903,0.5987 -0.67443,0.63077c-0.41245,0.0372 -0.7778,-0.25791 -0.81604,-0.65916c-0.00633,-0.06647 -0.0033,-0.13168 0.00806,-0.1944l0.11094,-0.70213c0.01536,-0.25213 0.0307,-0.50427 0.04606,-0.75641c0,0 0.04512,-0.72832 0.79375,-0.68443c0.51802,0.03036 0.656,0.38845 0.69184,0.60617l0.05597,-0.01211c-0.00438,0.05786 -0.01663,0.11482 -0.03564,0.17039l0.06328,0.01198c0,0 0.02308,0.24217 -0.10112,0.45984z" fill="#d30000"/><path d="M224.59813,179.1996c-0.00959,-0.10061 0.0023,-0.19834 0.032,-0.28889c0.00198,-0.02642 0.00395,-0.05284 0.00593,-0.07926c0,0 0.05447,-0.72771 0.80248,-0.67473c0.30308,0.02147 0.47441,0.1537 0.57101,0.30343c0.01297,0.00703 0.02604,0.0145 0.03921,0.02238c0.63899,0.38202 0.24631,1.00367 0.24631,1.00367l-0.20479,0.00992c-0.00447,0.0597 -0.00894,0.11939 -0.01341,0.17907l-0.12585,-0.11318c-0.12245,0.16331 -0.31369,0.27662 -0.53685,0.29675c-0.27294,0.02462 -0.52526,-0.09629 -0.6758,-0.29719l-0.15753,0.00764c0.00797,-0.1064 0.01592,-0.21279 0.02389,-0.31921c-0.00277,-0.01661 -0.00498,-0.03341 -0.0066,-0.0504z" fill="#d30000"/><path d="M226.74211,181.93731c0.02988,0.3135 -0.09218,0.50425 -0.24062,0.61985l0.0018,0.18842c0.00771,0.37881 -0.2867,0.70468 -0.68066,0.74023c-0.41245,0.0372 -0.7778,-0.25791 -0.81604,-0.65916c-0.00204,-0.02145 -0.00311,-0.04277 -0.00324,-0.06392l-0.01221,-0.75668l-0.06659,-0.69862v0c-0.03824,-0.40126 0.2651,-0.75669 0.67755,-0.7939c0.37782,-0.03408 0.71612,0.2107 0.79966,0.56047l0.09424,0.36652c0.12261,0.09749 0.22278,0.25213 0.2461,0.4968z" fill="#d30000"/><path d="M242.08001,175.64662c-0.70771,0.24156 -0.95601,-0.44692 -0.95601,-0.44692l-0.08537,-0.30765c-0.14562,-0.21076 -0.29125,-0.42154 -0.43688,-0.6323c0,0 -0.4184,-0.60556 0.20405,-1.0126c0.62245,-0.40705 1.04085,0.19851 1.04085,0.19851c0.14562,0.21076 0.29125,0.42154 0.43688,0.6323l0.25589,0.63861c0,0 0.2483,0.68851 -0.45939,0.93007z" fill="#d30000"/><path d="M243.57795,176.8182c0.44763,0.21994 0.36339,0.75312 0.36339,0.75312l-1.46702,0.4306c-0.10607,-0.23469 -0.21211,-0.46939 -0.31818,-0.70407c0,0 -0.30185,-0.66794 0.38472,-0.9616c0.68657,-0.29366 0.98842,0.37428 0.98842,0.37428c0.01622,0.03589 0.03244,0.07179 0.04866,0.10768z" fill="#d30000"/><path d="M244.50556,169.17255c0.30185,0.66794 -0.38472,0.9616 -0.38472,0.9616l-0.47578,0.13906c-0.25086,0.00227 -0.50171,0.00455 -0.75257,0.00682c0,0 -0.74997,0.00679 -0.75695,-0.72282c-0.00698,-0.72962 0.74298,-0.73641 0.74298,-0.73641c0.25086,-0.00227 0.50171,-0.00455 0.75257,-0.00682l-0.11393,-0.01571c0,0 0.68657,-0.29366 0.98842,0.37428z" fill="#d30000"/><path d="M246.75066,169.15838c-0.60475,0.43156 -1.04835,-0.15677 -1.04835,-0.15677l-0.29865,-0.50447l-0.11388,-0.08149c0,0 -0.60416,-0.43234 -0.15978,-1.02011c0.05308,-0.07021 0.10843,-0.12585 0.16476,-0.16943c0.1139,-0.21223 0.33273,-0.36566 0.596,-0.38941c0.31676,-0.02857 0.60574,0.13886 0.7401,0.39985l0.36442,0.66911c0.04964,0.0863 0.08194,0.18386 0.09193,0.28867c0.00944,0.09903 -0.00193,0.19526 -0.03061,0.28462c0.03768,0.20218 0.00024,0.4609 -0.30597,0.67943z" fill="#d30000"/><path d="M249.62973,168.477l0.15787,1.63084l-1.53564,-0.64483c0,0 -0.52059,-0.52524 0.0193,-1.0317c0.53989,-0.50646 1.06048,0.01878 1.06048,0.01878l-0.4245,0.47623l-0.60296,0.23392" fill="#d30000"/><path d="M252.60103,173.16459c-0.69905,0.26437 -0.97079,-0.4157 -0.97079,-0.4157l-0.19107,-0.49105c-0.06456,-0.23844 -0.12915,-0.47687 -0.19371,-0.71531c0,0 -0.19108,-0.70557 0.53417,-0.89145c0.72525,-0.18589 0.91632,0.51967 0.91632,0.51967c0.06456,0.23844 0.12915,0.47687 0.19371,0.71531l0.13865,0.33411c0,0 0.27174,0.68008 -0.4273,0.94445z" fill="#d30000"/><path d="M237.12952,178.87292c0.33904,0.62209 -0.32968,0.94348 -0.32968,0.94348l-0.69365,0.32618c-0.87518,0.28846 -1.75987,0.55209 -2.64736,0.80802c0.04205,0.67257 0.09567,1.34431 0.16023,2.01478l-0.01547,0.55723c0,0 -0.02672,0.69993 -0.77599,0.68032c-0.74927,-0.0196 -0.72255,-0.71953 -0.72255,-0.71953l0.02042,-0.38328c-0.05435,-0.5757 -0.1012,-1.15217 -0.14006,-1.7292c-0.62712,0.17832 -1.25379,0.35751 -1.87766,0.54362c-0.06557,1.06066 -0.08996,2.12151 0.01117,3.18253l0.03321,0.34847c0,0 0.06643,0.69695 -0.68037,0.76431c-0.7468,0.06737 -0.81322,-0.62958 -0.81322,-0.62958l-0.03321,-0.34847c-0.09039,-0.94841 -0.07765,-1.89848 -0.02447,-2.849c-0.68293,0.22241 -1.36014,0.45922 -2.02842,0.71856c0,0 -0.69424,0.26935 -0.97735,-0.37697c-0.28311,-0.64632 0.41112,-0.91567 0.41112,-0.91567c0.88851,-0.34468 1.79208,-0.64944 2.7036,-0.93351c0.05357,-0.64971 0.11054,-1.29932 0.1509,-1.94846c-0.82032,0.30642 -1.63646,0.65421 -2.45399,1.06192c0,0 -0.6638,0.33025 -1.01235,-0.28719c-0.34855,-0.61743 0.31526,-0.94768 0.31526,-0.94768c1.068,-0.52994 2.13251,-0.96401 3.20564,-1.33915c0.00328,-0.87402 -0.05194,-1.74659 -0.21476,-2.61682c0,0 -0.12822,-0.68895 0.61048,-0.81397c0.7387,-0.12501 0.86692,0.56393 0.86692,0.56393c0.14723,0.79498 0.20764,1.59011 0.21688,2.3854c0.48439,-0.14706 0.97161,-0.28571 1.46276,-0.41927c0.01608,-0.96161 0.05795,-1.92305 0.1278,-2.88337c0,0 0.05086,-0.69892 0.79887,-0.65677c0.74802,0.04215 0.69716,0.74109 0.69716,0.74109c-0.05829,0.80089 -0.09695,1.60286 -0.11707,2.40516c0.79703,-0.20178 1.6068,-0.39912 2.43365,-0.60537l0.36224,-0.21598c0,0 0.65545,-0.34463 1.01946,0.2649c0.36401,0.60953 -0.29144,0.95415 -0.29144,0.95415l-0.71367,0.34972c-0.9635,0.24035 -1.90336,0.4666 -2.82663,0.70228c0.00149,0.6481 0.01465,1.29615 0.03894,1.94369c0.7467,-0.21884 1.4907,-0.44554 2.22819,-0.69042l0.50673,-0.25074c0,0 0.66871,-0.3214 1.00775,0.30068zM231.8526,177.96708c-0.50049,0.13952 -0.9971,0.28582 -1.49102,0.44283c-0.03412,0.67078 -0.08894,1.34164 -0.14313,2.01258c0.56145,-0.16334 1.12441,-0.32287 1.68728,-0.48302c-0.02879,-0.65708 -0.04674,-1.31466 -0.05314,-1.97238z" fill="#a9a9a9"/><path d="M251.80744,177.7724c-0.58435,0.44453 -1.05413,-0.10082 -1.05413,-0.10082l-0.41264,-0.47931c-0.59603,-0.66236 -1.29316,-1.45995 -1.97502,-2.32826c-0.48317,0.27737 -0.96459,0.55787 -1.43818,0.84564c0.55602,0.91024 1.19407,1.70038 1.96382,2.21082l0.32008,0.31071c0,0 0.50148,0.51986 -0.05591,0.99397c-0.55739,0.47412 -1.05887,-0.04576 -1.05887,-0.04576l-0.09782,-0.12251c-0.91006,-0.64359 -1.64077,-1.55904 -2.27034,-2.58697c-0.60933,0.40569 -1.19532,0.83081 -1.74343,1.2853c0,0 -0.5647,0.46642 -1.05793,-0.06037c-0.49323,-0.52678 0.07147,-0.99319 0.07147,-0.99319c0.63831,-0.52537 1.32311,-1.0129 2.03434,-1.47716c-0.32863,-0.6376 -0.63318,-1.29234 -0.92921,-1.93245c-0.5517,0.38467 -1.0528,0.80479 -1.46278,1.27506c0,0 -0.48086,0.54286 -1.05613,0.09527c-0.57527,-0.44759 -0.0944,-0.99044 -0.0944,-0.99044c0.56668,-0.63161 1.25759,-1.17844 2.00806,-1.67247c-0.20555,-0.42617 -0.41223,-0.83421 -0.62548,-1.21298c0,0 -0.34885,-0.62058 0.31483,-0.95212c0.66368,-0.33155 1.01252,0.28902 1.01252,0.28902c0.18921,0.33706 0.37515,0.71281 0.56219,1.11328c0.33901,-0.19003 0.68247,-0.37362 1.02536,-0.55328c-0.22983,-0.57724 -0.38708,-1.14447 -0.44438,-1.68646c0,0 -0.06675,-0.70035 0.68004,-0.76773c0.7468,-0.06737 0.81355,0.63298 0.81355,0.63298c0.02953,0.36339 0.12075,0.74702 0.25984,1.14261c0.21509,-0.11206 0.42726,-0.22382 0.63519,-0.33592l0.57063,-0.33453c0,0 0.6381,-0.37346 1.03178,0.22281c0.39368,0.59629 -0.24442,0.96975 -0.24442,0.96975l-0.61841,0.36137c-0.25294,0.13596 -0.51593,0.27181 -0.78517,0.40894c0.31105,0.56805 0.6854,1.142 1.08682,1.69994c0.78199,-0.44942 1.55566,-0.90034 2.29762,-1.36968l0.26033,-0.1529c0,0 0.6381,-0.37346 1.03178,0.22281c0.39368,0.59629 -0.24442,0.96975 -0.24442,0.96975l-0.21528,0.12547c-0.72793,0.46048 -1.49005,0.90249 -2.26141,1.34311c0.65672,0.8178 1.31767,1.55967 1.84577,2.14289l0.43428,0.50386c0,0 0.46978,0.54537 -0.11456,0.9899zM245.34125,172.52084c0.28454,0.64072 0.58098,1.3041 0.90309,1.94596c0.41881,-0.25251 0.8426,-0.50007 1.26761,-0.74542c-0.4079,-0.57735 -0.79008,-1.17185 -1.11748,-1.7674c-0.35315,0.18256 -0.70678,0.37057 -1.05322,0.56687z" fill="#a9a9a9"/><path d="M232.7827,168.64772c0.05124,0.02061 0.68474,0.29063 0.42362,0.94333c-0.27204,0.67995 -0.97096,0.4153 -0.97096,0.4153l-0.37035,-0.19624c-0.36593,-0.33308 -0.74309,-0.65476 -1.12877,-0.96602c0,0 -0.57703,-0.4661 -0.09793,-1.02747c0.4791,-0.56137 1.05613,-0.09527 1.05613,-0.09527c0.37072,0.29969 0.73413,0.60824 1.08828,0.92638z" fill="#5f6f87"/><path d="M238.78917,167.64425c-0.69892,-0.26466 -0.42688,-0.94461 -0.42688,-0.94461l0.10298,-0.16844c0.0184,-0.24592 0.03682,-0.49184 0.05522,-0.73776c0,0 0.05447,-0.72771 0.80248,-0.67473c0.74801,0.05299 0.69355,0.7807 0.69355,0.7807c-0.0184,0.24592 -0.03682,0.49184 -0.05522,0.73776l-0.20117,0.59177c0,0 -0.27204,0.67995 -0.97096,0.4153z" fill="#5f6f87"/><path d="M243.66061,166.48498c-0.2483,-0.68851 0.45939,-0.93007 0.45939,-0.93007l0.00648,0.04894c0.19398,-0.15999 0.38795,-0.31996 0.58194,-0.47995c0,0 0.5721,-0.47182 1.05708,0.08474c0.48498,0.55658 -0.0871,1.02839 -0.0871,1.02839c-0.19398,0.15999 -0.38795,0.31996 -0.58194,0.47995l-0.47984,0.21493c0,0 -0.70771,0.24156 -0.95601,-0.44692z" fill="#5f6f87"/><path d="M253.28555,176.84344c-0.29088,-0.64366 0.33611,-0.93976 0.38208,-0.96043c0.10907,-0.14425 0.21812,-0.28851 0.32719,-0.43276c0,0 0.4444,-0.58777 1.04856,-0.15544c0.60416,0.43234 0.15978,1.02011 0.15978,1.02011c-0.14864,0.19661 -0.29729,0.39321 -0.44593,0.58981l-0.48325,0.31299c0,0 -0.68657,0.29366 -0.98842,-0.37428z" fill="#5f6f87"/><path d="M253.98121,180.916c0.4791,-0.56137 1.05613,-0.09527 1.05613,-0.09527l-0.10663,0.05801c0.27545,0.03622 0.55089,0.07243 0.82634,0.10865c0,0 0.74325,0.09771 0.64279,0.82079c-0.10045,0.72308 -0.84369,0.62535 -0.84369,0.62535c-0.27545,-0.03622 -0.55089,-0.07243 -0.82634,-0.10865l-0.65066,-0.38143c0,0 -0.57703,-0.4661 -0.09793,-1.02747z" fill="#5f6f87"/><path d="M250.62612,190.83546c-0.02308,-0.24217 -0.10964,-1.15034 -0.13272,-1.39252c0,0 -0.00176,-0.01847 -0.00169,-0.0498l-0.0243,-0.24545c0,0 0.19407,-0.55891 0.74978,-0.50184c0.70345,-0.03391 0.76981,0.66237 0.76981,0.66237c0.02231,0.23403 0.04461,0.46807 0.06692,0.7021c0.20279,0.295 0.34661,0.62875 0.40582,0.96507c0,0 0.06925,0.72653 -0.67755,0.7939c-0.3776,0.03406 -0.58198,-0.13484 -0.69177,-0.31017c-0.41851,-0.14335 -0.46429,-0.62364 -0.46429,-0.62364z" fill="#5f6f87"/><path d="M242.66613,192.71825c0.74988,0.01328 0.73623,0.74281 0.73623,0.74281l-0.01216,0.59022c-0.0184,0.24592 -0.03682,0.49184 -0.05522,0.73776c0,0 -0.05447,0.72771 -0.80248,0.67473c-0.74801,-0.05299 -0.69355,-0.7807 -0.69355,-0.7807c0.0184,-0.24592 0.03682,-0.49184 0.05522,-0.73776l0.00844,-0.5108c0,0 0.01365,-0.72953 0.76353,-0.71625z" fill="#5f6f87"/><path d="M253.76244,185.54522c0.35379,-0.03192 0.55552,0.11435 0.66986,0.27713c0.14647,0.08125 0.29295,0.16253 0.43941,0.24378c0,0 0.65151,0.36145 0.27998,0.99528c-0.37153,0.63383 -1.02304,0.27238 -1.02304,0.27238c-0.2209,-0.12255 -0.44182,-0.24511 -0.66272,-0.36766l-0.38103,-0.627c0,0 -0.06925,-0.72653 0.67755,-0.7939z" fill="#5f6f87"/><path d="M231.99208,193.55454c-0.03824,-0.40125 0.26511,-0.75669 0.67755,-0.7939c0.41244,-0.0372 0.7778,0.25792 0.81604,0.65916c0.03824,0.40125 -0.26511,0.75669 -0.67755,0.7939c-0.41244,0.0372 -0.7778,-0.25792 -0.81604,-0.65916z" fill="#5f6f87"/><path d="M230.77206,190.37963c0.30185,0.66794 -0.38472,0.9616 -0.38472,0.9616l0.00221,-0.03399c-0.19398,0.15998 -0.38796,0.31997 -0.58194,0.47995c0,0 -0.57208,0.47183 -1.05708,-0.08474c-0.48499,-0.55656 0.0871,-1.02839 0.0871,-1.02839c0.19398,-0.15998 0.38796,-0.31997 0.58194,-0.47995l0.36407,-0.18876c0,0 0.68657,-0.29366 0.98842,0.37428z" fill="#5f6f87"/><path d="M228.35494,188.06895c-0.17046,0.71055 -0.90083,0.54472 -0.90083,0.54472l-0.07648,-0.02654c-0.25278,-0.01791 -0.50556,-0.03581 -0.75834,-0.05372c0,0 -0.08899,-0.0063 -0.20334,-0.04442c-0.35459,-0.02976 -0.64743,-0.30271 -0.68145,-0.65963c-0.03824,-0.40125 0.26511,-0.75669 0.67755,-0.7939c0.11741,-0.01059 0.231,0.00575 0.33431,0.0438c0.24673,0.01748 0.49347,0.03495 0.74021,0.05244l0.30846,0.06087c0,0 0.73037,0.16583 0.55991,0.87638z" fill="#5f6f87"/><path d="M227.30843,185.24478c0.06925,0.72653 -0.67755,0.7939 -0.67755,0.7939l-0.1271,0.0015c-0.24508,0.06282 -0.49017,0.12564 -0.73526,0.18845c0,0 -0.72526,0.18589 -0.91632,-0.51968c-0.19108,-0.70558 0.53418,-0.89145 0.53418,-0.89145c0.24508,-0.06282 0.49017,-0.12564 0.73526,-0.18845l0.37076,-0.04341c0,0 0.7468,-0.06737 0.81604,0.65916z" fill="#5f6f87"/><path d="M226.6559,175.10582c0.41244,-0.0372 0.7778,0.25792 0.81604,0.65916c0.03824,0.40125 -0.26511,0.75669 -0.67755,0.7939c-0.21443,0.01934 -0.41613,-0.05113 -0.56576,-0.17966c-0.07948,0.03786 -0.16723,0.06259 -0.26058,0.07101c-0.41244,0.0372 -0.7778,-0.25792 -0.81604,-0.65916c-0.03824,-0.40125 0.26511,-0.75669 0.67755,-0.7939c0.21443,-0.01934 0.41613,0.05113 0.56576,0.17966c0.07948,-0.03786 0.16723,-0.06259 0.26058,-0.07101z" fill="#5f6f87"/><path d="M231.0018,170.82803c-0.27204,0.67995 -0.97096,0.4153 -0.97096,0.4153l-0.30258,-0.14149c-0.20209,-0.14462 -0.40417,-0.28921 -0.60626,-0.43383c0,0 -0.60417,-0.43233 -0.15978,-1.02011c0.44439,-0.58777 1.04856,-0.15544 1.04856,-0.15544c0.20209,0.14462 0.40417,0.28921 0.60626,0.43383l-0.04211,-0.04286c0,0 0.69892,0.26466 0.42688,0.94461z" fill="#5f6f87"/></g></g></svg>