<svg version="1.1" xmlns="http://www.w3.org/2000/svg" xmlns:xlink="http://www.w3.org/1999/xlink" width="23.42521" height="67.04207" viewBox="0,0,23.42521,67.04207"><g transform="translate(-231.97939,-121.5)"><g data-paper-data="{&quot;isPaintingLayer&quot;:true}" fill-rule="nonzero" stroke="none" stroke-width="0.5" stroke-linecap="butt" stroke-linejoin="miter" stroke-miterlimit="10" stroke-dasharray="" stroke-dashoffset="0" style="mix-blend-mode: normal"><path d="M248.50381,167.7132c0.6868,2.40381 -1.71701,3.09061 -1.71701,3.09061l-0.13463,-0.44207c-0.39751,0.49689 -0.79502,0.99377 -1.19253,1.49066c0.09071,0.56004 0.18888,1.11882 0.2955,1.67614c0.48295,2.52449 1.40642,4.49348 2.32036,6.83972c0.56984,1.46289 2.36331,3.15198 1.50137,4.46416c-2.48412,3.7817 -5.22787,2.60599 -7.3857,0.47476h-0.00001c-0.49526,0.39915 -1.0024,0.76376 -1.61121,0.83284c-0.17143,0.01945 -0.34284,0.03156 -0.51421,0.03732l0.0144,0.09359l-2.55553,0.39316c-0.138,0.02361 -0.27987,0.03591 -0.42461,0.03591c-1.38071,0 -2.5,-1.11929 -2.5,-2.5c0,-0.06956 0.00284,-0.13846 0.00841,-0.20658c-1.2028,-1.63456 0.32382,-3.16119 0.32382,-3.16119c3.37202,-3.27203 3.94592,-8.29066 4.27462,-12.81716c0.13172,-1.81388 0.3737,-3.68621 0.52589,-5.55512c-0.02202,-0.48314 -0.0444,-0.96626 -0.06826,-1.44933c-0.82334,-0.97993 -1.8195,-1.8329 -2.90667,-2.50146l-0.74461,-0.10534c0,0 -2.40381,-0.6868 -1.71701,-3.09061c0.6868,-2.40381 3.09061,-1.71701 3.09061,-1.71701l1.72359,0.58252c-0.02705,-0.20784 -0.05535,-0.41564 -0.085,-0.62341c-0.06508,-0.456 -0.12283,-0.91292 -0.17578,-1.37045c-0.57888,-2.46506 -1.26146,-4.91519 -1.64232,-7.39422l0.07682,-0.19063h-0.0841v-2.6c0,-1.38071 1.11929,-2.5 2.5,-2.5c1.14459,0 2.10953,0.7692 2.40609,1.81887l0.26007,0.84523c0.05743,-0.02393 0.11486,-0.04786 0.17229,-0.07179l0.77097,-0.26402c0,0 2.37171,-0.79057 3.16228,1.58114c0.79057,2.37171 -1.58114,3.16228 -1.58114,3.16228l-0.42903,0.13598c-0.36316,0.15132 -0.72631,0.30263 -1.08947,0.45395c0.09634,1.18354 0.16811,2.34525 0.21426,2.77719c0.04951,0.46335 0.09557,0.9274 0.13871,1.39204c0.4809,2.00584 0.9097,4.02169 1.06769,6.07851c0.18905,2.46109 0.11022,5.05212 -0.1281,7.64081c0.03397,0.41516 0.06984,0.83002 0.10799,1.24451l0.64058,-0.29851c0,0 2.40381,-0.6868 3.09061,1.71701z" fill="#5a4124"/><path d="M248.14808,143.43366l-1.97765,2.58818c-0.47963,0.34882 -0.95926,0.69764 -1.43889,1.04647c0.60344,4.40988 1.09222,8.85496 1.26662,13.23575c0.16581,4.16497 -0.25935,8.59429 0.3731,12.71793c0.64356,4.19609 2.8225,8.14315 4.43644,12.01647c0,0 0.96154,2.30769 -1.34615,3.26923c-2.30769,0.96154 -3.26923,-1.34615 -3.26923,-1.34615c-1.57474,-3.7795 -3.53095,-7.56484 -4.45621,-11.58924c-1.51162,3.3394 -3.36437,6.54959 -5.04136,9.62484c0,0 -1.19713,2.19474 -3.39187,0.99761c-2.19474,-1.19713 -0.99761,-3.39187 -0.99761,-3.39187c3.10518,-5.69145 7.28219,-12.15281 7.4957,-18.87223c0.10833,-3.40913 -1.26634,-6.828 -1.77222,-10.15263c-0.77962,-5.1236 -0.62245,-10.60019 -1.02138,-15.78627c-0.26829,-3.48773 -0.84551,-6.763 -1.37829,-10.2116l-0.02907,-2.38014c0,0 0,-1.04715 0.67771,-1.78603c0.16944,-0.73892 0.70834,-1.91397 2.42229,-1.91397c2.5,0 2.5,2.5 2.5,2.5l-0.02907,0.21986c0.07838,0.51169 0.15186,1.02376 0.22074,1.53616c0.25053,0.64152 0.19969,1.25159 0.19969,1.25159l-0.01842,0.18545c0.24519,2.07732 0.41955,4.15985 0.54281,6.24572c0.44104,1.88939 0.99216,3.75138 1.43939,5.68974c0.06515,0.42168 0.13035,0.84426 0.19543,1.26765c2.27817,-1.61559 4.57861,-3.12913 6.4912,-5.26859l0.33704,-1.25606c0,0 0.92848,-2.32119 3.24967,-1.39272c2.32119,0.92848 1.39272,3.24967 1.39272,3.24967l-1.26296,2.74394c-1.72917,1.91022 -3.69933,3.34311 -5.69465,4.76887c-0.06672,0.12268 -0.1155,0.19237 -0.1155,0.19237z" fill="#5a4124"/></g></g></svg>