<svg version="1.1" xmlns="http://www.w3.org/2000/svg" xmlns:xlink="http://www.w3.org/1999/xlink" width="40.15905" height="40.15829" viewBox="0,0,40.15905,40.15829"><g transform="translate(-220.01417,-159.93185)"><g fill="#ff0000" stroke="#ff0000" stroke-miterlimit="10"><path d="M239.5,174.5625l0.125,10.875" stroke-width="2" stroke-linecap="round"/><path d="M234.125,179.8125l11.75,0.5" stroke-width="2" stroke-linecap="round"/><path d="M220.76418,199.23585v-38.47171h38.47171v38.47171z" stroke-width="1.5" stroke-linecap="butt"/><path d="M220.76418,199.23586v-9.09671h38.47171v9.09671z" stroke-width="1.5" stroke-linecap="butt"/><path d="M232.14058,161.48738c0,0.75 -0.75,0.75 -0.75,0.75l-0.5606,-0.00753c-2.02403,0.2845 -4.338,0.2603 -6.38146,0.11676c-0.52814,-0.03709 -2.0253,-0.37184 -2.49271,-0.03294c-0.24212,0.17556 0.17762,0.57117 0.26702,0.85656c0,0 0.20604,0.72114 -0.5151,0.92718c-0.72115,0.20604 -0.92718,-0.5151 -0.92718,-0.5151c-1.17172,-4.38313 7.13861,-2.44476 9.8373,-2.83739l0.77273,-0.00754c0,0 0.75,0 0.75,0.75z" stroke-width="0.5" stroke-linecap="butt"/><path d="M249.14058,161.5985c0,0.75 -0.75,0.75 -0.75,0.75c-1.03704,0 -2.18518,0 -3.22222,0c-3.05686,0 -6.21906,-0.22443 -9.28017,-0.00189c-1.07274,0.07799 -2.93876,-0.14207 -2.85872,1.25189c0,0 0,0.75 -0.75,0.75c-0.75,0 -0.75,-0.75 -0.75,-0.75c0.05674,-1.75456 0.96331,-2.38621 2.64597,-2.63164c3.54499,-0.51708 7.42386,-0.11836 10.99292,-0.11836c1.03704,0 2.07407,0 3.11111,0h0.11111c0,0 0.75,0 0.75,0.75z" stroke-width="0.5" stroke-linecap="butt"/><path d="M259.69613,161.93183c0,0.75 -0.75,0.75 -0.75,0.75h-0.55555c-4.1503,-0.01081 -10.27592,-1.83464 -8.50108,4.3773c0,0 0.20604,0.72114 -0.5151,0.92718c-0.72115,0.20604 -0.92718,-0.5151 -0.92718,-0.5151c-0.25304,-0.88565 -0.4733,-1.61151 -0.4733,-2.53938c0,-5.55503 6.71364,-3.74159 10.41666,-3.75h0.55555c0,0 0.75,0 0.75,0.75z" stroke-width="0.5" stroke-linecap="butt"/><path d="M225.03202,163.62372c0.05695,0.05695 0.10168,0.11391 0.13614,0.17021c2.4842,-0.30501 5.60068,0.58319 8.21738,0.951c0,0 0.74246,0.10607 0.63639,0.84852c-0.10607,0.74246 -0.84852,0.6364 -0.84852,0.6364c-3.85927,-0.56148 -10.03039,-3.15579 -10.81249,2.3107c0.00131,0.5008 0.00189,1.00159 0.00189,1.50239v0.77778c0,0.41422 -0.33578,0.75 -0.75,0.75c-0.41422,0 -0.75,-0.33578 -0.75,-0.75v-0.77778c0,-0.1661 0.00006,-0.33221 0.00019,-0.49832c-0.30506,-0.72134 -0.05167,-2.04865 0.30846,-3.11745c-0.18707,-0.13638 -0.30864,-0.35722 -0.30864,-0.60645c0,-0.18443 0.06656,-0.3533 0.17699,-0.48392l0.5524,-0.66289l0.05478,0.04565l0.07321,-0.16687c0.06091,-0.006 0.12183,-0.01202 0.18274,-0.01802l-0.02999,-0.06998l0.76254,-0.32681c0.09466,-0.04314 0.19986,-0.06717 0.31068,-0.06717c0.11703,0 0.22778,0.0268 0.32648,0.0746c0.21758,-0.11607 0.42811,-0.24411 0.58763,-0.41048l0.11111,-0.11112c0,0 0.53033,-0.53033 1.06066,0z" stroke-width="0.5" stroke-linecap="butt"/><path d="M221.42655,180.11171c-0.73543,0.14709 -0.88252,-0.58835 -0.88252,-0.58835l-0.12567,-0.70264c0,-1.57434 -0.47313,-3.5119 0.29148,-4.98146c1.30885,-2.51556 5.33435,-1.55969 7.44233,-0.9619c0,0 0.72115,0.20604 0.51511,0.92719c-0.20604,0.72115 -0.92719,0.5151 -0.92719,0.5151c-1.80857,-0.52016 -3.71696,-1.23361 -5.50519,-0.19775c-0.94436,0.54703 -0.31654,3.86568 -0.31654,4.69883l0.09654,0.40847c0,0 0.14709,0.73544 -0.58835,0.88252z" stroke-width="0.5" stroke-linecap="butt"/><path d="M221.50169,189.90405c-0.75,0 -0.75,-0.75 -0.75,-0.75l0.00754,-0.00505c-0.03892,-0.27689 -0.07785,-0.55378 -0.11677,-0.83067c-0.00458,-2.0195 -0.46833,-7.27391 1.79443,-8.30163c1.4945,-0.67879 4.78824,0.72069 6.50924,0.72069c0,0 0.75,0 0.75,0.75c0,0.75 -0.75,0.75 -0.75,0.75c-1.61942,0 -4.5144,-1.25586 -5.93521,-0.83486c-0.30058,0.08907 -0.51405,1.30337 -0.54426,1.52222c-0.24421,1.76945 -0.32327,3.48033 -0.32797,5.28725c0.03516,0.24162 0.07031,0.48325 0.10546,0.72488l0.00753,0.21718c0,0 0,0.75 -0.75,0.75z" stroke-width="0.5" stroke-linecap="butt"/><path d="M246.14313,180.01772c-0.36542,0.36542 -0.73084,0.22726 -0.92276,0.106c-1.75528,-0.03233 -3.08994,-0.37298 -4.74258,-1.08799c-0.97986,-0.71816 -5.01668,-1.1195 -6.13178,-0.35829c-0.4283,0.29237 -0.55297,0.91367 -0.97941,1.20877c-0.35159,0.2433 -1.03787,0.12874 -1.16488,0.537c-0.23918,0.76877 0.04997,2.69856 0.04997,3.61972c0,0 0,0.75 -0.75,0.75c-0.75,0 -0.75,-0.75 -0.75,-0.75c0,-0.94315 -0.31551,-3.34598 0.04996,-4.15805c0.49082,-1.09061 0.97299,-0.76538 1.72401,-1.24077c0.45139,-0.28573 0.56573,-0.95551 1.02059,-1.23568c1.71666,-1.05737 6.07985,-0.66795 7.646,0.30838c1.52052,0.6444 2.65869,0.90946 4.30944,0.90946l0.64145,0.33078c0,0 0.53033,0.53033 0,1.06066z" stroke-width="0.5" stroke-linecap="butt"/><path d="M231.04697,172.74106c-0.36391,0.78629 0.52114,2.58209 0.73141,3.31806c0,0 0.20604,0.72114 -0.5151,0.92718c-0.72115,0.20604 -0.92718,-0.5151 -0.92718,-0.5151c-0.29308,-1.02578 -0.93401,-2.4345 -0.83068,-3.62596c-0.31885,-0.53292 0.19441,-0.94351 0.19441,-0.94351l0.17919,-0.14122c0.31146,-0.47985 0.76543,-0.85226 1.30414,-1.14113c1.9239,-1.56739 4.08733,-2.33182 6.11678,-1.00116l0.12941,-0.22646l0.76514,0.43722c0.23272,0.12733 0.39053,0.37443 0.39053,0.6584c0,0.41422 -0.33578,0.75 -0.75,0.75c-0.04044,0 -0.08014,-0.0032 -0.11884,-0.00936l-0.72521,-0.10361c-1.13891,0.00282 -3.52902,-0.00824 -4.9571,0.71052c-0.24135,0.20902 -0.49463,0.4509 -0.77963,0.73834z" stroke-width="0.5" stroke-linecap="butt"/><path d="M249.72807,168.92976c0.33541,0.67082 -0.33542,1.00623 -0.33542,1.00623l-0.26219,0.12965c-1.53174,0.62191 -2.93872,1.95592 -4.79099,1.83668c-0.60498,-0.03895 -3.58262,-1.43162 -4.05275,-0.80809c-0.48557,0.644 -0.13904,3.39675 -0.26479,4.27701c0,0 -0.10607,0.74246 -0.84852,0.63639c-0.74246,-0.10607 -0.6364,-0.84853 -0.6364,-0.84853c0.17785,-1.24495 -0.24663,-4.12936 0.6241,-5.05632c1.42975,-1.52209 3.70939,0.17298 5.28059,0.30302c1.50087,0.12422 2.86855,-1.17197 4.09789,-1.71888l0.18225,-0.09257c0,0 0.67083,-0.33541 1.00624,0.33541z" stroke-width="0.5" stroke-linecap="butt"/><path d="M254.03056,173.49154c-0.67082,0.33541 -1.00623,-0.33541 -1.00623,-0.33541l-0.28655,-0.58605c-3.37013,-5.09496 2.78205,-2.27238 5.43971,-3.43872c0,0 0.68936,-0.29544 0.9848,0.39392c0.29544,0.68936 -0.39392,0.9848 -0.39392,0.9848c-1.43514,0.60345 -2.81498,0.70434 -4.34075,0.37748c-0.23713,-0.0508 -0.66836,-0.16298 -1.02523,-0.28038c0.24998,0.37982 0.462,0.95032 0.58346,1.13084l0.38012,0.74729c0,0 0.33541,0.67082 -0.33541,1.00623z" stroke-width="0.5" stroke-linecap="butt"/><path d="M259.02947,179.70961c0,0.75 -0.75,0.75 -0.75,0.75l-0.72461,-0.00189c-2.2818,0.32597 -4.67862,-0.00589 -6.94914,0.32797c-0.49393,0.07263 -2.53139,0.40541 -2.35553,1.32092c0.18707,0.97385 0.69182,1.97614 0.97265,2.95252c0,0 0.20604,0.72114 -0.5151,0.92718c-0.72115,0.20604 -0.92718,-0.5151 -0.92718,-0.5151c-0.27482,-0.96912 -1.01095,-2.2782 -1.02735,-3.26971c-0.06781,-4.1001 8.16648,-2.87873 10.69533,-3.24l0.83094,-0.00189c0,0 0.75,0 0.75,0.75z" stroke-width="0.5" stroke-linecap="butt"/><path d="M233.44143,167.68768c0.11073,-0.09997 0.27144,-0.17252 0.50471,-0.17252c0.75,0 0.75,0.75 0.75,0.75l-0.64393,0.85357c-1.27914,0.18274 -3.15166,0.22433 -4.18613,1.05977c-0.65969,0.53277 -0.6992,1.86505 -1.59512,2.1389c-0.48654,0.14872 -1.46069,-0.50777 -1.97177,-0.66343c-1.08141,-0.32937 -2.56019,0.25976 -3.59145,0.55455c0,0 -0.72114,0.20604 -0.92718,-0.51511c-0.20604,-0.72115 0.5151,-0.92718 0.5151,-0.92718c1.36291,-0.38922 2.98802,-0.94418 4.40855,-0.55656c0.42503,0.11598 0.69878,0.67189 1.13934,0.66991c0.71584,-0.00322 0.51924,-1.4057 1.07155,-1.8611c1.16789,-0.96296 3.00901,-1.13445 4.52634,-1.33081z" stroke-width="0.5" stroke-linecap="butt"/><path d="M247.39058,164.73738c0.75,0 0.75,0.75 0.75,0.75l-0.00754,0.32829c-0.60645,4.18285 -2.92898,3.1777 -6.01785,2.97538c-1.1929,-0.07814 -2.01924,0.54729 -3.21436,0.31873c-1.35246,-0.25866 -2.52425,-1.1642 -3.83854,-1.32438c0,0 -0.74246,-0.10607 -0.63639,-0.84853c0.10607,-0.74246 0.84853,-0.63639 0.84853,-0.63639c1.32861,0.20931 3.06608,1.6894 4.46226,1.44338c0.88298,-0.15559 1.50841,-0.52293 2.48484,-0.44903c2.33795,0.17694 3.9771,1.50942 4.4266,-1.69129l-0.00754,-0.11616c0,0 0,-0.75 0.75,-0.75z" stroke-width="0.5" stroke-linecap="butt"/><path d="M259.04105,164.21069c0.72114,0.20604 0.51511,0.92718 0.51511,0.92718l-0.19511,0.62285c0.85116,5.16592 -5.50487,3.56034 -8.62097,2.67003c0,0 -0.72114,-0.20604 -0.5151,-0.92718c0.20604,-0.72115 0.92718,-0.5151 0.92718,-0.5151c1.7531,0.50089 3.48046,0.72306 5.29157,0.86192c0.23733,0.01819 1.36662,0.11732 1.53456,-0.20732c0.21034,-0.40661 -0.06524,-1.59994 -0.11375,-1.98457l0.24933,-0.9327c0,0 0.20604,-0.72114 0.92719,-0.5151z" stroke-width="0.5" stroke-linecap="butt"/><path d="M228.49961,173.70546c0.67082,-0.33541 1.00623,0.33541 1.00623,0.33541l0.3014,0.77985c0,0.36524 -0.20582,1.61277 -0.00438,1.93346c0.31104,0.49516 1.34085,0.33826 1.50629,0.89911c0.15104,0.51198 -0.1776,1.07874 -0.45309,1.53594c-1.631,2.70677 -6.31252,0.10787 -8.70389,0.79707c0,0 -0.72114,0.20605 -0.92718,-0.5151c-0.20604,-0.72115 0.5151,-0.92719 0.5151,-0.92719c2.13122,-0.60425 3.61299,0.15697 5.70365,0.30636c0.77297,0.05523 1.13342,0.09354 1.75303,-0.32037c0.21827,-0.1458 0.98015,-0.35201 0.71966,-0.31964c-1.90964,0.23732 -1.6092,-2.18308 -1.6092,-3.38966l-0.14304,-0.10904c0,0 -0.33541,-0.67082 0.33541,-1.00623z" stroke-width="0.5" stroke-linecap="butt"/><path d="M239.03202,171.84595c0.53033,0.53033 0,1.06066 0,1.06066l0.04792,-0.12378c-0.28061,0.65136 -0.44813,1.9516 -0.86136,2.48009c-1.18464,1.51508 -4.52865,0.95301 -6.18975,2.07073c0,0 -0.62404,0.41603 -1.04006,-0.20801c-0.41602,-0.62404 0.20801,-1.04006 0.20801,-1.04006c1.17929,-0.78006 2.68124,-1.24659 4.08978,-1.45204c0.32746,-0.04776 1.46164,0.17756 1.72047,-0.25499c0.33261,-0.55584 0.42734,-1.56102 0.6942,-2.18659l0.27014,-0.346c0,0 0.53033,-0.53033 1.06066,0z" stroke-width="0.5" stroke-linecap="butt"/><path d="M250.75233,170.19668c0.62404,-0.41602 1.04006,0.20802 1.04006,0.20802l0.34819,0.74936c-0.02305,2.14285 0.61569,2.92615 -0.72555,4.91994c-0.64411,0.63907 -0.97454,1.63329 -1.80015,2.08422c-0.4229,0.23098 -1.03686,0.09391 -1.37921,0.433c-0.50898,0.50414 -0.45048,1.50816 -1.58567,1.42031c-0.8752,-0.06773 -1.08231,-1.59073 -1.75088,-1.98883c-0.66618,-0.39668 -1.56415,0.04488 -2.2884,-0.30892c-1.34409,-0.65661 -1.54436,-1.3604 -3.2151,-1.59503c0,0 -0.74246,-0.10607 -0.63639,-0.84852c0.10607,-0.74246 0.84853,-0.6364 0.84853,-0.6364c1.72654,0.25032 2.30474,1.02053 3.67379,1.73831c0.70028,0.36715 1.57471,-0.10637 2.37827,0.35775c0.3863,0.22312 1.01131,0.80824 1.24747,1.25308c0.36375,-0.41911 0.97884,-0.94814 1.35101,-1.09386c1.0705,-0.41914 1.12205,-0.88495 1.99673,-1.76609c1.0785,-1.63547 0.401,-2.0909 0.38556,-3.96895l-0.09626,0.0827c0,0 -0.41603,-0.62404 0.20801,-1.04007z" stroke-width="0.5" stroke-linecap="butt"/><path d="M258.16836,174.40405c0.75,0 0.75,0.75 0.75,0.75v0.77778c-0.01287,0.78032 0.11255,1.59755 -0.67047,2.18169c-0.56721,0.42315 -2.11279,0.4933 -3.58212,0.36213c-0.71637,0.01595 -1.46766,-0.01604 -2.27519,-0.01604h-0.77778v0c-0.41422,0 -0.75,-0.33578 -0.75,-0.75c0,-0.053 0.00549,-0.10471 0.01595,-0.1546c-0.01031,-0.05426 -0.01595,-0.11368 -0.01595,-0.17874c0,-0.75 0.75,-0.75 0.75,-0.75c1.79102,0 3.58204,0 5.37306,0c0.27792,-0.14127 0.44072,-0.35762 0.43249,-0.69445v-0.77778c0,0 0,-0.75 0.75,-0.75z" stroke-width="0.5" stroke-linecap="butt"/><path d="M246.36535,180.95706c0.39832,0.39832 0.1983,0.79663 0.07405,0.97025c-0.16813,1.70061 0.63429,2.53346 0.80332,4.11107c0.10656,0.9945 -0.09439,1.78987 -0.49236,2.38418c0.00536,0.01292 0.01036,0.02602 0.01501,0.0393c0.15605,-0.05781 0.29188,-0.05781 0.29188,-0.05781c2.21787,0.00578 4.44538,-0.1623 6.67738,-0.20985c0.07376,-0.07795 0.16406,-0.14007 0.26529,-0.18076l0.71403,-0.30601c2.43867,-1.64633 2.33079,-2.99963 2.92749,-5.04969l-0.00846,-0.05925h-0.1035v-0.77778c0,-0.41421 0.33579,-0.75 0.75,-0.75c0.38198,0 0.69727,0.28556 0.74402,0.65485l0.10955,0.76686l-0.02492,0.00356l0.03057,0.04934c0.00061,0.26784 -0.00304,0.53108 -0.0111,0.79176c0.03167,0.25943 0.00543,0.56051 -0.0436,0.86405c-0.0375,0.53335 -0.09474,1.06548 -0.17318,1.61453c-0.1264,0.86882 0.211,2.89002 -0.43435,3.53538c-0.54807,0.54807 -2.14679,0.33078 -2.86366,0.33078c-2.86101,0 -5.71271,0.21577 -8.55556,0.22222c0,0 -0.57211,0 -0.71698,-0.49968c-0.08733,0.03561 -0.18289,0.05524 -0.28302,0.05524c-0.04044,0 -0.08013,-0.0032 -0.11884,-0.00936l-0.33312,-0.04759c-0.66386,0.31707 -1.45812,0.40717 -2.25165,0.26804c-0.13288,0.00702 -0.26852,0.01081 -0.4075,0.01113h-0.15079l-0.05525,0.19337l-0.76184,-0.21767c-0.11882,-0.03104 -0.22615,-0.09049 -0.31431,-0.17065c-1.67205,0.16814 -3.34092,0.31599 -5.0461,0.07631c0,0 -0.74246,-0.10607 -0.6364,-0.84853c0.10607,-0.74246 0.84853,-0.6364 0.84853,-0.6364c2.77589,0.40386 5.4874,-0.3043 8.25203,-0.33324c0.00095,-0.14739 0.00609,-0.29412 0.05241,-0.41419c0.14783,-0.38318 0.73431,-0.66486 0.62625,-1.06109c-0.48836,-1.79073 -1.06658,-2.76577 -0.77921,-4.7773l0.32324,-0.53538c0,0 0.53033,-0.53033 1.06066,0z" stroke-width="0.5" stroke-linecap="butt"/><path d="M230.05517,184.37212c0.67082,-0.33541 1.00623,0.33541 1.00623,0.33541l-0.04205,0.31272c0.78633,0.337 1.53126,0.65523 2.35269,0.89751c1.2466,0.82894 3.12161,2.60961 0.97221,3.81809c-0.83687,0.47052 -2.55535,-0.09935 -3.45129,-0.16702c-2.49167,-0.18819 -5.18777,0.55744 -7.72461,0.55744c0,0 -0.75,0 -0.75,-0.75c0,-0.75 0.75,-0.75 0.75,-0.75c2.36639,0 4.60144,-0.39397 6.94683,-0.55367c0.84695,-0.05767 1.60729,0.16274 2.43967,0.22222c0.4397,0.03142 1.52608,0.44118 1.32148,0.05073c-0.22925,-0.4375 -0.73559,-0.79958 -1.13389,-1.06632c-0.8089,-0.22231 -1.5436,-0.55011 -2.31397,-0.88027l-0.70871,-1.02062c0,0 -0.33541,-0.67082 0.33541,-1.00623z" stroke-width="0.5" stroke-linecap="butt"/><path d="M258.97021,169.6286l-1.13015,0.60126c-1.92291,-0.27975 -3.8647,-0.51292 -5.80475,-0.75591c0.63456,1.19309 1.09166,2.82761 1.49967,3.9536c1.56833,-0.41309 3.57999,0.20263 5.07781,0.19873l0.70264,0.12568c0,0 0.73543,0.14709 0.58835,0.88253c-0.14709,0.73543 -0.88252,0.58835 -0.88252,0.58835l-0.40847,-0.09655c-1.32711,-0.00302 -3.85112,-0.82587 -5.0641,-0.10359c-0.94279,0.56139 -1.70503,2.02311 -2.48302,3.18232c0.70811,0.0292 1.42438,0.08324 2.10268,0.08793c1.63669,0.01134 3.06081,-0.56643 4.77273,-0.32579l0.77778,0.11111c0,0 0.74246,0.10607 0.63639,0.84853c-0.10607,0.74246 -0.84853,0.63639 -0.84853,0.63639l-0.77778,-0.11111c-1.6496,-0.23999 -2.96684,0.33302 -4.5606,0.34087c-1.91663,0.00944 -5.36352,-1.21086 -5.70199,1.80051c0,0 -0.06299,0.44092 -0.43167,0.59466c0.39581,1.35056 1.44603,2.61757 1.21051,4.1754c-0.13117,0.86758 -0.79516,1.49383 -1.02238,2.32992l-0.38366,0.79604c0,0 -0.33541,0.67082 -1.00623,0.33541c-0.67082,-0.33541 -0.33541,-1.00624 -0.33541,-1.00624l0.28301,-0.5373c0.20319,-0.6859 0.89201,-1.4429 0.97761,-2.11452c0.20044,-1.57256 -1.10843,-2.9151 -1.33255,-4.35319c-0.08212,-0.52695 0.34339,-2.17283 -0.18132,-2.52743c-0.74123,-0.50093 -2.0902,-0.75446 -2.94629,-1.00697c-2.2705,-1.48177 -3.04905,-1.01404 -5.63204,-0.82152c-1.30023,0.09691 -3.14446,-0.26282 -4.1895,0.78222c-0.6529,0.6529 -0.89753,1.83616 -1.38576,2.65343c0.03422,0.03799 0.06826,0.07748 0.10211,0.11853c1.20764,1.46438 -0.59732,3.10617 0.89346,3.65771c2.66242,0.75501 3.24473,1.27844 4.32701,3.74456l0.06064,0.9621c0,0 0,0.75 -0.75,0.75c-0.75,0 -0.75,-0.75 -0.75,-0.75l0.06064,-0.37122c-0.91735,-2.18168 -1.06667,-2.23641 -3.45077,-2.92211c-2.79265,-1.2862 -0.36497,-2.64832 -1.55098,-4.12006c-0.68336,-0.84798 -2.1082,-0.50327 -3.08666,-0.50327c-1.99991,0 -3.11851,-1.05224 -5.12729,-0.47331c0,0 -0.72114,0.20605 -0.92718,-0.5151c-0.20604,-0.72115 0.5151,-0.92719 0.5151,-0.92719c1.86829,-0.52971 2.51527,-0.10101 4.20116,0.44777c1.42443,0.46367 2.89801,-0.25371 4.21729,0.10071c0.34525,-0.54618 0.56607,-1.19351 0.85044,-1.7925c-0.15845,-0.06978 -0.25984,-0.17118 -0.25984,-0.17118c-1.06492,-1.06711 -2.00691,-2.73954 -2.28506,-4.42973c-0.16157,-0.10286 -0.25309,-0.24013 -0.25309,-0.24013c-1.25555,-1.97732 -4.00206,-0.22632 -5.82041,-0.22158h-0.44444c0,0 -0.75,0 -0.75,-0.75c0,-0.75 0.75,-0.75 0.75,-0.75h0.44444c2.17321,0.00493 4.3226,-1.37346 6.10987,-0.11428c0.1949,-0.84996 0.63958,-1.63624 1.41464,-2.27128c1.25231,-1.02608 2.75193,-1.35951 4.28958,-1.46068l-0.09078,-0.19772c-0.15876,-0.55993 -0.27809,-1.13226 -0.36031,-1.70843c0.06742,-1.36563 -1.81016,-1.07103 -2.96386,-1.31966c-2.94133,-0.63387 -6.05534,-1.28354 -8.64978,0.44609c0,0 -0.62403,0.41603 -1.04006,-0.20801c-0.41602,-0.62404 0.20801,-1.04006 0.20801,-1.04006c2.91567,-1.94378 6.19931,-1.38348 9.45063,-0.68579c0.01744,-0.12295 0.05382,-0.20783 0.05382,-0.20783c0.22222,-0.51852 0.44445,-1.03704 0.66666,-1.55555l-0.06064,-0.37123c0,0 0,-0.75 0.75,-0.75c0.75,0 0.75,0.75 0.75,0.75l-0.06064,0.96211c-0.2118,0.4942 -0.4236,0.9884 -0.6354,1.4826c1.64177,0.29429 2.95651,0.18404 3.02749,2.39102c0.06778,0.47376 0.17383,0.94281 0.30636,1.40268l0.06079,0.09286c0,0 0.11148,0.22296 0.07736,0.47607c0.0276,0.00001 0.05518,0.00005 0.08276,0.00011c1.37381,0.19311 2.55246,0.56233 3.71803,1.26226c0.14554,-0.12311 0.31042,-0.23006 0.49735,-0.31816c0.57117,-0.2692 1.96959,-0.05709 2.62035,-0.05709c0.54378,0.00447 2.48199,0.79687 2.8241,0.61265c0.79188,-0.42641 1.64777,-1.05709 2.56294,-1.44472c-0.34441,-1.21601 -1.07629,-4.02487 -0.49274,-5.21626c0.29307,-0.59833 1.0666,-0.97898 1.14102,-1.64106l-0.00754,-0.11616c0,0 0,-0.75 0.75,-0.75c0.75,0 0.75,0.75 0.75,0.75l-0.00753,0.32829c-0.19628,1.20535 -0.73104,1.32225 -1.30343,2.13672c-0.36381,0.51768 0.42913,3.46025 0.61545,4.10673c0,0 0.00605,0.02121 0.01246,0.05739c0.32581,-0.00654 0.65797,0.03976 0.99631,0.1556c2.64379,0.35496 5.30537,0.6592 7.93171,1.02837l-0.01903,-0.28763c0,0 0.58565,-0.46852 1.05417,0.11713c0.46852,0.58565 -0.11713,1.05417 -0.11713,1.05417zM231.50315,177.09775c1.02903,-0.90007 3.90223,-1.52177 6.27339,-1.68568l0.00401,-0.01961c0.3803,-1.28102 0.06889,-3.45576 0.583,-5.01732c-0.93846,-0.57875 -1.92357,-0.86812 -3.02614,-1.02853c-4.98752,0.01298 -7.81587,3.77407 -3.86095,7.72155c0,0 0.01034,0.01035 0.02669,0.02958zM239.28486,175.37329c0.56901,0.01489 1.05619,0.06923 1.40934,0.167c0.76896,0.2129 1.5765,0.927 2.23341,1.37747c0.90379,0.24839 2.57167,0.59418 3.27593,1.21526c0.40991,0.36149 0.59567,0.7507 0.67309,1.15984c0.5808,-0.64568 1.37196,-0.9316 2.2579,-1.04355c0.03389,-0.04486 0.05906,-0.07002 0.05906,-0.07002c1.05678,-1.05678 1.87165,-2.97182 3.02093,-4.02224c-0.47492,-1.35773 -1.16277,-4.09848 -2.0439,-4.73054c-0.14083,-0.10102 -0.27841,-0.1823 -0.41298,-0.24602c-0.38116,-0.05107 -0.76194,-0.10338 -1.14218,-0.15737c-1.10506,0.20752 -2.01623,1.36507 -2.93786,1.71274c-1.13304,0.42741 -2.25307,-0.51078 -3.39812,-0.49847c-0.56076,0 -1.51672,-0.19331 -2.04632,-0.05709c-0.87288,0.22451 -0.82738,3.80895 -0.94829,5.19299z" stroke-width="0.5" stroke-linecap="butt"/><path d="M220.92622,193.32291c-0.17454,-0.21844 -0.17454,-0.50219 -0.17454,-0.50219l0.02886,-0.53937c0.19477,-0.65747 0.35837,-1.63145 1.12905,-1.94235c0.37948,-0.15308 1.14366,0.10985 1.80519,0.31266c1.60134,-0.39882 3.58923,-0.23072 5.17071,0.05768c0.06009,0.0014 0.12027,0.00336 0.18056,0.00592l0.02237,-0.00959l-0.02614,-0.18296l0.76501,-0.10929c0.03871,-0.00616 0.0784,-0.00936 0.11884,-0.00936c0.41421,0 0.75,0.33579 0.75,0.75c0,0.3154 -0.19469,0.58533 -0.47045,0.69617l-0.76189,0.32652l-0.03874,-0.09039l-0.15836,0.14455c-0.1518,-0.01734 -0.31423,-0.03747 -0.48517,-0.05908c-0.88565,0.47528 -2.91503,0.12645 -4.47179,-0.15936c-1.13221,0.21316 -1.96043,0.77658 -1.94694,2.03048c0,0 0,0.75 -0.75,0.75c-0.75,0 -0.75,-0.75 -0.75,-0.75c0.00211,-0.2565 0.02381,-0.49619 0.06342,-0.72003z" stroke-width="0.5" stroke-linecap="butt"/><path d="M245.3628,191.37627c0,0.75 -0.75,0.75 -0.75,0.75l-0.7616,-0.02886c-0.22525,-0.06687 -0.45051,-0.13374 -0.67576,-0.20061c-2.54432,0.01877 -5.11568,0.00425 -7.67375,0.00725c-0.71457,0.00084 -2.12071,-0.2778 -2.7757,0.03193c-0.6048,0.286 -1.1773,1.82067 -1.42383,2.4024c0,0 -0.29544,0.68936 -0.9848,0.39392c-0.68936,-0.29544 -0.39392,-0.9848 -0.39392,-0.9848c0.42754,-0.98821 1.11651,-2.63395 2.13173,-3.15316c0.89707,-0.45878 2.46413,-0.19152 3.44652,-0.19029c2.63483,0.00331 5.25549,-0.00975 7.8818,0.00725c0.29326,0.08128 0.58653,0.16255 0.87979,0.24383l0.34951,-0.02886c0,0 0.75,0 0.75,0.75z" stroke-width="0.5" stroke-linecap="butt"/><path d="M243.06943,196.4494l-0.6839,0.11378c-0.24248,0.03405 -0.48495,0.0681 -0.72743,0.10216c-2.35723,0.65724 -5.47577,0.46382 -7.93419,0.46094c-0.82117,-0.00096 -1.73837,-0.02472 -2.53583,-0.25008c-0.31778,-0.0898 -0.85407,-0.81903 -0.86165,-0.48889c-0.01779,0.77459 -0.13484,1.27953 -0.46871,2.06218c0,0 -0.29544,0.68936 -0.9848,0.39392c-0.68936,-0.29544 -0.39392,-0.9848 -0.39392,-0.9848c0.17898,-0.41546 0.63643,-2.42998 0.86462,-2.60448c0.87833,-0.6717 2.65883,0.3028 3.65568,0.37403c2.45955,0.17575 6.0039,0.25781 8.34597,-0.42984c0.27604,-0.04002 0.55209,-0.08004 0.82813,-0.12007l0.64943,-0.10844c0,0 0.22273,-0.03712 0.44414,0.05159c0.15263,-0.2747 0.47312,-0.36627 0.47312,-0.36627c2.75349,-0.78671 0.18954,-2.59959 2.55791,-3.84848c2.0658,-1.08934 6.53715,-0.50841 8.87036,-0.51371c1.0679,0.00242 2.15966,0.08111 3.21718,0.22976l0.11616,-0.00754c0,0 0.75,0 0.75,0.75c0,0.75 -0.75,0.75 -0.75,0.75l-0.32829,-0.00754c-0.98367,-0.14311 -2.01104,-0.21727 -3.00505,-0.21468c-2.06803,-0.00539 -4.15383,0.2198 -6.22222,0.22222c-0.36905,0.00043 -2.10901,-0.2102 -2.33874,0.27056c-0.23216,0.48582 0.32142,1.57729 0.03935,2.24712c-0.51576,1.22478 -1.37996,1.24612 -2.49457,1.56458c0,0 -0.2708,0.07737 -0.52792,-0.02865c-0.16739,0.31607 -0.55482,0.38064 -0.55482,0.38064z" stroke-width="0.5" stroke-linecap="butt"/><path d="M228.14313,195.06817c0.53033,0.53033 0,1.06066 0,1.06066l-0.33653,0.31593c-1.12591,0.7348 -2.13519,0.89017 -3.46919,0.79074c-0.60983,-0.04545 -1.94037,-1.1322 -1.74984,-0.55112c0.05241,0.15985 0.04404,0.31776 -0.00507,0.47256l0.1641,0.07033l-0.32652,0.76189c-0.11084,0.27576 -0.38077,0.47045 -0.69617,0.47045c-0.41421,0 -0.75,-0.33579 -0.75,-0.75c0,-0.25926 0,-1.2963 0,-1.55556c0,0 0,-0.75 0.75,-0.75c0.05135,0 0.09919,0.00352 0.14375,0.01007c1.32915,-0.56938 3.63213,0.79386 5.10689,-0.21744l0.10792,-0.12851c0,0 0.53033,-0.53033 1.06066,0z" stroke-width="0.5" stroke-linecap="butt"/><path d="M220.76625,194.00697c0.12902,-0.64512 0.71077,-0.61116 0.8517,-0.5931c0.28417,-0.19526 0.64533,-0.09207 0.64533,-0.09207c0.51304,0.14786 0.99682,0.23249 1.459,0.26255c1.8566,-0.12906 3.21847,-0.97689 4.81268,-1.58311c0.16955,-0.10829 0.34046,-0.22023 0.51327,-0.33519l-0.02976,-0.05207l0.76634,-0.43791c0.11222,-0.06691 0.24339,-0.10535 0.38354,-0.10535c0.41421,0 0.75,0.33579 0.75,0.75c0,0.26446 -0.13688,0.49695 -0.34365,0.63049l-0.65699,0.43799c-0.11642,0.07762 -0.23235,0.15385 -0.34787,0.2286c-0.34574,1.0208 -2.09132,1.54795 -3.85859,1.78678c-0.69681,0.15861 -1.41695,0.22121 -2.18001,0.16444c-0.67855,0.01286 -1.24518,-0.01355 -1.58007,-0.0614l-0.59658,-0.11814c0,0 -0.73544,-0.14709 -0.58835,-0.88252z" stroke-width="0.5" stroke-linecap="butt"/><path d="M228.30648,196.98742c0.6,0.45 0.15,1.05 0.15,1.05l-0.24397,0.28988c-0.98772,1.95897 -2.98227,1.45456 -4.91158,1.45456c0,0 -0.75,0 -0.75,-0.75c0,-0.75 0.75,-0.75 0.75,-0.75c0.9613,0 3.24747,0.49729 3.53286,-0.54544l0.42269,-0.599c0,0 0.45,-0.6 1.05,-0.15z" stroke-width="0.5" stroke-linecap="butt"/><path d="M258.94613,193.40405c0.75,0 0.75,0.75 0.75,0.75v0.44444c0,0.53624 -0.00067,1.07248 -0.00189,1.60872c-0.64205,4.5677 -7.58253,3.11958 -11.60983,1.47475c0.16982,0.1375 0.27839,0.34767 0.27839,0.5832c0,0.41421 -0.33579,0.75 -0.75,0.75c-0.04044,0 -0.08013,-0.0032 -0.11884,-0.00936l-0.72521,-0.1036c-0.75569,0.00194 -1.51137,0.00185 -2.26706,0.00185c-4.6736,0 -9.33367,0.11111 -14,0.11111c0,0 -0.75,0 -0.75,-0.75c0,-0.75 0.75,-0.75 0.75,-0.75c4.43654,0 8.86767,-0.10044 13.30997,-0.11033c-0.14058,-0.11806 -0.49669,-0.48944 -0.15623,-1.00014c0.41603,-0.62404 1.04006,-0.20801 1.04006,-0.20801l0.44764,0.31593c0.37239,0.38838 0.86075,0.65672 1.37855,0.89261c0.12217,0.0002 0.24434,0.00044 0.36651,0.00072l-0.00468,0.15836c0.01123,0.00481 0.02247,0.00961 0.0337,0.01441l0.02387,-0.16712l0.75681,0.10812c-0.56604,-0.24431 -1.06172,-0.48875 -1.45721,-0.71447c0,0 -0.65118,-0.3721 -0.27908,-1.02329c0.3721,-0.65118 1.02329,-0.27908 1.02329,-0.27908c2.7848,1.5931 4.72686,2.00823 7.96123,2.01229c1.85548,0.00233 2.97991,0.45517 3.25189,-1.41428c-0.0013,-0.50079 -0.00189,-1.00159 -0.00189,-1.50239v-0.44444c0,0 0,-0.75 0.75,-0.75z" stroke-width="0.5" stroke-linecap="butt"/><path d="M245.03202,191.73483c0.46693,0.46693 0.11164,0.93386 0.02002,1.03883c-0.07909,0.25358 -0.15819,0.50716 -0.23728,0.76074c-3.05556,3.11332 -11.1229,3.47468 -14.79629,1.38195c0,0 -0.65118,-0.3721 -0.27908,-1.02329c0.3721,-0.65118 1.02329,-0.27908 1.02329,-0.27908c2.87374,1.64761 10.22805,1.5775 12.75927,-0.84027c0.04916,-0.20116 0.09832,-0.40232 0.14748,-0.60347l0.30192,-0.4354c0,0 0.53033,-0.53033 1.06066,0z" stroke-width="0.5" stroke-linecap="butt"/><path d="M250.65765,199.169c-0.23717,0.71151 -0.94868,0.47434 -0.94868,0.47434l-0.3916,-0.13327c-1.03057,-0.45848 -1.67942,-1.29934 -2.68603,-1.78641c-1.67624,-0.81108 -2.9015,-0.44276 -4.49867,-1.77123c0,0 -0.19111,-0.15926 -0.26148,-0.4044c-4.43063,0.45736 -8.78893,2.28048 -12.89663,-0.43661c0,0 -0.024,-0.01601 -0.05946,-0.04645c-2.32792,1.73223 -5.50451,2.18344 -8.07155,0.36604c0,0 -0.6103,-0.43593 -0.17437,-1.04623c0.43593,-0.6103 1.04623,-0.17437 1.04623,-0.17437c3.01063,2.17309 7.07306,0.14832 8.43026,-3.01847l0.24076,-0.48442c0,0 0.33541,-0.67082 1.00623,-0.33541c0.67082,0.33541 0.33542,1.00623 0.33542,1.00623l-0.20369,0.40447c-0.35685,0.83265 -0.85725,1.59073 -1.4601,2.24642c4.10118,2.52319 8.77131,-0.11028 13.22227,-0.06239c0.38935,0.03391 1.07037,-2.8695 1.27177,-3.5744l0.83226,-0.54396c0,0 0.75,0 0.75,0.75c0,0.2824 -0.10633,0.45847 -0.23892,0.56824c-0.42146,1.6036 -0.71307,3.39015 -2.08342,4.13695c1.11847,0.62061 2.04239,0.43238 3.44269,1.05852c1.00543,0.44957 1.64603,1.36262 2.64731,1.76916l0.27506,0.08896c0,0 0.71151,0.23717 0.47434,0.94868z" stroke-width="0.5" stroke-linecap="butt"/><path d="M220.76418,199.23585v-38.47171h38.47171v38.47171z" stroke-width="1.5" stroke-linecap="butt"/><path d="M220.77998,199.23961v-9.09671h38.47171v9.09671z" stroke-width="1.5" stroke-linecap="butt"/><path d="M227.72183,199.15821c-0.67082,-0.33541 -0.33541,-1.00623 -0.33541,-1.00623l0.14305,-0.10904c0.00314,-1.3853 0.13,-2.39125 1.10856,-3.41922c0,0 0.53033,-0.53033 1.06066,0c0.53033,0.53033 0,1.06066 0,1.06066c-0.70565,0.65121 -0.67164,1.42787 -0.66922,2.35856l-0.3014,0.77986c0,0 -0.33542,0.67082 -1.00624,0.33541z" stroke-width="0.5" stroke-linecap="butt"/></g></g></svg>