<svg version="1.1" xmlns="http://www.w3.org/2000/svg" xmlns:xlink="http://www.w3.org/1999/xlink" width="38.35883" height="34.82467" viewBox="0,0,38.35883,34.82467"><defs><linearGradient x1="226.35306" y1="188.23275" x2="226.35306" y2="193.32116" gradientUnits="userSpaceOnUse" id="color-1"><stop offset="0" stop-color="#4d3b2e"/><stop offset="1" stop-color="#271e17"/></linearGradient></defs><g transform="translate(-221.28785,-163.49262)"><g data-paper-data="{&quot;isPaintingLayer&quot;:true}" fill-rule="nonzero" stroke-linejoin="miter" stroke-miterlimit="10" stroke-dasharray="" stroke-dashoffset="0" style="mix-blend-mode: normal"><path d="M254.23581,178.64601l0.11808,-9.56489" fill="none" stroke="#2b2b2b" stroke-width="1.5" stroke-linecap="round"/><path d="M225.71763,188.36463l0.1089,-0.00012c0.59532,-0.00074 1.1062,0.03241 1.65973,0.24078c1.09877,0.5757 3.84841,1.78625 3.08568,3.31233c-0.14144,0.283 -0.4441,0.54128 -0.67957,0.75127c-0.2699,0.24069 -0.48069,0.33839 -0.83392,0.43616c-1.28111,0.36485 -2.75043,0.19338 -4.05381,0.02563c-1.21991,-0.15701 -2.30589,-0.26453 -2.96679,-1.35649c-0.32364,-1.60451 1.62963,-3.41708 3.3825,-3.54143c0.10398,0.13222 0.29729,0.13188 0.29729,0.13188z" data-paper-data="{&quot;noHover&quot;:false,&quot;origItem&quot;:[&quot;Path&quot;,{&quot;applyMatrix&quot;:true,&quot;segments&quot;:[[[236.73193,174.2664],[0.35994,0.48491],[-6.06787,0.456]],[[225.05501,187.19505],[-1.12034,-5.88437],[2.28781,4.00464]],[[235.30031,192.13772],[-4.22296,-0.57581],[4.5119,0.6152]],[[249.27257,192.05402],[-4.43481,1.33806],[1.22278,-0.35859]],[[252.15278,190.4635],[-0.93429,0.88269],[0.8151,-0.77009]],[[254.50067,187.71919],[-0.48963,1.03786],[2.64034,-5.59671]],[[243.84504,175.63021],[3.80362,2.11133],[-1.91613,-0.76414]],[[238.13176,174.75131],[2.06079,-0.00269],[0,0]],[237.75676,174.75131]],&quot;closed&quot;:true}]}" fill="url(#color-1)" stroke="#937257" stroke-width="1.5" stroke-linecap="butt"/><path d="M228.65388,195.03357l8.76239,-18.15945l2.5716,1.24086l-8.76239,18.15945z" fill="#999999" stroke="#7d7d7d" stroke-width="1.5" stroke-linecap="butt"/><path d="M227.36898,197.56729v-2.28426h5.42513v2.28426z" fill="#999999" stroke="#7d7d7d" stroke-width="1.5" stroke-linecap="butt"/><path d="M228.76389,183.97932l-3.19644,7.32175" fill="none" stroke="#2b2b2b" stroke-width="1.5" stroke-linecap="round"/><path d="M253.99965,195.89601l0.11808,-9.56489" fill="none" stroke="#2b2b2b" stroke-width="1.5" stroke-linecap="round"/><path d="M251.4332,194.98954l-12.0459,-16.16915l2.28975,-1.70585l12.0459,16.16915z" fill="#999999" stroke="#7d7d7d" stroke-width="2" stroke-linecap="butt"/><path d="M238.0231,180.38656l-2.00871,-3.28994l20.59263,-12.57305l2.00871,3.28994z" fill="#707070" stroke="#5a5a5a" stroke-width="1.5" stroke-linecap="butt"/><path d="M235.77249,182.28084c0.08768,-0.31946 0.10989,-0.62042 0.07596,-0.90408c-0.13213,-0.08977 -0.28047,-0.16185 -0.447,-0.2136c-0.0034,-0.00106 -0.00678,-0.00208 -0.01016,-0.0031c-0.4166,0.21861 -0.85262,0.41801 -1.27882,0.58382c-0.51163,0.6111 -0.96724,1.50994 -1.56517,1.93298l-0.11265,0.01789l0.0171,0.03431l-0.48846,0.24349c0.42231,0.49006 0.87776,0.95186 1.36401,1.38591l0.70598,-1.26095l0.28999,0.16236c0.22404,-0.58381 0.52026,-1.12783 0.9258,-1.59319zM237.08947,187.89315l-0.00035,-0.00553c-0.15883,-0.4414 -0.17183,-1.14813 -0.17041,-1.94291c-0.06641,0.08085 -0.13492,0.1616 -0.20553,0.24226l-0.1047,0.03593l0.02884,0.03374l-0.9773,0.83562c0.45922,0.28425 0.9361,0.55112 1.42944,0.8009zM233.26512,178.68439c-0.80312,-0.38961 -1.70917,-0.70958 -2.59145,-0.97673l0.0001,0.00061l-1.52257,0.24393c-0.08351,0.01479 -0.16861,0.02231 -0.25435,0.02219c0.29853,1.2079 0.7234,2.3231 1.26203,3.34852c0.31722,-0.71329 0.76115,-1.33414 1.39445,-1.73245c0.0229,-0.0144 0.86701,-0.51484 1.71179,-0.90607zM237.28678,191.18258c-6.28718,-2.65624 -11.02789,-7.88811 -11.64283,-14.93623c-0.1133,-1.29859 -0.27107,-5.12292 0.92844,-5.98426c2.03952,-1.46453 4.63784,0.62848 5.8262,1.9619c4.22433,3.70663 8.1494,8.02863 8.30054,13.93384l-0.03587,0.06741l0.0321,0.00251l-0.11992,1.53456c-0.0089,0.1628 -0.04558,0.32687 -0.11269,0.48571c-0.06012,0.1423 -0.14028,0.27003 -0.23579,0.38126l-0.16045,0.87638c-0.0182,0.11253 -0.05002,0.22471 -0.09636,0.33438c-0.17357,0.41082 -0.51409,0.70012 -0.90924,0.8223c-0.61619,1.00943 -1.77413,0.52022 -1.77413,0.52022zM230.08682,174.63068c0.18913,-0.01211 0.37817,-0.04191 0.56702,-0.08224c-0.10798,-0.09588 -0.21566,-0.19111 -0.32291,-0.28569c-0.03713,-0.04597 -1.96085,-1.76964 -1.98771,-1.69939c-0.16492,0.43146 -0.08681,1.52885 0.05145,2.59749c0.0239,-0.00887 0.04804,-0.01711 0.07239,-0.02472l1.44746,-0.46188l0.02608,0.08175z" fill="#707070" stroke="#5a5a5a" stroke-width="1.5" stroke-linecap="butt"/><path d="M248.78395,197.28176v-3.56916h5.85343v3.56916z" fill="#999999" stroke="#7d7d7d" stroke-width="1.5" stroke-linecap="butt"/><path d="M254.11773,186.33112l0.11808,-9.56489" fill="none" stroke="#2b2b2b" stroke-width="1.5" stroke-linecap="round"/></g></g></svg>