<svg version="1.1" xmlns="http://www.w3.org/2000/svg" xmlns:xlink="http://www.w3.org/1999/xlink" width="30.69526" height="48.29208" viewBox="0,0,30.69526,48.29208"><g transform="translate(-224.8942,-140.72601)"><g data-paper-data="{&quot;isPaintingLayer&quot;:true}" fill-rule="nonzero" stroke="none" stroke-linecap="butt" stroke-linejoin="miter" stroke-miterlimit="10" stroke-dasharray="" stroke-dashoffset="0" style="mix-blend-mode: normal"><path d="M247.40967,165.86267l0.22202,0.55164c0.3528,0.82264 0.66968,1.66413 0.9845,2.50195c0.54409,1.90693 2.14652,7.91312 0.17985,9.41818c-0.92284,0.70624 -1.50784,-0.90288 -1.9009,-2.57191c-0.06901,-0.95998 -0.12228,-1.89932 -0.12257,-2.84991l-0.02554,-0.04346l0.02133,-0.00271l-0.10724,-0.87454c-0.04137,-0.37508 -0.3556,-0.66189 -0.74171,-0.66189c-0.41421,0 -0.67366,0.2712 -0.67366,0.68542c0,0.02059 0.00106,0.04126 0.00269,0.06144l0.11198,1.49699l0.00139,-0.0001c-0.00029,0.00233 -0.00056,0.00471 -0.00084,0.00704c-0.07794,0.63347 -0.02489,1.6736 0.172,2.71912c0.14281,1.90808 0.27905,3.85802 0.04422,5.73666c-0.00157,0.89127 0.18162,4.86613 -0.49501,5.34647c-0.23731,0.16847 -2.49879,-0.03586 -2.88821,-0.0365c-0.19633,-0.00032 -1.76033,0.07484 -2.1232,-0.17067c0.0849,-0.30518 0.14132,-0.73516 0.17887,-1.07934c0.06453,-0.13211 0.11462,-0.26318 0.12112,-0.38576c0.08369,-1.57785 0.12408,-2.84438 -0.21909,-4.21868c0,-0.00108 -0.00249,-0.10212 -0.00249,-0.1032l0.00068,-0.00552l0.2162,-0.02416l-0.10379,-0.89121c-0.03709,-0.37956 -0.36753,-0.67666 -0.75683,-0.67666c-0.38611,0 -0.71144,0.29006 -0.75281,0.66515l-0.08158,0.78312l0.01936,0.00239l-0.02378,0.04401c-0.0004,0.28809 0.06292,1.19318 0.10026,2.22236c-0.85385,-1.89186 -2.61321,-2.96339 -4.47028,-3.04607c-0.00377,-1.42246 0.06158,-2.84383 0.24306,-4.20526c0.09231,-0.69248 0.36997,-1.57377 0.34453,-2.29802c0.06557,-0.3591 0.14457,-0.72438 0.22243,-1.08091l-0.03361,-0.08215l0.03843,-0.00015l0.00303,-0.78154c0,-0.41421 -0.26131,-0.68326 -0.67553,-0.68326c-0.36345,0 -0.66274,0.2538 -0.73157,0.597l-0.21574,0.98024l0.16878,0.03782c-0.03196,0.14554 -0.0614,0.2887 -0.09082,0.43482c-0.34032,1.05147 -0.51024,2.14728 -0.59131,3.29233c-0.34278,0.95709 -1.08575,1.67782 -2.32424,0.9771c-0.49801,-0.28177 -0.32909,-2.44183 -0.32935,-2.83298c-0.00181,-2.7106 0.8707,-5.3561 2.16413,-7.72117c0.27003,-0.05499 0.45267,-0.26739 0.45267,-0.26739c2.11199,-2.50239 7.13949,-1.1705 10.0579,-1.30226c1.38768,-0.06265 2.95391,-0.30772 4.24632,0.28018z" data-paper-data="{&quot;noHover&quot;:false,&quot;origItem&quot;:[&quot;Path&quot;,{&quot;applyMatrix&quot;:true,&quot;segments&quot;:[[[496.43499,290.36259],[0,0],[-2.5848,-1.17581]],[[487.97232,289.8161],[2.77535,-0.1253],[-5.83683,0.26353]],[[467.94253,292.40451],[4.22399,-5.00478],[0,0]],[[467.04065,292.93661],[0.54007,-0.10999],[-2.58686,4.73015]],[[462.74809,308.31721],[-0.00361,-5.42119],[0.00052,0.7823]],[[463.40716,313.95383],[-0.99603,-0.56354],[2.47697,1.40145]],[[467.85663,312.01728],[-0.68556,1.91418],[0.16213,-2.29009]],[[469.04847,305.38632],[-0.68063,2.10294],[0.05884,-0.29223]],[[469.23279,304.51134],[-0.06392,0.29109],[0,0]],[468.89492,304.43626],[[469.33295,302.4651],[0,0],[0.13765,-0.68639]],[[470.80364,301.26165],[-0.7269,0],[0.82843,0]],[[472.30364,302.76165],[0,-0.82843],[0,0]],[472.30364,304.31721],[472.22701,304.31721],[[472.29469,304.48088],[0,0],[-0.15574,0.71307]],[[471.85883,306.6273],[0.13113,-0.71819],[0.05089,1.4485]],[[471.17926,311.18297],[0.18462,-1.38496],[-0.70876,5.31694]],[[470.96654,327.54421],[-0.3625,-5.35496],[0.04402,0.65029]],[[471.04523,332.88685],[-0.26208,-0.2819],[0.49196,0.52915]],[[473.2066,333.05036],[-0.71548,-0.10061],[1.3984,0.14085]],[[478.67406,333.37583],[-1.38221,0.40107],[1.57041,-0.45568]],[[479.30654,321.33511],[-0.00212,1.5314],[0,0]],[479.35432,321.24715],[479.31523,321.24227],[[479.53498,319.48423],[0,0],[0.08274,-0.75016]],[[481.02587,318.15054],[-0.77221,0],[0.7786,0]],[[482.51869,319.50288],[-0.07417,-0.75912],[0,0]],[482.73891,321.48489],[482.30218,321.53342],[[482.3008,321.54447],[0,0],[0.00001,0.00215]],[[482.30082,321.55093],[-0.00001,-0.00215],[0.68633,2.74861]],[[482.74519,330.18819],[0.16737,-3.1557],[-0.013,0.24515]],[[482.50156,330.95975],[0.12905,-0.26423],[-0.0751,0.68836]],[[482.14107,332.91845],[0.1698,-0.61036],[0.72575,0.49101]],[[486.3685,333.26168],[-0.39266,-0.00064],[0.77885,0.00126]],[[492.12257,333.34191],[-0.47462,0.33694],[1.35326,-0.96069]],[[493.08432,322.66845],[-0.00313,1.78255],[0.46966,-3.75727]],[[492.96593,311.26793],[0.28561,3.81615],[-0.39377,-2.09104]],[[492.63336,305.8747],[-0.15588,1.26694],[0.00057,-0.00467]],[[492.63509,305.8607],[-0.00058,0.00467],[0,0]],[492.63231,305.8609],[[492.41967,302.88397],[0,0],[-0.00326,-0.04034]],[[492.41476,302.76165],[0,0.04118],[0,-0.82843]],[[493.91476,301.26165],[-0.82843,0],[0.77221,0]],[[495.40564,302.59534],[-0.08274,-0.75016],[0,0]],[495.62539,304.35338],[495.58269,304.35872],[[495.63408,304.44622],[0,0],[0.00057,1.90117]],[[495.88986,310.1828],[-0.13802,-1.91996],[0.78614,3.33805]],[[499.49447,315.31377],[-1.84568,1.41247],[3.93334,-3.01012]],[[499.15688,296.56475],[1.08818,3.81386],[-0.62963,-1.67564]],[[497.2027,291.57475],[0.70559,1.64528],[0,0]],[496.76188,290.47383]],&quot;closed&quot;:true}]}" fill="#0060b9" stroke-width="0.5"/><path d="M244.95738,183.74194l0.40847,-0.09655c0,0 0.08409,-0.01682 0.20108,-0.01065c-0.00447,-0.72067 -0.02528,-1.34203 -0.02477,-1.63385c0.23483,-1.87863 0.08361,-3.79218 -0.0592,-5.70026c-0.19689,-1.04552 -0.24423,-2.06314 -0.16629,-2.69661c0.00029,-0.00233 0.00058,-0.00467 0.00087,-0.007l-0.00139,0.0001l-0.10632,-1.48847c-0.00163,-0.02017 -0.00246,-0.04057 -0.00246,-0.06116c0,-0.41421 0.33579,-0.75 0.75,-0.75c0.38611,0 0.70407,0.29176 0.74544,0.66685l0.10988,0.87902l-0.02135,0.00267l0.02569,0.04375c0.00029,0.95059 0.05888,1.90831 0.12789,2.86829c0.39307,1.66903 0.87946,3.27172 1.8023,2.56548c1.96667,-1.50506 0.3753,-7.46758 -0.16879,-9.37451c-0.31481,-0.83782 -0.62429,-1.67236 -0.97709,-2.495l-0.22041,-0.55046l-0.16344,-0.05562c-1.2924,-0.5879 -2.84366,-0.3359 -4.23133,-0.27324c-2.91841,0.13176 -7.9029,-1.20819 -10.0149,1.2942c0,0 -0.18091,0.21106 -0.45094,0.26605c-1.29343,2.36508 -2.14808,4.9797 -2.14628,7.6903c0.00026,0.39115 -0.16848,2.53654 0.32953,2.81831c1.23849,0.70073 1.88196,-0.01119 2.22474,-0.96828c0.08107,-1.14505 0.2556,-2.26401 0.59592,-3.31548c0.02942,-0.14611 0.0602,-0.29195 0.09216,-0.43749l-0.16893,-0.03754l0.21902,-0.98558c0.06882,-0.34319 0.37189,-0.60172 0.73534,-0.60172c0.41421,0 0.75,0.33579 0.75,0.75v0.77778h-0.03832l0.03384,0.08184c-0.07787,0.35653 -0.15236,0.71411 -0.21793,1.07321c0.02544,0.72425 -0.24748,1.58536 -0.33978,2.27784c-0.18246,1.36873 -0.25327,2.78681 -0.25431,4.20602c-0.47391,-0.02463 -0.95455,0.01517 -1.42848,0.12218c-0.01783,-0.54384 -0.03299,-1.09228 -0.03786,-1.64094c-0.75941,0.55717 -1.75008,0.68037 -2.99114,-0.04959c-0.76411,-0.44943 -0.99806,-2.19498 -1.0038,-2.95946c-0.0263,-3.50166 0.72475,-6.61808 2.42772,-9.69757c0,0 0.20243,-0.36438 0.57712,-0.39893c2.63736,-2.95695 7.48515,-1.60092 11.04972,-1.76406v0.00001c1.68339,-0.07704 3.29918,-0.25542 4.87978,0.39342l0.27506,0.08896c0,0 0.39623,0.13208 0.49876,0.49479c0.12602,0.12994 0.18265,0.27151 0.18265,0.27151l0.21522,0.53866c0.36945,0.86261 0.69399,1.73733 1.02291,2.61611c0.76685,2.68075 2.35323,9.02852 -0.39102,11.06993c-1.00602,0.74837 -1.81417,0.72567 -2.44725,0.2669c0.0026,0.7631 -0.03111,1.52326 -0.12545,2.27799c0.00294,1.48101 0.23738,5.40283 -1.07468,6.44105c-1.03347,0.81777 -4.82283,0.4807 -6.50223,-0.21671c-0.12658,0.13998 -0.2709,0.26058 -0.43518,0.35837c0.25112,-1.43847 0.32964,-2.81139 0.18359,-3.68659c-0.09107,-0.54575 -0.24548,-1.04645 -0.45201,-1.49977c-0.04112,-0.9974 -0.10587,-1.87147 -0.10548,-2.15621l0.02389,-0.04398l-0.01954,-0.00244l0.10988,-0.87902c0.04137,-0.37508 0.35933,-0.66685 0.74544,-0.66685c0.3893,0 0.70933,0.29661 0.74641,0.67617l0.11011,0.99101l-0.21837,0.02426l-0.00069,0.00552c0,0.00108 0.00001,0.00215 0.00001,0.00323c0.1824,0.73046 0.25731,1.45872 0.27491,2.21767c1.50923,0.04438 3.0186,0.08213 4.53206,0.08213zM244.95738,185.24194c-1.52141,0 -3.03849,-0.03814 -4.55538,-0.08281c-0.00854,0.19733 -0.01859,0.39772 -0.0294,0.60164c-0.0065,0.12257 -0.05729,0.25366 -0.12182,0.38578c-0.03755,0.34418 -0.09534,0.67417 -0.18024,0.97935c0.36288,0.24551 1.91738,0.1713 2.11372,0.17161c0.38942,0.00063 2.63973,0.20858 2.87704,0.04011c0.3077,-0.21844 0.43466,-1.15751 0.48179,-2.20044z" fill="#00488c" stroke-width="0.5"/><path d="M245.58927,185.11805c-0.04713,1.04294 -0.1751,2.02253 -0.48279,2.24097c-0.23731,0.16847 -2.55872,-0.01812 -2.94814,-0.01875c-0.19633,-0.00032 -1.77265,0.04605 -2.13552,-0.19945c0.0849,-0.30518 0.14047,-0.65251 0.17802,-0.99669c0.06453,-0.13211 0.11632,-0.27103 0.12282,-0.3936c0.01082,-0.20392 0.02441,-0.41504 0.03295,-0.61237c1.51689,0.04468 3.12447,0.08222 4.64588,0.08222z" data-paper-data="{&quot;noHover&quot;:false,&quot;origItem&quot;:[&quot;Path&quot;,{&quot;applyMatrix&quot;:true,&quot;segments&quot;:[[[244.95738,185.24194],[0,0],[-1.52141,0]],[[240.402,185.15912],[1.51689,0.04468],[-0.00854,0.19733]],[[240.3726,185.76076],[0.01082,-0.20392],[-0.0065,0.12257]],[[240.25078,186.14654],[0.06453,-0.13211],[-0.03755,0.34418]],[[240.07053,187.12589],[0.0849,-0.30518],[0.36288,0.24551]],[[242.18425,187.29751],[-0.19633,-0.00032],[0.38942,0.00063]],[[245.06129,187.33762],[-0.23731,0.16847],[0.3077,-0.21844]],[[245.54308,185.13718],[-0.04713,1.04294],[0,0]]],&quot;closed&quot;:true}]}" fill="#00529f" stroke-width="0.5"/><path d="" data-paper-data="{&quot;noHover&quot;:false,&quot;origItem&quot;:[&quot;Path&quot;,{&quot;applyMatrix&quot;:true,&quot;segments&quot;:[[[234.52262,187.11009],[-0.09627,-0.10354],[0.24598,0.26458]],[[235.6033,187.19185],[-0.35774,-0.0503],[0.6992,0.07043]],[[238.33703,187.35458],[-0.6911,0.20053],[0.33846,-0.09821]],[[238.791,185.11062],[-0.01027,1.1559],[-1.43496,-0.04289]],[[234.47923,185.02116],[1.44072,0.00784],[-0.01706,0.76785]]],&quot;closed&quot;:true}]}" fill="#00529f" stroke-width="0.5"/><path d="" data-paper-data="{&quot;noHover&quot;:false,&quot;origItem&quot;:[&quot;Path&quot;,{&quot;applyMatrix&quot;:true,&quot;segments&quot;:[[[244.95738,185.24194],[0,0],[-1.52141,0]],[[240.402,185.15912],[1.51689,0.04468],[-0.00854,0.19733]],[[240.3726,185.76076],[0.01082,-0.20392],[-0.0065,0.12257]],[[240.25078,186.14654],[0.06453,-0.13211],[-0.03755,0.34418]],[[240.07053,187.12589],[0.0849,-0.30518],[0.36288,0.24551]],[[242.18425,187.29751],[-0.19633,-0.00032],[0.38942,0.00063]],[[245.06129,187.33762],[-0.23731,0.16847],[0.3077,-0.21844]],[[245.54308,185.13718],[-0.04713,1.04294],[0,0]]],&quot;closed&quot;:true}]}" fill="#00529f" stroke-width="0.5"/><path d="M238.28699,178.2333c0.23931,2.94362 0.17272,11.67623 -3.1666,6.22961c-0.28746,-0.46886 -0.55315,-0.98407 -0.77385,-1.48768c-0.16653,-1.24734 -0.61346,-2.80022 -0.44949,-4.05539c0.35845,-2.74404 3.11576,-2.20348 4.38994,-0.68654z" data-paper-data="{&quot;noHover&quot;:false,&quot;origItem&quot;:[&quot;Path&quot;,{&quot;applyMatrix&quot;:true,&quot;segments&quot;:[[[481.97189,357.48066],[2.35996,-2.81489],[-0.44323,5.46227]],[[487.74989,368.86194],[-6.18487,10.10691],[0.53241,-0.87003]],[[489.13713,366.13443],[-0.40877,0.93452],[0.30844,-2.31461]],[[489.98481,358.74748],[0.30369,2.32913],[-0.66392,-5.09193]]],&quot;closed&quot;:true}],&quot;index&quot;:null}" fill="#00529f" stroke-width="0.5"/><path d="M238.9675,177.29951c0.55213,0.05649 0.62694,0.65496 0.62694,0.65496c0.02524,0.20446 0.05264,0.41896 0.08088,0.6416c0.00888,0.02991 0.03854,0.14088 0.03523,0.27918c0.19881,1.5869 0.41085,3.52596 0.18975,5.17595c0.3666,0.19757 0.3666,0.66296 0.3666,0.66296c0,0.78149 -0.00144,1.50552 0.10922,2.28017l0.00096,0.42368c0.15233,0.04352 0.30465,0.08704 0.45697,0.13056c0,0 0.72114,0.20604 0.5151,0.92718c-0.20604,0.72114 -0.92718,0.5151 -0.92718,0.5151c-0.25926,-0.07407 -0.51852,-0.14815 -0.77778,-0.22222l-0.6884,-0.45448c0,0 -0.6,-0.45 -0.15,-1.05c0.02424,-0.03232 0.04892,-0.0616 0.07391,-0.08806l0.0002,-0.07544c-0.01592,-0.11141 -0.02959,-0.22208 -0.04134,-0.33223c-2.00244,2.50278 -4.80172,-1.25536 -5.71047,-3.40732c-0.07677,-0.51069 -0.19392,-1.0684 -0.29625,-1.64183c0.38206,-1.25911 0.4812,-2.66744 0.28923,-3.9985c1.36281,-2.46048 4.08566,-2.16658 5.84643,-0.42126zM234.14855,179.26262c-0.15184,1.16456 0.26962,2.53617 0.42384,3.69347c0.20439,0.46726 0.42741,0.92874 0.69362,1.36376c3.09243,5.05346 3.11061,-2.95951 2.889,-5.69064c-1.17998,-1.40745 -3.6745,-1.91256 -4.00646,0.63341z" data-paper-data="{&quot;index&quot;:null}" fill="#00488c" stroke-width="0.5"/><path d="M233.52788,182.20345c-0.71151,0.23717 -0.94868,-0.47434 -0.94868,-0.47434l-0.08896,-0.27506c-0.67968,-1.6557 -0.0498,-2.77178 0.41266,-4.39037c0,0 0.20604,-0.72114 0.92718,-0.5151c0.72114,0.20604 0.5151,0.92718 0.5151,0.92718c-0.3445,1.20574 -1.01498,2.20306 -0.47623,3.38741l0.13326,0.3916c0,0 0.23717,0.71151 -0.47434,0.94868z" fill="#00488c" stroke-width="0.5"/><path d="M237.45996,169.08396c0.1287,-0.17821 0.36087,-0.35311 0.75933,-0.25932c0.73005,0.17182 0.55822,0.90189 0.55822,0.90189c-0.1354,0.56138 -0.78411,3.22189 -1.1985,3.54745c-0.62965,0.49469 -1.68179,0.30386 -2.60675,-0.03345l0.01139,0.04811l-0.43145,0.10215c0.1793,2.26271 -1.21445,5.12991 -3.31708,6.12898c-2.9175,1.38625 -4.33819,-1.4295 -4.09373,-3.87234c0.11615,-1.16065 0.45529,-2.19325 0.85155,-3.28065c0.86412,-5.05892 4.70892,-5.55161 8.74387,-3.50071l0.586,0.15934c0,0 0.05846,0.01723 0.13715,0.05854z" fill="#0060b9" stroke-width="0.5"/><path d="M238.68008,169.53395c-0.21206,0.7194 -0.93145,0.50734 -0.93145,0.50734l-0.45493,-0.17423c-2.81731,-1.96239 -6.06036,-3.54472 -7.70423,-0.01798c0.13257,0.35122 -0.10504,0.69236 -0.10504,0.69236c-1.3993,1.99877 -2.34247,4.7133 -1.59693,7.16777c0.62791,2.06722 3.25617,0.60069 4.08763,-0.29596c1.04243,-1.09444 1.52401,-2.68629 1.86273,-4.13469l-0.025,0.0411c0,0 -0.02631,-0.74954 0.72323,-0.77586c0.74954,-0.02631 0.77585,0.72323 0.77585,0.72323l-0.01398,0.35518c-0.40982,1.73108 -1.00963,3.48767 -2.2256,4.81381c-1.6795,1.79354 -5.47426,2.92413 -6.60198,-0.23514c-0.929,-2.60259 0.00554,-5.67692 1.41576,-7.95599c-0.00255,-0.16888 0.04437,-0.29931 0.04437,-0.29931c1.92727,-5.35593 6.45124,-3.93491 10.22053,-1.30939l0.0217,-0.03372c0,0 0.7194,0.21205 0.50733,0.93146z" fill="#00488c" stroke-width="0.5"/><path d="M239.29992,170.03016c0.30729,1.6815 -2.07611,1.51777 -3.65065,0.76988c-1.03548,-2.29208 1.34746,-6.04194 3.46502,-3.08962c0.81906,1.14194 0.70095,1.89809 0.18563,2.31974z" fill="#0060b9" stroke-width="0.5"/><path d="M243.66385,161.68705c0.5618,0.08189 1.23095,0.16598 1.79307,0.23991l0.24892,-0.05056c0.05246,0.23049 0.10571,0.49953 0.1631,0.73448c-0.61281,-0.32468 -1.53675,-0.28824 -2.31435,-0.2733c0.03854,-0.10639 0.04808,-0.1943 0.04808,-0.1943l0.05934,-0.44328c0.00054,-0.00412 0.00131,-0.00881 0.00185,-0.01295z" data-paper-data="{&quot;noHover&quot;:false,&quot;origItem&quot;:[&quot;Path&quot;,{&quot;applyMatrix&quot;:true,&quot;segments&quot;:[[[244.5817,161.15716],[0,-0.00416],[0,0]],[244.5817,161.58266],[[244.55735,161.77278],[0.02434,-0.11051],[0.76902,-0.1162]],[[246.77895,161.7433],[-0.64991,-0.242],[-0.08753,-0.22546]],[[246.52348,161.07353],[0.08207,0.22168],[0,0]],[[246.28371,161.15716],[0,0],[-0.56696,0]],[[244.5817,161.14468],[0.56768,0.00794],[0,0.00416]]],&quot;closed&quot;:true}]}" fill="#ffb900" stroke-width="0.5"/><path d="M255.52128,148.32131c0.28385,0.68362 -0.41036,0.96314 -0.41036,0.96314l-0.1236,0.04976c-0.94402,0.37966 -1.90455,0.72172 -2.87681,1.02447c0,0 -0.71519,0.22239 -0.94103,-0.48188c-0.22583,-0.70428 0.48935,-0.92667 0.48935,-0.92667c0.9333,-0.28978 1.85516,-0.61806 2.76079,-0.98316l0.1236,-0.04976c0,0 0.69421,-0.27952 0.97806,0.4041z" fill="#8c5900" stroke-width="0.5"/><path d="M246.11733,141.65146c0.7436,0.0963 0.6458,0.82855 0.6458,0.82855l-0.10989,0.6232c-0.16328,0.3835 -0.32657,0.76699 -0.48985,1.1505c0,0 -0.29,0.68111 -0.98166,0.39553c-0.69166,-0.28558 -0.40166,-0.96669 -0.40166,-0.96669c0.16328,-0.3835 0.32657,-0.76699 0.48985,-1.1505l0.00602,-0.24466c0,0 0.09779,-0.73225 0.84139,-0.63595z" fill="#8c5900" stroke-width="0.5"/><path d="M235.70047,140.96201c0.59495,-0.44968 1.0516,0.13619 1.0516,0.13619l0.35733,0.47691c0.20875,0.39489 0.41751,0.78979 0.62626,1.18468c0,0 0.34631,0.65511 -0.31895,0.99613c-0.66526,0.34103 -1.01157,-0.31409 -1.01157,-0.31409c-0.20875,-0.39489 -0.41751,-0.78979 -0.62626,-1.18468l-0.21672,-0.25959c0,0 -0.45665,-0.58588 0.1383,-1.03556z" fill="#8c5900" stroke-width="0.5"/><path d="M227.03797,144.69907c0.49385,-0.55585 1.0583,-0.06954 1.0583,-0.06954l0.34138,0.29674c0.29668,0.29592 0.59337,0.59185 0.89005,0.88778c0,0 0.52692,0.52558 -0.0068,1.04446c-0.53372,0.51888 -1.06064,-0.00669 -1.06064,-0.00669c-0.29668,-0.29592 -0.59337,-0.59185 -0.89005,-0.88778l-0.26163,-0.22279c0,0 -0.56447,-0.48631 -0.07062,-1.04216z" fill="#8c5900" stroke-width="0.5"/><path d="M229.77887,147.89324l-0.14252,0.13391c-1.76202,2.41258 -3.08994,4.59568 -3.03725,7.73231c0.07616,4.53393 5.40346,10.44268 9.76028,11.57244c9.85747,2.66569 19.16001,-8.28492 13.8819,-17.28038c-2.94045,-5.09664 -8.76072,-6.46258 -14.30386,-5.18503c-1.9254,0.44376 -4.40406,0.94056 -5.90661,2.35589c0.0359,0.37584 -0.25195,0.67086 -0.25195,0.67086zM227.92067,147.1289c1.69472,-2.46436 4.82607,-3.24799 7.62879,-3.89433c6.30321,-1.4536 12.80725,0.25867 16.1683,5.98318c5.95946,10.30116 -4.47293,22.75655 -15.80628,19.7311c-5.10476,-1.40859 -10.89093,-7.83312 -11.01415,-13.16142c-0.07367,-3.18594 1.16051,-5.61737 2.878,-8.06968c-0.03594,-0.31645 0.14533,-0.58886 0.14533,-0.58886z" data-paper-data="{&quot;index&quot;:null}" fill="#8d7f67" stroke-width="0.5"/><path d="M229.99031,147.18327c1.50255,-1.41533 4.00633,-1.92681 5.93172,-2.37056c5.54314,-1.27755 11.42865,0.11548 14.3691,5.21211c5.27811,8.99545 -4.08756,20.02708 -13.94502,17.36139c-4.35682,-1.12975 -9.72756,-7.09392 -9.80372,-11.62785c-0.05268,-3.13662 1.28879,-5.35489 3.05082,-7.76747l0.1431,-0.13458c0,0 0.2899,-0.2972 0.25401,-0.67304z" data-paper-data="{&quot;noHover&quot;:false,&quot;origItem&quot;:[&quot;Path&quot;,{&quot;applyMatrix&quot;:true,&quot;segments&quot;:[[461.79205,256.51809],[[461.57425,256.7885],[0,0],[-2.51619,4.68647]],[[458.07109,271.20873],[-0.82414,-5.55431],[1.19129,8.02865]],[[477.82886,289.50257],[-7.87755,-1.00359],[17.84882,2.46512]],[[498.05541,255.64538],[11.32339,14.75074],[-6.32818,-8.36895]],[[471.84818,249.73122],[9.38889,-3.5412],[-3.26121,1.23003]],[[462.07578,255.26964],[2.29549,-2.85706],[0.15045,0.65872]]],&quot;closed&quot;:true}]}" fill="#e6d0a9" stroke-width="0.5"/><path d="M234.07177,161.29147c-0.01141,-0.32744 -0.01411,-0.64951 -0.00915,-0.96858c-0.61333,-0.08925 -1.22702,-0.1748 -1.84115,-0.25515c-0.00638,0.0461 -0.01277,0.0922 -0.01919,0.13829c-0.04593,0.32977 -0.52215,0.87472 -0.20106,0.97874c0.63221,0.20482 1.3087,0.35902 2.0131,0.47828zM235.77277,161.23385l-0.07777,0.65083c0.59621,0.06019 1.20234,0.10548 1.80973,0.14413l-0.02054,-0.64638c0.02343,-0.17546 0.04391,-0.34935 0.06125,-0.52208c-0.59424,-0.0952 -1.18862,-0.18951 -1.78328,-0.2816c-0.00053,0.21612 0.00286,0.43418 0.0106,0.65511zM239.18424,161.46316l0.02565,0.66369c0.95385,0.05302 1.89052,0.10883 2.77561,0.20028c-0.03083,-0.16319 -0.01357,-0.29236 -0.01357,-0.29236c0.01974,-0.14784 0.04027,-0.30151 0.06139,-0.45965c-0.93612,-0.14371 -1.87212,-0.29359 -2.80831,-0.4444c-0.01229,0.11022 -0.02588,0.22099 -0.04077,0.33244zM244.21422,158.09899c-0.09193,0.68833 -0.18386,1.37665 -0.27578,2.06497c0.47629,0.06837 0.95266,0.13432 1.42914,0.19718c-0.03226,-0.35149 -0.04258,-0.70862 -0.02248,-1.07706c0.01998,-0.36603 0.65439,-0.94621 0.30026,-1.05918c-0.38508,-0.12284 -0.88089,-0.18344 -1.42638,-0.21102c-0.00045,0.05276 -0.00477,0.08511 -0.00477,0.08511zM243.71488,161.83789l-0.05548,0.41543c0,0 -0.01039,0.07772 -0.04893,0.18249c0.77761,-0.01471 1.59368,-0.06325 2.20648,0.25648c-0.05738,-0.23136 -0.1135,-0.45974 -0.16597,-0.68671l-0.24863,0.05086c-0.56212,-0.0728 -1.12405,-0.15008 -1.68585,-0.23073c-0.00054,0.00406 -0.00108,0.00812 -0.00163,0.01218zM232.60934,157.15835c-0.05535,0.41586 -0.1099,0.83186 -0.16474,1.24782c0.57053,0.07465 1.14069,0.15378 1.71054,0.23621c0.03838,-0.42189 0.08706,-0.846 0.1435,-1.27804c-0.56418,-0.06648 -1.12746,-0.13517 -1.68931,-0.206zM237.60812,159.17312c-0.01524,-0.48212 -0.06076,-0.96559 -0.1408,-1.4597c-0.49268,-0.05049 -0.98538,-0.10275 -1.47777,-0.15675c-0.05956,0.45379 -0.11032,0.89708 -0.14866,1.3382c0.5893,0.09089 1.17835,0.18406 1.76725,0.27824zM242.25523,159.91339c0.08894,-0.66592 0.17764,-1.33008 0.25544,-1.91264c-0.82911,0.01303 -1.63643,0.03426 -2.24722,-0.01993c-0.35199,-0.03123 -0.70431,-0.06342 -1.05686,-0.09655c0.06498,0.52825 0.1002,1.04532 0.10544,1.56298c0.98119,0.15814 1.96213,0.31553 2.94319,0.46614zM231.05185,156.48117c-0.02895,-0.10403 -0.0385,-0.22663 -0.01921,-0.37104c0.11096,-0.83086 0.9547,-0.72159 0.9547,-0.72159l0.14062,0.01821c3.85844,0.4997 7.78303,0.90313 11.66654,1.23022c0.69188,0.05828 2.56451,-0.06669 3.11095,0.46128c1.05019,1.01468 0.24574,6.17677 -0.28186,7.06989c-4.21183,-0.03318 -8.23087,-0.50195 -12.38835,-1.16347c-0.39494,-0.06284 -3.08939,-0.33672 -3.40075,-0.59961c-1.13437,-0.95776 -0.05556,-4.39533 0.10567,-5.60255c0,0 0.02061,-0.15441 0.11168,-0.32134z" fill="#000000" stroke-width="0.5"/><path d="M243.66879,161.81846c0.00055,-0.00406 0.0013,-0.00862 0.00184,-0.01268c0.5618,0.08065 1.21756,0.16375 1.77968,0.23655l0.24893,-0.0498c0.05247,0.22697 0.10686,0.48668 0.16424,0.71804c-0.6128,-0.31973 -1.52478,-0.28156 -2.30239,-0.26685c0.03854,-0.10477 0.0483,-0.19067 0.0483,-0.19067l0.05941,-0.43459z" data-paper-data="{&quot;noHover&quot;:false,&quot;origItem&quot;:[&quot;Path&quot;,{&quot;applyMatrix&quot;:true,&quot;segments&quot;:[[243.71488,161.83789],[243.6594,162.25332],[[243.61047,162.43581],[0.03854,-0.10477],[0.77761,-0.01471]],[[245.81695,162.69229],[-0.6128,-0.31973],[-0.05738,-0.23136]],[[245.65098,162.00558],[0.05247,0.22697],[0,0]],[[245.40235,162.05644],[0,0],[-0.56212,-0.0728]],[[243.7165,161.82571],[0.5618,0.08065],[-0.00054,0.00406]],[[243.71487,161.83789],[0.00055,-0.00406],[0,0]]],&quot;closed&quot;:true,&quot;fillColor&quot;:[0,0,0,1],&quot;strokeWidth&quot;:0.5}]}" fill="#ffb900" stroke-width="0.25"/><path d="M244.19218,157.96466c0.54549,0.02758 1.10397,0.09413 1.48905,0.21697c0.35413,0.11296 -0.2607,0.74819 -0.28067,1.11422c-0.02011,0.36844 -0.04291,0.76517 -0.01065,1.11666c-0.47649,-0.06285 -1.01351,-0.13898 -1.4898,-0.20734c0.09193,-0.68833 0.19361,-1.46611 0.28554,-2.15443c0,0 0.00607,-0.03331 0.00653,-0.08607z" data-paper-data="{&quot;noHover&quot;:false,&quot;origItem&quot;:[&quot;Path&quot;,{&quot;applyMatrix&quot;:true,&quot;segments&quot;:[[[244.5817,157.32764],[0,0],[0,0.70501]],[[244.5817,159.44267],[0,-0.70501],[0.48128,0.00673]],[[246.02475,159.45484],[-0.48074,-0.00115],[-0.07853,-0.34968]],[[245.85985,158.37336],[0.02885,0.37358],[-0.02866,-0.37113]],[[246.01731,157.26781],[0.36606,0.06756],[-0.39806,-0.07347]],[[244.57517,157.24133],[0.54448,-0.04336],[0.00654,0.05318]]],&quot;closed&quot;:true}]}" fill="#ffb900" stroke-width="0.5"/><path d="M239.17429,161.10569c0.93619,0.15081 1.97889,0.3167 2.91501,0.46041c-0.02112,0.15814 -0.04168,0.33009 -0.06143,0.47793c0,0 -0.02017,0.13976 0.01066,0.30294c-0.88509,-0.09145 -1.93003,-0.15434 -2.88388,-0.20736l-0.02549,-0.68988c0.01488,-0.11145 0.03282,-0.23383 0.04512,-0.34405z" data-paper-data="{&quot;noHover&quot;:false,&quot;origItem&quot;:[&quot;Path&quot;,{&quot;applyMatrix&quot;:true,&quot;segments&quot;:[[[240.04012,161.37064],[0,-0.11415],[0,0]],[[240.15343,162.03551],[0,0],[0.95273,-0.07099]],[[242.93186,161.87525],[-0.88964,0.02333],[-0.05217,-0.16028]],[[242.87969,161.58266],[0,0],[0,-0.15142]],[[242.87969,161.11187],[0,0.16197],[-0.94716,-0.02263]],[[240.03651,161.03062],[0.94817,0.02977],[0.00241,0.11257]]],&quot;closed&quot;:true}]}" fill="#ffb900" stroke-width="0.5"/><path d="M239.2612,159.47204c-0.00524,-0.51766 -0.03898,-1.08704 -0.10396,-1.61529c0.35254,0.03312 0.72405,0.04554 1.07605,0.07677c0.61079,0.05419 1.50039,0.0582 2.32951,0.04517c-0.0778,0.58256 -0.17407,1.30338 -0.263,1.9693c-0.98106,-0.15061 -2.0574,-0.31781 -3.03859,-0.47595z" data-paper-data="{&quot;noHover&quot;:false,&quot;origItem&quot;:[&quot;Path&quot;,{&quot;applyMatrix&quot;:true,&quot;segments&quot;:[[[242.87969,159.40986],[-0.99263,-0.02371],[0,-0.68206]],[[242.87969,157.45086],[0,0.59668],[-0.82031,0.12123]],[[240.64903,157.72381],[0.61275,-0.02508],[-0.35312,0.01445]],[[239.58841,157.76441],[0.35392,-0.01262],[0.13437,0.52338]],[[239.89991,159.32431],[-0.07374,-0.52051],[0.99375,0.03128]]],&quot;closed&quot;:true}]}" fill="#ffb900" stroke-width="0.5"/><path d="M235.79177,158.92285c0.03836,-0.44112 0.0979,-0.95169 0.15746,-1.40548c0.49239,0.054 1.06619,0.10672 1.55887,0.15721c0.08004,0.4941 0.12413,1.05666 0.13938,1.53877c-0.58889,-0.09417 -1.2664,-0.19962 -1.85571,-0.29051z" data-paper-data="{&quot;noHover&quot;:false,&quot;origItem&quot;:[&quot;Path&quot;,{&quot;applyMatrix&quot;:true,&quot;segments&quot;:[[[238.17423,159.27048],[-0.59633,-0.01803],[-0.07895,-0.48342]],[[237.84135,157.81918],[0.14478,0.48704],[-0.49516,0.01341]],[[236.35544,157.85406],[0.49534,-0.00984],[0.00104,0.46465]],[[236.38524,159.22077],[-0.02038,-0.44913],[0.5963,0.01467]]],&quot;closed&quot;:true}]}" fill="#ffb900" stroke-width="0.5"/><path d="M235.72007,160.54131c0.59465,0.09209 1.28108,0.19731 1.87532,0.29251c-0.01735,0.17273 -0.03107,0.37543 -0.0545,0.55088l0.00842,0.67869c-0.60739,-0.03864 -1.30707,-0.09033 -1.90328,-0.15052l0.07054,-0.68653c-0.00773,-0.22093 0.00298,-0.46891 0.00351,-0.68504z" data-paper-data="{&quot;noHover&quot;:false,&quot;origItem&quot;:[&quot;Path&quot;,{&quot;applyMatrix&quot;:true,&quot;segments&quot;:[[[236.62742,161.58459],[-0.03692,-0.22143],[0,0]],[[236.63649,162.25],[0,0],[0.59909,-0.01714]],[[238.44986,162.15913],[-0.60732,0.04029],[0,0]],[[238.34391,161.51102],[0,0],[0,-0.17971]],[[238.33551,160.97739],[0.00567,0.17617],[-0.60177,-0.01837]],[[236.53017,160.92639],[0.60177,0.01518],[0.02809,0.21766]]],&quot;closed&quot;:true}]}" fill="#ffb900" stroke-width="0.5"/><path d="M234.058,161.69871c-0.70439,-0.11925 -1.47843,-0.29159 -2.11065,-0.4964c-0.32109,-0.10403 0.16475,-0.70145 0.21067,-1.03121c0.00642,-0.0461 0.0169,-0.09668 0.02326,-0.14278c0.61413,0.08035 1.3184,0.17967 1.93173,0.26893c-0.00496,0.31908 -0.00043,0.6886 0.01099,1.01605z" data-paper-data="{&quot;noHover&quot;:false,&quot;origItem&quot;:[&quot;Path&quot;,{&quot;applyMatrix&quot;:true,&quot;segments&quot;:[[[234.94857,161.8644],[0,0],[-0.05467,-0.32819]],[[234.81125,160.8904],[0.03733,0.3219],[-0.61991,-0.00989]],[[232.95203,160.87359],[0.61953,0.00082],[-0.00022,0.04725]],[[232.95132,161.01533],[0.00026,-0.04725],[-0.00187,0.33801]],[[232.88157,162.02697],[-0.33212,-0.06287],[0.65393,0.12378]],[[234.9408,162.24602],[-0.71417,-0.02822],[0,0]]],&quot;closed&quot;:true}]}" fill="#ffb900" stroke-width="0.5"/><path d="M234.34755,157.33605c-0.05644,0.43204 -0.1136,0.92364 -0.15198,1.34553c-0.56985,-0.08243 -1.23006,-0.17368 -1.80059,-0.24833c0.05484,-0.41597 0.1182,-0.89784 0.17355,-1.31371c0.56185,0.07083 1.21485,0.15002 1.77903,0.2165z" data-paper-data="{&quot;noHover&quot;:false,&quot;origItem&quot;:[&quot;Path&quot;,{&quot;applyMatrix&quot;:true,&quot;segments&quot;:[[[232.95135,157.89376],[0.56643,-0.00195],[0.00019,0.42592]],[[232.95324,159.17158],[-0.00071,-0.42596],[0.57554,0.00077]],[[234.68045,159.18637],[-0.5759,-0.00869],[-0.01781,-0.42977]],[[234.6535,157.88089],[0.00125,0.44235],[-0.56817,0.00663]]],&quot;closed&quot;:true}]}" fill="#ffb900" stroke-width="0.5"/><path d="M245.59732,149.86956c-1.00427,0.64118 -3.52935,2.44065 -2.46096,3.32813c0.3742,0.31083 2.45638,0.50704 2.82496,0.56901c0.85458,0.14367 1.78581,0.973 2.53979,0.55162c0.47178,-0.26366 -0.31893,-1.02161 -0.50319,-1.52404c-0.43145,-1.17639 -0.44775,-2.35026 -1.75606,-2.75145l-0.2287,-0.00949c0,0 -0.21659,-0.02804 -0.41585,-0.16379zM246.18243,148.36774c0.03329,0.00136 0.05269,0.00387 0.05269,0.00387l0.58948,0.09647c1.80569,0.70603 4.73655,5.42124 2.65584,7.22105c-0.91175,0.78867 -6.89173,-0.5559 -7.61837,-1.3804c-2.08987,-2.37136 1.57711,-5.17886 3.25788,-6.11739c0,0 0.63689,-0.35307 1.06247,0.1764z" fill="#000000" stroke-width="0.5"/><path d="M246.01523,149.97752l0.23499,0.01006c1.30831,0.40118 1.36948,1.64969 1.80094,2.82608c0.18427,0.50243 0.9639,1.2784 0.49212,1.54206c-0.75398,0.42138 -1.72665,-0.38949 -2.58123,-0.53316c-0.36859,-0.06197 -2.50383,-0.29251 -2.87803,-0.60334c-1.06841,-0.88748 1.50034,-2.76368 2.50462,-3.40487c0.19927,0.13574 0.42659,0.16316 0.42659,0.16316z" data-paper-data="{&quot;noHover&quot;:false,&quot;origItem&quot;:[&quot;Path&quot;,{&quot;applyMatrix&quot;:true,&quot;segments&quot;:[[[489.89726,256.3898],[0.37992,0.19509],[-1.6054,1.3687]],[[486.37332,262.86168],[-2.07425,-1.3294],[0.72648,0.46561]],[[491.44297,263.2222],[-0.6586,-0.02525],[1.52698,0.05855]],[[496.0102,263.61742],[-1.2193,0.92109],[0.76294,-0.57634]],[[494.77513,261.02843],[0.43928,0.84928],[-1.02855,-1.98853]],[[491.06411,256.54916],[2.38001,0.41127],[0,0]],[490.66223,256.58488]],&quot;closed&quot;:true}]}" fill="#ffbaba" stroke-width="0.5"/><path d="M233.88906,148.18439c-0.10217,0.08207 -0.18947,0.12211 -0.18947,0.12211c-0.64627,0.29519 -1.30267,0.58851 -1.88325,0.99506c-2.88784,2.02223 -0.75468,2.67865 1.56215,2.73724c0.15196,0.00385 2.041,0.08482 2.08769,0.01478c0.54362,-0.81575 -0.63516,-3.4344 -1.57714,-3.86919zM233.13124,146.73746c0.28272,-0.33365 0.76938,-0.27062 0.76938,-0.27062l0.18568,0.02824c1.9609,0.56045 4.2524,4.65187 2.64046,6.68462c-1.42025,1.79101 -7.75528,0.67898 -8.07715,-1.58922c-0.36492,-2.57155 2.42816,-3.92675 4.33125,-4.80327c0,0 0.05833,-0.02676 0.15038,-0.04976z" fill="#000000" stroke-width="0.5"/><path d="M235.50897,152.09028c-0.04668,0.07004 -1.97253,0.00792 -2.12449,0.00409c-2.31683,-0.0586 -4.5049,-0.79884 -1.61706,-2.82107c0.58058,-0.40655 1.30195,-0.72519 1.94821,-1.02037c0,0 0.09113,-0.03877 0.1933,-0.12084c0.94198,0.43479 2.14364,3.14246 1.60003,3.9582z" data-paper-data="{&quot;noHover&quot;:false,&quot;origItem&quot;:[&quot;Path&quot;,{&quot;applyMatrix&quot;:true,&quot;segments&quot;:[[[469.04287,256.09013],[1.74766,0.5551],[-0.1594,0.16912]],[[468.74027,256.35038],[0,0],[-1.06051,0.67239]],[[465.6814,258.5491],[0.91972,-0.85493],[-4.57475,4.25247]],[[469.05023,263.04772],[-4.06251,0.42849],[0.26646,-0.0281]],[[472.70207,262.59413],[-0.06523,0.13503],[0.75962,-1.57261]]],&quot;closed&quot;:true}]}" fill="#ffbaba" stroke-width="0.5"/><path d="M234.2423,150.84763c0.06128,-0.45888 0.48872,-0.78194 0.9547,-0.72159c0.46599,0.06035 0.79405,0.48126 0.73277,0.94013c-0.06128,0.45888 -0.48872,0.78194 -0.9547,0.72159c-0.46599,-0.06035 -0.79405,-0.48126 -0.73277,-0.94013z" fill="#000000" stroke-width="0.5"/><path d="M246.35103,152.1146c0.08463,-0.63368 0.67489,-1.07983 1.3184,-0.99649c0.6435,0.08334 1.09656,0.6646 1.01193,1.29829c-0.08463,0.63368 -0.67489,1.07983 -1.3184,0.99649c-0.6435,-0.08334 -1.09656,-0.6646 -1.01193,-1.29829z" fill="#000000" stroke-width="0.5"/><path d="M233.38141,141.04271c0.73059,-0.16694 0.90012,0.5525 0.90012,0.5525l0.20923,0.88934c0.24081,0.80858 0.3876,1.6451 0.48678,2.48206c0,0 0.08547,0.73375 -0.65964,0.81792c-0.74512,0.08417 -0.83059,-0.64958 -0.83059,-0.64958c-0.08767,-0.7672 -0.22295,-1.53406 -0.447,-2.27391l-0.21994,-0.93197c0,0 -0.16952,-0.71944 0.56106,-0.88638z" fill="#8c5900" stroke-width="0.5"/><path d="M241.76504,140.76687c0.71741,0.21537 0.4987,0.92182 0.4987,0.92182l-0.1709,0.51755c-0.11353,0.85011 -0.21743,1.64799 -0.4502,2.47492c0,0 -0.20198,0.71127 -0.92427,0.51239c-0.72229,-0.19889 -0.52033,-0.91016 -0.52033,-0.91016c0.21739,-0.75801 0.30326,-1.48853 0.40759,-2.26974l0.22329,-0.7557c0,0 0.21871,-0.70646 0.93611,-0.49109z" fill="#8c5900" stroke-width="0.5"/><path d="M251.57782,145.88757c0.45665,0.58588 -0.1383,1.03556 -0.1383,1.03556l-0.4986,0.37686c-0.39092,0.2896 -0.73211,0.64847 -1.02487,1.03442c0,0 -0.45383,0.58799 -1.05094,0.14108c-0.5971,-0.44691 -0.14327,-1.03491 -0.14327,-1.03491c0.37962,-0.4851 0.81527,-0.93582 1.30577,-1.31234l0.4986,-0.37686c0,0 0.59495,-0.44968 1.0516,0.13619z" fill="#8c5900" stroke-width="0.5"/><path d="M255.06014,152.55172c0.29872,0.67745 -0.38923,0.97161 -0.38923,0.97161l-0.56189,0.23935c-0.71935,0.3481 -1.45249,0.67022 -2.19776,0.96067c0,0 -0.69752,0.27143 -0.97315,-0.41545c-0.27563,-0.68687 0.42188,-0.9583 0.42188,-0.9583c0.70796,-0.27505 1.4041,-0.58109 2.08683,-0.91231l0.62666,-0.26887c0,0 0.68794,-0.29416 0.98666,0.38329z" fill="#8c5900" stroke-width="0.5"/><path d="M228.12956,148.16614c0.20971,0.06815 0.58035,0.26489 0.50951,0.7953c-0.09779,0.73225 -0.84139,0.63595 -0.84139,0.63595l-0.50622,-0.19067c-0.40201,-0.34636 -0.80403,-0.6927 -1.20604,-1.03906c0,0 -0.56447,-0.48631 -0.07062,-1.04216c0.49385,-0.55585 1.0583,-0.06954 1.0583,-0.06954c0.35215,0.30339 0.7043,0.60678 1.05645,0.91017z" fill="#8c5900" stroke-width="0.5"/></g></g></svg>