<svg version="1.1" xmlns="http://www.w3.org/2000/svg" xmlns:xlink="http://www.w3.org/1999/xlink" width="150.43927" height="52.75" viewBox="0,0,150.43927,52.75"><g transform="translate(-164.78036,-153.625)"><g data-paper-data="{&quot;isPaintingLayer&quot;:true}" fill-rule="nonzero" stroke-linecap="butt" stroke-linejoin="miter" stroke-miterlimit="10" stroke-dasharray="" stroke-dashoffset="0" style="mix-blend-mode: normal"><path d="M166.03036,205.125v-50.25h147.93927v50.25z" fill="#7f7f7f" stroke="#5e5e5e" stroke-width="2.5"/><path d="M245.34999,176.58212c0,1.25 -1.25,1.25 -1.25,1.25l-0.7434,-0.0481c-2.94941,-0.87282 -5.86518,0.03962 -8.8566,0.0481c0,0 -1.25,0 -1.25,-1.25c0,-1.25 1.25,-1.25 1.25,-1.25c3.27835,0.01077 6.2865,-0.85638 9.5434,0.0481l0.0566,-0.0481c0,0 1.25,0 1.25,1.25z" fill="#ffffff" stroke="none" stroke-width="0.5"/><path d="M246.75003,183.78212c0,1.25 -1.25,1.25 -1.25,1.25l-0.57678,-0.01256c-3.09494,-0.44307 -6.10567,-0.58744 -9.22322,-0.58744c0,0 -1.25,0 -1.25,-1.25c0,-1.25 1.25,-1.25 1.25,-1.25c3.23459,0 6.36627,0.15485 9.57678,0.61256l0.22322,-0.01256c0,0 1.25,0 1.25,1.25z" fill="#ffffff" stroke="none" stroke-width="0.5"/><path d="M208.04348,173.44055c1.50309,0.50103 1.00206,2.00411 1.00206,2.00411l-0.39702,1.18337c-1.17865,4.31492 -3.38632,7.26404 -4.90169,11.32998c-0.53258,1.42899 -0.2996,3.07658 -0.8669,4.49214c-1.22417,3.05462 -3.73165,3.54645 -6.16775,2.95153l-1.01459,0.12683l-0.02719,-0.21756c-0.14561,0.06902 -0.29122,0.13803 -0.43682,0.20704l0.03972,-0.59047c-0.05493,-0.02264 -0.10969,-0.0457 -0.16424,-0.06918c-0.01769,-0.00395 -0.03536,-0.00792 -0.05304,-0.01188l-0.2635,0.52701l-1.65932,-0.82966c-0.12567,-0.05957 -0.24226,-0.1352 -0.3471,-0.22423c-1.88634,-0.44988 -3.74183,-0.9145 -5.66888,-1.35445c0,0 -1.54382,-0.35627 -1.18755,-1.90009c0.35627,-1.54382 1.90009,-1.18755 1.90009,-1.18755c2.74033,0.63851 5.29368,1.29686 8.03535,1.90308l0.01825,0.01293l0.002,-0.008l1.65787,0.41446c0.18087,0.04105 0.34999,0.11304 0.50149,0.21011c0.86051,-0.03365 1.64082,-0.19337 1.90765,-1.17258c1.49287,-5.47836 4.15015,-9.97578 5.63904,-15.44324l0.44798,-1.35167c0,0 0.50102,-1.50308 2.00411,-1.00205z" fill="#efcc6c" stroke="none" stroke-width="0.5"/><path d="M197.01983,164.58723c2.98495,0.74624 6.80248,1.3328 9.39025,3.13315c0.79447,0.55273 -1.3744,4.64711 -1.74625,5.51403c-2.2894,5.33757 -5.38298,11.09214 -6.39147,16.84253c-2.4295,0.09892 -5.32761,-1.11084 -7.61484,-1.80369c-0.10392,-0.03148 -3.4602,-1.03349 -3.81454,-1.45332c-0.46428,-0.55006 0.81732,-1.18993 1.15312,-1.82661c0.99573,-1.88787 2.06731,-3.62962 2.96822,-5.55945c2.26711,-4.85638 3.92163,-9.94842 5.95457,-14.87177z" data-paper-data="{&quot;noHover&quot;:false,&quot;origItem&quot;:[&quot;Path&quot;,{&quot;applyMatrix&quot;:true,&quot;segments&quot;:[[[416.06851,312.0524],[0,0],[-3.20776,7.76851]],[[406.76863,335.38371],[3.57725,-7.66283],[-1.42153,3.04506]],[[402.06622,344.12437],[1.57115,-2.97885],[-0.52986,1.00461]],[[400.24372,347.00332],[-0.73258,-0.86794],[0.55912,0.66244]],[[406.23886,349.27834],[-0.16397,-0.04967],[3.60899,1.09324]],[[418.19363,352.11284],[-3.83349,0.15608],[1.59128,-9.07349]],[[428.20214,325.68187],[-3.61243,8.4221],[0.58673,-1.36791]],[[430.97534,317.00601],[1.25359,0.87214],[-4.08322,-2.84076]],[[416.22699,312.09202],[4.70993,1.17748],[0,0]]],&quot;closed&quot;:true}]}" fill="#efcc6c" stroke="none" stroke-width="0.5"/><path d="M202.11395,183.24655c-1.12034,1.12034 -2.24067,0 -2.24067,0l-0.43448,-0.49186c-2.46772,-3.94969 -4.75843,-7.98532 -6.6531,-12.23763c0,0 -0.64348,-1.44784 0.80436,-2.09132c1.44784,-0.64349 2.09132,0.80436 2.09132,0.80436c1.82585,4.11934 4.05507,8.02331 6.44455,11.84515l-0.01197,-0.06936c0,0 1.12034,1.12033 0,2.24067z" fill="#ffda73" stroke="none" stroke-width="0.5"/><path d="M195.9302,164.20477c0.07464,-0.20282 0.20597,-0.41303 0.41619,-0.62325c1.12034,-1.12034 2.24067,0 2.24067,0l0.10522,0.11442c2.71123,2.27369 6.18987,5.97069 7.36718,9.36744c1.01543,2.92968 1.29754,5.65517 -3.90367,3.77789c-1.00085,-0.36124 -1.25795,-1.72961 -1.72646,-2.68496c-1.39593,-2.84652 -2.93703,-5.42752 -4.54951,-8.24587c0,0 -0.53515,-0.93652 0.05037,-1.70567z" fill="#ffda73" stroke="none" stroke-width="0.5"/><path d="M191.81394,185.81731c0.88389,0.88389 0,1.76777 0,1.76777l-0.3441,0.34105c-0.43601,0.38756 -0.87202,0.77513 -1.30803,1.16269c0,0 -0.93426,0.83045 -1.76472,-0.10381c-0.83045,-0.93426 0.10381,-1.76471 0.10381,-1.76471c0.43601,-0.38756 0.87202,-0.77513 1.30803,-1.16269l0.23724,-0.24029c0,0 0.88389,-0.88389 1.76777,0z" fill="#d7b761" stroke="none" stroke-width="0.5"/><path d="M196.57499,185.28856c0.39529,-1.18586 1.58114,-0.79057 1.58114,-0.79057l0.54839,0.18893c0.43601,0.19378 0.87202,0.38756 1.30803,0.58134c0,0 1.14227,0.50767 0.63459,1.64993c-0.50768,1.14226 -1.64994,0.63459 -1.64994,0.63459c-0.43601,-0.19378 -0.87201,-0.38756 -1.30802,-0.58134l-0.32362,-0.10174c0,0 -1.18586,-0.39529 -0.79057,-1.58114z" fill="#d7b761" stroke="none" stroke-width="0.5"/><path d="M193.22211,179.02109c-1.04007,0.69338 -1.73344,-0.34669 -1.73344,-0.34669l-0.0641,-0.18031c-0.33912,-0.29067 -0.67823,-0.58135 -1.01735,-0.87202c0,0 -0.94908,-0.81349 -0.13559,-1.76256c0.81349,-0.94907 1.76256,-0.13558 1.76256,-0.13558c0.33912,0.29067 0.67824,0.58134 1.01736,0.87202l0.51725,0.6917c0,0 0.69338,1.04006 -0.34668,1.73344z" fill="#d7b761" stroke="none" stroke-width="0.5"/><path d="M204.03264,168.92552c-1.11804,-0.55902 -0.55902,-1.67705 -0.55902,-1.67705l0.53683,-0.74882c0.33912,-0.24223 0.67824,-0.48445 1.01736,-0.72668c0,0 1.01716,-0.72655 1.74371,0.29062c0.72655,1.01717 -0.29062,1.74371 -0.29062,1.74371c-0.33912,0.24223 -0.67824,0.48445 -1.01736,0.72668l0.24615,-0.16747c0,0 -0.55901,1.11803 -1.67705,0.55902z" fill="#d7b761" stroke="none" stroke-width="0.5"/><path d="M190.22569,194.79537c-1.11804,-0.55901 -0.55902,-1.67705 -0.55902,-1.67705l0.22285,-0.41761c0.14533,-0.43601 0.29067,-0.87201 0.43601,-1.30802c0,0 0.39529,-1.18586 1.58114,-0.79057c1.18586,0.39529 0.79057,1.58113 0.79057,1.58113c-0.14533,0.43601 -0.29068,0.87202 -0.43601,1.30803l-0.35849,0.74507c0,0 -0.55901,1.11803 -1.67705,0.55902z" fill="#d7b761" stroke="none" stroke-width="0.5"/><path d="M205.9577,181.46909c0,-0.69035 0.55964,-1.25 1.25,-1.25c0.69036,0 1.25,0.55965 1.25,1.25c0,0.69035 -0.55964,1.25 -1.25,1.25c-0.69036,0 -1.25,-0.55965 -1.25,-1.25z" fill="#d7b761" stroke="none" stroke-width="0.5"/><path d="M196.91764,164.62547c-2.03294,4.92335 -3.62676,9.93002 -5.89387,14.78639c-0.90091,1.92983 -1.98446,3.65159 -2.98019,5.53946c-0.3358,0.63668 -1.6193,1.27449 -1.15502,1.82456c0.35435,0.41983 3.69555,1.41033 3.79946,1.44181c2.28722,0.69285 5.14692,1.8953 7.57642,1.79639c1.00849,-5.75039 4.05356,-11.41325 6.34297,-16.75082c0.37184,-0.86692 2.55201,-4.94567 1.75754,-5.49839c-2.58777,-1.80035 -6.36192,-2.36804 -9.34688,-3.11428zM196.24761,161.34259c0.3798,-0.05599 0.694,0.02257 0.694,0.02257l0.84501,0.21125c3.08273,0.77068 8.72122,1.52012 10.93337,4.0683c2.02271,2.32996 0.321,4.98908 -0.54156,7.32695c-2.38609,6.46712 -4.95084,13.18504 -7.83563,19.43441c-4.11354,1.12623 -14.37643,-0.20706 -16.50944,-4.7894c-0.60293,-1.29527 2.41069,-5.85712 2.90177,-6.70517c3.4114,-5.89116 5.07204,-12.42518 7.73217,-18.63338c0,0 0.53795,-1.25521 1.78031,-0.93553z" fill="#c9ab5a" stroke="none" stroke-width="0.5"/><path d="M207.87514,176.93007c-0.43831,-0.46874 -0.43831,-1.14142 -0.43831,-1.14142l0.00162,-1.61822c-0.17077,-1.909 -0.59433,-3.68322 -0.8344,-5.57909c0,0 -0.19652,-1.57216 1.37564,-1.76868c1.57216,-0.19652 1.76868,1.37563 1.76868,1.37563c0.24398,1.98063 0.67126,3.82766 0.85562,5.82854l0.00042,0.45318c0.74782,0.50444 0.62273,1.50515 0.62273,1.50515c-0.96966,7.71968 -5.51764,14.26293 -9.28038,20.8698l-0.67781,0.75676c0,0 -0.46668,0.46668 -1.09884,0.49644c-0.45842,0.60137 -1.28901,0.60137 -1.28901,0.60137l-0.59553,-0.0473c-3.67041,-0.92818 -11.99786,-2.56886 -13.71545,-5.9137c-0.72817,-1.41803 -0.57714,-3.39506 -0.58232,-4.9185c0,0 0,-1.58439 1.58439,-1.58439c1.58439,0 1.58439,1.58439 1.58439,1.58439c-0.00395,1.00311 -0.12283,2.52764 0.26269,3.5316c0.48695,1.26809 1.19624,0.74477 2.38277,1.06903c2.42273,0.66211 4.72495,1.7131 7.09521,2.51733c0.14198,-1.29787 0.27741,-2.59645 0.4073,-3.89558c0,0 0.15766,-1.57653 1.73419,-1.41888c1.57653,0.15765 1.41888,1.73418 1.41888,1.73418c-0.07101,0.71007 -0.14386,1.41997 -0.21909,2.12962c3.09612,-5.22692 6.52315,-10.5738 7.6366,-16.56727z" fill="#c9ab5a" stroke="none" stroke-width="0.5"/><path d="M197.23751,169.8422c0,-0.69035 0.55964,-1.25 1.25,-1.25c0.69036,0 1.25,0.55965 1.25,1.25c0,0.69035 -0.55964,1.25 -1.25,1.25c-0.69036,0 -1.25,-0.55965 -1.25,-1.25z" fill="#efcc6c" stroke="none" stroke-width="0.5"/><path d="M198.40021,177.69035c0,-0.69035 0.55964,-1.25 1.25,-1.25c0.69036,0 1.25,0.55965 1.25,1.25c0,0.69035 -0.55964,1.25 -1.25,1.25c-0.69036,0 -1.25,-0.55965 -1.25,-1.25z" fill="#efcc6c" stroke="none" stroke-width="0.5"/><path d="M293.12206,183.01697c-0.87582,-0.05288 -1.89248,-0.57424 -2.93343,-1.72114c-1.70507,-1.87862 -2.72238,-4.52457 -3.06998,-7.07264c0.43288,-0.57294 0.07876,-1.30175 0.07876,-1.30175l-0.05433,0.36682c0.11055,-0.8962 0.01182,-1.82991 0.17065,-2.71883c0.53234,-2.97932 3.56533,-2.314 5.51481,-1.12256c2.80567,1.71471 3.64604,5.63978 3.64057,8.63305c0.02217,2.25093 -0.89477,4.16773 -2.27162,4.7528c-0.46997,-0.11817 -0.92281,0.10688 -0.92281,0.10688z" data-paper-data="{&quot;noHover&quot;:false,&quot;origItem&quot;:[&quot;Path&quot;,{&quot;applyMatrix&quot;:true,&quot;selected&quot;:true,&quot;segments&quot;:[[[293.26464,182.89063],[0,0],[0,0],7],[[294.18148,182.78536],[-0.46997,-0.11817],[1.37685,-0.58507],7],[[296.42446,178.05743],[0.02217,2.25093],[0.00547,-2.99327],7],[[292.82042,169.49621],[2.80567,1.71471],[-1.94948,-1.19144],7],[[287.34653,170.60716],[0.53234,-2.97932],[-0.15883,0.88891],7],[[287.18737,173.31146],[0.11055,-0.8962],[0,0],7],[[287.24009,172.94747],[0,0],[0,0],7],[[287.16625,174.23848],[0.43288,-0.57294],[0.3476,2.54806],7],[[290.20249,181.24779],[-1.70507,-1.87862],[1.04095,1.1469],7],[[293.11311,182.96778],[-0.87582,-0.05288],[0,0],7]],&quot;closed&quot;:true}]}" fill="#816e3a" stroke="none" stroke-width="0.5"/><path d="M284.93314,170.65695c-0.02037,0.17164 -0.03564,0.34462 -0.04969,0.51871c-0.3346,0.36917 -0.33384,0.88884 -0.33384,0.88884c0.00617,3.77472 1.23772,8.0013 3.84251,10.86335c0.54831,0.60246 1.26061,1.15632 2.05766,1.59042c-2.74772,1.48988 -6.06564,2.6169 -8.92747,3.43456c-2.03321,0.87138 -4.19351,1.42987 -6.23662,2.30549c-0.78511,0.33648 -2.23433,1.29698 -3.11353,1.29731c-0.92182,0.00034 -2.44653,-2.35326 -2.94128,-3.01259c-2.28611,-3.0466 -3.05072,-6.26547 -2.23928,-9.98934c2.63296,-1.97302 7.14074,-2.97542 10.26265,-4.09353c2.57984,-0.92396 5.19514,-2.35604 7.67891,-3.80322z" data-paper-data="{&quot;noHover&quot;:false,&quot;origItem&quot;:[&quot;Path&quot;,{&quot;applyMatrix&quot;:true,&quot;selected&quot;:true,&quot;segments&quot;:[[[277.26388,174.50923],[2.57984,-0.92396],[-3.12191,1.11811],7],[[267.04039,178.56447],[2.63296,-1.97302],[-0.81144,3.72387],7],[[269.26996,188.51188],[-2.28611,-3.0466],[0.49475,0.65933],7],[[272.19823,191.51298],[-0.92182,0.00034],[0.8792,-0.00033],7],[[275.30252,190.21126],[-0.78511,0.33648],[2.04312,-0.87562],7],[[281.50245,187.90694],[-2.03321,0.87138],[2.86183,-0.81766],7],[[290.4017,184.50448],[-2.74772,1.48988],[-0.79705,-0.4341],7],[[288.34294,182.91874],[0.54831,0.60246],[-2.60479,-2.86205],7],[[284.52199,172.1062],[0.00617,3.77472],[0,0],7],[[284.85659,171.21785],[-0.3346,0.36917],[0.01405,-0.17409],7],[[284.9071,170.69964],[-0.02037,0.17164],[-2.48377,1.44718],7]],&quot;closed&quot;:true}]}" fill="#efcc6c" stroke="none" stroke-width="0.5"/><path d="M282.26545,171.03937c0.05757,-0.35032 0.29031,-1.05835 1.23108,-1.05835c1.25,0 1.25,1.25 1.25,1.25l-0.00965,0.85519c-0.22998,1.81319 -0.16538,3.61974 -0.16538,5.44612c-0.00502,2.74806 0.61037,5.74235 0.17262,8.47941c-0.27059,1.6919 -0.60096,4.36492 -3.70679,2.2065c-0.80746,-0.56115 -0.24273,-2.90936 -0.18866,-3.76214c0.25494,-4.02144 -0.00242,-8.14388 -0.00242,-12.17487c0,0 0,-1.25 1.25,-1.25c0.05916,0 0.11552,0.0028 0.16921,0.00813z" fill="#ffda73" stroke="none" stroke-width="0.5"/><path d="M278.07039,190.50975c-1.25,0 -1.25,-1.25 -1.25,-1.25c0,-5.13286 0,-10.97047 0,-16.10334c0,0 0,-1.25 1.25,-1.25c1.25,0 1.25,1.25 1.25,1.25c0,5.13218 0,10.27101 0,15.40319v0.70015c0,0 0,1.25 -1.25,1.25z" fill="#ffda73" stroke="none" stroke-width="0.5"/><path d="M293.46682,185.57383c-3.1975,2.11414 -7.44517,3.63674 -11.12689,4.68866c-2.38625,1.02268 -4.87602,1.74496 -7.27786,2.77174c-0.71166,0.30423 -2.26204,1.04741 -3.02197,0.97375c-2.03579,-0.19735 -3.66069,-2.5162 -4.77333,-4.00035c-2.90915,-3.88053 -3.80107,-8.15663 -2.32138,-12.8073c2.932,-2.55513 7.80221,-3.73671 11.48102,-5.04664c3.58167,-1.27534 7.18183,-3.61978 10.47578,-5.50869c0,0 0.30674,-0.17528 0.68726,-0.1764c1.94411,-0.96748 4.4732,-0.37991 6.5373,0.89607c3.57239,2.20837 4.79133,6.78873 4.79771,10.69277c-0.01343,1.74978 -0.31946,4.37645 -1.47299,5.82302c-0.97424,1.22174 -2.35187,1.66426 -3.7815,1.5942zM277.26388,174.50923c-3.12191,1.11811 -7.59052,2.08222 -10.22348,4.05524c-0.81144,3.72387 -0.05655,6.90082 2.22956,9.94741c0.49475,0.65933 2.00645,3.00144 2.92827,3.0011c0.8792,-0.00033 2.31918,-0.96525 3.1043,-1.30172c2.04312,-0.87562 4.16672,-1.43294 6.19993,-2.30432c2.86183,-0.81766 6.15153,-1.91258 8.89925,-3.40246c-0.79705,-0.4341 -1.51045,-0.98328 -2.05876,-1.58574c-2.60479,-2.86205 -3.81478,-7.03782 -3.82095,-10.81254c0,0 0,-0.51918 0.3346,-0.88835c0.01405,-0.17409 0.03014,-0.34656 0.05051,-0.5182c-2.48377,1.44718 -5.06339,2.88562 -7.64322,3.80958zM293.26464,182.89063c0,0 0.44687,-0.22344 0.91684,-0.10527c1.37685,-0.58507 2.26514,-2.477 2.24298,-4.72793c0.00547,-2.99327 -0.79837,-6.84651 -3.60403,-8.56122c-1.94948,-1.19144 -4.94155,-1.86837 -5.47389,1.11095c-0.15883,0.88891 -0.04861,1.80809 -0.15916,2.70429l0.05272,-0.36399c0,0 0.35904,0.71808 -0.07384,1.29101c0.3476,2.54806 1.33116,5.13069 3.03623,7.00931c1.04095,1.1469 2.0348,1.6671 2.91062,1.71999z" fill="#c9ab5a" stroke="none" stroke-width="0.5"/><text transform="translate(191.51752,186.5922) scale(0.5,0.5)" font-size="40" xml:space="preserve" fill="#ffffff" fill-rule="nonzero" stroke="none" stroke-width="1" stroke-linecap="butt" stroke-linejoin="miter" stroke-miterlimit="10" stroke-dasharray="" stroke-dashoffset="0" font-family="Sans Serif" font-weight="normal" text-anchor="start" style="mix-blend-mode: normal"><tspan x="0" dy="0">1</tspan></text><text transform="translate(270.77764,186.56646) scale(0.5,0.5)" font-size="40" xml:space="preserve" fill="#ffffff" fill-rule="nonzero" stroke="none" stroke-width="1" stroke-linecap="butt" stroke-linejoin="miter" stroke-miterlimit="10" stroke-dasharray="" stroke-dashoffset="0" font-family="Sans Serif" font-weight="normal" text-anchor="start" style="mix-blend-mode: normal"><tspan x="0" dy="0">16</tspan></text></g></g></svg>