<svg version="1.1" xmlns="http://www.w3.org/2000/svg" xmlns:xlink="http://www.w3.org/1999/xlink" width="611.63597" height="186.23101" viewBox="0,0,611.63597,186.23101"><g transform="translate(65.81798,-86.88449)"><g data-paper-data="{&quot;isPaintingLayer&quot;:true}" fill-rule="nonzero" stroke-linecap="butt" stroke-linejoin="miter" stroke-miterlimit="10" stroke-dasharray="" stroke-dashoffset="0" style="mix-blend-mode: normal"><path d="M-63.31798,270.61551v-181.23101h606.63597v181.23101z" fill="#858585" stroke="#595959" stroke-width="5"/><text transform="translate(-40.59257,183.56181) scale(2.42124,2.42124)" font-size="40" xml:space="preserve" fill="#ffffff" fill-rule="nonzero" stroke="none" stroke-width="1" stroke-linecap="butt" stroke-linejoin="miter" stroke-miterlimit="10" stroke-dasharray="" stroke-dashoffset="0" font-family="&quot;Stencil&quot;, Sans Serif" font-weight="400" text-anchor="start" style="mix-blend-mode: normal"><tspan x="0" dy="0">INDUSTRIAL</tspan></text><path d="M99.87891,265.49142c-2.76836,0 -2.76836,-2.76836 -2.76836,-2.76836l0.19799,-0.81744c-0.22468,-0.56168 -0.44936,-1.12336 -0.674,-1.68504c-0.0464,0.00712 -0.0928,0.01421 -0.13919,0.02122c0,0.41695 0,0.8339 0,1.25085v2.46077c0,0 0,2.76836 -2.76836,2.76836c-2.76836,0 -2.76836,-2.76836 -2.76836,-2.76836c0,-0.62155 0,-2.14736 0,-3.48108c-0.19888,-0.03233 -0.41367,-0.07231 -0.64071,-0.12181c-0.84136,0.89256 -2.03463,1.44973 -3.35802,1.44973c-2.54822,0 -4.61393,-2.06571 -4.61393,-4.61393c0,-1.1461 0.41787,-2.19461 1.10959,-3.00145c-0.15484,-0.60332 -0.2603,-1.26326 -0.30574,-1.98521v-0.00004c-1.5017,-2.49772 -1.5017,-5.24829 -1.5017,-5.24829c0,-15.26125 -1.82442,-29.65413 -3.53235,-44.57506c-0.78374,0.6145 -1.77134,0.98085 -2.84447,0.98085c-2.54822,0 -4.61393,-2.06571 -4.61393,-4.61393c0,-2.54822 2.06571,-4.61393 4.61393,-4.61393c0.70759,0 1.37798,0.15927 1.97723,0.44393c-1.05814,-9.42618 -4.62072,-18.39408 4.99556,-26.50352c3.86348,-3.25806 9.88791,-2.2365 14.92178,-2.68582c13.48858,-1.20398 34.26677,4.88527 37.92683,19.22469c0.52543,-0.20803 1.09819,-0.32235 1.69763,-0.32235c2.54822,0 4.61393,2.06571 4.61393,4.61393c0,2.54822 -2.06571,4.61393 -4.61393,4.61393c-0.54179,0 -1.06172,-0.09339 -1.54467,-0.26491c-0.24816,1.28001 -0.61339,2.6058 -1.10542,3.97772c-1.3603,3.7928 -4.60732,6.61881 -8.04703,9.02067c3.62452,1.42449 6.85036,3.12208 8.61269,5.06034c3.97791,4.37489 8.45242,9.83166 8.18338,15.73852c-0.2032,4.46211 -4.01216,7.81803 -7.37767,11.12452c1.65533,0.70073 2.81671,2.34015 2.81671,4.25079c0,2.54822 -2.06571,4.61393 -4.61393,4.61393c-1.87355,0 -3.48632,-1.11672 -4.20894,-2.72085c-7.66507,7.06599 -17.41592,12.24511 -27.35864,14.77838c0.10081,0.25203 0.20165,0.5041 0.30245,0.75613l0.19799,2.8737c0,0 0,2.76836 -2.76836,2.76836zM95.89791,196.12786l0.34479,-0.26052c4.6054,-0.65791 17.10402,-0.79869 20.76253,-5.49637c1.21535,-1.56062 -2.48063,-3.26286 -4.25589,-4.13526c-4.48171,-2.20251 -14.58762,-5.03911 -19.14733,-3.61902c-0.77359,0.24096 0.40514,1.56988 0.56305,2.36458c0.51288,2.58136 1.11971,5.15025 1.44877,7.76144c0.14159,1.12358 0.22121,2.25352 0.28407,3.38515zM98.2458,217.38877c0.87532,7.72036 1.53112,15.32474 1.76488,23.271c2.04334,-0.73771 3.99459,-1.72306 5.76077,-2.91693c4.29295,-2.90187 15.44965,-8.32907 18.72576,-12.22732c0.47391,-0.56386 -1.46549,-0.23516 -2.15183,-0.50251c-2.02271,-0.78795 -3.88777,-1.96749 -5.94758,-2.65257c-3.17165,-1.05485 -6.42613,-1.8651 -9.69752,-2.55076c-2.8716,-0.60184 -5.68742,-1.43013 -8.45453,-2.42095z" fill="#00b818" stroke="none" stroke-width="0.5"/><path d="M182.92964,244.57497c-0.97749,0 -1.60982,-0.34512 -2.01887,-0.79168c0.08261,0.98635 0.21512,1.98225 0.42714,3.0171l0.05374,1.7733c0,0 0,2.76836 -2.76836,2.76836c-2.76836,0 -2.76836,-2.76836 -2.76836,-2.76836l0.05374,-0.68748c-0.11476,-0.58571 -0.2098,-1.16123 -0.28857,-1.73037c-0.34616,0.16355 -0.77411,0.26469 -1.30316,0.26469c-0.11498,0 -0.22516,-0.00476 -0.3308,-0.01392c-0.02687,0.40067 -0.05452,0.80142 -0.0829,1.20224c0,0 -0.15791,2.21063 -1.4023,4.38774c0.56153,0.76429 0.89322,1.70789 0.89322,2.72901c0,2.54822 -2.06571,4.61393 -4.61393,4.61393c-2.04128,0 -3.77294,-1.3256 -4.38113,-3.1629c-0.11778,-0.00528 -0.23701,-0.01218 -0.35771,-0.02082c-9.20442,-0.65747 -8.54695,-9.86185 -8.54695,-9.86185c0.71955,-9.99178 1.06508,-20.01774 0.71988,-30.04107c-0.24129,-7.00575 -2.55257,-14.04986 -1.48155,-20.97747c0.92249,-5.96681 -0.24199,-14.46936 5.03764,-17.3985c11.68557,-6.48316 22.37675,6.11645 28.60208,12.52364c14.95371,15.39059 28.75718,30.92458 38.47072,50.20933l-0.73823,9.73011c0,0 -4.12681,8.25366 -12.38046,4.12681c-4.76719,-2.38359 -5.40417,-6.14387 -5.09171,-8.8954c-1.6825,-3.1202 -3.48721,-6.10264 -5.39937,-8.98251c-2.29427,1.13462 -4.57602,1.13462 -4.57602,1.13462c-3.10218,0 -8.46058,0 -13.88726,0c0.24328,0.60819 0.48653,1.21638 0.72981,1.82457l0.19799,2.25854c0,0 0,2.76836 -2.76836,2.76836zM189.06041,219.26782h0.65677c-2.60621,-2.94609 -5.30978,-5.85655 -8.08936,-8.78241c-0.22686,-0.23882 -4.34555,-3.98079 -7.84623,-7.91868c0.0478,0.6028 0.08645,1.16094 0.12144,1.64481c0.36336,5.02867 0.5983,10.04449 0.70737,15.05625c4.81668,0 9.63333,0 14.45001,0z" fill="#00b818" stroke="none" stroke-width="0.5"/><path d="M275.82343,198.43567c-2.76836,0 -2.76836,-2.76836 -2.76836,-2.76836l0.05374,-1.91784c-0.02329,-0.11649 -0.04658,-0.23298 -0.06991,-0.34948c-0.74912,-0.00447 -1.22358,-0.07748 -1.22358,-0.07748c-2.7478,-0.45645 -5.46175,-1.22446 -8.24343,-1.3693c-2.13248,-0.11103 -4.24326,0.5289 -6.37719,0.60801c-0.73044,0.02709 -2.54268,-0.92183 -2.17342,-0.29105c1.55161,2.65035 5.68964,2.32741 8.4443,3.68527c6.88815,3.39534 13.98323,6.38044 20.74478,10.02131c4.93336,2.65644 12.76316,3.21617 14.4708,8.55271c1.82431,5.70116 -1.11831,12.26585 -4.55845,17.43943c0.45423,2.89858 0.46398,5.6022 0.46398,8.6073v1.23037c0,0 0,2.76836 -2.76836,2.76836c-1.30091,0 -1.99049,-0.61133 -2.35602,-1.25942c-0.47797,0.12373 -1.05733,0.1073 -1.74809,-0.16898c-2.57036,-1.02813 -1.5422,-3.5985 -1.5422,-3.5985l0.87273,-2.18187c-2.08169,0.70977 -4.30358,1.23561 -6.26188,2.02315c-9.00942,3.62319 -18.00126,6.18562 -27.46742,7.42152l0.05345,1.76282c0,0 0,2.76836 -2.76836,2.76836c-1.634,0 -2.30353,-0.96442 -2.57789,-1.75481c-0.40134,0.30976 -0.95756,0.52444 -1.72845,0.52444c-2.76836,0 -2.76836,-2.76836 -2.76836,-2.76836c0,-0.47546 0,-1.21546 0,-1.97465l-5.4399,-1.97528c0,0 -8.25366,-4.12681 -4.12681,-12.38046h0.00004c4.12681,-8.25366 12.38046,-4.12681 12.38046,-4.12681l1.07124,2.00588c0.36081,-0.02421 0.72125,-0.05289 1.08132,-0.08578c-0.41898,-0.69475 -0.66005,-1.5089 -0.66005,-2.37938c0,-2.54822 2.06571,-4.61393 4.61393,-4.61393c2.54822,0 4.61393,2.06571 4.61393,4.61393c0,0.30913 -0.03042,0.61114 -0.08837,0.90326c2.76057,-0.68098 5.48733,-1.5216 8.16972,-2.42401c2.92689,-0.98465 5.89446,-1.84413 8.85542,-2.72159c-3.56937,-1.33464 -6.98848,-3.85237 -8.48446,-4.57414c-10.308,-4.97323 -31.23973,-12.01165 -28.72566,-28.18852c2.86898,-18.46063 25.96361,-16.05721 37.83492,-14.34042c0,0 9.12056,1.40315 7.71741,10.52371c-0.52414,3.40693 -2.1251,5.34544 -3.92531,6.43717c0.04141,0.20711 0.08283,0.41422 0.12428,0.62133l0.05374,3.00367c0,0 0,2.76836 -2.76836,2.76836z" fill="#00b818" stroke="none" stroke-width="0.5"/><path d="M298.89308,249.1889c0,-2.45911 1.92382,-4.4689 4.34854,-4.60644c-0.12487,-0.79825 -0.12487,-1.32224 -0.12487,-1.32224l0.40806,-3.45199c4.89626,-15.74284 4.41786,-29.89509 1.91393,-46.0826c0,0 -1.40315,-9.12056 7.71741,-10.52371c9.12056,-1.40315 10.52371,7.71741 10.52371,7.71741c1.52282,9.94833 2.30696,19.30568 1.89758,28.6205c0.41433,-0.12214 0.85291,-0.18769 1.30685,-0.18769c2.54822,0 4.61393,2.06571 4.61393,4.61393c0,2.54822 -2.06571,4.61393 -4.61393,4.61393c-0.72952,0 -1.41954,-0.16931 -2.03282,-0.47081c-0.66433,5.24161 -1.74849,10.52275 -3.33281,15.94039v-0.00004c-0.24517,2.23373 -1.6072,8.43854 -9.17404,8.43854c-1.99174,0 -3.55354,-0.42991 -4.7783,-1.10409c-0.78064,1.44054 -2.30575,2.41881 -4.0593,2.41881c-2.54822,0 -4.61393,-2.06571 -4.61393,-4.61393z" fill="#00b818" stroke="none" stroke-width="0.5"/><path d="M385.32737,235.34711c-1.20848,0 -2.23609,-0.77433 -2.61377,-1.85391c-0.49587,0.74661 -1.34431,1.23875 -2.30774,1.23875c-0.74089,0 -1.41378,-0.29105 -1.91065,-0.76503c-0.47922,0.82527 -1.37266,1.38023 -2.3957,1.38023c-1.52891,0 -2.76836,-1.23945 -2.76836,-2.76836c0,-0.34228 0.06212,-0.67002 0.1757,-0.97262c-10.25514,-2.00739 -27.5538,-3.61618 -31.92961,-13.35448c-2.95439,-6.57485 4.28627,-25.88776 9.91209,-29.89579c3.86112,-2.75079 9.35886,-1.52079 14.03827,-2.2812c0,0 9.20069,-0.70774 9.90843,8.49292c0.14754,1.91807 -0.13554,3.46702 -0.67607,4.71739c0.26761,0.58434 0.4168,1.23428 0.4168,1.91906c0,2.54822 -2.06571,4.61393 -4.61393,4.61393c-1.28898,0 -2.4545,-0.52857 -3.29165,-1.38075c-0.20936,0.02968 -0.32807,0.03879 -0.32807,0.03879c-3.78088,-0.59014 -8.93954,1.24879 -8.53171,6.21094c0.07401,0.90064 1.75658,-0.58305 2.65869,-0.53012c2.86739,0.16821 5.725,0.59103 8.53488,1.18674c7.64812,1.62137 18.95568,3.24415 26.57132,8.49794c0.62255,-0.31308 1.32575,-0.48933 2.0701,-0.48933c2.54822,0 4.61393,2.06571 4.61393,4.61393c0,0.85679 -0.23354,1.65902 -0.64041,2.34657c1.0168,1.85399 1.70793,3.96521 1.98288,6.37844c0.61601,5.40701 -2.80305,10.72979 -6.09471,15.16624c0.43245,-0.13414 0.89215,-0.20641 1.36871,-0.20641c2.54822,0 4.61393,2.06571 4.61393,4.61393c0,2.54822 -2.06571,4.61393 -4.61393,4.61393c-2.54822,0 -4.61393,-2.06571 -4.61393,-4.61393c0,-0.23712 0.0179,-0.47007 0.05238,-0.69759c-9.14023,8.79363 -23.1266,8.87347 -35.36411,6.50738c-0.14104,0.70516 -0.28204,1.41028 -0.42308,2.11543l0.05374,0.07227c0,0 0,2.76836 -2.76836,2.76836c-0.90437,0 -1.5133,-0.29544 -1.92331,-0.69327c-0.35819,0.66596 -1.04936,1.30847 -2.38304,1.30847c-1.32604,0 -2.01691,-0.63517 -2.37684,-1.29699c-0.21084,0.04296 -0.44312,0.06663 -0.6991,0.06663c-2.76836,0 -2.76836,-2.76836 -2.76836,-2.76836c0,-1.84295 0,-4.1828 0,-6.12641l-0.64894,-0.36779c0,0 -7.67806,-5.11869 -2.55937,-12.79675l0.00004,0.00007c1.50137,-2.25204 3.22292,-3.4032 4.9063,-3.90549c-0.29954,-0.6117 -0.46767,-1.29943 -0.46767,-2.02644c0,-2.54822 2.06571,-4.61393 4.61393,-4.61393c2.54822,0 4.61393,2.06571 4.61393,4.61393c0,1.21749 -0.47154,2.32483 -1.24196,3.14936c0.24048,0.13539 0.37221,0.2232 0.37221,0.2232l-0.19024,0.33471c5.11991,1.64193 27.31801,6.83423 30.03303,-2.80855c-0.11996,0.01587 -0.24236,0.02407 -0.36668,0.02407z" fill="#00b818" stroke="none" stroke-width="0.5"/><path d="M90.31265,182.23753c-0.05334,7.01727 -0.30887,13.84267 -0.31515,20.63061l2.44069,-0.34867l0.01971,0.13794l0.30574,-0.17271c3.61123,0 8.2001,0.38329 12.99755,1.2579c0.48815,-0.07235 0.97465,-0.17647 1.4566,-0.32142c5.98655,-1.80069 13.18528,-10.44095 13.75265,-16.67751c0.22254,-2.44619 -6.84353,-3.70724 -7.93016,-4.07045c-6.35128,-2.12289 -15.15344,-3.81491 -21.44344,-1.47646l-1.11439,0.93833c0,0 -0.05994,0.03994 -0.16979,0.10239zM105.88385,212.78392c-4.28431,0.72099 -8.75314,0.35025 -13.25885,-0.96062l-0.18681,1.30777l-2.21841,-0.31692c0.29658,5.83005 0.93988,11.68815 2.21579,17.6722c0.8335,3.90899 0.0739,10.20306 1.44523,13.76726c1.27315,3.30896 14.34633,-5.85899 15.52155,-6.8109c2.80361,-2.18398 13.15878,-4.72614 14.15048,-7.82615c3.34303,-10.45014 -7.3491,-15.00664 -17.66899,-16.83261zM84.43624,175.29276c0.48465,-0.54038 0.92751,-0.83564 0.92751,-0.83564l3.31498,-2.01459c10.83816,-3.35514 39.42437,-1.53947 41.49635,13.64704c0.68209,4.99928 -4.04893,12.15914 -6.90528,15.75926c-1.63868,2.06534 -3.37057,3.82672 -5.17934,5.30085c11.47355,4.49526 20.12419,12.64239 13.93159,26.13093c-3.54505,7.72169 -11.1649,6.64229 -16.85513,11.3678c-6.94437,5.49962 -20.97858,14.77657 -28.77217,5.00076c-2.69645,-3.38227 -2.05645,-12.93174 -2.98414,-17.23834c-3.84148,-17.83313 -2.31616,-34.57745 -2.31616,-52.63829c0,0 0,-3.72112 3.34174,-4.47983z" fill="#009b15" stroke="none" stroke-width="0.5"/><path d="M202.34853,227.94201c-11.08406,0 -21.89513,1.5697 -32.83641,3.15187c-0.10324,4.24378 -0.20984,8.51776 -0.19932,12.90461c0,0 0,4.61393 -4.61393,4.61393c-4.61393,0 -4.61393,-4.61393 -4.61393,-4.61393c0.03285,-15.54518 0,-30.92019 0,-46.50841c0,-2.75728 -0.27266,-12.15099 1.3514,-13.59773c9.91353,-8.83132 28.08329,11.89519 34.93575,17.37717c12.89232,10.42829 17.12155,24.67437 22.16528,39.79348l0.73823,2.21469c0,0 1.45904,4.37714 -2.91811,5.83621c-4.37714,1.45904 -5.83621,-2.91811 -5.83621,-2.91811l-0.73823,-2.21469c-1.81161,-5.43894 -3.44299,-10.88459 -5.53155,-16.03905zM190.60752,208.47525c-5.0737,-4.05897 -9.83406,-8.46804 -14.80747,-12.58462c-1.17659,-0.97391 -2.51441,-1.73786 -3.82004,-2.53043c-1.41928,-0.86151 -5.01294,-4.27235 -4.01858,-2.94276c3.21129,4.29383 0.96929,11.89593 1.33977,17.0808c0.3473,4.86042 0.42212,9.57317 0.38547,14.24877c9.99189,-1.43578 19.89047,-2.79416 29.98892,-3.00466c-2.35048,-3.78737 -5.2604,-7.26247 -9.06811,-10.2671z" fill="#009b15" stroke="none" stroke-width="0.5"/><path d="M239.07541,235.87797c0,-4.61393 4.61393,-4.61393 4.61393,-4.61393h1.47646c13.70942,0 24.52879,0.65699 36.20093,-7.07474c4.03579,-0.75949 -8.12406,-4.89804 -10.9136,-6.31344c-6.03133,-3.06025 -10.35624,-8.4618 -15.96235,-12.06993c-2.79501,-1.79888 -6.83866,-1.54437 -9.17268,-3.91091c-2.23901,-2.27016 -4.66406,-5.1091 -4.76187,-8.29614c-0.37126,-12.09639 22.10892,-15.08116 29.79509,-16.17917c0,0 4.56757,-0.65252 5.22005,3.91505c0.65252,4.56757 -3.91505,5.22005 -3.91505,5.22005c-3.30834,0.47261 -6.66731,0.66544 -9.92766,1.39939c-2.42327,0.54551 -11.0153,3.62574 -11.95329,6.04473c-0.5739,1.48004 3.06767,0.8456 4.53837,1.44309c4.97644,2.02171 5.20477,2.61861 9.23712,5.82743c7.16377,5.70075 18.37769,9.17109 24.37993,15.51757c2.02898,2.14537 4.80391,4.5851 4.65911,7.5344c-0.14429,2.93896 -3.58189,4.66941 -5.37283,7.00413c-13.69975,9.1774 -26.00422,9.16629 -42.05132,9.16629h-1.47646c0,0 -4.61393,0 -4.61393,-4.61393z" fill="#009b15" stroke="none" stroke-width="0.5"/><path d="M312.36203,246.16094c-4.37714,-1.45904 -2.91811,-5.83621 -2.91811,-5.83621l0.50144,-0.75565c0,-15.5602 0.73823,-30.97788 0.73823,-46.50841c0,0 0,-4.61393 4.61393,-4.61393c4.61393,0 4.61393,4.61393 4.61393,4.61393c0,15.53322 -0.73823,30.94732 -0.73823,46.50841l-0.97502,3.67372c0,0 -1.45904,4.37714 -5.83621,2.91811z" fill="#009b15" stroke="none" stroke-width="0.5"/><path d="M348.42287,243.83183c0.90488,-4.52435 5.42919,-3.61946 5.42919,-3.61946l3.43878,0.69501c11.36138,1.65057 19.45975,-1.13805 30.28295,-3.34742c3.31974,-8.90237 -7.1981,-12.22658 -14.69529,-13.36866c-12.55557,-1.91264 -27.21775,2.00831 -26.01012,-16.69309c0.27565,-4.26903 1.10919,-9.2637 4.29269,-12.53243c3.40877,-3.50005 10.5855,-4.78018 15.09161,-6.28222c0,0 4.37714,-1.45904 5.83621,2.91811c1.45904,4.37714 -2.91811,5.83621 -2.91811,5.83621c-7.27694,2.42563 -12.39851,2.23975 -13.09776,10.7145c-0.04503,0.54592 -0.60199,4.83112 0.63543,5.78428c3.90302,3.0064 13.22869,0.4611 17.64821,1.14595c11.10905,1.72144 26.68232,8.80544 22.94537,22.59367c-0.67851,2.50344 -2.45476,4.56993 -3.68214,6.85493c-12.75619,5.04003 -23.87295,7.4478 -37.63409,5.51132l-3.94351,-0.78145c0,0 -4.52435,-0.90488 -3.61946,-5.42919z" fill="#009b15" stroke="none" stroke-width="0.5"/><path d="M-53.61112,102.77353c0,-1.52891 1.23945,-2.76836 2.76836,-2.76836c1.52891,0 2.76836,1.23945 2.76836,2.76836c0,1.52891 -1.23945,2.76836 -2.76836,2.76836c-1.52891,0 -2.76836,-1.23945 -2.76836,-2.76836z" fill="#595959" stroke="none" stroke-width="0.5"/><path d="M-3.78069,100.31275c0,-1.52891 1.23945,-2.76836 2.76836,-2.76836c1.52891,0 2.76836,1.23945 2.76836,2.76836c0,1.52891 -1.23945,2.76836 -2.76836,2.76836c-1.52891,0 -2.76836,-1.23945 -2.76836,-2.76836z" fill="#595959" stroke="none" stroke-width="0.5"/><path d="M61.42953,100.31275c0,-1.52891 1.23945,-2.76836 2.76836,-2.76836c1.52891,0 2.76836,1.23945 2.76836,2.76836c0,1.52891 -1.23945,2.76836 -2.76836,2.76836c-1.52891,0 -2.76836,-1.23945 -2.76836,-2.76836z" fill="#595959" stroke="none" stroke-width="0.5"/><path d="M121.71819,100.31275c0,-1.52891 1.23945,-2.76836 2.76836,-2.76836c1.52891,0 2.76836,1.23945 2.76836,2.76836c0,1.52891 -1.23945,2.76836 -2.76836,2.76836c-1.52891,0 -2.76836,-1.23945 -2.76836,-2.76836z" fill="#595959" stroke="none" stroke-width="0.5"/><path d="M193.08029,102.77353c0,-1.52891 1.23945,-2.76836 2.76836,-2.76836c1.52891,0 2.76836,1.23945 2.76836,2.76836c0,1.52891 -1.23945,2.76836 -2.76836,2.76836c-1.52891,0 -2.76836,-1.23945 -2.76836,-2.76836z" fill="#595959" stroke="none" stroke-width="0.5"/><path d="M241.68036,100.92795c0,-1.52891 1.23945,-2.76836 2.76836,-2.76836c1.52891,0 2.76836,1.23945 2.76836,2.76836c0,1.52891 -1.23945,2.76836 -2.76836,2.76836c-1.52891,0 -2.76836,-1.23945 -2.76836,-2.76836z" fill="#595959" stroke="none" stroke-width="0.5"/><path d="M300.73865,100.92795c0,-1.52891 1.23945,-2.76836 2.76836,-2.76836c1.52891,0 2.76836,1.23945 2.76836,2.76836c0,1.52891 -1.23945,2.76836 -2.76836,2.76836c-1.52891,0 -2.76836,-1.23945 -2.76836,-2.76836z" fill="#595959" stroke="none" stroke-width="0.5"/><path d="M365.94887,103.38873c0,-1.52891 1.23945,-2.76836 2.76836,-2.76836c1.52891,0 2.76836,1.23945 2.76836,2.76836c0,1.52891 -1.23945,2.76836 -2.76836,2.76836c-1.52891,0 -2.76836,-1.23945 -2.76836,-2.76836z" fill="#595959" stroke="none" stroke-width="0.5"/><path d="M420.08561,101.54316c0,-1.52891 1.23945,-2.76836 2.76836,-2.76836c1.52891,0 2.76836,1.23945 2.76836,2.76836c0,1.52891 -1.23945,2.76836 -2.76836,2.76836c-1.52891,0 -2.76836,-1.23945 -2.76836,-2.76836z" fill="#595959" stroke="none" stroke-width="0.5"/><path d="M461.30339,105.2343c0,-1.52891 1.23945,-2.76836 2.76836,-2.76836c1.52891,0 2.76836,1.23945 2.76836,2.76836c0,1.52891 -1.23945,2.76836 -2.76836,2.76836c-1.52891,0 -2.76836,-1.23945 -2.76836,-2.76836z" fill="#595959" stroke="none" stroke-width="0.5"/><path d="M522.20726,108.92544c0,-1.52891 1.23945,-2.76836 2.76836,-2.76836c1.52891,0 2.76836,1.23945 2.76836,2.76836c0,1.52891 -1.23945,2.76836 -2.76836,2.76836c-1.52891,0 -2.76836,-1.23945 -2.76836,-2.76836z" fill="#595959" stroke="none" stroke-width="0.5"/><path d="M526.51361,143.37611c0,-1.52891 1.23945,-2.76836 2.76836,-2.76836c1.52891,0 2.76836,1.23945 2.76836,2.76836c0,1.52891 -1.23945,2.76836 -2.76836,2.76836c-1.52891,0 -2.76836,-1.23945 -2.76836,-2.76836z" fill="#595959" stroke="none" stroke-width="0.5"/><path d="M528.35918,187.66983c0,-1.52891 1.23945,-2.76836 2.76836,-2.76836c1.52891,0 2.76836,1.23945 2.76836,2.76836c0,1.52891 -1.23945,2.76836 -2.76836,2.76836c-1.52891,0 -2.76836,-1.23945 -2.76836,-2.76836z" fill="#595959" stroke="none" stroke-width="0.5"/><path d="M526.51361,224.58126c0,-1.52891 1.23945,-2.76836 2.76836,-2.76836c1.52891,0 2.76836,1.23945 2.76836,2.76836c0,1.52891 -1.23945,2.76836 -2.76836,2.76836c-1.52891,0 -2.76836,-1.23945 -2.76836,-2.76836z" fill="#595959" stroke="none" stroke-width="0.5"/><path d="M527.12878,259.64713c0,-1.52891 1.23945,-2.76836 2.76836,-2.76836c1.52891,0 2.76836,1.23945 2.76836,2.76836c0,1.52891 -1.23945,2.76836 -2.76836,2.76836c-1.52891,0 -2.76836,-1.23945 -2.76836,-2.76836z" fill="#595959" stroke="none" stroke-width="0.5"/><path d="M473.60719,258.41676c0,-1.52891 1.23945,-2.76836 2.76836,-2.76836c1.52891,0 2.76836,1.23945 2.76836,2.76836c0,1.52891 -1.23945,2.76836 -2.76836,2.76836c-1.52891,0 -2.76836,-1.23945 -2.76836,-2.76836z" fill="#595959" stroke="none" stroke-width="0.5"/><path d="M437.31096,258.41676c0,-1.52891 1.23945,-2.76836 2.76836,-2.76836c1.52891,0 2.76836,1.23945 2.76836,2.76836c0,1.52891 -1.23945,2.76836 -2.76836,2.76836c-1.52891,0 -2.76836,-1.23945 -2.76836,-2.76836z" fill="#595959" stroke="none" stroke-width="0.5"/><path d="M364.71846,263.33827c0,-1.52891 1.23945,-2.76836 2.76836,-2.76836c1.52891,0 2.76836,1.23945 2.76836,2.76836c0,1.52891 -1.23945,2.76836 -2.76836,2.76836c-1.52891,0 -2.76836,-1.23945 -2.76836,-2.76836z" fill="#595959" stroke="none" stroke-width="0.5"/><path d="M311.19688,263.33827c0,-1.52891 1.23945,-2.76836 2.76836,-2.76836c1.52891,0 2.76836,1.23945 2.76836,2.76836c0,1.52891 -1.23945,2.76836 -2.76836,2.76836c-1.52891,0 -2.76836,-1.23945 -2.76836,-2.76836z" fill="#595959" stroke="none" stroke-width="0.5"/><path d="M247.83227,260.26233c0,-1.52891 1.23945,-2.76836 2.76836,-2.76836c1.52891,0 2.76836,1.23945 2.76836,2.76836c0,1.52891 -1.23945,2.76836 -2.76836,2.76836c-1.52891,0 -2.76836,-1.23945 -2.76836,-2.76836z" fill="#595959" stroke="none" stroke-width="0.5"/><path d="M199.84741,260.87749c0,-1.52891 1.23945,-2.76836 2.76836,-2.76836c1.52891,0 2.76836,1.23945 2.76836,2.76836c0,1.52891 -1.23945,2.76836 -2.76836,2.76836c-1.52891,0 -2.76836,-1.23945 -2.76836,-2.76836z" fill="#595959" stroke="none" stroke-width="0.5"/><path d="M132.79162,262.1079c0,-1.52891 1.23945,-2.76836 2.76836,-2.76836c1.52891,0 2.76836,1.23945 2.76836,2.76836c0,1.52891 -1.23945,2.76836 -2.76836,2.76836c-1.52891,0 -2.76836,-1.23945 -2.76836,-2.76836z" fill="#595959" stroke="none" stroke-width="0.5"/><path d="M65.12067,258.41676c0,-1.52891 1.23945,-2.76836 2.76836,-2.76836c1.52891,0 2.76836,1.23945 2.76836,2.76836c0,1.52891 -1.23945,2.76836 -2.76836,2.76836c-1.52891,0 -2.76836,-1.23945 -2.76836,-2.76836z" fill="#595959" stroke="none" stroke-width="0.5"/><path d="M-0.70475,260.26233c0,-1.52891 1.23945,-2.76836 2.76836,-2.76836c1.52891,0 2.76836,1.23945 2.76836,2.76836c0,1.52891 -1.23945,2.76836 -2.76836,2.76836c-1.52891,0 -2.76836,-1.23945 -2.76836,-2.76836z" fill="#595959" stroke="none" stroke-width="0.5"/><path d="M-54.84149,259.03192c0,-1.52891 1.23945,-2.76836 2.76836,-2.76836c1.52891,0 2.76836,1.23945 2.76836,2.76836c0,1.52891 -1.23945,2.76836 -2.76836,2.76836c-1.52891,0 -2.76836,-1.23945 -2.76836,-2.76836z" fill="#595959" stroke="none" stroke-width="0.5"/><path d="M-54.84149,220.89012c0,-1.52891 1.23945,-2.76836 2.76836,-2.76836c1.52891,0 2.76836,1.23945 2.76836,2.76836c0,1.52891 -1.23945,2.76836 -2.76836,2.76836c-1.52891,0 -2.76836,-1.23945 -2.76836,-2.76836z" fill="#595959" stroke="none" stroke-width="0.5"/><path d="M-56.0719,180.28754c0,-1.52891 1.23945,-2.76836 2.76836,-2.76836c1.52891,0 2.76836,1.23945 2.76836,2.76836c0,1.52891 -1.23945,2.76836 -2.76836,2.76836c-1.52891,0 -2.76836,-1.23945 -2.76836,-2.76836z" fill="#595959" stroke="none" stroke-width="0.5"/><path d="M-56.68707,140.30016c0,-1.52891 1.23945,-2.76836 2.76836,-2.76836c1.52891,0 2.76836,1.23945 2.76836,2.76836c0,1.52891 -1.23945,2.76836 -2.76836,2.76836c-1.52891,0 -2.76836,-1.23945 -2.76836,-2.76836z" fill="#595959" stroke="none" stroke-width="0.5"/><path d="M210.30564,207.35591c0,-2.54822 2.06571,-4.61393 4.61393,-4.61393c2.54822,0 4.61393,2.06571 4.61393,4.61393c0,2.54822 -2.06571,4.61393 -4.61393,4.61393c-2.54822,0 -4.61393,-2.06571 -4.61393,-4.61393z" fill="#00b818" stroke="none" stroke-width="0.5"/><path d="M142.01948,198.74326c0,-2.54822 2.06571,-4.61393 4.61393,-4.61393c2.54822,0 4.61393,2.06571 4.61393,4.61393c0,2.54822 -2.06571,4.61393 -4.61393,4.61393c-2.54822,0 -4.61393,-2.06571 -4.61393,-4.61393z" fill="#00b818" stroke="none" stroke-width="0.5"/><path d="M281.66773,196.28248c0,-2.54822 2.06571,-4.61393 4.61393,-4.61393c2.54822,0 4.61393,2.06571 4.61393,4.61393c0,2.54822 -2.06571,4.61393 -4.61393,4.61393c-2.54822,0 -4.61393,-2.06571 -4.61393,-4.61393z" fill="#00b818" stroke="none" stroke-width="0.5"/><path d="M72.50296,219.04455c0,-1.52891 1.23945,-2.76836 2.76836,-2.76836c1.52891,0 2.76836,1.23945 2.76836,2.76836c0,1.52891 -1.23945,2.76836 -2.76836,2.76836c-1.52891,0 -2.76836,-1.23945 -2.76836,-2.76836z" fill="#00b818" stroke="none" stroke-width="0.5"/><path d="M202.92335,196.89769c0,-1.52891 1.23945,-2.76836 2.76836,-2.76836c1.52891,0 2.76836,1.23945 2.76836,2.76836c0,1.52891 -1.23945,2.76836 -2.76836,2.76836c-1.52891,0 -2.76836,-1.23945 -2.76836,-2.76836z" fill="#00b818" stroke="none" stroke-width="0.5"/><path d="M188.77398,246.11292c0,-1.52891 1.23945,-2.76836 2.76836,-2.76836c1.52891,0 2.76836,1.23945 2.76836,2.76836c0,1.52891 -1.23945,2.76836 -2.76836,2.76836c-1.52891,0 -2.76836,-1.23945 -2.76836,-2.76836z" fill="#00b818" stroke="none" stroke-width="0.5"/><path d="M297.66271,199.35846c0,-1.52891 1.23945,-2.76836 2.76836,-2.76836c1.52891,0 2.76836,1.23945 2.76836,2.76836c0,1.52891 -1.23945,2.76836 -2.76836,2.76836c-1.52891,0 -2.76836,-1.23945 -2.76836,-2.76836z" fill="#00b818" stroke="none" stroke-width="0.5"/><path d="M329.03743,244.26735c0,-1.52891 1.23945,-2.76836 2.76836,-2.76836c1.52891,0 2.76836,1.23945 2.76836,2.76836c0,1.52891 -1.23945,2.76836 -2.76836,2.76836c-1.52891,0 -2.76836,-1.23945 -2.76836,-2.76836z" fill="#00b818" stroke="none" stroke-width="0.5"/><path d="M271.82471,252.88004c0,-1.52891 1.23945,-2.76836 2.76836,-2.76836c1.52891,0 2.76836,1.23945 2.76836,2.76836c0,1.52891 -1.23945,2.76836 -2.76836,2.76836c-1.52891,0 -2.76836,-1.23945 -2.76836,-2.76836z" fill="#00b818" stroke="none" stroke-width="0.5"/><path d="M391.78687,201.8192c0,-1.52891 1.23945,-2.76836 2.76836,-2.76836c1.52891,0 2.76836,1.23945 2.76836,2.76836c0,1.52891 -1.23945,2.76836 -2.76836,2.76836c-1.52891,0 -2.76836,-1.23945 -2.76836,-2.76836z" fill="#00b818" stroke="none" stroke-width="0.5"/></g></g></svg>