<svg version="1.1" xmlns="http://www.w3.org/2000/svg" xmlns:xlink="http://www.w3.org/1999/xlink" width="169.33335" height="144.64821" viewBox="0,0,169.33335,144.64821"><defs><linearGradient x1="240.00004" y1="114.08601" x2="240.00004" y2="245.91402" gradientUnits="userSpaceOnUse" id="color-1"><stop offset="0" stop-color="#3f3f3f"/><stop offset="1" stop-color="#191919"/></linearGradient></defs><g transform="translate(-155.33336,-107.67591)"><g data-paper-data="{&quot;isPaintingLayer&quot;:true}" fill-rule="nonzero" stroke-linecap="butt" stroke-linejoin="miter" stroke-miterlimit="10" stroke-dasharray="" stroke-dashoffset="0" style="mix-blend-mode: normal"><path d="M156.08338,251.57412v-143.1482h167.83333v143.1482z" fill="#707070" stroke="#494949" stroke-width="1.5"/><path d="M162.71953,245.91402v-131.828h154.56103v131.828z" fill="url(#color-1)" stroke="#494949" stroke-width="1.5"/><path d="M283.13365,194.19278c-0.11536,-0.39671 0.21102,-0.72308 0.21102,-0.72308l0.36431,-0.34371c1.76141,-1.12577 2.27577,-2.5903 3.86965,-3.57052l-0.11965,-0.17948l0.74147,-0.49431c0.12072,-0.08304 0.26696,-0.13165 0.42455,-0.13165c0.12878,0 0.24999,0.03246 0.35588,0.08964c0.14175,-1.24991 0.25699,-2.34442 1.02008,-3.50567c0,0 0.41602,-0.62404 1.04006,-0.20802c0.62404,0.41602 0.20801,1.04006 0.20801,1.04006c-0.78618,1.15837 -0.68181,2.32816 -0.87966,3.67561c-0.52047,3.54466 -0.99438,6.7741 -0.99438,10.40837c0,5.31057 0.41154,12.10645 -1.25968,17.12014c0.05334,3.46949 -0.9336,7.10157 -1.5,10.5c-0.28914,1.73485 -0.18709,3.56125 -0.75,5.25c0,6.62004 -8.15125,8.12986 -13.49032,8.12986c-1.97575,0 -4.74923,0.13447 -6.70638,-0.90338c0.11975,2.56609 0.32197,6.2699 -1.68972,7.56463c-0.75369,0.48508 -3.19382,0.57861 -4.1039,0.58874c-3.77184,0 -8.14671,0.14195 -11.87986,0.74032c-1.28168,0.20543 -2.49518,-0.16827 -3.75,0.25c-4.20613,0.04682 -8.78955,0.6731 -13.13337,0.34661c-0.35012,0.31993 -0.82217,0.08389 -0.82217,0.08389l-0.23529,-0.1836c-0.93963,-0.10751 -1.86542,-0.26646 -2.77094,-0.49284c-3.37171,0.02878 -7.4476,-0.46689 -10.64553,-1.53287c-1.06215,-0.35405 -2.61097,-0.59356 -3.35886,-1.50627c-0.74891,-0.91395 -0.89147,-3.08236 -0.90397,-4.20524c0,-5.23862 -1,-10.38861 -1,-15.75c0,-5.45 -0.05111,-10.90775 0.00968,-16.37014c1.53968,-4.61904 1.94139,-10.00548 6.80632,-12.22051c0.1831,-0.40936 0.684,-0.40936 0.684,-0.40936c1.24205,0.07504 3.22083,-1.48181 4.48979,-1.95342c3.59166,-1.33484 7.55147,-1.38184 11.14007,-2.5369c1.71929,-0.00898 3.32809,-0.81513 5.0285,-1.00406c5.35987,-0.59552 10.77919,0.49438 16.09163,0.49438c2.63515,0.00726 5.54047,0.32974 8.12014,0.75968c0.80627,0.13438 1.99716,0.07214 2.66019,0.70999c0.43756,0.42094 0.50275,1.11192 0.84371,1.61431l0.12596,0.66602c0,0 0,0.36556 -0.25522,0.58625c2.93178,2.56759 4.05245,7.34174 3.99553,11.04361c0.42271,1.26811 0.02816,2.47622 0.25,3.75c0.43949,2.52349 1.31404,4.97147 1.75,7.5c0.03555,0.20616 0.09246,0.45841 0.15012,0.7312c0.60521,-2.64225 0.85956,-5.51382 0.85956,-8.11106c0,-3.95791 -0.65572,-8.75962 0.2516,-12.69094c-0.00106,-0.01915 -0.0016,-0.03883 -0.0016,-0.05906c0,-0.19858 0.05257,-0.34457 0.12989,-0.45192c0.04914,-0.18055 0.10194,-0.35903 0.1586,-0.53525c0,0 0.23717,-0.71151 0.94868,-0.47434c0.35015,0.11672 0.47055,0.34832 0.50252,0.55346c1.12371,-0.36112 2.15697,-1.25377 3.18079,-1.76568c1.14699,-0.5735 2.53995,-1.16302 3.83817,-1.88351zM288.22105,191.20527c-1.19263,3.57791 -6.57111,5.38536 -9.76651,6.96849c-1.06082,0.52558 -1.64569,1.10267 -2.71027,1.27518c-0.82475,3.69172 -0.11924,8.40442 -0.11924,12.05109c0,3.43463 -0.41958,7.33407 -1.5,10.59101v0.65899c0,0.41422 -0.33578,0.75 -0.75,0.75c-0.26446,0 -0.49695,-0.13688 -0.63049,-0.34366l-0.49355,-0.74032l0.19536,-0.13023c-0.59946,-0.87742 -0.57757,-1.70224 -0.81163,-3.16565c-0.404,-2.52585 -1.34476,-4.97178 -1.75,-7.5c-0.20544,-1.28168 0.16827,-2.49518 -0.25,-3.75c-0.03638,-3.2687 -0.78737,-8.6725 -3.92571,-10.49609l-0.5048,-0.78863c0,0 -0.33541,-0.67082 0.33541,-1.00623c0.06171,-0.03086 0.12058,-0.0532 0.17662,-0.06833c-0.09163,-0.26526 -0.18626,-0.52731 -0.37153,-0.73053c-0.29007,-0.31815 -1.48041,-0.23011 -1.83981,-0.29001c-2.49559,-0.41593 -5.3286,-0.74824 -7.87986,-0.74032c-5.2513,0 -10.61272,-1.09405 -15.90837,-0.50562c-1.67879,0.18654 -3.27021,1.00552 -4.9715,0.99594c-3.46423,1.20523 -7.36993,1.14114 -10.85993,2.4631c-1.29352,0.48997 -2.68037,1.48612 -4.04076,1.88132c-0.1203,0.08945 -0.23228,0.12678 -0.23228,0.12678c-5.08575,1.69525 -5.30765,7.091 -6.74685,11.40863c0.02986,1.94223 -0.16816,4.09464 -0.5,6c-0.57646,3.30993 0.50968,6.84157 0.50968,10.12986c0,5.3656 1,10.50083 1,15.75c-0.01225,0.79638 0.08637,2.62392 0.59603,3.29476c0.43483,0.57234 1.99866,0.77957 2.64114,0.99373c3.14221,1.0474 7.0371,1.44498 10.35447,1.46713c0.52401,0.131 1.05335,0.23782 1.58701,0.32402c-1.05973,-3.65367 -1.47748,-7.38506 -2.66896,-10.95951c0,-5.31153 -2.25968,-10.47733 -2.25968,-15.87014c0,-5.05846 0.75,-9.99309 0.75,-15c0,0 0,-0.75 0.75,-0.75c0.75,0 0.75,0.75 0.75,0.75c0,5.01024 -0.75,9.941 -0.75,15c0,5.30821 2.24032,10.39521 2.24032,15.62986c1.24061,3.72183 1.62513,7.60829 2.81544,11.40139c4.39764,0.39201 9.01525,-0.33782 13.32411,-0.27157c1.26811,-0.42271 2.47622,-0.02816 3.75,-0.25c3.77445,-0.65735 8.29761,-0.75968 12.12014,-0.75968c0.7937,0.0122 2.73475,-0.08913 3.3961,-0.41126c0.28384,-0.13825 0.55582,-1.57184 0.64239,-1.82591c0.58016,-1.70278 0.21151,-3.96242 0.21151,-5.76283v-0.02316c-0.4393,-0.76995 -0.10134,-1.52694 -0.24032,-2.35671c-0.32636,-1.94852 -1.34481,-4.00382 -1.97119,-5.88297c-0.86996,-2.60989 -0.32255,-4.99723 -0.77881,-7.61703c-0.49626,-2.84945 -1.50968,-5.41773 -1.50968,-8.37014c0.04181,-2.71932 -0.5,-5.50182 -0.5,-8.25v-0.25c0,0 0,-0.75 0.75,-0.75c0.75,0 0.75,0.75 0.75,0.75v0.25c0,2.75792 0.46956,5.51505 0.5,8.25c0,2.87688 1.04338,5.34147 1.49032,8.12986c0.41001,2.558 -0.11853,4.86379 0.72119,7.38297c0.65274,1.95822 1.69107,4.08331 2.02881,6.11703c0.05203,0.31328 -0.09526,1.00542 -0.04028,1.49867c0.24387,0.17425 0.28947,0.47592 0.298,0.58266c1.57381,1.59816 4.77616,1.2888 6.75196,1.2888c4.6727,0 12.00968,-1.08033 12.00968,-6.87014c0.56288,-1.68865 0.46058,-3.51348 0.75,-5.25c0.57298,-3.43788 1.46095,-6.9914 1.5,-10.5c1.65037,-4.95109 1.24032,-11.63334 1.24032,-16.87986c0,-3.27396 0.39813,-6.23179 0.83572,-9.37122c-0.16323,0.10882 -0.32646,0.21764 -0.48969,0.32646z" fill="#00488c" stroke="none" stroke-width="0.5"/><path d="M288.75071,190.84876c-0.43759,3.13943 -0.8313,6.10431 -0.8313,9.37826c0,5.24652 0.41554,11.94832 -1.23483,16.89941c-0.03905,3.5086 -0.92818,7.0768 -1.50116,10.51468c-0.28942,1.73652 -0.18926,3.56831 -0.75214,5.25695c0,5.78981 -7.34672,6.88576 -12.01942,6.88576c-1.9758,0 -5.18363,0.31449 -6.75744,-1.28367c-0.00853,-0.10674 -0.1171,-0.4861 -0.36097,-0.66035c-0.05498,-0.49326 0.09065,-1.18398 0.03862,-1.49726c-0.33774,-2.03372 -1.38138,-4.15328 -2.03412,-6.11151c-0.83972,-2.51917 -0.32093,-4.80604 -0.73094,-7.36403c-0.44694,-2.7884 -1.48746,-5.21928 -1.48746,-8.09616c-0.03044,-2.73495 -0.48515,-5.47337 -0.48515,-8.23129l0.00037,-0.24972c0,0 0.00252,-0.74821 -0.74748,-0.74821c-0.75,0 -0.6951,0.66643 -0.6951,0.66643l0.00036,0.25024c0,2.74818 0.5584,5.54889 0.51659,8.26821c0,2.9524 1.01684,5.55971 1.51309,8.40915c0.45626,2.6198 -0.10278,5.02642 0.76719,7.63632c0.62638,1.87914 1.63993,3.93888 1.9663,5.8874c0.13898,0.82977 -0.20114,1.58836 0.23816,2.35831l-0.00002,0.02318c0,1.80041 0.36342,4.06329 -0.21674,5.76606c-0.08657,0.25408 -0.36068,1.68875 -0.64452,1.827c-0.66135,0.32212 -2.6076,0.42558 -3.4013,0.41338c-3.82252,0 -8.36674,0.10483 -12.14119,0.76218c-1.27378,0.22184 -2.4882,-0.17372 -3.75631,0.24898c-4.30885,-0.06625 -8.94378,0.65597 -13.34142,0.26396c-1.19031,-3.79309 -1.58617,-7.69036 -2.82679,-11.41219c0,-5.23466 -2.25046,-10.34875 -2.25046,-15.65696c0,-5.059 0.75619,-10.0173 0.75619,-15.02754c0,0 0.08715,-0.70096 -0.66285,-0.70096c-0.75,0 -0.74915,0.74845 -0.74915,0.74845c0,5.00691 -0.74439,9.9153 -0.74439,14.97376c0,5.39281 2.25024,10.53227 2.25024,15.84381c1.19148,3.57444 1.59884,7.29525 2.65857,10.94893c-0.53366,-0.0862 -1.12471,-0.11435 -1.64872,-0.24535c-3.31736,-0.02215 -7.21966,-0.42722 -10.36187,-1.47463c-0.64247,-0.21416 -2.20797,-0.42358 -2.6428,-0.99592c-0.50967,-0.67084 -0.61023,-2.50133 -0.59798,-3.2977c0,-5.24917 -1.00659,-10.40182 -1.00659,-15.76741c0,-3.2883 -1.08668,-6.83319 -0.51022,-10.14312c0.33184,-1.90536 0.53118,-4.06545 0.50132,-6.00768c1.4392,-4.31762 1.6682,-9.72918 6.75395,-11.42443c0,0 0.11216,-0.03759 0.23245,-0.12704c1.36039,-0.3952 2.75059,-1.39569 4.04411,-1.88566c3.48999,-1.32196 7.40725,-1.26772 10.87148,-2.47295c1.70129,0.00958 3.30017,-0.81318 4.97896,-0.99972c5.29565,-0.58844 10.6857,0.5029 15.937,0.5029c2.55127,-0.00792 5.39751,0.32903 7.8931,0.74496c0.35939,0.0599 1.5524,-0.02665 1.84247,0.2915c0.18527,0.20322 0.28094,0.4659 0.37257,0.73117c-0.05604,0.01513 -0.16819,0.12208 -0.2299,0.15294c-0.67082,0.33541 -0.2819,0.92175 -0.2819,0.92175l0.5061,0.78949c3.13833,1.8236 3.90369,7.2425 3.94007,10.5112c0.41827,1.25482 0.04816,2.4754 0.2536,3.75708c0.40524,2.52822 1.34977,4.992 1.75376,7.51785c0.23406,1.46341 0.21182,2.29543 0.81128,3.17285l-0.19539,0.13058l0.49334,0.74179c0.13354,0.20677 0.26734,0.32755 0.53179,0.32755c0.41422,0 0.74973,-0.33399 0.74973,-0.74821l-0.00016,-0.65762c1.08042,-3.25695 1.50216,-7.13585 1.50216,-10.57048c0,-3.64667 -0.69701,-8.34355 0.12775,-12.03527c1.06459,-0.17251 1.72821,-0.81122 2.78902,-1.33679c3.1954,-1.58313 8.49426,-3.33008 9.68689,-6.90799c0.16323,-0.10882 0.40638,-0.27776 0.56961,-0.38658z" data-paper-data="{&quot;noHover&quot;:false,&quot;origItem&quot;:[&quot;Path&quot;,{&quot;applyMatrix&quot;:true,&quot;segments&quot;:[[[576.44206,382.41049],[0.32646,-0.21764],[-2.38527,7.15582]],[[556.90903,396.34747],[6.39081,-3.16627],[-2.12164,1.05115]],[[551.48849,398.89782],[2.12917,-0.34502],[-1.64951,7.38345]],[[551.25,423],[0,-7.29334],[0,6.86926]],[[548.25,444.18203],[2.16085,-6.51389],[0,0]],[[548.25,445.5],[0,0],[0,0.82843]],[[546.75,447],[0.82843,0],[-0.52892,0]],[[545.48902,446.31269],[0.26708,0.41355],[0,0]],[544.50192,444.83205],[[544.89263,444.57158],[0,0],[-1.19892,-1.75483]],[[543.26937,438.24027],[0.46813,2.92682],[-0.80799,-5.0517]],[[539.76937,423.24027],[0.81047,5.05644],[-0.41087,-2.56335]],[[539.26937,415.74027],[0.83655,2.50964],[-0.07276,-6.53739]],[[531.41795,394.74808],[6.27667,3.64719],[0,0]],[530.40836,393.17082],[[531.07918,391.15836],[-1.34164,0.67082],[0.12342,-0.06171]],[[531.43241,391.02171],[-0.11207,0.03026],[-0.18325,-0.53053]],[[530.68934,389.56066],[0.37054,0.40643],[-0.58013,-0.63631]],[[527.00973,388.98063],[0.71878,0.1198],[-4.99118,-0.83186]],[[511.25,387.5],[5.10253,-0.01584],[-10.5026,0]],[[479.43327,386.48876],[10.5913,-1.17687],[-3.35758,0.37308]],[[469.49027,388.48063],[3.40257,0.01917],[-6.92846,2.41047]],[[447.77042,393.40683],[6.97999,-2.64392],[-2.58705,0.97994]],[[439.68889,397.16946],[2.72078,-0.7904],[-0.2406,0.17891]],[[439.22434,397.42302],[0,0],[-10.1715,3.3905]],[[425.73063,420.24027],[2.87841,-8.63524],[0.05972,3.88445]],[[424.73063,432.24027],[0.66367,-3.81072],[-1.15291,6.61987]],[[425.75,452.5],[0,-6.57659],[0,10.73119]],[[427.75,484],[0,-10.49833],[-0.02449,1.59275]],[[428.94206,490.58951],[-1.01933,-1.34167],[0.86966,1.14468]],[[434.22434,492.57698],[-1.28495,-0.42832],[6.28443,2.09481]],[[454.93327,495.51124],[-6.63472,-0.0443],[1.04803,0.26201]],[[458.10729,496.15928],[-1.06732,-0.1724],[-2.11947,-7.30735]],[[452.76937,474.24027],[2.38296,7.14888],[0,-10.62307]],[[448.25,442.5],[0,10.78561],[0,-10.11691]],[[449.75,412.5],[0,10.01382],[0,0]],[[451.25,411],[-1.5,0],[1.5,0]],[[452.75,412.5],[0,0],[0,10.02048]],[[451.25,442.5],[0,-10.11799],[0,10.61643]],[[455.73063,473.75973],[0,-10.46932],[2.48122,7.44366]],[[461.36152,496.5625],[-2.38062,-7.58618],[8.79528,0.78402]],[[488.00973,496.01937],[-8.6177,-0.1325],[2.53622,-0.84541]],[[495.50973,495.51937],[-2.54755,0.44368],[7.5489,-1.31471]],[[519.75,494],[-7.64505,0],[1.58739,0.02441]],[[526.54221,493.17749],[-1.3227,0.64425],[0.56767,-0.2765]],[[527.82698,489.52566],[-0.17313,0.50815],[1.16032,-3.40555]],[[528.25,478],[0,3.60082],[0,0]],[[528.25,477.95368],[0,0],[-0.8786,-1.5399]],[[527.76937,473.24027],[0.27796,1.65954],[-0.65272,-3.89705]],[[523.82698,461.47434],[1.25276,3.75829],[-1.73993,-5.21979]],[[522.26937,446.24027],[0.91252,5.2396],[-0.99251,-5.69889]],[[519.25,429.5],[0,5.90481],[0.08362,-5.43865]],[[518.25,413],[0,5.49636],[0,0]],[518.25,412.5],[[519.75,411],[-1.5,0],[1.5,0]],[521.25,412.5],[[521.25,413],[0,0],[0,5.51584]],[[522.25,429.5],[-0.06088,-5.4699],[0,5.75376]],[[525.23063,445.75973],[-0.89388,-5.57679],[0.82002,5.11599]],[[526.67302,460.52566],[-1.67945,-5.03835],[1.30548,3.91645]],[[530.73063,472.75973],[-0.67547,-4.06744],[0.10405,0.62656]],[[530.65007,475.75708],[-0.10997,-0.98651],[0.48773,0.34849]],[[531.24608,476.9224],[-0.01706,-0.21349],[3.14762,3.19632]],[[544.75,479.5],[-3.95161,0],[9.3454,0]],[[568.76937,465.75973],[0,11.57961],[1.12576,-3.37729]],[[570.26937,455.25973],[-0.57884,3.47304],[1.14596,-6.87577]],[[573.26937,434.25973],[-0.0781,7.0172],[3.30073,-9.90218]],[[575.75,400.5],[0,10.49305],[0,-6.54791]],[[577.42144,381.75757],[-0.87517,6.27886],[-0.32646,0.21764]]],&quot;closed&quot;:true}]}" fill="#0060b9" stroke="none" stroke-width="0.5"/><path d="M216.29671,132.80881c0.75,0 0.75,0.75 0.75,0.75l-0.03849,0.31412c0.4713,1.45548 1.69873,2.15609 2.20518,3.58342c0,0 0.23717,0.71151 -0.47434,0.94868c-0.71151,0.23717 -0.94869,-0.47434 -0.94869,-0.47434c-0.40796,-1.35196 -1.71427,-2.14356 -2.20518,-3.58341l-0.03849,-0.78847c0,0 0,-0.75 0.75,-0.75z" fill="#8c5900" stroke="none" stroke-width="0.5"/><path d="M250.87215,125.50528c0.33541,0.67082 -0.33541,1.00623 -0.33541,1.00623l-0.64953,0.31634c-1.08606,0.32773 -1.96218,1.49748 -2.28213,2.55778c0,0 -0.23717,0.71151 -0.94868,0.47434c-0.71151,-0.23717 -0.47434,-0.94868 -0.47434,-0.94868c0.55004,-1.55018 1.65737,-2.94818 3.23081,-3.50648l0.45306,-0.23495c0,0 0.67082,-0.33541 1.00623,0.33541z" fill="#8c5900" stroke="none" stroke-width="0.5"/><path d="M231.65602,126.66765c0,0.75 -0.75,0.75 -0.75,0.75l-0.03848,-0.03849c-0.89797,0.00526 -0.03733,3.11002 0.82694,3.26298c0,0 0.71151,0.23717 0.47434,0.94868c-0.23717,0.71151 -0.94869,0.47434 -0.94869,0.47434c-2.17594,-0.88745 -3.22933,-5.00903 -0.82694,-6.10903l0.51282,-0.03848c0,0 0.75,0 0.75,0.75z" fill="#8c5900" stroke="none" stroke-width="0.5"/><path d="M271.42616,131.98188c0.75,0 0.75,0.75 0.75,0.75l-0.00968,0.94708c-0.54161,1.57781 -1.70654,2.61307 -3.08076,3.53602c0,0 -0.62404,0.41602 -1.04006,-0.20802c-0.41602,-0.62404 0.20801,-1.04006 0.20801,-1.04006c0.91448,-0.60443 2.09639,-1.45727 2.43218,-2.52822l-0.00969,-0.70682c0,0 0,-0.75 0.75,-0.75z" fill="#8c5900" stroke="none" stroke-width="0.5"/><path d="M199.48705,149.48662c0.33541,-0.67082 1.00623,-0.33541 1.00623,-0.33541l0.74622,0.41614c1.05892,1.13126 2.72613,1.67031 3.85906,2.75647c0,0 0.53033,0.53033 0,1.06066c-0.53033,0.53033 -1.06066,0 -1.06066,0c-1.05892,-1.13126 -2.72613,-1.67031 -3.85906,-2.75647l-0.35637,-0.13515c0,0 -0.67082,-0.33541 -0.33541,-1.00623z" fill="#8c5900" stroke="none" stroke-width="0.5"/><path d="M206.96317,138.91154c0.71151,-0.23717 0.94869,0.47434 0.94869,0.47434l0.23787,0.7346c1.13063,1.69594 1.83722,3.44565 2.98242,5.15079c0,0 0.41603,0.62403 -0.20801,1.04006c-0.62404,0.41603 -1.04006,-0.20801 -1.04006,-0.20801c-1.16148,-1.7573 -1.92203,-3.58414 -3.08182,-5.32381l-0.31342,-0.91929c0,0 -0.23717,-0.71151 0.47434,-0.94868z" fill="#8c5900" stroke="none" stroke-width="0.5"/><path d="M221.03464,135.41013c-1.52254,1.37374 -3.3938,2.49116 -5.07187,3.47268c-1.92115,1.12372 -3.74039,3.80673 -5.32288,5.40529c-3.47043,3.50566 -8.04123,9.57128 -7.96886,14.90592c-0.05837,5.76601 -0.00958,11.75981 -0.00958,17.52129c1.89035,5.72861 2.55602,10.61834 6.93612,15.08089c1.52455,2.31002 3.84475,2.91631 6.09234,4.24787c2.603,1.54211 6.13335,3.20544 9.2793,3.20544c5.32994,1.73646 11.47051,3.29809 17.07235,3.29809c3.2002,0 6.57985,0.26244 9.70466,-0.26597c2.52623,-0.42719 4.88868,-1.91379 7.25184,-2.72767c2.84505,-0.95798 5.22622,-2.58037 7.7579,-4.06118c2.23092,-1.30489 3.40055,-4.21864 5.05001,-5.95658c1.00948,-0.95451 1.12666,-2.28152 1.80356,-3.44739c2.27188,-3.91306 3.12324,-8.39504 4.53762,-12.68126c-0.07164,-5.28175 1.10266,-12.13006 -0.54576,-17.12551c-0.03234,-3.19559 -0.95722,-7.65493 -2.13609,-10.58337c-0.76134,-1.89124 -2.58503,-3.48091 -3.22016,-5.40566c-3.58586,-3.39059 -7.99557,-9.19443 -13.4041,-9.026c-5.6922,-1.85448 -11.08813,-2.47114 -17.07236,-2.47114c-3.88015,0 -7.64404,0.93414 -11.13465,2.68021c-1.75998,0.88038 -4.03252,0.86019 -5.49962,2.22435c-1.24425,0.05996 -2.45385,0.57111 -3.30654,1.4913zM221.29323,133.67055c0.92294,-0.76079 2.13674,-1.43838 3.27292,-1.35595c1.25923,-1.42203 3.76926,-1.3456 5.41548,-2.186c3.66174,-1.86934 7.70595,-2.83273 11.78706,-2.83273c6.00024,0 11.62734,0.49444 17.31022,2.49051c5.83191,0.14341 10.66042,5.74685 14.4294,9.71802c0.65863,1.99594 2.54887,3.62824 3.3289,5.62023c1.18061,3.01493 2.27401,7.66932 2.22996,10.91712c1.67261,5.06875 0.60005,12.24264 0.54575,17.60605c-1.79765,5.44768 -2.73398,12.71027 -6.75693,16.94904c-0.75814,0.71686 -1.1763,1.84148 -1.86097,2.70164c-2.86265,3.59642 -7.30981,6.25838 -11.52736,7.6785c-2.45251,0.80221 -4.86807,2.34639 -7.48356,2.78528c-3.20854,0.5384 -6.65932,0.28534 -9.94252,0.28534c-5.60438,0 -12.01368,-1.45709 -17.31022,-3.31746c-3.27106,0 -7.13978,-1.73831 -9.82212,-3.41009c-2.36511,-1.47407 -4.81943,-2.08698 -6.46003,-4.57286c-4.59308,-4.59196 -5.2966,-9.86127 -7.25351,-15.79161c0,-5.80907 0.06911,-11.95983 -0.00959,-17.76156c0.05893,-5.82131 4.57592,-12.09986 8.40379,-15.96658c1.7089,-1.72625 3.54105,-4.34179 5.59222,-5.6206c1.75878,-1.09653 3.80226,-2.19936 5.32288,-3.7514c0,0 0.36362,-0.36732 0.78824,-0.18488z" fill="#8d7f67" stroke="none" stroke-width="0.5"/><path d="M221.80178,135.14925c0.85269,-0.9202 2.0667,-1.43381 3.31095,-1.49376c1.46711,-1.36416 3.7474,-1.34701 5.50738,-2.22739c3.49061,-1.74607 7.27006,-2.6822 11.15021,-2.6822c5.98423,0 11.40192,0.62257 17.09412,2.47705c5.40853,-0.16843 9.83363,5.64837 13.41949,9.03896c0.63513,1.92475 2.46311,3.52084 3.22444,5.41208c1.17886,2.92844 2.1087,7.40024 2.14104,10.59584c1.64842,4.99545 0.47462,11.86591 0.54627,17.14766c-1.41438,4.28622 -2.272,8.78432 -4.54389,12.69738c-0.6769,1.16588 -0.79682,2.49695 -1.80631,3.45146c-1.64946,1.73794 -2.82573,4.65894 -5.05664,5.96384c-2.53168,1.48082 -4.92186,3.10963 -7.76691,4.06761c-2.36316,0.81388 -4.73486,2.30444 -7.26109,2.73163c-3.12481,0.52841 -6.51706,0.26815 -9.71726,0.26815c-5.60184,0 -11.76546,-1.56633 -17.0954,-3.30278c-3.14596,0 -6.68684,-1.67008 -9.28985,-3.21219c-2.2476,-1.33156 -4.57424,-1.94432 -6.09879,-4.25435c-4.3801,-4.46257 -5.05533,-9.37049 -6.94568,-15.0991c0,-5.76148 -0.05,-11.77749 0.00837,-17.5435c-0.07236,-5.33464 4.50683,-11.42078 7.97727,-14.92644c1.5825,-1.59856 3.40848,-4.28935 5.32964,-5.41307c1.67807,-0.98153 3.55596,-2.10416 5.07849,-3.4779z" data-paper-data="{&quot;noHover&quot;:false,&quot;origItem&quot;:[&quot;Path&quot;,{&quot;applyMatrix&quot;:true,&quot;segments&quot;:[[[417.98878,188.09663],[0,0],[-3.07598,2.74748]],[[407.74209,195.042],[3.39019,-1.96305],[-3.88131,2.24743]],[[396.98826,205.85258],[3.19712,-3.19712],[-7.01132,7.01132]],[[380.88876,235.66442],[-0.14619,-10.66929],[-0.11792,11.53202]],[[380.86939,270.707],[0,-11.52296],[3.81908,11.45723]],[[394.88244,300.8688],[-8.84912,-8.92513],[3.08003,4.62005]],[[407.1908,309.36452],[-4.54081,-2.66311],[5.25885,3.08423]],[[425.93779,315.7754],[-6.35578,0],[10.76809,3.47292]],[[460.42908,322.37157],[-11.3174,0],[6.46536,0]],[[480.03541,321.83964],[-6.31306,1.05682],[5.10375,-0.85438]],[[494.6863,316.3843],[-4.7743,1.62776],[5.74785,-1.91595]],[[510.35959,308.26193],[-5.11476,2.96164],[4.50711,-2.60979]],[[520.56213,296.34876],[-3.33239,3.47588],[2.03946,-1.90902]],[[524.20587,289.45399],[-1.36754,2.33176],[4.58989,-7.82612]],[[533.37323,264.09147],[-2.85748,8.57244],[-0.14474,-10.5635]],[[532.27064,229.84045],[3.3303,9.9909],[-0.06535,-6.39119]],[[527.95509,208.67371],[2.38167,5.85688],[-1.53813,-3.78249]],[[521.4494,197.86239],[1.28316,3.84949],[-7.24452,-6.78118]],[[494.36908,179.8104],[10.92686,-0.33686],[-11.49995,-3.70896]],[[459.87778,174.86812],[12.08995,0],[-7.83907,0]],[[437.38243,180.22854],[7.05208,-3.49214],[-3.55568,1.76075]],[[426.27154,184.67724],[2.96399,-2.72832],[-2.51376,0.11991]],[[419.59134,187.65985],[1.72269,-1.8404],[0,0]]],&quot;closed&quot;:true}]}" fill="#e6d0a9" stroke="none" stroke-width="0.5"/><path d="M264.91179,182.03936c0.85259,-0.10725 1.7053,-0.24292 2.48801,-0.37748c1.44513,-0.24845 2.68277,-1.09574 4.17401,-1.09574l0.16233,-0.05162c-0.51916,1.76472 -0.40029,3.74903 -0.9725,5.46565c-0.07411,0.22233 -0.24601,2.10421 -0.38898,2.21767c-1.05359,0.83611 -3.33154,1.71452 -5.39326,2.26467l-0.00144,-0.35551c0,-1.10259 -0.01735,-2.22779 -0.01735,-3.33038c0,-1.55742 -0.01464,-3.17395 -0.05084,-4.73727z" data-paper-data="{&quot;noHover&quot;:false,&quot;origItem&quot;:[&quot;Path&quot;,{&quot;applyMatrix&quot;:true,&quot;segments&quot;:[[[507.13524,290.79389],[0,-3.11484],[0,2.20518]],[[507.13524,297.40942],[0,-2.20518],[0,0]],[[507.13524,298.11844],[0,0],[4.12344,-1.10031]],[[517.80565,293.59229],[-2.10718,1.67222],[0.28594,-0.22691]],[[518.54588,289.21696],[-0.14822,0.44467],[1.14442,-3.43325]],[[520.53237,278.38792],[-1.03832,3.52945],[0,0]],[[520.20918,278.49215],[0,0],[-2.9825,0]],[[511.93976,280.69733],[2.89027,-0.49689],[-1.56543,0.26912]],[[507.01054,281.42616],[1.70518,-0.2145],[0.07239,3.12665]]],&quot;closed&quot;:true}]}" fill="#ffb900" stroke="none" stroke-width="0.5"/><path d="M264.73366,171.69919c-0.00656,0.46129 0.0799,0.92925 0.23716,1.36499c0,0 0.17605,0.50888 -0.23025,0.79591c0.02343,2.40062 0.10215,4.82744 0.16838,7.25822c0.77185,-0.09035 1.52977,-0.19247 2.26234,-0.30583c1.44671,-0.22388 2.62659,-1.06233 4.13471,-1.06233l0.48624,-0.1629c0.02506,-1.87473 0.08124,-3.77873 -0.52632,-5.53487c-0.115,-0.33239 -0.20184,-2.37283 -0.67809,-2.48231c-1.94831,-0.44787 -3.9048,-0.07565 -5.85417,0.02986zM263.23366,171.69919v-0.06993c-4.62264,0.05113 -9.30218,0.55651 -13.93469,0.84673c0.04376,3.44243 0.99254,6.7748 1.5425,10.15252c2.17961,-0.10465 4.33167,-0.35294 6.40651,-1.01931c1.96009,-0.01932 4.08592,-0.13323 6.16527,-0.33208c-0.07954,-2.94483 -0.1796,-5.88428 -0.1796,-8.78118c0,0 0,-0.09612 0.03638,-0.21824c-0.022,-0.1925 -0.03433,-0.38575 -0.03638,-0.57852zM236.4959,188.69649c0.01727,-1.21429 -0.06435,-2.49127 -0.20193,-3.77995c-2.88626,0.0321 -5.81556,0.12953 -8.60408,0.51342c-1.73662,0.23907 -3.23896,1.18644 -4.98058,1.31831c0.26426,2.06371 0.93169,4.08851 1.66787,5.28648c1.00116,1.62916 0.49211,2.31312 2.66978,2.31312c3.25106,0 6.86335,0.41315 10.36554,0.39409c-0.86498,-1.57879 -0.91659,-4.42182 -0.91659,-6.04547zM235.403,178.98569c-0.22529,-1.30235 -0.38361,-3.16345 -1.44389,-4.11969c0,0 -0.23336,-0.22485 -0.23568,-0.52539c-2.67057,0.29929 -5.33526,0.64239 -7.86099,1.42351c-0.02205,0.14151 -0.07418,0.24198 -0.07418,0.24198l-0.23495,0.43651c-0.57331,1.65711 -1.3954,2.98769 -1.96731,4.60388c-0.76907,1.04421 -1.03943,2.60852 -0.99134,4.26823c1.68058,-0.06911 3.23436,-1.0883 4.91198,-1.31917c2.78029,-0.38262 5.72351,-0.50208 8.61157,-0.52849c-0.20606,-1.53269 -0.46843,-3.05496 -0.71518,-4.48137zM237.9959,188.69649c0,1.21178 0.0032,4.92589 0.88292,5.59743l0.11506,0.40674c1.84142,-0.09015 3.63138,-0.33915 5.29872,-0.87463c1.76782,-0.01742 3.59615,-0.11382 5.43839,-0.29048c-0.00401,-0.03647 -0.00401,-0.05855 -0.00401,-0.05855c0,-2.12466 0,-4.5149 0,-6.63957c0,-0.91472 -0.06638,-1.82213 -0.17451,-2.72507c-3.54865,0.08679 -7.13889,-0.03786 -10.56105,0.78645c-0.49725,0.00225 -0.99758,0.00438 -1.50001,0.00758c0.22906,1.24034 0.49114,2.53212 0.50449,3.79012zM251.22698,186.83743c0,2.12466 0,4.24931 0,6.37398v0.16328c3.58596,-0.42758 7.17689,-1.15924 10.4314,-2.20448c0.50714,0 1.15323,-0.0756 1.86799,-0.20804c-0.01703,-0.08307 -0.01703,-0.14101 -0.01703,-0.14101c0,-1.06233 0,-2.65582 0,-3.71815c0,-1.44658 -0.02429,-2.8978 -0.05845,-4.34924c-2.0325,0.19854 -4.11846,0.30638 -5.9626,0.28203c-2.08652,0.67011 -4.25042,0.91921 -6.44166,1.02417c0.11157,0.91984 0.18034,1.84463 0.18034,2.77745zM243.43028,172.67807c-2.58238,0.82936 -5.33725,1.17648 -8.11444,1.48614c2.14748,2.50033 1.6811,6.18551 1.96918,9.29682c0.5108,-0.00078 1.01892,0.00066 1.52313,0.00336c3.41602,-0.82283 6.99975,-0.69699 10.54102,-0.78347c-0.54424,-3.36395 -1.49049,-6.68685 -1.54889,-10.11927c-1.46361,0.07473 -2.92138,0.12064 -4.37,0.11643zM265.00933,187.10297c0,1.06233 0,2.12466 0,3.18699v0.34157c2.06172,-0.53006 4.28162,-1.37487 5.33521,-2.18045c0.14297,-0.10931 0.296,-1.89357 0.37011,-2.10779c0.57221,-1.65394 0.47409,-3.51652 0.99325,-5.21682l-0.1616,0.05021c-1.49125,0 -2.68957,0.82296 -4.13471,1.06233c-0.78271,0.12965 -1.61202,0.24777 -2.46461,0.3511c0.03619,1.50624 0.06235,3.01228 0.06235,4.51284zM224.63333,175.12915c-0.01129,-0.49143 0.52257,-0.66289 0.52257,-0.66289c5.79665,-1.86167 12.32727,-1.38192 18.03411,-3.21474c6.85523,-0.01909 13.87894,-1.07166 20.79369,-1.07166c2.17486,0.02871 5.06671,-0.90775 7.17819,0.05501c1.25898,0.57406 1.10481,1.62413 1.28024,2.67652c0.46984,2.8184 0.85806,5.26692 0.82694,8.19897c-0.68504,1.98006 -1.03528,4.31669 -1.37824,6.37398c-0.14416,0.8648 0.33243,1.12616 -0.48563,1.98871c-1.4701,1.55008 -7.37146,3.12372 -9.50656,3.12372c-5.302,1.7028 -11.75928,2.72985 -17.36578,2.65583c-5.34551,1.71678 -11.93691,0.5405 -17.48592,0.5405c-5.58655,0 -7.35935,-11.5048 -4.80845,-15.38156c0.52954,-1.57561 1.33885,-2.8278 1.89175,-4.42594l0.31634,-0.62581c0,0 0.06224,-0.11994 0.18673,-0.23065z" fill="#000000" stroke="none" stroke-width="0.5"/><path d="M264.70408,171.56111c1.94937,-0.10551 3.95706,-0.48236 5.90537,-0.03449c0.47625,0.10948 0.58138,2.16431 0.69638,2.4967c0.60757,1.75615 0.5471,3.72305 0.52203,5.59778l-0.48983,0.16608c-1.50812,0 -2.73127,0.84837 -4.17797,1.07225c-0.73257,0.11336 -1.50687,0.20869 -2.27872,0.29904c-0.06623,-2.43077 -0.1583,-4.92532 -0.18173,-7.32596c0.40631,-0.28702 0.23585,-0.80234 0.23585,-0.80234c-0.15725,-0.43574 -0.23835,-0.90819 -0.23179,-1.36947z" data-paper-data="{&quot;noHover&quot;:false,&quot;origItem&quot;:[&quot;Path&quot;,{&quot;applyMatrix&quot;:true,&quot;segments&quot;:[[[506.58395,258.81879],[0,0],[-0.01312,0.95753]],[[507.05827,261.65222],[-0.31451,-0.9045],[0,0]],[[506.59776,263.30436],[0.81262,-0.59581],[0.04686,4.98321]],[[506.93452,278.37091],[-0.13246,-5.04577],[1.5437,-0.18754]],[[511.45921,277.73607],[-1.46515,0.23533],[2.89341,-0.46473]],[[519.72863,275.53089],[-3.01624,0],[0,0]],[[520.70112,275.19274],[0,0],[0.05013,-3.89156]],[[519.64847,263.70349],[1.21513,3.64539],[-0.22999,-0.68997]],[[518.29229,258.55073],[0.9525,0.22726],[-3.89661,-0.92968]],[[506.58395,258.61271],[3.89873,-0.21903],[0,0]]],&quot;closed&quot;:true}]}" fill="#ffb900" stroke="none" stroke-width="0.5"/><path d="M251.00502,184.03326c2.19124,-0.10496 4.39868,-0.37548 6.48521,-1.0456c1.84414,0.02435 3.96544,-0.06746 5.99793,-0.266c0.03416,1.45143 0.07055,2.92714 0.07055,4.37372c0,1.06233 -0.00394,2.68358 -0.00394,3.74591c0,0 -0.00039,0.05873 0.01664,0.14181c-0.71476,0.13243 -1.36565,0.21571 -1.87279,0.21571c-3.25451,1.04523 -6.92268,1.78073 -10.50863,2.2083l-0.00052,-0.16383c0,-2.12466 -0.01143,-4.29109 -0.01143,-6.41575c0,-0.93283 -0.06145,-1.87442 -0.17302,-2.79426z" data-paper-data="{&quot;noHover&quot;:false,&quot;origItem&quot;:[&quot;Path&quot;,{&quot;applyMatrix&quot;:true,&quot;segments&quot;:[[[479.57051,290.24259],[0,-1.93636],[0,4.41036]],[[479.57051,303.47366],[0,-4.41036],[0,0]],[[479.57051,303.81259],[0,0],[7.17191,-0.88756]],[[500.43332,299.23656],[-6.50903,2.16968],[1.01428,0]],[[504.1693,298.80472],[-1.42952,0.2749],[-0.03406,-0.17243]],[[504.13524,298.51201],[0,0],[0,-2.20518]],[[504.13524,290.79389],[0,2.20518],[0,-3.0028]],[[504.01834,281.76577],[0.06832,3.01287],[-4.06499,0.41212]],[[492.09315,282.35121],[3.68828,0.05054],[-4.17305,1.39102]],[[479.20983,284.47716],[4.38247,-0.21787],[0.22314,1.90941]]],&quot;closed&quot;:true}]}" fill="#ffb900" stroke="none" stroke-width="0.5"/><path d="M263.31048,172.24934c-0.03638,0.12212 -0.03582,0.21899 -0.03582,0.21899c0,2.89691 0.10176,5.88904 0.1813,8.83387c-2.07935,0.19885 -4.23844,0.33499 -6.19853,0.35431c-2.07484,0.66637 -4.27106,0.90199 -6.45067,1.00664c-0.54996,-3.37772 -1.50526,-6.77194 -1.54901,-10.21438c4.63251,-0.29022 9.39178,-0.79916 14.01442,-0.85029l0.0002,0.07016c0.00205,0.19276 0.01612,0.38819 0.03812,0.58069z" data-paper-data="{&quot;noHover&quot;:false,&quot;origItem&quot;:[&quot;Path&quot;,{&quot;applyMatrix&quot;:true,&quot;segments&quot;:[[[503.58395,258.81879],[0.00409,0.40015],[0,0]],[[503.58395,258.67364],[0,0],[-9.24527,0.10613]],[[475.71458,260.43128],[9.26502,-0.60244],[0.08751,7.14579]],[[478.79957,281.50582],[-1.09991,-7.01147],[4.35922,-0.21724]],[[491.6126,279.38995],[-4.14968,1.38323],[3.92018,-0.04009]],[[503.94314,278.70061],[-4.1587,0.41278],[-0.15909,-6.11286]],[[503.58395,260.47268],[0,6.01337],[0,0]],[[503.65671,260.01967],[-0.07276,0.2535],[-0.044,-0.3996]]],&quot;closed&quot;:true}]}" fill="#ffb900" stroke="none" stroke-width="0.5"/><path d="M247.83503,172.52701c0.0584,3.43242 1.01105,6.81732 1.5553,10.18128c-3.54128,0.08648 -7.19259,-0.02583 -10.60861,0.79699c-0.50421,-0.0027 -1.01919,-0.00909 -1.52999,-0.00831c-0.28808,-3.11131 0.16815,-6.85628 -1.97933,-9.35658c2.77719,-0.30966 5.58524,-0.68018 8.16762,-1.50956c1.44862,0.00421 2.93141,-0.02908 4.39502,-0.10381z" data-paper-data="{&quot;noHover&quot;:false,&quot;origItem&quot;:[&quot;Path&quot;,{&quot;applyMatrix&quot;:true,&quot;segments&quot;:[[[463.97712,260.85072],[2.89724,0.00873],[-5.16475,1.72158]],[[447.74824,263.93564],[5.55438,-0.64279],[4.29496,5.19016]],[[451.68661,283.23391],[-0.57617,-6.45844],[1.0216,-0.00162]],[[454.73286,283.24088],[-1.00841,-0.00561],[6.83204,-1.70801]],[[475.81491,281.61455],[-7.08255,0.17952],[-1.08849,-6.98287]],[[472.71712,260.60904],[0.1168,7.12499],[-2.92722,0.15513]]],&quot;closed&quot;:true}]}" fill="#ffb900" stroke="none" stroke-width="0.5"/><path d="M237.45166,184.87715c0.50243,-0.00319 1.00738,-0.01038 1.50463,-0.01263c3.42216,-0.8243 7.08424,-0.69807 10.63289,-0.78488c0.10813,0.90294 0.18363,1.8238 0.18363,2.73853c0,2.12466 -0.00469,4.56153 -0.00469,6.68619c0,0 -0.00018,0.02235 0.00383,0.05882c-1.84224,0.17666 -3.70418,0.29307 -5.47199,0.31049c-1.66734,0.53549 -3.49682,0.77371 -5.33823,0.86386l-0.117,-0.40839c-0.87972,-0.67154 -0.89839,-4.42714 -0.89839,-5.63892c-0.01335,-1.258 -0.2656,-2.57273 -0.49466,-3.81308z" data-paper-data="{&quot;noHover&quot;:false,&quot;origItem&quot;:[&quot;Path&quot;,{&quot;applyMatrix&quot;:true,&quot;segments&quot;:[[[453.10836,294.10165],[-0.0267,-2.61134],[0,2.51541]],[[454.8742,305.72077],[-1.75943,-1.39399],[0,0]],[[455.10431,306.56506],[0,0],[3.68283,-0.18713]],[[465.70175,304.74951],[-3.33468,1.11156],[3.53563,-0.03615]],[[476.57853,304.14653],[-3.68449,0.36672],[-0.00802,-0.0757]],[[476.57051,304.02496],[0,0],[0,-4.41036]],[[476.57051,290.24259],[0,4.41036],[0,-1.89878]],[[476.2215,284.58592],[0.21626,1.87432],[-7.09731,0.18017]],[[455.09941,286.21841],[6.84431,-1.71108],[-0.9945,0.00468]],[[452.09938,286.23414],[1.00487,-0.00663],[0.45812,2.5747]]],&quot;closed&quot;:true}]}" fill="#ffb900" stroke="none" stroke-width="0.5"/><path d="M237.45358,194.76942c-3.50219,0.01906 -7.1826,-0.38103 -10.43366,-0.38103c-2.17767,0 -1.68797,-0.70649 -2.68912,-2.33565c-0.73618,-1.19797 -1.40307,-3.25998 -1.66734,-5.32369c1.74161,-0.13186 3.26677,-1.10277 5.00339,-1.34185c2.78852,-0.38389 5.77957,-0.46906 8.66582,-0.50117c0.13759,1.28868 0.22969,2.5875 0.21242,3.80179c0,1.62365 0.04351,4.50279 0.90849,6.08158z" data-paper-data="{&quot;noHover&quot;:false,&quot;origItem&quot;:[&quot;Path&quot;,{&quot;applyMatrix&quot;:true,&quot;segments&quot;:[[[450.10836,294.10165],[0,3.37036],[0.03454,-2.52062]],[[449.70449,286.25525],[0.27517,2.67504],[-5.77251,0.06664]],[[432.49632,287.321],[5.57704,-0.79687],[-3.47323,0.49627]],[[422.53517,290.05754],[3.48323,-0.27372],[0.52853,4.28384]],[[425.8709,301.03118],[-1.47236,-2.48673],[2.00231,3.3818]],[[431.21046,305.83273],[-4.35534,0],[6.50211,0]],[[451.94154,306.6508],[-7.00438,0.03955],[-1.72996,-3.27724]]],&quot;closed&quot;:true}]}" fill="#ffb900" stroke="none" stroke-width="0.5"/><path d="M236.16183,183.49055c-2.88806,0.02641 -5.89456,0.16669 -8.67486,0.54931c-1.67762,0.23087 -3.25001,1.23679 -4.93059,1.30591c-0.04808,-1.6597 0.21168,-3.24474 0.98075,-4.28895c0.57191,-1.61619 1.40613,-2.98979 1.97943,-4.6469l0.23825,-0.43964c0,0 0.05368,-0.10174 0.07573,-0.24326c2.52573,-0.78113 5.25274,-1.12533 7.9233,-1.42462c0.00232,0.30054 0.23858,0.52769 0.23858,0.52769c1.06028,0.95623 1.23477,2.84637 1.46005,4.14872c0.24675,1.42642 0.50328,2.97906 0.70935,4.51175z" data-paper-data="{&quot;noHover&quot;:false,&quot;origItem&quot;:[&quot;Path&quot;,{&quot;applyMatrix&quot;:true,&quot;segments&quot;:[[[447.92255,273.94402],[0.49349,2.96095],[-0.45057,-2.7034]],[[445.03476,265.3924],[2.12056,1.98494],[0,0]],[[444.56339,264.30181],[0.00464,0.62386],[-5.34113,0.62126]],[[428.84141,267.25674],[5.05146,-1.62146],[-0.0441,0.29375]],[428.69304,267.75904],[[428.22313,268.66515],[0,0],[-1.14661,3.43982]],[[424.28851,278.22184],[1.14382,-3.35487],[-1.53814,2.16755]],[[422.30582,287.0818],[-0.09617,-3.44519],[3.36116,-0.14347]],[[432.12978,284.34347],[-3.35523,0.47925],[5.56059,-0.79425]],[[449.35291,283.24643],[-5.77611,0.05483],[-0.41213,-3.18153]]],&quot;closed&quot;:true}]}" fill="#ffb900" stroke="none" stroke-width="0.5"/><path d="M252.85304,144.87524c-0.00603,0.02403 -0.01066,0.03764 -0.01066,0.03764c-0.38024,1.04839 -1.15566,1.71942 -1.34943,2.85185c-0.63889,3.73375 1.60664,7.36935 4.20037,9.88071c4.0186,3.93143 11.29845,2.50796 14.92688,-1.07867c2.99784,-2.93281 3.21975,-5.51592 2.54649,-9.61104c-0.07103,-0.43207 0.34565,-0.92211 0.13188,-1.30652c-0.04119,-0.07408 -3.50078,-0.23753 -3.80193,-0.23462c-5.45921,-0.05461 -11.06415,-0.53933 -16.53884,-0.53933zM251.65727,144.10163c0.02668,-0.69385 0.74924,-0.69385 0.74924,-0.69385h0.55129c5.4653,0 11.09294,0.61232 16.53884,0.53932c1.01469,0.00787 4.33571,-0.00133 5.01879,0.84405c0.37022,0.45818 0.035,1.38289 0.13189,1.9295c0.79544,4.48763 0.34793,7.64125 -2.96646,10.88375c-4.23032,4.10332 -12.42662,5.60002 -17.0482,1.07867c-2.91804,-2.87925 -5.33824,-6.9255 -4.62035,-11.15343c0.21068,-1.24077 1.06725,-1.97925 1.40704,-3.08084c0,0 0.06734,-0.19765 0.23792,-0.34719z" fill="#000000" stroke="none" stroke-width="0.5"/><path d="M252.91906,144.84434c5.47468,0 11.15344,0.48078 16.61265,0.53539c0.30115,-0.00291 3.76781,0.16908 3.80899,0.24316c0.21377,0.38442 -0.20073,0.87814 -0.12969,1.31021c0.67326,4.09511 0.45147,6.72326 -2.54637,9.65609c-3.62843,3.58664 -10.99197,5.01801 -15.01056,1.08658c-2.59374,-2.51136 -4.84585,-6.19685 -4.20696,-9.9306c0.19377,-1.13243 0.97602,-1.8145 1.35626,-2.86288c0,0 0.00472,-0.01372 0.01075,-0.03774z" data-paper-data="{&quot;noHover&quot;:false,&quot;origItem&quot;:[&quot;Path&quot;,{&quot;applyMatrix&quot;:true,&quot;segments&quot;:[[[482.82263,206.29192],[0,0],[-0.01206,0.04913]],[[482.8013,206.36885],[0,0],[-0.76048,2.14326]],[[480.10243,212.19902],[0.38755,-2.31508],[-1.27779,7.63306]],[[488.50318,232.39858],[-5.18747,-5.13408],[8.03719,8.03719]],[[518.35695,230.1934],[-7.25687,7.33232],[5.99569,-5.99569]],[[523.44993,210.54514],[1.34652,8.37183],[-0.14207,-0.8833]],[[523.71369,207.87416],[0.42753,0.78589],[-0.08238,-0.15144]],[[516.10984,207.39451],[0.60229,-0.00594],[-10.91842,-0.11165]],[[483.03216,206.29192],[10.94937,0],[0,0]]],&quot;closed&quot;:true}]}" fill="#ffbaba" stroke="none" stroke-width="0.5"/><path d="M267.17994,148.0938c0.87462,0 1.78028,0.29389 2.52121,0.77578c0.53141,0.19995 1.02138,0.50484 1.40911,0.91646c0.01318,0.25719 0.02591,0.49585 0.03248,0.72444c0.35605,0.87313 0.23097,1.88124 -0.70865,2.84397c-1.31966,1.7136 -4.58242,2.40456 -5.66442,-0.00069c-0.83882,-1.86466 0.39379,-4.79493 2.17916,-5.21961c0.12716,-0.04036 0.2311,-0.04036 0.2311,-0.04036z" fill="#000000" stroke="none" stroke-width="0.5"/><path d="M214.71289,148.92376c-0.04064,1.40699 -0.2296,2.97723 -0.00241,4.31967c0.44758,2.64462 3.67096,6.17891 5.57861,8.0464c3.3503,3.31387 6.77426,1.67192 10.4417,-0.14185c1.37321,-0.67914 3.16308,-1.20619 4.20954,-2.312c2.63376,-2.6051 2.51726,-4.32852 3.09778,-7.77374c0.05048,-0.29956 0.67266,-2.94979 0.17765,-3.01288c-1.45764,-0.18579 -3.19309,0.05647 -4.67464,0.05647c-4.09989,0 -8.28404,-0.10063 -12.284,0.53572c-1.66562,0.26498 -3.33461,-0.2638 -4.96165,0.27265c-0.3157,0.00319 -0.63138,0.00638 -0.94708,0.00957zM213.91729,147.71399c0.21816,-0.27392 0.60418,-0.27392 0.60418,-0.27392h0.82694c0.2356,0.00319 0.4712,0.00639 0.70681,0.00958c1.64558,-0.54255 3.29801,0.0127 4.96165,-0.27264c4.05906,-0.69621 8.36117,-0.55488 12.52427,-0.55488c1.2889,0 4.09207,-0.50378 5.24866,0.05647c1.72221,0.83423 0.96365,3.22837 0.72895,4.62129c-0.6199,3.67891 -0.67051,5.76894 -3.51775,8.58521c-4.14562,3.93126 -12.18212,6.99434 -16.77256,2.45384c-2.1531,-2.14796 -5.49136,-5.83769 -5.99857,-8.85785c-0.26527,-1.57951 -0.00969,-3.42318 -0.00969,-5.02651c0,0 -0.00001,-0.70655 0.69711,-0.74058z" fill="#000000" stroke="none" stroke-width="0.5"/><path d="M215.30561,148.8982c0.3157,-0.00319 0.63247,-0.00809 0.94816,-0.01129c1.62704,-0.53644 3.30783,-0.02002 4.97344,-0.285c3.99995,-0.63635 8.24809,-0.53231 12.34797,-0.53231c1.48155,0 3.22485,-0.23302 4.68249,-0.04723c0.495,0.06309 -0.12261,2.72207 -0.17309,3.02162c-0.58052,3.44522 -0.46391,5.2048 -3.09766,7.80992c-1.04646,1.1058 -2.85287,1.65445 -4.22608,2.33358c-3.66744,1.81377 -7.15811,3.44982 -10.50841,0.13595c-1.90765,-1.86748 -5.14339,-5.44515 -5.59097,-8.08977c-0.22719,-1.34243 -0.03262,-2.92746 0.00802,-4.33445z" data-paper-data="{&quot;noHover&quot;:false,&quot;origItem&quot;:[&quot;Path&quot;,{&quot;applyMatrix&quot;:true,&quot;segments&quot;:[[[406.54234,214.77907],[0,0],[-0.08127,2.84492]],[[406.53753,223.5134],[-0.45439,-2.71438],[0.89516,5.3474]],[[417.69474,239.78315],[-3.8153,-3.77604],[6.70061,6.70061]],[[438.57814,239.49633],[-7.33487,3.66744],[2.74641,-1.37321]],[[446.99722,234.82149],[-2.09292,2.23593],[5.26751,-5.26751]],[[453.19279,219.10304],[-1.16104,6.96622],[0.10095,-0.60569]],[[453.5481,213.01101],[0.99001,0.12757],[-2.91528,-0.37565]],[[444.19882,213.12519],[2.96309,0],[-8.19977,0]],[[419.63083,214.20841],[7.9999,-1.2867],[-3.33124,0.53579]],[[409.70753,214.7597],[3.25408,-1.08469],[-0.63139,0.00646]],[[407.81337,214.77907],[0.63139,-0.00646],[0,0]]],&quot;closed&quot;:true}]}" fill="#ffbaba" stroke="none" stroke-width="0.5"/><path d="M229.6631,157.57448c-0.05574,-0.01852 -0.11117,-0.03888 -0.16625,-0.06113c-3.24567,-1.31109 -2.70411,-7.06753 0.33139,-8.29372c1.03018,-0.41613 2.62958,-0.00803 3.61263,0.30902c0.77824,0.27614 1.33501,0.82534 1.69014,1.51976c0.07517,0.10214 0.13751,0.20755 0.18328,0.3161c0.12435,0.29487 0.19551,0.60468 0.21988,0.92224c0.44685,2.56047 -0.99315,5.87078 -3.70398,5.95799c-0.87489,0.02815 -1.5971,-0.22898 -2.1671,-0.67026zM230.59276,155.8062c0.05116,0.05762 0.10479,0.11221 0.16088,0.16342c0.14421,0.00683 0.28691,-0.0044 0.42687,-0.03162c-0.05203,-0.00633 -0.10455,-0.01451 -0.1575,-0.0246c-0.15336,-0.02921 -0.29666,-0.06513 -0.43024,-0.1072z" fill="#000000" stroke="none" stroke-width="0.5"/><path d="M199.27116,152.45896c0.67082,-0.33541 1.00623,0.33541 1.00623,0.33541l0.13516,0.35637c0.98222,0.98222 2.2476,2.45313 3.5659,2.85094c0,0 0.71151,0.23716 0.47434,0.94867c-0.23717,0.71151 -0.94868,0.47434 -0.94868,0.47434c-1.57643,-0.55935 -2.96525,-2.02633 -4.15222,-3.2133l-0.41613,-0.74621c0,0 -0.33541,-0.67083 0.33541,-1.00624z" fill="#8c5900" stroke="none" stroke-width="0.5"/><path d="M205.74646,143.8347c0.75,0 0.75,0.75 0.75,0.75l-0.0571,0.53993c0.94761,0.9476 0.4524,2.36764 1.49131,3.3401c0,0 0.53033,0.53033 0,1.06066c-0.53033,0.53033 -1.06066,0 -1.06066,0c-1.12297,-1.17133 -0.82,-2.83027 -1.81646,-3.82673l-0.05709,-1.11396c0,0 0,-0.75 0.75,-0.75z" fill="#8c5900" stroke="none" stroke-width="0.5"/><path d="M210.80472,138.54144c0.53033,-0.53033 1.06066,0 1.06066,0l0.45683,0.5688c0.38486,1.1933 -0.06025,1.63236 1.17954,2.00648c0,0 0.71151,0.23717 0.47434,0.94868c-0.23717,0.71151 -0.94868,0.47434 -0.94868,0.47434c-1.83336,-0.65052 -1.58111,-1.3817 -2.12823,-2.95517l-0.09447,0.01752c0,0 -0.53033,-0.53033 0,-1.06066z" fill="#8c5900" stroke="none" stroke-width="0.5"/><path d="M222.91224,127.29587c0.75,0 0.75,0.75 0.75,0.75v0.27564c-0.02415,1.76233 1.06852,3.37059 1.6154,5.00013c0,0 0.23717,0.71151 -0.47434,0.94868c-0.71151,0.23717 -0.94868,-0.47434 -0.94868,-0.47434c-0.60901,-1.84117 -1.67204,-3.48604 -1.69237,-5.47447v-0.27564c0,0 0,-0.75 0.75,-0.75z" fill="#8c5900" stroke="none" stroke-width="0.5"/><path d="M260.91693,129.8336c-0.20638,-0.08181 -0.43971,-0.26681 -0.43971,-0.68514c0,-0.75 0.75,-0.75 0.75,-0.75l0.98716,0.51283c0.72887,2.25992 -0.18177,4.01928 -2.40387,4.80773c0,0 -0.71151,0.23718 -0.94868,-0.47433c-0.23717,-0.71151 0.47434,-0.94868 0.47434,-0.94868c1.30306,-0.39321 1.82866,-1.27683 1.58077,-2.46242z" fill="#8c5900" stroke="none" stroke-width="0.5"/><path d="M277.21475,136.11659c0.75,0 0.75,0.75 0.75,0.75l-0.03849,0.51282c-0.71429,2.14287 -2.66831,3.57774 -4.8847,4.3334c0,0 -0.71151,0.23717 -0.94868,-0.47434c-0.23717,-0.71151 0.47434,-0.94868 0.47434,-0.94868c1.8086,-0.58564 3.38761,-1.73951 3.93601,-3.38472l-0.03849,-0.03848c0,0 0,-0.75 0.75,-0.75z" fill="#8c5900" stroke="none" stroke-width="0.5"/><path d="M281.54814,147.3412c0,0.75 -0.75,0.75 -0.75,0.75l-0.03848,-0.03849c-2.33466,0.77822 -2.0969,1.45079 -2.83343,3.66037c0,0 -0.23718,0.71151 -0.94869,0.47434c-0.71151,-0.23717 -0.47434,-0.94868 -0.47434,-0.94868c0.84589,-2.53768 1.00743,-3.68416 3.78211,-4.60905l0.51282,-0.03848c0,0 0.75,0 0.75,0.75z" fill="#8c5900" stroke="none" stroke-width="0.5"/><path d="M223.11095,135.48835c0,0.27704 -0.10234,0.45175 -0.2314,0.56191c0.15772,0.90557 0.69745,1.56303 1.01986,2.50868c0,0 0.23717,0.71151 -0.47434,0.94868c-0.71151,0.23717 -0.94869,-0.47434 -0.94869,-0.47434c-0.42383,-1.30889 -1.1262,-2.09013 -1.14108,-3.54493l1.02565,-0.75c0,0 0.75,0 0.75,0.75z" fill="#8c5900" stroke="none" stroke-width="0.5"/><path d="M235.6305,125.40484c0.71151,-0.23717 0.94869,0.47434 0.94869,0.47434l0.27564,0.82695c0.65782,1.97346 0.28743,3.24969 0.31413,5.19882c0,0 0,0.75 -0.75,0.75c-0.75,0 -0.75,-0.75 -0.75,-0.75c0.01879,-1.83695 0.37052,-2.90144 -0.23716,-4.72448l-0.27564,-0.82694c0,0 -0.23717,-0.71151 0.47434,-0.94868z" fill="#8c5900" stroke="none" stroke-width="0.5"/><path d="M259.00104,128.34248c0.53033,0.53033 0,1.06066 0,1.06066l-0.44364,0.41526c-0.29567,0.97982 -0.49086,1.59085 -1.21025,2.34121c0,0 -0.53033,0.53033 -1.06066,0c-0.53033,-0.53033 0,-1.06066 0,-1.06066c0.62699,-0.58689 0.70488,-1.2517 0.99493,-2.06914l0.65895,-0.68733c0,0 0.53033,-0.53033 1.06066,0z" fill="#8c5900" stroke="none" stroke-width="0.5"/><path d="M265.52215,134.69986c0.23717,0.71151 -0.47434,0.94868 -0.47434,0.94868l-0.66981,0.20212c-0.31598,0.33756 -0.6396,0.66798 -0.96655,0.99493c0,0 -0.53033,0.53033 -1.06066,0c-0.53033,-0.53033 0,-1.06066 0,-1.06066c0.40817,-0.40817 0.82194,-0.81077 1.23862,-1.21025l0.98407,-0.34917c0,0 0.71152,-0.23717 0.94869,0.47434z" fill="#8c5900" stroke="none" stroke-width="0.5"/><path d="M250.82957,130.80235c0,-0.41421 0.33578,-0.75 0.75,-0.75c0.41422,0 0.75,0.33579 0.75,0.75c0,0.41421 -0.33578,0.75 -0.75,0.75c-0.41422,0 -0.75,-0.33579 -0.75,-0.75z" fill="#8c5900" stroke="none" stroke-width="0.5"/><path d="M266.26581,138.79611c0,-0.41421 0.33578,-0.75 0.75,-0.75c0.41422,0 0.75,0.33579 0.75,0.75c0,0.41421 -0.33578,0.75 -0.75,0.75c-0.41422,0 -0.75,-0.33579 -0.75,-0.75z" fill="#8c5900" stroke="none" stroke-width="0.5"/><path d="M232.36119,135.76401c0,-0.41421 0.33578,-0.75 0.75,-0.75c0.41422,0 0.75,0.33579 0.75,0.75c0,0.41421 -0.33578,0.75 -0.75,0.75c-0.41422,0 -0.75,-0.33579 -0.75,-0.75z" fill="#8c5900" stroke="none" stroke-width="0.5"/><path d="M227.12389,133.55881c0,-0.41421 0.33578,-0.75 0.75,-0.75c0.41422,0 0.75,0.33579 0.75,0.75c0,0.41421 -0.33578,0.75 -0.75,0.75c-0.41422,0 -0.75,-0.33579 -0.75,-0.75z" fill="#8c5900" stroke="none" stroke-width="0.5"/><path d="M217.75189,141.0013c0,-0.41421 0.33578,-0.75 0.75,-0.75c0.41422,0 0.75,0.33579 0.75,0.75c0,0.41421 -0.33578,0.75 -0.75,0.75c-0.41422,0 -0.75,-0.33579 -0.75,-0.75z" fill="#8c5900" stroke="none" stroke-width="0.5"/><path d="M214.16847,141.0013c0,-0.41421 0.33578,-0.75 0.75,-0.75c0.41422,0 0.75,0.33579 0.75,0.75c0,0.41421 -0.33578,0.75 -0.75,0.75c-0.41422,0 -0.75,-0.33579 -0.75,-0.75z" fill="#8c5900" stroke="none" stroke-width="0.5"/><path d="M208.65552,148.16812c0,-0.41421 0.33578,-0.75 0.75,-0.75c0.41422,0 0.75,0.33579 0.75,0.75c0,0.41421 -0.33578,0.75 -0.75,0.75c-0.41422,0 -0.75,-0.33579 -0.75,-0.75z" fill="#8c5900" stroke="none" stroke-width="0.5"/><path d="M205.89905,151.75153c0,-0.41421 0.33578,-0.75 0.75,-0.75c0.41422,0 0.75,0.33579 0.75,0.75c0,0.41421 -0.33578,0.75 -0.75,0.75c-0.41422,0 -0.75,-0.33579 -0.75,-0.75z" fill="#8c5900" stroke="none" stroke-width="0.5"/><path d="M205.6234,156.43755c0,-0.41421 0.33578,-0.75 0.75,-0.75c0.41422,0 0.75,0.33579 0.75,0.75c0,0.41421 -0.33578,0.75 -0.75,0.75c-0.41422,0 -0.75,-0.33579 -0.75,-0.75z" fill="#8c5900" stroke="none" stroke-width="0.5"/><path d="M275.63783,155.05933c0,-0.41421 0.33578,-0.75 0.75,-0.75c0.41422,0 0.75,0.33579 0.75,0.75c0,0.41421 -0.33578,0.75 -0.75,0.75c-0.41422,0 -0.75,-0.33579 -0.75,-0.75z" fill="#8c5900" stroke="none" stroke-width="0.5"/><path d="M232.18764,164.77664c0.53033,0.53033 0,1.06066 0,1.06066l-0.56881,0.45683c-5.56669,1.79537 -10.18234,1.43419 -14.98686,-1.74136c0,0 -0.62404,-0.41602 -0.20801,-1.04006c0.41602,-0.62404 1.04006,-0.20802 1.04006,-0.20802c4.31486,2.89793 8.63262,3.32161 13.68046,1.56641l-0.01751,-0.09446c0,0 0.53033,-0.53033 1.06066,0z" fill="#8d7f67" stroke="none" stroke-width="0.5"/><path d="M221.91346,195.21277c-0.49866,0 -0.66577,-0.3223 -0.72177,-0.53832c-1.05035,-0.41545 -1.50038,-0.86299 -1.91621,-2.07571c-1.37217,-1.4307 -0.4567,-3.03969 -0.76899,-4.80301c-0.86539,-4.88628 0.81287,-8.46658 2.36214,-12.98472c0,0 0.23717,-0.69166 0.94868,-0.46111c0.71151,0.23055 0.47434,0.92222 0.47434,0.92222c-1.48426,4.32858 -3.08113,7.62388 -2.30453,12.29003c0.24082,1.44695 -0.59803,3.23676 0.56434,4.26998c0.39783,1.1602 0.42008,1.28254 1.59918,1.63585l0.51283,1.0157c0,0 0,0.72908 -0.75,0.72908z" fill="#8d7f67" stroke="none" stroke-width="0.5"/><path d="M266.10087,173.09166c-1.08443,-2.66468 0.28169,-5.41027 3.78007,-6.54129c0.3865,-0.12496 0.66725,-0.56512 1.07328,-0.57715c0.28169,-0.00836 0.55933,0.02972 0.83157,0.10743c0.10299,-1.23594 0.79703,-2.36391 2.42531,-3.14271c1.40613,-0.67256 4.11143,0.47878 5.43243,1.01466c4.86353,2.01983 6.27646,7.37492 9.41769,11.07927c1.74465,2.0574 2.82657,4.08413 3.04124,6.82131c0.2385,3.18778 -1.67726,5.37943 -3.63777,7.67361c-2.95869,3.46226 -5.73851,6.82174 -9.6425,9.17208c-4.27146,2.47728 -8.28468,-5.12454 -12.55004,-5.81279c-2.04385,-0.32978 -4.38852,1.10647 -6.41558,1.21244c-3.63843,2.19046 -7.67789,-0.83169 -10.41019,-3.16659c-0.85987,-0.73479 -3.1466,-2.46943 -2.84845,-3.85643c0.38354,-1.7842 4.4436,-2.89176 5.88501,-3.29949c1.57382,-0.92214 5.08794,-1.33297 6.95543,-1.03894c0.58339,0.09185 1.15357,0.34689 1.74335,0.316c0.2999,-0.0157 1.15053,0.13877 0.90052,-0.0276c-2.60147,-1.73123 -5.02545,-3.98211 -7.42686,-6.07043c-1.54706,-2.5697 -4.89513,-4.49023 -5.90125,-7.36984c-0.59547,-1.70426 -0.63449,-6.89621 1.68385,-7.431c1.35309,-0.31213 4.16084,1.84473 5.1157,2.64653c2.38078,2.0345 4.82056,4.82918 7.50467,6.42587c0.94704,0.56336 2.01742,1.17486 3.04253,1.86509zM273.29886,166.93037c1.32572,1.10861 2.41847,2.98426 3.0664,4.56568l0.17864,-0.10754l0.53475,0.88824c0.17176,0.27075 0.15573,0.63241 -0.06345,0.8889c-0.26909,0.3149 -0.74252,0.35202 -1.05741,0.08293l-0.76024,-0.64966c-1.33078,-1.15728 -2.77997,-3.06071 -3.26052,-4.94639c-0.27018,-0.16385 -0.55669,-0.23796 -0.86554,-0.18389c-4.12492,0.72208 -5.00129,4.56515 -1.98114,7.14603l0.76024,0.64966c0,0 0.57016,0.48723 0.08293,1.0574c-0.08885,0.10398 -0.18047,0.17279 -0.27087,0.2158c0.07813,0.20173 0.16788,0.62935 -0.30871,0.91627c-0.64254,0.38682 -1.02938,-0.2557 -1.02938,-0.2557c-1.21398,-2.06458 -4.05339,-3.4774 -6.04545,-4.6898c-2.75879,-1.67905 -5.24102,-4.46599 -7.69992,-6.56724c-0.52402,-0.45788 -3.0987,-2.46822 -3.78591,-2.32957c-1.13009,0.22802 -0.86857,4.68931 -0.61071,5.51597c0.80688,2.58668 4.22657,4.54789 5.61736,6.85804c2.01531,1.68417 4.00013,3.40558 5.9968,5.11183c0.34637,0.29599 1.78568,1.46366 1.78091,1.81084c-0.02221,1.61789 -1.31225,1.54913 -2.27865,1.64029c-2.56646,0.24211 -5.78428,-0.90811 -8.21982,0.60394c-1.06879,0.30233 -4.58019,1.20768 -5.02548,2.28472c-0.12056,0.29158 2.08899,2.11673 2.36717,2.35445c2.40258,2.05313 5.78244,4.80231 8.978,2.87847c2.21603,-0.21397 4.84719,-1.65481 7.10272,-1.26633c2.46073,0.42381 5.45717,2.76224 7.32057,4.35461c1.36255,1.16438 2.42976,2.79355 4.22639,1.65544c3.76079,-2.26413 6.42251,-5.52251 9.27582,-8.86147c1.67085,-1.95525 3.5073,-3.86451 3.2827,-6.58186c-0.41918,-5.34474 -5.47187,-10.34159 -8.77683,-14.23947c-0.90486,-1.06719 -1.37724,-1.84778 -2.75056,-2.38838c-0.73805,-0.2994 -3.50409,-1.50638 -4.18794,-1.06795c-1.19581,0.76664 -1.62857,1.69719 -1.59286,2.65573z" data-paper-data="{&quot;index&quot;:null}" fill="#00488c" stroke="none" stroke-width="0.5"/><path d="M273.27437,166.97399c-0.03571,-0.95854 0.44628,-1.97615 1.64207,-2.74279c0.68385,-0.43843 3.45906,0.77524 4.1971,1.07465c1.37333,0.5406 1.85214,1.3284 2.757,2.39559c3.30496,3.89788 8.36694,8.93055 8.78612,14.27529c0.2246,2.71735 -1.61607,4.64135 -3.28693,6.5966c-2.85332,3.33896 -5.53399,6.61879 -9.29478,8.88292c-1.79662,1.13811 -2.8704,-0.48763 -4.23296,-1.65201c-1.8634,-1.59237 -4.87987,-3.92669 -7.34061,-4.3505c-2.25553,-0.38847 -4.90958,1.04669 -7.12562,1.26067c-3.19555,1.92384 -6.59381,-0.84178 -8.99639,-2.8949c-0.27818,-0.23772 -2.49168,-2.06991 -2.37112,-2.3615c0.4453,-1.07705 4.04753,-2.02422 5.11632,-2.32654c2.43554,-1.51206 5.64212,-0.37739 8.20858,-0.6195c0.9664,-0.09116 2.1923,0.05413 2.21451,-1.56376c0.00477,-0.34717 -1.4501,-1.53419 -1.79647,-1.83018c-1.99666,-1.70625 -3.98417,-3.46158 -5.99949,-5.14575c-1.3908,-2.31016 -4.80514,-4.28383 -5.61202,-6.87051c-0.25786,-0.82667 -0.51235,-5.29711 0.61775,-5.52513c0.68721,-0.13865 3.26384,1.86978 3.78786,2.32765c2.45889,2.10125 4.94733,4.88332 7.70612,6.56237c1.99206,1.21241 4.89487,2.63185 6.10883,4.69643c0,0 0.39533,0.65416 1.03787,0.26733c0.47661,-0.28694 0.30306,-0.66063 0.22493,-0.86236c0.0904,-0.04302 0.18206,-0.11177 0.27091,-0.21575c0.48724,-0.57017 -0.07679,-1.05081 -0.07679,-1.05081l-0.75213,-0.64373c-3.02016,-2.58087 -2.10014,-6.51359 2.02479,-7.23566c0.30885,-0.05407 0.59855,0.02143 0.86874,0.18528c0.48055,1.88568 1.94853,3.80468 3.27932,4.96196l0.76269,0.65334c0.3149,0.26909 0.70175,0.28199 0.97084,-0.03291c0.21918,-0.25648 0.23674,-0.61556 0.06498,-0.88631l-0.53241,-0.88484l-0.17858,0.10762c-0.64793,-1.58141 -1.72532,-3.44369 -3.05104,-4.5523z" data-paper-data="{&quot;noHover&quot;:false,&quot;origItem&quot;:[&quot;Path&quot;,{&quot;applyMatrix&quot;:true,&quot;segments&quot;:[[[509.20183,363.86634],[0,0],[-1.73845,-0.81123]],[[503.06963,364.73609],[2.34256,-1.60721],[-1.33966,0.91913]],[[501.78063,373.28336],[0.02226,-1.59278],[-0.07187,2.95093]],[[504.04248,380.20897],[-1.26273,-2.49722],[4.61214,9.12104]],[[523.4549,407.45486],[-9.52233,-4.92881],[4.83236,2.52705]],[[538.13558,406.52459],[-4.90215,1.55822],[8.37136,-2.66097]],[[561.67737,396.32409],[-7.09658,5.16896],[3.49427,-2.42542]],[[561.91373,387.2491],[1.08588,3.41617],[-1.48502,-4.67186]],[[559.58283,370.37367],[-1.13272,4.86377],[1.03824,-4.45819]],[[567.43975,358.27086],[-2.11761,3.91691],[6.02998,-4.39207]],[[569.11771,339.48937],[1.91472,6.02367],[-0.2217,-0.69745]],[[566.62023,333.29659],[0.63103,0.00462],[-2.33087,-0.01707]],[[558.50222,340.77989],[1.38823,-1.73426],[-4.68018,3.31188]],[[550.99711,355.45619],[2.44196,-4.54072],[-0.91951,1.70981]],[[546.20265,358.37926],[2.99843,1.21726],[-0.64342,-0.2612]],[[544.25093,353.68948],[0.27604,0.8684],[-1.59122,-5.00597]],[[539.49529,338.6644],[1.53604,5.02317],[-3.17515,-4.35922]],[[531.22699,322.98049],[4.13878,3.49834],[-1.32269,-1.11801]],[[520.58825,319.8162],[1.29899,-1.90501],[-0.78991,1.15844]],[[521.93657,328.6038],[-0.43618,-1.32165],[1.9596,6.16487]],[[528.0495,347.89891],[-0.94842,-6.38912],[0.68483,4.61346]],[[531.98965,362.68548],[-2.86018,-3.84245],[0,0]],[[531.66031,364.78107],[1.21246,-0.88313],[-0.89934,0.65506]],[[529.73188,364.63736],[0.31095,0.30086],[-0.14956,0.13312]],[[529.1236,364.96865],[0.26069,-0.08286],[-1.42952,0.45439]],[527.23969,363.99353],[[526.63383,362.0875],[0,0],[-2.40689,-7.57205]],[[511.92578,360.18074],[4.53832,-7.03912],[-0.33981,0.52704]],[[511.59151,361.91859],[-0.09179,-0.62527],[3.10088,2.3519]],[[518.17022,371.77314],[-1.09752,-3.35211],[0,0]],[[518.77608,373.67917],[0,0],[0.25095,0.78949]],[[517.80095,375.56308],[0.78949,-0.25095],[-0.64305,0.2044]],[[516.11372,374.98873],[0.36532,0.52704],[0,0]],[514.8929,373.31262],[[515.23,373.06708],[0,0],[-2.41007,-2.4237]],[[509.20184,363.86631],[1.01176,3.30492],[0,0]]],&quot;closed&quot;:true,&quot;fillColor&quot;:[0,0,0,1]}],&quot;index&quot;:null}" fill="#0060b9" stroke="none" stroke-width="0.5"/><path d="M162.71951,245.91402v-131.828h154.56103v131.828z" fill="none" stroke="#494949" stroke-width="1.5"/><path d="M156.08336,251.57412v-5.36896h167.83333v5.36896z" fill="#707070" stroke="#494949" stroke-width="1.5"/><path d="M156.08338,113.79487v-5.36896h167.83333v5.36896z" fill="#707070" stroke="#494949" stroke-width="1.5"/><path d="M286.39341,188.54761l0.0194,-0.02984l-0.04039,-0.01108l0.19619,-0.86108c0.0758,-0.36646 0.37448,-0.64003 0.73141,-0.64003c0.16585,0 0.31912,0.05906 0.44331,0.15908c0.00689,-0.34469 0.00891,-0.70637 0.00669,-1.09172c0,0 0,-0.82292 0.75,-0.82292c0.75,0 0.75,0.82292 0.75,0.82292c-0.02014,2.7856 -0.22712,4.58897 -0.84659,7.30775l-0.06119,0.06682l0.02859,0.01569l-0.39274,0.86183c-0.07562,0.17502 -0.20586,0.31611 -0.36658,0.39673c-0.24027,0.47847 -0.66801,0.90267 -1.32518,1.21131c-1.849,1.56515 -7.76601,6.48628 -10.05136,4.75091c-0.89733,-0.68138 -1.74432,-3.10345 -2.17672,-4.19278c0,0 -0.29514,-0.75653 0.39434,-1.08036c0.36007,-0.16912 0.6126,-0.04358 0.7717,0.11496l0.48888,-0.22962c2.2225,-1.04386 4.31013,-2.15113 6.37963,-3.46707c0.77724,-0.49422 1.40448,-1.55441 2.4173,-1.55133c0.4888,0.00148 0.95803,0.13065 1.38247,0.35066l0.03062,-0.00839c-0.10497,-0.33737 -0.17118,-0.68353 -0.1732,-1.036v-0.21945c0,0 0,-0.74296 0.64339,-0.81699z" fill="#0060b9" stroke="none" stroke-width="0.5"/><path d="M274.91812,204.92762c-0.7276,-0.1819 -0.5457,-0.9095 -0.5457,-0.9095l0.2,-0.8c0.53001,-2.053 0.8444,-4.53053 -1.4543,-5.0905c0,0 -0.7276,-0.1819 -0.5457,-0.9095c0.1819,-0.72761 0.9095,-0.5457 0.9095,-0.5457c3.27323,0.83551 3.2443,4.04046 2.54571,6.9095l-0.2,0.8c0,0 -0.1819,0.72761 -0.9095,0.5457z" fill="#00488c" stroke="none" stroke-width="0.5"/><path d="M244.41431,168.75001c-0.75,0 -0.75,-0.75 -0.75,-0.75v-0.71429c0.00657,-2.04384 -0.58074,-4.15033 -2.06604,-5.61253c0,0 -0.53033,-0.53033 0,-1.06066c0.53033,-0.53033 1.06066,0 1.06066,0c1.76038,1.78251 2.49851,4.20286 2.50538,6.67319v0.71429c0,0 0,0.75 -0.75,0.75z" fill="#8d7f67" stroke="none" stroke-width="0.5"/><path d="M249.73582,165.03114c0.18266,-0.67101 0.30748,-1.35221 0.2999,-2.03515c0,0 0,-0.88884 0.75,-0.88884c0.20844,0 0.35895,0.06865 0.46763,0.1678c0.03452,0.0037 0.07051,0.00987 0.10803,0.01877c0.73544,0.17432 0.58835,1.0459 0.58835,1.0459l-0.34796,1.30071c-0.12348,0.12931 -0.23412,0.27648 -0.33374,0.43883c-0.19014,0.81467 -0.45917,1.60972 -0.7323,2.40188v0.25546h-0.07478c-0.14821,0.92523 -0.24668,1.90602 -0.39608,2.79221l0.3178,0.06277l-0.14083,1.00141c-0.0537,0.42843 -0.36537,0.75713 -0.74182,0.75713c-0.32193,0 -0.59649,-0.24038 -0.70285,-0.57796l-0.27923,-0.82729l0.05565,-0.02638l-0.09576,-0.13564c0,-0.82806 -0.01405,-1.95901 0.34533,-2.62415l0.22074,-1.56963c0.03459,-0.27594 0.17619,-0.51051 0.37318,-0.64253c0.10135,-0.31907 0.20928,-0.62764 0.31874,-0.91528z" fill="#41744c" stroke="none" stroke-width="0.5"/><path d="M251.60173,160.3284l-0.09996,0.2669c0.00357,0.02964 0.0054,0.05983 0.0054,0.09044c0,0.17068 -0.05702,0.32805 -0.15304,0.45409l0.21908,0.21909l-0.57142,0.57143c-0.076,0.076 -0.1477,0.15245 -0.21543,0.22929c0.13971,1.47358 -0.87379,3.97788 -1.43519,5.35315c0.0082,0.19563 0.01314,0.39597 0.01314,0.60151c0,0 0,0.63279 -0.58123,0.73588c-0.1345,0.18553 -0.41281,0.43142 -0.87588,0.2462c-0.69636,-0.27855 -0.41781,-0.97491 -0.41781,-0.97491l0.10437,-0.26091c-0.09903,-0.12711 -0.15801,-0.28693 -0.15801,-0.46054c0,-0.04687 0.0043,-0.09274 0.01252,-0.13724l0.13303,-0.79814c0.00295,-0.32933 0.01765,-0.66352 0.04604,-0.99713c-0.00359,-0.21084 0.02424,-0.43724 0.07674,-0.67279c0.02048,-0.1417 0.0437,-0.28261 0.06985,-0.42233c0.07599,-1.32732 0.4647,-2.52321 1.80741,-3.84925l0.26087,0.25668l-0.18519,-0.30864l0.14981,-0.08989l-0.04248,-0.10621l0.6985,-0.27939c0.09037,-0.03859 0.18985,-0.05996 0.29433,-0.05996c0.30682,0 0.57061,0.18424 0.68677,0.44812c0.05157,-0.0191 0.10416,-0.03759 0.15779,-0.05546z" fill="#8d7f67" stroke="none" stroke-width="0.5"/><text transform="translate(165.36938,123.74545) scale(0.22373,0.22372)" font-size="40" xml:space="preserve" fill="#ffb900" fill-rule="nonzero" stroke="none" stroke-width="1" stroke-linecap="butt" stroke-linejoin="miter" stroke-miterlimit="10" stroke-dasharray="" stroke-dashoffset="0" font-family="Sans Serif" font-weight="normal" text-anchor="start" style="mix-blend-mode: normal"><tspan x="0" dy="0">Starring...</tspan></text></g></g></svg>