<svg version="1.1" xmlns="http://www.w3.org/2000/svg" xmlns:xlink="http://www.w3.org/1999/xlink" width="52.75" height="52.75" viewBox="0,0,52.75,52.75"><g transform="translate(-213.625,-153.625)"><g data-paper-data="{&quot;isPaintingLayer&quot;:true}" fill-rule="nonzero" stroke-linejoin="miter" stroke-miterlimit="10" stroke-dasharray="" stroke-dashoffset="0" style="mix-blend-mode: normal"><path d="M214.875,205.125v-50.25h50.25v50.25z" fill="#7f7f7f" stroke="#5e5e5e" stroke-width="2.5" stroke-linecap="butt"/><path d="M254.6875,198.60249v-8.5h3.75v8.5z" fill="#7a695d" stroke="#574a42" stroke-width="1.5" stroke-linecap="butt"/><path d="M221.5625,198.60249v-8.5h3.75v8.5z" fill="#7a695d" stroke="#574a42" stroke-width="1.5" stroke-linecap="butt"/><path d="M221.5625,194.35249v-20.39105h36.875v20.39105z" fill="#998374" stroke="#706055" stroke-width="1.5" stroke-linecap="butt"/><path d="M221.5625,172.85033v-11.22223h36.875v11.22223z" fill="#8c8c8c" stroke="#707070" stroke-width="1.5" stroke-linecap="butt"/><path d="M243.24306,164.73612c0,-0.41422 0.33578,-0.75 0.75,-0.75c0.41422,0 0.75,0.33578 0.75,0.75c0,0.41422 -0.33578,0.75 -0.75,0.75c-0.41422,0 -0.75,-0.33578 -0.75,-0.75z" fill="#707070" stroke="none" stroke-width="0.5" stroke-linecap="butt"/><path d="M240.36806,164.61112c0,-0.41422 0.33578,-0.75 0.75,-0.75c0.41422,0 0.75,0.33578 0.75,0.75c0,0.41422 -0.33578,0.75 -0.75,0.75c-0.41422,0 -0.75,-0.33578 -0.75,-0.75z" fill="#707070" stroke="none" stroke-width="0.5" stroke-linecap="butt"/><path d="M237.61806,164.48612c0,-0.41422 0.33578,-0.75 0.75,-0.75c0.41422,0 0.75,0.33578 0.75,0.75c0,0.41422 -0.33578,0.75 -0.75,0.75c-0.41422,0 -0.75,-0.33578 -0.75,-0.75z" fill="#707070" stroke="none" stroke-width="0.5" stroke-linecap="butt"/><path d="M234.6875,164.86112c0,-0.41422 0.33578,-0.75 0.75,-0.75c0.41422,0 0.75,0.33578 0.75,0.75c0,0.41422 -0.33578,0.75 -0.75,0.75c-0.41422,0 -0.75,-0.33578 -0.75,-0.75z" fill="#707070" stroke="none" stroke-width="0.5" stroke-linecap="butt"/><path d="M231.8125,164.73612c0,-0.41422 0.33578,-0.75 0.75,-0.75c0.41422,0 0.75,0.33578 0.75,0.75c0,0.41422 -0.33578,0.75 -0.75,0.75c-0.41422,0 -0.75,-0.33578 -0.75,-0.75z" fill="#707070" stroke="none" stroke-width="0.5" stroke-linecap="butt"/><path d="M229.0625,164.61112c0,-0.41422 0.33578,-0.75 0.75,-0.75c0.41422,0 0.75,0.33578 0.75,0.75c0,0.41422 -0.33578,0.75 -0.75,0.75c-0.41422,0 -0.75,-0.33578 -0.75,-0.75z" fill="#707070" stroke="none" stroke-width="0.5" stroke-linecap="butt"/><path d="M229.0625,164.61112c0,-0.41422 0.33578,-0.75 0.75,-0.75c0.41422,0 0.75,0.33578 0.75,0.75c0,0.41422 -0.33578,0.75 -0.75,0.75c-0.41422,0 -0.75,-0.33578 -0.75,-0.75z" fill="#707070" stroke="none" stroke-width="0.5" stroke-linecap="butt"/><path d="M226.1875,164.48612c0,-0.41422 0.33578,-0.75 0.75,-0.75c0.41422,0 0.75,0.33578 0.75,0.75c0,0.41422 -0.33578,0.75 -0.75,0.75c-0.41422,0 -0.75,-0.33578 -0.75,-0.75z" fill="#707070" stroke="none" stroke-width="0.5" stroke-linecap="butt"/><path d="M223.4375,164.36112c0,-0.41422 0.33578,-0.75 0.75,-0.75c0.41422,0 0.75,0.33578 0.75,0.75c0,0.41422 -0.33578,0.75 -0.75,0.75c-0.41422,0 -0.75,-0.33578 -0.75,-0.75z" fill="#707070" stroke="none" stroke-width="0.5" stroke-linecap="butt"/><path d="M243.28472,167.40282c0,-0.41422 0.33578,-0.75 0.75,-0.75c0.41422,0 0.75,0.33578 0.75,0.75c0,0.41422 -0.33578,0.75 -0.75,0.75c-0.41422,0 -0.75,-0.33578 -0.75,-0.75z" fill="#707070" stroke="none" stroke-width="0.5" stroke-linecap="butt"/><path d="M240.40972,167.27782c0,-0.41422 0.33578,-0.75 0.75,-0.75c0.41422,0 0.75,0.33578 0.75,0.75c0,0.41422 -0.33578,0.75 -0.75,0.75c-0.41422,0 -0.75,-0.33578 -0.75,-0.75z" fill="#707070" stroke="none" stroke-width="0.5" stroke-linecap="butt"/><path d="M237.65972,167.15282c0,-0.41422 0.33578,-0.75 0.75,-0.75c0.41422,0 0.75,0.33578 0.75,0.75c0,0.41422 -0.33578,0.75 -0.75,0.75c-0.41422,0 -0.75,-0.33578 -0.75,-0.75z" fill="#707070" stroke="none" stroke-width="0.5" stroke-linecap="butt"/><path d="M234.72917,167.52782c0,-0.41422 0.33578,-0.75 0.75,-0.75c0.41422,0 0.75,0.33578 0.75,0.75c0,0.41422 -0.33578,0.75 -0.75,0.75c-0.41422,0 -0.75,-0.33578 -0.75,-0.75z" fill="#707070" stroke="none" stroke-width="0.5" stroke-linecap="butt"/><path d="M231.85417,167.40282c0,-0.41422 0.33578,-0.75 0.75,-0.75c0.41422,0 0.75,0.33578 0.75,0.75c0,0.41422 -0.33578,0.75 -0.75,0.75c-0.41422,0 -0.75,-0.33578 -0.75,-0.75z" fill="#707070" stroke="none" stroke-width="0.5" stroke-linecap="butt"/><path d="M229.10417,167.27782c0,-0.41422 0.33578,-0.75 0.75,-0.75c0.41422,0 0.75,0.33578 0.75,0.75c0,0.41422 -0.33578,0.75 -0.75,0.75c-0.41422,0 -0.75,-0.33578 -0.75,-0.75z" fill="#707070" stroke="none" stroke-width="0.5" stroke-linecap="butt"/><path d="M229.10417,167.27782c0,-0.41422 0.33578,-0.75 0.75,-0.75c0.41422,0 0.75,0.33578 0.75,0.75c0,0.41422 -0.33578,0.75 -0.75,0.75c-0.41422,0 -0.75,-0.33578 -0.75,-0.75z" fill="#707070" stroke="none" stroke-width="0.5" stroke-linecap="butt"/><path d="M226.22917,167.15282c0,-0.41422 0.33578,-0.75 0.75,-0.75c0.41422,0 0.75,0.33578 0.75,0.75c0,0.41422 -0.33578,0.75 -0.75,0.75c-0.41422,0 -0.75,-0.33578 -0.75,-0.75z" fill="#707070" stroke="none" stroke-width="0.5" stroke-linecap="butt"/><path d="M223.47917,167.02782c0,-0.41422 0.33578,-0.75 0.75,-0.75c0.41422,0 0.75,0.33578 0.75,0.75c0,0.41422 -0.33578,0.75 -0.75,0.75c-0.41422,0 -0.75,-0.33578 -0.75,-0.75z" fill="#707070" stroke="none" stroke-width="0.5" stroke-linecap="butt"/><path d="M244.14583,168.95835c0.41422,0 0.75,0.33578 0.75,0.75c0,0.41422 -0.33578,0.75 -0.75,0.75c-0.41422,0 -0.75,-0.33578 -0.75,-0.75c0,-0.41422 0.33578,-0.75 0.75,-0.75z" data-paper-data="{&quot;index&quot;:null}" fill="#707070" stroke="none" stroke-width="0.5" stroke-linecap="butt"/><path d="M241.27083,169.08335c0.41422,0 0.75,0.33578 0.75,0.75c0,0.41422 -0.33578,0.75 -0.75,0.75c-0.41422,0 -0.75,-0.33578 -0.75,-0.75c0,-0.41422 0.33578,-0.75 0.75,-0.75z" data-paper-data="{&quot;index&quot;:null}" fill="#707070" stroke="none" stroke-width="0.5" stroke-linecap="butt"/><path d="M238.52083,169.20835c0.41422,0 0.75,0.33578 0.75,0.75c0,0.41422 -0.33578,0.75 -0.75,0.75c-0.41422,0 -0.75,-0.33578 -0.75,-0.75c0,-0.41422 0.33578,-0.75 0.75,-0.75z" data-paper-data="{&quot;index&quot;:null}" fill="#707070" stroke="none" stroke-width="0.5" stroke-linecap="butt"/><path d="M235.59028,168.83335c0.41422,0 0.75,0.33578 0.75,0.75c0,0.41422 -0.33578,0.75 -0.75,0.75c-0.41422,0 -0.75,-0.33578 -0.75,-0.75c0,-0.41422 0.33578,-0.75 0.75,-0.75z" data-paper-data="{&quot;index&quot;:null}" fill="#707070" stroke="none" stroke-width="0.5" stroke-linecap="butt"/><path d="M232.71528,168.95835c0.41422,0 0.75,0.33578 0.75,0.75c0,0.41422 -0.33578,0.75 -0.75,0.75c-0.41422,0 -0.75,-0.33578 -0.75,-0.75c0,-0.41422 0.33578,-0.75 0.75,-0.75z" data-paper-data="{&quot;index&quot;:null}" fill="#707070" stroke="none" stroke-width="0.5" stroke-linecap="butt"/><path d="M229.96528,169.08335c0.41422,0 0.75,0.33578 0.75,0.75c0,0.41422 -0.33578,0.75 -0.75,0.75c-0.41422,0 -0.75,-0.33578 -0.75,-0.75c0,-0.41422 0.33578,-0.75 0.75,-0.75z" data-paper-data="{&quot;index&quot;:null}" fill="#707070" stroke="none" stroke-width="0.5" stroke-linecap="butt"/><path d="M229.96528,169.08335c0.41422,0 0.75,0.33578 0.75,0.75c0,0.41422 -0.33578,0.75 -0.75,0.75c-0.41422,0 -0.75,-0.33578 -0.75,-0.75c0,-0.41422 0.33578,-0.75 0.75,-0.75z" data-paper-data="{&quot;index&quot;:null}" fill="#707070" stroke="none" stroke-width="0.5" stroke-linecap="butt"/><path d="M227.09028,169.20835c0.41422,0 0.75,0.33578 0.75,0.75c0,0.41422 -0.33578,0.75 -0.75,0.75c-0.41422,0 -0.75,-0.33578 -0.75,-0.75c0,-0.41422 0.33578,-0.75 0.75,-0.75z" data-paper-data="{&quot;index&quot;:null}" fill="#707070" stroke="none" stroke-width="0.5" stroke-linecap="butt"/><path d="M224.34028,169.33335c0.41422,0 0.75,0.33578 0.75,0.75c0,0.41422 -0.33578,0.75 -0.75,0.75c-0.41422,0 -0.75,-0.33578 -0.75,-0.75c0,-0.41422 0.33578,-0.75 0.75,-0.75z" data-paper-data="{&quot;index&quot;:null}" fill="#707070" stroke="none" stroke-width="0.5" stroke-linecap="butt"/><path d="M254.68751,164.76388c0,-0.41422 0.33578,-0.75 0.75,-0.75c0.41422,0 0.75,0.33578 0.75,0.75c0,0.41422 -0.33578,0.75 -0.75,0.75c-0.41422,0 -0.75,-0.33578 -0.75,-0.75z" fill="#707070" stroke="none" stroke-width="0.5" stroke-linecap="butt"/><path d="M251.81251,164.63888c0,-0.41422 0.33578,-0.75 0.75,-0.75c0.41422,0 0.75,0.33578 0.75,0.75c0,0.41422 -0.33578,0.75 -0.75,0.75c-0.41422,0 -0.75,-0.33578 -0.75,-0.75z" fill="#707070" stroke="none" stroke-width="0.5" stroke-linecap="butt"/><path d="M249.06251,164.51388c0,-0.41422 0.33578,-0.75 0.75,-0.75c0.41422,0 0.75,0.33578 0.75,0.75c0,0.41422 -0.33578,0.75 -0.75,0.75c-0.41422,0 -0.75,-0.33578 -0.75,-0.75z" fill="#707070" stroke="none" stroke-width="0.5" stroke-linecap="butt"/><path d="M246.13195,164.88888c0,-0.41422 0.33578,-0.75 0.75,-0.75c0.41422,0 0.75,0.33578 0.75,0.75c0,0.41422 -0.33578,0.75 -0.75,0.75c-0.41422,0 -0.75,-0.33578 -0.75,-0.75z" fill="#707070" stroke="none" stroke-width="0.5" stroke-linecap="butt"/><path d="M254.72917,167.43059c0,-0.41422 0.33578,-0.75 0.75,-0.75c0.41422,0 0.75,0.33578 0.75,0.75c0,0.41422 -0.33578,0.75 -0.75,0.75c-0.41422,0 -0.75,-0.33578 -0.75,-0.75z" fill="#707070" stroke="none" stroke-width="0.5" stroke-linecap="butt"/><path d="M251.85417,167.30559c0,-0.41422 0.33578,-0.75 0.75,-0.75c0.41422,0 0.75,0.33578 0.75,0.75c0,0.41422 -0.33578,0.75 -0.75,0.75c-0.41422,0 -0.75,-0.33578 -0.75,-0.75z" fill="#707070" stroke="none" stroke-width="0.5" stroke-linecap="butt"/><path d="M249.10417,167.18059c0,-0.41422 0.33578,-0.75 0.75,-0.75c0.41422,0 0.75,0.33578 0.75,0.75c0,0.41422 -0.33578,0.75 -0.75,0.75c-0.41422,0 -0.75,-0.33578 -0.75,-0.75z" fill="#707070" stroke="none" stroke-width="0.5" stroke-linecap="butt"/><path d="M246.17362,167.55559c0,-0.41422 0.33578,-0.75 0.75,-0.75c0.41422,0 0.75,0.33578 0.75,0.75c0,0.41422 -0.33578,0.75 -0.75,0.75c-0.41422,0 -0.75,-0.33578 -0.75,-0.75z" fill="#707070" stroke="none" stroke-width="0.5" stroke-linecap="butt"/><path d="M255.59028,168.98613c0.41422,0 0.75,0.33578 0.75,0.75c0,0.41422 -0.33578,0.75 -0.75,0.75c-0.41422,0 -0.75,-0.33578 -0.75,-0.75c0,-0.41422 0.33578,-0.75 0.75,-0.75z" data-paper-data="{&quot;index&quot;:null}" fill="#707070" stroke="none" stroke-width="0.5" stroke-linecap="butt"/><path d="M252.71528,169.11113c0.41422,0 0.75,0.33578 0.75,0.75c0,0.41422 -0.33578,0.75 -0.75,0.75c-0.41422,0 -0.75,-0.33578 -0.75,-0.75c0,-0.41422 0.33578,-0.75 0.75,-0.75z" data-paper-data="{&quot;index&quot;:null}" fill="#707070" stroke="none" stroke-width="0.5" stroke-linecap="butt"/><path d="M249.96528,169.23613c0.41422,0 0.75,0.33578 0.75,0.75c0,0.41422 -0.33578,0.75 -0.75,0.75c-0.41422,0 -0.75,-0.33578 -0.75,-0.75c0,-0.41422 0.33578,-0.75 0.75,-0.75z" data-paper-data="{&quot;index&quot;:null}" fill="#707070" stroke="none" stroke-width="0.5" stroke-linecap="butt"/><path d="M247.03473,168.86113c0.41422,0 0.75,0.33578 0.75,0.75c0,0.41422 -0.33578,0.75 -0.75,0.75c-0.41422,0 -0.75,-0.33578 -0.75,-0.75c0,-0.41422 0.33578,-0.75 0.75,-0.75z" data-paper-data="{&quot;index&quot;:null}" fill="#707070" stroke="none" stroke-width="0.5" stroke-linecap="butt"/><path d="M222.16667,174.44446l35,2" fill="none" stroke="#a68e7e" stroke-width="1.5" stroke-linecap="round"/><path d="M251.83333,174.44446l-29.66666,5.66666" fill="none" stroke="#a68e7e" stroke-width="1.5" stroke-linecap="round"/><path d="M222.94445,183.11113l34.77777,2.55555" fill="none" stroke="#a68e7e" stroke-width="1.5" stroke-linecap="round"/><path d="M257.61111,181.33335l-34.88889,11.55555" fill="none" stroke="#a68e7e" stroke-width="1.5" stroke-linecap="round"/><path d="M221.72222,188.22223l36.11111,4.22223" fill="none" stroke="#a68e7e" stroke-width="1.5" stroke-linecap="round"/><path d="M257.83334,189.44448l-35.66667,-3.88889" fill="none" stroke="#a68e7e" stroke-width="1.5" stroke-linecap="round"/><path d="M222.5,181.33335l19.33334,-0.33334" fill="none" stroke="#a68e7e" stroke-width="1.5" stroke-linecap="round"/><path d="M257.5,179.33335l-9.22222,-0.11112" fill="none" stroke="#a68e7e" stroke-width="1.5" stroke-linecap="round"/><path d="M243.72222,193.6667l-7.22222,-1.33333" fill="none" stroke="#a68e7e" stroke-width="1.5" stroke-linecap="round"/><path d="M222.27778,176.44446l35,5.66666" fill="none" stroke="#8c776b" stroke-width="1.5" stroke-linecap="round"/><path d="M221.61111,183.6667l36,-5.77777" fill="none" stroke="#8c776b" stroke-width="1.5" stroke-linecap="round"/><path d="M255.83334,174.44446l-27.44444,8.11111" fill="none" stroke="#8c776b" stroke-width="1.5" stroke-linecap="round"/><path d="M258.05556,186.88892l-36,-7.44445" fill="none" stroke="#8c776b" stroke-width="1.5" stroke-linecap="round"/><path d="M257.94444,184.77782l-35.66666,4.22222" fill="none" stroke="#8c776b" stroke-width="1.5" stroke-linecap="round"/><path d="M231.05556,185.22225l-9.33334,1.44445" fill="none" stroke="#8c776b" stroke-width="1.5" stroke-linecap="round"/><path d="M222.5,191.33335l9.44445,2" fill="none" stroke="#8c776b" stroke-width="1.5" stroke-linecap="round"/><path d="M257.5,190.77782l-17.88889,2.88888" fill="none" stroke="#8c776b" stroke-width="1.5" stroke-linecap="round"/><path d="M258.05556,188.6667l-22.88889,2.11112" fill="none" stroke="#8c776b" stroke-width="1.5" stroke-linecap="round"/><path d="M229.72222,190.44446l-8.11111,-0.11111" fill="none" stroke="#8c776b" stroke-width="1.5" stroke-linecap="round"/><path d="M221.5625,194.35249v-20.39105h36.875v20.39105z" fill="none" stroke="#706055" stroke-width="1.5" stroke-linecap="butt"/><path d="M230.89503,163.8624c0.74913,-0.03622 0.78535,0.7129 0.78535,0.7129c0.01855,0.38364 0.2046,1.5373 0.52666,1.85044c0.19659,-0.11905 0.39758,-0.25229 0.59401,-0.38883c0.01653,-0.0351 0.03321,-0.07241 0.05004,-0.11202l0.03448,-0.06335l-0.08373,-0.06167l0.46991,-0.63794c0.19132,-0.27252 0.54889,-0.39303 0.87549,-0.27136c0.38816,0.14458 0.58561,0.57647 0.44101,0.96462c-0.01412,0.03789 -0.03097,0.07397 -0.05026,0.10809l-0.36945,0.67874c-0.53683,0.88389 -1.09395,1.27472 -1.6156,1.32698c-0.02409,0.01395 -0.04841,0.02767 -0.07298,0.04115l-0.16714,0.43058c-0.66305,1.21068 -0.79127,1.80756 -1.56791,2.18777l0.09417,0.20596l-0.71454,0.32669c-0.17457,0.07981 -0.37958,0.09302 -0.57365,0.02073c-0.38816,-0.14458 -0.58561,-0.57647 -0.44101,-0.96462l0.2715,-0.72885c0.24189,-0.64489 0.40184,-1.026 0.62292,-1.30313c-0.01553,-0.02039 -0.031,-0.04095 -0.04637,-0.06168c-0.44574,-0.31389 -0.77286,-0.89529 -0.85111,-1.85087c-0.02839,-0.34679 0.13089,-0.68349 0.19634,-1.02524l0.03756,-0.04274l-0.02078,-0.00774l0.2715,-0.72885v0c0.1337,-0.35893 0.51306,-0.55479 0.87635,-0.46792c0.10193,-0.07524 0.24006,-0.12878 0.42722,-0.13783z" fill="#c6c6c6" stroke="none" stroke-width="0.5" stroke-linecap="butt"/><path d="M238.95628,171.05155c-0.74902,0.03839 -0.7874,-0.71063 -0.7874,-0.71063l0.01258,-0.31822c0.22703,-0.97228 0.32007,-1.92522 0.26635,-2.92253c0,0 -0.03839,-0.74902 0.71063,-0.7874c0.74902,-0.03839 0.7874,0.71063 0.7874,0.71063c0.05581,1.13975 -0.0483,2.22499 -0.3029,3.33703l0.02396,-0.09628c0,0 0.03839,0.74902 -0.71063,0.7874z" fill="#b6815d" stroke="none" stroke-width="0.5" stroke-linecap="butt"/><path d="M237.66893,164.99835c-0.03729,-0.60478 0.59305,-0.74331 0.59305,-0.74331l0.78272,-0.16159c0.78905,-0.04043 2.89682,-0.44476 3.1281,0.85578c0.00698,0.03926 0.00798,0.07926 0.00342,0.11982c0.51192,0.83649 -0.32033,2.11345 -0.99849,2.47376c-0.67869,0.3606 -2.52079,0.54277 -3.95577,0.6305l0.0153,0.04475l-0.749,0.25613c-0.06915,0.02542 -0.14324,0.041 -0.22068,0.04497c-0.41368,0.0212 -0.76621,-0.29696 -0.7874,-0.71063c-0.00807,-0.15739 0.033,-0.30593 0.10975,-0.43074l0.40449,-0.67973c0.49224,-0.81131 0.94346,-1.27294 1.67451,-1.69972z" fill="#c6c6c6" stroke="none" stroke-width="0.5" stroke-linecap="butt"/><path d="M226.9375,168.86113c-0.75,0 -0.75,-0.75 -0.75,-0.75c0,-1 0,-2.625 0,-3.625c0,0 0,-0.75 0.75,-0.75c0.75,0 0.75,0.75 0.75,0.75c0,1 0,2 0,3v0.625c0,0 0,0.75 -0.75,0.75z" fill="#c6c6c6" stroke="none" stroke-width="0.5" stroke-linecap="butt"/><path d="M224.8125,167.11112c-0.75,0 -0.75,-0.75 -0.75,-0.75c0,-0.5 0,-1.375 0,-1.875c0,0 0,-0.75 0.75,-0.75c0.75,0 0.75,0.75 0.75,0.75c0,0.5 0,1 0,1.5v0.375c0,0 0,0.75 -0.75,0.75z" fill="#c6c6c6" stroke="none" stroke-width="0.5" stroke-linecap="butt"/><path d="M245.70452,164.04216c0.69748,0.27571 0.42177,0.97319 0.42177,0.97319l-0.00525,-0.13263c0.00115,0.28206 0.00229,0.56413 0.00344,0.84619c0,0 0.00305,0.74999 -0.74695,0.75304c-0.74999,0.00305 -0.75304,-0.74695 -0.75304,-0.74695c-0.00115,-0.28206 -0.00229,-0.56413 -0.00344,-0.84619l0.11028,-0.42489c0,0 0.27571,-0.69748 0.97319,-0.42177z" fill="#b6815d" stroke="none" stroke-width="0.5" stroke-linecap="butt"/><path d="M246.151,169.84568c0.05426,0.1894 0.12866,0.6709 -0.4169,0.90734c-0.68815,0.29824 -0.98639,-0.38991 -0.98639,-0.38991l-0.30036,-0.71201c-0.24108,-0.88116 -1.36287,-5.82389 1.55766,-4.10847c0.47906,0.28138 0.26226,3.26566 0.26577,3.8769c0,0 0.00091,0.22289 -0.11978,0.42615z" fill="#c6c6c6" stroke="none" stroke-width="0.5" stroke-linecap="butt"/><path d="M254.47804,164.18488c0.11086,-0.0766 0.22507,-0.13097 0.3437,-0.14033c0.7898,-0.06238 2.34072,-0.06022 2.13798,1.46664c-0.15414,1.1608 -1.27268,1.0059 -2.14203,0.87303c0.75347,1.52168 0.197,2.77204 -0.91966,4.10661l-0.24667,0.20142c0,0 -0.62153,0.41977 -1.04129,-0.20176c-0.41977,-0.62153 0.20176,-1.04129 0.20176,-1.04129l-0.06252,0.07705c0.715,-0.84809 1.3152,-1.61587 0.66249,-2.61692c-0.72963,0.38595 -1.2822,0.82809 -1.84346,1.47711l-0.26616,0.64975c-0.05356,0.13638 -0.14755,0.25851 -0.27815,0.34672c-0.34326,0.23183 -0.80946,0.1415 -1.04129,-0.20176c-0.14802,-0.21916 -0.16471,-0.48843 -0.06809,-0.71483l0.29931,-0.73067l0.04378,0.01793l0.00837,-0.12157c0.10771,-0.13022 0.21488,-0.25462 0.32241,-0.37376c0.11953,-0.58814 0.82096,-1.24111 1.59215,-1.72507c-0.68182,-0.38607 -0.84586,-1.03104 0.47308,-1.87666c0.4911,-0.31486 1.16541,0.05547 1.74812,0.0832z" fill="#c6c6c6" stroke="none" stroke-width="0.5" stroke-linecap="butt"/><path d="M250.93847,164.58063c0.23717,0.71151 -0.47434,0.94868 -0.47434,0.94868l-0.46444,0.14206c-0.43178,0.06069 -0.8841,-0.07334 -1.30773,0.0299c-0.29734,0.07247 0.14165,2.05983 0.16635,2.23268c0,0 0.10607,0.74246 -0.6364,0.84853c-0.74246,0.10607 -0.84853,-0.6364 -0.84853,-0.6364c-0.35833,-2.5083 -0.27355,-3.56861 2.41417,-3.95964l0.20223,-0.08016c0,0 0.71151,-0.23717 0.94868,0.47434z" fill="#c6c6c6" stroke="none" stroke-width="0.5" stroke-linecap="butt"/></g></g></svg>