<svg version="1.1" xmlns="http://www.w3.org/2000/svg" xmlns:xlink="http://www.w3.org/1999/xlink" width="29.75569" height="48.72744" viewBox="0,0,29.75569,48.72744"><g transform="translate(-224.96811,-140.18272)"><g data-paper-data="{&quot;isPaintingLayer&quot;:true}" fill-rule="nonzero" stroke="none" stroke-width="0.5" stroke-linecap="butt" stroke-linejoin="miter" stroke-miterlimit="10" stroke-dasharray="" stroke-dashoffset="0" style="mix-blend-mode: normal"><path d="M247.3823,165.1797c0.0781,0.04241 0.12494,0.0814 0.12494,0.0814l0.4584,0.39831c3.94891,2.21204 5.67837,5.68107 1.95523,9.21343c-0.68316,0.93421 -1.35257,1.79047 -2.25243,2.53266c-1.89395,1.5621 -5.02412,1.94795 -5.49519,-1.24761c-0.3395,-2.30303 1.26774,-5.05624 3.24775,-6.166l-0.15513,-0.41535l0.04631,-0.0173c-0.79486,-0.58098 -1.53874,-1.34913 -1.47794,-2.14755c0.04001,-0.52546 1.88996,-2.54458 2.28113,-2.96939c0,0 0.51108,-0.54892 1.05999,-0.03785c0.2996,0.27894 0.28342,0.56916 0.20693,0.77525z" data-paper-data="{&quot;index&quot;:null}" fill="#0060b9"/><path d="M246.32962,164.41613c0.47984,-0.57643 1.05625,-0.09659 1.05625,-0.09659l-0.01595,0.03679c4.27862,1.67162 7.97616,4.64042 4.59764,9.22147c0,0 -0.08228,0.11155 -0.22404,0.20338c-1.10935,2.43971 -3.14417,4.92656 -5.82367,5.60241c-3.25264,0.8204 -4.42418,-2.96192 -3.8681,-5.3553c0.42555,-1.74818 1.55156,-3.22381 2.76207,-4.52737l0.28737,-0.2092c0,0 0.63749,-0.39511 1.0326,0.24238c0.3951,0.63749 -0.24239,1.0326 -0.24239,1.0326l0.02025,-0.04364c-1.01516,1.08721 -2.07005,2.37295 -2.3996,3.84803c-0.28255,1.18974 -0.0391,4.1896 2.02803,3.56138c2.45436,-0.7459 4.18539,-3.03976 5.06789,-5.31447c0,0 0.15129,-0.38723 0.5169,-0.47245c2.01616,-3.32796 -1.10284,-5.14261 -4.30083,-6.39205l-0.39786,-0.28111c0,0 -0.57642,-0.47983 -0.09658,-1.05625z" data-paper-data="{&quot;index&quot;:null}" fill="#00488c"/><path d="M247.40967,165.86268l0.22202,0.55164c0.3528,0.82264 0.66968,1.66413 0.9845,2.50195c0.09274,0.32503 0.21623,0.76915 0.34754,1.28977c-0.97178,0.6283 -1.76264,1.56846 -2.20101,2.68983l-0.01569,-0.0267l0.02133,-0.00271l-0.10724,-0.87454c-0.04137,-0.37508 -0.3556,-0.66189 -0.74171,-0.66189c-0.41421,0 -0.67366,0.2712 -0.67366,0.68542c0,0.02059 0.00106,0.04126 0.00269,0.06144l0.11198,1.49699l0.00139,-0.0001c-0.00029,0.00233 -0.00056,0.00471 -0.00084,0.00704c-0.07794,0.63347 -0.02489,1.6736 0.172,2.71912c0.10401,1.38967 0.20453,2.80155 0.16076,4.19191c-0.81514,0.15964 -1.61255,0.35274 -2.29191,0.80566c-0.85057,0.56705 -0.8286,1.91115 -1.52155,2.66271c-0.37436,0.40601 -0.95117,0.60008 -1.46755,0.84717c0.0427,-1.17994 0.01421,-2.21293 -0.26105,-3.31527c0,-0.00108 -0.00249,-0.10212 -0.00249,-0.1032l0.00068,-0.00552l0.2162,-0.02416l-0.10379,-0.89121c-0.03709,-0.37956 -0.36753,-0.67666 -0.75683,-0.67666c-0.38611,0 -0.71144,0.29006 -0.75281,0.66515l-0.08158,0.78312l0.01936,0.00239l-0.02378,0.04401c-0.00106,0.7657 0.44803,5.89013 -0.33717,6.11797c-0.6911,0.20053 -2.04586,-0.09545 -2.74506,-0.16588c-0.35774,-0.0503 -0.83859,0.18103 -1.08457,-0.08354c-0.13104,-0.14095 -0.02285,-2.34947 -0.04486,-2.67461c-0.18125,-2.67748 -0.26968,-5.56445 0.0847,-8.22292c0.09231,-0.69248 0.36997,-1.57377 0.34453,-2.29802c0.06557,-0.3591 0.14457,-0.72438 0.22243,-1.08091l-0.03361,-0.08215l0.03843,-0.00015l0.00303,-0.78154c0,-0.41421 -0.26131,-0.68326 -0.67553,-0.68326c-0.36345,0 -0.66274,0.2538 -0.73157,0.597l-0.21574,0.98024l0.16878,0.03782c-0.03196,0.14554 -0.0614,0.2887 -0.09082,0.43482c-0.02741,0.08471 -0.05373,0.16969 -0.07898,0.25498c-0.11298,-1.69228 -0.77728,-3.39479 -1.79669,-4.92394c0.24087,-0.55086 0.50749,-1.09023 0.79489,-1.61576c0.27003,-0.05499 0.45267,-0.26739 0.45267,-0.26739c2.11199,-2.50239 7.13949,-1.1705 10.0579,-1.30226c1.38768,-0.06265 2.95391,-0.30772 4.24632,0.28018z" data-paper-data="{&quot;noHover&quot;:false,&quot;origItem&quot;:[&quot;Path&quot;,{&quot;applyMatrix&quot;:true,&quot;segments&quot;:[[[496.43499,290.36259],[0,0],[-2.5848,-1.17581]],[[487.97232,289.8161],[2.77535,-0.1253],[-5.83683,0.26353]],[[467.94253,292.40451],[4.22399,-5.00478],[0,0]],[[467.04065,292.93661],[0.54007,-0.10999],[-2.58686,4.73015]],[[462.74809,308.31721],[-0.00361,-5.42119],[0.00052,0.7823]],[[463.40716,313.95383],[-0.99603,-0.56354],[2.47697,1.40145]],[[467.85663,312.01728],[-0.68556,1.91418],[0.16213,-2.29009]],[[469.04847,305.38632],[-0.68063,2.10294],[0.05884,-0.29223]],[[469.23279,304.51134],[-0.06392,0.29109],[0,0]],[468.89492,304.43626],[[469.33295,302.4651],[0,0],[0.13765,-0.68639]],[[470.80364,301.26165],[-0.7269,0],[0.82843,0]],[[472.30364,302.76165],[0,-0.82843],[0,0]],[472.30364,304.31721],[472.22701,304.31721],[[472.29469,304.48088],[0,0],[-0.15574,0.71307]],[[471.85883,306.6273],[0.13113,-0.71819],[0.05089,1.4485]],[[471.17926,311.18297],[0.18462,-1.38496],[-0.70876,5.31694]],[[470.96654,327.54421],[-0.3625,-5.35496],[0.04402,0.65029]],[[471.04523,332.88685],[-0.26208,-0.2819],[0.49196,0.52915]],[[473.2066,333.05036],[-0.71548,-0.10061],[1.3984,0.14085]],[[478.67406,333.37583],[-1.38221,0.40107],[1.57041,-0.45568]],[[479.30654,321.33511],[-0.00212,1.5314],[0,0]],[479.35432,321.24715],[479.31523,321.24227],[[479.53498,319.48423],[0,0],[0.08274,-0.75016]],[[481.02587,318.15054],[-0.77221,0],[0.7786,0]],[[482.51869,319.50288],[-0.07417,-0.75912],[0,0]],[482.73891,321.48489],[482.30218,321.53342],[[482.3008,321.54447],[0,0],[0.00001,0.00215]],[[482.30082,321.55093],[-0.00001,-0.00215],[0.68633,2.74861]],[[482.74519,330.18819],[0.16737,-3.1557],[-0.013,0.24515]],[[482.50156,330.95975],[0.12905,-0.26423],[-0.0751,0.68836]],[[482.14107,332.91845],[0.1698,-0.61036],[0.72575,0.49101]],[[486.3685,333.26168],[-0.39266,-0.00064],[0.77885,0.00126]],[[492.12257,333.34191],[-0.47462,0.33694],[1.35326,-0.96069]],[[493.08432,322.66845],[-0.00313,1.78255],[0.46966,-3.75727]],[[492.96593,311.26793],[0.28561,3.81615],[-0.39377,-2.09104]],[[492.63336,305.8747],[-0.15588,1.26694],[0.00057,-0.00467]],[[492.63509,305.8607],[-0.00058,0.00467],[0,0]],[492.63231,305.8609],[[492.41967,302.88397],[0,0],[-0.00326,-0.04034]],[[492.41476,302.76165],[0,0.04118],[0,-0.82843]],[[493.91476,301.26165],[-0.82843,0],[0.77221,0]],[[495.40564,302.59534],[-0.08274,-0.75016],[0,0]],[495.62539,304.35338],[495.58269,304.35872],[[495.63408,304.44622],[0,0],[0.00057,1.90117]],[[495.88986,310.1828],[-0.13802,-1.91996],[0.78614,3.33805]],[[499.49447,315.31377],[-1.84568,1.41247],[3.93334,-3.01012]],[[499.15688,296.56475],[1.08818,3.81386],[-0.62963,-1.67564]],[[497.2027,291.57475],[0.70559,1.64528],[0,0]],[496.76188,290.47383]],&quot;closed&quot;:true}]}" fill="#0060b9"/><path d="" data-paper-data="{&quot;noHover&quot;:false,&quot;origItem&quot;:[&quot;Path&quot;,{&quot;applyMatrix&quot;:true,&quot;segments&quot;:[[[244.95738,185.24194],[0,0],[-1.52141,0]],[[240.402,185.15912],[1.51689,0.04468],[-0.00854,0.19733]],[[240.3726,185.76076],[0.01082,-0.20392],[-0.0065,0.12257]],[[240.25078,186.14654],[0.06453,-0.13211],[-0.03755,0.34418]],[[240.07053,187.12589],[0.0849,-0.30518],[0.36288,0.24551]],[[242.18425,187.29751],[-0.19633,-0.00032],[0.38942,0.00063]],[[245.06129,187.33762],[-0.23731,0.16847],[0.3077,-0.21844]],[[245.54308,185.13718],[-0.04713,1.04294],[0,0]]],&quot;closed&quot;:true}]}" fill="#00529f"/><path d="M234.4356,184.99674c1.44072,0.00784 2.96493,0.04817 4.39988,0.09106c-0.01027,1.1559 -0.11829,2.19616 -0.45674,2.29437c-0.6911,0.20053 -2.11251,-0.08547 -2.8117,-0.15589c-0.35774,-0.0503 -0.8445,0.16785 -1.09048,-0.09672c-0.09627,-0.10354 -0.05802,-1.36496 -0.04095,-2.13281z" data-paper-data="{&quot;noHover&quot;:false,&quot;origItem&quot;:[&quot;Path&quot;,{&quot;applyMatrix&quot;:true,&quot;segments&quot;:[[[234.52262,187.11009],[-0.09627,-0.10354],[0.24598,0.26458]],[[235.6033,187.19185],[-0.35774,-0.0503],[0.6992,0.07043]],[[238.33703,187.35458],[-0.6911,0.20053],[0.33846,-0.09821]],[[238.791,185.11062],[-0.01027,1.1559],[-1.43496,-0.04289]],[[234.47923,185.02116],[1.44072,0.00784],[-0.01706,0.76785]]],&quot;closed&quot;:true}]}" fill="#00529f"/><path d="M233.52423,173.35983c0.02942,-0.14611 0.0602,-0.29195 0.09216,-0.43749l-0.16893,-0.03754l0.21902,-0.98558c0.06882,-0.34319 0.37189,-0.60172 0.73534,-0.60172c0.41421,0 0.75,0.33579 0.75,0.75v0.77778h-0.03832l0.03384,0.08184c-0.07787,0.35653 -0.15236,0.71411 -0.21793,1.07321c0.02544,0.72425 -0.24748,1.58536 -0.33978,2.27784c-0.31415,2.35665 -0.29734,4.85962 -0.16322,7.26273c1.44918,0.00713 2.89374,0.04583 4.33712,0.08891c-0.04066,-1.04642 -0.11067,-1.97952 -0.11026,-2.27557l0.02389,-0.04398l-0.01954,-0.00244l0.10988,-0.87902c0.04137,-0.37508 0.35933,-0.66685 0.74544,-0.66685c0.3893,0 0.70933,0.29661 0.74641,0.67617l0.11011,0.99101l-0.21837,0.02426l-0.00069,0.00552c0,0.00108 0.00001,0.00215 0.00001,0.00323c0.1824,0.73046 0.25731,1.45872 0.27491,2.21767c0.55066,0.0162 1.10133,0.03151 1.65222,0.04442c-0.05904,0.09085 -0.12418,0.17672 -0.19727,0.25599c-0.65792,0.71356 -1.94117,0.77245 -2.42272,1.61515c-0.39621,0.69336 0.19194,1.59566 0.13289,2.39205c-0.0086,0.11595 -0.05353,0.23419 -0.12135,0.35381c-0.00225,-0.00093 -0.0045,-0.00186 -0.00674,-0.00279c-0.15559,0.17206 -0.33798,0.31484 -0.5513,0.42196c-0.74974,0.37652 -2.68004,0.02083 -3.48849,-0.05948c-0.53305,-0.07716 -1.67093,-0.17692 -2.03043,-0.58491c-0.646,-0.73316 -0.406,-3.53651 -0.40698,-4.49296c-0.00153,-1.47984 -0.10207,-3.06778 -0.11617,-4.65762c-0.04549,0.03337 -0.0918,0.06518 -0.13895,0.09535c0.30903,-1.43073 0.51122,-2.74521 0.67178,-3.65995c0.10887,-0.62022 0.13163,-1.25068 0.07847,-1.88189c0.01433,-0.0465 0.02898,-0.09287 0.04394,-0.13911zM234.52262,187.1101c0.24598,0.26458 0.72295,0.03145 1.08068,0.08175c0.6992,0.07043 2.04263,0.36327 2.73373,0.16274c0.33846,-0.09821 0.44369,-1.08806 0.45397,-2.24396c-1.43496,-0.04289 -2.87105,-0.08162 -4.31177,-0.08946c-0.01706,0.76785 -0.05288,1.98539 0.04339,2.08893z" fill="#00488c"/><path d="M245.02168,178.69763c0.16397,1.25517 -0.28296,2.80805 -0.44949,4.05539c-0.2207,0.50361 -0.48639,1.01882 -0.77385,1.48768c-3.33932,5.44662 -3.40591,-3.28599 -3.1666,-6.22961c1.27418,-1.51694 4.03149,-2.0575 4.38994,0.68654z" data-paper-data="{&quot;noHover&quot;:false,&quot;origItem&quot;:[&quot;Path&quot;,{&quot;applyMatrix&quot;:true,&quot;segments&quot;:[[[481.97189,357.48066],[2.35996,-2.81489],[-0.44323,5.46227]],[[487.74989,368.86194],[-6.18487,10.10691],[0.53241,-0.87003]],[[489.13713,366.13443],[-0.40877,0.93452],[0.30844,-2.31461]],[[489.98481,358.74748],[0.30369,2.32913],[-0.66392,-5.09193]]],&quot;closed&quot;:true}]}" fill="#00529f"/><path d="M245.79064,183.13889c-0.90875,2.15196 -3.70803,5.9101 -5.71047,3.40732c-0.01175,0.11015 -0.02542,0.22082 -0.04134,0.33223l0.0002,0.07544c0.02499,0.02646 0.04967,0.05574 0.07391,0.08806c0.45,0.6 -0.15,1.05 -0.15,1.05l-0.6884,0.45448c-0.25926,0.07407 -0.51852,0.14815 -0.77778,0.22222c0,0 -0.72114,0.20604 -0.92718,-0.5151c-0.20604,-0.72114 0.5151,-0.92718 0.5151,-0.92718c0.15232,-0.04352 0.30464,-0.08704 0.45697,-0.13056l0.00096,-0.42368c0.11066,-0.77465 0.10922,-1.49868 0.10922,-2.28017c0,0 0,-0.46539 0.3666,-0.66296c-0.2211,-1.64999 -0.00906,-3.58905 0.18975,-5.17595c-0.00331,-0.1383 0.02635,-0.24927 0.03523,-0.27918c0.02824,-0.22264 0.05564,-0.43714 0.08088,-0.6416c0,0 0.07481,-0.59847 0.62694,-0.65496c1.83919,-1.82305 4.72807,-2.06252 6.02022,0.76652c0.0987,0.21609 0.17142,0.44228 0.2228,0.67594c0.00465,0 0.00929,0 0.01394,0c-0.00026,0.57127 0.01497,1.16099 0.0538,1.75062c-0.09195,0.98942 -0.34039,1.99737 -0.47135,2.86851zM240.76372,178.407c-0.22161,2.73113 -0.20343,10.7441 2.889,5.69064c0.26621,-0.43502 0.48923,-0.8965 0.69362,-1.36376c0.15422,-1.1573 0.57568,-2.52891 0.42384,-3.69347c-0.33196,-2.54597 -2.82648,-2.04086 -4.00646,-0.63341z" fill="#00488c"/><path d="M233.48792,166.29082c-0.07649,-0.20609 -0.09267,-0.49631 0.20693,-0.77525c0.54891,-0.51107 1.05999,0.03785 1.05999,0.03785c0.39117,0.42481 2.24112,2.44393 2.28113,2.96939c0.0608,0.79842 -0.68308,1.56657 -1.47794,2.14755l0.04631,0.0173l-0.15513,0.41535c1.98001,1.10976 3.58725,3.86297 3.24775,6.166c-0.47107,3.19556 -3.60124,2.80971 -5.49519,1.24761c-0.89986,-0.74219 -1.56927,-1.59845 -2.25243,-2.53266c-3.72314,-3.53236 -1.99368,-7.00139 1.95523,-9.21343l0.4584,-0.39831c0,0 0.04684,-0.03899 0.12494,-0.0814z" fill="#0060b9"/><path d="M234.54061,165.52726c0.47984,0.57642 -0.09658,1.05625 -0.09658,1.05625l-0.39786,0.28111c-3.19799,1.24944 -6.31699,3.06409 -4.30083,6.39205c0.36561,0.08522 0.5169,0.47245 0.5169,0.47245c0.8825,2.27471 2.61353,4.56857 5.06789,5.31447c2.06713,0.62822 2.31058,-2.37164 2.02803,-3.56138c-0.32955,-1.47508 -1.38444,-2.76082 -2.3996,-3.84803l0.02025,0.04364c0,0 -0.63749,-0.39511 -0.24239,-1.0326c0.39511,-0.63749 1.0326,-0.24238 1.0326,-0.24238l0.28737,0.2092c1.21051,1.30356 2.33652,2.77919 2.76207,4.52737c0.55608,2.39338 -0.61546,6.1757 -3.8681,5.3553c-2.6795,-0.67585 -4.71432,-3.1627 -5.82367,-5.60241c-0.14176,-0.09183 -0.22404,-0.20338 -0.22404,-0.20338c-3.37852,-4.58105 0.31902,-7.54985 4.59764,-9.22147l-0.01595,-0.03679c0,0 0.57641,-0.47984 1.05625,0.09659z" fill="#00488c"/><path d="M254.49754,146.00887c0.37195,0.65127 -0.27933,1.02322 -0.27933,1.02322l-0.11596,0.06622c-0.88569,0.50534 -1.79273,0.97498 -2.7166,1.40658c0,0 -0.67964,0.31716 -0.9968,-0.36247c-0.31716,-0.67964 0.36247,-0.9968 0.36247,-0.9968c0.88696,-0.41345 1.75748,-0.86418 2.60704,-1.34986l0.11596,-0.06622c0,0 0.65127,-0.37195 1.02322,0.27933z" fill="#8c5900"/><path d="M244.29071,140.5197c0.75,0 0.75,0.75 0.75,0.75l-0.02643,0.64178c-0.11111,0.40741 -0.22222,0.81481 -0.33333,1.22222c0,0 -0.19734,0.72357 -0.92091,0.52623c-0.72357,-0.19734 -0.52623,-0.92091 -0.52623,-0.92091c0.11111,-0.40741 0.22222,-0.81481 0.33333,-1.22222l-0.02643,-0.24711c0,0 0,-0.75 0.75,-0.75z" fill="#8c5900"/><path d="M233.87149,141.18383c0.53033,-0.53033 1.06066,0 1.06066,0l0.41743,0.43357c0.25926,0.37037 0.51852,0.74074 0.77778,1.11111c0,0 0.4301,0.61442 -0.18433,1.04452c-0.61442,0.4301 -1.04452,-0.18433 -1.04452,-0.18433c-0.25926,-0.37037 -0.51852,-0.74074 -0.77778,-1.11111l-0.24924,-0.2331c0,0 -0.53033,-0.53033 0,-1.06066z" fill="#8c5900"/><path d="M225.77778,146.07592c0.41603,-0.62404 1.04006,-0.20801 1.04006,-0.20801l0.37776,0.25425c0.33333,0.25926 0.66667,0.51852 1,0.77778c0,0 0.59201,0.46046 0.13156,1.05247c-0.46046,0.59201 -1.05247,0.13156 -1.05247,0.13156c-0.33333,-0.25926 -0.66667,-0.51852 -1,-0.77778l-0.2889,-0.1902c0,0 -0.62404,-0.41603 -0.20801,-1.04006z" fill="#8c5900"/><path d="M228.91823,148.9345l-0.12357,0.15341c-1.42752,2.6588 -2.45503,5.02995 -1.98747,8.18111c0.67586,4.55494 6.74007,9.80938 11.20929,10.37875c10.12628,1.39855 17.89941,-10.83977 11.47525,-19.2084c-3.5902,-4.74801 -9.54165,-5.36436 -14.8683,-3.35531c-1.8502,0.69784 -4.24192,1.52123 -5.54423,3.14214c0.08536,0.37372 -0.16097,0.70829 -0.16097,0.70829zM226.97468,148.40723c1.35394,-2.70216 4.35479,-3.89944 7.048,-4.91564c6.05692,-2.28541 12.73216,-1.40953 16.82251,3.9158c7.27258,9.5944 -1.42149,23.49509 -13.05869,21.92677c-5.24769,-0.75258 -11.83515,-6.46649 -12.66285,-11.81508c-0.4949,-3.19808 0.40679,-5.80703 1.7849,-8.50002c-0.07753,-0.31392 0.06612,-0.61183 0.06612,-0.61183z" data-paper-data="{&quot;index&quot;:null}" fill="#8d7f67"/><path d="M229.03385,148.19212c1.30231,-1.62091 3.71699,-2.46235 5.56719,-3.16019c5.32665,-2.00905 11.34637,-1.37394 14.93657,3.37407c6.42416,8.36862 -1.40083,20.69674 -11.5271,19.29819c-4.46922,-0.56937 -10.58383,-5.87394 -11.25969,-10.42888c-0.46756,-3.15116 0.56873,-5.55948 1.99626,-8.21828l0.12406,-0.15416c0,0 0.24807,-0.33703 0.16272,-0.71075z" data-paper-data="{&quot;noHover&quot;:false,&quot;origItem&quot;:[&quot;Path&quot;,{&quot;applyMatrix&quot;:true,&quot;segments&quot;:[[461.79205,256.51809],[[461.57425,256.7885],[0,0],[-2.51619,4.68647]],[[458.07109,271.20873],[-0.82414,-5.55431],[1.19129,8.02865]],[[477.82886,289.50257],[-7.87755,-1.00359],[17.84882,2.46512]],[[498.05541,255.64538],[11.32339,14.75074],[-6.32818,-8.36895]],[[471.84818,249.73122],[9.38889,-3.5412],[-3.26121,1.23003]],[[462.07578,255.26964],[2.29549,-2.85706],[0.15045,0.65872]]],&quot;closed&quot;:true}]}" fill="#e6d0a9"/><path d="M234.94857,161.86441c-0.05467,-0.32819 -0.09999,-0.6521 -0.13732,-0.974c-0.61991,-0.00989 -1.23969,-0.016 -1.85922,-0.01682c-0.00022,0.04725 -0.00045,0.09449 -0.00071,0.14174c-0.00187,0.33801 -0.40187,0.94877 -0.06975,1.01164c0.65393,0.12378 1.34507,0.19083 2.05924,0.21905zM236.62742,161.5846l0.00907,0.66541c0.59909,-0.01714 1.20604,-0.05058 1.81336,-0.09086l-0.10595,-0.64811c0,-0.17971 -0.00272,-0.35746 -0.0084,-0.53363c-0.60177,-0.01837 -1.20357,-0.03582 -1.80534,-0.051c0.02809,0.21766 0.06033,0.43677 0.09725,0.6582zM240.04012,161.37065l0.11331,0.66488c0.95273,-0.07099 1.88879,-0.13694 2.77843,-0.16027c-0.05217,-0.16028 -0.05217,-0.29259 -0.05217,-0.29259c0,-0.15142 0,-0.30882 0,-0.47079c-0.94716,-0.02263 -1.89501,-0.05148 -2.84318,-0.08125c0.00241,0.11257 0.0036,0.22587 0.0036,0.34002zM244.5817,157.32763c0,0.70501 0,1.41002 0,2.11502c0.48128,0.00673 0.96231,0.01102 1.44305,0.01218c-0.07853,-0.34968 -0.13605,-0.7079 -0.1649,-1.08148c-0.02866,-0.37113 0.52351,-1.03799 0.15745,-1.10556c-0.39806,-0.07347 -0.89766,-0.06983 -1.44214,-0.02647c0.00654,0.05318 0.00654,0.08631 0.00654,0.08631zM244.5817,161.15715v0.4255c0,0 -0.00001,0.07961 -0.02435,0.19012c0.76902,-0.1162 1.5717,-0.27148 2.2216,-0.02948c-0.08753,-0.22546 -0.17341,-0.44808 -0.25548,-0.66976l-0.23977,0.08363c-0.56696,0 -1.13433,-0.00454 -1.70201,-0.01248c0,0.00416 0,0.00832 0,0.01248zM232.95135,157.89377c0.00019,0.42592 0.00119,0.85187 0.00189,1.27782c0.57554,0.00077 1.15131,0.00609 1.72721,0.01478c-0.01781,-0.42977 -0.0257,-0.86313 -0.02695,-1.30547c-0.56817,0.00663 -1.13573,0.01092 -1.70216,0.01287zM238.17423,159.27049c-0.07895,-0.48342 -0.1881,-0.96426 -0.33288,-1.4513c-0.49516,0.01341 -0.99057,0.02503 -1.48591,0.03487c0.00104,0.46465 0.00941,0.91759 0.0298,1.36672c0.5963,0.01467 1.19266,0.03167 1.789,0.0497zM242.87969,159.40987c0,-0.68206 0,-1.36232 0,-1.959c-0.82031,0.12123 -1.61792,0.24787 -2.23067,0.27295c-0.35312,0.01445 -0.7067,0.02798 -1.06062,0.0406c0.13437,0.52338 0.23776,1.03939 0.3115,1.5599c0.99375,0.03128 1.98716,0.06184 2.97978,0.08555zM231.31749,157.41503c-0.04248,-0.10096 -0.06818,-0.22316 -0.06818,-0.37107c0,-0.851 0.851,-0.851 0.851,-0.851h0.14183c3.89166,0 7.83617,-0.10555 11.72983,-0.28261c0.69369,-0.03154 2.53378,-0.40154 3.14547,0.05878c1.17558,0.88467 1.06152,6.18688 0.65669,7.15489c-4.18027,0.51578 -8.22706,0.56786 -12.43664,0.44393c-0.39989,-0.01177 -3.1076,0.06381 -3.45111,-0.16027c-1.2515,-0.81638 -0.63708,-4.41808 -0.63708,-5.65456c0,0 -0.00001,-0.15815 0.06818,-0.3381z" fill="#000000"/><path d="M244.54206,157.19527c0.54448,-0.04336 1.10701,-0.04918 1.50507,0.02429c0.36606,0.06756 -0.1594,0.78729 -0.13074,1.15842c0.02885,0.37358 0.05877,0.77599 0.1373,1.12567c-0.48074,-0.00115 -1.02326,-0.00777 -1.50454,-0.0145c0,-0.70501 -0.00217,-1.50136 -0.00217,-2.20637c0,0 0.00161,-0.03433 -0.00492,-0.08751z" data-paper-data="{&quot;noHover&quot;:false,&quot;origItem&quot;:[&quot;Path&quot;,{&quot;applyMatrix&quot;:true,&quot;segments&quot;:[[[244.5817,157.32764],[0,0],[0,0.70501]],[[244.5817,159.44267],[0,-0.70501],[0.48128,0.00673]],[[246.02475,159.45484],[-0.48074,-0.00115],[-0.07853,-0.34968]],[[245.85985,158.37336],[0.02885,0.37358],[-0.02866,-0.37113]],[[246.01731,157.26781],[0.36606,0.06756],[-0.39806,-0.07347]],[[244.57517,157.24133],[0.54448,-0.04336],[0.00654,0.05318]]],&quot;closed&quot;:true}]}" fill="#ffb900"/><path d="M244.52674,161.1306c0.56768,0.00794 1.24208,0.00406 1.80904,0.00406l0.2402,-0.08259c0.08207,0.22168 0.16994,0.48148 0.25748,0.70694c-0.64991,-0.242 -1.56121,-0.0854 -2.33023,0.03081c0.02434,-0.11051 0.02233,-0.19891 0.02233,-0.19891l0.00103,-0.44723c0,-0.00416 0.00015,-0.00891 0.00015,-0.01308z" data-paper-data="{&quot;noHover&quot;:false,&quot;origItem&quot;:[&quot;Path&quot;,{&quot;applyMatrix&quot;:true,&quot;segments&quot;:[[[244.5817,161.15716],[0,-0.00416],[0,0]],[244.5817,161.58266],[[244.55735,161.77278],[0.02434,-0.11051],[0.76902,-0.1162]],[[246.77895,161.7433],[-0.64991,-0.242],[-0.08753,-0.22546]],[[246.52348,161.07353],[0.08207,0.22168],[0,0]],[[246.28371,161.15716],[0,0],[-0.56696,0]],[[244.5817,161.14468],[0.56768,0.00794],[0,0.00416]]],&quot;closed&quot;:true}]}" fill="#ffb900"/><path d="M239.98292,161.01203c0.94817,0.02977 2.00393,0.06083 2.95109,0.08346c0,0.16197 0.00238,0.33778 0.00238,0.4892c0,0 -0.00149,0.14334 0.05068,0.30362c-0.88964,0.02333 -1.93399,0.09627 -2.88672,0.16726l-0.11662,-0.69126c0,-0.11415 0.00158,-0.23971 -0.00082,-0.35228z" data-paper-data="{&quot;noHover&quot;:false,&quot;origItem&quot;:[&quot;Path&quot;,{&quot;applyMatrix&quot;:true,&quot;segments&quot;:[[[240.04012,161.37064],[0,-0.11415],[0,0]],[[240.15343,162.03551],[0,0],[0.95273,-0.07099]],[[242.93186,161.87525],[-0.88964,0.02333],[-0.05217,-0.16028]],[[242.87969,161.58266],[0,0],[0,-0.15142]],[[242.87969,161.11187],[0,0.16197],[-0.94716,-0.02263]],[[240.03651,161.03062],[0.94817,0.02977],[0.00241,0.11257]]],&quot;closed&quot;:true}]}" fill="#ffb900"/><path d="M239.85278,159.3559c-0.07374,-0.52051 -0.18259,-1.08938 -0.31696,-1.61276c0.35392,-0.01262 0.7239,-0.04856 1.07703,-0.06301c0.61275,-0.02508 1.49529,-0.13704 2.3156,-0.25827c0,0.59668 0,1.33497 0,2.01703c-0.99263,-0.02371 -2.08192,-0.05171 -3.07567,-0.08299z" data-paper-data="{&quot;noHover&quot;:false,&quot;origItem&quot;:[&quot;Path&quot;,{&quot;applyMatrix&quot;:true,&quot;segments&quot;:[[[242.87969,159.40986],[-0.99263,-0.02371],[0,-0.68206]],[[242.87969,157.45086],[0,0.59668],[-0.82031,0.12123]],[[240.64903,157.72381],[0.61275,-0.02508],[-0.35312,0.01445]],[[239.58841,157.76441],[0.35392,-0.01262],[0.13437,0.52338]],[[239.89991,159.32431],[-0.07374,-0.52051],[0.99375,0.03128]]],&quot;closed&quot;:true}]}" fill="#ffb900"/><path d="M236.34025,159.25535c-0.02038,-0.44913 -0.02895,-0.97095 -0.02999,-1.4356c0.49534,-0.00984 1.07122,-0.03157 1.56638,-0.04498c0.14478,0.48704 0.26299,1.04769 0.34194,1.5311c-0.59633,-0.01803 -1.28202,-0.03585 -1.87833,-0.05052z" data-paper-data="{&quot;noHover&quot;:false,&quot;origItem&quot;:[&quot;Path&quot;,{&quot;applyMatrix&quot;:true,&quot;segments&quot;:[[[238.17423,159.27048],[-0.59633,-0.01803],[-0.07895,-0.48342]],[[237.84135,157.81918],[0.14478,0.48704],[-0.49516,0.01341]],[[236.35544,157.85406],[0.49534,-0.00984],[0.00104,0.46465]],[[236.38524,159.22077],[-0.02038,-0.44913],[0.5963,0.01467]]],&quot;closed&quot;:true}]}" fill="#ffb900"/><path d="M236.48346,160.8942c0.60177,0.01518 1.29627,0.03161 1.89804,0.04998c0.00567,0.17617 0.01891,0.38204 0.01891,0.56175l0.09821,0.68222c-0.60732,0.04029 -1.30787,0.07948 -1.90696,0.09663l-0.02097,-0.70041c-0.03692,-0.22143 -0.05914,-0.4725 -0.08723,-0.69017z" data-paper-data="{&quot;noHover&quot;:false,&quot;origItem&quot;:[&quot;Path&quot;,{&quot;applyMatrix&quot;:true,&quot;segments&quot;:[[[236.62742,161.58459],[-0.03692,-0.22143],[0,0]],[[236.63649,162.25],[0,0],[0.59909,-0.01714]],[[238.44986,162.15913],[-0.60732,0.04029],[0,0]],[[238.34391,161.51102],[0,0],[0,-0.17971]],[[238.33551,160.97739],[0.00567,0.17617],[-0.60177,-0.01837]],[[236.53017,160.92639],[0.60177,0.01518],[0.02809,0.21766]]],&quot;closed&quot;:true}]}" fill="#ffb900"/><path d="M234.98884,162.27622c-0.71417,-0.02822 -1.50442,-0.1008 -2.15836,-0.22458c-0.33212,-0.06287 0.07046,-0.72772 0.07233,-1.06572c0.00026,-0.04725 0.00395,-0.09954 0.00416,-0.14679c0.61953,0.00082 1.33094,0.00899 1.95085,0.01888c0.03733,0.3219 0.09075,0.69336 0.14543,1.02155z" data-paper-data="{&quot;noHover&quot;:false,&quot;origItem&quot;:[&quot;Path&quot;,{&quot;applyMatrix&quot;:true,&quot;segments&quot;:[[[234.94857,161.8644],[0,0],[-0.05467,-0.32819]],[[234.81125,160.8904],[0.03733,0.3219],[-0.61991,-0.00989]],[[232.95203,160.87359],[0.61953,0.00082],[-0.00022,0.04725]],[[232.95132,161.01533],[0.00026,-0.04725],[-0.00187,0.33801]],[[232.88157,162.02697],[-0.33212,-0.06287],[0.65393,0.12378]],[[234.9408,162.24602],[-0.71417,-0.02822],[0,0]]],&quot;closed&quot;:true}]}" fill="#ffb900"/><path d="M234.69825,157.84603c0.00125,0.44235 0.00967,0.94476 0.02748,1.37453c-0.5759,-0.00869 -1.24256,-0.01447 -1.8181,-0.01524c-0.00071,-0.42596 -0.00169,-0.91938 -0.00188,-1.34531c0.56643,-0.00195 1.22434,-0.00736 1.79251,-0.01399z" data-paper-data="{&quot;noHover&quot;:false,&quot;origItem&quot;:[&quot;Path&quot;,{&quot;applyMatrix&quot;:true,&quot;segments&quot;:[[[232.95135,157.89376],[0.56643,-0.00195],[0.00019,0.42592]],[[232.95324,159.17158],[-0.00071,-0.42596],[0.57554,0.00077]],[[234.68045,159.18637],[-0.5759,-0.00869],[-0.01781,-0.42977]],[[234.6535,157.88089],[0.00125,0.44235],[-0.56817,0.00663]]],&quot;closed&quot;:true}]}" fill="#ffb900"/><path d="M244.86332,148.86171c-0.9108,0.77651 -3.17605,2.91751 -1.99926,3.67173c0.41216,0.26416 2.50255,0.19021 2.87619,0.20454c0.86631,0.03322 1.8994,0.74679 2.59115,0.22422c0.43284,-0.32698 -0.45148,-0.987 -0.7007,-1.46883c-0.58353,-1.12816 -0.75513,-2.30792 -2.10539,-2.54125l-0.228,0.02027c0,0 -0.21845,0.00001 -0.43399,-0.11068zM245.24457,147.27335c0.03319,-0.00297 0.05275,-0.00297 0.05275,-0.00297l0.59722,0.02027c1.88376,0.4754 5.41395,4.84063 3.58932,6.92403c-0.79954,0.91294 -6.9065,0.33893 -7.73611,-0.39645c-2.38603,-2.11504 0.8779,-5.41985 2.42005,-6.58394c0,0 0.5847,-0.43852 1.07676,0.03907z" fill="#000000"/><path d="M245.29195,148.91591l0.23432,-0.02051c1.35026,0.23333 1.57623,1.48238 2.15977,2.61054c0.24922,0.48183 1.12495,1.16144 0.69211,1.48842c-0.69175,0.52257 -1.76348,-0.16701 -2.62979,-0.20023c-0.37365,-0.01433 -2.52119,0.03197 -2.93335,-0.23219c-1.1768,-0.75422 1.12159,-2.97817 2.03239,-3.75469c0.21554,0.11068 0.44455,0.10865 0.44455,0.10865z" data-paper-data="{&quot;noHover&quot;:false,&quot;origItem&quot;:[&quot;Path&quot;,{&quot;applyMatrix&quot;:true,&quot;segments&quot;:[[[489.89726,256.3898],[0.37992,0.19509],[-1.6054,1.3687]],[[486.37332,262.86168],[-2.07425,-1.3294],[0.72648,0.46561]],[[491.44297,263.2222],[-0.6586,-0.02525],[1.52698,0.05855]],[[496.0102,263.61742],[-1.2193,0.92109],[0.76294,-0.57634]],[[494.77513,261.02843],[0.43928,0.84928],[-1.02855,-1.98853]],[[491.06411,256.54916],[2.38001,0.41127],[0,0]],[490.66223,256.58488]],&quot;closed&quot;:true}]}" fill="#ffbaba"/><path d="M233.03188,148.6917c-0.09043,0.09595 -0.17168,0.14765 -0.17168,0.14765c-0.60167,0.38147 -1.21362,0.76238 -1.73541,1.24741c-2.59542,2.41258 -0.39355,2.79533 1.91126,2.55223c0.15117,-0.01594 2.03481,-0.18073 2.07182,-0.25734c0.43096,-0.8922 -1.08449,-3.37502 -2.076,-3.68995zM232.08894,147.33371c0.23613,-0.37279 0.72698,-0.37279 0.72698,-0.37279l0.18783,0.00422c2.01837,0.30859 4.83206,4.12914 3.50304,6.38595c-1.17097,1.98842 -7.59916,1.69484 -8.21862,-0.54687c-0.70231,-2.54152 1.88748,-4.27016 3.65826,-5.40081c0,0 0.05429,-0.03455 0.14251,-0.06971z" fill="#000000"/><path d="M235.15515,152.41302c-0.03701,0.07661 -1.95464,0.26518 -2.10581,0.28113c-2.30481,0.2431 -4.57222,-0.21689 -1.9768,-2.62947c0.52179,-0.48503 1.19481,-0.8999 1.79647,-1.28137c0,0 0.08522,-0.05092 0.17565,-0.14687c0.99151,0.31493 2.54144,2.88439 2.11048,3.77658z" data-paper-data="{&quot;noHover&quot;:false,&quot;origItem&quot;:[&quot;Path&quot;,{&quot;applyMatrix&quot;:true,&quot;segments&quot;:[[[469.04287,256.09013],[1.74766,0.5551],[-0.1594,0.16912]],[[468.74027,256.35038],[0,0],[-1.06051,0.67239]],[[465.6814,258.5491],[0.91972,-0.85493],[-4.57475,4.25247]],[[469.05023,263.04772],[-4.06251,0.42849],[0.26646,-0.0281]],[[472.70207,262.59413],[-0.06523,0.13503],[0.75962,-1.57261]]],&quot;closed&quot;:true}]}" fill="#ffbaba"/><path d="M233.73475,151.32706c0,-0.47 0.38101,-0.851 0.851,-0.851c0.47,0 0.851,0.38101 0.851,0.851c0,0.47 -0.38101,0.851 -0.851,0.851c-0.47,0 -0.851,-0.38101 -0.851,-0.851z" fill="#000000"/><path d="M245.90786,151.02379c0,-0.64904 0.52615,-1.1752 1.1752,-1.1752c0.64904,0 1.1752,0.52615 1.1752,1.1752c0,0.64904 -0.52615,1.1752 -1.1752,1.1752c-0.64904,0 -1.1752,-0.52615 -1.1752,-1.1752z" fill="#000000"/><path d="M231.58292,141.56748c0.70225,-0.26334 0.96559,0.4389 0.96559,0.4389l0.3252,0.86813c0.34582,0.7827 0.60212,1.60579 0.81128,2.43553c0,0 0.1819,0.72761 -0.54571,0.90951c-0.72761,0.1819 -0.90951,-0.54571 -0.90951,-0.54571c-0.18851,-0.761 -0.42418,-1.51546 -0.74428,-2.23114l-0.34147,-0.90965c0,0 -0.26334,-0.70225 0.4389,-0.96559z" fill="#8c5900"/><path d="M239.85845,140.1966c0.7398,0.1233 0.6165,0.86309 0.6165,0.86309l-0.10091,0.54337c0,0.87072 0.00264,1.68759 -0.11865,2.55051c0,0 -0.10607,0.74246 -0.84853,0.6364c-0.74246,-0.10607 -0.6364,-0.84853 -0.6364,-0.84853c0.11516,-0.79153 0.10357,-1.53823 0.10357,-2.33838l0.12132,-0.78997c0,0 0.1233,-0.7398 0.86309,-0.6165z" fill="#8c5900"/><path d="M250.26549,144.07271c0.53033,0.53033 0,1.06066 0,1.06066l-0.44444,0.44444c-0.34924,0.34255 -0.63999,0.74836 -0.87915,1.17511c0,0 -0.3721,0.65118 -1.02329,0.27908c-0.65118,-0.3721 -0.27908,-1.02329 -0.27908,-1.02329c0.31215,-0.53791 0.6844,-1.04851 1.12085,-1.49156l0.44444,-0.44444c0,0 0.53033,-0.53033 1.06066,0z" fill="#8c5900"/><path d="M254.6005,150.3283c0.38587,0.64312 -0.25725,1.02899 -0.25725,1.02899l-0.5254,0.31425c-0.66712,0.44427 -1.35134,0.86419 -2.05179,1.2538c0,0 -0.65562,0.36423 -1.01985,-0.29139c-0.36423,-0.65562 0.29139,-1.01985 0.29139,-1.01985c0.6655,-0.36924 1.31517,-0.76814 1.94821,-1.19064l0.58571,-0.35242c0,0 0.64312,-0.38587 1.02899,0.25725z" fill="#8c5900"/><path d="M227.31913,149.42432c0.21694,0.04127 0.61047,0.19102 0.61047,0.73429c0,0.75 -0.75,0.75 -0.75,0.75l-0.52714,-0.12596c-0.44444,-0.2963 -0.88889,-0.59259 -1.33333,-0.88889c0,0 -0.62404,-0.41603 -0.20801,-1.04006c0.41603,-0.62404 1.04006,-0.20801 1.04006,-0.20801c0.38932,0.25954 0.77863,0.51909 1.16795,0.77863z" fill="#8c5900"/><path d="M250.6282,170.71625c-0.33541,0.67082 -1.00623,0.33541 -1.00623,0.33541l-0.18225,-0.09257c-0.54384,-0.23529 -1.07081,-0.51619 -1.56503,-0.8431c0,0 -0.62404,-0.41603 -0.20801,-1.04006c0.41603,-0.62404 1.04006,-0.20801 1.04006,-0.20801c0.41577,0.27976 0.86245,0.51691 1.32386,0.71246l0.26219,0.12965c0,0 0.67082,0.33541 0.33541,1.00623z" fill="#0060b9"/><path d="M246.29071,178.57527c-0.75,0 -0.75,-0.75 -0.75,-0.75v-0.66667c0,-2.34611 -0.22222,-4.65336 -0.22222,-7c0,0 0,-0.75 0.75,-0.75c0.75,0 0.75,0.75 0.75,0.75c0,2.34611 0.22222,4.65336 0.22222,7v0.66667c0,0 0,0.75 -0.75,0.75z" fill="#00488c"/></g></g></svg>