<svg version="1.1" xmlns="http://www.w3.org/2000/svg" xmlns:xlink="http://www.w3.org/1999/xlink" width="172.74632" height="31.66362" viewBox="0,0,172.74632,31.66362"><g transform="translate(-80.83751,-163.71138)"><g data-paper-data="{&quot;isPaintingLayer&quot;:true}" fill="#ff0000" fill-rule="nonzero" stroke="none" stroke-linecap="butt" stroke-linejoin="miter" stroke-miterlimit="10" stroke-dasharray="" stroke-dashoffset="0" style="mix-blend-mode: normal"><path d="M230.64385,184.17277c1.64474,-1.502 3.42056,-3.02604 5.17159,-4.61443c-1.52954,-1.37291 -3.08342,-2.72679 -4.68218,-4.03746c-0.82588,-0.67706 -5.36574,-3.69949 -5.41918,-4.66144c-0.25403,-0.39131 -0.40157,-0.85814 -0.40157,-1.35944c0,-1.22776 0.88504,-2.24881 2.05193,-2.45996c0.09689,-0.03131 0.19936,-0.05052 0.30832,-0.05562c2.07702,-0.09725 4.24836,2.63292 5.73248,3.94777c1.97589,1.75053 3.99599,3.46035 5.99081,5.18828c2.08909,-2.16382 3.96134,-4.48002 5.29476,-7.03604c1.07294,-2.05671 4.67766,-6.28904 6.86474,-5.1955c3.6428,1.8214 -1.90882,6.94252 -3.24303,8.98607c-1.56003,2.38941 -3.34844,4.50563 -5.26501,6.48226c1.4112,1.29149 2.7862,2.61187 4.09812,3.98388c1.70749,1.7857 6.62932,3.48763 6.43246,6.29861c-0.2589,3.69688 -4.80634,1.58379 -6.41312,0.20656c-2.62657,-2.25135 -5.17419,-4.62397 -7.74543,-6.997c-2.50722,2.28604 -5.11608,4.48399 -7.63931,6.8435c-1.16615,1.09048 -2.15583,3.15856 -3.45685,4.48213c-0.43892,0.71962 -1.23129,1.20006 -2.13587,1.20006c-1.38071,0 -2.5,-1.11929 -2.5,-2.5c0,-0.41376 0.10051,-0.80403 0.27845,-1.14775c1.0664,-2.99976 4.5807,-5.6393 6.67789,-7.55448z" stroke-width="0.5"/><text transform="translate(81.08751,185.76875) scale(0.5,0.5)" font-size="40" xml:space="preserve" fill="#ff0000" fill-rule="nonzero" stroke="none" stroke-width="1" stroke-linecap="butt" stroke-linejoin="miter" stroke-miterlimit="10" stroke-dasharray="" stroke-dashoffset="0" font-family="Sans Serif" font-weight="normal" text-anchor="start" style="mix-blend-mode: normal"><tspan x="0" dy="0">Inventory Full!</tspan></text></g></g></svg>