<svg version="1.1" xmlns="http://www.w3.org/2000/svg" xmlns:xlink="http://www.w3.org/1999/xlink" width="42.36282" height="26.31725" viewBox="0,0,42.36282,26.31725"><g transform="translate(-238.27104,-166.27729)"><g data-paper-data="{&quot;isPaintingLayer&quot;:true}" fill-rule="nonzero" stroke="none" stroke-width="0.5" stroke-linecap="butt" stroke-linejoin="miter" stroke-miterlimit="10" stroke-dasharray="" stroke-dashoffset="0" style="mix-blend-mode: normal"><path d="M274.99942,180.97738c0.04074,-0.01008 0.0679,-0.01241 0.0679,-0.01241l0.42585,0.03102c0.01594,0.0078 0.03189,0.01543 0.04783,0.02291c0.59493,0.04482 1.18187,0.08585 1.75601,0.11705c0,0 0.21127,0.01186 0.34321,0.16103c0.52325,-0.06257 1.05372,-0.1908 1.59756,-0.3155c0.20493,-0.04698 0.517,-1.11127 0.44539,-1.18277c-0.00584,-0.00584 -1.24595,-0.03643 -1.33993,-0.05833c-2.42498,-0.13302 -4.78266,-0.59907 -7.19587,-0.80645c-1.43585,-0.12339 -3.07964,0.18755 -4.4877,-0.15099c-1.76021,0.17499 -3.64217,-0.10194 -5.39135,-0.25226c-1.93045,-0.1659 -4.11982,0.19482 -6.05621,0.34188c-1.00132,-0.24075 -2.59448,-0.23394 -3.61078,-0.04742c-0.3486,0.06398 -0.9158,1.21646 -0.69365,1.40343c0.20967,0.17646 0.52376,-0.22162 0.79703,-0.20142c1.23108,0.09104 2.62731,0.2215 3.8582,0.11564c0.93666,0.22521 1.83549,-0.03996 2.77687,0.02965c2.8584,0.21137 6.11738,-0.09517 8.90948,0.57615c2.44762,-0.2105 5.16005,0.02761 7.75018,0.22883zM275.29595,181.94391c-2.69933,-0.20948 -5.5548,-0.47265 -8.11759,-0.25223c-2.80791,-0.67512 -6.03588,-0.32921 -8.90948,-0.57615c-0.93594,-0.08042 -1.83876,0.19589 -2.77688,-0.02966c-1.22276,0.10517 -2.63539,-0.01057 -3.8582,-0.11564c-0.38531,-0.03311 -1.00149,0.26268 -1.33506,-0.01806c-0.62587,-0.52673 -0.16249,-2.25324 0.343,-2.7042c0.826,-0.73687 3.62529,-0.56276 4.64134,-0.31847c3.87024,-0.38477 7.67216,0.1971 11.44755,-0.08962c1.40995,0.33899 3.04579,0.04437 4.48769,0.151c2.43804,0.18029 4.81611,0.67395 7.26255,0.81385c0.51621,0.12843 1.53664,-0.058 1.91932,0.37731c0.6272,0.71342 -0.13066,2.37471 -0.83278,2.68591c-1.26661,0.56141 -3.00106,0.60227 -4.27149,0.07595z" data-paper-data="{&quot;index&quot;:null}" fill="#704f39"/><path d="M275.09874,180.96806c0,0 -0.02718,0.0024 -0.06792,0.01248c-2.59013,-0.20122 -5.30443,-0.43134 -7.75204,-0.22084c-2.7921,-0.67132 -6.11209,-0.37516 -8.97049,-0.58653c-0.94139,-0.06962 -1.84023,0.19525 -2.77688,-0.02996c-1.23089,0.10587 -2.56406,-0.02507 -3.79515,-0.1161c-0.27329,-0.02021 -0.65042,0.37839 -0.86008,0.20194c-0.22215,-0.18697 0.34515,-1.34264 0.69376,-1.40662c1.01629,-0.18652 2.60955,-0.19414 3.61087,0.04661c1.93639,-0.14705 4.12749,-0.51512 6.05795,-0.34923c1.74917,0.15032 3.68417,0.41708 5.44438,0.24209c1.40805,0.33855 3.0594,0.04297 4.49525,0.16636c2.41322,0.20738 4.77141,0.67848 7.19639,0.8115c0.09398,0.0219 1.33409,0.05267 1.33994,0.05851c0.07161,0.0715 -0.24054,1.13844 -0.44546,1.18542c-0.54385,0.12469 -1.0744,0.254 -1.59766,0.31657c-0.13196,-0.14917 -0.34317,-0.16136 -0.34317,-0.16136c-0.57414,-0.03121 -1.16109,-0.07207 -1.75602,-0.1169c-0.01594,-0.00748 -0.09464,-0.02124 -0.11058,-0.02903l-0.36309,-0.02492z" data-paper-data="{&quot;noHover&quot;:false,&quot;origItem&quot;:[&quot;Path&quot;,{&quot;applyMatrix&quot;:true,&quot;segments&quot;:[[[242.54591,170.80006],[0.05383,-0.03914],[-2.40109,3.34861]],[[234.90843,180.43854],[2.75517,-2.75517],[-2.0369,4.0738]],[[226.50843,191.83854],[2.66275,-3.68452],[-0.87695,1.21345]],[[223.70843,195.23854],[0.68331,-1.36663],[-1.38556,1.38556]],[[219.90843,200.03854],[1.14682,-1.58688],[-0.25458,0.35226]],[[218.85,200.8],[0,-0.43463],[0,0.46053]],[[221.26147,201.39157],[-0.43366,0.35769],[1.26427,-1.04278]],[[224.89157,196.96147],[-0.73049,1.46098],[2.15606,-2.1996]],[[231.49157,189.96147],[-1.77024,2.51202],[1.604,-2.27613]],[[236.69157,183.16147],[-2.01003,1.95729],[1.02721,-2.05441]],[[241.09157,177.56147],[-1.31668,1.86841],[2.21293,-3.14022]],[[247.46201,168.0057],[-2.31518,3.07855],[0.0694,-0.13641]],[[248.75969,166.32014],[0.00111,0.01306],[-0.01363,-0.15992]],[[246.86953,165.65265],[0.2663,-0.20069],[-0.70673,0.53261]],[[244.8551,167.26907],[0.61032,-0.57107],[0.04626,0.31246]],[[244.7,167.85],[0,0],[-0.54849,0.7286]],[[243.04865,170.10045],[0.55321,-0.76772],[-0.0072,0.02699]],[[243.02761,170.1819],[0.00682,-0.02731],[0,0]],[242.63033,170.73033]],&quot;closed&quot;:true}],&quot;index&quot;:null}" fill="#9a6d4e"/><path d="M276.162,176.58753c-0.38659,-0.79222 -0.2686,-1.46377 -0.43678,-2.30982c-0.20144,-1.01338 -0.69209,-2.45728 -1.40073,-3.75675c1.75708,1.8251 3.18018,3.52346 2.65831,6.53475c-0.32228,0.02098 -0.61457,0.03664 -0.78805,0.0049c-0.02621,0.00217 -0.0648,-0.05998 -0.09052,-0.05748z" data-paper-data="{&quot;noHover&quot;:false,&quot;origItem&quot;:[&quot;Path&quot;,{&quot;applyMatrix&quot;:true,&quot;segments&quot;:[[[499.66049,342.30794],[0,0],[1.54544,2.19205]],[[505.20098,346.83999],[-2.00917,-1.68867],[2.40653,2.02265]],[[513.14928,356.09253],[-2.42581,-3.79434],[-2.29025,-7.36018]],[[499.74897,339.58069],[8.79372,3.02298],[-0.52837,0.8285]],[[498.59747,341.65903],[0.16968,-0.50904],[-0.04421,0.06671]],[[498.46458,341.85644],[0.04439,-0.0649],[0,0]]],&quot;closed&quot;:true}],&quot;index&quot;:null}" fill="#868686"/><path d="M270.32202,167.49053l-0.01415,0.0168l-0.42024,-0.35403c-0.18198,-0.14729 -0.23812,-0.40809 -0.12135,-0.62044c0.13118,-0.23858 0.43093,-0.32565 0.66953,-0.19447l0.09782,0.05378c0.26059,-0.06067 0.46339,0.15864 0.46339,0.15864l0.17995,0.19989c1.04146,0.3077 2.04331,0.8781 2.66892,1.76172c0.27738,0.39178 0.66074,1.41261 0.02727,1.79675c-0.76091,0.46142 -2.1591,-1.48018 -2.95479,-2.40808c-0.16952,-0.12544 -0.35745,-0.24639 -0.57183,-0.36427z" data-paper-data="{&quot;index&quot;:null}" fill="#777777"/><path d="M277.71786,177.92142c0.47343,-0.13752 0.61094,0.33591 0.61094,0.33591l0.14554,0.64396c-0.18614,1.47588 -1.47701,3.38339 -1.26282,4.73996c-0.28812,2.47902 -1.28485,4.29865 -2.46,6.4244c-0.24252,0.43868 -0.47522,1.5526 -0.99025,1.72869c-0.19024,0.06505 -1.54368,-0.51235 -1.83128,-0.60299c0,0 -0.4702,-0.14819 -0.322,-0.61838c0.14819,-0.47019 0.61838,-0.322 0.61838,-0.322c0.46636,0.14698 0.90464,0.43721 1.25986,0.59653c0.22576,0.10126 0.01852,-0.50576 0.11605,-0.73316c0.01214,-0.0283 0.5205,-0.9519 0.54914,-1.00373c0.99675,-1.80385 1.7987,-3.35846 2.07414,-5.46018c-0.19235,-1.50225 1.08157,-3.28436 1.27015,-4.86931l-0.11376,-0.24874c0,0 -0.13751,-0.47344 0.33592,-0.61095z" data-paper-data="{&quot;index&quot;:null}" fill="#969696"/><path d="M277.57974,180.96412c0.11209,-0.00964 0.19982,0.00968 0.2684,0.04472c0.03021,-0.10879 0.04981,-0.24126 0.05616,-0.40885c0.02938,-0.77525 -0.19251,-1.44149 -0.27613,-2.12039c-0.0141,-0.11452 0.0275,-0.30069 0.0911,-0.46452c-0.51736,0.09657 -1.45904,0.02006 -1.57837,-0.00178c-1.73807,0.15579 -1.52734,1.14748 -1.59304,2.6848c-0.00545,0.12761 0.13266,0.91975 0.12895,1.44266c0.16426,-0.14035 0.36977,-0.25096 0.50681,-0.22391c0.35732,0.07053 0.65634,0.40503 0.807,0.73663c0.28983,0.63786 -0.72672,2.64465 -1.03458,3.20457c-0.56304,1.02404 -1.04311,2.27315 -1.90398,3.06926c-0.18672,0.17268 -1.55403,1.82904 -1.49062,1.88208c0.33614,0.28125 1.05115,0.48853 1.6012,0.60762c1.0508,-0.91121 2.03139,-3.52956 2.40962,-4.66202c0.32424,-0.59524 0.81761,-1.47899 1.18568,-2.38355c-0.00726,-0.77906 -0.1046,-1.60036 0.25666,-2.25739c0.05739,-0.1044 0.11566,-0.19078 0.17349,-0.26488c-0.001,-0.00369 -0.00201,-0.00738 -0.00304,-0.01105l-0.03593,-0.36234c0,0 -0.04053,-0.47112 0.4306,-0.51164zM270.65399,190.36808c0.13021,-0.34494 0.41475,-0.63956 0.67438,-0.96873c1.05049,-1.33179 1.92592,-2.49273 2.76364,-4.01635c0.18233,-0.33161 0.28154,-0.62115 0.36654,-0.91624c-0.90421,1.25335 -1.95109,2.3911 -2.83014,3.67645c-0.51115,0.74741 -0.75265,1.45525 -1.47355,1.85184c0.159,0.09001 0.32643,0.22187 0.49913,0.37303zM270.84836,187.60849c0.98732,-1.44312 2.19558,-2.69797 3.16056,-4.14644c-0.37294,-0.21642 -0.36091,-1.74886 -0.39424,-2.15519c-0.1518,-1.85152 -0.0466,-3.44464 1.48518,-4.04452c-0.00781,-0.08432 0.00365,-0.14691 0.00365,-0.14691l0.09098,-0.34899c-0.92447,-1.64344 -0.5103,-3.76748 -1.6803,-5.44832c-0.42656,-0.61281 -1.57039,-1.95301 -1.83132,-2.82487c-0.07841,-0.04321 -0.15683,-0.0864 -0.23528,-0.12954l-0.432,-0.23753c-0.23859,-0.13119 -0.32565,-0.43094 -0.19447,-0.66953c0.13118,-0.23858 0.43093,-0.32565 0.66953,-0.19447l0.432,0.23753c0.59911,0.32941 1.19872,0.65767 1.79413,0.99373c2.48675,2.68905 4.78861,4.51532 4.25272,8.48379c0.40494,0.00099 0.75109,0.04859 0.89047,0.21695c0.2392,0.28894 0.25154,0.45125 0.17741,0.56572c-0.00475,0.07377 -0.02084,0.12484 -0.02084,0.12484c-0.26777,0.77548 -0.10666,1.71418 0.00868,2.52804l-0.10662,0.39423c-0.02601,0.39642 -0.1082,0.76958 -0.27692,1.07643c-0.08334,0.15157 -0.29228,0.28487 -0.47575,0.42189c-0.00938,0.73116 -0.22489,1.53931 -0.52353,2.32275c0.01034,0.55066 -0.00824,1.09291 -0.24201,1.54617c-0.40184,2.19627 -1.5787,4.29709 -3.2176,5.8127l0.0181,0.01959c0,0 -0.11141,0.20262 -0.32039,0.25403c-0.16272,0.2644 -0.50268,0.2022 -0.50268,0.2022c-0.0163,-0.00317 -0.03343,-0.00653 -0.05132,-0.01007c-0.01072,0.00525 -0.02145,0.01033 -0.03219,0.01525c-1.22,0.5582 -3.04698,-0.84318 -4.11527,-1.98197l-0.05932,0.07049l-0.40199,-0.33832c-0.19981,-0.16816 -0.22547,-0.46647 -0.0573,-0.66628c0.06965,-0.08276 0.16163,-0.13565 0.2597,-0.15725l0.5072,-0.11752c0.79271,-0.13055 1.00849,-1.06559 1.42104,-1.66858zM276.11014,177.03544c0.02572,-0.0025 0.05168,-0.00484 0.07789,-0.00701c0.17347,0.03174 0.45862,0.01845 0.7809,-0.00252c0.52188,-3.01128 -0.87639,-4.64889 -2.63346,-6.47397c0.70864,1.29947 1.20466,2.7409 1.40611,3.75427c0.16818,0.84605 0.0413,1.52113 0.42789,2.31333z" data-paper-data="{&quot;index&quot;:null}" fill="#777777"/><path d="M274.13615,184.89755c0.45048,-0.96099 0.50348,-1.8862 0.72687,-2.85873c-0.06343,0.03781 -0.12686,0.08442 -0.1858,0.13479c0.00371,-0.5229 -0.13624,-1.38075 -0.13079,-1.50836c0.06572,-1.53734 -0.13649,-2.52825 1.60157,-2.68405c0.11933,0.02184 1.06779,0.10066 1.58515,0.00409c-0.06361,0.16385 -0.10471,0.35025 -0.09059,0.46477c0.08363,0.6789 0.31206,1.34935 0.28268,2.12459c-0.0355,0.93637 -0.48216,0.77854 -0.8876,1.51592c-0.60816,1.10609 0.08618,2.72145 -0.54032,3.7734c-0.37496,2.04933 -1.45887,4.0158 -2.98966,5.43143l-0.13111,0.19871c-0.42144,-0.08041 -1.02374,-0.22829 -1.4604,-0.43234c-0.22765,0.18699 -0.51536,0.02898 -0.51536,0.02898c-0.33057,-0.18324 -1.03241,-0.5039 -1.10887,-0.92397c-0.00315,-0.0173 -0.00546,-0.03481 -0.00694,-0.05253c-0.05154,-0.03584 -0.10219,-0.06819 -0.1516,-0.09617c0.05818,-0.03202 0.11323,-0.06607 0.16552,-0.10204c0.11926,-0.57714 0.8768,-1.29088 1.29281,-1.73614c0.00392,-0.0058 0.00786,-0.01158 0.01182,-0.01737c0.77149,-1.12806 1.70459,-2.17774 2.53264,-3.26499zM271.25265,190.06939c0.00038,-0.10694 0.03684,-0.21435 0.11108,-0.30257v0l0.18742,-0.2227c-0.19821,0.22264 -0.3368,0.39814 -0.32956,0.44918c0.00429,0.03021 0.01509,0.0552 0.03105,0.07609z" data-paper-data="{&quot;index&quot;:null}" fill="#868686"/><path d="M269.93803,189.66572c0.30449,-0.36179 0.66628,-0.0573 0.66628,-0.0573l-0.07575,-0.01955c0.8338,0.28756 1.60717,0.87585 2.3887,1.30505c0.34988,0.24865 1.16411,-1.32491 1.36539,-1.79064c0.89404,-2.06869 1.44747,-4.15502 2.12756,-6.25932c0,0 0.14834,-0.449 0.59734,-0.30066c0.449,0.14834 0.30066,0.59734 0.30066,0.59734c-0.76686,2.25947 -1.25723,4.70461 -2.43545,6.84868c-0.58436,1.06337 -1.02714,2.07555 -2.33305,1.77169c-0.73752,-0.40503 -1.52373,-1.03058 -2.30784,-1.27416l-0.23655,-0.15486c0,0 -0.36179,-0.30449 -0.0573,-0.66628z" data-paper-data="{&quot;index&quot;:null}" fill="#969696"/><path d="M278.38167,181.18332c0.36179,0.30449 0.0573,0.66628 0.0573,0.66628l-0.06767,0.0804c-0.09716,0.11432 -0.18879,0.23381 -0.27448,0.35746c0.03734,0.17904 -0.05334,0.34418 -0.05334,0.34418c-1.06442,1.87009 -1.15714,4.22482 -1.7264,6.24462c-0.31446,1.11572 -1.18041,1.9596 -1.91326,2.82329c-1.77551,1.37825 -3.90232,0.00981 -5.36451,-1.21078l-0.0804,-0.06766c0,0 -0.0263,-0.02213 -0.05874,-0.06155c-0.10823,-0.0438 -0.21384,-0.13724 -0.25823,-0.32883c-0.10674,-0.46065 0.35392,-0.5674 0.35392,-0.5674c0.52479,-0.1063 0.74269,-0.36213 1.16097,-0.69611l0.20392,-0.25655c0,0 0.30449,-0.36179 0.66628,-0.0573c0.36179,0.30449 0.0573,0.66628 0.0573,0.66628l-0.3374,0.38664c-0.27772,0.22174 -0.49985,0.40431 -0.74353,0.55233c1.01725,0.81389 2.65328,1.87608 3.74036,0.96365c2.06682,-2.47989 1.9178,-5.52703 3.22099,-8.34388c-0.07967,-0.20179 0.03404,-0.40884 0.03404,-0.40884c0.18572,-0.33504 0.40343,-0.65442 0.64892,-0.94851l0.06767,-0.0804c0,0 0.30449,-0.36179 0.66628,-0.0573z" data-paper-data="{&quot;index&quot;:null}" fill="#777777"/><path d="M258.74412,179.71024c-0.45976,-0.11054 -0.34922,-0.57031 -0.34922,-0.57031l0.0657,-0.26626c0.05917,-0.1791 0.11835,-0.35821 0.17753,-0.53732c0,0 0.00772,-0.02335 0.02494,-0.05762c-0.80502,0.00183 -1.60945,-0.00297 -2.42437,-0.04873c-0.2725,-0.0153 -0.5856,-0.05946 -0.91082,-0.11189c-0.00708,0.10628 -0.01416,0.21255 -0.02123,0.31884l0.10814,0.44563c0,0 0.10674,0.46065 -0.35392,0.5674c-0.46065,0.10674 -0.5674,-0.35392 -0.5674,-0.35392l-0.12907,-0.57807c0.00889,-0.18474 0.01778,-0.36948 0.02667,-0.55423c-0.41635,-0.06389 -0.80776,-0.10889 -1.113,-0.09065c-0.00353,0.00022 -0.31977,1.6292 -0.35611,1.74083c-0.04061,0.25558 -0.37032,0.56094 -0.19514,0.75142c0.29696,0.32287 1.31263,0.19786 1.90635,0.1244l-0.03436,-0.22054c0,0 0.05266,-0.46993 0.52259,-0.41726c0.46993,0.05266 0.41726,0.52259 0.41726,0.52259l-0.20764,-0.03793c0.02654,0.03066 0.05309,0.06132 0.07963,0.09198c0.19076,-0.00548 0.38093,-0.00495 0.57064,0.00019c0.6822,-0.21444 1.69161,-0.47248 2.11327,-0.34417c0.38891,0.11835 1.63062,0.76815 2.09657,0.48211c0.19631,-0.1205 0.2172,-0.50748 0.4467,-0.52722c0.2962,-0.02546 1.07025,0.75538 1.60106,0.16821c0.17316,-0.19153 0.16188,-1.99251 -0.17486,-1.88208c-0.86049,-0.04833 -1.70368,-0.05207 -2.54198,-0.0498c0.0753,0.17187 0.01407,0.35722 0.01407,0.35722c-0.05917,0.1791 -0.11835,0.35821 -0.17753,0.53732l-0.04416,0.19066c0,0 -0.11054,0.45976 -0.57031,0.34922zM261.26108,181.33755c-0.08842,0.27636 -0.41089,0.30409 -0.41089,0.30409c-2.19382,0.18449 -4.76353,-0.03246 -6.94154,-0.15355c-0.48325,-0.02686 -1.66098,-0.15213 -1.96357,-0.59048c-0.19091,-0.27657 0.00761,-1.19617 0.05804,-1.50771c0.21674,-0.6457 0.15977,-2.06531 0.92876,-2.39692c0.44214,-0.19066 2.27151,0.23164 2.83525,0.2633c2.1412,0.12026 4.19126,0.00385 6.34992,0.12508c1.61444,0.28121 1.44746,3.2594 0.04965,3.76532c-0.1202,0.04351 -0.56548,0.13638 -0.90561,0.19088z" data-paper-data="{&quot;index&quot;:null}" fill="#bebaa7"/><path d="M258.42538,179.1319c0,0 -0.17157,0.45992 0.28819,0.57045c0.45977,0.11054 0.56932,-0.341 0.56932,-0.341l0.04436,-0.18751c0.05917,-0.17911 0.12003,-0.35097 0.17921,-0.53008c0,0 0.11861,-0.21109 0.04331,-0.38295c0.83831,-0.00228 1.68447,0.00938 2.54496,0.0577c0.33674,-0.11044 0.34835,1.70298 0.1752,1.89452c-0.53082,0.58718 -1.30505,-0.19264 -1.60126,-0.16717c-0.22949,0.01974 -0.25235,0.4129 -0.44866,0.5334c-0.46595,0.28603 -1.71561,-0.35278 -2.10453,-0.47113c-0.42166,-0.12831 -1.47781,0.12429 -2.16002,0.33873c-0.18972,-0.00513 -0.3822,-0.00952 -0.57295,-0.00404c-0.02654,-0.03066 0.00382,-0.08843 -0.02272,-0.1191l0.1508,0.06517c0,0 0.04979,-0.47815 -0.42014,-0.53081c-0.46992,-0.05266 -0.46155,0.40179 -0.46155,0.40179l-0.02512,0.24129c-0.59373,0.07346 -1.61089,0.19341 -1.90785,-0.12947c-0.17518,-0.19047 0.15391,-0.50064 0.19452,-0.75621c0.03635,-0.11164 0.35442,-1.75291 0.35793,-1.75311c0.30523,-0.01822 0.75494,0.05064 1.17129,0.11453c-0.00889,0.18474 -0.01603,0.36475 -0.02492,0.54949l0.13007,0.57263c0,0 0.04385,0.45854 0.50452,0.35179c0.46065,-0.10674 0.3548,-0.57573 0.3548,-0.57573l-0.10638,-0.4508c0.00707,-0.10627 0.01588,-0.21595 0.02295,-0.32223c0.32522,0.05243 0.64244,0.09108 0.91495,0.10637c0.81492,0.04577 1.66551,0.05069 2.47053,0.04886c-0.01723,0.03428 -0.02459,0.058 -0.02459,0.058c-0.05917,0.17911 -0.11379,0.36484 -0.17297,0.54395l-0.06324,0.27267z" data-paper-data="{&quot;noHover&quot;:false,&quot;origItem&quot;:[&quot;Path&quot;,{&quot;applyMatrix&quot;:true,&quot;segments&quot;:[[[229.56535,189.6678],[-0.33541,0.67082],[0.33541,-0.67082]],[230.57158,189.33239],[[230.84804,189.47352],[0,0],[0.27778,0.11111]],[[231.68138,189.80686],[-0.27778,-0.11111],[0,0]],[[232.1005,190.18876],[-0.13165,-0.26691],[0.85892,-1.01495]],[[234.63617,187.05321],[-0.82017,1.09356],[0.47792,-0.29586]],[[232.53086,184.91889],[0.40927,-0.01451],[-1.25465,0.04448]],[[231.09983,187.03354],[0.33342,-0.33342],[-0.25833,0.25833]],[[230.00384,187.03715],[0.34671,-0.11514],[-0.82297,0.27331]],[[228.44768,190.07372],[0.25359,-0.59282],[-0.27494,0.64271]],[[225.87176,192.28666],[0.95695,-0.60884],[-0.18753,0.23547]],[[225.2892,192.97932],[0.20146,-0.22588],[0.0101,0.06352]],[[225.3195,193.16988],[-0.0101,-0.06352],[0,0]],[225.48553,192.87918],[[225.69354,193.91924],[0.41603,-0.62404],[-0.41603,0.62404]],[224.65348,194.12725],[[224.42095,193.86032],[0,0],[-0.69551,0.64545]],[[222.62498,196.30071],[-0.08852,-0.69011],[0.05222,0.40711]],[[223.73611,196.83133],[-0.35161,-0.21173],[0.17258,0.06991]],[[226.21227,198.17709],[-0.00385,0.00406],[0.33386,-0.35179]],[[227.23896,196.73388],[-0.34768,0.57049],[-0.23326,-0.17789]],[[226.53917,196.20021],[0.23326,0.17789],[0,0]],[225.9695,195.45321],[[226.1195,194.40321],[-0.6,0.45],[0.6,-0.45]],[227.1695,194.55321],[[227.59983,195.13955],[0,0],[0.13619,0.09996]],[[228.00841,195.43942],[-0.13619,-0.09996],[0.26852,-0.44819]],[[228.80283,194.21988],[-0.25974,0.34631],[0.77673,-1.03564]],[[231.21969,191.22816],[-0.82438,0.97502],[-0.05919,-0.0141]],[[231.12429,191.19957],[0,0],[-0.27778,-0.11111]],[[230.29096,190.86624],[0.27778,0.11111],[0,0]],[229.90076,190.67403]],&quot;closed&quot;:true}],&quot;index&quot;:null}" fill="#e9e5cd"/><path d="M240.14864,183.09131c-0.25521,0 -0.48064,-0.12747 -0.61611,-0.32221l-0.44874,-0.62823l0.02209,-0.01578l-0.05432,-0.0333c-0.98855,-1.97025 -1.30292,-3.74236 0.66115,-5.17897c0,0 0.16617,-0.1187 0.38704,-0.1455c0.09755,-0.12753 0.2558,-0.23392 0.51152,-0.26234c0.15288,-0.01699 0.27789,0.00087 0.38003,0.03998c0.10281,-0.07208 0.22453,-0.11902 0.35624,-0.13189l0.80919,-0.08991l0.00213,0.01921l0.03921,-0.02265c0.23186,0 0.46372,0 0.69558,0c0.61364,-0.15423 1.49513,-0.0009 2.16407,-0.00115c1.04603,-0.00039 2.03696,0.09887 3.00696,0.24051c0.12583,-0.16816 0.29399,-0.25224 0.29399,-0.25224l0.4344,-0.1655c2.06345,-0.2265 3.86448,-0.06835 5.15301,1.22068l0.18742,-0.18742l0.54545,0.54545v0c0.07967,0.07967 0.14149,0.17717 0.17897,0.28601c0.40958,0.18061 0.73106,0.46264 0.84452,0.91646c0.48087,1.92344 -3.86375,3.37312 -5.0308,3.76213c-2.40739,0.89701 -5.02485,0.81756 -7.5645,0.67822c-0.74856,-0.04107 -1.82629,0.04724 -2.53548,-0.40219c-0.12042,0.08241 -0.2661,0.13061 -0.42304,0.13061z" fill="#0060b9"/><path d="M239.86923,182.58543c0.25619,-0.70489 0.96108,-0.4487 0.96108,-0.4487l0.66084,0.2408c3.84556,1.23004 6.97889,0.53304 10.65995,-0.98985c0.65466,-0.27084 3.79063,-2.60406 2.61346,-3.04107c-2.7393,-1.66877 -6.18384,-1.16877 -9.28211,-1.18633c-1.62498,-0.00921 -3.15947,-0.31879 -4.72945,0.2536c0,0 -0.70599,0.25314 -0.95913,-0.45285c-0.25314,-0.70599 0.45285,-0.95913 0.45285,-0.95913c1.7705,-0.62606 3.42907,-0.35152 5.25282,-0.34153c3.46096,0.01897 7.04289,-0.4129 10.10892,1.44614c1.92298,1.7607 -0.04398,4.09919 -1.90123,5.22978c-3.79493,2.31017 -8.53548,2.78957 -12.67246,1.47012l-0.71685,-0.25991c0,0 -0.70489,-0.25619 -0.4487,-0.96107z" fill="#00488c"/></g></g></svg>