<svg version="1.1" xmlns="http://www.w3.org/2000/svg" xmlns:xlink="http://www.w3.org/1999/xlink" width="52.75" height="52.75" viewBox="0,0,52.75,52.75"><g transform="translate(-213.62503,-153.625)"><g data-paper-data="{&quot;isPaintingLayer&quot;:true}" fill-rule="nonzero" stroke-linecap="butt" stroke-linejoin="miter" stroke-miterlimit="10" stroke-dasharray="" stroke-dashoffset="0" style="mix-blend-mode: normal"><path d="M214.87503,205.125v-50.25h50.25v50.25z" fill="#7f7f7f" stroke="#5e5e5e" stroke-width="2.5"/><path d="M244.62901,168.64795c-2.40109,3.34861 -4.88231,6.88331 -7.63748,9.63848c-2.0369,4.0738 -5.73725,7.71549 -8.4,11.4c-0.87695,1.21345 -2.11669,2.03337 -2.8,3.4c-1.38556,1.38556 -2.65318,3.21311 -3.8,4.8c-0.25458,0.35226 -1.05843,0.32684 -1.05843,0.76147c0,0.46053 1.9778,0.94925 2.41146,0.59157c1.26427,-1.04278 2.89962,-2.96912 3.63011,-4.4301c2.15606,-2.1996 4.82976,-4.48798 6.6,-7c1.604,-2.27613 3.18997,-4.84271 5.2,-6.8c1.02721,-2.05441 3.08332,-3.73158 4.4,-5.6c2.21293,-3.14022 4.05526,-6.47722 6.37044,-9.55577c0.0694,-0.13641 1.29879,-1.67251 1.29767,-1.68556c-0.01363,-0.15992 -1.62386,-0.86818 -1.89016,-0.66748c-0.70673,0.53261 -1.40411,1.04535 -2.01443,1.61642c0.04626,0.31246 -0.1551,0.58093 -0.1551,0.58093c-0.54849,0.7286 -1.09814,1.48273 -1.65135,2.25045c-0.0072,0.02699 -0.01422,0.05414 -0.02104,0.08145l-0.39728,0.54843c0,0 -0.03059,0.03058 -0.08442,0.06972zM243.75899,167.3011c0.65878,-2.07917 2.47975,-4.1422 4.45459,-5.10586c1.09471,-0.53419 3.88465,0.2428 4.10984,1.73252c0.13741,0.90896 -1.13098,1.95683 -1.50233,2.71443c-2.32876,3.11162 -4.15839,6.50155 -6.42956,9.64424c-1.34321,1.85863 -3.37141,3.54282 -4.4,5.6c-4.20369,4.28859 -7.38047,9.49645 -11.8,13.8c-0.74123,1.48246 -3.38882,5.05719 -5.12659,5.30698c-1.06349,0.15287 -3.63184,-1.0481 -3.63184,-2.34552c0,-0.6915 0.98824,-1.13715 1.34157,-1.63854c1.12132,-1.59118 2.42359,-3.42359 3.8,-4.8c0.68438,-1.36876 1.94175,-2.18212 2.8,-3.4c2.63511,-3.73929 6.35156,-7.30312 8.4,-11.4c2.88482,-2.88482 5.48173,-6.6187 7.98431,-10.10825z" fill="#704f39" stroke="none" stroke-width="0.5"/><path d="M244.74176,168.53702l0.34058,-0.46606c0.00682,-0.02731 0.07051,-0.13685 0.07771,-0.16384c0.55321,-0.76772 1.10305,-1.52172 1.65154,-2.25032c0,0 0.20092,-0.26876 0.15467,-0.58122c0.61032,-0.57107 1.3091,-1.08282 2.01583,-1.61543c0.2663,-0.20069 1.87982,0.51018 1.89345,0.67011c0.00111,0.01306 -1.22804,1.54935 -1.29745,1.68576c-2.31518,3.07855 -4.15191,6.42133 -6.36484,9.56155c-1.31668,1.86841 -3.36187,3.57045 -4.38907,5.62486c-2.01003,1.95729 -3.66252,4.57783 -5.26652,6.85396c-1.77024,2.51202 -4.45463,4.795 -6.61069,6.99461c-0.73049,1.46098 -2.36691,3.38659 -3.63118,4.42937c-0.43366,0.35769 -2.41546,-0.13416 -2.41546,-0.5947c0,-0.43463 0.86886,-0.48518 1.12344,-0.83745c1.14682,-1.58688 2.34949,-3.33841 3.73505,-4.72397c0.68331,-1.36663 1.92269,-2.18687 2.79964,-3.40032c2.66275,-3.68452 6.41281,-7.41084 8.44971,-11.48465c2.75517,-2.75517 5.248,-6.28398 7.64909,-9.63259c0.05383,-0.03914 0.0845,-0.06967 0.0845,-0.06967z" data-paper-data="{&quot;noHover&quot;:false,&quot;origItem&quot;:[&quot;Path&quot;,{&quot;applyMatrix&quot;:true,&quot;segments&quot;:[[[242.54591,170.80006],[0.05383,-0.03914],[-2.40109,3.34861]],[[234.90843,180.43854],[2.75517,-2.75517],[-2.0369,4.0738]],[[226.50843,191.83854],[2.66275,-3.68452],[-0.87695,1.21345]],[[223.70843,195.23854],[0.68331,-1.36663],[-1.38556,1.38556]],[[219.90843,200.03854],[1.14682,-1.58688],[-0.25458,0.35226]],[[218.85,200.8],[0,-0.43463],[0,0.46053]],[[221.26147,201.39157],[-0.43366,0.35769],[1.26427,-1.04278]],[[224.89157,196.96147],[-0.73049,1.46098],[2.15606,-2.1996]],[[231.49157,189.96147],[-1.77024,2.51202],[1.604,-2.27613]],[[236.69157,183.16147],[-2.01003,1.95729],[1.02721,-2.05441]],[[241.09157,177.56147],[-1.31668,1.86841],[2.21293,-3.14022]],[[247.46201,168.0057],[-2.31518,3.07855],[0.0694,-0.13641]],[[248.75969,166.32014],[0.00111,0.01306],[-0.01363,-0.15992]],[[246.86953,165.65265],[0.2663,-0.20069],[-0.70673,0.53261]],[[244.8551,167.26907],[0.61032,-0.57107],[0.04626,0.31246]],[[244.7,167.85],[0,0],[-0.54849,0.7286]],[[243.04865,170.10045],[0.55321,-0.76772],[-0.0072,0.02699]],[[243.02761,170.1819],[0.00682,-0.02731],[0,0]],[242.63033,170.73033]],&quot;closed&quot;:true}]}" fill="#9a6d4e" stroke="none" stroke-width="0.5"/><path d="M251.27828,169.57654c0.02475,-0.03054 -0.02179,-0.13166 0.00294,-0.16311c0.10519,-0.24681 0.37017,-0.60469 0.66705,-0.99617c4.25992,1.86282 5.22226,5.09344 6.0654,8.85422c-1.05518,-1.98922 -2.47649,-3.82284 -3.59385,-4.92835c-0.93286,-0.92297 -1.88423,-1.33636 -2.56559,-2.4914z" data-paper-data="{&quot;noHover&quot;:false,&quot;origItem&quot;:[&quot;Path&quot;,{&quot;applyMatrix&quot;:true,&quot;segments&quot;:[[[499.66049,342.30794],[0,0],[1.54544,2.19205]],[[505.20098,346.83999],[-2.00917,-1.68867],[2.40653,2.02265]],[[513.14928,356.09253],[-2.42581,-3.79434],[-2.29025,-7.36018]],[[499.74897,339.58069],[8.79372,3.02298],[-0.52837,0.8285]],[[498.59747,341.65903],[0.16968,-0.50904],[-0.04421,0.06671]],[[498.46458,341.85644],[0.04439,-0.0649],[0,0]]],&quot;closed&quot;:true}]}" fill="#d3d3d3" stroke="none" stroke-width="0.5"/><path d="M230.95942,160.88698c3.08058,-0.75591 6.48561,-0.48268 9.4013,0.75994c1.86063,0.08691 3.32875,2.3229 5.24272,2.47851c1.27598,0.10374 1.45021,-0.59559 2.66852,0.1446c1.00867,0.61282 1.66812,1.46501 2.45973,2.14046c0.13354,0.11395 0.4046,0.21811 0.66591,0.27476c-0.55643,0.57572 -1.25174,1.8457 -1.3241,2.01547c-1.65526,2.0755 -2.7435,0.98784 -4.74996,-0.21794c-0.16656,-0.10009 -1.13806,-0.99712 -1.8049,-1.43091c0.3159,-0.0908 0.62391,-0.2502 0.7045,-0.44684c0.21013,-0.51269 0.03238,-1.15169 -0.26217,-1.621c-0.56661,-0.90277 -3.88011,-1.26255 -4.84899,-1.34132c-1.77198,-0.14407 -3.74763,-0.60533 -5.48005,-0.18023c-0.37577,0.09221 -3.72311,0.42123 -3.73728,0.29626c-0.08564,-0.75536 0.36726,-2.06835 0.70259,-2.872z" data-paper-data="{&quot;noHover&quot;:false,&quot;origItem&quot;:[&quot;Path&quot;,{&quot;applyMatrix&quot;:true,&quot;segments&quot;:[[[456.00275,327.98003],[0,0],[-0.53821,1.65636]],[[455.07251,333.79221],[-0.29314,-1.49187],[0.0485,0.24682]],[[462.27566,332.57698],[-0.73412,0.24471],[3.38454,-1.12818]],[[473.25,332],[-3.55565,0],[1.94416,0]],[[483.31066,333.93934],[-1.2758,-1.70778],[0.66323,0.88779]],[[484.09164,337.17082],[0.33579,-1.05607],[-0.12879,0.40505]],[[482.75168,338.19383],[0.615,-0.2322],[1.3996,0.75665]],[[486.40903,340.65253],[-0.34824,-0.17253],[4.19514,2.07845]],[[495.90253,340.34097],[-2.96326,4.40562],[0.11672,-0.35016]],[[498.21158,336.13014],[-1.01589,1.23783],[-0.53009,-0.07057]],[[496.83951,335.69206],[0.28466,0.2055],[-1.68748,-1.21818]],[[491.59097,331.84747],[2.11003,1.05814],[-2.54857,-1.27805]],[[486.25,332],[2.56038,0],[-3.84057,0]],[[475.50973,327.98063],[3.72311,-0.1283],[-6.0136,-2.00453]],[[456.72434,327.92302],[6.01838,-2.00613],[0,0]]],&quot;closed&quot;:true}]}" fill="#d3d3d3" stroke="none" stroke-width="0.5"/><path d="M258.46566,184.82322c0.03016,-0.37096 0.03424,-0.71091 0.01716,-1.03129c-0.51053,-1.7881 -1.80253,-5.19106 -0.57875,-5.76995c1.01882,-0.48194 1.99309,0.86073 2.25777,1.54136c0.59695,1.53509 0.48083,3.28509 -0.00197,4.86507l0.1028,0.39603c0,0 0.10829,0.44133 -0.18724,0.72123l-0.01376,0.16925c-0.03357,0.41285 -0.39546,0.72032 -0.80831,0.68676c-0.36745,-0.02987 -0.65142,-0.31984 -0.68577,-0.67432l-0.09698,-0.8303l0.03318,-0.00387z" fill="#b3b3b3" stroke="none" stroke-width="0.5"/><path d="M251.46587,166.75824c-0.57156,0.48561 -1.05717,-0.08595 -1.05717,-0.08595l-0.22033,-0.35299c-2.16992,-1.08977 -5.50029,-0.96722 -7.24581,-2.47116c-2.89874,-1.41289 -5.54453,-1.69862 -8.67003,-1.94614c-0.08982,-0.00711 -1.68845,-0.13636 -1.73455,-0.14469c-0.37043,-0.0669 -0.96712,-0.839 -1.02793,-0.46752c-0.09567,0.58449 -0.09482,1.38419 -0.29934,2.0994c0,0 -0.2062,0.7211 -0.9273,0.5149c-0.7211,-0.2062 -0.5149,-0.9273 -0.5149,-0.9273c0.12612,-0.44106 0.52823,-2.6432 0.77031,-2.83013c0.65541,-0.50607 2.26445,0.13268 3.02466,0.19274c3.68371,0.291 6.82923,0.55176 10.21751,2.26494c1.54231,1.40949 5.04604,1.37057 7.07549,2.37197l0.69534,0.72476c0,0 0.48561,0.57156 -0.08595,1.05717z" fill="#e4e4e4" stroke="none" stroke-width="0.5"/><path d="M249.39987,163.0096c0.93631,0.8289 1.99272,1.82059 3.2016,2.13102c0,0 0.07831,0.02239 0.17594,0.07823c0.20746,0.00189 0.40314,0.15366 0.56932,0.6996c0.09682,0.31808 -0.13304,0.7974 -0.47137,1.31221c5.48662,2.64773 5.8744,7.10099 7.20227,12.51246c-0.07275,1.03759 -0.1589,2.07395 -0.24319,3.11066l-0.06078,0.74753c-0.03357,0.41285 -0.39546,0.72032 -0.80831,0.68676c-0.41285,-0.03357 -0.72032,-0.39546 -0.68676,-0.80831l0.06078,-0.74753c0.01104,-0.13575 0.02197,-0.27152 0.03288,-0.40728c-0.88786,-1.06235 -1.62977,-3.63808 -2.04991,-4.69343c-1.15237,-2.89465 -4.19576,-4.15015 -5.50654,-6.70175l-0.51927,-0.17718c0,0 -0.08906,-0.03795 -0.18954,-0.11858c-2.04598,1.44126 -4.15635,0.23882 -6.37922,-1.50653c-0.49253,-0.38672 -2.4808,-1.67738 -2.40335,-2.32645c0.02576,-0.21588 0.37848,-0.66198 0.78651,-0.90677c-0.12806,-0.02308 -0.24369,-0.04761 -0.32607,-0.06881c-1.06021,-0.27282 -1.71117,-0.63106 -2.83066,-0.72207c-2.63648,-0.21435 -4.84417,-0.07672 -7.41559,0.13985c-1.14884,0.09676 -2.22268,0.3914 -2.96985,-0.87998c-0.53025,-0.90227 0.44237,-3.42572 0.80005,-4.29034c0,0 0.20614,-0.4837 0.67822,-0.4685c0.24051,-0.22216 0.59113,-0.19365 0.59113,-0.19365l0.00967,0.0394c3.29814,-0.8093 6.95166,-0.54138 10.0764,0.79034c1.78938,0.19341 3.21548,2.25831 4.95171,2.39947c0.43614,0.03546 1.09945,-0.41226 1.53558,-0.3768c0.53098,0.04317 1.07357,0.25177 1.59856,0.55117zM251.8199,169.81539c0.68136,1.15504 1.64465,1.5601 2.57751,2.48306c1.11735,1.10551 2.53101,2.94388 3.58619,4.9331c-0.84314,-3.76078 -1.74918,-6.9089 -6.0091,-8.77172c-0.29689,0.39148 -0.55288,0.74229 -0.65807,0.9891c-0.02474,0.03145 -0.04947,0.06245 -0.07423,0.093zM230.64335,160.90609c-0.33533,0.80365 -0.78473,2.10348 -0.69909,2.85884c0.01417,0.12497 3.2632,-0.22155 3.63897,-0.31376c1.73242,-0.4251 3.72052,0.01305 5.4925,0.15711c0.96888,0.07877 4.3686,0.47134 4.93521,1.37412c0.29455,0.46931 0.46841,1.12938 0.25827,1.64207c-0.08059,0.19664 -0.39333,0.36473 -0.70923,0.45553c0.66684,0.43379 1.55648,1.2734 1.72304,1.37349c2.00646,1.20578 3.0885,2.30489 4.74376,0.22939c0.07236,-0.16977 0.76491,-1.42922 1.32134,-2.00493c-0.26131,-0.05665 -0.53249,-0.15997 -0.66603,-0.27391c-0.79161,-0.67546 -1.45119,-1.51581 -2.45987,-2.12863c-1.21831,-0.74019 -1.3919,-0.03665 -2.66788,-0.14039c-1.91397,-0.15561 -3.32899,-2.35133 -5.18962,-2.43825c-2.91569,-1.24263 -6.27889,-1.54577 -9.35947,-0.78985z" fill="#b3b3b3" stroke="none" stroke-width="0.5"/></g></g></svg>