<svg version="1.1" xmlns="http://www.w3.org/2000/svg" xmlns:xlink="http://www.w3.org/1999/xlink" width="150.43927" height="52.75" viewBox="0,0,150.43927,52.75"><g transform="translate(-164.78036,-153.625)"><g data-paper-data="{&quot;isPaintingLayer&quot;:true}" fill-rule="nonzero" stroke-linecap="butt" stroke-linejoin="miter" stroke-miterlimit="10" stroke-dasharray="" stroke-dashoffset="0" style="mix-blend-mode: normal"><path d="M166.03036,205.125v-50.25h147.93927v50.25z" fill="#7f7f7f" stroke="#5e5e5e" stroke-width="2.5"/><path d="M225.90876,181.43519c-0.03926,-0.50314 0.21703,-0.9303 0.21703,-0.9303c2.19068,-3.62795 4.8086,-8.47671 8.5153,-10.85175c1.76303,-1.12965 3.35564,-0.2299 5.14516,-0.60621c1.19675,-0.25166 2.37329,-0.95708 3.58395,-0.78433c1.30219,0.18581 2.10325,1.5841 3.20842,2.29741c1.06362,0.6865 4.07516,0.21268 5.2328,0.2393c1.90549,1.11713 4.85806,4.73601 5.11082,7.21745c0.06372,0.62555 -0.42646,1.21625 -0.39611,1.8443c0.07563,1.56492 3.31489,2.6573 3.48056,4.1554c0.16265,1.47072 -2.77861,3.84343 -3.78139,4.69106c-1.37743,1.16431 -2.34714,2.75813 -4.14464,3.35198c-1.55918,0.51511 -3.30018,-0.15021 -4.80583,0.38212c-2.05771,0.72753 -3.1531,1.03425 -5.46466,1.03718c-2.68153,-0.0112 -4.8668,-0.8153 -7.37706,-1.61052c-4.97817,-1.57702 -10.45892,-2.63366 -8.85529,-9.42966zM228.8066,181.65047c-0.01029,0.25565 -0.07163,0.43967 -0.07163,0.43967l-0.35422,1.0492c-1.3083,4.84884 3.66347,4.96769 6.93867,5.97908c2.21952,0.6854 4.11653,1.48317 6.4908,1.47123c2.86842,0.00395 6.61315,-0.50081 9.37566,-1.27723c1.13124,-0.31794 2.3303,-2.09645 3.17452,-2.81151c0.76996,-0.65217 1.3525,-1.51022 2.14048,-2.14049c0.16533,-0.13224 0.76364,0.0592 0.62684,-0.10239c-1.02377,-1.20924 -3.09773,-1.7507 -3.45338,-3.93419c-0.10945,-0.67197 0.37393,-1.32706 0.37433,-2.00788c0.0005,-0.83324 -2.2477,-4.34135 -2.97877,-4.72431c-1.84923,0.06567 -4.24001,0.40533 -5.93853,-0.53114c-0.5772,-0.31824 -1.18709,-1.85599 -2.18465,-1.93999c-0.89291,-0.07518 -1.69955,0.58755 -2.57954,0.75654c-0.85338,0.16388 -3.31938,-0.45752 -4.10008,0.16423c-3.22173,2.5658 -5.37672,6.11738 -7.46051,9.60918z" fill="#26251b" stroke="none" stroke-width="0.5"/><path d="M236.23317,171.99451c0.7807,-0.62175 3.26634,-0.00956 4.11972,-0.17344c0.87999,-0.16899 1.70263,-0.83349 2.59554,-0.75831c0.99755,0.08399 1.62322,1.62444 2.20042,1.94267c1.69852,0.93647 4.11556,0.61413 5.96479,0.54846c0.73106,0.38296 2.99192,3.91627 2.99142,4.74951c-0.0004,0.68083 -0.48246,1.3457 -0.37302,2.01768c0.35564,2.1835 2.42814,2.74096 3.4519,3.9502c0.1368,0.16158 -0.46174,-0.0289 -0.62707,0.10334c-0.78798,0.63027 -1.3745,1.49924 -2.14446,2.15141c-0.84422,0.71507 -2.05429,2.50915 -3.18554,2.82709c-2.76251,0.77642 -6.55327,1.29805 -9.42168,1.2941c-2.37428,0.01194 -4.30464,-0.80018 -6.52416,-1.48558c-3.2752,-1.01139 -8.26566,-1.16432 -6.95736,-6.01316l0.35372,-1.05322c0,0 0.06122,-0.18582 0.07151,-0.44147c2.0838,-3.4918 4.26254,-7.09348 7.48427,-9.65928z" data-paper-data="{&quot;noHover&quot;:false,&quot;origItem&quot;:[&quot;Path&quot;,{&quot;applyMatrix&quot;:true,&quot;segments&quot;:[[[483.32901,330.02966],[3.60626,-6.04297],[-0.01781,0.44244]],[483.20504,330.79057],[[482.59202,332.60634],[0,0],[-2.26417,8.3915]],[[494.60022,342.95386],[-5.66812,-1.75034],[3.84115,1.18617]],[[505.83333,345.5],[-4.10897,0.02066],[4.96414,0.00683]],[[522.05903,343.2896],[-4.78085,1.34368],[1.95775,-0.55023]],[[527.55291,338.42394],[-1.46102,1.23751],[1.3325,-1.12865]],[[531.25727,334.71957],[-1.36369,1.09076],[0.28613,-0.22886]],[[532.34209,334.54238],[0.23675,0.27964],[-1.77175,-2.09273]],[[526.36561,327.73379],[0.61548,3.7788],[-0.18941,-1.16293]],[[527.01344,324.25891],[-0.0007,1.17825],[0.00086,-1.44202]],[[521.85833,316.08292],[1.26519,0.66276],[-3.20031,0.11365]],[[511.58099,315.16371],[2.93949,1.62068],[-0.99891,-0.55075]],[[507.8002,311.80633],[1.72638,0.14536],[-1.54528,-0.13011]],[[503.336,313.11561],[1.52292,-0.29246],[-1.47688,0.28362]],[[496.24032,313.39983],[1.3511,-1.07602],[-5.57559,4.44043]]],&quot;closed&quot;:true}]}" fill="#312f22" stroke="none" stroke-width="0.5"/><path d="M251.39936,180.08544c-1.34125,0.5365 -1.87775,-0.80475 -1.87775,-0.80475l-0.21946,-0.65991c-0.72827,-1.46679 -1.78106,-0.70158 -3.51977,-0.55571c0,0 -1.43958,0.11996 -1.55954,-1.31961c-0.11996,-1.43958 1.31961,-1.55955 1.31961,-1.55955c3.04849,-0.25243 4.09823,-0.68667 6.11069,1.7556l0.55097,1.26618c0,0 0.5365,1.34125 -0.80475,1.87775z" fill="#26251b" stroke="none" stroke-width="0.5"/><path d="M243.06216,174.6994c0,1.44457 -1.44457,1.44457 -1.44457,1.44457l0.15775,-0.04313c-2.11986,0.5164 -3.04927,1.18712 -5.32512,0.99734c0,0 -1.43573,-0.15953 -1.27621,-1.59526c0.15953,-1.43573 1.59526,-1.27621 1.59526,-1.27621c1.70264,0.26593 2.62299,-0.49932 4.30535,-0.92875l0.54297,-0.04313c0,0 1.44457,0 1.44457,1.44457z" fill="#26251b" stroke="none" stroke-width="0.5"/><path d="M252.6679,186.85595c-1.37044,0.45681 -1.82725,-0.91362 -1.82725,-0.91362l0.14558,-0.43698c-0.44942,-0.32102 -0.89884,-0.64203 -1.34826,-0.96305c0,0 -1.1755,-0.83964 -0.33586,-2.01513c0.83964,-1.17549 2.01513,-0.33585 2.01513,-0.33585c0.44942,0.32102 0.89884,0.64202 1.34826,0.96304l0.91602,1.87434c0,0 0.45681,1.37043 -0.91363,1.82725z" fill="#26251b" stroke="none" stroke-width="0.5"/><path d="M237.78761,180.40608c0.45681,1.37044 -0.91363,1.82725 -0.91363,1.82725l-0.38861,0.11424c-1.91865,0.95413 -2.58316,1.00893 -3.37076,2.95421c0,0 -0.5867,1.32006 -1.90676,0.73337c-1.32006,-0.5867 -0.73337,-1.90676 -0.73337,-1.90676c1.197,-2.53891 2.2386,-3.11877 4.71883,-4.36495l0.76704,-0.27098c0,0 1.37044,-0.45681 1.82725,0.91363z" fill="#26251b" stroke="none" stroke-width="0.5"/><path d="M247.61068,181.70493c-0.45681,1.37044 -1.82725,0.91363 -1.82725,0.91363l-1.07893,-0.36199c-0.383,-0.21758 -0.71524,-0.72951 -1.14898,-0.65274c-0.28583,0.05059 -0.04534,0.57877 -0.068,0.86815c0,0 -0.64603,1.29206 -1.93809,0.64603c-1.29206,-0.64603 -0.64603,-1.93809 -0.64603,-1.93809c0.49096,-0.73787 0.64304,-1.90238 1.47287,-2.2136c0.97661,-0.36627 2.05894,0.33528 3.08842,0.50292l1.23238,0.40845c0,0 1.37044,0.45681 0.91363,1.82725z" fill="#26251b" stroke="none" stroke-width="0.5"/><path d="M241.71392,185.29291c0,1.44457 -1.44457,1.44457 -1.44457,1.44457l-1.33483,-0.01115c-0.66514,-0.12922 -1.42898,0.02355 -1.99326,0.39865c0,0 -1.25423,0.71671 -1.97094,-0.53753c-0.71671,-1.25424 0.53753,-1.97094 0.53753,-1.97094c1.1399,-0.59675 2.50328,-0.86943 3.78502,-0.75701l0.97648,-0.01116c0,0 1.44457,0 1.44457,1.44457z" fill="#26251b" stroke="none" stroke-width="0.5"/><path d="M248.45524,187.60422c0,1.44457 -1.44457,1.44457 -1.44457,1.44457c-0.51363,0 -2.1829,0 -2.69653,0c0,0 -1.44457,0 -1.44457,-1.44457c0,-1.44457 1.44457,-1.44457 1.44457,-1.44457c0.51363,0 1.02724,0 1.54087,0h1.15566c0,0 1.44457,0 1.44457,1.44457z" fill="#26251b" stroke="none" stroke-width="0.5"/><path d="M305.06117,173.44055c1.50309,0.50103 1.00206,2.00411 1.00206,2.00411l-0.39702,1.18337c-1.17865,4.31492 -3.38632,7.26404 -4.90169,11.32998c-0.53258,1.42899 -0.2996,3.07658 -0.8669,4.49214c-1.22417,3.05462 -3.73165,3.54645 -6.16775,2.95153l-1.01459,0.12683l-0.02719,-0.21756c-0.14561,0.06902 -0.29122,0.13803 -0.43682,0.20704l0.03972,-0.59047c-0.05493,-0.02264 -0.10969,-0.0457 -0.16424,-0.06918c-0.01769,-0.00395 -0.03536,-0.00792 -0.05304,-0.01188l-0.2635,0.52701l-1.65932,-0.82966c-0.12567,-0.05957 -0.24226,-0.1352 -0.3471,-0.22423c-1.88634,-0.44988 -3.74183,-0.9145 -5.66888,-1.35445c0,0 -1.54382,-0.35627 -1.18755,-1.90009c0.35627,-1.54382 1.90009,-1.18755 1.90009,-1.18755c2.74033,0.63851 5.29368,1.29686 8.03535,1.90308l0.01825,0.01293l0.002,-0.008l1.65787,0.41446c0.18087,0.04105 0.34999,0.11304 0.50149,0.21011c0.86051,-0.03365 1.64082,-0.19337 1.90765,-1.17258c1.49287,-5.47836 4.15015,-9.97578 5.63904,-15.44324l0.44798,-1.35167c0,0 0.50102,-1.50308 2.00411,-1.00205z" fill="#868686" stroke="none" stroke-width="0.5"/><path d="M294.03753,164.58723c2.98495,0.74624 6.80248,1.3328 9.39025,3.13315c0.79447,0.55273 -1.3744,4.64711 -1.74625,5.51403c-2.2894,5.33757 -5.38298,11.09214 -6.39147,16.84253c-2.4295,0.09892 -5.32761,-1.11084 -7.61484,-1.80369c-0.10392,-0.03148 -3.4602,-1.03349 -3.81454,-1.45332c-0.46428,-0.55006 0.81732,-1.18993 1.15312,-1.82661c0.99573,-1.88787 2.06731,-3.62962 2.96822,-5.55945c2.26711,-4.85638 3.92163,-9.94842 5.95457,-14.87177z" data-paper-data="{&quot;noHover&quot;:false,&quot;origItem&quot;:[&quot;Path&quot;,{&quot;applyMatrix&quot;:true,&quot;segments&quot;:[[[416.06851,312.0524],[0,0],[-3.20776,7.76851]],[[406.76863,335.38371],[3.57725,-7.66283],[-1.42153,3.04506]],[[402.06622,344.12437],[1.57115,-2.97885],[-0.52986,1.00461]],[[400.24372,347.00332],[-0.73258,-0.86794],[0.55912,0.66244]],[[406.23886,349.27834],[-0.16397,-0.04967],[3.60899,1.09324]],[[418.19363,352.11284],[-3.83349,0.15608],[1.59128,-9.07349]],[[428.20214,325.68187],[-3.61243,8.4221],[0.58673,-1.36791]],[[430.97534,317.00601],[1.25359,0.87214],[-4.08322,-2.84076]],[[416.22699,312.09202],[4.70993,1.17748],[0,0]]],&quot;closed&quot;:true}]}" fill="#868686" stroke="none" stroke-width="0.5"/><path d="M299.13166,183.24655c-1.12034,1.12034 -2.24067,0 -2.24067,0l-0.43448,-0.49186c-2.46772,-3.94969 -4.75843,-7.98532 -6.6531,-12.23763c0,0 -0.64348,-1.44784 0.80436,-2.09132c1.44784,-0.64349 2.09132,0.80436 2.09132,0.80436c1.82585,4.11934 4.05507,8.02331 6.44455,11.84515l-0.01197,-0.06936c0,0 1.12034,1.12033 0,2.24067z" fill="#969696" stroke="none" stroke-width="0.5"/><path d="M292.94784,164.20477c0.07464,-0.20282 0.20597,-0.41303 0.41619,-0.62325c1.12034,-1.12034 2.24067,0 2.24067,0l0.10522,0.11442c2.71123,2.27369 6.18987,5.97069 7.36718,9.36744c1.01543,2.92968 1.29754,5.65517 -3.90367,3.77789c-1.00085,-0.36124 -1.25795,-1.72961 -1.72646,-2.68496c-1.39593,-2.84652 -2.93703,-5.42752 -4.54951,-8.24587c0,0 -0.53515,-0.93652 0.05037,-1.70567z" fill="#969696" stroke="none" stroke-width="0.5"/><path d="M293.93531,164.62547c-2.03294,4.92335 -3.62676,9.93002 -5.89387,14.78639c-0.90091,1.92983 -1.98446,3.65159 -2.98019,5.53946c-0.3358,0.63668 -1.6193,1.27449 -1.15502,1.82456c0.35435,0.41983 3.69555,1.41033 3.79946,1.44181c2.28722,0.69285 5.14692,1.8953 7.57642,1.79639c1.00849,-5.75039 4.05356,-11.41325 6.34297,-16.75082c0.37184,-0.86692 2.55201,-4.94567 1.75754,-5.49839c-2.58777,-1.80035 -6.36192,-2.36804 -9.34688,-3.11428zM293.26527,161.34259c0.3798,-0.05599 0.694,0.02257 0.694,0.02257l0.84501,0.21125c3.08273,0.77068 8.72122,1.52012 10.93337,4.0683c2.02271,2.32996 0.321,4.98908 -0.54156,7.32695c-2.38609,6.46712 -4.95084,13.18504 -7.83563,19.43441c-4.11354,1.12623 -14.37643,-0.20706 -16.50944,-4.7894c-0.60293,-1.29527 2.41069,-5.85712 2.90177,-6.70517c3.4114,-5.89116 5.07204,-12.42518 7.73217,-18.63338c0,0 0.53795,-1.25521 1.78031,-0.93553z" fill="#777777" stroke="none" stroke-width="0.5"/><path d="M304.89283,176.93007c-0.43831,-0.46874 -0.43831,-1.14142 -0.43831,-1.14142l0.00162,-1.61822c-0.17077,-1.909 -0.59433,-3.68322 -0.8344,-5.57909c0,0 -0.19652,-1.57216 1.37564,-1.76868c1.57216,-0.19652 1.76868,1.37563 1.76868,1.37563c0.24398,1.98063 0.67126,3.82766 0.85562,5.82854l0.00042,0.45318c0.74782,0.50444 0.62273,1.50515 0.62273,1.50515c-0.96966,7.71968 -5.51764,14.26293 -9.28038,20.8698l-0.67781,0.75676c0,0 -0.46668,0.46668 -1.09884,0.49644c-0.45842,0.60137 -1.28901,0.60137 -1.28901,0.60137l-0.59553,-0.0473c-3.67041,-0.92818 -11.99786,-2.56886 -13.71545,-5.9137c-0.72817,-1.41803 -0.57714,-3.39506 -0.58232,-4.9185c0,0 0,-1.58439 1.58439,-1.58439c1.58439,0 1.58439,1.58439 1.58439,1.58439c-0.00395,1.00311 -0.12283,2.52764 0.26269,3.5316c0.48695,1.26809 1.19624,0.74477 2.38277,1.06903c2.42273,0.66211 4.72495,1.7131 7.09521,2.51733c0.14198,-1.29787 0.27741,-2.59645 0.4073,-3.89558c0,0 0.15766,-1.57653 1.73419,-1.41888c1.57653,0.15765 1.41888,1.73418 1.41888,1.73418c-0.07101,0.71007 -0.14386,1.41997 -0.21909,2.12962c3.09612,-5.22692 6.52315,-10.5738 7.6366,-16.56727z" fill="#777777" stroke="none" stroke-width="0.5"/><path d="M223.84856,180.45025c0.24515,1.22573 -0.98058,1.47087 -0.98058,1.47087l-1.24515,0.22427c-1.31502,0 -2.63004,0 -3.94505,0c-0.0037,0.51552 -0.00495,1.03197 -0.00495,1.55v0.8c0,0 0,1.25 -1.25,1.25c-1.25,0 -1.25,-1.25 -1.25,-1.25v-0.8c0,-0.51797 0.00133,-1.03443 0.00508,-1.55c-0.71836,0 -1.43672,0 -2.15508,0c0,0 -1.25,0 -1.25,-1.25c0,-1.25 1.25,-1.25 1.25,-1.25c0.73233,0 1.46467,0 2.197,0c0.0303,-1.07751 0.07901,-2.15535 0.15618,-3.23906c0,0 0.08906,-1.24682 1.33588,-1.15776c1.24682,0.08906 1.15776,1.33588 1.15776,1.33588c-0.07339,1.02416 -0.12007,2.04279 -0.14943,3.06094c1.30087,0 2.60174,0 3.90261,0l0.75485,-0.17573c0,0 1.22573,-0.24515 1.47087,0.98058z" fill="#ffffff" stroke="none" stroke-width="0.5"/><path d="M273.67278,176.6954c0,1.25 -1.25,1.25 -1.25,1.25l-0.7434,-0.0481c-2.94941,-0.87282 -5.86518,0.03962 -8.8566,0.0481c0,0 -1.25,0 -1.25,-1.25c0,-1.25 1.25,-1.25 1.25,-1.25c3.27835,0.01077 6.2865,-0.85638 9.5434,0.0481l0.0566,-0.0481c0,0 1.25,0 1.25,1.25z" fill="#ffffff" stroke="none" stroke-width="0.5"/><path d="M275.07281,183.8954c0,1.25 -1.25,1.25 -1.25,1.25l-0.57678,-0.01256c-3.09494,-0.44307 -6.10567,-0.58744 -9.22322,-0.58744c0,0 -1.25,0 -1.25,-1.25c0,-1.25 1.25,-1.25 1.25,-1.25c3.23459,0 6.36627,0.15485 9.57678,0.61256l0.22322,-0.01256c0,0 1.25,0 1.25,1.25z" fill="#ffffff" stroke="none" stroke-width="0.5"/><path d="M198.87701,174.72384c1.50309,0.50103 1.00206,2.00411 1.00206,2.00411l-0.39702,1.18337c-1.17865,4.31492 -3.38632,7.26404 -4.90169,11.32998c-0.53258,1.42899 -0.2996,3.07658 -0.8669,4.49214c-1.22417,3.05462 -3.73165,3.54645 -6.16775,2.95153l-1.01459,0.12683l-0.02719,-0.21756c-0.14561,0.06902 -0.29122,0.13803 -0.43682,0.20704l0.03972,-0.59047c-0.05493,-0.02264 -0.10969,-0.0457 -0.16424,-0.06918c-0.01769,-0.00395 -0.03536,-0.00792 -0.05304,-0.01188l-0.2635,0.52701l-1.65932,-0.82966c-0.12567,-0.05957 -0.24226,-0.1352 -0.3471,-0.22423c-1.88634,-0.44988 -3.74183,-0.9145 -5.66888,-1.35445c0,0 -1.54382,-0.35627 -1.18755,-1.90009c0.35627,-1.54382 1.90009,-1.18755 1.90009,-1.18755c2.74033,0.63851 5.29368,1.29686 8.03535,1.90308l0.01825,0.01293l0.002,-0.008l1.65787,0.41446c0.18087,0.04105 0.34999,0.11304 0.50149,0.21011c0.86051,-0.03365 1.64082,-0.19337 1.90765,-1.17258c1.49287,-5.47836 4.15015,-9.97578 5.63904,-15.44324l0.44798,-1.35167c0,0 0.50102,-1.50308 2.00411,-1.00205z" fill="#d3d3d3" stroke="none" stroke-width="0.5"/><path d="M187.85332,165.87052c2.98495,0.74624 6.80248,1.3328 9.39025,3.13315c0.79447,0.55273 -1.3744,4.64711 -1.74625,5.51403c-2.2894,5.33757 -5.38298,11.09214 -6.39147,16.84253c-2.4295,0.09892 -5.32761,-1.11084 -7.61484,-1.80369c-0.10392,-0.03148 -3.4602,-1.03349 -3.81454,-1.45332c-0.46428,-0.55006 0.81732,-1.18993 1.15312,-1.82661c0.99573,-1.88787 2.06731,-3.62962 2.96822,-5.55945c2.26711,-4.85638 3.92163,-9.94842 5.95457,-14.87177z" data-paper-data="{&quot;noHover&quot;:false,&quot;origItem&quot;:[&quot;Path&quot;,{&quot;applyMatrix&quot;:true,&quot;segments&quot;:[[[416.06851,312.0524],[0,0],[-3.20776,7.76851]],[[406.76863,335.38371],[3.57725,-7.66283],[-1.42153,3.04506]],[[402.06622,344.12437],[1.57115,-2.97885],[-0.52986,1.00461]],[[400.24372,347.00332],[-0.73258,-0.86794],[0.55912,0.66244]],[[406.23886,349.27834],[-0.16397,-0.04967],[3.60899,1.09324]],[[418.19363,352.11284],[-3.83349,0.15608],[1.59128,-9.07349]],[[428.20214,325.68187],[-3.61243,8.4221],[0.58673,-1.36791]],[[430.97534,317.00601],[1.25359,0.87214],[-4.08322,-2.84076]],[[416.22699,312.09202],[4.70993,1.17748],[0,0]]],&quot;closed&quot;:true}]}" fill="#d3d3d3" stroke="none" stroke-width="0.5"/><path d="M192.94749,184.52984c-1.12034,1.12034 -2.24067,0 -2.24067,0l-0.43448,-0.49186c-2.46772,-3.94969 -4.75843,-7.98532 -6.6531,-12.23763c0,0 -0.64348,-1.44784 0.80436,-2.09132c1.44784,-0.64349 2.09132,0.80436 2.09132,0.80436c1.82585,4.11934 4.05507,8.02331 6.44455,11.84515l-0.01197,-0.06936c0,0 1.12034,1.12033 0,2.24067z" fill="#e4e4e4" stroke="none" stroke-width="0.5"/><path d="M186.76367,165.48806c0.07464,-0.20282 0.20597,-0.41303 0.41619,-0.62325c1.12034,-1.12034 2.24067,0 2.24067,0l0.10522,0.11442c2.71123,2.27369 6.18987,5.97069 7.36718,9.36744c1.01543,2.92968 1.29754,5.65517 -3.90367,3.77789c-1.00085,-0.36124 -1.25795,-1.72961 -1.72646,-2.68496c-1.39593,-2.84652 -2.93703,-5.42752 -4.54951,-8.24587c0,0 -0.53515,-0.93652 0.05037,-1.70567z" fill="#e4e4e4" stroke="none" stroke-width="0.5"/><path d="M187.75113,165.90876c-2.03294,4.92335 -3.62676,9.93002 -5.89387,14.78639c-0.90091,1.92983 -1.98446,3.65159 -2.98019,5.53946c-0.3358,0.63668 -1.6193,1.27449 -1.15502,1.82456c0.35435,0.41983 3.69555,1.41033 3.79946,1.44181c2.28722,0.69285 5.14692,1.8953 7.57642,1.79639c1.00849,-5.75039 4.05356,-11.41325 6.34297,-16.75082c0.37184,-0.86692 2.55201,-4.94567 1.75754,-5.49839c-2.58777,-1.80035 -6.36192,-2.36804 -9.34688,-3.11428zM187.08109,162.62588c0.3798,-0.05599 0.694,0.02257 0.694,0.02257l0.84501,0.21125c3.08273,0.77068 8.72122,1.52012 10.93337,4.0683c2.02271,2.32996 0.321,4.98908 -0.54156,7.32695c-2.38609,6.46712 -4.95084,13.18504 -7.83563,19.43441c-4.11354,1.12623 -14.37643,-0.20706 -16.50944,-4.7894c-0.60293,-1.29527 2.41069,-5.85712 2.90177,-6.70517c3.4114,-5.89116 5.07204,-12.42518 7.73217,-18.63338c0,0 0.53795,-1.25521 1.78031,-0.93553z" fill="#b3b3b3" stroke="none" stroke-width="0.5"/><path d="M198.70867,178.21336c-0.43831,-0.46874 -0.43831,-1.14142 -0.43831,-1.14142l0.00162,-1.61822c-0.17077,-1.909 -0.59433,-3.68322 -0.8344,-5.57909c0,0 -0.19652,-1.57216 1.37564,-1.76868c1.57216,-0.19652 1.76868,1.37563 1.76868,1.37563c0.24398,1.98063 0.67126,3.82766 0.85562,5.82854l0.00042,0.45318c0.74782,0.50444 0.62273,1.50515 0.62273,1.50515c-0.96966,7.71968 -5.51764,14.26293 -9.28038,20.8698l-0.67781,0.75676c0,0 -0.46668,0.46668 -1.09884,0.49644c-0.45842,0.60137 -1.28901,0.60137 -1.28901,0.60137l-0.59553,-0.0473c-3.67041,-0.92818 -11.99786,-2.56886 -13.71545,-5.9137c-0.72817,-1.41803 -0.57714,-3.39506 -0.58232,-4.9185c0,0 0,-1.58439 1.58439,-1.58439c1.58439,0 1.58439,1.58439 1.58439,1.58439c-0.00395,1.00311 -0.12283,2.52764 0.26269,3.5316c0.48695,1.26809 1.19624,0.74477 2.38277,1.06903c2.42273,0.66211 4.72495,1.7131 7.09521,2.51733c0.14198,-1.29787 0.27741,-2.59645 0.4073,-3.89558c0,0 0.15766,-1.57653 1.73419,-1.41888c1.57653,0.15765 1.41888,1.73418 1.41888,1.73418c-0.07101,0.71007 -0.14386,1.41997 -0.21909,2.12962c3.09612,-5.22692 6.52315,-10.5738 7.6366,-16.56727z" fill="#b3b3b3" stroke="none" stroke-width="0.5"/><text transform="translate(182.2386,186.97869) scale(0.5,0.5)" font-size="40" xml:space="preserve" fill="#ffffff" fill-rule="nonzero" stroke="none" stroke-width="1" stroke-linecap="butt" stroke-linejoin="miter" stroke-miterlimit="10" stroke-dasharray="" stroke-dashoffset="0" font-family="Sans Serif" font-weight="normal" text-anchor="start" style="mix-blend-mode: normal"><tspan x="0" dy="0">1</tspan></text><text transform="translate(235.53302,187.55738) scale(0.5,0.5)" font-size="40" xml:space="preserve" fill="#ffffff" fill-rule="nonzero" stroke="none" stroke-width="1" stroke-linecap="butt" stroke-linejoin="miter" stroke-miterlimit="10" stroke-dasharray="" stroke-dashoffset="0" font-family="Sans Serif" font-weight="normal" text-anchor="start" style="mix-blend-mode: normal"><tspan x="0" dy="0">1</tspan></text><text transform="translate(288.58886,185.17666) scale(0.5,0.5)" font-size="40" xml:space="preserve" fill="#ffffff" fill-rule="nonzero" stroke="none" stroke-width="1" stroke-linecap="butt" stroke-linejoin="miter" stroke-miterlimit="10" stroke-dasharray="" stroke-dashoffset="0" font-family="Sans Serif" font-weight="normal" text-anchor="start" style="mix-blend-mode: normal"><tspan x="0" dy="0">1</tspan></text></g></g></svg>