<svg version="1.1" xmlns="http://www.w3.org/2000/svg" xmlns:xlink="http://www.w3.org/1999/xlink" width="150.43927" height="103" viewBox="0,0,150.43927,103"><g transform="translate(-164.78036,-103.375)"><g data-paper-data="{&quot;isPaintingLayer&quot;:true}" fill-rule="nonzero" stroke-linecap="butt" stroke-linejoin="miter" stroke-miterlimit="10" stroke-dasharray="" stroke-dashoffset="0" style="mix-blend-mode: normal"><path d="M166.03036,205.125v-100.5h147.93927v100.5z" fill="#7f7f7f" stroke="#5e5e5e" stroke-width="2.5"/><path d="M243.14064,187.40523c-0.14562,0.33118 -0.45683,0.68508 -1.12194,0.68508c-1.25,0 -1.25,-1.25 -1.25,-1.25l0.02427,-0.51446c0.08181,-0.39893 0.16361,-0.79786 0.24542,-1.19679c-0.3331,-0.98374 -0.04419,-2.36174 0.15249,-3.50257c-0.00001,-0.54318 -0.03302,-1.06928 -0.13031,-1.55203c-0.43516,-2.15911 -2.4167,-4.4885 -0.11056,-6.58371c1.54484,-1.40354 5.05692,-0.69072 6.91988,-1.74461c1.21613,-0.68797 3.09029,-3.09305 4.7294,-2.42189c0.70377,0.28817 0.37545,1.47505 0.61157,2.19795c0.78111,2.39135 1.67465,3.54393 0.7411,6.08696c-0.47098,1.17745 -1.02256,3.57172 -1.89261,4.4594c-1.47591,1.5058 -4.54099,2.27685 -6.32817,3.61723c-0.483,0.36225 -1.73371,1.36709 -2.59054,1.71946z" fill="#dedac3" stroke="none" stroke-width="0.5"/><path d="M227.23622,168.6401c0.04609,-0.06287 0.10025,-0.12607 0.16345,-0.18927c0.88388,-0.88388 1.76777,0 1.76777,0c1.83074,1.83878 3.95586,3.51352 6.47453,4.26409c1.22744,0.36578 3.94581,0.69213 4.71865,1.84398c0.60065,0.8952 0.11238,2.67318 -0.07867,3.6391c-0.5666,2.86457 0.01247,4.98162 0.02427,7.83435v1.34658c0,0.69036 -0.55964,1.25 -1.25,1.25c-0.28595,0 -0.54948,-0.09602 -0.7601,-0.25758l-1.06717,-0.80037l0.27503,-0.36671c-0.7218,-0.58023 -1.38723,-1.24597 -2.02481,-1.90394c-1.36756,-1.41129 -3.8729,-2.41766 -5.52177,-3.65432c-0.91185,-0.68389 -3.10464,-1.87444 -3.59983,-2.86483c-0.85742,-1.71484 -0.13197,-5.61403 -0.13197,-7.56125v-1.34658c0,0 0,-1.08483 1.01062,-1.23325z" fill="#d4d0ba" stroke="none" stroke-width="0.5"/><text transform="translate(172.4876,125.54897) scale(0.45384,0.45384)" font-size="40" xml:space="preserve" fill="#ffffff" fill-rule="nonzero" stroke="none" stroke-width="1" stroke-linecap="butt" stroke-linejoin="miter" stroke-miterlimit="10" stroke-dasharray="" stroke-dashoffset="0" font-family="Sans Serif" font-weight="normal" text-anchor="start" style="mix-blend-mode: normal"><tspan x="0" dy="0">Collect Rubber?</tspan></text><path d="M240.19295,157.89618c2.95672,2.21755 5.77826,4.34501 8.71878,6.54501c0.83266,0.49959 1.60634,1.1007 2.42414,1.62426c0.44475,0.28474 1.74842,0.4052 1.37891,0.78249c-1.22783,1.25368 -4.03814,1.89661 -5.60952,2.76862c-1.67026,0.92688 -3.46656,1.78404 -5.14631,2.7162c-0.59357,0.32939 -0.99713,1.34782 -1.65948,1.19905c-1.75999,-0.39531 -5.09378,-3.05485 -6.59843,-4.18334c-2.49186,-0.99675 -4.30311,-3.72592 -6.55751,-4.64953c0.11386,0.03921 0.27617,0.08537 0.35592,0.0669c0.45016,-0.1043 0.87713,-0.3033 1.28985,-0.51113c1.12449,-0.56624 1.65265,-1.01516 2.62089,-1.74668c2.46398,-1.86157 5.59412,-3.45151 8.32722,-5.0525z" data-paper-data="{&quot;noHover&quot;:false,&quot;origItem&quot;:[&quot;Path&quot;,{&quot;applyMatrix&quot;:true,&quot;segments&quot;:[[[469.78459,315.78736],[0,0],[-5.4662,3.20197]],[[453.22175,325.82543],[4.92795,-3.72314],[-1.93648,1.46304]],[[447.98496,329.29685],[2.24898,-1.13247],[-0.82544,0.41565]],[[445.4057,330.31391],[0.90033,-0.20859],[-0.15949,0.03695]],[[444.69384,330.18047],[0.22771,0.07841],[4.50881,1.84722]],[[457.79426,339.42092],[-4.98372,-1.99349],[3.0093,2.25698]],[[470.90171,347.74005],[-3.51997,-0.79062],[1.32468,0.29754]],[[474.1968,345.34589],[-1.18714,0.65878],[3.35951,-1.86431]],[[484.43084,339.95955],[-3.34051,1.85377],[3.14274,-1.74402]],[[495.63707,334.46173],[-2.45566,2.50736],[0.73902,-0.75458]],[[492.87881,332.90229],[0.88951,0.56948],[-1.63559,-1.04712]],[[488.03111,329.67049],[1.66531,0.99919],[-5.88104,-4.39998]],[[470.68982,316.66867],[5.91345,4.43509],[0,0]]],&quot;closed&quot;:true}]}" fill="#e9e5cd" stroke="none" stroke-width="0.5"/><path d="M225.59038,164.58361c1.25,0 1.25,1.25 1.25,1.25l-0.0894,0.34371c0.80138,2.00345 1.0156,3.65586 1.4299,5.7274c0.00632,1.52696 -0.64966,4.91486 0.12749,6.26627c0.51175,0.88988 2.08495,1.68693 2.87971,2.28299c2.23323,1.67493 4.3879,3.27318 6.32817,5.23313c0.40953,0.41368 2.80217,2.56839 3.41799,2.35802c0.80429,-0.27475 2.05247,-1.67545 2.75831,-2.20482c2.29903,-1.69875 4.54981,-2.68703 6.59903,-4.73158c0.67214,-0.6706 2.58669,-1.59874 2.99765,-2.3683c0.26665,-0.49935 -0.13346,-2.84987 -0.13197,-3.48074c0.00638,-2.69567 -0.52747,-5.38151 -0.53863,-8.0795c0,0 0,-1.25 1.25,-1.25c1.25,0 1.25,1.25 1.25,1.25c-0.01563,3.14479 0.53863,6.26342 0.53863,9.42609c0,0.56032 0.03101,2.91734 -0.13197,3.25218c-0.54423,1.11817 -2.57869,2.12861 -3.46595,3.01803c-2.12709,2.13228 -4.53,3.17766 -6.8668,4.96381c-0.88866,0.66649 -2.64695,2.44761 -3.70529,2.64289c-1.8764,0.34623 -3.21201,-1.10851 -4.52763,-2.10425c-2.46474,-1.86548 -4.74605,-4.03084 -7.27155,-5.92496c-1.14181,-0.85636 -2.88374,-1.82082 -3.58389,-3.10334c-1.01286,-1.85534 -0.42135,-5.14639 -0.41114,-7.19957c-0.37443,-1.87213 -0.54113,-3.23995 -1.26326,-5.04527l-0.0894,-1.27218c0,0 0,-1.25 1.25,-1.25z" fill="#bebaa7" stroke="none" stroke-width="0.5"/><path d="M239.73882,157.5055c-2.7331,1.60099 -5.81744,3.15747 -8.28142,5.01904c-0.96824,0.73152 -1.4939,1.16948 -2.61839,1.73571c-0.41272,0.20783 -0.83946,0.40423 -1.28963,0.50853c-0.07975,0.01847 -0.24207,-0.02751 -0.35593,-0.06672c2.2544,0.92361 4.05835,3.62348 6.55021,4.62023c1.50465,1.12849 4.79374,3.76425 6.55373,4.15956c0.66234,0.14877 1.05397,-0.86769 1.64754,-1.19708c1.67975,-0.93215 3.44676,-1.76629 5.11702,-2.69317c1.57137,-0.87201 4.37529,-1.49523 5.60312,-2.74891c0.36951,-0.37729 -0.93438,-0.49498 -1.37913,-0.77972c-0.8178,-0.52356 -1.5912,-1.11631 -2.42385,-1.6159c-2.94052,-2.19999 -5.71392,-4.28336 -8.67064,-6.50091zM240.36567,155.13081c0.52598,-0.00221 0.92102,0.39282 0.92102,0.39282l0.40475,0.42252c2.93056,2.19792 5.66142,4.24226 8.56562,6.42628c1.73625,1.04175 5.30134,2.54124 4.81516,5.14525c-0.06467,0.3464 -2.26354,2.09807 -2.74571,2.3681c-2.97908,1.66839 -6.1738,2.91925 -9.15677,4.57838c-1.2149,0.67573 -1.40843,1.62834 -3.20015,1.49609c-0.5988,-0.0442 -0.99324,-0.68008 -1.52577,-0.95745c-1.99085,-1.03695 -4.12501,-2.15116 -5.92496,-3.50112c-2.3133,-0.92532 -5.52247,-3.01821 -6.8512,-5.18741c-0.39355,-0.64248 -1.17624,-1.26205 -1.04538,-2.00404c0.26513,-1.50338 2.07573,-1.77846 3.10583,-2.28962c3.87974,-1.92521 7.49001,-4.70896 11.22364,-6.95429c0,0 0.78454,-0.47072 1.41394,0.06448z" fill="#bebaa7" stroke="none" stroke-width="0.5"/><path d="M240.94143,185.93577c-1.25,0 -1.25,-1.25 -1.25,-1.25l0.00608,-1.22341c-0.54005,-2.70028 -0.54471,-5.44664 -0.54471,-8.20267c0,0 0,-1.25 1.25,-1.25c1.25,0 1.25,1.25 1.25,1.25c0,2.6773 0.0078,5.33259 0.53255,7.95633l0.00608,1.46975c0,0 0,1.25 -1.25,1.25z" fill="#bebaa7" stroke="none" stroke-width="0.5"/><path d="M240.67211,188.62894c-1.25,0 -1.25,-1.25 -1.25,-1.25v-0.26931c0.00408,-0.82008 -0.0803,-1.64466 -0.24504,-2.44803c0,0 -0.24515,-1.22573 0.98058,-1.47087c1.22573,-0.24515 1.47087,0.98058 1.47087,0.98058c0.18912,0.96597 0.28952,1.95401 0.29359,2.93832v0.26931c0,0 0,1.25 -1.25,1.25z" fill="#bebaa7" stroke="none" stroke-width="0.5"/></g></g></svg>