<svg version="1.1" xmlns="http://www.w3.org/2000/svg" xmlns:xlink="http://www.w3.org/1999/xlink" width="40.33047" height="40.20547" viewBox="0,0,40.33047,40.20547"><g transform="translate(-219.83476,-159.89726)"><g data-paper-data="{&quot;isPaintingLayer&quot;:true}" fill-rule="nonzero" stroke-linejoin="miter" stroke-miterlimit="10" stroke-dasharray="" stroke-dashoffset="0" style="mix-blend-mode: normal"><path d="M219.83477,200.10274v-40.20547h40.33047v40.20547z" fill="#704f39" stroke="none" stroke-width="0" stroke-linecap="butt"/><path d="M220.7642,199.23585v-38.47171h38.47171v38.47171z" fill="#9a6d4e" stroke="#704f39" stroke-width="1.5" stroke-linecap="butt"/><path d="M243.45814,160.76414v7.44444l-21.66667,-0.11111" fill="none" stroke="#704f39" stroke-width="1.5" stroke-linecap="round"/><path d="M243.79147,168.09747h15.44444" fill="none" stroke="#704f39" stroke-width="1.5" stroke-linecap="round"/><path d="M235.50168,169.26516l-0.11111,3.44444h-14.55556" fill="none" stroke="#704f39" stroke-width="1.5" stroke-linecap="round"/><path d="M250.94614,169.15405l-0.11111,3.55556h-14.88889" fill="none" stroke="#704f39" stroke-width="1.5" stroke-linecap="round"/><path d="M258.39058,172.5985l-7.44444,0.11111" fill="none" stroke="#704f39" stroke-width="1.5" stroke-linecap="round"/><path d="M258.16837,179.48739l-19.66667,-0.11111l0.11111,-5.66667" fill="none" stroke="#704f39" stroke-width="1.5" stroke-linecap="round"/><path d="M238.16836,179.26516h-16.44444" fill="none" stroke="#704f39" stroke-width="1.5" stroke-linecap="round"/><path d="M227.72391,179.26516v-5.33333" fill="none" stroke="#704f39" stroke-width="1.5" stroke-linecap="round"/><path d="M234.94615,180.15405l0.11111,4.77778l-13.66667,0.11111" fill="none" stroke="#704f39" stroke-width="1.5" stroke-linecap="round"/><path d="M235.50168,185.15405l22.66667,-0.22222" fill="none" stroke="#704f39" stroke-width="1.5" stroke-linecap="round"/><path d="M249.39058,189.48739v-3.88889" fill="none" stroke="#704f39" stroke-width="1.5" stroke-linecap="round"/><path d="M231.94614,185.70961l-0.11111,3.44444" fill="none" stroke="#704f39" stroke-width="1.5" stroke-linecap="round"/><path d="M240.41835,166.15405c0,-0.41421 0.33579,-0.75 0.75,-0.75c0.41421,0 0.75,0.33579 0.75,0.75c0,0.41421 -0.33579,0.75 -0.75,0.75c-0.41421,0 -0.75,-0.33579 -0.75,-0.75z" fill="#797979" stroke="none" stroke-width="0.5" stroke-linecap="butt"/><path d="M240.41835,162.82072c0,-0.41421 0.33579,-0.75 0.75,-0.75c0.41421,0 0.75,0.33579 0.75,0.75c0,0.41421 -0.33579,0.75 -0.75,0.75c-0.41421,0 -0.75,-0.33579 -0.75,-0.75z" fill="#797979" stroke="none" stroke-width="0.5" stroke-linecap="butt"/><path d="M245.30724,166.04294c0,-0.41421 0.33579,-0.75 0.75,-0.75c0.41421,0 0.75,0.33579 0.75,0.75c0,0.41421 -0.33579,0.75 -0.75,0.75c-0.41421,0 -0.75,-0.33579 -0.75,-0.75z" fill="#797979" stroke="none" stroke-width="0.5" stroke-linecap="butt"/><path d="M245.08502,162.70961c0,-0.41421 0.33579,-0.75 0.75,-0.75c0.41421,0 0.75,0.33579 0.75,0.75c0,0.41421 -0.33579,0.75 -0.75,0.75c-0.41421,0 -0.75,-0.33579 -0.75,-0.75z" fill="#797979" stroke="none" stroke-width="0.5" stroke-linecap="butt"/><path d="M252.41835,170.48739c0,-0.41421 0.33579,-0.75 0.75,-0.75c0.41421,0 0.75,0.33579 0.75,0.75c0,0.41421 -0.33579,0.75 -0.75,0.75c-0.41421,0 -0.75,-0.33579 -0.75,-0.75z" fill="#797979" stroke="none" stroke-width="0.5" stroke-linecap="butt"/><path d="M247.64058,170.37627c0,-0.41421 0.33579,-0.75 0.75,-0.75c0.41421,0 0.75,0.33579 0.75,0.75c0,0.41421 -0.33579,0.75 -0.75,0.75c-0.41421,0 -0.75,-0.33579 -0.75,-0.75z" fill="#797979" stroke="none" stroke-width="0.5" stroke-linecap="butt"/><path d="M236.9739,170.04294c0,-0.41421 0.33579,-0.75 0.75,-0.75c0.41421,0 0.75,0.33579 0.75,0.75c0,0.41421 -0.33579,0.75 -0.75,0.75c-0.41421,0 -0.75,-0.33579 -0.75,-0.75z" fill="#797979" stroke="none" stroke-width="0.5" stroke-linecap="butt"/><path d="M232.19613,170.26516c0,-0.41421 0.33579,-0.75 0.75,-0.75c0.41421,0 0.75,0.33579 0.75,0.75c0,0.41421 -0.33579,0.75 -0.75,0.75c-0.41421,0 -0.75,-0.33579 -0.75,-0.75z" fill="#797979" stroke="none" stroke-width="0.5" stroke-linecap="butt"/><path d="M224.9739,174.82072c0,-0.41421 0.33579,-0.75 0.75,-0.75c0.41421,0 0.75,0.33579 0.75,0.75c0,0.41421 -0.33579,0.75 -0.75,0.75c-0.41421,0 -0.75,-0.33579 -0.75,-0.75z" fill="#797979" stroke="none" stroke-width="0.5" stroke-linecap="butt"/><path d="M224.9739,177.37627c0,-0.41421 0.33579,-0.75 0.75,-0.75c0.41421,0 0.75,0.33579 0.75,0.75c0,0.41421 -0.33579,0.75 -0.75,0.75c-0.41421,0 -0.75,-0.33579 -0.75,-0.75z" fill="#797979" stroke="none" stroke-width="0.5" stroke-linecap="butt"/><path d="M229.41835,174.5985c0,-0.41421 0.33579,-0.75 0.75,-0.75c0.41421,0 0.75,0.33579 0.75,0.75c0,0.41421 -0.33579,0.75 -0.75,0.75c-0.41421,0 -0.75,-0.33579 -0.75,-0.75z" fill="#797979" stroke="none" stroke-width="0.5" stroke-linecap="butt"/><path d="M229.30724,177.26516c0,-0.41421 0.33579,-0.75 0.75,-0.75c0.41421,0 0.75,0.33579 0.75,0.75c0,0.41421 -0.33579,0.75 -0.75,0.75c-0.41421,0 -0.75,-0.33579 -0.75,-0.75z" fill="#797979" stroke="none" stroke-width="0.5" stroke-linecap="butt"/><path d="M235.64058,174.82072c0,-0.41421 0.33579,-0.75 0.75,-0.75c0.41421,0 0.75,0.33579 0.75,0.75c0,0.41421 -0.33579,0.75 -0.75,0.75c-0.41421,0 -0.75,-0.33579 -0.75,-0.75z" fill="#797979" stroke="none" stroke-width="0.5" stroke-linecap="butt"/><path d="M235.64058,177.26516c0,-0.41421 0.33579,-0.75 0.75,-0.75c0.41421,0 0.75,0.33579 0.75,0.75c0,0.41421 -0.33579,0.75 -0.75,0.75c-0.41421,0 -0.75,-0.33579 -0.75,-0.75z" fill="#797979" stroke="none" stroke-width="0.5" stroke-linecap="butt"/><path d="M239.86279,174.48739c0,-0.41421 0.33579,-0.75 0.75,-0.75c0.41421,0 0.75,0.33579 0.75,0.75c0,0.41421 -0.33579,0.75 -0.75,0.75c-0.41421,0 -0.75,-0.33579 -0.75,-0.75z" fill="#797979" stroke="none" stroke-width="0.5" stroke-linecap="butt"/><path d="M239.9739,177.48739c0,-0.41421 0.33579,-0.75 0.75,-0.75c0.41421,0 0.75,0.33579 0.75,0.75c0,0.41421 -0.33579,0.75 -0.75,0.75c-0.41421,0 -0.75,-0.33579 -0.75,-0.75z" fill="#797979" stroke="none" stroke-width="0.5" stroke-linecap="butt"/><path d="M256.30724,174.37627c0,-0.41421 0.33579,-0.75 0.75,-0.75c0.41421,0 0.75,0.33579 0.75,0.75c0,0.41421 -0.33579,0.75 -0.75,0.75c-0.41421,0 -0.75,-0.33579 -0.75,-0.75z" fill="#797979" stroke="none" stroke-width="0.5" stroke-linecap="butt"/><path d="M256.41835,177.15405c0,-0.41421 0.33579,-0.75 0.75,-0.75c0.41421,0 0.75,0.33579 0.75,0.75c0,0.41421 -0.33579,0.75 -0.75,0.75c-0.41421,0 -0.75,-0.33579 -0.75,-0.75z" fill="#797979" stroke="none" stroke-width="0.5" stroke-linecap="butt"/><path d="M236.64058,181.04294c0,-0.41421 0.33579,-0.75 0.75,-0.75c0.41421,0 0.75,0.33579 0.75,0.75c0,0.41421 -0.33579,0.75 -0.75,0.75c-0.41421,0 -0.75,-0.33579 -0.75,-0.75z" fill="#797979" stroke="none" stroke-width="0.5" stroke-linecap="butt"/><path d="M236.86279,183.37627c0,-0.41421 0.33579,-0.75 0.75,-0.75c0.41421,0 0.75,0.33579 0.75,0.75c0,0.41421 -0.33579,0.75 -0.75,0.75c-0.41421,0 -0.75,-0.33579 -0.75,-0.75z" fill="#797979" stroke="none" stroke-width="0.5" stroke-linecap="butt"/><path d="M232.41835,180.82072c0,-0.41421 0.33579,-0.75 0.75,-0.75c0.41421,0 0.75,0.33579 0.75,0.75c0,0.41421 -0.33579,0.75 -0.75,0.75c-0.41421,0 -0.75,-0.33579 -0.75,-0.75z" fill="#797979" stroke="none" stroke-width="0.5" stroke-linecap="butt"/><path d="M232.41835,182.93183c0,-0.41421 0.33579,-0.75 0.75,-0.75c0.41421,0 0.75,0.33579 0.75,0.75c0,0.41421 -0.33579,0.75 -0.75,0.75c-0.41421,0 -0.75,-0.33579 -0.75,-0.75z" fill="#797979" stroke="none" stroke-width="0.5" stroke-linecap="butt"/><path d="M232.86279,186.68142c0,-0.41421 0.33579,-0.75 0.75,-0.75c0.41421,0 0.75,0.33579 0.75,0.75c0,0.41421 -0.33579,0.75 -0.75,0.75c-0.41421,0 -0.75,-0.33579 -0.75,-0.75z" fill="#797979" stroke="none" stroke-width="0.5" stroke-linecap="butt"/><path d="M232.86279,188.41774c0,-0.41421 0.33579,-0.75 0.75,-0.75c0.41421,0 0.75,0.33579 0.75,0.75c0,0.41421 -0.33579,0.75 -0.75,0.75c-0.41421,0 -0.75,-0.33579 -0.75,-0.75z" fill="#797979" stroke="none" stroke-width="0.5" stroke-linecap="butt"/><path d="M229.52946,186.5985c0,-0.41421 0.33579,-0.75 0.75,-0.75c0.41421,0 0.75,0.33579 0.75,0.75c0,0.41421 -0.33579,0.75 -0.75,0.75c-0.41421,0 -0.75,-0.33579 -0.75,-0.75z" fill="#797979" stroke="none" stroke-width="0.5" stroke-linecap="butt"/><path d="M229.52946,188.23698c0,-0.41421 0.33579,-0.75 0.75,-0.75c0.41421,0 0.75,0.33579 0.75,0.75c0,0.41421 -0.33579,0.75 -0.75,0.75c-0.41421,0 -0.75,-0.33579 -0.75,-0.75z" fill="#797979" stroke="none" stroke-width="0.5" stroke-linecap="butt"/><path d="M250.75168,186.5985c0,-0.41421 0.33579,-0.75 0.75,-0.75c0.41421,0 0.75,0.33579 0.75,0.75c0,0.41421 -0.33579,0.75 -0.75,0.75c-0.41421,0 -0.75,-0.33579 -0.75,-0.75z" fill="#797979" stroke="none" stroke-width="0.5" stroke-linecap="butt"/><path d="M250.52946,188.5985c0,-0.41421 0.33579,-0.75 0.75,-0.75c0.41421,0 0.75,0.33579 0.75,0.75c0,0.41421 -0.33579,0.75 -0.75,0.75c-0.41421,0 -0.75,-0.33579 -0.75,-0.75z" fill="#797979" stroke="none" stroke-width="0.5" stroke-linecap="butt"/><path d="M246.52946,186.5985c0,-0.41421 0.33579,-0.75 0.75,-0.75c0.41421,0 0.75,0.33579 0.75,0.75c0,0.41421 -0.33579,0.75 -0.75,0.75c-0.41421,0 -0.75,-0.33579 -0.75,-0.75z" fill="#797979" stroke="none" stroke-width="0.5" stroke-linecap="butt"/><path d="M247.08502,188.70961c0,-0.41421 0.33579,-0.75 0.75,-0.75c0.41421,0 0.75,0.33579 0.75,0.75c0,0.41421 -0.33579,0.75 -0.75,0.75c-0.41421,0 -0.75,-0.33579 -0.75,-0.75z" fill="#797979" stroke="none" stroke-width="0.5" stroke-linecap="butt"/><path d="M256.64056,186.48739c0,-0.41421 0.33579,-0.75 0.75,-0.75c0.41421,0 0.75,0.33579 0.75,0.75c0,0.41421 -0.33579,0.75 -0.75,0.75c-0.41421,0 -0.75,-0.33579 -0.75,-0.75z" fill="#797979" stroke="none" stroke-width="0.5" stroke-linecap="butt"/><path d="M256.52946,188.5985c0,-0.41421 0.33579,-0.75 0.75,-0.75c0.41421,0 0.75,0.33579 0.75,0.75c0,0.41421 -0.33579,0.75 -0.75,0.75c-0.41421,0 -0.75,-0.33579 -0.75,-0.75z" fill="#797979" stroke="none" stroke-width="0.5" stroke-linecap="butt"/><path d="M221.9739,163.15405c0,-0.41421 0.33579,-0.75 0.75,-0.75c0.41421,0 0.75,0.33579 0.75,0.75c0,0.41421 -0.33579,0.75 -0.75,0.75c-0.41421,0 -0.75,-0.33579 -0.75,-0.75z" fill="#797979" stroke="none" stroke-width="0.5" stroke-linecap="butt"/><path d="M221.86279,166.15405c0,-0.41421 0.33579,-0.75 0.75,-0.75c0.41421,0 0.75,0.33579 0.75,0.75c0,0.41421 -0.33579,0.75 -0.75,0.75c-0.41421,0 -0.75,-0.33579 -0.75,-0.75z" fill="#797979" stroke="none" stroke-width="0.5" stroke-linecap="butt"/><path d="M238.73225,198.89499l-0.11111,-3.80518l19.66667,-0.07461" fill="none" stroke="#704f39" stroke-width="1.5" stroke-linecap="round"/><path d="M238.28781,195.23743h-16.44444" fill="none" stroke="#704f39" stroke-width="1.5" stroke-linecap="round"/><path d="M228.06932,195.23743v3.11111" fill="none" stroke="#704f39" stroke-width="1.5" stroke-linecap="round"/><path d="M221.51004,189.45965l13.66667,0.11111l-0.11111,4.77778" fill="none" stroke="#704f39" stroke-width="1.5" stroke-linecap="round"/><path d="M235.44037,189.61968l22.66667,0.22222" fill="none" stroke="#704f39" stroke-width="1.5" stroke-linecap="round"/><path d="M249.51003,185.0152v3.88889" fill="none" stroke="#704f39" stroke-width="1.5" stroke-linecap="round"/><path d="M232.15596,188.88336l-0.11111,-3.44444" fill="none" stroke="#704f39" stroke-width="1.5" stroke-linecap="round"/><path d="M225.84335,196.37632c0.41421,0 0.75,0.33579 0.75,0.75c0,0.41421 -0.33579,0.75 -0.75,0.75c-0.41421,0 -0.75,-0.33579 -0.75,-0.75c0,-0.41421 0.33579,-0.75 0.75,-0.75z" fill="#797979" stroke="none" stroke-width="0.5" stroke-linecap="butt"/><path d="M230.17669,196.48743c0.41421,0 0.75,0.33579 0.75,0.75c0,0.41421 -0.33579,0.75 -0.75,0.75c-0.41421,0 -0.75,-0.33579 -0.75,-0.75c0,-0.41421 0.33579,-0.75 0.75,-0.75z" fill="#797979" stroke="none" stroke-width="0.5" stroke-linecap="butt"/><path d="M236.51003,196.48743c0.41421,0 0.75,0.33579 0.75,0.75c0,0.41421 -0.33579,0.75 -0.75,0.75c-0.41421,0 -0.75,-0.33579 -0.75,-0.75c0,-0.41421 0.33579,-0.75 0.75,-0.75z" fill="#797979" stroke="none" stroke-width="0.5" stroke-linecap="butt"/><path d="M240.84335,196.2652c0.41421,0 0.75,0.33579 0.75,0.75c0,0.41421 -0.33579,0.75 -0.75,0.75c-0.41421,0 -0.75,-0.33579 -0.75,-0.75c0,-0.41421 0.33579,-0.75 0.75,-0.75z" fill="#797979" stroke="none" stroke-width="0.5" stroke-linecap="butt"/><path d="M257.28779,196.59854c0.41421,0 0.75,0.33579 0.75,0.75c0,0.41421 -0.33579,0.75 -0.75,0.75c-0.41421,0 -0.75,-0.33579 -0.75,-0.75c0,-0.41421 0.33579,-0.75 0.75,-0.75z" fill="#797979" stroke="none" stroke-width="0.5" stroke-linecap="butt"/><path d="M237.51003,192.70965c0.41421,0 0.75,0.33579 0.75,0.75c0,0.41421 -0.33579,0.75 -0.75,0.75c-0.41421,0 -0.75,-0.33579 -0.75,-0.75c0,-0.41421 0.33579,-0.75 0.75,-0.75z" fill="#797979" stroke="none" stroke-width="0.5" stroke-linecap="butt"/><path d="M237.73224,190.37632c0.41421,0 0.75,0.33579 0.75,0.75c0,0.41421 -0.33579,0.75 -0.75,0.75c-0.41421,0 -0.75,-0.33579 -0.75,-0.75c0,-0.41421 0.33579,-0.75 0.75,-0.75z" fill="#797979" stroke="none" stroke-width="0.5" stroke-linecap="butt"/><path d="M233.2878,192.93187c0.41421,0 0.75,0.33579 0.75,0.75c0,0.41421 -0.33579,0.75 -0.75,0.75c-0.41421,0 -0.75,-0.33579 -0.75,-0.75c0,-0.41421 0.33579,-0.75 0.75,-0.75z" fill="#797979" stroke="none" stroke-width="0.5" stroke-linecap="butt"/><path d="M233.2878,190.82076c0.41421,0 0.75,0.33579 0.75,0.75c0,0.41421 -0.33579,0.75 -0.75,0.75c-0.41421,0 -0.75,-0.33579 -0.75,-0.75c0,-0.41421 0.33579,-0.75 0.75,-0.75z" fill="#797979" stroke="none" stroke-width="0.5" stroke-linecap="butt"/></g></g></svg>