<svg version="1.1" xmlns="http://www.w3.org/2000/svg" xmlns:xlink="http://www.w3.org/1999/xlink" width="23.18234" height="43.50961" viewBox="0,0,23.18234,43.50961"><g transform="translate(-230.06728,-146.79478)"><g data-paper-data="{&quot;isPaintingLayer&quot;:true}" fill-rule="nonzero" stroke-linejoin="miter" stroke-miterlimit="10" stroke-dasharray="" stroke-dashoffset="0" style="mix-blend-mode: normal"><path d="M245.78345,158.26905l-1.375,28.40223l-2.375,2.42914l-2,-3.17657l-1.625,-27.28108z" fill="#6e89a2" stroke="#495a6b" stroke-width="1.5" stroke-linecap="round"/><path d="M247.69572,172.30872c-0.30326,0.6801 -0.88832,0.38153 -0.88832,0.38153l-0.16699,-0.1952c-0.85931,0.05074 -1.18358,0.74808 -1.6453,1.54075c0,0 -0.37348,0.6378 -0.91642,0.25719c-0.54294,-0.38062 -0.16947,-1.01843 -0.16947,-1.01843c0.73968,-1.25743 1.33374,-2.05082 2.67722,-2.25676l0.82746,0.31226c0,0 0.58508,0.29857 0.28183,0.97867z" fill="#1f272e" stroke="none" stroke-width="0.5" stroke-linecap="butt"/><path d="M238.968,182.40311c-0.57686,0.40026 -0.89546,-0.22542 -0.89546,-0.22542l-0.19137,-1.2233c0.66429,-1.06625 1.13983,-1.31549 2.25311,-1.46354c0,0 0.65844,-0.07819 0.68543,0.66042c0.02699,0.73861 -0.63146,0.81681 -0.63146,0.81681c-0.69976,0.06917 -0.8536,0.04571 -1.22118,0.74754l0.2592,-0.33845c0,0 0.3186,0.62568 -0.25826,1.02593z" fill="#1f272e" stroke="none" stroke-width="0.5" stroke-linecap="butt"/><path d="M236.99332,180.33199c-0.63319,-0.15939 -0.45057,-0.88483 -0.45057,-0.88483l0.13077,-0.4831c0.253,-2.0504 1.02031,-2.18422 2.57436,-1.79301c0,0 0.63319,0.15939 0.45057,0.88483c-0.18262,0.72544 -0.8158,0.56604 -0.8158,0.56604c-0.30137,-0.07586 -0.54846,-0.36683 -0.86168,-0.36253c-0.23055,0.00317 -0.02038,0.5204 -0.03826,0.78058l-0.17359,0.72597c0,0 -0.18262,0.72544 -0.8158,0.56604z" fill="#1f272e" stroke="none" stroke-width="0.5" stroke-linecap="butt"/><path d="M248.07581,183.72394c-0.4465,0.57757 -0.93118,0.11058 -0.93118,0.11058l-0.09736,-0.2002c-0.68759,-0.1762 -1.4126,-0.46496 -1.97177,0.11411c0,0 -0.53815,0.4669 -0.9185,-0.11074c-0.38035,-0.57765 0.1578,-1.04455 0.1578,-1.04455c1.06594,-0.84412 1.91383,-0.7032 3.09773,-0.40971l0.62515,0.49594c0,0 0.48467,0.467 0.03816,1.04457z" fill="#1f272e" stroke="none" stroke-width="0.5" stroke-linecap="butt"/><path d="M240.28345,173.85041c0,-0.41421 0.33579,-0.75 0.75,-0.75c0.41421,0 0.75,0.33579 0.75,0.75c0,0.41421 -0.33579,0.75 -0.75,0.75c-0.41421,0 -0.75,-0.33579 -0.75,-0.75z" fill="#4c5761" stroke="none" stroke-width="0.5" stroke-linecap="butt"/><path d="M242.03345,179.10041c0,-0.41421 0.33579,-0.75 0.75,-0.75c0.41421,0 0.75,0.33579 0.75,0.75c0,0.41421 -0.33579,0.75 -0.75,0.75c-0.41421,0 -0.75,-0.33579 -0.75,-0.75z" fill="#4c5761" stroke="none" stroke-width="0.5" stroke-linecap="butt"/><path d="M242.03345,181.35041c0,-0.41421 0.33579,-0.75 0.75,-0.75c0.41421,0 0.75,0.33579 0.75,0.75c0,0.41421 -0.33579,0.75 -0.75,0.75c-0.41421,0 -0.75,-0.33579 -0.75,-0.75z" fill="#4c5761" stroke="none" stroke-width="0.5" stroke-linecap="butt"/><path d="M241.03345,184.97541c0,-0.41421 0.33579,-0.75 0.75,-0.75c0.41421,0 0.75,0.33579 0.75,0.75c0,0.41421 -0.33579,0.75 -0.75,0.75c-0.41421,0 -0.75,-0.33579 -0.75,-0.75z" fill="#4c5761" stroke="none" stroke-width="0.5" stroke-linecap="butt"/><path d="M235.82194,160.92332c0.23717,-0.68415 0.94869,-0.4561 0.94869,-0.4561l0.375,0.12019c1.33554,0.44616 2.10595,1.21018 2.88687,2.32743c0,0 0.41603,0.60004 -0.20801,1.00007c-0.62404,0.40003 -1.04006,-0.20001 -1.04006,-0.20001c-0.57391,-0.83573 -1.10674,-1.45551 -2.11313,-1.75917l-0.375,-0.12019c0,0 -0.71151,-0.22806 -0.47434,-0.91222z" fill="#1f272e" stroke="none" stroke-width="0.5" stroke-linecap="butt"/><path d="M241.65845,160.31001c0,-0.39828 0.33579,-0.72116 0.75,-0.72116c0.41421,0 0.75,0.32288 0.75,0.72116c0,0.39828 -0.33579,0.72116 -0.75,0.72116c-0.41421,0 -0.75,-0.32288 -0.75,-0.72116z" fill="#415261" stroke="none" stroke-width="0.5" stroke-linecap="butt"/><path d="M238.15845,166.07932c0,-0.39828 0.33579,-0.72116 0.75,-0.72116c0.41421,0 0.75,0.32288 0.75,0.72116c0,0.39828 -0.33579,0.72116 -0.75,0.72116c-0.41421,0 -0.75,-0.32288 -0.75,-0.72116z" fill="#415261" stroke="none" stroke-width="0.5" stroke-linecap="butt"/><path d="M236.77706,167.20478c-0.64601,-0.41417 -1.09577,1.11388 -0.9781,1.67502c0.04191,0.19991 0.71609,0.54869 1.11936,0.7386c-0.22526,-0.63869 -0.14843,-1.65203 -0.03295,-2.36884zM237.98996,166.02538c0.71378,0.2292 0.48353,0.93969 0.48353,0.93969c-0.11673,0.35704 -0.58104,1.29733 -0.27181,1.69051c0.4195,0.53338 1.21246,0.0078 1.31905,1.1323c0.19052,2.0099 -1.80476,1.77105 -2.91045,1.32988c-2.91119,-1.16158 -2.84588,-6.11074 0.62729,-5.33395l0.48613,0.19606c0.08015,0.00043 0.16869,0.01419 0.26626,0.04552z" data-paper-data="{&quot;index&quot;:null}" fill="#e4ddb2" stroke="none" stroke-width="0.5" stroke-linecap="butt"/><path d="M236.89531,167.20078c-0.11548,0.71681 -0.19252,1.82774 0.03274,2.46643c-0.40327,-0.1899 -1.1295,-0.561 -1.17141,-0.7609c-0.11766,-0.56114 0.37939,-2.16522 1.0254,-1.75105z" data-paper-data="{&quot;noHover&quot;:false,&quot;origItem&quot;:[&quot;Path&quot;,{&quot;applyMatrix&quot;:true,&quot;segments&quot;:[[[436.89795,344.55388],[0,0],[0.23095,1.44025]],[[436.83204,349.31349],[0.45051,-1.2833],[0.80654,-0.38156]],[[439.07077,347.82947],[-0.08383,0.40166],[0.23532,-1.12748]],[[437.11456,344.46392],[1.29201,-0.83218],[0,0]]],&quot;closed&quot;:true}],&quot;index&quot;:null}" fill="#f8f0c1" stroke="none" stroke-width="0.5" stroke-linecap="butt"/><path d="M245.94897,167.37031c0.11548,0.71681 0.1923,1.73015 -0.03295,2.36884c0.40327,-0.1899 1.07745,-0.53869 1.11936,-0.7386c0.11766,-0.56114 -0.3321,-2.0892 -0.9781,-1.67502zM245.11063,166.10061l0.48613,-0.19606c3.47317,-0.7768 3.53849,4.17237 0.62729,5.33395c-1.10569,0.44117 -3.10097,0.68002 -2.91045,-1.32988c0.10659,-1.12449 0.89954,-0.5989 1.31905,-1.1323c0.30923,-0.39318 -0.15508,-1.33346 -0.27181,-1.69051c0,0 -0.23025,-0.71049 0.48353,-0.93969c0.09757,-0.03133 0.1861,-0.0451 0.26626,-0.04552z" fill="#e4ddb2" stroke="none" stroke-width="0.5" stroke-linecap="butt"/><path d="M246.0523,167.27602c0.64601,-0.41417 1.14306,1.18991 1.0254,1.75105c-0.04191,0.19991 -0.76814,0.571 -1.17141,0.7609c0.22526,-0.63869 0.14821,-1.74962 0.03273,-2.46643z" data-paper-data="{&quot;noHover&quot;:false,&quot;origItem&quot;:[&quot;Path&quot;,{&quot;applyMatrix&quot;:true,&quot;selected&quot;:true,&quot;segments&quot;:[[[436.89795,344.55388],[0,0],[0.23095,1.44025],7],[[436.83204,349.31349],[0.45051,-1.2833],[0.80654,-0.38156],7],[[439.07077,347.82947],[-0.08383,0.40166],[0.23532,-1.12748],7],[[437.11456,344.46392],[1.29201,-0.83218],[0,0],7]],&quot;closed&quot;:true}]}" fill="#f8f0c1" stroke="none" stroke-width="0.5" stroke-linecap="butt"/><path d="M240.58794,148.35611c-0.1132,0.18395 -0.29683,0.26689 -0.43937,0.30426c-0.1659,0.13543 -0.44583,0.26875 -0.79889,0.0743c-1.38011,0.22485 -2.49227,1.26886 -3.55226,2.14741c-2.87101,2.37955 -4.23014,4.19653 -4.23014,8.01176c-0.07458,6.6152 6.57314,8.20217 11.69683,8.21389c6.04275,-0.87299 9.29508,-5.6065 8.32528,-11.51781c-1.59951,-4.72692 -5.90322,-7.85081 -11.00147,-7.23381zM239.54459,147.21348l0.2744,-0.25423c6.11034,-0.99428 11.34897,2.61405 13.22618,8.27075c1.16235,6.82384 -2.70737,12.39005 -9.67472,13.36705c-1.90844,0.00387 -4.19603,0.31659 -6.0351,-0.28357c-3.78631,-1.23562 -7.23353,-5.36977 -7.26807,-9.41966c0,-4.83042 4.06308,-11.31698 9.4773,-11.68035z" fill="#495a6b" stroke="none" stroke-width="0.5" stroke-linecap="butt"/><path d="M240.58223,148.30664c5.09825,-0.617 9.45656,2.54597 11.05607,7.2729c0.9698,5.91131 -2.32308,10.70425 -8.36584,11.57725c-5.12369,-0.01171 -11.82941,-1.64184 -11.75483,-8.25704c0,-3.81523 1.37623,-5.67591 4.24724,-8.05546c1.05999,-0.87853 2.19225,-1.93298 3.57236,-2.15783c0.35306,0.19446 0.63721,0.06025 0.80311,-0.07518c0.14254,-0.03738 0.3287,-0.12067 0.4419,-0.30462z" data-paper-data="{&quot;noHover&quot;:false,&quot;origItem&quot;:[&quot;Path&quot;,{&quot;applyMatrix&quot;:true,&quot;segments&quot;:[[[426.17588,306.34951],[0,0],[-0.2264,0.36962]],[[425.29714,306.96085],[0.28508,-0.0751],[-0.3318,0.27212]],[[423.69936,307.11013],[0.70612,0.39072],[-2.76022,0.45178]],[[416.59484,311.42481],[2.11998,-1.7652],[-5.74202,4.78112]],[[408.13456,327.52247],[0,-7.66576],[-0.14916,13.29162]],[[431.52822,344.02625],[-10.24738,-0.02354],[12.0855,-1.75406]],[[448.17878,320.88405],[1.9396,11.87732],[-3.19902,-9.49758]],[[426.17584,306.34949],[10.1965,-1.2397],[0,0]]],&quot;closed&quot;:true,&quot;fillColor&quot;:[0,0,0,1]}]}" fill="#84a4c2" stroke="none" stroke-width="0.5" stroke-linecap="butt"/><path d="M246.64187,161.50474c-3.99208,1.3668 -11.48504,1.13314 -12.84238,-3.56738c-0.21223,0.08732 -0.55538,0.13833 -0.85169,-0.23034c-0.46852,-0.58295 0.11713,-1.04932 0.11713,-1.04932c4.37096,-3.43528 7.87205,-5.79804 13.73505,-3.84758c2.33393,0.99476 3.1779,2.166 4.27929,4.34552l0.07918,0.58271c0,0 0,0.74655 -0.75,0.74655c-0.1663,0 -0.29573,-0.03671 -0.39646,-0.09385c-1.16981,0.97302 -2.13681,2.15649 -3.37012,3.11369zM235.14825,157.11793c0.67147,4.09291 7.59842,4.07534 10.77679,3.07526c1.21132,-0.99952 2.18436,-2.19195 3.38989,-3.16221l-0.118,-0.02639c0,0 0.01647,-0.04918 0.05375,-0.1173c-0.69507,-1.25289 -1.36854,-1.9918 -2.98377,-2.68153c-4.81162,-1.59195 -7.76348,0.08857 -11.16921,2.74668c0.03863,0.09438 0.05054,0.1655 0.05054,0.1655z" fill="#000000" stroke="none" stroke-width="0.5" stroke-linecap="butt"/><path d="M235.04773,156.95089c3.40573,-2.65812 6.44789,-4.36653 11.25951,-2.77458c1.61523,0.68974 2.29834,1.45607 2.9934,2.70896c-0.03728,0.06812 -0.05372,0.11813 -0.05372,0.11813l0.118,0.0266c-1.20553,0.97025 -2.18985,2.19514 -3.40117,3.19466c-3.17837,1.00008 -10.19404,0.9858 -10.86551,-3.1071c0,0 -0.01189,-0.0723 -0.05052,-0.16667z" data-paper-data="{&quot;noHover&quot;:false,&quot;origItem&quot;:[&quot;Path&quot;,{&quot;applyMatrix&quot;:true,&quot;segments&quot;:[[[415.29649,323.95423],[0,0],[1.34295,8.22368]],[[436.85007,330.13319],[-6.35673,2.00942],[2.42263,-2.00831]],[[443.62986,323.77952],[-2.41107,1.94947],[0,0]],[443.39387,323.72648],[[443.50137,323.4908],[-0.07456,0.13687],[-1.39014,-2.51738]],[[437.53383,318.10291],[3.23045,1.38586],[-9.62324,-3.19863]],[[415.19541,323.62168],[6.81147,-5.34082],[0.07726,0.18961]]],&quot;closed&quot;:true}]}" fill="#ff9e9e" stroke="none" stroke-width="0.5" stroke-linecap="butt"/><path d="M242.20244,154.5053c0.0242,-0.00105 0.0487,-0.0017 0.07351,-0.00195c2.1339,-0.02155 1.91218,4.75565 -0.20032,4.72351c-1.61832,-0.02461 -1.79002,-1.71482 -1.48786,-3.08654c0.03649,-0.27598 0.1119,-0.54002 0.23173,-0.77242c0.11371,-0.29183 0.24493,-0.53854 0.37831,-0.70882c0,0 0.44233,-0.55035 1.00464,-0.15377z" fill="#000000" stroke="none" stroke-width="0.5" stroke-linecap="butt"/><path d="M237.28345,159.72915c0,0.41231 -0.33578,0.74655 -0.75,0.74655c-0.40588,0 -0.73646,-0.32093 -0.74959,-0.72176c-0.2244,-0.12902 -0.37541,-0.37041 -0.37541,-0.6469c0,-0.08822 0.01538,-0.17287 0.0436,-0.25143c-0.11955,0.0802 -0.26359,0.127 -0.4186,0.127c-0.41422,0 -0.75,-0.33424 -0.75,-0.74655c0,-0.02661 0.0014,-0.05289 0.00413,-0.07878c-0.0815,-0.11944 -0.12913,-0.26365 -0.12913,-0.41892c0,-0.41231 0.33578,-0.74655 0.75,-0.74655c0.41422,0 0.75,0.33424 0.75,0.74655c0,0.02661 -0.0014,0.05289 -0.00412,0.07878c0.0815,0.11944 0.12912,0.26365 0.12912,0.41892c0,0.08822 -0.01538,0.17286 -0.0436,0.25143c0.11955,-0.0802 0.26359,-0.127 0.4186,-0.127c0.40588,0 0.73646,0.32093 0.74959,0.72176c0.2244,0.12902 0.37541,0.37042 0.37541,0.6469z" fill="#ffe156" stroke="none" stroke-width="0.5" stroke-linecap="butt"/><path d="M234.15845,159.97799c0,-0.41231 0.33578,-0.74655 0.75,-0.74655c0.41422,0 0.75,0.33424 0.75,0.74655c0,0.41231 -0.33578,0.74655 -0.75,0.74655c-0.41422,0 -0.75,-0.33424 -0.75,-0.74655z" fill="#ffe156" stroke="none" stroke-width="0.5" stroke-linecap="butt"/><path d="M248.15845,159.10702c0,-0.41231 0.33578,-0.74655 0.75,-0.74655c0.41422,0 0.75,0.33424 0.75,0.74655c0,0.41231 -0.33578,0.74655 -0.75,0.74655c-0.41422,0 -0.75,-0.33424 -0.75,-0.74655z" fill="#ffe156" stroke="none" stroke-width="0.5" stroke-linecap="butt"/><path d="M246.40845,159.60472c0,-0.41231 0.33578,-0.74655 0.75,-0.74655c0.41422,0 0.75,0.33424 0.75,0.74655c0,0.41231 -0.33578,0.74655 -0.75,0.74655c-0.41422,0 -0.75,-0.33424 -0.75,-0.74655z" fill="#ffe156" stroke="none" stroke-width="0.5" stroke-linecap="butt"/><path d="M236.03345,151.14387c0,-0.41231 0.33578,-0.74655 0.75,-0.74655c0.41422,0 0.75,0.33424 0.75,0.74655c0,0.41231 -0.33578,0.74655 -0.75,0.74655c-0.41422,0 -0.75,-0.33424 -0.75,-0.74655z" fill="#4c6071" stroke="none" stroke-width="0.5" stroke-linecap="butt"/><path d="M239.53345,164.95496c0,-0.41231 0.33578,-0.74655 0.75,-0.74655c0.41422,0 0.75,0.33424 0.75,0.74655c0,0.41231 -0.33578,0.74655 -0.75,0.74655c-0.41422,0 -0.75,-0.33424 -0.75,-0.74655z" fill="#4c6071" stroke="none" stroke-width="0.5" stroke-linecap="butt"/><path d="M248.53345,162.21762c0,-0.41231 0.33578,-0.74655 0.75,-0.74655c0.41422,0 0.75,0.33424 0.75,0.74655c0,0.41231 -0.33578,0.74655 -0.75,0.74655c-0.41422,0 -0.75,-0.33424 -0.75,-0.74655z" fill="#4c6071" stroke="none" stroke-width="0.5" stroke-linecap="butt"/><path d="M247.53345,151.76598c0,-0.41231 0.33578,-0.74655 0.75,-0.74655c0.41422,0 0.75,0.33424 0.75,0.74655c0,0.41231 -0.33578,0.74655 -0.75,0.74655c-0.41422,0 -0.75,-0.33424 -0.75,-0.74655z" fill="#4c6071" stroke="none" stroke-width="0.5" stroke-linecap="butt"/></g></g></svg>