<svg version="1.1" xmlns="http://www.w3.org/2000/svg" xmlns:xlink="http://www.w3.org/1999/xlink" width="538" height="414.25" viewBox="0,0,538,414.25"><g transform="translate(27,24)"><g data-paper-data="{&quot;isPaintingLayer&quot;:true}" fill-rule="nonzero" stroke-linejoin="miter" stroke-miterlimit="10" stroke-dasharray="" stroke-dashoffset="0" style="mix-blend-mode: normal"><path d="M-12.5,383v-406h505v406z" fill="#3a473a" stroke="#000000" stroke-width="2" stroke-linecap="butt"/><path d="M510.25,158.50001l-2,7" fill="none" stroke="#262f26" stroke-width="1.5" stroke-linecap="round"/><path d="M75.75,-15h-79l-1.5,35.5l35.5,16l35.5,-9.5l9.5,-42.5l131,9.5l3.5,22.5l9,17.5l-17.5,24.5l-87,12l-49,-44.5" fill="none" stroke="#262f26" stroke-width="2.5" stroke-linecap="round"/><path d="M30.75,38l2.5,17l9,16l-12,13.5l-38,-18.5" fill="none" stroke="#262f26" stroke-width="2.5" stroke-linecap="round"/><path d="M113.25,71.5l-9.5,22l-40,-3.5l-21,-19.5" fill="none" stroke="#262f26" stroke-width="2.5" stroke-linecap="round"/><path d="M305.25,28l6,19l-11,15.5l17,8l11,21l-28.5,21.5l-20,-4.5l-35.5,9l-43,-22.5l4,-24l-3,-12" fill="none" stroke="#262f26" stroke-width="2.5" stroke-linecap="round"/><path d="M318.25,71l29,4l25.5,-15.5l15,-5.5l14.5,-19.5l-2,-17.5l-22,-27.5l107,-1.5l-0.5,41l-45,12.5l-37,-7.5" fill="none" stroke="#262f26" stroke-width="2.5" stroke-linecap="round"/><path d="M377.75,-10.5l-74.5,6l2,32.5l-9.5,13.5l-28.5,8.5l-48,-17.5" fill="none" stroke="#262f26" stroke-width="2.5" stroke-linecap="round"/><path d="M205.75,-6.5l96.5,2" fill="none" stroke="#262f26" stroke-width="2.5" stroke-linecap="round"/><path d="M388.75,55.5l28,38.5l-6.5,57l-55,23l-62,-24l6.5,-36" fill="none" stroke="#262f26" stroke-width="2.5" stroke-linecap="round"/><path d="M500.25,93.5l-43,15l-41,-15" fill="none" stroke="#262f26" stroke-width="2.5" stroke-linecap="round"/><path d="M509.75,71l-4,10.5" fill="none" stroke="#262f26" stroke-width="2.5" stroke-linecap="round"/><path d="M103.75,92.5l24.5,26l-37.5,41.5l-108,-9.5" fill="none" stroke="#262f26" stroke-width="2.5" stroke-linecap="round"/><path d="M89.75,160.5l31,42.5l-16.5,47l-57.5,-2.5l-72.5,19.5" fill="none" stroke="#262f26" stroke-width="2.5" stroke-linecap="round"/><path d="M104.75,249.5l59,9l-3,21.5l-27,4l-0.5,19l31.5,-0.5l8.5,55l3.5,15" fill="none" stroke="#262f26" stroke-width="2.5" stroke-linecap="round"/><path d="M160.75,279.5l34,7.5l-29,15" fill="none" stroke="#262f26" stroke-width="2.5" stroke-linecap="round"/><path d="M122.25,203.5l86.5,-32l65,35l-3.5,59.5l-38.5,19l-38,1.5" fill="none" stroke="#262f26" stroke-width="2.5" stroke-linecap="round"/><path d="M207.75,172l16,-64.5" fill="none" stroke="#262f26" stroke-width="2.5" stroke-linecap="round"/><path d="M353.25,174.5l-34.5,26l-45.5,5.5" fill="none" stroke="#262f26" stroke-width="2.5" stroke-linecap="round"/><path d="M487.75,211l-91,-5l-14,-42.5" fill="none" stroke="#262f26" stroke-width="2.5" stroke-linecap="round"/><path d="M397.75,207l-30,36.5l-42,15l-56,8" fill="none" stroke="#262f26" stroke-width="2.5" stroke-linecap="round"/><path d="M488.75,262l-49,21.5l-69,-11.5l-3,-28" fill="none" stroke="#262f26" stroke-width="2.5" stroke-linecap="round"/><path d="M439.75,283.5l-34.5,86.5" fill="none" stroke="#262f26" stroke-width="2.5" stroke-linecap="round"/><path d="M294.75,371.5l10.5,-76l34,3l31.5,-26.5" fill="none" stroke="#262f26" stroke-width="2.5" stroke-linecap="round"/><path d="M305.25,295.5l-72.5,-10" fill="none" stroke="#262f26" stroke-width="2.5" stroke-linecap="round"/><path d="M60.25,365.5l11.5,-21.5l39.5,-5.5l31.5,50.5" fill="none" stroke="#262f26" stroke-width="2.5" stroke-linecap="round"/><path d="M111.75,339l21.5,-36.5" fill="none" stroke="#262f26" stroke-width="2.5" stroke-linecap="round"/></g></g></svg>