<svg version="1.1" xmlns="http://www.w3.org/2000/svg" xmlns:xlink="http://www.w3.org/1999/xlink" width="33.97333" height="3.9312" viewBox="0,0,33.97333,3.9312"><g transform="translate(-224.66178,-177.29024)"><g data-paper-data="{&quot;isPaintingLayer&quot;:true}" fill-rule="nonzero" stroke-linejoin="miter" stroke-miterlimit="10" stroke-dasharray="" stroke-dashoffset="0" style="mix-blend-mode: normal"><path d="M226.35945,181.17381c-0.14352,0.05967 -0.3272,0.07338 -0.55596,-0.01813c-0.69636,-0.27854 -0.41781,-0.9749 -0.41781,-0.9749l0.09007,-0.11567c-0.03912,-0.13822 -0.07289,-0.2844 -0.10292,-0.43573l-0.0101,-0.0202c-0.05291,-0.06511 -0.09649,-0.14594 -0.12314,-0.24628l-0.18449,-0.36898c-0.05487,-0.10422 -0.08593,-0.22294 -0.08593,-0.34891c0,-0.10759 0.02265,-0.20989 0.06345,-0.30238c-0.0408,-0.0925 -0.06345,-0.19479 -0.06345,-0.30238c0,-0.41421 0.33579,-0.75 0.75,-0.75c0.12597,0 0.24468,0.03106 0.34891,0.08593l0.66455,0.33228l0.65875,0.21958c0.23352,0.07182 0.41844,0.25459 0.49325,0.48678c0.2488,0.08015 0.44084,0.28673 0.50046,0.54405c0.22814,0.12862 0.3822,0.37321 0.3822,0.65378c0,0.23943 -0.1122,0.45266 -0.28689,0.58998l-0.59936,0.47949c-0.67073,0.43443 -1.1596,0.5664 -1.52159,0.49169z" fill="#ffffff" stroke="none" stroke-width="0.5" stroke-linecap="butt"/><path d="M225.41178,179.17442l28.78121,-0.24394" fill="none" stroke="#b27d5b" stroke-width="1.5" stroke-linecap="round"/><path d="M255.90144,180.34876c-0.65867,0.36004 -1.2907,0.63297 -1.50368,0.58089c-1.57246,-0.38451 -0.17055,-2.39512 -0.05485,-3.07066c0,0 0.08823,-0.49618 0.7984,-0.43454c0.32247,0.028 0.48033,0.14558 0.55658,0.26563c0.86452,-0.255 1.97276,-0.26188 2.656,0.44135c1.03344,1.06368 -1.00821,1.75671 -2.45246,2.21732z" fill="#999999" stroke="none" stroke-width="0.5" stroke-linecap="butt"/></g></g></svg>