<svg version="1.1" xmlns="http://www.w3.org/2000/svg" xmlns:xlink="http://www.w3.org/1999/xlink" width="38.375" height="37.97609" viewBox="0,0,38.375,37.97609"><defs><linearGradient x1="240.10148" y1="179.91293" x2="240.10148" y2="188.41293" gradientUnits="userSpaceOnUse" id="color-1"><stop offset="0" stop-color="#414141"/><stop offset="1" stop-color="#ff6f00"/></linearGradient><radialGradient cx="240.02083" cy="184.66113" r="15.19943" gradientUnits="userSpaceOnUse" id="color-2"><stop offset="0" stop-color="#ffc500" stop-opacity="0.42742"/><stop offset="1" stop-color="#ffc500" stop-opacity="0"/></radialGradient></defs><g transform="translate(-220.8125,-161.3764)"><g data-paper-data="{&quot;isPaintingLayer&quot;:true}" fill-rule="nonzero" stroke-linejoin="miter" stroke-miterlimit="10" stroke-dasharray="" stroke-dashoffset="0" style="mix-blend-mode: normal"><path d="M221.5625,198.60249v-8.5h36.875v8.5z" fill="#767676" stroke="#5a5a5a" stroke-width="1.5" stroke-linecap="butt"/><path d="M221.5625,194.35249v-20.39105h36.875v20.39105z" fill="#767676" stroke="#5a5a5a" stroke-width="1.5" stroke-linecap="butt"/><path d="M225.11111,191.03613v-13.75833h29.77778v13.75833z" fill="#ef8f3c" stroke="#e06c00" stroke-width="1.5" stroke-linecap="butt"/><path d="M246.16667,183.07362c0,-0.41422 0.33578,-0.75 0.75,-0.75c0.41422,0 0.75,0.33578 0.75,0.75c0,0.41422 -0.33578,0.75 -0.75,0.75c-0.41422,0 -0.75,-0.33578 -0.75,-0.75z" fill="#e06c00" stroke="none" stroke-width="0.5" stroke-linecap="butt"/><path d="M243.29167,182.94862c0,-0.41422 0.33578,-0.75 0.75,-0.75c0.41422,0 0.75,0.33578 0.75,0.75c0,0.41422 -0.33578,0.75 -0.75,0.75c-0.41422,0 -0.75,-0.33578 -0.75,-0.75z" fill="#e06c00" stroke="none" stroke-width="0.5" stroke-linecap="butt"/><path d="M240.54167,182.82362c0,-0.41422 0.33578,-0.75 0.75,-0.75c0.41422,0 0.75,0.33578 0.75,0.75c0,0.41422 -0.33578,0.75 -0.75,0.75c-0.41422,0 -0.75,-0.33578 -0.75,-0.75z" fill="#e06c00" stroke="none" stroke-width="0.5" stroke-linecap="butt"/><path d="M237.61111,183.19862c0,-0.41422 0.33578,-0.75 0.75,-0.75c0.41422,0 0.75,0.33578 0.75,0.75c0,0.41422 -0.33578,0.75 -0.75,0.75c-0.41422,0 -0.75,-0.33578 -0.75,-0.75z" fill="#e06c00" stroke="none" stroke-width="0.5" stroke-linecap="butt"/><path d="M234.73611,183.07362c0,-0.41422 0.33578,-0.75 0.75,-0.75c0.41422,0 0.75,0.33578 0.75,0.75c0,0.41422 -0.33578,0.75 -0.75,0.75c-0.41422,0 -0.75,-0.33578 -0.75,-0.75z" fill="#e06c00" stroke="none" stroke-width="0.5" stroke-linecap="butt"/><path d="M231.98611,182.94862c0,-0.41422 0.33578,-0.75 0.75,-0.75c0.41422,0 0.75,0.33578 0.75,0.75c0,0.41422 -0.33578,0.75 -0.75,0.75c-0.41422,0 -0.75,-0.33578 -0.75,-0.75z" fill="#e06c00" stroke="none" stroke-width="0.5" stroke-linecap="butt"/><path d="M231.98611,182.94862c0,-0.41422 0.33578,-0.75 0.75,-0.75c0.41422,0 0.75,0.33578 0.75,0.75c0,0.41422 -0.33578,0.75 -0.75,0.75c-0.41422,0 -0.75,-0.33578 -0.75,-0.75z" fill="#e06c00" stroke="none" stroke-width="0.5" stroke-linecap="butt"/><path d="M229.11111,182.82362c0,-0.41422 0.33578,-0.75 0.75,-0.75c0.41422,0 0.75,0.33578 0.75,0.75c0,0.41422 -0.33578,0.75 -0.75,0.75c-0.41422,0 -0.75,-0.33578 -0.75,-0.75z" fill="#e06c00" stroke="none" stroke-width="0.5" stroke-linecap="butt"/><path d="M226.36111,182.69862c0,-0.41422 0.33578,-0.75 0.75,-0.75c0.41422,0 0.75,0.33578 0.75,0.75c0,0.41422 -0.33578,0.75 -0.75,0.75c-0.41422,0 -0.75,-0.33578 -0.75,-0.75z" fill="#e06c00" stroke="none" stroke-width="0.5" stroke-linecap="butt"/><path d="M246.20833,185.74029c0,-0.41422 0.33578,-0.75 0.75,-0.75c0.41422,0 0.75,0.33578 0.75,0.75c0,0.41422 -0.33578,0.75 -0.75,0.75c-0.41422,0 -0.75,-0.33578 -0.75,-0.75z" fill="#e06c00" stroke="none" stroke-width="0.5" stroke-linecap="butt"/><path d="M243.33333,185.61529c0,-0.41422 0.33578,-0.75 0.75,-0.75c0.41422,0 0.75,0.33578 0.75,0.75c0,0.41422 -0.33578,0.75 -0.75,0.75c-0.41422,0 -0.75,-0.33578 -0.75,-0.75z" fill="#e06c00" stroke="none" stroke-width="0.5" stroke-linecap="butt"/><path d="M240.58333,185.49029c0,-0.41422 0.33578,-0.75 0.75,-0.75c0.41422,0 0.75,0.33578 0.75,0.75c0,0.41422 -0.33578,0.75 -0.75,0.75c-0.41422,0 -0.75,-0.33578 -0.75,-0.75z" fill="#e06c00" stroke="none" stroke-width="0.5" stroke-linecap="butt"/><path d="M237.65278,185.86529c0,-0.41422 0.33578,-0.75 0.75,-0.75c0.41422,0 0.75,0.33578 0.75,0.75c0,0.41422 -0.33578,0.75 -0.75,0.75c-0.41422,0 -0.75,-0.33578 -0.75,-0.75z" fill="#e06c00" stroke="none" stroke-width="0.5" stroke-linecap="butt"/><path d="M234.77778,185.74029c0,-0.41422 0.33578,-0.75 0.75,-0.75c0.41422,0 0.75,0.33578 0.75,0.75c0,0.41422 -0.33578,0.75 -0.75,0.75c-0.41422,0 -0.75,-0.33578 -0.75,-0.75z" fill="#e06c00" stroke="none" stroke-width="0.5" stroke-linecap="butt"/><path d="M232.02778,185.61529c0,-0.41422 0.33578,-0.75 0.75,-0.75c0.41422,0 0.75,0.33578 0.75,0.75c0,0.41422 -0.33578,0.75 -0.75,0.75c-0.41422,0 -0.75,-0.33578 -0.75,-0.75z" fill="#e06c00" stroke="none" stroke-width="0.5" stroke-linecap="butt"/><path d="M232.02778,185.61529c0,-0.41422 0.33578,-0.75 0.75,-0.75c0.41422,0 0.75,0.33578 0.75,0.75c0,0.41422 -0.33578,0.75 -0.75,0.75c-0.41422,0 -0.75,-0.33578 -0.75,-0.75z" fill="#e06c00" stroke="none" stroke-width="0.5" stroke-linecap="butt"/><path d="M229.15278,185.49029c0,-0.41422 0.33578,-0.75 0.75,-0.75c0.41422,0 0.75,0.33578 0.75,0.75c0,0.41422 -0.33578,0.75 -0.75,0.75c-0.41422,0 -0.75,-0.33578 -0.75,-0.75z" fill="#e06c00" stroke="none" stroke-width="0.5" stroke-linecap="butt"/><path d="M226.40278,185.36529c0,-0.41422 0.33578,-0.75 0.75,-0.75c0.41422,0 0.75,0.33578 0.75,0.75c0,0.41422 -0.33578,0.75 -0.75,0.75c-0.41422,0 -0.75,-0.33578 -0.75,-0.75z" fill="#e06c00" stroke="none" stroke-width="0.5" stroke-linecap="butt"/><path d="M247.06944,187.29585c0.41422,0 0.75,0.33578 0.75,0.75c0,0.41422 -0.33578,0.75 -0.75,0.75c-0.41422,0 -0.75,-0.33578 -0.75,-0.75c0,-0.41422 0.33578,-0.75 0.75,-0.75z" data-paper-data="{&quot;index&quot;:null}" fill="#e06c00" stroke="none" stroke-width="0.5" stroke-linecap="butt"/><path d="M244.19444,187.42085c0.41422,0 0.75,0.33578 0.75,0.75c0,0.41422 -0.33578,0.75 -0.75,0.75c-0.41422,0 -0.75,-0.33578 -0.75,-0.75c0,-0.41422 0.33578,-0.75 0.75,-0.75z" data-paper-data="{&quot;index&quot;:null}" fill="#e06c00" stroke="none" stroke-width="0.5" stroke-linecap="butt"/><path d="M241.44444,187.54585c0.41422,0 0.75,0.33578 0.75,0.75c0,0.41422 -0.33578,0.75 -0.75,0.75c-0.41422,0 -0.75,-0.33578 -0.75,-0.75c0,-0.41422 0.33578,-0.75 0.75,-0.75z" data-paper-data="{&quot;index&quot;:null}" fill="#e06c00" stroke="none" stroke-width="0.5" stroke-linecap="butt"/><path d="M238.51389,187.17085c0.41422,0 0.75,0.33578 0.75,0.75c0,0.41422 -0.33578,0.75 -0.75,0.75c-0.41422,0 -0.75,-0.33578 -0.75,-0.75c0,-0.41422 0.33578,-0.75 0.75,-0.75z" data-paper-data="{&quot;index&quot;:null}" fill="#e06c00" stroke="none" stroke-width="0.5" stroke-linecap="butt"/><path d="M235.63889,187.29585c0.41422,0 0.75,0.33578 0.75,0.75c0,0.41422 -0.33578,0.75 -0.75,0.75c-0.41422,0 -0.75,-0.33578 -0.75,-0.75c0,-0.41422 0.33578,-0.75 0.75,-0.75z" data-paper-data="{&quot;index&quot;:null}" fill="#e06c00" stroke="none" stroke-width="0.5" stroke-linecap="butt"/><path d="M232.88889,187.42085c0.41422,0 0.75,0.33578 0.75,0.75c0,0.41422 -0.33578,0.75 -0.75,0.75c-0.41422,0 -0.75,-0.33578 -0.75,-0.75c0,-0.41422 0.33578,-0.75 0.75,-0.75z" data-paper-data="{&quot;index&quot;:null}" fill="#e06c00" stroke="none" stroke-width="0.5" stroke-linecap="butt"/><path d="M232.88889,187.42085c0.41422,0 0.75,0.33578 0.75,0.75c0,0.41422 -0.33578,0.75 -0.75,0.75c-0.41422,0 -0.75,-0.33578 -0.75,-0.75c0,-0.41422 0.33578,-0.75 0.75,-0.75z" data-paper-data="{&quot;index&quot;:null}" fill="#e06c00" stroke="none" stroke-width="0.5" stroke-linecap="butt"/><path d="M230.01389,187.54585c0.41422,0 0.75,0.33578 0.75,0.75c0,0.41422 -0.33578,0.75 -0.75,0.75c-0.41422,0 -0.75,-0.33578 -0.75,-0.75c0,-0.41422 0.33578,-0.75 0.75,-0.75z" data-paper-data="{&quot;index&quot;:null}" fill="#e06c00" stroke="none" stroke-width="0.5" stroke-linecap="butt"/><path d="M227.26389,187.67085c0.41422,0 0.75,0.33578 0.75,0.75c0,0.41422 -0.33578,0.75 -0.75,0.75c-0.41422,0 -0.75,-0.33578 -0.75,-0.75c0,-0.41422 0.33578,-0.75 0.75,-0.75z" data-paper-data="{&quot;index&quot;:null}" fill="#e06c00" stroke="none" stroke-width="0.5" stroke-linecap="butt"/><path d="M251.98612,182.8514c0,-0.41422 0.33578,-0.75 0.75,-0.75c0.41422,0 0.75,0.33578 0.75,0.75c0,0.41422 -0.33578,0.75 -0.75,0.75c-0.41422,0 -0.75,-0.33578 -0.75,-0.75z" fill="#e06c00" stroke="none" stroke-width="0.5" stroke-linecap="butt"/><path d="M249.05556,183.2264c0,-0.41422 0.33578,-0.75 0.75,-0.75c0.41422,0 0.75,0.33578 0.75,0.75c0,0.41422 -0.33578,0.75 -0.75,0.75c-0.41422,0 -0.75,-0.33578 -0.75,-0.75z" fill="#e06c00" stroke="none" stroke-width="0.5" stroke-linecap="butt"/><path d="M252.02778,185.51808c0,-0.41422 0.33578,-0.75 0.75,-0.75c0.41422,0 0.75,0.33578 0.75,0.75c0,0.41422 -0.33578,0.75 -0.75,0.75c-0.41422,0 -0.75,-0.33578 -0.75,-0.75z" fill="#e06c00" stroke="none" stroke-width="0.5" stroke-linecap="butt"/><path d="M249.09723,185.89308c0,-0.41422 0.33578,-0.75 0.75,-0.75c0.41422,0 0.75,0.33578 0.75,0.75c0,0.41422 -0.33578,0.75 -0.75,0.75c-0.41422,0 -0.75,-0.33578 -0.75,-0.75z" fill="#e06c00" stroke="none" stroke-width="0.5" stroke-linecap="butt"/><path d="M252.88889,187.57362c0.41422,0 0.75,0.33578 0.75,0.75c0,0.41422 -0.33578,0.75 -0.75,0.75c-0.41422,0 -0.75,-0.33578 -0.75,-0.75c0,-0.41422 0.33578,-0.75 0.75,-0.75z" data-paper-data="{&quot;index&quot;:null}" fill="#e06c00" stroke="none" stroke-width="0.5" stroke-linecap="butt"/><path d="M249.95834,187.19862c0.41422,0 0.75,0.33578 0.75,0.75c0,0.41422 -0.33578,0.75 -0.75,0.75c-0.41422,0 -0.75,-0.33578 -0.75,-0.75c0,-0.41422 0.33578,-0.75 0.75,-0.75z" data-paper-data="{&quot;index&quot;:null}" fill="#e06c00" stroke="none" stroke-width="0.5" stroke-linecap="butt"/><path d="M246.16667,180.26806c0,-0.41422 0.33578,-0.75 0.75,-0.75c0.41422,0 0.75,0.33578 0.75,0.75c0,0.41422 -0.33578,0.75 -0.75,0.75c-0.41422,0 -0.75,-0.33578 -0.75,-0.75z" fill="#e06c00" stroke="none" stroke-width="0.5" stroke-linecap="butt"/><path d="M243.29167,180.14306c0,-0.41422 0.33578,-0.75 0.75,-0.75c0.41422,0 0.75,0.33578 0.75,0.75c0,0.41422 -0.33578,0.75 -0.75,0.75c-0.41422,0 -0.75,-0.33578 -0.75,-0.75z" fill="#e06c00" stroke="none" stroke-width="0.5" stroke-linecap="butt"/><path d="M240.54167,180.01806c0,-0.41422 0.33578,-0.75 0.75,-0.75c0.41422,0 0.75,0.33578 0.75,0.75c0,0.41422 -0.33578,0.75 -0.75,0.75c-0.41422,0 -0.75,-0.33578 -0.75,-0.75z" fill="#e06c00" stroke="none" stroke-width="0.5" stroke-linecap="butt"/><path d="M237.61111,180.39306c0,-0.41422 0.33578,-0.75 0.75,-0.75c0.41422,0 0.75,0.33578 0.75,0.75c0,0.41422 -0.33578,0.75 -0.75,0.75c-0.41422,0 -0.75,-0.33578 -0.75,-0.75z" fill="#e06c00" stroke="none" stroke-width="0.5" stroke-linecap="butt"/><path d="M234.73611,180.26806c0,-0.41422 0.33578,-0.75 0.75,-0.75c0.41422,0 0.75,0.33578 0.75,0.75c0,0.41422 -0.33578,0.75 -0.75,0.75c-0.41422,0 -0.75,-0.33578 -0.75,-0.75z" fill="#e06c00" stroke="none" stroke-width="0.5" stroke-linecap="butt"/><path d="M231.98611,180.14306c0,-0.41422 0.33578,-0.75 0.75,-0.75c0.41422,0 0.75,0.33578 0.75,0.75c0,0.41422 -0.33578,0.75 -0.75,0.75c-0.41422,0 -0.75,-0.33578 -0.75,-0.75z" fill="#e06c00" stroke="none" stroke-width="0.5" stroke-linecap="butt"/><path d="M231.98611,180.14306c0,-0.41422 0.33578,-0.75 0.75,-0.75c0.41422,0 0.75,0.33578 0.75,0.75c0,0.41422 -0.33578,0.75 -0.75,0.75c-0.41422,0 -0.75,-0.33578 -0.75,-0.75z" fill="#e06c00" stroke="none" stroke-width="0.5" stroke-linecap="butt"/><path d="M229.11111,180.01806c0,-0.41422 0.33578,-0.75 0.75,-0.75c0.41422,0 0.75,0.33578 0.75,0.75c0,0.41422 -0.33578,0.75 -0.75,0.75c-0.41422,0 -0.75,-0.33578 -0.75,-0.75z" fill="#e06c00" stroke="none" stroke-width="0.5" stroke-linecap="butt"/><path d="M226.36111,179.89306c0,-0.41422 0.33578,-0.75 0.75,-0.75c0.41422,0 0.75,0.33578 0.75,0.75c0,0.41422 -0.33578,0.75 -0.75,0.75c-0.41422,0 -0.75,-0.33578 -0.75,-0.75z" fill="#e06c00" stroke="none" stroke-width="0.5" stroke-linecap="butt"/><path d="M251.98612,180.04585c0,-0.41422 0.33578,-0.75 0.75,-0.75c0.41422,0 0.75,0.33578 0.75,0.75c0,0.41422 -0.33578,0.75 -0.75,0.75c-0.41422,0 -0.75,-0.33578 -0.75,-0.75z" fill="#e06c00" stroke="none" stroke-width="0.5" stroke-linecap="butt"/><path d="M249.05556,180.42085c0,-0.41422 0.33578,-0.75 0.75,-0.75c0.41422,0 0.75,0.33578 0.75,0.75c0,0.41422 -0.33578,0.75 -0.75,0.75c-0.41422,0 -0.75,-0.33578 -0.75,-0.75z" fill="#e06c00" stroke="none" stroke-width="0.5" stroke-linecap="butt"/><path d="M223.1875,178.68699v-16.56059h33.5v16.56059z" fill="#898989" stroke="#666666" stroke-width="1.5" stroke-linecap="butt"/><path d="M223.1875,191.19917v-12.51218h33.5v12.51218z" fill="#898989" stroke="#666666" stroke-width="1.5" stroke-linecap="butt"/><path d="M228.21258,188.41293v-8.5h23.77778v8.5z" fill="url(#color-1)" stroke="#666666" stroke-width="1.5" stroke-linecap="butt"/><path d="M231.35464,188.07718c-0.19534,0 -0.38335,-0.02197 -0.55929,-0.06258c-0.25979,0.14395 -0.62237,0.2444 -1.12839,0.2444c-1.78505,0 -1.78505,-1.25 -1.78505,-1.25v-1.81818v0c0,-0.69036 0.79919,-1.25 1.78505,-1.25c0.24279,0 0.47426,0.03394 0.68527,0.09543c0.01891,-0.0657 0.04078,-0.12899 0.06498,-0.18883l0.50844,-1.24616c0.2003,-0.53693 0.89769,-0.93317 1.72722,-0.93317c0.85617,0 1.57157,0.42209 1.74496,0.98531l0.45951,1.35148c0.22061,-0.24497 0.48873,-0.4057 0.84083,-0.3361c1.07748,0.21299 1.84768,0.45393 2.36942,0.71072l0.94919,-0.61733c0.15159,0.04435 0.29503,0.05558 0.43112,0.03988l0.27334,-1.00488c0.14368,-0.58947 0.87677,-1.03818 1.75953,-1.03818c0.84019,0 1.5448,0.40647 1.73469,0.95392l0.47908,1.25804c0.96475,1.60578 0.71055,-0.58663 2.84888,-0.28962c0.79039,0.10979 1.03913,1.32564 1.4478,1.75506l0.23296,-0.45678c0.23525,-0.49781 0.90525,-0.85699 1.69504,-0.85699c0.89598,0 1.63778,0.46225 1.76559,1.06477l0.38465,1.6161l-0.75647,0.08829l0.39799,0.89067c-4.98414,0.8822 -11.05322,0.8043 -16.44558,0.04706l-0.01713,0.3361l-3.56008,-0.08903c-0.04674,-0.00101 -0.09302,-0.00327 -0.13878,-0.00675c-0.06396,0.00486 -0.12892,0.00735 -0.19473,0.00735z" data-paper-data="{&quot;index&quot;:null}" fill="#ff6f00" stroke="none" stroke-width="0.5" stroke-linecap="butt"/><path d="M231.35463,188.17687c-0.19536,0 -0.38336,-0.0156 -0.55928,-0.04442c-0.25981,0.10219 -0.62237,0.1735 -1.12841,0.1735c-1.78505,0 -1.78505,-0.88735 -1.78505,-0.88735v-1.29069v0c0,-0.49007 0.79919,-0.88735 1.78505,-0.88735c0.24279,0 0.47428,0.0241 0.68527,0.06774c0.01893,-0.04664 0.04079,-0.09157 0.06498,-0.13405l0.50844,-0.88462c0.2003,-0.38116 0.89767,-0.66244 1.72722,-0.66244c0.85617,0 1.57157,0.29963 1.74496,0.69946l0.45952,0.95939c0.22061,-0.1739 0.48872,-0.288 0.84083,-0.23859c1.07749,0.1512 1.84769,0.32223 2.36944,0.50453l0.94918,-0.43823c0.15158,0.03149 0.29502,0.03946 0.43111,0.02831l0.27334,-0.71335c0.14369,-0.41845 0.87678,-0.73698 1.75952,-0.73698c0.84019,0 1.5448,0.28855 1.73469,0.67717l0.47908,0.89306c0.96475,1.13992 0.71054,-0.41644 2.84887,-0.2056c0.79039,0.07793 1.03914,0.94105 1.44781,1.24589l0.23297,-0.32426c0.23525,-0.35339 0.90525,-0.60836 1.69503,-0.60836c0.89598,0 1.63778,0.32815 1.76559,0.75586l0.38464,1.14724l-0.75647,0.06268l0.398,0.63227c-4.98414,0.62626 -11.05322,0.57096 -16.44559,0.03341l-0.01713,0.23859l-3.56008,-0.0632c-0.04673,-0.00072 -0.09301,-0.00232 -0.13878,-0.00479c-0.06395,0.00345 -0.12893,0.00522 -0.19474,0.00522z" data-paper-data="{&quot;index&quot;:null}" fill="#ffae00" stroke="none" stroke-width="0.5" stroke-linecap="butt"/><path d="M228.29166,188.42085v-8.5h23.77778v8.5z" fill="none" stroke="#666666" stroke-width="1.5" stroke-linecap="butt"/><path d="M233.76389,180.42085l-0.125,7" fill="none" stroke="#666666" stroke-width="1.5" stroke-linecap="round"/><path d="M240.16397,180.66293l-0.125,7" fill="none" stroke="#666666" stroke-width="1.5" stroke-linecap="round"/><path d="M246.04167,180.38612l0.125,6.875" fill="none" stroke="#666666" stroke-width="1.5" stroke-linecap="round"/><path d="M255.08333,184.66113c0,5.57306 -6.74371,10.09091 -15.0625,10.09091c-8.31879,0 -15.0625,-4.51785 -15.0625,-10.09091c0,-5.57306 6.74371,-10.09091 15.0625,-10.09091c8.31879,0 15.0625,4.51785 15.0625,10.09091z" fill="url(#color-2)" stroke="none" stroke-width="0" stroke-linecap="butt"/></g></g></svg>