<svg version="1.1" xmlns="http://www.w3.org/2000/svg" xmlns:xlink="http://www.w3.org/1999/xlink" width="52.75" height="52.75" viewBox="0,0,52.75,52.75"><g transform="translate(-213.625,-153.625)"><g data-paper-data="{&quot;isPaintingLayer&quot;:true}" fill-rule="nonzero" stroke-linejoin="miter" stroke-miterlimit="10" stroke-dasharray="" stroke-dashoffset="0" style="mix-blend-mode: normal"><path d="M214.875,205.125v-50.25h50.25v50.25z" fill="#7f7f7f" stroke="#5e5e5e" stroke-width="2.5" stroke-linecap="butt"/><path d="M220.7642,199.23585v-22.3606h38.47171v22.3606z" fill="#827c6d" stroke="#5d594e" stroke-width="1.5" stroke-linecap="butt"/><path d="M220.78,199.23961v-38.47171h38.47171v38.47171z" fill="#827c6d" stroke="#827c6d" stroke-width="1.5" stroke-linecap="butt"/><path d="M220.76422,199.23585v-22.3606h38.47171v22.3606z" fill="#827c6d" stroke="#5d594e" stroke-width="1.5" stroke-linecap="butt"/><path d="M220.78,199.23961v-9.09671h38.47171v9.09671z" fill="none" stroke="#5d594e" stroke-width="1.5" stroke-linecap="butt"/><path d="M226.14389,176.85757c5.01287,-0.61958 10.30892,-0.20106 15.41663,-0.1051c-0.47549,-0.15601 -0.47549,-0.70951 -0.47549,-0.70951l0.00188,-0.83094c0.38535,-2.6974 0.41699,-5.72353 0.22223,-8.44922c-0.11355,-1.58921 -0.6515,-2.98369 -0.00394,-4.16038c-0.22616,0.10603 -0.46513,0.0719 -0.46513,0.0719c-4.43054,-0.64459 -9.35154,0.12845 -13.84077,0.11676c-1.79121,0.25589 -3.80995,0.35759 -5.60368,0.10546l-0.6839,-0.11378c0,0 -0.7398,-0.1233 -0.6165,-0.8631l0.00001,-0.00001c0.1233,-0.73979 0.8631,-0.61649 0.8631,-0.61649l0.64943,0.10844c1.68751,0.24551 3.60163,0.12375 5.28521,-0.11676c4.60129,-0.01045 9.61295,-0.7445 14.15923,-0.10546c0,0 0.13214,0.01888 0.27696,0.09645c0.19385,-0.10398 0.39476,-0.10399 0.39476,-0.10399c4.86446,0 9.82004,-0.90634 14.66162,-0.21469c0.49665,0.07095 0.99322,0.14247 1.48969,0.21469h0.73758c0.41422,0 0.75,0.33578 0.75,0.75c0,0.34853 -0.23775,0.64154 -0.55991,0.7257l-0.76183,0.21766l-0.05525,-0.19336h-0.1508v-0.01933c-1.32614,0.47376 -2.66498,0.35267 -4.33333,0.35267c-3.60717,0 -7.30634,0.28493 -10.89377,0.07893c-0.39732,0.14362 0.00881,2.22862 0.08068,2.73167c0.42621,2.98342 0.31959,6.51725 -0.10546,9.49257l0.00189,0.72461c0,0 0,0.57518 -0.5037,0.71813c0.43242,0.00615 0.86338,0.00964 1.29257,0.00964c4.95166,0 9.86135,0.5 14.8,0.5c0,0 0.75,0 0.75,0.75c0,0.75 -0.75,0.75 -0.75,0.75c-4.93935,0 -9.84826,-0.5 -14.8,-0.5c-5.57118,0 -11.41689,-0.57326 -16.94922,0.06233c-0.11318,0.033 -0.2204,0.03705 -0.29079,0.03457c-0.00446,0.00055 -0.00893,0.00109 -0.01338,0.00164c-0.20589,0 -0.62316,-0.02921 -1.10401,-0.06083c-2.82029,0.4345 -1.71095,4.50582 -1.99839,6.80531c-0.09294,0.74355 -0.00109,1.95766 -0.34022,2.64445c-0.01675,0.18461 -0.03655,0.36976 -0.05978,0.55555l-0.09877,0.79013c-0.04137,0.37508 -0.35934,0.66685 -0.74544,0.66685c-0.41422,0 -0.75,-0.33578 -0.75,-0.75v-0.8h0.09416l0.01163,-0.09303c0.33651,-2.69213 -0.00579,-5.3117 -0.00579,-8.00697c0,-0.81744 -0.23636,-2.3852 0.48844,-2.99115c0.41522,-0.34714 1.88234,-0.34416 3.05733,-0.30473c0.29378,-0.03684 0.59674,-0.05218 0.90423,-0.05412z" fill="#8e8878" stroke="none" stroke-width="0.5" stroke-linecap="butt"/><path d="M220.17391,163.12072v-1.4h2.8v1.4z" fill="#8e8878" stroke="none" stroke-width="0" stroke-linecap="butt"/><path d="M257.07391,163.02072v-1.4h2.8v1.4z" fill="#8e8878" stroke="none" stroke-width="0" stroke-linecap="butt"/><path d="M220.2239,175.62072c0,-0.41422 0.33578,-0.75 0.75,-0.75c0.20901,0 0.39805,0.0855 0.53405,0.22342l0.65897,0.08237l-0.00312,0.02501l0.04781,-0.01806c0.08124,0.02031 0.16249,0.04062 0.24373,0.06093c0.85452,-0.46582 2.72975,-0.17446 3.61856,-0.17368c2.538,0.00224 5.06821,0.2245 7.60608,0.3719c0.38548,-0.02304 0.76815,-0.04675 1.14731,-0.07045c0.93045,-0.05817 3.39943,-0.68563 4.19127,-0.00528c-0.33566,-0.66613 -0.04865,-2.47641 -0.09321,-3.19957c-0.214,-3.47335 0.54478,-6.88388 0.10434,-10.35357c0,0 -0.09303,-0.74421 0.65118,-0.83724c0.74421,-0.09303 0.83723,0.65118 0.83723,0.65118c0.54392,4.41228 0.24414,9.43919 -0.22629,13.94246c0.18109,-0.00007 0.36216,-0.00014 0.54322,-0.0002c0.0931,-0.59923 0.73888,-0.59923 0.73888,-0.59923c4.74827,0 9.78789,-0.47423 14.49302,0.10579c0.77871,0.09885 1.52258,0.09421 2.30698,0.09421h0.19994c0.13683,-0.18216 0.35468,-0.3 0.60005,-0.3c0.41422,0 0.75,0.33578 0.75,0.75c0,0.05666 -0.00628,0.11184 -0.01819,0.16491c0.07087,0.10564 0.11819,0.2467 0.11819,0.43509c0,0.75 -0.75,0.75 -0.75,0.75h-0.2c-1.64017,-0.00315 -3.19649,0.30481 -4.84661,0.09855c-5.58511,0.01074 -11.1633,0.00145 -16.75339,0.00145c-1.54671,0 -3.082,-0.05223 -4.61427,-0.1295c-3.39385,0.18721 -6.7916,0.33865 -10.12345,-0.08325c-0.263,-0.06575 -0.526,-0.1315 -0.78901,-0.19725l-0.46148,-0.05769c-0.09495,0.04346 -0.20055,0.06769 -0.3118,0.06769c-0.32523,0 -0.60211,-0.20701 -0.70606,-0.49646c-0.14991,-0.13713 -0.24393,-0.33435 -0.24393,-0.55354z" fill="#787265" stroke="none" stroke-width="0.5" stroke-linecap="butt"/><path d="M234.50224,189.7858c-2.75854,0.31405 -5.8468,1.11511 -8.34094,0.3853l-0.06931,0.27723l-0.78477,-0.1962c-0.30164,-0.06845 -0.53423,-0.31871 -0.57646,-0.62948c-1.10396,0.07262 -2.2143,0.08227 -3.34989,-0.05773c0,0 -0.74421,-0.09302 -0.65118,-0.83723c0.09303,-0.74421 0.83723,-0.65118 0.83723,-0.65118c2.70604,0.3435 5.2763,-0.23662 7.96037,-0.40434c2.20367,-0.1377 4.43239,0.29855 6.6466,0.29855c5.67321,0 11.32933,0 17,0c0.31442,0 0.67796,0.04119 1.06414,0.09751c0.94581,-0.00023 1.87551,-0.09318 2.60166,-0.45905c0.40745,-0.2053 0.03332,-2.01866 0.08982,-2.48011c0.23233,-1.89758 0.49876,-4.25104 1.12331,-6.22656c-0.00861,-0.07802 -0.01776,-0.15642 -0.02747,-0.2352l0.07485,-0.01035l-0.17172,-0.01908l0.099,-0.891c0.03708,-0.37956 0.35712,-0.67617 0.74642,-0.67617c0.41422,0 0.75,0.33578 0.75,0.75v0.76486c0.36338,2.88351 -0.33353,5.26738 -0.50145,8.08174c-0.05464,0.9158 0.30244,2.21522 -0.63569,2.87953c-0.83612,0.59208 -2.81174,0.20484 -4.22429,0.01319c-1.03409,-0.00312 -2.02496,-0.08933 -2.68857,-0.08933c-5.62345,0 -11.35016,0.82779 -16.97166,0.31508z" fill="#787265" stroke="none" stroke-width="0.5" stroke-linecap="butt"/><path d="M224.2739,176.52072l0.7,-2.1" fill="none" stroke="#787265" stroke-width="1.5" stroke-linecap="round"/><path d="M223.3739,162.92072l-0.1,-1.5" fill="none" stroke="#5d594e" stroke-width="1.5" stroke-linecap="round"/><path d="M240.0739,165.12072l-1.4,0.5" fill="none" stroke="#787265" stroke-width="1.5" stroke-linecap="round"/><path d="M234.4739,161.62072v0.7" fill="none" stroke="#787265" stroke-width="1.5" stroke-linecap="round"/><path d="M233.4739,171.22072l1.5,0.8l-0.6,4.1" fill="none" stroke="#787265" stroke-width="1.5" stroke-linecap="round"/><path d="M242.9739,170.62072l-1.9,1.5" fill="none" stroke="#787265" stroke-width="1.5" stroke-linecap="round"/><path d="M246.9739,162.42072l-0.1,-0.8" fill="none" stroke="#5d594e" stroke-width="1.5" stroke-linecap="round"/><path d="M253.3739,175.82072l0.5,-0.9" fill="none" stroke="#5d594e" stroke-width="1.5" stroke-linecap="round"/><path d="M256.1739,161.62072l0.2,0.8" fill="none" stroke="#787265" stroke-width="1.5" stroke-linecap="round"/><path d="M227.8739,178.92072l0.9,-1.4" fill="none" stroke="#5d594e" stroke-width="1.5" stroke-linecap="round"/><path d="M228.6739,188.72072l0.2,0.9" fill="none" stroke="#787265" stroke-width="1.5" stroke-linecap="round"/><path d="M248.2739,181.12072l0.2,-0.7l-0.7,-1.5l0.9,-1.5" fill="none" stroke="#787265" stroke-width="1.5" stroke-linecap="round"/><path d="M250.8739,187.62072l0.6,-0.1l0.2,2" fill="none" stroke="#787265" stroke-width="1.5" stroke-linecap="round"/><path d="M258.3739,181.72072h-0.6" fill="none" stroke="#5d594e" stroke-width="1.5" stroke-linecap="round"/><path d="M222.7739,182.22072l-1.5,-0.6" fill="none" stroke="#5d594e" stroke-width="1.5" stroke-linecap="round"/><path d="M240.5017,176.87525l0.11111,-14.88889" fill="none" stroke="#5d594e" stroke-width="1.5" stroke-linecap="round"/><path d="M259.25171,160.76566v0.00224h-38.47171v-0.00224z" fill="#827c6d" stroke="#5d594e" stroke-width="1.5" stroke-linecap="butt"/><path d="M220.76421,199.23586v-22.3606h38.47171v22.3606z" fill="none" stroke="#5d594e" stroke-width="1.5" stroke-linecap="butt"/><path d="M220.76421,199.23586v-9.09671h38.47171v9.09671z" fill="#767063" stroke="#5d594e" stroke-width="1.5" stroke-linecap="butt"/></g></g></svg>