<svg version="1.1" xmlns="http://www.w3.org/2000/svg" xmlns:xlink="http://www.w3.org/1999/xlink" width="38.37501" height="39.7821" viewBox="0,0,38.37501,39.7821"><defs><linearGradient x1="240" y1="160.32039" x2="240" y2="177.58644" gradientUnits="userSpaceOnUse" id="color-1"><stop offset="0" stop-color="#4e4e4e"/><stop offset="1" stop-color="#232323"/></linearGradient><linearGradient x1="240.00001" y1="181.63821" x2="240.00001" y2="191.8487" gradientUnits="userSpaceOnUse" id="color-2"><stop offset="0" stop-color="#474747"/><stop offset="1" stop-color="#252525"/></linearGradient></defs><g transform="translate(-220.8125,-159.57039)"><g data-paper-data="{&quot;isPaintingLayer&quot;:true}" fill-rule="nonzero" stroke-linejoin="miter" stroke-miterlimit="10" stroke-dasharray="" stroke-dashoffset="0" style="mix-blend-mode: normal"><path d="M221.5625,177.58644v-17.26605h36.875v17.26605z" fill="url(#color-1)" stroke="#5a5a5a" stroke-width="1.5" stroke-linecap="butt"/><path d="M238.375,164.944c0,1.66322 -1.95753,3.01152 -4.37224,3.01152c-2.41472,0 -4.37224,-1.3483 -4.37224,-3.01152c0,-1.66322 1.95752,-3.01152 4.37224,-3.01152c2.41472,0 4.37224,1.3483 4.37224,3.01152z" fill="#526a7c" stroke="#445867" stroke-width="1.5" stroke-linecap="butt"/><path d="M229.63052,175.15449v-10.21049h8.02666v10.21049z" fill="#526a7c" stroke="none" stroke-width="0" stroke-linecap="butt"/><path d="M238.24449,176.18701c0,1.66322 -1.95752,3.01152 -4.37224,3.01152c-2.41472,0 -4.37224,-1.3483 -4.37224,-3.01152c0,-1.66322 1.95753,-3.01152 4.37224,-3.01152c2.41472,0 4.37224,1.3483 4.37224,3.01152z" fill="#4e6577" stroke="#445867" stroke-width="1.5" stroke-linecap="butt"/><path d="M229.63052,164.944l-0.13052,11.24301" fill="none" stroke="#445867" stroke-width="1.5" stroke-linecap="round"/><path d="M238.375,164.944l-0.13052,11.24301" fill="none" stroke="#445867" stroke-width="1.5" stroke-linecap="round"/><path d="M228,166.125c0,-0.41422 0.33578,-0.75 0.75,-0.75c0.41422,0 0.75,0.33578 0.75,0.75c0,0.41422 -0.33578,0.75 -0.75,0.75c-0.41422,0 -0.75,-0.33578 -0.75,-0.75z" fill="#445867" stroke="none" stroke-width="0.5" stroke-linecap="butt"/><path d="M230,168.625c0,-0.41422 0.33578,-0.75 0.75,-0.75c0.41422,0 0.75,0.33578 0.75,0.75c0,0.41422 -0.33578,0.75 -0.75,0.75c-0.41422,0 -0.75,-0.33578 -0.75,-0.75z" fill="#445867" stroke="none" stroke-width="0.5" stroke-linecap="butt"/><path d="M230.5,165.375c0,-0.41422 0.33578,-0.75 0.75,-0.75c0.41422,0 0.75,0.33578 0.75,0.75c0,0.41422 -0.33578,0.75 -0.75,0.75c-0.41422,0 -0.75,-0.33578 -0.75,-0.75z" fill="#445867" stroke="none" stroke-width="0.5" stroke-linecap="butt"/><path d="M231.625,163c0,-0.41422 0.33578,-0.75 0.75,-0.75c0.41422,0 0.75,0.33578 0.75,0.75c0,0.41422 -0.33578,0.75 -0.75,0.75c-0.41422,0 -0.75,-0.33578 -0.75,-0.75z" fill="#445867" stroke="none" stroke-width="0.5" stroke-linecap="butt"/><path d="M233.125,164.5c0,-0.41422 0.33578,-0.75 0.75,-0.75c0.41422,0 0.75,0.33578 0.75,0.75c0,0.41422 -0.33578,0.75 -0.75,0.75c-0.41422,0 -0.75,-0.33578 -0.75,-0.75z" fill="#445867" stroke="none" stroke-width="0.5" stroke-linecap="butt"/><path d="M236.5,164.25c0,-0.41422 0.33578,-0.75 0.75,-0.75c0.41422,0 0.75,0.33578 0.75,0.75c0,0.41422 -0.33578,0.75 -0.75,0.75c-0.41422,0 -0.75,-0.33578 -0.75,-0.75z" fill="#445867" stroke="none" stroke-width="0.5" stroke-linecap="butt"/><path d="M235.25,166.125c0,-0.41422 0.33578,-0.75 0.75,-0.75c0.41422,0 0.75,0.33578 0.75,0.75c0,0.41422 -0.33578,0.75 -0.75,0.75c-0.41422,0 -0.75,-0.33578 -0.75,-0.75z" fill="#445867" stroke="none" stroke-width="0.5" stroke-linecap="butt"/><path d="M238.5,167.625c0,-0.41422 0.33578,-0.75 0.75,-0.75c0.41422,0 0.75,0.33578 0.75,0.75c0,0.41422 -0.33578,0.75 -0.75,0.75c-0.41422,0 -0.75,-0.33578 -0.75,-0.75z" fill="#445867" stroke="none" stroke-width="0.5" stroke-linecap="butt"/><path d="M238.375,165.5c0,-0.41422 0.33578,-0.75 0.75,-0.75c0.41422,0 0.75,0.33578 0.75,0.75c0,0.41422 -0.33578,0.75 -0.75,0.75c-0.41422,0 -0.75,-0.33578 -0.75,-0.75z" fill="#445867" stroke="none" stroke-width="0.5" stroke-linecap="butt"/><path d="M238.125,171.125c0,-0.41422 0.33578,-0.75 0.75,-0.75c0.41422,0 0.75,0.33578 0.75,0.75c0,0.41422 -0.33578,0.75 -0.75,0.75c-0.41422,0 -0.75,-0.33578 -0.75,-0.75z" fill="#445867" stroke="none" stroke-width="0.5" stroke-linecap="butt"/><path d="M236.375,169.5c0,-0.41422 0.33578,-0.75 0.75,-0.75c0.41422,0 0.75,0.33578 0.75,0.75c0,0.41422 -0.33578,0.75 -0.75,0.75c-0.41422,0 -0.75,-0.33578 -0.75,-0.75z" fill="#445867" stroke="none" stroke-width="0.5" stroke-linecap="butt"/><path d="M234,168.25c0,-0.41422 0.33578,-0.75 0.75,-0.75c0.41422,0 0.75,0.33578 0.75,0.75c0,0.41422 -0.33578,0.75 -0.75,0.75c-0.41422,0 -0.75,-0.33578 -0.75,-0.75z" fill="#445867" stroke="none" stroke-width="0.5" stroke-linecap="butt"/><path d="M231.875,167.375c0,-0.41422 0.33578,-0.75 0.75,-0.75c0.41422,0 0.75,0.33578 0.75,0.75c0,0.41422 -0.33578,0.75 -0.75,0.75c-0.41422,0 -0.75,-0.33578 -0.75,-0.75z" fill="#445867" stroke="none" stroke-width="0.5" stroke-linecap="butt"/><path d="M228.25,171.25c0,-0.41422 0.33578,-0.75 0.75,-0.75c0.41422,0 0.75,0.33578 0.75,0.75c0,0.41422 -0.33578,0.75 -0.75,0.75c-0.41422,0 -0.75,-0.33578 -0.75,-0.75z" fill="#445867" stroke="none" stroke-width="0.5" stroke-linecap="butt"/><path d="M227.875,167.875c0,-0.41422 0.33578,-0.75 0.75,-0.75c0.41422,0 0.75,0.33578 0.75,0.75c0,0.41422 -0.33578,0.75 -0.75,0.75c-0.41422,0 -0.75,-0.33578 -0.75,-0.75z" fill="#445867" stroke="none" stroke-width="0.5" stroke-linecap="butt"/><path d="M228.375,174c0,-0.41422 0.33578,-0.75 0.75,-0.75c0.41422,0 0.75,0.33578 0.75,0.75c0,0.41422 -0.33578,0.75 -0.75,0.75c-0.41422,0 -0.75,-0.33578 -0.75,-0.75z" fill="#445867" stroke="none" stroke-width="0.5" stroke-linecap="butt"/><path d="M231.125,171.375c0,-0.41422 0.33578,-0.75 0.75,-0.75c0.41422,0 0.75,0.33578 0.75,0.75c0,0.41422 -0.33578,0.75 -0.75,0.75c-0.41422,0 -0.75,-0.33578 -0.75,-0.75z" fill="#445867" stroke="none" stroke-width="0.5" stroke-linecap="butt"/><path d="M232.25,170c0,-0.41422 0.33578,-0.75 0.75,-0.75c0.41422,0 0.75,0.33578 0.75,0.75c0,0.41422 -0.33578,0.75 -0.75,0.75c-0.41422,0 -0.75,-0.33578 -0.75,-0.75z" fill="#445867" stroke="none" stroke-width="0.5" stroke-linecap="butt"/><path d="M234.375,170.875c0,-0.41422 0.33578,-0.75 0.75,-0.75c0.41422,0 0.75,0.33578 0.75,0.75c0,0.41422 -0.33578,0.75 -0.75,0.75c-0.41422,0 -0.75,-0.33578 -0.75,-0.75z" fill="#445867" stroke="none" stroke-width="0.5" stroke-linecap="butt"/><path d="M237.625,172.625c0,-0.41422 0.33578,-0.75 0.75,-0.75c0.41422,0 0.75,0.33578 0.75,0.75c0,0.41422 -0.33578,0.75 -0.75,0.75c-0.41422,0 -0.75,-0.33578 -0.75,-0.75z" fill="#445867" stroke="none" stroke-width="0.5" stroke-linecap="butt"/><path d="M235.75,172.25c0,-0.41422 0.33578,-0.75 0.75,-0.75c0.41422,0 0.75,0.33578 0.75,0.75c0,0.41422 -0.33578,0.75 -0.75,0.75c-0.41422,0 -0.75,-0.33578 -0.75,-0.75z" fill="#445867" stroke="none" stroke-width="0.5" stroke-linecap="butt"/><path d="M230.375,173.5c0,-0.41422 0.33578,-0.75 0.75,-0.75c0.41422,0 0.75,0.33578 0.75,0.75c0,0.17256 -0.05828,0.33152 -0.15623,0.45825c0.24129,0.12465 0.40623,0.37644 0.40623,0.66675c0,0.41422 -0.33578,0.75 -0.75,0.75c-0.41422,0 -0.75,-0.33578 -0.75,-0.75c0,-0.17256 0.05828,-0.33152 0.15623,-0.45825c-0.24129,-0.12465 -0.40623,-0.37644 -0.40623,-0.66675z" fill="#445867" stroke="none" stroke-width="0.5" stroke-linecap="butt"/><path d="M233.25,172.25c0,-0.41422 0.33578,-0.75 0.75,-0.75c0.41422,0 0.75,0.33578 0.75,0.75c0,0.41422 -0.33578,0.75 -0.75,0.75c-0.41422,0 -0.75,-0.33578 -0.75,-0.75zM233.25,173.75c0,-0.41422 0.33578,-0.75 0.75,-0.75c0.41422,0 0.75,0.33578 0.75,0.75c0,0.41422 -0.33578,0.75 -0.75,0.75c-0.41422,0 -0.75,-0.33578 -0.75,-0.75z" fill="#445867" stroke="none" stroke-width="0.5" stroke-linecap="butt"/><path d="M235.5,174.5c0,-0.41422 0.33578,-0.75 0.75,-0.75c0.41422,0 0.75,0.33578 0.75,0.75c0,0.41422 -0.33578,0.75 -0.75,0.75c-0.41422,0 -0.75,-0.33578 -0.75,-0.75z" fill="#445867" stroke="none" stroke-width="0.5" stroke-linecap="butt"/><path d="M234.875,177.375c0,-0.41422 0.33578,-0.75 0.75,-0.75c0.41422,0 0.75,0.33578 0.75,0.75c0,0.41422 -0.33578,0.75 -0.75,0.75c-0.41422,0 -0.75,-0.33578 -0.75,-0.75z" fill="#445867" stroke="none" stroke-width="0.5" stroke-linecap="butt"/><path d="M234.125,175.5c0,-0.41422 0.33578,-0.75 0.75,-0.75c0.41422,0 0.75,0.33578 0.75,0.75c0,0.41422 -0.33578,0.75 -0.75,0.75c-0.41422,0 -0.75,-0.33578 -0.75,-0.75z" fill="#445867" stroke="none" stroke-width="0.5" stroke-linecap="butt"/><path d="M231.125,176.75c0,-0.41422 0.33578,-0.75 0.75,-0.75c0.41422,0 0.75,0.33578 0.75,0.75c0,0.41422 -0.33578,0.75 -0.75,0.75c-0.41422,0 -0.75,-0.33578 -0.75,-0.75z" fill="#445867" stroke="none" stroke-width="0.5" stroke-linecap="butt"/><path d="M232.25,175.375c0,-0.41422 0.33578,-0.75 0.75,-0.75c0.41422,0 0.75,0.33578 0.75,0.75c0,0.41422 -0.33578,0.75 -0.75,0.75c-0.41422,0 -0.75,-0.33578 -0.75,-0.75z" fill="#445867" stroke="none" stroke-width="0.5" stroke-linecap="butt"/><path d="M233.125,177.25c0,-0.41422 0.33578,-0.75 0.75,-0.75c0.41422,0 0.75,0.33578 0.75,0.75c0,0.41422 -0.33578,0.75 -0.75,0.75c-0.41422,0 -0.75,-0.33578 -0.75,-0.75z" fill="#445867" stroke="none" stroke-width="0.5" stroke-linecap="butt"/><path d="M236.125,176.25c0,-0.41422 0.33578,-0.75 0.75,-0.75c0.41422,0 0.75,0.33578 0.75,0.75c0,0.41422 -0.33578,0.75 -0.75,0.75c-0.41422,0 -0.75,-0.33578 -0.75,-0.75z" fill="#445867" stroke="none" stroke-width="0.5" stroke-linecap="butt"/><path d="M229.5,176.25c0,-0.41422 0.33578,-0.75 0.75,-0.75c0.41422,0 0.75,0.33578 0.75,0.75c0,0.41422 -0.33578,0.75 -0.75,0.75c-0.41422,0 -0.75,-0.33578 -0.75,-0.75z" fill="#445867" stroke="none" stroke-width="0.5" stroke-linecap="butt"/><path d="M228.375,177.25c0,-0.41422 0.33578,-0.75 0.75,-0.75c0.41422,0 0.75,0.33578 0.75,0.75c0,0.41422 -0.33578,0.75 -0.75,0.75c-0.41422,0 -0.75,-0.33578 -0.75,-0.75z" fill="#445867" stroke="none" stroke-width="0.5" stroke-linecap="butt"/><path d="M230.125,178.75c0,-0.41422 0.33578,-0.75 0.75,-0.75c0.41422,0 0.75,0.33578 0.75,0.75c0,0.41422 -0.33578,0.75 -0.75,0.75c-0.41422,0 -0.75,-0.33578 -0.75,-0.75z" fill="#445867" stroke="none" stroke-width="0.5" stroke-linecap="butt"/><path d="M234.875,179.25c0,-0.41422 0.33578,-0.75 0.75,-0.75c0.41422,0 0.75,0.33578 0.75,0.75c0,0.41422 -0.33578,0.75 -0.75,0.75c-0.41422,0 -0.75,-0.33578 -0.75,-0.75z" fill="#445867" stroke="none" stroke-width="0.5" stroke-linecap="butt"/><path d="M237.375,178c0,-0.41422 0.33578,-0.75 0.75,-0.75c0.41422,0 0.75,0.33578 0.75,0.75c0,0.41422 -0.33578,0.75 -0.75,0.75c-0.41422,0 -0.75,-0.33578 -0.75,-0.75z" fill="#445867" stroke="none" stroke-width="0.5" stroke-linecap="butt"/><path d="M238,176c0,-0.41422 0.33578,-0.75 0.75,-0.75c0.41422,0 0.75,0.33578 0.75,0.75c0,0.41422 -0.33578,0.75 -0.75,0.75c-0.41422,0 -0.75,-0.33578 -0.75,-0.75z" fill="#445867" stroke="none" stroke-width="0.5" stroke-linecap="butt"/><path d="M237.5,162.5c0,-0.41422 0.33578,-0.75 0.75,-0.75c0.41422,0 0.75,0.33578 0.75,0.75c0,0.41422 -0.33578,0.75 -0.75,0.75c-0.41422,0 -0.75,-0.33578 -0.75,-0.75z" fill="#445867" stroke="none" stroke-width="0.5" stroke-linecap="butt"/><path d="M232.875,161.25c0,-0.41422 0.33578,-0.75 0.75,-0.75c0.41422,0 0.75,0.33578 0.75,0.75c0,0.41422 -0.33578,0.75 -0.75,0.75c-0.41422,0 -0.75,-0.33578 -0.75,-0.75z" fill="#445867" stroke="none" stroke-width="0.5" stroke-linecap="butt"/><path d="M228.75,163.875c0,-0.41422 0.33578,-0.75 0.75,-0.75c0.41422,0 0.75,0.33578 0.75,0.75c0,0.41422 -0.33578,0.75 -0.75,0.75c-0.41422,0 -0.75,-0.33578 -0.75,-0.75z" fill="#445867" stroke="none" stroke-width="0.5" stroke-linecap="butt"/><path d="M229.75,162.375c0,-0.41422 0.33578,-0.75 0.75,-0.75c0.41422,0 0.75,0.33578 0.75,0.75c0,0.41422 -0.33578,0.75 -0.75,0.75c-0.41422,0 -0.75,-0.33578 -0.75,-0.75z" fill="#445867" stroke="none" stroke-width="0.5" stroke-linecap="butt"/><path d="M236,161.5c0,-0.41422 0.33578,-0.75 0.75,-0.75c0.41422,0 0.75,0.33578 0.75,0.75c0,0.41422 -0.33578,0.75 -0.75,0.75c-0.41422,0 -0.75,-0.33578 -0.75,-0.75z" fill="#445867" stroke="none" stroke-width="0.5" stroke-linecap="butt"/><path d="M245.99725,161.93248c2.41472,0 4.37224,1.3483 4.37224,3.01152c0,1.66322 -1.95752,3.01152 -4.37224,3.01152c-2.41472,0 -4.37224,-1.3483 -4.37224,-3.01152c0,-1.66322 1.95753,-3.01152 4.37224,-3.01152z" data-paper-data="{&quot;index&quot;:null}" fill="#526a7c" stroke="#445867" stroke-width="1.5" stroke-linecap="butt"/><path d="M242.34283,175.15449v-10.21049h8.02666v10.21049z" data-paper-data="{&quot;index&quot;:null}" fill="#526a7c" stroke="none" stroke-width="0" stroke-linecap="butt"/><path d="M246.12776,173.17549c2.41472,0 4.37224,1.3483 4.37224,3.01152c0,1.66322 -1.95753,3.01152 -4.37224,3.01152c-2.41472,0 -4.37224,-1.3483 -4.37224,-3.01152c0,-1.66322 1.95752,-3.01152 4.37224,-3.01152z" data-paper-data="{&quot;index&quot;:null}" fill="#4e6577" stroke="#445867" stroke-width="1.5" stroke-linecap="butt"/><path d="M250.5,176.18701l-0.13052,-11.24301" data-paper-data="{&quot;index&quot;:null}" fill="none" stroke="#445867" stroke-width="1.5" stroke-linecap="round"/><path d="M241.75552,176.18701l-0.13052,-11.24301" data-paper-data="{&quot;index&quot;:null}" fill="none" stroke="#445867" stroke-width="1.5" stroke-linecap="round"/><path d="M251.25,166.875c-0.41422,0 -0.75,-0.33578 -0.75,-0.75c0,-0.41422 0.33578,-0.75 0.75,-0.75c0.41422,0 0.75,0.33578 0.75,0.75c0,0.41422 -0.33578,0.75 -0.75,0.75z" data-paper-data="{&quot;index&quot;:null}" fill="#445867" stroke="none" stroke-width="0.5" stroke-linecap="butt"/><path d="M249.25,169.375c-0.41422,0 -0.75,-0.33578 -0.75,-0.75c0,-0.41422 0.33578,-0.75 0.75,-0.75c0.41422,0 0.75,0.33578 0.75,0.75c0,0.41422 -0.33578,0.75 -0.75,0.75z" data-paper-data="{&quot;index&quot;:null}" fill="#445867" stroke="none" stroke-width="0.5" stroke-linecap="butt"/><path d="M248.75,166.125c-0.41422,0 -0.75,-0.33578 -0.75,-0.75c0,-0.41422 0.33578,-0.75 0.75,-0.75c0.41422,0 0.75,0.33578 0.75,0.75c0,0.41422 -0.33578,0.75 -0.75,0.75z" data-paper-data="{&quot;index&quot;:null}" fill="#445867" stroke="none" stroke-width="0.5" stroke-linecap="butt"/><path d="M247.625,163.75c-0.41422,0 -0.75,-0.33578 -0.75,-0.75c0,-0.41422 0.33578,-0.75 0.75,-0.75c0.41422,0 0.75,0.33578 0.75,0.75c0,0.41422 -0.33578,0.75 -0.75,0.75z" data-paper-data="{&quot;index&quot;:null}" fill="#445867" stroke="none" stroke-width="0.5" stroke-linecap="butt"/><path d="M246.125,165.25c-0.41422,0 -0.75,-0.33578 -0.75,-0.75c0,-0.41422 0.33578,-0.75 0.75,-0.75c0.41422,0 0.75,0.33578 0.75,0.75c0,0.41422 -0.33578,0.75 -0.75,0.75z" data-paper-data="{&quot;index&quot;:null}" fill="#445867" stroke="none" stroke-width="0.5" stroke-linecap="butt"/><path d="M242.75,165c-0.41422,0 -0.75,-0.33578 -0.75,-0.75c0,-0.41422 0.33578,-0.75 0.75,-0.75c0.41422,0 0.75,0.33578 0.75,0.75c0,0.41422 -0.33578,0.75 -0.75,0.75z" data-paper-data="{&quot;index&quot;:null}" fill="#445867" stroke="none" stroke-width="0.5" stroke-linecap="butt"/><path d="M244,166.875c-0.41422,0 -0.75,-0.33578 -0.75,-0.75c0,-0.41422 0.33578,-0.75 0.75,-0.75c0.41422,0 0.75,0.33578 0.75,0.75c0,0.41422 -0.33578,0.75 -0.75,0.75z" data-paper-data="{&quot;index&quot;:null}" fill="#445867" stroke="none" stroke-width="0.5" stroke-linecap="butt"/><path d="M240.75,168.375c-0.41422,0 -0.75,-0.33578 -0.75,-0.75c0,-0.41422 0.33578,-0.75 0.75,-0.75c0.41422,0 0.75,0.33578 0.75,0.75c0,0.41422 -0.33578,0.75 -0.75,0.75z" data-paper-data="{&quot;index&quot;:null}" fill="#445867" stroke="none" stroke-width="0.5" stroke-linecap="butt"/><path d="M240.875,166.25c-0.41422,0 -0.75,-0.33578 -0.75,-0.75c0,-0.41422 0.33578,-0.75 0.75,-0.75c0.41422,0 0.75,0.33578 0.75,0.75c0,0.41422 -0.33578,0.75 -0.75,0.75z" data-paper-data="{&quot;index&quot;:null}" fill="#445867" stroke="none" stroke-width="0.5" stroke-linecap="butt"/><path d="M241.125,171.875c-0.41422,0 -0.75,-0.33578 -0.75,-0.75c0,-0.41422 0.33578,-0.75 0.75,-0.75c0.41422,0 0.75,0.33578 0.75,0.75c0,0.41422 -0.33578,0.75 -0.75,0.75z" data-paper-data="{&quot;index&quot;:null}" fill="#445867" stroke="none" stroke-width="0.5" stroke-linecap="butt"/><path d="M242.875,170.25c-0.41422,0 -0.75,-0.33578 -0.75,-0.75c0,-0.41422 0.33578,-0.75 0.75,-0.75c0.41422,0 0.75,0.33578 0.75,0.75c0,0.41422 -0.33578,0.75 -0.75,0.75z" data-paper-data="{&quot;index&quot;:null}" fill="#445867" stroke="none" stroke-width="0.5" stroke-linecap="butt"/><path d="M245.25,169c-0.41422,0 -0.75,-0.33578 -0.75,-0.75c0,-0.41422 0.33578,-0.75 0.75,-0.75c0.41422,0 0.75,0.33578 0.75,0.75c0,0.41422 -0.33578,0.75 -0.75,0.75z" data-paper-data="{&quot;index&quot;:null}" fill="#445867" stroke="none" stroke-width="0.5" stroke-linecap="butt"/><path d="M247.375,168.125c-0.41422,0 -0.75,-0.33578 -0.75,-0.75c0,-0.41422 0.33578,-0.75 0.75,-0.75c0.41422,0 0.75,0.33578 0.75,0.75c0,0.41422 -0.33578,0.75 -0.75,0.75z" data-paper-data="{&quot;index&quot;:null}" fill="#445867" stroke="none" stroke-width="0.5" stroke-linecap="butt"/><path d="M251,172c-0.41422,0 -0.75,-0.33578 -0.75,-0.75c0,-0.41422 0.33578,-0.75 0.75,-0.75c0.41422,0 0.75,0.33578 0.75,0.75c0,0.41422 -0.33578,0.75 -0.75,0.75z" data-paper-data="{&quot;index&quot;:null}" fill="#445867" stroke="none" stroke-width="0.5" stroke-linecap="butt"/><path d="M251.375,168.625c-0.41422,0 -0.75,-0.33578 -0.75,-0.75c0,-0.41422 0.33578,-0.75 0.75,-0.75c0.41422,0 0.75,0.33578 0.75,0.75c0,0.41422 -0.33578,0.75 -0.75,0.75z" data-paper-data="{&quot;index&quot;:null}" fill="#445867" stroke="none" stroke-width="0.5" stroke-linecap="butt"/><path d="M250.875,174.75c-0.41422,0 -0.75,-0.33578 -0.75,-0.75c0,-0.41422 0.33578,-0.75 0.75,-0.75c0.41422,0 0.75,0.33578 0.75,0.75c0,0.41422 -0.33578,0.75 -0.75,0.75z" data-paper-data="{&quot;index&quot;:null}" fill="#445867" stroke="none" stroke-width="0.5" stroke-linecap="butt"/><path d="M248.125,172.125c-0.41422,0 -0.75,-0.33578 -0.75,-0.75c0,-0.41422 0.33578,-0.75 0.75,-0.75c0.41422,0 0.75,0.33578 0.75,0.75c0,0.41422 -0.33578,0.75 -0.75,0.75z" data-paper-data="{&quot;index&quot;:null}" fill="#445867" stroke="none" stroke-width="0.5" stroke-linecap="butt"/><path d="M247,170.75c-0.41422,0 -0.75,-0.33578 -0.75,-0.75c0,-0.41422 0.33578,-0.75 0.75,-0.75c0.41422,0 0.75,0.33578 0.75,0.75c0,0.41422 -0.33578,0.75 -0.75,0.75z" data-paper-data="{&quot;index&quot;:null}" fill="#445867" stroke="none" stroke-width="0.5" stroke-linecap="butt"/><path d="M244.875,171.625c-0.41422,0 -0.75,-0.33578 -0.75,-0.75c0,-0.41422 0.33578,-0.75 0.75,-0.75c0.41422,0 0.75,0.33578 0.75,0.75c0,0.41422 -0.33578,0.75 -0.75,0.75z" data-paper-data="{&quot;index&quot;:null}" fill="#445867" stroke="none" stroke-width="0.5" stroke-linecap="butt"/><path d="M241.625,173.375c-0.41422,0 -0.75,-0.33578 -0.75,-0.75c0,-0.41422 0.33578,-0.75 0.75,-0.75c0.41422,0 0.75,0.33578 0.75,0.75c0,0.41422 -0.33578,0.75 -0.75,0.75z" data-paper-data="{&quot;index&quot;:null}" fill="#445867" stroke="none" stroke-width="0.5" stroke-linecap="butt"/><path d="M243.5,173c-0.41422,0 -0.75,-0.33578 -0.75,-0.75c0,-0.41422 0.33578,-0.75 0.75,-0.75c0.41422,0 0.75,0.33578 0.75,0.75c0,0.41422 -0.33578,0.75 -0.75,0.75z" data-paper-data="{&quot;index&quot;:null}" fill="#445867" stroke="none" stroke-width="0.5" stroke-linecap="butt"/><path d="M249.21877,174.16675c0.09795,0.12673 0.15623,0.28569 0.15623,0.45825c0,0.41422 -0.33578,0.75 -0.75,0.75c-0.41422,0 -0.75,-0.33578 -0.75,-0.75c0,-0.29031 0.16494,-0.5421 0.40623,-0.66675c-0.09795,-0.12673 -0.15623,-0.28569 -0.15623,-0.45825c0,-0.41422 0.33578,-0.75 0.75,-0.75c0.41422,0 0.75,0.33578 0.75,0.75c0,0.29031 -0.16494,0.5421 -0.40623,0.66675z" data-paper-data="{&quot;index&quot;:null}" fill="#445867" stroke="none" stroke-width="0.5" stroke-linecap="butt"/><path d="M246,173c-0.41422,0 -0.75,-0.33578 -0.75,-0.75c0,-0.41422 0.33578,-0.75 0.75,-0.75c0.41422,0 0.75,0.33578 0.75,0.75c0,0.41422 -0.33578,0.75 -0.75,0.75zM246,174.5c-0.41422,0 -0.75,-0.33578 -0.75,-0.75c0,-0.41422 0.33578,-0.75 0.75,-0.75c0.41422,0 0.75,0.33578 0.75,0.75c0,0.41422 -0.33578,0.75 -0.75,0.75z" data-paper-data="{&quot;index&quot;:null}" fill="#445867" stroke="none" stroke-width="0.5" stroke-linecap="butt"/><path d="M243.75,175.25c-0.41422,0 -0.75,-0.33578 -0.75,-0.75c0,-0.41422 0.33578,-0.75 0.75,-0.75c0.41422,0 0.75,0.33578 0.75,0.75c0,0.41422 -0.33578,0.75 -0.75,0.75z" data-paper-data="{&quot;index&quot;:null}" fill="#445867" stroke="none" stroke-width="0.5" stroke-linecap="butt"/><path d="M244.375,178.125c-0.41422,0 -0.75,-0.33578 -0.75,-0.75c0,-0.41422 0.33578,-0.75 0.75,-0.75c0.41422,0 0.75,0.33578 0.75,0.75c0,0.41422 -0.33578,0.75 -0.75,0.75z" data-paper-data="{&quot;index&quot;:null}" fill="#445867" stroke="none" stroke-width="0.5" stroke-linecap="butt"/><path d="M245.125,176.25c-0.41422,0 -0.75,-0.33578 -0.75,-0.75c0,-0.41422 0.33578,-0.75 0.75,-0.75c0.41422,0 0.75,0.33578 0.75,0.75c0,0.41422 -0.33578,0.75 -0.75,0.75z" data-paper-data="{&quot;index&quot;:null}" fill="#445867" stroke="none" stroke-width="0.5" stroke-linecap="butt"/><path d="M248.125,177.5c-0.41422,0 -0.75,-0.33578 -0.75,-0.75c0,-0.41422 0.33578,-0.75 0.75,-0.75c0.41422,0 0.75,0.33578 0.75,0.75c0,0.41422 -0.33578,0.75 -0.75,0.75z" data-paper-data="{&quot;index&quot;:null}" fill="#445867" stroke="none" stroke-width="0.5" stroke-linecap="butt"/><path d="M247,176.125c-0.41422,0 -0.75,-0.33578 -0.75,-0.75c0,-0.41422 0.33578,-0.75 0.75,-0.75c0.41422,0 0.75,0.33578 0.75,0.75c0,0.41422 -0.33578,0.75 -0.75,0.75z" data-paper-data="{&quot;index&quot;:null}" fill="#445867" stroke="none" stroke-width="0.5" stroke-linecap="butt"/><path d="M246.125,178c-0.41422,0 -0.75,-0.33578 -0.75,-0.75c0,-0.41422 0.33578,-0.75 0.75,-0.75c0.41422,0 0.75,0.33578 0.75,0.75c0,0.41422 -0.33578,0.75 -0.75,0.75z" data-paper-data="{&quot;index&quot;:null}" fill="#445867" stroke="none" stroke-width="0.5" stroke-linecap="butt"/><path d="M243.125,177c-0.41422,0 -0.75,-0.33578 -0.75,-0.75c0,-0.41422 0.33578,-0.75 0.75,-0.75c0.41422,0 0.75,0.33578 0.75,0.75c0,0.41422 -0.33578,0.75 -0.75,0.75z" data-paper-data="{&quot;index&quot;:null}" fill="#445867" stroke="none" stroke-width="0.5" stroke-linecap="butt"/><path d="M249.75,177c-0.41422,0 -0.75,-0.33578 -0.75,-0.75c0,-0.41422 0.33578,-0.75 0.75,-0.75c0.41422,0 0.75,0.33578 0.75,0.75c0,0.41422 -0.33578,0.75 -0.75,0.75z" data-paper-data="{&quot;index&quot;:null}" fill="#445867" stroke="none" stroke-width="0.5" stroke-linecap="butt"/><path d="M250.875,178c-0.41422,0 -0.75,-0.33578 -0.75,-0.75c0,-0.41422 0.33578,-0.75 0.75,-0.75c0.41422,0 0.75,0.33578 0.75,0.75c0,0.41422 -0.33578,0.75 -0.75,0.75z" data-paper-data="{&quot;index&quot;:null}" fill="#445867" stroke="none" stroke-width="0.5" stroke-linecap="butt"/><path d="M249.125,179.5c-0.41422,0 -0.75,-0.33578 -0.75,-0.75c0,-0.41422 0.33578,-0.75 0.75,-0.75c0.41422,0 0.75,0.33578 0.75,0.75c0,0.41422 -0.33578,0.75 -0.75,0.75z" data-paper-data="{&quot;index&quot;:null}" fill="#445867" stroke="none" stroke-width="0.5" stroke-linecap="butt"/><path d="M244.375,180c-0.41422,0 -0.75,-0.33578 -0.75,-0.75c0,-0.41422 0.33578,-0.75 0.75,-0.75c0.41422,0 0.75,0.33578 0.75,0.75c0,0.41422 -0.33578,0.75 -0.75,0.75z" data-paper-data="{&quot;index&quot;:null}" fill="#445867" stroke="none" stroke-width="0.5" stroke-linecap="butt"/><path d="M241.875,178.75c-0.41422,0 -0.75,-0.33578 -0.75,-0.75c0,-0.41422 0.33578,-0.75 0.75,-0.75c0.41422,0 0.75,0.33578 0.75,0.75c0,0.41422 -0.33578,0.75 -0.75,0.75z" data-paper-data="{&quot;index&quot;:null}" fill="#445867" stroke="none" stroke-width="0.5" stroke-linecap="butt"/><path d="M241.25,176.75c-0.41422,0 -0.75,-0.33578 -0.75,-0.75c0,-0.41422 0.33578,-0.75 0.75,-0.75c0.41422,0 0.75,0.33578 0.75,0.75c0,0.41422 -0.33578,0.75 -0.75,0.75z" data-paper-data="{&quot;index&quot;:null}" fill="#445867" stroke="none" stroke-width="0.5" stroke-linecap="butt"/><path d="M241.75,163.25c-0.41422,0 -0.75,-0.33578 -0.75,-0.75c0,-0.41422 0.33578,-0.75 0.75,-0.75c0.41422,0 0.75,0.33578 0.75,0.75c0,0.41422 -0.33578,0.75 -0.75,0.75z" data-paper-data="{&quot;index&quot;:null}" fill="#445867" stroke="none" stroke-width="0.5" stroke-linecap="butt"/><path d="M246.375,162c-0.41422,0 -0.75,-0.33578 -0.75,-0.75c0,-0.41422 0.33578,-0.75 0.75,-0.75c0.41422,0 0.75,0.33578 0.75,0.75c0,0.41422 -0.33578,0.75 -0.75,0.75z" data-paper-data="{&quot;index&quot;:null}" fill="#445867" stroke="none" stroke-width="0.5" stroke-linecap="butt"/><path d="M250.5,164.625c-0.41422,0 -0.75,-0.33578 -0.75,-0.75c0,-0.41422 0.33578,-0.75 0.75,-0.75c0.41422,0 0.75,0.33578 0.75,0.75c0,0.41422 -0.33578,0.75 -0.75,0.75z" data-paper-data="{&quot;index&quot;:null}" fill="#445867" stroke="none" stroke-width="0.5" stroke-linecap="butt"/><path d="M249.5,163.125c-0.41422,0 -0.75,-0.33578 -0.75,-0.75c0,-0.41422 0.33578,-0.75 0.75,-0.75c0.41422,0 0.75,0.33578 0.75,0.75c0,0.41422 -0.33578,0.75 -0.75,0.75z" data-paper-data="{&quot;index&quot;:null}" fill="#445867" stroke="none" stroke-width="0.5" stroke-linecap="butt"/><path d="M243.25,162.25c-0.41422,0 -0.75,-0.33578 -0.75,-0.75c0,-0.41422 0.33578,-0.75 0.75,-0.75c0.41422,0 0.75,0.33578 0.75,0.75c0,0.41422 -0.33578,0.75 -0.75,0.75z" data-paper-data="{&quot;index&quot;:null}" fill="#445867" stroke="none" stroke-width="0.5" stroke-linecap="butt"/><path d="M221.5625,177.58644v-17.26605h8.02666v17.26605z" fill="#707070" stroke="#5a5a5a" stroke-width="1.5" stroke-linecap="butt"/><path d="M250.41085,177.58644v-17.26605h8.02666v17.26605z" fill="#707070" stroke="#5a5a5a" stroke-width="1.5" stroke-linecap="butt"/><path d="M221.5625,198.60249v-21.01605h36.875v21.01605z" fill="#707070" stroke="#5a5a5a" stroke-width="1.5" stroke-linecap="butt"/><path d="M228.21429,191.8487v-10.21049h23.57143v10.21049z" fill="url(#color-2)" stroke="#5a5a5a" stroke-width="1.5" stroke-linecap="butt"/><path d="M240,182.72567v9.01381" fill="none" stroke="#5a5a5a" stroke-width="1.5" stroke-linecap="round"/><path d="M246.1875,182.41071v9.33194" fill="none" stroke="#5a5a5a" stroke-width="1.5" stroke-linecap="round"/><path d="M234.4375,182.51676v9.33194" fill="none" stroke="#5a5a5a" stroke-width="1.5" stroke-linecap="round"/></g></g></svg>