<svg version="1.1" xmlns="http://www.w3.org/2000/svg" xmlns:xlink="http://www.w3.org/1999/xlink" width="44.85116" height="50.03677" viewBox="0,0,44.85116,50.03677"><g transform="translate(-217.57444,-154.9816)"><g data-paper-data="{&quot;isPaintingLayer&quot;:true}" fill-rule="nonzero" stroke="none" stroke-linecap="butt" stroke-linejoin="miter" stroke-miterlimit="10" stroke-dasharray="" stroke-dashoffset="0" style="mix-blend-mode: normal"><path d="M239.51051,191.57201c-5.84704,-1.01379 -9.76515,-6.57561 -8.75135,-12.42265c1.01379,-5.84704 6.5756,-9.76515 12.42264,-8.75135c5.84704,1.01379 9.76516,6.5756 8.75136,12.42265c-1.01379,5.84704 -6.57561,9.76516 -12.42265,8.75136z" fill="#da0000" stroke-width="0"/><path d="M225.12991,176.22898c-1.1683,-1.76252 -2.01699,-3.5946 -2.0174,-5.45257c-0.00155,-6.87707 8.41094,-7.57548 13.43496,-6.0055c1.57221,2.21224 2.81742,4.52882 4.40958,6.729c0.13693,-4.10914 3.01257,-9.69499 4.21788,-12.73209c0.42277,-1.06532 1.21036,-3.74845 2.79167,-3.78562c1.83144,-0.04301 2.55831,2.24604 3.0999,3.45425c2.56545,5.89381 5.50942,18.51424 -0.86511,23.29818c-0.58288,0.43743 1.4957,-0.27955 2.18587,-0.04546c2.02595,0.68718 4.26205,2.40452 5.8822,3.7488c0.92731,0.87377 1.87742,1.69059 2.65575,2.70814c2.19869,2.87451 2.35797,6.38144 -2.09927,6.60662c-5.46751,0.27621 -9.48097,-1.91187 -14.34263,-3.53913c-0.49692,-0.16636 0.42433,0.96274 0.56061,1.46876c0.43919,1.63092 0.86244,3.26562 1.31087,4.89452c0.68502,2.506 2.13408,7.74749 -2.59061,7.42748c-3.35026,-0.22691 -8.86354,-7.30227 -11.40201,-9.32047c-1.21695,-0.96753 -4.08874,-1.40128 -4.56392,-3.10645c-0.35712,-1.28157 1.04343,-5.13778 2.62444,-7.18423c-3.64853,1.21038 -11.16079,1.11028 -12.2955,-0.61701c-1.34775,-2.05163 0.04109,-3.69548 1.27005,-4.96951c1.47679,-1.53096 3.52059,-2.75863 5.73269,-3.57771z" fill="#da0000" stroke-width="0.5"/><path d="M252.40416,190.21269c0.79631,2.39481 1.44759,4.83641 2.0308,7.29316l-0.01045,0.07791l0.02312,-0.00342l0.27799,1.87954c0.0799,0.51002 -0.06664,1.0503 -0.4455,1.45761c-0.59567,0.64041 -1.56067,0.73177 -2.26063,0.25107l-1.49455,-0.9879l0.30352,-0.45919c-2.21849,-1.1833 -4.95024,-2.86845 -5.97646,-4.30172c-0.00343,0.09805 -0.00944,0.18574 -0.01804,0.25702c-0.12978,1.0742 -0.97646,4.62779 -1.92285,4.82927c-4.40262,0.93727 -4.74734,-8.11253 -6.71642,-9.94406c-1.27636,-1.1872 -5.74488,-1.19219 -7.11456,-1.31015c0.02834,-1.23448 -0.21618,-2.50593 0.085,-3.70344c0.16276,-0.64715 1.66431,-0.7448 0.94667,-1.59585c-1.44234,-1.71042 -3.7207,-2.96551 -5.53579,-4.22651l-1.47841,-0.97722c-0.08871,-0.05642 -0.17354,-0.12167 -0.25328,-0.19584c-0.70465,-0.65543 -0.74457,-1.758 -0.08914,-2.46265c0.43987,-0.4729 1.08111,-0.6464 1.66832,-0.51127l1.67572,0.35506l-0.08709,0.41097c3.38857,0.16079 6.19776,1.3734 9.91058,1.51073c1.14488,0.04234 -0.76818,-2.1588 -1.16954,-3.23184l0.00062,-0.06977l-0.02042,0.00589l-0.47527,-1.64566c-0.17723,-0.57591 -0.05056,-1.22802 0.38932,-1.70094c0.53385,-0.57395 1.36435,-0.7069 2.03485,-0.38228l1.6857,0.76795l-0.15566,0.34168c0.55105,0.19088 1.09354,0.40495 1.62457,0.64037c0.84383,0.37408 3.01831,1.33539 2.73091,0.45825c-1.14292,-3.48788 -0.38777,-7.08613 -0.92166,-10.79776l0.06528,-0.18809l-0.0616,-0.00459l0.14155,-1.8969c0.02547,-0.38583 0.1789,-0.76571 0.46281,-1.07094c0.65543,-0.70465 1.758,-0.74457 2.46265,-0.08914l1.31466,1.22281l-0.48797,0.52463c3.28063,3.54951 4.41919,9.11634 6.63962,13.51728c0.59735,1.18397 0.42776,3.36896 1.63734,4.24092c2.34174,1.68809 7.25518,2.58334 5.87534,6.85497c-0.45171,1.39837 -5.21846,4.44395 -6.70596,4.89652c-0.19521,-0.01214 -0.39041,-0.02428 -0.58563,-0.03642z" fill="#f30000" stroke-width="0.5"/><path d="M250.76714,186.77164c1.03172,3.48603 0.57215,7.49021 -4.40153,4.72045c-0.97166,-0.54111 -1.20032,-2.58096 -2.30031,-2.41681c-1.16171,0.17336 -4.10573,4.38786 -5.75527,3.11538c-1.49879,-1.15618 -0.205,-4.05147 0.18173,-5.39035c1.19926,-4.11815 -3.33199,2.47874 -5.69709,-0.56073c-2.57274,-3.30634 5.68558,-6.05825 6.20848,-8.28909c0.18451,-0.78718 -1.93312,-0.62183 -1.95926,-1.42994c-0.02874,-0.88888 0.77085,-1.66081 1.44116,-2.24531c0.61996,-0.54058 2.29082,-0.73686 3.18352,-0.36535c-0.44861,-0.48788 -0.53279,-1.55319 -0.64904,-2.04655l-0.27458,-1.18122c-0.14002,-0.55746 0.14541,-1.14827 0.69218,-1.37528c0.40376,-0.16764 0.84741,-0.09432 1.17107,0.15388l0.9322,0.68949l-0.19129,0.25863c1.36362,0.9428 1.83953,2.11133 3.48549,3.56392c0.95513,0.84292 1.63501,-1.88571 3.39763,-0.76903c0.889,0.56321 0.64338,2.86797 0.55006,3.76482c-0.0724,0.69572 -0.92685,2.06728 -0.22763,2.08603c1.17011,0.03138 1.46054,-1.16474 2.94826,0.196c2.33679,2.13735 -1.00729,6.63841 -2.73577,7.52107z" fill="#f24c4c" stroke-width="0.5"/></g></g></svg>