<svg version="1.1" xmlns="http://www.w3.org/2000/svg" xmlns:xlink="http://www.w3.org/1999/xlink" width="38.375" height="35.72609" viewBox="0,0,38.375,35.72609"><defs><linearGradient x1="240" y1="182.53613" x2="240" y2="191.03613" gradientUnits="userSpaceOnUse" id="color-1"><stop offset="0" stop-color="#414141"/><stop offset="1" stop-color="#ff4900"/></linearGradient><radialGradient cx="240" cy="186.78613" r="10.09091" gradientUnits="userSpaceOnUse" id="color-2"><stop offset="0" stop-color="#ff7d00"/><stop offset="1" stop-color="#ff7d00" stop-opacity="0"/></radialGradient></defs><g transform="translate(-220.8125,-163.6264)"><g data-paper-data="{&quot;isPaintingLayer&quot;:true}" fill-rule="nonzero" stroke-linecap="butt" stroke-linejoin="miter" stroke-miterlimit="10" stroke-dasharray="" stroke-dashoffset="0" style="mix-blend-mode: normal"><path d="M221.5625,198.60249v-8.5h36.875v8.5z" fill="#8c8c8c" stroke="#707070" stroke-width="1.5"/><path d="M221.5625,194.35249v-20.39105h36.875v20.39105z" fill="#8c8c8c" stroke="#707070" stroke-width="1.5"/><path d="M225.11111,191.03613v-13.75833h29.77778v13.75833z" fill="#ef8f3c" stroke="#e06c00" stroke-width="1.5"/><path d="M246.16667,183.07362c0,-0.41422 0.33578,-0.75 0.75,-0.75c0.41422,0 0.75,0.33578 0.75,0.75c0,0.41422 -0.33578,0.75 -0.75,0.75c-0.41422,0 -0.75,-0.33578 -0.75,-0.75z" fill="#e06c00" stroke="none" stroke-width="0.5"/><path d="M243.29167,182.94862c0,-0.41422 0.33578,-0.75 0.75,-0.75c0.41422,0 0.75,0.33578 0.75,0.75c0,0.41422 -0.33578,0.75 -0.75,0.75c-0.41422,0 -0.75,-0.33578 -0.75,-0.75z" fill="#e06c00" stroke="none" stroke-width="0.5"/><path d="M240.54167,182.82362c0,-0.41422 0.33578,-0.75 0.75,-0.75c0.41422,0 0.75,0.33578 0.75,0.75c0,0.41422 -0.33578,0.75 -0.75,0.75c-0.41422,0 -0.75,-0.33578 -0.75,-0.75z" fill="#e06c00" stroke="none" stroke-width="0.5"/><path d="M237.61111,183.19862c0,-0.41422 0.33578,-0.75 0.75,-0.75c0.41422,0 0.75,0.33578 0.75,0.75c0,0.41422 -0.33578,0.75 -0.75,0.75c-0.41422,0 -0.75,-0.33578 -0.75,-0.75z" fill="#e06c00" stroke="none" stroke-width="0.5"/><path d="M234.73611,183.07362c0,-0.41422 0.33578,-0.75 0.75,-0.75c0.41422,0 0.75,0.33578 0.75,0.75c0,0.41422 -0.33578,0.75 -0.75,0.75c-0.41422,0 -0.75,-0.33578 -0.75,-0.75z" fill="#e06c00" stroke="none" stroke-width="0.5"/><path d="M231.98611,182.94862c0,-0.41422 0.33578,-0.75 0.75,-0.75c0.41422,0 0.75,0.33578 0.75,0.75c0,0.41422 -0.33578,0.75 -0.75,0.75c-0.41422,0 -0.75,-0.33578 -0.75,-0.75z" fill="#e06c00" stroke="none" stroke-width="0.5"/><path d="M231.98611,182.94862c0,-0.41422 0.33578,-0.75 0.75,-0.75c0.41422,0 0.75,0.33578 0.75,0.75c0,0.41422 -0.33578,0.75 -0.75,0.75c-0.41422,0 -0.75,-0.33578 -0.75,-0.75z" fill="#e06c00" stroke="none" stroke-width="0.5"/><path d="M229.11111,182.82362c0,-0.41422 0.33578,-0.75 0.75,-0.75c0.41422,0 0.75,0.33578 0.75,0.75c0,0.41422 -0.33578,0.75 -0.75,0.75c-0.41422,0 -0.75,-0.33578 -0.75,-0.75z" fill="#e06c00" stroke="none" stroke-width="0.5"/><path d="M226.36111,182.69862c0,-0.41422 0.33578,-0.75 0.75,-0.75c0.41422,0 0.75,0.33578 0.75,0.75c0,0.41422 -0.33578,0.75 -0.75,0.75c-0.41422,0 -0.75,-0.33578 -0.75,-0.75z" fill="#e06c00" stroke="none" stroke-width="0.5"/><path d="M246.20833,185.74029c0,-0.41422 0.33578,-0.75 0.75,-0.75c0.41422,0 0.75,0.33578 0.75,0.75c0,0.41422 -0.33578,0.75 -0.75,0.75c-0.41422,0 -0.75,-0.33578 -0.75,-0.75z" fill="#e06c00" stroke="none" stroke-width="0.5"/><path d="M243.33333,185.61529c0,-0.41422 0.33578,-0.75 0.75,-0.75c0.41422,0 0.75,0.33578 0.75,0.75c0,0.41422 -0.33578,0.75 -0.75,0.75c-0.41422,0 -0.75,-0.33578 -0.75,-0.75z" fill="#e06c00" stroke="none" stroke-width="0.5"/><path d="M240.58333,185.49029c0,-0.41422 0.33578,-0.75 0.75,-0.75c0.41422,0 0.75,0.33578 0.75,0.75c0,0.41422 -0.33578,0.75 -0.75,0.75c-0.41422,0 -0.75,-0.33578 -0.75,-0.75z" fill="#e06c00" stroke="none" stroke-width="0.5"/><path d="M237.65278,185.86529c0,-0.41422 0.33578,-0.75 0.75,-0.75c0.41422,0 0.75,0.33578 0.75,0.75c0,0.41422 -0.33578,0.75 -0.75,0.75c-0.41422,0 -0.75,-0.33578 -0.75,-0.75z" fill="#e06c00" stroke="none" stroke-width="0.5"/><path d="M234.77778,185.74029c0,-0.41422 0.33578,-0.75 0.75,-0.75c0.41422,0 0.75,0.33578 0.75,0.75c0,0.41422 -0.33578,0.75 -0.75,0.75c-0.41422,0 -0.75,-0.33578 -0.75,-0.75z" fill="#e06c00" stroke="none" stroke-width="0.5"/><path d="M232.02778,185.61529c0,-0.41422 0.33578,-0.75 0.75,-0.75c0.41422,0 0.75,0.33578 0.75,0.75c0,0.41422 -0.33578,0.75 -0.75,0.75c-0.41422,0 -0.75,-0.33578 -0.75,-0.75z" fill="#e06c00" stroke="none" stroke-width="0.5"/><path d="M232.02778,185.61529c0,-0.41422 0.33578,-0.75 0.75,-0.75c0.41422,0 0.75,0.33578 0.75,0.75c0,0.41422 -0.33578,0.75 -0.75,0.75c-0.41422,0 -0.75,-0.33578 -0.75,-0.75z" fill="#e06c00" stroke="none" stroke-width="0.5"/><path d="M229.15278,185.49029c0,-0.41422 0.33578,-0.75 0.75,-0.75c0.41422,0 0.75,0.33578 0.75,0.75c0,0.41422 -0.33578,0.75 -0.75,0.75c-0.41422,0 -0.75,-0.33578 -0.75,-0.75z" fill="#e06c00" stroke="none" stroke-width="0.5"/><path d="M226.40278,185.36529c0,-0.41422 0.33578,-0.75 0.75,-0.75c0.41422,0 0.75,0.33578 0.75,0.75c0,0.41422 -0.33578,0.75 -0.75,0.75c-0.41422,0 -0.75,-0.33578 -0.75,-0.75z" fill="#e06c00" stroke="none" stroke-width="0.5"/><path d="M247.06944,187.29585c0.41422,0 0.75,0.33578 0.75,0.75c0,0.41422 -0.33578,0.75 -0.75,0.75c-0.41422,0 -0.75,-0.33578 -0.75,-0.75c0,-0.41422 0.33578,-0.75 0.75,-0.75z" data-paper-data="{&quot;index&quot;:null}" fill="#e06c00" stroke="none" stroke-width="0.5"/><path d="M244.19444,187.42085c0.41422,0 0.75,0.33578 0.75,0.75c0,0.41422 -0.33578,0.75 -0.75,0.75c-0.41422,0 -0.75,-0.33578 -0.75,-0.75c0,-0.41422 0.33578,-0.75 0.75,-0.75z" data-paper-data="{&quot;index&quot;:null}" fill="#e06c00" stroke="none" stroke-width="0.5"/><path d="M241.44444,187.54585c0.41422,0 0.75,0.33578 0.75,0.75c0,0.41422 -0.33578,0.75 -0.75,0.75c-0.41422,0 -0.75,-0.33578 -0.75,-0.75c0,-0.41422 0.33578,-0.75 0.75,-0.75z" data-paper-data="{&quot;index&quot;:null}" fill="#e06c00" stroke="none" stroke-width="0.5"/><path d="M238.51389,187.17085c0.41422,0 0.75,0.33578 0.75,0.75c0,0.41422 -0.33578,0.75 -0.75,0.75c-0.41422,0 -0.75,-0.33578 -0.75,-0.75c0,-0.41422 0.33578,-0.75 0.75,-0.75z" data-paper-data="{&quot;index&quot;:null}" fill="#e06c00" stroke="none" stroke-width="0.5"/><path d="M235.63889,187.29585c0.41422,0 0.75,0.33578 0.75,0.75c0,0.41422 -0.33578,0.75 -0.75,0.75c-0.41422,0 -0.75,-0.33578 -0.75,-0.75c0,-0.41422 0.33578,-0.75 0.75,-0.75z" data-paper-data="{&quot;index&quot;:null}" fill="#e06c00" stroke="none" stroke-width="0.5"/><path d="M232.88889,187.42085c0.41422,0 0.75,0.33578 0.75,0.75c0,0.41422 -0.33578,0.75 -0.75,0.75c-0.41422,0 -0.75,-0.33578 -0.75,-0.75c0,-0.41422 0.33578,-0.75 0.75,-0.75z" data-paper-data="{&quot;index&quot;:null}" fill="#e06c00" stroke="none" stroke-width="0.5"/><path d="M232.88889,187.42085c0.41422,0 0.75,0.33578 0.75,0.75c0,0.41422 -0.33578,0.75 -0.75,0.75c-0.41422,0 -0.75,-0.33578 -0.75,-0.75c0,-0.41422 0.33578,-0.75 0.75,-0.75z" data-paper-data="{&quot;index&quot;:null}" fill="#e06c00" stroke="none" stroke-width="0.5"/><path d="M230.01389,187.54585c0.41422,0 0.75,0.33578 0.75,0.75c0,0.41422 -0.33578,0.75 -0.75,0.75c-0.41422,0 -0.75,-0.33578 -0.75,-0.75c0,-0.41422 0.33578,-0.75 0.75,-0.75z" data-paper-data="{&quot;index&quot;:null}" fill="#e06c00" stroke="none" stroke-width="0.5"/><path d="M227.26389,187.67085c0.41422,0 0.75,0.33578 0.75,0.75c0,0.41422 -0.33578,0.75 -0.75,0.75c-0.41422,0 -0.75,-0.33578 -0.75,-0.75c0,-0.41422 0.33578,-0.75 0.75,-0.75z" data-paper-data="{&quot;index&quot;:null}" fill="#e06c00" stroke="none" stroke-width="0.5"/><path d="M251.98612,182.8514c0,-0.41422 0.33578,-0.75 0.75,-0.75c0.41422,0 0.75,0.33578 0.75,0.75c0,0.41422 -0.33578,0.75 -0.75,0.75c-0.41422,0 -0.75,-0.33578 -0.75,-0.75z" fill="#e06c00" stroke="none" stroke-width="0.5"/><path d="M249.05556,183.2264c0,-0.41422 0.33578,-0.75 0.75,-0.75c0.41422,0 0.75,0.33578 0.75,0.75c0,0.41422 -0.33578,0.75 -0.75,0.75c-0.41422,0 -0.75,-0.33578 -0.75,-0.75z" fill="#e06c00" stroke="none" stroke-width="0.5"/><path d="M252.02778,185.51808c0,-0.41422 0.33578,-0.75 0.75,-0.75c0.41422,0 0.75,0.33578 0.75,0.75c0,0.41422 -0.33578,0.75 -0.75,0.75c-0.41422,0 -0.75,-0.33578 -0.75,-0.75z" fill="#e06c00" stroke="none" stroke-width="0.5"/><path d="M249.09723,185.89308c0,-0.41422 0.33578,-0.75 0.75,-0.75c0.41422,0 0.75,0.33578 0.75,0.75c0,0.41422 -0.33578,0.75 -0.75,0.75c-0.41422,0 -0.75,-0.33578 -0.75,-0.75z" fill="#e06c00" stroke="none" stroke-width="0.5"/><path d="M252.88889,187.57362c0.41422,0 0.75,0.33578 0.75,0.75c0,0.41422 -0.33578,0.75 -0.75,0.75c-0.41422,0 -0.75,-0.33578 -0.75,-0.75c0,-0.41422 0.33578,-0.75 0.75,-0.75z" data-paper-data="{&quot;index&quot;:null}" fill="#e06c00" stroke="none" stroke-width="0.5"/><path d="M249.95834,187.19862c0.41422,0 0.75,0.33578 0.75,0.75c0,0.41422 -0.33578,0.75 -0.75,0.75c-0.41422,0 -0.75,-0.33578 -0.75,-0.75c0,-0.41422 0.33578,-0.75 0.75,-0.75z" data-paper-data="{&quot;index&quot;:null}" fill="#e06c00" stroke="none" stroke-width="0.5"/><path d="M246.16667,180.26806c0,-0.41422 0.33578,-0.75 0.75,-0.75c0.41422,0 0.75,0.33578 0.75,0.75c0,0.41422 -0.33578,0.75 -0.75,0.75c-0.41422,0 -0.75,-0.33578 -0.75,-0.75z" fill="#e06c00" stroke="none" stroke-width="0.5"/><path d="M243.29167,180.14306c0,-0.41422 0.33578,-0.75 0.75,-0.75c0.41422,0 0.75,0.33578 0.75,0.75c0,0.41422 -0.33578,0.75 -0.75,0.75c-0.41422,0 -0.75,-0.33578 -0.75,-0.75z" fill="#e06c00" stroke="none" stroke-width="0.5"/><path d="M240.54167,180.01806c0,-0.41422 0.33578,-0.75 0.75,-0.75c0.41422,0 0.75,0.33578 0.75,0.75c0,0.41422 -0.33578,0.75 -0.75,0.75c-0.41422,0 -0.75,-0.33578 -0.75,-0.75z" fill="#e06c00" stroke="none" stroke-width="0.5"/><path d="M237.61111,180.39306c0,-0.41422 0.33578,-0.75 0.75,-0.75c0.41422,0 0.75,0.33578 0.75,0.75c0,0.41422 -0.33578,0.75 -0.75,0.75c-0.41422,0 -0.75,-0.33578 -0.75,-0.75z" fill="#e06c00" stroke="none" stroke-width="0.5"/><path d="M234.73611,180.26806c0,-0.41422 0.33578,-0.75 0.75,-0.75c0.41422,0 0.75,0.33578 0.75,0.75c0,0.41422 -0.33578,0.75 -0.75,0.75c-0.41422,0 -0.75,-0.33578 -0.75,-0.75z" fill="#e06c00" stroke="none" stroke-width="0.5"/><path d="M231.98611,180.14306c0,-0.41422 0.33578,-0.75 0.75,-0.75c0.41422,0 0.75,0.33578 0.75,0.75c0,0.41422 -0.33578,0.75 -0.75,0.75c-0.41422,0 -0.75,-0.33578 -0.75,-0.75z" fill="#e06c00" stroke="none" stroke-width="0.5"/><path d="M231.98611,180.14306c0,-0.41422 0.33578,-0.75 0.75,-0.75c0.41422,0 0.75,0.33578 0.75,0.75c0,0.41422 -0.33578,0.75 -0.75,0.75c-0.41422,0 -0.75,-0.33578 -0.75,-0.75z" fill="#e06c00" stroke="none" stroke-width="0.5"/><path d="M229.11111,180.01806c0,-0.41422 0.33578,-0.75 0.75,-0.75c0.41422,0 0.75,0.33578 0.75,0.75c0,0.41422 -0.33578,0.75 -0.75,0.75c-0.41422,0 -0.75,-0.33578 -0.75,-0.75z" fill="#e06c00" stroke="none" stroke-width="0.5"/><path d="M226.36111,179.89306c0,-0.41422 0.33578,-0.75 0.75,-0.75c0.41422,0 0.75,0.33578 0.75,0.75c0,0.41422 -0.33578,0.75 -0.75,0.75c-0.41422,0 -0.75,-0.33578 -0.75,-0.75z" fill="#e06c00" stroke="none" stroke-width="0.5"/><path d="M251.98612,180.04585c0,-0.41422 0.33578,-0.75 0.75,-0.75c0.41422,0 0.75,0.33578 0.75,0.75c0,0.41422 -0.33578,0.75 -0.75,0.75c-0.41422,0 -0.75,-0.33578 -0.75,-0.75z" fill="#e06c00" stroke="none" stroke-width="0.5"/><path d="M249.05556,180.42085c0,-0.41422 0.33578,-0.75 0.75,-0.75c0.41422,0 0.75,0.33578 0.75,0.75c0,0.41422 -0.33578,0.75 -0.75,0.75c-0.41422,0 -0.75,-0.33578 -0.75,-0.75z" fill="#e06c00" stroke="none" stroke-width="0.5"/><path d="M224.83333,179.67085v-15.29445h30.33333v15.29445z" fill="#999999" stroke="#7d7d7d" stroke-width="1.5"/><path d="M224.83333,191.55556v-11.55556h30.33333v11.55556z" fill="#999999" stroke="#7d7d7d" stroke-width="1.5"/><path d="M231.11458,191.03613v-8.5h17.77083v8.5z" fill="url(#color-1)" stroke="#7d7d7d" stroke-width="1.5"/><path d="M245.93753,191.09309c-0.04608,0 -0.09157,-0.00249 -0.13636,-0.00735c-0.03204,0.00348 -0.06445,0.00574 -0.09718,0.00675l-2.49298,0.08903l-0.012,-0.3361c-3.77605,0.75724 -8.02598,0.83514 -11.51617,-0.04706l0.2787,-0.89067l-0.52973,-0.08829l0.26935,-1.6161c0.0895,-0.60252 0.60895,-1.06477 1.23637,-1.06477c0.55306,0 1.02223,0.35918 1.18697,0.85699l0.16313,0.45678c0.28618,-0.42942 0.46036,-1.64527 1.01384,-1.75506c1.49738,-0.29701 1.31938,1.8954 1.99495,0.28962l0.33548,-1.25804c0.13297,-0.54745 0.62638,-0.95392 1.21473,-0.95392c0.61816,0 1.13151,0.44871 1.23213,1.03818l0.19141,1.00488c0.0953,0.0157 0.19574,0.00447 0.30189,-0.03988l0.66468,0.61733c0.36535,-0.25679 0.90469,-0.49773 1.65921,-0.71072c0.24656,-0.0696 0.43431,0.09113 0.5888,0.3361l0.32178,-1.35148c0.12142,-0.56322 0.62238,-0.98531 1.22192,-0.98531c0.58089,0 1.06924,0.39624 1.2095,0.93317l0.35604,1.24616c0.01695,0.05984 0.03226,0.12313 0.0455,0.18883c0.14776,-0.06149 0.30985,-0.09543 0.47987,-0.09543c0.69036,0 1.25,0.55964 1.25,1.25v0v1.81818c0,0 0,1.25 -1.25,1.25c-0.35435,0 -0.60825,-0.10045 -0.79017,-0.2444c-0.1232,0.04061 -0.25486,0.06258 -0.39165,0.06258z" data-paper-data="{&quot;index&quot;:null}" fill="#ff6f00" stroke="none" stroke-width="0.5"/><path d="M245.93756,191.19282c-0.04608,0 -0.09159,-0.00177 -0.13637,-0.00522c-0.03205,0.00247 -0.06446,0.00407 -0.09718,0.00479l-2.49298,0.0632l-0.012,-0.23859c-3.77606,0.53755 -8.02598,0.59285 -11.51617,-0.03341l0.2787,-0.63227l-0.52973,-0.06268l0.26935,-1.14724c0.0895,-0.42771 0.60895,-0.75586 1.23637,-0.75586c0.55305,0 1.02222,0.25497 1.18696,0.60836l0.16314,0.32426c0.28617,-0.30484 0.46036,-1.16796 1.01384,-1.24589c1.49738,-0.21084 1.31937,1.34552 1.99495,0.2056l0.33548,-0.89306c0.13297,-0.38862 0.62638,-0.67717 1.21473,-0.67717c0.61815,0 1.1315,0.31853 1.23212,0.73698l0.19141,0.71335c0.0953,0.01115 0.19574,0.00318 0.30189,-0.02831l0.66467,0.43823c0.36536,-0.1823 0.9047,-0.35333 1.65922,-0.50453c0.24657,-0.04941 0.43431,0.06469 0.5888,0.23859l0.32178,-0.95939c0.12142,-0.39983 0.62238,-0.69946 1.22192,-0.69946c0.5809,0 1.06924,0.28128 1.2095,0.66244l0.35604,0.88462c0.01694,0.04248 0.03225,0.08741 0.0455,0.13405c0.14775,-0.04364 0.30985,-0.06774 0.47987,-0.06774c0.69036,0 1.25,0.39728 1.25,0.88735v0v1.29069c0,0 0,0.88735 -1.25,0.88735c-0.35436,0 -0.60825,-0.07131 -0.79018,-0.1735c-0.12319,0.02882 -0.25484,0.04442 -0.39164,0.04442z" data-paper-data="{&quot;index&quot;:null}" fill="#ffae00" stroke="none" stroke-width="0.5"/><path d="M231.11458,191.03613v-8.5h17.77083v8.5z" fill="none" stroke="#7d7d7d" stroke-width="1.5"/><path d="M250,186.78613c0,5.57306 -4.47715,10.09091 -10,10.09091c-5.52285,0 -10,-4.51785 -10,-10.09091c0,-5.57306 4.47715,-10.09091 10,-10.09091c5.52285,0 10,4.51785 10,10.09091z" fill="url(#color-2)" stroke="none" stroke-width="0"/></g></g></svg>