<svg version="1.1" xmlns="http://www.w3.org/2000/svg" xmlns:xlink="http://www.w3.org/1999/xlink" width="52.75" height="52.75" viewBox="0,0,52.75,52.75"><g transform="translate(-213.625,-153.625)"><g data-paper-data="{&quot;isPaintingLayer&quot;:true}" fill-rule="nonzero" stroke-linecap="butt" stroke-linejoin="miter" stroke-miterlimit="10" stroke-dasharray="" stroke-dashoffset="0" style="mix-blend-mode: normal"><path d="M214.875,205.125v-50.25h50.25v50.25z" fill="#7f7f7f" stroke="#5e5e5e" stroke-width="2.5"/><path d="M229.34414,182.02381l-1.88484,-3.52809l30.87076,-16.49232l1.88484,3.52809z" fill="#707070" stroke="#5a5a5a" stroke-width="1.5"/><path d="M239.80216,180.34741c1.20903,4.36121 -4.87936,7.00816 -7.88437,4.45471c0.16913,0.95675 0.37624,2.28441 -0.04843,3.11643c-0.74075,1.45132 -3.23081,0.94777 -2.99992,2.89783c0.21947,1.85355 2.40979,3.63072 2.42364,5.24332c0.01816,2.11385 -2.06806,1.76822 -3.53796,1.9369c-2.51747,-0.24377 -6.23142,-0.08228 -6.65846,-3.5701c-0.27234,-2.22435 1.77417,-4.4917 -0.90641,-5.88085c0,0 -0.65768,-0.3605 -0.29717,-1.01818c0.01544,-0.02816 0.03142,-0.05446 0.04787,-0.079l-0.05089,-0.17619c-0.23988,-2.19362 0.78149,-3.23356 1.73919,-5.0137c1.16865,-2.10076 3.40243,-4.92367 5.75515,-5.629c0.856,-0.25663 2.18068,-0.90819 3.05058,-0.30132c0.64858,0.45247 1.01189,2.14965 1.16333,2.8935c0.03454,0.16965 0.05521,0.50024 0.04804,0.75917c0.48388,-0.42404 1.98797,-0.9234 2.29509,-1.06934c2.15735,-1.68989 4.96643,-2.62704 7.29639,-4.0642c2.5469,-1.57097 4.94864,-3.61048 7.64482,-4.90997c1.60965,-1.26086 8.43307,-3.42867 7.01898,1.22525c-0.21826,0.71831 -1.18234,0.95287 -1.72491,1.27014c-2.44099,1.42733 -4.94425,2.90698 -7.48538,4.13176c-2.42952,1.17097 -4.76708,2.41041 -7.14117,3.61441zM238.36622,181.11895c0,0 -0.16784,-0.05266 -0.31544,-0.18826c-0.40511,0.20036 -0.81203,0.39909 -1.22139,0.59567c-1.19263,0.57274 -2.91588,1.09557 -4.08524,2.01403c1.75244,1.86146 6.53983,0.20474 5.62038,-2.76538c-0.00073,0.00036 -0.00146,0.00073 -0.00219,0.00109zM221.56302,187.66042c1.13782,0.87072 1.7991,2.1109 1.59311,3.66285c-0.13845,1.04312 -0.95398,2.46727 -0.40537,3.51335c1.02625,1.95684 3.24291,1.49113 4.98764,1.66007c0.64094,-0.08011 1.51643,0.00509 2.10426,-0.12463c0.11531,-0.02545 -1.23593,-1.8001 -1.2589,-1.8379c-0.5614,-0.92382 -1.10431,-2.49458 -1.20774,-3.5774c-0.10998,-1.15134 0.27883,-2.12445 1.24141,-2.75278c0.33683,-0.21987 1.72454,-0.45178 1.88319,-0.89908c0.30807,-0.8686 -0.03436,-2.22174 -0.10969,-3.09291c1.01032,-1.92092 3.10844,-2.93089 5.06123,-3.68414c3.66518,-1.41375 7.03844,-3.60378 10.5879,-5.31454c2.2243,-1.07207 4.50124,-2.30873 6.63892,-3.56226c0.58357,-0.3422 1.68949,-0.27938 1.79468,-0.94766c0.39773,-2.52671 -4.17647,0.02033 -4.7983,0.50742c-2.7005,1.30158 -5.08696,3.34878 -7.64481,4.90998c-2.33606,1.42582 -5.14111,2.37593 -7.29639,4.0642c-0.49834,0.24301 -3.09839,1.73578 -3.56033,1.5629c-1.67401,-0.62651 -0.62495,-3.20069 -1.59704,-4.18941c-0.10218,-0.10392 -1.68342,0.48594 -1.77212,0.511c-1.91604,0.54138 -3.94391,3.20718 -4.86006,4.91009c-0.76349,1.37246 -1.81655,2.28343 -1.58487,3.99262z" fill="#686868" stroke="none" stroke-width="0.5"/><path d="M221.31057,186.98124c-0.23168,-1.70919 0.8206,-2.63157 1.5841,-4.00403c0.91615,-1.70291 2.94939,-4.389 4.86543,-4.93038c0.08871,-0.02506 1.75628,-0.56476 1.85846,-0.46084c0.97209,0.98872 -0.0703,3.54777 1.60372,4.17428c0.46193,0.17288 2.97529,-1.36446 3.47363,-1.60746c2.15528,-1.68827 5.01731,-2.65256 7.35337,-4.07838c2.55785,-1.5612 4.95811,-3.60002 7.65861,-4.9016c0.62183,-0.48709 5.2018,-3.0283 4.80408,-0.50159c-0.10519,0.66828 -1.28691,0.67066 -1.87048,1.01287c-2.13768,1.25352 -4.40905,2.4956 -6.63335,3.56766c-3.54946,1.71076 -6.85389,3.8961 -10.51907,5.30985c-1.9528,0.75325 -4.03787,1.72668 -5.04818,3.6476c0.07533,0.87117 0.41391,2.20765 0.10584,3.07625c-0.15865,0.44731 -1.54653,0.67881 -1.88336,0.89869c-0.96258,0.62833 -1.35485,1.59482 -1.24487,2.74616c0.10343,1.08282 0.63855,2.64396 1.19995,3.56779c0.02297,0.0378 1.36882,1.80796 1.25351,1.83341c-0.58783,0.12972 -1.52559,0.12262 -2.16653,0.20273c-1.74474,-0.16894 -3.96962,0.28748 -4.99588,-1.66936c-0.54861,-1.04607 0.26309,-2.47684 0.40155,-3.51997c0.20599,-1.55195 -0.459,-2.80276 -1.59681,-3.67349z" data-paper-data="{&quot;noHover&quot;:false,&quot;origItem&quot;:[&quot;Path&quot;,{&quot;applyMatrix&quot;:true,&quot;segments&quot;:[[[439.09914,362.24845],[0,0],[1.69658,2.30928]],[[440.10526,370.17345],[1.26511,-2.86416],[-0.85033,1.92511]],[[437.35828,376.69157],[-0.4671,-2.31577],[0.87378,4.332]],[[446.00382,382.67357],[-3.25505,-1.30202],[1.27543,0.20536]],[[450.11362,383.61343],[-1.20126,-0.08035],[0.23564,0.01576]],[[448.72654,379.37942],[0.02292,0.08545],[-0.56016,-2.08823]],[[448.41241,371.83443],[-0.40818,2.13686],[0.434,-2.27208]],[[452.33831,367.245],[-2.20014,0.66695],[0.76989,-0.23339]],[[456.45765,366.57411],[-0.55524,0.76988],[1.07819,-1.49499]],[[457.98017,360.57458],[-0.34354,1.71477],[3.0161,-3.12184]],[[469.76163,356.33749],[-4.17125,0.3519],[7.82897,-0.66047]],[[493.06732,352.06707],[-7.77322,1.29554],[4.87117,-0.81186]],[[507.80949,348.94804],[-4.80655,1.20878],[1.31215,-0.32999]],[[511.78611,348.13429],[-0.57643,1.22408],[2.17944,-4.62815]],[[502.28953,346.41975],[1.46679,-0.58672],[-5.91402,0.98567]],[[484.86096,351.56261],[5.78563,-1.56404],[-5.28395,1.42842]],[[468.57525,355.2769],[5.08395,-2.03358],[-1.09293,0.1873]],[[460.86401,356.28247],[0.78999,0.59076],[-2.86287,-2.14087]],[[460.14541,347.34433],[1.31228,2.44295],[-0.13794,-0.25678]],[[456.45678,347.33238],[0.18435,0.00159],[-3.98196,-0.03427]],[[444.37458,354.0359],[2.71314,-2.75604],[-2.23489,2.20715]],[[439.09452,360.81324],[0.51295,-3.41129],[0,0]]],&quot;closed&quot;:true}]}" fill="#919191" stroke="none" stroke-width="0.5"/><path d="M241.0212,179.9172l-2.18218,-4.01696l12.55303,-6.81933l2.18218,4.01697z" fill="#707070" stroke="#5a5a5a" stroke-width="1.5"/><path d="M236.8813,183.13894c0.06486,0.74719 -0.68234,0.81204 -0.68234,0.81204l-1.15106,-0.02652c-0.47243,-0.25896 -0.94486,-0.51793 -1.41729,-0.77688c0,0 -0.65768,-0.3605 -0.29717,-1.01818c0.3605,-0.65768 1.01818,-0.29717 1.01818,-0.29717c0.47243,0.25896 0.94486,0.51793 1.41729,0.77688l0.30034,-0.15251c0,0 0.74719,-0.06485 0.81205,0.68234z" fill="#686868" stroke="none" stroke-width="0.5"/><path d="M229.10605,179.70653l0.12254,0.29667c-0.12561,1.10512 -1.73699,4.00345 -3.3791,2.4186c-1.21133,-1.16909 0.49949,-2.57315 1.61316,-3.25819c0.04747,-0.13728 0.14938,-0.27511 0.34372,-0.38871c0.34561,-0.20202 0.61458,-0.11173 0.79025,0.01638c0.16045,0.0454 0.32351,0.15882 0.441,0.4026c0.09733,0.20193 0.10521,0.3726 0.06842,0.51266z" fill="#686868" stroke="none" stroke-width="0.5"/></g></g></svg>