<svg version="1.1" xmlns="http://www.w3.org/2000/svg" xmlns:xlink="http://www.w3.org/1999/xlink" width="36.125" height="21.625" viewBox="0,0,36.125,21.625"><g transform="translate(-222.50779,-168.55136)"><g data-paper-data="{&quot;isPaintingLayer&quot;:true}" fill-rule="nonzero" stroke="none" stroke-linecap="butt" stroke-linejoin="miter" stroke-miterlimit="10" stroke-dasharray="" stroke-dashoffset="0" style="mix-blend-mode: normal"><text transform="translate(225.53435,183.6125) scale(0.31311,0.31311)" font-size="40" xml:space="preserve" fill="#ff0000" fill-rule="nonzero" stroke="none" stroke-width="1" stroke-linecap="butt" stroke-linejoin="miter" stroke-miterlimit="10" stroke-dasharray="" stroke-dashoffset="0" font-family="Sans Serif" font-weight="normal" text-anchor="start" style="mix-blend-mode: normal"><tspan x="0" dy="0">TREE</tspan></text><path d="M245.80279,175.51801c2.21189,0.40438 6.40029,0.5454 6.40029,3.5617c0,2.85493 -2.33623,2.04404 -3.78921,3.20816c-3.53132,2.82928 -9.13388,1.80329 -13.77494,1.23195c-0.87343,-0.10752 -4.09695,0.24162 -4.82643,-0.48786c-0.84697,-0.84697 -1.05808,-2.52336 -0.4638,-3.56335c-0.25992,-0.3943 -0.4112,-0.86656 -0.4112,-1.37415c0,-1.3394 1.05332,-2.43279 2.3768,-2.49702c3.935,-1.95977 11.1569,-0.68851 14.48849,-0.07943z" fill="#ff0000" stroke-width="0.5"/><path d="M222.50779,190.17636v-21.625h36.125v21.625z" fill="#ff1f1f" stroke-width="0"/></g></g></svg>