<svg version="1.1" xmlns="http://www.w3.org/2000/svg" xmlns:xlink="http://www.w3.org/1999/xlink" width="38.566" height="37.60704" viewBox="0,0,38.566,37.60704"><g transform="translate(-220.75419,-161.24575)"><g data-paper-data="{&quot;isPaintingLayer&quot;:true}" fill-rule="nonzero" stroke-linejoin="miter" stroke-miterlimit="10" stroke-dasharray="" stroke-dashoffset="0" style="mix-blend-mode: normal"><path d="M258.4696,174.46233l-3.74947,7.49894l2.77738,7.2212l0.41661,8.05441l-8.47102,-1.66643l-11.38727,1.94417l-16.10882,0.55548l3.6106,-16.80317l-4.02721,-6.94346l0.69435,-5.4159l29.16253,-6.80459z" fill="#668872" stroke="#4c6655" stroke-width="1.5" stroke-linecap="round"/><path d="M256.10881,172.10155l-10.97066,3.19399l-12.35936,6.24911l-6.66572,-0.97208l-1.66643,-2.49965l23.74663,-11.52614l7.36007,3.74947z" fill="#516c5a" stroke="#4c6655" stroke-width="1.5" stroke-linecap="round"/><path d="M254.99786,170.01851l-11.10953,2.36078l-10.69293,5.83251l-9.0265,-0.83322l-1.94417,-2.63851l0.55548,-4.99929l28.05157,-7.36007l3.74947,5.83251z" fill="#6f937c" stroke="#4c6655" stroke-width="1.5" stroke-linecap="round"/><path d="M246.94345,181.82239l-11.2484,10.13745l-11.52614,-1.38869l1.8053,-9.72084l6.52685,0.55548l13.33144,-5.4159l1.24982,5.55477l6.94346,0.13887" fill="#6f937c" stroke="#4c6655" stroke-width="1.5" stroke-linecap="round"/><path d="M235.97278,192.51531l12.77596,2.36078" fill="none" stroke="#4c6655" stroke-width="1.5" stroke-linecap="round"/><path d="M230.14057,170.96729c-0.76373,-1.10837 -2.27816,-3.31581 -2.93168,-3.4045c-1.11623,-0.15148 -2.36956,-0.02403 -3.52455,-0.22939c-0.46441,-0.08257 0.44204,0.83869 0.58716,1.28751c0.2147,0.66404 0.51141,1.23205 0.82375,1.85459c0.26324,0.26461 1.6946,1.7674 1.9434,1.7694c0.47275,0.00378 1.89637,-1.05732 2.46887,-1.24442l0.11893,-0.03845c0,0 0.25815,-0.08347 0.51413,0.00526zM230.60555,171.58539c0.1012,0.60379 -0.51764,0.80389 -0.51764,0.80389l-0.11893,0.03845c-0.80094,0.25568 -2.21581,1.38041 -3.00941,1.31509c-0.93714,-0.07715 -2.45332,-1.74492 -3.07891,-2.3871c-0.44984,-0.8486 -1.73663,-2.87464 -1.65194,-3.84945c0.17416,-2.00464 3.7721,-1.83186 5.30442,-1.40802c1.47919,0.40914 3.26549,3.26292 4.15948,4.47194c0,0 0.44457,0.60404 -0.15947,1.0486c-0.41571,0.30596 -0.75589,0.11525 -0.92759,-0.03341z" fill="#c5ce9a" stroke="none" stroke-width="0.5" stroke-linecap="butt"/><path d="M229.66919,170.98795l-0.11973,0.03974c-0.57251,0.1871 -2.0354,1.27092 -2.50814,1.26713c-0.2488,-0.00199 -1.72455,-1.52715 -1.98779,-1.79176c-0.31233,-0.62253 -0.61574,-1.23064 -0.83043,-1.89468c-0.14512,-0.44882 -1.04577,-1.38372 -0.58136,-1.30115c1.155,0.20535 2.46023,0.05496 3.57646,0.20644c0.65352,0.08868 2.20314,2.36807 2.96687,3.47644c-0.25598,-0.08874 -0.51587,-0.00215 -0.51587,-0.00215z" data-paper-data="{&quot;noHover&quot;:false,&quot;origItem&quot;:[&quot;Path&quot;,{&quot;applyMatrix&quot;:true,&quot;segments&quot;:[[[383.99072,327.55408],[-0.43252,-0.32636],[-0.77141,-2.57915]],[[380.5065,319.27147],[1.18908,0.57087],[-2.03098,-0.97507]],[[373.94041,316.6663],[2.0716,1.10145],[-0.83297,-0.44288]],[[374.26558,319.47772],[0,-0.94339],[0,1.39577]],[[374.69205,323.51385],[-0.21133,-1.37686],[0.33813,0.66553]],[[377.30164,328.07677],[-0.47223,-0.15687],[0.89731,0.29808]],[[382.76558,327.22772],[-1.2046,0.00379],[0,0]],[383.01558,327.22772]],&quot;closed&quot;:true}]}" fill="#d8e1a9" stroke="none" stroke-width="0.5" stroke-linecap="butt"/><path d="M233.06493,171.03261c0.23074,0.71363 -0.48289,0.94436 -0.48289,0.94436l-0.11894,0.03845c-1.96312,0.62886 -4.36791,1.26439 -5.13726,3.33577c0,0 -0.26563,0.70139 -0.96702,0.43577c-0.70138,-0.26562 -0.43576,-0.96702 -0.43576,-0.96702c0.99761,-2.59346 3.60839,-3.42667 6.07857,-4.23176l0.11894,-0.03845c0,0 0.71363,-0.23074 0.94436,0.48289z" fill="#4c6655" stroke="none" stroke-width="0.5" stroke-linecap="butt"/><path d="M243.04284,170.02749c-0.51543,0.52478 -1.05031,0.01295 -1.05031,0.01295c-1.24662,-1.19288 -4.16652,-2.84293 -4.84429,-4.38623c-1.1048,-2.51564 0.86339,-4.44976 3.35909,-3.4606c1.08788,0.43118 1.66879,1.683 2.48334,2.45845c0.15389,0.14793 0.29743,0.29253 0.43221,0.43767c0.37692,-1.79545 1.75398,-3.87411 3.57921,-2.1239c1.08763,1.04293 1.38026,5.02099 -0.02799,5.72961c-1.27861,0.64338 -1.60789,-0.449 -2.64927,0.67856l-0.32,0.44039c0,0 -0.40455,0.54446 -0.96197,0.2131zM242.8775,168.81822l0.36355,-0.48127c0.13864,-0.14128 0.26822,-0.26003 0.39122,-0.35998l-0.30978,-0.39463l0.02532,-0.01986l-0.07082,-0.04485c-0.367,-0.75123 -0.71983,-1.20723 -1.32336,-1.7818c-0.65409,-0.6287 -4.86783,-4.2901 -3.43255,-0.68601c0.46086,1.15724 3.22359,2.77985 4.35643,3.7684zM246.36968,167.3226c0.41535,-0.07182 -0.22172,-1.90729 -0.26921,-2.10732c-0.09437,-0.39748 -0.00048,-0.84593 -0.18179,-1.21203c-0.21725,-0.43867 -0.71925,0.6942 -0.93157,1.13528c-0.29463,0.61207 -0.28838,1.15717 -0.24907,1.74456l0.23698,-0.05627l0.14321,0.60315c0.34985,-0.01933 0.74314,-0.01948 1.25146,-0.10737z" fill="#c5ce9a" stroke="none" stroke-width="0.5" stroke-linecap="butt"/><path d="M245.09629,167.4749l-0.15556,-0.61168l-0.24002,0.05313c-0.03931,-0.58738 -0.04712,-1.19718 0.24751,-1.80925c0.21232,-0.44109 0.75416,-1.59253 0.97141,-1.15385c0.1813,0.36609 0.10238,0.81714 0.19675,1.21462c0.04749,0.20003 0.68446,2.13034 0.26911,2.20215c-0.50832,0.0879 -0.93936,0.08555 -1.2892,0.10487z" data-paper-data="{&quot;noHover&quot;:false,&quot;origItem&quot;:[&quot;Path&quot;,{&quot;applyMatrix&quot;:true,&quot;segments&quot;:[[[423.74838,361.09453],[-0.59343,-0.84396],[0.48489,0.68961]],[[427.32853,358.80641],[-0.32108,0.25686],[0.63802,-0.51041]],[[429.36463,357.44166],[-0.50696,0.64077],[0.60747,-0.7678]],[[426.51558,356.72772],[0.97903,0.00687],[-1.35855,-0.00953]],[[423.14831,357.76864],[1.02845,-0.57318],[0,0]],[423.45262,358.14902],[[422.48448,358.92353],[0,0],[0.33399,0.61604]]],&quot;closed&quot;:true}]}" fill="#d8e1a9" stroke="none" stroke-width="0.5" stroke-linecap="butt"/><path d="M238.4759,165.02837c-1.4353,-3.6041 2.87087,0.06243 3.52496,0.69113c0.60353,0.57457 0.95274,1.07131 1.31974,1.82254l0.07078,0.04492l-0.02556,0.02031l0.30833,0.397c-0.123,0.09995 -0.25736,0.22492 -0.39601,0.36621l-0.37007,0.48731c-1.13284,-0.98855 -3.97131,-2.67217 -4.43217,-3.82941z" data-paper-data="{&quot;noHover&quot;:false,&quot;origItem&quot;:[&quot;Path&quot;,{&quot;applyMatrix&quot;:true,&quot;segments&quot;:[[[418.05896,356.05874],[0.81906,-2.89335],[0,0]],[[419.23992,356.30469],[0,0],[0.37396,0.12992]],[[420.22521,356.70435],[-0.28586,-0.13696],[0,0]],[420.67394,355.80689],[420.73151,355.83568],[[420.75207,355.66928],[0,0],[1.0446,-1.30575]],[[422.84255,351.75337],[-0.52298,1.58241],[0.57764,-1.7201]],[[421.14876,344.96052],[5.28973,-5.67601],[-1.69849,1.82251]]],&quot;closed&quot;:true}]}" fill="#d8e1a9" stroke="none" stroke-width="0.5" stroke-linecap="butt"/><path d="M249.00122,167.8323c0.25278,0.70612 -0.45333,0.9589 -0.45333,0.9589l-0.4027,0.10328c-1.64843,0.03631 -4.20412,0.41038 -5.16598,1.92964c0,0 -0.42766,0.61612 -1.04379,0.18845c-0.61612,-0.42766 -0.18846,-1.04378 -0.18846,-1.04378c1.39261,-1.90092 4.13173,-2.52475 6.36519,-2.57395l-0.06983,-0.01588c0,0 0.70612,-0.25278 0.9589,0.45333z" fill="#4c6655" stroke="none" stroke-width="0.5" stroke-linecap="butt"/><path d="M237.28628,170.62005c-0.14436,-0.5331 -0.30889,-1.0565 -0.44268,-1.59915c-0.13143,-0.5331 -0.06648,-0.87025 -0.4259,-1.28778c-0.40175,-0.4667 -0.96503,-0.98872 -1.38445,-1.41053c-0.29535,-0.29704 -0.38457,0.74547 -0.54385,1.13289c-0.26638,0.64794 -0.70515,3.63998 0.32649,3.70865c0.93388,-0.31697 1.28708,-0.60357 2.32755,-0.56997zM238.26423,172.00445c-0.26612,0.27242 -0.68133,0.19376 -0.68133,0.19376l-0.53376,-0.10702c-0.78821,-0.09181 -1.38683,0.35086 -2.18032,0.572c-2.46346,-0.63456 -2.61443,-3.65844 -1.76983,-5.77056c0.40767,-1.01949 0.86791,-2.30734 2.34748,-2.01201c0.6316,0.12607 0.94861,0.8717 1.43608,1.29262c0.67056,0.57903 0.86763,0.63312 1.20891,1.5193c0.39759,1.03241 0.62917,2.32463 0.85392,3.41042c0,0 0.15147,0.73454 -0.58308,0.88601c-0.03393,0.00699 -0.06659,0.01211 -0.09807,0.01548z" fill="#c5ce9a" stroke="none" stroke-width="0.5" stroke-linecap="butt"/><path d="M237.17688,170.63132c-1.04047,-0.03361 -1.44865,0.26095 -2.38253,0.57793c-1.03164,-0.06867 -0.60248,-3.14495 -0.3361,-3.79289c0.15928,-0.38742 0.26633,-1.43901 0.56169,-1.14197c0.41943,0.42182 1.01656,0.94647 1.41832,1.41316c0.35943,0.41753 0.32377,0.7964 0.4552,1.3295c0.13378,0.54267 0.28344,1.10563 0.42779,1.63873z" data-paper-data="{&quot;noHover&quot;:false,&quot;origItem&quot;:[&quot;Path&quot;,{&quot;applyMatrix&quot;:true,&quot;segments&quot;:[[[397.18264,352.49549],[0,0],[-0.6677,-0.87997]],[[395.16188,349.86309],[0.65527,0.90562],[-0.64374,-0.88968]],[[393.40588,347.79535],[0.97966,0.5043],[-1.09503,-0.5637]],[[389.78074,346.21937],[1.09413,0.46723],[-0.77046,-0.32902]],[[389.62271,348.72772],[0.00453,-0.83776],[-0.00758,1.40111]],[[393.01115,355.35805],[-1.96404,0.64689],[1.49341,-1.28846]],[[396.89837,352.55469],[-1.95411,0.71853],[0,0]]],&quot;closed&quot;:true}]}" fill="#d8e1a9" stroke="none" stroke-width="0.5" stroke-linecap="butt"/><path d="M240.27439,172.13249c0.05919,0.74766 -0.68847,0.80686 -0.68847,0.80686l-0.6636,0.04497c-1.82188,-0.11474 -3.4185,-0.43398 -4.86965,0.85947c0,0 -0.56262,0.49595 -1.05857,-0.06666c-0.49595,-0.56262 0.06666,-1.05857 0.06666,-1.05857c1.81934,-1.58912 3.69348,-1.37374 5.95584,-1.23127l0.45094,-0.04326c0,0 0.74766,-0.05919 0.80686,0.68847z" fill="#4c6655" stroke="none" stroke-width="0.5" stroke-linecap="butt"/><path d="M255.58454,186.45112c0.09132,-0.54471 0.16026,-1.08899 0.26518,-1.63797c0.10307,-0.53931 0.30281,-0.81858 0.15046,-1.348c-0.1703,-0.59179 -0.46427,-1.30126 -0.66936,-1.85966c-0.14443,-0.3932 -0.6606,0.51691 -0.96705,0.8025c-0.51252,0.47763 -2.16007,3.01345 -1.25125,3.50643c0.98094,0.10175 1.42153,-0.01129 2.35301,0.45353zM255.8954,188.11735c-0.35554,0.13648 -0.70001,-0.10829 -0.70001,-0.10829l-0.44037,-0.32005c-0.67795,-0.41242 -1.4067,-0.26001 -2.22007,-0.39024c-1.97375,-1.60486 -0.84883,-4.41576 0.80025,-5.98258c0.79598,-0.75628 1.75174,-1.73449 2.973,-0.84857c0.52133,0.37818 0.4982,1.18807 0.76549,1.77404c0.36769,0.80606 0.52419,0.93747 0.46444,1.88521c-0.06961,1.10412 -0.39851,2.37506 -0.64746,3.45556c0,0 -0.16894,0.73072 -0.89967,0.56179c-0.03375,-0.00781 -0.06557,-0.0168 -0.09558,-0.02687z" fill="#c5ce9a" stroke="none" stroke-width="0.5" stroke-linecap="butt"/><path d="M255.48041,186.4157c-0.93148,-0.46482 -1.42535,-0.36751 -2.40629,-0.46925c-0.90882,-0.49299 0.76516,-3.10936 1.27767,-3.58699c0.30644,-0.28558 0.84264,-1.19651 0.98707,-0.80331c0.20509,0.55838 0.52875,1.28439 0.69903,1.87618c0.15234,0.52944 -0.03819,0.85884 -0.14126,1.39815c-0.10492,0.54898 -0.20391,1.12302 -0.29523,1.66773z" data-paper-data="{&quot;noHover&quot;:false,&quot;origItem&quot;:[&quot;Path&quot;,{&quot;applyMatrix&quot;:true,&quot;segments&quot;:[[[397.18264,352.49549],[0,0],[-0.6677,-0.87997]],[[395.16188,349.86309],[0.65527,0.90562],[-0.64374,-0.88968]],[[393.40588,347.79535],[0.97966,0.5043],[-1.09503,-0.5637]],[[389.78074,346.21937],[1.09413,0.46723],[-0.77046,-0.32902]],[[389.62271,348.72772],[0.00453,-0.83776],[-0.00758,1.40111]],[[393.01115,355.35805],[-1.96404,0.64689],[1.49341,-1.28846]],[[396.89837,352.55469],[-1.95411,0.71853],[0,0]]],&quot;closed&quot;:true}]}" fill="#d8e1a9" stroke="none" stroke-width="0.5" stroke-linecap="butt"/><path d="M257.66866,189.07271c-0.25828,0.70413 -0.96239,0.44585 -0.96239,0.44585l-0.62181,-0.2361c-1.60771,-0.8647 -2.92535,-1.8212 -4.78393,-1.2515c0,0 -0.71826,0.21586 -0.93412,-0.50241c-0.21586,-0.71826 0.5024,-0.93412 0.5024,-0.93412c2.31656,-0.68471 3.92976,0.29323 5.92616,1.36698l0.42784,0.1489c0,0 0.70413,0.25828 0.44585,0.96241z" fill="#4c6655" stroke="none" stroke-width="0.5" stroke-linecap="butt"/><path d="M226.18494,185.51119l0.05731,-0.09908c0.27763,-0.47655 1.50148,-1.54697 1.58904,-1.97095c0.04607,-0.22313 -1.02399,-1.79369 -1.21025,-2.08027c-0.49726,-0.39939 -0.94872,-0.77429 -1.50192,-1.09426c-0.3739,-0.21626 -1.02432,-1.20501 -1.03974,-0.77336c-0.03835,1.07354 -0.39354,2.17112 -0.47265,3.1996c-0.04633,0.60215 1.63862,2.38263 2.48402,3.27961c-0.03021,-0.24624 0.09419,-0.4613 0.09419,-0.4613zM226.40614,187.34456c-0.51422,0.45527 -0.96948,-0.05894 -0.96948,-0.05894c-0.91045,-1.03296 -3.12174,-3.18119 -3.20349,-4.58418c-0.08468,-1.45339 0.45276,-4.7078 2.28099,-4.47809c0.88903,0.1117 2.45536,1.65349 3.12857,2.21948c0.45459,0.68361 1.65604,2.36186 1.54482,3.2157c-0.09418,0.72306 -1.37331,1.77342 -1.75629,2.44129l-0.05731,0.09908c0,0 -0.29818,0.51554 -0.81928,0.30878c0.10006,0.18232 0.20535,0.52356 -0.14853,0.83689z" data-paper-data="{&quot;index&quot;:null}" fill="#c5ce9a" stroke="none" stroke-width="0.5" stroke-linecap="butt"/><path d="M226.10261,186.0167c-0.84538,-0.89697 -2.58796,-2.72281 -2.54164,-3.32495c0.07912,-1.02848 0.46484,-2.16811 0.50318,-3.24166c0.01542,-0.43166 0.67916,0.55452 1.05306,0.77079c0.5532,0.31996 1.03926,0.70856 1.53652,1.10795c0.18626,0.28659 1.26782,1.90121 1.22174,2.12433c-0.08756,0.42397 -1.33929,1.52517 -1.61693,2.00173l-0.0586,0.09956c0,0 -0.12753,0.21602 -0.09733,0.46227z" data-paper-data="{&quot;noHover&quot;:false,&quot;origItem&quot;:[&quot;Path&quot;,{&quot;applyMatrix&quot;:true,&quot;segments&quot;:[[[383.99072,327.55408],[-0.43252,-0.32636],[-0.77141,-2.57915]],[[380.5065,319.27147],[1.18908,0.57087],[-2.03098,-0.97507]],[[373.94041,316.6663],[2.0716,1.10145],[-0.83297,-0.44288]],[[374.26558,319.47772],[0,-0.94339],[0,1.39577]],[[374.69205,323.51385],[-0.21133,-1.37686],[0.33813,0.66553]],[[377.30164,328.07677],[-0.47223,-0.15687],[0.89731,0.29808]],[[382.76558,327.22772],[-1.2046,0.00379],[0,0]],[383.01558,327.22772]],&quot;closed&quot;:true}],&quot;index&quot;:null}" fill="#d8e1a9" stroke="none" stroke-width="0.5" stroke-linecap="butt"/><path d="M225.4712,187.711l0.05731,-0.09908c1.19598,-2.05663 2.44417,-4.23374 4.95797,-4.62798c0,0 0.67904,-0.10288 0.78193,0.57615c0.10288,0.67903 -0.57615,0.78193 -0.57615,0.78193c-2.00247,0.29031 -3.03406,2.32103 -3.97471,3.9576l-0.05731,0.09908c0,0 -0.34385,0.59451 -0.93837,0.25065c-0.59451,-0.34385 -0.25065,-0.93837 -0.25065,-0.93837z" data-paper-data="{&quot;index&quot;:null}" fill="#4c6655" stroke="none" stroke-width="0.5" stroke-linecap="butt"/></g></g></svg>