<svg version="1.1" xmlns="http://www.w3.org/2000/svg" xmlns:xlink="http://www.w3.org/1999/xlink" width="103" height="52.75" viewBox="0,0,103,52.75"><g transform="translate(-188.5,-153.625)"><g data-paper-data="{&quot;isPaintingLayer&quot;:true}" fill-rule="nonzero" stroke-linecap="butt" stroke-linejoin="miter" stroke-miterlimit="10" stroke-dasharray="" stroke-dashoffset="0" style="mix-blend-mode: normal"><path d="M189.75,205.125v-50.25h50.25v50.25z" fill="#3bc300" stroke="#33a900" stroke-width="2.5"/><path d="M240,205.125v-50.25h50.25v50.25z" fill="#c20000" stroke="#a80000" stroke-width="2.5"/><path d="M189.75,205.125v-50.25h50.25v50.25z" fill="#7f7f7f" stroke="#5e5e5e" stroke-width="2.5"/><path d="M246.81512,187.65727c0.17341,-0.1397 0.35248,-0.27341 0.53704,-0.40054c0,0 0.62404,-0.41603 1.04006,0.20801c0.41603,0.62404 -0.20801,1.04006 -0.20801,1.04006c-4.28333,2.72195 -5.27997,10.13171 1.16013,10.10936c7.8601,0.0546 8.13406,-9.36885 1.36646,-11.58946c-1.18059,-0.30303 -3.39838,-0.6148 -3.89568,0.63256zM245.22193,189.302c-0.00506,-0.04346 -0.00506,-0.07025 -0.00506,-0.07025v-0.90066c0.09314,-3.23584 3.39954,-3.36213 5.91331,-2.74657c8.32885,2.8126 7.78301,14.47546 -1.78584,14.52964c-6.82651,-0.02077 -7.34329,-6.56904 -4.12241,-10.81216z" fill="#660000" stroke="none" stroke-width="0.5"/><path d="M262.41589,177.48717c0.71151,0.23717 0.47434,0.94868 0.47434,0.94868l-0.31264,0.85435c-1.4426,2.1639 -2.4909,4.57761 -4.47735,6.22722c1.14844,1.62524 2.27361,3.25758 3.35153,4.87446l0.13146,0.11086c0,0 0.53033,0.53033 0,1.06066c-0.53033,0.53033 -1.06066,0 -1.06066,0l-0.31887,-0.33947c-1.13144,-1.69715 -2.31512,-3.41511 -3.52387,-5.12361c-0.10553,-0.05162 -0.21003,-0.13949 -0.30393,-0.28034c-0.08152,-0.12228 -0.1231,-0.23657 -0.13728,-0.34131c-1.43192,-2.01124 -2.8941,-4.00421 -4.34198,-5.92933c0,0 -0.45,-0.6 0.15,-1.05c0.35871,-0.26903 0.66381,-0.16277 0.85119,-0.03379c0.02406,-0.09244 0.05382,-0.15195 0.05382,-0.15195c1.70187,-3.33186 5.02767,-5.76414 6.75494,-9.23175l0.18447,-0.57725c0,0 0.23717,-0.71151 0.94868,-0.47434c0.71151,0.23717 0.47434,0.94868 0.47434,0.94868l-0.26586,0.77373c-1.72348,3.43513 -5.14312,5.91814 -6.75494,9.23175c0,0 -0.20883,0.41766 -0.62649,0.42909c1.18862,1.59734 2.3846,3.23162 3.56274,4.87913c1.80732,-1.53265 2.77812,-3.85168 4.09999,-5.83448l0.13769,-0.49664c0,0 0.23717,-0.71151 0.94868,-0.47434z" fill="#660000" stroke="none" stroke-width="0.5"/><path d="M279.29124,166.86594c0.75,0 0.75,0.75 0.75,0.75l-0.12596,0.86635c-1.5877,2.38155 -3.76148,3.33174 -5.72283,5.29309c-0.97962,0.97962 -1.70964,2.01221 -2.82956,2.7595c1.06345,1.6196 2.22053,3.1801 3.36534,4.6131c0.56652,0.94308 1.20075,1.80155 1.80958,2.71411l0.35662,0.33602c0,0 0.53033,0.53033 0,1.06066c-0.53033,0.53033 -1.06066,0 -1.06066,0l-0.54404,-0.56463c-0.60257,-0.90457 -1.23275,-1.75487 -1.79305,-2.68984c-2.49759,-3.11756 -5.04834,-6.84811 -6.59989,-10.48232c-0.8681,-2.03337 -2.28624,-4.10835 -2.31576,-6.38286c0,0 0,-0.75 0.75,-0.75c0.31228,0 0.49454,0.13003 0.6009,0.2818c1.725,-0.91785 3.42618,-2.21725 5.06252,-3.30814l0.11086,-0.13146c0,0 0.53033,-0.53033 1.06066,0c0.53033,0.53033 0,1.06066 0,1.06066l-0.33947,0.31887c-1.82942,1.21961 -3.70809,2.61506 -5.63086,3.60889c0.35502,1.62732 1.44581,3.23742 2.07292,4.69541c0.62743,1.45874 1.41846,2.93146 2.30196,4.37222c1.02296,-0.63516 1.70139,-1.71277 2.56127,-2.57265c1.89338,-1.89338 4.02093,-2.79276 5.53541,-5.06448l-0.12596,-0.0343c0,0 0,-0.75 0.75,-0.75z" fill="#660000" stroke="none" stroke-width="0.5"/><text transform="translate(197.85563,183.51398) scale(0.30457,0.30457)" font-size="40" xml:space="preserve" fill="#ffffff" fill-rule="nonzero" stroke="none" stroke-width="1" stroke-linecap="butt" stroke-linejoin="miter" stroke-miterlimit="10" stroke-dasharray="" stroke-dashoffset="0" font-family="Sans Serif" font-weight="normal" text-anchor="start" style="mix-blend-mode: normal"><tspan x="0" dy="0">Music</tspan></text></g></g></svg>