<svg version="1.1" xmlns="http://www.w3.org/2000/svg" xmlns:xlink="http://www.w3.org/1999/xlink" width="52.75" height="52.75" viewBox="0,0,52.75,52.75"><defs><linearGradient x1="240" y1="163.31334" x2="240" y2="178.60779" gradientUnits="userSpaceOnUse" id="color-1"><stop offset="0" stop-color="#707070"/><stop offset="1" stop-color="#252525"/></linearGradient><linearGradient x1="239.27778" y1="188.62874" x2="239.27778" y2="194.45955" gradientUnits="userSpaceOnUse" id="color-2"><stop offset="0" stop-color="#3d3d3d"/><stop offset="1" stop-color="#272727"/></linearGradient></defs><g transform="translate(-213.625,-153.625)"><g data-paper-data="{&quot;isPaintingLayer&quot;:true}" fill-rule="nonzero" stroke-linejoin="miter" stroke-miterlimit="10" stroke-dasharray="" stroke-dashoffset="0" style="mix-blend-mode: normal"><path d="M214.875,205.125v-50.25h50.25v50.25z" fill="#7f7f7f" stroke="#5e5e5e" stroke-width="2.5" stroke-linecap="butt"/><path d="M225.89584,196.68666v-23.84059h26.76389v23.84059z" fill="#7c583f" stroke="#704f39" stroke-width="1.5" stroke-linecap="butt"/><path d="M224.5,178.60779v-15.29445h31v15.29445z" fill="url(#color-1)" stroke="#7d7d7d" stroke-width="1.5" stroke-linecap="butt"/><path d="M254.73696,179.3008l-4.79869,7.44444h-21.04879l-3.70808,-7.55555z" fill="#999999" stroke="#7d7d7d" stroke-width="1.5" stroke-linecap="round"/><path d="M225.40362,179.96747l-0.77777,-0.88889" fill="none" stroke="#7d7d7d" stroke-width="1.5" stroke-linecap="round"/><path d="M254.29251,180.3008l1.11111,-1" fill="none" stroke="#7d7d7d" stroke-width="1.5" stroke-linecap="round"/><path d="M225.89584,196.68666v-10.28503h26.76389v10.28503z" fill="#9a6d4e" stroke="#704f39" stroke-width="1.5" stroke-linecap="butt"/><path d="M242.53617,191.54415c0,1.61013 -1.45883,2.9154 -3.25839,2.9154c-1.79956,0 -3.25839,-1.30527 -3.25839,-2.9154c0,-1.61013 1.45883,-2.9154 3.25839,-2.9154c1.79956,0 3.25839,1.30527 3.25839,2.9154z" fill="url(#color-2)" stroke="#704f39" stroke-width="1.5" stroke-linecap="butt"/><path d="M227.09807,188.69719c0,-0.41421 0.33579,-0.75 0.75,-0.75c0.41421,0 0.75,0.33579 0.75,0.75c0,0.41421 -0.33579,0.75 -0.75,0.75c-0.41421,0 -0.75,-0.33579 -0.75,-0.75z" fill="#444444" stroke="none" stroke-width="0.5" stroke-linecap="butt"/></g></g></svg>