<svg version="1.1" xmlns="http://www.w3.org/2000/svg" xmlns:xlink="http://www.w3.org/1999/xlink" width="39.97172" height="39.97172" viewBox="0,0,39.97172,39.97172"><g transform="translate(-220.01418,-160.01414)"><g data-paper-data="{&quot;isPaintingLayer&quot;:true}" fill-rule="nonzero" stroke-linejoin="miter" stroke-miterlimit="10" stroke-dasharray="" stroke-dashoffset="0" style="mix-blend-mode: normal"><path d="M220.76419,199.23585v-38.47171h38.47171v38.47171z" fill="#9a6d4e" stroke="#704f39" stroke-width="1.5" stroke-linecap="butt"/><path d="M220.7642,199.23586v-9.09671h38.47171v9.09671z" fill="#845d44" stroke="#704f39" stroke-width="1.5" stroke-linecap="butt"/><path d="M243.45812,160.76414v7.44444l-21.66667,-0.11111" fill="none" stroke="#704f39" stroke-width="1.5" stroke-linecap="round"/><path d="M243.79145,168.09747h15.44444" fill="none" stroke="#704f39" stroke-width="1.5" stroke-linecap="round"/><path d="M235.50167,169.26516l-0.11111,3.44444h-14.55556" fill="none" stroke="#704f39" stroke-width="1.5" stroke-linecap="round"/><path d="M250.94612,169.15405l-0.11111,3.55556h-14.88889" fill="none" stroke="#704f39" stroke-width="1.5" stroke-linecap="round"/><path d="M258.39056,172.5985l-7.44444,0.11111" fill="none" stroke="#704f39" stroke-width="1.5" stroke-linecap="round"/><path d="M258.16835,179.48739l-19.66667,-0.11111l0.11111,-5.66667" fill="none" stroke="#704f39" stroke-width="1.5" stroke-linecap="round"/><path d="M238.16834,179.26516h-16.44444" fill="none" stroke="#704f39" stroke-width="1.5" stroke-linecap="round"/><path d="M227.7239,179.26516v-5.33333" fill="none" stroke="#704f39" stroke-width="1.5" stroke-linecap="round"/><path d="M234.94613,180.15405l0.11111,4.77778l-13.66667,0.11111" fill="none" stroke="#704f39" stroke-width="1.5" stroke-linecap="round"/><path d="M235.50167,185.15405l22.66667,-0.22222" fill="none" stroke="#704f39" stroke-width="1.5" stroke-linecap="round"/><path d="M249.39056,189.48739v-3.88889" fill="none" stroke="#704f39" stroke-width="1.5" stroke-linecap="round"/><path d="M231.94612,185.70961l-0.11111,3.44444" fill="none" stroke="#704f39" stroke-width="1.5" stroke-linecap="round"/><path d="M240.41833,166.15405c0,-0.41421 0.33579,-0.75 0.75,-0.75c0.41421,0 0.75,0.33579 0.75,0.75c0,0.41421 -0.33579,0.75 -0.75,0.75c-0.41421,0 -0.75,-0.33579 -0.75,-0.75z" fill="#797979" stroke="none" stroke-width="0.5" stroke-linecap="butt"/><path d="M240.41833,162.82072c0,-0.41421 0.33579,-0.75 0.75,-0.75c0.41421,0 0.75,0.33579 0.75,0.75c0,0.41421 -0.33579,0.75 -0.75,0.75c-0.41421,0 -0.75,-0.33579 -0.75,-0.75z" fill="#797979" stroke="none" stroke-width="0.5" stroke-linecap="butt"/><path d="M245.30722,166.04294c0,-0.41421 0.33579,-0.75 0.75,-0.75c0.41421,0 0.75,0.33579 0.75,0.75c0,0.41421 -0.33579,0.75 -0.75,0.75c-0.41421,0 -0.75,-0.33579 -0.75,-0.75z" fill="#797979" stroke="none" stroke-width="0.5" stroke-linecap="butt"/><path d="M245.085,162.70961c0,-0.41421 0.33579,-0.75 0.75,-0.75c0.41421,0 0.75,0.33579 0.75,0.75c0,0.41421 -0.33579,0.75 -0.75,0.75c-0.41421,0 -0.75,-0.33579 -0.75,-0.75z" fill="#797979" stroke="none" stroke-width="0.5" stroke-linecap="butt"/><path d="M252.41833,170.48739c0,-0.41421 0.33579,-0.75 0.75,-0.75c0.41421,0 0.75,0.33579 0.75,0.75c0,0.41421 -0.33579,0.75 -0.75,0.75c-0.41421,0 -0.75,-0.33579 -0.75,-0.75z" fill="#797979" stroke="none" stroke-width="0.5" stroke-linecap="butt"/><path d="M247.64056,170.37627c0,-0.41421 0.33579,-0.75 0.75,-0.75c0.41421,0 0.75,0.33579 0.75,0.75c0,0.41421 -0.33579,0.75 -0.75,0.75c-0.41421,0 -0.75,-0.33579 -0.75,-0.75z" fill="#797979" stroke="none" stroke-width="0.5" stroke-linecap="butt"/><path d="M236.97389,170.04294c0,-0.41421 0.33579,-0.75 0.75,-0.75c0.41421,0 0.75,0.33579 0.75,0.75c0,0.41421 -0.33579,0.75 -0.75,0.75c-0.41421,0 -0.75,-0.33579 -0.75,-0.75z" fill="#797979" stroke="none" stroke-width="0.5" stroke-linecap="butt"/><path d="M232.19611,170.26516c0,-0.41421 0.33579,-0.75 0.75,-0.75c0.41421,0 0.75,0.33579 0.75,0.75c0,0.41421 -0.33579,0.75 -0.75,0.75c-0.41421,0 -0.75,-0.33579 -0.75,-0.75z" fill="#797979" stroke="none" stroke-width="0.5" stroke-linecap="butt"/><path d="M224.97389,174.82072c0,-0.41421 0.33579,-0.75 0.75,-0.75c0.41421,0 0.75,0.33579 0.75,0.75c0,0.41421 -0.33579,0.75 -0.75,0.75c-0.41421,0 -0.75,-0.33579 -0.75,-0.75z" fill="#797979" stroke="none" stroke-width="0.5" stroke-linecap="butt"/><path d="M224.97389,177.37627c0,-0.41421 0.33579,-0.75 0.75,-0.75c0.41421,0 0.75,0.33579 0.75,0.75c0,0.41421 -0.33579,0.75 -0.75,0.75c-0.41421,0 -0.75,-0.33579 -0.75,-0.75z" fill="#797979" stroke="none" stroke-width="0.5" stroke-linecap="butt"/><path d="M229.41833,174.5985c0,-0.41421 0.33579,-0.75 0.75,-0.75c0.41421,0 0.75,0.33579 0.75,0.75c0,0.41421 -0.33579,0.75 -0.75,0.75c-0.41421,0 -0.75,-0.33579 -0.75,-0.75z" fill="#797979" stroke="none" stroke-width="0.5" stroke-linecap="butt"/><path d="M229.30722,177.26516c0,-0.41421 0.33579,-0.75 0.75,-0.75c0.41421,0 0.75,0.33579 0.75,0.75c0,0.41421 -0.33579,0.75 -0.75,0.75c-0.41421,0 -0.75,-0.33579 -0.75,-0.75z" fill="#797979" stroke="none" stroke-width="0.5" stroke-linecap="butt"/><path d="M235.64056,174.82072c0,-0.41421 0.33579,-0.75 0.75,-0.75c0.41421,0 0.75,0.33579 0.75,0.75c0,0.41421 -0.33579,0.75 -0.75,0.75c-0.41421,0 -0.75,-0.33579 -0.75,-0.75z" fill="#797979" stroke="none" stroke-width="0.5" stroke-linecap="butt"/><path d="M235.64056,177.26516c0,-0.41421 0.33579,-0.75 0.75,-0.75c0.41421,0 0.75,0.33579 0.75,0.75c0,0.41421 -0.33579,0.75 -0.75,0.75c-0.41421,0 -0.75,-0.33579 -0.75,-0.75z" fill="#797979" stroke="none" stroke-width="0.5" stroke-linecap="butt"/><path d="M239.86278,174.48739c0,-0.41421 0.33579,-0.75 0.75,-0.75c0.41421,0 0.75,0.33579 0.75,0.75c0,0.41421 -0.33579,0.75 -0.75,0.75c-0.41421,0 -0.75,-0.33579 -0.75,-0.75z" fill="#797979" stroke="none" stroke-width="0.5" stroke-linecap="butt"/><path d="M239.97389,177.48739c0,-0.41421 0.33579,-0.75 0.75,-0.75c0.41421,0 0.75,0.33579 0.75,0.75c0,0.41421 -0.33579,0.75 -0.75,0.75c-0.41421,0 -0.75,-0.33579 -0.75,-0.75z" fill="#797979" stroke="none" stroke-width="0.5" stroke-linecap="butt"/><path d="M256.30722,174.37627c0,-0.41421 0.33579,-0.75 0.75,-0.75c0.41421,0 0.75,0.33579 0.75,0.75c0,0.41421 -0.33579,0.75 -0.75,0.75c-0.41421,0 -0.75,-0.33579 -0.75,-0.75z" fill="#797979" stroke="none" stroke-width="0.5" stroke-linecap="butt"/><path d="M256.41833,177.15405c0,-0.41421 0.33579,-0.75 0.75,-0.75c0.41421,0 0.75,0.33579 0.75,0.75c0,0.41421 -0.33579,0.75 -0.75,0.75c-0.41421,0 -0.75,-0.33579 -0.75,-0.75z" fill="#797979" stroke="none" stroke-width="0.5" stroke-linecap="butt"/><path d="M236.64056,181.04294c0,-0.41421 0.33579,-0.75 0.75,-0.75c0.41421,0 0.75,0.33579 0.75,0.75c0,0.41421 -0.33579,0.75 -0.75,0.75c-0.41421,0 -0.75,-0.33579 -0.75,-0.75z" fill="#797979" stroke="none" stroke-width="0.5" stroke-linecap="butt"/><path d="M236.86278,183.37627c0,-0.41421 0.33579,-0.75 0.75,-0.75c0.41421,0 0.75,0.33579 0.75,0.75c0,0.41421 -0.33579,0.75 -0.75,0.75c-0.41421,0 -0.75,-0.33579 -0.75,-0.75z" fill="#797979" stroke="none" stroke-width="0.5" stroke-linecap="butt"/><path d="M232.41833,180.82072c0,-0.41421 0.33579,-0.75 0.75,-0.75c0.41421,0 0.75,0.33579 0.75,0.75c0,0.41421 -0.33579,0.75 -0.75,0.75c-0.41421,0 -0.75,-0.33579 -0.75,-0.75z" fill="#797979" stroke="none" stroke-width="0.5" stroke-linecap="butt"/><path d="M232.41833,182.93183c0,-0.41421 0.33579,-0.75 0.75,-0.75c0.41421,0 0.75,0.33579 0.75,0.75c0,0.41421 -0.33579,0.75 -0.75,0.75c-0.41421,0 -0.75,-0.33579 -0.75,-0.75z" fill="#797979" stroke="none" stroke-width="0.5" stroke-linecap="butt"/><path d="M232.86278,187.04294c0,-0.41421 0.33579,-0.75 0.75,-0.75c0.41421,0 0.75,0.33579 0.75,0.75c0,0.41421 -0.33579,0.75 -0.75,0.75c-0.41421,0 -0.75,-0.33579 -0.75,-0.75z" fill="#797979" stroke="none" stroke-width="0.5" stroke-linecap="butt"/><path d="M232.86278,188.5985c0,-0.41421 0.33579,-0.75 0.75,-0.75c0.41421,0 0.75,0.33579 0.75,0.75c0,0.41421 -0.33579,0.75 -0.75,0.75c-0.41421,0 -0.75,-0.33579 -0.75,-0.75z" fill="#797979" stroke="none" stroke-width="0.5" stroke-linecap="butt"/><path d="M229.52944,186.5985c0,-0.41421 0.33579,-0.75 0.75,-0.75c0.41421,0 0.75,0.33579 0.75,0.75c0,0.41421 -0.33579,0.75 -0.75,0.75c-0.41421,0 -0.75,-0.33579 -0.75,-0.75z" fill="#797979" stroke="none" stroke-width="0.5" stroke-linecap="butt"/><path d="M229.52944,188.5985c0,-0.41421 0.33579,-0.75 0.75,-0.75c0.41421,0 0.75,0.33579 0.75,0.75c0,0.41421 -0.33579,0.75 -0.75,0.75c-0.41421,0 -0.75,-0.33579 -0.75,-0.75z" fill="#797979" stroke="none" stroke-width="0.5" stroke-linecap="butt"/><path d="M250.75167,186.5985c0,-0.41421 0.33579,-0.75 0.75,-0.75c0.41421,0 0.75,0.33579 0.75,0.75c0,0.41421 -0.33579,0.75 -0.75,0.75c-0.41421,0 -0.75,-0.33579 -0.75,-0.75z" fill="#797979" stroke="none" stroke-width="0.5" stroke-linecap="butt"/><path d="M250.52944,188.5985c0,-0.41421 0.33579,-0.75 0.75,-0.75c0.41421,0 0.75,0.33579 0.75,0.75c0,0.41421 -0.33579,0.75 -0.75,0.75c-0.41421,0 -0.75,-0.33579 -0.75,-0.75z" fill="#797979" stroke="none" stroke-width="0.5" stroke-linecap="butt"/><path d="M246.52944,186.5985c0,-0.41421 0.33579,-0.75 0.75,-0.75c0.41421,0 0.75,0.33579 0.75,0.75c0,0.41421 -0.33579,0.75 -0.75,0.75c-0.41421,0 -0.75,-0.33579 -0.75,-0.75z" fill="#797979" stroke="none" stroke-width="0.5" stroke-linecap="butt"/><path d="M247.085,188.70961c0,-0.41421 0.33579,-0.75 0.75,-0.75c0.41421,0 0.75,0.33579 0.75,0.75c0,0.41421 -0.33579,0.75 -0.75,0.75c-0.41421,0 -0.75,-0.33579 -0.75,-0.75z" fill="#797979" stroke="none" stroke-width="0.5" stroke-linecap="butt"/><path d="M256.64056,186.48739c0,-0.41421 0.33579,-0.75 0.75,-0.75c0.41421,0 0.75,0.33579 0.75,0.75c0,0.41421 -0.33579,0.75 -0.75,0.75c-0.41421,0 -0.75,-0.33579 -0.75,-0.75z" fill="#797979" stroke="none" stroke-width="0.5" stroke-linecap="butt"/><path d="M256.52944,188.5985c0,-0.41421 0.33579,-0.75 0.75,-0.75c0.41421,0 0.75,0.33579 0.75,0.75c0,0.41421 -0.33579,0.75 -0.75,0.75c-0.41421,0 -0.75,-0.33579 -0.75,-0.75z" fill="#797979" stroke="none" stroke-width="0.5" stroke-linecap="butt"/><path d="M221.97389,163.15405c0,-0.41421 0.33579,-0.75 0.75,-0.75c0.41421,0 0.75,0.33579 0.75,0.75c0,0.41421 -0.33579,0.75 -0.75,0.75c-0.41421,0 -0.75,-0.33579 -0.75,-0.75z" fill="#797979" stroke="none" stroke-width="0.5" stroke-linecap="butt"/><path d="M221.86278,166.15405c0,-0.41421 0.33579,-0.75 0.75,-0.75c0.41421,0 0.75,0.33579 0.75,0.75c0,0.41421 -0.33579,0.75 -0.75,0.75c-0.41421,0 -0.75,-0.33579 -0.75,-0.75z" fill="#797979" stroke="none" stroke-width="0.5" stroke-linecap="butt"/><path d="M227.16833,190.82072l-0.11111,7.55556" fill="none" stroke="#704f39" stroke-width="1.5" stroke-linecap="round"/><path d="M233.61278,198.93183l0.22222,-8.11111" fill="none" stroke="#704f39" stroke-width="1.5" stroke-linecap="round"/><path d="M236.94611,191.15405v7.33333" fill="none" stroke="#704f39" stroke-width="1.5" stroke-linecap="round"/><path d="M244.61278,198.93183v-7.77778" fill="none" stroke="#704f39" stroke-width="1.5" stroke-linecap="round"/><path d="M249.39056,190.37627v8" fill="none" stroke="#704f39" stroke-width="1.5" stroke-linecap="round"/><path d="M254.50167,198.48739l-0.11111,-7.77778" fill="none" stroke="#704f39" stroke-width="1.5" stroke-linecap="round"/><path d="M234.39056,195.15405l1.66667,-0.11111" fill="none" stroke="#704f39" stroke-width="1.5" stroke-linecap="round"/><path d="M250.05722,193.15405h3.55556" fill="none" stroke="#704f39" stroke-width="1.5" stroke-linecap="round"/></g></g></svg>