<svg version="1.1" xmlns="http://www.w3.org/2000/svg" xmlns:xlink="http://www.w3.org/1999/xlink" width="38.375" height="32.883" viewBox="0,0,38.375,32.883"><g transform="translate(-220.8125,-166.46949)"><g data-paper-data="{&quot;isPaintingLayer&quot;:true}" fill-rule="nonzero" stroke-width="1.5" stroke-linejoin="miter" stroke-miterlimit="10" stroke-dasharray="" stroke-dashoffset="0" style="mix-blend-mode: normal"><path d="M221.5625,198.60249v-20.25h36.875v20.25z" fill="#999999" stroke="#7d7d7d" stroke-linecap="butt"/><path d="M221.5625,184.48554v-17.26605h36.875v17.26605z" fill="#999999" stroke="#7d7d7d" stroke-linecap="butt"/><path d="M224,182.78187v-13.8587h32v13.8587z" fill="#1c5ce6" stroke="#2640e3" stroke-linecap="butt"/><path d="M227.55747,182.27816l-0.19988,-12.19269" fill="none" stroke="#cacaca" stroke-linecap="round"/><path d="M231.55507,170.00603l0.4997,11.9928" fill="none" stroke="#cacaca" stroke-linecap="round"/><path d="M235.15291,169.50633l0.09994,12.69238" fill="none" stroke="#cacaca" stroke-linecap="round"/><path d="M237.95123,170.03551l0.19988,12.59244" fill="none" stroke="#cacaca" stroke-linecap="round"/><path d="M241.14931,169.58978l0.9994,13.19209" fill="none" stroke="#cacaca" stroke-linecap="round"/><path d="M243.54787,170.28536l0.89946,12.09274" fill="none" stroke="#cacaca" stroke-linecap="round"/><path d="M246.34619,170.23539l0.79952,12.19268" fill="none" stroke="#cacaca" stroke-linecap="round"/><path d="M249.14452,170.10597l0.39976,11.69298" fill="none" stroke="#cacaca" stroke-linecap="round"/><path d="M252.54248,170.13545l0.4997,12.09275" fill="none" stroke="#cacaca" stroke-linecap="round"/><path d="M221.5625,184.48554v-17.26605h36.875v17.26605z" fill="none" stroke="#7d7d7d" stroke-linecap="butt"/><path d="M224.07011,172.73389l30.78153,0.09994" fill="none" stroke="#cacaca" stroke-linecap="round"/><path d="M224.07011,176.33173l31.08135,0.09994" fill="none" stroke="#cacaca" stroke-linecap="round"/><path d="M224.36993,179.92957l30.78153,0.39976" fill="none" stroke="#cacaca" stroke-linecap="round"/><path d="M224,182.78187v-13.8587h32v13.8587z" fill="none" stroke="#213be3" stroke-linecap="butt"/><path d="M229.40636,194.32094c0,1.1039 -0.87252,1.9988 -1.94883,1.9988c-1.07631,0 -1.94883,-0.8949 -1.94883,-1.9988c0,-1.1039 0.87252,-1.9988 1.94883,-1.9988c1.07631,0 1.94883,0.89489 1.94883,1.9988z" fill="#7e7e7e" stroke="#6f6f6f" stroke-linecap="butt"/><path d="M256.05091,187.52501l0.09994,5.19688" fill="none" stroke="#6f6f6f" stroke-linecap="round"/><path d="M254.05212,187.32513l0.09994,5.19689" fill="none" stroke="#6f6f6f" stroke-linecap="round"/><path d="M251.7535,187.52501l0.09994,4.99701" fill="none" stroke="#6f6f6f" stroke-linecap="round"/><path d="M235.20288,189.82663c0,1.1039 -0.87252,1.9988 -1.94883,1.9988c-1.07631,0 -1.94883,-0.8949 -1.94883,-1.9988c0,-1.1039 0.87252,-1.9988 1.94883,-1.9988c1.07631,0 1.94883,0.89489 1.94883,1.9988z" fill="#7e7e7e" stroke="#6f6f6f" stroke-linecap="butt"/><path d="M221.5625,198.60249v-20.25h36.875v20.25z" fill="#999999" stroke="#7d7d7d" stroke-linecap="butt"/><path d="M221.5625,184.48554v-17.26605h36.875v17.26605z" fill="#999999" stroke="#7d7d7d" stroke-linecap="butt"/><path d="M224,182.78187v-13.8587h32v13.8587z" fill="#0049e6" stroke="#001ee4" stroke-linecap="butt"/><path d="M227.55747,182.27816l-0.19988,-12.19268" fill="none" stroke="#ffffff" stroke-linecap="round"/><path d="M231.55507,170.00602l0.4997,11.9928" fill="none" stroke="#ffffff" stroke-linecap="round"/><path d="M235.15291,169.50632l0.09994,12.69238" fill="none" stroke="#ffffff" stroke-linecap="round"/><path d="M237.95123,170.03551l0.19988,12.59244" fill="none" stroke="#ffffff" stroke-linecap="round"/><path d="M241.14931,169.58978l0.9994,13.19208" fill="none" stroke="#ffffff" stroke-linecap="round"/><path d="M243.54787,170.28536l0.89946,12.09274" fill="none" stroke="#ffffff" stroke-linecap="round"/><path d="M246.34619,170.23539l0.79952,12.19268" fill="none" stroke="#ffffff" stroke-linecap="round"/><path d="M249.14451,170.10596l0.39976,11.69298" fill="none" stroke="#ffffff" stroke-linecap="round"/><path d="M252.54247,170.13545l0.4997,12.09274" fill="none" stroke="#ffffff" stroke-linecap="round"/><path d="M221.5625,184.48554v-17.26605h36.875v17.26605z" fill="none" stroke="#7d7d7d" stroke-linecap="butt"/><path d="M224.0701,172.73389l30.78153,0.09994" fill="none" stroke="#ffffff" stroke-linecap="round"/><path d="M255.15145,176.43167l-31.08135,-0.09994" fill="none" stroke="#ffffff" stroke-linecap="round"/><path d="M224.36992,179.92957l30.78153,0.39976" fill="none" stroke="#ffffff" stroke-linecap="round"/><path d="M224,182.78187v-13.8587h32v13.8587z" fill="none" stroke="#001ee4" stroke-linecap="butt"/><path d="M229.40636,194.32093c0,1.10391 -0.87252,1.9988 -1.94883,1.9988c-1.07631,0 -1.94883,-0.89489 -1.94883,-1.9988c0,-1.10391 0.87252,-1.9988 1.94883,-1.9988c1.07631,0 1.94883,0.89489 1.94883,1.9988z" fill="#7e7e7e" stroke="#6f6f6f" stroke-linecap="butt"/><path d="M256.05092,187.52501l0.09994,5.19688" fill="none" stroke="#6f6f6f" stroke-linecap="round"/><path d="M254.05211,187.32513l0.09994,5.19688" fill="none" stroke="#6f6f6f" stroke-linecap="round"/><path d="M251.85343,192.52201l-0.09994,-4.997" fill="none" stroke="#6f6f6f" stroke-linecap="round"/><path d="M235.20288,189.82663c0,1.1039 -0.87252,1.9988 -1.94883,1.9988c-1.07631,0 -1.94883,-0.8949 -1.94883,-1.9988c0,-1.1039 0.87252,-1.9988 1.94883,-1.9988c1.07631,0 1.94883,0.89489 1.94883,1.9988z" fill="#7e7e7e" stroke="#6f6f6f" stroke-linecap="butt"/></g></g></svg>