<svg version="1.1" xmlns="http://www.w3.org/2000/svg" xmlns:xlink="http://www.w3.org/1999/xlink" width="66.42273" height="25.82729" viewBox="0,0,66.42273,25.82729"><g transform="translate(-206.78864,-167.08636)"><g data-paper-data="{&quot;isPaintingLayer&quot;:true}" fill-rule="nonzero" stroke="none" stroke-width="0.5" stroke-linecap="butt" stroke-linejoin="miter" stroke-miterlimit="10" stroke-dasharray="" stroke-dashoffset="0" style="mix-blend-mode: normal"><path d="M232.50045,174.59042c0,0 -0.07864,0.68824 0.67136,0.68824c0.75,0 0.75452,-0.75509 0.75452,-0.75509c0,-1.40922 -0.58106,-4.4182 -0.07585,-5.65527c0.11553,-0.28289 1.45114,-0.10628 1.59443,-0.10628c0.89224,0 3.93951,-0.34688 4.30026,0.46458c-0.07949,1.31566 -0.55926,4.56097 0.4433,5.56352c0.86177,0.86177 1.98591,0.38222 2.92258,0.21909c2.58218,-0.44971 6.14315,-0.65051 8.71472,0.00875c6.01065,1.49914 12.31739,4.75046 15.81076,10.21626c0.86454,1.2968 2.05538,2.53106 2.94556,3.88676c-0.4409,-0.11342 -0.97346,-0.2563 -1.27448,-0.46351c-3.77566,-2.59903 -7.74178,-5.82991 -12.15894,-7.31328c-2.79029,-0.90042 -5.42806,-2.27935 -8.36652,-2.76733c-2.39469,-0.39768 -5.178,0.01454 -7.60905,0.01454c-6.18325,0 -10.95984,0.27456 -16.53845,3.06387c-3.07495,2.05955 -6.24725,4.45754 -8.90666,7.10643c-0.72504,0.72217 -1.43078,2.03735 -2.1663,2.65637c-0.36109,0.3039 -2.79222,-1.17821 -3.1604,-1.304c-1.7491,-0.58303 -2.81185,-2.83516 -1.81545,-4.71682c1.79684,-3.39328 3.95053,-5.99516 7.15541,-8.17027c4.97859,-1.65953 10.41295,-4.45154 15.68329,-4.45154c0.25,0 0.699,0.06971 0.949,0.06971c0.06342,0.70481 0.12693,1.32665 0.12693,1.74527z" data-paper-data="{&quot;noHover&quot;:false,&quot;origItem&quot;:[&quot;Path&quot;,{&quot;applyMatrix&quot;:true,&quot;segments&quot;:[[[207.00237,123.75],[0.06342,0.70481],[-0.25,0]],[[206.125,123.75],[0.25,0],[-5.27034,0]],[[190.45451,128.17374],[4.97859,-1.65953],[-3.20488,2.17511]],[[183.29874,136.32951],[1.79684,-3.39328],[-0.99639,1.88166]],[[185.11217,141.03849],[-1.7491,-0.58303],[0.36819,0.12579]],[[188.27111,142.33874],[-0.36109,0.3039],[0.73552,-0.61902]],[[190.34467,139.71967],[-0.72504,0.72217],[2.65941,-2.64889]],[[199.24855,132.60132],[-3.07495,2.05955],[5.57861,-2.7893]],[[215.875,129.5],[-6.18325,0],[2.43105,0]],[[223.49514,129.50968],[-2.39469,-0.39768],[2.93846,0.48798]],[[231.86217,132.28849],[-2.79029,-0.90042],[4.41716,1.48337]],[[244.0193,139.61201],[-3.77566,-2.59903],[0.30102,0.20721]],[[245.19769,140.04784],[-0.4409,-0.11342],[-0.89018,-1.3557]],[[242.25096,136.16603],[0.86454,1.2968],[-3.49336,-5.4658]],[[226.4431,125.97761],[6.01065,1.49914],[-2.57157,-0.65927]],[[217.74514,125.99032],[2.58218,-0.44971],[-0.93667,0.16313]],[[214.84467,125.78033],[0.86177,0.86177],[-1.00255,-1.00255]],[[214.40718,120.21734],[-0.07949,1.31566],[-0.36075,-0.81146]],[[210.125,119.75],[0.89224,0],[-0.14329,0]],[[208.53626,119.85389],[0.11553,-0.28289],[-0.50521,1.23707]],[[208.625,125.5],[0,-1.40922],[0,0]],[[207.875,126.25],[0.75,0],[-0.75,0]],[[207.125,125.5],[0,0],[0,-0.41862]]],&quot;closed&quot;:true}]}" fill="#d3d3d3"/><path d="M213.85747,176.64798c0.06905,0.01202 0.14133,0.01883 0.21572,0.02225c0.1675,-0.10463 0.46278,-0.21897 0.77495,-0.0104c0.31568,0.00574 0.60143,0.05974 0.77448,0.29551c0.15242,0.20767 -1.04907,3.13905 -1.19974,3.59106c-1.20475,3.61426 -0.71151,6.77098 -0.71151,10.51283c0,0 0,0.75 -0.75,0.75c-0.263,0 -0.43378,-0.09223 -0.54467,-0.212c-0.48323,0.3051 -1.03671,0.03654 -1.3787,-0.59793c-0.0889,0.03734 -0.19647,0.05993 -0.32664,0.05993c-0.75,0 -0.75,-0.75 -0.75,-0.75c0,-4.23757 -0.19387,-10.31097 3.55949,-13.17524c0.10508,-0.16622 0.21713,-0.32836 0.33662,-0.48602z" fill="#e4e4e4"/><path d="M220.04677,174.63842c0.67082,0.33541 0.33541,1.00623 0.33541,1.00623l-0.29678,0.58061c-2.421,3.56718 -3.62404,8.81629 -3.62404,13.08397c0,0 0,0.75 -0.75,0.75c-0.75,0 -0.75,-0.75 -0.75,-0.75c0,-4.6048 1.32989,-10.04151 3.87596,-13.91603l0.20322,-0.41939c0,0 0.33541,-0.67082 1.00623,-0.33541z" fill="#e4e4e4"/><path d="M232.22115,171.30924c-0.07426,-1.27226 -0.05368,-2.51687 0.32896,-3.10389c0.85857,-1.31718 6.49923,-1.42953 7.76515,-0.55736c0.40452,0.2787 0.57595,0.79595 0.86393,1.19392c0.02664,0.80081 -0.4724,4.4021 0.06251,4.93701c0.35958,0.35958 2.03847,-0.21967 2.46967,-0.21967c2.76542,0 5.64787,-0.65882 8.4319,0.02239c6.51824,1.63317 12.75471,5.07958 16.69214,10.81158c1.35338,2.03007 3.28379,3.82642 4.08747,6.17885l0.24446,0.73339c0.0285,0.07926 0.04402,0.16471 0.04402,0.25378c0,0.41421 -0.33579,0.75 -0.75,0.75c-0.20711,0 -0.39461,-0.08395 -0.53033,-0.21967l-0.75,-0.75l0.05788,-0.05788c-4.66214,-2.79672 -9.28969,-6.7841 -14.51472,-8.51093c-2.70337,-0.92357 -5.27849,-2.2431 -8.13297,-2.7212c-2.30536,-0.38613 -5.03583,0.00968 -7.37986,0.00968c-5.91316,0 -10.54415,0.23398 -15.87355,2.89868c-2.96633,1.9655 -6.05022,4.32475 -8.59612,6.88165c-0.6593,0.66214 -1.63478,2.45445 -2.42644,2.88093c-1.35533,0.73014 -3.15739,-0.81778 -4.34106,-1.19974c-2.66331,-0.88777 -3.97321,-4.09764 -2.68657,-6.79103c1.77689,-3.71964 4.4027,-6.58269 7.84422,-8.84422c5.19268,-1.73089 10.8136,-4.57626 16.32951,-4.57626c0.25,0 0.5,0 0.75,0zM232.33873,172.80924c-0.25,0 -0.62737,0 -0.87737,0c-5.27034,0 -10.69189,2.76421 -15.67049,4.42374c-3.20488,2.17511 -5.35894,4.7625 -7.15578,8.15578c-0.99639,1.88166 0.06434,4.12594 1.81343,4.70897c0.36819,0.12579 2.79785,1.60416 3.15894,1.30026c0.73552,-0.61902 1.34853,-1.8969 2.07356,-2.61907c2.65941,-2.64889 5.82893,-5.0588 8.90388,-7.11835c5.57861,-2.7893 10.44319,-3.10132 16.62645,-3.10132c2.43105,0 5.22545,-0.388 7.62014,0.00968c2.93846,0.48798 5.57674,1.87838 8.36703,2.7788c4.41716,1.48337 8.38147,4.7245 12.15713,7.32352c0.30102,0.20721 0.73749,0.32241 1.17839,0.43583c-0.89018,-1.3557 -2.08219,-2.58501 -2.94672,-3.88181c-3.49336,-5.4658 -9.79721,-8.68928 -15.80786,-10.18842c-2.57157,-0.65927 -6.11579,-0.437 -8.69796,0.01271c-0.93667,0.16313 -2.0387,0.65178 -2.90047,-0.20999c-1.00255,-1.00255 -0.51698,-4.24733 -0.43749,-5.56299c-0.36075,-0.81146 -3.38994,-0.46734 -4.28218,-0.46734c-0.14329,0 -1.47321,-0.179 -1.58874,0.10389c-0.50521,1.23707 0.08874,4.23688 0.08874,5.64611c0,0 0,0.75 -0.75,0.75c-0.75,0 -0.75,-0.75 -0.75,-0.75c0,-0.41862 -0.05922,-1.04519 -0.12263,-1.75z" fill="#b3b3b3"/></g></g></svg>