<svg version="1.1" xmlns="http://www.w3.org/2000/svg" xmlns:xlink="http://www.w3.org/1999/xlink" width="59.39911" height="33.3694" viewBox="0,0,59.39911,33.3694"><g transform="translate(-210.53357,-164.3474)"><g data-paper-data="{&quot;isPaintingLayer&quot;:true}" fill-rule="nonzero" stroke="none" stroke-width="0.5" stroke-linecap="butt" stroke-linejoin="miter" stroke-miterlimit="10" stroke-dasharray="" stroke-dashoffset="0" style="mix-blend-mode: normal"><path d="M244.51447,178.99252c-2.23908,0.83742 -4.32738,1.96918 -5.85049,3.46959l-0.65978,0.44029c1.01298,-0.38489 2.92209,-1.41436 3.15526,-1.49622c2.25079,-0.79017 5.17076,-0.98812 7.45729,-0.34503c4.35266,1.26193 5.73997,5.00154 8.37397,8.17965c0.68504,0.82656 1.97541,2.60844 3.29635,1.69922c-0.16417,-1.34846 -1.48381,-3.81146 -2.19171,-5.04252c-0.17437,-0.30324 -0.71464,-0.98995 -0.9547,-1.48602c-3.8613,-3.21591 -6.52363,-5.51598 -12.01012,-5.53016c-0.20686,0.02936 -0.41222,0.06666 -0.61607,0.11118zM248.71596,177.76511c3.6498,0.79904 6.15303,2.83506 9.34775,5.4752c0.81597,0.00079 1.77044,0.78608 2.24017,1.13651c2.14515,1.60036 3.2352,4.09863 4.63373,6.30691c-0.12986,-0.97148 -0.13645,-2.81643 -0.1639,-3.23314c-0.0901,-1.36785 -2.04595,-4.53636 -1.77302,-5.55236c0.02396,-0.08918 0.05032,-0.17259 0.07894,-0.25045c-1.13872,-1.18246 -1.97941,-2.65395 -3.25551,-3.70476c-1.81764,-1.49673 -5.88288,-1.3394 -8.03476,-0.7295c-0.9734,0.13447 -2.01202,0.31579 -3.07339,0.55158zM264.25113,180.72517c1.09133,0.02292 2.58414,1.30434 3.62032,2.35516c-0.15503,-0.83794 -0.28462,-1.66402 -0.48156,-2.10862c-1.5779,-3.56202 -3.33757,-7.26373 -7.16351,-8.87217c-6.11902,-2.61497 -10.12942,1.98798 -15.08804,4.7988c-0.31681,0.20952 -0.63636,0.41806 -0.95844,0.62494c2.44452,-0.88193 5.03824,-1.43751 7.29662,-1.76502c2.62163,-0.74304 7.09639,-0.73375 9.29857,1.03405c1.37552,1.10419 2.21846,2.72888 3.47604,3.93288zM235.88038,180.4789l0.45711,-0.37821c2.78304,-1.18318 5.48607,-2.79749 8.01225,-4.46814c5.44716,-3.08775 9.75042,-7.74318 16.46751,-4.90072c4.59045,1.97013 9.81279,9.45851 8.85112,14.85173l0.26431,0.03278l-0.10988,0.87197c-0.04137,0.37208 -0.35933,0.66151 -0.74544,0.66151c-0.3154,0 -0.58533,-0.19313 -0.69617,-0.46668l-0.32563,-0.75373c-0.13094,-0.29805 -0.26188,-0.59611 -0.39282,-0.89416c-0.71086,-0.83027 -1.32967,-1.4723 -2.23364,-2.09532c-0.08037,-0.05539 -0.19312,-0.14226 -0.31454,-0.24033c1.14026,1.57689 1.17129,4.87837 1.26689,6.41553c0.10897,1.75195 -0.06437,5.02817 -2.37258,2.88381c-1.15896,-1.72654 -2.02434,-3.74694 -3.387,-5.32609c-0.08507,-0.09859 -0.40589,-0.34667 -0.77855,-0.64384c0.01292,0.03269 0.02384,0.05956 0.03262,0.07943c0.74408,1.68382 1.82827,3.67629 1.76949,5.46272c-1.446,1.2399 -3.43202,1.41833 -4.81475,-0.17455c-2.6816,-3.08914 -4.30346,-7.71455 -8.62603,-8.90472c-2.43916,-0.69735 -5.75669,-0.26875 -7.99229,0.93081c-0.97602,0.5237 -2.75749,1.69677 -3.88755,0.64346c-0.40085,-0.37363 -0.45496,-1.96396 -0.53253,-2.6345c-0.37747,-0.49095 0.08808,-0.95276 0.08808,-0.95276z" data-paper-data="{&quot;index&quot;:null}" fill="#343645"/><path d="M245.10338,178.8397c5.48649,0.01418 8.22583,2.35199 12.08713,5.5679c0.24006,0.49607 0.78025,1.19146 0.95461,1.4947c0.7079,1.23108 2.02188,3.71264 2.18605,5.06111c-1.32094,0.90922 -2.6994,-0.9196 -3.38445,-1.74616c-2.63399,-3.17811 -3.97077,-6.84498 -8.32343,-8.10691c-2.28653,-0.64309 -5.16759,-0.47365 -7.41837,0.31652c-0.23317,0.08186 -2.13864,1.10005 -3.15163,1.48496l0.56215,-0.46162c1.52311,-1.50041 3.62969,-2.65974 5.86876,-3.49716c0.20386,-0.04452 0.41231,-0.08398 0.61917,-0.11335z" data-paper-data="{&quot;noHover&quot;:false,&quot;origItem&quot;:[&quot;Path&quot;,{&quot;applyMatrix&quot;:true,&quot;selected&quot;:true,&quot;segments&quot;:[[[470.67144,360.56289],[0.41373,0.05919],[-10.97298,0.02857],7],[[446.6512,371.71244],[7.72259,-6.48372],[-0.48012,1.00014],7],[[444.74181,374.70845],[0.34874,-0.61137],[-1.4158,2.48202],7],[[440.35839,384.87488],[0.32833,-2.71869],[2.64188,1.83313],7],[[446.9511,381.44902],[-1.37009,1.66646],[5.26798,-6.4075],7],[[463.69903,364.95772],[-8.70533,2.54422],[4.57305,-1.29656],7],[[478.6136,365.65334],[-4.50157,-1.59309],[0.46635,0.16504],7],[[484.92413,368.66991],[-2.02597,-0.77601],[0,0],7],[[483.60457,367.78224],[0,0],[-3.04622,-3.02504],7],[[471.90359,360.78705],[4.47815,1.68836],[-0.40771,-0.08976],7]],&quot;closed&quot;:true}],&quot;index&quot;:null}" fill="#4c4f66"/><path d="M260.72528,176.79659c-2.20218,-1.7678 -6.5795,-1.76628 -9.20114,-1.02323c-2.25837,0.3275 -4.84974,0.86661 -7.29426,1.74854c0.32208,-0.20688 0.54167,-0.41546 0.85848,-0.62498c4.95862,-2.81081 9.05062,-7.45079 15.16964,-4.83582c3.82594,1.60844 5.60141,5.36431 7.17931,8.92633c0.19695,0.44459 0.32383,1.27714 0.47886,2.11507c-1.03618,-1.05081 -2.61961,-2.37408 -3.71095,-2.397c-1.25757,-1.204 -2.10443,-2.80472 -3.47995,-3.90892z" data-paper-data="{&quot;noHover&quot;:false,&quot;origItem&quot;:[&quot;Path&quot;,{&quot;applyMatrix&quot;:true,&quot;selected&quot;:true,&quot;segments&quot;:[[[439.38235,356.3511],[-2.75104,2.22621],[4.40437,-3.56412],7],[[457.9795,354.26632],[-5.24327,-1.49808],[4.51674,0.66029],7],[[472.57273,357.82483],[-4.88904,-1.7781],[-0.64417,-0.4171],7],[[470.65585,356.56487],[0.63363,0.42242],[-9.91724,-5.66699],7],[[440.47977,346.88983],[12.23804,-5.27214],[-7.65188,3.24285],7],[[426.15274,364.77736],[3.1558,-7.18152],[-0.39389,0.89637],7],[[425.18962,369.02862],[0.31005,-1.68939],[2.07236,-2.11859],7],[[432.43027,364.28031],[-2.18266,0.04621],[2.51515,-2.42742],7]],&quot;closed&quot;:true}],&quot;index&quot;:null}" fill="#4c4f66"/><path d="M251.75892,177.17417c2.15188,-0.6099 6.2704,-0.77199 8.08804,0.72475c1.2761,1.0508 2.14134,2.55063 3.28006,3.73309c-0.02863,0.07786 -0.05449,0.16284 -0.07844,0.25202c-0.27293,1.016 1.68023,4.21988 1.77033,5.58773c0.02745,0.41671 0.02665,2.27293 0.15652,3.24441c-1.39853,-2.20828 -2.57555,-4.74816 -4.7207,-6.34852c-0.46972,-0.35043 -1.42152,-1.10822 -2.23749,-1.10901c-3.19471,-2.64014 -5.69165,-4.72403 -9.34145,-5.52308c1.06136,-0.23578 2.10973,-0.42693 3.08313,-0.5614z" data-paper-data="{&quot;noHover&quot;:false,&quot;origItem&quot;:[&quot;Path&quot;,{&quot;applyMatrix&quot;:true,&quot;selected&quot;:true,&quot;segments&quot;:[[[457.35383,357.20035],[1.9468,0.27112],[-4.30376,-1.22965],7],[[441.28431,358.67113],[3.63529,-3.01763],[-2.55221,2.11857],7],[[434.77328,366.14042],[2.27745,-2.38401],[0.05726,0.15698],7],[[434.93117,366.64535],[-0.04791,-0.17979],[0.54586,2.04841],7],[[431.38512,377.83967],[0.18021,-2.75779],[-0.0549,0.84015],7],[[431.05731,384.35814],[0.25973,-1.95865],[2.79707,-4.4522],7],[[440.32478,371.64253],[-4.2903,3.22654],[0.93945,-0.70652],7],[[444.80512,369.35117],[-1.63194,0.0016],[6.38942,-5.32288],7],[[463.50061,358.31241],[-7.29961,1.61098],[-2.12273,-0.47537],7]],&quot;closed&quot;:true}],&quot;index&quot;:null}" fill="#4c4f66"/><path d="M235.33572,180.42444c-5.48649,0.01418 -8.14882,2.31425 -12.01012,5.53016c-0.24006,0.49607 -0.78033,1.18278 -0.9547,1.48602c-0.7079,1.23108 -2.02755,3.69406 -2.19171,5.04252c1.32094,0.90922 2.61131,-0.87266 3.29636,-1.69922c2.63399,-3.17811 4.0213,-6.91772 8.37396,-8.17965c2.28653,-0.64309 5.2065,-0.44514 7.45729,0.34503c0.23317,0.08186 2.14228,1.11131 3.15526,1.49622l-0.65978,-0.44029c-1.52311,-1.50041 -3.61141,-2.63217 -5.85049,-3.46959c-0.20386,-0.04452 -0.40921,-0.08183 -0.61607,-0.11118zM228.67692,178.75663c-2.15188,-0.6099 -6.21712,-0.76724 -8.03476,0.7295c-1.27611,1.0508 -2.11679,2.52229 -3.25552,3.70476c0.02863,0.07786 0.05499,0.16127 0.07895,0.25045c0.27293,1.016 -1.68292,4.18451 -1.77303,5.55236c-0.02745,0.41671 -0.03404,2.26166 -0.1639,3.23314c1.39854,-2.20828 2.48859,-4.70655 4.63374,-6.30691c0.46973,-0.35043 1.4242,-1.13572 2.24017,-1.13651c3.19471,-2.64014 5.69794,-4.67616 9.34775,-5.4752c-1.06136,-0.23578 -2.09999,-0.4171 -3.07339,-0.55158zM219.69118,178.33541c2.20218,-1.7678 6.67694,-1.77709 9.29858,-1.03405c2.25837,0.3275 4.85209,0.88308 7.29662,1.76502c-0.32208,-0.20688 -0.64163,-0.41542 -0.95844,-0.62494c-4.95862,-2.81081 -8.96902,-7.41377 -15.08804,-4.7988c-3.82594,1.60844 -5.58561,5.31015 -7.16351,8.87217c-0.19694,0.44459 -0.32654,1.27068 -0.48156,2.10862c1.03618,-1.05081 2.529,-2.33223 3.62033,-2.35516c1.25758,-1.204 2.10052,-2.82868 3.47604,-3.93287zM244.67397,182.97477c-0.07757,0.67054 -0.13168,2.26088 -0.53253,2.6345c-1.13007,1.05331 -2.91153,-0.11975 -3.88755,-0.64346c-2.23559,-1.19956 -5.55313,-1.62815 -7.99229,-0.93081c-4.32258,1.19017 -5.94443,5.81558 -8.62604,8.90472c-1.38273,1.59288 -3.36875,1.41445 -4.81475,0.17455c-0.05879,-1.78644 1.02541,-3.7789 1.76949,-5.46272c0.00878,-0.01987 0.01969,-0.04674 0.03262,-0.07943c-0.37265,0.29717 -0.69348,0.54525 -0.77855,0.64384c-1.36265,1.57916 -2.22804,3.59957 -3.387,5.32609c-2.30821,2.14436 -2.48155,-1.13186 -2.37259,-2.88381c0.09561,-1.53717 0.12663,-4.83865 1.2669,-6.41553c-0.12142,0.09806 -0.23416,0.18494 -0.31453,0.24033c-0.90397,0.62302 -1.52278,1.26505 -2.23364,2.09532c-0.13094,0.29805 -0.26188,0.59611 -0.39282,0.89416l-0.32563,0.75373c-0.11084,0.27355 -0.38077,0.46668 -0.69617,0.46668c-0.3861,0 -0.70407,-0.28943 -0.74544,-0.66151l-0.10988,-0.87197l0.26431,-0.03278c-0.96167,-5.39322 4.26067,-12.88161 8.85112,-14.85173c6.7171,-2.84246 11.02036,1.81297 16.46752,4.90072c2.52618,1.67064 5.22922,3.28494 8.01225,4.46814l0.45711,0.37821c0,0 0.46555,0.46181 0.08808,0.95276z" fill="#343645"/><path d="M235.98205,180.49614c2.23908,0.83742 4.34566,1.99675 5.86877,3.49716l0.56215,0.46161c-1.01298,-0.38489 -2.91845,-1.4031 -3.15163,-1.48496c-2.25079,-0.79017 -5.13185,-0.95961 -7.41837,-0.31652c-4.35267,1.26193 -5.68944,4.92879 -8.32343,8.1069c-0.68505,0.82656 -2.06351,2.65539 -3.38445,1.74616c0.16416,-1.34846 1.47815,-3.83004 2.18605,-5.06111c0.17437,-0.30324 0.71456,-0.99863 0.95462,-1.4947c3.8613,-3.21591 6.60064,-5.55373 12.08713,-5.56789c0.20686,0.02936 0.41531,0.06881 0.61917,0.11334z" data-paper-data="{&quot;noHover&quot;:false,&quot;origItem&quot;:[&quot;Path&quot;,{&quot;applyMatrix&quot;:true,&quot;segments&quot;:[[[235.33572,180.28144],[0.20686,0.0296],[-5.48649,0.01429]],[[223.3256,185.85622],[3.8613,-3.24186],[-0.24006,0.50007]],[[222.37091,187.35422],[0.17437,-0.30569],[-0.7079,1.24101]],[[220.1792,192.43744],[0.16416,-1.35934],[1.32094,0.91656]],[[223.47555,190.72451],[-0.68505,0.83323],[2.63399,-3.20375]],[[231.84952,182.47886],[-4.35267,1.27211],[2.28653,-0.64828]],[[239.3068,182.82667],[-2.25079,-0.79655],[0.23317,0.08252]],[[242.46207,184.33495],[-1.01298,-0.388],[0,0]],[[241.80229,183.89112],[0,0],[-1.52311,-1.51252]],[[235.9518,180.39352],[2.23908,0.84418],[-0.20386,-0.04488]]],&quot;closed&quot;:true}]}" fill="#4c4f66"/><path d="M216.26104,182.24861c-1.09133,0.02292 -2.67477,1.34619 -3.71095,2.39701c0.15502,-0.83794 0.28191,-1.67048 0.47886,-2.11507c1.5779,-3.56202 3.35337,-7.31787 7.17931,-8.92633c6.11902,-2.61497 10.21103,2.02501 15.16965,4.83582c0.31681,0.20952 0.53639,0.4181 0.85848,0.62498c-2.44452,-0.88193 -5.03589,-1.42104 -7.29426,-1.74854c-2.62163,-0.74304 -6.99896,-0.74456 -9.20114,1.02323c-1.37552,1.10419 -2.22237,2.70491 -3.47995,3.90891z" data-paper-data="{&quot;noHover&quot;:false,&quot;origItem&quot;:[&quot;Path&quot;,{&quot;applyMatrix&quot;:true,&quot;segments&quot;:[[[219.69118,178.17555],[-1.37552,1.1131],[2.20218,-1.78206]],[[228.98975,177.13316],[-2.62163,-0.74904],[2.25837,0.33014]],[[236.28637,178.91241],[-2.44452,-0.88905],[-0.32208,-0.20855]],[[235.32793,178.28243],[0.31681,0.21121],[-4.95862,-2.83349]],[[220.23989,173.44491],[6.11902,-2.63607],[-3.82594,1.62142]],[[213.07637,182.38868],[1.5779,-3.59076],[-0.19694,0.44818]],[[212.59481,184.51431],[0.15502,-0.8447],[1.03618,-1.05929]],[[216.21514,182.14015],[-1.09133,0.0231],[1.25758,-1.21371]]],&quot;closed&quot;:true}]}" fill="#4c4f66"/><path d="M231.79048,179.27867c-3.6498,0.79904 -6.14675,2.88294 -9.34146,5.52308c-0.81597,0.00079 -1.76776,0.75858 -2.23749,1.10901c-2.14515,1.60036 -3.32217,4.14023 -4.7207,6.34852c0.12986,-0.97148 0.12907,-2.82769 0.15652,-3.24441c0.0901,-1.36785 2.04326,-4.57173 1.77033,-5.58773c-0.02396,-0.08918 -0.04981,-0.17415 -0.07844,-0.25202c1.13872,-1.18246 2.00396,-2.68229 3.28006,-3.73309c1.81764,-1.49673 5.93617,-1.33465 8.08805,-0.72474c0.9734,0.13447 2.02176,0.32562 3.08313,0.5614z" data-paper-data="{&quot;noHover&quot;:false,&quot;origItem&quot;:[&quot;Path&quot;,{&quot;applyMatrix&quot;:true,&quot;segments&quot;:[[[228.67692,178.60017],[0.9734,0.13556],[-2.15188,-0.61482]],[[220.64216,179.33556],[1.81764,-1.50881],[-1.27611,1.05928]],[[217.38664,183.07021],[1.13872,-1.192],[0.02863,0.07849]],[[217.46559,183.32267],[-0.02396,-0.0899],[0.27293,1.0242]],[[215.69256,188.91983],[0.0901,-1.37889],[-0.02745,0.42007]],[[215.52866,192.17907],[0.12986,-0.97932],[1.39854,-2.2261]],[[220.16239,185.82126],[-2.14515,1.61327],[0.46973,-0.35326]],[[222.40256,184.67558],[-0.81597,0.0008],[3.19471,-2.66144]],[[231.75031,179.1562],[-3.6498,0.80549],[-1.06136,-0.23768]]],&quot;closed&quot;:true}]}" fill="#4c4f66"/><path d="M248.20867,170.78471l-0.32936,-0.01702c-1.24498,-0.26384 -2.24109,-0.46809 -3.24206,-1.26778c0,0 -0.48301,-0.39483 -0.17804,-0.88147c0.01031,-1.12254 0.16848,-2.08909 0.64745,-3.13102l0.32638,-0.70034c0.11315,-0.25823 0.38051,-0.43968 0.69232,-0.43968c0.3118,0 0.57916,0.18146 0.69231,0.43968l0.32638,0.70034l-0.02387,0.01011c0.02575,0.04296 0.04989,0.08688 0.07217,0.13191c0.1767,0.35688 -0.43368,0.95786 -0.09214,1.18074c1.0264,0.66981 1.79055,0.6928 2.31999,2.07942l-0.18182,0.88919c0,0 -0.08573,0.2044 -0.28097,0.34105c-0.03436,0.66489 -0.74872,0.66489 -0.74872,0.66489zM247.84564,169.2475l0.11883,0.07409c0.00933,0.00188 0.01868,0.00379 0.02803,0.00569c-0.15546,-0.46247 -1.24974,-1.2201 -1.93551,-1.94287c-0.07203,0.41006 -0.09732,0.82962 -0.09832,1.28321c0.5736,0.36426 1.18488,0.48854 1.87065,0.62669c0.00915,-0.02975 0.01631,-0.0468 0.01631,-0.0468z" fill="#44485c"/><path d="M247.8621,169.33033c-0.68578,-0.13815 -1.37742,-0.28385 -1.95102,-0.64811c0.001,-0.45361 0.0404,-0.92315 0.11244,-1.33322c0.68577,0.72277 1.84885,1.54957 2.00431,2.01202c-0.00935,-0.00189 -0.01909,-0.00342 -0.02842,-0.00532l-0.11971,-0.07329c0,0 -0.00845,0.01816 -0.01761,0.04791z" data-paper-data="{&quot;noHover&quot;:false,&quot;origItem&quot;:[&quot;Path&quot;,{&quot;applyMatrix&quot;:true,&quot;segments&quot;:[[495.69128,335.75889],[[495.92895,335.91426],[0,0],[0.01866,0.00397]],[[495.98501,335.9262],[-0.01871,-0.00399],[-0.31092,-0.96985]],[[492.114,331.85172],[1.37153,1.51575],[-0.14407,0.85997]],[[491.91736,334.54281],[0.002,-0.95127],[1.1472,0.7639]],[[495.65867,335.85706],[-1.37155,-0.28972],[0.0183,-0.06238]]],&quot;closed&quot;:true}]}" fill="#747a9c"/><path d="M238.60617,169.40442l-0.66666,0.39736c-1.45445,0.86136 -2.58689,1.69111 -4.24367,2.21779c0,0 -0.5846,0.18584 -0.87063,-0.28475c-0.36654,-0.18845 -0.36654,-0.63223 -0.36654,-0.63223c0.00189,-1.11194 -1.14859,-4.56785 -0.68038,-5.38722c1.38135,-2.41733 5.85074,1.1325 6.83315,2.21965l0.04423,0.03918c0,0 0.23516,0.22428 0.2357,0.52348c0.29594,0.56033 -0.2852,0.90672 -0.2852,0.90672zM237.1445,168.58871l0.04467,-0.02663c-0.75449,-0.77419 -1.62729,-1.39644 -2.67365,-1.8014c-0.44875,-0.17368 -1.7523,-0.73469 -1.37646,-0.44341c0.75263,0.58329 0.8194,2.72539 0.82128,4.07492c1.15755,-0.48057 2.05617,-1.12739 3.18417,-1.80348z" fill="#44485c"/><path d="M233.93669,170.43421c-0.00188,-1.34954 -0.07947,-3.56819 -0.8321,-4.15149c-0.37583,-0.29128 0.94452,0.25967 1.39327,0.43335c1.04636,0.40496 1.98642,1.0778 2.74092,1.85201l-0.04477,0.0274c-1.12799,0.67609 -2.09976,1.35816 -3.25731,1.83872z" data-paper-data="{&quot;noHover&quot;:false,&quot;origItem&quot;:[&quot;Path&quot;,{&quot;applyMatrix&quot;:true,&quot;segments&quot;:[[[474.289,334.37731],[-2.25599,1.41786],[0,0]],[[474.37833,334.32148],[0,0],[-1.50899,-1.62361]],[[469.03103,330.54367],[2.09272,0.84927],[-0.89749,-0.36422]],[[466.2781,329.61377],[-0.75167,-0.61085],[1.50527,1.22326]],[[467.92067,338.15948],[-0.00377,-2.83017],[2.3151,-1.00784]]],&quot;closed&quot;:true}]}" fill="#747a9c"/><path d="M236.97151,197.33836c-0.38224,0.63093 -1.02137,0.28244 -1.02137,0.28244l-0.68902,-0.60326c-0.08301,-0.29028 -0.14193,-0.54402 -0.1733,-0.7788c-0.07907,0.08155 -0.53,0.50316 -1.03859,0.0896c-0.56044,-0.45573 -0.07003,-1.01413 -0.07003,-1.01413l0.714,-0.64398c1.53264,-0.48928 0.63581,-1.79256 0.69305,-3.64387c0,0 0.02229,-0.72077 0.76667,-0.72395c0.74438,-0.0032 0.72208,0.71756 0.72208,0.71756c-0.03957,1.2797 0.26826,2.42482 0.06835,3.33864c0.10088,0.30242 -0.08317,0.60622 -0.08317,0.60622c-0.44763,0.68086 -0.40001,0.86568 -0.16667,1.61022l0.02113,-0.21607c0,0 0.63912,0.34848 0.25688,0.9794z" fill="#776451"/><path d="M241.82971,197.63328c-0.70938,-0.24347 -0.47718,-0.91999 -0.47718,-0.91999l0.22622,0.14767c-0.18121,-0.29426 -0.38073,-0.57921 -0.59565,-0.85268c-0.07283,-0.07418 -0.13475,-0.15108 -0.18696,-0.23037c-0.01685,-0.02012 -0.03379,-0.04017 -0.05082,-0.06015c0,0 -0.23194,-0.27391 -0.17951,-0.59036c-0.09317,-0.80067 0.3464,-1.72021 0.44273,-2.50101c0,0 0.08856,-0.71113 0.82971,-0.60506c0.74114,0.10606 0.65257,0.8172 0.65257,0.8172c-0.07692,0.61244 -0.10899,1.09621 -0.30061,1.68794c-0.03289,0.1016 -0.17664,0.26472 -0.2417,0.3707c0.02639,0.03179 0.0526,0.06372 0.07865,0.09578c0.45179,-0.04641 0.92686,0.00971 1.3619,0.1507l0.79181,0.83274c0,0 0.44229,0.59134 -0.15898,1.00034c-0.60127,0.40899 -1.04355,-0.18236 -1.04355,-0.18236l-0.05367,-0.29767c-0.03121,-0.01162 -0.06293,-0.02159 -0.0951,-0.03008l-0.05827,0.73366c0,0 -0.2322,0.67652 -0.94158,0.43305z" fill="#776451"/><path d="M234.02917,178.53636l0.00092,-0.05601c-2.76438,2.25742 -3.30924,4.54557 -2.50426,7.97178c1.21669,5.8544 7.45209,5.82481 12.3993,4.78312c3.8588,-1.21338 3.50565,-3.74402 3.70135,-7.05914c0.07378,-1.24982 0.3499,-1.97215 -0.38714,-3.07817c0,0 -0.05863,-0.08946 -0.09483,-0.22114l-0.60648,0.14291c0,0 -0.73214,0.15516 -0.89484,-0.54307c-0.1627,-0.69823 0.56945,-0.85338 0.56945,-0.85338l0.57728,-0.10047c1.70493,-1.50502 2.92275,-2.56181 2.91875,-4.92336c0.00974,-5.73452 -8.11037,-6.8846 -12.62965,-5.45862c-1.31967,0.6324 -3.96291,1.84334 -4.39433,3.33332c-0.69792,2.4104 3.04942,5.37425 4.42675,6.90504c0,0 0.48809,0.54306 -0.08135,1.00855c-0.56944,0.46548 -1.05754,-0.07758 -1.05754,-0.07758c-0.48739,-0.54283 -1.12474,-1.16791 -1.77708,-1.85191c-0.09231,0.05464 -0.1663,0.07814 -0.1663,0.07814zM248.51133,180.33976c2.57159,3.97688 0.36356,10.81596 -4.1858,12.27409c-5.80631,1.23769 -12.84413,0.86476 -14.26736,-5.86628c-0.90621,-3.91856 -0.18982,-6.74655 2.99573,-9.35336l0.12542,-0.05382c-1.3671,-1.60137 -2.47335,-3.42205 -1.94667,-5.22512c0.58779,-2.0123 3.4729,-3.44173 5.27234,-4.29611c5.53099,-1.7691 14.69326,-0.07163 14.70368,6.78024c-0.00382,2.50847 -1.15093,4.03201 -2.91155,5.5259c0.1384,0.09874 0.21421,0.21444 0.21421,0.21444z" fill="#44485c"/><path d="M234.24352,178.47143c0.65234,0.684 1.29162,1.29438 1.77901,1.83722c0,0 0.38823,0.54763 0.95767,0.08215c0.56944,-0.46548 0.08274,-1.02322 0.08274,-1.02322c-1.37733,-1.5308 -5.11082,-4.51743 -4.4129,-6.92782c0.43142,-1.48998 3.09533,-2.71232 4.415,-3.34471c4.51928,-1.42597 12.69565,-0.25558 12.68591,5.47894c0.00401,2.36156 -1.20639,3.43868 -2.91131,4.9437l-0.57725,0.10083c0,0 -0.73198,0.16283 -0.56928,0.86103c0.1627,0.69823 0.79545,0.53335 0.79545,0.53335l0.70566,-0.13087c0.0362,0.13168 0.09463,0.22265 0.09463,0.22265c0.73704,1.10603 0.4546,1.8457 0.38082,3.09551c-0.1957,3.31512 0.12864,5.86738 -3.73016,7.08076c-4.94721,1.0417 -11.23722,1.05392 -12.4539,-4.80049c-0.80498,-3.4262 -0.26806,-5.7554 2.49632,-8.01282l-0.00104,0.05641c0,0 0.17033,0.00203 0.26264,-0.05261z" data-paper-data="{&quot;noHover&quot;:false,&quot;origItem&quot;:[&quot;Path&quot;,{&quot;applyMatrix&quot;:true,&quot;segments&quot;:[[408.39101,396.82302],[[408.39285,396.70555],[0,0],[-5.52875,4.73412]],[[403.38433,413.42353],[-1.60997,-7.18526],[2.43337,12.27753]],[[428.18293,423.45443],[-9.89442,2.18459],[7.71761,-2.54465]],[[435.58563,408.65038],[-0.39139,6.9523],[0.14756,-2.62103]],[[434.81134,402.195],[1.47409,2.3195],[0,0]],[[434.62168,401.73125],[0.0724,0.27615],[0,0]],[433.40873,402.03095],[[431.61905,400.89206],[0.3254,1.46428],[-0.3254,-1.46428]],[432.75794,399.10239],[[433.91251,398.89169],[0,0],[3.40985,-3.15625]],[[439.75,388.56667],[0.00802,4.95254],[0.01948,-12.02611]],[[414.49069,377.11915],[9.03856,-2.99047],[-2.63934,1.32622]],[[405.70204,384.1096],[0.86284,-3.1247],[-1.39584,5.05496]],[[414.55555,398.59048],[-2.75467,-3.2103],[0,0]],[[414.39285,400.70555],[1.13888,-0.97619],[-1.13888,0.97619]],[[412.27778,400.54285],[0,0],[-0.97478,-1.1384]],[[408.72361,396.65913],[1.30468,1.43446],[-0.18462,0.11457]]],&quot;closed&quot;:true}]}" fill="#747a9c"/><path d="M244.1509,180.40556c0.14966,-0.11211 0.57721,-0.36181 1.00476,0.04594c0.53033,0.50576 0,1.01153 0,1.01153l-0.37649,0.25225c-2.45317,0.77672 -4.50304,0.32327 -6.84905,-0.57075c0,0 -0.69636,-0.26565 -0.41781,-0.92975c0.27855,-0.6641 0.97491,-0.39845 0.97491,-0.39845c1.96012,0.74853 3.63115,1.19118 5.66369,0.58923z" fill="#44485c"/><path d="M235.54236,172.10096c0.0435,-0.01794 0.09036,-0.0306 0.14113,-0.03716c0.11176,-0.01441 0.21665,-0.01377 0.31473,-0.00011c0.03978,-0.00484 0.0821,-0.00742 0.12712,-0.00742c0.71308,0 0.74818,0.64657 0.74991,0.71023c0.09178,0.18781 0.15292,0.3967 0.18406,0.60589c0.20513,-0.29943 0.35267,-0.63647 0.40951,-0.95653c0.05095,-0.2869 0.5049,-0.65576 0.26501,-0.83555c-0.61066,-0.45766 -1.55375,-0.11146 -2.25484,0.4223c0.02513,0.03175 0.04603,0.06481 0.06338,0.09835zM233.21158,173.52142l-0.04776,-0.89658c0.58103,-1.583 3.98267,-3.84376 5.68636,-1.99994c0.57507,0.62236 0.2089,1.38409 0.09834,2.02549c-0.471,2.73255 -3.79371,4.31197 -5.70918,1.61289c0,0 -0.25648,-0.39137 -0.02776,-0.74183z" fill="#000000"/><path d="M235.43152,171.98761c0.70109,-0.53376 1.73149,-0.89375 2.34215,-0.43609c0.23989,0.17979 -0.20399,0.58022 -0.25494,0.86711c-0.05684,0.32006 -0.23581,0.69864 -0.44094,0.99808c-0.03115,-0.2092 -0.1353,-0.50393 -0.22708,-0.69176c-0.00173,-0.06366 0.02985,-0.64303 -0.68322,-0.64303c-0.04502,0 -0.08476,-0.00176 -0.12454,0.00309c-0.09808,-0.01367 -0.2003,-0.02045 -0.31206,-0.00605c-0.05077,0.00655 -0.19347,-0.0078 -0.23696,0.01014c-0.01735,-0.03353 -0.03728,-0.06974 -0.06241,-0.10148z" data-paper-data="{&quot;noHover&quot;:false,&quot;origItem&quot;:[&quot;Path&quot;,{&quot;applyMatrix&quot;:true,&quot;segments&quot;:[[[411.41738,383.32704],[-0.0347,-0.07031],[0.08699,-0.03763]],[[411.69963,383.24912],[-0.10153,0.01373],[0.22353,-0.03022]],[[412.3291,383.2489],[-0.19616,-0.02865],[0.07956,-0.01016]],[[412.58333,383.23333],[-0.09004,0],[1.42616,0]],[[414.08315,384.72279],[-0.00346,-0.1335],[0.18356,0.39389]],[[414.45127,385.99344],[-0.06229,-0.43871],[0.41025,-0.62796]],[[415.27029,383.98745],[-0.11367,0.6712],[0.10189,-0.60165]],[[415.8003,382.23519],[0.47979,0.37705],[-1.22132,-0.95978]],[[411.29062,383.12081],[1.40217,-1.11937],[0.05026,0.06659]]],&quot;closed&quot;:true}]}" fill="#ff6363"/><path d="M246.13114,170.36773c-0.14261,0.02718 -0.25529,0.01525 -0.25529,0.01525c-2.6545,-0.28541 -1.42091,0.76149 0.07849,1.24002c-0.06469,-0.40223 0.0636,-0.83201 0.42311,-1.14163c-0.08757,-0.04134 -0.17059,-0.0795 -0.24631,-0.11364zM245.15182,168.93608c0.30213,-0.33733 0.79402,-0.18096 0.79402,-0.18096l0.25,0.07948c0.7571,0.24152 2.02721,0.55494 2.5662,1.14943c2.21103,2.43868 -1.28369,3.42312 -3.21426,3.00929c-3.40323,-0.72951 -3.50187,-3.87891 -0.39595,-4.05723z" fill="#000000"/><path d="M246.42205,170.45981c-0.35951,0.30963 -0.49903,0.79646 -0.43434,1.1987c-1.49939,-0.47855 -2.73412,-1.59738 -0.07962,-1.31197c0,0 0.11912,0.01816 0.26173,-0.00901c0.07572,0.03414 0.16466,0.08096 0.25223,0.12229z" data-paper-data="{&quot;noHover&quot;:false,&quot;origItem&quot;:[&quot;Path&quot;,{&quot;applyMatrix&quot;:true,&quot;segments&quot;:[[[432.59494,379.69219],[0.15143,0.0716],[-0.28522,0.05701]],[[432.08435,379.72416],[0,0],[-5.309,-0.59854]],[[432.24133,382.32468],[-2.99879,-1.00359],[-0.12938,-0.84354]],[[433.08756,379.93051],[-0.71902,0.64933],[-0.17513,-0.08668]]],&quot;closed&quot;:true}]}" fill="#ff6363"/><path d="M228.96326,183.02405c0.08283,-0.71089 0.82824,-0.6319 0.82824,-0.6319l0.79011,0.08478c0.26325,0.05542 0.52651,0.11088 0.78976,0.16631c0,0 0.73214,0.15517 0.56944,0.85338c-0.1627,0.69823 -0.89484,0.54307 -0.89484,0.54307c-0.23675,-0.05053 -0.4735,-0.10105 -0.71025,-0.15159l-0.70988,-0.07418c0,0 -0.74541,-0.07898 -0.66259,-0.78988z" fill="#44485c"/><path d="M234.30534,179.33387l0.89142,0.36507c0.19445,0.15894 0.38889,0.31789 0.58333,0.47684c0,0 0.56944,0.46549 0.08134,1.00855c-0.48809,0.54306 -1.05754,0.07757 -1.05754,0.07757c-0.19445,-0.15894 -0.38889,-0.31789 -0.58333,-0.47684l-0.44192,-0.11177c0,0 -0.57497,-0.20563 -0.48928,-0.74093c-0.02919,0.01241 -0.06034,0.02395 -0.09354,0.0345c-0.35342,0.11235 -0.5898,0.00149 -0.73822,-0.13857c-0.00385,0.02957 -0.0094,0.06023 -0.01681,0.09202c-0.1627,0.69823 -0.89484,0.54307 -0.89484,0.54307c-0.60012,-0.14141 -1.18003,-0.41793 -1.65873,-0.79094l-0.12557,-0.11677c0,0 -0.53033,-0.50576 0,-1.01153c0.53033,-0.50576 1.06066,0 1.06066,0l0.0411,0.04217c0.27567,0.24335 0.6384,0.41632 1.00794,0.48062c0,0 0.11238,0.02383 0.23931,0.09479c-0.23018,-0.53032 -0.53386,-0.96619 -0.87134,-1.48114l-0.22702,-0.51081c0,0 -0.27855,-0.66409 0.41781,-0.92974c0.69636,-0.26565 0.9749,0.39845 0.9749,0.39845l0.1063,0.28392c0.47183,0.71995 0.87094,1.33211 1.15885,2.13972c0,0 0.0434,0.12415 0.03738,0.28395c0.28599,-0.12373 0.59778,-0.01222 0.59778,-0.01222z" fill="#44485c"/><path d="M229.05657,181.49491c-0.14709,-0.70136 0.58835,-0.84164 0.58835,-0.84164l0.71084,-0.07948c0.27778,0.05297 0.55555,0.10596 0.83333,0.15895c0,0 0.73543,0.14028 0.58835,0.84164c-0.14709,0.70136 -0.88252,0.56109 -0.88252,0.56109c-0.27778,-0.05297 -0.55555,-0.10596 -0.83333,-0.15894l-0.12249,0.07947c0,0 -0.73543,0.14028 -0.88252,-0.56109z" fill="#44485c"/><path d="M234.73946,187.49652l0.80254,-0.34034c0.25,0 0.5,0 0.75,0c0,0 0.75,0 0.75,0.71526c0,0.71526 -0.75,0.71526 -0.75,0.71526c-0.25,0 -0.5,0 -0.75,0l-0.0308,0.13649c0,0 -0.22232,0.12722 -0.48397,0.10739c-0.07345,0.38505 -0.40347,0.50095 -0.59547,0.53584c0.07242,0.05977 0.14003,0.14142 0.19772,0.25145c0.33541,0.63975 -0.33541,0.95962 -0.33541,0.95962c-1.00365,0.44248 -1.36077,0.89571 -1.33541,1.98287l0.00415,-0.16093c0,0 0.33541,0.63976 -0.33541,0.95963c-0.67082,0.31987 -1.00623,-0.31987 -1.00623,-0.31987l-0.16252,-0.47883c0.00771,-0.48462 0.06654,-0.89953 0.18353,-1.26301c-0.41682,0.06566 -0.70019,-0.29466 -0.70019,-0.29466l-0.39542,-0.66805c-0.10797,-1.12104 0.08963,-1.66701 0.84264,-2.53131c0,0 0.4881,-0.54306 1.05754,-0.07757c0.56944,0.46548 0.08135,1.00855 0.08135,1.00855c-0.5186,0.55149 -0.59914,0.70878 -0.4907,1.44236l0.10459,-0.03227c0,0 0.04235,0.05385 0.08374,0.14089c0.17946,-0.19739 0.39294,-0.37829 0.64304,-0.54949c-0.55231,-0.33145 -0.2476,-0.91264 -0.2476,-0.91264l0.92082,-0.87222c0.25,0 0.5,0 0.75,0c0,0 0.0324,0.00001 0.08374,0.00643c0.07363,-0.29482 0.36372,-0.46081 0.36372,-0.46081z" fill="#44485c"/><path d="M245.15567,191.63559c-0.53033,0.50576 -1.06067,0 -1.06067,0l-0.08333,-0.07948c-0.31098,-0.30764 -0.69488,-0.56003 -1.10761,-0.72635c0,0 -0.68536,-0.2905 -0.38075,-0.94411c0.30461,-0.65362 0.98997,-0.36311 0.98997,-0.36311c0.52826,0.2319 1.0239,0.54837 1.45209,0.92531c-0.00438,-0.03545 -0.0067,-0.073 -0.0067,-0.11276c0,-0.3968 0.23081,-0.57346 0.43635,-0.65213c-0.16513,-0.08534 -0.31764,-0.24637 -0.3493,-0.54828c-0.07463,-0.71171 0.67165,-0.78288 0.67165,-0.78288c0.59025,-0.0387 1.19109,0.09226 1.753,0.30269c-0.0076,-0.04536 -0.01171,-0.09437 -0.01171,-0.14728c0,-0.71526 0.75,-0.71526 0.75,-0.71526c0.7988,0.00411 1.54628,-0.15818 2.34204,-0.23486l1.00464,0.28041c0,0 0.70225,0.25114 0.43891,0.92086c-0.26334,0.66972 -0.96559,0.41858 -0.96559,0.41858l-0.32869,-0.19643c-0.74845,0.07057 -1.45072,0.2022 -2.19244,0.23466c0.14521,0.14625 0.33192,0.42847 0.12882,0.79529c0.2268,0.10107 0.45519,0.22824 0.689,0.38823l0.36094,0.71662c0,0 0.1819,0.6939 -0.5457,0.86738c-0.72761,0.17347 -0.90951,-0.52042 -0.90951,-0.52042l0.19427,0.08085c-0.8307,-0.63548 -1.69359,-0.49273 -2.71667,-0.49273c0,0 -0.16664,0 -0.34282,-0.07491c0.054,0.18514 0.03886,0.42263 -0.21018,0.66014z" fill="#44485c"/><path d="M250.87534,181.51357c0,0.71526 -0.75,0.71526 -0.75,0.71526l-0.32936,-0.01702c-0.27406,-0.0906 -0.62903,-0.02496 -0.85647,0.14673c0,0 -0.636,0.37909 -1.0335,-0.22745c-0.3975,-0.60654 0.2385,-0.98563 0.2385,-0.98563c0.58502,-0.30945 1.31704,-0.43527 1.97687,-0.33012l0.00397,-0.01703c0,0 0.75,0 0.75,0.71526z" fill="#4e5269"/><path d="M251.792,184.13618c0,0.71526 -0.75,0.71526 -0.75,0.71526h-0.08334c-0.42676,-0.00626 -0.85992,0.06744 -1.26283,0.20171c0,0 -0.71151,0.22618 -0.94868,-0.45237c-0.23717,-0.67855 0.47434,-0.90474 0.47434,-0.90474c0.55881,-0.17137 1.15022,-0.26889 1.73717,-0.27513h0.08334c0,0 0.75,0 0.75,0.71526z" fill="#4e5269"/><path d="M228.25867,187.56942c-0.6,-0.42916 -0.15,-1.00136 -0.15,-1.00136l0.51459,-0.52848c0.27778,-0.13245 0.55555,-0.26491 0.83334,-0.39736c0,0 0.67082,-0.31987 1.00623,0.31987c0.33541,0.63975 -0.33541,0.95963 -0.33541,0.95963c-0.27778,0.13245 -0.55555,0.2649 -0.83334,0.39736l0.01459,0.10729c0,0 -0.45,0.5722 -1.05,0.14306z" fill="#4e5269"/><path d="M247.05461,175.40798c0,0.744 -0.77286,0.744 -0.77286,0.744l0.07398,-0.01772c-1.63539,0.34977 -3.85587,0.38328 -5.40206,1.10697c0.22905,0.3917 0.42448,0.83671 0.61833,1.3324l-0.75274,1.10705c0,0 -0.69126,0.33273 -1.03689,-0.33273c-0.20291,-0.39067 -0.04845,-0.66665 0.1137,-0.82797c-0.35574,-0.84814 -0.75592,-1.45653 -1.83841,-1.66428c0,0 -0.75446,-0.1614 -0.5868,-0.88768c0.16766,-0.72628 0.92211,-0.56489 0.92211,-0.56489c0.64489,0.14793 1.1463,0.3745 1.55301,0.67572c1.76348,-0.91026 4.12722,-0.98051 6.07444,-1.39717l0.26134,-0.01772c0,0 0.77286,0 0.77286,0.744z" fill="#000000"/></g></g></svg>