<svg version="1.1" xmlns="http://www.w3.org/2000/svg" xmlns:xlink="http://www.w3.org/1999/xlink" width="120.57962" height="199.29938" viewBox="0,0,120.57962,199.29938"><g transform="translate(-355.10579,-80.3503)"><g data-paper-data="{&quot;isPaintingLayer&quot;:true}" fill-rule="nonzero" stroke-linecap="butt" stroke-linejoin="miter" stroke-miterlimit="10" stroke-dasharray="" stroke-dashoffset="0" style="mix-blend-mode: normal"><path d="M356.35579,278.39968v-196.79938h118.07962v196.79938z" fill="#7f7f7f" stroke="#5e5e5e" stroke-width="2.5"/><path d="M356.35579,278.39968v-50.25h118.07962v50.25z" fill="#7f7f7f" stroke="#5e5e5e" stroke-width="2.5"/><text transform="translate(398.03573,114.75653) scale(0.18429,0.18429)" font-size="40" xml:space="preserve" fill="#ffffff" fill-rule="nonzero" stroke="none" stroke-width="1" stroke-linecap="butt" stroke-linejoin="miter" stroke-miterlimit="10" stroke-dasharray="" stroke-dashoffset="0" font-family="Sans Serif" font-weight="normal" text-anchor="start" style="mix-blend-mode: normal"><tspan x="0" dy="0">(Machine)</tspan></text><text transform="translate(371.06151,102.62885) scale(0.45777,0.45777)" font-size="40" xml:space="preserve" fill="#ffffff" fill-rule="nonzero" stroke="none" stroke-width="1" stroke-linecap="butt" stroke-linejoin="miter" stroke-miterlimit="10" stroke-dasharray="" stroke-dashoffset="0" font-family="Sans Serif" font-weight="normal" text-anchor="start" style="mix-blend-mode: normal"><tspan x="0" dy="0">CAMPFIRE</tspan></text><text transform="translate(371.06151,130.55235) scale(0.17575,0.17575)" font-size="40" xml:space="preserve" fill="#ffffff" fill-rule="nonzero" stroke="none" stroke-width="1" stroke-linecap="butt" stroke-linejoin="miter" stroke-miterlimit="10" stroke-dasharray="" stroke-dashoffset="0" font-family="Sans Serif" font-weight="normal" text-anchor="start" style="mix-blend-mode: normal"><tspan x="0" dy="0">The Campfire is a VERY </tspan><tspan x="0" dy="46.150000000000006px">basic machine which </tspan><tspan x="0" dy="46.150000000000006px">can only get hot enough</tspan><tspan x="0" dy="46.150000000000006px">to smelt Iron. For every</tspan><tspan x="0" dy="46.150000000000006px">Campfire that is placed,</tspan><tspan x="0" dy="46.150000000000006px">the night sky is lightened</tspan><tspan x="0" dy="46.150000000000006px">up slightly, meaning you</tspan><tspan x="0" dy="46.150000000000006px">can use this to make the</tspan><tspan x="0" dy="46.150000000000006px">night less dark, depending</tspan><tspan x="0" dy="46.150000000000006px">on how many are placed.</tspan><tspan x="0" dy="46.150000000000006px"> </tspan></text><path d="M381.38326,238.81756c0.34352,-0.10001 0.70684,-0.19057 1.02213,-0.3575c-0.36769,1.55552 2.49033,2.96888 3.53308,3.503c0.98471,0.50439 2.29472,0.40012 3.34355,0.40217c0.49848,0.00097 1.01952,0.13735 1.49944,0.00258c0.04171,-0.01171 0.08894,-0.0429 0.13705,-0.08528c-0.84907,1.76466 2.69748,3.28258 4.11337,3.58885c0.53413,-0.10035 1.08121,-0.14864 1.60334,-0.29946c0.05515,-0.01593 0.12009,-0.03893 0.19045,-0.06746c-0.10411,0.26547 -0.18487,0.54721 -0.24849,0.75786c-0.63037,2.08741 -1.38425,4.10204 -2.20006,6.14156c-1.89609,4.74023 -4.49192,9.0608 -7.08549,13.45483c-0.62876,0.61946 -1.65407,2.19522 -2.37789,2.56625c-1.1829,0.60634 -1.27951,-3.32897 -1.69122,-3.58185c-1.85355,-1.13846 -3.45958,1.73826 -4.08541,1.33717c-0.72725,-0.46609 -1.35039,-1.13719 -2.15025,-1.46332c-1.32465,-0.54011 -4.04676,-1.61284 -5.464,-1.59676c-1.55622,0.01766 -3.43675,2.35662 -2.33159,-0.03408c3.10266,-7.83823 5.02719,-16.11403 8.13174,-23.95986c1.36321,0.01993 2.72952,0.0787 4.06025,-0.30872z" data-paper-data="{&quot;noHover&quot;:false,&quot;origItem&quot;:[&quot;Path&quot;,{&quot;applyMatrix&quot;:true,&quot;segments&quot;:[[[59.30746,205.25813],[1.36321,0.01993],[-3.10455,7.84583]],[[51.19866,229.14253],[3.10266,-7.83823],[-1.10516,2.3907]],[[53.52742,229.17297],[-1.55622,0.01766],[1.41724,-0.01608]],[[58.97645,230.75781],[-1.32465,-0.54011],[0.79985,0.32613]],[[61.1176,232.21748],[-0.72725,-0.46609],[0.62583,0.40109]],[[65.18734,230.87835],[-1.85355,-1.13846],[0.41171,0.25288]],[[66.87337,234.46064],[-1.1829,0.60634],[0.72383,-0.37102]],[[69.24122,231.89686],[-0.62876,0.61946],[2.59357,-4.39403]],[[76.29383,218.4937],[-1.89609,4.74023],[0.81581,-2.03953]],[[78.49941,212.37077],[-0.63037,2.08741],[0.06362,-0.21066]],[[78.74873,211.61441],[-0.10411,0.26547],[-0.07035,0.02853]],[[78.55833,211.68197],[0.05515,-0.01593],[-0.52213,0.15082]],[[76.95595,211.98303],[0.53413,-0.10035],[-1.41589,-0.30627]],[[72.85574,208.40826],[-0.84907,1.76466],[-0.04811,0.04238]],[[72.71888,208.49367],[0.04171,-0.01171],[-0.47992,0.13477]],[[71.22344,208.49367],[0.49848,0.00097],[-1.04882,-0.00205]],[[67.89198,208.09653],[0.98471,0.50439],[-1.04275,-0.53412]],[[64.37334,204.59523],[-0.36769,1.55552],[-0.31528,0.16693]],[[63.35471,204.9525],[0.34352,-0.10001],[-1.33073,0.38742]]],&quot;closed&quot;:true}]}" fill="#9a6d4e" stroke="none" stroke-width="0.5"/><path d="M371.67399,263.97547c-0.88388,-0.88388 0,-1.76777 0,-1.76777l0.3105,-0.25772c0.23326,-0.38618 0.46652,-0.77236 0.69978,-1.15853c1.09789,-2.77052 2.05651,-5.67329 2.91251,-8.52412c0.52397,-1.74503 0.13444,-3.64444 0.78,-5.3286c0.24775,-0.64634 1.05068,-1.50774 1.18466,-2.27804c0.09932,-0.57107 -0.17207,-1.21193 0.0726,-1.73741c0.95499,-2.05108 2.9447,-1.61207 3.73285,-3.72448c0,0 0.46424,-1.1606 1.62483,-0.69636c1.1606,0.46424 0.69636,1.62483 0.69636,1.62483c-0.61454,1.46772 -0.53654,1.80295 -1.96792,2.82247c-0.54443,0.38778 -1.60126,0.28519 -1.77642,0.93024c-1.59986,5.89155 -2.64331,12.12843 -5.01984,18.02236c-0.26522,0.44462 -0.53044,0.88924 -0.79566,1.33386l-0.68646,0.73924c0,0 -0.88388,0.88388 -1.76777,0z" fill="#a57554" stroke="none" stroke-width="0.5"/><path d="M380.53355,258.35224c1.25,0 1.25,1.25 1.25,1.25l-0.02427,0.49438c-0.43976,2.19879 -0.9853,4.36713 -1.80981,6.45009c0,0 -0.46424,1.1606 -1.62483,0.69636c-1.1606,-0.46424 -0.69636,-1.62483 -0.69636,-1.62483c0.78154,-1.92996 1.27083,-3.96833 1.67955,-6.0119l-0.02427,-0.00409c0,0 0,-1.25 1.25,-1.25z" fill="#a57554" stroke="none" stroke-width="0.5"/><path d="M383.02328,253.71971c-0.03092,0.29575 -0.20972,1.15077 -1.24353,1.15077c-1.25,0 -1.25,-1.25 -1.25,-1.25l0.17813,-0.89236c2.21739,-3.67105 2.33139,-7.36687 3.89911,-11.28615c0,0 0.46424,-1.1606 1.62483,-0.69636c1.1606,0.46424 0.69636,1.62483 0.69636,1.62483c-1.56441,3.91103 -1.79377,7.63855 -3.9049,11.34926z" fill="#a57554" stroke="none" stroke-width="0.5"/><path d="M384.27214,269.07714c-1.25,0 -1.25,-1.25 -1.25,-1.25v-0.49848c0.02633,-2.02195 1.09243,-3.42563 1.25228,-5.35721c0.05812,-0.70229 -0.0963,-2.4891 0.01647,-3.10409c0.3977,-2.16874 2.13995,-4.13884 2.4924,-6.23099c0.18613,-1.1049 -0.38876,-2.11518 0.0726,-3.23285c0.63543,-1.53935 2.87829,-3.07894 3.82158,-4.65108c0,0 0.64312,-1.07187 1.71499,-0.42875c1.07187,0.64312 0.42875,1.71499 0.42875,1.71499c-0.13251,0.22085 -1.53335,2.56667 -1.6261,2.67185c-0.57659,0.65391 -1.72559,0.83258 -2.02952,1.6497c-0.31955,0.85912 0.24428,1.84851 0.0726,2.74891c-0.18768,0.98431 -0.93513,1.77658 -1.30774,2.70676c-0.89515,2.23462 -0.94146,4.06903 -1.16818,6.4019c-0.18176,1.87021 -1.27377,3.23237 -1.24012,5.11086v0.49848c0,0 0,1.25 -1.25,1.25z" fill="#8d6348" stroke="none" stroke-width="0.5"/><path d="M377.34096,239.17295c-3.10455,7.84583 -5.00614,16.04617 -8.1088,23.8844c-1.10516,2.3907 0.77254,0.04809 2.32876,0.03044c1.41724,-0.01608 4.12438,1.04473 5.44903,1.58484c0.79985,0.32613 1.4139,0.99358 2.14115,1.45967c0.62583,0.40109 2.2162,-2.47759 4.06974,-1.33914c0.41171,0.25288 0.50313,4.18863 1.68603,3.58229c0.72383,-0.37102 1.73909,-1.94431 2.36785,-2.56378c2.59357,-4.39403 5.15652,-8.66293 7.05261,-13.40316c0.81581,-2.03953 1.57521,-4.03553 2.20557,-6.12294c0.06362,-0.21066 0.1452,-0.49088 0.24932,-0.75635c-0.07035,0.02853 -0.13525,0.05163 -0.19039,0.06756c-0.52213,0.15082 -1.06825,0.20071 -1.60238,0.30106c-1.41589,-0.30627 -4.94928,-1.81011 -4.10021,-3.57477c-0.04811,0.04238 -0.09515,0.0737 -0.13687,0.08541c-0.47992,0.13477 -0.99696,0.00097 -1.49544,0c-1.04882,-0.00205 -2.34675,0.10724 -3.33146,-0.39715c-1.04275,-0.53412 -3.88633,-1.94578 -3.51864,-3.5013c-0.31528,0.16693 -0.67511,0.25726 -1.01863,0.35727c-1.33073,0.38742 -2.68404,0.32556 -4.04725,0.30563zM375.06084,238.14089c-0.00937,-0.06938 -0.01437,-0.14345 -0.01437,-0.22252c0,-1.25 1.25,-1.25 1.25,-1.25h0.49848c1.93613,0 3.31481,-0.43896 5.12709,-0.6959c0.79041,-0.11206 1.75681,-0.49752 2.39487,-0.01774c0.73801,0.55494 -0.14153,2.25594 0.67529,2.68655c0.71159,0.37512 1.42976,0.74118 2.11292,1.16587c1.66922,1.03768 4.55434,-0.99001 6.17778,0.65055c0.40412,0.40838 -0.4046,1.12911 -0.30909,1.69565c0.06441,0.38206 1.59836,1.18007 2.01564,1.24449c1.41584,-0.31406 3.61585,-1.77966 4.8377,0.15614c0.48848,0.77392 -1.3161,5.12171 -1.68318,6.04441c-2.4957,6.27327 -5.3905,11.98131 -8.89873,17.75181c-0.8061,0.81582 -2.5324,3.10671 -3.6139,3.41798c-1.10418,0.3178 -3.3712,-0.65716 -3.94238,-1.57745c-0.20748,-0.3343 -0.36631,-0.93689 -0.37077,-1.44388c-0.26621,0.20599 -0.55538,0.38825 -0.75515,0.46559c-0.67117,0.25984 -1.43688,0.48188 -2.1364,0.31258c-0.56783,-0.13742 -0.83366,-0.83037 -1.32284,-1.14977c-1.14215,-0.74573 -4.25152,-1.75844 -5.54288,-1.78747c-1.68845,-0.03795 -2.62499,2.37909 -4.62248,0.3816c-1.30215,-1.30215 -0.47893,-2.60375 -0.02747,-3.84052c3.17691,-7.84511 5.02228,-16.1112 8.14988,-23.98798z" fill="#704f39" stroke="none" stroke-width="0.5"/><text transform="translate(371.63332,259.27468) scale(0.5,0.5)" font-size="40" xml:space="preserve" fill="#ffffff" fill-rule="nonzero" stroke="none" stroke-width="1" stroke-linecap="butt" stroke-linejoin="miter" stroke-miterlimit="10" stroke-dasharray="" stroke-dashoffset="0" font-family="Sans Serif" font-weight="normal" text-anchor="start" style="mix-blend-mode: normal"><tspan x="0" dy="0">10</tspan></text><path d="M447.3775,252.49472c0.51582,0.55633 0.72547,2.81252 1.06063,3.55477c1.2084,2.67613 1.83559,5.80843 3.59204,8.2037c0.03848,0.16067 -4.5349,2.05001 -5.37253,2.25688c-3.63481,0.8977 -6.39601,-1.22516 -10.05968,-1.55129c-1.48411,-0.13211 -4.69446,0.0053 -5.8795,-0.66291c-0.4827,-0.27219 0.40078,-1.04601 0.4938,-1.5923c0.16887,-1.0323 -0.06856,-2.65835 0.3395,-3.61348c0.87491,-2.04784 4.6492,-2.48235 6.30715,-3.63636c1.76671,-1.22972 2.76575,-2.83415 4.96337,-2.82059c0.31355,0.00193 3.17178,-0.23904 4.1911,-0.32672c0.1604,0.04481 0.2886,0.10683 0.36413,0.18829z" data-paper-data="{&quot;noHover&quot;:false,&quot;origItem&quot;:[&quot;Path&quot;,{&quot;applyMatrix&quot;:true,&quot;segments&quot;:[[[62.87285,218.43085],[0.1604,0.04481],[-1.01932,0.08768]],[[58.70201,218.76719],[0.31355,0.00193],[-2.19762,-0.01356]],[[53.78174,221.5771],[1.76671,-1.22972],[-1.65794,1.15401]],[[47.49223,225.17751],[0.87491,-2.04784],[-0.40806,0.95513]],[[47.15045,228.77374],[0.16887,-1.0323],[-0.09302,0.54629]],[[46.65455,230.36052],[-0.4827,-0.27219],[1.18503,0.66821]],[[52.52118,231.00618],[-1.48411,-0.13211],[3.66367,0.32613]],[[62.51775,232.55559],[-3.63481,0.8977],[0.83763,-0.20687]],[[67.87494,230.31822],[0.03848,0.16067],[-1.75645,-2.39527]],[[64.28367,222.15657],[1.2084,2.67613],[-0.33516,-0.74224]],[[63.23531,218.61776],[0.51582,0.55633],[-0.07553,-0.08146]]],&quot;closed&quot;:true}]}" fill="#827c6d" stroke="none" stroke-width="0.5"/><path d="M440.45169,243.56938c0.46648,-0.51913 1.98163,-3.88944 2.43102,-3.97098c0.64969,-0.11788 1.20197,0.55475 1.81117,0.80945c1.794,0.75003 3.34305,1.26639 5.28168,1.58949c2.72275,0.45379 5.62605,0.67254 8.3421,-0.00381c1.35867,-0.33833 2.85315,-1.01286 4.12463,-1.5904c0.58161,-0.26418 1.00869,-1.07089 1.64209,-0.98806c0.4172,0.05456 1.37644,2.18875 1.5354,2.45303c1.68764,2.80586 1.55323,4.61658 1.56507,7.94338c-0.31011,2.4668 -4.23828,4.18823 -6.04054,5.64958c-1.4034,1.13794 -2.49134,4.1596 -4.0784,4.83764c-2.72501,1.16421 -4.44124,-0.88173 -5.49868,-3.14579c-0.1649,-0.40622 -0.33447,-0.81155 -0.50874,-1.21604c-0.1225,-0.32713 -0.23375,-0.64709 -0.33301,-0.951c-0.33956,-1.01867 -0.87596,-3.71764 -1.64756,-4.40172c-1.24104,-1.10027 -1.6637,-0.99874 -2.4174,-0.7252c-0.76521,-0.06669 -1.64074,-0.05544 -2.27906,-0.10863c-1.0352,-0.08627 -3.42906,-0.72729 -4.35035,-0.34935c-1.10854,0.45475 -1.30295,1.67102 -2.10981,2.38245c-0.85915,0.75753 -2.08013,1.43941 -3.07187,2.03123c-0.26282,0.1654 -0.58931,0.68746 -0.82633,0.8895c-0.06245,0.02534 -0.22079,0.07939 -0.28345,0.10455c-0.03294,-0.01125 -0.06082,-0.04305 -0.0823,-0.09978c-0.24621,-0.65022 -0.08928,-1.42499 -0.37726,-2.05783c-0.26391,-0.57995 -1.39505,-0.89137 -1.19566,-1.49654c0.12434,-0.3774 2.62512,-1.78954 2.9509,-2.1538c1.17057,-1.30884 2.73405,-2.53496 3.85616,-3.90573c0.54308,-0.47379 1.07114,-0.9814 1.56019,-1.52566z" data-paper-data="{&quot;noHover&quot;:false,&quot;origItem&quot;:[&quot;Path&quot;,{&quot;applyMatrix&quot;:true,&quot;segments&quot;:[[[54.82746,211.2011],[0.54308,-0.47379],[-1.12211,1.37077]],[[50.97573,215.08945],[1.17057,-1.30884],[-0.32578,0.36426]],[[48.02485,217.23654],[0.12434,-0.3774],[-0.19939,0.60517]],[[49.21998,218.72837],[-0.26391,-0.57995],[0.28797,0.63284]],[[49.59584,220.78005],[-0.24621,-0.65022],[0.02148,0.05673]],[[49.67804,220.87949],[-0.03294,-0.01125],[0.06266,-0.02516]],[[49.86574,220.80376],[-0.06245,0.02534],[0.23701,-0.20204]],[[50.69152,219.91232],[-0.26282,0.1654],[0.99174,-0.59182]],[[53.76238,217.8761],[-0.85915,0.75753],[0.80686,-0.71143]],[[55.87173,215.48299],[-1.10854,0.45475],[0.9213,-0.37794]],[[60.32192,215.83807],[-1.0352,-0.08627],[0.63832,0.05319]],[[62.50111,215.94151],[-0.76521,-0.06669],[0.7537,-0.27354]],[[65.00307,216.63331],[-1.24104,-1.10027],[0.7716,0.68408]],[[66.60517,221.02228],[-0.33956,-1.01867],[0.09926,0.3039]],[[66.93723,221.97349],[-0.1225,-0.32713],[0.17427,0.40449]],[[67.4446,223.18988],[-0.1649,-0.40622],[1.05744,2.26406]],[[72.92711,226.34341],[-2.72501,1.16421],[1.58707,-0.67805]],[[76.98962,221.52491],[-1.4034,1.13794],[1.80226,-1.46135]],[[83.02536,215.89728],[-0.31011,2.4668],[-0.01184,-3.3268]],[[81.46574,207.97601],[1.68764,2.80586],[-0.15895,-0.26428]],[[79.93457,205.52985],[0.4172,0.05456],[-0.6334,-0.08283]],[[78.29281,206.51834],[0.58161,-0.26418],[-1.27148,0.57754]],[[74.17143,208.11265],[1.35867,-0.33833],[-2.71605,0.67635]],[[65.86388,208.13251],[2.72275,0.45379],[-1.93863,-0.32311]],[[60.60722,206.53755],[1.794,0.75003],[-0.6092,-0.25469]],[[58.80038,205.7256],[0.64969,-0.11788],[-0.44939,0.08153]],[[56.38311,209.68335],[0.46648,-0.51913],[-0.48906,0.54425]]],&quot;closed&quot;:true}]}" fill="#827c6d" stroke="none" stroke-width="0.5"/><path d="M458.64679,240.46389c0.88388,0.88388 0,1.76777 0,1.76777l-0.70529,0.51866c-2.9529,0.97575 -5.46327,0.97478 -8.49734,0.46066c-1.99702,-0.65989 -4.20984,-1.61584 -6.15133,-2.13093c-0.38536,-0.10224 -0.49383,0.63816 -0.64583,1.00674c-0.64292,1.55901 -0.72172,2.866 -2.04657,4.10257c-1.56956,1.46498 -3.31101,3.34233 -5.16326,4.4644c-0.90386,0.54755 -2.12843,0.46306 -1.77668,1.31169c0,0 0,1.25 -1.25,1.25c-1.25,0 -1.25,-1.25 -1.25,-1.25c0.36893,-3.17576 1.91414,-2.18443 3.89442,-3.97483c2.50772,-2.26727 3.90712,-4.01771 5.3208,-6.94848c0.54916,-1.13849 1.33798,-2.35296 2.82117,-2.46026c1.56364,-0.11311 5.27042,1.67103 6.8499,2.20281c2.55927,0.41829 4.61197,0.43298 7.10414,-0.40609l-0.27191,0.08528c0,0 0.88388,-0.88388 1.76777,0z" fill="#8e8878" stroke="none" stroke-width="0.5"/><path d="M453.37904,246.54826c0,1.25 -1.25,1.25 -1.25,1.25l-0.42219,-0.01701c-1.66867,-0.28275 -4.91862,-1.71411 -5.87331,0.27688c0,0 -0.64312,1.07187 -1.71499,0.42875c-1.07187,-0.64312 -0.42875,-1.71499 -0.42875,-1.71499c2.13246,-3.21166 5.23736,-1.97812 8.42804,-1.45662l0.01119,-0.01701c0,0 1.25,0 1.25,1.25z" fill="#8e8878" stroke="none" stroke-width="0.5"/><path d="M464.43684,243.25464c0.69338,1.04006 -0.34669,1.73344 -0.34669,1.73344l-0.45955,0.2772c-1.50607,1.41504 -2.52532,0.78886 -3.86407,1.66617c-0.55934,0.36655 -0.58768,1.2033 -0.93175,1.77675c0,0 -0.64312,1.07187 -1.71499,0.42875c-1.07187,-0.64312 -0.42875,-1.71499 -0.42875,-1.71499c0.26584,-0.44307 1.39083,-2.37067 1.6685,-2.557c1.04093,-0.6985 2.66394,-0.43636 3.50329,-1.36745l0.84057,-0.58955c0,0 1.04006,-0.69338 1.73344,0.34669z" fill="#8e8878" stroke="none" stroke-width="0.5"/><path d="M454.17917,250.74876c1,0.75 0.25,1.75 0.25,1.75l-1.00694,1.18862c-1.0537,0.6246 -2.08926,0.66283 -2.60488,1.73813c0,0 -0.64312,1.07187 -1.71499,0.42875c-1.07187,-0.64312 -0.42875,-1.71499 -0.42875,-1.71499c1.0737,-1.61708 1.89165,-1.63899 3.46237,-2.59562l0.29318,-0.54488c0,0 0.75,-1 1.75,-0.25z" fill="#8e8878" stroke="none" stroke-width="0.5"/><path d="M441.47328,251.42965c0.36426,0.12142 0.57933,0.31743 0.7025,0.53075c0.06595,-0.0299 0.13385,-0.05813 0.20382,-0.08454c1.57603,-0.59489 3.74359,-0.42949 5.42689,-0.71004l0.42219,-0.01701c0,0 1.25,0 1.25,1.25c0,1.25 -1.25,1.25 -1.25,1.25l-0.01119,-0.01701c-1.54769,0.25795 -3.51583,0.09741 -4.9741,0.59009c-1.58338,0.53495 -2.18167,2.66029 -3.80994,3.42962c-3.6897,1.74333 -5.43596,1.37329 -7.68457,5.14135c0,0 -0.64312,1.07187 -1.71499,0.42875c-1.07187,-0.64312 -0.42875,-1.71499 -0.42875,-1.71499c1.47798,-2.45167 2.88025,-3.53829 4.64809,-4.39414c-0.37999,-1.17391 0.79562,-1.56578 0.79562,-1.56578c2.37708,-0.77642 3.2097,-1.76274 5.0316,-3.25723l-0.1883,-0.06926c0,0 0.39528,-1.18585 1.58114,-0.79057z" fill="#8e8878" stroke="none" stroke-width="0.5"/><path d="M447.07084,258.06115c-0.24515,1.22573 -1.47087,0.98058 -1.47087,0.98058l-0.05742,-0.46633c-0.57161,0.44166 -1.08263,0.99089 -1.4425,1.61722c0,0 -0.64312,1.07187 -1.71499,0.42875c-1.07187,-0.64312 -0.42875,-1.71499 -0.42875,-1.71499c0.53485,-0.86518 1.23808,-1.63806 2.0245,-2.28315l2.10945,-0.03295c0,0 1.22573,0.24515 0.98058,1.47087z" fill="#8e8878" stroke="none" stroke-width="0.5"/><path d="M440.53035,262.97841c-0.39528,1.18585 -1.58114,0.79057 -1.58114,0.79057l-1.10507,-0.38537c-0.50807,-0.04023 -1.02851,0.2627 -1.40246,0.60898c0,0 -0.97609,0.78087 -1.75695,-0.19522c-0.78087,-0.97609 0.19522,-1.75695 0.19522,-1.75695c0.95157,-0.70206 2.1826,-1.09097 3.36466,-1.12452l1.49518,0.48138c0,0 1.18585,0.39528 0.79057,1.58114z" fill="#8e8878" stroke="none" stroke-width="0.5"/><path d="M467.08046,242.04796c1.25,0 1.25,1.25 1.25,1.25v0.43337c0,2.41907 0.05389,4.57142 -0.71421,6.8959c-1.39611,4.12018 -4.22707,3.80566 -7.08059,6.17979c-1.59792,1.32947 -0.59095,3.56542 -3.30584,4.38049c-2.03389,0.61062 -4.2807,-0.47986 -5.75683,-1.83671c0.19019,0.67333 0.32982,1.28459 0.35238,1.41419c1.10389,3.55888 -1.4845,5.99346 -4.77984,6.92314c-5.0846,1.43447 -10.44762,-3.0379 -15.72965,-2.13852c0,0 -1.23299,0.2055 -1.43849,-1.02749c-0.2055,-1.23299 1.02749,-1.43849 1.02749,-1.43849c3.2518,-0.53195 6.46407,0.31296 9.60768,1.10329c1.81595,0.45655 3.91096,1.59097 5.86564,1.09193c0.79615,-0.20326 1.24314,-1.11293 1.9909,-1.45356c0.33719,-0.1536 0.76952,0.04602 1.10627,-0.10854c0.72541,-0.33295 0.03165,-2.0535 -0.07627,-2.34912c-0.24336,-1.53768 -2.5598,-6.11234 0.91257,-6.5323c1.17728,-0.14239 3.10084,3.27766 4.41615,3.75785c3.12802,1.14196 2.48101,-2.12414 4.16272,-3.66856c2.33476,-2.14415 5.22809,-1.64078 6.35402,-5.08794c0.68964,-2.04835 0.58592,-3.96423 0.58592,-6.10533v-0.43337c0,0 0,-1.25 1.25,-1.25z" fill="#787265" stroke="none" stroke-width="0.5"/><path d="M438.13532,242.45495c0.16795,-0.1705 0.33292,-0.345 0.49445,-0.52412c1.33399,-1.47935 1.51472,-4.07749 3.64997,-4.70974c2.11303,-0.62566 5.87154,1.98803 8.10461,2.36021c2.68758,0.44793 5.82846,0.73986 8.41701,-0.35523c1.35368,-0.57268 4.2066,-2.5288 5.68164,-2.2426c1.40002,0.27164 1.96163,1.51394 2.58589,2.53765c0.62379,1.02295 1.77798,2.33034 2.2364,3.38379c0.8546,1.9639 0.32742,5.01238 0.32104,7.11336c-0.68693,3.65176 -4.23432,5.22302 -6.96549,7.3736c-1.79543,1.41376 -2.4522,4.14237 -4.60498,5.14911c-1.52029,0.71096 -2.87242,0.75891 -4.05845,0.36769c0.1422,0.28746 0.28956,0.57355 0.44313,0.858c-0.16481,0.78178 -0.01699,1.70472 -0.49443,2.34533c-0.37912,0.50868 -2.34453,0.88 -3.02824,1.19035c-2.05462,0.93263 -4.25795,2.45718 -6.68734,2.2774c-2.63317,-0.19486 -5.1471,-1.96353 -7.80607,-2.1673c-1.64174,-0.12582 -6.4152,-0.06619 -7.56798,-1.52121c-0.6569,-0.82913 -0.21898,-2.65736 -0.06253,-3.61371c0.2209,-1.29736 -0.03747,-3.00179 0.52498,-4.20451c0.54486,-1.16511 1.4286,-1.86443 2.43101,-2.39151c-0.84183,-1.66063 -2.14806,-4.55052 -2.09688,-4.83564c0.04371,-0.24348 0.19545,-0.51066 0.40905,-0.78305c0.0443,-0.40612 0.28888,-0.71184 0.28888,-0.71184c1.11649,-1.38136 2.44874,-2.48189 3.80916,-3.5492c0.19678,-0.24821 0.41547,-0.49276 0.67809,-0.72819c0.52892,-0.47416 0.98755,-0.6773 1.40027,-0.91156c0.31029,-0.25414 0.61696,-0.51326 0.91769,-0.78045c0.08462,-0.11422 0.16774,-0.24401 0.24969,-0.39346zM446.98233,252.34563c-1.01932,0.08768 -3.85729,0.33828 -4.17084,0.33634c-2.19762,-0.01356 -3.15356,1.58019 -4.92027,2.80991c-1.65794,1.15401 -5.41461,1.55257 -6.28952,3.60041c-0.40806,0.95513 -0.1729,2.56393 -0.34177,3.59623c-0.09302,0.54629 -0.97861,1.31459 -0.4959,1.58678c1.18503,0.66821 4.38252,0.51355 5.86663,0.64566c3.66367,0.32613 6.36176,2.44711 9.99657,1.54941c0.83763,-0.20687 5.39567,-2.07671 5.35719,-2.23737c-1.75645,-2.39527 -2.38287,-5.48552 -3.59126,-8.16165c-0.33516,-0.74224 -0.53255,-2.98248 -1.04837,-3.53881c-0.07553,-0.08146 -0.20206,-0.14211 -0.36246,-0.18691zM438.93694,245.11588c-1.12211,1.37077 -2.68116,2.57952 -3.85173,3.88836c-0.32578,0.36426 -2.82654,1.76969 -2.95088,2.14709c-0.19939,0.60517 0.93122,0.91188 1.19513,1.49182c0.28797,0.63284 0.12966,1.40146 0.37587,2.05169c0.02148,0.05673 0.04926,0.08818 0.0822,0.09943c0.06266,-0.02516 0.12524,-0.05038 0.1877,-0.07572c0.23701,-0.20204 0.56296,-0.72604 0.82579,-0.89144c0.99174,-0.59182 2.2117,-1.27868 3.07086,-2.03621c0.80686,-0.71143 1.00081,-1.93836 2.10936,-2.39312c0.9213,-0.37794 3.41499,0.26882 4.45019,0.35509c0.63832,0.05319 1.41398,0.03674 2.17919,0.10344c0.7537,-0.27354 1.26092,-0.40848 2.50196,0.69179c0.7716,0.68408 1.26254,3.3703 1.60209,4.38897c0.09926,0.3039 0.20955,0.62408 0.33206,0.95122c0.17427,0.40449 0.34248,0.81017 0.50738,1.21639c1.05744,2.26406 2.7575,4.31774 5.4825,3.15353c1.58707,-0.67805 2.65912,-3.68056 4.06251,-4.8185c1.80226,-1.46135 5.72564,-3.16084 6.03575,-5.62763c-0.01184,-3.3268 0.12802,-5.11541 -1.55962,-7.92127c-0.15895,-0.26428 -1.11397,-2.3916 -1.53117,-2.44616c-0.6334,-0.08283 -1.06016,0.72432 -1.64176,0.9885c-1.27148,0.57754 -2.7627,1.25598 -4.12138,1.59431c-2.71605,0.67635 -5.5848,0.47364 -8.30755,0.01985c-1.93863,-0.32311 -3.46266,-0.84492 -5.25666,-1.59495c-0.6092,-0.25469 -1.15714,-0.92983 -1.80683,-0.81196c-0.44939,0.08153 -1.95079,3.43863 -2.41727,3.95775c-0.48906,0.54425 -1.01257,1.04396 -1.55565,1.51775z" fill="#5d594e" stroke="none" stroke-width="0.5"/><text transform="translate(443.37278,261.0111) scale(0.5,0.5)" font-size="40" xml:space="preserve" fill="#ffffff" fill-rule="nonzero" stroke="none" stroke-width="1" stroke-linecap="butt" stroke-linejoin="miter" stroke-miterlimit="10" stroke-dasharray="" stroke-dashoffset="0" font-family="Sans Serif" font-weight="normal" text-anchor="start" style="mix-blend-mode: normal"><tspan x="0" dy="0">5</tspan></text><path d="M420.96138,253.60667c0,1.25 -1.25,1.25 -1.25,1.25c-0.94001,0 -1.9632,0 -3.01069,0c-0.0329,0.79813 -0.05509,1.59782 -0.05509,2.40181v1.32793c0,0 0,1.25 -1.25,1.25c-1.25,0 -1.25,-1.25 -1.25,-1.25v-1.32793c0,-0.80492 0.02214,-1.60444 0.05499,-2.40181c-1.08584,0 -2.14786,0 -3.12077,0c0,0 -1.25,0 -1.25,-1.25c0,-1.25 1.25,-1.25 1.25,-1.25c1.08199,0 2.16398,0 3.24597,0c0.078,-1.45386 0.15179,-2.91185 0.15179,-4.39371c0,0 0,-1.25 1.25,-1.25c1.25,0 1.25,1.25 1.25,1.25c0,1.48009 -0.07375,2.93909 -0.15173,4.39371c0.74052,0 1.48104,0 2.22156,0h0.66397c0,0 1.25,0 1.25,1.25z" fill="#ffffff" stroke="none" stroke-width="0.5"/></g></g></svg>