<svg version="1.1" xmlns="http://www.w3.org/2000/svg" xmlns:xlink="http://www.w3.org/1999/xlink" width="27.37455" height="14.83972" viewBox="0,0,27.37455,14.83972"><g transform="translate(-226.31272,-172.58014)"><g data-paper-data="{&quot;isPaintingLayer&quot;:true}" fill-rule="nonzero" stroke="none" stroke-width="0.5" stroke-linecap="butt" stroke-linejoin="miter" stroke-miterlimit="10" stroke-dasharray="" stroke-dashoffset="0" style="mix-blend-mode: normal"><path d="M253.45157,180.47575c0.53033,0.53033 0,1.06066 0,1.06066l0.02317,-0.10893c-1.67915,4.00331 -10.23611,6.52258 -14.18679,5.89747c-5.43024,0 -10.81927,-1.93083 -12.92021,-7.18318c0,0 -0.26396,-0.65989 0.3644,-0.95186c0.04811,-0.34531 0.37465,-0.54124 0.37465,-0.54124c1.20002,-0.7077 1.83121,-1.93068 2.91038,-2.79403c3.01666,-2.41335 7.71302,-3.69555 11.50495,-3.14993c4.57026,1.50959 7.42157,4.33772 11.35641,6.65824l0.28732,0.25565c0,0 0.35534,0.35535 0.19342,0.77517c0.0307,0.02396 0.06149,0.05118 0.09229,0.08197zM239.41167,185.83007c3.28498,0.57953 6.47415,-1.21759 9.37389,-2.37748c1.25075,-0.5003 2.80574,-1.26145 3.29647,-2.58219l0.09961,-0.12726c-0.04887,-0.03628 -0.07644,-0.06386 -0.07644,-0.06386l0.0016,-0.03007c-3.7856,-2.30276 -6.51748,-4.99768 -10.9293,-6.48461c-3.31771,-0.46961 -7.57379,0.74165 -10.20934,2.85007c-1.13804,0.91042 -1.80271,2.1273 -3.06595,2.90577c1.98067,4.45088 6.77139,5.90964 11.50946,5.90964z" fill="#1e251e"/><path d="M227.85222,179.92009c1.26324,-0.77847 1.93042,-2.01065 3.06846,-2.92107c2.63555,-2.10842 6.94866,-3.35312 10.26637,-2.88351c4.41181,1.48693 7.18408,4.2336 10.96968,6.53636l-0.00161,0.03019c0,0 0.02756,0.02782 0.07643,0.0641l-0.09965,0.12782c-0.49073,1.32074 -2.04907,2.09664 -3.29983,2.59694c-2.89973,1.1599 -6.14079,2.98838 -9.42577,2.40885c-4.73807,0 -9.57341,-1.50881 -11.55408,-5.95969z" data-paper-data="{&quot;noHover&quot;:false,&quot;origItem&quot;:[&quot;Path&quot;,{&quot;applyMatrix&quot;:true,&quot;segments&quot;:[[[239.41167,185.83007],[-4.73807,0],[3.28498,0.57953]],[[248.78556,183.45258],[-2.89973,1.1599],[1.25075,-0.5003]],[[252.08203,180.8704],[-0.49073,1.32074],[0,0]],[[252.18164,180.74313],[0,0],[-0.04887,-0.03628]],[252.1052,180.67927],[[252.1068,180.6492],[0,0],[-3.7856,-2.30276]],[[241.1775,174.16459],[4.41181,1.48693],[-3.31771,-0.46961]],[[230.96816,177.01466],[2.63555,-2.10842],[-1.13804,0.91042]],[[227.90221,179.92043],[1.26324,-0.77847],[1.98067,4.45088]]],&quot;closed&quot;:true}]}" fill="#4a5c4a"/><path d="M253.02984,180.82838c-0.14709,0.73544 -0.88252,0.58835 -0.88252,0.58835l-0.5672,-0.12829c-2.84363,-0.00791 -5.6898,-0.42857 -8.57143,-0.42857c-5.34066,0 -10.54347,0.30072 -15.83758,-0.58163c0,0 -0.7398,-0.1233 -0.6165,-0.86309c0.1233,-0.7398 0.86309,-0.6165 0.86309,-0.6165c5.21184,0.86864 10.3322,0.56122 15.59099,0.56122c2.87484,0 5.73775,0.43768 8.57143,0.42857l0.86137,0.15742c0,0 0.73544,0.14709 0.58835,0.88252z" fill="#1e251e"/></g></g></svg>