<svg version="1.1" xmlns="http://www.w3.org/2000/svg" xmlns:xlink="http://www.w3.org/1999/xlink" width="52.75" height="52.75" viewBox="0,0,52.75,52.75"><defs><linearGradient x1="239.9657" y1="186.85296" x2="239.9657" y2="198.35014" gradientUnits="userSpaceOnUse" id="color-1"><stop offset="0" stop-color="#4d3b2e"/><stop offset="1" stop-color="#271e17"/></linearGradient><linearGradient x1="247.43172" y1="190.10001" x2="247.43172" y2="194.72077" gradientUnits="userSpaceOnUse" id="color-2"><stop offset="0" stop-color="#69513e"/><stop offset="1" stop-color="#69513e" stop-opacity="0"/></linearGradient><linearGradient x1="244.31271" y1="188.09768" x2="244.31271" y2="194.9518" gradientUnits="userSpaceOnUse" id="color-3"><stop offset="0" stop-color="#69513e"/><stop offset="1" stop-color="#69513e" stop-opacity="0"/></linearGradient><linearGradient x1="240.50966" y1="186.24805" x2="240.50966" y2="193.7196" gradientUnits="userSpaceOnUse" id="color-4"><stop offset="0" stop-color="#69513e"/><stop offset="1" stop-color="#69513e" stop-opacity="0"/></linearGradient><linearGradient x1="236.61144" y1="186.30434" x2="236.61144" y2="192.94487" gradientUnits="userSpaceOnUse" id="color-5"><stop offset="0" stop-color="#69513e"/><stop offset="1" stop-color="#69513e" stop-opacity="0"/></linearGradient><linearGradient x1="233.22133" y1="187.7883" x2="233.22133" y2="193.33454" gradientUnits="userSpaceOnUse" id="color-6"><stop offset="0" stop-color="#69513e"/><stop offset="1" stop-color="#69513e" stop-opacity="0"/></linearGradient><linearGradient x1="231.14461" y1="190.17702" x2="231.14461" y2="194.56905" gradientUnits="userSpaceOnUse" id="color-7"><stop offset="0" stop-color="#69513e"/><stop offset="1" stop-color="#69513e" stop-opacity="0"/></linearGradient><linearGradient x1="257.0625" y1="179.95164" x2="257.0625" y2="187.45164" gradientUnits="userSpaceOnUse" id="color-8"><stop offset="0" stop-color="#69513e"/><stop offset="1" stop-color="#69513e" stop-opacity="0"/></linearGradient></defs><g transform="translate(-213.625,-153.625)"><g data-paper-data="{&quot;isPaintingLayer&quot;:true}" fill-rule="nonzero" stroke-linejoin="miter" stroke-miterlimit="10" stroke-dasharray="" stroke-dashoffset="0" style="mix-blend-mode: normal"><path d="M214.875,205.125v-50.25h50.25v50.25z" fill="#7f7f7f" stroke="#5e5e5e" stroke-width="2.5" stroke-linecap="butt"/><path d="M238.6105,187.15093l0.23225,-0.00028c1.26966,-0.00166 2.35924,0.07324 3.53978,0.54403c2.34341,1.30079 8.20768,4.036 6.58097,7.48414c-0.30166,0.63943 -0.94716,1.22302 -1.44935,1.69747c-0.57562,0.54383 -1.02518,0.76458 -1.77854,0.9855c-2.73229,0.82438 -5.86597,0.43694 -8.64575,0.05791c-2.60177,-0.35476 -4.91789,-0.5977 -6.32741,-3.06496c-0.69024,-3.62537 3.4756,-7.72084 7.21402,-8.00179c0.22176,0.29875 0.63404,0.29797 0.63404,0.29797z" data-paper-data="{&quot;noHover&quot;:false,&quot;origItem&quot;:[&quot;Path&quot;,{&quot;applyMatrix&quot;:true,&quot;segments&quot;:[[[236.73193,174.2664],[0.35994,0.48491],[-6.06787,0.456]],[[225.05501,187.19505],[-1.12034,-5.88437],[2.28781,4.00464]],[[235.30031,192.13772],[-4.22296,-0.57581],[4.5119,0.6152]],[[249.27257,192.05402],[-4.43481,1.33806],[1.22278,-0.35859]],[[252.15278,190.4635],[-0.93429,0.88269],[0.8151,-0.77009]],[[254.50067,187.71919],[-0.48963,1.03786],[2.64034,-5.59671]],[[243.84504,175.63021],[3.80362,2.11133],[-1.91613,-0.76414]],[[238.13176,174.75131],[2.06079,-0.00269],[0,0]],[237.75676,174.75131]],&quot;closed&quot;:true}]}" fill="url(#color-1)" stroke="none" stroke-width="0.5" stroke-linecap="butt"/><path d="M247.43172,194.72077c-0.77013,0 -0.77013,-0.77013 -0.77013,-0.77013c0,-0.77013 0,-2.31038 0,-3.08051c0,0 0,-0.77013 0.77013,-0.77013c0.77013,0 0.77013,0.77013 0.77013,0.77013c0,0.77013 0,1.54025 0,2.31038v0.77013c0,0 0,0.77013 -0.77013,0.77013z" fill="url(#color-2)" stroke="none" stroke-width="0.5" stroke-linecap="butt"/><path d="M244.2742,194.9518c-0.77013,0 -0.77013,-0.64057 -0.77013,-0.64057v-0.4484c0,-1.71089 0.07701,-3.41276 0.07701,-5.12458c0,0 0,-0.64057 0.77013,-0.64057c0.77013,0 0.77013,0.64057 0.77013,0.64057c0,1.71181 -0.07701,3.41382 -0.07701,5.12458v0.4484c0,0 0,0.64057 -0.77013,0.64057z" fill="url(#color-3)" stroke="none" stroke-width="0.5" stroke-linecap="butt"/><path d="M240.5776,193.7196c-0.77013,0 -0.77013,-0.55338 -0.77013,-0.55338v-0.38736c0,-1.96485 0.0992,-3.97085 -0.15086,-5.92638c0,0 -0.06972,-0.5511 0.69724,-0.6012c0.76697,-0.0501 0.83669,0.50101 0.83669,0.50101c0.2493,1.99019 0.15719,4.02742 0.15719,6.02658v0.38736c0,0 0,0.55338 -0.77013,0.55338z" fill="url(#color-4)" stroke="none" stroke-width="0.5" stroke-linecap="butt"/><path d="M236.64995,192.94487c-0.77013,0 -0.77013,-0.55338 -0.77013,-0.55338v-0.33203c0.00315,-1.73008 -0.07701,-3.46757 -0.07701,-5.20175c0,0 0,-0.55338 0.77013,-0.55338c0.77013,0 0.77013,0.55338 0.77013,0.55338c0,1.73463 0.07417,3.47104 0.07701,5.20175v0.33203c0,0 0,0.55338 -0.77013,0.55338z" fill="url(#color-5)" stroke="none" stroke-width="0.5" stroke-linecap="butt"/><path d="M233.18438,193.33454c-0.77013,0 -0.77013,-0.57167 -0.77013,-0.57167v-0.28584c0.00219,-1.37405 0.17164,-2.68877 0.00316,-4.0643c0,0 -0.06972,-0.56933 0.69724,-0.62109c0.76697,-0.05176 0.83669,0.51757 0.83669,0.51757c0.17279,1.41101 0.00068,2.75996 0.00316,4.16782v0.28584c0,0 0,0.57167 -0.77013,0.57167z" fill="url(#color-6)" stroke="none" stroke-width="0.5" stroke-linecap="butt"/><path d="M231.00952,194.55924c-0.76418,-0.11342 -0.66865,-1.02079 -0.66865,-1.02079l0.07107,-0.61813c0,-0.60963 0,-1.21925 0,-1.82887c0,0 0,-0.91444 0.77013,-0.91444c0.77013,0 0.77013,0.91444 0.77013,0.91444c0,0.60963 0,1.21925 0,1.82887l-0.08296,0.84497c0,0 -0.09552,0.90738 -0.8597,0.79395z" fill="url(#color-7)" stroke="none" stroke-width="0.5" stroke-linecap="butt"/><path d="M237.98654,186.88208c-3.73842,0.28094 -7.88441,4.33999 -7.19417,7.96536c1.40952,2.46726 3.71037,2.69043 6.31215,3.04519c2.77979,0.37903 5.87603,0.77281 8.60833,-0.05157c0.75336,-0.22093 1.19888,-0.4361 1.77449,-0.97993c0.50218,-0.47445 1.14488,-1.05135 1.44654,-1.69077c1.62672,-3.44814 -4.22154,-6.14724 -6.56495,-7.44804c-1.18053,-0.47079 -2.2503,-0.54315 -3.51996,-0.5415h-0.23104c0,0 -0.40963,0 -0.63139,-0.29875zM240.45524,185.71034c0.86561,0.08623 1.69282,0.26719 2.57504,0.62095c3.23297,1.79727 9.47588,4.90816 7.29732,9.49475c-0.38983,0.82072 -1.13285,1.54959 -1.78799,2.15986c-0.7464,0.69528 -1.41769,1.03519 -2.38419,1.33046c-1.93368,0.57712 -3.81487,0.51608 -5.80457,0.41658c-4.11939,-0.20599 -8.81078,-0.33338 -11.00417,-4.3541c-1.12721,-5.47697 5.55631,-11.32796 10.87876,-9.78279c0,0 0.1085,0.03255 0.22978,0.11429z" fill="#937257" stroke="none" stroke-width="0.5" stroke-linecap="butt"/><path d="M257.0625,187.45164c-1.25,0 -1.25,-1.25 -1.25,-1.25c0,-1.25 0,-3.75 0,-5c0,0 0,-1.25 1.25,-1.25c1.25,0 1.25,1.25 1.25,1.25c0,1.25 0,2.5 0,3.75v1.25c0,0 0,1.25 -1.25,1.25z" fill="url(#color-8)" stroke="none" stroke-width="0.5" stroke-linecap="butt"/><path d="M237.8125,198.41395l0.125,-18.60728" fill="none" stroke="#e6bc00" stroke-width="1.5" stroke-linecap="round"/><path d="M243.1875,179.80667l-0.875,18.875" fill="none" stroke="#e6bc00" stroke-width="1.5" stroke-linecap="round"/><path d="M248.3125,186.85296v-12.95326h3.75v12.95326z" fill="#4b4b4b" stroke="#414141" stroke-width="1.5" stroke-linecap="butt"/><path d="M227.9375,186.85296v-12.95326h3.75v12.95326z" fill="#4b4b4b" stroke="#414141" stroke-width="1.5" stroke-linecap="butt"/><path d="M221.5625,197.56469v-26.375h3.75v26.375z" fill="#707070" stroke="#5a5a5a" stroke-width="1.5" stroke-linecap="butt"/><path d="M254.6875,197.56469v-26.375h3.75v26.375z" fill="#707070" stroke="#5a5a5a" stroke-width="1.5" stroke-linecap="butt"/><path d="M221.5625,177.31469v-17.26605h36.875v17.26605z" fill="#ff0000" stroke="#ff0000" stroke-width="1.5" stroke-linecap="butt"/><path d="M235.0625,198.0872v-19.125h9.875v19.125z" fill="none" stroke="#ffd200" stroke-width="1.5" stroke-linecap="butt"/><path d="M244.9375,198.0872l-9,-5l8.5,-6.25l-8.375,-7.875" fill="none" stroke="#ffd200" stroke-width="1.5" stroke-linecap="round"/><path d="M244.0625,179.9622l-8.25,6.375l8.25,6.625l-8.25,4.875" fill="none" stroke="#ffd200" stroke-width="1.5" stroke-linecap="round"/><path d="M221.5625,183.70164v-23.75872h36.875v23.75872z" fill="#707070" stroke="#5a5a5a" stroke-width="1.5" stroke-linecap="butt"/><path d="M221.5625,179.17364v-19.125h36.875v19.125z" fill="#707070" stroke="#5a5a5a" stroke-width="1.5" stroke-linecap="butt"/><path d="M247.54011,197.45911c0.1819,0.72761 -0.54571,0.90951 -0.54571,0.90951l-0.21338,-0.01696c-3.64089,2.90369 -9.03204,1.47887 -13.29956,0.26049c0,0 -0.72114,-0.20604 -0.5151,-0.92718c0.20604,-0.72114 0.92718,-0.5151 0.92718,-0.5151c3.73962,1.06923 8.77723,2.55616 11.95044,0.01049l0.78662,-0.26696c0,0 0.72761,-0.1819 0.90951,0.54571z" fill="#937257" stroke="none" stroke-width="0.5" stroke-linecap="butt"/></g></g></svg>