<svg version="1.1" xmlns="http://www.w3.org/2000/svg" xmlns:xlink="http://www.w3.org/1999/xlink" width="34.16033" height="48.51004" viewBox="0,0,34.16033,48.51004"><g transform="translate(-222.62765,-140.50805)"><g data-paper-data="{&quot;isPaintingLayer&quot;:true}" fill-rule="nonzero" stroke="none" stroke-width="0.5" stroke-linecap="butt" stroke-linejoin="miter" stroke-miterlimit="10" stroke-dasharray="" stroke-dashoffset="0" style="mix-blend-mode: normal"><path d="M244.95738,183.74194l0.40847,-0.09655c0,0 0.08409,-0.01682 0.20108,-0.01065c-0.00447,-0.72067 -0.02528,-1.34203 -0.02477,-1.63385c0.23483,-1.87863 0.08361,-3.79218 -0.0592,-5.70026c-0.19689,-1.04552 -0.24423,-2.06314 -0.16629,-2.69661c0.00029,-0.00233 0.00058,-0.00467 0.00087,-0.007l-0.00139,0.0001l-0.10632,-1.48847c-0.00163,-0.02017 -0.00246,-0.04057 -0.00246,-0.06116c0,-0.41421 0.33579,-0.75 0.75,-0.75c0.38611,0 0.70407,0.29176 0.74544,0.66685l0.10988,0.87902l-0.02135,0.00267l0.02569,0.04375c0.00029,0.95059 0.05888,1.90831 0.12789,2.86829c0.39307,1.66903 0.87946,3.27172 1.8023,2.56548c1.96667,-1.50506 0.3753,-7.46758 -0.16879,-9.37451c-0.31481,-0.83782 -0.62429,-1.67236 -0.97709,-2.495l-0.22041,-0.55046l-0.16344,-0.05562c-1.2924,-0.5879 -2.84366,-0.3359 -4.23133,-0.27324c-2.91841,0.13176 -7.9029,-1.20819 -10.0149,1.2942c0,0 -0.18091,0.21106 -0.45094,0.26605c-1.29343,2.36508 -2.14808,4.9797 -2.14628,7.6903c0.00026,0.39115 -0.16848,2.53654 0.32953,2.81831c1.23849,0.70073 1.88196,-0.01119 2.22474,-0.96828c0.08107,-1.14505 0.2556,-2.26401 0.59592,-3.31548c0.02942,-0.14611 0.0602,-0.29195 0.09216,-0.43749l-0.16893,-0.03754l0.21902,-0.98558c0.06882,-0.34319 0.37189,-0.60172 0.73534,-0.60172c0.41421,0 0.75,0.33579 0.75,0.75v0.77778h-0.03832l0.03384,0.08184c-0.07787,0.35653 -0.15236,0.71411 -0.21793,1.07321c0.02544,0.72425 -0.24748,1.58536 -0.33978,2.27784c-0.18246,1.36873 -0.25327,2.78681 -0.25431,4.20602c-0.47391,-0.02463 -0.95455,0.01517 -1.42848,0.12218c-0.01783,-0.54384 -0.03299,-1.09228 -0.03786,-1.64094c-0.75941,0.55717 -1.75008,0.68037 -2.99114,-0.04959c-0.76411,-0.44943 -0.99806,-2.19498 -1.0038,-2.95946c-0.0263,-3.50166 0.72475,-6.61808 2.42772,-9.69757c0,0 0.20243,-0.36438 0.57712,-0.39893c2.63736,-2.95695 7.48515,-1.60092 11.04972,-1.76406v0.00001c1.68339,-0.07704 3.29918,-0.25542 4.87978,0.39342l0.27506,0.08896c0,0 0.39623,0.13208 0.49876,0.49479c0.12602,0.12994 0.18265,0.27151 0.18265,0.27151l0.21522,0.53866c0.36945,0.86261 0.69399,1.73733 1.02291,2.61611c0.76685,2.68075 2.35323,9.02852 -0.39102,11.06993c-1.00602,0.74837 -1.81417,0.72567 -2.44725,0.2669c0.0026,0.7631 -0.03111,1.52326 -0.12545,2.27799c0.00294,1.48101 0.23738,5.40283 -1.07468,6.44105c-1.03347,0.81777 -4.82283,0.4807 -6.50223,-0.21671c-0.12658,0.13998 -0.2709,0.26058 -0.43518,0.35837c0.25112,-1.43847 0.32964,-2.81139 0.18359,-3.68659c-0.09107,-0.54575 -0.24548,-1.04645 -0.45201,-1.49977c-0.04112,-0.9974 -0.10587,-1.87147 -0.10548,-2.15621l0.02389,-0.04398l-0.01954,-0.00244l0.10988,-0.87902c0.04137,-0.37508 0.35933,-0.66685 0.74544,-0.66685c0.3893,0 0.70933,0.29661 0.74641,0.67617l0.11011,0.99101l-0.21837,0.02426l-0.00069,0.00552c0,0.00108 0.00001,0.00215 0.00001,0.00323c0.1824,0.73046 0.25731,1.45872 0.27491,2.21767c1.50923,0.04438 3.0186,0.08213 4.53206,0.08213zM244.95738,185.24194c-1.52141,0 -3.03849,-0.03814 -4.55538,-0.08281c-0.00854,0.19733 -0.01859,0.39772 -0.0294,0.60164c-0.0065,0.12257 -0.05729,0.25366 -0.12182,0.38578c-0.03755,0.34418 -0.09534,0.67417 -0.18024,0.97935c0.36288,0.24551 1.91738,0.1713 2.11372,0.17161c0.38942,0.00063 2.63973,0.20858 2.87704,0.04011c0.3077,-0.21844 0.43466,-1.15751 0.48179,-2.20044z" fill="#847a69"/><path d="M245.85557,184.85355c-0.06775,0.16303 -0.16106,0.31329 -0.27565,0.45081c-0.05168,0.93398 -0.1743,1.78203 -0.44097,2.0282c-0.01822,0.01967 -0.03713,0.03656 -0.05677,0.0505c-0.23731,0.16847 -2.49879,-0.03586 -2.88821,-0.0365c-0.19633,-0.00032 -1.76033,0.07484 -2.1232,-0.17067c0.00062,-0.00223 0.00124,-0.00446 0.00185,-0.0067c-0.01847,-0.009 -0.03513,-0.01845 -0.0498,-0.02837c0.0849,-0.30518 0.14047,-0.65251 0.17802,-0.99669c0.046,-0.09417 0.08553,-0.19181 0.10679,-0.28451c-0.64463,-0.44694 -0.8931,-1.15916 -0.32372,-2.13347c0.03684,-0.06303 0.07783,-0.12274 0.1222,-0.17974l-0.02842,-0.01895l0.31876,-0.47814c-0.03798,-0.51898 -0.11317,-1.03017 -0.24477,-1.55721c0,-0.00108 -0.00249,-0.10212 -0.00249,-0.1032l0.00068,-0.00552l0.2162,-0.02416l-0.10379,-0.89121c-0.03709,-0.37956 -0.36753,-0.67666 -0.75683,-0.67666c-0.38611,0 -0.71144,0.29006 -0.75281,0.66515l-0.08158,0.78312l0.01936,0.00239l-0.02378,0.04401c-0.0004,0.28809 0.06292,1.19318 0.10026,2.22236c-0.85385,-1.89186 -2.61321,-2.96339 -4.47028,-3.04607c-0.00377,-1.42246 0.06158,-2.84383 0.24306,-4.20526c0.09231,-0.69248 0.36997,-1.57377 0.34453,-2.29802c0.06557,-0.3591 0.14457,-0.72438 0.22243,-1.08091l-0.03361,-0.08215l0.03843,-0.00015l0.00303,-0.78154c0,-0.41421 -0.26131,-0.68326 -0.67553,-0.68326c-0.36345,0 -0.66274,0.2538 -0.73157,0.597l-0.21574,0.98024l0.16878,0.03782c-0.03196,0.14554 -0.0614,0.2887 -0.09082,0.43482c-0.34032,1.05147 -0.51024,2.14728 -0.59131,3.29233c-0.34278,0.95709 -1.08575,1.67782 -2.32424,0.9771c-0.49801,-0.28177 -0.32909,-2.44183 -0.32935,-2.83298c-0.00181,-2.7106 0.8707,-5.3561 2.16413,-7.72117c0.27003,-0.05499 0.45267,-0.26739 0.45267,-0.26739c2.11199,-2.50239 7.13949,-1.1705 10.0579,-1.30226c1.38768,-0.06265 2.95391,-0.30772 4.24632,0.28018l0.16395,0.05595l0.22202,0.55164c0.3528,0.82264 0.66968,1.66413 0.9845,2.50195c0.54409,1.90693 2.14652,7.91312 0.17985,9.41818c-0.92284,0.70624 -1.50784,-0.90288 -1.9009,-2.57191c-0.06901,-0.95998 -0.12228,-1.89932 -0.12257,-2.84991l-0.02554,-0.04346l0.02133,-0.00271l-0.10724,-0.87454c-0.04137,-0.37508 -0.3556,-0.66189 -0.74171,-0.66189c-0.41421,0 -0.67366,0.2712 -0.67366,0.68542c0,0.02059 0.00106,0.04126 0.00269,0.06144l0.11198,1.49699l0.00139,-0.0001c-0.00029,0.00233 -0.00056,0.00471 -0.00084,0.00704c-0.07794,0.63347 -0.02489,1.6736 0.172,2.71912c0.14281,1.90808 0.27905,3.85802 0.04422,5.73666c-0.00019,0.10548 0.00222,0.25415 0.00547,0.43511c0.46439,0.64472 0.59746,1.60091 0.27291,2.38185z" fill="#c0b39a"/><path d="M238.28699,178.2333c0.23931,2.94362 0.17272,11.67623 -3.1666,6.22961c-0.28746,-0.46886 -0.55315,-0.98407 -0.77385,-1.48768c-0.16653,-1.24734 -0.61346,-2.80022 -0.44949,-4.05539c0.35845,-2.74404 3.11576,-2.20348 4.38994,-0.68654z" data-paper-data="{&quot;noHover&quot;:false,&quot;origItem&quot;:[&quot;Path&quot;,{&quot;applyMatrix&quot;:true,&quot;segments&quot;:[[[481.97189,357.48066],[2.35996,-2.81489],[-0.44323,5.46227]],[[487.74989,368.86194],[-6.18487,10.10691],[0.53241,-0.87003]],[[489.13713,366.13443],[-0.40877,0.93452],[0.30844,-2.31461]],[[489.98481,358.74748],[0.30369,2.32913],[-0.66392,-5.09193]]],&quot;closed&quot;:true}],&quot;index&quot;:null}" fill="#c0b39a"/><path d="M238.9675,177.29951c0.55213,0.05649 0.62694,0.65496 0.62694,0.65496c0.02524,0.20446 0.05264,0.41896 0.08088,0.6416c0.00888,0.02991 0.03854,0.14088 0.03523,0.27918c0.19881,1.5869 0.41085,3.52596 0.18975,5.17595c0.3666,0.19757 0.3666,0.66296 0.3666,0.66296c0,0.78149 -0.00144,1.50552 0.10922,2.28017l0.00096,0.42368c0.15233,0.04352 0.30465,0.08704 0.45697,0.13056c0,0 0.72114,0.20604 0.5151,0.92718c-0.20604,0.72114 -0.92718,0.5151 -0.92718,0.5151c-0.25926,-0.07407 -0.51852,-0.14815 -0.77778,-0.22222l-0.6884,-0.45448c0,0 -0.6,-0.45 -0.15,-1.05c0.02424,-0.03232 0.04892,-0.0616 0.07391,-0.08806l0.0002,-0.07544c-0.01592,-0.11141 -0.02959,-0.22208 -0.04134,-0.33223c-2.00244,2.50278 -4.80172,-1.25536 -5.71047,-3.40732c-0.07677,-0.51069 -0.19392,-1.0684 -0.29625,-1.64183c0.38206,-1.25911 0.4812,-2.66744 0.28923,-3.9985c1.36281,-2.46048 4.08566,-2.16658 5.84643,-0.42126zM234.14855,179.26262c-0.15184,1.16456 0.26962,2.53617 0.42384,3.69347c0.20439,0.46726 0.42741,0.92874 0.69362,1.36376c3.09243,5.05346 3.11061,-2.95951 2.889,-5.69064c-1.17998,-1.40745 -3.6745,-1.91256 -4.00646,0.63341z" data-paper-data="{&quot;index&quot;:null}" fill="#847a69"/><path d="M233.52788,182.20345c-0.71151,0.23717 -0.94868,-0.47434 -0.94868,-0.47434l-0.08896,-0.27506c-0.67968,-1.6557 -0.0498,-2.77178 0.41266,-4.39037c0,0 0.20604,-0.72114 0.92718,-0.5151c0.72114,0.20604 0.5151,0.92718 0.5151,0.92718c-0.3445,1.20574 -1.01498,2.20306 -0.47623,3.38741l0.13326,0.3916c0,0 0.23717,0.71151 -0.47434,0.94868z" fill="#847a69"/><path d="M237.45996,169.08396c0.1287,-0.17821 0.36087,-0.35311 0.75933,-0.25932c0.73005,0.17182 0.55822,0.90189 0.55822,0.90189c-0.1354,0.56138 -0.78411,3.22189 -1.1985,3.54745c-0.62965,0.49469 -1.68179,0.30386 -2.60675,-0.03345l0.01139,0.04811l-0.43145,0.10215c0.1793,2.26271 -1.21445,5.12991 -3.31708,6.12898c-2.9175,1.38625 -4.33819,-1.4295 -4.09373,-3.87234c0.11615,-1.16065 0.45529,-2.19325 0.85155,-3.28065c0.86412,-5.05892 4.70892,-5.55161 8.74387,-3.50071l0.586,0.15934c0,0 0.05846,0.01723 0.13715,0.05854z" fill="#c0b39a"/><path d="M238.68008,169.53395c-0.21206,0.7194 -0.93145,0.50734 -0.93145,0.50734l-0.45493,-0.17423c-2.81731,-1.96239 -6.06036,-3.54472 -7.70423,-0.01798c0.13257,0.35122 -0.10504,0.69236 -0.10504,0.69236c-1.3993,1.99877 -2.34247,4.7133 -1.59693,7.16777c0.62791,2.06722 3.25617,0.60069 4.08763,-0.29596c1.04243,-1.09444 1.52401,-2.68629 1.86273,-4.13469l-0.025,0.0411c0,0 -0.02631,-0.74954 0.72323,-0.77586c0.74954,-0.02631 0.77585,0.72323 0.77585,0.72323l-0.01398,0.35518c-0.40982,1.73108 -1.00963,3.48767 -2.2256,4.81381c-1.6795,1.79354 -5.47426,2.92413 -6.60198,-0.23514c-0.929,-2.60259 0.00554,-5.67692 1.41576,-7.95599c-0.00255,-0.16888 0.04437,-0.29931 0.04437,-0.29931c1.92727,-5.35593 6.45124,-3.93491 10.22053,-1.30939l0.0217,-0.03372c0,0 0.7194,0.21205 0.50733,0.93146z" fill="#847a69"/><path d="M239.29992,170.03016c0.30729,1.6815 -2.07611,1.51777 -3.65065,0.76988c-1.03548,-2.29208 1.34746,-6.04194 3.46502,-3.08962c0.81906,1.14194 0.70095,1.89809 0.18563,2.31974z" fill="#c0b39a"/><path d="M256.00432,149.08595c0.26524,0.70153 -0.43631,0.96677 -0.43631,0.96677l-0.12491,0.04722c-0.95397,0.36022 -1.92342,0.68184 -2.90354,0.96325c0,0 -0.72096,0.20668 -0.92764,-0.51427c-0.20668,-0.72096 0.51427,-0.92764 0.51427,-0.92764c0.94081,-0.26927 1.87124,-0.57794 2.78644,-0.92441l0.12491,-0.04722c0,0 0.70153,-0.26524 0.96677,0.43631z" fill="#8c5900"/><path d="M246.78437,142.06434c0.74072,0.11759 0.62313,0.85832 0.62313,0.85832l-0.12673,0.6297c-0.17361,0.38495 -0.34723,0.76989 -0.52084,1.15484c0,0 -0.30835,0.68368 -0.99203,0.37533c-0.68368,-0.30835 -0.37533,-0.99203 -0.37533,-0.99203c0.17361,-0.38495 0.34723,-0.76989 0.52084,-1.15484l0.01264,-0.2482c0,0 0.11759,-0.74072 0.85832,-0.62313z" fill="#8c5900"/><path d="M234.02575,143.77714c0.09406,0.19978 0.20418,0.60628 -0.23552,0.92549c-0.60692,0.44062 -1.04754,-0.1663 -1.04754,-0.1663l-0.22575,-0.57988c0.11349,-2.86987 1.8938,-4.17315 4.55967,-3.04336c0,0 0.32011,0.13625 0.43148,0.44118l0.27362,0.39232c0.19798,0.40644 0.39597,0.81288 0.59395,1.21932c0,0 0.32845,0.67426 -0.34582,1.0027c-0.67426,0.32845 -1.0027,-0.34582 -1.0027,-0.34582c-0.19798,-0.40644 -0.39597,-0.81288 -0.59395,-1.21932l-0.15104,-0.19404c-1.45539,-0.55486 -2.15845,-0.05453 -2.2564,1.56771z" fill="#8c5900"/><path d="M223.35252,158.55127c-0.74959,-0.0248 -0.72478,-0.77439 -0.72478,-0.77439l0.02667,-0.80578c0.12769,-3.65979 -1.04018,-13.87548 5.2444,-12.98131c0,0 0.48115,0.07638 0.60631,0.49382c0.1136,0.05834 0.18394,0.12325 0.18394,0.12325l0.33322,0.31033c0.28856,0.30832 0.57713,0.61663 0.86568,0.92495c0,0 0.51249,0.54759 -0.03508,1.06008c-0.54759,0.51249 -1.06008,-0.03508 -1.06008,-0.03508c-0.28856,-0.30832 -0.57713,-0.61663 -0.86568,-0.92495l-0.25551,-0.23314c0,0 -0.11026,-0.10178 -0.18661,-0.26359c-1.53732,-0.161 -2.43595,1.34039 -2.83798,2.72784c-0.85481,2.95009 -0.39953,5.86504 -0.49345,8.8474l-0.02667,0.80578c0,0 -0.0248,0.74958 -0.77439,0.72478z" fill="#8c5900"/><path d="M230.28266,147.96484l-0.14609,0.13214c-1.82674,2.4021 -3.21331,4.58282 -3.2456,7.76831c-0.04666,4.60457 5.1187,10.74483 9.44338,12.00788c9.78176,2.96894 19.37759,-7.89927 14.345,-17.17164c-2.80136,-5.25219 -8.58257,-6.79404 -14.15833,-5.645c-1.93673,0.39912 -4.42797,0.83733 -5.96831,2.234c0.02571,0.38248 -0.27003,0.67429 -0.27003,0.67429zM228.44582,147.13936c1.76086,-2.45646 4.91232,-3.16843 7.73155,-3.74979c6.34034,-1.30748 12.79569,0.60417 16.0005,6.50496c5.67833,10.616 -5.08769,22.98163 -16.33506,19.60812c-5.06479,-1.56605 -10.6749,-8.24214 -10.65376,-13.65435c0.01265,-3.23612 1.31224,-5.67143 3.09554,-8.11504c-0.02735,-0.32219 0.16123,-0.5939 0.16123,-0.5939z" data-paper-data="{&quot;index&quot;:null}" fill="#847a69"/><path d="M230.51325,147.24977c1.54034,-1.39667 4.05709,-1.84911 5.99382,-2.24823c5.57577,-1.14904 11.42146,0.42204 14.22282,5.67423c5.0326,9.27236 -4.62853,20.22113 -14.41028,17.25219c-4.32467,-1.26305 -9.53196,-7.46072 -9.4853,-12.06529c0.03229,-3.1855 1.43336,-5.40155 3.26011,-7.80364l0.1467,-0.1328c0,0 0.29784,-0.29397 0.27215,-0.67645z" data-paper-data="{&quot;noHover&quot;:false,&quot;origItem&quot;:[&quot;Path&quot;,{&quot;applyMatrix&quot;:true,&quot;segments&quot;:[[461.79205,256.51809],[[461.57425,256.7885],[0,0],[-2.51619,4.68647]],[[458.07109,271.20873],[-0.82414,-5.55431],[1.19129,8.02865]],[[477.82886,289.50257],[-7.87755,-1.00359],[17.84882,2.46512]],[[498.05541,255.64538],[11.32339,14.75074],[-6.32818,-8.36895]],[[471.84818,249.73122],[9.38889,-3.5412],[-3.26121,1.23003]],[[462.07578,255.26964],[2.29549,-2.85706],[0.15045,0.65872]]],&quot;closed&quot;:true}]}" fill="#c0b39a"/><path d="M246.04196,150.39297c-1.02128,0.6241 -3.5942,2.38346 -2.55022,3.31286c0.36564,0.32552 2.44178,0.58023 2.80855,0.65297c0.85039,0.16864 1.75882,1.03536 2.52395,0.62771c0.47875,-0.25507 -0.29115,-1.04558 -0.46174,-1.56053c-0.39943,-1.2057 -0.38393,-2.39777 -1.68091,-2.83992l-0.22836,-0.01573c0,0 -0.21575,-0.03424 -0.41127,-0.17736zM246.66753,148.88403c0.03325,0.00227 0.05256,0.00534 0.05256,0.00534l0.58666,0.11366c1.78592,0.76487 4.58803,5.62961 2.45931,7.40116c-0.93279,0.77629 -6.87422,-0.74813 -7.57827,-1.60449c-2.0249,-2.46299 1.71682,-5.21517 3.42241,-6.12307c0,0 0.64622,-0.34142 1.05732,0.20741z" fill="#000000"/><path d="M246.45679,150.5137l0.23464,0.01648c1.29698,0.44215 1.32431,1.71118 1.72375,2.91688c0.17059,0.51495 0.92894,1.32346 0.45018,1.57853c-0.76513,0.40765 -1.71548,-0.44144 -2.56587,-0.61008c-0.36678,-0.07274 -2.49502,-0.36372 -2.86067,-0.68924c-1.04399,-0.9294 1.57466,-2.76548 2.59595,-3.3896c0.19552,0.14311 0.42202,0.17701 0.42202,0.17701z" data-paper-data="{&quot;noHover&quot;:false,&quot;origItem&quot;:[&quot;Path&quot;,{&quot;applyMatrix&quot;:true,&quot;segments&quot;:[[[489.89726,256.3898],[0.37992,0.19509],[-1.6054,1.3687]],[[486.37332,262.86168],[-2.07425,-1.3294],[0.72648,0.46561]],[[491.44297,263.2222],[-0.6586,-0.02525],[1.52698,0.05855]],[[496.0102,263.61742],[-1.2193,0.92109],[0.76294,-0.57634]],[[494.77513,261.02843],[0.43928,0.84928],[-1.02855,-1.98853]],[[491.06411,256.54916],[2.38001,0.41127],[0,0]],[490.66223,256.58488]],&quot;closed&quot;:true}]}" fill="#ffbaba"/><path d="M234.3835,148.37002c-0.10436,0.08058 -0.19271,0.11891 -0.19271,0.11891c-0.65404,0.28242 -1.31814,0.56267 -1.90953,0.95989c-2.94159,1.97581 -0.82696,2.69905 1.48746,2.82033c0.1518,0.00796 2.03798,0.14054 2.08654,0.07068c0.56552,-0.8136 -0.54191,-3.50331 -1.47178,-3.96981zM233.66514,146.88098c0.29166,-0.33116 0.77644,-0.2542 0.77644,-0.2542l0.18485,0.03362c1.94502,0.62123 4.12489,4.83569 2.45847,6.85621c-1.46825,1.78023 -7.77091,0.48241 -8.03123,-1.8287c-0.29514,-2.6202 2.53365,-3.92141 4.4598,-4.76044c0,0 0.05904,-0.02561 0.15168,-0.0465z" fill="#000000"/><path d="M235.89705,152.37822c-0.04856,0.06986 -1.97204,-0.04457 -2.12384,-0.05252c-2.31442,-0.12128 -4.48167,-0.93108 -1.54008,-2.90689c0.59138,-0.39722 1.32113,-0.70144 1.97516,-0.98385c0,0 0.09215,-0.03693 0.19651,-0.11751c0.92987,0.46649 2.05777,3.24719 1.49225,4.06077z" data-paper-data="{&quot;noHover&quot;:false,&quot;origItem&quot;:[&quot;Path&quot;,{&quot;applyMatrix&quot;:true,&quot;segments&quot;:[[[469.04287,256.09013],[1.74766,0.5551],[-0.1594,0.16912]],[[468.74027,256.35038],[0,0],[-1.06051,0.67239]],[[465.6814,258.5491],[0.91972,-0.85493],[-4.57475,4.25247]],[[469.05023,263.04772],[-4.06251,0.42849],[0.26646,-0.0281]],[[472.70207,262.59413],[-0.06523,0.13503],[0.75962,-1.57261]]],&quot;closed&quot;:true}]}" fill="#ffbaba"/><path d="M232.51434,150.35002c0.07369,-0.46419 0.50973,-0.78074 0.9739,-0.70705c0.46419,0.07369 0.78074,0.50973 0.70705,0.9739c-0.07369,0.46419 -0.50973,0.78074 -0.9739,0.70705c-0.46419,-0.07369 -0.78074,-0.50973 -0.70705,-0.9739z" fill="#000000"/><path d="M245.22353,152.42182c0.10176,-0.64101 0.7039,-1.07817 1.34492,-0.97641c0.64101,0.10176 1.07817,0.7039 0.97641,1.34492c-0.10176,0.64101 -0.7039,1.07817 -1.34492,0.97641c-0.64101,-0.10176 -1.07817,-0.7039 -0.97641,-1.34492z" fill="#000000"/><path d="M255.42876,153.36811c0.28026,0.69567 -0.4154,0.97593 -0.4154,0.97593l-0.56817,0.22799c-0.72853,0.33418 -1.47012,0.64163 -2.223,0.91659c0,0 -0.70462,0.25693 -0.96155,-0.44769c-0.25693,-0.70462 0.44769,-0.96155 0.44769,-0.96155c0.71516,-0.26033 1.41934,-0.55244 2.11079,-0.87046l0.63372,-0.25623c0,0 0.69567,-0.28026 0.97593,0.4154z" fill="#8c5900"/><path d="M225.99328,158.64632c-0.68155,0.31303 -0.99458,-0.36851 -0.99458,-0.36851l-0.20966,-0.75828c0.55842,-3.4744 0.00671,-6.31259 1.47273,-9.77185c0,0 0.02727,-0.06408 0.08472,-0.14487c0.0305,-0.10096 0.08943,-0.20701 0.18883,-0.31468c0.50873,-0.55109 1.05981,-0.04237 1.05981,-0.04237c0.34381,0.31737 0.68761,0.63475 1.03142,0.95212c0.20779,0.07477 0.57297,0.28437 0.48779,0.82092c-0.11759,0.74072 -0.85832,0.62313 -0.85832,0.62313l-0.50087,-0.20705c-0.133,-0.12278 -0.26601,-0.24556 -0.39901,-0.36834c-1.07418,3.03352 -0.59019,5.53229 -1.08565,8.68817l0.09132,-0.10299c0,0 0.31304,0.68155 -0.36851,0.99458z" fill="#8c5900"/><path d="M235.7556,158.1887c0,0 -0.00181,-0.01964 -0.0014,-0.05267c-0.99525,-0.08969 -1.98904,-0.19327 -2.97777,-0.33309l0.24763,0.39509l-0.30925,0.17513l-0.00276,0.07922c0.27101,0.39906 0.5304,0.76519 0.71241,0.88597c0.42782,0.2839 1.56016,0.2161 2.05457,0.31895c0.09796,0.02037 0.19578,0.04034 0.29346,0.05989c0.02675,-0.4965 0.03204,-0.99861 -0.01688,-1.52848zM237.11898,161.97966l-0.0559,0.36984c0,0 -0.00258,0.01544 -0.00937,0.04136c0.34816,0.14328 0.70349,0.26221 1.06267,0.35526c0.07079,-0.37036 0.15019,-0.73821 0.22922,-1.10566c-0.40188,-0.04488 -0.80316,-0.09487 -1.20369,-0.15074c-0.00953,0.16148 -0.01748,0.3246 -0.02291,0.48994zM238.79912,158.65868c0,0 0.00424,-0.12159 0.06204,-0.26266c-0.53124,-0.0454 -1.06312,-0.08813 -1.5951,-0.13159c0.04121,0.59266 0.02185,1.15725 -0.01504,1.71995c0.4628,0.0748 0.92384,0.14121 1.38443,0.20015c0.08466,-0.50242 0.14672,-1.00929 0.16368,-1.52586zM240.2983,158.70585c-0.0204,0.55726 -0.08899,1.10297 -0.18071,1.64374c0.67255,0.06417 1.34702,0.1146 2.02732,0.15417c0.07881,-0.52061 0.13854,-1.04749 0.15795,-1.60508c0,0 0.00189,-0.05411 0.0203,-0.13201c-0.67896,-0.0946 -1.36099,-0.17236 -2.0449,-0.24061c0.02269,0.10349 0.02003,0.1798 0.02003,0.1798zM241.71274,162.63038l0.0706,-0.04982c0.03765,-0.22292 0.07676,-0.44153 0.11591,-0.65751c-0.6883,-0.03651 -1.37642,-0.08139 -2.06347,-0.13836c-0.0834,0.39642 -0.16726,0.79337 -0.24151,1.19352c0.69817,0.03808 1.39371,-0.02705 2.06291,-0.20627c0.02537,-0.08632 0.05557,-0.14156 0.05557,-0.14156zM234.89599,161.10811c0.23715,0.19185 0.48336,0.37062 0.73697,0.53556c0.00709,-0.13133 0.01548,-0.26119 0.02467,-0.38996c-0.25429,-0.04568 -0.50818,-0.09415 -0.76163,-0.1456zM243.80205,158.94583c-0.01959,0.56253 -0.07868,1.09866 -0.1567,1.62834c0.18361,0.00672 0.36784,0.01281 0.55276,0.01836l0.19155,0.02334c0,0 0.19774,0.02984 0.37267,0.15581c0.21888,-0.26072 0.42528,-0.54612 0.61728,-0.85706c0.14009,-0.80564 -0.67562,-0.92194 -1.57763,-0.98969c0.00034,0.01345 0.00008,0.02092 0.00008,0.02092zM231.79111,156.93414c0.11759,-0.70409 0.85832,-0.59232 0.85832,-0.59232c3.43405,0.5182 6.93279,0.56495 10.34977,1.08058c0.71744,0.10826 3.03843,0.28939 3.53309,0.74862c0.69081,0.64135 0.38048,1.49754 0.26303,2.2148c-3.53648,6.05192 -11.64871,4.74808 -15.08656,-0.6921c-0.16057,-0.27495 -0.32114,-0.5499 -0.48171,-0.82484l0.06874,-0.19851l-0.09204,-0.0029l0.02628,-0.7547c0.00065,-0.03285 0.00368,-0.06605 0.00926,-0.09943c0.04844,-0.29001 0.27448,-0.51124 0.55598,-0.57936c-0.01965,-0.08552 -0.02335,-0.18477 -0.00414,-0.29982z" fill="#000000"/><path d="M235.70515,161.23893c-0.00918,0.12877 -0.02538,0.30227 -0.03247,0.4336c-0.25362,-0.16494 -0.57927,-0.40144 -0.81642,-0.59329c0.25345,0.05144 0.59459,0.114 0.84889,0.15968z" data-paper-data="{&quot;noHover&quot;:false,&quot;origItem&quot;:[&quot;Path&quot;,{&quot;applyMatrix&quot;:true,&quot;segments&quot;:[[[235.84889,162.57897],[0.2588,0.01371],[0.26586,0.16215]],[[236.66508,163.01986],[-0.27769,-0.13161],[-0.01466,-0.13756]],[[236.62512,162.61082],[0.01217,0.13523],[-0.25868,-0.0076]]],&quot;closed&quot;:true}]}" fill="#ce9700"/><path d="M237.11092,161.4524c0.40053,0.05586 0.8736,0.11572 1.27548,0.1606c-0.07902,0.36745 -0.1709,0.80191 -0.2417,1.17227c-0.35916,-0.09304 -0.78757,-0.22989 -1.13572,-0.37317c0.00679,-0.02593 0.00823,-0.04369 0.00823,-0.04369l0.05325,-0.40023c0.00543,-0.16534 0.03092,-0.3543 0.04047,-0.51578z" data-paper-data="{&quot;noHover&quot;:false,&quot;origItem&quot;:[&quot;Path&quot;,{&quot;applyMatrix&quot;:true,&quot;segments&quot;:[[[238.18814,163.13598],[-0.02191,-0.17264],[0,0]],[238.19393,163.529],[[238.1915,163.57345],[0.00243,-0.02801],[0.36749,0.09428]],[[239.29962,163.77594],[-0.37007,-0.04036],[0.00882,-0.39591]],[[239.34362,162.59122],[-0.01743,0.39417],[-0.40431,0.01638]],[[238.12995,162.62333],[0.40479,-0.00476],[0.01722,0.16927]]],&quot;closed&quot;:true}]}" fill="#ce9700"/><path d="M241.70405,162.78848c-0.6692,0.17922 -1.45665,0.24844 -2.15483,0.21035c0.07425,-0.40015 0.16353,-0.8467 0.24693,-1.24312c0.68705,0.05698 1.45985,0.1102 2.14815,0.14672c-0.03915,0.21598 -0.07374,0.46143 -0.11138,0.68434l-0.07111,0.05274c0,0 -0.03238,0.06265 -0.05777,0.14896z" data-paper-data="{&quot;noHover&quot;:false,&quot;origItem&quot;:[&quot;Path&quot;,{&quot;applyMatrix&quot;:true,&quot;segments&quot;:[[242.83242,163.09183],[[242.89393,163.029],[0,0],[0.00041,-0.23752]],[[242.89995,162.32768],[-0.00304,0.23054],[-0.68581,0.06998]],[[240.83918,162.50745],[0.68795,-0.04852],[-0.01698,0.42496]],[[240.79752,163.78539],[0.00733,-0.4274],[0.69582,-0.0699]],[[242.80089,163.24762],[-0.63136,0.29113],[0.01082,-0.09366]]],&quot;closed&quot;:true}]}" fill="#ce9700"/><path d="M243.77281,158.8863c0.902,0.06774 1.79681,0.22526 1.65672,1.03089c-0.192,0.31094 -0.43574,0.63972 -0.65462,0.90045c-0.17493,-0.12597 -0.39317,-0.15487 -0.39317,-0.15487l-0.20288,-0.0264c-0.18491,-0.00553 -0.38795,-0.02468 -0.57155,-0.03139c0.07802,-0.52968 0.14558,-1.13493 0.16517,-1.69746c0,0 0.00069,-0.00777 0.00035,-0.02122z" data-paper-data="{&quot;noHover&quot;:false,&quot;origItem&quot;:[&quot;Path&quot;,{&quot;applyMatrix&quot;:true,&quot;segments&quot;:[[[244.28814,158.93598],[0,0],[0.07344,0.58754]],[[244.40196,160.6524],[-0.01031,-0.56257],[0.18245,-0.02181]],[[244.9509,160.5848],[-0.18354,0.02324],[0,0]],[245.14393,160.579],[[245.53769,160.68245],[-0.19354,-0.10345],[0.17317,-0.30521]],[[246.00596,159.69519],[-0.13834,0.35317],[0.00547,-0.85903]],[[244.28461,158.91425],[0.90202,-0.07105],[0.00255,0.01392]]],&quot;closed&quot;:true}]}" fill="#ce9700"/><path d="M240.24577,158.48993c0.68391,0.06825 1.43858,0.15381 2.11756,0.24841c-0.01842,0.0779 -0.01813,0.13501 -0.01813,0.13501c-0.01941,0.55759 -0.08716,1.14437 -0.16596,1.66498c-0.68031,-0.03957 -1.42872,-0.09562 -2.10128,-0.15981c0.09172,-0.54078 0.16436,-1.1488 0.18476,-1.70606c0,0 0.00576,-0.07905 -0.01694,-0.18253z" data-paper-data="{&quot;noHover&quot;:false,&quot;origItem&quot;:[&quot;Path&quot;,{&quot;applyMatrix&quot;:true,&quot;segments&quot;:[[[240.78814,159.23598],[0,0],[0.07177,0.5822]],[[240.88079,160.97217],[0.00139,-0.57625],[0.67482,-0.03877]],[[242.90847,160.81448],[-0.67842,0.06555],[-0.00804,-0.55327]],[[242.79972,159.12203],[0.0728,0.58238],[0,0]],[[242.798,158.9817],[-0.00534,0.08382],[-0.68617,0.00816]],[[240.73869,159.05231],[0.68671,-0.03632],[0.03948,0.10397]]],&quot;closed&quot;:true}]}" fill="#ce9700"/><path d="M238.66235,160.2246c-0.46059,-0.05893 -0.98053,-0.12888 -1.44332,-0.20369c0.03689,-0.5627 0.05898,-1.20236 0.01778,-1.79501c0.53198,0.04346 1.13011,0.09275 1.66134,0.13813c-0.05781,0.14106 -0.05707,0.26879 -0.05707,0.26879c-0.01695,0.51657 -0.09407,1.08935 -0.17873,1.59178z" data-paper-data="{&quot;noHover&quot;:false,&quot;origItem&quot;:[&quot;Path&quot;,{&quot;applyMatrix&quot;:true,&quot;segments&quot;:[[[239.29972,159.42203],[0.06847,0.53938],[0,0]],[[239.31768,159.1394],[-0.03383,0.15563],[-0.53216,0.03612]],[[237.72059,159.25278],[0.53257,-0.03825],[0.13846,0.60932]],[[237.98944,161.04218],[-0.05638,-0.59043],[0.46941,0.00516]],[[239.38976,161.03307],[-0.46461,0.01098],[0.00074,-0.5353]]],&quot;closed&quot;:true}]}" fill="#ce9700"/><path d="M235.81364,159.74418c-0.09768,-0.01955 -0.19773,-0.03668 -0.29569,-0.05705c-0.49441,-0.10286 -1.70584,-0.03659 -2.13367,-0.3205c-0.18202,-0.12079 -0.45034,-0.52414 -0.72135,-0.92319l0.0033,-0.0816l0.31225,-0.18341l-0.2439,-0.40152c0.98873,0.13982 2.07031,0.2507 3.06557,0.3404c-0.00041,0.03303 0.00201,0.0541 0.00201,0.0541c0.04892,0.52989 0.03821,1.07626 0.01146,1.57277z" data-paper-data="{&quot;noHover&quot;:false,&quot;origItem&quot;:[&quot;Path&quot;,{&quot;applyMatrix&quot;:true,&quot;segments&quot;:[[[236.21632,159.41091],[0.13572,0.54288],[0,0]],[[236.20625,159.3564],[0.00504,0.03439],[-0.99774,0.06285]],[[233.21037,159.4772],[0.99956,-0.00975],[0,0]],[233.5201,159.84887],[233.24356,160.07932],[[233.2539,160.16206],[0,0],[0.33348,0.37214]],[[234.10364,160.97089],[-0.19969,-0.09696],[0.46936,0.2279]],[[236.18541,160.98015],[-0.50526,-0.02935],[0.10011,0.00581]],[[236.48511,160.99637],[-0.0997,-0.005],[-0.05548,-0.52006]]],&quot;closed&quot;:true}]}" fill="#ce9700"/><path d="M240.14599,152.07146c-0.66552,-0.34579 -0.31973,-1.01132 -0.31973,-1.01132l0.09091,-0.14338c0.68776,-2.37571 1.46454,-4.93531 0.55056,-7.33932c0,0 -0.2654,-0.70147 0.43607,-0.96688c0.70147,-0.26541 0.96688,0.43607 0.96688,0.43607c1.03344,2.74335 0.27337,5.57208 -0.51266,8.28725l-0.2007,0.41784c0,0 -0.34579,0.66552 -1.01132,0.31973z" fill="#8c5900"/><path d="M244.62276,153.11015c-0.7494,0.02996 -0.77936,-0.71944 -0.77936,-0.71944l-0.01169,-0.65705c0.42732,-2.69171 0.21083,-4.6955 -0.86352,-7.22728c0,0 -0.29287,-0.69046 0.39759,-0.98332c0.69046,-0.29287 0.98331,0.39759 0.98331,0.39759c1.17967,2.78235 1.4348,5.08295 0.96406,8.04819l0.02904,0.36194c0,0 0.02996,0.74941 -0.71944,0.77937z" fill="#8c5900"/><path d="M247.8843,152.44873c-0.60993,-0.43644 -0.1735,-1.04637 -0.1735,-1.04637l0.01964,0.04603c0.27049,-0.92773 0.90023,-4.98853 0.30268,-5.27356c0,0 -0.58479,-0.46961 -0.11519,-1.05439c0.46961,-0.58478 1.05439,-0.11519 1.05439,-0.11519c1.32285,1.26246 0.71908,5.05209 0.19895,6.86025l-0.2406,0.40973c0,0 -0.43644,0.60993 -1.04637,0.1735z" fill="#8c5900"/><path d="M238.33817,150.52824c-0.71511,0.22608 -0.9412,-0.48903 -0.9412,-0.48903l-0.07945,-0.25559c-0.65307,-2.58505 -0.69881,-5.70821 1.42968,-7.64599c0,0 0.56454,-0.49376 1.05829,0.07078c0.49376,0.56454 -0.07077,1.05829 -0.07077,1.05829c-1.73336,1.42439 -1.44963,4.22286 -0.9629,6.14951l0.05536,0.17082c0,0 0.22608,0.71511 -0.48903,0.9412z" fill="#8c5900"/><path d="M232.7264,150.08814c-0.50872,0.55109 -1.05981,0.04237 -1.05981,0.04237l-0.49106,-0.64567c-0.37775,-1.85312 -1.11266,-3.09916 -0.56394,-5.00671c0,0 0.20855,-0.72042 0.92897,-0.51186c0.72042,0.20856 0.51186,0.92897 0.51186,0.92897c-0.4589,1.57392 0.26842,2.70214 0.5928,4.28963l0.03881,-0.15655c0,0 0.55108,0.50872 0.04237,1.05981z" fill="#8c5900"/><path d="M252.61613,144.8909c0.7494,-0.02996 0.77937,0.71943 0.77937,0.71943l-0.00862,0.74802c-0.35737,1.13533 -1.12765,1.98889 -1.87424,2.92135c0,0 -0.46961,0.58478 -1.05439,0.11519c-0.58478,-0.46961 -0.11519,-1.05438 -0.11519,-1.05438c0.58383,-0.72465 1.3817,-1.51404 1.60297,-2.39926l-0.04934,-0.27098c0,0 -0.02996,-0.7494 0.71943,-0.77936z" fill="#8c5900"/><path d="M254.39681,162.67548c-0.74072,-0.11759 -0.62313,-0.85832 -0.62313,-0.85832l0.06631,-0.2749c0.73845,-1.72651 1.08584,-3.82059 1.38392,-5.67125c0.11553,-0.7173 0.46819,-1.68111 -0.51936,-1.55647c0,0 -0.74959,-0.0248 -0.72478,-0.77439c0.0248,-0.74959 0.77439,-0.72478 0.77439,-0.72478c3.6733,0.36905 1.44056,7.01477 0.466,9.31437l0.03495,-0.07738c0,0 -0.11759,0.74072 -0.85832,0.62313z" fill="#8c5900"/><path d="M235.84061,171.61015c0,-0.41421 0.33579,-0.75 0.75,-0.75c0.41421,0 0.75,0.33579 0.75,0.75c0,0.41421 -0.33579,0.75 -0.75,0.75c-0.41421,0 -0.75,-0.33579 -0.75,-0.75z" fill="#c77878"/><path d="M242.61839,171.83237c0,-0.41421 0.33579,-0.75 0.75,-0.75c0.41421,0 0.75,0.33579 0.75,0.75c0,0.41421 -0.33579,0.75 -0.75,0.75c-0.41421,0 -0.75,-0.33579 -0.75,-0.75z" fill="#c77878"/><path d="M239.17394,174.83237c0,-0.41421 0.33579,-0.75 0.75,-0.75c0.41421,0 0.75,0.33579 0.75,0.75c0,0.41421 -0.33579,0.75 -0.75,0.75c-0.41421,0 -0.75,-0.33579 -0.75,-0.75z" fill="#534d43"/></g></g></svg>