<svg version="1.1" xmlns="http://www.w3.org/2000/svg" xmlns:xlink="http://www.w3.org/1999/xlink" width="33.80485" height="44.15391" viewBox="0,0,33.80485,44.15391"><g transform="translate(-219.72559,-144.41322)"><g data-paper-data="{&quot;isPaintingLayer&quot;:true}" fill-rule="nonzero" stroke="none" stroke-linecap="butt" stroke-linejoin="miter" stroke-miterlimit="10" stroke-dasharray="" stroke-dashoffset="0" style="mix-blend-mode: normal"><path d="M246.20428,182.81185c-2.04628,3.88482 -5.68138,-4.09298 -1.45019,-3.54506c0.40953,0.05303 1.28694,0.54552 1.65737,0.7379c0,0 0.66512,0.34657 0.31855,1.01169c-0.11091,0.21286 -0.25446,0.3221 -0.39838,0.37225c-0.04082,0.47488 0.09462,1.0018 -0.12735,1.42322z" data-paper-data="{&quot;index&quot;:null}" fill="#00529f" stroke-width="0.5"/><path d="M245.57636,173.40573c0,0 0.06675,0.00111 0.16009,0.02259l0.51887,-0.61725c0.21962,-0.27255 0.60786,-0.36177 0.93017,-0.19383c0.29061,0.15142 0.44057,0.46654 0.39576,0.77346l-0.09208,0.75362l-0.05469,-0.00668l0.02652,0.13806c-0.0329,0.06515 -0.06731,0.13671 -0.10288,0.21352c0.08626,-0.00687 0.18342,0.00151 0.29264,0.03076c0.72447,0.19403 0.53044,0.9185 0.53044,0.9185c-0.32565,1.21565 -1.01915,5.00016 -3.12619,3.48146c-0.25128,-0.18112 -0.35742,-0.50888 -0.36651,-0.91585c-0.63248,0.96393 -1.25492,1.93109 -1.74777,2.99575c-0.21438,0.46308 0.37701,1.07887 0.12994,1.52537c-0.58684,1.06053 -1.8693,0.50153 -2.69548,0.8548c-2.36368,1.01069 -3.36118,0.13148 -2.37882,-2.41309c0.91614,-2.35483 2.05714,-4.71153 3.68917,-6.65788l-0.007,-0.02521c0,0 0.31699,-0.60835 0.92645,-0.35828l0.44905,-0.03555c0.90092,-0.28368 1.56852,-0.49032 2.52234,-0.48429z" data-paper-data="{&quot;index&quot;:null}" fill="#0060b9" stroke-width="0.5"/><path d="M236.96753,161.38271c1.14133,-0.84458 2.72423,-0.93163 4.09444,-1.15984c2.59417,-0.43207 6.6125,-2.38072 9.27627,-1.30126c-0.59436,3.66001 -0.38153,7.80699 -0.39646,11.5319c-0.53336,1.33954 -0.96242,2.72642 -1.20128,3.77509c-0.11004,-0.01644 -0.22038,-0.03136 -0.33098,-0.0447l-0.07968,-0.24541c-0.11871,-0.3582 -0.49739,-0.57401 -0.875,-0.49347c-0.32439,0.06919 -0.562,0.3404 -0.59869,0.65353c-1.80525,0.01838 -3.63087,0.44494 -5.31132,1.30625c-0.33043,-1.34565 -0.52583,-2.74172 -0.71325,-4.117c-0.02555,-1.06359 -0.19065,-2.0919 -0.39902,-2.69518c-0.00076,-0.00222 -0.00152,-0.00449 -0.00229,-0.00671l0.00139,-0.00019l-0.20277,-1.48741c-0.00262,-0.02007 -0.00589,-0.04052 -0.01019,-0.06065c-0.08641,-0.40511 -0.39673,-0.61621 -0.80182,-0.52981c-0.37761,0.08054 -0.6251,0.42659 -0.58731,0.80205l0.07755,0.87766l0.02142,-0.00179l-0.01591,0.04783c0.19801,0.92974 0.34187,1.85952 0.47464,2.81278c-0.03623,1.7143 -0.27269,3.41006 -1.32255,2.91187c-2.23736,-1.06168 -1.92313,-7.27001 -1.78882,-9.24849c0.13312,-0.88506 0.26749,-1.77415 0.44092,-2.65228l0.10207,-0.58582z" data-paper-data="{&quot;noHover&quot;:false,&quot;origItem&quot;:[&quot;Path&quot;,{&quot;applyMatrix&quot;:true,&quot;segments&quot;:[[[496.43499,290.36259],[0,0],[-2.5848,-1.17581]],[[487.97232,289.8161],[2.77535,-0.1253],[-5.83683,0.26353]],[[467.94253,292.40451],[4.22399,-5.00478],[0,0]],[[467.04065,292.93661],[0.54007,-0.10999],[-2.58686,4.73015]],[[462.74809,308.31721],[-0.00361,-5.42119],[0.00052,0.7823]],[[463.40716,313.95383],[-0.99603,-0.56354],[2.47697,1.40145]],[[467.85663,312.01728],[-0.68556,1.91418],[0.16213,-2.29009]],[[469.04847,305.38632],[-0.68063,2.10294],[0.05884,-0.29223]],[[469.23279,304.51134],[-0.06392,0.29109],[0,0]],[468.89492,304.43626],[[469.33295,302.4651],[0,0],[0.13765,-0.68639]],[[470.80364,301.26165],[-0.7269,0],[0.82843,0]],[[472.30364,302.76165],[0,-0.82843],[0,0]],[472.30364,304.31721],[472.22701,304.31721],[[472.29469,304.48088],[0,0],[-0.15574,0.71307]],[[471.85883,306.6273],[0.13113,-0.71819],[0.05089,1.4485]],[[471.17926,311.18297],[0.18462,-1.38496],[-0.70876,5.31694]],[[470.96654,327.54421],[-0.3625,-5.35496],[0.04402,0.65029]],[[471.04523,332.88685],[-0.26208,-0.2819],[0.49196,0.52915]],[[473.2066,333.05036],[-0.71548,-0.10061],[1.3984,0.14085]],[[478.67406,333.37583],[-1.38221,0.40107],[1.57041,-0.45568]],[[479.30654,321.33511],[-0.00212,1.5314],[0,0]],[479.35432,321.24715],[479.31523,321.24227],[[479.53498,319.48423],[0,0],[0.08274,-0.75016]],[[481.02587,318.15054],[-0.77221,0],[0.7786,0]],[[482.51869,319.50288],[-0.07417,-0.75912],[0,0]],[482.73891,321.48489],[482.30218,321.53342],[[482.3008,321.54447],[0,0],[0.00001,0.00215]],[[482.30082,321.55093],[-0.00001,-0.00215],[0.68633,2.74861]],[[482.74519,330.18819],[0.16737,-3.1557],[-0.013,0.24515]],[[482.50156,330.95975],[0.12905,-0.26423],[-0.0751,0.68836]],[[482.14107,332.91845],[0.1698,-0.61036],[0.72575,0.49101]],[[486.3685,333.26168],[-0.39266,-0.00064],[0.77885,0.00126]],[[492.12257,333.34191],[-0.47462,0.33694],[1.35326,-0.96069]],[[493.08432,322.66845],[-0.00313,1.78255],[0.46966,-3.75727]],[[492.96593,311.26793],[0.28561,3.81615],[-0.39377,-2.09104]],[[492.63336,305.8747],[-0.15588,1.26694],[0.00057,-0.00467]],[[492.63509,305.8607],[-0.00058,0.00467],[0,0]],[492.63231,305.8609],[[492.41967,302.88397],[0,0],[-0.00326,-0.04034]],[[492.41476,302.76165],[0,0.04118],[0,-0.82843]],[[493.91476,301.26165],[-0.82843,0],[0.77221,0]],[[495.40564,302.59534],[-0.08274,-0.75016],[0,0]],[495.62539,304.35338],[495.58269,304.35872],[[495.63408,304.44622],[0,0],[0.00057,1.90117]],[[495.88986,310.1828],[-0.13802,-1.91996],[0.78614,3.33805]],[[499.49447,315.31377],[-1.84568,1.41247],[3.93334,-3.01012]],[[499.15688,296.56475],[1.08818,3.81386],[-0.62963,-1.67564]],[[497.2027,291.57475],[0.70559,1.64528],[0,0]],[496.76188,290.47383]],&quot;closed&quot;:true}],&quot;index&quot;:null}" fill="#0060b9" stroke-width="0.5"/><path d="" data-paper-data="{&quot;noHover&quot;:false,&quot;origItem&quot;:[&quot;Path&quot;,{&quot;applyMatrix&quot;:true,&quot;segments&quot;:[[[496.43499,290.36259],[0,0],[-2.5848,-1.17581]],[[487.97232,289.8161],[2.77535,-0.1253],[-5.83683,0.26353]],[[467.94253,292.40451],[4.22399,-5.00478],[0,0]],[[467.04065,292.93661],[0.54007,-0.10999],[-2.58686,4.73015]],[[462.74809,308.31721],[-0.00361,-5.42119],[0.00052,0.7823]],[[463.40716,313.95383],[-0.99603,-0.56354],[2.47697,1.40145]],[[467.85663,312.01728],[-0.68556,1.91418],[0.16213,-2.29009]],[[469.04847,305.38632],[-0.68063,2.10294],[0.05884,-0.29223]],[[469.23279,304.51134],[-0.06392,0.29109],[0,0]],[468.89492,304.43626],[[469.33295,302.4651],[0,0],[0.13765,-0.68639]],[[470.80364,301.26165],[-0.7269,0],[0.82843,0]],[[472.30364,302.76165],[0,-0.82843],[0,0]],[472.30364,304.31721],[472.22701,304.31721],[[472.29469,304.48088],[0,0],[-0.15574,0.71307]],[[471.85883,306.6273],[0.13113,-0.71819],[0.05089,1.4485]],[[471.17926,311.18297],[0.18462,-1.38496],[-0.70876,5.31694]],[[470.96654,327.54421],[-0.3625,-5.35496],[0.04402,0.65029]],[[471.04523,332.88685],[-0.26208,-0.2819],[0.49196,0.52915]],[[473.2066,333.05036],[-0.71548,-0.10061],[1.3984,0.14085]],[[478.67406,333.37583],[-1.38221,0.40107],[1.57041,-0.45568]],[[479.30654,321.33511],[-0.00212,1.5314],[0,0]],[479.35432,321.24715],[479.31523,321.24227],[[479.53498,319.48423],[0,0],[0.08274,-0.75016]],[[481.02587,318.15054],[-0.77221,0],[0.7786,0]],[[482.51869,319.50288],[-0.07417,-0.75912],[0,0]],[482.73891,321.48489],[482.30218,321.53342],[[482.3008,321.54447],[0,0],[0.00001,0.00215]],[[482.30082,321.55093],[-0.00001,-0.00215],[0.68633,2.74861]],[[482.74519,330.18819],[0.16737,-3.1557],[-0.013,0.24515]],[[482.50156,330.95975],[0.12905,-0.26423],[-0.0751,0.68836]],[[482.14107,332.91845],[0.1698,-0.61036],[0.72575,0.49101]],[[486.3685,333.26168],[-0.39266,-0.00064],[0.77885,0.00126]],[[492.12257,333.34191],[-0.47462,0.33694],[1.35326,-0.96069]],[[493.08432,322.66845],[-0.00313,1.78255],[0.46966,-3.75727]],[[492.96593,311.26793],[0.28561,3.81615],[-0.39377,-2.09104]],[[492.63336,305.8747],[-0.15588,1.26694],[0.00057,-0.00467]],[[492.63509,305.8607],[-0.00058,0.00467],[0,0]],[492.63231,305.8609],[[492.41967,302.88397],[0,0],[-0.00326,-0.04034]],[[492.41476,302.76165],[0,0.04118],[0,-0.82843]],[[493.91476,301.26165],[-0.82843,0],[0.77221,0]],[[495.40564,302.59534],[-0.08274,-0.75016],[0,0]],[495.62539,304.35338],[495.58269,304.35872],[[495.63408,304.44622],[0,0],[0.00057,1.90117]],[[495.88986,310.1828],[-0.13802,-1.91996],[0.78614,3.33805]],[[499.49447,315.31377],[-1.84568,1.41247],[3.93334,-3.01012]],[[499.15688,296.56475],[1.08818,3.81386],[-0.62963,-1.67564]],[[497.2027,291.57475],[0.70559,1.64528],[0,0]],[496.76188,290.47383]],&quot;closed&quot;:true}]}" fill="#0060b9" stroke-width="0.5"/><path d="M240.88065,171.27803c0.18827,1.3815 0.37279,2.76679 0.69954,4.10872c-0.46013,0.23389 -0.90951,0.5003 -1.34473,0.79974c-0.09957,-0.36988 -0.18731,-0.74337 -0.2662,-1.1195c-0.52345,0.58075 -1.30908,0.77153 -2.44908,0.2495c-3.10972,-1.42402 -2.88246,-7.96308 -2.6917,-10.74482c0.13836,-0.92806 0.27329,-1.85123 0.45466,-2.77193l0.09812,-0.57171c0,0 0.02585,-0.15027 0.122,-0.30364c0.02461,-0.37611 0.38457,-0.58795 0.38457,-0.58795l0.25045,-0.14438c1.41047,-0.96429 3.02792,-1.1269 4.69035,-1.40273l0,-0.00001c3.03649,-0.5038 6.77096,-2.31227 9.79131,-1.29677c-0.11347,0.4824 -0.20917,0.97624 -0.28973,1.47918c-2.6567,-1.0899 -6.64731,0.86286 -9.2452,1.29554c-1.37021,0.2282 -2.9399,0.30534 -4.08123,1.14992l-0.14825,0.08849l-0.10072,0.58432c-0.17343,0.87814 -0.30201,1.75888 -0.43511,2.64394c-0.13432,1.97848 -0.44684,8.14179 1.79052,9.20348c1.04986,0.49819 1.19122,-1.1707 1.22746,-2.88501c-0.13277,-0.95325 -0.27525,-1.90214 -0.47327,-2.83187l0.016,-0.04815l-0.02144,0.00184l-0.07591,-0.8826c-0.03779,-0.37546 0.21232,-0.72714 0.58993,-0.80768c0.4051,-0.08642 0.80355,0.17195 0.88996,0.57704c0.0043,0.02015 0.00774,0.04026 0.01035,0.06033l0.20652,1.4779l-0.00139,0.00019c0.00077,0.00222 0.00154,0.00444 0.00231,0.00666c0.20837,0.60328 0.37435,1.60838 0.3999,2.67198z" data-paper-data="{&quot;index&quot;:null}" fill="#00488c" stroke-width="0.5"/><path d="M248.40564,174.18344c-0.51611,-0.06215 -1.03792,-0.09063 -1.56143,-0.08477c0.01448,-0.33322 0.25164,-0.6276 0.593,-0.70041c0.37762,-0.08055 0.74945,0.13847 0.86815,0.49667z" data-paper-data="{&quot;index&quot;:null}" fill="#00488c" stroke-width="0.5"/><path d="M228.91823,148.35027c0.36308,0.12299 0.72364,-0.08944 0.72364,-0.08944l0.16599,-0.1077c2.79042,-1.14917 5.2918,-1.93466 8.37891,-1.14843c4.46236,1.13648 9.11624,7.75979 9.22724,12.26377c0.35942,10.21607 -12.7019,16.7441 -20.37233,9.50063c-4.35746,-4.05533 -4.37585,-10.10844 -1.83448,-15.20264c0.88275,-1.76946 1.96585,-4.08582 3.71103,-5.21619z" data-paper-data="{&quot;noHover&quot;:false,&quot;origItem&quot;:[&quot;Path&quot;,{&quot;applyMatrix&quot;:true,&quot;segments&quot;:[[461.79205,256.51809],[[461.57425,256.7885],[0,0],[-2.51619,4.68647]],[[458.07109,271.20873],[-0.82414,-5.55431],[1.19129,8.02865]],[[477.82886,289.50257],[-7.87755,-1.00359],[17.84882,2.46512]],[[498.05541,255.64538],[11.32339,14.75074],[-6.32818,-8.36895]],[[471.84818,249.73122],[9.38889,-3.5412],[-3.26121,1.23003]],[[462.07578,255.26964],[2.29549,-2.85706],[0.15045,0.65872]]],&quot;closed&quot;:true}],&quot;index&quot;:null}" fill="#e6d0a9" stroke-width="0.5"/><path d="" data-paper-data="{&quot;noHover&quot;:false,&quot;origItem&quot;:[&quot;Path&quot;,{&quot;applyMatrix&quot;:true,&quot;segments&quot;:[[[244.95738,185.24194],[0,0],[-1.52141,0]],[[240.402,185.15912],[1.51689,0.04468],[-0.00854,0.19733]],[[240.3726,185.76076],[0.01082,-0.20392],[-0.0065,0.12257]],[[240.25078,186.14654],[0.06453,-0.13211],[-0.03755,0.34418]],[[240.07053,187.12589],[0.0849,-0.30518],[0.36288,0.24551]],[[242.18425,187.29751],[-0.19633,-0.00032],[0.38942,0.00063]],[[245.06129,187.33762],[-0.23731,0.16847],[0.3077,-0.21844]],[[245.54308,185.13718],[-0.04713,1.04294],[0,0]]],&quot;closed&quot;:true}]}" fill="#00529f" stroke-width="0.5"/><path d="" data-paper-data="{&quot;noHover&quot;:false,&quot;origItem&quot;:[&quot;Path&quot;,{&quot;applyMatrix&quot;:true,&quot;segments&quot;:[[[234.52262,187.11009],[-0.09627,-0.10354],[0.24598,0.26458]],[[235.6033,187.19185],[-0.35774,-0.0503],[0.6992,0.07043]],[[238.33703,187.35458],[-0.6911,0.20053],[0.33846,-0.09821]],[[238.791,185.11062],[-0.01027,1.1559],[-1.43496,-0.04289]],[[234.47923,185.02116],[1.44072,0.00784],[-0.01706,0.76785]]],&quot;closed&quot;:true}]}" fill="#00529f" stroke-width="0.5"/><path d="M223.978,172.41256l0.07769,-0.10861c0.56972,-0.79565 1.10681,-1.61571 1.60849,-2.45592c0,0 0.38477,-0.64377 1.02855,-0.25901c0.64377,0.38477 0.25901,1.02855 0.25901,1.02855c-0.52349,0.87508 -1.08312,1.72955 -1.67608,2.55913l-0.07769,0.10861c0,0 -0.43638,0.60998 -1.04635,0.17361c-0.60998,-0.43638 -0.17361,-1.04636 -0.17361,-1.04636z" data-paper-data="{&quot;index&quot;:null}" fill="#8c5900" stroke-width="0.5"/><path d="M219.73107,162.74589c0.07642,-0.7461 0.82252,-0.66968 0.82252,-0.66968l0.24313,0.05147c0.41661,-0.06902 0.83322,-0.13803 1.24983,-0.20705c0,0 0.73991,-0.12258 0.86249,0.61733c0.12259,0.7399 -0.61733,0.86249 -0.61733,0.86249c-0.41661,0.06902 -0.83321,0.13804 -1.24982,0.20706l-0.64113,-0.03911c0,0 -0.7461,-0.07642 -0.66968,-0.82252z" data-paper-data="{&quot;index&quot;:null}" fill="#8c5900" stroke-width="0.5"/><path d="M222.50861,152.55665l0.20649,0.2717c0.34202,0.29564 0.68405,0.5913 1.02607,0.88695c0,0 0.56742,0.49048 0.07694,1.05787c-0.49047,0.56741 -1.05787,0.07693 -1.05787,0.07693c-0.34203,-0.29565 -0.68405,-0.59131 -1.02608,-0.88695l-0.38877,-0.45944c0,0 -0.47353,-0.58161 0.10808,-1.05514c0.58162,-0.47353 1.05515,0.10808 1.05515,0.10808z" data-paper-data="{&quot;index&quot;:null}" fill="#8c5900" stroke-width="0.5"/><path d="M227.14484,144.89548c0.66318,-0.35027 1.01345,0.31291 1.01345,0.31291l0.15977,0.30678c0.22394,0.35802 0.44788,0.71604 0.67183,1.07405c0,0 0.39773,0.63585 -0.23812,1.03359c-0.63585,0.39773 -1.03359,-0.23812 -1.03359,-0.23812c-0.22394,-0.35801 -0.44788,-0.71604 -0.67183,-1.07405l-0.21443,-0.4017c0,0 -0.35027,-0.66317 0.31291,-1.01345z" data-paper-data="{&quot;index&quot;:null}" fill="#8c5900" stroke-width="0.5"/><path d="M229.66851,148.31088c0,0 -0.35792,0.21095 -0.721,0.08795c-1.74518,1.13035 -2.80799,3.42573 -3.69074,5.19518c-2.54137,5.0942 -2.53468,11.07748 1.82277,15.13281c7.67045,7.24348 20.63714,0.75788 20.27773,-9.4582c-0.111,-4.50397 -4.72015,-11.07205 -9.18251,-12.20853c-3.08712,-0.78623 -5.55063,-0.00568 -8.34105,1.14348l-0.1652,0.1073zM229.34205,146.3237c0,0 0.31099,-0.11254 0.61537,-0.00343c2.8194,-1.09652 5.50665,-1.72767 8.63766,-0.90946c5.23641,1.36841 10.24932,8.50382 10.46324,13.80088c0.37433,11.73644 -14.33993,18.96878 -23.14331,10.7564c-4.8808,-4.6117 -5.07192,-11.34145 -2.18121,-17.13396c1.28535,-2.57564 2.78218,-5.43887 5.60824,-6.51041z" data-paper-data="{&quot;index&quot;:null}" fill="#8d7f67" stroke-width="0.5"/><path d="M242.29705,155.65853c0.04469,-0.71332 0.04842,-1.4077 -0.00808,-2.07084c-0.0287,-0.3368 -0.67705,-0.00112 -1.01348,-0.0337c-0.04703,-0.00456 -0.09404,-0.00913 -0.14107,-0.01373c-0.06231,0.61638 -0.11939,1.23356 -0.17272,1.85125c0.31642,0.06994 0.63403,0.14803 0.95494,0.23586zM241.46722,157.26896c-0.21652,-0.05928 -0.4312,-0.11368 -0.64486,-0.16381c-0.04622,0.60018 -0.09019,1.20063 -0.13323,1.80114c0.17468,0.0236 0.35123,0.04442 0.53,0.06273l0.63394,0.17144c0.10196,-0.60005 0.19708,-1.20043 0.27517,-1.79465l-0.66102,-0.07683zM240.90662,160.6421c-0.11356,-0.01163 -0.22615,-0.02436 -0.33788,-0.03823c-0.06701,0.94626 -0.13489,1.89213 -0.2089,2.83666c0.16113,0.0165 0.31771,0.03254 0.46835,0.04797c0,0 0.13162,0.0135 0.28575,0.08172c0.11387,-0.88263 0.27486,-1.8071 0.44255,-2.74764l-0.64987,-0.18048zM236.33668,164.73277c-0.09861,0.53723 -0.15315,1.03386 -0.12063,1.43733c0.02992,0.37104 0.74957,-0.11031 1.11585,-0.04398c0.36869,0.06677 0.71919,0.16049 1.05904,0.27425c0.04784,-0.47836 0.09258,-0.95732 0.13493,-1.43678c-0.70133,-0.07184 -1.40266,-0.14368 -2.10401,-0.21552c0,0 -0.03295,-0.00337 -0.08519,-0.0153zM240.23148,165.13829c-0.00413,-0.00042 -0.00829,-0.00085 -0.01242,-0.00127c-0.04995,0.56553 -0.10325,1.13042 -0.16102,1.69442l-0.10763,0.22999c0.21217,0.10423 0.42488,0.21235 0.64025,0.3224c-0.17452,-0.67117 0.06175,-1.45386 0.25571,-2.20703c-0.11242,0.01295 -0.19161,0.00484 -0.19161,0.00484l-0.42329,-0.04336zM238.17019,153.23594c-0.05966,0.56329 -0.12176,1.12746 -0.18626,1.69199c0.43991,0.04631 0.87021,0.09833 1.29593,0.15983c0.05004,-0.57378 0.10343,-1.1471 0.1613,-1.71972c-0.42367,-0.04411 -0.84729,-0.0885 -1.27098,-0.13209zM239.00752,158.57194c0.04284,-0.59507 0.0867,-1.19007 0.13286,-1.78475c-0.44472,-0.06605 -0.89444,-0.12053 -1.35657,-0.16891c-0.06027,0.49175 -0.12231,0.9834 -0.1861,1.47461c0.46975,0.19365 0.93696,0.35123 1.40982,0.47903zM238.6667,163.26709c0.07756,-0.98986 0.14839,-1.98123 0.21853,-2.97299c-0.51029,-0.1264 -1.01308,-0.28182 -1.52004,-0.46883c-0.04861,0.3508 -0.0981,0.70116 -0.14847,1.05096c-0.08738,0.60701 -0.29464,1.38756 -0.49883,2.19125c0.59357,0.06081 1.27029,0.13012 1.9488,0.19962zM237.86042,151.56179c0.18597,-0.0495 0.34329,-0.03336 0.34329,-0.03336c1.23005,0.126 4.87561,-0.11821 5.56021,1.20996c0.18791,0.36456 -0.1632,3.05047 -0.19223,3.44948c-0.30567,4.2003 -0.76984,8.22072 -1.7089,12.32667c-1.00422,0.30409 -6.29046,-0.12274 -7.05073,-1.38235c-0.39559,-0.65542 0.15998,-2.44822 0.26204,-3.13509c0.57289,-3.85535 1.07984,-7.76858 1.4764,-11.63997l0.01446,-0.1411c0,0 0.08671,-0.84658 0.93329,-0.75986c0.14714,0.01508 0.26609,0.0531 0.36219,0.10564z" data-paper-data="{&quot;index&quot;:null}" fill="#000000" stroke-width="0.5"/><path d="M236.38079,164.70896c0.70134,0.07184 1.49333,0.15515 2.19467,0.22698c-0.04235,0.47946 -0.09105,1.01983 -0.13889,1.49819c-0.33985,-0.11376 -0.73713,-0.18453 -1.10582,-0.25129c-0.36628,-0.06632 -1.1358,0.38306 -1.16571,0.01202c-0.03253,-0.40347 0.03059,-0.96248 0.1292,-1.49971c0.05224,0.01192 0.08655,0.01381 0.08655,0.01381z" data-paper-data="{&quot;noHover&quot;:false,&quot;origItem&quot;:[&quot;Path&quot;,{&quot;applyMatrix&quot;:true,&quot;segments&quot;:[[[244.5817,157.32764],[0,0],[0,0.70501]],[[244.5817,159.44267],[0,-0.70501],[0.48128,0.00673]],[[246.02475,159.45484],[-0.48074,-0.00115],[-0.07853,-0.34968]],[[245.85985,158.37336],[0.02885,0.37358],[-0.02866,-0.37113]],[[246.01731,157.26781],[0.36606,0.06756],[-0.39806,-0.07347]],[[244.57517,157.24133],[0.54448,-0.04336],[0.00654,0.05318]]],&quot;closed&quot;:true}],&quot;index&quot;:null}" fill="#ffb900" stroke-width="0.5"/><path d="M240.22367,165.0821l0.44501,0.04455c0,0 0.08773,0.01101 0.20015,-0.00194c-0.19397,0.75316 -0.44261,1.64377 -0.2681,2.31495c-0.21536,-0.11006 -0.46485,-0.22395 -0.67702,-0.32818l0.10664,-0.23053c0.05777,-0.564 0.13035,-1.23449 0.1803,-1.80003c0.00414,0.00042 0.0089,0.00076 0.01303,0.00118z" data-paper-data="{&quot;noHover&quot;:false,&quot;origItem&quot;:[&quot;Path&quot;,{&quot;applyMatrix&quot;:true,&quot;segments&quot;:[[[244.5817,161.15716],[0,-0.00416],[0,0]],[244.5817,161.58266],[[244.55735,161.77278],[0.02434,-0.11051],[0.76902,-0.1162]],[[246.77895,161.7433],[-0.64991,-0.242],[-0.08753,-0.22546]],[[246.52348,161.07353],[0.08207,0.22168],[0,0]],[[246.28371,161.15716],[0,0],[-0.56696,0]],[[244.5817,161.14468],[0.56768,0.00794],[0,0.00416]]],&quot;closed&quot;:true}],&quot;index&quot;:null}" fill="#ffb900" stroke-width="0.5"/><path d="M240.5557,160.54865c0.11174,0.01385 0.2368,0.02507 0.35036,0.0367l0.67578,0.18645c-0.1677,0.94054 -0.34668,1.97203 -0.46054,2.85466c-0.15413,-0.06824 -0.29687,-0.08136 -0.29687,-0.08136c-0.15063,-0.01542 -0.32528,-0.03571 -0.48641,-0.05222c0.074,-0.94453 0.15068,-1.99796 0.21768,-2.94423z" data-paper-data="{&quot;noHover&quot;:false,&quot;origItem&quot;:[&quot;Path&quot;,{&quot;applyMatrix&quot;:true,&quot;segments&quot;:[[[240.04012,161.37064],[0,-0.11415],[0,0]],[[240.15343,162.03551],[0,0],[0.95273,-0.07099]],[[242.93186,161.87525],[-0.88964,0.02333],[-0.05217,-0.16028]],[[242.87969,161.58266],[0,0],[0,-0.15142]],[[242.87969,161.11187],[0,0.16197],[-0.94716,-0.02263]],[[240.03651,161.03062],[0.94817,0.02977],[0.00241,0.11257]]],&quot;closed&quot;:true}],&quot;index&quot;:null}" fill="#ffb900" stroke-width="0.5"/><path d="M238.92145,160.25046c-0.07015,0.99176 -0.1533,2.07825 -0.23086,3.06812c-0.67851,-0.0695 -1.41296,-0.14473 -2.00653,-0.20554c0.20419,-0.80369 0.4055,-1.67023 0.49289,-2.27723c0.05036,-0.34982 0.12383,-0.71421 0.17244,-1.065c0.50696,0.18701 1.06179,0.35325 1.57207,0.47965z" data-paper-data="{&quot;noHover&quot;:false,&quot;origItem&quot;:[&quot;Path&quot;,{&quot;applyMatrix&quot;:true,&quot;segments&quot;:[[[242.87969,159.40986],[-0.99263,-0.02371],[0,-0.68206]],[[242.87969,157.45086],[0,0.59668],[-0.82031,0.12123]],[[240.64903,157.72381],[0.61275,-0.02508],[-0.35312,0.01445]],[[239.58841,157.76441],[0.35392,-0.01262],[0.13437,0.52338]],[[239.89991,159.32431],[-0.07374,-0.52051],[0.99375,0.03128]]],&quot;closed&quot;:true}],&quot;index&quot;:null}" fill="#ffb900" stroke-width="0.5"/><path d="M239.17934,156.74594c-0.04616,0.5947 -0.09832,1.27864 -0.14114,1.8737c-0.47284,-0.1278 -1.01853,-0.30253 -1.48829,-0.49618c0.0638,-0.49121 0.14409,-1.06189 0.20436,-1.55364c0.46213,0.04838 0.98036,0.11009 1.42508,0.17612z" data-paper-data="{&quot;noHover&quot;:false,&quot;origItem&quot;:[&quot;Path&quot;,{&quot;applyMatrix&quot;:true,&quot;segments&quot;:[[[238.17423,159.27048],[-0.59633,-0.01803],[-0.07895,-0.48342]],[[237.84135,157.81918],[0.14478,0.48704],[-0.49516,0.01341]],[[236.35544,157.85406],[0.49534,-0.00984],[0.00104,0.46465]],[[236.38524,159.22077],[-0.02038,-0.44913],[0.5963,0.01467]]],&quot;closed&quot;:true}],&quot;index&quot;:null}" fill="#ffb900" stroke-width="0.5"/><path d="M241.47277,157.21252l0.69463,0.09223c-0.07811,0.59422 -0.18849,1.28713 -0.29045,1.88719l-0.66865,-0.16721c-0.17877,-0.01831 -0.38222,-0.05246 -0.5569,-0.07605c0.04304,-0.60051 0.09747,-1.29307 0.14368,-1.89325c0.21367,0.05012 0.46118,0.09781 0.67769,0.1571z" data-paper-data="{&quot;noHover&quot;:false,&quot;origItem&quot;:[&quot;Path&quot;,{&quot;applyMatrix&quot;:true,&quot;segments&quot;:[[[236.62742,161.58459],[-0.03692,-0.22143],[0,0]],[[236.63649,162.25],[0,0],[0.59909,-0.01714]],[[238.44986,162.15913],[-0.60732,0.04029],[0,0]],[[238.34391,161.51102],[0,0],[0,-0.17971]],[[238.33551,160.97739],[0.00567,0.17617],[-0.60177,-0.01837]],[[236.53017,160.92639],[0.60177,0.01518],[0.02809,0.21766]]],&quot;closed&quot;:true}],&quot;index&quot;:null}" fill="#ffb900" stroke-width="0.5"/><path d="M241.92614,155.68332c-0.32091,-0.08784 -0.68499,-0.17883 -1.00141,-0.24877c0.05334,-0.61769 0.1177,-1.32623 0.18001,-1.94261c0.04702,0.00461 0.09942,0.00626 0.14645,0.01082c0.33643,0.03258 1.03884,-0.30015 1.06754,0.03664c0.0565,0.66315 0.04817,1.45667 0.00347,2.17z" data-paper-data="{&quot;noHover&quot;:false,&quot;origItem&quot;:[&quot;Path&quot;,{&quot;applyMatrix&quot;:true,&quot;segments&quot;:[[[234.94857,161.8644],[0,0],[-0.05467,-0.32819]],[[234.81125,160.8904],[0.03733,0.3219],[-0.61991,-0.00989]],[[232.95203,160.87359],[0.61953,0.00082],[-0.00022,0.04725]],[[232.95132,161.01533],[0.00026,-0.04725],[-0.00187,0.33801]],[[232.88157,162.02697],[-0.33212,-0.06287],[0.65393,0.12378]],[[234.9408,162.24602],[-0.71417,-0.02822],[0,0]]],&quot;closed&quot;:true}],&quot;index&quot;:null}" fill="#ffb900" stroke-width="0.5"/><path d="M237.94467,154.9689c0.0645,-0.56453 0.13691,-1.21847 0.19658,-1.78175c0.42368,0.0436 0.91445,0.09486 1.33811,0.13896c-0.05787,0.57262 -0.12006,1.2364 -0.1701,1.81019c-0.42572,-0.0615 -0.92465,-0.12108 -1.36457,-0.1674z" data-paper-data="{&quot;noHover&quot;:false,&quot;origItem&quot;:[&quot;Path&quot;,{&quot;applyMatrix&quot;:true,&quot;segments&quot;:[[[232.95135,157.89376],[0.56643,-0.00195],[0.00019,0.42592]],[[232.95324,159.17158],[-0.00071,-0.42596],[0.57554,0.00077]],[[234.68045,159.18637],[-0.5759,-0.00869],[-0.01781,-0.42977]],[[234.6535,157.88089],[0.00125,0.44235],[-0.56817,0.00663]]],&quot;closed&quot;:true}],&quot;index&quot;:null}" fill="#ffb900" stroke-width="0.5"/><path d="M222.0683,150.211c0.33353,-0.67175 1.00529,-0.33822 1.00529,-0.33822l0.87012,0.43238c0.67934,0.39136 1.40585,0.70268 2.14368,0.96776c0,0 0.70528,0.25509 0.45019,0.96039c-0.25509,0.70529 -0.96038,0.45019 -0.96038,0.45019c-0.80411,-0.29262 -1.5968,-0.63147 -2.34019,-1.05524l-0.83048,-0.41196c0,0 -0.67175,-0.33353 -0.33822,-1.00529z" data-paper-data="{&quot;index&quot;:null}" fill="#8c5900" stroke-width="0.5"/><path d="M219.86129,158.30375c-0.04727,-0.7485 0.70124,-0.79577 0.70124,-0.79577l0.79822,-0.04018c0.79599,0.08153 1.53761,0.16914 2.33676,0.13524c0,0 0.7494,-0.02984 0.77927,0.71956c0.02985,0.7494 -0.71955,0.77926 -0.71955,0.77926c-0.87079,0.03273 -1.68314,-0.05313 -2.54932,-0.14186l-0.55082,0.04501c0,0 -0.74851,0.04728 -0.79578,-0.70124z" data-paper-data="{&quot;index&quot;:null}" fill="#8c5900" stroke-width="0.5"/><path d="M222.65679,169.0516c-0.47353,-0.58162 0.10808,-1.05514 0.10808,-1.05514l0.48741,-0.39684c0.48522,-0.38903 1.0311,-0.70731 1.59801,-0.96302c0,0 0.68571,-0.30382 0.98952,0.38189c0.3038,0.68572 -0.38191,0.98953 -0.38191,0.98953c-0.4489,0.19443 -0.88222,0.44232 -1.25858,0.75483l-0.48741,0.39684c0,0 -0.58162,0.47353 -1.05514,-0.10809z" data-paper-data="{&quot;index&quot;:null}" fill="#8c5900" stroke-width="0.5"/><path d="M228.43804,174.0015c-0.60046,-0.4494 -0.15106,-1.04984 -0.15106,-1.04984l0.41027,-0.54674c0.48481,-0.58669 0.94783,-1.19233 1.38297,-1.81674c0,0 0.42914,-0.61511 1.04424,-0.18596c0.61509,0.42915 0.18596,1.04424 0.18596,1.04424c-0.45896,0.6571 -0.94642,1.29498 -1.45635,1.91335l-0.36615,0.49064c0,0 -0.4494,0.60045 -1.04985,0.15105z" data-paper-data="{&quot;index&quot;:null}" fill="#8c5900" stroke-width="0.5"/><path d="M230.31874,146.77c-0.21852,-0.41374 -0.43705,-0.82747 -0.65556,-1.24121c0,0 -0.35028,-0.66317 0.3129,-1.01345c0.66318,-0.35027 1.01346,0.31292 1.01346,0.31292c0.24947,0.47232 0.49892,0.94464 0.74839,1.41697l0.07159,0.53723c0,0 -0.07642,0.7461 -0.82252,0.66968c-0.54044,-0.05536 -0.64932,-0.4621 -0.66826,-0.68212z" data-paper-data="{&quot;index&quot;:null}" fill="#8c5900" stroke-width="0.5"/><path d="M225.70559,166.35177c-0.4064,-0.63034 0.22394,-1.03676 0.22394,-1.03676l0.52417,-0.33662c0.71444,-0.40047 1.39975,-0.83362 2.07439,-1.28061c-0.51433,-1.08428 -1.02085,-2.16951 -1.53973,-3.22603c0,0 -0.33062,-0.67318 0.34257,-1.00381c0.67319,-0.33062 1.00382,0.34258 1.00382,0.34258c0.48852,0.99468 0.96491,2.0168 1.44761,3.03941c1.10997,-0.75863 2.22217,-1.52288 3.42092,-2.20633c0,0 0.65155,-0.37148 1.02302,0.28007c0.37148,0.65155 -0.28007,1.02302 -0.28007,1.02302c-1.2237,0.69769 -2.37379,1.47689 -3.52034,2.25334c0.55572,1.14994 1.12989,2.28536 1.74912,3.36738l0.25475,0.29673c0,0 0.47353,0.58161 -0.10808,1.05514c-0.58161,0.47353 -1.05514,-0.10808 -1.05514,-0.10808l-0.39463,-0.50086c-0.59858,-1.05345 -1.1576,-2.1537 -1.69934,-3.26807c-0.64756,0.42859 -1.30207,0.84661 -1.9759,1.2392l-0.4543,0.29423c0,0 -0.63034,0.4064 -1.03675,-0.22394z" data-paper-data="{&quot;index&quot;:null}" fill="#000000" stroke-width="0.5"/><path d="M226.87471,153.85221c-0.20614,-0.72113 0.51497,-0.92725 0.51497,-0.92725l0.30538,-0.06498c0.72301,-0.41223 1.45887,-0.79811 2.19985,-1.17372c-0.33411,-0.81535 -0.62063,-1.62217 -0.82453,-2.37643c0,0 -0.19041,-0.72543 0.53501,-0.91584c0.72543,-0.19042 0.91584,0.535 0.91584,0.535c0.16604,0.65779 0.41145,1.36892 0.70332,2.09277c1.28056,-0.63488 2.56261,-1.26753 3.80681,-1.97957c0,0 0.65154,-0.37148 1.02301,0.28008c0.37148,0.65156 -0.28007,1.02302 -0.28007,1.02302c-1.29476,0.7357 -2.62512,1.38877 -3.95164,2.04819c0.51023,1.09474 1.07938,2.1601 1.59368,3.05553l0.33593,0.39643c0,0 0.47353,0.58162 -0.10808,1.05515c-0.58162,0.47353 -1.05513,-0.10808 -1.05513,-0.10808l-0.4758,-0.60056c-0.53127,-0.93778 -1.10036,-2.01981 -1.61687,-3.13236c-0.69271,0.35361 -1.38076,0.71715 -2.05838,1.10348l-0.63604,0.20413c0,0 -0.72112,0.20613 -0.92726,-0.51498z" data-paper-data="{&quot;index&quot;:null}" fill="#000000" stroke-width="0.5"/><path d="M248.98691,158.7005l-0.36789,0.11584c-0.84736,0.16095 -0.99507,1.301 -1.33136,2.04433c-0.68951,1.52408 -4.33942,9.3738 -0.10743,8.04127c2.26309,-2.14739 6.63295,-5.45432 4.05809,-8.6461c-0.54333,-0.67351 -0.58489,-1.1138 -1.40892,-1.38638c0,0 -0.33332,-0.12916 -0.45055,-0.43924c-0.1582,0.19668 -0.39194,0.27028 -0.39194,0.27028zM249.47368,157.74942c0.3057,-0.50801 0.89771,-0.2786 0.89771,-0.2786c1.10338,0.46566 1.31423,0.94764 2.034,1.84275c3.29521,4.09784 -1.39654,8.22046 -4.482,10.89134c-6.884,2.16757 -3.3449,-6.99508 -2.00229,-9.96275c0.59926,-1.32458 0.80275,-2.31455 2.24741,-2.85657l0.36789,-0.11584c0,0 0.70837,-0.22305 0.93727,0.47966z" data-paper-data="{&quot;index&quot;:null}" fill="#00488c" stroke-width="0.5"/><path d="M248.99167,158.65072c0,0 0.23686,-0.0732 0.39506,-0.26989c0.11723,0.31008 0.45517,0.44021 0.45517,0.44021c0.82403,0.27258 0.8821,0.72057 1.42543,1.39408c2.57486,3.19178 -1.83707,6.58769 -4.10016,8.73508c-4.23198,1.33252 -0.58591,-6.61253 0.1036,-8.13661c0.3363,-0.74333 0.50232,-1.88628 1.34968,-2.04723l0.37122,-0.11563z" data-paper-data="{&quot;noHover&quot;:false,&quot;origItem&quot;:[&quot;Path&quot;,{&quot;applyMatrix&quot;:true,&quot;segments&quot;:[[[246.2293,162.9803],[0.04941,0.24753],[-0.24725,0.22082]],[[245.62677,163.16164],[0,0],[-0.85673,-0.13905]],[[243.73666,163.74007],[0.79307,-0.34622],[-3.75837,1.64074]],[[243.34018,173.28292],[-1.01468,-2.95014],[3.1373,3.1373]],[[246.96074,166.10203],[-0.09279,1.67022],[0.04525,-0.81461]],[[246.72472,163.67384],[0.67709,0.5343],[0,0]],[246.45199,163.40111]],&quot;closed&quot;:true,&quot;fillColor&quot;:[0,0,0,1],&quot;strokeWidth&quot;:0.5}],&quot;index&quot;:null}" fill="#0060b9" stroke-width="0.25"/><path d="M251.05301,170.38448c-0.03134,1.40147 -1.02221,2.60558 -1.50177,3.9944c-0.48983,-0.10869 -0.98786,-0.18618 -1.49043,-0.23188c0.43328,-1.30515 1.48676,-2.65965 1.4924,-3.78757c0.00313,-0.6247 -0.55396,-1.42347 -0.74112,-2.01156c0,0 -0.22525,-0.71538 0.49013,-0.94063c0.71538,-0.22525 0.94063,0.49013 0.94063,0.49013c0.25146,0.80875 0.82977,1.61075 0.81017,2.48712z" data-paper-data="{&quot;index&quot;:null}" fill="#00488c" stroke-width="0.5"/><path d="M242.95535,183.85047c-1.49511,0.47077 -2.9056,0.80589 -4.43893,1.03904c0.09207,0.1585 0.19842,0.31356 0.32017,0.4646c0.24161,0.29973 1.42725,1.76379 1.82585,1.71473c0.75561,-0.093 2.19497,-1.0461 3.06008,-1.33009c0.10263,-0.6637 -0.25247,-1.30227 -0.6405,-1.94426c-0.07315,0.03913 -0.12667,0.05598 -0.12667,0.05598zM240.88923,173.90075c0.74446,0.09097 0.6535,0.83543 0.6535,0.83543l-0.12238,0.90237c-0.28879,0.56428 -0.62836,1.10894 -1.03437,1.59573c-1.10606,1.6533 -2.56401,4.06953 -2.33584,6.20785c1.51045,-0.21672 2.87007,-0.53016 4.32439,-0.98166c-0.06461,-0.18251 -0.10947,-0.36678 -0.12561,-0.5534c-0.26512,-3.06573 3.12637,-7.72345 5.99071,-8.43446c0,0 0.73054,-0.16972 0.90026,0.56082c0.16972,0.73054 -0.56083,0.90027 -0.56083,0.90027c-2.13121,0.44703 -5.05969,4.60899 -4.83645,6.83597c0.20704,2.06532 1.8375,2.57345 1.14521,4.91362c-0.74445,0.42692 -3.29901,1.871 -4.15003,1.88367c-1.04121,0.01551 -1.82096,-0.97882 -2.48739,-1.62484c-3.21254,-3.11417 -1.15514,-7.50044 0.93692,-10.60964c0.30004,-0.35385 0.5809,-0.72988 0.80043,-1.13858l0.06603,-0.63962c0,0 0.09097,-0.74446 0.83543,-0.6535z" data-paper-data="{&quot;index&quot;:null}" fill="#00488c" stroke-width="0.5"/><path d="M242.99572,183.82099c0,0 0.05391,-0.01633 0.12705,-0.05545c0.38803,0.64199 0.7509,1.3216 0.64828,1.9853c-0.86511,0.28398 -2.36678,1.27308 -3.12239,1.36608c-0.3986,0.04906 -1.62021,-1.45813 -1.86183,-1.75786c-0.12175,-0.15104 -0.22817,-0.31523 -0.32024,-0.47373c1.53333,-0.23315 3.03401,-0.59358 4.52912,-1.06436z" data-paper-data="{&quot;noHover&quot;:false,&quot;origItem&quot;:[&quot;Path&quot;,{&quot;applyMatrix&quot;:true,&quot;segments&quot;:[[240.17927,188.49202],[[240.0928,188.38384],[0.04679,0.0685],[-0.64078,0.39003]],[[238.62635,189.8121],[0.21568,-0.63601],[0.63598,0.65161]],[[240.7255,192.40571],[-0.62712,-0.43164],[0.33082,0.2277]],[[243.13709,191.72875],[-0.35277,0.15416],[0.17777,-0.07769]],[[243.63572,191.46468],[-0.15489,0.09802],[-1.25206,-0.91531]],[[240.17928,188.49202],[1.10837,1.10838],[0,0]]],&quot;closed&quot;:true,&quot;fillColor&quot;:[0,0,0,1],&quot;strokeWidth&quot;:0.5}],&quot;index&quot;:null}" fill="#00529f" stroke-width="0.25"/><path d="M244.46188,178.31467l0.35945,0.06152c0.64586,0.17384 1.18637,0.35801 1.72471,0.63016c0.60697,-1.79573 1.2593,-3.54138 1.75536,-5.39353c0,0 0.19403,-0.72447 0.9185,-0.53044c0.72447,0.19403 0.53044,0.9185 0.53044,0.9185c-0.63026,2.35318 -1.80247,4.70093 -2.26221,7.06723c-0.15212,0.78299 -0.01014,2.17688 -0.64444,2.77037c-0.19256,0.18017 -1.56822,0.34661 -1.94127,0.39914l-0.43128,0.0712c0,0 -0.74004,0.12182 -0.86186,-0.61822c-0.12182,-0.74004 0.61822,-0.86186 0.61822,-0.86186l0.46575,-0.07646c0.38185,-0.05377 0.86776,0.21882 1.15628,-0.03704c0.15935,-0.14131 0.23554,-1.40419 0.31571,-2.21341c-0.55305,-0.32916 -1.05719,-0.49695 -1.73198,-0.67669l-0.20829,-0.02928c0,0 -0.74058,-0.11846 -0.62213,-0.85904c0.11846,-0.74058 0.85904,-0.62213 0.85904,-0.62213z" data-paper-data="{&quot;index&quot;:null}" fill="#00488c" stroke-width="0.5"/></g></g></svg>