<svg version="1.1" xmlns="http://www.w3.org/2000/svg" xmlns:xlink="http://www.w3.org/1999/xlink" width="34.55923" height="15.31113" viewBox="0,0,34.55923,15.31113"><g transform="translate(-235.04553,-169.4601)"><g data-paper-data="{&quot;isPaintingLayer&quot;:true}" fill-rule="nonzero" stroke="none" stroke-width="0.5" stroke-linecap="butt" stroke-linejoin="miter" stroke-miterlimit="10" stroke-dasharray="" stroke-dashoffset="0" style="mix-blend-mode: normal"><path d="M252.20648,177.17255c-0.14785,0.35835 -0.50619,0.2105 -0.50619,0.2105l-0.43661,-0.1887c-0.38858,-0.41097 -0.49533,-0.67034 -0.52062,-1.10361c-0.13958,0.20623 -0.28131,0.47439 -0.41629,0.73789c-0.00244,0.02733 -0.00453,0.05589 -0.0063,0.08582l-0.00408,0.05214l0.06746,0.01674l-0.03544,0.14288c1.16445,0.71497 2.19605,0.78571 2.56466,-0.60105c0.06127,-0.23049 0.40367,-0.69615 0.34231,-0.96293c-0.38754,0.00097 -0.81283,-0.05177 -1.21398,-0.0469c-0.17966,0.04126 -0.36147,0.09052 -0.53163,0.14233c0.00215,0.02124 0.00201,0.03423 0.00201,0.03423c-0.00496,0.35394 -0.08023,0.61288 0.18567,0.85983l0.29854,0.1146c0,0 0.35835,0.14785 0.2105,0.50619zM245.56986,173.91266c2.92912,0.98964 0.6301,5.10378 0.17284,7.06739c0.34548,0.24469 0.78739,0.48484 1.18653,0.62738c0.41432,0.14795 0.94653,0.53554 1.4111,0.49584c0.12142,-0.01037 0.24712,-1.49454 0.26271,-1.69399c0.04096,-0.52397 0.39096,-2.8999 0.78873,-3.22623c0.04137,-0.03395 0.08711,-0.0583 0.13597,-0.07583l0.01979,-0.25316c0.05524,-0.60165 0.21071,-0.89215 0.56058,-1.38047c0.16208,-0.136 0.31672,-0.24742 0.47769,-0.33864c0.29861,-0.21529 0.64441,-0.29915 1.00683,-0.32655c0.52608,-0.10066 1.30749,-0.22879 1.85234,-0.02004c0.07208,-0.01169 0.14246,-0.0268 0.21082,-0.04613c1.00223,-0.28333 1.16464,-1.14641 0.27499,-1.60747c-2.92707,-0.17319 -5.83529,-1.39829 -8.36092,0.77789zM244.8642,174.2102c-0.08921,-0.14427 -0.03962,-0.31976 -0.03962,-0.31976l0.22351,-0.55153c2.76243,-2.33214 5.88048,-1.24624 9.08819,-0.9517c1.5492,0.74273 1.47356,2.44386 -0.11281,3.04714c0.07243,0.44161 -0.26402,0.91846 -0.36284,1.29633c-0.44631,1.70661 -2.16663,2.27628 -3.64785,1.06018c-0.00709,-0.00627 -0.13564,0.83991 -0.23244,1.11179c-0.34948,0.98159 -0.16143,2.63093 -0.65708,3.4736c-0.75831,1.28923 -3.41425,-0.40404 -4.1034,-1.11583c0.03577,-1.73381 1.14248,-3.06104 1.29446,-4.73319c0.07626,-0.83906 -0.30842,-1.73497 -1.1537,-1.92854c0,0 -0.32114,-0.07967 -0.29643,-0.3885z" fill="#686868"/><path d="M253.94876,173.1162c0.88964,0.46106 0.7305,1.32797 -0.27172,1.61131c-0.06835,0.01932 -0.18095,0.06425 -0.25304,0.07594c-0.54485,-0.20876 -1.32004,-0.0745 -1.84612,0.02616c-0.36242,0.0274 -0.70214,0.11438 -1.00075,0.32967c-0.16097,0.09121 -0.31137,0.20375 -0.47345,0.33976c-0.34988,0.48832 -0.49183,0.77755 -0.54708,1.37921l-0.01371,0.2499c-0.04886,0.01753 -0.08835,0.03545 -0.12972,0.06939c-0.39777,0.32633 -0.75975,2.6637 -0.80071,3.18768c-0.01559,0.19944 -0.15825,1.73239 -0.27968,1.74277c-0.46458,0.0397 -1.00377,-0.35124 -1.41809,-0.49918c-0.39914,-0.14253 -0.8459,-0.38697 -1.19138,-0.63166c0.45727,-1.96361 2.75589,-6.11145 -0.17323,-7.10108c2.52563,-2.17617 5.47162,-0.95303 8.39869,-0.77984z" data-paper-data="{&quot;noHover&quot;:false,&quot;origItem&quot;:[&quot;Path&quot;,{&quot;applyMatrix&quot;:true,&quot;segments&quot;:[[[439.72045,350.22077],[9.68153,-8.5257],[11.37493,3.7069]],[[440.68431,377.55929],[1.68731,-7.61683],[1.347,0.93236]],[[445.30152,379.93724],[-1.55033,-0.53481],[1.6093,0.55515]],[[450.7822,381.79687],[-1.79592,0.17301],[0.46939,-0.04522]],[[451.72797,375.2314],[-0.052,0.77234],[0.13662,-2.02912]],[[454.64509,362.71523],[-1.52546,1.27927],[0.15867,-0.13306]],[[455.16804,362.41614],[-0.1883,0.06988],[0,0]],[[455.23404,361.43576],[0,0],[0.18863,-2.33028]],[[457.34546,356.07093],[-1.33339,1.90405],[0.62146,-0.53302]],[[459.17962,354.74069],[-0.61902,0.35968],[1.14641,-0.84547]],[[463.06168,353.43516],[-1.40116,0.12114],[2.03132,-0.41146]],[[470.22808,353.28029],[-2.1169,-0.78496],[0.27842,-0.04825]],[[471.04187,353.09299],[-0.26368,0.07763],[3.86608,-1.13816]],[[472.03878,346.86178],[3.46152,1.74681],[-11.3329,-0.54791]]],&quot;closed&quot;:true}]}" fill="#919191"/><path d="M260.29879,169.61823c0.26954,0.12717 0.71911,1.38674 0.89758,1.69325l0.06898,0.60878c0,0 0.00052,0.07747 -0.02958,0.17117c1.93081,0.04246 3.81766,0.40548 5.74346,0.39258c0.55786,-0.00374 1.97076,-0.22875 2.39288,0.20122c0.41655,0.4243 0.16353,1.17815 0.07935,1.632c-2.33918,1.79164 -6.30311,1.17604 -9.0918,0.79669l-0.30563,-0.09125c0,0 -0.03137,-0.01023 -0.07524,-0.03351c-0.59643,0.57343 -1.64447,0.72566 -2.67254,0.75682c0.46772,1.03453 -0.65802,2.03063 0.43183,3.14686c1.07072,1.09665 2.63239,-0.18398 3.2737,1.57753c0.40209,2.00308 -2.21925,1.73688 -3.50277,1.19648c-2.15531,-0.90746 -2.73389,-3.45315 -2.4497,-5.54229c0,0 0.00038,-0.00282 0.00131,-0.008c-0.00659,-0.04128 -0.00677,-0.06824 -0.00677,-0.06824l0.03804,-0.26726c0.00851,-0.01431 0.01726,-0.02854 0.02624,-0.04269c-0.53205,0.00277 -1.26594,-0.02068 -1.60282,-0.35306c-0.61295,-0.60479 -0.37948,-2.19663 -0.3783,-2.96813l0.15626,-0.57885c0,0 0.03509,-0.12601 0.13405,-0.23008c0.13862,-0.20197 0.40963,-0.20378 0.40963,-0.20378c1.37698,-0.00922 3.35707,-0.32796 4.98399,-0.21664c0.02145,-0.91745 0.19801,-2.17347 1.47787,-1.5696zM256.03265,176.11287c0.01118,0.08264 0.00276,0.14448 0.00276,0.14448c-0.17885,1.31477 -0.04025,3.04448 1.03601,4.00835c0.47309,0.42369 3.36843,1.13063 2.99497,0.48164c-0.08763,-0.63629 -2.37187,-0.52912 -3.02023,-1.15328c-0.62112,-0.59793 -1.06245,-1.42839 -0.95766,-2.30748c0.01878,-0.15755 0.32144,-1.11817 0.26912,-1.22459c-0.04477,-0.09105 -0.28352,-0.20949 -0.34539,-0.04271c0.00626,0.02024 0.0111,0.04018 0.01481,0.05938l0.01187,-0.03694c0,0 0.00019,0.0282 -0.00627,0.07115zM268.61454,173.7976c-0.01301,-0.71125 -1.34585,-0.32946 -2.1395,-0.32507c-1.77551,0.00981 -3.52376,-0.35798 -5.31035,-0.3967c-0.08536,0.37228 -0.27404,0.75183 -0.498,1.0857c2.4937,0.33933 5.69711,0.76109 7.94785,-0.36393zM254.16019,172.38598l-0.04672,0.16131c0.00686,0.39311 -0.19529,1.85163 0.09372,2.1368c0.14189,0.13999 1.00377,0.06815 1.18458,0.06672c0.88975,-0.00707 3.57454,0.24196 3.99358,-0.57619c0.34081,-0.34835 1.17731,-1.04885 0.77462,-1.66464c-0.15817,-0.24188 -1.33649,-0.13524 -1.60835,-0.15318c-1.44658,-0.09543 -2.93588,0.0065 -4.39142,0.02919zM260.13996,171.41632c-0.40035,-0.84386 -0.35893,-1.29569 -0.33982,-0.09238c0.11716,0.02674 0.2306,0.0574 0.33982,0.09238z" fill="#5a5a5a"/><path d="M256.05974,176.06713l-0.01161,0.03672c-0.00371,-0.0192 -0.0505,-0.08967 -0.05676,-0.10991c0.06187,-0.16677 0.34022,0.00399 0.38499,0.09504c0.05232,0.10642 -0.24104,1.05717 -0.25982,1.21472c-0.1048,0.8791 0.33017,1.66777 0.95129,2.2657c0.64836,0.62415 2.93283,0.56613 3.02046,1.20243c0.37347,0.64899 -2.55926,-0.05347 -3.03235,-0.47716c-1.07626,-0.96387 -1.22136,-2.74693 -1.04251,-4.0617c0,0 0.00917,-0.0625 -0.00201,-0.14514c0.00646,-0.04294 0.04831,-0.02069 0.04831,-0.02069z" data-paper-data="{&quot;noHover&quot;:false,&quot;origItem&quot;:[&quot;Path&quot;,{&quot;applyMatrix&quot;:true,&quot;segments&quot;:[[[245.98857,177.35088],[-0.0277,-0.05916],[0.08287,0.09418]],[[246.11244,177.52951],[0,0],[0.87172,1.79552]],[[250.75026,181.68574],[-2.15105,-0.31012],[0.94554,0.13632]],[[254.90221,179.79298],[1.00854,0.50149],[-0.64001,-0.72379]],[[250.15891,180.86571],[1.33208,0.24129],[-1.27612,-0.23116]],[[247.03665,178.77416],[0.60138,1.18822],[-0.10778,-0.21295]],[[246.35314,177.01635],[0.15421,0.08966],[-0.13194,-0.07671]],[[245.88501,177.2507],[-0.0615,-0.26041],[0.02471,0.02013]],[[245.95304,177.31272],[-0.02065,-0.02095],[0,0]],[245.93714,177.25656]],&quot;closed&quot;:true}]}" fill="#707070"/><path d="M259.78522,171.3532c-0.01912,-1.20331 -0.03276,-0.75052 0.36759,0.09334c-0.10921,-0.03498 -0.25043,-0.0666 -0.36759,-0.09334z" data-paper-data="{&quot;noHover&quot;:false,&quot;origItem&quot;:[&quot;Path&quot;,{&quot;applyMatrix&quot;:true,&quot;segments&quot;:[[[247.21814,168.04655],[-0.16591,0.04721],[-1.2046,-0.72312]],[[246.71561,168.21406],[-1.02674,-1.49096],[0.169,-0.06415]]],&quot;closed&quot;:true}]}" fill="#707070"/><path d="M260.634,174.16457c0.22396,-0.33388 0.41317,-0.72309 0.49853,-1.09537c1.78658,0.03872 3.59935,0.40751 5.37486,0.3977c0.79366,-0.00439 2.12697,-0.38051 2.13999,0.33074c-2.25074,1.12503 -5.51968,0.70626 -8.01338,0.36693z" data-paper-data="{&quot;noHover&quot;:false,&quot;origItem&quot;:[&quot;Path&quot;,{&quot;applyMatrix&quot;:true,&quot;segments&quot;:[[[259.81524,163.96614],[-1.88101,3.28455],[-0.60903,-0.87985]],[[256.86506,165.34205],[0.99023,-0.6669],[-2.21527,1.49194]],[[249.88438,169.27074],[2.26958,-1.4404],[0.20335,0.53734]],[[250.16553,171.04537],[0.00222,-0.60475],[3.40562,-1.65324]]],&quot;closed&quot;:true}]}" fill="#707070"/><path d="M258.57656,172.33543c0.27186,0.01794 1.45627,-0.07809 1.61444,0.16379c0.40268,0.6158 -0.43324,1.33594 -0.77405,1.68429c-0.41904,0.81815 -3.16258,0.57868 -4.05234,0.58575c-0.18081,0.00144 -1.04619,0.06661 -1.18807,-0.07339c-0.28901,-0.28517 -0.08741,-1.76572 -0.09427,-2.15884l0.04729,-0.16292c1.45554,-0.02269 3.0004,-0.13412 4.44699,-0.03868z" data-paper-data="{&quot;noHover&quot;:false,&quot;origItem&quot;:[&quot;Path&quot;,{&quot;applyMatrix&quot;:true,&quot;segments&quot;:[[[240.53783,174.24419],[1.80385,-1.24141],[0,0]],[[240.61376,174.48513],[0,0],[0.3362,0.48657]],[[242.51187,177.08291],[-0.59957,-0.11626],[0.29435,0.05707]],[[244.05089,176.17927],[-0.22523,0.15248],[1.10833,-0.75035]],[[248.57182,172.1296],[0.15706,1.37377],[0.13649,-0.72025]],[[248.1546,169.39943],[1.01746,0.43558],[-0.39965,-0.17109]],[[246.01283,170.54797],[0.3554,-0.2041],[-1.89107,1.08603]]],&quot;closed&quot;:true}]}" fill="#707070"/><path d="M253.51361,173.98632c-0.2142,0.0361 -0.3286,-0.06807 -0.38779,-0.16662c-1.2692,-0.0929 -2.59039,-0.0472 -3.85609,0.06336c-1.42415,0.12441 -3.0079,0.65688 -4.40254,0.54987c-0.40124,-0.03079 -1.45499,0.03407 -1.69472,-0.36938c-0.3592,-0.6045 0.91521,-2.38458 1.41635,-2.65856c0.2757,-0.15073 0.77366,-0.07968 1.07987,-0.05574c2.64916,-0.23986 5.37822,-0.17338 8.02819,0.03378c0,0 0.38647,0.03021 0.35625,0.41668c-0.01269,0.1623 -0.0882,0.25111 -0.17154,0.29954c-0.02627,0.33598 -0.05253,0.67195 -0.0788,1.00792c0.11223,0.03549 0.28583,0.13329 0.2652,0.39714c-0.01987,0.25415 -0.19379,0.3281 -0.31057,0.34894c-0.04777,0.06124 -0.12376,0.11283 -0.24382,0.13306zM245.67223,172.12453c-0.79438,-0.0621 -1.17519,0.37148 -1.53596,1.11808c-0.07493,0.15506 -0.41586,0.29369 -0.29971,0.42085c0.24527,0.26853 0.72852,-0.03237 1.09106,-0.00347c1.34389,0.10715 2.89681,-0.42893 4.27465,-0.54929c1.2553,-0.10965 2.56557,-0.15638 3.82844,-0.07469c0.02396,-0.30651 0.04792,-0.61303 0.07188,-0.91954c-2.46403,-0.17177 -4.97336,-0.19977 -7.43037,0.00805z" fill="#5a5a5a"/><path d="M253.12805,172.112c-0.02396,0.30651 -0.04754,0.61808 -0.0715,0.92459c-1.26287,-0.08169 -2.57382,-0.02963 -3.82912,0.08002c-1.37784,0.12036 -2.98122,0.65574 -4.32512,0.54858c-0.36254,-0.02891 -0.846,0.27082 -1.09127,0.00229c-0.11615,-0.12716 0.22452,-0.26797 0.29945,-0.42305c0.36077,-0.7466 0.74255,-1.18925 1.53692,-1.12715c2.457,-0.20783 5.01659,-0.17707 7.48062,-0.0053z" data-paper-data="{&quot;noHover&quot;:false,&quot;origItem&quot;:[&quot;Path&quot;,{&quot;applyMatrix&quot;:true,&quot;segments&quot;:[[[440.04188,343.29771],[9.49817,-0.90675],[-3.07626,-0.20712]],[[434.14549,347.68801],[1.36474,-2.90387],[-0.28345,0.60312]],[[433.00342,349.32892],[-0.45472,-0.48717],[0.96025,1.02878]],[[437.22489,349.26993],[-1.40397,-0.09671],[5.20438,0.35848]],[[453.74179,346.96609],[-5.32623,0.52323],[4.85252,-0.4767]],[[468.552,346.51726],[-4.88981,-0.26336],[0.07992,-1.18699]],[[468.79175,342.95628],[-0.07992,1.18699],[-9.54122,-0.56172]]],&quot;closed&quot;:true}]}" fill="#707070"/><path d="M236.19409,178.70182c-0.00418,0.38762 -0.39181,0.38344 -0.39181,0.38344l-0.3467,-0.11728c-0.8174,-0.92724 -0.17829,-2.5594 -0.07226,-3.70359c0.02767,-0.29848 -0.07686,-0.99062 0.24746,-1.16691c0.52856,-0.28732 0.84902,-0.05978 1.03255,0.27716c0.09801,-0.01506 0.18125,-0.02692 0.23406,-0.03506c1.28084,-0.19743 2.6924,0.096 3.94935,-0.24369c0.18086,-0.04887 0.48479,-0.18291 0.7597,-0.23799c0.32093,-0.46764 1.19216,-0.85676 1.64568,-0.85802c0,0 0.38762,0.00418 0.38344,0.39181c-0.00078,0.07275 -0.01508,0.1317 -0.03778,0.17947c0.35399,0.18616 0.54155,0.51585 0.13243,1.05562c-0.1924,0.25384 -0.77049,-0.0467 -1.0569,0.01423c-0.20673,0.04398 -0.40672,0.29726 -0.5987,0.20884c-0.10695,-0.04925 -0.19747,-0.10035 -0.27306,-0.15282c-1.11275,0.33575 -2.45284,0.36368 -3.51895,0.35371c-0.19132,-0.00179 -0.92282,-0.04556 -1.42865,-0.02529c0.0534,0.66789 -0.13971,1.92147 -0.48656,2.57301c-0.0114,0.13264 -0.01789,0.26568 -0.01932,0.39859l-0.01736,0.02939l0.01306,0.00232l-0.0775,0.43593c-0.01037,0.06495 -0.03684,0.12445 -0.07516,0.17434c0.00218,0.01973 0.00322,0.04064 0.00298,0.06281z" fill="#5a5a5a"/><path d="M240.49976,183.97795c-0.31995,0.25399 -0.77489,0.28047 -1.41321,-0.0393c-0.41977,-0.21029 -0.23395,-0.91148 -0.29835,-1.37654c-0.13667,-0.98682 -0.51951,-4.55525 0.2586,-5.23326c0.15082,-0.13142 0.37749,-0.19825 0.64298,-0.22352c0.11099,-0.10489 0.27443,-0.18211 0.51509,-0.18211c0.27866,0 0.45379,0.10354 0.56385,0.23367c0.16875,0.02322 0.33553,0.05057 0.49407,0.07814c0.13619,-0.18887 0.35811,-0.31182 0.60875,-0.31182h0.77778c0.4206,0 0.84279,-0.00149 1.26426,0.00193c2.5238,-0.42852 6.37573,-0.16524 7.17477,1.17195c0.29484,0.49341 0.48093,5.11708 0.12756,5.51196c-0.44632,0.49874 -2.5295,0.25814 -3.16875,0.25715c-2.49351,-0.3079 -4.49429,-0.25224 -6.95844,0.10502z" fill="#0060b9"/><path d="M239.23264,184.00655c0,-0.75 0.75,-0.75 0.75,-0.75h0.33333c2.6562,0.00692 5.32661,-0.11424 8,-0.11111c0.86499,0.00101 2.30615,0.71355 2.59295,-0.10251c0.09273,-0.26385 -0.26771,-2.13161 -0.33541,-2.59698c-0.10505,-0.74738 0.04187,-1.5479 -0.06156,-2.2635c-0.02413,-0.16695 -1.98671,-0.29826 -2.24915,-0.31668c-2.81824,-0.19779 -5.81595,-0.30228 -8.61854,0.10546c0,0 -0.74246,0.10607 -0.84853,-0.6364c-0.10607,-0.74246 0.6364,-0.84853 0.6364,-0.84853c3.13248,-0.44031 6.63559,-0.44744 9.76769,0c1.11802,0.15972 2.05918,-0.14862 2.69795,1.12212c0.28752,0.57197 0.06192,1.94667 0.16066,2.62539c0.09205,0.65489 0.48011,3.09837 0.10903,3.62524c-0.4286,0.60854 -2.20677,0.73746 -2.90944,0.78449c-2.92412,0.19571 -6.01824,0.10636 -8.94206,0.113h-0.33333c0,0 -0.75,0 -0.75,-0.75z" fill="#00488c"/></g></g></svg>