<svg version="1.1" xmlns="http://www.w3.org/2000/svg" xmlns:xlink="http://www.w3.org/1999/xlink" width="150.43927" height="52.75" viewBox="0,0,150.43927,52.75"><g transform="translate(-164.78036,-153.625)"><g data-paper-data="{&quot;isPaintingLayer&quot;:true}" fill-rule="nonzero" stroke-linecap="butt" stroke-linejoin="miter" stroke-miterlimit="10" stroke-dasharray="" stroke-dashoffset="0" style="mix-blend-mode: normal"><path d="M166.03036,205.125v-50.25h147.93927v50.25z" fill="#7f7f7f" stroke="#5e5e5e" stroke-width="2.5"/><path d="M222.92579,180.03156c0.24515,1.22573 -0.98058,1.47087 -0.98058,1.47087l-1.24515,0.22427c-1.31502,0 -2.63004,0 -3.94505,0c-0.0037,0.51552 -0.00495,1.03197 -0.00495,1.55v0.8c0,0 0,1.25 -1.25,1.25c-1.25,0 -1.25,-1.25 -1.25,-1.25v-0.8c0,-0.51797 0.00133,-1.03443 0.00508,-1.55c-0.71836,0 -1.43672,0 -2.15508,0c0,0 -1.25,0 -1.25,-1.25c0,-1.25 1.25,-1.25 1.25,-1.25c0.73233,0 1.46467,0 2.197,0c0.0303,-1.07751 0.07901,-2.15535 0.15618,-3.23906c0,0 0.08906,-1.24682 1.33588,-1.15776c1.24682,0.08906 1.15776,1.33588 1.15776,1.33588c-0.07339,1.02416 -0.12007,2.04279 -0.14943,3.06094c1.30087,0 2.60174,0 3.90261,0l0.75485,-0.17573c0,0 1.22573,-0.24515 1.47087,0.98058z" fill="#ffffff" stroke="none" stroke-width="0.5"/><path d="M272.75005,176.27671c0,1.25 -1.25,1.25 -1.25,1.25l-0.7434,-0.0481c-2.94941,-0.87282 -5.86518,0.03962 -8.8566,0.0481c0,0 -1.25,0 -1.25,-1.25c0,-1.25 1.25,-1.25 1.25,-1.25c3.27835,0.01077 6.2865,-0.85638 9.5434,0.0481l0.0566,-0.0481c0,0 1.25,0 1.25,1.25z" fill="#ffffff" stroke="none" stroke-width="0.5"/><path d="M274.15004,183.47671c0,1.25 -1.25,1.25 -1.25,1.25l-0.57678,-0.01256c-3.09494,-0.44307 -6.10567,-0.58744 -9.22322,-0.58744c0,0 -1.25,0 -1.25,-1.25c0,-1.25 1.25,-1.25 1.25,-1.25c3.23459,0 6.36627,0.15485 9.57678,0.61256l0.22322,-0.01256c0,0 1.25,0 1.25,1.25z" fill="#ffffff" stroke="none" stroke-width="0.5"/><path d="M172.43172,180.82051c-0.03926,-0.50314 0.21703,-0.9303 0.21703,-0.9303c2.19068,-3.62795 4.8086,-8.47671 8.5153,-10.85175c1.76303,-1.12965 3.35564,-0.2299 5.14516,-0.60621c1.19675,-0.25166 2.37329,-0.95708 3.58395,-0.78433c1.30219,0.18581 2.10325,1.5841 3.20842,2.29741c1.06362,0.6865 4.07516,0.21268 5.2328,0.2393c1.90549,1.11713 4.85806,4.73601 5.11082,7.21745c0.06372,0.62555 -0.42646,1.21625 -0.39611,1.8443c0.07563,1.56492 3.31489,2.6573 3.48056,4.1554c0.16265,1.47072 -2.77861,3.84343 -3.78139,4.69106c-1.37743,1.16431 -2.34714,2.75813 -4.14464,3.35198c-1.55918,0.51511 -3.30018,-0.15021 -4.80583,0.38212c-2.05771,0.72753 -3.1531,1.03425 -5.46466,1.03718c-2.68153,-0.0112 -4.8668,-0.8153 -7.37706,-1.61052c-4.97817,-1.57702 -10.45892,-2.63366 -8.85529,-9.42966zM175.32956,181.03579c-0.01029,0.25565 -0.07163,0.43967 -0.07163,0.43967l-0.35422,1.0492c-1.3083,4.84884 3.66347,4.96769 6.93867,5.97908c2.21952,0.6854 4.11653,1.48317 6.4908,1.47123c2.86842,0.00395 6.61315,-0.50081 9.37566,-1.27723c1.13124,-0.31794 2.3303,-2.09645 3.17452,-2.81151c0.76996,-0.65217 1.3525,-1.51022 2.14048,-2.14049c0.16533,-0.13224 0.76364,0.0592 0.62684,-0.10239c-1.02377,-1.20924 -3.09773,-1.7507 -3.45338,-3.93419c-0.10945,-0.67197 0.37393,-1.32706 0.37433,-2.00788c0.0005,-0.83324 -2.2477,-4.34135 -2.97877,-4.72431c-1.84923,0.06567 -4.24001,0.40533 -5.93853,-0.53114c-0.5772,-0.31824 -1.18709,-1.85599 -2.18465,-1.93999c-0.89291,-0.07518 -1.69955,0.58755 -2.57954,0.75654c-0.85338,0.16388 -3.31938,-0.45752 -4.10008,0.16423c-3.22173,2.5658 -5.37672,6.11738 -7.46051,9.60918z" fill="#26251b" stroke="none" stroke-width="0.5"/><path d="M182.75613,171.37983c0.7807,-0.62175 3.26634,-0.00956 4.11972,-0.17344c0.87999,-0.16899 1.70263,-0.83349 2.59554,-0.75831c0.99755,0.08399 1.62322,1.62444 2.20042,1.94267c1.69852,0.93647 4.11556,0.61413 5.96479,0.54846c0.73106,0.38296 2.99192,3.91627 2.99142,4.74951c-0.0004,0.68083 -0.48246,1.3457 -0.37302,2.01768c0.35564,2.1835 2.42814,2.74096 3.4519,3.9502c0.1368,0.16158 -0.46174,-0.0289 -0.62707,0.10334c-0.78798,0.63027 -1.3745,1.49924 -2.14446,2.15141c-0.84422,0.71507 -2.05429,2.50915 -3.18554,2.82709c-2.76251,0.77642 -6.55327,1.29805 -9.42168,1.2941c-2.37428,0.01194 -4.30464,-0.80018 -6.52416,-1.48558c-3.2752,-1.01139 -8.26566,-1.16432 -6.95736,-6.01316l0.35372,-1.05322c0,0 0.06122,-0.18582 0.07151,-0.44147c2.0838,-3.4918 4.26254,-7.09348 7.48427,-9.65928z" data-paper-data="{&quot;noHover&quot;:false,&quot;origItem&quot;:[&quot;Path&quot;,{&quot;applyMatrix&quot;:true,&quot;segments&quot;:[[[483.32901,330.02966],[3.60626,-6.04297],[-0.01781,0.44244]],[483.20504,330.79057],[[482.59202,332.60634],[0,0],[-2.26417,8.3915]],[[494.60022,342.95386],[-5.66812,-1.75034],[3.84115,1.18617]],[[505.83333,345.5],[-4.10897,0.02066],[4.96414,0.00683]],[[522.05903,343.2896],[-4.78085,1.34368],[1.95775,-0.55023]],[[527.55291,338.42394],[-1.46102,1.23751],[1.3325,-1.12865]],[[531.25727,334.71957],[-1.36369,1.09076],[0.28613,-0.22886]],[[532.34209,334.54238],[0.23675,0.27964],[-1.77175,-2.09273]],[[526.36561,327.73379],[0.61548,3.7788],[-0.18941,-1.16293]],[[527.01344,324.25891],[-0.0007,1.17825],[0.00086,-1.44202]],[[521.85833,316.08292],[1.26519,0.66276],[-3.20031,0.11365]],[[511.58099,315.16371],[2.93949,1.62068],[-0.99891,-0.55075]],[[507.8002,311.80633],[1.72638,0.14536],[-1.54528,-0.13011]],[[503.336,313.11561],[1.52292,-0.29246],[-1.47688,0.28362]],[[496.24032,313.39983],[1.3511,-1.07602],[-5.57559,4.44043]]],&quot;closed&quot;:true}]}" fill="#312f22" stroke="none" stroke-width="0.5"/><path d="M197.92232,179.47076c-1.34125,0.5365 -1.87775,-0.80475 -1.87775,-0.80475l-0.21946,-0.65991c-0.72827,-1.46679 -1.78106,-0.70158 -3.51977,-0.55571c0,0 -1.43958,0.11996 -1.55954,-1.31961c-0.11996,-1.43958 1.31961,-1.55955 1.31961,-1.55955c3.04849,-0.25243 4.09823,-0.68667 6.11069,1.7556l0.55097,1.26618c0,0 0.5365,1.34125 -0.80475,1.87775z" fill="#26251b" stroke="none" stroke-width="0.5"/><path d="M189.58512,174.08472c0,1.44457 -1.44457,1.44457 -1.44457,1.44457l0.15775,-0.04313c-2.11986,0.5164 -3.04927,1.18712 -5.32512,0.99734c0,0 -1.43573,-0.15953 -1.27621,-1.59526c0.15953,-1.43573 1.59526,-1.27621 1.59526,-1.27621c1.70264,0.26593 2.62299,-0.49932 4.30535,-0.92875l0.54297,-0.04313c0,0 1.44457,0 1.44457,1.44457z" fill="#26251b" stroke="none" stroke-width="0.5"/><path d="M199.19086,186.24127c-1.37044,0.45681 -1.82725,-0.91362 -1.82725,-0.91362l0.14558,-0.43698c-0.44942,-0.32102 -0.89884,-0.64203 -1.34826,-0.96305c0,0 -1.1755,-0.83964 -0.33586,-2.01513c0.83964,-1.17549 2.01513,-0.33585 2.01513,-0.33585c0.44942,0.32102 0.89884,0.64202 1.34826,0.96304l0.91602,1.87434c0,0 0.45681,1.37043 -0.91363,1.82725z" fill="#26251b" stroke="none" stroke-width="0.5"/><path d="M184.31057,179.7914c0.45681,1.37044 -0.91363,1.82725 -0.91363,1.82725l-0.38861,0.11424c-1.91865,0.95413 -2.58316,1.00893 -3.37076,2.95421c0,0 -0.5867,1.32006 -1.90676,0.73337c-1.32006,-0.5867 -0.73337,-1.90676 -0.73337,-1.90676c1.197,-2.53891 2.2386,-3.11877 4.71883,-4.36495l0.76704,-0.27098c0,0 1.37044,-0.45681 1.82725,0.91363z" fill="#26251b" stroke="none" stroke-width="0.5"/><path d="M194.13364,181.09025c-0.45681,1.37044 -1.82725,0.91363 -1.82725,0.91363l-1.07893,-0.36199c-0.383,-0.21758 -0.71524,-0.72951 -1.14898,-0.65274c-0.28583,0.05059 -0.04534,0.57877 -0.068,0.86815c0,0 -0.64603,1.29206 -1.93809,0.64603c-1.29206,-0.64603 -0.64603,-1.93809 -0.64603,-1.93809c0.49096,-0.73787 0.64304,-1.90238 1.47287,-2.2136c0.97661,-0.36627 2.05894,0.33528 3.08842,0.50292l1.23238,0.40845c0,0 1.37044,0.45681 0.91363,1.82725z" fill="#26251b" stroke="none" stroke-width="0.5"/><path d="M188.23688,184.67823c0,1.44457 -1.44457,1.44457 -1.44457,1.44457l-1.33483,-0.01115c-0.66514,-0.12922 -1.42898,0.02355 -1.99326,0.39865c0,0 -1.25423,0.71671 -1.97094,-0.53753c-0.71671,-1.25424 0.53753,-1.97094 0.53753,-1.97094c1.1399,-0.59675 2.50328,-0.86943 3.78502,-0.75701l0.97648,-0.01116c0,0 1.44457,0 1.44457,1.44457z" fill="#26251b" stroke="none" stroke-width="0.5"/><path d="M194.9782,186.98954c0,1.44457 -1.44457,1.44457 -1.44457,1.44457c-0.51363,0 -2.1829,0 -2.69653,0c0,0 -1.44457,0 -1.44457,-1.44457c0,-1.44457 1.44457,-1.44457 1.44457,-1.44457c0.51363,0 1.02724,0 1.54087,0h1.15566c0,0 1.44457,0 1.44457,1.44457z" fill="#26251b" stroke="none" stroke-width="0.5"/><text transform="translate(181.76328,186.95348) scale(0.5,0.5)" font-size="40" xml:space="preserve" fill="#ffffff" fill-rule="nonzero" stroke="none" stroke-width="1" stroke-linecap="butt" stroke-linejoin="miter" stroke-miterlimit="10" stroke-dasharray="" stroke-dashoffset="0" font-family="Sans Serif" font-weight="normal" text-anchor="start" style="mix-blend-mode: normal"><tspan x="0" dy="0">1</tspan></text><path d="M236.55435,169.83545c4.36182,-0.09908 3.63555,6.76646 0.51924,7.79349c-0.62112,0.20469 -1.28851,-0.24263 -1.91183,-0.44049c-3.79644,-1.20515 -1.63697,-4.10993 -2.07151,-6.95097c0,0 -0.17678,-1.23744 1.06066,-1.41421c1.11908,-0.15987 1.3707,0.83688 1.40859,1.02902c0.0743,0.01241 0.14637,0.03136 0.21562,0.05625l0.14648,0.04883c0.2034,-0.07448 0.41494,-0.11695 0.63276,-0.1219z" fill="#cbd49f" stroke="none" stroke-width="0.5"/><path d="M252.53828,184.28712c0.04552,0.18363 0.04552,0.32097 0.04552,0.32097l-0.08879,0.18704c-0.08309,0.81525 -0.24696,1.5822 -0.75055,2.16706c-2.39418,2.78057 -4.4048,0.45312 -4.32113,-2.23782c0.08376,-2.69373 1.538,-4.63256 3.13927,-6.63415c0,0 0.78087,-0.97609 1.75696,-0.19522c0.2259,0.18071 0.35769,0.37189 0.42684,0.559c0.60349,0.08865 1.06676,0.60855 1.06676,1.23666c0,0.20995 -0.05175,0.4078 -0.14321,0.58151l-0.60344,1.20686c-0.42293,0.81759 -0.45634,1.82735 -0.52823,2.80809z" fill="#cbd49f" stroke="none" stroke-width="0.5"/><path d="M237.5992,184.3251c0,0 0.16583,1.23835 1.40326,1.06158c1.23744,-0.17677 1.04936,-1.41055 1.04936,-1.41055c-0.43308,-2.98225 -0.97918,-7.91854 0.13377,-10.75268c0.58112,-1.47985 2.79141,-3.58118 2.66763,-5.28726c0.06151,0.30082 0.16907,0.72859 0.27993,0.91004c0.6738,1.10283 1.70691,2.1384 2.51661,3.14859c2.26071,3.3843 0.92157,7.96691 1.20287,11.90614c0.02794,0.39118 0.74505,2.78704 0.29639,3.19913c-0.66587,0.61161 -2.42186,0.76894 -3.23215,1.10727c-2.41303,1.00752 -5.09825,1.5581 -7.75236,1.5519c-0.77676,0 -1.62428,0.43058 -2.33667,0.12096c-0.53543,-0.23271 -1.65729,-2.37897 -1.97275,-2.85171c-2.99108,-4.48236 -3.3078,-8.0432 -3.67563,-13.26477c-0.03097,-0.4396 0.5138,0.83742 0.84117,1.13244c1.06889,0.96326 2.43457,1.40113 3.54905,2.30354c1.42961,1.13243 2.6636,2.0763 4.08046,3.22209l0.29727,0.312c0,0 0.11303,0.11877 0.31135,0.22672c0.07075,1.1307 0.18445,2.25638 0.34045,3.36459z" data-paper-data="{&quot;noHover&quot;:false,&quot;origItem&quot;:[&quot;Path&quot;,{&quot;applyMatrix&quot;:true,&quot;segments&quot;:[[[393.84178,278.63082],[0.1415,2.2614],[-0.39663,-0.21588]],[393.20165,278.17144],[[392.58811,277.53627],[0,0],[-2.83372,-2.29158]],[[384.39239,270.97969],[2.85922,2.26487],[-2.22896,-1.80482]],[[377.29831,266.36262],[2.13778,1.92652],[-0.65474,-0.59004]],[[375.79445,264.18779],[-0.06194,-0.8792],[0.73567,10.44315]],[[383.11682,290.58878],[-5.98217,-8.96472],[0.63092,0.94548]],[[387.0371,296.27885],[-1.07085,-0.46541],[1.42477,0.61924]],[[391.69113,296.03211],[-1.55352,0],[5.30823,0.01241]],[[407.12586,292.94412],[-4.82605,2.01505],[1.62058,-0.67665]],[[413.57008,290.74732],[-1.33175,1.22322],[0.89731,-0.82419]],[[412.96501,284.36682],[0.05587,0.78235],[-0.56258,-7.87846]],[[410.57217,260.66829],[4.52141,6.7686],[-1.61939,-2.02037]],[[405.56694,254.39326],[1.3476,2.20566],[-0.22172,-0.36289]],[[405.01205,252.57566],[0.12301,0.60164],[0.24756,3.41218]],[[399.75807,262.96747],[1.16225,-2.9597],[-2.22589,5.66828]],[[399.49322,284.65562],[-0.86615,-5.96449],[0,0]],[[397.3719,287.48405],[2.47487,-0.35355],[-2.47487,0.35355]],[[394.54347,285.36273],[0,0],[-0.312,-2.2164]]],&quot;closed&quot;:true}]}" fill="#d8e1a9" stroke="none" stroke-width="0.5"/><path d="M246.80551,188.09127c0,-1.25 1.25,-1.25 1.25,-1.25h1.43425c0.6458,0.00151 1.64107,0.80655 1.92419,0.22611c0.12645,-0.25925 -0.31115,-0.52784 -0.28954,-0.81548c0.0988,-1.31531 1.23803,-2.48363 1.43425,-3.68807c0.23439,-1.43877 -0.59223,-3.12441 -0.9498,-4.67218c-0.68388,1.13844 -1.70427,2.32529 -2.23041,3.3825c0,0 -0.55902,1.11803 -1.67706,0.55902c-1.11803,-0.55901 -0.55901,-1.67705 -0.55901,-1.67705c0.83014,-1.6534 1.74785,-3.406 2.93362,-4.82721c0.50509,-0.60538 0.748,-1.77045 1.53591,-1.79871c2.23645,-0.0802 2.60357,3.37227 2.80337,4.75434c0.1937,1.33986 0.80778,3.35413 0.61111,4.67976c-0.17645,1.18932 -1.17455,2.45706 -1.43426,3.68808c-0.14266,0.67623 0.18919,1.55457 -0.28954,2.05302c-0.7335,0.76372 -2.80936,0.63382 -3.81282,0.63589h-1.43425c0,0 -1.25,0 -1.25,-1.25z" fill="#bac292" stroke="none" stroke-width="0.5"/><path d="M240.28518,172.5981c-0.69338,1.04006 -1.73344,0.34669 -1.73344,0.34669l-0.48032,-0.33182c-0.77459,-0.39143 -2.81918,-1.0356 -4.23373,-1.8954c0.18542,1.59735 0.30575,3.16415 0.30575,4.87523c0,0 0,1.25 -1.25,1.25c-1.25,0 -1.25,-1.25 -1.25,-1.25c0,-2.51254 -0.25823,-4.62975 -0.61154,-7.08264l0.02732,-0.08861h-0.03046v-1.43425v0c0,-0.69036 0.55964,-1.25 1.25,-1.25c0.39906,0 0.75444,0.187 0.9833,0.47815l0.81236,1.01544l-0.02197,0.01758c1.65736,1.11819 3.17264,2.15507 5.13701,3.12843l0.74904,0.48776c0,0 1.04006,0.69337 0.34669,1.73344z" fill="#bac292" stroke="none" stroke-width="0.5"/><path d="M244.36744,172.74494c-0.32542,0 -0.56611,-0.08472 -0.74416,-0.21005c-0.03752,0.12625 -0.0771,0.2528 -0.11892,0.3798l0.06415,0.0145c0,0 0,1.25 -1.25,1.25c-1.25,0 -1.25,-1.25 -1.25,-1.25l0.06414,-0.80507c0.4358,-1.28905 0.57567,-2.53313 0.76799,-3.87935c0,0 0.17677,-1.23744 1.41421,-1.06066c0.0462,0.0066 0.09043,0.01468 0.13277,0.02412c1.11583,-0.30746 1.49099,0.81803 1.49099,0.81803c0.30846,0.93655 0.52365,1.90645 0.66626,2.88212l0.01256,0.58656c0,0 0,1.25 -1.25,1.25z" fill="#e3edb2" stroke="none" stroke-width="0.5"/><path d="M229.96927,178.55487c-1.11803,0.55901 -1.67705,-0.55902 -1.67705,-0.55902l-0.3243,-0.79203c-0.11515,-0.82841 -0.29523,-1.65279 -0.5631,-2.4451c0,0 -0.39529,-1.18585 0.79057,-1.58114c1.18586,-0.39529 1.58114,0.79057 1.58114,0.79057c0.30846,0.93655 0.52365,1.90644 0.66626,2.88212l0.08549,0.02755c0,0 0.55902,1.11804 -0.55902,1.67705z" fill="#e3edb2" stroke="none" stroke-width="0.5"/><path d="M237.58533,188.50105c0,-1.40525 0,-2.81049 0,-4.21574c-0.1501,-1.07927 -0.26944,-2.17601 -0.33828,-3.27619c-0.19832,-0.10794 -0.32007,-0.22969 -0.32007,-0.22969l-0.30677,-0.31758c-1.41686,-1.14579 -2.66825,-2.14586 -4.09786,-3.27829c-1.11448,-0.90241 -2.47815,-1.34528 -3.54704,-2.30854c-0.32737,-0.29502 -0.7829,-1.52702 -0.75193,-1.08741c0.36784,5.22158 0.6701,8.71813 3.66119,13.20049c0.31546,0.47274 1.42471,2.61233 1.96014,2.84503c0.71239,0.30962 1.55025,-0.12337 2.32701,-0.12337c0.53112,0.00124 1.06208,-0.0195 1.59102,-0.06154zM240.08533,184.1983c0,1.43425 0,2.8685 0,4.30275l0.14577,0.79435c1.25747,-0.26041 2.48572,-0.64016 3.65799,-1.12963c0.81029,-0.33832 2.55624,-0.48679 3.22211,-1.0984c0.44866,-0.41209 -0.2746,-2.79908 -0.30254,-3.19025c-0.28129,-3.93923 1.06429,-8.46497 -1.19642,-11.84927c-0.8097,-1.01019 -1.82882,-2.03468 -2.50262,-3.13751c-0.11086,-0.18144 -0.21594,-0.60798 -0.27745,-0.9088c0.12378,1.70609 -2.04587,3.71606 -2.62699,5.19591c-1.11294,2.83414 -0.5655,7.86183 -0.13242,10.84408c0,0 0.00467,0.03273 0.00718,0.0883c0.00538,0.0554 0.00538,0.08848 0.00538,0.08848zM237.21047,177.74033c0.13244,-2.85497 0.74283,-5.63883 2.18287,-8.10217c0.5223,-0.89346 1.47228,-3.90497 2.44682,-4.21551c2.45572,-0.78253 4.53676,3.56009 5.79013,5.12957c2.6781,4.02388 1.34317,8.54438 1.67209,13.14768c0.12161,1.70194 0.9956,3.44785 -0.30254,5.00547c-0.54249,0.65094 -2.18909,1.11843 -3.00775,1.39131c-3.27221,1.09073 -6.29256,2.10579 -9.82036,2.11308c-0.55692,0 -3.07877,0.0298 -3.40999,-0.12337c-1.0683,-0.49401 -2.31772,-2.75135 -2.95729,-3.71154c-2.0678,-3.10441 -3.65748,-6.03825 -3.89559,-9.83589c-0.0908,-1.44809 -0.61776,-6.04244 1.0002,-6.87798c1.9046,-0.98356 5.69746,2.39997 7.17504,3.5704c1.0642,0.8617 2.07965,1.6773 3.12638,2.50895z" fill="#bac292" stroke="none" stroke-width="0.5"/><text transform="translate(235.50937,186.61468) scale(0.5,0.5)" font-size="40" xml:space="preserve" fill="#ffffff" fill-rule="nonzero" stroke="none" stroke-width="1" stroke-linecap="butt" stroke-linejoin="miter" stroke-miterlimit="10" stroke-dasharray="" stroke-dashoffset="0" font-family="Sans Serif" font-weight="normal" text-anchor="start" style="mix-blend-mode: normal"><tspan x="0" dy="0">3</tspan></text><path d="M288.6628,170.69857l-0.40217,-0.71121c-0.21803,-0.37074 -0.99098,-0.84454 -0.71933,-1.178c0.24932,-0.30605 2.00475,-0.41257 2.37781,-0.42933c2.69803,-0.12117 5.60881,0.24351 8.2857,0.75197c0.12665,0.17772 0.26407,0.28031 0.26407,0.28031c0.36045,0.2631 0.68833,0.58948 1.08623,0.79153c0.41686,0.21168 1.42148,-0.07852 1.35443,0.38417c-0.08104,0.55921 -0.82178,1.51904 -1.27025,2.25114c-0.24642,0.15441 -0.4671,0.43267 -0.4671,0.93182c0,1.12467 1.13139,1.13118 1.13139,1.13118l1.15904,-0.70619c0.04249,-0.10793 0.09405,-0.22189 0.15323,-0.33968c1.22292,1.54381 3.91009,4.16999 4.20892,5.94617c0.10169,0.60443 -0.37173,1.62929 -0.84853,2.51695c-0.0016,0.00237 -0.0032,0.00478 -0.00479,0.00716c-0.05619,0.08428 -0.09999,0.16712 -0.1327,0.24611c-0.24956,0.45341 -0.4868,0.86216 -0.62443,1.13686c0,0 -0.58464,0.96848 0.42129,1.47145c1.00593,0.50297 1.50718,-0.4993 1.50718,-0.4993c0.00697,-0.01397 0.0972,0.00624 0.10431,-0.0079c1.50086,1.6009 1.09464,1.97057 -0.26413,4.07539c-0.11685,0.18101 -1.14205,2.4924 -1.29009,2.53577c-0.32638,0.09563 -2.36451,-0.64558 -2.80749,-0.73383c-2.48115,-0.49425 -4.90356,-0.71855 -7.34362,-1.45057c0,0 -1.08355,-0.32353 -1.40672,0.7537c-0.03631,0.12102 -0.05501,0.23251 -0.05948,0.33511c-1.71481,-0.0368 -3.78872,-0.26834 -4.6577,-1.4673c0.29077,-0.70432 -0.35889,-1.2454 -0.35889,-1.2454l-0.07793,-0.0462c-0.06355,-0.28127 -0.31783,-0.98866 -1.21574,-0.89887c-0.16754,0.01675 -0.30803,0.05545 -0.42489,0.11021c-0.69695,0.00942 -1.39685,0.04448 -2.0902,0.11382c-0.49855,0.04985 -1.12765,0.73752 -1.45942,0.36207c-0.35221,-0.39858 -0.62534,-4.21021 -0.74858,-5.02101c-0.07591,-0.49942 -0.64411,-1.12593 -0.29581,-1.49182c0.30648,-0.32195 2.28342,-0.87024 2.79728,-1.07462c0,0 1.04501,-0.42478 0.62732,-1.469c-0.32508,-0.8127 -1.02932,-0.74155 -1.32578,-0.66931c-0.13967,-0.56555 -0.59929,-1.11372 -0.46674,-1.67696c0.12795,-0.54369 0.955,-0.59793 1.37537,-0.96572c0.88093,-0.77073 1.52593,-1.70313 2.1653,-2.66033c0.24696,0.24011 0.70101,0.50139 1.32069,0.14729c0.97649,-0.55799 0.4229,-1.53764 0.4229,-1.53764z" data-paper-data="{&quot;noHover&quot;:false,&quot;origItem&quot;:[&quot;Path&quot;,{&quot;applyMatrix&quot;:true,&quot;segments&quot;:[[[288.2683,172.2711],[0.97649,-0.55799],[-0.61968,0.35411]],[[286.95052,172.12123],[0.24696,0.24011],[-0.63937,0.9572]],[[284.79373,174.77018],[0.88093,-0.77073],[-0.42037,0.36778]],[[283.42069,175.73067],[0.12795,-0.54369],[-0.13255,0.56324]],[[283.88911,177.40203],[-0.13967,-0.56555],[0.29646,-0.07224]],[[285.21524,178.06968],[-0.32508,-0.8127],[0.41769,1.04423]],[[284.58871,179.5316],[0,0],[-0.51386,0.20439]],[[281.79136,180.60212],[0.30648,-0.32195],[-0.3483,0.36589]],[[282.08652,182.08858],[-0.07591,-0.49942],[0.12324,0.8108]],[[282.82897,187.0938],[-0.35221,-0.39858],[0.33177,0.37545]],[[284.28745,186.7303],[-0.49855,0.04985],[0.69335,-0.06934]],[[286.37486,186.61281],[-0.69695,0.00942],[0.11686,-0.05477]],[[286.79921,186.50196],[-0.16754,0.01675],[0.89791,-0.08979]],[[288.01018,187.39614],[-0.06355,-0.28127],[0,0]],[288.08779,187.44208],[[288.44308,188.68478],[0.29077,-0.70432],[0.86898,1.19896]],[[293.08141,190.14475],[-1.71481,-0.0368],[0.00447,-0.1026]],[[293.14081,189.80963],[-0.03631,0.12102],[0.32317,-1.07724]],[[294.54122,189.05557],[0,0],[2.44006,0.73202]],[[301.85972,190.5142],[-2.48115,-0.49425],[0.44298,0.08824]],[[304.66289,191.25145],[-0.32638,0.09563],[0.14803,-0.04337]],[[305.94739,188.72169],[-0.11685,0.18101],[1.35877,-2.10482]],[[306.2055,184.65672],[1.50086,1.6009],[-0.00711,0.01414]],[[306.18439,184.69889],[0.00697,-0.01397],[0,0]],[[304.67549,185.20185],[1.00593,0.50297],[-1.00593,-0.50297]],[[304.17252,183.69295],[0,0],[0.13763,-0.27471]],[[304.79527,182.5612],[-0.24956,0.45341],[0.03271,-0.07899]],[[304.9277,182.31619],[-0.05619,0.08428],[0.00159,-0.00239]],[[304.93248,182.30906],[-0.0016,0.00237],[0.4768,-0.88765]],[[305.77981,179.80255],[0.10169,0.60443],[-0.29884,-1.77618]],[[301.58125,173.88501],[1.22292,1.54381],[-0.05918,0.1178]],[[301.42751,174.22406],[0.04249,-0.10793],[0,0]],[300.26911,174.93104],[[299.14444,173.80637],[0,1.12467],[0,-0.49914]],[[299.61238,172.8752],[-0.24642,0.15441],[0.44847,-0.73211]],[[300.8837,170.62483],[-0.08104,0.55921],[0.06705,-0.46269]],[[299.53395,170.24354],[0.41686,0.21168],[-0.3979,-0.20205]],[[298.4526,169.45425],[0.36045,0.2631],[0,0]],[[298.18982,169.17442],[0.12665,0.17772],[-2.67689,-0.50846]],[[289.93558,168.4219],[2.69803,-0.12117],[-0.37307,0.01675]],[[287.56513,168.84753],[0.24932,-0.30605],[-0.27165,0.33345]],[[288.23676,169.94923],[-0.21803,-0.37074],[0,0]],[288.6868,170.73662]],&quot;closed&quot;:true}]}" fill="#9eb0c0" stroke="none" stroke-width="0.5"/><path d="M281.22773,180.84093c-0.18857,-0.87357 0.69886,-1.22854 0.69886,-1.22854c0.86687,-0.34675 3.11062,-1.62898 3.94382,-1.56012c1.07283,0.08867 2.23956,1.69546 3.23618,2.15948c4.17113,1.94208 8.59425,3.65869 13.2176,3.65869c0.83702,0.00108 3.32031,-0.48648 3.94648,-0.1002c2.48496,1.53293 0.48356,7.57342 -1.90801,8.35234c-1.3137,0.42786 -3.91567,-0.73143 -5.22546,-1.00072c-3.03899,-0.62481 -6.26674,0.1204 -9.30314,-0.5043c-1.32764,-0.75 -1.58417,-1.72895 -2.65328,-2.53097c-1.16489,-0.87388 -3.22682,0.59261 -4.49347,-0.18126c-1.60625,-0.98134 -1.58001,-3.83923 -1.58186,-5.42198l-0.10549,-0.77387c0,0 -0.06206,-0.4965 0.22777,-0.86855z" fill="#93a4b4" stroke="none" stroke-width="0.5"/><path d="M287.15793,168.85134c-0.00095,-0.02235 -0.00143,-0.04518 -0.00143,-0.06849c0,-1.12467 1.12467,-1.12467 1.12467,-1.12467c2.36932,0 4.61772,0.10893 6.96107,0.34799c1.62419,0.16569 3.55373,-0.26006 5.03273,0.7245c1.56855,1.04417 2.0359,3.45933 0.52487,4.87803c-1.33797,1.25621 -4.92187,0.68138 -6.57953,0.51756c-2.66995,-0.2781 -5.34356,-0.74185 -7.06722,-2.95604l-0.3278,-1.31494c0,0 -0.08906,-0.62345 0.33264,-1.00393z" fill="#a9bcce" stroke="none" stroke-width="0.5"/><path d="M288.2683,172.2711c-0.61968,0.35411 -1.07083,0.09024 -1.31779,-0.14987c-0.63937,0.9572 -1.27586,1.87822 -2.15679,2.64895c-0.42037,0.36778 -1.24508,0.4168 -1.37304,0.9605c-0.13255,0.56324 0.32875,1.10581 0.46842,1.67136c0.29646,-0.07224 1.00105,-0.14505 1.32613,0.66765c0.41769,1.04423 -0.62654,1.46192 -0.62654,1.46192c-0.51386,0.20439 -2.49086,0.74856 -2.79735,1.07051c-0.3483,0.36589 0.21924,0.98704 0.29515,1.48646c0.12324,0.8108 0.39024,4.60665 0.74245,5.00523c0.33177,0.37545 0.95994,-0.31365 1.45848,-0.3635c0.69335,-0.06934 1.39046,-0.10807 2.08741,-0.11749c0.11686,-0.05477 0.25681,-0.09409 0.42435,-0.11085c0.89791,-0.08979 1.14742,0.61291 1.21097,0.89418l0.07762,0.04594c0,0 0.64606,0.53838 0.35529,1.2427c0.86898,1.19896 2.92351,1.42317 4.63832,1.45997c0.00447,-0.1026 0.0231,-0.2141 0.05941,-0.33512c0.32317,-1.07724 1.40041,-0.75407 1.40041,-0.75407c2.44006,0.73202 4.83735,0.96438 7.3185,1.45863c0.44298,0.08824 2.47678,0.83288 2.80316,0.73725c0.14803,-0.04337 1.16765,-2.34875 1.2845,-2.52976c1.35877,-2.10482 1.75898,-2.46406 0.25812,-4.06497c-0.00711,0.01414 -0.01415,0.0282 -0.02112,0.04216c0,0 -0.50297,1.00593 -1.5089,0.50297c-1.00593,-0.50297 -0.50297,-1.5089 -0.50297,-1.5089c0.13763,-0.27471 0.37319,-0.67834 0.62275,-1.13175c0.03271,-0.07899 0.07624,-0.16074 0.13243,-0.24502c0.00159,-0.00239 0.00318,-0.00476 0.00478,-0.00713c0.4768,-0.88765 0.94902,-1.90208 0.84733,-2.50651c-0.29884,-1.77618 -2.97564,-4.37373 -4.19855,-5.91754c-0.05918,0.1178 -0.11125,0.23112 -0.15375,0.33905l-1.1584,0.70698c0,0 -1.12467,0 -1.12467,-1.12467c0,-0.49914 0.22153,-0.77676 0.46795,-0.93117c0.44847,-0.73211 1.19027,-1.69117 1.27131,-2.25037c0.06705,-0.46269 -0.93289,-0.16962 -1.34975,-0.38129c-0.3979,-0.20205 -0.7209,-0.52619 -1.08135,-0.78929c0,0 -0.13613,-0.1021 -0.26278,-0.27983c-2.67689,-0.50846 -5.5562,-0.87368 -8.25423,-0.75252c-0.37307,0.01675 -2.12113,0.11957 -2.37045,0.42562c-0.27165,0.33345 0.4536,0.73097 0.67164,1.1017l0.45003,0.78739c0,0 0.55799,0.97649 -0.41849,1.53448zM288.51931,166.30957c3.355,-0.68463 7.52106,0.14258 10.82866,0.7996c0,0 0.75272,0.15054 0.89006,0.82475c1.0609,0.57222 2.53632,0.80355 2.84162,2.20374c0.11111,0.50958 -0.06853,1.09496 -0.3505,1.68584l0.49478,0.50887c1.39567,1.86089 4.41748,4.77665 4.77831,7.12325c0.14097,0.91679 -0.24462,2.04191 -0.73009,3.09589l0.07163,0.04995c0.98364,0.98469 2.35818,2.09412 2.38448,3.64953c0.02655,1.5702 -2.09766,4.50187 -3.03531,5.74961c-0.36566,0.48658 -0.66081,1.12934 -1.22726,1.35205c-0.36296,0.1427 -2.35815,-0.29501 -2.90538,-0.40445c-2.41993,-0.48399 -4.80822,-0.76834 -7.187,-1.3407l-1.15525,0.79169c-3.20953,-0.01403 -7.05443,-0.39879 -8.16007,-3.49962c-1.43829,0.14844 -3.7963,0.628 -4.65507,-0.06625c-0.49111,-0.39703 -0.44301,-1.18414 -0.61814,-1.7909c-0.47412,-1.64258 -1.87622,-6.17272 -0.85601,-7.70134c0.23457,-0.35147 1.01683,-0.75428 1.83427,-1.10785l-0.0649,-0.32448c-0.10016,-0.50081 -0.53173,-2.50376 -0.43027,-2.82989c0.43214,-1.389 3.12514,-3.17527 4.02244,-4.52226c0,0 0.20422,-0.30632 0.55423,-0.45161c-0.74257,-2.02865 0.11393,-3.27283 2.67477,-3.79541z" fill="#81909d" stroke="none" stroke-width="0.5"/><path d="M295.47978,173.18014c0.29343,-0.17778 0.82685,-0.35993 1.36026,0.17349c0.79526,0.79526 0,1.59052 0,1.59052l-0.79752,0.438c-2.70403,0.2704 -4.04885,0.47693 -6.21854,-1.4144c0,0 -0.8464,-0.7406 -0.1058,-1.587c0.7406,-0.8464 1.587,-0.1058 1.587,-0.1058c1.56885,1.3786 2.25917,1.12142 4.1746,0.90519z" fill="#81909d" stroke="none" stroke-width="0.5"/><path d="M291.41764,181.65062c-0.30897,1.0814 -1.39037,0.77243 -1.39037,0.77243l-1.38996,-0.63494c-0.38249,-0.5224 -0.85106,-0.99097 -1.37346,-1.37346c0,0 -0.89973,-0.6748 -0.22493,-1.57454c0.6748,-0.89973 1.57454,-0.22493 1.57454,-0.22493c0.68311,0.52167 1.30166,1.14021 1.82333,1.82333l0.20843,-0.17825c0,0 1.0814,0.30897 0.77243,1.39037z" fill="#81909d" stroke="none" stroke-width="0.5"/><path d="M293.78297,182.66541c0.50297,-1.00593 1.5089,-0.50297 1.5089,-0.50297l0.27156,0.13697c0.75578,0.42602 1.3363,0.65046 2.06132,0.78287c0.08104,-0.01104 0.13259,-0.01104 0.13259,-0.01104c1.13083,0.00132 2.18885,0.12414 3.31322,0.00558l0.22608,-0.00558c0,0 1.12467,0 1.12467,1.12467c0,1.12467 -1.12467,1.12467 -1.12467,1.12467l-0.00226,-0.00558c-0.85311,0.08149 -1.66276,0.04987 -2.4906,0.02482c-0.29879,0.11822 -0.58749,0.08935 -0.58749,0.08935c-0.02126,-0.00221 -0.04242,-0.00446 -0.0635,-0.00675c-0.05452,0.00812 -0.11032,0.01233 -0.16711,0.01233c-0.1603,0 -0.31276,-0.03354 -0.45076,-0.09397c-1.10745,-0.17556 -1.99906,-0.49054 -3.06387,-1.0751l-0.18512,-0.09137c0,0 -1.00593,-0.50297 -0.50297,-1.5089z" fill="#81909d" stroke="none" stroke-width="0.5"/><text transform="translate(288.98285,186.66582) scale(0.5,0.5)" font-size="40" xml:space="preserve" fill="#ffffff" fill-rule="nonzero" stroke="none" stroke-width="1" stroke-linecap="butt" stroke-linejoin="miter" stroke-miterlimit="10" stroke-dasharray="" stroke-dashoffset="0" font-family="Sans Serif" font-weight="normal" text-anchor="start" style="mix-blend-mode: normal"><tspan x="0" dy="0">1</tspan></text></g></g></svg>