<svg version="1.1" xmlns="http://www.w3.org/2000/svg" xmlns:xlink="http://www.w3.org/1999/xlink" width="52.75" height="52.75" viewBox="0,0,52.75,52.75"><g transform="translate(-213.62503,-153.625)"><g data-paper-data="{&quot;isPaintingLayer&quot;:true}" fill-rule="nonzero" stroke-linecap="butt" stroke-linejoin="miter" stroke-miterlimit="10" stroke-dasharray="" stroke-dashoffset="0" style="mix-blend-mode: normal"><path d="M214.87503,205.125v-50.25h50.25v50.25z" fill="#7f7f7f" stroke="#5e5e5e" stroke-width="2.5"/><path d="M244.62901,168.64795c-2.40109,3.34861 -4.88231,6.88331 -7.63748,9.63848c-2.0369,4.0738 -5.73725,7.71549 -8.4,11.4c-0.87695,1.21345 -2.11669,2.03337 -2.8,3.4c-1.38556,1.38556 -2.65318,3.21311 -3.8,4.8c-0.25458,0.35226 -1.05843,0.32684 -1.05843,0.76147c0,0.46053 1.9778,0.94925 2.41146,0.59157c1.26427,-1.04278 2.89962,-2.96912 3.63011,-4.4301c2.15606,-2.1996 4.82976,-4.48798 6.6,-7c1.604,-2.27613 3.18997,-4.84271 5.2,-6.8c1.02721,-2.05441 3.08332,-3.73158 4.4,-5.6c2.21293,-3.14022 4.05526,-6.47722 6.37044,-9.55577c0.0694,-0.13641 1.29879,-1.67251 1.29767,-1.68556c-0.01363,-0.15992 -1.62386,-0.86818 -1.89016,-0.66748c-0.70673,0.53261 -1.40411,1.04535 -2.01443,1.61642c0.04626,0.31246 -0.1551,0.58093 -0.1551,0.58093c-0.54849,0.7286 -1.09814,1.48273 -1.65135,2.25045c-0.0072,0.02699 -0.01422,0.05414 -0.02104,0.08145l-0.39728,0.54843c0,0 -0.03059,0.03058 -0.08442,0.06972zM243.75899,167.3011c0.65878,-2.07917 2.47975,-4.1422 4.45459,-5.10586c1.09471,-0.53419 3.88465,0.2428 4.10984,1.73252c0.13741,0.90896 -1.13098,1.95683 -1.50233,2.71443c-2.32876,3.11162 -4.15839,6.50155 -6.42956,9.64424c-1.34321,1.85863 -3.37141,3.54282 -4.4,5.6c-4.20369,4.28859 -7.38047,9.49645 -11.8,13.8c-0.74123,1.48246 -3.38882,5.05719 -5.12659,5.30698c-1.06349,0.15287 -3.63184,-1.0481 -3.63184,-2.34552c0,-0.6915 0.98824,-1.13715 1.34157,-1.63854c1.12132,-1.59118 2.42359,-3.42359 3.8,-4.8c0.68438,-1.36876 1.94175,-2.18212 2.8,-3.4c2.63511,-3.73929 6.35156,-7.30312 8.4,-11.4c2.88482,-2.88482 5.48173,-6.6187 7.98431,-10.10825z" fill="#704f39" stroke="none" stroke-width="0.5"/><path d="M244.74176,168.53702l0.34058,-0.46606c0.00682,-0.02731 0.07051,-0.13685 0.07771,-0.16384c0.55321,-0.76772 1.10305,-1.52172 1.65154,-2.25032c0,0 0.20092,-0.26876 0.15467,-0.58122c0.61032,-0.57107 1.3091,-1.08282 2.01583,-1.61543c0.2663,-0.20069 1.87982,0.51018 1.89345,0.67011c0.00111,0.01306 -1.22804,1.54935 -1.29745,1.68576c-2.31518,3.07855 -4.15191,6.42133 -6.36484,9.56155c-1.31668,1.86841 -3.36187,3.57045 -4.38907,5.62486c-2.01003,1.95729 -3.66252,4.57783 -5.26652,6.85396c-1.77024,2.51202 -4.45463,4.795 -6.61069,6.99461c-0.73049,1.46098 -2.36691,3.38659 -3.63118,4.42937c-0.43366,0.35769 -2.41546,-0.13416 -2.41546,-0.5947c0,-0.43463 0.86886,-0.48518 1.12344,-0.83745c1.14682,-1.58688 2.34949,-3.33841 3.73505,-4.72397c0.68331,-1.36663 1.92269,-2.18687 2.79964,-3.40032c2.66275,-3.68452 6.41281,-7.41084 8.44971,-11.48465c2.75517,-2.75517 5.248,-6.28398 7.64909,-9.63259c0.05383,-0.03914 0.0845,-0.06967 0.0845,-0.06967z" data-paper-data="{&quot;noHover&quot;:false,&quot;origItem&quot;:[&quot;Path&quot;,{&quot;applyMatrix&quot;:true,&quot;segments&quot;:[[[242.54591,170.80006],[0.05383,-0.03914],[-2.40109,3.34861]],[[234.90843,180.43854],[2.75517,-2.75517],[-2.0369,4.0738]],[[226.50843,191.83854],[2.66275,-3.68452],[-0.87695,1.21345]],[[223.70843,195.23854],[0.68331,-1.36663],[-1.38556,1.38556]],[[219.90843,200.03854],[1.14682,-1.58688],[-0.25458,0.35226]],[[218.85,200.8],[0,-0.43463],[0,0.46053]],[[221.26147,201.39157],[-0.43366,0.35769],[1.26427,-1.04278]],[[224.89157,196.96147],[-0.73049,1.46098],[2.15606,-2.1996]],[[231.49157,189.96147],[-1.77024,2.51202],[1.604,-2.27613]],[[236.69157,183.16147],[-2.01003,1.95729],[1.02721,-2.05441]],[[241.09157,177.56147],[-1.31668,1.86841],[2.21293,-3.14022]],[[247.46201,168.0057],[-2.31518,3.07855],[0.0694,-0.13641]],[[248.75969,166.32014],[0.00111,0.01306],[-0.01363,-0.15992]],[[246.86953,165.65265],[0.2663,-0.20069],[-0.70673,0.53261]],[[244.8551,167.26907],[0.61032,-0.57107],[0.04626,0.31246]],[[244.7,167.85],[0,0],[-0.54849,0.7286]],[[243.04865,170.10045],[0.55321,-0.76772],[-0.0072,0.02699]],[[243.02761,170.1819],[0.00682,-0.02731],[0,0]],[242.63033,170.73033]],&quot;closed&quot;:true}]}" fill="#9a6d4e" stroke="none" stroke-width="0.5"/><path d="M250.58008,171.36619c0.02931,-0.02865 -0.00671,-0.13896 0.02269,-0.16856c0.13865,-0.24293 0.45616,-0.58163 0.81076,-0.95129c4.18717,2.4421 4.79472,5.90357 5.21497,9.89971c-0.85318,-2.18707 -2.10425,-4.2571 -3.12824,-5.53651c-0.85491,-1.06815 -1.79035,-1.61083 -2.35687,-2.88902z" data-paper-data="{&quot;noHover&quot;:false,&quot;origItem&quot;:[&quot;Path&quot;,{&quot;applyMatrix&quot;:true,&quot;segments&quot;:[[[499.66049,342.30794],[0,0],[1.54544,2.19205]],[[505.20098,346.83999],[-2.00917,-1.68867],[2.40653,2.02265]],[[513.14928,356.09253],[-2.42581,-3.79434],[-2.29025,-7.36018]],[[499.74897,339.58069],[8.79372,3.02298],[-0.52837,0.8285]],[[498.59747,341.65903],[0.16968,-0.50904],[-0.04421,0.06671]],[[498.46458,341.85644],[0.04439,-0.0649],[0,0]]],&quot;closed&quot;:true}]}" fill="#868686" stroke="none" stroke-width="0.5"/><path d="M256.18714,188.02095c0.07591,-0.38053 0.12106,-0.7321 0.14196,-1.06592c-0.31337,-1.91321 -1.24154,-5.59285 0.0955,-6.04496c1.11311,-0.3764 1.96036,1.13137 2.15249,1.8681c0.43333,1.6616 0.10234,3.4599 -0.58791,5.03795l0.05877,0.4225c0,0 0.059,0.47008 -0.28076,0.72435l-0.03463,0.17362c-0.08448,0.42351 -0.49628,0.69833 -0.91978,0.61386c-0.37694,-0.07519 -0.63609,-0.40967 -0.62897,-0.78091l-0.00043,-0.87152l0.03483,-0.00001z" fill="#777777" stroke="none" stroke-width="0.5"/><path d="M251.11374,168.4702c-0.65038,0.43406 -1.08445,-0.21632 -1.08445,-0.21632l-0.18566,-0.39208c-2.1159,-1.38986 -5.57954,-1.664 -7.20606,-3.43166c-2.83173,-1.81223 -5.53726,-2.42677 -8.74418,-3.05947c-0.09215,-0.01818 -1.73212,-0.34454 -1.77885,-0.35871c-0.37556,-0.11388 -0.90051,-0.98532 -1.00821,-0.60794c-0.16946,0.59377 -0.26487,1.42203 -0.5628,2.13806c0,0 -0.30038,0.72193 -1.0223,0.42155c-0.72193,-0.30038 -0.42154,-1.0223 -0.42154,-1.0223c0.18373,-0.44158 0.86532,-2.67365 1.13854,-2.83807c0.73968,-0.44515 2.32905,0.4101 3.10908,0.56383c3.77975,0.74496 7.0058,1.3938 10.30834,3.57597c1.42745,1.64536 5.06055,2.027 7.04162,3.30843l0.63281,0.83429c0,0 0.43406,0.65038 -0.21632,1.08444z" fill="#969696" stroke="none" stroke-width="0.5"/><path d="M247.28033,165.53033c-0.53033,0.53033 -1.06066,0 -1.06066,0l-0.403,-0.41366c-0.00341,-0.005 -0.00685,-0.00999 -0.01031,-0.01497c-0.14897,-0.00548 -0.31332,-0.02303 -0.49861,-0.05999c-1.16624,-0.23264 -2.06348,-1.18954 -3.00145,-1.994c-1.47357,-0.47716 -3.04988,-0.78103 -4.10334,-0.99547c-1.76052,-0.69758 -5.93933,-2.18174 -8.11825,-1.8372c-0.41725,0.78912 -0.89594,1.86846 -0.89794,2.5636c-0.00038,0.13112 3.406,0.16353 3.80624,0.11329c1.84526,-0.2316 3.85134,0.46155 5.66902,0.82414c0.99388,0.19826 4.46729,1.0142 4.94534,2.01732c0.24853,0.52148 0.34906,1.22596 0.06972,1.7316c-0.10714,0.19393 -0.45125,0.33034 -0.78932,0.38633c0.63833,0.52953 1.45853,1.50615 1.61895,1.62986c1.93264,1.49031 2.92083,2.75884 4.88494,0.80881c0.09537,-0.1671 0.96424,-1.38796 1.6098,-1.91716c-0.26379,-0.09013 -0.53217,-0.22979 -0.65674,-0.36386c-0.73844,-0.79482 -1.3203,-1.74451 -2.29106,-2.5006c-0.20985,-0.16345 -0.39062,-0.27497 -0.55349,-0.34942c-0.02752,0.11903 -0.09366,0.24521 -0.21984,0.37138zM228.73846,165.3172c1.21751,-0.46976 2.32311,-0.03992 3.75211,0.10312c2.45753,0.24599 4.90734,0.13757 7.35174,0.32035c-0.44489,-0.19823 -0.89758,-0.37353 -1.48619,-0.49094c-2.70447,-0.53948 -5.00732,-0.66281 -7.6963,-0.74819c-0.6646,-0.0211 -1.31272,0.02328 -1.86429,-0.17099c0.00706,0.36393 -0.00393,0.70179 -0.05707,0.98666zM232.34276,166.91302c-1.15306,-0.11521 -2.50809,-0.8083 -3.4761,0.02032l-0.66061,0.49545c-0.12637,0.09693 -0.28449,0.15455 -0.45606,0.15455c-0.41421,0 -0.75,-0.33579 -0.75,-0.75v-0.83333h0.14612c-0.29089,-2.4594 -0.12558,-6.10762 1.79776,-7.01801c0.01692,-0.00801 0.03404,-0.01584 0.05136,-0.0235c0.01398,-0.02534 0.02739,-0.04954 0.0402,-0.07255c0,0 0.27172,-0.47609 0.75876,-0.4035c0.27582,-0.20109 0.63548,-0.12935 0.63548,-0.12935l0.00527,0.04197c3.51297,-0.44092 7.26422,0.2765 10.33978,2.0319c0.78877,0.17923 1.46575,0.71048 2.12341,1.28541c1.2557,0.43773 2.45648,1.00155 3.35331,1.73689c0.35365,-0.08272 0.7288,-0.20011 0.99784,-0.14645c0.54468,0.10865 1.08145,0.39001 1.58907,0.7633l0.58728,0.27324c0.86981,0.97115 1.84439,2.12535 3.0589,2.5924c0,0 0.0784,0.03262 0.17277,0.1022c0.21463,0.02694 0.39899,0.20769 0.50533,0.79305c0.06196,0.34106 -0.2338,0.80975 -0.64615,1.30214c5.36301,3.40267 5.22831,8.06109 5.95176,13.82503c-0.20028,1.06575 -0.41432,2.12861 -0.62644,3.19206l-0.15295,0.76681c-0.08448,0.42351 -0.49628,0.69833 -0.91978,0.61386c-0.4235,-0.08448 -0.69833,-0.49627 -0.61386,-0.91978l0.15296,-0.76681c0.02777,-0.13925 0.05545,-0.27854 0.08309,-0.41781c-0.79152,-1.20706 -1.24965,-3.96381 -1.55765,-5.1073c-0.84479,-3.13642 -3.84528,-4.8031 -4.89543,-7.60334l-0.51642,-0.24602c0,0 -0.08766,-0.05003 -0.182,-0.14562c-2.29234,1.24616 -4.33301,-0.25321 -6.4248,-2.32835c-0.45906,-0.45542 -2.33094,-2.00589 -2.21269,-2.67947c-2.74323,-0.3083 -5.49996,-0.12366 -8.25952,-0.39939zM251.1122,171.67878c0.56651,1.27819 1.51529,1.81366 2.37021,2.88181c1.02399,1.2794 2.26656,3.35343 3.11974,5.5405c-0.42025,-3.99614 -0.97944,-7.36539 -5.1666,-9.80749c-0.3546,0.36966 -0.66194,0.70212 -0.80059,0.94505c-0.0294,0.02959 -0.05875,0.05871 -0.08806,0.08737z" fill="#777777" stroke="none" stroke-width="0.5"/><path d="M238.99026,165.69193c-2.16505,-0.10557 -4.39178,-0.04528 -6.54859,-0.26116c-0.01107,-0.00111 -0.02212,-0.00223 -0.03315,-0.00338c-0.96518,0.05009 -2.60497,0.2404 -3.42712,-0.2043c-0.09705,0.02672 -0.1946,0.05873 -0.29287,0.09664c0.01651,-0.08853 0.02899,-0.18303 0.03813,-0.28217c-0.01998,-0.0199 -0.03888,-0.04058 -0.05666,-0.06207c-0.43166,-0.52181 -0.104,-1.70096 0.01124,-2.28925c0,0 0.1021,-0.5105 0.5615,-0.59578c0.19833,-0.73828 0.63402,-1.62019 0.96684,-2.21373l0.37504,0.04383c3.28123,-0.41183 6.77452,0.28117 9.64432,1.91912c1.91637,0.31408 3.16747,2.80642 5.13081,3.19805c1.30889,0.26109 1.57353,-0.44213 2.74605,0.4711c0.97076,0.75609 1.55107,1.71802 2.28949,2.51285c0.12456,0.13409 0.39272,0.27459 0.65652,0.36473c-0.64556,0.5292 -1.51855,1.76064 -1.61392,1.92775c-1.96411,1.95002 -2.96008,0.69261 -4.89274,-0.7977c-0.16042,-0.12371 -1.05848,-1.16965 -1.69681,-1.69918c0.12132,-0.02009 0.24266,-0.04946 0.35332,-0.08781c-1.4083,-0.72215 -2.58517,-1.60275 -4.21139,-2.03754zM229.83001,164.02451c0.05452,0.06091 0.40904,0.07199 0.88165,0.05883h-0.46166v0c-0.18287,0 -0.35046,-0.06545 -0.48061,-0.17421c0.00903,0.04069 0.02834,0.07931 0.06062,0.11538z" fill="#868686" stroke="none" stroke-width="0.5"/><path d="M228.91667,165.91667c-0.75,0 -0.75,-0.75 -0.75,-0.75l0.05365,-0.44521c0.50522,-1.20027 0.54906,-2.7932 0.81078,-4.10183c0.96498,-1.89503 2.64547,-1.39862 4.53266,-1.02173c3.80513,0.75994 7.27308,2.66208 10.79812,4.03907c0,0 0.69636,0.27854 0.41781,0.9749c-0.27855,0.69636 -0.9749,0.41781 -0.9749,0.41781c-3.24813,-1.32381 -6.34509,-2.78296 -9.7685,-3.81078c-0.77074,-0.2314 -3.5118,-0.85037 -3.56739,-0.17186c-0.27734,1.38673 -0.3533,2.926 -0.85588,4.2315l0.05364,-0.11188c0,0 0,0.75 -0.75,0.75z" fill="#969696" stroke="none" stroke-width="0.5"/><path d="M247.83333,164.33333c0,0.75 -0.75,0.75 -0.75,0.75h-0.16667c-0.60759,-0.00244 -1.21749,-0.06443 -1.81375,-0.18123c0,0 -0.36739,-0.07348 -0.5309,-0.37624c-4.74916,-1.2954 -8.29464,-4.58824 -13.41478,-4.61285c-2.21744,0.38732 -2.59934,3.45742 -2.65061,5.52306c0.42849,-0.14454 0.87691,-0.22763 1.42962,-0.33818l0.81375,-0.01456c0,0 0.75,0 0.75,0.75c0,0.75 -0.75,0.75 -0.75,0.75l-0.51958,-0.01456c-0.83245,0.16649 -1.36546,0.16964 -2.03042,0.6979c0,0 -0.6,0.45 -1.05,-0.15c-0.18715,-0.24954 -0.19269,-0.47313 -0.1353,-0.64919c-0.0147,-0.07963 -0.0147,-0.13414 -0.0147,-0.13414v-0.16667c0.01215,-3.02093 0.52364,-6.99938 4.00943,-7.74635c1.79653,-0.00723 3.70496,-0.19621 5.38003,0.56167c3.0324,1.37199 5.98453,3.66434 9.34096,4.28258c0,0 0.29301,0.0586 0.47214,0.28677c0.23756,0.0223 0.47613,0.03314 0.7141,0.03199h0.16667c0,0 0.75,0 0.75,0.75z" fill="#777777" stroke="none" stroke-width="0.5"/><path d="M229.56535,189.6678c0.33541,-0.67082 1.00623,-0.33541 1.00623,-0.33541l0.27647,0.14113c0.27778,0.11111 0.55556,0.22222 0.83333,0.33333c0,0 0.28747,0.11499 0.41912,0.3819c0.85892,-1.01495 1.7155,-2.04199 2.53567,-3.13554c0.47792,-0.29586 -1.69604,-2.14884 -2.10531,-2.13433c-1.25465,0.04448 -1.09761,1.78123 -1.43103,2.11466c-0.25833,0.25833 -0.74928,-0.11154 -1.09599,0.00361c-0.82297,0.27331 -1.30257,2.44375 -1.55616,3.03656c-0.27494,0.64271 -1.61897,1.6041 -2.57592,2.21294c-0.18753,0.23547 -0.3811,0.46678 -0.58256,0.69266c0.0101,0.06352 0.0202,0.12704 0.0303,0.19056l0.16603,-0.2907c0,0 0.62404,0.41603 0.20801,1.04006c-0.41603,0.62404 -1.04006,0.20801 -1.04006,0.20801l-0.23253,-0.26693c-0.69551,0.64545 -1.8845,1.75029 -1.79597,2.44039c0.05222,0.40711 0.75952,0.31888 1.11113,0.53062c0.17258,0.06991 2.47231,1.34982 2.47617,1.34576c0.33386,-0.35179 0.679,-0.87272 1.02668,-1.44321c-0.23326,-0.17789 -0.46652,-0.35578 -0.69979,-0.53367l-0.56967,-0.747c0,0 -0.45,-0.6 0.15,-1.05c0.6,-0.45 1.05,0.15 1.05,0.15l0.43033,0.58634c0.13619,0.09996 0.27239,0.19991 0.40858,0.29987c0.26852,-0.44819 0.53469,-0.87323 0.79442,-1.21954c0.77673,-1.03564 1.59248,-2.01671 2.41685,-2.99173c-0.05919,-0.0141 -0.0954,-0.02858 -0.0954,-0.02858c-0.27778,-0.11111 -0.55556,-0.22222 -0.83333,-0.33333l-0.3902,-0.1922c0,0 -0.67082,-0.33541 -0.33541,-1.00623zM230.16116,184.95151c0.41351,-0.35709 0.98097,-0.80258 1.15652,-0.90401c2.04149,-1.17954 5.82605,1.65941 4.51849,3.90572c-2.0575,2.74333 -4.29248,5.11219 -6.33333,7.83333c-0.53733,0.71643 -1.89319,3.36765 -2.5761,3.70946c-1.18777,0.59449 -2.85226,-0.92447 -3.85717,-1.32091c-0.42955,-0.25697 -1.74823,-0.95526 -1.88887,-1.46938c-0.22291,-0.81486 0.82787,-2.37197 1.28881,-2.98583c2.07745,-2.76666 4.43859,-6.10656 6.903,-8.58033c0,0 0.36299,-0.36299 0.78866,-0.18804z" fill="#bebaa7" stroke="none" stroke-width="0.5"/><path d="M229.94161,190.64521l0.39547,0.20173c0.27778,0.11111 0.55894,0.23452 0.83672,0.34563c0,0 0.03631,0.01528 0.0955,0.02939c-0.82438,0.97502 -1.68711,2.01222 -2.46384,3.04786c-0.25974,0.34631 -0.53681,0.77073 -0.80533,1.21892c-0.13619,-0.09996 -0.27829,-0.20128 -0.41448,-0.30123l-0.43839,-0.5895c0,0 -0.46101,-0.60744 -1.06101,-0.15744c-0.6,0.45 -0.08836,0.9715 -0.08836,0.9715l0.56205,0.74267c0.23326,0.17789 0.459,0.35305 0.69226,0.53094c-0.34768,0.57049 -0.7234,1.18653 -1.05725,1.53833c-0.00385,0.00406 -2.32035,-1.28618 -2.49293,-1.35609c-0.35161,-0.21173 -1.06409,-0.12915 -1.11632,-0.53626c-0.08852,-0.69011 1.09585,-1.80193 1.79136,-2.44739l0.31847,0.21594c0,0 0.54292,0.47428 0.95895,-0.14975c0.41603,-0.62404 -0.21506,-1.05194 -0.21506,-1.05194l-0.07493,0.24955c-0.0101,-0.06352 -0.11121,-0.08568 -0.12132,-0.1492c0.20146,-0.22588 0.39272,-0.46393 0.58025,-0.6994c0.95695,-0.60884 2.34212,-1.6325 2.61705,-2.27521c0.25359,-0.59282 0.75466,-2.7617 1.57762,-3.03501c0.34671,-0.11514 0.84716,0.25865 1.10549,0.00032c0.33342,-0.33342 0.17783,-2.06937 1.43248,-2.11385c0.40927,-0.01451 2.59798,1.8516 2.12006,2.14745c-0.82017,1.09356 -1.6702,2.13227 -2.52912,3.14722c-0.13165,-0.26691 -0.50893,-0.33854 -0.50893,-0.33854c-0.27778,-0.11111 -0.54851,-0.21278 -0.82629,-0.32389l-0.27284,-0.13767c0,0 -0.65983,-0.32822 -0.99524,0.3426c-0.33541,0.67082 0.39791,0.93233 0.39791,0.93233z" data-paper-data="{&quot;noHover&quot;:false,&quot;origItem&quot;:[&quot;Path&quot;,{&quot;applyMatrix&quot;:true,&quot;segments&quot;:[[[229.56535,189.6678],[-0.33541,0.67082],[0.33541,-0.67082]],[230.57158,189.33239],[[230.84804,189.47352],[0,0],[0.27778,0.11111]],[[231.68138,189.80686],[-0.27778,-0.11111],[0,0]],[[232.1005,190.18876],[-0.13165,-0.26691],[0.85892,-1.01495]],[[234.63617,187.05321],[-0.82017,1.09356],[0.47792,-0.29586]],[[232.53086,184.91889],[0.40927,-0.01451],[-1.25465,0.04448]],[[231.09983,187.03354],[0.33342,-0.33342],[-0.25833,0.25833]],[[230.00384,187.03715],[0.34671,-0.11514],[-0.82297,0.27331]],[[228.44768,190.07372],[0.25359,-0.59282],[-0.27494,0.64271]],[[225.87176,192.28666],[0.95695,-0.60884],[-0.18753,0.23547]],[[225.2892,192.97932],[0.20146,-0.22588],[0.0101,0.06352]],[[225.3195,193.16988],[-0.0101,-0.06352],[0,0]],[225.48553,192.87918],[[225.69354,193.91924],[0.41603,-0.62404],[-0.41603,0.62404]],[224.65348,194.12725],[[224.42095,193.86032],[0,0],[-0.69551,0.64545]],[[222.62498,196.30071],[-0.08852,-0.69011],[0.05222,0.40711]],[[223.73611,196.83133],[-0.35161,-0.21173],[0.17258,0.06991]],[[226.21227,198.17709],[-0.00385,0.00406],[0.33386,-0.35179]],[[227.23896,196.73388],[-0.34768,0.57049],[-0.23326,-0.17789]],[[226.53917,196.20021],[0.23326,0.17789],[0,0]],[225.9695,195.45321],[[226.1195,194.40321],[-0.6,0.45],[0.6,-0.45]],[227.1695,194.55321],[[227.59983,195.13955],[0,0],[0.13619,0.09996]],[[228.00841,195.43942],[-0.13619,-0.09996],[0.26852,-0.44819]],[[228.80283,194.21988],[-0.25974,0.34631],[0.77673,-1.03564]],[[231.21969,191.22816],[-0.82438,0.97502],[-0.05919,-0.0141]],[[231.12429,191.19957],[0,0],[-0.27778,-0.11111]],[[230.29096,190.86624],[0.27778,0.11111],[0,0]],[229.90076,190.67403]],&quot;closed&quot;:true}]}" fill="#e9e5cd" stroke="none" stroke-width="0.5"/></g></g></svg>