<svg version="1.1" xmlns="http://www.w3.org/2000/svg" xmlns:xlink="http://www.w3.org/1999/xlink" width="38.43928" height="38.04576" viewBox="0,0,38.43928,38.04576"><g transform="translate(-220.76292,-161.01718)"><g data-paper-data="{&quot;isPaintingLayer&quot;:true}" fill-rule="nonzero" stroke-width="1.5" stroke-linecap="round" stroke-linejoin="miter" stroke-miterlimit="10" stroke-dasharray="" stroke-dashoffset="0" style="mix-blend-mode: normal"><path d="M252.77276,184.77273l-14.81818,-0.09091" data-paper-data="{&quot;index&quot;:null}" fill="#72987f" stroke="#6f937c"/><path d="M238.59092,178.86363l18.09091,-0.18182" data-paper-data="{&quot;index&quot;:null}" fill="#72987f" stroke="#6f937c"/><path d="M221.68185,175.04545l11.36364,0.27273" data-paper-data="{&quot;index&quot;:null}" fill="#72987f" stroke="#6f937c"/><path d="M249.1364,175.77273h-11.45455" data-paper-data="{&quot;index&quot;:null}" fill="#72987f" stroke="#6f937c"/><path d="M226.77277,166.86363l11.54545,-0.0909" data-paper-data="{&quot;index&quot;:null}" fill="#72987f" stroke="#6f937c"/><path d="M255.86367,191.86363l-14.36364,-0.18182" data-paper-data="{&quot;index&quot;:null}" fill="#72987f" stroke="#6f937c"/><path d="M234.86367,197.13636l15.72727,0.09091" data-paper-data="{&quot;index&quot;:null}" fill="#72987f" stroke="#6f937c"/><path d="M227.04549,192.04545l8.90909,0.18182" data-paper-data="{&quot;index&quot;:null}" fill="#72987f" stroke="#6f937c"/><path d="M228.95457,179.22727h5.36364" data-paper-data="{&quot;index&quot;:null}" fill="#72987f" stroke="#6f937c"/><path d="M221.51293,171.23213l14.36364,-0.09091" fill="none" stroke="#516c5a"/><path d="M230.69475,184.14122h11.45454" fill="none" stroke="#516c5a"/><path d="M241.51293,193.14122l11.54546,-0.0909" fill="none" stroke="#516c5a"/><path d="M249.96746,196.86849l-10.54546,-0.09091" fill="none" stroke="#516c5a"/><path d="M252.78566,167.86849l-8.90909,-0.18182" fill="none" stroke="#516c5a"/><path d="M245.51293,180.68667h5.36364" fill="none" stroke="#516c5a"/><path d="M221.56253,170.4375l6.875,-8.625l10.125,0.875l7,3.625l6.875,-3.125l4.5,2.5l1.5,8.75l-1.875,8.125l1.75,15.375l-13.75,0.375l-14.625,-0.625l-7.875,0.5l0.625,-9l-0.875,-5.75z" fill="#668872" stroke="#4c6655"/><path d="M245.06253,197.5625l0.25,-5.625l2,-7.5" fill="none" stroke="#4c6655"/><path d="M245.56253,177.5625l-5.75,0.625l-7.125,3.875l-10.5,-5l0.37497,-2.875l21.75,-4.25l1,2.375z" fill="#516c5a" stroke="#4c6655"/><path d="M222.0625,182.8125l1.125,-5l9.87503,5v6.125l-2.75,2.125l-7.125,-2z" fill="#516c5a" stroke="#4c6655"/><path d="M236.68753,197.0625l-3.125,-8.25" fill="none" stroke="#4c6655"/><path d="M255.81253,183.0625l-3.625,3.75l-5.25,-2.5l-2,-13.25l-6.125,1.5l-6,4.375l-10.5,-2.25l-0.75,-3.875l6.25,-9l10,1.125l7.125,3l7.25,-2.625l4.25,3l0.25,4.75l-7.125,1.75l-4.375,-2l0.125,-3.875" fill="#6f937c" stroke="#4c6655"/><path d="M255.8125,181.9375l-5.875,-8.875" fill="none" stroke="#4c6655"/></g></g></svg>