<svg version="1.1" xmlns="http://www.w3.org/2000/svg" xmlns:xlink="http://www.w3.org/1999/xlink" width="30.02351" height="47.40029" viewBox="0,0,30.02351,47.40029"><g transform="translate(-224.21811,-141.50989)"><g data-paper-data="{&quot;isPaintingLayer&quot;:true}" fill-rule="nonzero" stroke-linecap="butt" stroke-linejoin="miter" stroke-miterlimit="10" stroke-dasharray="" stroke-dashoffset="0" style="mix-blend-mode: normal"><path d="M247.38231,165.17971c0.0781,0.04241 0.12494,0.0814 0.12494,0.0814l0.4584,0.39831c3.94891,2.21204 5.67837,5.68107 1.95523,9.21343c-0.68316,0.93421 -1.35257,1.79047 -2.25243,2.53266c-1.89395,1.5621 -5.02412,1.94795 -5.49519,-1.24761c-0.3395,-2.30303 1.26774,-5.05624 3.24775,-6.166l-0.15513,-0.41535l0.04631,-0.0173c-0.79486,-0.58098 -1.53874,-1.34913 -1.47794,-2.14755c0.04001,-0.52546 1.88996,-2.54458 2.28113,-2.96939c0,0 0.51108,-0.54892 1.05999,-0.03785c0.2996,0.27894 0.28342,0.56916 0.20693,0.77525z" data-paper-data="{&quot;index&quot;:null}" fill="#baab00" stroke="none" stroke-width="0.5"/><path d="M246.32963,164.41614c0.47984,-0.57643 1.05625,-0.09659 1.05625,-0.09659l-0.01595,0.03679c4.27862,1.67162 7.97616,4.64042 4.59764,9.22147c0,0 -0.08228,0.11155 -0.22404,0.20338c-1.10935,2.43971 -3.14417,4.92656 -5.82367,5.60241c-3.25264,0.8204 -4.42418,-2.96192 -3.8681,-5.3553c0.42555,-1.74818 1.55156,-3.22381 2.76207,-4.52737l0.28737,-0.2092c0,0 0.63749,-0.39511 1.0326,0.24238c0.3951,0.63749 -0.24239,1.0326 -0.24239,1.0326l0.02025,-0.04364c-1.01516,1.08721 -2.07005,2.37295 -2.3996,3.84803c-0.28255,1.18974 -0.0391,4.1896 2.02803,3.56138c2.45436,-0.7459 4.18539,-3.03976 5.06789,-5.31447c0,0 0.15129,-0.38723 0.5169,-0.47245c2.01616,-3.32796 -1.10284,-5.14261 -4.30083,-6.39205l-0.39786,-0.28111c0,0 -0.57642,-0.47983 -0.09658,-1.05625z" data-paper-data="{&quot;index&quot;:null}" fill="#8c7a00" stroke="none" stroke-width="0.5"/><path d="M247.40968,165.86269l0.22202,0.55164c0.3528,0.82264 0.66968,1.66413 0.9845,2.50195c0.09274,0.32503 0.21623,0.76915 0.34754,1.28977c-0.97178,0.6283 -1.76264,1.56846 -2.20101,2.68983l-0.01569,-0.0267l0.02133,-0.00271l-0.10724,-0.87454c-0.04137,-0.37508 -0.3556,-0.66189 -0.74171,-0.66189c-0.41421,0 -0.67366,0.2712 -0.67366,0.68542c0,0.02059 0.00106,0.04126 0.00269,0.06144l0.11198,1.49699l0.00139,-0.0001c-0.00029,0.00233 -0.00056,0.00471 -0.00084,0.00704c-0.07794,0.63347 -0.02489,1.6736 0.172,2.71912c0.10401,1.38967 0.20453,2.80155 0.16076,4.19191c-0.81514,0.15964 -1.61255,0.35274 -2.29191,0.80566c-0.85057,0.56705 -0.8286,1.91115 -1.52155,2.66271c-0.37436,0.40601 -0.95117,0.60008 -1.46755,0.84717c0.0427,-1.17994 0.01421,-2.21293 -0.26105,-3.31527c0,-0.00108 -0.00249,-0.10212 -0.00249,-0.1032l0.00068,-0.00552l0.2162,-0.02416l-0.10379,-0.89121c-0.03709,-0.37956 -0.36753,-0.67666 -0.75683,-0.67666c-0.38611,0 -0.71144,0.29006 -0.75281,0.66515l-0.08158,0.78312l0.01936,0.00239l-0.02378,0.04401c-0.00106,0.7657 0.44803,5.89013 -0.33717,6.11797c-0.6911,0.20053 -2.04586,-0.09545 -2.74506,-0.16588c-0.35774,-0.0503 -0.83859,0.18103 -1.08457,-0.08354c-0.13104,-0.14095 -0.02285,-2.34947 -0.04486,-2.67461c-0.18125,-2.67748 -0.26968,-5.56445 0.0847,-8.22292c0.09231,-0.69248 0.36997,-1.57377 0.34453,-2.29802c0.06557,-0.3591 0.14457,-0.72438 0.22243,-1.08091l-0.03361,-0.08215l0.03843,-0.00015l0.00303,-0.78154c0,-0.41421 -0.26131,-0.68326 -0.67553,-0.68326c-0.36345,0 -0.66274,0.2538 -0.73157,0.597l-0.21574,0.98024l0.16878,0.03782c-0.03196,0.14554 -0.0614,0.2887 -0.09082,0.43482c-0.02741,0.08471 -0.05373,0.16969 -0.07898,0.25498c-0.11298,-1.69228 -0.77728,-3.39479 -1.79669,-4.92394c0.24087,-0.55086 0.50749,-1.09023 0.79489,-1.61576c0.27003,-0.05499 0.45267,-0.26739 0.45267,-0.26739c2.11199,-2.50239 7.13949,-1.1705 10.0579,-1.30226c1.38768,-0.06265 2.95391,-0.30772 4.24632,0.28018z" data-paper-data="{&quot;noHover&quot;:false,&quot;origItem&quot;:[&quot;Path&quot;,{&quot;applyMatrix&quot;:true,&quot;segments&quot;:[[[496.43499,290.36259],[0,0],[-2.5848,-1.17581]],[[487.97232,289.8161],[2.77535,-0.1253],[-5.83683,0.26353]],[[467.94253,292.40451],[4.22399,-5.00478],[0,0]],[[467.04065,292.93661],[0.54007,-0.10999],[-2.58686,4.73015]],[[462.74809,308.31721],[-0.00361,-5.42119],[0.00052,0.7823]],[[463.40716,313.95383],[-0.99603,-0.56354],[2.47697,1.40145]],[[467.85663,312.01728],[-0.68556,1.91418],[0.16213,-2.29009]],[[469.04847,305.38632],[-0.68063,2.10294],[0.05884,-0.29223]],[[469.23279,304.51134],[-0.06392,0.29109],[0,0]],[468.89492,304.43626],[[469.33295,302.4651],[0,0],[0.13765,-0.68639]],[[470.80364,301.26165],[-0.7269,0],[0.82843,0]],[[472.30364,302.76165],[0,-0.82843],[0,0]],[472.30364,304.31721],[472.22701,304.31721],[[472.29469,304.48088],[0,0],[-0.15574,0.71307]],[[471.85883,306.6273],[0.13113,-0.71819],[0.05089,1.4485]],[[471.17926,311.18297],[0.18462,-1.38496],[-0.70876,5.31694]],[[470.96654,327.54421],[-0.3625,-5.35496],[0.04402,0.65029]],[[471.04523,332.88685],[-0.26208,-0.2819],[0.49196,0.52915]],[[473.2066,333.05036],[-0.71548,-0.10061],[1.3984,0.14085]],[[478.67406,333.37583],[-1.38221,0.40107],[1.57041,-0.45568]],[[479.30654,321.33511],[-0.00212,1.5314],[0,0]],[479.35432,321.24715],[479.31523,321.24227],[[479.53498,319.48423],[0,0],[0.08274,-0.75016]],[[481.02587,318.15054],[-0.77221,0],[0.7786,0]],[[482.51869,319.50288],[-0.07417,-0.75912],[0,0]],[482.73891,321.48489],[482.30218,321.53342],[[482.3008,321.54447],[0,0],[0.00001,0.00215]],[[482.30082,321.55093],[-0.00001,-0.00215],[0.68633,2.74861]],[[482.74519,330.18819],[0.16737,-3.1557],[-0.013,0.24515]],[[482.50156,330.95975],[0.12905,-0.26423],[-0.0751,0.68836]],[[482.14107,332.91845],[0.1698,-0.61036],[0.72575,0.49101]],[[486.3685,333.26168],[-0.39266,-0.00064],[0.77885,0.00126]],[[492.12257,333.34191],[-0.47462,0.33694],[1.35326,-0.96069]],[[493.08432,322.66845],[-0.00313,1.78255],[0.46966,-3.75727]],[[492.96593,311.26793],[0.28561,3.81615],[-0.39377,-2.09104]],[[492.63336,305.8747],[-0.15588,1.26694],[0.00057,-0.00467]],[[492.63509,305.8607],[-0.00058,0.00467],[0,0]],[492.63231,305.8609],[[492.41967,302.88397],[0,0],[-0.00326,-0.04034]],[[492.41476,302.76165],[0,0.04118],[0,-0.82843]],[[493.91476,301.26165],[-0.82843,0],[0.77221,0]],[[495.40564,302.59534],[-0.08274,-0.75016],[0,0]],[495.62539,304.35338],[495.58269,304.35872],[[495.63408,304.44622],[0,0],[0.00057,1.90117]],[[495.88986,310.1828],[-0.13802,-1.91996],[0.78614,3.33805]],[[499.49447,315.31377],[-1.84568,1.41247],[3.93334,-3.01012]],[[499.15688,296.56475],[1.08818,3.81386],[-0.62963,-1.67564]],[[497.2027,291.57475],[0.70559,1.64528],[0,0]],[496.76188,290.47383]],&quot;closed&quot;:true}]}" fill="#baab00" stroke="none" stroke-width="0.5"/><path d="M234.43561,184.99675c1.44072,0.00784 2.96493,0.04817 4.39988,0.09106c-0.01027,1.1559 -0.11829,2.19616 -0.45674,2.29437c-0.6911,0.20053 -2.11251,-0.08547 -2.8117,-0.15589c-0.35774,-0.0503 -0.8445,0.16785 -1.09048,-0.09672c-0.09627,-0.10354 -0.05802,-1.36496 -0.04095,-2.13281z" data-paper-data="{&quot;noHover&quot;:false,&quot;origItem&quot;:[&quot;Path&quot;,{&quot;applyMatrix&quot;:true,&quot;segments&quot;:[[[234.52262,187.11009],[-0.09627,-0.10354],[0.24598,0.26458]],[[235.6033,187.19185],[-0.35774,-0.0503],[0.6992,0.07043]],[[238.33703,187.35458],[-0.6911,0.20053],[0.33846,-0.09821]],[[238.791,185.11062],[-0.01027,1.1559],[-1.43496,-0.04289]],[[234.47923,185.02116],[1.44072,0.00784],[-0.01706,0.76785]]],&quot;closed&quot;:true}]}" fill="#9e8a00" stroke="none" stroke-width="0.5"/><path d="M233.52424,173.35984c0.02942,-0.14611 0.0602,-0.29195 0.09216,-0.43749l-0.16893,-0.03754l0.21902,-0.98558c0.06882,-0.34319 0.37189,-0.60172 0.73534,-0.60172c0.41421,0 0.75,0.33579 0.75,0.75v0.77778h-0.03832l0.03384,0.08184c-0.07787,0.35653 -0.15236,0.71411 -0.21793,1.07321c0.02544,0.72425 -0.24748,1.58536 -0.33978,2.27784c-0.31415,2.35665 -0.29734,4.85962 -0.16322,7.26273c1.44918,0.00713 2.89374,0.04583 4.33712,0.08891c-0.04066,-1.04642 -0.11067,-1.97952 -0.11026,-2.27557l0.02389,-0.04398l-0.01954,-0.00244l0.10988,-0.87902c0.04137,-0.37508 0.35933,-0.66685 0.74544,-0.66685c0.3893,0 0.70933,0.29661 0.74641,0.67617l0.11011,0.99101l-0.21837,0.02426l-0.00069,0.00552c0,0.00108 0.00001,0.00215 0.00001,0.00323c0.1824,0.73046 0.25731,1.45872 0.27491,2.21767c0.55066,0.0162 1.10133,0.03151 1.65222,0.04442c-0.05904,0.09085 -0.12418,0.17672 -0.19727,0.25599c-0.65792,0.71356 -1.94117,0.77245 -2.42272,1.61515c-0.39621,0.69336 0.19194,1.59566 0.13289,2.39205c-0.0086,0.11595 -0.05353,0.23419 -0.12135,0.35381c-0.00225,-0.00093 -0.0045,-0.00186 -0.00674,-0.00279c-0.15559,0.17206 -0.33798,0.31484 -0.5513,0.42196c-0.74974,0.37652 -2.68004,0.02083 -3.48849,-0.05948c-0.53305,-0.07716 -1.67093,-0.17692 -2.03043,-0.58491c-0.646,-0.73316 -0.406,-3.53651 -0.40698,-4.49296c-0.00153,-1.47984 -0.10207,-3.06778 -0.11617,-4.65762c-0.04549,0.03337 -0.0918,0.06518 -0.13895,0.09535c0.30903,-1.43073 0.51122,-2.74521 0.67178,-3.65995c0.10887,-0.62022 0.13163,-1.25068 0.07847,-1.88189c0.01433,-0.0465 0.02898,-0.09287 0.04394,-0.13911zM234.52263,187.11011c0.24598,0.26458 0.72295,0.03145 1.08068,0.08175c0.6992,0.07043 2.04263,0.36327 2.73373,0.16274c0.33846,-0.09821 0.44369,-1.08806 0.45397,-2.24396c-1.43496,-0.04289 -2.87105,-0.08162 -4.31177,-0.08946c-0.01706,0.76785 -0.05288,1.98539 0.04339,2.08893z" fill="#8c7a00" stroke="none" stroke-width="0.5"/><path d="M245.02169,178.69764c0.16397,1.25517 -0.28296,2.80805 -0.44949,4.05539c-0.2207,0.50361 -0.48639,1.01882 -0.77385,1.48768c-3.33932,5.44662 -3.40591,-3.28599 -3.1666,-6.22961c1.27418,-1.51694 4.03149,-2.0575 4.38994,0.68654z" data-paper-data="{&quot;noHover&quot;:false,&quot;origItem&quot;:[&quot;Path&quot;,{&quot;applyMatrix&quot;:true,&quot;segments&quot;:[[[481.97189,357.48066],[2.35996,-2.81489],[-0.44323,5.46227]],[[487.74989,368.86194],[-6.18487,10.10691],[0.53241,-0.87003]],[[489.13713,366.13443],[-0.40877,0.93452],[0.30844,-2.31461]],[[489.98481,358.74748],[0.30369,2.32913],[-0.66392,-5.09193]]],&quot;closed&quot;:true}]}" fill="#9e8a00" stroke="none" stroke-width="0.5"/><path d="M245.79065,183.1389c-0.90875,2.15196 -3.70803,5.9101 -5.71047,3.40732c-0.01175,0.11015 -0.02542,0.22082 -0.04134,0.33223l0.0002,0.07544c0.02499,0.02646 0.04967,0.05574 0.07391,0.08806c0.45,0.6 -0.15,1.05 -0.15,1.05l-0.6884,0.45448c-0.25926,0.07407 -0.51852,0.14815 -0.77778,0.22222c0,0 -0.72114,0.20604 -0.92718,-0.5151c-0.20604,-0.72114 0.5151,-0.92718 0.5151,-0.92718c0.15232,-0.04352 0.30464,-0.08704 0.45697,-0.13056l0.00096,-0.42368c0.11066,-0.77465 0.10922,-1.49868 0.10922,-2.28017c0,0 0,-0.46539 0.3666,-0.66296c-0.2211,-1.64999 -0.00906,-3.58905 0.18975,-5.17595c-0.00331,-0.1383 0.02635,-0.24927 0.03523,-0.27918c0.02824,-0.22264 0.05564,-0.43714 0.08088,-0.6416c0,0 0.07481,-0.59847 0.62694,-0.65496c1.83919,-1.82305 4.72807,-2.06252 6.02022,0.76652c0.0987,0.21609 0.17142,0.44228 0.2228,0.67594c0.00465,0 0.00929,0 0.01394,0c-0.00026,0.57127 0.01497,1.16099 0.0538,1.75062c-0.09195,0.98942 -0.34039,1.99737 -0.47135,2.86851zM240.76373,178.40701c-0.22161,2.73113 -0.20343,10.7441 2.889,5.69064c0.26621,-0.43502 0.48923,-0.8965 0.69362,-1.36376c0.15422,-1.1573 0.57568,-2.52891 0.42384,-3.69347c-0.33196,-2.54597 -2.82648,-2.04086 -4.00646,-0.63341z" fill="#8c7a00" stroke="none" stroke-width="0.5"/><path d="M233.48793,166.29083c-0.07649,-0.20609 -0.09267,-0.49631 0.20693,-0.77525c0.54891,-0.51107 1.05999,0.03785 1.05999,0.03785c0.39117,0.42481 2.24112,2.44393 2.28113,2.96939c0.0608,0.79842 -0.68308,1.56657 -1.47794,2.14755l0.04631,0.0173l-0.15513,0.41535c1.98001,1.10976 3.58725,3.86297 3.24775,6.166c-0.47107,3.19556 -3.60124,2.80971 -5.49519,1.24761c-0.89986,-0.74219 -1.56927,-1.59845 -2.25243,-2.53266c-3.72314,-3.53236 -1.99368,-7.00139 1.95523,-9.21343l0.4584,-0.39831c0,0 0.04684,-0.03899 0.12494,-0.0814z" fill="#baab00" stroke="none" stroke-width="0.5"/><path d="M234.54062,165.52727c0.47984,0.57642 -0.09658,1.05625 -0.09658,1.05625l-0.39786,0.28111c-3.19799,1.24944 -6.31699,3.06409 -4.30083,6.39205c0.36561,0.08522 0.5169,0.47245 0.5169,0.47245c0.8825,2.27471 2.61353,4.56857 5.06789,5.31447c2.06713,0.62822 2.31058,-2.37164 2.02803,-3.56138c-0.32955,-1.47508 -1.38444,-2.76082 -2.3996,-3.84803l0.02025,0.04364c0,0 -0.63749,-0.39511 -0.24239,-1.0326c0.39511,-0.63749 1.0326,-0.24238 1.0326,-0.24238l0.28737,0.2092c1.21051,1.30356 2.33652,2.77919 2.76207,4.52737c0.55608,2.39338 -0.61546,6.1757 -3.8681,5.3553c-2.6795,-0.67585 -4.71432,-3.1627 -5.82367,-5.60241c-0.14176,-0.09183 -0.22404,-0.20338 -0.22404,-0.20338c-3.37852,-4.58105 0.31902,-7.54985 4.59764,-9.22147l-0.01595,-0.03679c0,0 0.57641,-0.47984 1.05625,0.09659z" fill="#8c7a00" stroke="none" stroke-width="0.5"/><path d="M250.62821,170.71626c-0.33541,0.67082 -1.00623,0.33541 -1.00623,0.33541l-0.18225,-0.09257c-0.54384,-0.23529 -1.07081,-0.51619 -1.56503,-0.8431c0,0 -0.62404,-0.41603 -0.20801,-1.04006c0.41603,-0.62404 1.04006,-0.20801 1.04006,-0.20801c0.41577,0.27976 0.86245,0.51691 1.32386,0.71246l0.26219,0.12965c0,0 0.67082,0.33541 0.33541,1.00623z" fill="#baab00" stroke="none" stroke-width="0.5"/><path d="M246.29072,178.57528c-0.75,0 -0.75,-0.75 -0.75,-0.75v-0.66667c0,-2.34611 -0.22222,-4.65336 -0.22222,-7c0,0 0,-0.75 0.75,-0.75c0.75,0 0.75,0.75 0.75,0.75c0,2.34611 0.22222,4.65336 0.22222,7v0.66667c0,0 0,0.75 -0.75,0.75z" fill="#8c7a00" stroke="none" stroke-width="0.5"/><path d="M224.96812,169.40861v-27.14872h28.52351v27.14872z" fill="#999999" stroke="#7d7d7d" stroke-width="1.5"/><path d="M224.96812,149.80861v-7.54872h28.52351v7.54872z" fill="#999999" stroke="#7d7d7d" stroke-width="1.5"/><path d="M226.69964,152.23111c0,-0.41422 0.33578,-0.75 0.75,-0.75c0.41422,0 0.75,0.33578 0.75,0.75c0,0.41422 -0.33578,0.75 -0.75,0.75c-0.41422,0 -0.75,-0.33578 -0.75,-0.75z" fill="#7d7d7d" stroke="none" stroke-width="0.5"/><path d="M231.59964,151.93111c0,-0.41422 0.33578,-0.75 0.75,-0.75c0.41422,0 0.75,0.33578 0.75,0.75c0,0.41422 -0.33578,0.75 -0.75,0.75c-0.41422,0 -0.75,-0.33578 -0.75,-0.75z" fill="#7d7d7d" stroke="none" stroke-width="0.5"/><path d="M236.99964,151.93111c0,-0.41422 0.33578,-0.75 0.75,-0.75c0.41422,0 0.75,0.33578 0.75,0.75c0,0.41422 -0.33578,0.75 -0.75,0.75c-0.41422,0 -0.75,-0.33578 -0.75,-0.75z" fill="#7d7d7d" stroke="none" stroke-width="0.5"/><path d="M242.69964,152.03111c0,-0.41422 0.33578,-0.75 0.75,-0.75c0.41422,0 0.75,0.33578 0.75,0.75c0,0.41422 -0.33578,0.75 -0.75,0.75c-0.41422,0 -0.75,-0.33578 -0.75,-0.75z" fill="#7d7d7d" stroke="none" stroke-width="0.5"/><path d="M246.49964,151.93111c0,-0.41422 0.33578,-0.75 0.75,-0.75c0.41422,0 0.75,0.33578 0.75,0.75c0,0.41422 -0.33578,0.75 -0.75,0.75c-0.41422,0 -0.75,-0.33578 -0.75,-0.75z" fill="#7d7d7d" stroke="none" stroke-width="0.5"/><path d="M250.49964,151.93111c0,-0.41422 0.33578,-0.75 0.75,-0.75c0.41422,0 0.75,0.33578 0.75,0.75c0,0.41422 -0.33578,0.75 -0.75,0.75c-0.41422,0 -0.75,-0.33578 -0.75,-0.75z" fill="#7d7d7d" stroke="none" stroke-width="0.5"/><path d="M250.59964,155.23111c0,-0.41422 0.33578,-0.75 0.75,-0.75c0.41422,0 0.75,0.33578 0.75,0.75c0,0.41422 -0.33578,0.75 -0.75,0.75c-0.41422,0 -0.75,-0.33578 -0.75,-0.75z" fill="#7d7d7d" stroke="none" stroke-width="0.5"/><path d="M250.59964,158.83111c0,-0.41422 0.33578,-0.75 0.75,-0.75c0.41422,0 0.75,0.33578 0.75,0.75c0,0.41422 -0.33578,0.75 -0.75,0.75c-0.41422,0 -0.75,-0.33578 -0.75,-0.75z" fill="#7d7d7d" stroke="none" stroke-width="0.5"/><path d="M250.69964,162.63111c0,-0.41422 0.33578,-0.75 0.75,-0.75c0.41422,0 0.75,0.33578 0.75,0.75c0,0.41422 -0.33578,0.75 -0.75,0.75c-0.41422,0 -0.75,-0.33578 -0.75,-0.75z" fill="#7d7d7d" stroke="none" stroke-width="0.5"/><path d="M250.89964,167.23111c0,-0.41422 0.33578,-0.75 0.75,-0.75c0.41422,0 0.75,0.33578 0.75,0.75c0,0.41422 -0.33578,0.75 -0.75,0.75c-0.41422,0 -0.75,-0.33578 -0.75,-0.75z" fill="#7d7d7d" stroke="none" stroke-width="0.5"/><path d="M247.59964,167.33111c0,-0.41422 0.33578,-0.75 0.75,-0.75c0.41422,0 0.75,0.33578 0.75,0.75c0,0.41422 -0.33578,0.75 -0.75,0.75c-0.41422,0 -0.75,-0.33578 -0.75,-0.75z" fill="#7d7d7d" stroke="none" stroke-width="0.5"/><path d="M244.19964,167.03111c0,-0.41422 0.33578,-0.75 0.75,-0.75c0.41422,0 0.75,0.33578 0.75,0.75c0,0.41422 -0.33578,0.75 -0.75,0.75c-0.41422,0 -0.75,-0.33578 -0.75,-0.75z" fill="#7d7d7d" stroke="none" stroke-width="0.5"/><path d="M237.79964,167.23111c0,-0.41422 0.33578,-0.75 0.75,-0.75c0.41422,0 0.75,0.33578 0.75,0.75c0,0.41422 -0.33578,0.75 -0.75,0.75c-0.41422,0 -0.75,-0.33578 -0.75,-0.75z" fill="#7d7d7d" stroke="none" stroke-width="0.5"/><path d="M232.09964,166.93111c0,-0.41422 0.33578,-0.75 0.75,-0.75c0.41422,0 0.75,0.33578 0.75,0.75c0,0.41422 -0.33578,0.75 -0.75,0.75c-0.41422,0 -0.75,-0.33578 -0.75,-0.75z" fill="#7d7d7d" stroke="none" stroke-width="0.5"/><path d="M226.59964,167.13111c0,-0.41422 0.33578,-0.75 0.75,-0.75c0.41422,0 0.75,0.33578 0.75,0.75c0,0.41422 -0.33578,0.75 -0.75,0.75c-0.41422,0 -0.75,-0.33578 -0.75,-0.75z" fill="#7d7d7d" stroke="none" stroke-width="0.5"/><path d="M226.79964,162.73111c0,-0.41422 0.33578,-0.75 0.75,-0.75c0.41422,0 0.75,0.33578 0.75,0.75c0,0.41422 -0.33578,0.75 -0.75,0.75c-0.41422,0 -0.75,-0.33578 -0.75,-0.75z" fill="#7d7d7d" stroke="none" stroke-width="0.5"/><path d="M226.59964,158.73111c0,-0.41422 0.33578,-0.75 0.75,-0.75c0.41422,0 0.75,0.33578 0.75,0.75c0,0.41422 -0.33578,0.75 -0.75,0.75c-0.41422,0 -0.75,-0.33578 -0.75,-0.75z" fill="#7d7d7d" stroke="none" stroke-width="0.5"/><path d="M226.69964,155.13111c0,-0.41422 0.33578,-0.75 0.75,-0.75c0.41422,0 0.75,0.33578 0.75,0.75c0,0.41422 -0.33578,0.75 -0.75,0.75c-0.41422,0 -0.75,-0.33578 -0.75,-0.75z" fill="#7d7d7d" stroke="none" stroke-width="0.5"/><path d="M226.39964,147.93111c0,-0.41422 0.33578,-0.75 0.75,-0.75c0.41422,0 0.75,0.33578 0.75,0.75c0,0.41422 -0.33578,0.75 -0.75,0.75c-0.41422,0 -0.75,-0.33578 -0.75,-0.75z" fill="#7d7d7d" stroke="none" stroke-width="0.5"/><path d="M226.29964,145.73111c0,-0.41422 0.33578,-0.75 0.75,-0.75c0.41422,0 0.75,0.33578 0.75,0.75c0,0.41422 -0.33578,0.75 -0.75,0.75c-0.41422,0 -0.75,-0.33578 -0.75,-0.75z" fill="#7d7d7d" stroke="none" stroke-width="0.5"/><path d="M226.29964,143.83111c0,-0.41422 0.33578,-0.75 0.75,-0.75c0.41422,0 0.75,0.33578 0.75,0.75c0,0.41422 -0.33578,0.75 -0.75,0.75c-0.41422,0 -0.75,-0.33578 -0.75,-0.75z" fill="#7d7d7d" stroke="none" stroke-width="0.5"/><path d="M230.89964,148.13111c0,-0.41422 0.33578,-0.75 0.75,-0.75c0.41422,0 0.75,0.33578 0.75,0.75c0,0.41422 -0.33578,0.75 -0.75,0.75c-0.41422,0 -0.75,-0.33578 -0.75,-0.75z" fill="#7d7d7d" stroke="none" stroke-width="0.5"/><path d="M236.99964,147.63111c0,-0.41422 0.33578,-0.75 0.75,-0.75c0.41422,0 0.75,0.33578 0.75,0.75c0,0.41422 -0.33578,0.75 -0.75,0.75c-0.41422,0 -0.75,-0.33578 -0.75,-0.75z" fill="#7d7d7d" stroke="none" stroke-width="0.5"/><path d="M242.79964,147.83111c0,-0.41422 0.33578,-0.75 0.75,-0.75c0.41422,0 0.75,0.33578 0.75,0.75c0,0.41422 -0.33578,0.75 -0.75,0.75c-0.41422,0 -0.75,-0.33578 -0.75,-0.75z" fill="#7d7d7d" stroke="none" stroke-width="0.5"/><path d="M246.79964,147.53111c0,-0.41422 0.33578,-0.75 0.75,-0.75c0.41422,0 0.75,0.33578 0.75,0.75c0,0.41422 -0.33578,0.75 -0.75,0.75c-0.41422,0 -0.75,-0.33578 -0.75,-0.75z" fill="#7d7d7d" stroke="none" stroke-width="0.5"/><path d="M249.99964,147.73111c0,-0.41422 0.33578,-0.75 0.75,-0.75c0.41422,0 0.75,0.33578 0.75,0.75c0,0.41422 -0.33578,0.75 -0.75,0.75c-0.41422,0 -0.75,-0.33578 -0.75,-0.75z" fill="#7d7d7d" stroke="none" stroke-width="0.5"/><path d="M250.19964,146.03111c0,-0.41422 0.33578,-0.75 0.75,-0.75c0.41422,0 0.75,0.33578 0.75,0.75c0,0.41422 -0.33578,0.75 -0.75,0.75c-0.41422,0 -0.75,-0.33578 -0.75,-0.75z" fill="#7d7d7d" stroke="none" stroke-width="0.5"/><path d="M250.29964,143.93111c0,-0.41422 0.33578,-0.75 0.75,-0.75c0.41422,0 0.75,0.33578 0.75,0.75c0,0.41422 -0.33578,0.75 -0.75,0.75c-0.41422,0 -0.75,-0.33578 -0.75,-0.75z" fill="#7d7d7d" stroke="none" stroke-width="0.5"/><path d="M247.19964,144.33111c0,-0.41422 0.33578,-0.75 0.75,-0.75c0.41422,0 0.75,0.33578 0.75,0.75c0,0.41422 -0.33578,0.75 -0.75,0.75c-0.41422,0 -0.75,-0.33578 -0.75,-0.75z" fill="#7d7d7d" stroke="none" stroke-width="0.5"/><path d="M243.19964,144.03111c0,-0.41422 0.33578,-0.75 0.75,-0.75c0.41422,0 0.75,0.33578 0.75,0.75c0,0.41422 -0.33578,0.75 -0.75,0.75c-0.41422,0 -0.75,-0.33578 -0.75,-0.75z" fill="#7d7d7d" stroke="none" stroke-width="0.5"/><path d="M236.49964,143.93111c0,-0.41422 0.33578,-0.75 0.75,-0.75c0.41422,0 0.75,0.33578 0.75,0.75c0,0.41422 -0.33578,0.75 -0.75,0.75c-0.41422,0 -0.75,-0.33578 -0.75,-0.75z" fill="#7d7d7d" stroke="none" stroke-width="0.5"/><path d="M230.29964,143.63111c0,-0.41422 0.33578,-0.75 0.75,-0.75c0.41422,0 0.75,0.33578 0.75,0.75c0,0.41422 -0.33578,0.75 -0.75,0.75c-0.41422,0 -0.75,-0.33578 -0.75,-0.75z" fill="#7d7d7d" stroke="none" stroke-width="0.5"/></g></g></svg>