<svg version="1.1" xmlns="http://www.w3.org/2000/svg" xmlns:xlink="http://www.w3.org/1999/xlink" width="34.61048" height="48.39049" viewBox="0,0,34.61048,48.39049"><g transform="translate(-221.81835,-140.51969)"><g data-paper-data="{&quot;isPaintingLayer&quot;:true}" fill-rule="nonzero" stroke="none" stroke-width="0.5" stroke-linecap="butt" stroke-linejoin="miter" stroke-miterlimit="10" stroke-dasharray="" stroke-dashoffset="0" style="mix-blend-mode: normal"><path d="M247.3823,165.17971c0.0781,0.04241 0.12494,0.0814 0.12494,0.0814l0.4584,0.39831c3.94891,2.21204 5.67837,5.68107 1.95523,9.21343c-0.68316,0.93421 -1.35257,1.79047 -2.25243,2.53266c-1.89395,1.5621 -5.02412,1.94795 -5.49519,-1.24761c-0.3395,-2.30303 1.26774,-5.05624 3.24775,-6.166l-0.15513,-0.41535l0.04631,-0.0173c-0.79486,-0.58098 -1.53874,-1.34913 -1.47794,-2.14755c0.04001,-0.52546 1.88996,-2.54458 2.28113,-2.96939c0,0 0.51108,-0.54892 1.05999,-0.03785c0.2996,0.27894 0.28342,0.56916 0.20693,0.77525z" data-paper-data="{&quot;index&quot;:null}" fill="#c0b39a"/><path d="M246.32962,164.41614c0.47984,-0.57643 1.05625,-0.09659 1.05625,-0.09659l-0.01595,0.03679c4.27862,1.67162 7.97616,4.64042 4.59764,9.22147c0,0 -0.08228,0.11155 -0.22404,0.20338c-1.10935,2.43971 -3.14417,4.92656 -5.82367,5.60241c-3.25264,0.8204 -4.42418,-2.96192 -3.8681,-5.3553c0.42555,-1.74818 1.55156,-3.22381 2.76207,-4.52737l0.28737,-0.2092c0,0 0.63749,-0.39511 1.0326,0.24238c0.3951,0.63749 -0.24239,1.0326 -0.24239,1.0326l0.02025,-0.04364c-1.01516,1.08721 -2.07005,2.37295 -2.3996,3.84803c-0.28255,1.18974 -0.0391,4.1896 2.02803,3.56138c2.45436,-0.7459 4.18539,-3.03976 5.06789,-5.31447c0,0 0.15129,-0.38723 0.5169,-0.47245c2.01616,-3.32796 -1.10284,-5.14261 -4.30083,-6.39205l-0.39786,-0.28111c0,0 -0.57642,-0.47983 -0.09658,-1.05625z" data-paper-data="{&quot;index&quot;:null}" fill="#847a69"/><path d="M247.40967,165.86269l0.22202,0.55164c0.3528,0.82264 0.66968,1.66413 0.9845,2.50195c0.09274,0.32503 0.21623,0.76915 0.34754,1.28977c-0.97178,0.6283 -1.76264,1.56846 -2.20101,2.68983l-0.01569,-0.0267l0.02133,-0.00271l-0.10724,-0.87454c-0.04137,-0.37508 -0.3556,-0.66189 -0.74171,-0.66189c-0.41421,0 -0.67366,0.2712 -0.67366,0.68542c0,0.02059 0.00106,0.04126 0.00269,0.06144l0.11198,1.49699l0.00139,-0.0001c-0.00029,0.00233 -0.00056,0.00471 -0.00084,0.00704c-0.07794,0.63347 -0.02489,1.6736 0.172,2.71912c0.10401,1.38967 0.20453,2.80155 0.16076,4.19191c-0.81514,0.15964 -1.61255,0.35274 -2.29191,0.80566c-0.85057,0.56705 -0.8286,1.91115 -1.52155,2.66271c-0.37436,0.40601 -0.95117,0.60008 -1.46755,0.84717c0.0427,-1.17994 0.01421,-2.21293 -0.26105,-3.31527c0,-0.00108 -0.00249,-0.10212 -0.00249,-0.1032l0.00068,-0.00552l0.2162,-0.02416l-0.10379,-0.89121c-0.03709,-0.37956 -0.36753,-0.67666 -0.75683,-0.67666c-0.38611,0 -0.71144,0.29006 -0.75281,0.66515l-0.08158,0.78312l0.01936,0.00239l-0.02378,0.04401c-0.00106,0.7657 0.44803,5.89013 -0.33717,6.11797c-0.6911,0.20053 -2.04586,-0.09545 -2.74506,-0.16588c-0.35774,-0.0503 -0.83859,0.18103 -1.08457,-0.08354c-0.13104,-0.14095 -0.02285,-2.34947 -0.04486,-2.67461c-0.18125,-2.67748 -0.26968,-5.56445 0.0847,-8.22292c0.09231,-0.69248 0.36997,-1.57377 0.34453,-2.29802c0.06557,-0.3591 0.14457,-0.72438 0.22243,-1.08091l-0.03361,-0.08215l0.03843,-0.00015l0.00303,-0.78154c0,-0.41421 -0.26131,-0.68326 -0.67553,-0.68326c-0.36345,0 -0.66274,0.2538 -0.73157,0.597l-0.21574,0.98024l0.16878,0.03782c-0.03196,0.14554 -0.0614,0.2887 -0.09082,0.43482c-0.02741,0.08471 -0.05373,0.16969 -0.07898,0.25498c-0.11298,-1.69228 -0.77728,-3.39479 -1.79669,-4.92394c0.24087,-0.55086 0.50749,-1.09023 0.79489,-1.61576c0.27003,-0.05499 0.45267,-0.26739 0.45267,-0.26739c2.11199,-2.50239 7.13949,-1.1705 10.0579,-1.30226c1.38768,-0.06265 2.95391,-0.30772 4.24632,0.28018z" data-paper-data="{&quot;noHover&quot;:false,&quot;origItem&quot;:[&quot;Path&quot;,{&quot;applyMatrix&quot;:true,&quot;segments&quot;:[[[496.43499,290.36259],[0,0],[-2.5848,-1.17581]],[[487.97232,289.8161],[2.77535,-0.1253],[-5.83683,0.26353]],[[467.94253,292.40451],[4.22399,-5.00478],[0,0]],[[467.04065,292.93661],[0.54007,-0.10999],[-2.58686,4.73015]],[[462.74809,308.31721],[-0.00361,-5.42119],[0.00052,0.7823]],[[463.40716,313.95383],[-0.99603,-0.56354],[2.47697,1.40145]],[[467.85663,312.01728],[-0.68556,1.91418],[0.16213,-2.29009]],[[469.04847,305.38632],[-0.68063,2.10294],[0.05884,-0.29223]],[[469.23279,304.51134],[-0.06392,0.29109],[0,0]],[468.89492,304.43626],[[469.33295,302.4651],[0,0],[0.13765,-0.68639]],[[470.80364,301.26165],[-0.7269,0],[0.82843,0]],[[472.30364,302.76165],[0,-0.82843],[0,0]],[472.30364,304.31721],[472.22701,304.31721],[[472.29469,304.48088],[0,0],[-0.15574,0.71307]],[[471.85883,306.6273],[0.13113,-0.71819],[0.05089,1.4485]],[[471.17926,311.18297],[0.18462,-1.38496],[-0.70876,5.31694]],[[470.96654,327.54421],[-0.3625,-5.35496],[0.04402,0.65029]],[[471.04523,332.88685],[-0.26208,-0.2819],[0.49196,0.52915]],[[473.2066,333.05036],[-0.71548,-0.10061],[1.3984,0.14085]],[[478.67406,333.37583],[-1.38221,0.40107],[1.57041,-0.45568]],[[479.30654,321.33511],[-0.00212,1.5314],[0,0]],[479.35432,321.24715],[479.31523,321.24227],[[479.53498,319.48423],[0,0],[0.08274,-0.75016]],[[481.02587,318.15054],[-0.77221,0],[0.7786,0]],[[482.51869,319.50288],[-0.07417,-0.75912],[0,0]],[482.73891,321.48489],[482.30218,321.53342],[[482.3008,321.54447],[0,0],[0.00001,0.00215]],[[482.30082,321.55093],[-0.00001,-0.00215],[0.68633,2.74861]],[[482.74519,330.18819],[0.16737,-3.1557],[-0.013,0.24515]],[[482.50156,330.95975],[0.12905,-0.26423],[-0.0751,0.68836]],[[482.14107,332.91845],[0.1698,-0.61036],[0.72575,0.49101]],[[486.3685,333.26168],[-0.39266,-0.00064],[0.77885,0.00126]],[[492.12257,333.34191],[-0.47462,0.33694],[1.35326,-0.96069]],[[493.08432,322.66845],[-0.00313,1.78255],[0.46966,-3.75727]],[[492.96593,311.26793],[0.28561,3.81615],[-0.39377,-2.09104]],[[492.63336,305.8747],[-0.15588,1.26694],[0.00057,-0.00467]],[[492.63509,305.8607],[-0.00058,0.00467],[0,0]],[492.63231,305.8609],[[492.41967,302.88397],[0,0],[-0.00326,-0.04034]],[[492.41476,302.76165],[0,0.04118],[0,-0.82843]],[[493.91476,301.26165],[-0.82843,0],[0.77221,0]],[[495.40564,302.59534],[-0.08274,-0.75016],[0,0]],[495.62539,304.35338],[495.58269,304.35872],[[495.63408,304.44622],[0,0],[0.00057,1.90117]],[[495.88986,310.1828],[-0.13802,-1.91996],[0.78614,3.33805]],[[499.49447,315.31377],[-1.84568,1.41247],[3.93334,-3.01012]],[[499.15688,296.56475],[1.08818,3.81386],[-0.62963,-1.67564]],[[497.2027,291.57475],[0.70559,1.64528],[0,0]],[496.76188,290.47383]],&quot;closed&quot;:true}]}" fill="#c0b39a"/><path d="M233.52423,173.35984c0.02942,-0.14611 0.0602,-0.29195 0.09216,-0.43749l-0.16893,-0.03754l0.21902,-0.98558c0.06882,-0.34319 0.37189,-0.60172 0.73534,-0.60172c0.41421,0 0.75,0.33579 0.75,0.75v0.77778h-0.03832l0.03384,0.08184c-0.07787,0.35653 -0.15236,0.71411 -0.21793,1.07321c0.02544,0.72425 -0.24748,1.58536 -0.33978,2.27784c-0.31415,2.35665 -0.29734,4.85962 -0.16322,7.26273c1.44918,0.00713 2.89374,0.04583 4.33712,0.08891c-0.04066,-1.04642 -0.11067,-1.97952 -0.11026,-2.27557l0.02389,-0.04398l-0.01954,-0.00244l0.10988,-0.87902c0.04137,-0.37508 0.35933,-0.66685 0.74544,-0.66685c0.3893,0 0.70933,0.29661 0.74641,0.67617l0.11011,0.99101l-0.21837,0.02426l-0.00069,0.00552c0,0.00108 0.00001,0.00215 0.00001,0.00323c0.1824,0.73046 0.25731,1.45872 0.27491,2.21767c0.55066,0.0162 1.10133,0.03151 1.65222,0.04442c-0.05904,0.09085 -0.12418,0.17672 -0.19727,0.25599c-0.65792,0.71356 -1.94117,0.77245 -2.42272,1.61515c-0.39621,0.69336 0.19194,1.59566 0.13289,2.39205c-0.0086,0.11595 -0.05353,0.23419 -0.12135,0.35381c-0.00225,-0.00093 -0.0045,-0.00186 -0.00674,-0.00279c-0.15559,0.17206 -0.33798,0.31484 -0.5513,0.42196c-0.74974,0.37652 -2.68004,0.02083 -3.48849,-0.05948c-0.53305,-0.07716 -1.67093,-0.17692 -2.03043,-0.58491c-0.646,-0.73316 -0.406,-3.53651 -0.40698,-4.49296c-0.00153,-1.47984 -0.10207,-3.06778 -0.11617,-4.65762c-0.04549,0.03337 -0.0918,0.06518 -0.13895,0.09535c0.30903,-1.43073 0.51122,-2.74521 0.67178,-3.65995c0.10887,-0.62022 0.13163,-1.25068 0.07847,-1.88189c0.01433,-0.0465 0.02898,-0.09287 0.04394,-0.13911zM234.52262,187.11011c0.24598,0.26458 0.72295,0.03145 1.08068,0.08175c0.6992,0.07043 2.04263,0.36327 2.73373,0.16274c0.33846,-0.09821 0.44369,-1.08806 0.45397,-2.24396c-1.43496,-0.04289 -2.87105,-0.08162 -4.31177,-0.08946c-0.01706,0.76785 -0.05288,1.98539 0.04339,2.08893z" fill="#847a69"/><path d="M245.02168,178.69764c0.16397,1.25517 -0.28296,2.80805 -0.44949,4.05539c-0.2207,0.50361 -0.48639,1.01882 -0.77385,1.48768c-3.33932,5.44662 -3.40591,-3.28599 -3.1666,-6.22961c1.27418,-1.51694 4.03149,-2.0575 4.38994,0.68654z" data-paper-data="{&quot;noHover&quot;:false,&quot;origItem&quot;:[&quot;Path&quot;,{&quot;applyMatrix&quot;:true,&quot;segments&quot;:[[[481.97189,357.48066],[2.35996,-2.81489],[-0.44323,5.46227]],[[487.74989,368.86194],[-6.18487,10.10691],[0.53241,-0.87003]],[[489.13713,366.13443],[-0.40877,0.93452],[0.30844,-2.31461]],[[489.98481,358.74748],[0.30369,2.32913],[-0.66392,-5.09193]]],&quot;closed&quot;:true}]}" fill="#c0b39a"/><path d="M233.48792,166.29083c-0.07649,-0.20609 -0.09267,-0.49631 0.20693,-0.77525c0.54891,-0.51107 1.05999,0.03785 1.05999,0.03785c0.39117,0.42481 2.24112,2.44393 2.28113,2.96939c0.0608,0.79842 -0.68308,1.56657 -1.47794,2.14755l0.04631,0.0173l-0.15513,0.41535c1.98001,1.10976 3.58725,3.86297 3.24775,6.166c-0.47107,3.19556 -3.60124,2.80971 -5.49519,1.24761c-0.89986,-0.74219 -1.56927,-1.59845 -2.25243,-2.53266c-3.72314,-3.53236 -1.99368,-7.00139 1.95523,-9.21343l0.4584,-0.39831c0,0 0.04684,-0.03899 0.12494,-0.0814z" fill="#c0b39a"/><path d="M250.6282,170.71626c-0.33541,0.67082 -1.00623,0.33541 -1.00623,0.33541l-0.18225,-0.09257c-0.54384,-0.23529 -1.07081,-0.51619 -1.56503,-0.8431c0,0 -0.62404,-0.41603 -0.20801,-1.04006c0.41603,-0.62404 1.04006,-0.20801 1.04006,-0.20801c0.41577,0.27976 0.86245,0.51691 1.32386,0.71246l0.26219,0.12965c0,0 0.67082,0.33541 0.33541,1.00623z" fill="#c0b39a"/><path d="M246.29071,178.57528c-0.75,0 -0.75,-0.75 -0.75,-0.75v-0.66667c0,-2.34611 -0.22222,-4.65336 -0.22222,-7c0,0 0,-0.75 0.75,-0.75c0.75,0 0.75,0.75 0.75,0.75c0,2.34611 0.22222,4.65336 0.22222,7v0.66667c0,0 0,0.75 -0.75,0.75z" fill="#847a69"/><path d="M235.79667,183.10362c1.60337,-1.42851 4.65184,0.46718 3.22733,2.52136c-0.05074,0.07317 -0.12243,0.14284 -0.21137,0.20847c-0.04693,0.82672 -0.17078,1.47238 -0.43389,1.54873c-0.6911,0.20053 -2.11251,-0.08547 -2.8117,-0.15589c-0.35774,-0.0503 -0.8445,0.16785 -1.09048,-0.09672c-0.09627,-0.10354 -0.05802,-1.36496 -0.04095,-2.13281l-0.00001,-0.00001c0.00042,0 0.00084,0 0.00126,0.00001c-0.04773,-0.6525 -0.0509,-1.40968 -0.12384,-1.72896c0,0 -0.1627,-0.73214 0.56944,-0.89484c0.73214,-0.1627 0.89484,0.56944 0.89484,0.56944c0.00879,0.04047 0.01507,0.09535 0.01937,0.16122z" fill="#c0b39a"/><path d="M245.79064,183.1389c-0.90875,2.15196 -3.70803,5.9101 -5.71047,3.40732c-0.01175,0.11015 -0.02542,0.22082 -0.04134,0.33223l0.0002,0.07544c0.02499,0.02646 0.04967,0.05574 0.07391,0.08806c0.45,0.6 -0.15,1.05 -0.15,1.05l-0.6884,0.45448c-0.25926,0.07407 -0.51852,0.14815 -0.77778,0.22222c0,0 -0.72114,0.20604 -0.92718,-0.5151c-0.20604,-0.72114 0.5151,-0.92718 0.5151,-0.92718c0.15232,-0.04352 0.30464,-0.08704 0.45697,-0.13056l0.00096,-0.42368c0.11066,-0.77465 0.10922,-1.49868 0.10922,-2.28017c0,0 0,-0.46539 0.3666,-0.66296c-0.2211,-1.64999 -0.00906,-3.58905 0.18975,-5.17595c-0.00331,-0.1383 0.02635,-0.24927 0.03523,-0.27918c0.02824,-0.22264 0.05564,-0.43714 0.08088,-0.6416c0,0 0.07481,-0.59847 0.62694,-0.65496c1.83919,-1.82305 4.72807,-2.06252 6.02022,0.76652c0.0987,0.21609 0.17142,0.44228 0.2228,0.67594c0.00465,0 0.00929,0 0.01394,0c-0.00026,0.57127 0.01497,1.16099 0.0538,1.75062c-0.09195,0.98942 -0.34039,1.99737 -0.47135,2.86851zM240.76372,178.40701c-0.22161,2.73113 -0.20343,10.7441 2.889,5.69064c0.26621,-0.43502 0.48923,-0.8965 0.69362,-1.36376c0.15422,-1.1573 0.57568,-2.52891 0.42384,-3.69347c-0.33196,-2.54597 -2.82648,-2.04086 -4.00646,-0.63341z" fill="#847a69"/><path d="M242.61839,171.49904c0,-0.41421 0.33579,-0.75 0.75,-0.75c0.41421,0 0.75,0.33579 0.75,0.75c0,0.41421 -0.33579,0.75 -0.75,0.75c-0.41421,0 -0.75,-0.33579 -0.75,-0.75z" fill="#c77878"/><path d="M236.50728,172.05459c0,-0.41421 0.33579,-0.75 0.75,-0.75c0.41421,0 0.75,0.33579 0.75,0.75c0,0.41421 -0.33579,0.75 -0.75,0.75c-0.41421,0 -0.75,-0.33579 -0.75,-0.75z" fill="#c77878"/><path d="M234.54061,165.52727c0.47984,0.57642 -0.09658,1.05625 -0.09658,1.05625l-0.39786,0.28111c-3.19799,1.24944 -6.31699,3.06409 -4.30083,6.39205c0.36561,0.08522 0.5169,0.47245 0.5169,0.47245c0.8825,2.27471 2.61353,4.56857 5.06789,5.31447c2.06713,0.62822 2.31058,-2.37164 2.02803,-3.56138c-0.32955,-1.47508 -1.38444,-2.76082 -2.3996,-3.84803l0.02025,0.04364c0,0 -0.63749,-0.39511 -0.24239,-1.0326c0.39511,-0.63749 1.0326,-0.24238 1.0326,-0.24238l0.28737,0.2092c1.21051,1.30356 2.33652,2.77919 2.76207,4.52737c0.55608,2.39338 -0.61546,6.1757 -3.8681,5.3553c-2.6795,-0.67585 -4.71432,-3.1627 -5.82367,-5.60241c-0.14176,-0.09183 -0.22404,-0.20338 -0.22404,-0.20338c-3.37852,-4.58105 0.31902,-7.54985 4.59764,-9.22147l-0.01595,-0.03679c0,0 0.57641,-0.47984 1.05625,0.09659z" fill="#847a69"/><path d="M254.49754,146.00887c0.37195,0.65127 -0.27933,1.02322 -0.27933,1.02322l-0.11596,0.06622c-0.88569,0.50534 -1.79273,0.97498 -2.7166,1.40658c0,0 -0.67964,0.31716 -0.9968,-0.36247c-0.31716,-0.67964 0.36247,-0.9968 0.36247,-0.9968c0.88696,-0.41345 1.75748,-0.86418 2.60704,-1.34986l0.11596,-0.06622c0,0 0.65127,-0.37195 1.02322,0.27933z" fill="#8c5900"/><path d="M244.29071,140.5197c0.75,0 0.75,0.75 0.75,0.75l-0.02643,0.64178c-0.11111,0.40741 -0.22222,0.81481 -0.33333,1.22222c0,0 -0.19734,0.72357 -0.92091,0.52623c-0.72357,-0.19734 -0.52623,-0.92091 -0.52623,-0.92091c0.11111,-0.40741 0.22222,-0.81481 0.33333,-1.22222l-0.02643,-0.24711c0,0 0,-0.75 0.75,-0.75z" fill="#8c5900"/><path d="M231.95844,144.21173c0.12422,0.18256 0.29671,0.56677 -0.0875,0.95097c-0.53033,0.53033 -1.06066,0 -1.06066,0l-0.31388,-0.53731c-0.33788,-2.85217 1.21607,-4.41846 4.02611,-3.72063c0,0 0.33751,0.08438 0.49532,0.36807l0.33175,0.34457c0.25926,0.37037 0.51852,0.74074 0.77778,1.11111c0,0 0.4301,0.61442 -0.18433,1.04452c-0.61442,0.4301 -1.04452,-0.18433 -1.04452,-0.18433c-0.25926,-0.37037 -0.51852,-0.74074 -0.77778,-1.11111l-0.1796,-0.16796c-1.52439,-0.31981 -2.1403,0.28457 -1.98269,1.9021z" fill="#8c5900"/><path d="M223.73364,160.47658c-0.74421,0.09303 -0.83723,-0.65118 -0.83723,-0.65118l-0.1,-0.8c-0.44771,-3.63455 -3.20284,-13.54078 3.14421,-13.64302c0,0 0.48718,0 0.67624,0.39265c0.12134,0.03981 0.20099,0.09289 0.20099,0.09289l0.37776,0.25425c0.33333,0.25926 0.66667,0.51852 1,0.77778c0,0 0.59201,0.46046 0.13156,1.05247c-0.46046,0.59201 -1.05247,0.13156 -1.05247,0.13156c-0.33333,-0.25926 -0.66667,-0.51852 -1,-0.77778l-0.2889,-0.1902c0,0 -0.12485,-0.08323 -0.22563,-0.23107c-1.54355,0.08203 -2.19566,1.70574 -2.37518,3.13907c-0.3817,3.04763 0.52499,5.85514 0.89983,8.81534l0.1,0.8c0,0 0.09303,0.7442 -0.65118,0.83723z" fill="#8c5900"/><path d="M228.91823,148.93451l-0.12357,0.15341c-1.42752,2.6588 -2.45503,5.02995 -1.98747,8.18111c0.67586,4.55494 6.74007,9.80938 11.20929,10.37875c10.12628,1.39855 17.89941,-10.83977 11.47525,-19.2084c-3.5902,-4.74801 -9.54165,-5.36436 -14.8683,-3.35531c-1.8502,0.69784 -4.24192,1.52123 -5.54423,3.14214c0.08536,0.37372 -0.16097,0.70829 -0.16097,0.70829zM226.97468,148.40723c1.35394,-2.70216 4.35479,-3.89944 7.048,-4.91564c6.05692,-2.28541 12.73216,-1.40953 16.82251,3.9158c7.27258,9.5944 -1.42149,23.49509 -13.05869,21.92677c-5.24769,-0.75258 -11.83515,-6.46649 -12.66285,-11.81508c-0.4949,-3.19808 0.40679,-5.80703 1.7849,-8.50002c-0.07753,-0.31392 0.06612,-0.61183 0.06612,-0.61183z" data-paper-data="{&quot;index&quot;:null}" fill="#847a69"/><path d="M229.03385,148.19213c1.30231,-1.62091 3.71699,-2.46235 5.56719,-3.16019c5.32665,-2.00905 11.34637,-1.37394 14.93657,3.37407c6.42416,8.36862 -1.40083,20.69674 -11.5271,19.29819c-4.46922,-0.56937 -10.58383,-5.87394 -11.25969,-10.42888c-0.46756,-3.15116 0.56873,-5.55948 1.99626,-8.21828l0.12406,-0.15416c0,0 0.24807,-0.33703 0.16272,-0.71075z" data-paper-data="{&quot;noHover&quot;:false,&quot;origItem&quot;:[&quot;Path&quot;,{&quot;applyMatrix&quot;:true,&quot;segments&quot;:[[461.79205,256.51809],[[461.57425,256.7885],[0,0],[-2.51619,4.68647]],[[458.07109,271.20873],[-0.82414,-5.55431],[1.19129,8.02865]],[[477.82886,289.50257],[-7.87755,-1.00359],[17.84882,2.46512]],[[498.05541,255.64538],[11.32339,14.75074],[-6.32818,-8.36895]],[[471.84818,249.73122],[9.38889,-3.5412],[-3.26121,1.23003]],[[462.07578,255.26964],[2.29549,-2.85706],[0.15045,0.65872]]],&quot;closed&quot;:true}]}" fill="#c0b39a"/><path d="M244.86332,148.86172c-0.9108,0.77651 -3.17605,2.91751 -1.99926,3.67173c0.41216,0.26416 2.50255,0.19021 2.87619,0.20454c0.86631,0.03322 1.8994,0.74679 2.59115,0.22422c0.43284,-0.32698 -0.45148,-0.987 -0.7007,-1.46883c-0.58353,-1.12816 -0.75513,-2.30792 -2.10539,-2.54125l-0.228,0.02027c0,0 -0.21845,0.00001 -0.43399,-0.11068zM245.24457,147.27336c0.03319,-0.00297 0.05275,-0.00297 0.05275,-0.00297l0.59722,0.02027c1.88376,0.4754 5.41395,4.84063 3.58932,6.92403c-0.79954,0.91294 -6.9065,0.33893 -7.73611,-0.39645c-2.38603,-2.11504 0.8779,-5.41985 2.42005,-6.58394c0,0 0.5847,-0.43852 1.07676,0.03907z" fill="#000000"/><path d="M245.29195,148.91592l0.23432,-0.02051c1.35026,0.23333 1.57623,1.48238 2.15977,2.61054c0.24922,0.48183 1.12495,1.16144 0.69211,1.48842c-0.69175,0.52257 -1.76348,-0.16701 -2.62979,-0.20023c-0.37365,-0.01433 -2.52119,0.03197 -2.93335,-0.23219c-1.1768,-0.75422 1.12159,-2.97817 2.03239,-3.75469c0.21554,0.11068 0.44455,0.10865 0.44455,0.10865z" data-paper-data="{&quot;noHover&quot;:false,&quot;origItem&quot;:[&quot;Path&quot;,{&quot;applyMatrix&quot;:true,&quot;segments&quot;:[[[489.89726,256.3898],[0.37992,0.19509],[-1.6054,1.3687]],[[486.37332,262.86168],[-2.07425,-1.3294],[0.72648,0.46561]],[[491.44297,263.2222],[-0.6586,-0.02525],[1.52698,0.05855]],[[496.0102,263.61742],[-1.2193,0.92109],[0.76294,-0.57634]],[[494.77513,261.02843],[0.43928,0.84928],[-1.02855,-1.98853]],[[491.06411,256.54916],[2.38001,0.41127],[0,0]],[490.66223,256.58488]],&quot;closed&quot;:true}]}" fill="#ffbaba"/><path d="M233.03188,148.69171c-0.09043,0.09595 -0.17168,0.14765 -0.17168,0.14765c-0.60167,0.38147 -1.21362,0.76238 -1.73541,1.24741c-2.59542,2.41258 -0.39355,2.79533 1.91126,2.55223c0.15117,-0.01594 2.03481,-0.18073 2.07182,-0.25734c0.43096,-0.8922 -1.08449,-3.37502 -2.076,-3.68995zM232.08894,147.33372c0.23613,-0.37279 0.72698,-0.37279 0.72698,-0.37279l0.18783,0.00422c2.01837,0.30859 4.83206,4.12914 3.50304,6.38595c-1.17097,1.98842 -7.59916,1.69484 -8.21862,-0.54687c-0.70231,-2.54152 1.88748,-4.27016 3.65826,-5.40081c0,0 0.05429,-0.03455 0.14251,-0.06971z" fill="#000000"/><path d="M235.15515,152.41303c-0.03701,0.07661 -1.95464,0.26518 -2.10581,0.28113c-2.30481,0.2431 -4.57222,-0.21689 -1.9768,-2.62947c0.52179,-0.48503 1.19481,-0.8999 1.79647,-1.28137c0,0 0.08522,-0.05092 0.17565,-0.14687c0.99151,0.31493 2.54144,2.88439 2.11048,3.77658z" data-paper-data="{&quot;noHover&quot;:false,&quot;origItem&quot;:[&quot;Path&quot;,{&quot;applyMatrix&quot;:true,&quot;segments&quot;:[[[469.04287,256.09013],[1.74766,0.5551],[-0.1594,0.16912]],[[468.74027,256.35038],[0,0],[-1.06051,0.67239]],[[465.6814,258.5491],[0.91972,-0.85493],[-4.57475,4.25247]],[[469.05023,263.04772],[-4.06251,0.42849],[0.26646,-0.0281]],[[472.70207,262.59413],[-0.06523,0.13503],[0.75962,-1.57261]]],&quot;closed&quot;:true}]}" fill="#ffbaba"/><path d="M231.80766,150.99226c0,-0.47 0.38101,-0.851 0.851,-0.851c0.47,0 0.851,0.38101 0.851,0.851c0,0.47 -0.38101,0.851 -0.851,0.851c-0.47,0 -0.851,-0.38101 -0.851,-0.851z" fill="#000000"/><path d="M244.31649,150.99831c0,-0.64904 0.52615,-1.1752 1.1752,-1.1752c0.64904,0 1.1752,0.52615 1.1752,1.1752c0,0.64904 -0.52615,1.1752 -1.1752,1.1752c-0.64904,0 -1.1752,-0.52615 -1.1752,-1.1752z" fill="#000000"/><path d="M254.6005,150.32831c0.38587,0.64312 -0.25725,1.02899 -0.25725,1.02899l-0.5254,0.31425c-0.66712,0.44427 -1.35134,0.86419 -2.05179,1.2538c0,0 -0.65562,0.36423 -1.01985,-0.29139c-0.36423,-0.65562 0.29139,-1.01985 0.29139,-1.01985c0.6655,-0.36924 1.31517,-0.76814 1.94821,-1.19064l0.58571,-0.35242c0,0 0.64312,-0.38587 1.02899,0.25725z" fill="#8c5900"/><path d="M226.35664,160.15641c-0.62404,0.41602 -1.04006,-0.20801 -1.04006,-0.20801l-0.32596,-0.71603c0.00677,-3.51898 -0.98312,-6.23557 -0.07761,-9.8819c0,0 0.01689,-0.06756 0.06096,-0.15636c0.01429,-0.10449 0.05587,-0.21847 0.13716,-0.3404c0.41603,-0.62404 1.04006,-0.20801 1.04006,-0.20801c0.38932,0.25954 0.77863,0.51909 1.16795,0.77863c0.21694,0.04127 0.61047,0.19102 0.61047,0.73429c0,0.75 -0.75,0.75 -0.75,0.75l-0.52714,-0.12596c-0.15061,-0.10041 -0.30122,-0.20082 -0.45183,-0.30122c-0.58527,3.16442 0.28451,5.5564 0.28999,8.75093l0.07404,-0.11603c0,0 0.41603,0.62404 -0.20801,1.04006z" fill="#8c5900"/><path d="M235.87596,157.85567c0,0 -0.00503,-0.02012 -0.01007,-0.05451c-0.99774,0.06285 -1.99632,0.11105 -2.99588,0.1208l0.30973,0.37167l-0.27654,0.23045l0.01034,0.08274c0.33348,0.37214 0.65005,0.71187 0.84974,0.80883c0.46936,0.2279 1.57651,-0.02009 2.08177,0.00926c0.10011,0.00581 0.20001,0.01122 0.29971,0.01622c-0.05548,-0.52006 -0.13307,-1.04259 -0.26879,-1.58546zM237.84778,161.58074l0.00579,0.39303c0,0 0,0.01644 -0.00243,0.04444c0.36749,0.09428 0.73804,0.16214 1.10812,0.2025c0.00882,-0.39591 0.02657,-0.79055 0.04401,-1.18472c-0.40431,0.01638 -0.80888,0.02735 -1.21367,0.03211c0.01722,0.16927 0.03628,0.34001 0.05819,0.51265zM238.95936,157.86679c0,0 -0.01587,-0.127 0.01795,-0.28263c-0.53216,0.03612 -1.06451,0.07512 -1.59708,0.11337c0.13846,0.60932 0.21246,1.19897 0.26884,1.7894c0.46941,0.00516 0.93571,0.00187 1.40032,-0.00911c0.00074,-0.5353 -0.02157,-1.07166 -0.09003,-1.61104zM240.44778,157.68074c0.07177,0.5822 0.09404,1.15994 0.09265,1.73619c0.67482,-0.03877 1.34926,-0.09213 2.02768,-0.15768c-0.00804,-0.55327 -0.03595,-1.11007 -0.10875,-1.69245c0,0 -0.00706,-0.05651 -0.00173,-0.14034c-0.68617,0.00816 -1.37259,0.0343 -2.0593,0.07062c0.03948,0.10397 0.04944,0.18367 0.04944,0.18367zM242.49206,161.53659l0.06151,-0.06283c0.00041,-0.23752 0.00298,-0.47079 0.00602,-0.70133c-0.68581,0.06998 -1.37282,0.13125 -2.06077,0.17977c-0.01698,0.42496 -0.03433,0.85054 -0.04166,1.27794c0.69582,-0.0699 1.37201,-0.24663 2.00337,-0.53776c0.01082,-0.09366 0.03153,-0.15579 0.03153,-0.15579zM235.50853,161.02373c0.26586,0.16215 0.53851,0.30929 0.81619,0.4409c-0.01466,-0.13756 -0.02779,-0.27381 -0.03996,-0.40904c-0.25868,-0.0076 -0.51743,-0.01815 -0.77623,-0.03186zM243.94778,157.38074c0.07344,0.58754 0.10351,1.15385 0.11382,1.71642c0.18245,-0.02181 0.3654,-0.04436 0.54895,-0.0676l0.19303,-0.00579c0,0 0.20022,0 0.39376,0.10345c0.17317,-0.30521 0.32994,-0.6341 0.46828,-0.98727c0.00547,-0.85903 -0.81933,-0.85198 -1.72136,-0.78094c0.00255,0.01392 0.00353,0.02173 0.00353,0.02173zM231.75357,157.17376c0,-0.75 0.75,-0.75 0.75,-0.75c3.47705,0 6.94023,-0.5 10.4,-0.5c0.72642,0 3.04858,-0.17572 3.61287,0.22387c0.78805,0.55805 0.62279,1.4963 0.6251,2.25995c-2.49451,6.84247 -10.72147,6.75968 -15.01413,1.64632c-0.20394,-0.2605 -0.40787,-0.521 -0.61181,-0.78149l0.03515,-0.21704l-0.09138,0.01142l-0.09853,-0.78826c-0.00478,-0.03423 -0.00726,-0.06921 -0.00726,-0.10476c0,-0.30892 0.18676,-0.57421 0.45354,-0.68913c-0.03351,-0.08578 -0.05354,-0.18831 -0.05354,-0.31087z" fill="#000000"/><path d="M236.32926,161.03279c0.01217,0.13523 0.02479,0.31804 0.03945,0.4556c-0.27769,-0.13161 -0.63832,-0.32627 -0.90418,-0.48843c0.2588,0.01371 0.60604,0.02522 0.86473,0.03282z" data-paper-data="{&quot;noHover&quot;:false,&quot;origItem&quot;:[&quot;Path&quot;,{&quot;applyMatrix&quot;:true,&quot;segments&quot;:[[[235.84889,162.57897],[0.2588,0.01371],[0.26586,0.16215]],[[236.66508,163.01986],[-0.27769,-0.13161],[-0.01466,-0.13756]],[[236.62512,162.61082],[0.01217,0.13523],[-0.25868,-0.0076]]],&quot;closed&quot;:true}]}" fill="#ce9700"/><path d="M237.75285,161.03417c0.40479,-0.00476 0.88188,-0.01674 1.28619,-0.03312c-0.01743,0.39417 -0.03652,0.85998 -0.04535,1.25589c-0.37007,-0.04036 -0.81575,-0.11538 -1.18323,-0.20966c0.00243,-0.02801 0.00092,-0.04668 0.00092,-0.04668l-0.01342,-0.42419c-0.02191,-0.17264 -0.0279,-0.37297 -0.04511,-0.54224z" data-paper-data="{&quot;noHover&quot;:false,&quot;origItem&quot;:[&quot;Path&quot;,{&quot;applyMatrix&quot;:true,&quot;segments&quot;:[[[238.18814,163.13598],[-0.02191,-0.17264],[0,0]],[238.19393,163.529],[[238.1915,163.57345],[0.00243,-0.02801],[0.36749,0.09428]],[[239.29962,163.77594],[-0.37007,-0.04036],[0.00882,-0.39591]],[[239.34362,162.59122],[-0.01743,0.39417],[-0.40431,0.01638]],[[238.12995,162.62333],[0.40479,-0.00476],[0.01722,0.16927]]],&quot;closed&quot;:true}]}" fill="#ce9700"/><path d="M242.50955,161.70222c-0.63136,0.29113 -1.39766,0.48652 -2.09348,0.55641c0.00733,-0.4274 0.02185,-0.90536 0.03883,-1.33032c0.68795,-0.04852 1.45997,-0.11439 2.14578,-0.18437c-0.00304,0.23054 0.00328,0.49099 0.00288,0.7285l-0.06153,0.06594c0,0 -0.02165,0.07017 -0.03248,0.16383z" data-paper-data="{&quot;noHover&quot;:false,&quot;origItem&quot;:[&quot;Path&quot;,{&quot;applyMatrix&quot;:true,&quot;segments&quot;:[[242.83242,163.09183],[[242.89393,163.029],[0,0],[0.00041,-0.23752]],[[242.89995,162.32768],[-0.00304,0.23054],[-0.68581,0.06998]],[[240.83918,162.50745],[0.68795,-0.04852],[-0.01698,0.42496]],[[240.79752,163.78539],[0.00733,-0.4274],[0.69582,-0.0699]],[[242.80089,163.24762],[-0.63136,0.29113],[0.01082,-0.09366]]],&quot;closed&quot;:true}]}" fill="#ce9700"/><path d="M243.90908,157.32347c0.90202,-0.07105 1.81174,-0.04767 1.80627,0.81135c-0.13834,0.35317 -0.32483,0.733 -0.498,1.03821c-0.19354,-0.10345 -0.41385,-0.09927 -0.41385,-0.09927l-0.20473,0.00438c-0.18354,0.02324 -0.38722,0.03519 -0.56966,0.057c-0.01031,-0.56257 -0.04342,-1.20203 -0.11686,-1.78957c0,0 -0.0006,-0.00818 -0.00315,-0.0221z" data-paper-data="{&quot;noHover&quot;:false,&quot;origItem&quot;:[&quot;Path&quot;,{&quot;applyMatrix&quot;:true,&quot;segments&quot;:[[[244.28814,158.93598],[0,0],[0.07344,0.58754]],[[244.40196,160.6524],[-0.01031,-0.56257],[0.18245,-0.02181]],[[244.9509,160.5848],[-0.18354,0.02324],[0,0]],[245.14393,160.579],[[245.53769,160.68245],[-0.19354,-0.10345],[0.17317,-0.30521]],[[246.00596,159.69519],[-0.13834,0.35317],[0.00547,-0.85903]],[[244.28461,158.91425],[0.90202,-0.07105],[0.00255,0.01392]]],&quot;closed&quot;:true}]}" fill="#ce9700"/><path d="M240.36028,157.46464c0.68671,-0.03632 1.44616,-0.06575 2.13234,-0.07391c-0.00534,0.08382 0.00436,0.14312 0.00436,0.14312c0.0728,0.58238 0.10268,1.20268 0.11072,1.75595c-0.67842,0.06555 -1.42682,0.12466 -2.10165,0.16342c0.00139,-0.57625 -0.02716,-1.21938 -0.09893,-1.80158c0,0 -0.00735,-0.08303 -0.04684,-0.187z" data-paper-data="{&quot;noHover&quot;:false,&quot;origItem&quot;:[&quot;Path&quot;,{&quot;applyMatrix&quot;:true,&quot;segments&quot;:[[[240.78814,159.23598],[0,0],[0.07177,0.5822]],[[240.88079,160.97217],[0.00139,-0.57625],[0.67482,-0.03877]],[[242.90847,160.81448],[-0.67842,0.06555],[-0.00804,-0.55327]],[[242.79972,159.12203],[0.0728,0.58238],[0,0]],[[242.798,158.9817],[-0.00534,0.08382],[-0.68617,0.00816]],[[240.73869,159.05231],[0.68671,-0.03632],[0.03948,0.10397]]],&quot;closed&quot;:true}]}" fill="#ce9700"/><path d="M239.08257,159.51524c-0.46461,0.01098 -0.98966,0.01983 -1.45907,0.01466c-0.05638,-0.59043 -0.14007,-1.2585 -0.27852,-1.86781c0.53257,-0.03825 1.13143,-0.08083 1.66358,-0.11696c-0.03383,0.15563 -0.01203,0.28822 -0.01203,0.28822c0.06847,0.53938 0.08678,1.14659 0.08604,1.68189z" data-paper-data="{&quot;noHover&quot;:false,&quot;origItem&quot;:[&quot;Path&quot;,{&quot;applyMatrix&quot;:true,&quot;segments&quot;:[[[239.29972,159.42203],[0.06847,0.53938],[0,0]],[[239.31768,159.1394],[-0.03383,0.15563],[-0.53216,0.03612]],[[237.72059,159.25278],[0.53257,-0.03825],[0.13846,0.60932]],[[237.98944,161.04218],[-0.05638,-0.59043],[0.46941,0.00516]],[[239.38976,161.03307],[-0.46461,0.01098],[0.00074,-0.5353]]],&quot;closed&quot;:true}]}" fill="#ce9700"/><path d="M236.18985,159.46272c-0.0997,-0.005 -0.20133,-0.00711 -0.30144,-0.01292c-0.50526,-0.02935 -1.69078,0.22944 -2.16015,0.00154c-0.19969,-0.09696 -0.53122,-0.47397 -0.8647,-0.8461l-0.0102,-0.0853l0.27814,-0.23952l-0.30711,-0.37895c0.99956,-0.00975 2.08606,-0.06412 3.0838,-0.12697c0.00504,0.03439 0.01091,0.05589 0.01091,0.05589c0.13572,0.54288 0.21526,1.11226 0.27074,1.63232z" data-paper-data="{&quot;noHover&quot;:false,&quot;origItem&quot;:[&quot;Path&quot;,{&quot;applyMatrix&quot;:true,&quot;segments&quot;:[[[236.21632,159.41091],[0.13572,0.54288],[0,0]],[[236.20625,159.3564],[0.00504,0.03439],[-0.99774,0.06285]],[[233.21037,159.4772],[0.99956,-0.00975],[0,0]],[233.5201,159.84887],[233.24356,160.07932],[[233.2539,160.16206],[0,0],[0.33348,0.37214]],[[234.10364,160.97089],[-0.19969,-0.09696],[0.46936,0.2279]],[[236.18541,160.98015],[-0.50526,-0.02935],[0.10011,0.00581]],[[236.48511,160.99637],[-0.0997,-0.005],[-0.05548,-0.52006]]],&quot;closed&quot;:true}]}" fill="#ce9700"/><path d="M239.30344,151.44388c-0.71151,-0.23717 -0.47434,-0.94868 -0.47434,-0.94868l0.06731,-0.15586c0.30677,-2.45416 0.67262,-5.10389 -0.60698,-7.33487c0,0 -0.3721,-0.65118 0.27908,-1.02329c0.65118,-0.37211 1.02329,0.27908 1.02329,0.27908c1.45079,2.54739 1.14363,5.4603 0.79303,8.26513l-0.1327,0.44414c0,0 -0.23717,0.71151 -0.94868,0.47434z" fill="#8c5900"/><path d="M243.8877,151.76781c-0.73543,0.14709 -0.88252,-0.58835 -0.88252,-0.58835l-0.11456,-0.64709c0,-2.72542 -0.52798,-4.67048 -1.986,-7.0025c0,0 -0.3975,-0.636 0.2385,-1.0335c0.636,-0.3975 1.03349,0.2385 1.03349,0.2385c1.60132,2.56298 2.21401,4.79512 2.21401,7.7975l0.08543,0.35291c0,0 0.14709,0.73544 -0.58835,0.88253z" fill="#8c5900"/><path d="M247.0052,150.60319c-0.67082,-0.33541 -0.33541,-1.00623 -0.33541,-1.00623l0.02661,0.04238c0.12169,-0.95867 0.10695,-5.06798 -0.5279,-5.25579c0,0 -0.65119,-0.37211 -0.27908,-1.02329c0.37211,-0.65118 1.02329,-0.27908 1.02329,-0.27908c1.50443,1.03944 1.5023,4.87686 1.2721,6.74421l-0.17338,0.44239c0,0 -0.33541,0.67082 -1.00623,0.33541z" fill="#8c5900"/><path d="M237.27602,150.20319c-0.67082,0.33541 -1.00623,-0.33541 -1.00623,-0.33541l-0.11854,-0.23997c-1.0503,-2.45068 -1.58515,-5.52805 0.21319,-7.77558c0,0 0.48014,-0.57617 1.0563,-0.09602c0.57617,0.48014 0.09603,1.0563 0.09603,1.0563c-1.48859,1.67854 -0.7696,4.39792 0.01319,6.22443l0.08146,0.16003c0,0 0.33541,0.67082 -0.33541,1.00623z" fill="#8c5900"/><path d="M231.66465,150.6484c-0.41602,0.62404 -1.04006,0.20801 -1.04006,0.20801l-0.58622,-0.56069c-0.66363,-1.77097 -1.58481,-2.88638 -1.34196,-4.85637c0,0 0.09302,-0.74421 0.83723,-0.65118c0.74421,0.09303 0.65118,0.83723 0.65118,0.83723c-0.20645,1.6264 0.68877,2.62663 1.25804,4.14363l0.01378,-0.1607c0,0 0.62403,0.41602 0.20801,1.04006z" fill="#8c5900"/><path d="M250.49352,142.39694c0.73543,-0.14709 0.88253,0.58834 0.88253,0.58834l0.10877,0.74012c-0.17494,1.17732 -0.80187,2.1411 -1.39302,3.17908c0,0 -0.37211,0.65118 -1.02329,0.27908c-0.65118,-0.37211 -0.27908,-1.02328 -0.27908,-1.02328c0.46299,-0.80723 1.12723,-1.71195 1.20697,-2.62092l-0.09122,-0.25989c0,0 -0.14709,-0.73543 0.58834,-0.88252z" fill="#8c5900"/><path d="M255.04061,159.68237c-0.75,0 -0.75,-0.75 -0.75,-0.75l0.02239,-0.2819c0.45862,-1.82094 0.47338,-3.94358 0.47761,-5.81809c0.00164,-0.72654 0.19882,-1.73373 -0.75697,-1.45579c0,0 -0.74421,0.09303 -0.83723,-0.65118c-0.09303,-0.74421 0.65118,-0.83723 0.65118,-0.83723c3.68573,-0.21145 2.52258,6.70215 1.92063,9.12611l0.02239,-0.0819c0,0 0,0.75 -0.75,0.75z" fill="#8c5900"/><path d="M239.61839,175.1657c0,-0.41421 0.33579,-0.75 0.75,-0.75c0.41421,0 0.75,0.33579 0.75,0.75c0,0.41421 -0.33579,0.75 -0.75,0.75c-0.41421,0 -0.75,-0.33579 -0.75,-0.75z" fill="#534d43"/></g></g></svg>