<svg version="1.1" xmlns="http://www.w3.org/2000/svg" xmlns:xlink="http://www.w3.org/1999/xlink" width="30.29167" height="30.29167" viewBox="0,0,30.29167,30.29167"><defs><linearGradient x1="240" y1="165.60417" x2="240" y2="194.39583" gradientUnits="userSpaceOnUse" id="color-1"><stop offset="0" stop-color="#66b8ff"/><stop offset="1" stop-color="#6766ff"/></linearGradient></defs><g transform="translate(-224.85417,-164.85416)"><g data-paper-data="{&quot;isPaintingLayer&quot;:true}" fill-rule="nonzero" stroke-linecap="butt" stroke-linejoin="miter" stroke-miterlimit="10" stroke-dasharray="" stroke-dashoffset="0" style="mix-blend-mode: normal"><path d="M225.60417,194.39583v-28.79167h28.79167v28.79167z" fill="url(#color-1)" stroke="#ffffff" stroke-width="1.5"/><path d="M233.48887,181.23662l-1.15171,-2.1558l18.8632,-10.07743l1.15171,2.1558z" fill="#707070" stroke="#5a5a5a" stroke-width="1"/><path d="M239.87911,180.21228c0.73876,2.66486 -2.98147,4.28225 -4.81765,2.722c0.10334,0.58461 0.2299,1.39586 -0.02959,1.90426c-0.45263,0.88681 -1.97415,0.57912 -1.83306,1.77068c0.1341,1.13259 1.47247,2.21851 1.48094,3.20387c0.0111,1.29164 -1.26366,1.08045 -2.16183,1.18352c-1.53827,-0.14895 -3.80763,-0.05028 -4.06857,-2.18147c-0.16641,-1.35916 1.08408,-2.7446 -0.55385,-3.59342c0,0 -0.40187,-0.22028 -0.18158,-0.62215c0.00943,-0.01721 0.0192,-0.03328 0.02925,-0.04827l-0.0311,-0.10766c-0.14658,-1.34038 0.47752,-1.97583 1.06271,-3.06356c0.71409,-1.28364 2.07901,-3.00855 3.51661,-3.43953c0.52305,-0.15681 1.33248,-0.55494 1.86402,-0.18412c0.39631,0.27648 0.6183,1.31352 0.71084,1.76804c0.02111,0.10366 0.03374,0.30567 0.02935,0.46388c0.29567,-0.2591 1.21472,-0.56423 1.40239,-0.65341c1.31822,-1.03259 3.03468,-1.60522 4.45837,-2.48338c1.55625,-0.95992 3.02381,-2.20614 4.67127,-3.00018c0.98356,-0.77043 5.15292,-2.09505 4.28886,0.74867c-0.13337,0.43891 -0.72245,0.58224 -1.05398,0.7761c-1.49154,0.87215 -3.02112,1.77627 -4.57385,2.52466c-1.48453,0.71551 -2.91287,1.47285 -4.36352,2.20854zM239.0017,180.68372c0,0 -0.10256,-0.03218 -0.19275,-0.11503c-0.24754,0.12243 -0.49618,0.24386 -0.74632,0.36398c-0.72874,0.34997 -1.78171,0.66943 -2.49624,1.23065c1.07081,1.13742 3.99608,0.1251 3.43426,-1.68975c-0.00045,0.00022 -0.00089,0.00045 -0.00134,0.00067zM228.73431,184.6808c0.69525,0.53204 1.09932,1.28984 0.97345,2.23814c-0.0846,0.63739 -0.58292,1.50759 -0.2477,2.14679c0.62708,1.1957 1.98154,0.91114 3.04764,1.01437c0.39164,-0.04895 0.9266,0.00311 1.28578,-0.07615c0.07046,-0.01555 -0.7552,-1.09993 -0.76924,-1.12303c-0.34304,-0.56449 -0.67477,-1.52428 -0.73797,-2.18593c-0.0672,-0.70351 0.17038,-1.29812 0.75855,-1.68205c0.20582,-0.13435 1.05376,-0.27605 1.1507,-0.54937c0.18824,-0.53075 -0.021,-1.35757 -0.06702,-1.88988c0.61734,-1.17375 1.89937,-1.79088 3.0926,-2.25115c2.23956,-0.86385 4.30075,-2.20205 6.46961,-3.24738c1.35913,-0.65508 2.75043,-1.41072 4.05663,-2.17667c0.35658,-0.2091 1.03234,-0.17071 1.09662,-0.57906c0.24303,-1.54391 -2.55198,0.01242 -2.93194,0.31005c-1.65011,0.79531 -3.10832,2.04623 -4.67127,3.00018c-1.42742,0.87123 -3.14141,1.45178 -4.45837,2.48338c-0.3045,0.14849 -1.89323,1.06063 -2.1755,0.95499c-1.02288,-0.38282 -0.38187,-1.95574 -0.97585,-2.55989c-0.06244,-0.0635 -1.02863,0.29693 -1.08283,0.31224c-1.17077,0.3308 -2.40988,1.95971 -2.96968,3.00025c-0.46652,0.83862 -1.10998,1.39526 -0.96842,2.43964z" fill="#686868" stroke="none" stroke-width="0.5"/><path d="M228.58006,184.2658c-0.14157,-1.04438 0.50142,-1.60799 0.96794,-2.44661c0.5598,-1.04054 1.80219,-2.68184 2.97296,-3.01265c0.05421,-0.01531 1.07315,-0.34509 1.13559,-0.28159c0.59398,0.60415 -0.04296,2.16782 0.97993,2.55064c0.28226,0.10564 1.81801,-0.83374 2.12252,-0.98222c1.31696,-1.0316 3.06577,-1.62081 4.49319,-2.49204c1.56294,-0.95395 3.02959,-2.19975 4.6797,-2.99506c0.37996,-0.29763 3.1785,-1.85041 2.93547,-0.30649c-0.06428,0.40834 -0.78635,0.4098 -1.14293,0.6189c-1.3062,0.76595 -2.6941,1.52491 -4.05323,2.17997c-2.16885,1.04534 -4.18798,2.38066 -6.42755,3.24452c-1.19323,0.46026 -2.46729,1.05507 -3.08463,2.22882c0.04603,0.53232 0.25291,1.34896 0.06467,1.8797c-0.09694,0.27332 -0.94499,0.41478 -1.1508,0.54913c-0.58817,0.38393 -0.82786,0.9745 -0.76066,1.67801c0.0632,0.66164 0.39018,1.61556 0.73321,2.18005c0.01404,0.0231 0.8364,1.10473 0.76594,1.12028c-0.35919,0.07926 -0.93219,0.07493 -1.32383,0.12388c-1.0661,-0.10323 -2.42559,0.17566 -3.05267,-1.02004c-0.33522,-0.63919 0.16076,-1.51344 0.24536,-2.15083c0.12587,-0.9483 -0.28047,-1.71259 -0.97571,-2.24464z" data-paper-data="{&quot;noHover&quot;:false,&quot;origItem&quot;:[&quot;Path&quot;,{&quot;applyMatrix&quot;:true,&quot;segments&quot;:[[[439.09914,362.24845],[0,0],[1.69658,2.30928]],[[440.10526,370.17345],[1.26511,-2.86416],[-0.85033,1.92511]],[[437.35828,376.69157],[-0.4671,-2.31577],[0.87378,4.332]],[[446.00382,382.67357],[-3.25505,-1.30202],[1.27543,0.20536]],[[450.11362,383.61343],[-1.20126,-0.08035],[0.23564,0.01576]],[[448.72654,379.37942],[0.02292,0.08545],[-0.56016,-2.08823]],[[448.41241,371.83443],[-0.40818,2.13686],[0.434,-2.27208]],[[452.33831,367.245],[-2.20014,0.66695],[0.76989,-0.23339]],[[456.45765,366.57411],[-0.55524,0.76988],[1.07819,-1.49499]],[[457.98017,360.57458],[-0.34354,1.71477],[3.0161,-3.12184]],[[469.76163,356.33749],[-4.17125,0.3519],[7.82897,-0.66047]],[[493.06732,352.06707],[-7.77322,1.29554],[4.87117,-0.81186]],[[507.80949,348.94804],[-4.80655,1.20878],[1.31215,-0.32999]],[[511.78611,348.13429],[-0.57643,1.22408],[2.17944,-4.62815]],[[502.28953,346.41975],[1.46679,-0.58672],[-5.91402,0.98567]],[[484.86096,351.56261],[5.78563,-1.56404],[-5.28395,1.42842]],[[468.57525,355.2769],[5.08395,-2.03358],[-1.09293,0.1873]],[[460.86401,356.28247],[0.78999,0.59076],[-2.86287,-2.14087]],[[460.14541,347.34433],[1.31228,2.44295],[-0.13794,-0.25678]],[[456.45678,347.33238],[0.18435,0.00159],[-3.98196,-0.03427]],[[444.37458,354.0359],[2.71314,-2.75604],[-2.23489,2.20715]],[[439.09452,360.81324],[0.51295,-3.41129],[0,0]]],&quot;closed&quot;:true}]}" fill="#919191" stroke="none" stroke-width="0.5"/><path d="M240.62399,179.94941l-1.33339,-2.45451l7.67037,-4.16687l1.33339,2.45452z" fill="#707070" stroke="#5a5a5a" stroke-width="1"/><path d="M238.09436,181.91801c0.03963,0.45656 -0.41694,0.49619 -0.41694,0.49619l-0.70334,-0.0162c-0.28867,-0.15823 -0.57735,-0.31647 -0.86602,-0.4747c0,0 -0.40187,-0.22028 -0.18158,-0.62215c0.22028,-0.40187 0.62215,-0.18158 0.62215,-0.18158c0.28867,0.15823 0.57735,0.31647 0.86602,0.4747l0.18352,-0.09319c0,0 0.45656,-0.03963 0.49619,0.41694z" fill="#686868" stroke="none" stroke-width="0.5"/><path d="M233.34339,179.82068l0.07488,0.18128c-0.07675,0.67527 -1.06137,2.44626 -2.06476,1.47786c-0.74017,-0.71436 0.30521,-1.57229 0.9857,-1.99088c0.02901,-0.08388 0.09128,-0.1681 0.21003,-0.23752c0.21118,-0.12344 0.37553,-0.06827 0.48287,0.01001c0.09804,0.02774 0.19768,0.09704 0.26947,0.246c0.05947,0.12339 0.06429,0.22767 0.04181,0.31325z" fill="#686868" stroke="none" stroke-width="0.5"/></g></g></svg>