<svg version="1.1" xmlns="http://www.w3.org/2000/svg" xmlns:xlink="http://www.w3.org/1999/xlink" width="30.29167" height="30.29167" viewBox="0,0,30.29167,30.29167"><defs><linearGradient x1="240" y1="165.60417" x2="240" y2="194.39583" gradientUnits="userSpaceOnUse" id="color-1"><stop offset="0" stop-color="#4d7e57"/><stop offset="1" stop-color="#334d35"/></linearGradient><linearGradient x1="239.96162" y1="173.60066" x2="239.96162" y2="186.46791" gradientUnits="userSpaceOnUse" id="color-2"><stop offset="0" stop-color="#0c0f0c"/><stop offset="1" stop-color="#090b09"/></linearGradient><linearGradient x1="248.31733" y1="177.23464" x2="248.31733" y2="182.40604" gradientUnits="userSpaceOnUse" id="color-3"><stop offset="0" stop-color="#1e251e"/><stop offset="1" stop-color="#1e251e" stop-opacity="0"/></linearGradient><linearGradient x1="244.82664" y1="174.9937" x2="244.82664" y2="182.66461" gradientUnits="userSpaceOnUse" id="color-4"><stop offset="0" stop-color="#1e251e"/><stop offset="1" stop-color="#1e251e" stop-opacity="0"/></linearGradient><linearGradient x1="240.57039" y1="172.92366" x2="240.57039" y2="181.28556" gradientUnits="userSpaceOnUse" id="color-5"><stop offset="0" stop-color="#1e251e"/><stop offset="1" stop-color="#1e251e" stop-opacity="0"/></linearGradient><linearGradient x1="236.20764" y1="172.98666" x2="236.20764" y2="180.41852" gradientUnits="userSpaceOnUse" id="color-6"><stop offset="0" stop-color="#1e251e"/><stop offset="1" stop-color="#1e251e" stop-opacity="0"/></linearGradient><linearGradient x1="232.41355" y1="174.64746" x2="232.41355" y2="180.85462" gradientUnits="userSpaceOnUse" id="color-7"><stop offset="0" stop-color="#1e251e"/><stop offset="1" stop-color="#1e251e" stop-opacity="0"/></linearGradient><linearGradient x1="230.08935" y1="177.32083" x2="230.08935" y2="182.23624" gradientUnits="userSpaceOnUse" id="color-8"><stop offset="0" stop-color="#1e251e"/><stop offset="1" stop-color="#1e251e" stop-opacity="0"/></linearGradient></defs><g transform="translate(-224.85417,-164.85416)"><g data-paper-data="{&quot;isPaintingLayer&quot;:true}" fill-rule="nonzero" stroke-linecap="butt" stroke-linejoin="miter" stroke-miterlimit="10" stroke-dasharray="" stroke-dashoffset="0" style="mix-blend-mode: normal"><path d="M225.60417,194.39583v-28.79167h28.79167v28.79167z" fill="url(#color-1)" stroke="#ffffff" stroke-width="1.5"/><path d="M238.44492,173.93414l0.25993,-0.00031c1.42096,-0.00185 2.64038,0.08197 3.9616,0.60886c2.62267,1.4558 9.18576,4.51695 7.36519,8.376c-0.33761,0.71562 -1.06003,1.36876 -1.62206,1.89975c-0.64421,0.60863 -1.14735,0.85569 -1.99048,1.10293c-3.05789,0.92262 -6.565,0.48901 -9.67604,0.06481c-2.91181,-0.39703 -5.50393,-0.66892 -7.08142,-3.4302c-0.7725,-4.05739 3.88977,-8.64091 8.07369,-8.95533c0.24819,0.33435 0.70959,0.33348 0.70959,0.33348z" data-paper-data="{&quot;noHover&quot;:false,&quot;origItem&quot;:[&quot;Path&quot;,{&quot;applyMatrix&quot;:true,&quot;segments&quot;:[[[236.73193,174.2664],[0.35994,0.48491],[-6.06787,0.456]],[[225.05501,187.19505],[-1.12034,-5.88437],[2.28781,4.00464]],[[235.30031,192.13772],[-4.22296,-0.57581],[4.5119,0.6152]],[[249.27257,192.05402],[-4.43481,1.33806],[1.22278,-0.35859]],[[252.15278,190.4635],[-0.93429,0.88269],[0.8151,-0.77009]],[[254.50067,187.71919],[-0.48963,1.03786],[2.64034,-5.59671]],[[243.84504,175.63021],[3.80362,2.11133],[-1.91613,-0.76414]],[[238.13176,174.75131],[2.06079,-0.00269],[0,0]],[237.75676,174.75131]],&quot;closed&quot;:true}]}" fill="url(#color-2)" stroke="none" stroke-width="0.5"/><path d="M248.31733,182.40604c-0.8619,0 -0.8619,-0.8619 -0.8619,-0.8619c0,-0.8619 0,-2.5857 0,-3.4476c0,0 0,-0.8619 0.8619,-0.8619c0.8619,0 0.8619,0.8619 0.8619,0.8619c0,0.8619 0,1.7238 0,2.5857v0.8619c0,0 0,0.8619 -0.8619,0.8619z" fill="url(#color-3)" stroke="none" stroke-width="0.5"/><path d="M244.78354,182.66461c-0.8619,0 -0.8619,-0.71691 -0.8619,-0.71691v-0.50183c0,-1.91477 0.08619,-3.81944 0.08619,-5.73526c0,0 0,-0.71691 0.8619,-0.71691c0.8619,0 0.8619,0.71691 0.8619,0.71691c0,1.9158 -0.08619,3.82063 -0.08619,5.73526v0.50183c0,0 0,0.71691 -0.8619,0.71691z" fill="url(#color-4)" stroke="none" stroke-width="0.5"/><path d="M240.64643,181.28556c-0.8619,0 -0.8619,-0.61932 -0.8619,-0.61932v-0.43352c0,-2.199 0.11103,-4.44404 -0.16884,-6.6326c0,0 -0.07803,-0.61678 0.78033,-0.67285c0.85836,-0.05607 0.9364,0.56071 0.9364,0.56071c0.27901,2.22735 0.17592,4.50736 0.17592,6.74474v0.43352c0,0 0,0.61932 -0.8619,0.61932z" fill="url(#color-5)" stroke="none" stroke-width="0.5"/><path d="M236.25074,180.41852c-0.8619,0 -0.8619,-0.61932 -0.8619,-0.61932v-0.3716c0.00352,-1.93625 -0.08619,-3.88079 -0.08619,-5.82162c0,0 0,-0.61932 0.8619,-0.61932c0.8619,0 0.8619,0.61932 0.8619,0.61932c0,1.94134 0.083,3.88467 0.08619,5.82162v0.3716c0,0 0,0.61932 -0.8619,0.61932z" fill="url(#color-6)" stroke="none" stroke-width="0.5"/><path d="M232.37219,180.85462c-0.8619,0 -0.8619,-0.6398 -0.8619,-0.6398v-0.3199c0.00245,-1.53779 0.19209,-3.00918 0.00354,-4.54863c0,0 -0.07803,-0.63717 0.78033,-0.6951c0.85836,-0.05793 0.9364,0.57924 0.9364,0.57924c0.19338,1.57916 0.00077,3.08885 0.00354,4.66448v0.3199c0,0 0,0.6398 -0.8619,0.6398z" fill="url(#color-7)" stroke="none" stroke-width="0.5"/><path d="M229.93816,182.22527c-0.85525,-0.12694 -0.74834,-1.14244 -0.74834,-1.14244l0.07954,-0.69179c0,-0.68227 0,-1.36454 0,-2.04681c0,0 0,-1.02341 0.8619,-1.02341c0.8619,0 0.8619,1.02341 0.8619,1.02341c0,0.68227 0,1.36454 0,2.04681l-0.09284,0.94566c0,0 -0.1069,1.0155 -0.96215,0.88856z" fill="url(#color-8)" stroke="none" stroke-width="0.5"/><path d="M237.7466,173.63325c-4.18392,0.31442 -8.82397,4.85717 -8.05147,8.91456c1.57749,2.76128 4.15252,3.01104 7.06434,3.40807c3.11104,0.42419 6.57626,0.86491 9.63415,-0.05771c0.84313,-0.24725 1.34174,-0.48807 1.98595,-1.0967c0.56203,-0.53099 1.28131,-1.17663 1.61892,-1.89226c1.82057,-3.85904 -4.7246,-6.87978 -7.34727,-8.33559c-1.32121,-0.52689 -2.51846,-0.60788 -3.93942,-0.60603h-0.25857c0,0 -0.45845,0 -0.70663,-0.33435zM240.50949,172.32187c0.96876,0.09651 1.89455,0.29903 2.8819,0.69495c3.61823,2.01145 10.60508,5.49304 8.16692,10.62621c-0.43629,0.91852 -1.26785,1.73425 -2.00105,2.41724c-0.83535,0.77814 -1.58663,1.15854 -2.6683,1.489c-2.16411,0.64589 -4.26948,0.57758 -6.49628,0.46623c-4.61029,-0.23054 -9.86072,-0.37311 -12.3155,-4.87296c-1.26153,-6.12964 6.21844,-12.67787 12.17514,-10.94857c0,0 0.12142,0.03643 0.25716,0.12791z" fill="#1e251e" stroke="none" stroke-width="0.5"/></g></g></svg>