<svg version="1.1" xmlns="http://www.w3.org/2000/svg" xmlns:xlink="http://www.w3.org/1999/xlink" width="27.39581" height="31.75719" viewBox="0,0,27.39581,31.75719"><g transform="translate(-225.54372,-167.12919)"><g data-paper-data="{&quot;isPaintingLayer&quot;:true}" fill-rule="nonzero" stroke-linecap="butt" stroke-linejoin="miter" stroke-miterlimit="10" stroke-dasharray="" stroke-dashoffset="0" style="mix-blend-mode: normal"><path d="M228.09091,198.13639v-9.81818h23.81818v9.81818z" fill="#9a6d4e" stroke="#704f39" stroke-width="1.5"/><path d="M232.77273,193.2273v-7.18182h14.45455v7.18182z" fill="#f17400" stroke="#c96100" stroke-width="1.5"/><path d="M231.98597,186.99597l2.41587,-6.76329l13.6122,4.86232l-2.41587,6.76329z" fill="#eae0b9" stroke="#dcd2ae" stroke-width="1.5"/><path d="M235.20027,188.9423l-3.26992,-6.39423l12.8694,-6.58123l3.26992,6.39423z" fill="#f17400" stroke="#c96100" stroke-width="1.5"/><path d="M232.77273,182.09093v-7.18182h14.45455v7.18182z" fill="#eae0b9" stroke="#dcd2ae" stroke-width="1.5"/><path d="M232.3477,180.799l1.04172,-7.10587l14.30168,2.09663l-1.04172,7.10587z" fill="#f17400" stroke="#c96100" stroke-width="1.5"/><path d="M233.39341,181.31045l-1.04787,-7.10496l14.29986,-2.109l1.04787,7.10496z" fill="#eae0b9" stroke="#dcd2ae" stroke-width="1.5"/><path d="M249.72222,180.75c0.25,0 0.25,0.25 0.25,0.25l-0.01283,0.19017c-0.4634,1.31793 -1.47318,0.91337 -0.9904,2.32534c0.0182,2.10492 -2.69224,2.86737 -2.66344,5.48449c0,0 0,0.0549 -0.02573,0.11325c-0.05016,0.20828 -0.28261,0.37231 -0.59408,0.43845c0.29616,0.89189 0.73993,1.79946 1.05142,2.70259c0,0 0.00673,0.02019 0.01037,0.05076c0.69041,-0.36371 1.52804,-0.6182 2.24235,-1.3707l0.399,-0.07322c0,0 0.25,0 0.25,0.25c0,0.25 -0.25,0.25 -0.25,0.25l-0.04545,-0.07322c-1.51428,1.46076 -3.48233,0.86236 -3.48233,3.601c0,0 0,0.25 -0.25,0.25c-0.25,0 -0.25,-0.25 -0.25,-0.25c0,-1.32845 0.4068,-1.94098 0.99286,-2.34825c-0.0656,-0.05162 -0.09114,-0.12825 -0.09114,-0.12825c-0.33227,-1.0249 -0.75935,-1.88847 -1.11111,-2.88889l-0.01283,-0.30128c0,0 0,-0.0066 0.00107,-0.01765c0.00496,-0.05111 0.03283,-0.19752 0.1897,-0.22711c-0.59192,-0.1163 -1.91051,-0.28617 -2.2741,-0.28303c-2.54222,0 -2.89199,-2.56001 -5.37878,-0.07322c0,0 -0.00008,0.00008 -0.00024,0.00024c0.03055,0.88346 -0.73242,1.69622 -1.60843,2.1871c0.41089,0.4262 1.16591,0.71672 1.32954,1.20688c0.27289,0.81745 -0.8422,1.12982 -0.9842,1.80238c-0.07628,0.36131 0.55555,0.89488 0.55555,1.44445l-0.12071,0.37234c0,0 -0.07906,0.23717 -0.31623,0.15811c-0.23717,-0.07906 -0.15811,-0.31623 -0.15811,-0.31623l0.10151,-0.29432c0,-0.65073 -0.65286,-0.77248 -0.55556,-1.44445c0.04733,-0.32685 1.13654,-1.32753 1.01581,-1.53095c-0.28472,-0.47971 -0.93734,-0.69336 -1.33301,-1.17195c-0.56414,0.23382 -1.12602,0.32226 -1.51508,0.20234c-1.38239,-0.46965 -1.87773,1.08099 -3.39295,0.08196l0.02757,0.04198c0,0 -0.25,0 -0.25,-0.25c0,-0.25 0.25,-0.25 0.25,-0.25l0.24979,0.04199c1.28347,0.86685 1.8453,-0.6054 3.27371,-0.14027c0.9511,0.33442 3.82726,-1.53077 2.71814,-2.72777c-0.34628,-0.37372 -1.2436,-0.62825 -1.71365,-0.93816c-2.16514,-1.45239 1.09181,-2.31288 0.57438,-3.77901c-0.10542,-0.29872 -1.23995,-0.58764 -1.60204,-1.01332c-0.90275,0.32248 -2.14576,0.31263 -2.97684,0.59927l-0.18948,0.09755c0,0 -0.22361,0.1118 -0.33541,-0.1118c-0.1118,-0.22361 0.1118,-0.33541 0.1118,-0.33541l0.25497,-0.12468c0.89615,-0.29053 1.98404,0.33828 2.83651,-0.19771c0.08354,-0.05253 0.15642,-0.11939 0.22064,-0.1969c0.01227,-0.04025 0.03829,-0.08126 0.08649,-0.11822c0.25026,-0.38551 0.34891,-0.94613 0.47152,-1.36032l-0.15734,-0.15734l0.02774,-0.02774l-0.02978,-0.0194c-0.00374,-0.00111 -0.00752,-0.0023 -0.01134,-0.00358c-0.23717,-0.07906 -0.15811,-0.31623 -0.15811,-0.31623c0.01456,-0.04141 0.03583,-0.08794 0.06304,-0.13845c-0.18493,-0.62472 -0.80131,-0.09556 -1.33598,-0.60572c-0.13142,-0.12539 -0.39168,-1.49119 -0.54733,-1.48902c-0.50565,0.00706 -1.08183,0.00088 -1.60923,0.00669c0,0 -0.25,0 -0.25,-0.25c0,-0.25 0.25,-0.25 0.25,-0.25c0.36956,0.0032 1.4134,-0.08036 1.7241,0.00669c0.72079,0.20194 0.41845,1.21083 0.78601,1.62209c0.3263,0.36511 0.99382,0.12761 1.31662,0.48747c0.58524,-0.69265 1.63265,-1.48928 2.15386,-0.90131c0.19193,0.21651 0.10602,0.99924 0.2767,1.2767c0.23995,0.39005 0.67608,-0.66024 1.1081,-0.81214l0.18948,-0.09755c0,0 0.22361,-0.1118 0.33541,0.1118v0.00001c0.1118,0.22361 -0.1118,0.33541 -0.1118,0.33541l-0.25497,0.12468c-0.50563,0.15586 -0.93517,1.13259 -1.55857,0.74342c-0.36949,-0.23067 -0.27855,-1.08815 -0.38997,-1.38997c-0.04607,-0.12481 -0.7508,0.42104 -1.23123,0.87318c0.01121,0.02841 0.01737,0.05936 0.01737,0.09175v0.33333h-0.03383c0.2515,1.05717 -0.04019,1.63493 -0.58578,1.97511c0.44984,0.49116 1.35642,0.45568 1.60059,1.04033c0.57942,1.38738 -2.32497,2.51762 -0.75896,3.55432c0.46143,0.31166 1.53593,0.61691 1.84192,1.06184c0.07239,0.10527 0.13098,0.21069 0.17684,0.31587c0.71015,-0.63063 2.12224,-1.6107 2.93824,-1.28955c1.12041,0.44095 1.15668,1.42541 2.571,1.42541c0.90196,0.00993 1.94489,-0.28339 2.79724,0.25901c0.35639,-2.13437 2.60365,-3.13133 2.62266,-4.85785c-0.5144,-1.61628 0.60628,-1.25509 1.0096,-2.56355l-0.01283,-0.03205c0,0 0,-0.25 0.25,-0.25zM245.59502,189.07489c0.04626,-0.00906 0.02811,-0.02471 -0.03734,-0.04466c0.01507,0.01371 0.02735,0.02894 0.03734,0.04466z" fill="#ffffff" stroke="none" stroke-width="0.5"/><path d="M229.95455,195.86366v-19.32324h20.09091v19.32324z" fill="none" stroke="#704f39" stroke-width="1.5"/><path d="M229.02868,183.74895l-2.56507,-9.47719l22.99095,-6.22267l2.56507,9.47719z" fill="#9a6d4e" stroke="#704f39" stroke-width="1.5"/></g></g></svg>