<svg version="1.1" xmlns="http://www.w3.org/2000/svg" xmlns:xlink="http://www.w3.org/1999/xlink" width="521.9608" height="403.98861" viewBox="0,0,521.9608,403.98861"><g transform="translate(20.78976,22.14772)"><g data-paper-data="{&quot;isPaintingLayer&quot;:true}" fill-rule="nonzero" stroke-linejoin="miter" stroke-miterlimit="10" stroke-dasharray="" stroke-dashoffset="0" style="mix-blend-mode: normal"><path d="M-20.78975,381.8409v-403.68179h521.57951v403.68179z" fill="#b98f6d" stroke="none" stroke-width="0" stroke-linecap="butt"/><path d="M487.39768,37.73602l-42.44318,-0.94318l-0.94318,-46.21591" data-paper-data="{&quot;index&quot;:null}" fill="none" stroke="#aa8364" stroke-width="2.5" stroke-linecap="round"/><path d="M444.9545,36.79285l-30.18182,21.69318l-44.32954,-10.375l-6.60228,-62.24999" data-paper-data="{&quot;index&quot;:null}" fill="none" stroke="#aa8364" stroke-width="2.5" stroke-linecap="round"/><path d="M370.44314,47.16785l-38.67046,9.43182l-49.98863,-26.40909l6.60227,-48.10227" data-paper-data="{&quot;index&quot;:null}" fill="none" stroke="#aa8364" stroke-width="2.5" stroke-linecap="round"/><path d="M327.8538,100.95678l-6.79532,-17.47368l11.16375,-26.21053" data-paper-data="{&quot;index&quot;:null}" fill="none" stroke="#aa8364" stroke-width="2.5" stroke-linecap="round"/><path d="M287.08187,104.35444l2.4269,-17.95906l32.03508,-3.88304" data-paper-data="{&quot;index&quot;:null}" fill="none" stroke="#aa8364" stroke-width="2.5" stroke-linecap="round"/><path d="M447.2573,94.64684l-33.49122,-4.8538l1.94152,-30.57894" data-paper-data="{&quot;index&quot;:null}" fill="none" stroke="#aa8364" stroke-width="2.5" stroke-linecap="round"/><path d="M498.22221,125.22579l-78.1462,13.10526l-20.38596,-27.18128l14.56141,-21.35673" data-paper-data="{&quot;index&quot;:null}" fill="none" stroke="#aa8364" stroke-width="2.5" stroke-linecap="round"/><path d="M431.23976,167.93923l-11.16375,-5.82456l-0.48538,-22.81286" data-paper-data="{&quot;index&quot;:null}" fill="none" stroke="#aa8364" stroke-width="2.5" stroke-linecap="round"/><path d="M400.17543,111.14976l-36.88889,4.36842" data-paper-data="{&quot;index&quot;:null}" fill="none" stroke="#aa8364" stroke-width="2.5" stroke-linecap="round"/><path d="M289.99415,85.42462l-21.35672,-9.22222" data-paper-data="{&quot;index&quot;:null}" fill="none" stroke="#aa8364" stroke-width="2.5" stroke-linecap="round"/><path d="M421.53216,161.14391l-24.75439,9.70761" data-paper-data="{&quot;index&quot;:null}" fill="none" stroke="#aa8364" stroke-width="2.5" stroke-linecap="round"/><path d="M279.80117,30.65854l-43.19883,7.2807l-38.83041,-13.59064l1.94152,-32.03508" data-paper-data="{&quot;index&quot;:null}" fill="none" stroke="#aa8364" stroke-width="2.5" stroke-linecap="round"/><path d="M180.29825,63.179l0.48538,-27.18129l17.47368,-12.1345" data-paper-data="{&quot;index&quot;:null}" fill="none" stroke="#aa8364" stroke-width="2.5" stroke-linecap="round"/><path d="M155.54386,23.37783l24.75439,12.61989" data-paper-data="{&quot;index&quot;:null}" fill="none" stroke="#aa8364" stroke-width="2.5" stroke-linecap="round"/><path d="M235.63158,37.45385l-6.30995,25.23977" data-paper-data="{&quot;index&quot;:null}" fill="none" stroke="#aa8364" stroke-width="2.5" stroke-linecap="round"/><path d="M54.09942,369.66025l5.82457,-24.269l29.12281,-8.73684l23.29824,5.33918v23.78362" data-paper-data="{&quot;index&quot;:null}" fill="none" stroke="#aa8364" stroke-width="2.5" stroke-linecap="round"/><path d="M58.46785,345.39124l-17.47368,-21.35672l16.9883,-35.43275l-5.82456,-18.92982l3.88304,-26.21052" data-paper-data="{&quot;index&quot;:null}" fill="none" stroke="#aa8364" stroke-width="2.5" stroke-linecap="round"/><path d="M-18.22221,325.49066l36.88889,-11.64912l22.32749,9.22222" data-paper-data="{&quot;index&quot;:null}" fill="none" stroke="#aa8364" stroke-width="2.5" stroke-linecap="round"/><path d="M112.83042,343.44972l12.1345,-10.19299l22.32748,-1.45614" data-paper-data="{&quot;index&quot;:null}" fill="none" stroke="#aa8364" stroke-width="2.5" stroke-linecap="round"/><path d="M125.4503,331.31522l2.4269,-15.53216l17.95907,-17.47368" data-paper-data="{&quot;index&quot;:null}" fill="none" stroke="#aa8364" stroke-width="2.5" stroke-linecap="round"/><path d="M127.8772,313.84154l-13.10526,-16.50293" data-paper-data="{&quot;index&quot;:null}" fill="none" stroke="#aa8364" stroke-width="2.5" stroke-linecap="round"/><path d="M98.26901,317.72458l-10.19298,17.95906" data-paper-data="{&quot;index&quot;:null}" fill="none" stroke="#aa8364" stroke-width="2.5" stroke-linecap="round"/><path d="M57.49708,290.54329l28.63743,-8.25146" data-paper-data="{&quot;index&quot;:null}" fill="none" stroke="#aa8364" stroke-width="2.5" stroke-linecap="round"/><path d="M26.43276,255.11054l14.56141,-0.97076l11.64912,7.2807" data-paper-data="{&quot;index&quot;:null}" fill="none" stroke="#aa8364" stroke-width="2.5" stroke-linecap="round"/><path d="M379.30409,261.42048l-1.45614,32.52047l-29.60819,10.19298l0.48538,46.59649l-25.23977,9.22222l-2.4269,17.95907" data-paper-data="{&quot;index&quot;:null}" fill="none" stroke="#aa8364" stroke-width="2.5" stroke-linecap="round"/><path d="M349.6959,303.64855h-14.5614l-30.09357,-4.8538l-2.4269,-13.10527l2.4269,-23.78362" data-paper-data="{&quot;index&quot;:null}" fill="none" stroke="#aa8364" stroke-width="2.5" stroke-linecap="round"/><path d="M269.12281,369.17487l-10.67836,-39.80117l11.16374,-36.88889l32.52047,-7.76608" data-paper-data="{&quot;index&quot;:null}" fill="none" stroke="#aa8364" stroke-width="2.5" stroke-linecap="round"/><path d="M256.50293,329.85908l-23.29825,6.30994l-7.76609,-10.19298" data-paper-data="{&quot;index&quot;:null}" fill="none" stroke="#aa8364" stroke-width="2.5" stroke-linecap="round"/><path d="M233.20468,337.62516l-0.97076,2.91228l-3.39767,9.7076" data-paper-data="{&quot;index&quot;:null}" fill="none" stroke="#aa8364" stroke-width="2.5" stroke-linecap="round"/><path d="M269.60819,292.48481l-8.73684,-8.25146" data-paper-data="{&quot;index&quot;:null}" fill="none" stroke="#aa8364" stroke-width="2.5" stroke-linecap="round"/><path d="M349.21052,349.27428l19.90059,18.44445" data-paper-data="{&quot;index&quot;:null}" fill="none" stroke="#aa8364" stroke-width="2.5" stroke-linecap="round"/><path d="M-3.92426,49.32692l24.75439,8.73684l-3.88304,28.63742l-28.63742,6.30994" data-paper-data="{&quot;index&quot;:null}" fill="none" stroke="#aa8364" stroke-width="2.5" stroke-linecap="round"/><path d="M63.54358,99.80645l-30.57894,-4.85379l-16.01754,-9.70761" data-paper-data="{&quot;index&quot;:null}" fill="none" stroke="#aa8364" stroke-width="2.5" stroke-linecap="round"/><path d="M31.99387,93.98189l-2.91229,22.81286l-35.43274,3.39766" data-paper-data="{&quot;index&quot;:null}" fill="none" stroke="#aa8364" stroke-width="2.5" stroke-linecap="round"/><path d="M73.73656,133.29767l-33.9766,-2.4269l-9.7076,-15.04678" data-paper-data="{&quot;index&quot;:null}" fill="none" stroke="#aa8364" stroke-width="2.5" stroke-linecap="round"/><path d="M24.71317,160.96434l13.59064,-29.60818" data-paper-data="{&quot;index&quot;:null}" fill="none" stroke="#aa8364" stroke-width="2.5" stroke-linecap="round"/><path d="M20.34475,58.06376l20.38597,-7.76608l25.23976,1.94152" data-paper-data="{&quot;index&quot;:null}" fill="none" stroke="#aa8364" stroke-width="2.5" stroke-linecap="round"/><path d="M53.83597,-7.08587l2.4269,17.58239l-15.04678,37.37427" data-paper-data="{&quot;index&quot;:null}" fill="none" stroke="#aa8364" stroke-width="2.5" stroke-linecap="round"/><path d="M56.26288,10.38781l12.1345,1.94152" data-paper-data="{&quot;index&quot;:null}" fill="none" stroke="#aa8364" stroke-width="2.5" stroke-linecap="round"/><path d="M156.51463,171.3369l-33.49123,9.7076l-4.8538,-10.67837l10.67836,-32.52046l27.18128,5.82456l0.48539,27.18129l16.50292,12.1345" data-paper-data="{&quot;index&quot;:null}" fill="none" stroke="#aa8364" stroke-width="2.5" stroke-linecap="round"/><path d="M128.36258,126.19655l1.45614,11.64912" data-paper-data="{&quot;index&quot;:null}" fill="none" stroke="#aa8364" stroke-width="2.5" stroke-linecap="round"/><path d="M118.1696,170.36613l-22.81286,0.97077" data-paper-data="{&quot;index&quot;:null}" fill="none" stroke="#aa8364" stroke-width="2.5" stroke-linecap="round"/><path d="M155.05848,142.69947l10.19298,-7.2807l15.04678,4.8538" data-paper-data="{&quot;index&quot;:null}" fill="none" stroke="#aa8364" stroke-width="2.5" stroke-linecap="round"/><path d="M165.25147,122.31351l-0.48538,12.1345" data-paper-data="{&quot;index&quot;:null}" fill="none" stroke="#aa8364" stroke-width="2.5" stroke-linecap="round"/><path d="M366.19883,207.63514l-32.52046,-4.8538l-8.25146,-18.44444" data-paper-data="{&quot;index&quot;:null}" fill="none" stroke="#aa8364" stroke-width="2.5" stroke-linecap="round"/><path d="M332.7076,201.3252l-10.19299,19.90058" data-paper-data="{&quot;index&quot;:null}" fill="none" stroke="#aa8364" stroke-width="2.5" stroke-linecap="round"/><path d="M237.08772,123.179l-8.73684,-10.67836l0.97076,-6.79533" data-paper-data="{&quot;index&quot;:null}" fill="none" stroke="#aa8364" stroke-width="2.5" stroke-linecap="round"/><path d="M205.53802,262.48309l-9.22223,13.59064" data-paper-data="{&quot;index&quot;:null}" fill="none" stroke="#aa8364" stroke-width="2.5" stroke-linecap="round"/><path d="M191.94737,260.05619l8.73684,7.2807" data-paper-data="{&quot;index&quot;:null}" fill="none" stroke="#aa8364" stroke-width="2.5" stroke-linecap="round"/><path d="M68.17545,190.64684l2.4269,13.10526" data-paper-data="{&quot;index&quot;:null}" fill="none" stroke="#aa8364" stroke-width="2.5" stroke-linecap="round"/><path d="M-5.69884,34.75001l42.44318,-0.94318l0.94318,-46.2159" fill="none" stroke="#937257" stroke-width="2.5" stroke-linecap="round"/><path d="M36.74434,33.80683l30.18182,21.69318l44.32954,-10.375l6.60227,-62.24999" fill="none" stroke="#937257" stroke-width="2.5" stroke-linecap="round"/><path d="M111.25569,44.18183l38.67045,9.43182l49.98863,-26.40909l-6.60227,-48.10227" fill="none" stroke="#937257" stroke-width="2.5" stroke-linecap="round"/><path d="M149.47661,54.28656l11.16375,26.21052l-6.79532,17.47369" fill="none" stroke="#937257" stroke-width="2.5" stroke-linecap="round"/><path d="M160.15498,79.52632l32.03508,3.88304l2.4269,17.95906" fill="none" stroke="#937257" stroke-width="2.5" stroke-linecap="round"/><path d="M65.99124,56.22808l1.94152,30.57894l-33.49122,4.8538" fill="none" stroke="#937257" stroke-width="2.5" stroke-linecap="round"/><path d="M67.44737,86.80702l14.56141,21.35673l-20.38596,27.18129l-78.1462,-13.10526" fill="none" stroke="#937257" stroke-width="2.5" stroke-linecap="round"/><path d="M62.1082,136.31579l-0.48538,22.81287l-11.16375,5.82456" fill="none" stroke="#937257" stroke-width="2.5" stroke-linecap="round"/><path d="M81.5234,108.16375l36.88889,4.36842" fill="none" stroke="#937257" stroke-width="2.5" stroke-linecap="round"/><path d="M191.70468,82.4386l21.35673,-9.22222" fill="none" stroke="#937257" stroke-width="2.5" stroke-linecap="round"/><path d="M60.16668,158.1579l24.75439,9.70761" fill="none" stroke="#937257" stroke-width="2.5" stroke-linecap="round"/><path d="M201.89766,27.67252l43.19883,7.2807l38.83041,-13.59065l-1.94152,-32.03508" fill="none" stroke="#937257" stroke-width="2.5" stroke-linecap="round"/><path d="M283.44152,20.8772l17.47368,12.1345l0.48538,27.18129" fill="none" stroke="#937257" stroke-width="2.5" stroke-linecap="round"/><path d="M301.40058,33.0117l24.75439,-12.61988" fill="none" stroke="#937257" stroke-width="2.5" stroke-linecap="round"/><path d="M246.06725,34.46784l6.30994,25.23977" fill="none" stroke="#937257" stroke-width="2.5" stroke-linecap="round"/><path d="M369.3538,362.79119v-23.78362l23.29825,-5.33918l29.12281,8.73684l5.82456,24.26901" fill="none" stroke="#937257" stroke-width="2.5" stroke-linecap="round"/><path d="M423.23099,342.40523l17.47369,-21.35672l-16.9883,-35.43275l5.82456,-18.92982l-3.88304,-26.21052" fill="none" stroke="#937257" stroke-width="2.5" stroke-linecap="round"/><path d="M440.70467,320.07774l22.32748,-9.22222l36.88889,11.64912" fill="none" stroke="#937257" stroke-width="2.5" stroke-linecap="round"/><path d="M368.86842,340.46371l-12.1345,-10.19299l-22.32749,-1.45614" fill="none" stroke="#937257" stroke-width="2.5" stroke-linecap="round"/><path d="M356.24854,328.3292l-2.4269,-15.53216l-17.95907,-17.47368" fill="none" stroke="#937257" stroke-width="2.5" stroke-linecap="round"/><path d="M353.82164,310.85552l13.10526,-16.50293" fill="none" stroke="#937257" stroke-width="2.5" stroke-linecap="round"/><path d="M393.6228,332.69762l-10.19298,-17.95906" fill="none" stroke="#937257" stroke-width="2.5" stroke-linecap="round"/><path d="M424.20175,287.55728l-28.63743,-8.25146" fill="none" stroke="#937257" stroke-width="2.5" stroke-linecap="round"/><path d="M429.05555,258.43447l11.64912,-7.2807l14.5614,0.97076" fill="none" stroke="#937257" stroke-width="2.5" stroke-linecap="round"/><path d="M102.39474,258.43447l1.45614,32.52047l29.60819,10.19298l-0.48538,46.59649l25.23977,9.22222l2.4269,17.95906" fill="none" stroke="#937257" stroke-width="2.5" stroke-linecap="round"/><path d="M132.00293,300.66254h14.5614l30.09356,-4.8538l2.42691,-13.10527l-2.42691,-23.78362" fill="none" stroke="#937257" stroke-width="2.5" stroke-linecap="round"/><path d="M179.57018,281.73271l32.52047,7.76608l11.16374,36.88889l-10.67836,39.80117" fill="none" stroke="#937257" stroke-width="2.5" stroke-linecap="round"/><path d="M225.19591,326.87306l23.29824,6.30994l7.76609,-10.19298" fill="none" stroke="#937257" stroke-width="2.5" stroke-linecap="round"/><path d="M252.86258,347.25903l-3.39766,-9.7076l-0.97076,-2.91228" fill="none" stroke="#937257" stroke-width="2.5" stroke-linecap="round"/><path d="M212.09065,289.49879l8.73684,-8.25146" fill="none" stroke="#937257" stroke-width="2.5" stroke-linecap="round"/><path d="M132.48831,346.28827l-19.90059,18.44444" fill="none" stroke="#937257" stroke-width="2.5" stroke-linecap="round"/><path d="M485.62309,46.34091l-24.75439,8.73684l3.88304,28.63743l28.63742,6.30994" fill="none" stroke="#937257" stroke-width="2.5" stroke-linecap="round"/><path d="M464.75175,82.25903l-16.01755,9.70761l-30.57894,4.8538" fill="none" stroke="#937257" stroke-width="2.5" stroke-linecap="round"/><path d="M449.70496,90.99588l2.91228,22.81287l35.43274,3.39766" fill="none" stroke="#937257" stroke-width="2.5" stroke-linecap="round"/><path d="M451.64648,112.83798l-9.7076,15.04678l-33.97661,2.4269" fill="none" stroke="#937257" stroke-width="2.5" stroke-linecap="round"/><path d="M443.39502,128.37014l13.59064,29.60819" fill="none" stroke="#937257" stroke-width="2.5" stroke-linecap="round"/><path d="M461.35409,55.07775l-20.38596,-7.76608l-25.23976,1.94152" fill="none" stroke="#937257" stroke-width="2.5" stroke-linecap="round"/><path d="M440.48274,44.88477l-15.04678,-37.37427l2.42691,-17.58238" fill="none" stroke="#937257" stroke-width="2.5" stroke-linecap="round"/><path d="M425.43596,7.4018l-12.1345,1.94152" fill="none" stroke="#937257" stroke-width="2.5" stroke-linecap="round"/><path d="M325.18421,168.35088l33.49123,9.7076l4.8538,-10.67837l-10.67836,-32.52046l-27.18128,5.82456l-0.48539,27.18129l-16.50292,12.1345" fill="none" stroke="#937257" stroke-width="2.5" stroke-linecap="round"/><path d="M351.88012,134.85965l1.45614,-11.64912" fill="none" stroke="#937257" stroke-width="2.5" stroke-linecap="round"/><path d="M363.52924,167.38011l22.81286,0.97077" fill="none" stroke="#937257" stroke-width="2.5" stroke-linecap="round"/><path d="M326.64035,139.71345l-10.19299,-7.2807l-15.04678,4.8538" fill="none" stroke="#937257" stroke-width="2.5" stroke-linecap="round"/><path d="M316.93275,131.46199l-0.48538,-12.1345" fill="none" stroke="#937257" stroke-width="2.5" stroke-linecap="round"/><path d="M156.27194,181.35088l-8.25147,18.44444l-32.52046,4.8538" fill="none" stroke="#937257" stroke-width="2.5" stroke-linecap="round"/><path d="M148.99123,198.33918l10.19298,19.90059" fill="none" stroke="#937257" stroke-width="2.5" stroke-linecap="round"/><path d="M252.3772,102.7193l0.97076,6.79532l-8.73685,10.67836" fill="none" stroke="#937257" stroke-width="2.5" stroke-linecap="round"/><path d="M285.38304,273.08772l-9.22222,-13.59064" fill="none" stroke="#937257" stroke-width="2.5" stroke-linecap="round"/><path d="M281.01462,264.35087l8.73684,-7.2807" fill="none" stroke="#937257" stroke-width="2.5" stroke-linecap="round"/><path d="M413.52339,187.66082l-2.4269,13.10526" fill="none" stroke="#937257" stroke-width="2.5" stroke-linecap="round"/><path d="M34.75,186.5c0,-1.38071 1.11929,-2.5 2.5,-2.5c1.38071,0 2.5,1.11929 2.5,2.5c0,1.38071 -1.11929,2.5 -2.5,2.5c-1.38071,0 -2.5,-1.11929 -2.5,-2.5z" fill="#baa390" stroke="none" stroke-width="0.5" stroke-linecap="butt"/><path d="M115.25,85.5c0,-1.38071 1.11929,-2.5 2.5,-2.5c1.38071,0 2.5,1.11929 2.5,2.5c0,1.38071 -1.11929,2.5 -2.5,2.5c-1.38071,0 -2.5,-1.11929 -2.5,-2.5z" fill="#baa390" stroke="none" stroke-width="0.5" stroke-linecap="butt"/><path d="M205.75,171c0,-1.38071 1.11929,-2.5 2.5,-2.5c1.38071,0 2.5,1.11929 2.5,2.5c0,1.38071 -1.11929,2.5 -2.5,2.5c-1.38071,0 -2.5,-1.11929 -2.5,-2.5z" fill="#baa390" stroke="none" stroke-width="0.5" stroke-linecap="butt"/><path d="M302,322c0,-1.38071 1.11929,-2.5 2.5,-2.5c1.38071,0 2.5,1.11929 2.5,2.5c0,1.38071 -1.11929,2.5 -2.5,2.5c-1.38071,0 -2.5,-1.11929 -2.5,-2.5z" fill="#baa390" stroke="none" stroke-width="0.5" stroke-linecap="butt"/><path d="M452,220c0,-1.38071 1.11929,-2.5 2.5,-2.5c1.38071,0 2.5,1.11929 2.5,2.5c0,1.38071 -1.11929,2.5 -2.5,2.5c-1.38071,0 -2.5,-1.11929 -2.5,-2.5z" fill="#baa390" stroke="none" stroke-width="0.5" stroke-linecap="butt"/><path d="M390,70c0,-1.38071 1.11929,-2.5 2.5,-2.5c1.38071,0 2.5,1.11929 2.5,2.5c0,1.38071 -1.11929,2.5 -2.5,2.5c-1.38071,0 -2.5,-1.11929 -2.5,-2.5z" fill="#baa390" stroke="none" stroke-width="0.5" stroke-linecap="butt"/><path d="M144,13c0,-1.38071 1.11929,-2.5 2.5,-2.5c1.38071,0 2.5,1.11929 2.5,2.5c0,1.38071 -1.11929,2.5 -2.5,2.5c-1.38071,0 -2.5,-1.11929 -2.5,-2.5z" fill="#baa390" stroke="none" stroke-width="0.5" stroke-linecap="butt"/><path d="M458,26c0,-1.38071 1.11929,-2.5 2.5,-2.5c1.38071,0 2.5,1.11929 2.5,2.5c0,1.38071 -1.11929,2.5 -2.5,2.5c-1.38071,0 -2.5,-1.11929 -2.5,-2.5z" fill="#baa390" stroke="none" stroke-width="0.5" stroke-linecap="butt"/><path d="M36,345c0,-1.38071 1.11929,-2.5 2.5,-2.5c1.38071,0 2.5,1.11929 2.5,2.5c0,1.38071 -1.11929,2.5 -2.5,2.5c-1.38071,0 -2.5,-1.11929 -2.5,-2.5z" fill="#baa390" stroke="none" stroke-width="0.5" stroke-linecap="butt"/><path d="M100.25,96c0,-0.69035 0.55965,-1.25 1.25,-1.25c0.69035,0 1.25,0.55965 1.25,1.25c0,0.69035 -0.55965,1.25 -1.25,1.25c-0.69035,0 -1.25,-0.55965 -1.25,-1.25z" fill="#baa390" stroke="none" stroke-width="0.5" stroke-linecap="butt"/><path d="M124.25,102c0,-0.69035 0.55965,-1.25 1.25,-1.25c0.69035,0 1.25,0.55965 1.25,1.25c0,0.69035 -0.55965,1.25 -1.25,1.25c-0.69035,0 -1.25,-0.55965 -1.25,-1.25z" fill="#baa390" stroke="none" stroke-width="0.5" stroke-linecap="butt"/><path d="M375.25,85c0,-0.69035 0.55964,-1.25 1.25,-1.25c0.69036,0 1.25,0.55965 1.25,1.25c0,0.69035 -0.55964,1.25 -1.25,1.25c-0.69036,0 -1.25,-0.55965 -1.25,-1.25z" fill="#baa390" stroke="none" stroke-width="0.5" stroke-linecap="butt"/><path d="M392.25,25c0,-0.69036 0.55964,-1.25 1.25,-1.25c0.69036,0 1.25,0.55964 1.25,1.25c0,0.69036 -0.55964,1.25 -1.25,1.25c-0.69036,0 -1.25,-0.55964 -1.25,-1.25z" fill="#baa390" stroke="none" stroke-width="0.5" stroke-linecap="butt"/><path d="M451.25,199c0,-0.69036 0.55964,-1.25 1.25,-1.25c0.69036,0 1.25,0.55964 1.25,1.25c0,0.69036 -0.55964,1.25 -1.25,1.25c-0.69036,0 -1.25,-0.55964 -1.25,-1.25z" fill="#baa390" stroke="none" stroke-width="0.5" stroke-linecap="butt"/><path d="M435.25,239c0,-0.69036 0.55964,-1.25 1.25,-1.25c0.69036,0 1.25,0.55964 1.25,1.25c0,0.69036 -0.55964,1.25 -1.25,1.25c-0.69036,0 -1.25,-0.55964 -1.25,-1.25z" fill="#baa390" stroke="none" stroke-width="0.5" stroke-linecap="butt"/><path d="M278.25,324c0,-0.69036 0.55964,-1.25 1.25,-1.25c0.69036,0 1.25,0.55964 1.25,1.25c0,0.69036 -0.55964,1.25 -1.25,1.25c-0.69036,0 -1.25,-0.55964 -1.25,-1.25z" fill="#baa390" stroke="none" stroke-width="0.5" stroke-linecap="butt"/><path d="M297.25,300c0,-0.69036 0.55964,-1.25 1.25,-1.25c0.69036,0 1.25,0.55964 1.25,1.25c0,0.69036 -0.55964,1.25 -1.25,1.25c-0.69036,0 -1.25,-0.55964 -1.25,-1.25z" fill="#baa390" stroke="none" stroke-width="0.5" stroke-linecap="butt"/><path d="M162.25,338c0,-0.69036 0.55964,-1.25 1.25,-1.25c0.69036,0 1.25,0.55964 1.25,1.25c0,0.69036 -0.55964,1.25 -1.25,1.25c-0.69036,0 -1.25,-0.55964 -1.25,-1.25z" fill="#baa390" stroke="none" stroke-width="0.5" stroke-linecap="butt"/><path d="M60.25,312c0,-0.69036 0.55965,-1.25 1.25,-1.25c0.69035,0 1.25,0.55964 1.25,1.25c0,0.69036 -0.55965,1.25 -1.25,1.25c-0.69035,0 -1.25,-0.55964 -1.25,-1.25z" fill="#baa390" stroke="none" stroke-width="0.5" stroke-linecap="butt"/><path d="M7.25,347c0,-0.69036 0.55964,-1.25 1.25,-1.25c0.69036,0 1.25,0.55964 1.25,1.25c0,0.69036 -0.55964,1.25 -1.25,1.25c-0.69036,0 -1.25,-0.55964 -1.25,-1.25z" fill="#baa390" stroke="none" stroke-width="0.5" stroke-linecap="butt"/><path d="M22.25,189c0,-0.69036 0.55964,-1.25 1.25,-1.25c0.69036,0 1.25,0.55964 1.25,1.25c0,0.69036 -0.55964,1.25 -1.25,1.25c-0.69036,0 -1.25,-0.55964 -1.25,-1.25z" fill="#baa390" stroke="none" stroke-width="0.5" stroke-linecap="butt"/><path d="M46.25,168c0,-0.69036 0.55965,-1.25 1.25,-1.25c0.69035,0 1.25,0.55964 1.25,1.25c0,0.69036 -0.55965,1.25 -1.25,1.25c-0.69035,0 -1.25,-0.55964 -1.25,-1.25z" fill="#baa390" stroke="none" stroke-width="0.5" stroke-linecap="butt"/><path d="M363.86612,57.11612c0.88388,-0.88388 1.76777,0 1.76777,0l0.5,0.5c1.74509,1.81506 2.01968,2.86796 1.30197,5.27917c0,0 -0.39528,1.18585 -1.58114,0.79057c-1.18585,-0.39528 -0.79057,-1.58114 -0.79057,-1.58114c0.57399,-1.45484 0.42214,-1.66522 -0.69803,-2.72083l-0.5,-0.5c0,0 -0.88388,-0.88388 0,-1.76777z" fill="#758962" stroke="none" stroke-width="0.5" stroke-linecap="butt"/><path d="M370.14528,55.81415c1.18585,0.39528 0.79057,1.58114 0.79057,1.58114l-0.45199,1.30494c0.01159,0.9332 0.01614,1.8665 0.01614,2.79977c0,0 0,1.25 -1.25,1.25c-1.25,0 -1.25,-1.25 -1.25,-1.25c0,-1.06676 0.00601,-2.13352 0.01614,-3.20023l0.54801,-1.69506c0,0 0.39528,-1.18585 1.58114,-0.79057z" fill="#758962" stroke="none" stroke-width="0.5" stroke-linecap="butt"/><path d="M375.13388,55.61612c0.88388,0.88388 0,1.76777 0,1.76777l-0.82057,0.77328c-0.12582,0.41271 -0.25164,0.82541 -0.37746,1.23812c0,0 -0.39528,1.18585 -1.58114,0.79057c-1.18585,-0.39528 -0.79057,-1.58114 -0.79057,-1.58114c0.20751,-0.58729 0.41503,-1.17459 0.62254,-1.76188l1.17943,-1.22672c0,0 0.88388,-0.88388 1.76777,0z" fill="#758962" stroke="none" stroke-width="0.5" stroke-linecap="butt"/><path d="M14,228.5c0,-1.25 1.25,-1.25 1.25,-1.25l0.89528,0.06415c1.09682,0.38755 2.15004,0.99573 2.9886,1.80197c0,0 0.88388,0.88388 0,1.76777c-0.88388,0.88388 -1.76777,0 -1.76777,0c-0.53521,-0.56794 -1.26493,-0.97046 -2.0114,-1.19803l-0.10472,0.06415c0,0 -1.25,0 -1.25,-1.25z" fill="#758962" stroke="none" stroke-width="0.5" stroke-linecap="butt"/><path d="M101.5,125c0,1.10815 -0.9824,1.2339 -1.20536,1.24817c-1.28562,1.58183 -0.79464,3.72123 -0.79464,5.75183c0,0 0,1.25 -1.25,1.25c-1.25,0 -1.25,-1.25 -1.25,-1.25c0,-3.04474 -0.39129,-5.53597 1.86612,-7.88388l1.38388,-0.36612c0,0 1.25,0 1.25,1.25zM100.59974,125.91645l0.03414,-0.03256c-0.01148,0.01082 -0.02287,0.02168 -0.03414,0.03256z" fill="#758962" stroke="none" stroke-width="0.5" stroke-linecap="butt"/><path d="M92.36612,123.61612c0.88388,-0.88388 1.76777,0 1.76777,0l0.80197,0.9886c0.7199,2.15971 1.54238,4.1029 1.56415,6.39528c0,0 0,1.25 -1.25,1.25c-1.25,0 -1.25,-1.25 -1.25,-1.25c0.0245,-1.97284 -0.81454,-3.74076 -1.43585,-5.60472l-0.19803,-0.0114c0,0 -0.88388,-0.88388 0,-1.76777z" fill="#758962" stroke="none" stroke-width="0.5" stroke-linecap="butt"/><path d="M66.23489,35.74966c-0.14186,-0.00492 -1.23489,-0.08078 -1.23489,-1.24966c0,-1.25 1.25,-1.25 1.25,-1.25l1.38388,0.36612c1.91524,1.91524 2.83928,3.05672 2.86612,5.88388c0,0 0,1.25 -1.25,1.25c-1.25,0 -1.25,-1.25 -1.25,-1.25c0.02449,-1.97209 -0.54758,-2.54755 -1.76511,-3.75034z" fill="#758962" stroke="none" stroke-width="0.5" stroke-linecap="butt"/><path d="M424.36612,220.61612c0.88388,-0.88388 1.76777,0 1.76777,0c0.66667,0.66667 2.33333,2.33333 3,3c0,0 0.88388,0.88388 0,1.76777c-0.88388,0.88388 -1.76777,0 -1.76777,0c-0.66667,-0.66667 -1.33333,-1.33333 -2,-2l-1,-1c0,0 -0.88388,-0.88388 0,-1.76777z" fill="#758962" stroke="none" stroke-width="0.5" stroke-linecap="butt"/><path d="M431.75,213.25c1.25,0 1.25,1.25 1.25,1.25c0,2 0,5.5 0,7.5c0,0 0,1.25 -1.25,1.25c-1.25,0 -1.25,-1.25 -1.25,-1.25c0,-2 0,-4 0,-6v-1.5c0,0 0,-1.25 1.25,-1.25z" fill="#758962" stroke="none" stroke-width="0.5" stroke-linecap="butt"/><path d="M440.93585,221.10472c0.39528,1.18585 -0.79057,1.58114 -0.79057,1.58114l-1.13654,0.30753c-0.54816,0.91527 -1.12689,1.81231 -1.71868,2.69999c0,0 -0.69338,1.04006 -1.73344,0.34669c-1.04006,-0.69338 -0.34669,-1.73344 -0.34669,-1.73344c0.74178,-1.11267 1.50582,-2.21057 2.28132,-3.30001l1.86346,-0.69247c0,0 1.18585,-0.39528 1.58114,0.79057z" fill="#758962" stroke="none" stroke-width="0.5" stroke-linecap="butt"/><path d="M295.36612,342.11612c0.88388,-0.88388 1.76777,0 1.76777,0l0.80197,0.9886c0.5,1.5 1,3 1.5,4.5c0,0 0.39528,1.18585 -0.79057,1.58114c-1.18585,0.39528 -1.58114,-0.79057 -1.58114,-0.79057c-0.5,-1.5 -1,-3 -1.5,-4.5l-0.19803,-0.0114c0,0 -0.88388,-0.88388 0,-1.76777z" fill="#758962" stroke="none" stroke-width="0.5" stroke-linecap="butt"/><path d="M301.25,339.75c1.25,0 1.25,1.25 1.25,1.25c0,1 0,2.5 0,3.5c0,0 0,1.25 -1.25,1.25c-1.25,0 -1.25,-1.25 -1.25,-1.25c0,-1 0,-2 0,-3v-0.5c0,0 0,-1.25 1.25,-1.25z" fill="#758962" stroke="none" stroke-width="0.5" stroke-linecap="butt"/><path d="M308.5,345c0,1.25 -1.25,1.25 -1.25,1.25l-0.11612,-0.36612c-0.56794,0.53521 -0.97046,1.26493 -1.19803,2.0114c0,0 -0.39528,1.18585 -1.58114,0.79057c-1.18585,-0.39528 -0.79057,-1.58114 -0.79057,-1.58114c0.38755,-1.09682 0.99573,-2.15004 1.80197,-2.9886l1.88388,-0.36612c0,0 1.25,0 1.25,1.25z" fill="#758962" stroke="none" stroke-width="0.5" stroke-linecap="butt"/><path d="M313.25,342.25c1.25,0 1.25,1.25 1.25,1.25l-0.06415,1.39528c-0.97168,2.91503 -2.15971,4.34634 -4.30197,6.4886c0,0 -0.88388,0.88388 -1.76777,0c-0.88388,-0.88388 0,-1.76777 0,-1.76777c1.92023,-1.92023 2.83779,-2.93068 3.69803,-5.5114l-0.06415,-0.60472c0,0 0,-1.25 1.25,-1.25z" fill="#758962" stroke="none" stroke-width="0.5" stroke-linecap="butt"/><path d="M176.30902,334.88197c1.11803,0.55902 0.55902,1.67705 0.55902,1.67705l-0.43218,0.83627c-0.69373,2.08118 -1.58614,2.81075 0.50752,4.06465c0,0 1.04006,0.69338 0.34669,1.73344c-0.69338,1.04006 -1.73344,0.34669 -1.73344,0.34669c-3.03908,-2.16334 -2.56003,-3.73269 -1.49248,-6.93535l0.56782,-1.16373c0,0 0.55902,-1.11803 1.67705,-0.55902z" fill="#758962" stroke="none" stroke-width="0.5" stroke-linecap="butt"/><path d="M180.35472,329.31415c1.18585,-0.39528 1.58114,0.79057 1.58114,0.79057l0.5,1.5c0.85454,2.6432 0.35134,4.23655 -0.5,6.79057c0,0 -0.39528,1.18585 -1.58114,0.79057c-1.18585,-0.39528 -0.79057,-1.58114 -0.79057,-1.58114c0.68055,-2.04165 1.22087,-3.12823 0.5,-5.20943l-0.5,-1.5c0,0 -0.39528,-1.18585 0.79057,-1.58114z" fill="#758962" stroke="none" stroke-width="0.5" stroke-linecap="butt"/><path d="M17.69098,334.88197c1.11803,-0.55902 1.67705,0.55902 1.67705,0.55902l0.42203,0.86564c1.39542,2.10964 3.05315,4.01882 4.84382,5.80949c0,0 0.88388,0.88388 0,1.76777c-0.88388,0.88388 -1.76777,0 -1.76777,0c-1.91117,-1.91117 -3.65174,-3.94922 -5.15618,-6.19051l-0.57797,-1.13436c0,0 -0.55902,-1.11803 0.55902,-1.67705z" fill="#758962" stroke="none" stroke-width="0.5" stroke-linecap="butt"/></g></g></svg>