<svg version="1.1" xmlns="http://www.w3.org/2000/svg" xmlns:xlink="http://www.w3.org/1999/xlink" width="48.01533" height="44.57958" viewBox="0,0,48.01533,44.57958"><g transform="translate(-215.99233,-157.71021)"><g data-paper-data="{&quot;isPaintingLayer&quot;:true}" fill-rule="nonzero" stroke="none" stroke-width="0.5" stroke-linecap="butt" stroke-linejoin="miter" stroke-miterlimit="10" stroke-dasharray="" stroke-dashoffset="0" style="mix-blend-mode: normal"><path d="M255.30711,184.59824c0.83228,-0.30368 1.80113,-0.71104 2.30412,-1.50418c0.97162,-1.53207 -0.43944,-4.64968 -2.18011,-5.2836c0.02459,0.16751 0.03981,0.33173 0.04508,0.49114c0,0 0.00961,0.31304 -0.18588,0.54075c0.08272,0.17275 0.08778,0.33767 0.08778,0.33767l0.02235,0.81156c-0.13648,1.00882 -0.02128,1.99675 -0.15786,3.00626c0.01717,0.55937 0.01031,1.1104 -0.0363,1.64414zM258.9108,183.84315c-0.64194,1.11968 -1.9428,1.73956 -3.08593,2.16289l-0.57615,0.25264c0,0 -0.16029,0.06989 -0.35982,0.06478c-0.35674,1.13344 -1.02465,2.11899 -2.2043,2.84256c-1.03948,0.63759 -2.09905,1.12607 -3.19252,0.06568c-1.6099,-1.5612 -2.37065,-6.2866 -2.44286,-8.42043c-0.07262,-2.36616 0.01233,-5.23144 1.90465,-6.98954c2.38065,-2.2118 4.92773,-0.0412 6.00057,2.38959c3.07481,0.25195 5.56026,4.83426 3.95635,7.63182zM254.0647,178.68528c-0.08272,-0.17275 -0.08778,-0.33767 -0.08778,-0.33767c-0.04121,-1.47271 -2.05629,-5.3818 -3.97592,-3.45184c-1.52649,1.5347 -1.51351,3.8806 -1.45248,5.86949c0.05559,2.06094 0.78661,5.76945 2.04606,7.44934c0.43299,0.57753 1.67135,-0.45403 1.97501,-0.67793c1.2523,-0.92338 1.2169,-3.25209 1.17502,-4.61665c0.13648,-1.00882 0.02128,-1.99675 0.15786,-3.00626l-0.02366,-0.68774c0,0 -0.00961,-0.31304 0.18588,-0.54075z" fill="#b55800"/><path d="M255.1887,184.68878c0.04661,-0.53375 0.04245,-1.09057 0.02528,-1.64994c0.13657,-1.0095 0.01612,-2.0752 0.15259,-3.08402l-0.01292,-0.8184c0,0 -0.00358,-0.16571 -0.08631,-0.33847c0.19549,-0.22771 0.19209,-0.54345 0.19209,-0.54345c-0.00527,-0.15941 -0.01886,-0.32417 -0.04345,-0.49169c1.74067,0.63392 3.19198,3.84242 2.22037,5.37449c-0.503,0.79314 -1.51354,1.20443 -2.34582,1.50811z" data-paper-data="{&quot;noHover&quot;:false,&quot;origItem&quot;:[&quot;Path&quot;,{&quot;applyMatrix&quot;:true,&quot;segments&quot;:[[[484.16823,319.28855],[0,0],[-0.55602,-1.6824]],[[481.30265,314.59019],[1.55467,1.05418],[-3.00308,-2.03631]],[[470.60667,318.6242],[1.37404,-3.44081],[0.33638,-0.03887]],[[471.59125,318.56421],[-0.31899,0.00075],[0,0]],[[472.66084,318.96898],[-0.44321,-0.40477],[0.35042,-0.15477]],[473.34125,318.81421],[[474.96497,318.81932],[0,0],[2.00831,0.33472]],[[480.96497,319.31932],[-2.00968,-0.33495],[1.11927,0]],[[484.24948,319.49276],[-1.06413,-0.12592],[0,0]]],&quot;closed&quot;:true}]}" fill="#e56e00"/><path d="M253.91691,179.19365l0.02897,0.6953c-0.13657,1.0095 -0.02285,2.0495 -0.15933,3.05831c0.04188,1.36456 0.04499,3.71509 -1.20731,4.63848c-0.30366,0.22391 -1.5572,1.25609 -1.99019,0.67856c-1.25945,-1.67989 -2.03382,-5.44861 -2.08941,-7.50955c-0.06104,-1.98889 -0.03538,-4.37322 1.49111,-5.90792c1.91963,-1.92996 3.97771,1.99028 4.01892,3.463c0,0 0.00782,0.16749 0.09054,0.34025c-0.19549,0.22771 -0.1833,0.54357 -0.1833,0.54357z" data-paper-data="{&quot;noHover&quot;:false,&quot;origItem&quot;:[&quot;Path&quot;,{&quot;applyMatrix&quot;:true,&quot;segments&quot;:[[[472.27166,321.40944],[0.44321,0.40477],[-0.35042,0.15477]],[[471.59125,321.56421],[0,0],[-2.94657,-0.00798]],[[464.4469,329.30053],[-3.74033,-3.95586],[2.9743,3.14569]],[[476.09125,332.56421],[-3.97966,0],[4.12335,0.01531]],[[491.10845,328.93103],[-3.43547,2.41466],[1.18108,-0.83014]],[[489.87439,324.94127],[0.42897,0.62077],[-1.76907,-2.56008]],[[480.71753,322.3091],[2.7304,0],[-2.00831,-0.33472]],[[474.71753,321.8091],[2.00968,0.33495],[0,0]],[473.34125,321.81421]],&quot;closed&quot;:true}]}" fill="#e56e00"/><path d="M248.3169,188.26307c-0.18192,-0.49465 -0.36385,-0.9893 -0.54578,-1.48396c-0.60646,-1.64894 -1.11685,-3.34771 -1.35465,-5.0162c-4.7329,0.64954 -9.32841,-1.04766 -14.03705,-0.12881c-2.01945,0.06834 -4.03927,0.12652 -6.05893,0.1885l-0.02394,0.00854c2.25439,3.47386 7.73023,5.73186 11.39891,6.66403c3.42743,0.45785 7.38848,1.0411 10.75425,-0.07495zM249.17893,186.26135c0.18192,0.49465 0.36385,0.9893 0.54578,1.48396l0.06746,-0.04525c0,0 0.28601,0.26898 0.24954,0.62464c0.41134,0.60186 -0.18811,1.02862 -0.18811,1.02862l-0.54324,0.3543c-3.72017,1.35681 -8.06306,0.78516 -11.89972,0.26028c-4.67725,-1.17719 -11.43688,-4.19986 -13.2029,-8.96869c0,0 -0.02933,-0.07974 -0.0414,-0.19541c-0.06213,-0.28794 0.08682,-0.55437 0.08682,-0.55437l0.3738,-0.66694c2.29816,-3.68133 5.96799,-5.5754 9.77711,-7.34401c4.95689,-1.58995 12.02989,-3.07552 16.31767,0.92622c0,0 0.54635,0.51381 0.03254,1.06016c-0.26558,0.2824 -0.53985,0.28156 -0.74288,0.21483c-3.41536,3.19804 -2.33894,7.72556 -0.83246,11.82166zM226.27448,180.32332c1.97843,-0.06072 3.95678,-0.12623 5.93542,-0.1796c4.72688,-0.95566 9.33539,0.81146 14.07077,0.12417c-0.08651,-2.45578 0.55455,-4.79008 2.51256,-6.73538c-3.86213,-2.62052 -9.83285,-1.17036 -13.84357,0.10321c-3.49987,1.63267 -6.93859,3.3466 -9.04971,6.74013l-0.02622,0.04704z" fill="#b55800"/><path d="M248.49782,188.43388c-3.36577,1.11605 -7.37002,0.56891 -10.79744,0.11107c-3.66869,-0.93217 -9.19718,-3.25479 -11.45157,-6.72865l0.02396,-0.0086c2.01966,-0.06198 4.0468,-0.1347 6.06626,-0.20304c4.70863,-0.91886 9.39114,0.78968 14.12404,0.14014c0.2378,1.66849 0.75108,3.39253 1.35754,5.04146c0.18192,0.49465 0.3626,0.99533 0.54453,1.48998z" data-paper-data="{&quot;noHover&quot;:false,&quot;origItem&quot;:[&quot;Path&quot;,{&quot;applyMatrix&quot;:true,&quot;segments&quot;:[[[491.06559,333.48723],[0,0],[-1,0.33333]],[[488.06559,334.48723],[1,-0.33333],[-3.33353,1.11118]],[[477.95481,336.88751],[3.35,-0.37302],[1.00811,9.50119]],[[476.83614,364.94049],[-1.54797,-9.46921],[0.01272,4.0412]],[[476.84125,377.06421],[0,-4.04122],[0,0]],[[476.85686,377.1126],[0,0],[7.08275,-4.29353]],[[490.87797,354.73434],[-2.08853,7.27673],[1.12554,-6.82354]],[[491.38792,333.23136],[2.02455,6.79685],[0,0]]],&quot;closed&quot;:true}]}" fill="#d66700"/><path d="M225.82651,180.43933l0.02617,-0.04718c2.11112,-3.39353 5.56488,-5.16197 9.06475,-6.79464c4.01073,-1.27357 10.06214,-2.6978 13.92427,-0.07728c-1.95801,1.9453 -2.60155,4.31152 -2.51504,6.76729c-4.73538,0.68729 -9.43037,-1.07012 -14.15725,-0.11445c-1.97864,0.05337 -3.96368,0.10612 -5.94211,0.16683z" data-paper-data="{&quot;noHover&quot;:false,&quot;origItem&quot;:[&quot;Path&quot;,{&quot;applyMatrix&quot;:true,&quot;segments&quot;:[[[473.84125,377.06421],[0,0],[0,-3.95872]],[[473.84636,365.18793],[-0.0147,3.95869],[-1.62043,-9.50794]],[[474.95783,337.06725],[1.08341,9.50847],[-4.91455,0.02227]],[[461.64756,331.63127],[3.76865,4.03353],[-5.47551,7.55986]],[[461.00458,359.31172],[-2.29989,-8.09581],[3.04908,7.09662]],[[473.9233,377.81613],[-6.65435,-4.42844],[0,0]],[474.01573,377.87144]],&quot;closed&quot;:true}]}" fill="#d66700"/><path d="M244.10804,202.12218c-0.59975,-0.45034 -0.14941,-1.05008 -0.14941,-1.05008l0.50641,-0.67252c1.48335,-1.5812 4.66302,-3.87608 5.51846,-5.79195c0.14933,-0.33444 -0.54002,-0.4998 -0.76466,-0.78909c-0.86683,-1.11625 -1.86984,-2.16462 -2.54608,-3.40578c0,0 -0.35583,-0.66022 0.30439,-1.01605c0.66022,-0.35583 1.01605,0.30439 1.01605,0.30439c0.67556,1.27012 3.72317,3.60415 3.47761,5.10127c-0.06243,0.38063 -1.16407,1.4063 -1.50676,1.80769c-1.40397,1.64446 -2.86879,3.18321 -4.35115,4.75515l-0.45477,0.60757c0,0 -0.45034,0.59975 -1.05008,0.14941z" fill="#b55800"/><path d="M226.50166,199.95059c-0.02301,-0.74965 0.72664,-0.77265 0.72664,-0.77265l0.37344,-0.00125c0.49944,0.06757 0.99888,0.13515 1.49832,0.20275c0.34373,0.03837 3.5265,0.60209 3.58951,0.52288c0.73174,-0.91982 1.23231,-3.32227 1.74693,-4.51603c0.80699,-1.87195 2.38405,-3.58261 2.92472,-5.51073c0,0 0.21523,-0.71845 0.93369,-0.50322c0.71845,0.21523 0.50322,0.93369 0.50322,0.93369c-0.87636,2.79631 -2.91728,5.53192 -4.16247,8.2239c-0.27659,0.59797 -0.51076,2.17804 -1.03211,2.56178c-0.91474,0.67331 -3.63827,-0.10636 -4.68729,-0.22357c-0.50521,-0.06831 -1.01041,-0.13664 -1.51561,-0.20499l-0.12633,0.01409c0,0 -0.74965,0.02301 -0.77265,-0.72664z" fill="#b55800"/><path d="M225.8486,165.19143c-0.25888,-0.7039 0.44502,-0.96279 0.44502,-0.96279l0.37099,-0.13644c1.3568,-0.4977 4.16467,-2.63856 5.55125,-1.65474c0.68743,0.48775 0.95673,2.47656 1.30583,3.24465c0.84205,1.85267 1.45936,3.73379 2.99733,5.16717c0,0 0.54635,0.51381 0.03254,1.06016c-0.51381,0.54635 -1.06016,0.03254 -1.06016,0.03254c-2.50754,-2.37629 -2.73965,-5.4758 -4.21455,-8.33478c-0.26861,-0.52068 -1.03762,0.54538 -1.56876,0.79267c-0.83738,0.38987 -1.6588,0.78053 -2.52571,1.10015l-0.37099,0.13644c0,0 -0.7039,0.25888 -0.96279,-0.44502z" fill="#b55800"/><path d="M244.92837,157.8665c0.61098,-0.43497 1.04595,0.17601 1.04595,0.17601l0.22141,0.31586c0.36724,0.43541 0.69458,0.90896 0.96482,1.41037c1.54562,1.79814 2.74033,3.85442 4.25522,5.68284c0.50521,0.60977 1.16993,1.17941 0.77434,2.16112c-0.74926,1.85939 -4.59302,2.45046 -5.89699,3.87271c0,0 -0.51381,0.54635 -1.06016,0.03254c-0.54635,-0.51381 -0.03254,-1.06016 -0.03254,-1.06016c1.43764,-1.49942 3.8769,-2.45758 5.63276,-3.48443c0.22558,-0.13192 -0.38661,-0.35322 -0.55943,-0.54924c-0.01962,-0.02226 -1.05305,-1.23703 -1.05842,-1.24395c-1.15366,-1.48779 -2.07453,-3.12199 -3.29291,-4.56461c-0.24525,-0.45505 -0.53129,-0.89303 -0.86872,-1.28465l-0.30136,-0.41845c0,0 -0.43497,-0.61098 0.17601,-1.04595z" fill="#b55800"/><path d="M216.30402,176.33794c-0.59975,-0.45034 -0.14941,-1.05008 -0.14941,-1.05008l0.48513,-0.64602c0.95228,-1.21496 3.56973,-5.21434 5.31008,-5.05426c0.66875,0.06151 1.82444,1.30716 2.37001,1.69049c1.62474,1.14156 3.04636,2.43339 4.63318,3.62489c0,0 0.59975,0.45034 0.14941,1.05008c-0.45034,0.59975 -1.05008,0.14941 -1.05008,0.14941c-1.9597,-1.47149 -4.08844,-4.08229 -6.32046,-5.03079c-0.51429,-0.21855 -0.65731,0.90749 -1.03921,1.31542c-0.9767,1.04327 -1.97672,2.03377 -2.86249,3.16738l-0.47606,0.63407c0,0 -0.45034,0.59975 -1.05008,0.14941z" fill="#b55800"/><path d="M216.40715,186.2934c0.31467,-0.68079 0.99547,-0.36612 0.99547,-0.36612l0.15428,0.07961c2.53777,0.76026 4.85511,2.04935 7.36889,2.90959c0.00774,0.00265 1.86328,0.63772 1.91564,0.60043c0.51057,-0.36353 1.39076,-3.28463 1.47847,-4.0022c0,0 0.10055,-0.74323 0.84378,-0.64268c0.74323,0.10055 0.64268,0.84378 0.64268,0.84378c-0.15855,1.09317 -1.21266,4.52187 -2.24358,5.11627c-0.68809,0.39673 -2.47794,-0.27804 -3.12035,-0.49561c-2.50023,-0.84676 -4.79776,-2.13826 -7.316,-2.89268l-0.35316,-0.15493c0,0 -0.68079,-0.31467 -0.36612,-0.99547z" fill="#b55800"/><path d="M262.98892,192.68052c-0.73284,-0.1595 -0.57335,-0.89234 -0.57335,-0.89234l0.0928,-0.3211c-0.11606,-3.78172 -0.95374,-6.10734 -5.18553,-5.96874c0,0 -0.74965,0.02301 -0.77265,-0.72664c-0.02301,-0.74965 0.72664,-0.77265 0.72664,-0.77265c5.05999,-0.14608 6.58992,2.83043 6.73084,7.42202l-0.12641,0.6861c0,0 -0.1595,0.73284 -0.89234,0.57335z" fill="#b55800"/><path d="M256.00618,188.71106c-0.66022,0.35583 -1.01605,-0.30439 -1.01605,-0.30439l-0.0434,-0.11561c-0.34596,-0.40625 -0.69192,-0.81249 -1.03787,-1.21874c0,0 -0.48627,-0.571 0.08474,-1.05727c0.571,-0.48627 1.05727,0.08474 1.05727,0.08474c0.34596,0.40625 0.69192,0.81249 1.03787,1.21874l0.22182,0.37648c0,0 0.35583,0.66022 -0.30439,1.01605z" fill="#b55800"/><path d="M255.99993,174.00318c0.54635,0.51381 0.03254,1.06016 0.03254,1.06016l-0.18881,0.19407c-0.29684,0.3906 -0.54798,0.81909 -0.75136,1.26553c0,0 -0.31467,0.68079 -0.99547,0.36612c-0.68079,-0.31467 -0.36612,-0.99547 -0.36612,-0.99547c0.2525,-0.53981 0.55789,-1.05861 0.91346,-1.53685l0.29561,-0.32103c0,0 0.51381,-0.54635 1.06016,-0.03254z" fill="#b55800"/><path d="M262.34862,169.96186c0.74965,-0.02301 0.77265,0.72664 0.77265,0.72664l0.02301,0.74965c0.12369,4.49154 -3.4038,7.16032 -7.54941,6.59948c0,0 -0.74323,-0.10055 -0.64268,-0.84378c0.10055,-0.74323 0.84378,-0.64268 0.84378,-0.64268c3.22469,0.43625 5.97356,-1.44761 5.84902,-5.06701l-0.02301,-0.74965c0,0 -0.02301,-0.74965 0.72664,-0.77265z" fill="#b55800"/></g></g></svg>