<svg version="1.1" xmlns="http://www.w3.org/2000/svg" xmlns:xlink="http://www.w3.org/1999/xlink" width="38.37501" height="39.7821" viewBox="0,0,38.37501,39.7821"><defs><linearGradient x1="240" y1="160.32039" x2="240" y2="177.58644" gradientUnits="userSpaceOnUse" id="color-1"><stop offset="0" stop-color="#4e4e4e"/><stop offset="1" stop-color="#e09312"/></linearGradient><linearGradient x1="240.00001" y1="181.63821" x2="240.00001" y2="191.8487" gradientUnits="userSpaceOnUse" id="color-2"><stop offset="0" stop-color="#474747"/><stop offset="1" stop-color="#f2910c"/></linearGradient><radialGradient cx="240" cy="187.23258" r="11.99697" gradientUnits="userSpaceOnUse" id="color-3"><stop offset="0" stop-color="#ff7c00"/><stop offset="1" stop-color="#ff7c00" stop-opacity="0"/></radialGradient></defs><g transform="translate(-220.8125,-159.57039)"><g data-paper-data="{&quot;isPaintingLayer&quot;:true}" fill-rule="nonzero" stroke-linejoin="miter" stroke-miterlimit="10" stroke-dasharray="" stroke-dashoffset="0" style="mix-blend-mode: normal"><path d="M221.5625,177.58644v-17.26605h36.875v17.26605z" fill="url(#color-1)" stroke="#5a5a5a" stroke-width="1.5" stroke-linecap="butt"/><path d="M238.375,164.944c0,1.66322 -1.95753,3.01152 -4.37224,3.01152c-2.41472,0 -4.37224,-1.3483 -4.37224,-3.01152c0,-1.66322 1.95752,-3.01152 4.37224,-3.01152c2.41472,0 4.37224,1.3483 4.37224,3.01152z" fill="#526a7c" stroke="#445867" stroke-width="1.5" stroke-linecap="butt"/><path d="M229.63052,175.15449v-10.21049h8.02666v10.21049z" fill="#526a7c" stroke="none" stroke-width="0" stroke-linecap="butt"/><path d="M238.24449,176.18701c0,1.66322 -1.95752,3.01152 -4.37224,3.01152c-2.41472,0 -4.37224,-1.3483 -4.37224,-3.01152c0,-1.66322 1.95753,-3.01152 4.37224,-3.01152c2.41472,0 4.37224,1.3483 4.37224,3.01152z" fill="#4e6577" stroke="#445867" stroke-width="1.5" stroke-linecap="butt"/><path d="M229.5,176.18701l0.13052,-11.24301" fill="none" stroke="#445867" stroke-width="1.5" stroke-linecap="round"/><path d="M238.375,164.944l-0.13052,11.24301" fill="none" stroke="#445867" stroke-width="1.5" stroke-linecap="round"/><path d="M228,166.125c0,-0.41422 0.33578,-0.75 0.75,-0.75c0.41422,0 0.75,0.33578 0.75,0.75c0,0.41422 -0.33578,0.75 -0.75,0.75c-0.41422,0 -0.75,-0.33578 -0.75,-0.75z" fill="#445867" stroke="none" stroke-width="0.5" stroke-linecap="butt"/><path d="M232.90476,168.72024c0,-0.41422 0.33578,-0.75 0.75,-0.75c0.41422,0 0.75,0.33578 0.75,0.75c0,0.41422 -0.33578,0.75 -0.75,0.75c-0.41422,0 -0.75,-0.33578 -0.75,-0.75z" fill="#445867" stroke="none" stroke-width="0.5" stroke-linecap="butt"/><path d="M233.07143,165.89881c0,-0.41422 0.33578,-0.75 0.75,-0.75c0.41422,0 0.75,0.33578 0.75,0.75c0,0.41422 -0.33578,0.75 -0.75,0.75c-0.41422,0 -0.75,-0.33578 -0.75,-0.75z" fill="#445867" stroke="none" stroke-width="0.5" stroke-linecap="butt"/><path d="M233.72024,163.47619c0,-0.41422 0.33578,-0.75 0.75,-0.75c0.41422,0 0.75,0.33578 0.75,0.75c0,0.41422 -0.33578,0.75 -0.75,0.75c-0.41422,0 -0.75,-0.33578 -0.75,-0.75z" fill="#445867" stroke="none" stroke-width="0.5" stroke-linecap="butt"/><path d="M235.41071,164.97619c0,-0.41422 0.33578,-0.75 0.75,-0.75c0.41422,0 0.75,0.33578 0.75,0.75c0,0.41422 -0.33578,0.75 -0.75,0.75c-0.41422,0 -0.75,-0.33578 -0.75,-0.75z" fill="#445867" stroke="none" stroke-width="0.5" stroke-linecap="butt"/><path d="M236.5,164.25c0,-0.41422 0.33578,-0.75 0.75,-0.75c0.41422,0 0.75,0.33578 0.75,0.75c0,0.41422 -0.33578,0.75 -0.75,0.75c-0.41422,0 -0.75,-0.33578 -0.75,-0.75z" fill="#445867" stroke="none" stroke-width="0.5" stroke-linecap="butt"/><path d="M236.96429,166.17262c0,-0.41422 0.33578,-0.75 0.75,-0.75c0.41422,0 0.75,0.33578 0.75,0.75c0,0.41422 -0.33578,0.75 -0.75,0.75c-0.41422,0 -0.75,-0.33578 -0.75,-0.75z" fill="#445867" stroke="none" stroke-width="0.5" stroke-linecap="butt"/><path d="M238.35715,168.43453c0,-0.41422 0.33578,-0.75 0.75,-0.75c0.41422,0 0.75,0.33578 0.75,0.75c0,0.41422 -0.33578,0.75 -0.75,0.75c-0.41422,0 -0.75,-0.33578 -0.75,-0.75z" fill="#445867" stroke="none" stroke-width="0.5" stroke-linecap="butt"/><path d="M238.27976,165.07143c0,-0.41422 0.33578,-0.75 0.75,-0.75c0.41422,0 0.75,0.33578 0.75,0.75c0,0.41422 -0.33578,0.75 -0.75,0.75c-0.41422,0 -0.75,-0.33578 -0.75,-0.75z" fill="#445867" stroke="none" stroke-width="0.5" stroke-linecap="butt"/><path d="M238.31548,172.55357c0,-0.41422 0.33578,-0.75 0.75,-0.75c0.41422,0 0.75,0.33578 0.75,0.75c0,0.41422 -0.33578,0.75 -0.75,0.75c-0.41422,0 -0.75,-0.33578 -0.75,-0.75z" fill="#445867" stroke="none" stroke-width="0.5" stroke-linecap="butt"/><path d="M236.89881,169.35714c0,-0.41422 0.33578,-0.75 0.75,-0.75c0.41422,0 0.75,0.33578 0.75,0.75c0,0.41422 -0.33578,0.75 -0.75,0.75c-0.41422,0 -0.75,-0.33578 -0.75,-0.75z" fill="#445867" stroke="none" stroke-width="0.5" stroke-linecap="butt"/><path d="M236.28571,167.96429c0,-0.41422 0.33578,-0.75 0.75,-0.75c0.41422,0 0.75,0.33578 0.75,0.75c0,0.41422 -0.33578,0.75 -0.75,0.75c-0.41422,0 -0.75,-0.33578 -0.75,-0.75z" fill="#445867" stroke="none" stroke-width="0.5" stroke-linecap="butt"/><path d="M234.77976,168.18452c0,-0.41422 0.33578,-0.75 0.75,-0.75c0.41422,0 0.75,0.33578 0.75,0.75c0,0.41422 -0.33578,0.75 -0.75,0.75c-0.41422,0 -0.75,-0.33578 -0.75,-0.75z" fill="#445867" stroke="none" stroke-width="0.5" stroke-linecap="butt"/><path d="M228.25,171.25c0,-0.41422 0.33578,-0.75 0.75,-0.75c0.41422,0 0.75,0.33578 0.75,0.75c0,0.41422 -0.33578,0.75 -0.75,0.75c-0.41422,0 -0.75,-0.33578 -0.75,-0.75z" fill="#445867" stroke="none" stroke-width="0.5" stroke-linecap="butt"/><path d="M227.875,167.875c0,-0.41422 0.33578,-0.75 0.75,-0.75c0.41422,0 0.75,0.33578 0.75,0.75c0,0.41422 -0.33578,0.75 -0.75,0.75c-0.41422,0 -0.75,-0.33578 -0.75,-0.75z" fill="#445867" stroke="none" stroke-width="0.5" stroke-linecap="butt"/><path d="M228.375,174c0,-0.41422 0.33578,-0.75 0.75,-0.75c0.41422,0 0.75,0.33578 0.75,0.75c0,0.41422 -0.33578,0.75 -0.75,0.75c-0.41422,0 -0.75,-0.33578 -0.75,-0.75z" fill="#445867" stroke="none" stroke-width="0.5" stroke-linecap="butt"/><path d="M232.60119,170.94643c0,-0.41422 0.33578,-0.75 0.75,-0.75c0.41422,0 0.75,0.33578 0.75,0.75c0,0.41422 -0.33578,0.75 -0.75,0.75c-0.41422,0 -0.75,-0.33578 -0.75,-0.75z" fill="#445867" stroke="none" stroke-width="0.5" stroke-linecap="butt"/><path d="M235.0119,170.61905c0,-0.41422 0.33578,-0.75 0.75,-0.75c0.41422,0 0.75,0.33578 0.75,0.75c0,0.41422 -0.33578,0.75 -0.75,0.75c-0.41422,0 -0.75,-0.33578 -0.75,-0.75z" fill="#445867" stroke="none" stroke-width="0.5" stroke-linecap="butt"/><path d="M236.18452,170.97024c0,-0.41422 0.33578,-0.75 0.75,-0.75c0.41422,0 0.75,0.33578 0.75,0.75c0,0.41422 -0.33578,0.75 -0.75,0.75c-0.41422,0 -0.75,-0.33578 -0.75,-0.75z" fill="#445867" stroke="none" stroke-width="0.5" stroke-linecap="butt"/><path d="M237.625,172.625c0,-0.41422 0.33578,-0.75 0.75,-0.75c0.41422,0 0.75,0.33578 0.75,0.75c0,0.41422 -0.33578,0.75 -0.75,0.75c-0.41422,0 -0.75,-0.33578 -0.75,-0.75z" fill="#445867" stroke="none" stroke-width="0.5" stroke-linecap="butt"/><path d="M237.65476,173.0119c0,-0.41422 0.33578,-0.75 0.75,-0.75c0.41422,0 0.75,0.33578 0.75,0.75c0,0.41422 -0.33578,0.75 -0.75,0.75c-0.41422,0 -0.75,-0.33578 -0.75,-0.75z" fill="#445867" stroke="none" stroke-width="0.5" stroke-linecap="butt"/><path d="M230.75595,174.2619c0,-0.41422 0.33578,-0.75 0.75,-0.75c0.41422,0 0.75,0.33578 0.75,0.75c0,0.17256 -0.05828,0.33152 -0.15623,0.45825c0.24129,0.12465 0.40623,0.37644 0.40623,0.66675c0,0.41422 -0.33578,0.75 -0.75,0.75c-0.41422,0 -0.75,-0.33578 -0.75,-0.75c0,-0.17256 0.05828,-0.33152 0.15623,-0.45825c-0.24129,-0.12465 -0.40623,-0.37644 -0.40623,-0.66675z" fill="#445867" stroke="none" stroke-width="0.5" stroke-linecap="butt"/><path d="M233.63095,172.53571c0,-0.41422 0.33578,-0.75 0.75,-0.75c0.41422,0 0.75,0.33578 0.75,0.75c0,0.41422 -0.33578,0.75 -0.75,0.75c-0.41422,0 -0.75,-0.33578 -0.75,-0.75zM233.63095,174.03571c0,-0.41422 0.33578,-0.75 0.75,-0.75c0.41422,0 0.75,0.33578 0.75,0.75c0,0.41422 -0.33578,0.75 -0.75,0.75c-0.41422,0 -0.75,-0.33578 -0.75,-0.75z" fill="#445867" stroke="none" stroke-width="0.5" stroke-linecap="butt"/><path d="M236.5,174.30952c0,-0.41422 0.33578,-0.75 0.75,-0.75c0.41422,0 0.75,0.33578 0.75,0.75c0,0.41422 -0.33578,0.75 -0.75,0.75c-0.41422,0 -0.75,-0.33578 -0.75,-0.75z" fill="#445867" stroke="none" stroke-width="0.5" stroke-linecap="butt"/><path d="M235.16071,178.27976c0,-0.41422 0.33578,-0.75 0.75,-0.75c0.41422,0 0.75,0.33578 0.75,0.75c0,0.41422 -0.33578,0.75 -0.75,0.75c-0.41422,0 -0.75,-0.33578 -0.75,-0.75z" fill="#445867" stroke="none" stroke-width="0.5" stroke-linecap="butt"/><path d="M234.125,176.625c0,-0.41422 0.33578,-0.75 0.75,-0.75c0.41422,0 0.75,0.33578 0.75,0.75c0,0.41422 -0.33578,0.75 -0.75,0.75c-0.41422,0 -0.75,-0.33578 -0.75,-0.75z" fill="#445867" stroke="none" stroke-width="0.5" stroke-linecap="butt"/><path d="M235.41071,174.79762c0,-0.41422 0.33578,-0.75 0.75,-0.75c0.41422,0 0.75,0.33578 0.75,0.75c0,0.41422 -0.33578,0.75 -0.75,0.75c-0.41422,0 -0.75,-0.33578 -0.75,-0.75z" fill="#445867" stroke="none" stroke-width="0.5" stroke-linecap="butt"/><path d="M232.77381,175.75595c0,-0.41422 0.33578,-0.75 0.75,-0.75c0.41422,0 0.75,0.33578 0.75,0.75c0,0.41422 -0.33578,0.75 -0.75,0.75c-0.41422,0 -0.75,-0.33578 -0.75,-0.75z" fill="#445867" stroke="none" stroke-width="0.5" stroke-linecap="butt"/><path d="M231.26786,177.25c0,-0.41422 0.33578,-0.75 0.75,-0.75c0.41422,0 0.75,0.33578 0.75,0.75c0,0.41422 -0.33578,0.75 -0.75,0.75c-0.41422,0 -0.75,-0.33578 -0.75,-0.75z" fill="#445867" stroke="none" stroke-width="0.5" stroke-linecap="butt"/><path d="M235.98214,176.63095c0,-0.41422 0.33578,-0.75 0.75,-0.75c0.41422,0 0.75,0.33578 0.75,0.75c0,0.41422 -0.33578,0.75 -0.75,0.75c-0.41422,0 -0.75,-0.33578 -0.75,-0.75z" fill="#445867" stroke="none" stroke-width="0.5" stroke-linecap="butt"/><path d="M229.5,176.25c0,-0.41422 0.33578,-0.75 0.75,-0.75c0.41422,0 0.75,0.33578 0.75,0.75c0,0.41422 -0.33578,0.75 -0.75,0.75c-0.41422,0 -0.75,-0.33578 -0.75,-0.75z" fill="#445867" stroke="none" stroke-width="0.5" stroke-linecap="butt"/><path d="M228.375,177.25c0,-0.41422 0.33578,-0.75 0.75,-0.75c0.41422,0 0.75,0.33578 0.75,0.75c0,0.41422 -0.33578,0.75 -0.75,0.75c-0.41422,0 -0.75,-0.33578 -0.75,-0.75z" fill="#445867" stroke="none" stroke-width="0.5" stroke-linecap="butt"/><path d="M230.125,178.75c0,-0.41422 0.33578,-0.75 0.75,-0.75c0.41422,0 0.75,0.33578 0.75,0.75c0,0.41422 -0.33578,0.75 -0.75,0.75c-0.41422,0 -0.75,-0.33578 -0.75,-0.75z" fill="#445867" stroke="none" stroke-width="0.5" stroke-linecap="butt"/><path d="M234.875,179.25c0,-0.41422 0.33578,-0.75 0.75,-0.75c0.41422,0 0.75,0.33578 0.75,0.75c0,0.41422 -0.33578,0.75 -0.75,0.75c-0.41422,0 -0.75,-0.33578 -0.75,-0.75z" fill="#445867" stroke="none" stroke-width="0.5" stroke-linecap="butt"/><path d="M237.375,178c0,-0.41422 0.33578,-0.75 0.75,-0.75c0.41422,0 0.75,0.33578 0.75,0.75c0,0.41422 -0.33578,0.75 -0.75,0.75c-0.41422,0 -0.75,-0.33578 -0.75,-0.75z" fill="#445867" stroke="none" stroke-width="0.5" stroke-linecap="butt"/><path d="M237.90476,175c0,-0.41422 0.33578,-0.75 0.75,-0.75c0.41422,0 0.75,0.33578 0.75,0.75c0,0.41422 -0.33578,0.75 -0.75,0.75c-0.41422,0 -0.75,-0.33578 -0.75,-0.75z" fill="#445867" stroke="none" stroke-width="0.5" stroke-linecap="butt"/><path d="M237.5,162.5c0,-0.41422 0.33578,-0.75 0.75,-0.75c0.41422,0 0.75,0.33578 0.75,0.75c0,0.41422 -0.33578,0.75 -0.75,0.75c-0.41422,0 -0.75,-0.33578 -0.75,-0.75z" fill="#445867" stroke="none" stroke-width="0.5" stroke-linecap="butt"/><path d="M236.01786,161.96428c0,-0.41422 0.33578,-0.75 0.75,-0.75c0.41422,0 0.75,0.33578 0.75,0.75c0,0.41422 -0.33578,0.75 -0.75,0.75c-0.41422,0 -0.75,-0.33578 -0.75,-0.75z" fill="#445867" stroke="none" stroke-width="0.5" stroke-linecap="butt"/><path d="M228.75,163.875c0,-0.41422 0.33578,-0.75 0.75,-0.75c0.41422,0 0.75,0.33578 0.75,0.75c0,0.41422 -0.33578,0.75 -0.75,0.75c-0.41422,0 -0.75,-0.33578 -0.75,-0.75z" fill="#445867" stroke="none" stroke-width="0.5" stroke-linecap="butt"/><path d="M233.79762,161.66072c0,-0.41422 0.33578,-0.75 0.75,-0.75c0.41422,0 0.75,0.33578 0.75,0.75c0,0.41422 -0.33578,0.75 -0.75,0.75c-0.41422,0 -0.75,-0.33578 -0.75,-0.75z" fill="#445867" stroke="none" stroke-width="0.5" stroke-linecap="butt"/><path d="M238.09524,164.11905c0,-0.41422 0.33578,-0.75 0.75,-0.75c0.41422,0 0.75,0.33578 0.75,0.75c0,0.41422 -0.33578,0.75 -0.75,0.75c-0.41422,0 -0.75,-0.33578 -0.75,-0.75z" fill="#445867" stroke="none" stroke-width="0.5" stroke-linecap="butt"/><path d="M245.99725,161.93248c2.41472,0 4.37224,1.3483 4.37224,3.01152c0,1.66322 -1.95752,3.01152 -4.37224,3.01152c-2.41472,0 -4.37224,-1.3483 -4.37224,-3.01152c0,-1.66322 1.95753,-3.01152 4.37224,-3.01152z" data-paper-data="{&quot;index&quot;:null}" fill="#526a7c" stroke="#445867" stroke-width="1.5" stroke-linecap="butt"/><path d="M242.34283,175.15449v-10.21049h8.02666v10.21049z" data-paper-data="{&quot;index&quot;:null}" fill="#526a7c" stroke="none" stroke-width="0" stroke-linecap="butt"/><path d="M246.12776,173.17549c2.41472,0 4.37224,1.3483 4.37224,3.01152c0,1.66322 -1.95753,3.01152 -4.37224,3.01152c-2.41472,0 -4.37224,-1.3483 -4.37224,-3.01152c0,-1.66322 1.95752,-3.01152 4.37224,-3.01152z" data-paper-data="{&quot;index&quot;:null}" fill="#4e6577" stroke="#445867" stroke-width="1.5" stroke-linecap="butt"/><path d="M250.5,176.18701l-0.13052,-11.24301" data-paper-data="{&quot;index&quot;:null}" fill="none" stroke="#445867" stroke-width="1.5" stroke-linecap="round"/><path d="M241.75552,176.18701l-0.13052,-11.24301" data-paper-data="{&quot;index&quot;:null}" fill="none" stroke="#445867" stroke-width="1.5" stroke-linecap="round"/><path d="M251.25,166.875c-0.41422,0 -0.75,-0.33578 -0.75,-0.75c0,-0.41422 0.33578,-0.75 0.75,-0.75c0.41422,0 0.75,0.33578 0.75,0.75c0,0.41422 -0.33578,0.75 -0.75,0.75z" data-paper-data="{&quot;index&quot;:null}" fill="#445867" stroke="none" stroke-width="0.5" stroke-linecap="butt"/><path d="M247.29762,169.80357c-0.41422,0 -0.75,-0.33578 -0.75,-0.75c0,-0.41422 0.33578,-0.75 0.75,-0.75c0.41422,0 0.75,0.33578 0.75,0.75c0,0.41422 -0.33578,0.75 -0.75,0.75z" data-paper-data="{&quot;index&quot;:null}" fill="#445867" stroke="none" stroke-width="0.5" stroke-linecap="butt"/><path d="M246.55952,165.69643c-0.41422,0 -0.75,-0.33578 -0.75,-0.75c0,-0.41422 0.33578,-0.75 0.75,-0.75c0.41422,0 0.75,0.33578 0.75,0.75c0,0.41422 -0.33578,0.75 -0.75,0.75z" data-paper-data="{&quot;index&quot;:null}" fill="#445867" stroke="none" stroke-width="0.5" stroke-linecap="butt"/><path d="M246.10119,163.70238c-0.41422,0 -0.75,-0.33578 -0.75,-0.75c0,-0.41422 0.33578,-0.75 0.75,-0.75c0.41422,0 0.75,0.33578 0.75,0.75c0,0.41422 -0.33578,0.75 -0.75,0.75z" data-paper-data="{&quot;index&quot;:null}" fill="#445867" stroke="none" stroke-width="0.5" stroke-linecap="butt"/><path d="M244.69643,165.44048c-0.41422,0 -0.75,-0.33578 -0.75,-0.75c0,-0.41422 0.33578,-0.75 0.75,-0.75c0.41422,0 0.75,0.33578 0.75,0.75c0,0.41422 -0.33578,0.75 -0.75,0.75z" data-paper-data="{&quot;index&quot;:null}" fill="#445867" stroke="none" stroke-width="0.5" stroke-linecap="butt"/><path d="M241.89286,165.09524c-0.41422,0 -0.75,-0.33578 -0.75,-0.75c0,-0.41422 0.33578,-0.75 0.75,-0.75c0.41422,0 0.75,0.33578 0.75,0.75c0,0.41422 -0.33578,0.75 -0.75,0.75z" data-paper-data="{&quot;index&quot;:null}" fill="#445867" stroke="none" stroke-width="0.5" stroke-linecap="butt"/><path d="M242.80952,167.06548c-0.41422,0 -0.75,-0.33578 -0.75,-0.75c0,-0.41422 0.33578,-0.75 0.75,-0.75c0.41422,0 0.75,0.33578 0.75,0.75c0,0.41422 -0.33578,0.75 -0.75,0.75z" data-paper-data="{&quot;index&quot;:null}" fill="#445867" stroke="none" stroke-width="0.5" stroke-linecap="butt"/><path d="M240.89286,170.08929c-0.41422,0 -0.75,-0.33578 -0.75,-0.75c0,-0.41422 0.33578,-0.75 0.75,-0.75c0.41422,0 0.75,0.33578 0.75,0.75c0,0.41422 -0.33578,0.75 -0.75,0.75z" data-paper-data="{&quot;index&quot;:null}" fill="#445867" stroke="none" stroke-width="0.5" stroke-linecap="butt"/><path d="M240.77976,167.63095c-0.41422,0 -0.75,-0.33578 -0.75,-0.75c0,-0.41422 0.33578,-0.75 0.75,-0.75c0.41422,0 0.75,0.33578 0.75,0.75c0,0.41422 -0.33578,0.75 -0.75,0.75z" data-paper-data="{&quot;index&quot;:null}" fill="#445867" stroke="none" stroke-width="0.5" stroke-linecap="butt"/><path d="M241.02976,173.97024c-0.41422,0 -0.75,-0.33578 -0.75,-0.75c0,-0.41422 0.33578,-0.75 0.75,-0.75c0.41422,0 0.75,0.33578 0.75,0.75c0,0.41422 -0.33578,0.75 -0.75,0.75z" data-paper-data="{&quot;index&quot;:null}" fill="#445867" stroke="none" stroke-width="0.5" stroke-linecap="butt"/><path d="M241.92262,170.29762c-0.41422,0 -0.75,-0.33578 -0.75,-0.75c0,-0.41422 0.33578,-0.75 0.75,-0.75c0.41422,0 0.75,0.33578 0.75,0.75c0,0.41422 -0.33578,0.75 -0.75,0.75z" data-paper-data="{&quot;index&quot;:null}" fill="#445867" stroke="none" stroke-width="0.5" stroke-linecap="butt"/><path d="M243.67857,168.61905c-0.41422,0 -0.75,-0.33578 -0.75,-0.75c0,-0.41422 0.33578,-0.75 0.75,-0.75c0.41422,0 0.75,0.33578 0.75,0.75c0,0.41422 -0.33578,0.75 -0.75,0.75z" data-paper-data="{&quot;index&quot;:null}" fill="#445867" stroke="none" stroke-width="0.5" stroke-linecap="butt"/><path d="M245.51786,167.79167c-0.41422,0 -0.75,-0.33578 -0.75,-0.75c0,-0.41422 0.33578,-0.75 0.75,-0.75c0.41422,0 0.75,0.33578 0.75,0.75c0,0.41422 -0.33578,0.75 -0.75,0.75z" data-paper-data="{&quot;index&quot;:null}" fill="#445867" stroke="none" stroke-width="0.5" stroke-linecap="butt"/><path d="M251,172c-0.41422,0 -0.75,-0.33578 -0.75,-0.75c0,-0.41422 0.33578,-0.75 0.75,-0.75c0.41422,0 0.75,0.33578 0.75,0.75c0,0.41422 -0.33578,0.75 -0.75,0.75z" data-paper-data="{&quot;index&quot;:null}" fill="#445867" stroke="none" stroke-width="0.5" stroke-linecap="butt"/><path d="M251.375,168.625c-0.41422,0 -0.75,-0.33578 -0.75,-0.75c0,-0.41422 0.33578,-0.75 0.75,-0.75c0.41422,0 0.75,0.33578 0.75,0.75c0,0.41422 -0.33578,0.75 -0.75,0.75z" data-paper-data="{&quot;index&quot;:null}" fill="#445867" stroke="none" stroke-width="0.5" stroke-linecap="butt"/><path d="M250.875,174.75c-0.41422,0 -0.75,-0.33578 -0.75,-0.75c0,-0.41422 0.33578,-0.75 0.75,-0.75c0.41422,0 0.75,0.33578 0.75,0.75c0,0.41422 -0.33578,0.75 -0.75,0.75z" data-paper-data="{&quot;index&quot;:null}" fill="#445867" stroke="none" stroke-width="0.5" stroke-linecap="butt"/><path d="M246.64881,172.26786c-0.41422,0 -0.75,-0.33578 -0.75,-0.75c0,-0.41422 0.33578,-0.75 0.75,-0.75c0.41422,0 0.75,0.33578 0.75,0.75c0,0.41422 -0.33578,0.75 -0.75,0.75z" data-paper-data="{&quot;index&quot;:null}" fill="#445867" stroke="none" stroke-width="0.5" stroke-linecap="butt"/><path d="M245.04762,170.41667c-0.41422,0 -0.75,-0.33578 -0.75,-0.75c0,-0.41422 0.33578,-0.75 0.75,-0.75c0.41422,0 0.75,0.33578 0.75,0.75c0,0.41422 -0.33578,0.75 -0.75,0.75z" data-paper-data="{&quot;index&quot;:null}" fill="#445867" stroke="none" stroke-width="0.5" stroke-linecap="butt"/><path d="M243.58929,171.81548c-0.41422,0 -0.75,-0.33578 -0.75,-0.75c0,-0.41422 0.33578,-0.75 0.75,-0.75c0.41422,0 0.75,0.33578 0.75,0.75c0,0.41422 -0.33578,0.75 -0.75,0.75z" data-paper-data="{&quot;index&quot;:null}" fill="#445867" stroke="none" stroke-width="0.5" stroke-linecap="butt"/><path d="M241.625,173.375c-0.41422,0 -0.75,-0.33578 -0.75,-0.75c0,-0.41422 0.33578,-0.75 0.75,-0.75c0.41422,0 0.75,0.33578 0.75,0.75c0,0.41422 -0.33578,0.75 -0.75,0.75z" data-paper-data="{&quot;index&quot;:null}" fill="#445867" stroke="none" stroke-width="0.5" stroke-linecap="butt"/><path d="M241.88095,173.09524c-0.41422,0 -0.75,-0.33578 -0.75,-0.75c0,-0.41422 0.33578,-0.75 0.75,-0.75c0.41422,0 0.75,0.33578 0.75,0.75c0,0.41422 -0.33578,0.75 -0.75,0.75z" data-paper-data="{&quot;index&quot;:null}" fill="#445867" stroke="none" stroke-width="0.5" stroke-linecap="butt"/><path d="M249.21877,174.16675c0.09795,0.12673 0.15623,0.28569 0.15623,0.45825c0,0.41422 -0.33578,0.75 -0.75,0.75c-0.41422,0 -0.75,-0.33578 -0.75,-0.75c0,-0.29031 0.16494,-0.5421 0.40623,-0.66675c-0.09795,-0.12673 -0.15623,-0.28569 -0.15623,-0.45825c0,-0.41422 0.33578,-0.75 0.75,-0.75c0.41422,0 0.75,0.33578 0.75,0.75c0,0.29031 -0.16494,0.5421 -0.40623,0.66675z" data-paper-data="{&quot;index&quot;:null}" fill="#445867" stroke="none" stroke-width="0.5" stroke-linecap="butt"/><path d="M244.80952,173.14286c-0.41422,0 -0.75,-0.33578 -0.75,-0.75c0,-0.41422 0.33578,-0.75 0.75,-0.75c0.41422,0 0.75,0.33578 0.75,0.75c0,0.41422 -0.33578,0.75 -0.75,0.75zM244.80952,174.64286c-0.41422,0 -0.75,-0.33578 -0.75,-0.75c0,-0.41422 0.33578,-0.75 0.75,-0.75c0.41422,0 0.75,0.33578 0.75,0.75c0,0.41422 -0.33578,0.75 -0.75,0.75z" data-paper-data="{&quot;index&quot;:null}" fill="#445867" stroke="none" stroke-width="0.5" stroke-linecap="butt"/><path d="M243.75,175.25c-0.41422,0 -0.75,-0.33578 -0.75,-0.75c0,-0.41422 0.33578,-0.75 0.75,-0.75c0.41422,0 0.75,0.33578 0.75,0.75c0,0.41422 -0.33578,0.75 -0.75,0.75z" data-paper-data="{&quot;index&quot;:null}" fill="#445867" stroke="none" stroke-width="0.5" stroke-linecap="butt"/><path d="M244.375,178.125c-0.41422,0 -0.75,-0.33578 -0.75,-0.75c0,-0.41422 0.33578,-0.75 0.75,-0.75c0.41422,0 0.75,0.33578 0.75,0.75c0,0.41422 -0.33578,0.75 -0.75,0.75z" data-paper-data="{&quot;index&quot;:null}" fill="#445867" stroke="none" stroke-width="0.5" stroke-linecap="butt"/><path d="M245.125,176.25c-0.41422,0 -0.75,-0.33578 -0.75,-0.75c0,-0.41422 0.33578,-0.75 0.75,-0.75c0.41422,0 0.75,0.33578 0.75,0.75c0,0.41422 -0.33578,0.75 -0.75,0.75z" data-paper-data="{&quot;index&quot;:null}" fill="#445867" stroke="none" stroke-width="0.5" stroke-linecap="butt"/><path d="M248.125,177.5c-0.41422,0 -0.75,-0.33578 -0.75,-0.75c0,-0.41422 0.33578,-0.75 0.75,-0.75c0.41422,0 0.75,0.33578 0.75,0.75c0,0.41422 -0.33578,0.75 -0.75,0.75z" data-paper-data="{&quot;index&quot;:null}" fill="#445867" stroke="none" stroke-width="0.5" stroke-linecap="butt"/><path d="M247,176.125c-0.41422,0 -0.75,-0.33578 -0.75,-0.75c0,-0.41422 0.33578,-0.75 0.75,-0.75c0.41422,0 0.75,0.33578 0.75,0.75c0,0.41422 -0.33578,0.75 -0.75,0.75z" data-paper-data="{&quot;index&quot;:null}" fill="#445867" stroke="none" stroke-width="0.5" stroke-linecap="butt"/><path d="M246.125,178c-0.41422,0 -0.75,-0.33578 -0.75,-0.75c0,-0.41422 0.33578,-0.75 0.75,-0.75c0.41422,0 0.75,0.33578 0.75,0.75c0,0.41422 -0.33578,0.75 -0.75,0.75z" data-paper-data="{&quot;index&quot;:null}" fill="#445867" stroke="none" stroke-width="0.5" stroke-linecap="butt"/><path d="M243.125,177c-0.41422,0 -0.75,-0.33578 -0.75,-0.75c0,-0.41422 0.33578,-0.75 0.75,-0.75c0.41422,0 0.75,0.33578 0.75,0.75c0,0.41422 -0.33578,0.75 -0.75,0.75z" data-paper-data="{&quot;index&quot;:null}" fill="#445867" stroke="none" stroke-width="0.5" stroke-linecap="butt"/><path d="M249.75,177c-0.41422,0 -0.75,-0.33578 -0.75,-0.75c0,-0.41422 0.33578,-0.75 0.75,-0.75c0.41422,0 0.75,0.33578 0.75,0.75c0,0.41422 -0.33578,0.75 -0.75,0.75z" data-paper-data="{&quot;index&quot;:null}" fill="#445867" stroke="none" stroke-width="0.5" stroke-linecap="butt"/><path d="M250.875,178c-0.41422,0 -0.75,-0.33578 -0.75,-0.75c0,-0.41422 0.33578,-0.75 0.75,-0.75c0.41422,0 0.75,0.33578 0.75,0.75c0,0.41422 -0.33578,0.75 -0.75,0.75z" data-paper-data="{&quot;index&quot;:null}" fill="#445867" stroke="none" stroke-width="0.5" stroke-linecap="butt"/><path d="M249.125,179.5c-0.41422,0 -0.75,-0.33578 -0.75,-0.75c0,-0.41422 0.33578,-0.75 0.75,-0.75c0.41422,0 0.75,0.33578 0.75,0.75c0,0.41422 -0.33578,0.75 -0.75,0.75z" data-paper-data="{&quot;index&quot;:null}" fill="#445867" stroke="none" stroke-width="0.5" stroke-linecap="butt"/><path d="M244.375,180c-0.41422,0 -0.75,-0.33578 -0.75,-0.75c0,-0.41422 0.33578,-0.75 0.75,-0.75c0.41422,0 0.75,0.33578 0.75,0.75c0,0.41422 -0.33578,0.75 -0.75,0.75z" data-paper-data="{&quot;index&quot;:null}" fill="#445867" stroke="none" stroke-width="0.5" stroke-linecap="butt"/><path d="M241.875,178.75c-0.41422,0 -0.75,-0.33578 -0.75,-0.75c0,-0.41422 0.33578,-0.75 0.75,-0.75c0.41422,0 0.75,0.33578 0.75,0.75c0,0.41422 -0.33578,0.75 -0.75,0.75z" data-paper-data="{&quot;index&quot;:null}" fill="#445867" stroke="none" stroke-width="0.5" stroke-linecap="butt"/><path d="M241.15476,176.13095c-0.41422,0 -0.75,-0.33578 -0.75,-0.75c0,-0.41422 0.33578,-0.75 0.75,-0.75c0.41422,0 0.75,0.33578 0.75,0.75c0,0.41422 -0.33578,0.75 -0.75,0.75z" data-paper-data="{&quot;index&quot;:null}" fill="#445867" stroke="none" stroke-width="0.5" stroke-linecap="butt"/><path d="M241.03572,164.67857c-0.41422,0 -0.75,-0.33578 -0.75,-0.75c0,-0.41422 0.33578,-0.75 0.75,-0.75c0.41422,0 0.75,0.33578 0.75,0.75c0,0.41422 -0.33578,0.75 -0.75,0.75z" data-paper-data="{&quot;index&quot;:null}" fill="#445867" stroke="none" stroke-width="0.5" stroke-linecap="butt"/><path d="M244.13691,162.23809c-0.41422,0 -0.75,-0.33578 -0.75,-0.75c0,-0.41422 0.33578,-0.75 0.75,-0.75c0.41422,0 0.75,0.33578 0.75,0.75c0,0.41422 -0.33578,0.75 -0.75,0.75z" data-paper-data="{&quot;index&quot;:null}" fill="#445867" stroke="none" stroke-width="0.5" stroke-linecap="butt"/><path d="M250.5,164.625c-0.41422,0 -0.75,-0.33578 -0.75,-0.75c0,-0.41422 0.33578,-0.75 0.75,-0.75c0.41422,0 0.75,0.33578 0.75,0.75c0,0.41422 -0.33578,0.75 -0.75,0.75z" data-paper-data="{&quot;index&quot;:null}" fill="#445867" stroke="none" stroke-width="0.5" stroke-linecap="butt"/><path d="M247.21429,162.45834c-0.41422,0 -0.75,-0.33578 -0.75,-0.75c0,-0.41422 0.33578,-0.75 0.75,-0.75c0.41422,0 0.75,0.33578 0.75,0.75c0,0.41422 -0.33578,0.75 -0.75,0.75z" data-paper-data="{&quot;index&quot;:null}" fill="#445867" stroke="none" stroke-width="0.5" stroke-linecap="butt"/><path d="M242.53572,163.25c-0.41422,0 -0.75,-0.33578 -0.75,-0.75c0,-0.41422 0.33578,-0.75 0.75,-0.75c0.41422,0 0.75,0.33578 0.75,0.75c0,0.41422 -0.33578,0.75 -0.75,0.75z" data-paper-data="{&quot;index&quot;:null}" fill="#445867" stroke="none" stroke-width="0.5" stroke-linecap="butt"/><path d="M221.5625,198.60249v-21.01605h36.875v21.01605z" fill="#707070" stroke="#5a5a5a" stroke-width="1.5" stroke-linecap="butt"/><path d="M228.21429,191.8487v-10.21049h23.57143v10.21049z" fill="url(#color-2)" stroke="#5a5a5a" stroke-width="1.5" stroke-linecap="butt"/><path d="M248.57814,191.41611c-0.06469,0 -0.12855,-0.00314 -0.19143,-0.00925c-0.04498,0.00438 -0.09047,0.00723 -0.13643,0.0085l-3.49977,0.11207l-0.01684,-0.42307c-5.30101,0.95317 -11.26727,1.05123 -16.16697,-0.05924l0.39125,-1.12113l-0.74366,-0.11113l0.37813,-2.03426c0.12564,-0.75842 0.85487,-1.34027 1.73568,-1.34027c0.77641,0 1.43506,0.45212 1.66633,1.07873l0.22901,0.57497c0.40176,-0.54053 0.64628,-2.07097 1.42328,-2.20917c2.10209,-0.37386 1.85221,2.38583 2.80061,0.36456l0.47096,-1.58355c0.18667,-0.6891 0.87935,-1.20075 1.7053,-1.20075c0.86781,0 1.58847,0.56482 1.72973,1.3068l0.26871,1.26489c0.13378,0.01976 0.27479,0.00563 0.42381,-0.0502l0.93311,0.77706c0.51289,-0.32324 1.27005,-0.62651 2.32928,-0.89461c0.34614,-0.08761 0.60971,0.11471 0.82659,0.42307l0.45173,-1.70117c0.17046,-0.70895 0.87372,-1.24025 1.71539,-1.24025c0.81548,0 1.50106,0.49877 1.69796,1.17462l0.49983,1.5686c0.0238,0.07532 0.04529,0.15499 0.06387,0.23769c0.20744,-0.0774 0.43499,-0.12012 0.67366,-0.12012c0.96916,0 1.75481,0.70444 1.75481,1.57343v0v2.28862c0,0 0,1.57343 -1.75481,1.57343c-0.49746,0 -0.85389,-0.12644 -1.10928,-0.30764c-0.17296,0.05112 -0.35778,0.07877 -0.54982,0.07877z" data-paper-data="{&quot;index&quot;:null}" fill="#ff6f00" stroke="none" stroke-width="0.5" stroke-linecap="butt"/><path d="M248.57818,191.54164c-0.06469,0 -0.12858,-0.00222 -0.19144,-0.00657c-0.045,0.00311 -0.0905,0.00512 -0.13643,0.00603l-3.49976,0.07955l-0.01685,-0.30032c-5.30102,0.67664 -11.26727,0.74624 -16.16697,-0.04206l0.39126,-0.79586l-0.74366,-0.0789l0.37812,-1.44408c0.12564,-0.53838 0.85487,-0.95144 1.73568,-0.95144c0.7764,0 1.43505,0.32094 1.66631,0.76577l0.22902,0.40816c0.40174,-0.38371 0.64628,-1.47017 1.42328,-1.56826c2.10209,-0.2654 1.8522,1.69367 2.80061,0.2588l0.47096,-1.12413c0.18667,-0.48917 0.87934,-0.85238 1.7053,-0.85238c0.86779,0 1.58846,0.40095 1.72971,0.92767l0.26871,0.89792c0.13378,0.01404 0.27479,0.00401 0.42381,-0.03563l0.9331,0.55162c0.51291,-0.22947 1.27006,-0.44475 2.3293,-0.63508c0.34615,-0.0622 0.6097,0.08143 0.82658,0.30033l0.45173,-1.20763c0.17046,-0.50329 0.87373,-0.88044 1.71539,-0.88044c0.81549,0 1.50105,0.35405 1.69795,0.83384l0.49983,1.11351c0.02378,0.05347 0.04528,0.11003 0.06387,0.16873c0.20742,-0.05493 0.43499,-0.08527 0.67366,-0.08527c0.96916,0 1.75481,0.50007 1.75481,1.11695v0v1.62465c0,0 0,1.11694 -1.75481,1.11694c-0.49747,0 -0.85389,-0.08976 -1.1093,-0.21839c-0.17294,0.03627 -0.35776,0.05591 -0.5498,0.05591z" data-paper-data="{&quot;index&quot;:null}" fill="#ffae00" stroke="none" stroke-width="0.5" stroke-linecap="butt"/><path d="M240,191.73948v-9.01381" fill="none" stroke="#5a5a5a" stroke-width="1.5" stroke-linecap="round"/><path d="M246.1875,182.41071v9.33194" fill="none" stroke="#5a5a5a" stroke-width="1.5" stroke-linecap="round"/><path d="M234.4375,182.51676v9.33194" fill="none" stroke="#5a5a5a" stroke-width="1.5" stroke-linecap="round"/><path d="M228.42064,191.84867v-10.21049h23.57143v10.21049z" fill="none" stroke="#5a5a5a" stroke-width="1.5" stroke-linecap="butt"/><path d="M251.88889,187.23258c0,3.79926 -5.32283,6.87916 -11.88889,6.87916c-6.56606,0 -11.88889,-3.0799 -11.88889,-6.87916c0,-3.79926 5.32283,-6.87916 11.88889,-6.87916c6.56606,0 11.88889,3.0799 11.88889,6.87916z" fill="url(#color-3)" stroke="none" stroke-width="0" stroke-linecap="butt"/><path d="M231.04762,169.38691c0,-0.41422 0.33578,-0.75 0.75,-0.75c0.41422,0 0.75,0.33578 0.75,0.75c0,0.41422 -0.33578,0.75 -0.75,0.75c-0.41422,0 -0.75,-0.33578 -0.75,-0.75z" fill="#445867" stroke="none" stroke-width="0.5" stroke-linecap="butt"/><path d="M231.21429,166.56548c0,-0.41422 0.33578,-0.75 0.75,-0.75c0.41422,0 0.75,0.33578 0.75,0.75c0,0.41422 -0.33578,0.75 -0.75,0.75c-0.41422,0 -0.75,-0.33578 -0.75,-0.75z" fill="#445867" stroke="none" stroke-width="0.5" stroke-linecap="butt"/><path d="M231.8631,164.14286c0,-0.41422 0.33578,-0.75 0.75,-0.75c0.41422,0 0.75,0.33578 0.75,0.75c0,0.41422 -0.33578,0.75 -0.75,0.75c-0.41422,0 -0.75,-0.33578 -0.75,-0.75z" fill="#445867" stroke="none" stroke-width="0.5" stroke-linecap="butt"/><path d="M229.83929,171.375c0,-0.41422 0.33578,-0.75 0.75,-0.75c0.41422,0 0.75,0.33578 0.75,0.75c0,0.41422 -0.33578,0.75 -0.75,0.75c-0.41422,0 -0.75,-0.33578 -0.75,-0.75z" fill="#445867" stroke="none" stroke-width="0.5" stroke-linecap="butt"/><path d="M229.69048,165.42262c0,-0.41422 0.33578,-0.75 0.75,-0.75c0.41422,0 0.75,0.33578 0.75,0.75c0,0.41422 -0.33578,0.75 -0.75,0.75c-0.41422,0 -0.75,-0.33578 -0.75,-0.75z" fill="#445867" stroke="none" stroke-width="0.5" stroke-linecap="butt"/><path d="M221.5625,177.58644v-17.26605h8.02666v17.26605z" fill="#707070" stroke="#5a5a5a" stroke-width="1.5" stroke-linecap="butt"/><path d="M249.29762,169.51786c-0.41422,0 -0.75,-0.33578 -0.75,-0.75c0,-0.41422 0.33578,-0.75 0.75,-0.75c0.41422,0 0.75,0.33578 0.75,0.75c0,0.41422 -0.33578,0.75 -0.75,0.75z" data-paper-data="{&quot;index&quot;:null}" fill="#445867" stroke="none" stroke-width="0.5" stroke-linecap="butt"/><path d="M248.55952,165.41072c-0.41422,0 -0.75,-0.33578 -0.75,-0.75c0,-0.41422 0.33578,-0.75 0.75,-0.75c0.41422,0 0.75,0.33578 0.75,0.75c0,0.41422 -0.33578,0.75 -0.75,0.75z" data-paper-data="{&quot;index&quot;:null}" fill="#445867" stroke="none" stroke-width="0.5" stroke-linecap="butt"/><path d="M247.51785,167.50595c-0.41422,0 -0.75,-0.33578 -0.75,-0.75c0,-0.41422 0.33578,-0.75 0.75,-0.75c0.41422,0 0.75,0.33578 0.75,0.75c0,0.41422 -0.33578,0.75 -0.75,0.75z" data-paper-data="{&quot;index&quot;:null}" fill="#445867" stroke="none" stroke-width="0.5" stroke-linecap="butt"/><path d="M248.69643,171.55357c-0.41422,0 -0.75,-0.33578 -0.75,-0.75c0,-0.41422 0.33578,-0.75 0.75,-0.75c0.41422,0 0.75,0.33578 0.75,0.75c0,0.41422 -0.33578,0.75 -0.75,0.75z" data-paper-data="{&quot;index&quot;:null}" fill="#445867" stroke="none" stroke-width="0.5" stroke-linecap="butt"/><path d="M230.79762,161.66072c0,-0.41422 0.33578,-0.75 0.75,-0.75c0.41422,0 0.75,0.33578 0.75,0.75c0,0.41422 -0.33578,0.75 -0.75,0.75c-0.41422,0 -0.75,-0.33578 -0.75,-0.75z" fill="#445867" stroke="none" stroke-width="0.5" stroke-linecap="butt"/><path d="M249.35714,163.07739c-0.41422,0 -0.75,-0.33578 -0.75,-0.75c0,-0.41422 0.33578,-0.75 0.75,-0.75c0.41422,0 0.75,0.33578 0.75,0.75c0,0.41422 -0.33578,0.75 -0.75,0.75z" data-paper-data="{&quot;index&quot;:null}" fill="#445867" stroke="none" stroke-width="0.5" stroke-linecap="butt"/><path d="M250.41085,177.58644v-17.26605h8.02666v17.26605z" fill="#707070" stroke="#5a5a5a" stroke-width="1.5" stroke-linecap="butt"/></g></g></svg>