<svg version="1.1" xmlns="http://www.w3.org/2000/svg" xmlns:xlink="http://www.w3.org/1999/xlink" width="52.75" height="52.75" viewBox="0,0,52.75,52.75"><g transform="translate(-213.625,-153.625)"><g data-paper-data="{&quot;isPaintingLayer&quot;:true}" fill-rule="nonzero" stroke-linecap="butt" stroke-linejoin="miter" stroke-miterlimit="10" stroke-dasharray="" stroke-dashoffset="0" style="mix-blend-mode: normal"><path d="M214.875,205.125v-50.25h50.25v50.25z" fill="#7f7f7f" stroke="#5e5e5e" stroke-width="2.5"/><path d="M220.78005,199.23961v-38.47171h38.47171v38.47171z" fill="#827c6d" stroke="#827c6d" stroke-width="1.5"/><path d="M226.92353,164.5303c-0.68936,0.29544 -0.9848,-0.39392 -0.9848,-0.39392l-0.33333,-0.77778c-0.19554,-0.46141 -0.43269,-0.90809 -0.71246,-1.32386c0,0 -0.41603,-0.62404 0.20801,-1.04006c0.62404,-0.41603 1.04006,0.20801 1.04006,0.20801c0.32691,0.49422 0.60781,1.02119 0.8431,1.56503l0.33333,0.77778c0,0 0.29544,0.68936 -0.39392,0.9848z" fill="#787265" stroke="none" stroke-width="0.5"/><path d="M235.83536,171.77468c-0.71151,-0.23717 -0.47434,-0.94868 -0.47434,-0.94868l0.09502,-0.27806c0.32547,-1.30189 0.56609,-2.71751 1.16624,-3.92795c0.20762,-0.41875 1.07632,-0.7162 0.84246,-1.12088c-1.04219,-1.80344 -1.24176,-1.93616 0.09487,-3.96307c0,0 0.41603,-0.62404 1.04006,-0.20801c0.62404,0.41603 0.20801,1.04006 0.20801,1.04006c-0.2656,0.39482 -1.13225,1.08484 -1.00641,1.62889c0.11559,0.49973 0.98979,0.57405 1.10128,1.07471c0.24995,1.12245 -1.66701,4.54291 -1.9913,5.84006l-0.12721,0.3886c0,0 -0.23717,0.71151 -0.94868,0.47434z" fill="#787265" stroke="none" stroke-width="0.5"/><path d="M251.51698,168.70206c-0.75,0 -0.75,-0.75 -0.75,-0.75l0.00579,-0.20414c0.07541,-0.5921 0.51097,-1.64471 0.35972,-2.24519c-0.19177,-0.76139 -3.26948,-3.1113 -4.02206,-3.41687c0,0 -0.68936,-0.29544 -0.39392,-0.9848c0.29544,-0.68936 0.9848,-0.39392 0.9848,-0.39392c1.20544,0.53628 4.46941,3.03598 4.86682,4.36091c0.27284,0.90962 -0.19677,1.96512 -0.30694,2.86592l0.00579,0.01809c0,0 0,0.75 -0.75,0.75z" fill="#787265" stroke="none" stroke-width="0.5"/><path d="M256.50479,164.35852c-0.7398,-0.1233 -0.6165,-0.86309 -0.6165,-0.86309l0.14866,-0.80671c0.19891,-0.52936 0.38173,-1.06551 0.53666,-1.60936c0,0 0.20604,-0.72114 0.92718,-0.5151c0.72114,0.20604 0.5151,0.92718 0.5151,0.92718c-0.16683,0.58229 -0.36212,1.15668 -0.57445,1.72397l-0.07356,0.52662c0,0 -0.1233,0.7398 -0.86309,0.6165z" fill="#787265" stroke="none" stroke-width="0.5"/><path d="M226.1786,182.87626c0.74246,0.10607 0.6364,0.84853 0.6364,0.84853l-0.13143,0.87421c-0.88138,2.04909 -2.08418,2.48591 -0.30293,4.26717c0,0 0.53033,0.53033 0,1.06066c-0.53033,0.53033 -1.06066,0 -1.06066,0c-2.2898,-2.2898 -1.14733,-3.22905 -0.0807,-5.73283l0.09079,-0.68134c0,0 0.10607,-0.74246 0.84853,-0.6364z" fill="#787265" stroke="none" stroke-width="0.5"/><path d="M235.9635,186.83679c0.67082,0.33541 0.33541,1.00623 0.33541,1.00623l-0.03193,-0.11319c-0.00402,0.62155 -0.09723,1.24473 -0.24462,1.84857c0,0 -0.1819,0.72761 -0.90951,0.54571c-0.72761,-0.1819 -0.54571,-0.90951 -0.54571,-0.90951c0.12442,-0.48364 0.20392,-0.9854 0.19983,-1.48476l0.19029,-0.55763c0,0 0.33541,-0.67082 1.00623,-0.33541z" fill="#787265" stroke="none" stroke-width="0.5"/><path d="M245.2798,176.57388c0.71151,-0.23717 0.94868,0.47434 0.94868,0.47434l-0.18438,-0.05353c2.05224,1.46087 0.11282,5.5806 -0.80841,7.73939c0.55496,1.46972 1.12107,2.93732 1.55797,4.45639c0,0 0.20604,0.72114 -0.5151,0.92718c-0.72114,0.20604 -0.92718,-0.5151 -0.92718,-0.5151c-0.80585,-2.84167 -2.07373,-5.50494 -2.88889,-8.33333l-0.02886,-0.65049c0,0 0,-0.75 0.75,-0.75c0.75,0 0.75,0.75 0.75,0.75l-0.02886,0.2384c0.17163,0.60535 0.36457,1.20291 0.56985,1.7961c0.66786,-1.70438 1.41925,-4.00626 0.73742,-4.41047l-0.4066,-0.7202c0,0 -0.23717,-0.71151 0.47434,-0.94868z" fill="#787265" stroke="none" stroke-width="0.5"/><path d="M251.29475,174.42428c0.70366,0 0.74714,0.66018 0.74982,0.74176c0.57284,0.82823 1.18512,1.48228 2.00185,2.08274c0.00075,-0.00243 0.00149,-0.00487 0.00223,-0.00731c-0.06098,-0.157 -0.21003,-0.67766 0.35513,-0.96024c0.67082,-0.33541 1.00623,0.33541 1.00623,0.33541l0.16143,0.76367c-0.57858,2.01168 -1.59139,3.8107 -2.10465,5.86475c0,0 -0.07776,0.31104 -0.33496,0.47555c0.15113,0.53901 0.30291,1.08001 0.55024,1.5613l0.09243,-0.65815c0,0 0.10607,-0.74246 0.84853,-0.6364c0.74246,0.10607 0.6364,0.84853 0.6364,0.84853l-0.12007,0.82813c-0.35351,1.23451 -0.43129,2.56225 -0.42795,3.84358c0,0 0,0.75 -0.75,0.75c-0.75,0 -0.75,-0.75 -0.75,-0.75c0.0017,-0.75016 0.02512,-1.51534 0.1067,-2.27135c-0.06916,-0.04712 -0.10926,-0.08721 -0.10926,-0.08721c-1.12763,-1.16102 -1.31512,-2.64437 -1.86296,-4.12231l-0.12695,-0.85751c0,0 -0.10607,-0.74246 0.6364,-0.84853c0.27398,-0.03914 0.4613,0.03727 0.58861,0.14927c0.33655,-0.9476 0.73847,-1.86223 1.10009,-2.79383c-0.14401,-0.04466 -0.24079,-0.11379 -0.24079,-0.11379c-1.08784,-0.78116 -1.88961,-1.63847 -2.63255,-2.74983l-0.12596,-0.63825c0,0 0,-0.75 0.75,-0.75z" fill="#787265" stroke="none" stroke-width="0.5"/><path d="M249.57177,187.47792c0.69636,-0.27854 0.9749,0.41781 0.9749,0.41781l0.1499,0.41807c0.14815,0.22222 0.2963,0.44444 0.44444,0.66667c0,0 0.41603,0.62404 -0.20801,1.04006c-0.62404,0.41603 -1.04006,-0.20801 -1.04006,-0.20801c-0.14815,-0.22222 -0.2963,-0.44444 -0.44444,-0.66667l-0.29454,-0.69304c0,0 -0.27854,-0.69636 0.41781,-0.9749z" fill="#787265" stroke="none" stroke-width="0.5"/><path d="M231.41142,170.35206c0.6,0.45 0.15,1.05 0.15,1.05l-0.26251,0.32985c-0.7405,1.481 -1.55957,3.95428 -2.98516,4.92094c-0.41194,0.27933 -0.92227,0.53362 -1.41627,0.47294c-0.26596,-0.03267 -0.6211,-0.57021 -0.77589,-0.83314c0.30207,0.71302 -0.34664,2.04176 -0.55014,2.75435c0,0 -0.20604,0.72114 -0.92718,0.5151c-0.72114,-0.20604 -0.5151,-0.92718 -0.5151,-0.92718c0.16551,-0.57899 0.5639,-3.34442 1.04368,-3.61221c0.63235,-0.35296 1.5058,0.19649 2.07475,0.64452c0.30055,0.23668 0.44235,-0.62428 0.6642,-0.93593c0.82012,-1.15212 1.41462,-2.40846 2.04548,-3.67019l0.40415,-0.55903c0,0 0.45,-0.6 1.05,-0.15z" fill="#787265" stroke="none" stroke-width="0.5"/><path d="M220.78005,199.23961v-9.09671h38.47171v9.09671z" fill="none" stroke="#5d594e" stroke-width="1.5"/><path d="M220.76426,199.23586v-9.09671h38.47171v9.09671z" fill="#767063" stroke="#5d594e" stroke-width="1.5"/><path d="M220.88717,187.05637v-0.125h11v0.125z" fill="none" stroke="#efcc6c" stroke-width="1.5"/><path d="M248.22051,186.92304v-0.125h11.1v0.125z" fill="none" stroke="#efcc6c" stroke-width="1.5"/><path d="M231.91634,186.96054h-0.125v-4.53333h0.125z" fill="none" stroke="#efcc6c" stroke-width="1.5"/><path d="M225.82051,182.52304v-0.125h6.06667v0.125z" fill="none" stroke="#efcc6c" stroke-width="1.5"/><path d="M225.91634,182.36054h-0.125v-3.39999h0.125z" fill="none" stroke="#efcc6c" stroke-width="1.5"/><path d="M225.82051,177.65637v-0.125h9.73333v0.125z" fill="none" stroke="#efcc6c" stroke-width="1.5"/><path d="M235.583,182.49387h-0.125v-3.39999h0.125z" fill="none" stroke="#efcc6c" stroke-width="1.5"/><path d="M235.583,185.16054h-0.125v-3.4h0.125z" fill="none" stroke="#efcc6c" stroke-width="1.5"/><path d="M248.19134,182.36054h0.125v4.53333h-0.125z" data-paper-data="{&quot;index&quot;:null}" fill="none" stroke="#efcc6c" stroke-width="1.5"/><path d="M248.2205,182.45637v-0.125h6.06667v0.125z" data-paper-data="{&quot;index&quot;:null}" fill="none" stroke="#efcc6c" stroke-width="1.5"/><path d="M254.19134,178.89388h0.125v3.39999h-0.125z" data-paper-data="{&quot;index&quot;:null}" fill="none" stroke="#efcc6c" stroke-width="1.5"/><path d="M244.55384,177.58971v-0.125h9.73333v0.125z" data-paper-data="{&quot;index&quot;:null}" fill="none" stroke="#efcc6c" stroke-width="1.5"/><path d="M244.52467,181.69388h0.125v3.4h-0.125z" data-paper-data="{&quot;index&quot;:null}" fill="none" stroke="#efcc6c" stroke-width="1.5"/><path d="M220.88717,184.72304v-0.125h2.06667v0.125z" fill="none" stroke="#efcc6c" stroke-width="1.5"/><path d="M222.983,180.62721h-0.125v-3.39999h0.125z" fill="none" stroke="#efcc6c" stroke-width="1.5"/><path d="M222.983,183.29387h-0.125v-3.39999h0.125z" fill="none" stroke="#efcc6c" stroke-width="1.5"/><path d="M222.983,179.42721h-0.125v-3.39999h0.125z" fill="none" stroke="#efcc6c" stroke-width="1.5"/><path d="M220.88717,173.52304v-0.125h2.06667v0.125z" fill="none" stroke="#efcc6c" stroke-width="1.5"/><path d="M257.31633,184.62304v-0.125h2.06667v0.125z" data-paper-data="{&quot;index&quot;:null}" fill="none" stroke="#efcc6c" stroke-width="1.5"/><path d="M257.28716,179.79388h0.125v3.39999h-0.125z" data-paper-data="{&quot;index&quot;:null}" fill="none" stroke="#efcc6c" stroke-width="1.5"/><path d="M244.52467,179.02721h0.125v3.39999h-0.125z" data-paper-data="{&quot;index&quot;:null}" fill="none" stroke="#efcc6c" stroke-width="1.5"/><path d="M257.28716,175.92722h0.125v3.39999h-0.125z" data-paper-data="{&quot;index&quot;:null}" fill="none" stroke="#efcc6c" stroke-width="1.5"/><path d="M257.18509,173.52304v-0.125h2.06667v0.125z" data-paper-data="{&quot;index&quot;:null}" fill="none" stroke="#efcc6c" stroke-width="1.5"/><path d="M222.95384,173.57045v-0.04741h12.62916v0.04741z" fill="none" stroke="#efcc6c" stroke-width="1.5"/><path d="M240.0159,178.69388h0.125v3.39999h-0.125z" data-paper-data="{&quot;index&quot;:null}" fill="none" stroke="#efcc6c" stroke-width="1.5"/><path d="M240.0159,174.82722h0.125v3.39999h-0.125z" data-paper-data="{&quot;index&quot;:null}" fill="none" stroke="#efcc6c" stroke-width="1.5"/><path d="M244.55593,173.57044v-0.0474h12.62916v0.0474z" fill="none" stroke="#efcc6c" stroke-width="1.5"/><path d="M239.9534,173.12723h0.125v3.39999h-0.125z" data-paper-data="{&quot;index&quot;:null}" fill="none" stroke="#efcc6c" stroke-width="1.5"/><path d="M239.9534,169.26057h0.125v3.39999h-0.125z" data-paper-data="{&quot;index&quot;:null}" fill="none" stroke="#efcc6c" stroke-width="1.5"/><path d="M220.78005,166.57045v-0.0474h12.62916v0.0474z" fill="none" stroke="#efcc6c" stroke-width="1.5"/><path d="M233.53421,166.57045h-0.125v-4.53333h0.125z" fill="none" stroke="#efcc6c" stroke-width="1.5"/><path d="M246.6226,166.57044v-0.0474h12.62916v0.0474z" data-paper-data="{&quot;index&quot;:null}" fill="none" stroke="#efcc6c" stroke-width="1.5"/><path d="M246.4976,162.03712h0.125v4.53333h-0.125z" data-paper-data="{&quot;index&quot;:null}" fill="none" stroke="#efcc6c" stroke-width="1.5"/><path d="M259.25176,160.76566v0.00224h-38.47171v-0.00224z" fill="#827c6d" stroke="#5d594e" stroke-width="1.5"/><path d="M220.83716,170.8044c0,-0.79936 0.64801,-1.44737 1.44737,-1.44737c0.79936,0 1.44737,0.64801 1.44737,1.44737c0,0.79936 -0.64801,1.44737 -1.44737,1.44737c-0.79936,0 -1.44737,-0.64801 -1.44737,-1.44737z" fill="#efcc6c" stroke="none" stroke-width="0"/><path d="M224.31084,169.33071c0,-0.79936 0.64801,-1.44737 1.44737,-1.44737c0.79936,0 1.44737,0.64801 1.44737,1.44737c0,0.79936 -0.64801,1.44737 -1.44737,1.44737c-0.79936,0 -1.44737,-0.64801 -1.44737,-1.44737z" fill="#efcc6c" stroke="none" stroke-width="0"/><path d="M227.99505,170.96229c0,-0.79936 0.64801,-1.44737 1.44737,-1.44737c0.79936,0 1.44737,0.64801 1.44737,1.44737c0,0.79936 -0.64801,1.44737 -1.44737,1.44737c-0.79936,0 -1.44737,-0.64801 -1.44737,-1.44737z" fill="#efcc6c" stroke="none" stroke-width="0"/><path d="M231.46874,169.4886c0,-0.79936 0.64801,-1.44737 1.44737,-1.44737c0.79936,0 1.44737,0.64801 1.44737,1.44737c0,0.79936 -0.64801,1.44737 -1.44737,1.44737c-0.79936,0 -1.44737,-0.64801 -1.44737,-1.44737z" fill="#efcc6c" stroke="none" stroke-width="0"/><path d="M257.91611,172.19621c-0.79936,0 -1.44737,-0.64801 -1.44737,-1.44737c0,-0.79936 0.64801,-1.44737 1.44737,-1.44737c0.79936,0 1.44737,0.64801 1.44737,1.44737c0,0.79936 -0.64801,1.44737 -1.44737,1.44737z" data-paper-data="{&quot;index&quot;:null}" fill="#efcc6c" stroke="none" stroke-width="0"/><path d="M254.44243,170.72252c-0.79936,0 -1.44737,-0.64801 -1.44737,-1.44737c0,-0.79936 0.64801,-1.44737 1.44737,-1.44737c0.79936,0 1.44737,0.64801 1.44737,1.44737c0,0.79936 -0.64801,1.44737 -1.44737,1.44737z" data-paper-data="{&quot;index&quot;:null}" fill="#efcc6c" stroke="none" stroke-width="0"/><path d="M250.75822,172.3541c-0.79936,0 -1.44737,-0.64801 -1.44737,-1.44737c0,-0.79936 0.64801,-1.44737 1.44737,-1.44737c0.79936,0 1.44737,0.64801 1.44737,1.44737c0,0.79936 -0.64801,1.44737 -1.44737,1.44737z" data-paper-data="{&quot;index&quot;:null}" fill="#efcc6c" stroke="none" stroke-width="0"/><path d="M247.28453,170.88042c-0.79936,0 -1.44737,-0.64801 -1.44737,-1.44737c0,-0.79936 0.64801,-1.44737 1.44737,-1.44737c0.79936,0 1.44737,0.64801 1.44737,1.44737c0,0.79936 -0.64801,1.44737 -1.44737,1.44737z" data-paper-data="{&quot;index&quot;:null}" fill="#efcc6c" stroke="none" stroke-width="0"/><path d="M240.03453,166.82486c-1.27494,0 -2.30848,-1.03354 -2.30848,-2.30848c0,-1.27494 1.03354,-2.30848 2.30848,-2.30848c1.27494,0 2.30848,1.03354 2.30848,2.30848c0,1.27494 -1.03354,2.30848 -2.30848,2.30848z" data-paper-data="{&quot;index&quot;:null}" fill="#efcc6c" stroke="none" stroke-width="0"/><path d="M240.03453,188.93598c-1.27494,0 -2.30848,-1.03354 -2.30848,-2.30848c0,-1.27494 1.03354,-2.30849 2.30848,-2.30849c1.27494,0 2.30848,1.03355 2.30848,2.30849c0,1.27494 -1.03354,2.30848 -2.30848,2.30848z" data-paper-data="{&quot;index&quot;:null}" fill="#efcc6c" stroke="none" stroke-width="0"/><path d="M225.29267,194.73399c-0.67082,-0.33541 -0.33541,-1.00623 -0.33541,-1.00623l0.3236,-0.59713c0.25399,-0.28459 0.89732,-0.53543 0.73231,-0.87933c-0.19289,-0.402 -0.67552,-0.58792 -0.96126,-0.93021c0,0 -0.48014,-0.57617 0.09603,-1.0563c0.57617,-0.48014 1.0563,0.09603 1.0563,0.09603c1.25962,1.51439 1.60753,2.07315 0.2155,3.74601l-0.12084,0.29176c0,0 -0.33541,0.67082 -1.00623,0.33541z" fill="#656055" stroke="none" stroke-width="0.5"/><path d="M231.63363,197.01872c0.6,0.45 0.15,1.05 0.15,1.05l-0.24397,0.28988c-0.11111,0.25926 -0.22222,0.51852 -0.33333,0.77778c0,0 -0.29544,0.68936 -0.9848,0.39392c-0.68936,-0.29544 -0.39392,-0.9848 -0.39392,-0.9848c0.11111,-0.25926 0.22222,-0.51852 0.33333,-0.77778l0.42269,-0.599c0,0 0.45,-0.6 1.05,-0.15z" fill="#656055" stroke="none" stroke-width="0.5"/><path d="M241.63015,192.40065c-0.67082,0.33541 -1.00623,-0.33541 -1.00623,-0.33541l-0.18275,-0.45157c-0.03704,-0.25926 -0.07407,-0.51852 -0.11111,-0.77778c0,0 -0.10607,-0.74246 0.6364,-0.84853c0.74246,-0.10607 0.84853,0.6364 0.84853,0.6364c0.03704,0.25926 0.07407,0.51852 0.11111,0.77778l0.03947,-0.00712c0,0 0.33541,0.67082 -0.33541,1.00623z" fill="#656055" stroke="none" stroke-width="0.5"/><path d="M250.26952,197.75506c0.45502,0.45502 0.12923,0.91004 0.02753,1.0301c-0.05668,0.19839 -0.11336,0.39678 -0.17005,0.59516c0,0 -0.20604,0.72114 -0.92718,0.5151c-0.72114,-0.20604 -0.5151,-0.92718 -0.5151,-0.92718c0.07407,-0.25926 0.14815,-0.51852 0.22222,-0.77778l0.30192,-0.4354c0,0 0.53033,-0.53033 1.06066,0z" fill="#656055" stroke="none" stroke-width="0.5"/><path d="M255.43427,192.57609c-0.62404,-0.41603 -0.20801,-1.04006 -0.20801,-1.04006l0.12512,-0.12335c0.07407,-0.25926 0.14815,-0.51852 0.22222,-0.77778c0,0 0.20604,-0.72114 0.92718,-0.5151c0.72114,0.20604 0.5151,0.92718 0.5151,0.92718c-0.07407,0.25926 -0.14815,0.51852 -0.22222,0.77778l-0.31933,0.54332c0,0 -0.41603,0.62404 -1.04006,0.20801z" fill="#656055" stroke="none" stroke-width="0.5"/><path d="M220.76425,199.23586v-9.09671h38.47171v9.09671z" fill="none" stroke="#5d594e" stroke-width="1.5"/><path d="M236.8503,195.03539c-0.17927,0 -0.31568,-0.04285 -0.4195,-0.10806c-0.42035,0.2247 -0.74499,1.23755 -1.16129,1.66617c0,0 -0.3061,0.3061 -0.68574,0.22064c-0.55469,0.29717 -1.2629,0.3832 -1.93598,0.19339c-1.29198,-0.36434 -1.54918,-1.4836 -2.57735,-2.05132c-1.16634,-0.64402 -3.63471,0.27191 -3.94345,1.53522c0,0 -0.20604,0.72114 -0.92718,0.5151c-0.72114,-0.20604 -0.5151,-0.92718 -0.5151,-0.92718c0.66513,-2.13246 3.91657,-3.4861 6.05655,-2.46478c0.71545,0.34145 1.11165,1.2727 1.75173,1.71644c0.36373,0.25216 2.06422,0.6135 1.55329,-0.42527c-0.37781,-0.7681 -1.16129,-0.9321 -1.59733,-1.91399c0.20579,-2.08967 1.45866,-2.15285 3.27406,-1.64972l0.54396,0.83225c0,0 0,0.75 -0.75,0.75c-0.28552,0 -0.46234,-0.10869 -0.57185,-0.24332c-0.49837,-0.13257 -1.26657,-0.3001 -1.0268,0.00919c0.27974,0.71666 0.96178,0.75308 1.36294,1.35177c0.30101,-0.40152 0.69992,-0.65381 1.67511,-0.6101l0.64393,0.85357c0,0 0,0.75 -0.75,0.75z" fill="#efcc6c" stroke="none" stroke-width="0.5"/><path d="M242.18605,194.69645l0.64393,-0.85358c0.97519,-0.0437 1.3741,0.20858 1.67511,0.61011c0.40116,-0.59869 1.0832,-0.63512 1.36294,-1.35178c0.23978,-0.30929 -0.52842,-0.14176 -1.0268,-0.00919c-0.10951,0.13463 -0.28633,0.24332 -0.57185,0.24332c-0.75,0 -0.75,-0.75 -0.75,-0.75l0.54396,-0.83226c1.8154,-0.50313 3.06827,-0.43995 3.27406,1.64972c-0.43604,0.98189 -1.21953,1.14588 -1.59733,1.91399c-0.51093,1.03877 1.18956,0.67742 1.55328,0.42527c0.64007,-0.44374 1.03628,-1.37498 1.75173,-1.71644c2.13998,-1.02132 5.39142,0.33232 6.05656,2.46478c0,0 0.20604,0.72115 -0.51511,0.92719c-0.72115,0.20604 -0.92718,-0.51511 -0.92718,-0.51511c-0.30874,-1.26331 -2.77711,-2.17924 -3.94345,-1.53522c-1.02818,0.56772 -1.28537,1.68698 -2.57735,2.05132c-0.67308,0.18981 -1.38129,0.10378 -1.93598,-0.19339c-0.37965,0.08545 -0.68574,-0.22064 -0.68574,-0.22064c-0.41629,-0.42863 -0.74094,-1.44146 -1.16128,-1.66617c-0.10381,0.06521 -0.24023,0.10806 -0.4195,0.10806c-0.75,0 -0.75,-0.75 -0.75,-0.75z" data-paper-data="{&quot;index&quot;:null}" fill="#efcc6c" stroke="none" stroke-width="0.5"/></g></g></svg>