<svg version="1.1" xmlns="http://www.w3.org/2000/svg" xmlns:xlink="http://www.w3.org/1999/xlink" width="29.75569" height="48.83067" viewBox="0,0,29.75569,48.83067"><g transform="translate(-224.96811,-140.18271)"><g data-paper-data="{&quot;isPaintingLayer&quot;:true}" fill-rule="nonzero" stroke="none" stroke-width="0.5" stroke-linecap="butt" stroke-linejoin="miter" stroke-miterlimit="10" stroke-dasharray="" stroke-dashoffset="0" style="mix-blend-mode: normal"><path d="M247.40968,165.86267l0.22202,0.55164c0.3528,0.82264 0.66968,1.66413 0.9845,2.50195c0.54409,1.90693 2.14652,7.91312 0.17985,9.41818c-0.92284,0.70624 -1.50784,-0.90288 -1.9009,-2.57191c-0.06901,-0.95998 -0.12228,-1.89932 -0.12257,-2.84991l-0.02554,-0.04346l0.02133,-0.00271l-0.10724,-0.87454c-0.04137,-0.37508 -0.3556,-0.66189 -0.74171,-0.66189c-0.41421,0 -0.67366,0.2712 -0.67366,0.68542c0,0.02059 0.00106,0.04126 0.00269,0.06144l0.11198,1.49699l0.00139,-0.0001c-0.00029,0.00233 -0.00056,0.00471 -0.00084,0.00704c-0.07794,0.63347 -0.02489,1.6736 0.172,2.71912c0.14281,1.90808 0.27905,3.85802 0.04422,5.73666c-0.00157,0.89127 0.18162,4.86613 -0.49501,5.34647c-0.23731,0.16847 -2.49879,-0.03586 -2.88821,-0.0365c-0.19633,-0.00032 -1.76033,0.07484 -2.1232,-0.17067c0.0849,-0.30518 0.14132,-0.73516 0.17887,-1.07934c0.06453,-0.13211 0.11462,-0.26318 0.12112,-0.38576c0.08369,-1.57785 0.12408,-2.84438 -0.21909,-4.21868c0,-0.00108 -0.00249,-0.10212 -0.00249,-0.1032l0.00068,-0.00552l0.2162,-0.02416l-0.10379,-0.89121c-0.03709,-0.37956 -0.36753,-0.67666 -0.75683,-0.67666c-0.38611,0 -0.71144,0.29006 -0.75281,0.66515l-0.08158,0.78312l0.01936,0.00239l-0.02378,0.04401c-0.00106,0.7657 0.44803,5.89013 -0.33717,6.11797c-0.6911,0.20053 -2.04586,-0.09545 -2.74506,-0.16588c-0.35774,-0.0503 -0.83859,0.18103 -1.08457,-0.08354c-0.13104,-0.14095 -0.02285,-2.34947 -0.04486,-2.67461c-0.18125,-2.67748 -0.26968,-5.56445 0.0847,-8.22292c0.09231,-0.69248 0.36997,-1.57377 0.34453,-2.29802c0.06557,-0.3591 0.14457,-0.72438 0.22243,-1.08091l-0.03361,-0.08215l0.03843,-0.00015l0.00303,-0.78154c0,-0.41421 -0.26131,-0.68326 -0.67553,-0.68326c-0.36345,0 -0.66274,0.2538 -0.73157,0.597l-0.21574,0.98024l0.16878,0.03782c-0.03196,0.14554 -0.0614,0.2887 -0.09082,0.43482c-0.34032,1.05147 -0.51024,2.14728 -0.59131,3.29233c-0.34278,0.95709 -1.08575,1.67782 -2.32424,0.9771c-0.49801,-0.28177 -0.32909,-2.44183 -0.32935,-2.83298c-0.00181,-2.7106 0.8707,-5.3561 2.16413,-7.72117c0.27003,-0.05499 0.45267,-0.26739 0.45267,-0.26739c2.11199,-2.50239 7.13949,-1.1705 10.0579,-1.30226c1.38768,-0.06265 2.95391,-0.30772 4.24632,0.28018z" data-paper-data="{&quot;noHover&quot;:false,&quot;origItem&quot;:[&quot;Path&quot;,{&quot;applyMatrix&quot;:true,&quot;segments&quot;:[[[496.43499,290.36259],[0,0],[-2.5848,-1.17581]],[[487.97232,289.8161],[2.77535,-0.1253],[-5.83683,0.26353]],[[467.94253,292.40451],[4.22399,-5.00478],[0,0]],[[467.04065,292.93661],[0.54007,-0.10999],[-2.58686,4.73015]],[[462.74809,308.31721],[-0.00361,-5.42119],[0.00052,0.7823]],[[463.40716,313.95383],[-0.99603,-0.56354],[2.47697,1.40145]],[[467.85663,312.01728],[-0.68556,1.91418],[0.16213,-2.29009]],[[469.04847,305.38632],[-0.68063,2.10294],[0.05884,-0.29223]],[[469.23279,304.51134],[-0.06392,0.29109],[0,0]],[468.89492,304.43626],[[469.33295,302.4651],[0,0],[0.13765,-0.68639]],[[470.80364,301.26165],[-0.7269,0],[0.82843,0]],[[472.30364,302.76165],[0,-0.82843],[0,0]],[472.30364,304.31721],[472.22701,304.31721],[[472.29469,304.48088],[0,0],[-0.15574,0.71307]],[[471.85883,306.6273],[0.13113,-0.71819],[0.05089,1.4485]],[[471.17926,311.18297],[0.18462,-1.38496],[-0.70876,5.31694]],[[470.96654,327.54421],[-0.3625,-5.35496],[0.04402,0.65029]],[[471.04523,332.88685],[-0.26208,-0.2819],[0.49196,0.52915]],[[473.2066,333.05036],[-0.71548,-0.10061],[1.3984,0.14085]],[[478.67406,333.37583],[-1.38221,0.40107],[1.57041,-0.45568]],[[479.30654,321.33511],[-0.00212,1.5314],[0,0]],[479.35432,321.24715],[479.31523,321.24227],[[479.53498,319.48423],[0,0],[0.08274,-0.75016]],[[481.02587,318.15054],[-0.77221,0],[0.7786,0]],[[482.51869,319.50288],[-0.07417,-0.75912],[0,0]],[482.73891,321.48489],[482.30218,321.53342],[[482.3008,321.54447],[0,0],[0.00001,0.00215]],[[482.30082,321.55093],[-0.00001,-0.00215],[0.68633,2.74861]],[[482.74519,330.18819],[0.16737,-3.1557],[-0.013,0.24515]],[[482.50156,330.95975],[0.12905,-0.26423],[-0.0751,0.68836]],[[482.14107,332.91845],[0.1698,-0.61036],[0.72575,0.49101]],[[486.3685,333.26168],[-0.39266,-0.00064],[0.77885,0.00126]],[[492.12257,333.34191],[-0.47462,0.33694],[1.35326,-0.96069]],[[493.08432,322.66845],[-0.00313,1.78255],[0.46966,-3.75727]],[[492.96593,311.26793],[0.28561,3.81615],[-0.39377,-2.09104]],[[492.63336,305.8747],[-0.15588,1.26694],[0.00057,-0.00467]],[[492.63509,305.8607],[-0.00058,0.00467],[0,0]],[492.63231,305.8609],[[492.41967,302.88397],[0,0],[-0.00326,-0.04034]],[[492.41476,302.76165],[0,0.04118],[0,-0.82843]],[[493.91476,301.26165],[-0.82843,0],[0.77221,0]],[[495.40564,302.59534],[-0.08274,-0.75016],[0,0]],[495.62539,304.35338],[495.58269,304.35872],[[495.63408,304.44622],[0,0],[0.00057,1.90117]],[[495.88986,310.1828],[-0.13802,-1.91996],[0.78614,3.33805]],[[499.49447,315.31377],[-1.84568,1.41247],[3.93334,-3.01012]],[[499.15688,296.56475],[1.08818,3.81386],[-0.62963,-1.67564]],[[497.2027,291.57475],[0.70559,1.64528],[0,0]],[496.76188,290.47383]],&quot;closed&quot;:true}]}" fill="#0060b9"/><path d="M244.95739,185.24194c-1.52141,0 -3.03849,-0.03814 -4.55538,-0.08281c-0.00854,0.19733 -0.01859,0.39772 -0.0294,0.60164c-0.0065,0.12257 -0.05729,0.25366 -0.12182,0.38578c-0.03755,0.34418 -0.09534,0.67417 -0.18024,0.97935c0.36288,0.24551 1.91738,0.1713 2.11372,0.17161c0.38942,0.00063 2.63973,0.20858 2.87704,0.04011c0.3077,-0.21844 0.43466,-1.15751 0.48179,-2.20044zM244.95739,183.74194l0.40847,-0.09655c0,0 0.08409,-0.01682 0.20108,-0.01065c-0.00447,-0.72067 -0.02528,-1.34203 -0.02477,-1.63385c0.23483,-1.87863 0.08361,-3.79218 -0.0592,-5.70026c-0.19689,-1.04552 -0.24423,-2.06314 -0.16629,-2.69661c0.00029,-0.00233 0.00058,-0.00467 0.00087,-0.007l-0.00139,0.0001l-0.10632,-1.48847c-0.00163,-0.02017 -0.00246,-0.04057 -0.00246,-0.06116c0,-0.41421 0.33579,-0.75 0.75,-0.75c0.38611,0 0.70407,0.29176 0.74544,0.66685l0.10988,0.87902l-0.02135,0.00267l0.02569,0.04375c0.00029,0.95059 0.05888,1.90831 0.12789,2.86829c0.39307,1.66903 0.87946,3.27172 1.8023,2.56548c1.96667,-1.50506 0.3753,-7.46758 -0.16879,-9.37451c-0.31481,-0.83782 -0.62429,-1.67236 -0.97709,-2.495l-0.22041,-0.55046l-0.16344,-0.05562c-1.2924,-0.5879 -2.84366,-0.3359 -4.23133,-0.27324c-2.91841,0.13176 -7.9029,-1.20819 -10.0149,1.2942c0,0 -0.18091,0.21106 -0.45094,0.26605c-1.29343,2.36508 -2.14808,4.9797 -2.14628,7.6903c0.00026,0.39115 -0.16848,2.53654 0.32953,2.81831c1.23849,0.70073 1.88196,-0.01119 2.22474,-0.96828c0.08107,-1.14505 0.2556,-2.26401 0.59592,-3.31548c0.02942,-0.14611 0.0602,-0.29195 0.09216,-0.43749l-0.16893,-0.03754l0.21902,-0.98558c0.06882,-0.34319 0.37189,-0.60172 0.73534,-0.60172c0.41421,0 0.75,0.33579 0.75,0.75v0.77778h-0.03832l0.03384,0.08184c-0.07787,0.35653 -0.15236,0.71411 -0.21793,1.07321c0.02544,0.72425 -0.24748,1.58536 -0.33978,2.27784c-0.31415,2.35665 -0.29734,4.85962 -0.16322,7.26273c1.44918,0.00713 2.89374,0.04583 4.33712,0.08891c-0.04066,-1.04642 -0.11067,-1.97952 -0.11026,-2.27557l0.02389,-0.04398l-0.01954,-0.00244l0.10988,-0.87902c0.04137,-0.37508 0.35933,-0.66685 0.74544,-0.66685c0.3893,0 0.70933,0.29661 0.74641,0.67617l0.11011,0.99101l-0.21837,0.02426l-0.00069,0.00552c0,0.00108 0.00001,0.00215 0.00001,0.00323c0.1824,0.73046 0.25731,1.45872 0.27491,2.21767c1.50923,0.04438 3.0186,0.08213 4.53206,0.08213zM234.52263,187.11009c0.24598,0.26458 0.72295,0.03145 1.08068,0.08175c0.6992,0.07043 2.04263,0.36327 2.73373,0.16274c0.33846,-0.09821 0.44369,-1.08806 0.45397,-2.24396c-1.43496,-0.04289 -2.87105,-0.08162 -4.31177,-0.08946c-0.01706,0.76785 -0.05288,1.98539 0.04339,2.08893zM242.92861,164.07582c1.68339,-0.07704 3.29918,-0.25542 4.87978,0.39342l0.27506,0.08896c0,0 0.39623,0.13208 0.49876,0.49479c0.12602,0.12994 0.18265,0.27151 0.18265,0.27151l0.21522,0.53866c0.36945,0.86261 0.69399,1.73733 1.02291,2.61611c0.76685,2.68075 2.35323,9.02852 -0.39102,11.06993c-1.00602,0.74837 -1.81417,0.72567 -2.44725,0.2669c0.0026,0.7631 -0.03111,1.52326 -0.12545,2.27799c0.00294,1.48101 0.23738,5.40283 -1.07468,6.44105c-1.03347,0.81777 -4.82283,0.4807 -6.50223,-0.21671c-0.15559,0.17206 -0.33798,0.31484 -0.5513,0.42196c-0.74974,0.37652 -2.68004,0.02083 -3.48849,-0.05948c-0.53305,-0.07716 -1.67093,-0.17692 -2.03043,-0.58491c-0.646,-0.73316 -0.406,-3.53651 -0.40698,-4.49296c-0.00153,-1.47984 -0.10207,-3.06778 -0.11617,-4.65762c-0.75941,0.55717 -1.75008,0.68037 -2.99114,-0.04959c-0.76411,-0.44943 -0.99806,-2.19498 -1.0038,-2.95946c-0.0263,-3.50166 0.72475,-6.61808 2.42772,-9.69757c0,0 0.20243,-0.36438 0.57712,-0.39893c2.63736,-2.95695 7.48515,-1.60092 11.04972,-1.76406z" fill="#00488c"/><path d="M229.03386,148.19211c1.30231,-1.62091 3.71699,-2.46235 5.56719,-3.16019c5.32665,-2.00905 11.34637,-1.37394 14.93657,3.37407c6.42416,8.36862 -1.40083,20.69674 -11.5271,19.29819c-4.46922,-0.56937 -10.58383,-5.87394 -11.25969,-10.42888c-0.46756,-3.15116 0.56873,-5.55948 1.99626,-8.21828l0.12406,-0.15416c0,0 0.24807,-0.33703 0.16272,-0.71075z" data-paper-data="{&quot;noHover&quot;:false,&quot;origItem&quot;:[&quot;Path&quot;,{&quot;applyMatrix&quot;:true,&quot;segments&quot;:[[461.79205,256.51809],[[461.57425,256.7885],[0,0],[-2.51619,4.68647]],[[458.07109,271.20873],[-0.82414,-5.55431],[1.19129,8.02865]],[[477.82886,289.50257],[-7.87755,-1.00359],[17.84882,2.46512]],[[498.05541,255.64538],[11.32339,14.75074],[-6.32818,-8.36895]],[[471.84818,249.73122],[9.38889,-3.5412],[-3.26121,1.23003]],[[462.07578,255.26964],[2.29549,-2.85706],[0.15045,0.65872]]],&quot;closed&quot;:true}]}" fill="#e6d0a9"/><path d="M245.58928,185.11805c-0.04713,1.04294 -0.1751,2.02253 -0.48279,2.24097c-0.23731,0.16847 -2.55872,-0.01812 -2.94814,-0.01875c-0.19633,-0.00032 -1.77265,0.04605 -2.13552,-0.19945c0.0849,-0.30518 0.14047,-0.65251 0.17802,-0.99669c0.06453,-0.13211 0.11632,-0.27103 0.12282,-0.3936c0.01082,-0.20392 0.02441,-0.41504 0.03295,-0.61237c1.51689,0.04468 3.12447,0.08222 4.64588,0.08222z" data-paper-data="{&quot;noHover&quot;:false,&quot;origItem&quot;:[&quot;Path&quot;,{&quot;applyMatrix&quot;:true,&quot;segments&quot;:[[[244.95738,185.24194],[0,0],[-1.52141,0]],[[240.402,185.15912],[1.51689,0.04468],[-0.00854,0.19733]],[[240.3726,185.76076],[0.01082,-0.20392],[-0.0065,0.12257]],[[240.25078,186.14654],[0.06453,-0.13211],[-0.03755,0.34418]],[[240.07053,187.12589],[0.0849,-0.30518],[0.36288,0.24551]],[[242.18425,187.29751],[-0.19633,-0.00032],[0.38942,0.00063]],[[245.06129,187.33762],[-0.23731,0.16847],[0.3077,-0.21844]],[[245.54308,185.13718],[-0.04713,1.04294],[0,0]]],&quot;closed&quot;:true}]}" fill="#00529f"/><path d="M234.43561,184.99673c1.44072,0.00784 2.96493,0.04817 4.39988,0.09106c-0.01027,1.1559 -0.11829,2.19616 -0.45674,2.29437c-0.6911,0.20053 -2.11251,-0.08547 -2.8117,-0.15589c-0.35774,-0.0503 -0.8445,0.16785 -1.09048,-0.09672c-0.09627,-0.10354 -0.05802,-1.36496 -0.04095,-2.13281z" data-paper-data="{&quot;noHover&quot;:false,&quot;origItem&quot;:[&quot;Path&quot;,{&quot;applyMatrix&quot;:true,&quot;segments&quot;:[[[234.52262,187.11009],[-0.09627,-0.10354],[0.24598,0.26458]],[[235.6033,187.19185],[-0.35774,-0.0503],[0.6992,0.07043]],[[238.33703,187.35458],[-0.6911,0.20053],[0.33846,-0.09821]],[[238.791,185.11062],[-0.01027,1.1559],[-1.43496,-0.04289]],[[234.47923,185.02116],[1.44072,0.00784],[-0.01706,0.76785]]],&quot;closed&quot;:true}]}" fill="#00529f"/><path d="M254.49755,146.00887c0.37195,0.65127 -0.27933,1.02322 -0.27933,1.02322l-0.11596,0.06622c-0.88569,0.50534 -1.79273,0.97498 -2.7166,1.40658c0,0 -0.67964,0.31716 -0.9968,-0.36247c-0.31716,-0.67964 0.36247,-0.9968 0.36247,-0.9968c0.88696,-0.41345 1.75748,-0.86418 2.60704,-1.34986l0.11596,-0.06622c0,0 0.65127,-0.37195 1.02322,0.27933z" fill="#8c5900"/><path d="M244.29072,140.5197c0.75,0 0.75,0.75 0.75,0.75l-0.02643,0.64178c-0.11111,0.40741 -0.22222,0.81481 -0.33333,1.22222c0,0 -0.19734,0.72357 -0.92091,0.52623c-0.72357,-0.19734 -0.52623,-0.92091 -0.52623,-0.92091c0.11111,-0.40741 0.22222,-0.81481 0.33333,-1.22222l-0.02643,-0.24711c0,0 0,-0.75 0.75,-0.75z" fill="#8c5900"/><path d="M233.8715,141.18383c0.53033,-0.53033 1.06066,0 1.06066,0l0.41743,0.43357c0.25926,0.37037 0.51852,0.74074 0.77778,1.11111c0,0 0.4301,0.61442 -0.18433,1.04452c-0.61442,0.4301 -1.04452,-0.18433 -1.04452,-0.18433c-0.25926,-0.37037 -0.51852,-0.74074 -0.77778,-1.11111l-0.24924,-0.2331c0,0 -0.53033,-0.53033 0,-1.06066z" fill="#8c5900"/><path d="M225.77779,146.07591c0.41603,-0.62404 1.04006,-0.20801 1.04006,-0.20801l0.37776,0.25425c0.33333,0.25926 0.66667,0.51852 1,0.77778c0,0 0.59201,0.46046 0.13156,1.05247c-0.46046,0.59201 -1.05247,0.13156 -1.05247,0.13156c-0.33333,-0.25926 -0.66667,-0.51852 -1,-0.77778l-0.2889,-0.1902c0,0 -0.62404,-0.41603 -0.20801,-1.04006z" fill="#8c5900"/><path d="M228.91824,148.93449l-0.12357,0.15341c-1.42752,2.6588 -2.45503,5.02995 -1.98747,8.18111c0.67586,4.55494 6.74007,9.80938 11.20929,10.37875c10.12628,1.39855 17.89941,-10.83977 11.47525,-19.2084c-3.5902,-4.74801 -9.54165,-5.36436 -14.8683,-3.35531c-1.8502,0.69784 -4.24192,1.52123 -5.54423,3.14214c0.08536,0.37372 -0.16097,0.70829 -0.16097,0.70829zM226.97469,148.40723c1.35394,-2.70216 4.35479,-3.89944 7.048,-4.91564c6.05692,-2.28541 12.73216,-1.40953 16.82251,3.9158c7.27258,9.5944 -1.42149,23.49509 -13.05869,21.92677c-5.24769,-0.75258 -11.83515,-6.46649 -12.66285,-11.81508c-0.4949,-3.19808 0.40679,-5.80703 1.7849,-8.50002c-0.07753,-0.31392 0.06612,-0.61183 0.06612,-0.61183z" data-paper-data="{&quot;index&quot;:null}" fill="#8d7f67"/><path d="M234.94858,161.8644c-0.05467,-0.32819 -0.09999,-0.6521 -0.13732,-0.974c-0.61991,-0.00989 -1.23969,-0.016 -1.85922,-0.01682c-0.00022,0.04725 -0.00045,0.09449 -0.00071,0.14174c-0.00187,0.33801 -0.40187,0.94877 -0.06975,1.01164c0.65393,0.12378 1.34507,0.19083 2.05924,0.21905zM236.62743,161.58459l0.00907,0.66541c0.59909,-0.01714 1.20604,-0.05058 1.81336,-0.09086l-0.10595,-0.64811c0,-0.17971 -0.00272,-0.35746 -0.0084,-0.53363c-0.60177,-0.01837 -1.20357,-0.03582 -1.80534,-0.051c0.02809,0.21766 0.06033,0.43677 0.09725,0.6582zM240.04013,161.37064l0.11331,0.66488c0.95273,-0.07099 1.88879,-0.13694 2.77843,-0.16027c-0.05217,-0.16028 -0.05217,-0.29259 -0.05217,-0.29259c0,-0.15142 0,-0.30882 0,-0.47079c-0.94716,-0.02263 -1.89501,-0.05148 -2.84318,-0.08125c0.00241,0.11257 0.0036,0.22587 0.0036,0.34002zM244.58171,157.32763c0,0.70501 0,1.41002 0,2.11502c0.48128,0.00673 0.96231,0.01102 1.44305,0.01218c-0.07853,-0.34968 -0.13605,-0.7079 -0.1649,-1.08148c-0.02866,-0.37113 0.52351,-1.03799 0.15745,-1.10556c-0.39806,-0.07347 -0.89766,-0.06983 -1.44214,-0.02647c0.00654,0.05318 0.00654,0.08631 0.00654,0.08631zM244.58171,161.15715v0.4255c0,0 -0.00001,0.07961 -0.02435,0.19012c0.76902,-0.1162 1.5717,-0.27148 2.2216,-0.02948c-0.08753,-0.22546 -0.17341,-0.44808 -0.25548,-0.66976l-0.23977,0.08363c-0.56696,0 -1.13433,-0.00454 -1.70201,-0.01248c0,0.00416 0,0.00832 0,0.01248zM232.95136,157.89376c0.00019,0.42592 0.00119,0.85187 0.00189,1.27782c0.57554,0.00077 1.15131,0.00609 1.72721,0.01478c-0.01781,-0.42977 -0.0257,-0.86313 -0.02695,-1.30547c-0.56817,0.00663 -1.13573,0.01092 -1.70216,0.01287zM238.17424,159.27048c-0.07895,-0.48342 -0.1881,-0.96426 -0.33288,-1.4513c-0.49516,0.01341 -0.99057,0.02503 -1.48591,0.03487c0.00104,0.46465 0.00941,0.91759 0.0298,1.36672c0.5963,0.01467 1.19266,0.03167 1.789,0.0497zM242.8797,159.40986c0,-0.68206 0,-1.36232 0,-1.959c-0.82031,0.12123 -1.61792,0.24787 -2.23067,0.27295c-0.35312,0.01445 -0.7067,0.02798 -1.06062,0.0406c0.13437,0.52338 0.23776,1.03939 0.3115,1.5599c0.99375,0.03128 1.98716,0.06184 2.97978,0.08555zM231.3175,157.41503c-0.04248,-0.10096 -0.06818,-0.22316 -0.06818,-0.37107c0,-0.851 0.851,-0.851 0.851,-0.851h0.14183c3.89166,0 7.83617,-0.10555 11.72983,-0.28261c0.69369,-0.03154 2.53378,-0.40154 3.14547,0.05878c1.17558,0.88467 1.06152,6.18688 0.65669,7.15489c-4.18027,0.51578 -8.22706,0.56786 -12.43664,0.44393c-0.39989,-0.01177 -3.1076,0.06381 -3.45111,-0.16027c-1.2515,-0.81638 -0.63708,-4.41808 -0.63708,-5.65456c0,0 -0.00001,-0.15815 0.06818,-0.3381z" fill="#000000"/><path d="M244.54207,157.19526c0.54448,-0.04336 1.10701,-0.04918 1.50507,0.02429c0.36606,0.06756 -0.1594,0.78729 -0.13074,1.15842c0.02885,0.37358 0.05877,0.77599 0.1373,1.12567c-0.48074,-0.00115 -1.02326,-0.00777 -1.50454,-0.0145c0,-0.70501 -0.00217,-1.50136 -0.00217,-2.20637c0,0 0.00161,-0.03433 -0.00492,-0.08751z" data-paper-data="{&quot;noHover&quot;:false,&quot;origItem&quot;:[&quot;Path&quot;,{&quot;applyMatrix&quot;:true,&quot;segments&quot;:[[[244.5817,157.32764],[0,0],[0,0.70501]],[[244.5817,159.44267],[0,-0.70501],[0.48128,0.00673]],[[246.02475,159.45484],[-0.48074,-0.00115],[-0.07853,-0.34968]],[[245.85985,158.37336],[0.02885,0.37358],[-0.02866,-0.37113]],[[246.01731,157.26781],[0.36606,0.06756],[-0.39806,-0.07347]],[[244.57517,157.24133],[0.54448,-0.04336],[0.00654,0.05318]]],&quot;closed&quot;:true}]}" fill="#ffb900"/><path d="M244.52675,161.13059c0.56768,0.00794 1.24208,0.00406 1.80904,0.00406l0.2402,-0.08259c0.08207,0.22168 0.16994,0.48148 0.25748,0.70694c-0.64991,-0.242 -1.56121,-0.0854 -2.33023,0.03081c0.02434,-0.11051 0.02233,-0.19891 0.02233,-0.19891l0.00103,-0.44723c0,-0.00416 0.00015,-0.00891 0.00015,-0.01308z" data-paper-data="{&quot;noHover&quot;:false,&quot;origItem&quot;:[&quot;Path&quot;,{&quot;applyMatrix&quot;:true,&quot;segments&quot;:[[[244.5817,161.15716],[0,-0.00416],[0,0]],[244.5817,161.58266],[[244.55735,161.77278],[0.02434,-0.11051],[0.76902,-0.1162]],[[246.77895,161.7433],[-0.64991,-0.242],[-0.08753,-0.22546]],[[246.52348,161.07353],[0.08207,0.22168],[0,0]],[[246.28371,161.15716],[0,0],[-0.56696,0]],[[244.5817,161.14468],[0.56768,0.00794],[0,0.00416]]],&quot;closed&quot;:true}]}" fill="#ffb900"/><path d="M239.98293,161.01202c0.94817,0.02977 2.00393,0.06083 2.95109,0.08346c0,0.16197 0.00238,0.33778 0.00238,0.4892c0,0 -0.00149,0.14334 0.05068,0.30362c-0.88964,0.02333 -1.93399,0.09627 -2.88672,0.16726l-0.11662,-0.69126c0,-0.11415 0.00158,-0.23971 -0.00082,-0.35228z" data-paper-data="{&quot;noHover&quot;:false,&quot;origItem&quot;:[&quot;Path&quot;,{&quot;applyMatrix&quot;:true,&quot;segments&quot;:[[[240.04012,161.37064],[0,-0.11415],[0,0]],[[240.15343,162.03551],[0,0],[0.95273,-0.07099]],[[242.93186,161.87525],[-0.88964,0.02333],[-0.05217,-0.16028]],[[242.87969,161.58266],[0,0],[0,-0.15142]],[[242.87969,161.11187],[0,0.16197],[-0.94716,-0.02263]],[[240.03651,161.03062],[0.94817,0.02977],[0.00241,0.11257]]],&quot;closed&quot;:true}]}" fill="#ffb900"/><path d="M239.85279,159.35589c-0.07374,-0.52051 -0.18259,-1.08938 -0.31696,-1.61276c0.35392,-0.01262 0.7239,-0.04856 1.07703,-0.06301c0.61275,-0.02508 1.49529,-0.13704 2.3156,-0.25827c0,0.59668 0,1.33497 0,2.01703c-0.99263,-0.02371 -2.08192,-0.05171 -3.07567,-0.08299z" data-paper-data="{&quot;noHover&quot;:false,&quot;origItem&quot;:[&quot;Path&quot;,{&quot;applyMatrix&quot;:true,&quot;segments&quot;:[[[242.87969,159.40986],[-0.99263,-0.02371],[0,-0.68206]],[[242.87969,157.45086],[0,0.59668],[-0.82031,0.12123]],[[240.64903,157.72381],[0.61275,-0.02508],[-0.35312,0.01445]],[[239.58841,157.76441],[0.35392,-0.01262],[0.13437,0.52338]],[[239.89991,159.32431],[-0.07374,-0.52051],[0.99375,0.03128]]],&quot;closed&quot;:true}]}" fill="#ffb900"/><path d="M236.34026,159.25534c-0.02038,-0.44913 -0.02895,-0.97095 -0.02999,-1.4356c0.49534,-0.00984 1.07122,-0.03157 1.56638,-0.04498c0.14478,0.48704 0.26299,1.04769 0.34194,1.5311c-0.59633,-0.01803 -1.28202,-0.03585 -1.87833,-0.05052z" data-paper-data="{&quot;noHover&quot;:false,&quot;origItem&quot;:[&quot;Path&quot;,{&quot;applyMatrix&quot;:true,&quot;segments&quot;:[[[238.17423,159.27048],[-0.59633,-0.01803],[-0.07895,-0.48342]],[[237.84135,157.81918],[0.14478,0.48704],[-0.49516,0.01341]],[[236.35544,157.85406],[0.49534,-0.00984],[0.00104,0.46465]],[[236.38524,159.22077],[-0.02038,-0.44913],[0.5963,0.01467]]],&quot;closed&quot;:true}]}" fill="#ffb900"/><path d="M236.48347,160.89419c0.60177,0.01518 1.29627,0.03161 1.89804,0.04998c0.00567,0.17617 0.01891,0.38204 0.01891,0.56175l0.09821,0.68222c-0.60732,0.04029 -1.30787,0.07948 -1.90696,0.09663l-0.02097,-0.70041c-0.03692,-0.22143 -0.05914,-0.4725 -0.08723,-0.69017z" data-paper-data="{&quot;noHover&quot;:false,&quot;origItem&quot;:[&quot;Path&quot;,{&quot;applyMatrix&quot;:true,&quot;segments&quot;:[[[236.62742,161.58459],[-0.03692,-0.22143],[0,0]],[[236.63649,162.25],[0,0],[0.59909,-0.01714]],[[238.44986,162.15913],[-0.60732,0.04029],[0,0]],[[238.34391,161.51102],[0,0],[0,-0.17971]],[[238.33551,160.97739],[0.00567,0.17617],[-0.60177,-0.01837]],[[236.53017,160.92639],[0.60177,0.01518],[0.02809,0.21766]]],&quot;closed&quot;:true}]}" fill="#ffb900"/><path d="M234.98885,162.27621c-0.71417,-0.02822 -1.50442,-0.1008 -2.15836,-0.22458c-0.33212,-0.06287 0.07046,-0.72772 0.07233,-1.06572c0.00026,-0.04725 0.00395,-0.09954 0.00416,-0.14679c0.61953,0.00082 1.33094,0.00899 1.95085,0.01888c0.03733,0.3219 0.09075,0.69336 0.14543,1.02155z" data-paper-data="{&quot;noHover&quot;:false,&quot;origItem&quot;:[&quot;Path&quot;,{&quot;applyMatrix&quot;:true,&quot;segments&quot;:[[[234.94857,161.8644],[0,0],[-0.05467,-0.32819]],[[234.81125,160.8904],[0.03733,0.3219],[-0.61991,-0.00989]],[[232.95203,160.87359],[0.61953,0.00082],[-0.00022,0.04725]],[[232.95132,161.01533],[0.00026,-0.04725],[-0.00187,0.33801]],[[232.88157,162.02697],[-0.33212,-0.06287],[0.65393,0.12378]],[[234.9408,162.24602],[-0.71417,-0.02822],[0,0]]],&quot;closed&quot;:true}]}" fill="#ffb900"/><path d="M234.69826,157.84602c0.00125,0.44235 0.00967,0.94476 0.02748,1.37453c-0.5759,-0.00869 -1.24256,-0.01447 -1.8181,-0.01524c-0.00071,-0.42596 -0.00169,-0.91938 -0.00188,-1.34531c0.56643,-0.00195 1.22434,-0.00736 1.79251,-0.01399z" data-paper-data="{&quot;noHover&quot;:false,&quot;origItem&quot;:[&quot;Path&quot;,{&quot;applyMatrix&quot;:true,&quot;segments&quot;:[[[232.95135,157.89376],[0.56643,-0.00195],[0.00019,0.42592]],[[232.95324,159.17158],[-0.00071,-0.42596],[0.57554,0.00077]],[[234.68045,159.18637],[-0.5759,-0.00869],[-0.01781,-0.42977]],[[234.6535,157.88089],[0.00125,0.44235],[-0.56817,0.00663]]],&quot;closed&quot;:true}]}" fill="#ffb900"/><path d="M231.58293,141.56747c0.70225,-0.26334 0.96559,0.4389 0.96559,0.4389l0.3252,0.86813c0.34582,0.7827 0.60212,1.60579 0.81128,2.43553c0,0 0.1819,0.72761 -0.54571,0.90951c-0.72761,0.1819 -0.90951,-0.54571 -0.90951,-0.54571c-0.18851,-0.761 -0.42418,-1.51546 -0.74428,-2.23114l-0.34147,-0.90965c0,0 -0.26334,-0.70225 0.4389,-0.96559z" fill="#8c5900"/><path d="M239.85846,140.19659c0.7398,0.1233 0.6165,0.86309 0.6165,0.86309l-0.10091,0.54337c0,0.87072 0.00264,1.68759 -0.11865,2.55051c0,0 -0.10607,0.74246 -0.84853,0.6364c-0.74246,-0.10607 -0.6364,-0.84853 -0.6364,-0.84853c0.11516,-0.79153 0.10357,-1.53823 0.10357,-2.33838l0.12132,-0.78997c0,0 0.1233,-0.7398 0.86309,-0.6165z" fill="#8c5900"/><path d="M250.2655,144.07271c0.53033,0.53033 0,1.06066 0,1.06066l-0.44444,0.44444c-0.34924,0.34255 -0.63999,0.74836 -0.87915,1.17511c0,0 -0.3721,0.65118 -1.02329,0.27908c-0.65118,-0.3721 -0.27908,-1.02329 -0.27908,-1.02329c0.31215,-0.53791 0.6844,-1.04851 1.12085,-1.49156l0.44444,-0.44444c0,0 0.53033,-0.53033 1.06066,0z" fill="#8c5900"/><path d="M254.60051,150.32829c0.38587,0.64312 -0.25725,1.02899 -0.25725,1.02899l-0.5254,0.31425c-0.66712,0.44427 -1.35134,0.86419 -2.05179,1.2538c0,0 -0.65562,0.36423 -1.01985,-0.29139c-0.36423,-0.65562 0.29139,-1.01985 0.29139,-1.01985c0.6655,-0.36924 1.31517,-0.76814 1.94821,-1.19064l0.58571,-0.35242c0,0 0.64312,-0.38587 1.02899,0.25725z" fill="#8c5900"/><path d="M227.31914,149.42431c0.21694,0.04127 0.61047,0.19102 0.61047,0.73429c0,0.75 -0.75,0.75 -0.75,0.75l-0.52714,-0.12596c-0.44444,-0.2963 -0.88889,-0.59259 -1.33333,-0.88889c0,0 -0.62404,-0.41603 -0.20801,-1.04006c0.41603,-0.62404 1.04006,-0.20801 1.04006,-0.20801c0.38932,0.25954 0.77863,0.51909 1.16795,0.77863z" fill="#8c5900"/><path d="M247.26902,146.83058c0.58565,0.46852 0.11713,1.05417 0.11713,1.05417l-0.33899,0.42195c-0.4592,0.63032 -0.94175,1.23882 -1.43409,1.83934c1.05337,0.65248 2.09094,1.32071 3.0779,2.02352l0.45804,0.44361c0,0 0.53033,0.53033 0,1.06066c-0.53033,0.53033 -1.06066,0 -1.06066,0l-0.26923,-0.28367c-1.01329,-0.72626 -2.08429,-1.41314 -3.17162,-2.08315c-0.88924,1.06147 -1.78158,2.12617 -2.60033,3.27241c0,0 -0.43593,0.6103 -1.04623,0.17437c-0.6103,-0.43593 -0.17437,-1.04623 -0.17437,-1.04623c0.80205,-1.12287 1.67565,-2.1514 2.54343,-3.17829c-0.9681,-0.5844 -1.93636,-1.16245 -2.87608,-1.74978c0,0 -0.636,-0.3975 -0.2385,-1.0335c0.3975,-0.636 1.0335,-0.2385 1.0335,-0.2385c0.99815,0.62384 2.02611,1.2383 3.05233,1.86044c0.5134,-0.62558 1.01414,-1.26319 1.48532,-1.9331l0.38828,-0.48714c0,0 0.46852,-0.58565 1.05417,-0.11713z" fill="#000000"/><path d="M234.71541,146.71987c0.69636,0.27854 0.41781,0.9749 0.41781,0.9749l-0.26788,0.61193c-0.45338,0.63473 -0.88513,1.28214 -1.30748,1.93522c1.05412,0.62719 2.07253,1.30357 2.95129,1.92764l0.54895,0.53452c0,0 0.53033,0.53033 0,1.06066c-0.53033,0.53033 -1.06066,0 -1.06066,0l-0.36014,-0.37458c-0.83836,-0.60286 -1.84017,-1.27762 -2.87722,-1.89674c-0.79115,1.25242 -1.57639,2.50932 -2.44019,3.72237c0,0 -0.43593,0.6103 -1.04623,0.17437c-0.6103,-0.43593 -0.17437,-1.04623 -0.17437,-1.04623c0.83512,-1.16516 1.59512,-2.37607 2.35717,-3.58527c-0.69034,-0.36411 -1.37276,-0.6807 -2.01021,-0.91291c0,0 -0.70225,-0.26334 -0.4389,-0.96559c0.26334,-0.70225 0.96559,-0.4389 0.96559,-0.4389c0.72955,0.27969 1.50298,0.64693 2.28004,1.06239c0.44915,-0.69884 0.90802,-1.39155 1.39178,-2.0688l0.09576,-0.29716c0,0 0.27854,-0.69636 0.9749,-0.41781z" fill="#000000"/></g></g></svg>