<svg version="1.1" xmlns="http://www.w3.org/2000/svg" xmlns:xlink="http://www.w3.org/1999/xlink" width="7.70209" height="13.05029" viewBox="0,0,7.70209,13.05029"><g transform="translate(-237.3125,-167.70473)"><g data-paper-data="{&quot;isPaintingLayer&quot;:true}" fill-rule="nonzero" stroke="none" stroke-width="0.5" stroke-linecap="butt" stroke-linejoin="miter" stroke-miterlimit="10" stroke-dasharray="" stroke-dashoffset="0" style="mix-blend-mode: normal"><path d="M237.3125,177.96947v-0.5c0,-2.11587 0.03872,-4.2257 0.44017,-6.30579c1.17139,-1.48199 5.44908,-2.77391 7.0071,-0.80399c0.59985,0.75844 -0.02132,2.14601 -0.21938,2.91557c-0.3369,1.30903 -0.26242,3.0409 -0.23525,4.48355c0.80557,1.53831 -2.60138,3.32422 -4.65991,2.94453c-1.12006,-0.20659 -2.0877,-1.1647 -2.15606,-2.22902c-0.17667,-0.21878 -0.17667,-0.50485 -0.17667,-0.50485zM242.94006,173.78261c0.07396,-0.84496 1.44429,-2.09573 0.67518,-2.45336c-1.11933,-0.52049 -3.58317,-0.65685 -4.4929,0.44601c-0.1947,1.57763 -0.27996,3.1497 -0.30306,4.7356c1.09784,-0.37205 2.74588,-0.14202 3.66047,-0.13549c0,0 0.16729,0.00119 0.34329,0.08147c0.01211,-0.90099 0.0413,-1.80913 0.11702,-2.67423zM241.55986,177.8204c-1.17842,-0.06572 -2.91417,-0.06002 -2.50986,0.95698c0.54628,1.37411 5.21168,-0.28472 3.23807,-0.6899l-0.28658,-0.03971c0,0 -0.25568,-0.04224 -0.44162,-0.22736z" fill="#7d7d7d"/><path d="M242.04704,178.02716l0.28848,0.04456c1.97361,0.40518 -2.78888,2.08581 -3.33515,0.7117c-0.4043,-1.017 1.41502,-1.06545 2.59343,-0.99973c0.18595,0.18512 0.45324,0.24347 0.45324,0.24347z" data-paper-data="{&quot;noHover&quot;:false,&quot;origItem&quot;:[&quot;Path&quot;,{&quot;applyMatrix&quot;:true,&quot;segments&quot;:[[[370.11971,293.3908],[0.37189,0.37024],[-2.35684,-0.13145]],[[365.09998,295.30476],[-0.80861,-2.034],[1.09255,2.74822]],[[371.57612,293.92495],[3.94722,0.81037],[0,0]],[371.00296,293.84553]],&quot;closed&quot;:true}]}" fill="#5d5d5d"/><path d="M242.84696,176.50073c-0.176,-0.08027 -0.34737,-0.07946 -0.34737,-0.07946c-0.91459,-0.00653 -2.61598,-0.24534 -3.71382,0.1267c0.0231,-1.5859 0.10434,-3.22815 0.29905,-4.80578c0.90973,-1.10286 3.44557,-0.96964 4.5649,-0.44915c0.7691,0.35763 -0.58574,1.64642 -0.65969,2.49138c-0.07572,0.86509 -0.13095,1.81533 -0.14307,2.71632z" data-paper-data="{&quot;noHover&quot;:false,&quot;origItem&quot;:[&quot;Path&quot;,{&quot;applyMatrix&quot;:true,&quot;segments&quot;:[[[372.88011,285.31521],[-0.15144,1.73018],[0.14791,-1.68992]],[[374.23047,280.40849],[1.53821,0.71527],[-2.23865,-1.04097]],[[365.24467,281.3005],[1.81946,-2.20572],[-0.3894,3.15526]],[[364.63855,290.7717],[0.04619,-3.1718],[2.19567,-0.74409]],[[371.9595,290.50073],[-1.82919,-0.01306],[0,0]],[[372.64607,290.66366],[-0.35199,-0.16054],[0.02423,-1.80198]]],&quot;closed&quot;:true}]}" fill="#999999"/><path d="M241.39791,167.79864c0.67082,0.33541 0.33541,1.00623 0.33541,1.00623l-0.04582,-0.08541c-0.00114,0.36357 -0.0221,0.7278 -0.06212,1.08968c0.30773,0.09991 0.60828,0.22303 0.89753,0.3645l0.41459,0.79582c0,0 0,0.75 -0.75,0.75c-0.18834,0 -0.32939,-0.0473 -0.43502,-0.11814c0.01247,0.56454 -0.06498,1.20068 -0.06498,1.86814c0,0 0,0.75 -0.75,0.75c-0.75,0 -0.75,-0.75 -0.75,-0.75c0,-0.67534 0.27605,-2.55768 -0.1233,-2.3852l0.15363,0.29053c0,0 -0.53033,0.53033 -1.06066,0c-0.53033,-0.53033 0,-1.06066 0,-1.06066l0.971,-0.59715c0.04046,-0.33089 0.06056,-0.66467 0.05933,-0.99752l0.20418,-0.58541c0,0 0.33541,-0.67082 1.00623,-0.33541z" fill="#686868"/></g></g></svg>