<svg version="1.1" xmlns="http://www.w3.org/2000/svg" xmlns:xlink="http://www.w3.org/1999/xlink" width="150.43927" height="52.75" viewBox="0,0,150.43927,52.75"><g transform="translate(-164.78036,-153.625)"><g data-paper-data="{&quot;isPaintingLayer&quot;:true}" fill-rule="nonzero" stroke-linecap="butt" stroke-linejoin="miter" stroke-miterlimit="10" stroke-dasharray="" stroke-dashoffset="0" style="mix-blend-mode: normal"><path d="M166.03036,205.125v-50.25h147.93927v50.25z" fill="#7f7f7f" stroke="#5e5e5e" stroke-width="2.5"/><path d="M222.92575,180.03156c0.24515,1.22573 -0.98058,1.47087 -0.98058,1.47087l-1.24515,0.22427c-1.31502,0 -2.63004,0 -3.94505,0c-0.0037,0.51552 -0.00495,1.03197 -0.00495,1.55v0.8c0,0 0,1.25 -1.25,1.25c-1.25,0 -1.25,-1.25 -1.25,-1.25v-0.8c0,-0.51797 0.00133,-1.03443 0.00508,-1.55c-0.71836,0 -1.43672,0 -2.15508,0c0,0 -1.25,0 -1.25,-1.25c0,-1.25 1.25,-1.25 1.25,-1.25c0.73233,0 1.46467,0 2.197,0c0.0303,-1.07751 0.07901,-2.15535 0.15618,-3.23906c0,0 0.08906,-1.24682 1.33588,-1.15776c1.24682,0.08906 1.15776,1.33588 1.15776,1.33588c-0.07339,1.02416 -0.12007,2.04279 -0.14943,3.06094c1.30087,0 2.60174,0 3.90261,0l0.75485,-0.17573c0,0 1.22573,-0.24515 1.47087,0.98058z" fill="#ffffff" stroke="none" stroke-width="0.5"/><path d="M272.75004,176.27671c0,1.25 -1.25,1.25 -1.25,1.25l-0.7434,-0.0481c-2.94941,-0.87282 -5.86518,0.03962 -8.8566,0.0481c0,0 -1.25,0 -1.25,-1.25c0,-1.25 1.25,-1.25 1.25,-1.25c3.27835,0.01077 6.2865,-0.85638 9.5434,0.0481l0.0566,-0.0481c0,0 1.25,0 1.25,1.25z" fill="#ffffff" stroke="none" stroke-width="0.5"/><path d="M274.15003,183.47671c0,1.25 -1.25,1.25 -1.25,1.25l-0.57678,-0.01256c-3.09494,-0.44307 -6.10567,-0.58744 -9.22322,-0.58744c0,0 -1.25,0 -1.25,-1.25c0,-1.25 1.25,-1.25 1.25,-1.25c3.23459,0 6.36627,0.15485 9.57678,0.61256l0.22322,-0.01256c0,0 1.25,0 1.25,1.25z" fill="#ffffff" stroke="none" stroke-width="0.5"/><path d="M199.98194,183.09297c-0.87582,-0.05288 -1.89248,-0.57424 -2.93343,-1.72114c-1.70507,-1.87862 -2.72238,-4.52457 -3.06998,-7.07264c0.43288,-0.57294 0.07876,-1.30175 0.07876,-1.30175l-0.05433,0.36682c0.11055,-0.8962 0.01182,-1.82991 0.17065,-2.71883c0.53234,-2.97932 3.56533,-2.314 5.51481,-1.12256c2.80567,1.71471 3.64604,5.63978 3.64057,8.63305c0.02217,2.25093 -0.89477,4.16773 -2.27162,4.7528c-0.46997,-0.11817 -0.92281,0.10688 -0.92281,0.10688z" data-paper-data="{&quot;noHover&quot;:false,&quot;origItem&quot;:[&quot;Path&quot;,{&quot;applyMatrix&quot;:true,&quot;segments&quot;:[[293.26464,182.89063],[[294.18148,182.78536],[-0.46997,-0.11817],[1.37685,-0.58507]],[[296.42446,178.05743],[0.02217,2.25093],[0.00547,-2.99327]],[[292.82042,169.49621],[2.80567,1.71471],[-1.94948,-1.19144]],[[287.34653,170.60716],[0.53234,-2.97932],[-0.15883,0.88891]],[[287.18737,173.31146],[0.11055,-0.8962],[0,0]],[287.24009,172.94747],[[287.16625,174.23848],[0.43288,-0.57294],[0.3476,2.54806]],[[290.20249,181.24779],[-1.70507,-1.87862],[1.04095,1.1469]],[[293.11311,182.96778],[-0.87582,-0.05288],[0,0]]],&quot;closed&quot;:true}]}" fill="#816e3a" stroke="none" stroke-width="0.5"/><path d="M191.79302,170.73295c-0.02037,0.17164 -0.03564,0.34462 -0.04969,0.51871c-0.3346,0.36917 -0.33384,0.88884 -0.33384,0.88884c0.00617,3.77472 1.23772,8.0013 3.84251,10.86335c0.54831,0.60246 1.26061,1.15632 2.05766,1.59042c-2.74772,1.48988 -6.06564,2.6169 -8.92747,3.43456c-2.03321,0.87138 -4.19351,1.42987 -6.23662,2.30549c-0.78511,0.33648 -2.23433,1.29698 -3.11353,1.29731c-0.92182,0.00034 -2.44653,-2.35326 -2.94128,-3.01259c-2.28611,-3.0466 -3.05072,-6.26547 -2.23928,-9.98934c2.63296,-1.97302 7.14074,-2.97542 10.26265,-4.09353c2.57984,-0.92396 5.19514,-2.35604 7.67891,-3.80322z" data-paper-data="{&quot;noHover&quot;:false,&quot;origItem&quot;:[&quot;Path&quot;,{&quot;applyMatrix&quot;:true,&quot;segments&quot;:[[[277.26388,174.50923],[2.57984,-0.92396],[-3.12191,1.11811]],[[267.04039,178.56447],[2.63296,-1.97302],[-0.81144,3.72387]],[[269.26996,188.51188],[-2.28611,-3.0466],[0.49475,0.65933]],[[272.19823,191.51298],[-0.92182,0.00034],[0.8792,-0.00033]],[[275.30252,190.21126],[-0.78511,0.33648],[2.04312,-0.87562]],[[281.50245,187.90694],[-2.03321,0.87138],[2.86183,-0.81766]],[[290.4017,184.50448],[-2.74772,1.48988],[-0.79705,-0.4341]],[[288.34294,182.91874],[0.54831,0.60246],[-2.60479,-2.86205]],[[284.52199,172.1062],[0.00617,3.77472],[0,0]],[[284.85659,171.21785],[-0.3346,0.36917],[0.01405,-0.17409]],[[284.9071,170.69964],[-0.02037,0.17164],[-2.48377,1.44718]]],&quot;closed&quot;:true}]}" fill="#efcc6c" stroke="none" stroke-width="0.5"/><path d="M189.12533,171.11537c0.05757,-0.35032 0.29031,-1.05835 1.23108,-1.05835c1.25,0 1.25,1.25 1.25,1.25l-0.00965,0.85519c-0.22998,1.81319 -0.16538,3.61974 -0.16538,5.44612c-0.00502,2.74806 0.61037,5.74235 0.17262,8.47941c-0.27059,1.6919 -0.60096,4.36492 -3.70679,2.2065c-0.80746,-0.56115 -0.24273,-2.90936 -0.18866,-3.76214c0.25494,-4.02144 -0.00242,-8.14388 -0.00242,-12.17487c0,0 0,-1.25 1.25,-1.25c0.05916,0 0.11552,0.0028 0.16921,0.00813z" fill="#ffda73" stroke="none" stroke-width="0.5"/><path d="M184.93027,190.58575c-1.25,0 -1.25,-1.25 -1.25,-1.25c0,-5.13286 0,-10.97047 0,-16.10334c0,0 0,-1.25 1.25,-1.25c1.25,0 1.25,1.25 1.25,1.25c0,5.13218 0,10.27101 0,15.40319v0.70015c0,0 0,1.25 -1.25,1.25z" fill="#ffda73" stroke="none" stroke-width="0.5"/><path d="M200.3267,185.64983c-3.1975,2.11414 -7.44517,3.63674 -11.12689,4.68866c-2.38625,1.02268 -4.87602,1.74496 -7.27786,2.77174c-0.71166,0.30423 -2.26204,1.04741 -3.02197,0.97375c-2.03579,-0.19735 -3.66069,-2.5162 -4.77333,-4.00035c-2.90915,-3.88053 -3.80107,-8.15663 -2.32138,-12.8073c2.932,-2.55513 7.80221,-3.73671 11.48102,-5.04664c3.58167,-1.27534 7.18183,-3.61978 10.47578,-5.50869c0,0 0.30674,-0.17528 0.68726,-0.1764c1.94411,-0.96748 4.4732,-0.37991 6.5373,0.89607c3.57239,2.20837 4.79133,6.78873 4.79771,10.69277c-0.01343,1.74978 -0.31946,4.37645 -1.47299,5.82302c-0.97424,1.22174 -2.35187,1.66426 -3.7815,1.5942zM184.12376,174.58523c-3.12191,1.11811 -7.59052,2.08222 -10.22348,4.05524c-0.81144,3.72387 -0.05655,6.90082 2.22956,9.94741c0.49475,0.65933 2.00645,3.00144 2.92827,3.0011c0.8792,-0.00033 2.31918,-0.96525 3.1043,-1.30172c2.04312,-0.87562 4.16672,-1.43294 6.19993,-2.30432c2.86183,-0.81766 6.15153,-1.91258 8.89925,-3.40246c-0.79705,-0.4341 -1.51045,-0.98328 -2.05876,-1.58574c-2.60479,-2.86205 -3.81478,-7.03782 -3.82095,-10.81254c0,0 0,-0.51918 0.3346,-0.88835c0.01405,-0.17409 0.03014,-0.34656 0.05051,-0.5182c-2.48377,1.44718 -5.06339,2.88562 -7.64322,3.80958zM200.12452,182.96663c0,0 0.44687,-0.22344 0.91684,-0.10527c1.37685,-0.58507 2.26514,-2.477 2.24298,-4.72793c0.00547,-2.99327 -0.79837,-6.84651 -3.60403,-8.56122c-1.94948,-1.19144 -4.94155,-1.86837 -5.47389,1.11095c-0.15883,0.88891 -0.04861,1.80809 -0.15916,2.70429l0.05272,-0.36399c0,0 0.35904,0.71808 -0.07384,1.29101c0.3476,2.54806 1.33116,5.13069 3.03623,7.00931c1.04095,1.1469 2.0348,1.6671 2.91062,1.71999z" fill="#c9ab5a" stroke="none" stroke-width="0.5"/><text transform="translate(176.02626,187.36327) scale(0.5,0.5)" font-size="40" xml:space="preserve" fill="#ffffff" fill-rule="nonzero" stroke="none" stroke-width="1" stroke-linecap="butt" stroke-linejoin="miter" stroke-miterlimit="10" stroke-dasharray="" stroke-dashoffset="0" font-family="Sans Serif" font-weight="normal" text-anchor="start" style="mix-blend-mode: normal"><tspan x="0" dy="0">16</tspan></text><path d="M225.53956,180.91053c-0.03926,-0.50314 0.21703,-0.9303 0.21703,-0.9303c2.19068,-3.62795 4.8086,-8.47671 8.5153,-10.85175c1.76303,-1.12965 3.35564,-0.2299 5.14516,-0.60621c1.19675,-0.25166 2.37329,-0.95708 3.58395,-0.78433c1.30219,0.18581 2.10325,1.5841 3.20842,2.29741c1.06362,0.6865 4.07516,0.21268 5.2328,0.2393c1.90549,1.11713 4.85806,4.73601 5.11082,7.21745c0.06372,0.62555 -0.42646,1.21625 -0.39611,1.8443c0.07563,1.56492 3.31489,2.6573 3.48056,4.1554c0.16265,1.47072 -2.77861,3.84343 -3.78139,4.69106c-1.37743,1.16431 -2.34714,2.75813 -4.14464,3.35198c-1.55918,0.51511 -3.30018,-0.15021 -4.80583,0.38212c-2.05771,0.72753 -3.1531,1.03425 -5.46466,1.03718c-2.68153,-0.0112 -4.8668,-0.8153 -7.37706,-1.61052c-4.97817,-1.57702 -10.45892,-2.63366 -8.85529,-9.42966zM228.43739,181.12581c-0.01029,0.25565 -0.07163,0.43967 -0.07163,0.43967l-0.35422,1.0492c-1.3083,4.84884 3.66347,4.96769 6.93867,5.97908c2.21952,0.6854 4.11653,1.48317 6.4908,1.47123c2.86842,0.00395 6.61315,-0.50081 9.37566,-1.27723c1.13124,-0.31794 2.3303,-2.09645 3.17452,-2.81151c0.76996,-0.65217 1.3525,-1.51022 2.14048,-2.14049c0.16533,-0.13224 0.76364,0.0592 0.62684,-0.10239c-1.02377,-1.20924 -3.09773,-1.7507 -3.45338,-3.93419c-0.10945,-0.67197 0.37393,-1.32706 0.37433,-2.00788c0.0005,-0.83324 -2.2477,-4.34135 -2.97877,-4.72431c-1.84923,0.06567 -4.24001,0.40533 -5.93853,-0.53114c-0.5772,-0.31824 -1.18709,-1.85599 -2.18465,-1.93999c-0.89291,-0.07518 -1.69955,0.58755 -2.57954,0.75654c-0.85338,0.16388 -3.31938,-0.45752 -4.10008,0.16423c-3.22173,2.5658 -5.37672,6.11738 -7.46051,9.60918z" fill="#252525" stroke="none" stroke-width="0.5"/><path d="M235.86397,171.46985c0.7807,-0.62175 3.26634,-0.00956 4.11972,-0.17344c0.87999,-0.16899 1.70263,-0.83349 2.59554,-0.75831c0.99755,0.08399 1.62322,1.62444 2.20042,1.94267c1.69852,0.93647 4.11556,0.61413 5.96479,0.54846c0.73106,0.38296 2.99192,3.91627 2.99142,4.74951c-0.0004,0.68083 -0.48246,1.3457 -0.37302,2.01768c0.35564,2.1835 2.42814,2.74096 3.4519,3.9502c0.1368,0.16158 -0.46174,-0.0289 -0.62707,0.10334c-0.78798,0.63027 -1.3745,1.49924 -2.14446,2.15141c-0.84422,0.71507 -2.05429,2.50915 -3.18554,2.82709c-2.76251,0.77642 -6.55327,1.29805 -9.42168,1.2941c-2.37428,0.01194 -4.30464,-0.80018 -6.52416,-1.48558c-3.2752,-1.01139 -8.26566,-1.16432 -6.95736,-6.01316l0.35372,-1.05322c0,0 0.06122,-0.18582 0.07151,-0.44147c2.0838,-3.4918 4.26254,-7.09348 7.48427,-9.65928z" data-paper-data="{&quot;noHover&quot;:false,&quot;origItem&quot;:[&quot;Path&quot;,{&quot;applyMatrix&quot;:true,&quot;segments&quot;:[[[483.32901,330.02966],[3.60626,-6.04297],[-0.01781,0.44244]],[483.20504,330.79057],[[482.59202,332.60634],[0,0],[-2.26417,8.3915]],[[494.60022,342.95386],[-5.66812,-1.75034],[3.84115,1.18617]],[[505.83333,345.5],[-4.10897,0.02066],[4.96414,0.00683]],[[522.05903,343.2896],[-4.78085,1.34368],[1.95775,-0.55023]],[[527.55291,338.42394],[-1.46102,1.23751],[1.3325,-1.12865]],[[531.25727,334.71957],[-1.36369,1.09076],[0.28613,-0.22886]],[[532.34209,334.54238],[0.23675,0.27964],[-1.77175,-2.09273]],[[526.36561,327.73379],[0.61548,3.7788],[-0.18941,-1.16293]],[[527.01344,324.25891],[-0.0007,1.17825],[0.00086,-1.44202]],[[521.85833,316.08292],[1.26519,0.66276],[-3.20031,0.11365]],[[511.58099,315.16371],[2.93949,1.62068],[-0.99891,-0.55075]],[[507.8002,311.80633],[1.72638,0.14536],[-1.54528,-0.13011]],[[503.336,313.11561],[1.52292,-0.29246],[-1.47688,0.28362]],[[496.24032,313.39983],[1.3511,-1.07602],[-5.57559,4.44043]]],&quot;closed&quot;:true}]}" fill="#3d3d3d" stroke="none" stroke-width="0.5"/><path d="M251.03016,179.56078c-1.34125,0.5365 -1.87775,-0.80475 -1.87775,-0.80475l-0.21946,-0.65991c-0.72827,-1.46679 -1.78106,-0.70158 -3.51977,-0.55571c0,0 -1.43958,0.11996 -1.55954,-1.31961c-0.11996,-1.43958 1.31961,-1.55955 1.31961,-1.55955c3.04849,-0.25243 4.09823,-0.68667 6.11069,1.7556l0.55097,1.26618c0,0 0.5365,1.34125 -0.80475,1.87775z" fill="#313131" stroke="none" stroke-width="0.5"/><path d="M242.69295,174.17474c0,1.44457 -1.44457,1.44457 -1.44457,1.44457l0.15775,-0.04313c-2.11986,0.5164 -3.04927,1.18712 -5.32512,0.99734c0,0 -1.43573,-0.15953 -1.27621,-1.59526c0.15953,-1.43573 1.59526,-1.27621 1.59526,-1.27621c1.70264,0.26593 2.62299,-0.49932 4.30535,-0.92875l0.54297,-0.04313c0,0 1.44457,0 1.44457,1.44457z" fill="#313131" stroke="none" stroke-width="0.5"/><path d="M252.2987,186.33129c-1.37044,0.45681 -1.82725,-0.91362 -1.82725,-0.91362l0.14558,-0.43698c-0.44942,-0.32102 -0.89884,-0.64203 -1.34826,-0.96305c0,0 -1.1755,-0.83964 -0.33586,-2.01513c0.83964,-1.17549 2.01513,-0.33585 2.01513,-0.33585c0.44942,0.32102 0.89884,0.64202 1.34826,0.96304l0.91602,1.87434c0,0 0.45681,1.37043 -0.91363,1.82725z" fill="#313131" stroke="none" stroke-width="0.5"/><path d="M237.41841,179.88142c0.45681,1.37044 -0.91363,1.82725 -0.91363,1.82725l-0.38861,0.11424c-1.91865,0.95413 -2.58316,1.00893 -3.37076,2.95421c0,0 -0.5867,1.32006 -1.90676,0.73337c-1.32006,-0.5867 -0.73337,-1.90676 -0.73337,-1.90676c1.197,-2.53891 2.2386,-3.11877 4.71883,-4.36495l0.76704,-0.27098c0,0 1.37044,-0.45681 1.82725,0.91363z" fill="#313131" stroke="none" stroke-width="0.5"/><path d="M247.24147,181.18027c-0.45681,1.37044 -1.82725,0.91363 -1.82725,0.91363l-1.07893,-0.36199c-0.383,-0.21758 -0.71524,-0.72951 -1.14898,-0.65274c-0.28583,0.05059 -0.04534,0.57877 -0.068,0.86815c0,0 -0.64603,1.29206 -1.93809,0.64603c-1.29206,-0.64603 -0.64603,-1.93809 -0.64603,-1.93809c0.49096,-0.73787 0.64304,-1.90238 1.47287,-2.2136c0.97661,-0.36627 2.05894,0.33528 3.08842,0.50292l1.23238,0.40845c0,0 1.37044,0.45681 0.91363,1.82725z" fill="#313131" stroke="none" stroke-width="0.5"/><path d="M241.34472,184.76825c0,1.44457 -1.44457,1.44457 -1.44457,1.44457l-1.33483,-0.01115c-0.66514,-0.12922 -1.42898,0.02355 -1.99326,0.39865c0,0 -1.25423,0.71671 -1.97094,-0.53753c-0.71671,-1.25424 0.53753,-1.97094 0.53753,-1.97094c1.1399,-0.59675 2.50328,-0.86943 3.78502,-0.75701l0.97648,-0.01116c0,0 1.44457,0 1.44457,1.44457z" fill="#313131" stroke="none" stroke-width="0.5"/><path d="M248.08603,187.07956c0,1.44457 -1.44457,1.44457 -1.44457,1.44457c-0.51363,0 -2.1829,0 -2.69653,0c0,0 -1.44457,0 -1.44457,-1.44457c0,-1.44457 1.44457,-1.44457 1.44457,-1.44457c0.51363,0 1.02724,0 1.54087,0h1.15566c0,0 1.44457,0 1.44457,1.44457z" fill="#313131" stroke="none" stroke-width="0.5"/><text transform="translate(235.79968,187.30414) scale(0.5,0.5)" font-size="40" xml:space="preserve" fill="#ffffff" fill-rule="nonzero" stroke="none" stroke-width="1" stroke-linecap="butt" stroke-linejoin="miter" stroke-miterlimit="10" stroke-dasharray="" stroke-dashoffset="0" font-family="Sans Serif" font-weight="normal" text-anchor="start" style="mix-blend-mode: normal"><tspan x="0" dy="0">2</tspan></text><path d="M299.36452,173.04739c-0.39578,0.78308 -1.27747,1.50973 -2.74309,2.01068c-2.40067,0.82054 -5.23311,0.70546 -7.71018,0.01437c-0.35437,-0.62455 -1.16384,-0.5884 -1.16384,-0.5884l0.31522,0.19531c-0.77893,-0.4568 -1.67527,-0.73634 -2.42837,-1.23458c-2.52411,-1.6699 -0.71085,-4.19057 1.15584,-5.50793c2.68653,-1.89594 6.62312,-1.1113 9.36893,0.08044c2.07526,0.87205 3.47145,2.4738 3.46271,3.96977c-0.29481,0.3846 -0.26774,0.88956 -0.26774,0.88956z" data-paper-data="{&quot;noHover&quot;:false,&quot;origItem&quot;:[&quot;Path&quot;,{&quot;applyMatrix&quot;:true,&quot;segments&quot;:[[293.26464,182.89063],[[294.18148,182.78536],[-0.46997,-0.11817],[1.37685,-0.58507]],[[296.42446,178.05743],[0.02217,2.25093],[0.00547,-2.99327]],[[292.82042,169.49621],[2.80567,1.71471],[-1.94948,-1.19144]],[[287.34653,170.60716],[0.53234,-2.97932],[-0.15883,0.88891]],[[287.18737,173.31146],[0.11055,-0.8962],[0,0]],[287.24009,172.94747],[[287.16625,174.23848],[0.43288,-0.57294],[0.3476,2.54806]],[[290.20249,181.24779],[-1.70507,-1.87862],[1.04095,1.1469]],[[293.11311,182.96778],[-0.87582,-0.05288],[0,0]]],&quot;closed&quot;:true}]}" fill="#816e3a" stroke="none" stroke-width="0.5"/><path d="M284.7708,175.66497c0.1495,0.08675 0.30225,0.16935 0.4565,0.25127c0.20626,0.45354 0.68365,0.65887 0.68365,0.65887c3.46783,1.49087 7.83631,2.03591 11.49652,0.77927c0.77047,-0.26452 1.56135,-0.69886 2.27587,-1.25849c0.27842,3.11323 -0.00234,6.60606 -0.3863,9.55754c-0.00612,2.21206 -0.34987,4.41675 -0.35602,6.63958c-0.00236,0.85417 0.30487,2.56544 -0.04339,3.37271c-0.36516,0.84642 -3.13037,1.31307 -3.93182,1.50587c-3.70329,0.89091 -6.96152,0.3167 -10.05851,-1.90462c-0.76747,-3.19942 0.09944,-7.73521 0.31067,-11.04457c0.17456,-2.73474 -0.10329,-5.70348 -0.44716,-8.55747z" data-paper-data="{&quot;noHover&quot;:false,&quot;origItem&quot;:[&quot;Path&quot;,{&quot;applyMatrix&quot;:true,&quot;segments&quot;:[[[277.26388,174.50923],[2.57984,-0.92396],[-3.12191,1.11811]],[[267.04039,178.56447],[2.63296,-1.97302],[-0.81144,3.72387]],[[269.26996,188.51188],[-2.28611,-3.0466],[0.49475,0.65933]],[[272.19823,191.51298],[-0.92182,0.00034],[0.8792,-0.00033]],[[275.30252,190.21126],[-0.78511,0.33648],[2.04312,-0.87562]],[[281.50245,187.90694],[-2.03321,0.87138],[2.86183,-0.81766]],[[290.4017,184.50448],[-2.74772,1.48988],[-0.79705,-0.4341]],[[288.34294,182.91874],[0.54831,0.60246],[-2.60479,-2.86205]],[[284.52199,172.1062],[0.00617,3.77472],[0,0]],[[284.85659,171.21785],[-0.3346,0.36917],[0.01405,-0.17409]],[[284.9071,170.69964],[-0.02037,0.17164],[-2.48377,1.44718]]],&quot;closed&quot;:true}]}" fill="#efcc6c" stroke="none" stroke-width="0.5"/><path d="M284.06424,178.26566c-0.29879,-0.19174 -0.85652,-0.68612 -0.48354,-1.54979c0.49557,-1.14756 1.64314,-0.65199 1.64314,-0.65199l0.78128,0.34791c1.57342,0.92999 3.25754,1.58692 4.93425,2.311c2.52087,1.09411 5.51376,1.71627 7.85297,3.20328c1.44597,0.91919 3.76896,2.28224 0.55608,4.27782c-0.83529,0.51881 -2.76718,-0.93061 -3.52864,-1.31834c-3.59082,-1.8284 -7.47746,-3.22652 -11.17811,-4.82465c0,0 -1.14756,-0.49558 -0.65199,-1.64314c0.02346,-0.05431 0.04837,-0.10494 0.07455,-0.15212z" fill="#ffda73" stroke="none" stroke-width="0.5"/><path d="M300.27587,189.83619c-0.49557,1.14756 -1.64314,0.65199 -1.64314,0.65199c-4.71223,-2.03498 -10.07145,-4.34937 -14.78369,-6.38435c0,0 -1.14756,-0.49558 -0.65199,-1.64314c0.49557,-1.14756 1.64314,-0.65199 1.64314,-0.65199c4.71161,2.03471 9.42931,4.07206 14.14092,6.10677l0.64277,0.27758c0,0 1.14756,0.49558 0.65199,1.64314z" fill="#ffda73" stroke="none" stroke-width="0.5"/><path d="M301.84854,173.74458c0.6732,3.77364 0.38699,8.27687 -0.10696,12.07393c-0.00718,2.59616 -0.33119,5.16825 -0.34079,7.78034c-0.00284,0.77396 0.06476,2.49193 -0.30414,3.16038c-0.98829,1.79072 -3.76132,2.36312 -5.56497,2.79618c-4.71589,1.13227 -8.99518,0.25579 -12.6781,-2.94646c-1.18331,-3.70473 -0.33722,-8.64428 -0.08129,-12.54096c0.24917,-3.79378 -0.47583,-8.02839 -0.90402,-11.80129c0,0 -0.03931,-0.3511 0.11053,-0.70088c-0.11743,-2.16836 1.42467,-4.25724 3.41442,-5.64632c3.44371,-2.4041 8.13198,-1.70722 11.71862,-0.16528c1.60107,0.70605 3.89115,2.02838 4.76184,3.66089c0.73537,1.37877 0.59545,2.81895 -0.03566,4.10365zM285.26682,184.23302c-0.21123,3.30936 -1.09776,7.794 -0.33029,10.99343c3.097,2.22132 6.31288,2.78782 10.01617,1.89691c0.80145,-0.1928 3.55095,-0.65207 3.91611,-1.49848c0.34827,-0.80728 0.03332,-2.5118 0.03569,-3.36598c0.00615,-2.22284 0.33643,-4.39337 0.34255,-6.60543c0.38395,-2.95148 0.68299,-6.40569 0.40457,-9.51891c-0.71452,0.55963 -1.50153,0.99684 -2.27201,1.26136c-3.66021,1.25664 -7.97349,0.71194 -11.44133,-0.77893c0,0 -0.47664,-0.20584 -0.6829,-0.65938c-0.15425,-0.08192 -0.30621,-0.16506 -0.45571,-0.25181c0.34386,2.85398 0.64171,5.79249 0.46715,8.52722zM299.30506,172.8664c0,0 -0.02796,-0.49884 0.26685,-0.88344c0.00874,-1.49597 -1.37597,-3.06155 -3.45123,-3.93362c-2.74581,-1.19174 -6.60197,-1.98144 -9.2885,-0.08551c-1.86669,1.31736 -3.6744,3.79586 -1.15028,5.46577c0.75309,0.49823 1.64065,0.76146 2.41958,1.21826l-0.31326,-0.19271c0,0 0.80158,-0.04492 1.15594,0.57963c2.47706,0.69109 5.23799,0.81204 7.63865,-0.0085c1.46561,-0.50095 2.33721,-1.20711 2.73299,-1.99019z" fill="#c9ab5a" stroke="none" stroke-width="0.5"/><path d="M299.76449,171.28807c0.00144,-0.01552 0.00316,-0.03147 0.00521,-0.0478c-0.24425,-0.34196 -0.21702,-0.76947 -0.21702,-0.76947l0.06626,-0.69928c-0.35652,-2.64934 -0.66118,-4.86465 -3.12306,-6.32408c-2.39658,-1.173 -6.9778,-2.58712 -9.38095,-0.51079c-1.92921,1.66685 -2.31156,6.69756 -2.03851,9.29244c3.1379,1.26238 6.99421,1.03932 10.26064,0.85057c1.4916,-0.08619 3.52841,-0.54861 4.42743,-1.79161zM302.06888,171.25451l-0.13049,0.94017c-3.19,4.9552 -13.92228,4.04617 -18.6078,1.79762c0,0 -1.04452,-0.51003 -0.53449,-1.55455c0.01872,-0.03833 0.03816,-0.07458 0.05824,-0.10882c-0.28649,-3.38444 0.25828,-8.96435 2.84553,-11.11612c3.21531,-2.6741 8.57593,-1.32585 11.86057,0.27484c3.12457,1.89563 3.80713,4.55532 4.26885,7.98643l-0.05059,1.13268c0.24203,0.28995 0.29017,0.64775 0.29017,0.64775z" fill="#c9ab5a" stroke="none" stroke-width="0.5"/><path d="M295.36181,173.11905c-3.26643,0.18875 -7.18592,0.3986 -10.32383,-0.86379c-0.27305,-2.59488 0.11445,-7.68421 2.04367,-9.35107c2.40315,-2.07633 7.05221,-0.66085 9.44879,0.51215c2.46189,1.45943 2.77675,3.71845 3.13326,6.36779l-0.06748,0.70301c0,0 -0.02857,0.43069 0.21568,0.77265c-0.00205,0.01632 -0.00387,0.03249 -0.00531,0.04801c-0.89902,1.243 -2.95318,1.72505 -4.44478,1.81124z" data-paper-data="{&quot;noHover&quot;:false,&quot;origItem&quot;:[&quot;Path&quot;,{&quot;applyMatrix&quot;:true,&quot;segments&quot;:[[[479.29333,231.24683],[-1.79803,2.486],[0.00289,-0.03104]],[[479.30375,231.15124],[-0.00409,0.03265],[-0.4885,-0.68392]],[478.86972,229.6123],[[479.00223,228.21375],[0,0],[-0.71304,-5.29868]],[[472.7561,215.5656],[4.92378,2.91885],[-4.79316,-2.34601]],[[453.9942,214.54402],[4.8063,-4.15266],[-3.85843,3.3337]],[[449.91719,233.12891],[-0.54611,-5.18976],[6.27581,2.52476]],[[470.43847,234.83005],[-6.53285,0.37749],[2.9832,-0.17238]]],&quot;closed&quot;:true}]}" fill="#efcc6c" stroke="none" stroke-width="0.5"/><path d="M296.77795,169.96136c-1.25,0 -1.25,-1.25 -1.25,-1.25l0.01256,-0.02564c-0.11644,-2.24994 -4.07644,-3.40612 -6.04958,-3.37995c0,0 -1.25,0 -1.25,-1.25c0,-1.25 1.25,-1.25 1.25,-1.25c3.52827,0.03521 7.82438,1.85241 8.52445,5.52639l0.01256,0.3792c0,0 0,1.25 -1.25,1.25z" fill="#ffda73" stroke="none" stroke-width="0.5"/><text transform="translate(279.80571,187.10043) scale(0.5,0.5)" font-size="40" xml:space="preserve" fill="#ffffff" fill-rule="nonzero" stroke="none" stroke-width="1" stroke-linecap="butt" stroke-linejoin="miter" stroke-miterlimit="10" stroke-dasharray="" stroke-dashoffset="0" font-family="Sans Serif" font-weight="normal" text-anchor="start" style="mix-blend-mode: normal"><tspan x="0" dy="0">16</tspan></text></g></g></svg>