<svg version="1.1" xmlns="http://www.w3.org/2000/svg" xmlns:xlink="http://www.w3.org/1999/xlink" width="35.97396" height="53.92327" viewBox="0,0,35.97396,53.92327"><g transform="translate(-222.3692,-133.76045)"><g data-paper-data="{&quot;isPaintingLayer&quot;:true}" fill-rule="nonzero" stroke="none" stroke-width="0.5" stroke-linecap="butt" stroke-linejoin="miter" stroke-miterlimit="10" stroke-dasharray="" stroke-dashoffset="0" style="mix-blend-mode: normal"><path d="M238.82596,187.06245c-1.19384,1.15804 -4.36624,0.34211 -5.84219,0.34211c-0.88205,-0.14419 -2.16602,-0.15127 -2.79143,-0.92687c-0.66059,-0.81923 -0.3484,-2.57665 -0.26915,-3.50744c0.23256,-2.73142 -0.18663,-5.31735 0.21661,-8.05012c-0.06771,-0.03334 -0.13524,-0.06807 -0.20258,-0.1042c-2.07319,-1.11249 -3.85333,-3.93478 -5.122,-5.84113c-3.99275,-4.99093 -2.48437,-8.88339 1.82406,-12.58295c0.1007,-0.15352 0.25136,-0.24443 0.34198,-0.28843c0.11352,-0.09409 0.22882,-0.18807 0.34585,-0.28196c0,0 0.42909,-0.34327 0.84653,-0.07487c4.38282,-1.11023 9.43373,-0.58947 13.87199,-0.58947c6.1376,0.01662 11.23679,-1.16891 15.50675,4.22078c2.18776,4.34986 -2.0559,8.24696 -4.85142,11.05955c-1.22804,1.23554 -2.59158,2.96536 -3.91897,2.15744c-0.0836,1.43804 -0.53371,2.85341 -0.88348,4.24302c-0.79307,3.15079 -0.67371,10.10721 -5.96505,8.40572c-0.99768,-0.33504 -1.77913,-0.90226 -2.36749,-1.62758c0.00187,1.29284 -0.09649,2.82218 -0.74001,3.4464zM231.41807,183.09399c-0.04664,0.57107 -0.37155,1.97899 -0.01915,2.49256c0.17066,0.24872 1.44881,0.27886 1.70857,0.32313c0.76548,0 4.13763,0.67624 4.65781,0.09211c0.52402,-0.58843 0.28289,-3.26435 0.28289,-4.03153l0.13265,-0.81144c0,0 0.02702,-0.16211 0.13165,-0.32192c-0.8244,-3.99833 1.16034,-9.31277 4.37621,-10.89302c1.14454,-0.18855 2.42489,-0.17952 3.51895,0.27033c0.29605,0.12173 0.72844,0.62542 1.00395,0.84976c0.00299,-0.00229 0.006,-0.00457 0.00904,-0.00685c0.08786,-0.0659 0.1725,-0.10928 0.25299,-0.13532c-0.04198,-2.50266 -0.38539,-5.64478 0.35324,-8.14706c-0.00924,-0.06005 -0.01879,-0.1203 -0.02868,-0.18075l0.08692,-0.00817c0.00577,-0.01793 0.0116,-0.03583 0.01749,-0.05369h-0.10696v-0.10417l-0.1148,-0.01913l0.12297,-0.73784c0.0537,-0.36151 0.36537,-0.63886 0.74182,-0.63886c0.41421,0 0.75,0.33579 0.75,0.75v0.70317c0.5439,3.2061 0.17526,5.77443 0.10494,8.87452c-0.02697,0.09108 2.32553,-2.05753 2.92654,-2.53834c2.20079,-1.76063 5.40428,-5.7266 3.96177,-8.63513c-3.87912,-4.7918 -8.70588,-3.54222 -14.24325,-3.52922c-4.56047,0 -9.91834,-0.63761 -14.31574,0.77175c-3.86368,3.23266 -5.23579,6.24563 -1.70385,10.66056c1.16304,1.7417 2.75317,4.36087 4.628,5.40887c2.60868,1.45822 5.52728,0.03932 5.51659,-2.84118c0.08904,-2.56371 -1.83634,-4.77007 -2.92082,-6.91459l-0.35951,-0.30508c0,0 -0.53033,-0.53033 0,-1.06066c0.53033,-0.53033 1.06066,0 1.06066,0l0.64049,0.69492c1.21716,2.46814 3.01599,4.68039 3.07918,7.58541c-0.01078,3.42527 -2.99654,5.41446 -6.08644,4.76498c-0.33463,2.59352 0.04697,5.06275 -0.16611,7.67188zM247.2939,172.3446c-1.28138,-0.17596 -2.92375,-1.18162 -4.14134,-0.97424c-3.60053,1.84606 -5.39994,10.91175 -0.74476,12.45025c1.31947,0.4611 2.31986,-0.31409 2.97901,-1.5219c0.69837,-1.27967 0.56592,-2.88249 0.79402,-4.26489c0.3095,-1.87565 1.07147,-3.78877 1.11307,-5.68922z" fill="#745d44"/><path d="M239.99699,136.25616c3.28018,-0.17773 6.57297,-0.60872 9.86957,-0.79817c0.58788,-0.03378 2.99865,-0.45075 3.38416,-0.17966c0.43438,0.30545 0.81877,1.27416 1.10587,1.71934c0.57712,1.55252 2.27562,3.24183 2.53027,4.83143c0.22554,1.40795 -1.53311,2.87585 -1.48112,4.31664c0.07114,1.9711 0.45648,4.15428 0.5811,6.19263c-0.20415,1.88741 -0.01798,4.04582 -0.3685,5.8826c-0.07543,0.39526 -2.12029,0.41228 -2.42577,0.46511c-2.73022,0.4721 -5.6115,0.42235 -8.37498,0.46826c-2.79314,0.04683 -6.99337,1.12571 -9.66623,0.34513c-2.19405,-0.64075 -4.29343,-2.37839 -6.39002,-3.33178c-1.54145,-0.43141 -3.3918,-1.22245 -4.81513,-1.91446c-0.21974,-0.10683 0.14402,-0.46863 0.23277,-0.69629c0.27772,-0.71238 0.44801,-1.76231 0.40879,-2.5278c-0.11567,-2.25779 0.74948,-5.08618 -0.84225,-6.87437c0.0096,-1.85735 0.64271,-3.97048 0.84775,-5.8661l0.00825,-0.07551c4.98028,-0.32661 10.53353,-0.88867 15.39546,-1.95702z" data-paper-data="{&quot;noHover&quot;:false,&quot;origItem&quot;:[&quot;Path&quot;,{&quot;applyMatrix&quot;:true,&quot;segments&quot;:[[[447.34125,279.91265],[9.83256,-1.72056],[0,0]],[[447.34125,280.06421],[0,0],[0,3.81336]],[[446.925,291.87784],[-0.38037,-3.69522],[3.54958,3.21331]],[[450.07188,305.32394],[-0.7156,-4.46451],[0.24262,1.51366]],[[449.79702,310.42579],[0.399,-1.47623],[-0.1275,0.47174]],[[449.4824,311.85762],[-0.4599,-0.16517],[2.97897,1.06986]],[[459.45283,314.60844],[-3.15781,-0.5263],[4.37389,1.44482]],[[472.83152,319.83358],[-4.50045,-0.80219],[5.4826,0.97725]],[[491.9052,317.07579],[-5.54382,0.69384],[5.48504,-0.68563]],[[508.42187,314.37403],[-5.32724,1.52591],[0.59606,-0.17073]],[[513.13968,312.93614],[-0.06497,0.80216],[0.30194,-3.72767]],[[512.59636,301.18793],[0,3.79683],[-0.6862,-4.02628]],[[510.10793,289.03725],[0.56538,3.90405],[-0.41327,-2.85367]],[[512.13138,280.15884],[0.75128,2.75106],[-0.84821,-3.10601]],[[506.07775,271.12264],[1.48146,2.96291],[-0.66662,-0.82346]],[[503.51722,267.95003],[0.92942,0.51394],[-0.82487,-0.45612]],[[496.83785,269.0438],[1.16167,-0.19361],[-6.51424,1.08571]],[[477.45283,272.76998],[6.48411,-1.05887],[-9.43769,3.16998]]],&quot;closed&quot;:true}]}" fill="#8c6f52"/><path d="M226.91396,146.48184c-0.43206,0.05054 -0.69325,-0.35967 -0.69325,-0.35967c-1.7297,-2.71649 -3.13739,-3.11718 -2.46808,-6.58397c0.14078,-0.72918 -0.03179,-1.44619 0.77575,-1.9746c0.80177,-0.52463 4.48817,-0.20999 5.5693,-0.27212c5.18709,-1.14439 11.08355,0.02469 16.0634,-1.87349c1.59063,-0.34942 5.0083,-1.43746 6.57268,-0.83845c1.97389,0.75582 2.63986,4.31456 3.88546,5.90504c0.43614,0.5569 0.89396,1.29122 0.75231,1.98426c-0.16068,0.78612 -1.12419,1.92936 -1.61558,2.50963c-5.05541,2.71102 -10.98472,1.47964 -16.42664,2.68025c-2.51492,0.53945 -5.13298,0.43527 -7.62003,1.16874c-0.72859,0.21488 -2.0952,0.72648 -2.8568,0.32725c-0.52804,-0.2768 -1.13574,-1.58051 -1.61437,-2.05031z" fill="#9b7b5b"/><path d="M246.23034,178.04081c-0.22811,1.38239 -0.12596,3.0244 -0.82433,4.30406c-0.65915,1.20781 -1.68709,1.98614 -3.00656,1.52503c-4.65517,-1.5385 -2.84981,-10.70343 0.75072,-12.54949c1.21759,-0.20738 2.89168,0.80772 4.17306,0.98368c-0.0416,1.90045 -0.78339,3.86106 -1.09288,5.73671z" data-paper-data="{&quot;noHover&quot;:false,&quot;origItem&quot;:[&quot;Path&quot;,{&quot;applyMatrix&quot;:true,&quot;segments&quot;:[[[247.2939,172.34458],[-0.0416,1.90045],[-1.28138,-0.17596]],[[243.15256,171.37034],[1.21759,-0.20738],[-3.60053,1.84606]],[[242.4078,183.82059],[-4.65517,-1.5385],[1.31947,0.4611]],[[245.38681,182.29869],[-0.65915,1.20781],[0.69837,-1.27967]],[[246.18083,178.03381],[-0.22811,1.38239],[0.3095,-1.87565]]],&quot;closed&quot;:true}]}" fill="#8c6f52"/><path d="M231.53883,175.44314c3.0899,0.64948 6.07274,-1.37375 6.08352,-4.79902c-0.06319,-2.90502 -1.84214,-5.14542 -3.0593,-7.61356l-0.5832,-0.61296c0,0 -0.52738,-0.53259 -1.05771,-0.00226c-0.53033,0.53033 0.00233,1.05861 0.00233,1.05861l0.35932,0.30526c1.08448,2.14452 3.02515,4.32268 2.93611,6.88639c0.0107,2.88051 -3.00601,4.30168 -5.61469,2.84346c-1.87483,-1.04801 -3.46487,-3.68911 -4.6279,-5.43081c-3.53195,-4.41493 -2.14461,-7.45382 1.71907,-10.68649c4.3974,-1.40935 9.7946,-0.7843 14.35508,-0.7843c5.53737,-0.01301 10.39926,-1.24161 14.27837,3.55019c1.44251,2.90853 -1.75303,6.8928 -3.95382,8.65343c-0.60101,0.48081 -3.05242,2.63986 -3.02545,2.54878c0.07032,-3.10009 0.45343,-5.6333 -0.09047,-8.8394l0.00136,-0.70184c0,-0.41421 -0.33275,-0.74738 -0.74696,-0.74738c-0.37645,0 -0.62644,0.19865 -0.68014,0.56016l-0.12178,0.73879l0.11513,0.01941l0.00022,0.10435l0.10723,0.00023c-0.00589,0.01786 -0.07691,0.11159 -0.08268,0.12952l-0.02185,-0.06777c0.00988,0.06045 0.0199,0.1211 0.02914,0.18115c-0.73863,2.50228 -0.37821,5.67893 -0.33623,8.18159c-0.08049,0.02605 -0.16508,0.07029 -0.25294,0.13618c-0.00304,0.00228 -0.10595,0.00905 -0.10894,0.01134c-0.27551,-0.22434 -0.70702,-0.72062 -1.00306,-0.84235c-1.09405,-0.44984 -2.2825,-0.49429 -3.42704,-0.30574c-3.21587,1.58025 -5.23309,6.87156 -4.40869,10.86989c-0.10463,0.1598 -0.13135,0.32198 -0.13135,0.32198l-0.13285,0.8114c0,0.76718 0.22206,3.54124 -0.30195,4.12968c-0.52018,0.58413 -3.90595,-0.09658 -4.67143,-0.09658c-0.25975,-0.04427 -1.54226,-0.07685 -1.71293,-0.32557c-0.35239,-0.51357 -0.03115,-1.92403 0.01549,-2.49509c0.21308,-2.60913 -0.18364,-5.09715 0.15099,-7.69066z" data-paper-data="{&quot;noHover&quot;:false,&quot;origItem&quot;:[&quot;Path&quot;,{&quot;applyMatrix&quot;:true,&quot;segments&quot;:[[[231.41807,183.09397],[0.21308,-2.60913],[-0.04664,0.57107]],[[231.39892,185.58653],[-0.35239,-0.51357],[0.17066,0.24872]],[[233.10749,185.90966],[-0.25975,-0.04427],[0.76548,0]],[[237.76529,186.00177],[-0.52018,0.58413],[0.52402,-0.58843]],[[238.04818,181.97024],[0,0.76718],[0,0]],[238.18083,181.15881],[[238.31248,180.83689],[-0.10463,0.1598],[-0.8244,-3.99833]],[[242.68869,169.94387],[-3.21587,1.58025],[1.14454,-0.18855]],[[246.20764,170.2142],[-1.09405,-0.44984],[0.29605,0.12173]],[[247.21159,171.06396],[-0.27551,-0.22434],[0.00299,-0.00229]],[[247.22063,171.0571],[-0.00304,0.00228],[0.08786,-0.0659]],[[247.47361,170.92178],[-0.08049,0.02605],[-0.04198,-2.50266]],[[247.82686,162.77472],[-0.73863,2.50228],[-0.00924,-0.06005]],[[247.79818,162.59397],[0.00988,0.06045],[0,0]],[[247.8851,162.5858],[0,0],[0.00577,-0.01793]],[[247.90258,162.5321],[-0.00589,0.01786],[0,0]],[247.79563,162.5321],[247.79563,162.42794],[247.68083,162.40881],[[247.8038,161.67097],[0,0],[0.0537,-0.36151]],[[248.54562,161.0321],[-0.37645,0],[0.41421,0]],[[249.29563,161.7821],[0,-0.41421],[0,0]],[[249.29563,162.48527],[0,0],[0.5439,3.2061]],[[249.40056,171.35979],[0.07032,-3.10009],[-0.02697,0.09108]],[[252.3271,168.82145],[-0.60101,0.48081],[2.20079,-1.76063]],[[256.28887,160.18632],[1.44251,2.90853],[-3.87912,-4.7918]],[[242.04562,156.6571],[5.53737,-0.01301],[-4.56047,0]],[[227.72989,157.42885],[4.3974,-1.40935],[-3.86368,3.23266]],[[226.02604,168.08942],[-3.53195,-4.41493],[1.16304,1.7417]],[[230.65404,173.49829],[-1.87483,-1.04801],[2.60868,1.45822]],[[236.17062,170.6571],[0.0107,2.88051],[0.08904,-2.56371]],[[233.2498,163.74251],[1.08448,2.14452],[0,0]],[232.89029,163.43743],[[232.89029,162.37677],[-0.53033,0.53033],[0.53033,-0.53033]],[233.95096,162.37677],[[234.59145,163.07169],[0,0],[1.21716,2.46814]],[[237.67062,170.6571],[-0.06319,-2.90502],[-0.01078,3.42527]],[[231.58418,175.42208],[3.0899,0.64948],[-0.33463,2.59352]]],&quot;closed&quot;:true}]}" fill="#8c6f52"/><path d="M236.31615,163.31399c-0.54813,-0.51191 -0.03622,-1.06004 -0.03622,-1.06004l0.44285,-0.47364c0.19377,-0.1949 0.38755,-0.38981 0.58132,-0.58472c-0.9015,-0.00529 -1.76038,-0.08656 -2.53236,-0.29636c-2.23969,-0.60869 -4.37185,-2.37748 -6.48753,-3.35453c-1.12624,-0.31521 -4.54984,-1.34647 -5.3081,-2.20821c-1.04343,-1.18581 -0.05958,-2.3444 0.08482,-3.61513c0.24891,-2.19034 0.64796,-5.27397 -0.66593,-7.01912c-0.16693,-2.07205 0.52229,-4.43924 0.75065,-6.55045l0.08065,-0.74565c0,0 0.08065,-0.74565 0.8263,-0.665l-0.00001,-0.00001c0.04781,0.00517 0.09222,0.01307 0.13347,0.02335c5.00975,-0.24799 10.68331,-0.88505 15.60862,-1.94451c3.32084,-0.20019 6.61588,-0.6295 9.95353,-0.8213c1.03466,-0.05946 3.28353,-0.50304 4.18491,-0.0031c0.71528,0.39672 1.29916,1.68612 1.72564,2.36297c0.63433,1.70642 2.44088,3.51124 2.66875,5.29962c0.20156,1.58192 -1.61153,3.01365 -1.47299,4.42807c0.20266,2.06912 0.46828,4.1355 0.5845,6.2739c-0.18738,1.73237 0.26977,4.79035 -0.45863,6.36347c-0.6013,1.29862 -1.69603,1.10929 -2.82864,1.24393c-3.12152,0.37108 -6.17331,0.58758 -9.3272,0.63996c-1.677,0.02759 -3.7056,0.36071 -5.67621,0.51313c0.01758,0.32978 -0.23322,0.58205 -0.23322,0.58205c-0.3762,0.37841 -0.75242,0.75681 -1.12862,1.13521l-0.41034,0.4399c0,0 -0.51191,0.54813 -1.06004,0.03622zM224.64509,138.23773l-0.00815,0.07534c-0.20504,1.89562 -0.83251,3.99283 -0.84211,5.85018c1.59172,1.78819 0.72567,4.59547 0.84134,6.85327c0.03922,0.76549 -0.13323,1.80897 -0.41095,2.52136c-0.08875,0.22765 -0.45312,0.58801 -0.23338,0.69484c1.42333,0.692 3.26695,1.47211 4.8084,1.90353c2.09658,0.9534 4.17556,2.67602 6.36961,3.31677c2.67286,0.78059 6.83668,-0.29851 9.62982,-0.34533c2.76348,-0.04591 5.6255,0.01713 8.35572,-0.45497c0.30548,-0.05282 2.34711,-0.06584 2.42253,-0.4611c0.35052,-1.83679 0.15745,-3.98185 0.3616,-5.86926c-0.12462,-2.03836 -0.51254,-4.20281 -0.58367,-6.17391c-0.052,-1.44079 1.70877,-2.89671 1.48324,-4.30466c-0.25463,-1.58961 -1.94628,-3.26487 -2.52341,-4.81739c-0.2871,-0.44519 -0.66787,-1.40932 -1.10225,-1.71478c-0.38551,-0.27109 -2.79125,0.15079 -3.37913,0.18457c-3.29661,0.18945 -6.55647,0.63225 -9.83665,0.80998c-4.86192,1.06835 -10.37225,1.60497 -15.35253,1.93158z" fill="#745d44"/><path d="M238.888,144.88369c0.08065,-0.74565 0.8263,-0.665 0.8263,-0.665l0.49431,0.06373c1.59414,0.49032 2.01753,1.31275 1.61765,2.61736c3.53775,-0.22153 7.07722,-0.33528 10.511,-1.61329c0,0 0.703,-0.26133 0.96433,0.44167c0.26133,0.703 -0.44167,0.96433 -0.44167,0.96433c-5.46823,2.03038 -11.14749,1.15817 -16.7014,2.3835c-1.85398,0.40294 -5.81429,2.22365 -7.51867,1.00767c-0.94451,-0.67386 -1.78255,-2.59924 -2.53538,-3.53469l-0.05643,0.00948c0,0 -0.63086,-0.4056 -0.22526,-1.03646c0.4056,-0.63086 1.03646,-0.22526 1.03646,-0.22526l0.41379,0.3118c0.736,0.91453 1.41866,2.52912 2.26062,3.27052c0.82115,0.72308 5.27484,-1.04466 6.30631,-1.26884c1.43951,-0.30877 2.88958,-0.47764 4.34275,-0.595c0.01648,-0.05564 0.03186,-0.0892 0.03186,-0.0892c0.40701,-0.85576 0.56334,-0.9706 -0.41022,-1.19911l-0.25134,-0.01692c0,0 -0.74565,-0.08065 -0.665,-0.8263z" fill="#745d44"/><path d="M231.37113,142.31043c-0.74565,-0.08065 -0.665,-0.8263 -0.665,-0.8263l0.02377,-0.12487c-0.0177,-0.32653 0.38741,-0.85664 0.08354,-0.97745c-0.10783,-0.04286 -0.99648,0.02355 -1.53688,0.03591c-0.48998,0.47389 -1.13043,0.89975 -1.77157,1.30922l-0.34575,0.28415c0,0 -0.58428,0.47022 -1.05451,-0.11406c-0.47022,-0.58428 0.11406,-1.05451 0.11406,-1.05451l0.48055,-0.38085c0.44456,-0.28213 1.17403,-0.64216 1.61224,-1.06843c0.05856,-0.17824 0.16461,-0.29017 0.28024,-0.36017c0.14539,-0.28118 0.12463,-0.58579 -0.19282,-0.9112c0,0 -0.47022,-0.58428 0.11406,-1.05451c0.58428,-0.47022 1.05451,0.11406 1.05451,0.11406c0.50349,0.6921 0.64931,1.29492 0.5544,1.83317c1.30846,0.12179 1.98895,0.32575 2.10547,2.25861l-0.02999,0.37223c0,0 -0.08065,0.74565 -0.8263,0.665z" fill="#745d44"/><path d="M251.21185,141.0923c-0.47022,-0.58428 0.11406,-1.05451 0.11406,-1.05451l0.58638,-0.37027c1.52576,-0.2954 1.97268,-0.22132 3.41091,-1.13895c0,0 0.63264,-0.40282 1.03546,0.22981c0.40282,0.63264 -0.22981,1.03546 -0.22981,1.03546c-1.46688,0.93227 -2.39351,0.95488 -3.89799,1.33945l0.03551,0.07306c0,0 -0.58428,0.47022 -1.05451,-0.11406z" fill="#745d44"/><path d="M226.76558,153.2231c0.58428,-0.47022 1.05451,0.11406 1.05451,0.11406l0.39092,1.54988c-0.27649,0.25693 -0.49261,0.60572 -0.57887,0.97317c0,0 -0.20214,0.72224 -0.92438,0.5201c-0.72224,-0.20214 -0.52011,-0.92438 -0.52011,-0.92438c0.18505,-0.60167 0.52685,-1.16933 0.95961,-1.62646l-0.49575,0.44814c0,0 -0.47022,-0.58428 0.11406,-1.05451z" fill="#745d44"/><path d="M254.09629,155.10877c-0.47022,-0.58428 0.11406,-1.05451 0.11406,-1.05451l0.96403,-0.49387c0.24855,0.02688 0.4971,0.05377 0.74565,0.08065c0,0 0.74565,0.08065 0.665,0.8263c-0.08065,0.74565 -0.8263,0.665 -0.8263,0.665c-0.24855,-0.02688 -0.4971,-0.05377 -0.74565,-0.08065l0.13773,0.17113c0,0 -0.58428,0.47022 -1.05451,-0.11406z" fill="#745d44"/><path d="M236.9521,171.49278c-0.58565,-0.46852 -0.11713,-1.05417 -0.11713,-1.05417c0.33333,-0.41667 1.16667,-1.45833 1.5,-1.875c0,0 0.46852,-0.58565 1.05417,-0.11713c0.58565,0.46852 0.11713,1.05417 0.11713,1.05417c-0.33333,0.41667 -0.66667,0.83333 -1,1.25l-0.5,0.625c0,0 -0.46852,0.58565 -1.05417,0.11713z" fill="#745d44"/><path d="M228.32596,166.00178c0.53033,0.53033 0,1.06066 0,1.06066l-0.54316,0.43118c-0.7739,0.25577 -1.47615,0.61513 -2.25,0.875c0,0 -0.71151,0.23717 -0.94868,-0.47434c-0.23717,-0.71151 0.47434,-0.94868 0.47434,-0.94868c0.7739,-0.25577 1.47615,-0.61513 2.25,-0.875l-0.04316,-0.06882c0,0 0.53033,-0.53033 1.06066,0z" fill="#745d44"/><path d="M250.04659,167.36609c0.41603,-0.62404 1.04006,-0.20801 1.04006,-0.20801l0.6298,0.53863c0.21698,0.44 0.48115,0.86058 0.78983,1.24189c0,0 0.46852,0.58565 -0.11713,1.05417c-0.58565,0.46852 -1.05417,-0.11713 -1.05417,-0.11713c-0.37007,-0.46711 -0.69123,-0.9763 -0.96017,-1.50811l-0.1202,0.03863c0,0 -0.62404,-0.41603 -0.20801,-1.04006z" fill="#745d44"/><path d="M244.51529,175.06243c-0.53033,-0.53033 0,-1.06066 0,-1.06066l-0.01549,0.06992c0.41506,-0.82673 0.90912,-1.56162 1.42178,-2.33061c0,0 0.41603,-0.62404 1.04006,-0.20801c0.62404,0.41603 0.20801,1.04006 0.20801,1.04006c-0.47813,0.71719 -0.94396,1.39735 -1.32822,2.16939l-0.26549,0.31992c0,0 -0.53033,0.53033 -1.06066,0z" fill="#745d44"/><path d="M234.60818,150.24929c-0.70845,-0.25635 -1.07136,-0.81358 -0.04732,-1.91445c0.83095,-0.8933 3.15022,-0.54683 4.72949,-0.03686l0.11746,-0.35239l0.7336,0.24453c0.30647,0.09425 0.52923,0.3796 0.52923,0.71698c0,0.33738 -0.22277,0.62273 -0.52923,0.71698l-0.7336,0.24453c-1.86843,0.6175 -4.37427,2.90219 -4.79963,0.38067z" fill="#000000"/><path d="M252.20097,150.56245c-0.38067,0.38067 -0.76136,0.21485 -0.94589,0.09094l-0.71114,0.11852l-0.04997,-0.29978l-0.09557,-0.03185c-1.31558,0.27469 -2.98405,0.30843 -3.09602,-1.04349c-0.22751,-0.02913 -0.54459,-0.15466 -0.62154,-0.61637c-0.1233,-0.73979 0.6165,-0.8631 0.6165,-0.8631c0.97049,-0.16175 4.75832,-2.04005 5.29163,-0.47554c0.39278,1.15224 0.00043,1.67772 -0.58086,1.87488c0.00205,0.00161 0.00407,0.00322 0.00605,0.00481l0.18681,0.18032c0,0 0.53033,0.53033 0,1.06066z" fill="#000000"/><path d="M239.04421,144.82644c0.11129,-0.7417 0.85298,-0.63041 0.85298,-0.63041l0.49128,0.08403c1.57259,0.55554 1.96176,1.39471 1.50849,2.68176c3.54387,-0.07567 7.08501,-0.04358 10.56851,-1.17912c0,0 0.71317,-0.23215 0.94533,0.48101c0.23215,0.71316 -0.48101,0.94533 -0.48101,0.94533c-5.5472,1.8035 -11.18572,0.69818 -16.78538,1.69377c-1.869,0.32626 -5.90093,1.98236 -7.5538,0.69722c-0.91596,-0.71218 -1.67401,-2.67043 -2.38768,-3.63609l-0.05676,0.00714c0,0 -0.61362,-0.43123 -0.18239,-1.04486c0.43124,-0.61362 1.04486,-0.18239 1.04486,-0.18239l0.4006,0.32857c0.69772,0.94406 1.31332,2.58539 2.12404,3.36082c0.79069,0.75627 5.31338,-0.82658 6.35321,-1.00808c1.451,-0.24923 2.9068,-0.35826 4.36357,-0.41568c0.01876,-0.05491 0.0355,-0.08781 0.0355,-0.08781c0.44189,-0.83828 0.60283,-0.94658 -0.3605,-1.21498l-0.25043,-0.02725c0,0 -0.7417,-0.11128 -0.63041,-0.85298z" fill="#745d44"/><path d="M255.04564,150.90712c0,0.75 -0.75,0.75 -0.75,0.75h-0.25c-3.57414,0 -6.61778,-0.22789 -8.96065,-3.15648c0,0 -0.46852,-0.58565 0.11713,-1.05417c0.58565,-0.46852 1.05417,0.11713 1.05417,0.11713c2.02397,2.52996 4.67815,2.59352 7.78935,2.59352h0.25c0,0 0.75,0 0.75,0.75z" fill="#745d44"/><path d="M233.42064,151.78212c0,-0.75 0.75,-0.75 0.75,-0.75h0.25c2.32417,0.00863 4.17316,-1.449 5.90648,-2.83565c0,0 0.58565,-0.46852 1.05417,0.11713c0.46852,0.58565 -0.11713,1.05417 -0.11713,1.05417c-2.02371,1.61897 -4.14577,3.15586 -6.84352,3.16435h-0.25c0,0 -0.75,0 -0.75,-0.75z" fill="#745d44"/><path d="M249.95153,156.79309c0.43204,0.34663 -1.16511,0.12319 -1.74916,0.15973c-1.08407,0.06784 -2.18466,-0.00077 -3.26631,0.15435c-1.05157,0.13386 -2.12362,0.07556 -3.18507,0.07556c-0.48597,0 -1.78249,0.39416 -1.45599,0.07846c0.75323,-0.7283 1.28176,-1.25491 1.42333,-2.17446c3.02288,-0.03263 5.84931,-0.20627 8.23319,1.70637z" data-paper-data="{&quot;noHover&quot;:false,&quot;origItem&quot;:[&quot;Path&quot;,{&quot;applyMatrix&quot;:true,&quot;segments&quot;:[[[241.6385,154.77809],[2.89304,-0.03561],[-0.13547,1.00341]],[[240.27816,157.12121],[0.72088,-0.79471],[-0.31249,0.34449]],[[241.67062,157.0321],[-0.4651,0],[1.01585,0]],[[244.68093,156.91593],[-1.0064,0.14607],[1.03519,-0.16926]],[[247.74902,156.78355],[-1.03751,0.07403],[0.55896,-0.03989]],[[249.42177,156.61563],[0.41348,0.37824],[-2.28149,-2.08705]]],&quot;closed&quot;:true}]}" fill="#000000"/><path d="M246.12848,156.69768c0,-0.3796 0.35086,-0.68732 0.78366,-0.68732c0.4328,0 0.78366,0.30772 0.78366,0.68732c0,0.3796 -0.35086,0.68732 -0.78366,0.68732c-0.4328,0 -0.78366,-0.30772 -0.78366,-0.68732z" fill="#9ce6c9"/><path d="M241.81835,157.15589c0,-0.3796 0.35086,-0.68732 0.78366,-0.68732c0.4328,0 0.78366,0.30772 0.78366,0.68732c0,0.3796 -0.35086,0.68732 -0.78366,0.68732c-0.4328,0 -0.78366,-0.30772 -0.78366,-0.68732z" fill="#e4e6c8"/><path d="M244.43055,155.43758c0,-0.3796 0.35086,-0.68732 0.78366,-0.68732c0.4328,0 0.78366,0.30772 0.78366,0.68732c0,0.3796 -0.35086,0.68732 -0.78366,0.68732c-0.4328,0 -0.78366,-0.30772 -0.78366,-0.68732z" fill="#e4e6c8"/><path d="M241.29591,155.32303c0,-0.3796 0.35086,-0.68732 0.78366,-0.68732c0.4328,0 0.78366,0.30772 0.78366,0.68732c0,0.3796 -0.35086,0.68732 -0.78366,0.68732c-0.4328,0 -0.78366,-0.30772 -0.78366,-0.68732z" fill="#e5c69b"/><path d="M240.51921,153.98272c0.22844,-0.25067 0.62846,-0.25067 0.62846,-0.25067c2.74433,0 5.51975,-0.37015 7.96873,0.89473c0.6296,0.32519 2.47576,1.44289 2.34827,2.23624c-0.33435,2.08065 -4.69578,1.32119 -6.27885,1.55766c-1.39823,0.17277 -5.85054,0.76228 -6.37087,-0.87546c-0.34643,-1.09039 1.51417,-1.78604 1.41847,-2.78219v-0.22911c0,0 0,-0.35085 0.28581,-0.55121zM241.76716,155.10302c-0.14155,0.91956 -0.66816,1.41901 -1.42139,2.14731c-0.32651,0.3157 0.96898,-0.08166 1.45495,-0.08166c1.06144,0 2.09385,0.02739 3.14541,-0.10647c1.08165,-0.15512 2.12171,-0.05346 3.20579,-0.12131c0.58405,-0.03656 2.17986,0.19274 1.74782,-0.15389c-2.38388,-1.91264 -5.1097,-1.71662 -8.13258,-1.68398z" fill="#745d44"/><path d="M249.84091,148.81361c0,-0.41421 0.33579,-0.75 0.75,-0.75c0.41421,0 0.75,0.33579 0.75,0.75c0,0.41421 -0.33579,0.75 -0.75,0.75c-0.41421,0 -0.75,-0.33579 -0.75,-0.75z" fill="#e4e6c8"/></g></g></svg>