<svg version="1.1" xmlns="http://www.w3.org/2000/svg" xmlns:xlink="http://www.w3.org/1999/xlink" width="52.75" height="52.75" viewBox="0,0,52.75,52.75"><g transform="translate(-213.625,-153.625)"><g data-paper-data="{&quot;isPaintingLayer&quot;:true}" fill-rule="nonzero" stroke-linejoin="miter" stroke-miterlimit="10" stroke-dasharray="" stroke-dashoffset="0" style="mix-blend-mode: normal"><path d="M214.875,205.125v-50.25h50.25v50.25z" fill="#7f7f7f" stroke="#5e5e5e" stroke-width="2.5" stroke-linecap="butt"/><path d="M239.56257,170.87502l0.375,9.25l-7.625,8.875" fill="none" stroke="#704f39" stroke-width="1.5" stroke-linecap="round"/><path d="M240.06257,179.75002l8.875,8.25" fill="none" stroke="#704f39" stroke-width="1.5" stroke-linecap="round"/><path d="M224.14912,172.90536c-0.00634,-0.1767 0.03543,-0.30864 0.10047,-0.4071c-0.02559,-1.05156 -0.01391,-2.16337 0.11618,-3.18898c0,0 0.08672,-0.66705 0.75377,-0.58033c0.66705,0.08672 0.58033,0.75376 0.58033,0.75376c-0.14437,1.07964 -0.13734,2.28242 -0.09424,3.37039l-0.76014,0.70038c0,0 -0.67223,0.02413 -0.69636,-0.64811z" fill="#b36f00" stroke="none" stroke-width="0.5" stroke-linecap="butt"/><path d="M252.05635,179.24632c-0.11129,-0.02287 -0.22691,-0.02924 -0.33983,-0.02499c-0.72569,-0.34121 -1.54142,-0.47298 -2.34243,-0.28612c-0.11952,-0.18932 -0.23358,-0.4487 -0.33277,-0.74419c0.05683,-1.60812 -0.23677,-3.33375 -0.95226,-4.61413c0.01025,-0.36501 0.07805,-0.71641 0.17326,-1.04745c0.56799,-0.51991 0.83605,-1.35753 0.9165,-2.25724c0.0448,-0.11639 0.0903,-0.23624 0.13154,-0.35771c0.03121,-0.09195 0.11481,-1.43507 0.34698,-1.50653c0.03228,-0.00994 0.06592,-0.01935 0.09959,-0.02784c1.0282,0.17184 2.49613,0.33365 3.59354,0.73801c0.56599,0.32094 1.06162,0.72586 1.35594,1.17283c0.00325,0.30232 -0.06718,0.61654 0.33092,0.86492c0.92356,3.04399 -0.08733,6.73372 -0.8566,9.96168c-0.55623,-0.78038 -1.1588,-1.67288 -2.12438,-1.87124z" data-paper-data="{&quot;noHover&quot;:false,&quot;origItem&quot;:[&quot;Path&quot;,{&quot;applyMatrix&quot;:true,&quot;segments&quot;:[[[477.95227,392.11227],[1.72653,-1.2593],[7.2165,1.63665]],[[500.01839,393.74947],[-6.76501,2.13355],[0.54413,-0.89374]],[[501.92949,393.00282],[-0.67403,0.0146],[0.98949,-0.66716]],[[504.49904,389.97879],[-0.70185,1.26986],[0.8749,-2.45688]],[[506.0584,382.00509],[-0.35811,2.2969],[-0.01975,-0.07486]],[[505.99438,381.78517],[0.02294,0.07173],[-0.16503,-0.51593]],[[502.63247,381.06186],[0.20579,0.06736],[-0.27189,-0.089]],[[501.83423,380.782],[0.26062,0.09705],[-2.00815,-0.15746]],[[496.81208,378.82764],[1.17313,1.25384],[-0.74047,-0.20424]],[[494.49559,378.47748],[0.81416,0.01395],[-2.83757,1.62661]],[[484.33892,380.67863],[3.58719,0.08752],[-0.65645,0.2284]],[[482.69588,381.42621],[0.41925,-0.27111],[0.43619,1.78157]],[[482.12742,386.60761],[0.74313,-1.62647],[0.01223,0.25168]],[[482.07966,387.35843],[0.04827,-0.2487],[-0.41879,2.15789]]],&quot;closed&quot;:true}]}" fill="#c48c00" stroke="none" stroke-width="0.5" stroke-linecap="butt"/><path d="M248.62508,172.18372c0.14739,-1.39017 1.86706,-1.91016 2.40059,-2.73629c0.41057,-0.63572 -0.14265,-2.07493 0.50133,-2.34026c0.22401,-0.0923 0.46706,0.17826 0.70334,0.20421c0.68519,0.07519 1.4214,-0.30946 2.08508,-0.09913c0.59322,0.188 -0.10589,2.82611 -0.12223,2.91521c0.10165,3.15699 -3.17884,2.08785 -5.12885,2.217l-0.34056,0.45252c-0.0711,-0.2291 -0.11632,-0.44718 -0.09871,-0.61325z" data-paper-data="{&quot;noHover&quot;:false,&quot;origItem&quot;:[&quot;Path&quot;,{&quot;applyMatrix&quot;:true,&quot;segments&quot;:[[[470.68621,56.41358],[0.21884,-0.08207],[0,0]],[[471.1226,56.78851],[0,0],[0.14421,2.17251]],[[473.27154,62.39121],[-3.02476,0.15181],[0.08557,0.01711]],[[476.03153,62.50451],[-0.17397,0.66367],[0.19463,-0.7425]],[[475.89956,60.20553],[-0.06488,0.76484],[0.02237,-0.26375]],[[476.08625,59.43369],[0.09081,0.24863],[-0.26106,-0.71474]],[[473.8573,58.9409],[0.61361,0.44999],[-0.79739,-0.58477]],[[471.26765,56.30007],[1.33395,0.14739],[-0.15935,-0.01761]]],&quot;closed&quot;:true}]}" fill="#474747" stroke="none" stroke-width="0.5" stroke-linecap="butt"/><path d="M241.37015,169.58915c-0.1878,-0.96769 -1.07365,-1.57999 -1.8479,-2.14471c3.23618,-0.73395 6.93674,-1.70444 9.97045,-0.74766c0.24401,0.40079 0.55898,0.33381 0.86125,0.34036c0.44373,0.29918 0.8432,0.79922 1.15794,1.36868c0.39234,1.10177 0.53808,2.57137 0.69868,3.6014c-0.00885,0.03357 -0.01864,0.0671 -0.02892,0.09928c-0.074,0.23137 -1.41795,0.30028 -1.51023,0.33048c-0.12192,0.03991 -0.24226,0.08409 -0.35913,0.12762c-0.90053,0.07061 -1.74104,0.3295 -2.26712,0.89177c-0.33206,0.09159 -0.68418,0.15554 -1.04928,0.1618c-1.27249,-0.72944 -2.9948,-1.04189 -4.60345,-1.00264c-0.29438,-0.10242 -0.5525,-0.21931 -0.7405,-0.34089c0.1956,-0.79893 0.07276,-1.61605 -0.2605,-2.34542c0.00548,-0.11286 0.00038,-0.22855 -0.02127,-0.34008z" data-paper-data="{&quot;noHover&quot;:false,&quot;origItem&quot;:[&quot;Path&quot;,{&quot;applyMatrix&quot;:true,&quot;segments&quot;:[[[477.95227,392.11227],[1.72653,-1.2593],[7.2165,1.63665]],[[500.01839,393.74947],[-6.76501,2.13355],[0.54413,-0.89374]],[[501.92949,393.00282],[-0.67403,0.0146],[0.98949,-0.66716]],[[504.49904,389.97879],[-0.70185,1.26986],[0.8749,-2.45688]],[[506.0584,382.00509],[-0.35811,2.2969],[-0.01975,-0.07486]],[[505.99438,381.78517],[0.02294,0.07173],[-0.16503,-0.51593]],[[502.63247,381.06186],[0.20579,0.06736],[-0.27189,-0.089]],[[501.83423,380.782],[0.26062,0.09705],[-2.00815,-0.15746]],[[496.81208,378.82764],[1.17313,1.25384],[-0.74047,-0.20424]],[[494.49559,378.47748],[0.81416,0.01395],[-2.83757,1.62661]],[[484.33892,380.67863],[3.58719,0.08752],[-0.65645,0.2284]],[[482.69588,381.42621],[0.41925,-0.27111],[0.43619,1.78157]],[[482.12742,386.60761],[0.74313,-1.62647],[0.01223,0.25168]],[[482.07966,387.35843],[0.04827,-0.2487],[-0.41879,2.15789]]],&quot;closed&quot;:true}],&quot;index&quot;:null}" fill="#c48c00" stroke="none" stroke-width="0.5" stroke-linecap="butt"/><path d="M233.12616,165.99309c0.67266,0 0.67266,0.67266 0.67266,0.67266l-0.67266,0.78477c-1.08881,-0.00404 -2.29107,0.03206 -3.36484,0.21506c0,0 -0.66351,0.11059 -0.77409,-0.55292c-0.11059,-0.66351 0.55292,-0.7741 0.55292,-0.7741c1.02029,-0.16679 2.13097,-0.21834 3.18277,-0.23048c0.09607,-0.06853 0.22642,-0.11501 0.40324,-0.11501z" data-paper-data="{&quot;index&quot;:null}" fill="#b36f00" stroke="none" stroke-width="0.5" stroke-linecap="butt"/><path d="M240.5035,164.86924c2.98258,0.56643 4.86516,-0.4652 6.82167,1.30405c0.68834,-0.47615 1.64178,-0.76985 2.9319,-0.80771c4.15255,-0.71396 5.8288,0.60149 5.60701,4.1916c-0.03863,0.62529 0.19103,1.33991 -0.19477,1.87104c-0.58227,0.80163 -2.17334,0.51637 -3.04165,1.096c-1.33515,0.89129 -1.6309,2.54484 -3.85801,2.75807c-1.08894,0.10425 -2.08909,-0.57566 -3.15627,-0.78906c-2.28188,-0.45629 -4.07337,0.05849 -5.60703,-0.83414c-2.49491,1.97342 -5.13342,-0.76375 -7.5096,-0.19117c-1.21173,0.29198 -2.69432,0.61086 -3.77475,0.05616c-0.71923,-0.36926 -0.9894,-1.18653 -1.60576,-1.6679c-0.7968,0.3855 -1.5065,-0.22462 -1.5065,-0.22462l-0.54245,-1.55044c0.77716,-1.30362 0.62233,-3.0072 2.37225,-3.83365c0.92124,-0.43509 2.16051,0.23786 3.15253,-0.06083c0.92042,-0.27713 1.6186,-0.94699 2.49814,-1.30919c1.23658,-0.02071 3.53917,-0.21373 5.28161,0.06837c0.5241,-0.54639 1.39385,-0.29716 1.39385,-0.29716l0.73787,0.22057zM245.13056,171.99258l0.80873,-0.37348c-0.20945,-1.18702 -0.26121,-2.3586 -0.0057,-3.36132c-1.10593,-1.63414 -2.70881,-1.14974 -4.57345,-1.1094c0.08139,0.18743 0.14565,0.37893 0.19079,0.57148c0.10973,0.46804 -0.51208,0.8594 -0.63027,1.32592c-0.18223,0.71922 0.02661,1.55076 0.0686,2.35613c0.78232,1.12151 2.3736,0.87629 3.86539,0.83596c0.13796,-0.15634 0.27591,-0.24528 0.27591,-0.24528zM247.81686,172.95812c0.22831,0.07361 0.44036,0.1176 0.60661,0.10181c1.39168,-0.13219 1.86985,-1.84405 2.70175,-2.36852c0.64018,-0.40359 2.05308,0.19906 2.32544,-0.44197c0.09475,-0.223 -0.17143,-0.4557 -0.19477,-0.69225c-0.06768,-0.68597 0.34073,-1.39598 0.13768,-2.06192c-0.18148,-0.59523 -2.79019,0.08627 -2.87946,0.10162c-3.1557,-0.13616 -2.09151,3.07648 -2.24197,5.02497l-0.45528,0.33627zM228.50703,169.94196c0.72517,0.48681 1.18919,1.20733 1.79815,1.80024c0.37032,0.36056 1.04182,-0.37057 1.59234,-0.4565c0.6855,-0.10698 1.40509,-0.10927 2.09011,0c0.77127,0.12303 3.51164,1.55808 4.36304,0.6305c0.01336,-0.01456 0.02592,-0.02936 0.0377,-0.0444c-0.06406,-0.21799 -0.10068,-0.552 0.12008,-0.85378c-0.05822,-0.31685 -0.16427,-0.64823 -0.16112,-0.94817c0.00322,-0.30571 0.64324,-2.53233 0.25471,-2.6722c-1.39535,-0.50232 -3.42295,-0.30045 -4.91258,-0.33795c-0.79173,0.36824 -1.41609,1.01604 -2.2726,1.2541c-0.89181,0.24787 -1.92687,-0.32852 -2.81089,-0.06083c-0.17918,0.05425 -0.45825,0.76588 -0.70755,1.46648c0.35304,0.05771 0.60862,0.22249 0.60862,0.22249z" data-paper-data="{&quot;index&quot;:null}" fill="#5d594e" stroke="none" stroke-width="0.5" stroke-linecap="butt"/><path d="M245.15879,172.03032c0,0 -0.14325,0.09151 -0.2812,0.24784c-1.4918,0.04033 -3.14596,0.27408 -3.92829,-0.84743c-0.04199,-0.80537 -0.26091,-1.67835 -0.07869,-2.39757c0.11819,-0.46651 0.75718,-0.88006 0.64743,-1.3481c-0.04515,-0.19254 -0.10623,-0.38609 -0.18763,-0.57352c1.86463,-0.04035 3.54105,-0.51223 4.64698,1.1219c-0.25551,1.00272 -0.20861,2.22848 0.00084,3.41549l-0.81946,0.38137z" data-paper-data="{&quot;noHover&quot;:false,&quot;origItem&quot;:[&quot;Path&quot;,{&quot;applyMatrix&quot;:true,&quot;segments&quot;:[[[467.8469,57.21665],[0.13223,0.17431],[-1.42989,-0.04497]],[[464.14189,58.14872],[0.74987,-1.25045],[-0.04025,0.89796]],[[464.07613,60.77574],[-0.17466,-0.80191],[0.11329,0.52015]],[[464.68025,62.2541],[0.10519,-0.52185],[-0.04327,0.21468]],[[464.49737,62.89127],[0.07802,-0.20898],[1.78727,0.04498]],[[468.88106,61.65433],[-1.06004,1.82201],[-0.2449,-1.11801]],[[468.88653,57.90654],[-0.20076,1.32349],[0,0]],[468.11136,57.49013]],&quot;closed&quot;:true}],&quot;index&quot;:null}" fill="#787265" stroke="none" stroke-width="0.5" stroke-linecap="butt"/><path d="M228.455,169.94524c0,0 -0.25572,-0.16729 -0.60876,-0.22499c0.2493,-0.7006 0.53118,-1.42754 0.71035,-1.48179c0.88402,-0.26769 1.92795,0.29494 2.81976,0.04707c0.85652,-0.23806 1.52786,-0.90207 2.31958,-1.27032c1.48964,0.03751 3.55753,-0.13969 4.95288,0.36263c0.38853,0.13987 -0.24637,2.39076 -0.24959,2.69647c-0.00316,0.29994 0.10083,0.6401 0.15905,0.95696c-0.22076,0.30178 -0.18755,0.64299 -0.12348,0.86098c-0.01177,0.01503 -0.02459,0.03027 -0.03796,0.04484c-0.8514,0.92758 -3.62063,-0.48605 -4.39188,-0.60907c-0.68501,-0.10927 -1.45294,-0.1132 -2.13843,-0.00622c-0.55051,0.08592 -1.23147,0.80929 -1.6018,0.44873c-0.60896,-0.59291 -1.08455,-1.33845 -1.8097,-1.82526z" data-paper-data="{&quot;noHover&quot;:false,&quot;origItem&quot;:[&quot;Path&quot;,{&quot;applyMatrix&quot;:true,&quot;segments&quot;:[[[451.5942,60.0246],[0.33839,-0.06434],[0.23895,0.78115]],[[452.27239,61.65969],[-0.17174,-0.06049],[0.84734,0.29847]],[[454.96666,61.59187],[-0.85481,-0.27637],[0.82098,0.26543]],[[457.14496,62.99016],[-0.75887,-0.41059],[1.42783,-0.04182]],[[461.85371,62.61336],[-1.33745,0.56007],[0.37241,-0.15595]],[[461.60957,59.63393],[0.00309,0.34086],[-0.00303,-0.33442]],[[461.764,58.57674],[-0.05581,0.35329],[-0.2116,-0.33648]],[[461.6489,57.6248],[-0.06141,0.24305],[-0.01129,-0.01676]],[[461.61277,57.5753],[0.01281,0.01624],[-0.81608,-1.03423]],[[457.43076,58.27829],[0.73926,-0.13717],[-0.65659,0.12183]],[[455.42738,58.27829],[0.65705,0.11928],[-0.52767,-0.0958]],[[453.90111,57.76931],[0.35496,-0.40202],[-0.5837,0.66108]],[[452.17757,59.77653],[0.69507,-0.54278],[0,0]]],&quot;closed&quot;:true}],&quot;index&quot;:null}" fill="#8e8878" stroke="none" stroke-width="0.5" stroke-linecap="butt"/><path d="M230.614,184.71372l-0.35174,0.83261c-1.19376,-0.16674 -2.42042,-0.16965 -3.41332,0.12165c-1.67274,-1.04661 -1.2613,-2.73887 -1.28784,-4.60375c0.19023,0.07463 0.38584,0.12872 0.57988,0.16694c0.47167,0.09289 0.86203,-0.56052 1.32401,-0.69536c0.71222,-0.2079 1.5925,-0.02043 2.39885,-0.00735c1.14884,0.74161 0.97457,2.40308 0.98777,3.89538c-0.15129,0.14347 -0.2376,0.28991 -0.2376,0.28991z" data-paper-data="{&quot;noHover&quot;:false,&quot;origItem&quot;:[&quot;Path&quot;,{&quot;applyMatrix&quot;:true,&quot;segments&quot;:[[[467.8469,57.21665],[0.13223,0.17431],[-1.42989,-0.04497]],[[464.14189,58.14872],[0.74987,-1.25045],[-0.04025,0.89796]],[[464.07613,60.77574],[-0.17466,-0.80191],[0.11329,0.52015]],[[464.68025,62.2541],[0.10519,-0.52185],[-0.04327,0.21468]],[[464.49737,62.89127],[0.07802,-0.20898],[1.78727,0.04498]],[[468.88106,61.65433],[-1.06004,1.82201],[-0.2449,-1.11801]],[[468.88653,57.90654],[-0.20076,1.32349],[0,0]],[468.11136,57.49013]],&quot;closed&quot;:true}]}" fill="#827c6d" stroke="none" stroke-width="0.5" stroke-linecap="butt"/><path d="M227.9312,168.09549c0.51251,0.70723 1.27461,1.15578 1.88899,1.74307c0.37361,0.35716 -0.32487,1.06362 -0.391,1.61686c-0.08232,0.68889 -0.05085,1.45618 0.08292,2.13683c0.1506,0.76635 1.66264,3.48309 0.7662,4.36721c-0.01408,0.01387 -0.02884,0.02724 -0.04345,0.03954c-0.22015,-0.05621 -0.56233,-0.07716 -0.85599,0.15428c-0.31874,-0.04683 -0.66242,-0.13854 -0.96204,-0.12463c-0.3054,0.01418 -2.53207,0.72941 -2.68579,0.34614c-0.55204,-1.37643 -0.44911,-3.44934 -0.54002,-4.93669c0.33962,-0.80442 0.97912,-1.49914 1.18631,-2.36365c0.21573,-0.90013 -0.38398,-1.9232 -0.14817,-2.81627c0.04779,-0.181 0.76415,-0.48877 1.45536,-0.76303c0.07033,0.35074 0.24668,0.6003 0.24668,0.6003z" data-paper-data="{&quot;noHover&quot;:false,&quot;origItem&quot;:[&quot;Path&quot;,{&quot;applyMatrix&quot;:true,&quot;segments&quot;:[[[451.5942,60.0246],[0.33839,-0.06434],[0.23895,0.78115]],[[452.27239,61.65969],[-0.17174,-0.06049],[0.84734,0.29847]],[[454.96666,61.59187],[-0.85481,-0.27637],[0.82098,0.26543]],[[457.14496,62.99016],[-0.75887,-0.41059],[1.42783,-0.04182]],[[461.85371,62.61336],[-1.33745,0.56007],[0.37241,-0.15595]],[[461.60957,59.63393],[0.00309,0.34086],[-0.00303,-0.33442]],[[461.764,58.57674],[-0.05581,0.35329],[-0.2116,-0.33648]],[[461.6489,57.6248],[-0.06141,0.24305],[-0.01129,-0.01676]],[[461.61277,57.5753],[0.01281,0.01624],[-0.81608,-1.03423]],[[457.43076,58.27829],[0.73926,-0.13717],[-0.65659,0.12183]],[[455.42738,58.27829],[0.65705,0.11928],[-0.52767,-0.0958]],[[453.90111,57.76931],[0.35496,-0.40202],[-0.5837,0.66108]],[[452.17757,59.77653],[0.69507,-0.54278],[0,0]]],&quot;closed&quot;:true}]}" fill="#8e8878" stroke="none" stroke-width="0.5" stroke-linecap="butt"/><path d="M223.29059,180.3183l-0.24689,-0.72949c0,0 -0.28027,-0.86025 0.24697,-1.4036c-0.3444,-1.7312 -0.2341,-4.03924 -0.25775,-5.27576c0.33042,-0.89197 0.97481,-1.61373 1.21876,-2.54349c0.26292,-1.0021 -0.45405,-2.21643 -0.05228,-3.15269c0.76316,-1.77843 2.4712,-1.6848 3.74611,-2.50821l1.5689,0.4865c0,0 0.63517,0.68736 0.2785,1.49748c0.50316,0.59871 1.3296,0.83938 1.72441,1.54491c0.59309,1.05984 0.32759,2.55291 0.07925,3.77433c-0.48699,2.39519 2.34304,4.93383 0.46038,7.49792c0.94706,1.50066 0.49686,3.30947 1.0347,5.57351c0.25153,1.05883 0.96688,2.03396 0.90175,3.12593c-0.13321,2.23333 -1.7751,2.58819 -2.61793,3.95445c-0.54811,0.88854 -0.20597,2.46836 -0.9862,3.079c-0.51695,0.40459 -1.23935,0.20071 -1.86285,0.26175c-3.57985,0.3504 -4.95457,-1.27758 -4.39,-5.45307c-0.00844,-1.29065 0.25089,-2.25401 0.70204,-2.95899c-1.83828,-1.8918 -0.87484,-3.81016 -1.54787,-6.77051zM230.81052,184.40236c-0.01319,-1.49227 0.17479,-3.09132 -0.97405,-3.83292c-0.80635,-0.01309 -1.64486,-0.19196 -2.35707,0.01595c-0.46198,0.13485 -0.83078,0.77029 -1.30246,0.67742c-0.19404,-0.03821 -0.38772,-0.09555 -0.57795,-0.17017c0.02656,1.86489 -0.40004,3.48411 1.27271,4.53072c0.99291,-0.2913 2.1656,-0.28159 3.35937,-0.11485l0.34423,-0.8216c0,0 0.08394,-0.14105 0.23523,-0.28453zM231.63655,187.33684l-0.31972,0.46704c-1.94184,0.22024 -5.19058,-0.72804 -4.94132,2.42074c-0.01213,0.08977 -0.59964,2.72123 0.00172,2.88125c0.67279,0.17904 1.36769,-0.25457 2.05566,-0.21154c0.23723,0.01483 0.47933,0.2725 0.69879,0.16982c0.63086,-0.29517 -0.02208,-1.68556 0.35829,-2.3398c0.4943,-0.85018 2.1879,-1.38943 2.27009,-2.78496c0.00982,-0.1667 -0.04175,-0.37704 -0.12349,-0.60256zM227.68561,167.54735c-0.69121,0.27427 -1.39238,0.57868 -1.44016,0.75969c-0.23582,0.89305 0.37733,1.90678 0.1616,2.8069c-0.20719,0.86451 -0.83218,1.51169 -1.17179,2.31612c0.09091,1.48733 -0.03812,3.52086 0.51392,4.8973c0.15372,0.38327 2.35595,-0.3362 2.66135,-0.35038c0.29963,-0.01391 0.6346,0.08019 0.95333,0.12701c0.29368,-0.23144 0.62878,-0.20683 0.84893,-0.15062c0.0146,-0.01231 0.02895,-0.02539 0.04301,-0.03927c0.89645,-0.88412 -0.63596,-3.57126 -0.78658,-4.33762c-0.13376,-0.68065 -0.15729,-1.39986 -0.07496,-2.08876c0.06612,-0.55324 0.77271,-1.25053 0.3991,-1.60768c-0.61437,-0.58731 -1.35106,-1.02519 -1.86357,-1.73243c0,0 -0.17384,-0.24951 -0.24418,-0.60026z" fill="#5d594e" stroke="none" stroke-width="0.5" stroke-linecap="butt"/><path d="M231.67062,187.30021c0.08174,0.22552 0.13802,0.44088 0.1282,0.60758c-0.08219,1.39553 -1.77674,1.9991 -2.27104,2.84928c-0.38037,0.65424 0.23826,2.06178 -0.3926,2.35695c-0.21946,0.10268 -0.47434,-0.15574 -0.71157,-0.17057c-0.68797,-0.04303 -1.40689,0.37874 -2.07968,0.1997c-0.60136,-0.16002 -0.03054,-2.82913 -0.01841,-2.9189c-0.24926,-3.14878 3.08442,-2.23591 5.02626,-2.45615l0.25073,-0.39466z" data-paper-data="{&quot;noHover&quot;:false,&quot;origItem&quot;:[&quot;Path&quot;,{&quot;applyMatrix&quot;:true,&quot;segments&quot;:[[231.63654,187.33684],[[231.31682,187.80388],[0,0],[-1.94184,0.22024]],[[226.3755,190.22462],[-0.24926,-3.14878],[-0.01213,0.08977]],[[226.37722,193.10587],[-0.60136,-0.16002],[0.67279,0.17904]],[[228.43288,192.89433],[-0.68797,-0.04303],[0.23723,0.01483]],[[229.13167,193.06415],[-0.21946,0.10268],[0.63086,-0.29517]],[[229.48996,190.72435],[-0.38037,0.65424],[0.4943,-0.85018]],[[231.76005,187.93939],[-0.08219,1.39553],[0.00982,-0.1667]],[[231.63656,187.33683],[0.08174,0.22552],[0,0]]],&quot;closed&quot;:true,&quot;fillColor&quot;:[0,0,0,1]}]}" fill="#827c6d" stroke="none" stroke-width="0.5" stroke-linecap="butt"/><path d="M256.76647,180.16449l0.21249,0.74024c0,0 0.23971,0.87242 -0.31238,1.39052c0.26303,1.74542 0.04485,4.04577 0.01063,5.28204c-0.37179,0.87554 -1.04925,1.56635 -1.33642,2.48368c-0.30951,0.9887 0.34985,2.23525 -0.09528,3.15168c-0.84553,1.74078 -2.54732,1.56734 -3.85936,2.3302l-1.54442,-0.55937c0,0 -0.60232,-0.71633 -0.20813,-1.50887c-0.4746,-0.62159 -1.28887,-0.90068 -1.65025,-1.6239c-0.54285,-1.08643 -0.20779,-2.56544 0.09742,-3.7739c0.59852,-2.36978 -2.10964,-5.03805 -0.10907,-7.51124c-0.87582,-1.54333 -0.34148,-3.32909 -0.77279,-5.61582c-0.20172,-1.06944 -0.87066,-2.07697 -0.75451,-3.16471c0.23756,-2.22465 1.89425,-2.5023 2.80008,-3.82764c0.58908,-0.86192 0.32124,-2.45602 1.12918,-3.02949c0.53532,-0.37996 1.24738,-0.14251 1.87306,-0.1743c3.59232,-0.18253 4.88938,1.50799 4.13006,5.6525c-0.05196,1.28963 -0.35606,2.2398 -0.83971,2.9229c1.74776,1.97573 0.69561,3.84691 1.2294,6.83551zM249.44586,175.73307c-0.05664,1.49126 -0.31924,3.07975 0.79365,3.87429c0.80485,0.05079 1.63407,0.26871 2.35524,0.09435c0.46778,-0.11309 0.86591,-0.73057 1.33272,-0.61574c0.19204,0.04724 0.38283,0.11359 0.56936,0.19703c0.06072,-1.86408 0.56261,-3.46157 -1.05934,-4.58531c-1.00546,0.24453 -2.1764,0.17996 -3.36106,-0.04245l-0.3823,0.80459c0,0 -0.09045,0.13697 -0.24828,0.27321zM248.75802,172.76314l0.34123,-0.45157c1.95001,-0.12914 5.15083,0.9701 5.04917,-2.1869c0.01632,-0.08911 0.7263,-2.6902 0.13309,-2.87818c-0.66368,-0.21032 -1.37811,0.19031 -2.0633,0.11513c-0.23628,-0.02592 -0.46606,-0.29463 -0.69008,-0.20232c-0.64398,0.26533 -0.05681,1.68474 -0.46737,2.32047c-0.53353,0.82612 -2.25051,1.28555 -2.39791,2.6757c-0.01761,0.16607 0.02406,0.37858 0.09517,0.60768zM251.77875,192.71581c0.70328,-0.24162 1.41793,-0.5129 1.47413,-0.69148c0.27734,-0.88104 -0.2877,-1.92234 -0.0301,-2.81139c0.24741,-0.85386 0.902,-1.47109 1.27887,-2.25876c-0.02122,-1.48996 0.2028,-3.51522 -0.28423,-4.91598c-0.13562,-0.39004 -2.3691,0.2256 -2.67483,0.22548c-0.29995,-0.00013 -0.63015,-0.1098 -0.94635,-0.17148c-0.30418,0.21745 -0.63776,0.17719 -0.85504,0.11075c-0.01516,0.01161 -0.0301,0.024 -0.04481,0.03721c-0.93684,0.84121 0.46818,3.59711 0.58277,4.36967c0.10177,0.68617 0.09162,1.40569 -0.02285,2.08998c-0.09193,0.54955 -0.83037,1.21301 -0.47388,1.58725c0.58622,0.61541 1.30162,1.08728 1.78047,1.81772c0,0 0.16198,0.25737 0.21583,0.61102z" fill="#5d594e" stroke="none" stroke-width="0.5" stroke-linecap="butt"/><path d="M249.65673,175.43123l0.39031,-0.81525c1.18466,0.22241 2.40983,0.28272 3.41528,0.03818c1.62194,1.12372 1.13177,2.79488 1.07104,4.65896c-0.18653,-0.08345 -0.3794,-0.14663 -0.57143,-0.19389c-0.46681,-0.11485 -0.88731,0.51957 -1.35509,0.63266c-0.72117,0.17435 -1.59171,-0.0541 -2.39656,-0.1049c-1.11289,-0.79455 -0.86107,-2.44605 -0.80443,-3.93733c0.15783,-0.13624 0.2509,-0.27847 0.2509,-0.27847z" data-paper-data="{&quot;noHover&quot;:false,&quot;origItem&quot;:[&quot;Path&quot;,{&quot;applyMatrix&quot;:true,&quot;segments&quot;:[[[467.8469,57.21665],[0.13223,0.17431],[-1.42989,-0.04497]],[[464.14189,58.14872],[0.74987,-1.25045],[-0.04025,0.89796]],[[464.07613,60.77574],[-0.17466,-0.80191],[0.11329,0.52015]],[[464.68025,62.2541],[0.10519,-0.52185],[-0.04327,0.21468]],[[464.49737,62.89127],[0.07802,-0.20898],[1.78727,0.04498]],[[468.88106,61.65433],[-1.06004,1.82201],[-0.2449,-1.11801]],[[468.88653,57.90654],[-0.20076,1.32349],[0,0]],[468.11136,57.49013]],&quot;closed&quot;:true}]}" fill="#827c6d" stroke="none" stroke-width="0.5" stroke-linecap="butt"/><path d="M248.3948,173.09742c-0.16626,0.01579 -0.38383,-0.0318 -0.61214,-0.10541l0.45622,-0.33559c0.15045,-1.94849 -0.88276,-5.24047 2.27293,-5.10431c0.08928,-0.01535 2.73487,-0.68559 2.91638,-0.09035c0.20305,0.66594 -0.18961,1.3979 -0.12192,2.08387c0.02335,0.23655 0.29124,0.48254 0.19651,0.70553c-0.27236,0.64104 -1.70543,0.07213 -2.3456,0.47572c-0.83191,0.52447 -1.37068,2.23834 -2.76237,2.37053z" data-paper-data="{&quot;noHover&quot;:false,&quot;origItem&quot;:[&quot;Path&quot;,{&quot;applyMatrix&quot;:true,&quot;segments&quot;:[[[470.68621,56.41358],[0.21884,-0.08207],[0,0]],[[471.1226,56.78851],[0,0],[0.14421,2.17251]],[[473.27154,62.39121],[-3.02476,0.15181],[0.08557,0.01711]],[[476.03153,62.50451],[-0.17397,0.66367],[0.19463,-0.7425]],[[475.89956,60.20553],[-0.06488,0.76484],[0.02237,-0.26375]],[[476.08625,59.43369],[0.09081,0.24863],[-0.26106,-0.71474]],[[473.8573,58.9409],[0.61361,0.44999],[-0.79739,-0.58477]],[[471.26765,56.30007],[1.33395,0.14739],[-0.15935,-0.01761]]],&quot;closed&quot;:true}],&quot;index&quot;:null}" fill="#787265" stroke="none" stroke-width="0.5" stroke-linecap="butt"/><path d="M240.24905,192.39827c0.02165,-0.11153 0.02675,-0.22722 0.02127,-0.34008c0.33325,-0.72937 0.4561,-1.5465 0.2605,-2.34542c0.188,-0.12158 0.44612,-0.23846 0.7405,-0.34089c1.60865,0.03925 3.33096,-0.2732 4.60345,-1.00264c0.3651,0.00626 0.71722,0.07021 1.04928,0.1618c0.52608,0.56227 1.36659,0.82116 2.26712,0.89177c0.11687,0.04353 0.23721,0.08771 0.35913,0.12762c0.09228,0.03021 1.43623,0.09911 1.51023,0.33048c0.01029,0.03217 0.02007,0.06571 0.02892,0.09928c-0.1606,1.03003 -0.30634,2.49963 -0.69868,3.6014c-0.31473,0.56946 -0.71421,1.0695 -1.15794,1.36868c-0.30227,0.00655 -0.61724,-0.06043 -0.86125,0.34036c-3.03372,0.95678 -6.73427,-0.01371 -9.97045,-0.74766c0.77425,-0.56472 1.6601,-1.17702 1.8479,-2.14471z" data-paper-data="{&quot;noHover&quot;:false,&quot;origItem&quot;:[&quot;Path&quot;,{&quot;applyMatrix&quot;:true,&quot;segments&quot;:[[[477.95227,392.11227],[1.72653,-1.2593],[7.2165,1.63665]],[[500.01839,393.74947],[-6.76501,2.13355],[0.54413,-0.89374]],[[501.92949,393.00282],[-0.67403,0.0146],[0.98949,-0.66716]],[[504.49904,389.97879],[-0.70185,1.26986],[0.8749,-2.45688]],[[506.0584,382.00509],[-0.35811,2.2969],[-0.01975,-0.07486]],[[505.99438,381.78517],[0.02294,0.07173],[-0.16503,-0.51593]],[[502.63247,381.06186],[0.20579,0.06736],[-0.27189,-0.089]],[[501.83423,380.782],[0.26062,0.09705],[-2.00815,-0.15746]],[[496.81208,378.82764],[1.17313,1.25384],[-0.74047,-0.20424]],[[494.49559,378.47748],[0.81416,0.01395],[-2.83757,1.62661]],[[484.33892,380.67863],[3.58719,0.08752],[-0.65645,0.2284]],[[482.69588,381.42621],[0.41925,-0.27111],[0.43619,1.78157]],[[482.12742,386.60761],[0.74313,-1.62647],[0.01223,0.25168]],[[482.07966,387.35843],[0.04827,-0.2487],[-0.41879,2.15789]]],&quot;closed&quot;:true}]}" fill="#c48c00" stroke="none" stroke-width="0.5" stroke-linecap="butt"/><path d="M232.00507,195.99431c-0.17682,0 -0.30716,-0.04648 -0.40324,-0.11501c-1.0518,-0.01214 -2.16247,-0.06369 -3.18277,-0.23048c0,0 -0.66351,-0.11059 -0.55292,-0.7741c0.11059,-0.66351 0.77409,-0.55292 0.77409,-0.55292c1.07377,0.183 2.27603,0.21911 3.36484,0.21506l0.67266,0.78477c0,0 0,0.67266 -0.67266,0.67266z" fill="#b36f00" stroke="none" stroke-width="0.5" stroke-linecap="butt"/><path d="M247.2737,188.89c1.39169,0.13219 1.93046,1.84606 2.76237,2.37053c0.64017,0.40359 2.07324,-0.16532 2.3456,0.47572c0.09474,0.22299 -0.17315,0.46898 -0.19651,0.70553c-0.06769,0.68597 0.32498,1.41793 0.12192,2.08387c-0.1815,0.59523 -2.8271,-0.075 -2.91638,-0.09035c-3.15569,0.13616 -2.12248,-3.15583 -2.27293,-5.10431l-0.45622,-0.33559c0.22831,-0.07361 0.44588,-0.1212 0.61214,-0.10541z" data-paper-data="{&quot;noHover&quot;:false,&quot;origItem&quot;:[&quot;Path&quot;,{&quot;applyMatrix&quot;:true,&quot;segments&quot;:[[[470.68621,56.41358],[0.21884,-0.08207],[0,0]],[[471.1226,56.78851],[0,0],[0.14421,2.17251]],[[473.27154,62.39121],[-3.02476,0.15181],[0.08557,0.01711]],[[476.03153,62.50451],[-0.17397,0.66367],[0.19463,-0.7425]],[[475.89956,60.20553],[-0.06488,0.76484],[0.02237,-0.26375]],[[476.08625,59.43369],[0.09081,0.24863],[-0.26106,-0.71474]],[[473.8573,58.9409],[0.61361,0.44999],[-0.79739,-0.58477]],[[471.26765,56.30007],[1.33395,0.14739],[-0.15935,-0.01761]]],&quot;closed&quot;:true}]}" fill="#787265" stroke="none" stroke-width="0.5" stroke-linecap="butt"/><path d="M251.55907,192.15678c-0.47885,-0.73044 -1.21914,-1.21415 -1.80536,-1.82955c-0.35649,-0.37424 0.37428,-1.04726 0.46621,-1.59679c0.11447,-0.68428 0.11893,-1.45221 0.01715,-2.13837c-0.11459,-0.77256 -1.49786,-3.55706 -0.56103,-4.39828c0.01471,-0.0132 0.03009,-0.02586 0.04525,-0.03746c0.21727,0.06644 0.5581,0.10338 0.86228,-0.11407c0.31621,0.06169 0.65521,0.16939 0.95516,0.1695c0.30573,0.00013 2.56343,-0.61014 2.69903,-0.2201c0.48703,1.40075 0.28724,3.46658 0.30846,4.95654c-0.37689,0.78765 -1.04819,1.45169 -1.2956,2.30555c-0.2576,0.88905 0.29359,1.93907 0.01624,2.82011c-0.05621,0.17857 -0.78619,0.45249 -1.48947,0.69411c-0.05384,-0.35365 -0.21833,-0.61118 -0.21833,-0.61118z" data-paper-data="{&quot;noHover&quot;:false,&quot;origItem&quot;:[&quot;Path&quot;,{&quot;applyMatrix&quot;:true,&quot;segments&quot;:[[[451.5942,60.0246],[0.33839,-0.06434],[0.23895,0.78115]],[[452.27239,61.65969],[-0.17174,-0.06049],[0.84734,0.29847]],[[454.96666,61.59187],[-0.85481,-0.27637],[0.82098,0.26543]],[[457.14496,62.99016],[-0.75887,-0.41059],[1.42783,-0.04182]],[[461.85371,62.61336],[-1.33745,0.56007],[0.37241,-0.15595]],[[461.60957,59.63393],[0.00309,0.34086],[-0.00303,-0.33442]],[[461.764,58.57674],[-0.05581,0.35329],[-0.2116,-0.33648]],[[461.6489,57.6248],[-0.06141,0.24305],[-0.01129,-0.01676]],[[461.61277,57.5753],[0.01281,0.01624],[-0.81608,-1.03423]],[[457.43076,58.27829],[0.73926,-0.13717],[-0.65659,0.12183]],[[455.42738,58.27829],[0.65705,0.11928],[-0.52767,-0.0958]],[[453.90111,57.76931],[0.35496,-0.40202],[-0.5837,0.66108]],[[452.17757,59.77653],[0.69507,-0.54278],[0,0]]],&quot;closed&quot;:true}]}" fill="#827c6d" stroke="none" stroke-width="0.5" stroke-linecap="butt"/><path d="M252.93621,192.62038c0.16863,0.08385 0.33774,0.25202 0.33774,0.58928c0,0.67266 -0.67266,0.67266 -0.67266,0.67266l-0.71376,-0.37184c-0.33155,-0.67231 -0.77444,-1.20937 -1.19126,-1.83358c0,0 -0.37313,-0.55969 0.18656,-0.93281c0.55969,-0.37313 0.93281,0.18656 0.93281,0.18656c0.38698,0.58149 0.78377,1.09436 1.12057,1.68972z" fill="#5d594e" stroke="none" stroke-width="0.5" stroke-linecap="butt"/><path d="M229.92938,189.34977c-0.30495,-0.12198 -0.40144,-0.33329 -0.42034,-0.51763c-0.9609,0.00587 -1.7567,0.11165 -2.55384,0.92927c0,0 -0.47564,0.47564 -0.95129,0c-0.47564,-0.47564 0,-0.95129 0,-0.95129c1.34154,-1.31591 2.6284,-1.31812 4.39951,-1.31812l0.40033,1.48303c0,0 -0.24982,0.62455 -0.87437,0.37473z" fill="#5d594e" stroke="none" stroke-width="0.5" stroke-linecap="butt"/><path d="M239.38242,197.11815l-0.73787,0.22057c0,0 -0.86974,0.24923 -1.39385,-0.29716c-1.74244,0.2821 -4.04503,0.08908 -5.28161,0.06837c-0.87955,-0.3622 -1.57772,-1.03206 -2.49814,-1.30919c-0.99202,-0.29869 -2.23129,0.37426 -3.15253,-0.06083c-1.74992,-0.82645 -1.59509,-2.53004 -2.37225,-3.83365l0.54245,-1.55044c0,0 0.7097,-0.61011 1.5065,-0.22462c0.61636,-0.48137 0.88653,-1.29864 1.60576,-1.6679c1.08043,-0.5547 2.56301,-0.23582 3.77475,0.05616c2.37618,0.57258 5.01469,-2.16459 7.5096,-0.19117c1.53366,-0.89263 3.32516,-0.37785 5.60703,-0.83414c1.06717,-0.2134 2.06732,-0.89331 3.15627,-0.78906c2.22711,0.21322 2.52286,1.86678 3.85801,2.75807c0.86831,0.57963 2.45938,0.29437 3.04165,1.096c0.38579,0.53113 0.15614,1.24575 0.19477,1.87104c0.22179,3.59012 -1.45446,4.90556 -5.60701,4.1916c-1.29012,-0.03786 -2.24356,-0.33156 -2.9319,-0.80771c-1.95651,1.76925 -3.83908,0.73762 -6.82167,1.30405zM243.73355,189.74954c-1.49179,-0.04033 -3.08306,-0.28555 -3.86539,0.83596c-0.04199,0.80537 -0.25083,1.63691 -0.0686,2.35613c0.11819,0.46651 0.74,0.85788 0.63027,1.32592c-0.04514,0.19254 -0.1094,0.38405 -0.19079,0.57148c1.86464,0.04034 3.46752,0.52474 4.57345,-1.1094c-0.2555,-1.00272 -0.20374,-2.1743 0.0057,-3.36132l-0.80873,-0.37348c0,0 -0.13795,-0.08894 -0.27591,-0.24528zM246.69577,189.02927l0.45528,0.33627c0.15045,1.94849 -0.91374,5.16112 2.24197,5.02497c0.08928,0.01535 2.69798,0.69685 2.87946,0.10162c0.20305,-0.66594 -0.20536,-1.37594 -0.13768,-2.06192c0.02334,-0.23655 0.28951,-0.46925 0.19477,-0.69225c-0.27236,-0.64104 -1.68526,-0.03839 -2.32544,-0.44197c-0.8319,-0.52447 -1.31007,-2.23632 -2.70175,-2.36852c-0.16625,-0.01579 -0.3783,0.0282 -0.60661,0.10181zM226.77731,192.26794c0.2493,0.7006 0.52837,1.41223 0.70755,1.46648c0.88402,0.26769 1.91909,-0.3087 2.81089,-0.06083c0.85651,0.23806 1.48087,0.88586 2.2726,1.2541c1.48963,-0.03751 3.51723,0.16436 4.91258,-0.33795c0.38853,-0.13987 -0.25149,-2.36649 -0.25471,-2.6722c-0.00316,-0.29994 0.1029,-0.63132 0.16112,-0.94817c-0.22076,-0.30178 -0.18415,-0.63579 -0.12008,-0.85378c-0.01178,-0.01503 -0.02433,-0.02984 -0.0377,-0.0444c-0.8514,-0.92758 -3.59177,0.50747 -4.36304,0.6305c-0.68501,0.10927 -1.40461,0.10698 -2.09011,0c-0.55052,-0.08592 -1.22201,-0.81706 -1.59234,-0.4565c-0.60897,0.59291 -1.07299,1.31343 -1.79815,1.80024c0,0 -0.25558,0.16478 -0.60862,0.22249z" fill="#5d594e" stroke="none" stroke-width="0.5" stroke-linecap="butt"/><path d="M244.03767,189.95711l0.81946,0.38137c-0.20945,1.18702 -0.25636,2.41278 -0.00084,3.41549c-1.10593,1.63413 -2.78235,1.16225 -4.64698,1.1219c0.0814,-0.18743 0.14248,-0.38098 0.18763,-0.57352c0.10974,-0.46804 -0.52924,-0.88158 -0.64743,-1.3481c-0.18222,-0.71922 0.0367,-1.5922 0.07869,-2.39757c0.78233,-1.12151 2.43649,-0.88776 3.92829,-0.84743c0.13795,0.15634 0.2812,0.24784 0.2812,0.24784z" data-paper-data="{&quot;noHover&quot;:false,&quot;origItem&quot;:[&quot;Path&quot;,{&quot;applyMatrix&quot;:true,&quot;segments&quot;:[[[467.8469,57.21665],[0.13223,0.17431],[-1.42989,-0.04497]],[[464.14189,58.14872],[0.74987,-1.25045],[-0.04025,0.89796]],[[464.07613,60.77574],[-0.17466,-0.80191],[0.11329,0.52015]],[[464.68025,62.2541],[0.10519,-0.52185],[-0.04327,0.21468]],[[464.49737,62.89127],[0.07802,-0.20898],[1.78727,0.04498]],[[468.88106,61.65433],[-1.06004,1.82201],[-0.2449,-1.11801]],[[468.88653,57.90654],[-0.20076,1.32349],[0,0]],[468.11136,57.49013]],&quot;closed&quot;:true}]}" fill="#827c6d" stroke="none" stroke-width="0.5" stroke-linecap="butt"/><path d="M227.33392,192.04217c0.72516,-0.48681 1.20075,-1.23234 1.8097,-1.82526c0.37032,-0.36056 1.05129,0.36281 1.6018,0.44873c0.68549,0.10698 1.45342,0.10304 2.13843,-0.00622c0.77126,-0.12303 3.54048,-1.53666 4.39188,-0.60907c0.01336,0.01457 0.02619,0.0298 0.03796,0.04484c-0.06406,0.21799 -0.09728,0.5592 0.12348,0.86098c-0.05823,0.31686 -0.16221,0.65702 -0.15905,0.95696c0.00322,0.30571 0.63812,2.5566 0.24959,2.69647c-1.39534,0.50232 -3.46323,0.32512 -4.95288,0.36263c-0.79172,-0.36825 -1.46306,-1.03226 -2.31958,-1.27032c-0.89182,-0.24787 -1.93574,0.31476 -2.81976,0.04707c-0.17917,-0.05425 -0.46105,-0.78119 -0.71035,-1.48179c0.35304,-0.05771 0.60876,-0.22499 0.60876,-0.22499z" data-paper-data="{&quot;noHover&quot;:false,&quot;origItem&quot;:[&quot;Path&quot;,{&quot;applyMatrix&quot;:true,&quot;segments&quot;:[[[451.5942,60.0246],[0.33839,-0.06434],[0.23895,0.78115]],[[452.27239,61.65969],[-0.17174,-0.06049],[0.84734,0.29847]],[[454.96666,61.59187],[-0.85481,-0.27637],[0.82098,0.26543]],[[457.14496,62.99016],[-0.75887,-0.41059],[1.42783,-0.04182]],[[461.85371,62.61336],[-1.33745,0.56007],[0.37241,-0.15595]],[[461.60957,59.63393],[0.00309,0.34086],[-0.00303,-0.33442]],[[461.764,58.57674],[-0.05581,0.35329],[-0.2116,-0.33648]],[[461.6489,57.6248],[-0.06141,0.24305],[-0.01129,-0.01676]],[[461.61277,57.5753],[0.01281,0.01624],[-0.81608,-1.03423]],[[457.43076,58.27829],[0.73926,-0.13717],[-0.65659,0.12183]],[[455.42738,58.27829],[0.65705,0.11928],[-0.52767,-0.0958]],[[453.90111,57.76931],[0.35496,-0.40202],[-0.5837,0.66108]],[[452.17757,59.77653],[0.69507,-0.54278],[0,0]]],&quot;closed&quot;:true}]}" fill="#8e8878" stroke="none" stroke-width="0.5" stroke-linecap="butt"/><path d="M239.66974,198.95352c4.10858,0.00977 9.46649,-3.23645 11.30357,-6.96357c0.82341,-1.64681 1.60328,-3.16816 1.73701,-5.03972c0.03572,-0.49991 -0.2709,-3.19766 -1.30443,-1.44356c-0.23267,0.39488 0.08532,0.9227 0.01093,1.37496c-0.25016,1.5208 -1.23206,3.27284 -1.92287,4.63841c-1.76766,2.23186 -3.52258,3.83364 -5.91235,5.30758c-0.58247,0.35924 -3.55985,0.47938 -3.78725,0.89536c-0.14356,0.26262 -0.18486,0.7504 -0.22853,1.23054zM238.46494,200.41503c-0.71151,-0.23717 -0.47434,-0.94868 -0.47434,-0.94868c0.22301,-0.65947 0.20938,-2.11746 0.58689,-2.62044c0.8069,-1.07509 2.54332,-0.67887 3.65055,-1.00307c2.47877,-0.72579 4.44368,-3.20662 6.00241,-5.13124c0.58062,-1.17798 1.52458,-2.77141 1.70574,-4.07025c0.09672,-0.69342 -0.23718,-1.34266 0.25283,-2.01174c1.04721,-1.42991 3.59225,-1.08493 4.00973,0.5603c0.63755,2.51256 -0.80931,5.32188 -1.88379,7.47085c-2.14186,4.23399 -7.9383,7.78288 -12.64522,7.79276h-0.72573c0,0 -0.02434,0 -0.06426,-0.00438c-0.11558,0.02471 -0.25292,0.01986 -0.41482,-0.03411z" data-paper-data="{&quot;index&quot;:null}" fill="#704f39" stroke="none" stroke-width="0.5" stroke-linecap="butt"/><path d="M239.53164,198.99001c0.04367,-0.48014 0.15609,-1.03809 0.29966,-1.30071c0.2274,-0.41598 3.19101,-0.54673 3.77348,-0.90598c2.38977,-1.47394 4.0719,-3.02525 5.83956,-5.25711c0.69081,-1.36557 1.68622,-3.08919 1.93638,-4.60999c0.07439,-0.45226 -0.17582,-1.05334 0.05685,-1.44823c1.03352,-1.75411 1.3483,0.95211 1.31258,1.45202c-0.13373,1.87156 -0.90343,3.42368 -1.72684,5.07048c-1.83709,3.72712 -7.27889,7.00956 -11.38747,6.99979z" data-paper-data="{&quot;noHover&quot;:false,&quot;origItem&quot;:[&quot;Path&quot;,{&quot;applyMatrix&quot;:true,&quot;segments&quot;:[[[479.53365,318.87538],[0,0],[0.08734,0.96028]],[[479.9907,321.33646],[-0.28712,-0.52524],[0.4548,0.83196]],[[487.5652,323.12718],[-1.16493,-0.71849],[4.77954,2.94789]],[[499.38991,333.74235],[-3.53532,-4.46372],[1.38161,2.73113]],[[503.23564,343.01916],[-0.50032,-3.0416],[0.14878,0.90451]],[[503.21378,345.76907],[-0.46534,-0.78977],[2.06705,3.50821]],[[505.82264,342.88196],[0.07144,0.99982],[-0.26746,-3.74312]],[[502.34862,332.80253],[1.64681,3.29361],[-3.67417,-7.45424]],[[479.74147,318.87538],[8.21716,-0.01954],[0,0]]],&quot;closed&quot;:true}],&quot;index&quot;:null}" fill="#9a6d4e" stroke="none" stroke-width="0.5" stroke-linecap="butt"/><path d="M239.76683,159.43768c0.04367,0.48014 0.08496,0.96792 0.22852,1.23054c0.2274,0.41598 3.20478,0.53612 3.78725,0.89536c2.38977,1.47394 4.14469,3.07572 5.91235,5.30758c0.69081,1.36557 1.67271,3.1176 1.92287,4.63841c0.07439,0.45226 -0.2436,0.98007 -0.01093,1.37496c1.03352,1.75411 1.34015,-0.94365 1.30443,-1.44356c-0.13373,-1.87156 -0.9136,-3.39291 -1.73701,-5.03972c-1.83709,-3.72712 -7.195,-6.97334 -11.30357,-6.96357zM239.08075,157.94207c0.03992,-0.00439 0.06426,-0.00438 0.06426,-0.00438h0.72572c4.70692,0.00987 10.50336,3.55876 12.64522,7.79276c1.07449,2.14897 2.52135,4.95829 1.8838,7.47085c-0.41747,1.64524 -2.96251,1.99022 -4.00973,0.5603c-0.49001,-0.66908 -0.15611,-1.31832 -0.25284,-2.01174c-0.18116,-1.29883 -1.12511,-2.89227 -1.70574,-4.07025c-1.55873,-1.92461 -3.52364,-4.40545 -6.00241,-5.13124c-1.10724,-0.32421 -2.84365,0.07201 -3.65055,-1.00307c-0.37751,-0.50298 -0.36389,-1.96096 -0.58689,-2.62044c0,0 -0.23717,-0.71151 0.47434,-0.94868c0.1619,-0.05397 0.29924,-0.05882 0.41482,-0.03411z" fill="#704f39" stroke="none" stroke-width="0.5" stroke-linecap="butt"/><path d="M239.83684,159.40094c4.10858,-0.00977 9.55039,3.27266 11.38747,6.99979c0.82341,1.64681 1.59311,3.19893 1.72684,5.07048c0.03572,0.49991 -0.27906,3.20612 -1.31258,1.45201c-0.23267,-0.39488 0.01754,-0.99597 -0.05685,-1.44822c-0.25016,-1.5208 -1.24558,-3.24443 -1.93638,-4.60999c-1.76766,-2.23186 -3.44979,-3.78316 -5.83956,-5.25711c-0.58247,-0.35924 -3.54608,-0.49 -3.77348,-0.90598c-0.14356,-0.26262 -0.25599,-0.82057 -0.29966,-1.30071z" data-paper-data="{&quot;noHover&quot;:false,&quot;origItem&quot;:[&quot;Path&quot;,{&quot;applyMatrix&quot;:true,&quot;segments&quot;:[[[479.53365,318.87538],[0,0],[0.08734,0.96028]],[[479.9907,321.33646],[-0.28712,-0.52524],[0.4548,0.83196]],[[487.5652,323.12718],[-1.16493,-0.71849],[4.77954,2.94789]],[[499.38991,333.74235],[-3.53532,-4.46372],[1.38161,2.73113]],[[503.23564,343.01916],[-0.50032,-3.0416],[0.14878,0.90451]],[[503.21378,345.76907],[-0.46534,-0.78977],[2.06705,3.50821]],[[505.82264,342.88196],[0.07144,0.99982],[-0.26746,-3.74312]],[[502.34862,332.80253],[1.64681,3.29361],[-3.67417,-7.45424]],[[479.74147,318.87538],[8.21716,-0.01954],[0,0]]],&quot;closed&quot;:true}]}" fill="#9a6d4e" stroke="none" stroke-width="0.5" stroke-linecap="butt"/><path d="M254.61509,176.78236l0.00122,4.875l-32.5,0.00816l-0.00122,-4.875z" data-paper-data="{&quot;index&quot;:null}" fill="#91664a" stroke="#704f39" stroke-width="1.5" stroke-linecap="butt"/><path d="M227.36509,176.78921l0.00122,4.875l-5.125,0.00129l-0.00122,-4.875z" data-paper-data="{&quot;index&quot;:null}" fill="#9a6d4e" stroke="#704f39" stroke-width="1.5" stroke-linecap="butt"/><path d="M255.45099,173.07512l0.00304,12.125l-6.25,0.00157l-0.00304,-12.125z" data-paper-data="{&quot;index&quot;:null}" fill="#9a6d4e" stroke="#704f39" stroke-width="1.5" stroke-linecap="butt"/><path d="M239.36943,198.24931l-16.125,-19.25l16,-18.875" fill="none" stroke="#e6e6e6" stroke-width="1.5" stroke-linecap="round"/><path d="M239.45719,197.82914c0.27614,-0.00007 0.50006,0.22373 0.50013,0.49987c0.00007,0.27614 -0.22373,0.50006 -0.49987,0.50013c-0.27614,0.00007 -0.50006,-0.22373 -0.50013,-0.49987c-0.00007,-0.27614 0.22373,-0.50006 0.49987,-0.50013z" data-paper-data="{&quot;index&quot;:null}" fill="#7d7d7d" stroke="none" stroke-width="0.5" stroke-linecap="butt"/><path d="M239.18949,159.57924c0.27614,-0.00007 0.50006,0.22373 0.50013,0.49987c0.00007,0.27614 -0.22373,0.50006 -0.49987,0.50013c-0.27614,0.00007 -0.50006,-0.22373 -0.50013,-0.49987c-0.00007,-0.27614 0.22373,-0.50006 0.49987,-0.50013z" data-paper-data="{&quot;index&quot;:null}" fill="#7d7d7d" stroke="none" stroke-width="0.5" stroke-linecap="butt"/><path d="M225.64283,179.30618c-0.24834,0.44727 -0.74533,0.22378 -0.74533,0.22378l-0.02935,-0.0722c-0.71049,0.00016 -1.39814,-0.05018 -2.08755,0.11054c0,0 -0.53896,0.12139 -0.67384,-0.36365c-0.13488,-0.48504 0.40407,-0.60643 0.40407,-0.60643c0.78979,-0.17298 1.54781,-0.14027 2.35702,-0.14046l0.52629,0.17767c0,0 0.49698,0.2235 0.24864,0.67077z" data-paper-data="{&quot;index&quot;:null}" fill="#7d7d7d" stroke="none" stroke-width="0.5" stroke-linecap="butt"/><path d="M255.90144,180.34876c-0.65867,0.36004 -1.2907,0.63297 -1.50368,0.58089c-1.57246,-0.38451 -0.17055,-2.39512 -0.05485,-3.07066c0,0 0.08823,-0.49618 0.7984,-0.43454c0.32247,0.028 0.48033,0.14558 0.55658,0.26563c0.86452,-0.255 1.97276,-0.26188 2.656,0.44135c1.03344,1.06368 -1.00821,1.75671 -2.45246,2.21732z" fill="#999999" stroke="none" stroke-width="0.5" stroke-linecap="butt"/><path d="M226.35945,181.17381c-0.14352,0.05967 -0.3272,0.07338 -0.55596,-0.01813c-0.69636,-0.27854 -0.41781,-0.9749 -0.41781,-0.9749l0.09007,-0.11567c-0.03912,-0.13822 -0.07289,-0.2844 -0.10292,-0.43573l-0.0101,-0.0202c-0.05291,-0.06511 -0.09649,-0.14594 -0.12314,-0.24628l-0.18449,-0.36898c-0.05487,-0.10422 -0.08593,-0.22294 -0.08593,-0.34891c0,-0.10759 0.02265,-0.20989 0.06345,-0.30238c-0.0408,-0.0925 -0.06345,-0.19479 -0.06345,-0.30238c0,-0.41421 0.33579,-0.75 0.75,-0.75c0.12597,0 0.24468,0.03106 0.34891,0.08593l0.66455,0.33228l0.65875,0.21958c0.23352,0.07182 0.41844,0.25459 0.49325,0.48678c0.2488,0.08015 0.44084,0.28673 0.50046,0.54405c0.22814,0.12862 0.3822,0.37321 0.3822,0.65378c0,0.23943 -0.1122,0.45266 -0.28689,0.58998l-0.59936,0.47949c-0.67073,0.43443 -1.1596,0.5664 -1.52159,0.49169z" fill="#ffffff" stroke="none" stroke-width="0.5" stroke-linecap="butt"/><path d="M225.41178,179.17442l24.57567,-0.24394" fill="none" stroke="#b27d5b" stroke-width="1.5" stroke-linecap="round"/><path d="M256.20167,175.82493l0.00182,7.25l-7.625,0.00191l-0.00182,-7.25z" data-paper-data="{&quot;index&quot;:null}" fill="#999999" stroke="#7d7d7d" stroke-width="1.5" stroke-linecap="butt"/></g></g></svg>