<svg version="1.1" xmlns="http://www.w3.org/2000/svg" xmlns:xlink="http://www.w3.org/1999/xlink" width="150.43927" height="97.25" viewBox="0,0,150.43927,97.25"><g transform="translate(-164.78036,-131.375)"><g data-paper-data="{&quot;isPaintingLayer&quot;:true}" fill-rule="nonzero" stroke-linecap="butt" stroke-linejoin="miter" stroke-miterlimit="10" stroke-dasharray="" stroke-dashoffset="0" style="mix-blend-mode: normal"><path d="M166.03036,227.375v-94.75h147.93927v94.75z" fill="#7f7f7f" stroke="#5e5e5e" stroke-width="2.5"/><path d="M265.125,207c0,-0.13557 0.0036,-0.2703 0.0107,-0.4041l-1.7074,1.7074l-1.03382,0.62029l-0.91538,0.78461l-3.56231,1.78115l-0.0418,0.07314l-0.20898,0.05225l-0.18692,0.09346l-1.68226,0.37384l-1.67184,0.41796h-0.20898l-0.21028,0.04673l-0.07009,-0.04673h-2.52129l-0.07009,0.04673l-0.21028,-0.04673h-0.20898l-1.67184,-0.41796l-1.68226,-0.37384l-0.1,-0.05l-0.9,-0.2l-0.1,-0.05l-0.80481,-0.17885l-0.22983,0.06268l-0.82635,-0.49581l-0.93491,-0.23373l-0.2418,-0.42314l-0.36231,-0.18115l-0.33205,-0.28461l-0.61715,-0.37029l-0.375,-0.375l-0.625,-0.375l-0.86087,-0.86087l-0.02198,-0.01884l-0.19564,-0.11738l-0.31084,-0.01727l-0.96753,-1.12878l-1.0583,-0.90711l-0.03551,0.0558l-0.28784,1.29526l-0.09346,0.18692l-0.05225,0.20898l-0.07314,0.0418l-0.53115,1.06231l-0.28461,0.33205l-0.10634,0.17723l-0.10905,0.49072l-0.09346,0.18692l-0.05225,0.20898l-0.07314,0.0418l-0.03115,0.06231l-0.6,0.7l-0.4,0.8l-0.39851,0.46493l-0.02076,0.3736l-1.12878,0.96753l-0.96753,1.12878l-0.13232,0.00735l-0.25701,0.25701l-0.625,0.375l-0.375,0.375l-0.61715,0.37029l-0.33205,0.28461l-0.3,0.15l-0.7,0.6l-1.56231,0.78115l-0.0418,0.07314l-0.20898,0.05225l-0.18692,0.09346l-1.68226,0.37384l-1.67184,0.41796h-0.20898l-0.21028,0.04673l-0.07009,-0.04673h-6.77129l-0.07009,0.04673l-0.21028,-0.04673h-0.20898l-1.67184,-0.41796l-1.68226,-0.37384l-0.1,-0.05l-0.9,-0.2l-0.18692,-0.09346l-0.20898,-0.05225l-0.0418,-0.07314l-1.06231,-0.53115l-0.23991,-0.20564l-0.14473,0.03947l-0.37464,-0.22479l-0.49072,-0.10905l-0.18692,-0.09346l-0.20898,-0.05225l-0.0418,-0.07314l-0.06231,-0.03115l-0.7,-0.6l-0.3,-0.15l-0.33205,-0.28461l-0.19564,-0.11738l-0.31084,-0.01727l-0.6375,-0.74375l-0.1125,-0.00625l-0.62138,-0.72494l-0.72494,-0.62138l-0.00625,-0.1125l-0.74375,-0.6375l-0.02076,-0.3736l-0.11969,-0.13964l-0.85955,-0.73676l-0.01727,-0.31084l-0.11738,-0.19564l-0.28461,-0.33205l-0.15,-0.3l-0.6,-0.7l-1.28115,-2.56231l-0.07314,-0.0418l-0.05225,-0.20898l-0.09346,-0.18692l-0.2,-0.9l-0.08115,-0.16231l-0.07314,-0.0418l-0.05225,-0.20898l-0.09346,-0.18692l-0.37384,-1.68226l-0.41796,-1.67184v-0.20898l-0.04673,-0.21028l0.04673,-0.07009v-1.52129l-0.04673,-0.07009l0.04673,-0.21028v-0.20898l0.25,-1v-1.01064l-0.04673,-0.07009l0.04673,-0.21028v-0.20898l0.25,-1v-0.01064l-0.04673,-0.07009l0.04673,-0.21028v-0.20898l0.41796,-1.67184l0.08204,-0.36918v-0.45898l0.29241,-1.16963l0.09247,-1.20208l0.25,-0.75l0.19688,-0.30938l0.05312,-0.69062l0.25,-0.75l0.11909,-0.18713l0.28784,-1.29526l0.09346,-0.18692l0.05225,-0.20898l0.07314,-0.0418l0.08115,-0.16231l0.01676,-0.0754l0.02632,-0.34221l0.14917,-0.4475l0.00775,-0.03489l0.01163,-0.02326l0.33145,-0.99434l0.28982,-0.45543l0.1171,-0.52697l0.3,-0.6l0.2,-0.9l0.09346,-0.18692l0.05225,-0.20898l0.07314,-0.0418l0.53115,-1.06231l0.78461,-0.91538l0.62029,-1.03382l1.5,-1.5l0.625,-0.375l1.375,-1.375l0.64056,-0.38433l0.50249,-0.55274l1.5,-1l0.04776,-0.01706l0.66986,-0.78151l0.31084,-0.01727l0.19564,-0.11738l0.04819,-0.0413l0.47771,-0.52548l0.75,-0.5l0.06731,-0.02404l0.43269,-0.47596l0.13208,-0.08805l0.47487,-0.47487l1.03382,-0.62029l0.91538,-0.78461l0.8,-0.4l0.7,-0.6l2.5,-1.25l0.47102,-0.10467c0.07383,-0.04096 0.14842,-0.0807 0.22374,-0.11921l0.28763,-0.18304l0.58392,-0.19464c0.7926,-0.28496 1.64706,-0.44024 2.53779,-0.44024c0.42957,0 0.8507,0.03611 1.26053,0.10547l0.22179,-0.01706l0.08434,0.07546c3.39009,0.72044 5.93334,3.73128 5.93334,7.33612c0,1.88542 -0.69571,3.60835 -1.84443,4.92607l-0.02276,0.11381l-0.19177,0.12204c-0.87645,0.92353 -1.98554,1.62413 -3.2334,2.0079l-0.08027,0.02676l-1.82326,0.91163l-0.38993,0.33423l-0.36087,0.36087l-0.64056,0.38433l-0.50249,0.55274l-0.75,0.5l-0.06731,0.02404l-0.43269,0.47596l-0.75,0.5l-0.08917,0.03185l-0.16092,0.13793l-0.96753,1.12878l-0.36783,0.02043l-0.16455,0.181l-0.23408,0.15605l-0.07207,0.06177l-0.08236,0.04118l-0.49357,0.32905l-0.97487,0.97487l-0.625,0.375l-0.51439,0.51439l-0.0057,0.01141l-0.2,0.9l-0.09346,0.18692l-0.05225,0.20898l-0.07314,0.0418l-0.04278,0.08557l-0.33145,0.99434l-0.28982,0.45543l-0.1171,0.52697l-0.05,0.1l-0.2,0.9l-0.06295,0.1259l-0.03013,0.39171l-0.12733,0.38199c0.0055,0.00017 0.011,0.00035 0.0165,0.00053l0.04684,-0.03123l1.44886,-2.5355l3.75,-0.9375l0.01064,0l0.07009,-0.04673l0.21028,0.04673h0.20898l1,0.25l4.5,0l1,0.25l1.76064,0l0.07009,-0.04673l0.21028,0.04673h0.20898l1,0.25l0.01064,0l0.07009,-0.04673l0.21028,0.04673h0.20898l1.67184,0.41796l1.68226,0.37384l0.18692,0.09346l0.20898,0.05225l0.0418,0.07314l0.06231,0.03115l0.46493,0.39851l0.18097,0.01005v-0.20036l0.41796,-1.67184l0.37384,-1.68226l0.05,-0.1l0.2,-0.9l0.05,-0.1l0.2,-0.9l0.09346,-0.18692l0.05225,-0.20898l0.07314,-0.0418l0.53115,-1.06231l0.6,-0.7l0.15,-0.3l0.28461,-0.33205l0.37029,-0.61715l0.28846,-0.28846l0.02446,-0.06849l0.5,-0.75l0.55274,-0.50249l0.38433,-0.64056l1.5,-1.5l0.64056,-0.38433l0.26858,-0.29543l0.01136,-0.05681l0.09558,-0.06082l0.12698,-0.13967l0.75,-0.5l0.21102,-0.07536l0.62365,-0.37419l0.33738,-0.2147l0.07796,-0.08575l1.5,-1l0.80769,-0.28846l0.69231,-0.46154l0.21084,-0.0753l0.0777,-0.04945l0.19202,-0.06401l0.32558,-0.27907l2.36505,-1.18252c1.04223,-0.54872 2.22937,-0.85927 3.48905,-0.85927c0.06604,0 0.13188,0.00085 0.19751,0.00255l0.22176,-0.04928l0.09625,0.06417c2.24192,0.15219 4.21348,1.28961 5.48516,2.98273l0.67117,0.16779l0.53094,0.11799l0.28595,-0.07799l0.37464,0.22479l0.49072,0.10905l0.18692,0.09346l0.20898,0.05225l0.0418,0.07314l0.06231,0.03115l0.91538,0.78461l0.20414,0.12248l0.21901,0.01217l0.21042,0.24549l0.40026,0.24015l0.5,0.5l0.24015,0.40026l0.24549,0.21042l0.01019,0.18343c0.16729,-0.54386 0.32101,-1.06215 0.45483,-1.54964c0.55028,-2.00463 1.73101,-7.10108 4.16773,-7.23645c1.17394,-0.76208 2.57443,-1.20471 4.07831,-1.20471c3.68328,0 6.74642,2.65511 7.37988,6.15579c0.09393,0.29068 0.15155,0.59807 0.16685,0.92495c0.01926,0.41125 -0.01512,0.80657 -0.08593,1.19084c-0.1234,1.20749 -0.53325,2.33018 -1.1605,3.29902c-0.17148,0.46063 -0.3183,0.92708 -0.40504,1.40941c-0.70253,3.90674 -1.94422,8.17538 -2.89526,12.02c-0.3235,1.30775 -0.26259,4.09165 -1.1875,5.25c-0.45084,0.56462 -0.9951,1.07047 -1.60161,1.5049c2.8023,1.08676 4.78911,3.8089 4.78911,6.9951c0,4.14214 -3.35786,7.5 -7.5,7.5c-4.14214,0 -7.5,-3.35786 -7.5,-7.5zM253.28525,188.49038l-0.84135,0.30048l-0.40865,0.44952l-0.13208,0.08805l-0.44974,0.44974l-0.08805,0.13208l-0.52548,0.47771l-0.0413,0.04819l-0.37029,0.61715l-0.13939,0.13939l-0.1557,0.31141l-0.0082,0.03692v0.20898l-0.25,1l0,1.01064l0.04673,0.07009l-0.04673,0.21028v0.20898l-0.25,1v1.1434l0.1783,0.1783l0.625,0.375l0.28632,0.28632l0.26448,0.05877l0.18692,0.09346l0.20898,0.05225l0.03571,0.0625l0.94378,0l1.32782,-0.66391l0.44269,-0.44269v-0.40404l-0.04673,-0.07009l0.04673,-0.21028v-0.20898l0.41796,-1.67184l0.33204,-1.49418v-2.54296l-0.08204,-0.36918l-0.13463,-0.53851l-1.28333,-0.32083l-0.0546,-0.09555z" fill="#c6ffb8" stroke="none" stroke-width="0.5"/><text transform="translate(177.24002,150.50684) scale(0.33203,0.33203)" font-size="40" xml:space="preserve" fill="#ffffff" fill-rule="nonzero" stroke="none" stroke-width="1" stroke-linecap="butt" stroke-linejoin="miter" stroke-miterlimit="10" stroke-dasharray="" stroke-dashoffset="0" font-family="Sans Serif" font-weight="normal" text-anchor="start" style="mix-blend-mode: normal"><tspan x="0" dy="0">ENTER THE MINES!!!</tspan></text><path d="M217.35361,195.23446c0,-2.28627 2.28627,-2.28627 2.28627,-2.28627h0.91451c3.66124,0 10.4649,-1.02702 13.18902,2.19597c5.24081,6.20058 -2.38632,17.2973 -8.24931,19.59841c-6.32949,2.48419 -12.70357,-0.42178 -17.90226,-3.63546c-8.00269,-10.36629 -3.96897,-21.07015 3.38187,-30.53317c3.67997,-4.73737 6.75079,-9.47548 13.23871,-9.57394c0,0 2.28627,0 2.28627,2.28627c0,2.28627 -2.28627,2.28627 -2.28627,2.28627c-4.61277,-0.10264 -7.03545,4.478 -9.62398,7.80172c-5.76948,7.40812 -9.98999,15.86544 -3.9342,24.3373c3.73943,2.15861 8.61033,4.65337 13.19101,2.7661c3.67514,-1.51418 6.34132,-5.41977 6.31147,-9.29889c-0.00798,-1.03707 0.76812,-2.34232 0.07134,-3.11048c-1.37422,-1.51501 -7.85644,-0.54755 -9.67368,-0.54755h-0.91451c0,0 -2.28627,0 -2.28627,-2.28627z" fill="#35ff00" stroke="none" stroke-width="0.5"/><path d="M254.10399,182.11526c-1.42064,1.04677 -2.21205,3.11606 -3.47268,4.55759c-3.01849,3.45161 -7.68128,7.3136 -4.76387,12.47131c2.28957,4.04774 7.90871,4.13746 11.91605,4.43821c4.41665,-3.89687 3.00926,-9.20146 3.00926,-14.74945c0,-2.18435 0.47555,-4.84786 -1.67623,-6.29637c-0.92777,-0.62455 -2.23518,-0.11122 -3.35357,-0.10518h-0.45726c0,0 -0.61129,0 -1.2017,-0.3161zM257.22717,177.92577c8.48974,0.77291 8.13811,8.09323 8.13811,15.47967c0,3.43856 0.68076,7.34586 -1.29211,10.40365c-1.14942,1.7815 -3.17055,2.94588 -4.84372,4.11115c-6.11139,0.23827 -13.99613,-0.44099 -17.34819,-6.53589c-3.93528,-7.15535 0.84462,-12.6237 5.29571,-17.70745c2.72176,-3.10862 3.37817,-5.61167 7.68035,-6.68821c0,0 1.60402,-0.32081 2.36985,0.93707z" fill="#35ff00" stroke="none" stroke-width="0.5"/><path d="M271.76684,197.06348c-2.28627,0 -2.28627,-2.28627 -2.28627,-2.28627l0.0444,-0.90563c1.22037,-6.10187 2.72225,-12.98693 2.69912,-19.21355c0,0 0,-2.28627 2.28627,-2.28627c2.28627,0 2.28627,2.28627 2.28627,2.28627c-0.02058,6.53793 -1.50656,13.70349 -2.78792,20.1103l0.0444,0.00888c0,0 0,2.28627 -2.28627,2.28627z" fill="#35ff00" stroke="none" stroke-width="0.5"/><path d="M270.39507,207.58032c0,-1.26267 1.0236,-2.28627 2.28627,-2.28627c1.26267,0 2.28627,1.0236 2.28627,2.28627c0,1.26267 -1.0236,2.28627 -2.28627,2.28627c-1.26267,0 -2.28627,-1.0236 -2.28627,-2.28627z" fill="#35ff00" stroke="none" stroke-width="0.5"/></g></g></svg>