<svg version="1.1" xmlns="http://www.w3.org/2000/svg" xmlns:xlink="http://www.w3.org/1999/xlink" width="38.31454" height="37.57898" viewBox="0,0,38.31454,37.57898"><g transform="translate(-220.62429,-161.9234)"><g data-paper-data="{&quot;isPaintingLayer&quot;:true}" fill-rule="nonzero" stroke="#82684d" stroke-width="1.5" stroke-linecap="round" stroke-linejoin="miter" stroke-miterlimit="10" stroke-dasharray="" stroke-dashoffset="0" style="mix-blend-mode: normal"><path d="M223.06256,162.75l12.875,1.375l2.25,4.375l9.625,-4.25l9.75,0.375l-0.125,7.125l0.75,11.625l-0.75,14.25l-9.125,1.125l-17,-0.875l-9.875,0.625l0.875,-11.5l-0.875,-11.75z" fill="#98795a"/><path d="M238.8386,168.875l0.59896,9.25l-2.39584,2.25l-6.70833,2.625l-7.1875,-3.75l-0.95834,-3.875l8.14584,3.625l6.34895,-2.875l1.4375,-6.75z" fill="#8f7962"/><path d="M239.43756,168.25l8.875,-3.625l8.75,0.75l-0.25,5l-9,3.125l-8.625,-0.625z" fill="#9f7f5e"/><path d="M247.56256,173.625l9.25,-2.875l0.125,5.75l-9.375,3.375l-7.625,-2.75l-0.25,-3.75z" fill="#98795a"/><path d="M237.06251,197.375l-6.87495,-4.75l7,4.875l-10.125,-0.25l2.5,-4.375l0.875,-9.5" fill="#8b6e52"/><path d="M242.93756,197.625l-0.875,-9.875l2.5,-8.125" fill="none"/><path d="M257.68753,190.125l-4.125,0.75l-1.5,-2.5" fill="none"/><path d="M253.18756,190.75l-1.625,2.625" fill="none"/><path d="M223.56254,162.75l12.375,1.375l2,4.75l-1.125,7.25l-6.25,2.875l-8.625,-3.875z" fill="#99826a"/><path d="M236.06251,195.625l-5.25,-10.5" fill="none"/></g></g></svg>