<svg version="1.1" xmlns="http://www.w3.org/2000/svg" xmlns:xlink="http://www.w3.org/1999/xlink" width="30.3475" height="43.39058" viewBox="0,0,30.3475,43.39058"><g transform="translate(-223.56873,-145.5196)"><g data-paper-data="{&quot;isPaintingLayer&quot;:true}" fill-rule="nonzero" stroke="none" stroke-width="0.5" stroke-linecap="butt" stroke-linejoin="miter" stroke-miterlimit="10" stroke-dasharray="" stroke-dashoffset="0" style="mix-blend-mode: normal"><path d="M247.38231,165.17971c0.0781,0.04241 0.12494,0.0814 0.12494,0.0814l0.4584,0.39831c3.94891,2.21204 5.67837,5.68107 1.95523,9.21343c-0.68316,0.93421 -1.35257,1.79047 -2.25243,2.53266c-1.89395,1.5621 -5.02412,1.94795 -5.49519,-1.24761c-0.3395,-2.30303 1.26774,-5.05624 3.24775,-6.166l-0.15513,-0.41535l0.04631,-0.0173c-0.79486,-0.58098 -1.53874,-1.34913 -1.47794,-2.14755c0.04001,-0.52546 1.88996,-2.54458 2.28113,-2.96939c0,0 0.51108,-0.54892 1.05999,-0.03785c0.2996,0.27894 0.28342,0.56916 0.20693,0.77525z" data-paper-data="{&quot;index&quot;:null}" fill="#c0b39a"/><path d="M246.32963,164.41614c0.47984,-0.57643 1.05625,-0.09659 1.05625,-0.09659l-0.01595,0.03679c4.27862,1.67162 7.97616,4.64042 4.59764,9.22147c0,0 -0.08228,0.11155 -0.22404,0.20338c-1.10935,2.43971 -3.14417,4.92656 -5.82367,5.60241c-3.25264,0.8204 -4.42418,-2.96192 -3.8681,-5.3553c0.42555,-1.74818 1.55156,-3.22381 2.76207,-4.52737l0.28737,-0.2092c0,0 0.63749,-0.39511 1.0326,0.24238c0.3951,0.63749 -0.24239,1.0326 -0.24239,1.0326l0.02025,-0.04364c-1.01516,1.08721 -2.07005,2.37295 -2.3996,3.84803c-0.28255,1.18974 -0.0391,4.1896 2.02803,3.56138c2.45436,-0.7459 4.18539,-3.03976 5.06789,-5.31447c0,0 0.15129,-0.38723 0.5169,-0.47245c2.01616,-3.32796 -1.10284,-5.14261 -4.30083,-6.39205l-0.39786,-0.28111c0,0 -0.57642,-0.47983 -0.09658,-1.05625z" data-paper-data="{&quot;index&quot;:null}" fill="#847a69"/><path d="M247.40968,165.86269l0.22202,0.55164c0.3528,0.82264 0.66968,1.66413 0.9845,2.50195c0.09274,0.32503 0.21623,0.76915 0.34754,1.28977c-0.97178,0.6283 -1.76264,1.56846 -2.20101,2.68983l-0.01569,-0.0267l0.02133,-0.00271l-0.10724,-0.87454c-0.04137,-0.37508 -0.3556,-0.66189 -0.74171,-0.66189c-0.41421,0 -0.67366,0.2712 -0.67366,0.68542c0,0.02059 0.00106,0.04126 0.00269,0.06144l0.11198,1.49699l0.00139,-0.0001c-0.00029,0.00233 -0.00056,0.00471 -0.00084,0.00704c-0.07794,0.63347 -0.02489,1.6736 0.172,2.71912c0.10401,1.38967 0.20453,2.80155 0.16076,4.19191c-0.81514,0.15964 -1.61255,0.35274 -2.29191,0.80566c-0.85057,0.56705 -0.8286,1.91115 -1.52155,2.66271c-0.37436,0.40601 -0.95117,0.60008 -1.46755,0.84717c0.0427,-1.17994 0.01421,-2.21293 -0.26105,-3.31527c0,-0.00108 -0.00249,-0.10212 -0.00249,-0.1032l0.00068,-0.00552l0.2162,-0.02416l-0.10379,-0.89121c-0.03709,-0.37956 -0.36753,-0.67666 -0.75683,-0.67666c-0.38611,0 -0.71144,0.29006 -0.75281,0.66515l-0.08158,0.78312l0.01936,0.00239l-0.02378,0.04401c-0.00106,0.7657 0.44803,5.89013 -0.33717,6.11797c-0.6911,0.20053 -2.04586,-0.09545 -2.74506,-0.16588c-0.35774,-0.0503 -0.83859,0.18103 -1.08457,-0.08354c-0.13104,-0.14095 -0.02285,-2.34947 -0.04486,-2.67461c-0.18125,-2.67748 -0.26968,-5.56445 0.0847,-8.22292c0.09231,-0.69248 0.36997,-1.57377 0.34453,-2.29802c0.06557,-0.3591 0.14457,-0.72438 0.22243,-1.08091l-0.03361,-0.08215l0.03843,-0.00015l0.00303,-0.78154c0,-0.41421 -0.26131,-0.68326 -0.67553,-0.68326c-0.36345,0 -0.66274,0.2538 -0.73157,0.597l-0.21574,0.98024l0.16878,0.03782c-0.03196,0.14554 -0.0614,0.2887 -0.09082,0.43482c-0.02741,0.08471 -0.05373,0.16969 -0.07898,0.25498c-0.11298,-1.69228 -0.77728,-3.39479 -1.79669,-4.92394c0.24087,-0.55086 0.50749,-1.09023 0.79489,-1.61576c0.27003,-0.05499 0.45267,-0.26739 0.45267,-0.26739c2.11199,-2.50239 7.13949,-1.1705 10.0579,-1.30226c1.38768,-0.06265 2.95391,-0.30772 4.24632,0.28018z" data-paper-data="{&quot;noHover&quot;:false,&quot;origItem&quot;:[&quot;Path&quot;,{&quot;applyMatrix&quot;:true,&quot;segments&quot;:[[[496.43499,290.36259],[0,0],[-2.5848,-1.17581]],[[487.97232,289.8161],[2.77535,-0.1253],[-5.83683,0.26353]],[[467.94253,292.40451],[4.22399,-5.00478],[0,0]],[[467.04065,292.93661],[0.54007,-0.10999],[-2.58686,4.73015]],[[462.74809,308.31721],[-0.00361,-5.42119],[0.00052,0.7823]],[[463.40716,313.95383],[-0.99603,-0.56354],[2.47697,1.40145]],[[467.85663,312.01728],[-0.68556,1.91418],[0.16213,-2.29009]],[[469.04847,305.38632],[-0.68063,2.10294],[0.05884,-0.29223]],[[469.23279,304.51134],[-0.06392,0.29109],[0,0]],[468.89492,304.43626],[[469.33295,302.4651],[0,0],[0.13765,-0.68639]],[[470.80364,301.26165],[-0.7269,0],[0.82843,0]],[[472.30364,302.76165],[0,-0.82843],[0,0]],[472.30364,304.31721],[472.22701,304.31721],[[472.29469,304.48088],[0,0],[-0.15574,0.71307]],[[471.85883,306.6273],[0.13113,-0.71819],[0.05089,1.4485]],[[471.17926,311.18297],[0.18462,-1.38496],[-0.70876,5.31694]],[[470.96654,327.54421],[-0.3625,-5.35496],[0.04402,0.65029]],[[471.04523,332.88685],[-0.26208,-0.2819],[0.49196,0.52915]],[[473.2066,333.05036],[-0.71548,-0.10061],[1.3984,0.14085]],[[478.67406,333.37583],[-1.38221,0.40107],[1.57041,-0.45568]],[[479.30654,321.33511],[-0.00212,1.5314],[0,0]],[479.35432,321.24715],[479.31523,321.24227],[[479.53498,319.48423],[0,0],[0.08274,-0.75016]],[[481.02587,318.15054],[-0.77221,0],[0.7786,0]],[[482.51869,319.50288],[-0.07417,-0.75912],[0,0]],[482.73891,321.48489],[482.30218,321.53342],[[482.3008,321.54447],[0,0],[0.00001,0.00215]],[[482.30082,321.55093],[-0.00001,-0.00215],[0.68633,2.74861]],[[482.74519,330.18819],[0.16737,-3.1557],[-0.013,0.24515]],[[482.50156,330.95975],[0.12905,-0.26423],[-0.0751,0.68836]],[[482.14107,332.91845],[0.1698,-0.61036],[0.72575,0.49101]],[[486.3685,333.26168],[-0.39266,-0.00064],[0.77885,0.00126]],[[492.12257,333.34191],[-0.47462,0.33694],[1.35326,-0.96069]],[[493.08432,322.66845],[-0.00313,1.78255],[0.46966,-3.75727]],[[492.96593,311.26793],[0.28561,3.81615],[-0.39377,-2.09104]],[[492.63336,305.8747],[-0.15588,1.26694],[0.00057,-0.00467]],[[492.63509,305.8607],[-0.00058,0.00467],[0,0]],[492.63231,305.8609],[[492.41967,302.88397],[0,0],[-0.00326,-0.04034]],[[492.41476,302.76165],[0,0.04118],[0,-0.82843]],[[493.91476,301.26165],[-0.82843,0],[0.77221,0]],[[495.40564,302.59534],[-0.08274,-0.75016],[0,0]],[495.62539,304.35338],[495.58269,304.35872],[[495.63408,304.44622],[0,0],[0.00057,1.90117]],[[495.88986,310.1828],[-0.13802,-1.91996],[0.78614,3.33805]],[[499.49447,315.31377],[-1.84568,1.41247],[3.93334,-3.01012]],[[499.15688,296.56475],[1.08818,3.81386],[-0.62963,-1.67564]],[[497.2027,291.57475],[0.70559,1.64528],[0,0]],[496.76188,290.47383]],&quot;closed&quot;:true}]}" fill="#c0b39a"/><path d="M233.52424,173.35984c0.02942,-0.14611 0.0602,-0.29195 0.09216,-0.43749l-0.16893,-0.03754l0.21902,-0.98558c0.06882,-0.34319 0.37189,-0.60172 0.73534,-0.60172c0.41421,0 0.75,0.33579 0.75,0.75v0.77778h-0.03832l0.03384,0.08184c-0.07787,0.35653 -0.15236,0.71411 -0.21793,1.07321c0.02544,0.72425 -0.24748,1.58536 -0.33978,2.27784c-0.31415,2.35665 -0.29734,4.85962 -0.16322,7.26273c1.44918,0.00713 2.89374,0.04583 4.33712,0.08891c-0.04066,-1.04642 -0.11067,-1.97952 -0.11026,-2.27557l0.02389,-0.04398l-0.01954,-0.00244l0.10988,-0.87902c0.04137,-0.37508 0.35933,-0.66685 0.74544,-0.66685c0.3893,0 0.70933,0.29661 0.74641,0.67617l0.11011,0.99101l-0.21837,0.02426l-0.00069,0.00552c0,0.00108 0.00001,0.00215 0.00001,0.00323c0.1824,0.73046 0.25731,1.45872 0.27491,2.21767c0.55066,0.0162 1.10133,0.03151 1.65222,0.04442c-0.05904,0.09085 -0.12418,0.17672 -0.19727,0.25599c-0.65792,0.71356 -1.94117,0.77245 -2.42272,1.61515c-0.39621,0.69336 0.19194,1.59566 0.13289,2.39205c-0.0086,0.11595 -0.05353,0.23419 -0.12135,0.35381c-0.00225,-0.00093 -0.0045,-0.00186 -0.00674,-0.00279c-0.15559,0.17206 -0.33798,0.31484 -0.5513,0.42196c-0.74974,0.37652 -2.68004,0.02083 -3.48849,-0.05948c-0.53305,-0.07716 -1.67093,-0.17692 -2.03043,-0.58491c-0.646,-0.73316 -0.406,-3.53651 -0.40698,-4.49296c-0.00153,-1.47984 -0.10207,-3.06778 -0.11617,-4.65762c-0.04549,0.03337 -0.0918,0.06518 -0.13895,0.09535c0.30903,-1.43073 0.51122,-2.74521 0.67178,-3.65995c0.10887,-0.62022 0.13163,-1.25068 0.07847,-1.88189c0.01433,-0.0465 0.02898,-0.09287 0.04394,-0.13911zM234.52263,187.11011c0.24598,0.26458 0.72295,0.03145 1.08068,0.08175c0.6992,0.07043 2.04263,0.36327 2.73373,0.16274c0.33846,-0.09821 0.44369,-1.08806 0.45397,-2.24396c-1.43496,-0.04289 -2.87105,-0.08162 -4.31177,-0.08946c-0.01706,0.76785 -0.05288,1.98539 0.04339,2.08893z" fill="#847a69"/><path d="M245.02169,178.69764c0.16397,1.25517 -0.28296,2.80805 -0.44949,4.05539c-0.2207,0.50361 -0.48639,1.01882 -0.77385,1.48768c-3.33932,5.44662 -3.40591,-3.28599 -3.1666,-6.22961c1.27418,-1.51694 4.03149,-2.0575 4.38994,0.68654z" data-paper-data="{&quot;noHover&quot;:false,&quot;origItem&quot;:[&quot;Path&quot;,{&quot;applyMatrix&quot;:true,&quot;segments&quot;:[[[481.97189,357.48066],[2.35996,-2.81489],[-0.44323,5.46227]],[[487.74989,368.86194],[-6.18487,10.10691],[0.53241,-0.87003]],[[489.13713,366.13443],[-0.40877,0.93452],[0.30844,-2.31461]],[[489.98481,358.74748],[0.30369,2.32913],[-0.66392,-5.09193]]],&quot;closed&quot;:true}]}" fill="#c0b39a"/><path d="M233.48793,166.29083c-0.07649,-0.20609 -0.09267,-0.49631 0.20693,-0.77525c0.54891,-0.51107 1.05999,0.03785 1.05999,0.03785c0.39117,0.42481 2.24112,2.44393 2.28113,2.96939c0.0608,0.79842 -0.68308,1.56657 -1.47794,2.14755l0.04631,0.0173l-0.15513,0.41535c1.98001,1.10976 3.58725,3.86297 3.24775,6.166c-0.47107,3.19556 -3.60124,2.80971 -5.49519,1.24761c-0.89986,-0.74219 -1.56927,-1.59845 -2.25243,-2.53266c-3.72314,-3.53236 -1.99368,-7.00139 1.95523,-9.21343l0.4584,-0.39831c0,0 0.04684,-0.03899 0.12494,-0.0814z" fill="#c0b39a"/><path d="M250.62821,170.71626c-0.33541,0.67082 -1.00623,0.33541 -1.00623,0.33541l-0.18225,-0.09257c-0.54384,-0.23529 -1.07081,-0.51619 -1.56503,-0.8431c0,0 -0.62404,-0.41603 -0.20801,-1.04006c0.41603,-0.62404 1.04006,-0.20801 1.04006,-0.20801c0.41577,0.27976 0.86245,0.51691 1.32386,0.71246l0.26219,0.12965c0,0 0.67082,0.33541 0.33541,1.00623z" fill="#c0b39a"/><path d="M246.29072,178.57528c-0.75,0 -0.75,-0.75 -0.75,-0.75v-0.66667c0,-2.34611 -0.22222,-4.65336 -0.22222,-7c0,0 0,-0.75 0.75,-0.75c0.75,0 0.75,0.75 0.75,0.75c0,2.34611 0.22222,4.65336 0.22222,7v0.66667c0,0 0,0.75 -0.75,0.75z" fill="#847a69"/><path d="M235.79668,183.10362c1.60337,-1.42851 4.65184,0.46718 3.22733,2.52136c-0.05074,0.07317 -0.12243,0.14284 -0.21137,0.20847c-0.04693,0.82672 -0.17078,1.47238 -0.43389,1.54873c-0.6911,0.20053 -2.11251,-0.08547 -2.8117,-0.15589c-0.35774,-0.0503 -0.8445,0.16785 -1.09048,-0.09672c-0.09627,-0.10354 -0.05802,-1.36496 -0.04095,-2.13281l-0.00001,-0.00001c0.00042,0 0.00084,0 0.00126,0.00001c-0.04773,-0.6525 -0.0509,-1.40968 -0.12384,-1.72896c0,0 -0.1627,-0.73214 0.56944,-0.89484c0.73214,-0.1627 0.89484,0.56944 0.89484,0.56944c0.00879,0.04047 0.01507,0.09535 0.01937,0.16122z" fill="#c0b39a"/><path d="M245.79065,183.1389c-0.90875,2.15196 -3.70803,5.9101 -5.71047,3.40732c-0.01175,0.11015 -0.02542,0.22082 -0.04134,0.33223l0.0002,0.07544c0.02499,0.02646 0.04967,0.05574 0.07391,0.08806c0.45,0.6 -0.15,1.05 -0.15,1.05l-0.6884,0.45448c-0.25926,0.07407 -0.51852,0.14815 -0.77778,0.22222c0,0 -0.72114,0.20604 -0.92718,-0.5151c-0.20604,-0.72114 0.5151,-0.92718 0.5151,-0.92718c0.15232,-0.04352 0.30464,-0.08704 0.45697,-0.13056l0.00096,-0.42368c0.11066,-0.77465 0.10922,-1.49868 0.10922,-2.28017c0,0 0,-0.46539 0.3666,-0.66296c-0.2211,-1.64999 -0.00906,-3.58905 0.18975,-5.17595c-0.00331,-0.1383 0.02635,-0.24927 0.03523,-0.27918c0.02824,-0.22264 0.05564,-0.43714 0.08088,-0.6416c0,0 0.07481,-0.59847 0.62694,-0.65496c1.83919,-1.82305 4.72807,-2.06252 6.02022,0.76652c0.0987,0.21609 0.17142,0.44228 0.2228,0.67594c0.00465,0 0.00929,0 0.01394,0c-0.00026,0.57127 0.01497,1.16099 0.0538,1.75062c-0.09195,0.98942 -0.34039,1.99737 -0.47135,2.86851zM240.76373,178.40701c-0.22161,2.73113 -0.20343,10.7441 2.889,5.69064c0.26621,-0.43502 0.48923,-0.8965 0.69362,-1.36376c0.15422,-1.1573 0.57568,-2.52891 0.42384,-3.69347c-0.33196,-2.54597 -2.82648,-2.04086 -4.00646,-0.63341z" fill="#847a69"/><path d="M242.6184,171.49904c0,-0.41421 0.33579,-0.75 0.75,-0.75c0.41421,0 0.75,0.33579 0.75,0.75c0,0.41421 -0.33579,0.75 -0.75,0.75c-0.41421,0 -0.75,-0.33579 -0.75,-0.75z" fill="#c77878"/><path d="M236.50729,172.05459c0,-0.41421 0.33579,-0.75 0.75,-0.75c0.41421,0 0.75,0.33579 0.75,0.75c0,0.41421 -0.33579,0.75 -0.75,0.75c-0.41421,0 -0.75,-0.33579 -0.75,-0.75z" fill="#c77878"/><path d="M234.54062,165.52727c0.47984,0.57642 -0.09658,1.05625 -0.09658,1.05625l-0.39786,0.28111c-3.19799,1.24944 -6.31699,3.06409 -4.30083,6.39205c0.36561,0.08522 0.5169,0.47245 0.5169,0.47245c0.8825,2.27471 2.61353,4.56857 5.06789,5.31447c2.06713,0.62822 2.31058,-2.37164 2.02803,-3.56138c-0.32955,-1.47508 -1.38444,-2.76082 -2.3996,-3.84803l0.02025,0.04364c0,0 -0.63749,-0.39511 -0.24239,-1.0326c0.39511,-0.63749 1.0326,-0.24238 1.0326,-0.24238l0.28737,0.2092c1.21051,1.30356 2.33652,2.77919 2.76207,4.52737c0.55608,2.39338 -0.61546,6.1757 -3.8681,5.3553c-2.6795,-0.67585 -4.71432,-3.1627 -5.82367,-5.60241c-0.14176,-0.09183 -0.22404,-0.20338 -0.22404,-0.20338c-3.37852,-4.58105 0.31902,-7.54985 4.59764,-9.22147l-0.01595,-0.03679c0,0 0.57641,-0.47984 1.05625,0.09659z" fill="#847a69"/><path d="M240.01541,145.52068c0.74926,0.03329 0.71597,0.78256 0.71597,0.78256l-0.00593,0.13341c-0.04568,1.01869 -0.13296,2.03636 -0.26138,3.04796c0,0 -0.09476,0.74399 -0.83874,0.64924c-0.74399,-0.09476 -0.64924,-0.83874 -0.64924,-0.83874c0.12405,-0.9707 0.20781,-1.9474 0.25083,-2.92505l0.00593,-0.1334c0,0 0.03329,-0.74927 0.78256,-0.71597z" fill="#8c5900"/><path d="M229.92405,151.21935c0.40049,-0.63412 1.03461,-0.23363 1.03461,-0.23363l0.5285,0.36505c0.28513,0.3115 0.57025,0.62298 0.85538,0.93447c0,0 0.50639,0.55323 -0.04683,1.05963c-0.55322,0.50639 -1.05962,-0.04683 -1.05962,-0.04683c-0.28513,-0.3115 -0.57025,-0.62298 -0.85538,-0.93447l-0.22305,-0.10961c0,0 -0.63412,-0.40049 -0.23363,-1.03461z" fill="#8c5900"/><path d="M226.46038,163.61769c0.22069,-0.00754 0.63764,0.05178 0.75732,0.58178c0.1652,0.73158 -0.56637,0.89678 -0.56637,0.89678l-0.6219,-0.02154c-2.59192,-1.23735 -3.08642,-3.38757 -0.99588,-5.39082c0,0 0.25157,-0.2403 0.57569,-0.22224l0.46848,-0.0965c0.45158,-0.02143 0.90318,-0.04286 1.35476,-0.06429c0,0 0.74916,-0.03556 0.78471,0.71361c0.03555,0.74916 -0.71361,0.78471 -0.71361,0.78471c-0.45158,0.02143 -0.90318,0.04286 -1.35476,0.06429l-0.23792,0.06216c-1.0844,1.11809 -0.90229,1.96157 0.54949,2.69205z" fill="#8c5900"/><path d="M235.82027,179.25691c-0.31874,0.6789 -0.99764,0.36016 -0.99764,0.36016l-0.72979,-0.34264c-3.31206,-1.56226 -13.15891,-4.5226 -9.85612,-9.94359c0,0 0.26014,-0.4119 0.69308,-0.36208c0.09846,-0.08133 0.18587,-0.12034 0.18587,-0.12034l0.41669,-0.18363c0.3972,-0.14338 0.7944,-0.28679 1.1916,-0.43017c0,0 0.70544,-0.25466 0.9601,0.45077c0.25466,0.70544 -0.45077,0.9601 -0.45077,0.9601c-0.3972,0.14338 -0.7944,0.28679 -1.1916,0.43017l-0.31508,0.1427c0,0 -0.13703,0.06112 -0.31585,0.06738c-0.75488,1.34886 0.26974,2.76726 1.38575,3.68442c2.37293,1.95012 5.23082,2.68269 7.93381,3.94647l0.72979,0.34264c0,0 0.67889,0.31874 0.36015,0.99764z" fill="#8c5900"/><path d="M228.83003,168.71007l0.06373,0.1864c1.48572,2.62672 2.94183,4.76164 5.85579,6.04899c4.21207,1.86084 11.89287,-0.46062 14.76077,-3.93528c6.58976,-7.8149 0.39308,-20.92211 -10.11295,-19.95926c-5.93152,0.50012 -9.63063,5.20291 -10.77635,10.77936c-0.39796,1.93697 -0.97894,4.39882 -0.30388,6.36547c0.36156,0.12739 0.5129,0.51432 0.5129,0.51432zM227.34639,170.07177c-1.56168,-2.58766 -0.97155,-5.76419 -0.39261,-8.58392c1.30201,-6.34146 5.60705,-11.51762 12.29377,-12.13233c11.99545,-1.02564 19.10589,13.74791 11.56578,22.74962c-3.43849,4.03502 -11.78718,6.55352 -16.75135,4.39727c-2.96822,-1.2893 -4.69259,-3.44482 -6.2336,-6.04801c-0.30682,-0.10208 -0.48199,-0.38261 -0.48199,-0.38261z" data-paper-data="{&quot;index&quot;:null}" fill="#847a69"/><path d="M228.26409,168.21589c-0.67505,-1.96664 -0.09708,-4.45755 0.30088,-6.39452c1.14572,-5.57645 4.89715,-10.32694 10.82867,-10.82707c10.50602,-0.96286 16.75093,12.23616 10.16118,20.05105c-2.8679,3.47466 -10.61799,5.81196 -14.83006,3.95112c-2.91395,-1.28735 -4.39682,-3.44954 -5.88253,-6.07627l-0.0641,-0.18722c0,0 -0.15248,-0.38971 -0.51404,-0.51711z" data-paper-data="{&quot;noHover&quot;:false,&quot;origItem&quot;:[&quot;Path&quot;,{&quot;applyMatrix&quot;:true,&quot;segments&quot;:[[461.79205,256.51809],[[461.57425,256.7885],[0,0],[-2.51619,4.68647]],[[458.07109,271.20873],[-0.82414,-5.55431],[1.19129,8.02865]],[[477.82886,289.50257],[-7.87755,-1.00359],[17.84882,2.46512]],[[498.05541,255.64538],[11.32339,14.75074],[-6.32818,-8.36895]],[[471.84818,249.73122],[9.38889,-3.5412],[-3.26121,1.23003]],[[462.07578,255.26964],[2.29549,-2.85706],[0.15045,0.65872]]],&quot;closed&quot;:true}]}" fill="#c0b39a"/><path d="M243.72245,147.74015c0.74981,0.01717 0.73264,0.76697 0.73264,0.76697l-0.01486,0.61203c0.0194,0.80128 0.00907,1.60401 -0.03555,2.40428c0,0 -0.04214,0.74882 -0.79095,0.70668c-0.74882,-0.04214 -0.70668,-0.79095 -0.70668,-0.79095c0.04318,-0.75985 0.05282,-1.52214 0.03364,-2.28298l0.0148,-0.6834c0,0 0.01716,-0.7498 0.76696,-0.73263z" fill="#8c5900"/><path d="M236.95022,176.86821c0.01852,0.74977 -0.73125,0.76829 -0.73125,0.76829l-0.77945,-0.10675c-2.97166,-1.88481 -5.79711,-2.49849 -8.39653,-5.21118c0,0 -0.0481,-0.05035 -0.09965,-0.13503c-0.08071,-0.06788 -0.15488,-0.1639 -0.21456,-0.29774c-0.30546,-0.68498 0.37951,-0.99044 0.37951,-0.99044c0.42733,-0.19057 0.85466,-0.38114 1.28199,-0.57172c0.15073,-0.16138 0.48749,-0.41415 0.94682,-0.12405c0.63412,0.40049 0.23363,1.03461 0.23363,1.03461l-0.38799,0.37843c-0.16532,0.07372 -0.33064,0.14744 -0.49595,0.22117c2.36297,2.1846 4.84983,2.72649 7.55371,4.42769l-0.05857,-0.12456c0,0 0.74977,-0.01852 0.76829,0.73125z" fill="#8c5900"/><path d="M246.69069,162.24795c0,0 0.01967,0.00656 0.05139,0.02078c0.48284,-0.87539 0.97849,-1.74361 1.50709,-2.59202l-0.47986,0.06165l-0.04587,-0.35704l-0.07535,-0.03571c-0.49302,0.08144 -0.94961,0.16602 -1.13865,0.28239c-0.44432,0.27352 -0.82975,1.34064 -1.12586,1.75108c-0.05867,0.08133 -0.11688,0.16269 -0.17465,0.24411c0.46849,0.23251 0.95094,0.44769 1.48176,0.62476zM242.48945,161.91064l-0.33464,-0.2062c0,0 -0.01387,-0.00883 -0.03618,-0.02592c-0.2769,0.25936 -0.53315,0.53548 -0.76596,0.82598c0.32923,0.22007 0.65259,0.447 0.97572,0.6734c0.20332,-0.34985 0.41135,-0.69701 0.62474,-1.04102c-0.15203,-0.07639 -0.3063,-0.152 -0.46369,-0.22624zM245.02532,164.84295c0,0 0.11565,0.05482 0.22877,0.16693c0.25534,-0.4683 0.50835,-0.9383 0.76211,-1.40808c-0.58835,-0.21045 -1.12548,-0.46472 -1.65381,-0.73426c-0.25646,0.3932 -0.50412,0.7883 -0.74438,1.18612c0.45115,0.28812 0.91557,0.55736 1.40732,0.7893zM244.38287,166.19841c-0.52965,-0.25214 -1.02896,-0.54364 -1.5143,-0.8543c-0.32972,0.59006 -0.64693,1.18764 -0.95599,1.79511c0.47102,0.29036 0.95569,0.56586 1.48605,0.81722c0,0 0.05147,0.0244 0.11932,0.07392c0.36164,-0.58319 0.70824,-1.17625 1.04641,-1.77503c-0.10891,-0.02254 -0.18148,-0.05694 -0.18148,-0.05694zM240.03239,165.85198l0.01996,0.08563c0.20014,0.12791 0.39553,0.25536 0.58837,0.38174c0.3093,-0.61609 0.62659,-1.22852 0.95513,-1.83489c-0.34935,-0.24256 -0.69903,-0.48575 -1.05562,-0.72148c-0.31474,0.62449 -0.52882,1.2898 -0.62233,1.97874c0.07319,0.05943 0.11448,0.11026 0.11448,0.11026zM244.21564,160.23655c-0.27956,0.13718 -0.55011,0.28814 -0.81026,0.45169c0.12391,0.06151 0.2459,0.12362 0.3665,0.18598c0.14534,-0.21413 0.2932,-0.42672 0.44376,-0.63767zM242.75619,169.31192c-0.53505,-0.2536 -1.02891,-0.53238 -1.509,-0.82582c-0.07959,0.16562 -0.15882,0.33205 -0.2378,0.49937l-0.09879,0.16594c0,0 -0.10753,0.1689 -0.29874,0.2766c0.16445,0.30999 0.35769,0.61887 0.5813,0.92524c0.72169,0.46597 1.15871,-0.23357 1.58324,-1.03262c-0.01311,-0.00532 -0.02022,-0.00869 -0.02022,-0.00869zM249.47991,159.13679c0.63265,0.4028 0.22985,1.03546 0.22985,1.03546c-1.86741,2.93303 -3.30561,6.12288 -5.16374,9.04134c-0.39014,0.61276 -1.48907,2.66596 -2.1292,2.92736c-0.89397,0.36504 -1.59667,-0.27827 -2.24208,-0.68645c-4.43216,-5.77909 0.05611,-12.67438 6.67488,-13.54919c0.32927,-0.03212 0.65854,-0.06424 0.9878,-0.09637l0.1642,0.14622l0.03944,-0.08322l0.71785,0.34024c0.03144,0.01435 0.06228,0.03104 0.09227,0.05014c0.26059,0.16591 0.38407,0.46593 0.33772,0.75269c0.09036,0.0178 0.1876,0.05598 0.29099,0.1218z" fill="#000000"/><path d="M243.76722,160.92399c-0.12061,-0.06236 -0.28159,-0.14989 -0.40551,-0.21141c0.26016,-0.16356 0.61804,-0.36322 0.89762,-0.50039c-0.15056,0.21095 -0.34676,0.49768 -0.49211,0.71181z" data-paper-data="{&quot;noHover&quot;:false,&quot;origItem&quot;:[&quot;Path&quot;,{&quot;applyMatrix&quot;:true,&quot;segments&quot;:[[[235.84889,162.57897],[0.2588,0.01371],[0.26586,0.16215]],[[236.66508,163.01986],[-0.27769,-0.13161],[-0.01466,-0.13756]],[[236.62512,162.61082],[0.01217,0.13523],[-0.25868,-0.0076]]],&quot;closed&quot;:true}]}" fill="#ce9700"/><path d="M243.00149,162.12411c-0.21339,0.34401 -0.45951,0.75289 -0.66283,1.10274c-0.32314,-0.2264 -0.70581,-0.49267 -1.03504,-0.71275c0.2328,-0.29049 0.53544,-0.62614 0.81233,-0.8855c0.02232,0.01709 0.03888,0.02585 0.03888,0.02585l0.36503,0.2165c0.1574,0.07424 0.3296,0.17677 0.48163,0.25316z" data-paper-data="{&quot;noHover&quot;:false,&quot;origItem&quot;:[&quot;Path&quot;,{&quot;applyMatrix&quot;:true,&quot;segments&quot;:[[[238.18814,163.13598],[-0.02191,-0.17264],[0,0]],[238.19393,163.529],[[238.1915,163.57345],[0.00243,-0.02801],[0.36749,0.09428]],[[239.29962,163.77594],[-0.37007,-0.04036],[0.00882,-0.39591]],[[239.34362,162.59122],[-0.01743,0.39417],[-0.40431,0.01638]],[[238.12995,162.62333],[0.40479,-0.00476],[0.01722,0.16927]]],&quot;closed&quot;:true}]}" fill="#ce9700"/><path d="M239.88328,165.77778c0.09351,-0.68893 0.34024,-1.44028 0.65499,-2.06476c0.35659,0.23573 0.75197,0.50467 1.10132,0.74723c-0.32855,0.60637 -0.68761,1.29298 -0.99691,1.90907c-0.19283,-0.12638 -0.41593,-0.26093 -0.61606,-0.38883l-0.02258,-0.08732c0,0 -0.04757,-0.05595 -0.12075,-0.11539z" data-paper-data="{&quot;noHover&quot;:false,&quot;origItem&quot;:[&quot;Path&quot;,{&quot;applyMatrix&quot;:true,&quot;segments&quot;:[[242.83242,163.09183],[[242.89393,163.029],[0,0],[0.00041,-0.23752]],[[242.89995,162.32768],[-0.00304,0.23054],[-0.68581,0.06998]],[[240.83918,162.50745],[0.68795,-0.04852],[-0.01698,0.42496]],[[240.79752,163.78539],[0.00733,-0.4274],[0.69582,-0.0699]],[[242.80089,163.24762],[-0.63136,0.29113],[0.01082,-0.09366]]],&quot;closed&quot;:true}]}" fill="#ce9700"/><path d="M242.82529,169.31003c-0.42451,0.79905 -0.93282,1.55388 -1.6545,1.08791c-0.22361,-0.30637 -0.44385,-0.66768 -0.60831,-0.97767c0.19121,-0.1077 0.306,-0.29579 0.306,-0.29579l0.10626,-0.17505c0.07897,-0.1673 0.17828,-0.34553 0.25786,-0.51114c0.48009,0.29344 1.03728,0.60895 1.57234,0.86255c0,0 0.00722,0.00389 0.02033,0.00921z" data-paper-data="{&quot;noHover&quot;:false,&quot;origItem&quot;:[&quot;Path&quot;,{&quot;applyMatrix&quot;:true,&quot;segments&quot;:[[[244.28814,158.93598],[0,0],[0.07344,0.58754]],[[244.40196,160.6524],[-0.01031,-0.56257],[0.18245,-0.02181]],[[244.9509,160.5848],[-0.18354,0.02324],[0,0]],[245.14393,160.579],[[245.53769,160.68245],[-0.19354,-0.10345],[0.17317,-0.30521]],[[246.00596,159.69519],[-0.13834,0.35317],[0.00547,-0.85903]],[[244.28461,158.91425],[0.90202,-0.07105],[0.00255,0.01392]]],&quot;closed&quot;:true}]}" fill="#ce9700"/><path d="M244.61215,166.24066c-0.33817,0.59877 -0.72122,1.2552 -1.08286,1.8384c-0.06784,-0.04952 -0.12307,-0.07318 -0.12307,-0.07318c-0.53036,-0.25137 -1.06966,-0.55931 -1.54068,-0.84967c0.30906,-0.60748 0.66114,-1.27053 0.99088,-1.86059c0.48534,0.31066 1.04319,0.63198 1.57284,0.88412c0,0 0.07398,0.03839 0.18289,0.06092z" data-paper-data="{&quot;noHover&quot;:false,&quot;origItem&quot;:[&quot;Path&quot;,{&quot;applyMatrix&quot;:true,&quot;segments&quot;:[[[240.78814,159.23598],[0,0],[0.07177,0.5822]],[[240.88079,160.97217],[0.00139,-0.57625],[0.67482,-0.03877]],[[242.90847,160.81448],[-0.67842,0.06555],[-0.00804,-0.55327]],[[242.79972,159.12203],[0.0728,0.58238],[0,0]],[[242.798,158.9817],[-0.00534,0.08382],[-0.68617,0.00816]],[[240.73869,159.05231],[0.68671,-0.03632],[0.03948,0.10397]]],&quot;closed&quot;:true}]}" fill="#ce9700"/><path d="M243.56861,164.06155c0.24026,-0.39782 0.51478,-0.84547 0.77125,-1.23866c0.52833,0.26954 1.13682,0.55775 1.72515,0.7682c-0.25376,0.46979 -0.53947,0.99782 -0.79479,1.46611c-0.11311,-0.11212 -0.23666,-0.16494 -0.23666,-0.16494c-0.49176,-0.23193 -1.0138,-0.54259 -1.46495,-0.83071z" data-paper-data="{&quot;noHover&quot;:false,&quot;origItem&quot;:[&quot;Path&quot;,{&quot;applyMatrix&quot;:true,&quot;segments&quot;:[[[239.29972,159.42203],[0.06847,0.53938],[0,0]],[[239.31768,159.1394],[-0.03383,0.15563],[-0.53216,0.03612]],[[237.72059,159.25278],[0.53257,-0.03825],[0.13846,0.60932]],[[237.98944,161.04218],[-0.05638,-0.59043],[0.46941,0.00516]],[[239.38976,161.03307],[-0.46461,0.01098],[0.00074,-0.5353]]],&quot;closed&quot;:true}]}" fill="#ce9700"/><path d="M245.1665,161.64964c0.05776,-0.08141 0.11413,-0.16601 0.17279,-0.24734c0.29612,-0.41044 0.71452,-1.54946 1.15885,-1.823c0.18904,-0.11637 0.68512,-0.19355 1.17812,-0.27499l0.07743,0.03721l0.05266,0.36326l0.4846,-0.05554c-0.52861,0.84841 -1.06627,1.7941 -1.54911,2.66949c-0.03172,-0.01422 -0.053,-0.02081 -0.053,-0.02081c-0.53083,-0.17708 -1.05384,-0.41578 -1.52233,-0.64829z" data-paper-data="{&quot;noHover&quot;:false,&quot;origItem&quot;:[&quot;Path&quot;,{&quot;applyMatrix&quot;:true,&quot;segments&quot;:[[[236.21632,159.41091],[0.13572,0.54288],[0,0]],[[236.20625,159.3564],[0.00504,0.03439],[-0.99774,0.06285]],[[233.21037,159.4772],[0.99956,-0.00975],[0,0]],[233.5201,159.84887],[233.24356,160.07932],[[233.2539,160.16206],[0,0],[0.33348,0.37214]],[[234.10364,160.97089],[-0.19969,-0.09696],[0.46936,0.2279]],[[236.18541,160.98015],[-0.50526,-0.02935],[0.10011,0.00581]],[[236.48511,160.99637],[-0.0997,-0.005],[-0.05548,-0.52006]]],&quot;closed&quot;:true}]}" fill="#ce9700"/><path d="M231.74566,167.30318c0.30548,0.68497 -0.37951,0.99044 -0.37951,0.99044l-0.78709,0.19625c-1.85171,-0.38458 -3.28669,-0.20134 -4.82262,-1.45862c0,0 -0.57955,-0.47604 -0.1035,-1.0556c0.47606,-0.57955 1.05559,-0.1035 1.05559,-0.1035c1.26487,1.04303 2.58859,0.82023 4.17519,1.14898l-0.12851,-0.09746c0,0 0.68497,-0.30546 0.99044,0.37951z" fill="#8c5900"/><path d="M234.82346,146.97734c0.26835,-0.70034 0.96869,-0.43201 0.96869,-0.43201l0.68385,0.30325c0.902,0.77659 1.3821,1.82129 1.94404,2.87537c0,0 0.35187,0.66234 -0.31046,1.01421c-0.66234,0.35187 -1.0142,-0.31046 -1.0142,-0.31046c-0.43527,-0.82251 -0.84551,-1.86722 -1.57146,-2.42002l-0.26845,-0.06165c0,0 -0.70034,-0.26835 -0.432,-0.96869z" fill="#8c5900"/><path d="M251.86626,152.36298c-0.40049,0.63412 -1.03461,0.23363 -1.03461,0.23363l-0.22639,-0.16946c-1.29469,-1.36012 -3.08149,-2.50606 -4.66412,-3.51059c-0.61341,-0.38935 -1.35969,-1.09389 -1.63507,-0.13736c0,0 -0.31874,0.6789 -0.99764,0.36015c-0.6789,-0.31874 -0.36015,-0.99764 -0.36015,-0.99764c1.78935,-3.22917 7.01364,1.44603 8.74166,3.24934l-0.05729,-0.06267c0,0 0.63412,0.40049 0.23363,1.03461z" fill="#8c5900"/><path d="M239.70172,159.58237c-0.75,0 -0.75,-0.75 -0.75,-0.75v-0.33334c0.00614,-0.7465 0.09956,-1.49758 0.22615,-2.25c-0.78834,0 -1.57669,0 -2.36504,0c0,0 -0.75,0 -0.75,-0.75c0,-0.75 0.75,-0.75 0.75,-0.75c0.88177,0 1.76354,0 2.64531,0c0.15204,-0.7797 0.3011,-1.55851 0.38706,-2.33282c0,0 0.08282,-0.74542 0.82824,-0.66259c0.74542,0.08283 0.66259,0.82824 0.66259,0.82824c-0.0793,0.71311 -0.2222,1.43867 -0.37035,2.16717c0.61572,0 1.23144,0 1.84716,0l0.27702,-0.16858c0,0 0.69635,-0.27855 0.9749,0.41781c0.27855,0.69636 -0.41781,0.9749 -0.41781,0.9749l-0.8341,0.27586c-0.71352,0 -1.42704,0 -2.14056,0c-0.13307,0.75749 -0.2285,1.51107 -0.22055,2.25v0.33334c0,0 0,0.75 -0.75,0.75z" fill="#000000"/><path d="M232.76605,160.60847c-0.12409,-0.17209 -0.3285,-0.57259 0.072,-0.9731c0.53033,-0.53033 1.06066,0 1.06066,0l0.32324,0.53538c0.13605,0.95235 0.09117,1.86774 0.02576,2.77571c0.59662,-0.04602 1.19194,-0.08141 1.78734,-0.08631h0.77777c0,0 0.75,0 0.75,0.75c0,0.75 -0.75,0.75 -0.75,0.75h-0.77777c-0.62272,-0.0067 -1.25275,0.02885 -1.88709,0.07898c-0.02811,0.64338 -0.02241,1.29117 0.074,1.95385c0,0 0.10607,0.74246 -0.63639,0.84852c-0.74246,0.10607 -0.84853,-0.63639 -0.84853,-0.63639c-0.09758,-0.69416 -0.09925,-1.36853 -0.06766,-2.03628c-0.7659,0.06724 -1.53463,0.12466 -2.30099,0.12466c0,0 -0.75,0 -0.75,-0.75c0,-0.75 0.75,-0.75 0.75,-0.75c0.80708,0 1.60665,-0.05635 2.40192,-0.12276c0.05622,-0.80804 0.0922,-1.62092 -0.00425,-2.46225z" fill="#000000"/><path d="M236.49724,161.26941c-0.58046,0.47493 -1.05539,-0.10553 -1.05539,-0.10553l-0.09583,-0.14014c-1.91117,-1.56986 -3.95614,-3.2941 -6.52571,-3.40352c0,0 -0.74927,-0.03311 -0.71616,-0.78238c0.03311,-0.74927 0.78239,-0.71616 0.78239,-0.71616c2.92851,0.13363 5.22733,1.94879 7.41157,3.74296l0.30466,0.34936c0,0 0.47493,0.58046 -0.10553,1.05539z" fill="#8c5900"/><path d="M239.21905,157.56643c-0.26835,0.70034 -0.9687,0.43199 -0.9687,0.43199l-0.60828,-0.24867c-2.30433,-1.45533 -4.2308,-2.04757 -6.98107,-2.06009c0,0 -0.74999,-0.00353 -0.74646,-0.75352c0.00353,-0.75 0.75352,-0.74645 0.75352,-0.74645c3.02206,0.01469 5.2365,0.6886 7.77499,2.29183l0.344,0.11622c0,0 0.70036,0.26835 0.43201,0.96871z" fill="#8c5900"/><path d="M239.89907,154.30871c-0.6418,0.38807 -1.02987,-0.25373 -1.02987,-0.25373l0.05005,0.00013c-0.74557,-0.6148 -4.22783,-2.79666 -4.72563,-2.36018c0,0 -0.66235,0.35188 -1.01421,-0.31046c-0.35187,-0.66234 0.31047,-1.01421 0.31047,-1.01421c1.68219,-0.71694 4.92556,1.33399 6.38146,2.52576l0.28145,0.38282c0,0 0.38807,0.6418 -0.25373,1.02987z" fill="#8c5900"/><path d="M234.36563,162.32107c-0.07462,0.74628 -0.8209,0.67166 -0.8209,0.67166l-0.26619,-0.02792c-2.63288,-0.4206 -5.52038,-1.61167 -6.46036,-4.3323c0,0 -0.23076,-0.71362 0.48287,-0.94437c0.71362,-0.23076 0.94438,0.48286 0.94438,0.48286c0.62431,2.15491 3.30746,2.99912 5.26976,3.31261l0.1788,0.01658c0,0 0.74628,0.07462 0.67166,0.8209z" fill="#8c5900"/></g></g></svg>