<svg version="1.1" xmlns="http://www.w3.org/2000/svg" xmlns:xlink="http://www.w3.org/1999/xlink" width="32.75939" height="31.49412" viewBox="0,0,32.75939,31.49412"><g transform="translate(-223.49117,-164.59614)"><g data-paper-data="{&quot;isPaintingLayer&quot;:true}" fill-rule="nonzero" stroke="none" stroke-width="0.5" stroke-linecap="butt" stroke-linejoin="miter" stroke-miterlimit="10" stroke-dasharray="" stroke-dashoffset="0" style="mix-blend-mode: normal"><path d="M230.58683,167.75416c2.25702,-3.37706 7.8123,-3.31322 11.33617,-3.04445c5.07476,0.38706 10.08767,1.86094 12.22489,7.11212c2.16873,4.59656 2.3469,9.32239 1.9109,14.25327c-1.74415,4.21521 -5.99962,9.15319 -10.82072,9.57451c-4.36878,0.89362 -10.06579,0.49836 -13.94234,-1.83481c-5.5435,-2.0295 -6.45743,-6.55979 -7.74627,-11.76122c-0.47094,-5.29052 1.96097,-9.10017 5.505,-12.88049c0.50095,-0.53436 0.9381,-0.99901 1.53238,-1.41891zM230.62316,169.36994c-0.21485,0.20947 -0.41856,0.43264 -0.64131,0.67026c-3.29277,3.51234 -5.58368,6.89758 -5.17722,11.80179c1.20226,4.85199 1.93084,8.9156 7.04481,10.82689c3.69058,2.20525 9.05592,2.5726 13.20803,1.72329c4.33523,-0.39266 8.12464,-4.85137 9.76556,-8.61554c0.32343,-4.67634 0.22187,-9.07019 -1.8409,-13.44218c-1.94709,-4.82236 -6.55065,-6.00604 -11.15991,-6.35759c-3.15618,-0.24073 -5.97682,-0.5111 -8.62694,1.51678c-0.39198,0.29994 -0.85606,0.48159 -1.23366,0.74267c-0.04525,0.05672 -0.08279,0.08881 -0.08279,0.08881l-0.30337,0.25633c-0.09613,0.1169 -0.17591,0.25103 -0.23347,0.40971c0,0 -0.21561,0.50857 -0.71881,0.37876z" fill="#874848"/><path d="M231.31293,168.96358c0.05756,-0.15868 0.13837,-0.29357 0.23448,-0.41046l0.30432,-0.25699c0,0 0.03782,-0.03229 0.08308,-0.08901c0.3776,-0.26109 0.8453,-0.44489 1.23728,-0.74483c2.65012,-2.02788 5.49592,-1.76216 8.6521,-1.52144c4.60926,0.35155 9.24363,1.555 11.19072,6.37736c2.06277,4.37199 2.16795,8.80271 1.84451,13.47905c-1.64092,3.76417 -5.45577,8.2481 -9.791,8.64076c-4.15211,0.84931 -9.55518,0.47754 -13.24575,-1.72772c-5.11398,-1.91129 -5.86137,-6.00611 -7.06362,-10.85811c-0.40645,-4.90421 1.89713,-8.32397 5.18991,-11.83631c0.22276,-0.23762 0.42849,-0.46263 0.64333,-0.6721c0.50321,0.12982 0.72065,-0.38024 0.72065,-0.38024z" data-paper-data="{&quot;noHover&quot;:false,&quot;origItem&quot;:[&quot;Path&quot;,{&quot;applyMatrix&quot;:true,&quot;segments&quot;:[[[459.56426,339.13247],[1.02396,0.18617],[-0.39517,0.45988]],[[458.39179,340.59683],[0.40649,-0.51842],[-6.00865,7.66308]],[[449.94023,365.4313],[-1.5882,-9.92268],[3.16673,9.69277]],[[465.70433,386.38263],[-10.50019,-3.0975],[7.70859,3.91713]],[[492.31393,387.84033],[-8.14445,2.37416],[8.58201,-1.47279]],[[510.41975,368.78102],[-2.67499,7.91932],[-0.09669,-9.57206]],[[504.6173,341.69637],[4.80643,8.58176],[-4.6472,-9.51676]],[[481.35664,330.48438],[9.24644,0],[-6.33147,0]],[[464.3954,334.91257],[4.96264,-4.54068],[-0.73401,0.6716]],[[462.05329,336.61638],[0.71153,-0.59026],[-0.08124,0.12253]],[461.90229,336.81008],[[461.33804,337.37912],[0,0],[-0.17314,0.25296]],[[460.93748,338.24961],[0.08961,-0.33204],[0,0]]],&quot;closed&quot;:true}]}" fill="#ab5454"/><path d="M227.26619,183.25081c0.0041,-0.00992 0.00821,-0.01986 0.01231,-0.02979l-0.01273,-0.00008l0.00168,-0.25503c-0.12118,-0.13181 -0.1937,-0.30611 -0.19272,-0.49447l-0.00394,-0.71135c-0.00678,-0.10171 0.00981,-0.21285 0.04527,-0.32128c-0.19164,-0.14649 -0.30702,-0.38131 -0.28673,-0.63645c0.02103,-0.26442 0.1003,-1.26107 0.12133,-1.52549c0,0 0.05824,-0.73224 0.80597,-0.67521c0.74774,0.05703 0.6895,0.78927 0.6895,0.78927c-0.00434,0.05457 -0.00868,0.10913 -0.01302,0.16371c0.0801,-0.02104 0.16516,-0.02932 0.25256,-0.02266c0.36422,0.02778 0.64733,0.30591 0.68703,0.64862l0.03749,0.27367c0.10233,0.0225 0.19617,0.06525 0.27731,0.12343c0.03493,-0.02435 0.07202,-0.04581 0.11091,-0.06407c0.5181,-0.35949 1.07702,-0.45861 1.55914,-0.02916c0.04449,-0.0045 0.09002,-0.00516 0.1362,-0.00163c0.20875,0.01592 0.39087,0.11409 0.51578,0.25953c0.11685,-0.07695 0.25646,-0.12229 0.40522,-0.12462c0.11354,-0.54106 0.62246,-1.16296 1.04755,-1.32389c0.01431,-0.00542 0.02877,-0.00537 0.04313,-0.00086l0.48241,-0.49361c0.15031,-0.1562 0.36888,-0.24681 0.60441,-0.22885c0.41297,0.0315 0.72166,0.38486 0.6895,0.78927c-0.00364,0.04577 -0.01149,0.09022 -0.02315,0.13304l-0.17946,0.7093l-0.03922,-0.00951l0.00949,0.10095c-0.37375,0.40449 -0.80514,1.26336 -1.13528,1.09117c-0.08323,0.14526 -0.17723,0.28844 -0.2779,0.42397l0.00398,0.00215l-0.35672,0.63288c-0.08854,0.16567 -0.23927,0.29275 -0.41959,0.35393c-0.02949,0.06743 -0.06146,0.13406 -0.09557,0.19995l0.12951,0.04241l-0.2402,0.70341c-0.1015,0.32032 -0.41865,0.54103 -0.7745,0.51389c-0.24853,-0.01896 -0.45929,-0.15448 -0.58071,-0.34755c-0.12617,0.27457 -0.41822,0.45553 -0.74238,0.4308c-0.07067,-0.00539 -0.13827,-0.0202 -0.20164,-0.04309c-0.05961,0.19511 -0.199,0.35402 -0.37871,0.44363c-0.00228,0.06973 -0.01559,0.13621 -0.04143,0.19435l-0.10468,0.63173c-0.05835,0.37708 -0.40524,0.65153 -0.79969,0.62145c-0.3086,-0.02354 -0.55896,-0.2268 -0.65239,-0.49679l-0.25235,-0.67934l0.20289,-0.07228c-0.03037,-0.06595 -0.05807,-0.13144 -0.08315,-0.19663c-0.07339,0.01687 -0.15066,0.02309 -0.22984,0.01705c-0.37829,-0.02885 -0.66909,-0.3278 -0.69053,-0.68864l-0.06066,-0.79138l0.01011,-0.00074z" fill="#d30000"/><path d="M252.19008,176.19629c0.73497,-0.14632 0.88439,0.57341 0.88439,0.57341l0.10567,0.57898l0.00402,0.7284c0.00038,0.02299 -0.00035,0.04621 -0.0022,0.06959c-0.03216,0.40441 -0.393,0.7067 -0.80597,0.67521c-0.04195,-0.0032 -0.08283,-0.00972 -0.12238,-0.01927c-0.36753,0.24527 -0.71591,0.69579 -0.99631,0.93136l0.00259,0.46777c0.00038,0.02299 -0.00035,0.04621 -0.0022,0.06959c-0.03216,0.40441 -0.393,0.7067 -0.80597,0.67521c-0.28864,-0.02201 -0.52634,-0.20127 -0.63232,-0.44528l-0.15983,-0.34897c-0.3033,0.04812 -0.62864,0.06951 -0.91007,0.05154c-0.13838,0.2425 -0.41199,0.39728 -0.71335,0.3743c-0.33636,-0.02565 -0.60355,-0.26485 -0.67372,-0.57121l-0.0565,-0.22224c-0.11113,-0.01439 -0.21387,-0.05225 -0.30333,-0.10802c-0.14491,0.11813 -0.33518,0.18318 -0.53801,0.16771c-0.35584,-0.02714 -0.63428,-0.29328 -0.68391,-0.62512l-0.12609,-0.73134c-0.07574,-0.79091 -0.64753,-1.1277 -0.89223,-1.97824c0,0 -0.1812,-0.71269 0.54657,-0.89014c0.72778,-0.17745 0.90898,0.53524 0.90898,0.53524c0.05786,0.29312 0.15496,0.51412 0.26652,0.71406c0.06983,-0.01488 0.14304,-0.02014 0.21795,-0.01443c0.28061,0.0214 0.51308,0.19143 0.62317,0.42509l0.17703,0.35856c0.08458,-0.02415 0.17497,-0.03398 0.26801,-0.02688c0.12927,0.00986 0.24833,0.05126 0.34991,0.11589l0.01573,-0.0442c0.24668,0.22521 0.71419,0.71227 0.98547,1.06969c0.03486,-0.40176 0.39436,-0.7013 0.80553,-0.66994c0.02131,0.00162 0.04232,0.00411 0.06303,0.00741c0.14136,-0.10539 0.32127,-0.16227 0.51233,-0.1477c0.17652,0.01346 0.33398,0.08573 0.45392,0.19566c-0.0269,-0.28104 -0.03913,-0.60009 0.10418,-0.71519c0.12827,-0.10301 0.30737,-0.02941 0.48355,0.03398c0.00785,-0.09874 0.01357,-0.17065 0.01357,-0.17065c0.00594,-0.0747 0.0231,-0.14592 0.04973,-0.21219l-0.00298,-0.01159c0,0 -0.14942,-0.71974 0.58555,-0.86606z" fill="#d30000"/><path d="M246.25176,170.5949c0.20839,-0.28101 0.59698,-0.29354 0.59698,-0.29354l0.85323,-0.01133c2.8962,0.53969 5.13455,3.28858 5.20233,6.15254c-0.92831,3.10463 -7.02594,2.63116 -8.54948,0.03123c-1.11068,-1.89538 0.28028,-4.23415 1.54802,-5.65219c0,0 0.13704,-0.15262 0.34892,-0.22671z" fill="#000000"/><path d="M230.17834,173.54462l0.31182,-0.20078c1.89624,-0.65399 5.65433,-0.56741 6.55455,1.76432c0.6616,1.71368 -1.00067,3.65038 -2.03626,4.79846c-1.71906,1.42322 -5.63907,2.88603 -7.59971,1.02498c-1.9474,-1.84848 0.29198,-5.92311 1.90612,-7.29845c0,0 0.43064,-0.36077 0.86348,-0.08852z" fill="#000000"/><path d="M242.32796,192.37707c-0.05488,0.35502 -0.2429,0.61744 -0.4439,0.60211c-0.19943,-0.01521 -0.343,-0.29858 -0.34337,-0.6537l-0.00485,-0.44742l-0.07854,-0.01091c-0.09033,0.34997 -0.24851,0.82465 -0.51818,1.40106l-0.17455,-1.38842l-0.18898,0.41647c-0.0868,0.19648 -0.22059,0.32073 -0.36068,0.31005c-0.11445,-0.00873 -0.21051,-0.10578 -0.27166,-0.25404c-0.00716,0.01534 -0.01447,0.03055 -0.02189,0.04565c0.00235,0.33863 -0.02974,0.59348 -0.11375,0.87349l0.07275,0.04056l-0.15437,0.70995c-0.06608,0.32302 -0.24368,0.55437 -0.43276,0.53995c-0.18874,-0.0144 -0.32745,-0.26898 -0.34209,-0.59726c-0.13661,-0.07059 -0.23338,-0.27798 -0.25223,-0.53654l-0.05189,-0.60108c-0.05577,0.04861 -0.10887,0.07734 -0.15468,0.07766c-0.23743,0.00169 -0.3324,-0.55852 -0.4986,-0.83779c0,0 -0.22043,-0.56741 0.11521,-1.03123c0.19232,-0.26577 0.34683,-0.19296 0.4437,-0.08232c0.03791,-0.32736 0.18156,-0.74153 0.5325,-0.75878c0.0402,-0.00197 0.07824,0.00258 0.11424,0.01308c0.05589,-0.04249 0.11652,-0.06408 0.17839,-0.05936c0.10682,0.00815 0.1976,0.09323 0.25896,0.22506c0.14349,-0.38302 0.32152,-0.70824 0.46998,-0.71769c0.09296,-0.00591 0.16454,0.06785 0.22498,0.18315c0.06114,-0.33261 0.17489,-0.63115 0.34193,-0.77357c-0.00257,-0.05438 -0.00172,-0.11078 0.00287,-0.16848c0.01742,-0.21899 0.08521,-0.41155 0.17856,-0.53943l0.33513,-0.4631l0.01047,0.02693l0.02902,-0.07586c0.21056,-0.18324 0.44124,-0.36131 0.68753,-0.5315c0.07207,-0.30199 0.24272,-0.51391 0.42393,-0.50009c0.07171,0.00547 0.13619,0.04561 0.1894,0.11129c1.64953,-0.95926 3.75377,-1.53843 5.26094,-1.1023l0.00637,-0.18639l0.39748,-0.03036c0.01255,-0.0012 0.02519,-0.00134 0.03788,-0.00037c0.21944,0.01674 0.37124,0.35813 0.33908,0.76254c-0.01293,0.16254 -0.05361,0.31052 -0.11189,0.42831c0.02654,0.15726 0.04739,0.3491 0.0618,0.58174c0.13135,2.12128 -0.78491,1.78482 -1.42569,1.30135c-0.18229,0.38977 -0.43056,0.44695 -0.64413,0.17617c-0.19441,0.77233 -0.58181,1.89952 -0.73613,2.06203c-0.5,0.52651 -0.89475,-0.00181 -1.19348,-0.25599c-0.13875,0.08014 -0.23535,0.04618 -0.32888,-0.07421c-0.05093,0.05049 -0.09687,0.14629 -0.13796,0.30413l-0.02141,0.02589l0.00582,0.00886l-0.27644,0.58438c-0.08689,0.18813 -0.21754,0.30607 -0.35418,0.29565c-0.14558,-0.0111 -0.26139,-0.1651 -0.31346,-0.38559c-0.08674,0.17551 -0.21253,0.28408 -0.34387,0.27406c-0.07661,-0.00584 -0.14498,-0.05126 -0.20016,-0.12512c-0.0336,0.04384 -0.07029,0.07942 -0.109,0.10505z" data-paper-data="{&quot;index&quot;:null}" fill="#d30000"/><path d="M252.06539,183.96256c-0.34801,0.8783 -0.54766,1.35506 -0.88411,1.55864c-0.05536,0.19065 -0.17313,0.32183 -0.17313,0.32183c-4.06118,4.51712 -8.08868,5.12526 -13.94348,5.1994c-1.95422,-0.1472 -3.70186,-0.61874 -5.61858,-0.95667l-0.81558,-0.06221c-0.41297,-0.0315 -0.72166,-0.38486 -0.6895,-0.78927c0.02421,-0.30441 0.23467,-0.55098 0.51341,-0.64085l0.69797,-0.24216l0.07893,0.21815c2.61782,-1.26552 6.01716,-0.90875 8.88084,-1.24648c2.30112,-0.27138 4.53326,-1.39655 6.69368,-2.1461c0.67929,-0.30343 1.26855,-0.67811 1.89839,-1.06978l0.64297,-0.39983c0.08333,-0.05307 0.17779,-0.09023 0.27861,-0.10751c0.27708,-0.21753 0.56271,-0.42578 0.88248,-0.61176l-0.12101,-0.21171l0.71711,-0.39307c0.12679,-0.07189 0.27638,-0.10823 0.43349,-0.09625c0.41297,0.0315 0.72166,0.38486 0.6895,0.78927c-0.00222,0.02795 -0.00602,0.05541 -0.01129,0.0823l-0.13464,0.73543l-0.02316,-0.00406z" data-paper-data="{&quot;index&quot;:null}" fill="#000000"/><path d="M247.90762,181.705c0.49523,-0.55157 1.05848,-0.0666 1.05848,-0.0666l0.30936,0.2762c1.36023,1.56945 2.61778,2.91866 3.66559,4.75053c0,0 0.36631,0.64089 -0.28815,0.99961c-0.65446,0.35871 -1.02077,-0.28218 -1.02077,-0.28218c-1.00108,-1.7528 -2.18434,-3.02113 -3.49649,-4.51308l-0.16001,-0.12794c0,0 -0.56325,-0.48497 -0.06801,-1.03654z" data-paper-data="{&quot;index&quot;:null}" fill="#a8816d"/><path d="M246.05553,183.92052c0.53083,-0.51884 1.06065,0.001 1.06065,0.001l0.53832,0.57321c0.62802,1.15706 1.31073,2.32607 2.06392,3.40777c0,0 0.42163,0.6074 -0.19863,1.02029c-0.62026,0.41289 -1.04189,-0.19452 -1.04189,-0.19452c-0.78089,-1.12812 -1.49283,-2.33976 -2.1476,-3.54355l-0.2758,-0.22556c0,0 -0.52982,-0.51983 0.00102,-1.03867z" data-paper-data="{&quot;index&quot;:null}" fill="#a8816d"/><path d="M243.29537,184.5273c0.51258,-0.53615 1.06008,-0.0342 1.06008,-0.0342l0.50734,0.62654c0.40048,1.57681 0.76093,3.3114 1.54973,4.74405c0,0 0.35231,0.64837 -0.30979,0.99338c-0.6621,0.34501 -1.01441,-0.30337 -1.01441,-0.30337c-0.83716,-1.55769 -1.24705,-3.3738 -1.6811,-5.07917l-0.07695,0.09086c0,0 -0.5475,-0.50196 -0.03492,-1.03811z" data-paper-data="{&quot;index&quot;:null}" fill="#a8816d"/><path d="M241.57017,185.11335c0.74609,-0.07487 0.82255,0.65575 0.82255,0.65575l0.05293,0.57815c0.34527,1.36113 0.45402,2.75823 0.8013,4.11284c0,0 0.1812,0.71269 -0.54657,0.89014c-0.72778,0.17745 -0.90898,-0.53524 -0.90898,-0.53524c-0.34268,-1.35778 -0.45431,-2.7515 -0.8013,-4.11284l-0.08955,-0.78329c0,0 -0.07646,-0.73062 0.66963,-0.8055z" data-paper-data="{&quot;index&quot;:null}" fill="#a8816d"/><path d="M237.78233,185.63263c0.73954,-0.12226 0.86439,0.60193 0.86439,0.60193l0.0909,0.53225c0.18386,1.51069 0.63205,2.93353 0.71895,4.46062c0,0 0.04109,0.73335 -0.70777,0.77359c-0.74887,0.04024 -0.78997,-0.6931 -0.78997,-0.6931c-0.08222,-1.49203 -0.52746,-2.88723 -0.71049,-4.36576l-0.08069,-0.46307c0,0 -0.12485,-0.72421 0.61468,-0.84647z" data-paper-data="{&quot;index&quot;:null}" fill="#a8816d"/><path d="M234.18097,186.46931c0.73497,-0.14632 0.88439,0.57341 0.88439,0.57341l0.08346,0.40552c0.26756,1.05699 0.38478,2.13305 0.62886,3.19515c0,0 0.16423,0.71663 -0.56756,0.87746c-0.7318,0.16083 -0.89603,-0.5558 -0.89603,-0.5558c-0.24027,-1.05108 -0.35399,-2.11741 -0.62083,-3.16193l-0.09784,-0.46777c0,0 -0.14942,-0.71974 0.58555,-0.86606z" data-paper-data="{&quot;index&quot;:null}" fill="#a8816d"/><path d="M231.57413,187.16299c0.74774,0.05703 0.6895,0.78927 0.6895,0.78927l-0.02686,0.30511c0.00411,0.74336 -0.00782,1.42957 0.12154,2.1632c0,0 0.12485,0.72421 -0.61468,0.84647c-0.73954,0.12226 -0.86439,-0.60193 -0.86439,-0.60193c-0.13761,-0.81396 -0.1379,-1.57678 -0.14244,-2.39978l0.03137,-0.42713c0,0 0.05824,-0.73224 0.80597,-0.67521z" data-paper-data="{&quot;index&quot;:null}" fill="#a8816d"/><path d="M231.58631,172.20058c-0.25146,0.22754 -0.56229,0.37388 -0.89934,0.46852l0.07082,0.21138l-0.75606,0.24295c-0.09583,0.0332 -0.20014,0.04774 -0.308,0.03951c-0.41297,-0.0315 -0.72166,-0.38486 -0.6895,-0.78927c0.01268,-0.15945 0.07647,-0.30304 0.17441,-0.41654l0.25939,-0.30874c-0.00302,-0.66351 0.69476,-0.7148 0.69476,-0.7148l0.26378,-0.01939c0.06852,-0.06742 0.16029,-0.12827 0.28205,-0.17672c0.69484,-0.27646 0.97715,0.40398 0.97715,0.40398l-0.00549,0.08381c0.07862,0.12689 0.11881,0.27823 0.10614,0.43749c-0.0121,0.15213 -0.07071,0.28981 -0.16111,0.4007z" fill="#d30000"/><path d="M233.45158,170.85169c0.14743,-0.22266 0.40249,-0.31352 0.40249,-0.31352c2.53844,-0.1881 1.85398,1.83893 -0.13518,1.69394l-0.56251,-0.83094c0,0 0.02805,-0.35271 0.2952,-0.54948z" fill="#d30000"/><path d="M237.43266,175.79354c-0.67968,-0.3105 -0.3626,-0.97609 -0.3626,-0.97609l0.19415,-0.39632c0.08172,-0.23933 0.16345,-0.47865 0.24517,-0.71798c0,0 0.23785,-0.69654 0.94914,-0.46361c0.38077,0.12469 0.48955,0.38224 0.50841,0.59467c0.23686,0.27421 0.13954,0.65887 0.13954,0.65887l-0.34205,0.46618l0.00171,0.00065c0,0 -0.03715,0.46716 -0.43314,0.62613c-0.03175,0.03978 -0.07146,0.08308 -0.1193,0.1238l-0.04642,0.06327c-0.0038,-0.00615 -0.00762,-0.01231 -0.01141,-0.01846c-0.16399,0.11503 -0.40348,0.18495 -0.7232,0.03889z" fill="#d30000"/><path d="M238.35832,178.26724c-0.01182,0.04917 -0.02365,0.09835 -0.03547,0.14752l0.02015,0.0066l-0.32193,0.94273c-0.1015,0.32032 -0.41865,0.54103 -0.7745,0.51389c-0.41297,-0.0315 -0.72166,-0.38486 -0.6895,-0.78927c0.00533,-0.06698 0.01967,-0.13118 0.04178,-0.19151l0.23157,-0.67814c0.05903,-0.24758 0.11805,-0.49517 0.17708,-0.74276c0,0 0.17127,-0.71505 0.90144,-0.54733c0.50525,0.11604 0.57889,0.49416 0.57632,0.7161l0.05727,-0.00273c-0.01439,0.05667 -0.03638,0.11114 -0.06479,0.16312l0.06028,0.02238c0,0 -0.01941,0.24407 -0.17972,0.43941z" fill="#d30000"/><path d="M225.03589,176.55245c0.00806,-0.1014 0.03679,-0.19638 0.08183,-0.28129c0.00655,-0.02588 0.01309,-0.05176 0.01965,-0.07764c0,0 0.18037,-0.71289 0.90835,-0.53626c0.29497,0.07157 0.4408,0.23117 0.50993,0.39572c0.01156,0.00913 0.02314,0.0187 0.03475,0.0287c0.56325,0.48497 0.06801,1.03654 0.06801,1.03654l-0.20356,-0.02412c-0.0148,0.05848 -0.02959,0.11696 -0.04439,0.17543l-0.10433,-0.13315c-0.14912,0.14171 -0.35731,0.22239 -0.58076,0.20535c-0.27328,-0.02084 -0.50091,-0.18264 -0.6143,-0.40691l-0.15658,-0.01855c0.02637,-0.10424 0.05274,-0.20846 0.07911,-0.3127c0.00016,-0.01693 0.00091,-0.03397 0.00227,-0.0511z" fill="#d30000"/><path d="M226.67228,179.62397c-0.02513,0.31595 -0.17863,0.48496 -0.34506,0.57501l-0.03103,0.18722c-0.05835,0.37708 -0.40524,0.65153 -0.79969,0.62145c-0.41297,-0.0315 -0.72166,-0.38486 -0.6895,-0.78927c0.00172,-0.02162 0.00438,-0.04294 0.00793,-0.06395l0.1197,-0.75268l0.056,-0.70411v0c0.03216,-0.40441 0.393,-0.7067 0.80597,-0.67521c0.37829,0.02885 0.66909,0.3278 0.69053,0.68864l0.02907,0.37923c0.10386,0.11705 0.17567,0.28707 0.15605,0.53367z" fill="#d30000"/><path d="M242.88376,175.92726c-0.73954,0.12226 -0.86439,-0.60193 -0.86439,-0.60193l-0.03058,-0.31936c-0.10683,-0.23324 -0.21365,-0.46649 -0.32048,-0.69973c0,0 -0.30693,-0.67013 0.37739,-0.9707c0.68432,-0.30057 0.99125,0.36957 0.99125,0.36957c0.10683,0.23324 0.21365,0.46649 0.32048,0.69973l0.14102,0.67597c0,0 0.12485,0.72421 -0.61468,0.84647z" fill="#d30000"/><path d="M244.15609,177.33797c0.40288,0.29243 0.22702,0.8074 0.22702,0.8074l-1.52079,0.18386c-0.06368,-0.25042 -0.12733,-0.50083 -0.19101,-0.75125c0,0 -0.1812,-0.71269 0.54657,-0.89014c0.72778,-0.17745 0.90898,0.53524 0.90898,0.53524c0.00973,0.03829 0.01948,0.0766 0.02921,0.11489z" fill="#d30000"/><path d="M246.40136,169.907c0.1812,0.71269 -0.54657,0.89014 -0.54657,0.89014l-0.49312,0.05904c-0.24763,-0.03936 -0.49526,-0.07869 -0.74288,-0.11805c0,0 -0.74032,-0.11765 -0.62018,-0.84262c0.12014,-0.72497 0.86046,-0.60732 0.86046,-0.60732c0.24763,0.03936 0.49526,0.07869 0.74288,0.11805l-0.10955,-0.03448c0,0 0.72778,-0.17745 0.90898,0.53524z" fill="#d30000"/><path d="M248.61649,170.26532c-0.67114,0.32783 -1.00591,-0.3294 -1.00591,-0.3294l-0.20651,-0.54999l-0.09805,-0.09973c0,0 -0.52017,-0.5291 0.02013,-1.03849c0.06454,-0.06085 0.12877,-0.10687 0.19188,-0.14075c0.14921,-0.19165 0.39158,-0.30756 0.65518,-0.28746c0.31716,0.02419 0.57281,0.23822 0.6598,0.51942l0.24267,0.72423c0.0339,0.09385 0.04875,0.19599 0.04035,0.30162c-0.00794,0.09981 -0.03589,0.19339 -0.07972,0.27728c0.00194,0.20682 -0.08,0.45728 -0.41983,0.62328z" fill="#d30000"/><path d="M251.57259,170.06687l-0.12833,1.64405l-1.40119,-0.8944c0,0 -0.42163,-0.6074 0.19863,-1.02029c0.62026,-0.41289 1.04189,0.19452 1.04189,0.19452l-0.50127,0.40204l-0.63497,0.13206" fill="#d30000"/><path d="M253.68488,175.20999c-0.73497,0.14632 -0.88439,-0.57341 -0.88439,-0.57341l-0.10282,-0.51884c-0.02212,-0.24725 -0.04426,-0.49449 -0.06638,-0.74174c0,0 -0.06548,-0.73164 0.68165,-0.79577c0.74713,-0.06413 0.81261,0.66752 0.81261,0.66752c0.02212,0.24725 0.04426,0.49449 0.06638,0.74174l0.07848,0.35444c0,0 0.14942,0.71974 -0.58555,0.86606z" fill="#d30000"/><path d="M237.46552,178.02495c0.22364,0.70105 -0.49225,0.92005 -0.49225,0.92005l-0.7413,0.21971c-0.91346,0.1499 -1.83189,0.2725 -2.75171,0.38665c-0.07793,0.70288 -0.14431,1.40686 -0.19969,2.11139l-0.11413,0.57379c0,0 -0.15054,0.71951 -0.88528,0.57209c-0.73474,-0.14742 -0.5842,-0.86693 -0.5842,-0.86693l0.08814,-0.39302c0.04862,-0.60476 0.10477,-1.20904 0.16888,-1.81254c-0.64951,0.07805 -1.29874,0.15708 -1.94643,0.24374c-0.25283,1.08609 -0.46513,2.17935 -0.55379,3.29408l-0.02912,0.36612c0,0 -0.05824,0.73224 -0.80597,0.67521c-0.74774,-0.05703 -0.6895,-0.78927 -0.6895,-0.78927l0.02912,-0.36612c0.07925,-0.99642 0.26042,-1.97706 0.4815,-2.95132c-0.71233,0.11419 -1.42157,0.24425 -2.12602,0.39912c0,0 -0.7318,0.16083 -0.89603,-0.5558c-0.16423,-0.71663 0.56756,-0.87746 0.56756,-0.87746c0.93658,-0.20578 1.8809,-0.36774 2.82939,-0.50692c0.16808,-0.663 0.3395,-1.32533 0.49446,-1.98999c-0.8626,0.17778 -1.72842,0.39907 -2.60625,0.6821c0,0 -0.71262,0.22898 -0.94645,-0.46886c-0.23383,-0.69785 0.47879,-0.92683 0.47879,-0.92683c1.14629,-0.36698 2.27213,-0.63537 3.39601,-0.84133c0.15835,-0.90357 0.25879,-1.81559 0.25281,-2.74342c0,0 -0.00407,-0.73444 0.74592,-0.73842c0.74999,-0.00398 0.75406,0.73046 0.75406,0.73046c0.00397,0.84735 -0.07762,1.68013 -0.20965,2.50439c0.50334,-0.06993 1.00799,-0.13069 1.51559,-0.18551c0.18649,-0.99201 0.39837,-1.97948 0.63762,-2.96103c0,0 0.17414,-0.71438 0.90364,-0.54385c0.7295,0.17053 0.55536,0.88491 0.55536,0.88491c-0.19956,0.81859 -0.37998,1.64164 -0.54218,2.46816c0.82109,-0.07348 1.65392,-0.14022 2.50519,-0.21327l0.39523,-0.16195c0,0 0.70694,-0.24528 0.95742,0.44701c0.25047,0.69229 -0.45647,0.93757 -0.45647,0.93757l-0.7652,0.24066c-0.99194,0.08514 -1.95809,0.15971 -2.90957,0.24684c-0.11354,0.67068 -0.21559,1.34329 -0.30657,2.01727c0.77452,-0.09968 1.54778,-0.20794 2.31785,-0.33612l0.54375,-0.17339c0,0 0.71589,-0.219 0.93952,0.48205zM232.4272,176.19248c-0.51786,0.0594 -1.03312,0.12647 -1.54761,0.20508c-0.15265,0.68809 -0.32573,1.37277 -0.49818,2.05763c0.58215,-0.0737 1.16512,-0.14321 1.74811,-0.21335c0.08824,-0.68461 0.18726,-1.36788 0.29768,-2.04936z" fill="#a8816d"/><path d="M252.10464,179.59831c-0.65446,0.35871 -1.02077,-0.28218 -1.02077,-0.28218l-0.3217,-0.56322c-0.46998,-0.7827 -1.01563,-1.7217 -1.5337,-2.73092c-0.52517,0.20376 -1.04917,0.41103 -1.56675,0.62712c0.38667,1.03109 0.87542,1.95243 1.54346,2.60813l0.26035,0.37401c0,0 0.40205,0.62001 -0.23108,1.01372c-0.63313,0.39372 -1.03518,-0.22629 -1.03518,-0.22629l-0.07469,-0.14266c-0.78271,-0.81651 -1.34057,-1.88254 -1.77888,-3.04721c-0.6722,0.31451 -1.32483,0.65295 -1.94535,1.02804c0,0 -0.63897,0.38456 -1.03167,-0.24117c-0.3927,-0.62573 0.24627,-1.01029 0.24627,-1.01029c0.72194,-0.43279 1.48299,-0.81876 2.26596,-1.1763c-0.2109,-0.71195 -0.39503,-1.43749 -0.57337,-2.14649c-0.61169,0.30261 -1.17981,0.65028 -1.66702,1.065c0,0 -0.56991,0.47744 -1.05746,-0.08065c-0.48755,-0.5581 0.08236,-1.03554 0.08236,-1.03554c0.67018,-0.55429 1.44775,-1.00025 2.27465,-1.3818c-0.12707,-0.47348 -0.25846,-0.9285 -0.4015,-1.35447c0,0 -0.23383,-0.69785 0.47879,-0.92683c0.71262,-0.22898 0.94645,0.46886 0.94645,0.46886c0.12674,0.37899 0.24342,0.79724 0.35679,1.24114c0.36767,-0.13824 0.73858,-0.26911 1.10824,-0.39602c-0.12423,-0.63311 -0.17874,-1.24361 -0.13923,-1.81124c0,0 0.05824,-0.73224 0.80597,-0.67521c0.74774,0.05703 0.6895,0.78927 0.6895,0.78927c-0.03524,0.37907 -0.0133,0.78941 0.0537,1.22016c0.23177,-0.07896 0.46061,-0.15809 0.68533,-0.2383l0.62147,-0.2478c0,0 0.69484,-0.27646 0.97715,0.40398c0.28231,0.68044 -0.41253,0.95689 -0.41253,0.95689l-0.67329,0.26734c-0.27329,0.09715 -0.55646,0.19249 -0.84603,0.28809c0.20589,0.63739 0.47311,1.29155 0.76982,1.93382c0.85006,-0.3303 1.69218,-0.66353 2.50634,-1.02113l0.28357,-0.11333c0,0 0.69484,-0.27646 0.97715,0.40398c0.28231,0.68044 -0.41253,0.95689 -0.41253,0.95689l-0.23433,0.09273c-0.79875,0.35082 -1.62793,0.67685 -2.46595,0.9999c0.50225,0.95297 1.02212,1.8285 1.43917,2.51823l0.33868,0.59216c0,0 0.36631,0.64089 -0.28815,0.99961zM246.66346,173.09811c0.16691,0.7077 0.34152,1.44075 0.54524,2.15599c0.45736,-0.18905 0.91875,-0.37218 1.38094,-0.55281c-0.29967,-0.66334 -0.57096,-1.34 -0.78809,-2.00846c-0.38028,0.12816 -0.762,0.26187 -1.13809,0.4053z" fill="#a8816d"/><path d="M234.93924,167.44201c0.04692,0.02894 0.62425,0.40189 0.25327,1.00608c-0.38649,0.62943 -1.02924,0.25095 -1.02924,0.25095l-0.33083,-0.2561c-0.30266,-0.39112 -0.61837,-0.77279 -0.94429,-1.14556c0,0 -0.48755,-0.5581 0.08236,-1.03554c0.56991,-0.47744 1.05746,0.08065 1.05746,0.08065c0.31319,0.35879 0.61763,0.72517 0.91128,1.09951z" fill="#874848"/><path d="M241.03363,167.44275c-0.64275,-0.37848 -0.25626,-1.0079 -0.25626,-1.0079l0.13082,-0.15002c0.06095,-0.24091 0.12191,-0.48182 0.18286,-0.72273c0,0 0.18037,-0.71289 0.90835,-0.53626c0.72798,0.17663 0.54761,0.88953 0.54761,0.88953c-0.06095,0.24091 -0.12191,0.48182 -0.18286,0.72273l-0.30128,0.5537c0,0 -0.38649,0.62943 -1.02924,0.25095z" fill="#874848"/><path d="M246.03651,167.10067c-0.12485,-0.72421 0.61468,-0.84647 0.61468,-0.84647l-0.00213,0.04962c0.21904,-0.12654 0.43805,-0.25307 0.65708,-0.37961c0,0 0.64597,-0.37318 1.02705,0.25939c0.38108,0.63258 -0.26488,1.00576 -0.26488,1.00576c-0.21904,0.12654 -0.43805,0.25307 -0.65708,0.37961l-0.51033,0.13364c0,0 -0.73954,0.12226 -0.86439,-0.60193z" fill="#874848"/><path d="M253.71904,178.9731c-0.17462,-0.68678 0.49486,-0.87653 0.54377,-0.88942c0.1326,-0.12501 0.2652,-0.25004 0.3978,-0.37505c0,0 0.5403,-0.50938 1.06047,0.01971c0.52017,0.5291 -0.02013,1.03849 -0.02013,1.03849c-0.18072,0.17039 -0.36145,0.34077 -0.54217,0.51116l-0.53076,0.23035c0,0 -0.72778,0.17745 -0.90898,-0.53524z" fill="#874848"/><path d="M253.69565,183.12863c0.56991,-0.47744 1.05746,0.08065 1.05746,0.08065l-0.11519,0.03986c0.26517,0.08161 0.53032,0.16323 0.79549,0.24484c0,0 0.7155,0.22022 0.49061,0.92088c-0.22489,0.70067 -0.94038,0.48044 -0.94038,0.48044c-0.26517,-0.08161 -0.53032,-0.16323 -0.79549,-0.24484l-0.57485,-0.48631c0,0 -0.48755,-0.5581 0.08236,-1.03554z" fill="#874848"/><path d="M248.66211,192.41271c0.01941,-0.24408 0.09221,-1.15937 0.11162,-1.40345c0,0 0.00148,-0.01862 0.007,-0.04969l0.01878,-0.24753c0,0 0.28856,-0.52228 0.82631,-0.37349c0.69919,0.08303 0.64337,0.78479 0.64337,0.78479c-0.01876,0.23587 -0.03752,0.47175 -0.05628,0.70761c0.14851,0.32629 0.23214,0.68124 0.23195,1.0247c0,0 -0.05824,0.73224 -0.80597,0.67521c-0.37808,-0.02884 -0.5501,-0.23029 -0.62778,-0.42244c-0.38751,-0.21162 -0.34901,-0.69569 -0.34901,-0.69569z" fill="#874848"/><path d="M240.48934,192.96028c0.73674,0.13755 0.59628,0.85901 0.59628,0.85901l-0.11474,0.58351c-0.06095,0.24091 -0.12191,0.48182 -0.18286,0.72273c0,0 -0.18037,0.71289 -0.90835,0.53626c-0.72798,-0.17663 -0.54761,-0.88953 -0.54761,-0.88953c0.06095,-0.24091 0.12191,-0.48182 0.18286,-0.72273l0.09724,-0.50534c0,0 0.14046,-0.72147 0.87719,-0.58392z" fill="#874848"/><path d="M252.67412,187.68475c0.35424,0.02702 0.52758,0.20558 0.61194,0.38603c0.1302,0.1049 0.26042,0.20982 0.39062,0.31472c0,0 0.57917,0.46663 0.10267,1.0338c-0.47651,0.56716 -1.05568,0.10054 -1.05568,0.10054c-0.19638,-0.15822 -0.39276,-0.31645 -0.58914,-0.47466l-0.26637,-0.68521c0,0 0.05824,-0.73224 0.80597,-0.67521z" fill="#874848"/><path d="M229.8239,192.01953c0.03216,-0.4044 0.39301,-0.7067 0.80597,-0.67521c0.41296,0.0315 0.72166,0.38487 0.6895,0.78927c-0.03216,0.4044 -0.39301,0.7067 -0.80597,0.67521c-0.41296,-0.0315 -0.72166,-0.38487 -0.6895,-0.78927z" fill="#874848"/><path d="M229.17425,188.66753c0.1812,0.71269 -0.54657,0.89014 -0.54657,0.89014l0.0081,-0.03336c-0.21902,0.12653 -0.43806,0.25308 -0.65708,0.37961c0,0 -0.64596,0.37319 -1.02705,-0.25939c-0.38109,-0.63257 0.26488,-1.00576 0.26488,-1.00576c0.21902,-0.12653 0.43806,-0.25308 0.65708,-0.37961l0.39167,-0.12688c0,0 0.72778,-0.17745 0.90898,0.53524z" fill="#874848"/><path d="M227.19432,185.97434c-0.2917,0.67662 -0.98265,0.39097 -0.98265,0.39097l-0.07075,-0.03901c-0.24601,-0.05969 -0.49202,-0.11938 -0.73803,-0.17907c0,0 -0.08661,-0.02101 -0.19267,-0.07779c-0.34428,-0.08834 -0.58538,-0.40768 -0.55677,-0.76741c0.03216,-0.4044 0.39301,-0.7067 0.80597,-0.67521c0.11755,0.00897 0.22666,0.04401 0.32186,0.09889c0.24013,0.05826 0.48025,0.11652 0.72039,0.17479l0.29341,0.11155c0,0 0.69095,0.28566 0.39924,0.96228z" fill="#874848"/><path d="M226.6546,182.99906c-0.05824,0.73224 -0.80597,0.67521 -0.80597,0.67521l-0.12553,-0.01959c-0.25248,0.02167 -0.50496,0.04334 -0.75744,0.06501c0,0 -0.74714,0.06412 -0.81261,-0.66753c-0.06548,-0.73165 0.68166,-0.79577 0.68166,-0.79577c0.25248,-0.02167 0.50496,-0.04334 0.75744,-0.06501l0.37296,0.01843c0,0 0.74774,0.05703 0.6895,0.78927z" fill="#874848"/><path d="M227.77663,172.83255c0.41296,0.0315 0.72166,0.38487 0.6895,0.78927c-0.03216,0.4044 -0.39301,0.7067 -0.80597,0.67521c-0.2147,-0.01638 -0.40122,-0.11975 -0.52631,-0.27207c-0.08492,0.02438 -0.17571,0.03435 -0.26918,0.02723c-0.41296,-0.0315 -0.72166,-0.38487 -0.6895,-0.78927c0.03216,-0.4044 0.39301,-0.7067 0.80597,-0.67521c0.2147,0.01638 0.40122,0.11975 0.52631,0.27207c0.08492,-0.02438 0.17571,-0.03435 0.26918,-0.02723z" fill="#874848"/><path d="M232.80449,169.30958c-0.38649,0.62943 -1.02924,0.25095 -1.02924,0.25095l-0.27358,-0.19056c-0.17399,-0.17698 -0.34798,-0.35395 -0.52198,-0.53093c0,0 -0.52018,-0.52909 0.02013,-1.03849c0.54029,-0.50939 1.06047,0.01971 1.06047,0.01971c0.17399,0.17698 0.34798,0.35395 0.52198,0.53093l-0.03404,-0.04951c0,0 0.64275,0.37848 0.25626,1.0079z" fill="#874848"/></g></g></svg>