<svg version="1.1" xmlns="http://www.w3.org/2000/svg" xmlns:xlink="http://www.w3.org/1999/xlink" width="52.75" height="52.75" viewBox="0,0,52.75,52.75"><g transform="translate(-213.625,-153.625)"><g data-paper-data="{&quot;isPaintingLayer&quot;:true}" fill-rule="nonzero" stroke-linecap="butt" stroke-linejoin="miter" stroke-miterlimit="10" stroke-dasharray="" stroke-dashoffset="0" style="mix-blend-mode: normal"><path d="M214.875,205.125v-50.25h50.25v50.25z" fill="#7f7f7f" stroke="#5e5e5e" stroke-width="2.5"/><path d="M220.76423,199.11085v-38.47171h38.47171v38.47171z" fill="#999999" stroke="#7d7d7d" stroke-width="1.5"/><path d="M220.76424,199.23586v-9.09671h38.47171v9.09671z" fill="#8c8c8c" stroke="#7d7d7d" stroke-width="1.5"/><path d="M243.02325,161.23853v-0.23853h0.75c0.41421,0 0.75,0.33579 0.75,0.75c0,0.23943 -0.1122,0.45266 -0.28689,0.58998l-0.61959,0.49567c-2.71319,2.17055 -5.0736,4.74979 -7.81431,6.9211c-4.69377,2.34688 -8.82313,5.9495 -13.21772,8.81744l0.02416,0.01933l-0.49567,0.61959c-0.13732,0.17469 -0.35054,0.28689 -0.58998,0.28689c-0.41421,0 -0.75,-0.33579 -0.75,-0.75c0,-0.04687 0.0043,-0.09274 0.01253,-0.13724l0.11494,-0.68964c-0.00892,-1.1229 -0.54789,-1.79091 -0.62517,-2.86445c-0.15442,-2.14524 2.2958,-4.75046 4.05027,-5.67084c2.60327,-2.61528 5.6814,-5.15009 8.48702,-6.55865c0.3877,-0.1912 1.04484,-0.7181 1.70375,-1.1395c0.14157,-0.21082 0.37696,-0.2804 0.51692,-0.30337c0.4067,-0.2125 0.78572,-0.33574 1.06876,-0.25714c0.21805,0.06055 0.40471,0.12967 0.56269,0.2062c0.46205,-0.03523 0.91007,-0.0891 1.34863,-0.14156c0.35067,-0.07433 0.70925,-0.10683 1.08522,-0.1171c0.66498,-0.05622 1.31619,-0.06801 1.97096,0.04099c0.18713,0.00442 0.37975,0.00731 0.57849,0.00731h0.10417l0.01913,-0.1148l0.73784,0.12297c0.09165,0.01361 0.17789,0.04381 0.25558,0.08744c0.08691,0.00495 0.17304,0.01091 0.25828,0.01791z" fill="#b2b2b2" stroke="none" stroke-width="0.5"/><path d="M247.66871,161.40672c0.18639,-0.22237 0.48123,-0.27151 0.48123,-0.27151l0.73606,-0.12268c0.04449,-0.00823 0.09036,-0.01253 0.13724,-0.01253c0.41421,0 0.75,0.33579 0.75,0.75c0,0.17941 -0.063,0.34411 -0.16808,0.47319c-0.16667,0.20833 -0.8296,1.037 -0.99627,1.24533c-3.48894,4.31504 -7.76858,8.38829 -12.11713,11.86713c-3.56684,2.84853 -7.65125,5.01781 -11.4275,7.53839c-1.5994,1.06757 -3.54707,2.88998 -4.41347,0.31282c0.14199,-2.25846 2.69099,-3.2323 4.58543,-4.00477c3.28891,-1.34107 7.40087,-3.96518 9.91182,-6.49094c4.31661,-3.45687 8.31642,-7.19304 12.21986,-11.09648c0,0 0.11907,-0.11907 0.3008,-0.18795z" fill="#b2b2b2" stroke="none" stroke-width="0.5"/><path d="M220.76424,199.23586v-38.47171h38.47171v38.47171z" fill="none" stroke="#7d7d7d" stroke-width="1.5"/><path d="M222.31476,163.25c0,-0.41421 0.33579,-0.75 0.75,-0.75c0.41421,0 0.75,0.33579 0.75,0.75c0,0.41421 -0.33579,0.75 -0.75,0.75c-0.41421,0 -0.75,-0.33579 -0.75,-0.75z" fill="#7d7d7d" stroke="none" stroke-width="0.5"/><path d="M222.18976,187.625c0,-0.41421 0.33579,-0.75 0.75,-0.75c0.41421,0 0.75,0.33579 0.75,0.75c0,0.41421 -0.33579,0.75 -0.75,0.75c-0.41421,0 -0.75,-0.33579 -0.75,-0.75z" fill="#7d7d7d" stroke="none" stroke-width="0.5"/><path d="M256.06476,187.875c0,-0.41421 0.33579,-0.75 0.75,-0.75c0.41421,0 0.75,0.33579 0.75,0.75c0,0.41421 -0.33579,0.75 -0.75,0.75c-0.41421,0 -0.75,-0.33579 -0.75,-0.75z" fill="#7d7d7d" stroke="none" stroke-width="0.5"/><path d="M255.81476,163.375c0,-0.41421 0.33579,-0.75 0.75,-0.75c0.41421,0 0.75,0.33579 0.75,0.75c0,0.41421 -0.33579,0.75 -0.75,0.75c-0.41421,0 -0.75,-0.33579 -0.75,-0.75z" fill="#7d7d7d" stroke="none" stroke-width="0.5"/><path d="M256.56476,197c0,-0.41421 0.33579,-0.75 0.75,-0.75c0.41421,0 0.75,0.33579 0.75,0.75c0,0.41421 -0.33579,0.75 -0.75,0.75c-0.41421,0 -0.75,-0.33579 -0.75,-0.75z" fill="#7d7d7d" stroke="none" stroke-width="0.5"/><path d="M256.31476,191.875c0,-0.41421 0.33579,-0.75 0.75,-0.75c0.41421,0 0.75,0.33579 0.75,0.75c0,0.41421 -0.33579,0.75 -0.75,0.75c-0.41421,0 -0.75,-0.33579 -0.75,-0.75z" fill="#7d7d7d" stroke="none" stroke-width="0.5"/><path d="M222.18976,192.25c0,-0.41421 0.33579,-0.75 0.75,-0.75c0.41421,0 0.75,0.33579 0.75,0.75c0,0.41421 -0.33579,0.75 -0.75,0.75c-0.41421,0 -0.75,-0.33579 -0.75,-0.75z" fill="#7d7d7d" stroke="none" stroke-width="0.5"/><path d="M222.06476,197.25c0,-0.41421 0.33579,-0.75 0.75,-0.75c0.41421,0 0.75,0.33579 0.75,0.75c0,0.41421 -0.33579,0.75 -0.75,0.75c-0.41421,0 -0.75,-0.33579 -0.75,-0.75z" fill="#7d7d7d" stroke="none" stroke-width="0.5"/></g></g></svg>