<svg version="1.1" xmlns="http://www.w3.org/2000/svg" xmlns:xlink="http://www.w3.org/1999/xlink" width="23.18234" height="49.57149" viewBox="0,0,23.18234,49.57149"><g transform="translate(-230.31728,-150.66978)"><g data-paper-data="{&quot;isPaintingLayer&quot;:true}" fill-rule="nonzero" stroke-linejoin="miter" stroke-miterlimit="10" stroke-dasharray="" stroke-dashoffset="0" style="mix-blend-mode: normal"><path d="M244.8125,160.5625l0.5,3.5l-6.875,19l9.25,13.75l-1.125,2.625l-2.375,-0.25l-11.875,-17l8.25,-20.375z" fill="#6e89a2" stroke="#495a6b" stroke-width="1.5" stroke-linecap="round"/><path d="M236.07194,165.36324c0.23717,-0.71151 0.94869,-0.47434 0.94869,-0.47434l0.375,0.125c1.33554,0.464 2.10595,1.25857 2.88687,2.42049c0,0 0.41603,0.62403 -0.20801,1.04006c-0.62404,0.41602 -1.04006,-0.20801 -1.04006,-0.20801c-0.57391,-0.86915 -1.10674,-1.51371 -2.11313,-1.82951l-0.375,-0.125c0,0 -0.71151,-0.23718 -0.47434,-0.94869z" fill="#1f272e" stroke="none" stroke-width="0.5" stroke-linecap="butt"/><path d="M233.32194,170.46259c-0.23717,-0.71151 0.47434,-0.94868 0.47434,-0.94868l0.61217,-0.16349c1.20959,0 2.08879,0.15569 3.23717,0.53849c0,0 0.71151,0.23717 0.47434,0.94868c-0.23717,0.71151 -0.94868,0.47434 -0.94868,0.47434c-1.01498,-0.33833 -1.69531,-0.46151 -2.76283,-0.46151l-0.13783,0.08651c0,0 -0.71152,0.23717 -0.94869,-0.47434z" fill="#1f272e" stroke="none" stroke-width="0.5" stroke-linecap="butt"/><path d="M244.04507,179.7643c-0.53033,0.53033 -1.06066,0 -1.06066,0l-0.18032,-0.18681c-0.6562,-0.83109 -0.73801,-1.06758 -1.70394,-0.5477c0,0 -0.67082,0.33541 -1.00623,-0.33541c-0.33541,-0.67082 0.33541,-1.00623 0.33541,-1.00623c1.63457,-0.77713 2.44458,-0.41 3.54606,0.95229l0.06968,0.0632c0,0 0.53033,0.53033 0,1.06066z" fill="#1f272e" stroke="none" stroke-width="0.5" stroke-linecap="butt"/><path d="M231.15845,178.47541c0,-0.75 0.75,-0.75 0.75,-0.75l0.36217,0.03849c1.26137,0.46381 1.78002,1.34491 2.59848,2.36799c0,0 0.46852,0.58565 -0.11713,1.05417c-0.58565,0.46852 -1.05417,-0.11713 -1.05417,-0.11713c-0.57165,-0.71457 -1.00986,-1.6365 -1.90152,-1.88201l0.11217,0.03849c0,0 -0.75,0 -0.75,-0.75z" fill="#1f272e" stroke="none" stroke-width="0.5" stroke-linecap="butt"/><path d="M244.01889,184.7475c-0.14709,0.73544 -0.88252,0.58835 -0.88252,0.58835l-0.24074,-0.14892c-0.94296,0.25964 -1.10861,1.01699 -1.40066,1.90066c0,0 -0.23717,0.71151 -0.94868,0.47434c-0.71151,-0.23717 -0.47434,-0.94868 -0.47434,-0.94868c0.47134,-1.40355 0.91059,-2.32031 2.34934,-2.84934l1.00926,0.10108c0,0 0.73544,0.14709 0.58835,0.88252z" fill="#1f272e" stroke="none" stroke-width="0.5" stroke-linecap="butt"/><path d="M239.68878,196.00574c-0.53033,0.53033 -1.06066,0 -1.06066,0l-0.55618,-1.1425c0.44097,-1.19924 0.90078,-1.55793 2.09934,-1.97434c0,0 0.71151,-0.23717 0.94868,0.47434c0.23717,0.71151 -0.47434,0.94868 -0.47434,0.94868c-0.76006,0.23851 -0.93801,0.25336 -1.15066,1.02566l0.19382,-0.3925c0,0 0.53033,0.53033 0,1.06066z" fill="#1f272e" stroke="none" stroke-width="0.5" stroke-linecap="butt"/><path d="M236.90845,194.47541c-0.75,0 -0.75,-0.75 -0.75,-0.75l0.0102,-0.5017c-0.29312,-2.0554 0.52406,-2.3733 2.3648,-2.3733c0,0 0.75,0 0.75,0.75c0,0.75 -0.75,0.75 -0.75,0.75c-0.35696,0 -0.71379,-0.22241 -1.06147,-0.14157c-0.25592,0.05951 0.12322,0.51094 0.17626,0.76827l0.0102,0.7483c0,0 0,0.75 -0.75,0.75z" fill="#1f272e" stroke="none" stroke-width="0.5" stroke-linecap="butt"/><path d="M250.20427,195.06082c-0.33541,0.67082 -1.00623,0.33541 -1.00623,0.33541l-0.16459,-0.17082c-0.81531,-0.00303 -1.70386,-0.10632 -2.16435,0.59352c0,0 -0.46852,0.58565 -1.05417,0.11713c-0.58565,-0.46852 -0.11713,-1.05417 -0.11713,-1.05417c0.95065,-1.08157 1.93463,-1.15207 3.33565,-1.15648l0.83541,0.32918c0,0 0.67082,0.33541 0.33541,1.00623z" fill="#1f272e" stroke="none" stroke-width="0.5" stroke-linecap="butt"/><path d="M234.65845,183.35041c0,-0.41421 0.33579,-0.75 0.75,-0.75c0.41421,0 0.75,0.33579 0.75,0.75c0,0.41421 -0.33579,0.75 -0.75,0.75c-0.41421,0 -0.75,-0.33579 -0.75,-0.75z" fill="#415261" stroke="none" stroke-width="0.5" stroke-linecap="butt"/><path d="M241.90845,164.72541c0,-0.41421 0.33579,-0.75 0.75,-0.75c0.41421,0 0.75,0.33579 0.75,0.75c0,0.41421 -0.33579,0.75 -0.75,0.75c-0.41421,0 -0.75,-0.33579 -0.75,-0.75z" fill="#415261" stroke="none" stroke-width="0.5" stroke-linecap="butt"/><path d="M238.40845,170.72541c0,-0.41421 0.33579,-0.75 0.75,-0.75c0.41421,0 0.75,0.33579 0.75,0.75c0,0.41421 -0.33579,0.75 -0.75,0.75c-0.41421,0 -0.75,-0.33579 -0.75,-0.75z" fill="#415261" stroke="none" stroke-width="0.5" stroke-linecap="butt"/><path d="M242.03345,192.47541c0,-0.41421 0.33579,-0.75 0.75,-0.75c0.41421,0 0.75,0.33579 0.75,0.75c0,0.41421 -0.33579,0.75 -0.75,0.75c-0.41421,0 -0.75,-0.33579 -0.75,-0.75z" fill="#415261" stroke="none" stroke-width="0.5" stroke-linecap="butt"/><path d="M244.28345,197.47541c0,-0.41421 0.33579,-0.75 0.75,-0.75c0.41421,0 0.75,0.33579 0.75,0.75c0,0.41421 -0.33579,0.75 -0.75,0.75c-0.41421,0 -0.75,-0.33579 -0.75,-0.75z" fill="#415261" stroke="none" stroke-width="0.5" stroke-linecap="butt"/><path d="M236.15845,176.10041c0,-0.41421 0.33579,-0.75 0.75,-0.75c0.41421,0 0.75,0.33579 0.75,0.75c0,0.41421 -0.33579,0.75 -0.75,0.75c-0.41421,0 -0.75,-0.33579 -0.75,-0.75z" fill="#4c5761" stroke="none" stroke-width="0.5" stroke-linecap="butt"/><path d="M240.03345,190.47541c0,-0.41421 0.33579,-0.75 0.75,-0.75c0.41421,0 0.75,0.33579 0.75,0.75c0,0.41421 -0.33579,0.75 -0.75,0.75c-0.41421,0 -0.75,-0.33579 -0.75,-0.75z" fill="#4c5761" stroke="none" stroke-width="0.5" stroke-linecap="butt"/><path d="M237.02706,171.89587c-0.64601,-0.43073 -1.09577,1.15842 -0.9781,1.742c0.04191,0.2079 0.71609,0.57063 1.11936,0.76813c-0.22526,-0.66423 -0.14843,-1.71809 -0.03295,-2.46356zM238.23996,170.66931c0.71378,0.23836 0.48353,0.97726 0.48353,0.97726c-0.11673,0.37132 -0.58104,1.3492 -0.27181,1.7581c0.4195,0.55471 1.21246,0.00811 1.31905,1.17757c0.19052,2.09027 -1.80476,1.84187 -2.91045,1.38306c-2.91119,-1.20803 -2.84588,-6.35508 0.62729,-5.54723l0.48613,0.2039c0.08015,0.00045 0.16869,0.01476 0.26626,0.04734z" data-paper-data="{&quot;index&quot;:null}" fill="#e4ddb2" stroke="none" stroke-width="0.5" stroke-linecap="butt"/><path d="M237.14531,171.89171c-0.11548,0.74547 -0.19252,1.90082 0.03274,2.56505c-0.40327,-0.19749 -1.1295,-0.58343 -1.17141,-0.79132c-0.11766,-0.58358 0.37939,-2.2518 1.0254,-1.82107z" data-paper-data="{&quot;noHover&quot;:false,&quot;origItem&quot;:[&quot;Path&quot;,{&quot;applyMatrix&quot;:true,&quot;segments&quot;:[[[436.89795,344.55388],[0,0],[0.23095,1.44025]],[[436.83204,349.31349],[0.45051,-1.2833],[0.80654,-0.38156]],[[439.07077,347.82947],[-0.08383,0.40166],[0.23532,-1.12748]],[[437.11456,344.46392],[1.29201,-0.83218],[0,0]]],&quot;closed&quot;:true}],&quot;index&quot;:null}" fill="#f8f0c1" stroke="none" stroke-width="0.5" stroke-linecap="butt"/><path d="M246.19897,172.06801c0.11548,0.74547 0.1923,1.79933 -0.03295,2.46356c0.40327,-0.19749 1.07745,-0.56023 1.11936,-0.76813c0.11766,-0.58358 -0.3321,-2.17274 -0.9781,-1.742zM245.36063,170.74755l0.48613,-0.2039c3.47317,-0.80786 3.53849,4.3392 0.62729,5.54723c-1.10569,0.45881 -3.10097,0.70721 -2.91045,-1.38306c0.10659,-1.16945 0.89954,-0.62285 1.31905,-1.17757c0.30923,-0.4089 -0.15508,-1.38678 -0.27181,-1.7581c0,0 -0.23025,-0.7389 0.48353,-0.97726c0.09757,-0.03258 0.1861,-0.0469 0.26626,-0.04734z" fill="#e4ddb2" stroke="none" stroke-width="0.5" stroke-linecap="butt"/><path d="M246.3023,171.96995c0.64601,-0.43073 1.14306,1.23749 1.0254,1.82107c-0.04191,0.2079 -0.76814,0.59383 -1.17141,0.79132c0.22526,-0.66423 0.14821,-1.81958 0.03273,-2.56505z" data-paper-data="{&quot;noHover&quot;:false,&quot;origItem&quot;:[&quot;Path&quot;,{&quot;applyMatrix&quot;:true,&quot;selected&quot;:true,&quot;segments&quot;:[[[436.89795,344.55388],[0,0],[0.23095,1.44025],7],[[436.83204,349.31349],[0.45051,-1.2833],[0.80654,-0.38156],7],[[439.07077,347.82947],[-0.08383,0.40166],[0.23532,-1.12748],7],[[437.11456,344.46392],[1.29201,-0.83218],[0,0],7]],&quot;closed&quot;:true}]}" fill="#f8f0c1" stroke="none" stroke-width="0.5" stroke-linecap="butt"/><path d="M240.83794,152.29353c-0.1132,0.19131 -0.29683,0.27756 -0.43937,0.31643c-0.1659,0.14085 -0.44583,0.2795 -0.79889,0.07727c-1.38011,0.23384 -2.49227,1.3196 -3.55226,2.23327c-2.87101,2.4747 -4.23014,4.36433 -4.23014,8.33211c-0.07458,6.87971 6.57314,8.53013 11.69683,8.54232c6.04275,-0.9079 9.29508,-5.83068 8.32528,-11.97835c-1.59951,-4.91593 -5.90322,-8.16472 -11.00147,-7.52305zM239.79459,151.10522l0.2744,-0.2644c6.11034,-1.03404 11.34897,2.71857 13.22618,8.60145c1.16235,7.09669 -2.70737,12.88546 -9.67472,13.90153c-1.90844,0.00402 -4.19603,0.32925 -6.0351,-0.29491c-3.78631,-1.28503 -7.23353,-5.58448 -7.26807,-9.7963c0,-5.02356 4.06308,-11.76949 9.4773,-12.14739z" fill="#495a6b" stroke="none" stroke-width="0.5" stroke-linecap="butt"/><path d="M240.83223,152.24209c5.09825,-0.64167 9.45656,2.64777 11.05607,7.56371c0.9698,6.14767 -2.32308,11.13226 -8.36584,12.04016c-5.12369,-0.01218 -11.82941,-1.70749 -11.75483,-8.5872c0,-3.96778 1.37623,-5.90286 4.24724,-8.37756c1.05999,-0.91366 2.19225,-2.01027 3.57236,-2.24411c0.35306,0.20224 0.63721,0.06266 0.80311,-0.07819c0.14254,-0.03887 0.3287,-0.12549 0.4419,-0.3168z" data-paper-data="{&quot;noHover&quot;:false,&quot;origItem&quot;:[&quot;Path&quot;,{&quot;applyMatrix&quot;:true,&quot;segments&quot;:[[[426.17588,306.34951],[0,0],[-0.2264,0.36962]],[[425.29714,306.96085],[0.28508,-0.0751],[-0.3318,0.27212]],[[423.69936,307.11013],[0.70612,0.39072],[-2.76022,0.45178]],[[416.59484,311.42481],[2.11998,-1.7652],[-5.74202,4.78112]],[[408.13456,327.52247],[0,-7.66576],[-0.14916,13.29162]],[[431.52822,344.02625],[-10.24738,-0.02354],[12.0855,-1.75406]],[[448.17878,320.88405],[1.9396,11.87732],[-3.19902,-9.49758]],[[426.17584,306.34949],[10.1965,-1.2397],[0,0]]],&quot;closed&quot;:true,&quot;fillColor&quot;:[0,0,0,1]}]}" fill="#84a4c2" stroke="none" stroke-width="0.5" stroke-linecap="butt"/><path d="M246.89187,165.96791c-3.99208,1.42145 -11.48504,1.17845 -12.84238,-3.71002c-0.21223,0.09081 -0.55538,0.14386 -0.85169,-0.23955c-0.46852,-0.60626 0.11713,-1.09128 0.11713,-1.09128c4.37096,-3.57264 7.87205,-6.02987 13.73505,-4.00143c2.33393,1.03454 3.1779,2.25261 4.27929,4.51928l0.07918,0.60601c0,0 0,0.7764 -0.75,0.7764c-0.1663,0 -0.29573,-0.03818 -0.39646,-0.0976c-1.16981,1.01193 -2.13681,2.24272 -3.37012,3.23819zM235.39825,161.40569c0.67147,4.25656 7.59842,4.23829 10.77679,3.19822c1.21132,-1.03949 2.18436,-2.2796 3.38989,-3.28865l-0.118,-0.02745c0,0 0.01647,-0.05115 0.05375,-0.12199c-0.69507,-1.30299 -1.36854,-2.07144 -2.98377,-2.78875c-4.81162,-1.6556 -7.76348,0.09211 -11.16921,2.85651c0.03863,0.09815 0.05054,0.17212 0.05054,0.17212z" fill="#000000" stroke="none" stroke-width="0.5" stroke-linecap="butt"/><path d="M235.29773,161.23198c3.40573,-2.7644 6.44789,-4.54112 11.25951,-2.88552c1.61523,0.71732 2.29834,1.51429 2.9934,2.81728c-0.03728,0.07084 -0.05372,0.12285 -0.05372,0.12285l0.118,0.02766c-1.20553,1.00905 -2.18985,2.28291 -3.40117,3.3224c-3.17837,1.04007 -10.19404,1.02522 -10.86551,-3.23134c0,0 -0.01189,-0.07519 -0.05052,-0.17333z" data-paper-data="{&quot;noHover&quot;:false,&quot;origItem&quot;:[&quot;Path&quot;,{&quot;applyMatrix&quot;:true,&quot;segments&quot;:[[[415.29649,323.95423],[0,0],[1.34295,8.22368]],[[436.85007,330.13319],[-6.35673,2.00942],[2.42263,-2.00831]],[[443.62986,323.77952],[-2.41107,1.94947],[0,0]],[443.39387,323.72648],[[443.50137,323.4908],[-0.07456,0.13687],[-1.39014,-2.51738]],[[437.53383,318.10291],[3.23045,1.38586],[-9.62324,-3.19863]],[[415.19541,323.62168],[6.81147,-5.34082],[0.07726,0.18961]]],&quot;closed&quot;:true}]}" fill="#ff9e9e" stroke="none" stroke-width="0.5" stroke-linecap="butt"/><path d="M242.45244,158.6886c0.0242,-0.00109 0.0487,-0.00177 0.07351,-0.00203c2.1339,-0.02241 1.91218,4.9458 -0.20032,4.91238c-1.61832,-0.02559 -1.79002,-1.78339 -1.48786,-3.20996c0.03649,-0.28701 0.1119,-0.56161 0.23173,-0.80331c0.11371,-0.3035 0.24493,-0.56007 0.37831,-0.73716c0,0 0.44233,-0.57236 1.00464,-0.15992z" fill="#000000" stroke="none" stroke-width="0.5" stroke-linecap="butt"/><path d="M237.53345,164.12132c0,0.4288 -0.33578,0.7764 -0.75,0.7764c-0.40588,0 -0.73646,-0.33376 -0.74959,-0.75062c-0.2244,-0.13418 -0.37541,-0.38522 -0.37541,-0.67277c0,-0.09175 0.01538,-0.17978 0.0436,-0.26148c-0.11955,0.08341 -0.26359,0.13208 -0.4186,0.13208c-0.41422,0 -0.75,-0.3476 -0.75,-0.7764c0,-0.02767 0.0014,-0.055 0.00413,-0.08193c-0.0815,-0.12422 -0.12913,-0.27419 -0.12913,-0.43567c0,-0.4288 0.33578,-0.7764 0.75,-0.7764c0.41422,0 0.75,0.3476 0.75,0.7764c0,0.02767 -0.0014,0.055 -0.00412,0.08193c0.0815,0.12422 0.12912,0.27419 0.12912,0.43567c0,0.09175 -0.01538,0.17977 -0.0436,0.26148c0.11955,-0.08341 0.26359,-0.13208 0.4186,-0.13208c0.40588,0 0.73646,0.33376 0.74959,0.75062c0.2244,0.13418 0.37541,0.38523 0.37541,0.67277z" fill="#ffe156" stroke="none" stroke-width="0.5" stroke-linecap="butt"/><path d="M234.40845,164.38011c0,-0.4288 0.33578,-0.7764 0.75,-0.7764c0.41422,0 0.75,0.3476 0.75,0.7764c0,0.4288 -0.33578,0.7764 -0.75,0.7764c-0.41422,0 -0.75,-0.3476 -0.75,-0.7764z" fill="#ffe156" stroke="none" stroke-width="0.5" stroke-linecap="butt"/><path d="M248.40845,163.47432c0,-0.4288 0.33578,-0.7764 0.75,-0.7764c0.41422,0 0.75,0.3476 0.75,0.7764c0,0.4288 -0.33578,0.7764 -0.75,0.7764c-0.41422,0 -0.75,-0.3476 -0.75,-0.7764z" fill="#ffe156" stroke="none" stroke-width="0.5" stroke-linecap="butt"/><path d="M246.65845,163.99192c0,-0.4288 0.33578,-0.7764 0.75,-0.7764c0.41422,0 0.75,0.3476 0.75,0.7764c0,0.4288 -0.33578,0.7764 -0.75,0.7764c-0.41422,0 -0.75,-0.3476 -0.75,-0.7764z" fill="#ffe156" stroke="none" stroke-width="0.5" stroke-linecap="butt"/><path d="M236.28345,155.19276c0,-0.4288 0.33578,-0.7764 0.75,-0.7764c0.41422,0 0.75,0.3476 0.75,0.7764c0,0.4288 -0.33578,0.7764 -0.75,0.7764c-0.41422,0 -0.75,-0.3476 -0.75,-0.7764z" fill="#4c6071" stroke="none" stroke-width="0.5" stroke-linecap="butt"/><path d="M239.78345,169.55609c0,-0.4288 0.33578,-0.7764 0.75,-0.7764c0.41422,0 0.75,0.3476 0.75,0.7764c0,0.4288 -0.33578,0.7764 -0.75,0.7764c-0.41422,0 -0.75,-0.3476 -0.75,-0.7764z" fill="#4c6071" stroke="none" stroke-width="0.5" stroke-linecap="butt"/><path d="M248.78345,166.7093c0,-0.4288 0.33578,-0.7764 0.75,-0.7764c0.41422,0 0.75,0.3476 0.75,0.7764c0,0.4288 -0.33578,0.7764 -0.75,0.7764c-0.41422,0 -0.75,-0.3476 -0.75,-0.7764z" fill="#4c6071" stroke="none" stroke-width="0.5" stroke-linecap="butt"/><path d="M247.78345,155.83975c0,-0.4288 0.33578,-0.7764 0.75,-0.7764c0.41422,0 0.75,0.3476 0.75,0.7764c0,0.4288 -0.33578,0.7764 -0.75,0.7764c-0.41422,0 -0.75,-0.3476 -0.75,-0.7764z" fill="#4c6071" stroke="none" stroke-width="0.5" stroke-linecap="butt"/></g></g></svg>