<svg version="1.1" xmlns="http://www.w3.org/2000/svg" xmlns:xlink="http://www.w3.org/1999/xlink" width="40.51206" height="40.2136" viewBox="0,0,40.51206,40.2136"><g transform="translate(-219.83476,-159.88914)"><g data-paper-data="{&quot;isPaintingLayer&quot;:true}" fill-rule="nonzero" stroke-linecap="butt" stroke-linejoin="miter" stroke-miterlimit="10" stroke-dasharray="" stroke-dashoffset="0" style="mix-blend-mode: normal"><path d="M219.83477,200.10274v-40.20547h40.33047v40.20547z" fill="#1f1f1f" stroke="none" stroke-width="0"/><path d="M220.76427,199.11085v-38.47171h38.47171v38.47171z" fill="#999999" stroke="#1f1f1f" stroke-width="1.5"/><path d="M220.76427,179.51414v-18.875h18.875v18.875z" fill="#ff0000" stroke="#1f1f1f" stroke-width="1.5"/><path d="M220.76427,199.11085v-18.875h18.875v18.875z" fill="#00ff08" stroke="#1f1f1f" stroke-width="1.5"/><path d="M240.36098,179.51414v-18.875h18.875v18.875z" fill="#ffde00" stroke="#1f1f1f" stroke-width="1.5"/><path d="M240.36098,199.11085v-18.875h18.875v18.875z" fill="#002dff" stroke="#1f1f1f" stroke-width="1.5"/><path d="M227.81373,179.43445c-2.02305,0.04696 -4.03296,0.1883 -5.95719,0.41045c0,0 -0.7248,0.08368 -0.8027,-0.69157c-0.0779,-0.77525 0.64691,-0.85891 0.64691,-0.85891c3.42278,-0.39515 7.11142,-0.54206 10.67252,-0.3622c1.62947,-0.10779 3.25367,-0.31596 4.8408,-0.6858c0.99659,-0.21301 0.80497,-2.76544 0.8086,-3.6662c0.0126,-3.12345 -0.51353,-7.57695 0.30096,-10.84973c0.00014,-0.02982 0.00028,-0.05964 0.00042,-0.08947l-0.01215,-0.12095l-0.15971,-0.01953l0.08968,-0.83604c0.03737,-0.39449 0.34946,-0.70182 0.72785,-0.70055c0.37838,0.00127 0.6884,0.31069 0.72312,0.70542l0.08407,0.83663l-0.01774,0.00205l0.02094,0.04095c-0.00124,0.59254 -0.00323,1.18507 -0.00597,1.7776c-0.0121,0.11286 -0.02348,0.22581 -0.03416,0.33883c0.01048,0.80559 -0.05924,1.64761 -0.06095,2.15481c-0.00494,1.47075 0.18351,4.06936 0.03597,6.48426c0.01565,0.65881 0.02568,1.31668 0.02348,1.97286c-0.00292,0.86858 0.31976,3.00791 -0.09335,3.73925c-0.74855,1.32518 -2.49948,0.79093 -3.67795,0.78527c-1.19197,-0.14572 -2.41677,-0.24814 -3.65717,-0.31047c-1.19793,0.07594 -2.39859,0.10168 -3.59315,0.09938l-0.17482,0.0701c0,0 -0.45847,0.12095 -0.72829,-0.22646zM238.36726,178.16903c-0.04118,0.0473 -0.08352,0.0927 -0.12705,0.13611c0.06994,-0.00034 0.11043,-0.00232 0.11096,-0.00646c0.00552,-0.0432 0.01088,-0.08641 0.01609,-0.12965z" fill-opacity="0.39516" fill="#000000" stroke="none" stroke-width="0.5"/><path d="M233.2022,161.41972c2.08122,-0.0517 4.14859,-0.19415 6.12754,-0.41403c0,0 0.74541,-0.08282 0.82824,0.66259c0.08282,0.74541 -0.66259,0.82824 -0.66259,0.82824c-3.52011,0.39112 -7.31461,0.54435 -10.97901,0.38285c-1.67609,0.10895 -3.34639,0.31441 -4.97801,0.67526c-1.02459,0.2081 -0.81862,2.66253 -0.81925,3.52893c-0.00217,3.00431 0.55452,7.2862 -0.27216,10.43673c-0.00004,0.02869 -0.00008,0.05737 -0.00012,0.08606l0.01292,0.11629l0.16439,0.01827l-0.08938,0.80443c-0.03709,0.37956 -0.35711,0.67617 -0.74641,0.67617c-0.3893,0 -0.70933,-0.29661 -0.74641,-0.67617l-0.08938,-0.80443l0.01824,-0.00203l-0.02168,-0.03932c-0.00077,-0.56993 -0.00077,-1.13987 0,-1.7098c0.01207,-0.1086 0.02338,-0.21727 0.03397,-0.32601c-0.01356,-0.77482 0.05526,-1.58493 0.05526,-2.07279c0,-1.41465 -0.20286,-3.9135 -0.05941,-6.23674c-0.01838,-0.63362 -0.03097,-1.26636 -0.03097,-1.89751c0,-0.83545 -0.33937,-2.89211 0.08312,-3.59689c0.76555,-1.27703 2.56882,-0.76882 3.78129,-0.76719c1.22684,0.13632 2.48731,0.23086 3.76369,0.28681c1.23221,-0.07691 2.46741,-0.10555 3.69642,-0.1072l0.17962,-0.06799c0,0 0.47127,-0.11782 0.75008,0.21546zM222.34874,162.67095c0.0422,-0.04563 0.08561,-0.08943 0.13025,-0.13133c-0.07195,0.00055 -0.11361,0.00258 -0.11414,0.00657c-0.00552,0.04156 -0.01089,0.08315 -0.01611,0.12476z" fill-opacity="0.40323" fill="#ffffff" stroke="none" stroke-width="0.5"/><path d="M246.63395,179.03555c-2.02305,0.04696 -4.03296,0.1883 -5.95719,0.41045c0,0 -0.7248,0.08368 -0.8027,-0.69157c-0.0779,-0.77525 0.64691,-0.85891 0.64691,-0.85891c3.42278,-0.39515 7.11142,-0.54206 10.67252,-0.3622c1.62947,-0.10779 3.25367,-0.31596 4.8408,-0.6858c0.99659,-0.21301 0.80497,-2.76544 0.8086,-3.6662c0.0126,-3.12345 -0.51353,-7.57695 0.30096,-10.84973c0.00014,-0.02982 0.00028,-0.05964 0.00042,-0.08947l-0.01215,-0.12095l-0.15971,-0.01953l0.08968,-0.83604c0.03737,-0.39449 0.34946,-0.70182 0.72785,-0.70055c0.37838,0.00127 0.6884,0.31069 0.72312,0.70542l0.08407,0.83663l-0.01774,0.00205l0.02094,0.04095c-0.00124,0.59254 -0.00323,1.18507 -0.00597,1.7776c-0.0121,0.11286 -0.02348,0.22581 -0.03416,0.33883c0.01048,0.80559 -0.05924,1.64761 -0.06095,2.15481c-0.00494,1.47075 0.18351,4.06936 0.03597,6.48426c0.01565,0.65881 0.02568,1.31668 0.02348,1.97286c-0.00292,0.86858 0.31976,3.00791 -0.09335,3.73925c-0.74855,1.32518 -2.49948,0.79093 -3.67795,0.78527c-1.19197,-0.14572 -2.41677,-0.24814 -3.65717,-0.31047c-1.19793,0.07594 -2.39859,0.10168 -3.59315,0.09938l-0.17482,0.0701c0,0 -0.45847,0.12095 -0.72829,-0.22646zM257.18746,177.77013c-0.04118,0.0473 -0.08352,0.0927 -0.12705,0.13611c0.06994,-0.00034 0.11043,-0.00232 0.11096,-0.00646c0.00552,-0.0432 0.01088,-0.08641 0.01609,-0.12965z" fill-opacity="0.39516" fill="#000000" stroke="none" stroke-width="0.5"/><path d="M252.02241,161.02082c2.08122,-0.0517 4.14859,-0.19415 6.12754,-0.41403c0,0 0.74541,-0.08282 0.82824,0.66259c0.08282,0.74541 -0.66259,0.82824 -0.66259,0.82824c-3.52011,0.39112 -7.31461,0.54435 -10.97901,0.38285c-1.67609,0.10895 -3.34639,0.31441 -4.97801,0.67526c-1.02459,0.2081 -0.81862,2.66253 -0.81925,3.52893c-0.00217,3.00431 0.55452,7.2862 -0.27216,10.43673c-0.00004,0.02869 -0.00008,0.05737 -0.00012,0.08606l0.01292,0.11629l0.16439,0.01827l-0.08938,0.80443c-0.03709,0.37956 -0.35711,0.67617 -0.74641,0.67617c-0.3893,0 -0.70933,-0.29661 -0.74641,-0.67617l-0.08938,-0.80443l0.01824,-0.00203l-0.02168,-0.03932c-0.00077,-0.56993 -0.00077,-1.13987 0,-1.7098c0.01207,-0.1086 0.02338,-0.21727 0.03397,-0.32601c-0.01356,-0.77482 0.05526,-1.58493 0.05526,-2.07279c0,-1.41465 -0.20286,-3.9135 -0.05941,-6.23674c-0.01838,-0.63362 -0.03097,-1.26636 -0.03097,-1.89751c0,-0.83545 -0.33937,-2.89211 0.08312,-3.59689c0.76555,-1.27703 2.56882,-0.76882 3.78129,-0.76719c1.22684,0.13632 2.48731,0.23086 3.76369,0.28681c1.23221,-0.07691 2.46741,-0.10555 3.69642,-0.1072l0.17962,-0.06799c0,0 0.47127,-0.11782 0.75008,0.21546zM241.16896,162.27205c0.0422,-0.04563 0.08561,-0.08943 0.13025,-0.13133c-0.07195,0.00055 -0.11361,0.00258 -0.11414,0.00657c-0.00552,0.04156 -0.01089,0.08315 -0.01611,0.12476z" fill-opacity="0.40323" fill="#ffffff" stroke="none" stroke-width="0.5"/><path d="M246.63395,198.70635c-2.02305,0.04696 -4.03296,0.1883 -5.95719,0.41045c0,0 -0.7248,0.08368 -0.8027,-0.69157c-0.0779,-0.77525 0.64691,-0.85891 0.64691,-0.85891c3.42278,-0.39515 7.11142,-0.54206 10.67252,-0.3622c1.62947,-0.10779 3.25367,-0.31596 4.8408,-0.6858c0.99659,-0.21301 0.80497,-2.76544 0.8086,-3.6662c0.0126,-3.12345 -0.51353,-7.57695 0.30096,-10.84973c0.00014,-0.02982 0.00028,-0.05964 0.00042,-0.08947l-0.01215,-0.12095l-0.15971,-0.01953l0.08968,-0.83604c0.03737,-0.39449 0.34946,-0.70182 0.72785,-0.70055c0.37838,0.00127 0.6884,0.31069 0.72312,0.70542l0.08407,0.83663l-0.01774,0.00205l0.02094,0.04095c-0.00124,0.59254 -0.00323,1.18507 -0.00597,1.7776c-0.0121,0.11286 -0.02348,0.22581 -0.03416,0.33883c0.01048,0.80559 -0.05924,1.64761 -0.06095,2.15481c-0.00494,1.47075 0.18351,4.06936 0.03597,6.48426c0.01565,0.65881 0.02568,1.31668 0.02348,1.97286c-0.00292,0.86858 0.31976,3.00791 -0.09335,3.73925c-0.74855,1.32518 -2.49948,0.79093 -3.67795,0.78527c-1.19197,-0.14572 -2.41677,-0.24814 -3.65717,-0.31047c-1.19793,0.07594 -2.39859,0.10168 -3.59315,0.09938l-0.17482,0.0701c0,0 -0.45847,0.12095 -0.72829,-0.22646zM257.18746,197.44093c-0.04118,0.0473 -0.08352,0.0927 -0.12705,0.13611c0.06994,-0.00034 0.11043,-0.00232 0.11096,-0.00646c0.00552,-0.0432 0.01088,-0.08641 0.01609,-0.12965z" fill-opacity="0.39516" fill="#000000" stroke="none" stroke-width="0.5"/><path d="M252.49275,180.69162c2.08122,-0.0517 4.14859,-0.19415 6.12754,-0.41403c0,0 0.74541,-0.08282 0.82824,0.66259c0.08282,0.74541 -0.66259,0.82824 -0.66259,0.82824c-3.52011,0.39112 -7.31461,0.54435 -10.97901,0.38285c-1.67609,0.10895 -3.34639,0.31441 -4.97801,0.67526c-1.02459,0.2081 -0.81862,2.66253 -0.81925,3.52893c-0.00217,3.00431 0.55452,7.2862 -0.27216,10.43673c-0.00004,0.02869 -0.00008,0.05737 -0.00012,0.08606l0.01292,0.11629l0.16439,0.01827l-0.08938,0.80443c-0.03709,0.37956 -0.35711,0.67617 -0.74641,0.67617c-0.3893,0 -0.70933,-0.29661 -0.74641,-0.67617l-0.08938,-0.80443l0.01824,-0.00203l-0.02168,-0.03932c-0.00077,-0.56993 -0.00077,-1.13987 0,-1.7098c0.01207,-0.1086 0.02338,-0.21727 0.03397,-0.32601c-0.01356,-0.77482 0.05526,-1.58493 0.05526,-2.07279c0,-1.41465 -0.20286,-3.9135 -0.05941,-6.23674c-0.01838,-0.63362 -0.03097,-1.26636 -0.03097,-1.89751c0,-0.83545 -0.33937,-2.89211 0.08312,-3.59689c0.76555,-1.27703 2.56882,-0.76882 3.78129,-0.76719c1.22684,0.13632 2.48731,0.23086 3.76369,0.28681c1.23221,-0.07691 2.46741,-0.10555 3.69642,-0.1072l0.17962,-0.06799c0,0 0.47127,-0.11782 0.75008,0.21546zM241.63929,181.94285c0.0422,-0.04563 0.08561,-0.08943 0.13025,-0.13133c-0.07195,0.00055 -0.11361,0.00258 -0.11414,0.00657c-0.00552,0.04156 -0.01089,0.08315 -0.01611,0.12476z" fill-opacity="0.40323" fill="#ffffff" stroke="none" stroke-width="0.5"/><path d="M227.75895,198.70635c-2.02305,0.04696 -4.03296,0.1883 -5.95719,0.41045c0,0 -0.7248,0.08368 -0.8027,-0.69157c-0.0779,-0.77525 0.64691,-0.85891 0.64691,-0.85891c3.42278,-0.39515 7.11142,-0.54206 10.67252,-0.3622c1.62947,-0.10779 3.25367,-0.31596 4.8408,-0.6858c0.99659,-0.21301 0.80497,-2.76544 0.8086,-3.6662c0.0126,-3.12345 -0.51353,-7.57695 0.30096,-10.84973c0.00014,-0.02982 0.00028,-0.05964 0.00042,-0.08947l-0.01215,-0.12095l-0.15971,-0.01953l0.08968,-0.83604c0.03737,-0.39449 0.34946,-0.70182 0.72785,-0.70055c0.37838,0.00127 0.6884,0.31069 0.72312,0.70542l0.08407,0.83663l-0.01774,0.00205l0.02094,0.04095c-0.00124,0.59254 -0.00323,1.18507 -0.00597,1.7776c-0.0121,0.11286 -0.02348,0.22581 -0.03416,0.33883c0.01048,0.80559 -0.05924,1.64761 -0.06095,2.15481c-0.00494,1.47075 0.18351,4.06936 0.03597,6.48426c0.01565,0.65881 0.02568,1.31668 0.02348,1.97286c-0.00292,0.86858 0.31976,3.00791 -0.09335,3.73925c-0.74855,1.32518 -2.49948,0.79093 -3.67795,0.78527c-1.19197,-0.14572 -2.41677,-0.24814 -3.65717,-0.31047c-1.19793,0.07594 -2.39859,0.10168 -3.59315,0.09938l-0.17482,0.0701c0,0 -0.45847,0.12095 -0.72829,-0.22646zM238.31246,197.44093c-0.04118,0.0473 -0.08352,0.0927 -0.12705,0.13611c0.06994,-0.00034 0.11043,-0.00232 0.11096,-0.00646c0.00552,-0.0432 0.01088,-0.08641 0.01609,-0.12965z" fill-opacity="0.39516" fill="#000000" stroke="none" stroke-width="0.5"/><path d="M233.37634,180.66411c2.08122,-0.0517 4.14859,-0.19415 6.12754,-0.41403c0,0 0.74541,-0.08282 0.82824,0.66259c0.08282,0.74541 -0.66259,0.82824 -0.66259,0.82824c-3.52011,0.39112 -7.31461,0.54435 -10.97901,0.38285c-1.67609,0.10895 -3.34639,0.31441 -4.97801,0.67526c-1.02459,0.2081 -0.81862,2.66253 -0.81925,3.52893c-0.00217,3.00431 0.55452,7.2862 -0.27216,10.43673c-0.00004,0.02869 -0.00008,0.05737 -0.00012,0.08606l0.01292,0.11629l0.16439,0.01827l-0.08938,0.80443c-0.03709,0.37956 -0.35711,0.67617 -0.74641,0.67617c-0.3893,0 -0.70933,-0.29661 -0.74641,-0.67617l-0.08938,-0.80443l0.01824,-0.00203l-0.02168,-0.03932c-0.00077,-0.56993 -0.00077,-1.13987 0,-1.7098c0.01207,-0.1086 0.02338,-0.21727 0.03397,-0.32601c-0.01356,-0.77482 0.05526,-1.58493 0.05526,-2.07279c0,-1.41465 -0.20286,-3.9135 -0.05941,-6.23674c-0.01838,-0.63362 -0.03097,-1.26636 -0.03097,-1.89751c0,-0.83545 -0.33937,-2.89211 0.08312,-3.59689c0.76555,-1.27703 2.56882,-0.76882 3.78129,-0.76719c1.22684,0.13632 2.48731,0.23086 3.76369,0.28681c1.23221,-0.07691 2.46741,-0.10555 3.69642,-0.1072l0.17962,-0.06799c0,0 0.47127,-0.11782 0.75008,0.21546zM222.52288,181.91534c0.0422,-0.04563 0.08561,-0.08943 0.13025,-0.13133c-0.07195,0.00055 -0.11361,0.00258 -0.11414,0.00657c-0.00552,0.04156 -0.01089,0.08315 -0.01611,0.12476z" fill-opacity="0.40323" fill="#ffffff" stroke="none" stroke-width="0.5"/><path d="M221.05422,179.54399v-18.875h18.875v18.875z" fill="none" stroke="#1f1f1f" stroke-width="1.5"/><path d="M221.12512,198.98585v-18.875h18.875v18.875z" fill="none" stroke="#1f1f1f" stroke-width="1.5"/><path d="M240.72183,179.51414v-18.875h18.875v18.875z" fill="none" stroke="#1f1f1f" stroke-width="1.5"/><path d="M240.72183,198.98585v-18.875h18.875v18.875z" fill="none" stroke="#1f1f1f" stroke-width="1.5"/></g></g></svg>