<svg version="1.1" xmlns="http://www.w3.org/2000/svg" xmlns:xlink="http://www.w3.org/1999/xlink" width="38.39474" height="38.17076" viewBox="0,0,38.39474,38.17076"><g transform="translate(-220.68248,-161.20468)"><g data-paper-data="{&quot;isPaintingLayer&quot;:true}" fill-rule="nonzero" stroke="#82684d" stroke-width="1.5" stroke-linecap="round" stroke-linejoin="miter" stroke-miterlimit="10" stroke-dasharray="" stroke-dashoffset="0" style="mix-blend-mode: normal"><path d="M221.43755,170.75l6.875,-8.625l10.125,0.875l7,3.625l6.875,-3.125l4.5,2.5l1.5,8.75l-1.875,8.125l1.75,15.375l-13.75,0.375l-14.625,-0.625l-7.875,0.5l0.625,-9l-0.875,-5.75z" fill="#937557"/><path d="M244.93755,197.875l0.25,-5.625l2,-7.5" fill="none"/><path d="M245.43755,177.875l-5.75,0.625l-7.125,3.875l-10.5,-5l0.37497,-2.875l21.75,-4.25l1,2.375z" fill="#98795a"/><path d="M221.93752,183.125l1.125,-5l9.87503,5v6.125l-2.75,2.125l-7.125,-2z" fill="#99826a"/><path d="M236.56255,197.375l-3.125,-8.25" fill="none"/><path d="M256.06253,183.25l-3.625,3.75l-5.25,-2.5l-2,-13.25l-6.125,1.5l-6,4.375l-10.5,-2.25l-0.75,-3.875l6.25,-9l10,1.125l7.125,3l7.25,-2.625l4.25,3l0.25,4.75l-7.125,1.75l-4.375,-2l0.125,-3.875" fill="#9f7f5e"/><path d="M249.81252,173.375l5.875,8.875" fill="none"/></g></g></svg>