<svg version="1.1" xmlns="http://www.w3.org/2000/svg" xmlns:xlink="http://www.w3.org/1999/xlink" width="24.96346" height="23.13691" viewBox="0,0,24.96346,23.13691"><g transform="translate(-226.5172,-168.94951)"><g data-paper-data="{&quot;isPaintingLayer&quot;:true}" fill-rule="nonzero" stroke="none" stroke-linecap="butt" stroke-linejoin="miter" stroke-miterlimit="10" stroke-dasharray="" stroke-dashoffset="0" style="mix-blend-mode: normal"><path d="M233.17374,180.00001c0,-3.77005 3.05623,-6.82628 6.82628,-6.82628c3.77005,0 6.82628,3.05623 6.82628,6.82628c0,3.77005 -3.05623,6.82628 -6.82628,6.82628c-3.77005,0 -6.82628,-3.05623 -6.82628,-6.82628z" fill="#da0000" stroke-width="0"/><path d="M246.13425,173.99937c1.06328,-0.1878 2.09401,-0.21177 2.96397,0.16667c3.22009,1.40078 1.83268,5.48175 0.07376,7.514c-1.35615,0.28525 -2.69452,0.39615 -4.0491,0.6932c1.89595,0.90152 3.92516,3.38623 5.10147,4.56948c0.41261,0.41504 1.50833,1.33059 1.20346,2.07852c-0.35309,0.86623 -1.57294,0.74005 -2.24899,0.74739c-3.28224,0 -9.79097,-1.19362 -10.73168,-5.15305c-0.08602,-0.36205 -0.17393,0.75725 -0.42418,1.03267c-0.73461,0.80849 -1.99435,1.50543 -2.95391,1.99001c-0.59807,0.25609 -1.17412,0.53446 -1.80914,0.69149c-1.79389,0.44359 -3.46827,-0.19652 -2.66534,-2.32925c0.98492,-2.61613 2.82728,-4.04928 4.57992,-5.99383c0.17915,-0.19876 -0.53722,0.00247 -0.8019,-0.03685c-0.85309,-0.12675 -1.70469,-0.26172 -2.55872,-0.38373c-1.31289,-0.18999 -4.06221,-0.57974 -2.94952,-2.72657c0.78901,-1.52232 5.22518,-2.66167 6.68741,-3.43886c0.701,-0.37259 1.48933,-1.62873 2.38451,-1.5037c0.67279,0.09397 2.19282,1.53557 2.82874,2.69284c0.17686,-1.95487 1.75467,-5.45164 2.79462,-5.63089c1.23521,-0.2129 1.72181,0.77235 2.06785,1.60738c0.41582,1.00341 0.57409,2.2105 0.50676,3.41311z" fill="#da0000" stroke-width="0.5"/><path d="M234.8992,180.76582c-0.95299,-0.52132 -1.87398,-1.09989 -2.77796,-1.7032l-0.01955,-0.02762l-0.00628,0.00785l-0.63858,-0.51086c-0.17469,-0.13732 -0.28689,-0.35054 -0.28689,-0.58998c0,-0.37645 0.27735,-0.68812 0.63886,-0.74182l0.76062,-0.12677l0.03895,0.2337c1.04605,-0.27741 2.40098,-0.54711 3.14456,-0.39623c-0.02766,-0.0319 -0.05147,-0.0613 -0.06965,-0.08629c-0.274,-0.37659 -1.04886,-1.74474 -0.80966,-2.08566c1.11278,-1.58598 3.8743,1.1651 5.03177,1.1651c0.75027,0 2.16004,-1.30834 2.62628,-1.67268c0.35295,0.39737 0.80273,0.7264 1.05885,1.1921c0.13841,0.25167 -0.3062,0.72261 0.16946,0.78046c0.95597,0.11625 2.04193,-0.15609 2.98363,-0.29074l0.7524,-0.1254c0.04449,-0.00823 0.09036,-0.01253 0.13724,-0.01253c0.41421,0 0.75,0.33579 0.75,0.75c0,0.27798 -0.15124,0.52064 -0.37592,0.65019l-0.6322,0.37932l-0.09303,-0.15505c-1.11508,0.94266 -2.35589,1.38399 -3.56628,2.4291c-0.37323,0.32226 0.87494,0.45518 1.31599,0.6757l0.02026,0.02217l0.0047,-0.00784l0.6322,0.37932c0.22468,0.12955 0.37592,0.37221 0.37592,0.65019c0,0.33738 -0.22277,0.62273 -0.52924,0.71698l-0.75638,0.25213l-0.05111,-0.15332c-0.22962,0.10137 -0.46334,0.19294 -0.69972,0.27441c-0.3756,0.12947 -1.34271,0.46394 -0.995,0.65612c1.38265,0.7642 2.19946,2.11959 3.45576,3.13284l0.03456,0.07841l0.02076,-0.01661l0.51146,0.63932c0.10508,0.12907 0.16808,0.29377 0.16808,0.47319c0,0.41421 -0.33579,0.75 -0.75,0.75h-0.77279v-0.30839c-2.07444,-0.15698 -4.06514,-1.57765 -6.05503,-2.31375c-0.53533,-0.19803 -1.1224,-0.93637 -1.75922,-0.85659c-1.23287,0.15444 -3.04384,1.31264 -3.86116,-0.4381c-0.26756,-0.57312 0.34194,-2.93031 0.67807,-3.50899c0.06508,-0.0534 0.13016,-0.10679 0.19524,-0.16019z" fill="#f30000" stroke-width="0.5"/><path d="M250.01914,191.57414c-0.23717,0.71151 -0.94868,0.47434 -0.94868,0.47434l-0.84901,-0.28772c-1.22614,-0.74843 -4.44646,-5.3188 -5.99856,-2.48507c0,0 -0.38587,0.64312 -1.02899,0.25725c-0.64312,-0.38587 -0.25725,-1.02899 -0.25725,-1.02899c2.62457,-4.14545 5.66552,0.5879 7.91158,1.89405l0.69656,0.22747c0,0 0.71151,0.23717 0.47434,0.94868z" fill="#f28c8c" stroke-width="0.5"/><path d="M249.48741,181.31759c-0.67082,-0.33541 -0.33541,-1.00623 -0.33541,-1.00623l0.05982,-0.04548c0.82019,-4.92113 -1.60758,-8.26582 -6.33857,-9.05432c0,0 -0.7398,-0.1233 -0.6165,-0.86309c0.1233,-0.7398 0.86309,-0.6165 0.86309,-0.6165c5.53178,0.92196 8.51956,5.09258 7.57157,10.78051l-0.19777,0.46971c0,0 -0.33541,0.67082 -1.00623,0.33541z" fill="#f28c8c" stroke-width="0.5"/><path d="M226.7529,171.61579c0.53033,-0.53033 1.06066,0 1.06066,0l0.32458,0.33107c2.46133,1.96906 6.78066,6.57663 3.92574,9.61662c0,0 -0.53033,0.53033 -1.06066,0c-0.53033,-0.53033 0,-1.06066 0,-1.06066c2.12958,-1.91724 -2.28727,-6.17278 -3.80212,-7.38466l-0.4482,-0.44171c0,0 -0.53033,-0.53033 0,-1.06066z" fill="#f28c8c" stroke-width="0.5"/></g></g></svg>