<svg version="1.1" xmlns="http://www.w3.org/2000/svg" xmlns:xlink="http://www.w3.org/1999/xlink" width="52.75" height="52.75" viewBox="0,0,52.75,52.75"><g transform="translate(-213.625,-153.625)"><g data-paper-data="{&quot;isPaintingLayer&quot;:true}" fill-rule="nonzero" stroke-linejoin="miter" stroke-miterlimit="10" stroke-dasharray="" stroke-dashoffset="0" style="mix-blend-mode: normal"><path d="M214.875,205.125v-50.25h50.25v50.25z" fill="#7f7f7f" stroke="#5e5e5e" stroke-width="2.5" stroke-linecap="butt"/><path d="M224.49108,192.18553v-17.15218h31.01785v17.15218z" fill="#767676" stroke="#5a5a5a" stroke-width="1.5" stroke-linecap="butt"/><path d="M224.49108,198.60251v-6.41698h31.01785v6.41698z" fill="#767676" stroke="#5a5a5a" stroke-width="1.5" stroke-linecap="butt"/><path d="M246.02793,185.96727c0,1.51064 -2.71427,2.73525 -6.0625,2.73525c-3.34823,0 -6.0625,-1.22461 -6.0625,-2.73525c0,-1.51064 2.71427,-2.73525 6.0625,-2.73525c3.34823,0 6.0625,1.22461 6.0625,2.73525z" fill="#f17400" stroke="#c96100" stroke-width="1.5" stroke-linecap="butt"/><path d="M246.02793,185.8818c0,1.51064 -2.71427,2.73525 -6.0625,2.73525c-3.34823,0 -6.0625,-1.22461 -6.0625,-2.73525c0,-1.51064 2.71427,-2.73525 6.0625,-2.73525c3.34823,0 6.0625,1.22461 6.0625,2.73525z" fill="none" stroke="#c96100" stroke-width="1.5" stroke-linecap="butt"/><path d="M234.65293,186.30918v-18.03555h10.84369v18.03555z" fill="#f17400" stroke="none" stroke-width="0" stroke-linecap="butt"/><path d="M238.72429,170.8184c0.27854,0.47618 -0.41781,0.66665 -0.41781,0.66665l-0.56813,0.15349c-1.12123,0.38133 -2.08064,0.5643 -3.33541,0.567c0,0 -0.75,0 -0.75,-0.51286c0,-0.51286 0.75,-0.51286 0.75,-0.51286c1.0242,0.0026 1.75058,-0.14433 2.66459,-0.45872l0.68187,-0.18842c0,0 0.69636,-0.19047 0.9749,0.2857z" fill="#ff9531" stroke="none" stroke-width="0.5" stroke-linecap="butt"/><path d="M242.83483,170.42585c0.72761,0.12439 0.54571,0.62193 0.54571,0.62193l-0.18179,0.44688c-1.48863,2.01295 -5.23107,2.83229 -8.18365,3.50529c0,0 -0.71151,0.16218 -0.94868,-0.32436c-0.23717,-0.48654 0.47434,-0.64872 0.47434,-0.64872c2.50268,-0.57046 6.07102,-1.26412 7.31635,-2.99093l0.06821,-0.23693c0,0 0.1819,-0.49755 0.90951,-0.37316z" fill="#ff9531" stroke="none" stroke-width="0.5" stroke-linecap="butt"/><path d="M245.61334,172.08873c0.67082,0.22936 0.33541,0.68807 0.33541,0.68807l-0.4523,0.51302c-1.07914,0.58264 -1.31835,1.43739 -2.31319,2.09909c-1.68567,1.12119 -6.09788,1.8436 -8.40703,2.1092c0,0 -0.7398,0.08431 -0.86309,-0.42157c-0.1233,-0.50588 0.6165,-0.59019 0.6165,-0.59019c1.91597,-0.21611 6.25575,-0.87069 7.59297,-1.82272c0.99403,-0.7077 1.28235,-1.53644 2.43681,-2.17474l0.0477,-0.17079c0,0 0.33541,-0.45872 1.00623,-0.22936z" fill="#ff9531" stroke="none" stroke-width="0.5" stroke-linecap="butt"/><path d="M245.93326,175.68934c0.53033,0.36265 0,0.72529 0,0.72529l-0.06968,0.04321c-2.64355,2.23571 -7.20031,3.26964 -11.33565,3.26964c0,0 -0.75,0 -0.75,-0.51286c0,-0.51286 0.75,-0.51286 0.75,-0.51286c3.64771,0 7.85098,-0.88117 10.16435,-2.88468l0.18032,-0.12774c0,0 0.53033,-0.36265 1.06066,0z" fill="#ff9531" stroke="none" stroke-width="0.5" stroke-linecap="butt"/><path d="M246.30826,178.7665c0.53033,0.36265 0,0.72529 0,0.72529l0.01549,-0.04781c-1.70301,2.23079 -8.50981,3.3347 -11.92082,3.36066c0,0 -0.75,0 -0.75,-0.51286c0,-0.51286 0.75,-0.51286 0.75,-0.51286c2.7597,0.02901 5.2374,-0.79209 7.71299,-1.49954c1.13837,-0.32531 2.31197,-0.48467 2.86619,-1.29412l0.26549,-0.21877c0,0 0.53033,-0.36265 1.06066,0z" fill="#ff9531" stroke="none" stroke-width="0.5" stroke-linecap="butt"/><path d="M245.80826,182.01461c0.53033,0.36265 0,0.72529 0,0.72529l-0.31181,0.20878c-1.93535,1.04848 -5.44699,2.16259 -7.9598,2.16379c-1.16031,0.00055 -2.23884,-0.35066 -3.38372,-0.34187c0,0 -0.75,0 -0.75,-0.51286c0,-0.51286 0.75,-0.51286 0.75,-0.51286c3.8849,0.02255 7.04599,0.26311 10.40648,-1.59715l0.18819,-0.13312c0,0 0.53033,-0.36265 1.06066,0z" fill="#ff9531" stroke="none" stroke-width="0.5" stroke-linecap="butt"/><path d="M245.62145,184.28465c0.58565,0.32038 0.11713,0.72085 0.11713,0.72085l-0.61414,0.50584c-3.13495,1.1118 -7.01313,2.04601 -10.59481,1.64563c0,0 -0.7398,-0.08431 -0.6165,-0.59019c0.1233,-0.50588 0.86309,-0.42157 0.86309,-0.42157c3.17893,0.37048 6.58248,-0.52586 9.40519,-1.43153l0.38586,-0.34893c0,0 0.46852,-0.40047 1.05417,-0.08009z" fill="#ff9531" stroke="none" stroke-width="0.5" stroke-linecap="butt"/><path d="M244.30058,186.27641c0.05009,-0.15146 0.21092,-0.39461 0.72735,-0.39461c0.75,0 0.75,0.51286 0.75,0.51286l-0.16435,0.40586c-1.21394,0.99986 -3.562,1.46849 -5.34848,1.87569c0,0 -0.71151,0.16218 -0.94868,-0.32436c-0.23717,-0.48654 0.47434,-0.64872 0.47434,-0.64872c1.36294,-0.31066 3.51433,-0.67622 4.50983,-1.42671z" fill="#ff9531" stroke="none" stroke-width="0.5" stroke-linecap="butt"/><path d="M246.02793,186.05275v-18.03555" fill="none" stroke="#c96100" stroke-width="1.5" stroke-linecap="round"/><path d="M233.90293,185.96727v-17.77912" fill="none" stroke="#c96100" stroke-width="1.5" stroke-linecap="round"/><path d="M246.02793,168.18814c0,1.51064 -2.71427,2.73525 -6.0625,2.73525c-3.34823,0 -6.0625,-1.22461 -6.0625,-2.73525c0,-1.51064 2.71427,-2.73525 6.0625,-2.73525c3.34823,0 6.0625,1.22461 6.0625,2.73525z" fill="#f17400" stroke="#c96100" stroke-width="1.5" stroke-linecap="butt"/><path d="M246.36334,185.50855c0.67082,0.22936 0.33541,0.68807 0.33541,0.68807l-0.41407,0.55991c-2.66211,2.27347 -12.14095,3.67722 -13.12155,-0.27757c0,0 -0.1233,-0.50588 0.6165,-0.59019c0.7398,-0.08431 0.86309,0.42157 0.86309,0.42157c0.25154,1.05329 1.3997,1.05711 2.87238,1.39278c2.63325,0.60022 5.74603,0.00703 7.50608,-1.4994l0.33593,-0.46581c0,0 0.33541,-0.45872 1.00623,-0.22936z" fill="#c96100" stroke="none" stroke-width="0.5" stroke-linecap="butt"/><path d="M249.65292,170.48708c0,2.74255 -4.37244,4.96582 -9.76611,4.96582c-5.39368,0 -9.76611,-2.22328 -9.76611,-4.96582c0,-2.74255 4.37243,-4.96582 9.76611,-4.96582c5.39368,0 9.76611,2.22328 9.76611,4.96582z" fill="#999999" stroke="#7d7d7d" stroke-width="1.5" stroke-linecap="butt"/><path d="M230.89316,171.14919v-4.52442h18.42871v4.52442z" fill="#999999" stroke="none" stroke-width="0" stroke-linecap="butt"/><path d="M249.65292,166.29371c0,2.74255 -4.37244,4.96582 -9.76611,4.96582c-5.39368,0 -9.76611,-2.22328 -9.76611,-4.96582c0,-2.74255 4.37243,-4.96582 9.76611,-4.96582c5.39368,0 9.76611,2.22327 9.76611,4.96582z" fill="#999999" stroke="#7d7d7d" stroke-width="1.5" stroke-linecap="butt"/><path d="M249.65292,166.95583v4.30371" fill="none" stroke="#7d7d7d" stroke-width="1.5" stroke-linecap="round"/><path d="M230.1207,166.29371v4.19336" fill="none" stroke="#7d7d7d" stroke-width="1.5" stroke-linecap="round"/><path d="M242.52792,166.0154c0,0.79391 -1.28718,1.4375 -2.875,1.4375c-1.58782,0 -2.875,-0.64359 -2.875,-1.4375c0,-0.79391 1.28718,-1.4375 2.875,-1.4375c1.58782,0 2.875,0.64359 2.875,1.4375z" fill="#7d7d7d" stroke="#7d7d7d" stroke-width="1.5" stroke-linecap="butt"/></g></g></svg>