<svg version="1.1" xmlns="http://www.w3.org/2000/svg" xmlns:xlink="http://www.w3.org/1999/xlink" width="35.78572" height="23.63268" viewBox="0,0,35.78572,23.63268"><defs><linearGradient x1="240.28854" y1="169.2981" x2="240.28854" y2="190.2344" gradientUnits="userSpaceOnUse" id="color-1"><stop offset="0" stop-color="#ff9c9c"/><stop offset="1" stop-color="#ff8383"/></linearGradient></defs><g transform="translate(-222.40155,-167.92792)"><g data-paper-data="{&quot;isPaintingLayer&quot;:true}" fill-rule="nonzero" stroke="none" stroke-width="0.5" stroke-linecap="butt" stroke-linejoin="miter" stroke-miterlimit="10" stroke-dasharray="" stroke-dashoffset="0" style="mix-blend-mode: normal"><path d="M227.57127,174.55637c1.39534,-1.89808 3.60917,-3.11428 5.80926,-3.9452c5.67815,-1.78483 11.48352,-2.16062 16.34042,1.51243c2.12371,1.5978 3.35318,3.72476 4.35531,6.067c0.50505,1.18044 0.4593,2.33298 1.31637,2.91239c-0.66792,1.02804 -1.32875,2.79207 -1.58022,3.26805c-1.28534,2.43286 -4.84871,5.12115 -7.69895,5.56231c-5.16917,0 -12.95708,1.54585 -17.04325,-2.36833c-2.01731,-1.87272 -4.85541,-5.41555 -3.55798,-8.29271l0.11735,-0.21656c0,0 0.13338,-0.25308 0.06394,-0.51809c0.705,-1.23234 1.0662,-2.87735 1.87775,-3.98129z" data-paper-data="{&quot;noHover&quot;:false,&quot;origItem&quot;:[&quot;Path&quot;,{&quot;applyMatrix&quot;:true,&quot;segments&quot;:[[[225.74332,178.46917],[0.705,-1.30683],[0.06945,0.28104]],[225.67951,179.01671],[[225.56219,179.24556],[0,0],[-1.29743,3.05109]],[[229.11045,188.00811],[-2.01731,-1.98592],[4.08617,4.15078]],[[246.08969,190.50528],[-5.16917,0],[2.85024,-0.46783]],[[253.76538,184.63374],[-1.28534,2.57992],[0.25147,-0.50475]],[[255.34285,181.18045],[-0.66792,1.09018],[-0.85707,-0.61443]],[[254.02662,178.1027],[0.50505,1.2518],[-1.00213,-2.48382]],[[249.68303,171.69552],[2.12371,1.69439],[-4.8569,-3.89509]],[[233.40952,170.09982],[5.67815,-1.89272],[-2.20009,0.88114]],[[227.61713,174.26269],[1.39534,-2.01282],[-0.81155,1.17068]]],&quot;closed&quot;:true}]}" fill="url(#color-1)"/><path d="M233.04441,173.89219c0,0.70725 -0.75,0.70725 -0.75,0.70725l-1.24462,-0.20715c-0.54132,-0.51688 -0.75017,-1.11265 -1.4625,-1.32529c0,0 -0.69636,-0.26266 -0.41781,-0.91933c0.27855,-0.65667 0.9749,-0.39399 0.9749,-0.39399c1.02921,0.43271 1.19939,0.92668 1.96607,1.63841l0.18396,-0.20715c0,0 0.75,0 0.75,0.70725z" fill="#ff6767"/><path d="M237.43727,172.44402c-0.75,0 -0.75,-0.70725 -0.75,-0.70725l0.0102,-0.28787c-0.06802,-0.43292 -0.22846,-0.86331 -0.47475,-1.23425c0,0 -0.38587,-0.60646 0.25725,-0.97033c0.64312,-0.36387 1.02899,0.24259 1.02899,0.24259c0.32717,0.53033 0.55278,1.12563 0.66811,1.72946l0.0102,0.52041c0,0 0,0.70725 -0.75,0.70725z" fill="#ff6767"/><path d="M244.24471,172.63878c-0.67082,-0.31629 -0.33541,-0.94887 -0.33541,-0.94887l0.07388,-0.06941c0.08703,-0.45399 0.08703,-0.93004 0,-1.38402c0,0 -0.12329,-0.69763 0.6165,-0.8139c0.73979,-0.11627 0.86309,0.58136 0.86309,0.58136c0.10082,0.60899 0.10082,1.24012 0,1.8491l-0.21183,0.46945c0,0 -0.33541,0.63258 -1.00623,0.31629z" fill="#ff6767"/><path d="M249.36557,174.92964c-0.38587,-0.60646 0.25725,-0.97033 0.25725,-0.97033l0.52917,-0.25624c0.05345,-0.15923 0.1069,-0.31845 0.16035,-0.47768c0,0 0.27854,-0.65667 0.9749,-0.39399c0.69636,0.26267 0.41781,0.91933 0.41781,0.91933c-0.13702,0.28982 -0.27406,0.57964 -0.41108,0.86946l-0.89941,0.55205c0,0 -0.64312,0.36387 -1.029,-0.24259z" fill="#ff6767"/><path d="M248.86584,185.57862c0.75,0 0.75,0.70725 0.75,0.70725l-0.01021,0.5573c0.04144,0.35604 0.2202,0.72614 0.50482,0.96331c0,0 0.53033,0.5001 0,1.0002c-0.53033,0.5001 -1.06066,0 -1.06066,0c-0.46737,-0.47222 -0.78919,-1.09763 -0.92375,-1.73097l-0.0102,-0.78984c0,0 0,-0.70725 0.75,-0.70725z" fill="#ff6767"/><path d="M243.43727,186.52162c0.75,0 0.75,0.70725 0.75,0.70725v0.13472c-0.0028,0.82373 0.14042,1.59925 0.14285,2.42485c0,0 0,0.70725 -0.75,0.70725c-0.75,0 -0.75,-0.70725 -0.75,-0.70725c0.0028,-0.82373 -0.14042,-1.59925 -0.14285,-2.42485v-0.13472c0,0 0,-0.70725 0.75,-0.70725z" fill="#ff6767"/><path d="M237.76202,186.94687c0.72761,0.17153 0.5457,0.85767 0.5457,0.85767l-0.12046,0.36732c0,0.53886 0,1.07771 0,1.61657c0,0 0,0.70725 -0.75,0.70725c-0.75,0 -0.75,-0.70725 -0.75,-0.70725c0,-0.53886 0,-1.07771 0,-1.61657l0.16525,-0.71039c0,0 0.1819,-0.68613 0.9095,-0.51459z" fill="#ff6767"/><path d="M233.11045,186.18991c0.53033,0.5001 0,1.0002 0,1.0002c-0.38095,0.35923 -1.33333,1.25734 -1.71428,1.61657c0,0 -0.53033,0.5001 -1.06066,0c-0.53033,-0.5001 0,-1.0002 0,-1.0002c0.38095,-0.35923 0.7619,-0.71848 1.14285,-1.07771l0.57143,-0.53886c0,0 0.53033,-0.5001 1.06066,0z" fill="#ff6767"/><path d="M223.80961,180.16243c-0.20224,0.05135 -0.42087,0.08384 -0.65806,0.09501c0,0 -0.75,0 -0.75,-0.70725c0,-0.70725 0.75,-0.70725 0.75,-0.70725c1.44206,0.13617 1.80282,-2.52003 2.32812,-3.51373c1.54547,-2.92356 4.26715,-4.82225 7.41391,-6.0078c6.19306,-1.94668 12.42615,-2.25941 17.72649,1.72839c2.07976,1.57282 3.52474,3.62656 4.51355,5.94758c0.34936,0.82004 0.65851,3.26357 1.50836,3.06038l0.05687,0.0331l0.00457,-0.02589l0.84498,0.1328c0.36151,0.05064 0.63887,0.34454 0.63887,0.69953c0,0.39061 -0.33578,0.70725 -0.75,0.70725h-0.31931c-1.43875,1.21012 -1.47244,3.06042 -2.94668,4.84713c-1.79834,2.1795 -5.07516,4.39186 -7.95786,4.84986c-5.77792,0 -13.57315,1.51077 -18.16362,-2.7643c-2.18658,-2.08786 -4.5927,-5.24735 -4.24018,-8.37483zM225.74332,178.54186c0.06945,0.26502 -0.06381,0.51633 -0.06381,0.51633l-0.11732,0.2158c-1.29743,2.87717 1.53095,6.39034 3.54826,8.26306c4.08617,3.91417 11.81007,2.35482 16.97924,2.35482c2.85024,-0.44116 6.39035,-3.10399 7.67569,-5.53684c0.25147,-0.47598 0.90954,-2.22841 1.57747,-3.25644c-0.85707,-0.57941 -0.81117,-1.72187 -1.31623,-2.90231c-1.00213,-2.34223 -2.21989,-4.44414 -4.3436,-6.04195c-4.8569,-3.67306 -10.59536,-3.28957 -16.27351,-1.50474c-2.20009,0.83091 -4.39705,2.02748 -5.79239,3.92557c-0.81155,1.10395 -1.16881,2.73437 -1.87381,3.9667z" fill="#1e251e"/></g></g></svg>