<svg version="1.1" xmlns="http://www.w3.org/2000/svg" xmlns:xlink="http://www.w3.org/1999/xlink" width="27.54066" height="38.2728" viewBox="0,0,27.54066,38.2728"><g transform="translate(-226.13796,-160.61358)"><g data-paper-data="{&quot;isPaintingLayer&quot;:true}" fill-rule="nonzero" stroke-linecap="butt" stroke-linejoin="miter" stroke-miterlimit="10" stroke-dasharray="" stroke-dashoffset="0" style="mix-blend-mode: normal"><path d="M228.09091,198.13638v-9.81818h23.81818v9.81818z" fill="#9a6d4e" stroke="#704f39" stroke-width="1.5"/><path d="M232.77273,193.22729v-7.18182h14.45455v7.18182z" fill="#f17400" stroke="#c96100" stroke-width="1.5"/><path d="M232.77273,189.63638v-7.18182h14.45455v7.18182z" fill="#eae0b9" stroke="#dcd2ae" stroke-width="1.5"/><path d="M232.77273,186.04547v-7.18182h14.45455v7.18182z" fill="#f17400" stroke="#c96100" stroke-width="1.5"/><path d="M232.77273,182.09092v-7.18182h14.45455v7.18182z" fill="#eae0b9" stroke="#dcd2ae" stroke-width="1.5"/><path d="M232.3477,178.9101l1.04172,-7.10587l14.30168,2.09663l-1.04172,7.10587z" fill="#f17400" stroke="#c96100" stroke-width="1.5"/><path d="M233.39341,177.42155l-1.04787,-7.10496l14.29986,-2.109l1.04787,7.10496z" fill="#eae0b9" stroke="#dcd2ae" stroke-width="1.5"/><path d="M238.83472,178.99931c0.1118,0.22361 -0.1118,0.33541 -0.1118,0.33541l-0.25497,0.12468c-0.50563,0.15586 -0.93517,1.13259 -1.55857,0.74342c-0.36949,-0.23067 -0.27855,-1.08815 -0.38997,-1.38997c-0.04607,-0.12481 -0.7508,0.42104 -1.23123,0.87318c0.01121,0.02841 0.01737,0.05936 0.01737,0.09175v0.33333h-0.03383c0.66162,2.78114 -2.43603,2.24435 -4.026,2.79273l-0.18948,0.09755c0,0 -0.22361,0.1118 -0.33541,-0.1118c-0.1118,-0.22361 0.1118,-0.33541 0.1118,-0.33541l0.25497,-0.12468c0.89615,-0.29053 1.98404,0.33828 2.83651,-0.19771c0.49432,-0.31081 0.61519,-1.12326 0.77866,-1.67545l-0.15734,-0.15734l0.02774,-0.02774l-0.02978,-0.0194c-0.00374,-0.00111 -0.00752,-0.0023 -0.01134,-0.00358c-0.23717,-0.07906 -0.15811,-0.31623 -0.15811,-0.31623c0.01456,-0.04141 0.03583,-0.08794 0.06304,-0.13845c-0.18493,-0.62472 -0.80131,-0.09556 -1.33598,-0.60572c-0.13142,-0.12539 -0.39168,-1.49119 -0.54733,-1.48902c-0.50565,0.00706 -1.08183,0.00088 -1.60923,0.00669c0,0 -0.25,0 -0.25,-0.25c0,-0.25 0.25,-0.25 0.25,-0.25c0.36956,0.0032 1.4134,-0.08036 1.7241,0.00669c0.72079,0.20194 0.41845,1.21083 0.78601,1.62209c0.3263,0.36511 0.99382,0.12761 1.31662,0.48747c0.58524,-0.69265 1.63265,-1.48928 2.15386,-0.90131c0.19193,0.21651 0.10602,0.99924 0.2767,1.2767c0.23995,0.39005 0.67608,-0.66024 1.1081,-0.81214l0.18948,-0.09755c0,0 0.22361,-0.1118 0.33541,0.1118z" fill="#ffffff" stroke="none" stroke-width="0.5"/><path d="M245.38889,188.97222c0.25,0 0.25,0.25 0.25,0.25l-0.01283,0.14317c0.29333,0.95162 0.77791,1.9228 1.11111,2.88889c0,0 0.00673,0.02019 0.01037,0.05076c0.69041,-0.36371 1.52804,-0.6182 2.24235,-1.3707l0.399,-0.07322c0,0 0.25,0 0.25,0.25c0,0.25 -0.25,0.25 -0.25,0.25l-0.04545,-0.07322c-1.51428,1.46076 -3.48233,0.86236 -3.48233,3.601c0,0 0,0.25 -0.25,0.25c-0.25,0 -0.25,-0.25 -0.25,-0.25c0,-1.32845 0.4068,-1.94098 0.99286,-2.34825c-0.0656,-0.05162 -0.09114,-0.12825 -0.09114,-0.12825c-0.33227,-1.0249 -0.75935,-1.88847 -1.11111,-2.88889l-0.01283,-0.30128c0,0 0,-0.25 0.25,-0.25z" fill="#ffffff" stroke="none" stroke-width="0.5"/><path d="M229.95455,195.86365v-27.54546h20.09091v27.54546z" fill="none" stroke="#704f39" stroke-width="1.5"/><path d="M227.07738,170.92512l2.92576,-9.37212l22.73606,7.09767l-2.92576,9.37212z" fill="#9a6d4e" stroke="#704f39" stroke-width="1.5"/></g></g></svg>