<svg version="1.1" xmlns="http://www.w3.org/2000/svg" xmlns:xlink="http://www.w3.org/1999/xlink" width="30.2063" height="15.83408" viewBox="0,0,30.2063,15.83408"><g transform="translate(-224.46675,-185.64945)"><g data-paper-data="{&quot;isPaintingLayer&quot;:true}" fill-rule="nonzero" stroke-linecap="butt" stroke-linejoin="miter" stroke-miterlimit="10" stroke-dasharray="" stroke-dashoffset="0" style="mix-blend-mode: normal"><path d="M228.09091,198.13638v-9.81818h23.81818v9.81818z" fill="#9a6d4e" stroke="#704f39" stroke-width="1.5"/><path d="M231.29317,198.21811l-1.26083,-7.07028l14.23006,-2.53762l1.26083,7.07028z" fill="#f17400" stroke="#c96100" stroke-width="1.5"/><path d="M235.65263,195.66263l2.41587,-6.76329l13.6122,4.86232l-2.41587,6.76329z" fill="#eae0b9" stroke="#dcd2ae" stroke-width="1.5"/><path d="M228.22428,190.53406l0.84338,-3.13344c1.28652,0.80159 2.82883,1.18163 4.20261,0.79408c0.32756,-0.09241 2.52999,-1.8066 2.58022,-1.79519c1.30869,0.29717 2.16709,1.70345 3.92902,1.40943c0.88075,-0.14697 1.77941,-1.29395 2.54533,-0.83495c1.10731,0.66359 2.47866,1.12767 3.96223,1.3795c0.04855,0.82371 0.07615,1.71394 0.56629,2.18205c1.67983,1.60433 3.93156,1.27034 5.86543,0.63504l-1.49486,5.55393z" fill="#9a6d4e" stroke="#704f39" stroke-width="1.5"/><path d="M225.14811,196.25463c-0.01474,0.02111 -0.02689,0.03325 -0.02689,0.03325c-0.49291,0.41396 0.11648,0.43326 0.24826,0.67705c0.15451,0.28582 -0.55939,0.712 -0.31254,0.92326c0.75938,0.6499 0.82504,-1.05101 0.31163,-1.56442c-0.0736,-0.02269 -0.14708,-0.04575 -0.22046,-0.06914zM224.6158,196.1274c-0.03247,-0.06329 -0.03247,-0.1274 -0.03247,-0.1274l0.32906,-0.34828c0.2404,0.08013 0.47999,0.16268 0.71904,0.24673c0.45384,0.45384 1.2368,2.64797 -0.17148,2.57055c-1.23098,-0.06768 -0.48539,-1.20511 -0.4961,-1.21171c-0.47605,-0.29333 -0.64836,-0.67409 -0.34806,-1.12989z" fill="#ffffff" stroke="none" stroke-width="0.5"/><path d="M230.07023,200.07883c-0.00017,0.00058 -0.00035,0.00116 -0.00052,0.00174c0.48546,0.32763 1.02921,0.00233 1.65113,0.02985c0.19993,0.00885 -0.39699,-0.05191 -0.59422,-0.08587c-0.32391,-0.05577 -0.72473,-0.03126 -1.05639,0.05428zM229.64864,199.86694l0.10564,-0.21523c0.47321,-0.15341 2.79951,-0.36796 2.41377,0.68231c-0.26175,0.71269 -2.26763,0.29629 -2.62261,-0.04614c0,0 -0.17678,-0.17678 0,-0.35355c0.03485,-0.03485 0.0697,-0.05596 0.10319,-0.06739z" fill="#ffffff" stroke="none" stroke-width="0.5"/><path d="M240.10853,199.41708c0.09712,0.02403 0.15504,0.11091 0.15504,0.11091c0.28116,0.42643 0.85734,0.53355 1.4136,0.57468c-0.47418,-0.60962 -0.38341,-1.7651 -1.33373,-0.81478zM239.89852,199.47174c-0.06224,-0.00813 -0.13009,-0.04253 -0.17768,-0.13772c-0.1118,-0.22361 0.1118,-0.33541 0.1118,-0.33541l0.15725,-0.06428c1.11796,-1.11796 2.3223,0.25004 2.32158,1.37616l0.01278,0.03833l0.19071,0.06357l-0.10929,0.32786c-0.03142,0.10216 -0.12653,0.17641 -0.23899,0.17641c-0.11246,0 -0.20758,-0.07426 -0.23899,-0.17641l-0.0634,-0.19019c-1.15258,0.35646 -1.22009,0.43479 -2.01673,-0.74472c0,0 -0.13021,-0.19531 0.05098,-0.3336z" fill="#ffffff" stroke="none" stroke-width="0.5"/><path d="M249.60208,199.35711c0.64969,0.1338 1.94456,0.47176 2.00029,0.325c0.55406,-1.45914 -1.67747,-0.41782 -1.95121,-0.32422c-0.01609,-0.00092 -0.0325,-0.00118 -0.04908,-0.00078zM249.17113,199.78264c-0.03089,0.01419 -0.06887,0.02292 -0.11557,0.02292c-0.25,0 -0.25,-0.25 -0.25,-0.25l0.07322,-0.399c0.18514,-0.16871 0.44202,-0.28205 0.69229,-0.29222c0.59351,-0.18889 0.76108,-0.74428 1.52454,-0.55556c0.50342,0.12444 1.51566,1.51368 0.61118,1.92219c-0.587,0.26512 -1.77243,-0.43264 -2.429,-0.42541c0,0 -0.05083,0 -0.10665,-0.02292z" fill="#ffffff" stroke="none" stroke-width="0.5"/><path d="M252.83264,199.1125c-0.22361,-0.1118 -0.1118,-0.33541 -0.1118,-0.33541l0.09755,-0.18948c0.65829,-1.87222 1.49021,-1.01997 1.71768,-0.18246c-0.16233,-0.15549 -0.43098,-0.37737 -0.59162,-0.37737c-0.17144,0 -0.32084,0.1285 -0.4353,0.28648c0.27017,0.18869 0.74842,-0.00544 1.04217,0.15084c0.16622,0.70064 -0.10596,1.34487 -1.27582,0.31585l-0.10745,0.21975c0,0 -0.1118,0.22361 -0.33541,0.1118zM254.63053,198.52049c-0.02447,-0.02213 -0.05098,-0.04038 -0.0792,-0.05539c-0.00473,-0.01995 -0.00982,-0.03994 -0.01525,-0.05995c0.12218,0.11703 0.18412,0.19645 0.09446,0.11534z" fill="#ffffff" stroke="none" stroke-width="0.5"/></g></g></svg>