<svg version="1.1" xmlns="http://www.w3.org/2000/svg" xmlns:xlink="http://www.w3.org/1999/xlink" width="45.22966" height="25.02251" viewBox="0,0,45.22966,25.02251"><g transform="translate(-238.27105,-165.93235)"><g data-paper-data="{&quot;isPaintingLayer&quot;:true}" fill-rule="nonzero" stroke="none" stroke-width="0.5" stroke-linecap="butt" stroke-linejoin="miter" stroke-miterlimit="10" stroke-dasharray="" stroke-dashoffset="0" style="mix-blend-mode: normal"><path d="M277.96217,180.16124c0.03997,-0.01117 0.06676,-0.01427 0.06676,-0.01427l0.42186,0.01815c0.01598,0.00724 0.03197,0.01431 0.04795,0.02124c0.58939,0.02683 1.17077,0.05015 1.73922,0.06414c0,0 0.20917,0.00552 0.34398,0.1491c0.51539,-0.0772 1.03598,-0.21955 1.56989,-0.35877c0.20118,-0.05246 0.4784,-1.11366 0.40552,-1.18223c-0.00593,-0.0056 -1.23266,0.00058 -1.3262,-0.01831c-2.40095,-0.06029 -4.74515,-0.45173 -7.13666,-0.58587c-1.42294,-0.07981 -3.03866,0.27581 -4.44043,-0.01748c-1.73479,0.22466 -3.6032,0.00618 -5.33664,-0.09105c-1.9131,-0.1073 -4.06664,0.31355 -5.97639,0.51577c-0.99686,-0.20857 -2.57147,-0.15505 -3.57059,0.05916c-0.3427,0.07347 -0.86953,1.22933 -0.64443,1.40762c0.21242,0.16826 0.5112,-0.23446 0.78193,-0.22251c1.21957,0.05384 2.60354,0.14182 3.81714,0.00103c0.93249,0.19511 1.81317,-0.0934 2.74575,-0.05223c2.83166,0.125 6.04411,-0.27371 8.82375,0.30789c2.41324,-0.27995 5.10141,-0.12423 7.66761,-0.00138zM278.28362,181.10789c-2.67438,-0.12781 -5.50468,-0.30409 -8.03148,-0.01097c-2.79539,-0.5849 -5.97601,-0.14817 -8.82375,-0.30789c-0.9275,-0.05202 -1.81181,0.24764 -2.74575,0.05223c-1.20559,0.13986 -2.60534,0.06694 -3.81714,-0.00103c-0.38185,-0.02142 -0.98225,0.28905 -1.32021,0.02134c-0.63412,-0.50229 -0.22677,-2.22251 0.25966,-2.68312c0.79485,-0.75264 3.56699,-0.66273 4.57851,-0.45108c3.81435,-0.49397 7.58956,-0.03045 11.31304,-0.42472c1.40366,0.29369 3.01201,-0.04557 4.44043,0.01748c2.41526,0.10663 4.78041,0.52477 7.20279,0.59123c0.51405,0.1118 1.51724,-0.10246 1.9083,0.3166c0.64092,0.68679 -0.05942,2.35118 -0.74432,2.67943c-1.23553,0.59214 -2.94881,0.68345 -4.22005,0.2005z" data-paper-data="{&quot;index&quot;:null}" fill="#704f39"/><path d="M278.06004,180.14905c0,0 -0.0268,0.00317 -0.06677,0.01433c-2.5662,-0.12285 -5.25599,-0.27061 -7.66922,0.00934c-2.77964,-0.5816 -6.0527,-0.19136 -8.88437,-0.31637c-0.93258,-0.04116 -1.81329,0.24704 -2.74577,0.05193c-1.2136,0.14079 -2.53526,0.05051 -3.75484,-0.00333c-0.27073,-0.01195 -0.63181,0.39314 -0.84423,0.22488c-0.22509,-0.1783 0.30176,-1.33732 0.64446,-1.4108c0.99911,-0.2142 2.57378,-0.26853 3.57064,-0.05995c1.90976,-0.20222 4.06481,-0.63038 5.9779,-0.52309c1.73344,0.09723 3.65398,0.30408 5.38877,0.07943c1.40177,0.2933 3.02542,-0.04736 4.44835,0.03245c2.39151,0.13413 4.73637,0.53055 7.13732,0.59084c0.09354,0.01889 1.32026,0.01291 1.32622,0.0185c0.07289,0.06858 -0.20433,1.1324 -0.40551,1.18485c-0.53392,0.13921 -1.05457,0.28262 -1.56996,0.35985c-0.13481,-0.14357 -0.34395,-0.14942 -0.34395,-0.14942c-0.56844,-0.014 -1.14982,-0.03717 -1.73922,-0.064c-0.01597,-0.00693 -0.09417,-0.01821 -0.11016,-0.02544l-0.35964,-0.01398z" data-paper-data="{&quot;noHover&quot;:false,&quot;origItem&quot;:[&quot;Path&quot;,{&quot;applyMatrix&quot;:true,&quot;segments&quot;:[[[242.54591,170.80006],[0.05383,-0.03914],[-2.40109,3.34861]],[[234.90843,180.43854],[2.75517,-2.75517],[-2.0369,4.0738]],[[226.50843,191.83854],[2.66275,-3.68452],[-0.87695,1.21345]],[[223.70843,195.23854],[0.68331,-1.36663],[-1.38556,1.38556]],[[219.90843,200.03854],[1.14682,-1.58688],[-0.25458,0.35226]],[[218.85,200.8],[0,-0.43463],[0,0.46053]],[[221.26147,201.39157],[-0.43366,0.35769],[1.26427,-1.04278]],[[224.89157,196.96147],[-0.73049,1.46098],[2.15606,-2.1996]],[[231.49157,189.96147],[-1.77024,2.51202],[1.604,-2.27613]],[[236.69157,183.16147],[-2.01003,1.95729],[1.02721,-2.05441]],[[241.09157,177.56147],[-1.31668,1.86841],[2.21293,-3.14022]],[[247.46201,168.0057],[-2.31518,3.07855],[0.0694,-0.13641]],[[248.75969,166.32014],[0.00111,0.01306],[-0.01363,-0.15992]],[[246.86953,165.65265],[0.2663,-0.20069],[-0.70673,0.53261]],[[244.8551,167.26907],[0.61032,-0.57107],[0.04626,0.31246]],[[244.7,167.85],[0,0],[-0.54849,0.7286]],[[243.04865,170.10045],[0.55321,-0.76772],[-0.0072,0.02699]],[[243.02761,170.1819],[0.00682,-0.02731],[0,0]],[242.63033,170.73033]],&quot;closed&quot;:true}],&quot;index&quot;:null}" fill="#9a6d4e"/><path d="M280.17101,176.16386c-0.30074,-0.78017 -0.13448,-1.4052 -0.22444,-2.21846c-0.10775,-0.9741 -0.45367,-2.37863 -1.01741,-3.66447c1.51167,1.86804 2.71809,3.58909 1.97935,6.39231c-0.30627,-0.00646 -0.58377,-0.0155 -0.74513,-0.05963c-0.02495,-0.00009 -0.05635,-0.06198 -0.08086,-0.06171z" data-paper-data="{&quot;noHover&quot;:false,&quot;origItem&quot;:[&quot;Path&quot;,{&quot;applyMatrix&quot;:true,&quot;segments&quot;:[[[499.66049,342.30794],[0,0],[1.54544,2.19205]],[[505.20098,346.83999],[-2.00917,-1.68867],[2.40653,2.02265]],[[513.14928,356.09253],[-2.42581,-3.79434],[-2.29025,-7.36018]],[[499.74897,339.58069],[8.79372,3.02298],[-0.52837,0.8285]],[[498.59747,341.65903],[0.16968,-0.50904],[-0.04421,0.06671]],[[498.46458,341.85644],[0.04439,-0.0649],[0,0]]],&quot;closed&quot;:true}],&quot;index&quot;:null}" fill="#d3d3d3"/><path d="M276.32321,190.02397c-0.52261,-0.14724 -1.33967,-0.43418 -1.6757,-0.76848c-0.05559,-0.05531 1.40111,-1.56395 1.59165,-1.71191c0.87847,-0.68214 1.41788,-1.82632 2.03347,-2.74816c0.33659,-0.50404 1.44355,-2.2628 1.22167,-2.88924c-0.11534,-0.32565 -0.35885,-0.65991 -0.69077,-0.75569c-0.12731,-0.03674 -0.32446,0.05209 -0.49114,0.17134c0.04615,-0.49386 -0.01617,-1.31595 -0.00062,-1.43612c0.18746,-1.44747 0.07717,-2.40043 1.73239,-2.40593c0.11099,0.03036 1.00087,0.18219 1.49768,0.13312c-0.07348,0.14965 -0.12751,0.32246 -0.12352,0.43183c0.02366,0.64839 0.18487,1.30061 0.09389,2.03085c-0.10989,0.88201 -0.51914,0.69643 -0.96242,1.36022c-0.66492,0.99569 -0.14044,2.57888 -0.8183,3.52192c-0.52144,1.90612 -1.70613,3.67611 -3.2682,4.8891z" data-paper-data="{&quot;noHover&quot;:false,&quot;origItem&quot;:[&quot;Path&quot;,{&quot;applyMatrix&quot;:true,&quot;segments&quot;:[[[456.00275,327.98003],[0,0],[-0.53821,1.65636]],[[455.07251,333.79221],[-0.29314,-1.49187],[0.0485,0.24682]],[[462.27566,332.57698],[-0.73412,0.24471],[3.38454,-1.12818]],[[473.25,332],[-3.55565,0],[1.94416,0]],[[483.31066,333.93934],[-1.2758,-1.70778],[0.66323,0.88779]],[[484.09164,337.17082],[0.33579,-1.05607],[-0.12879,0.40505]],[[482.75168,338.19383],[0.615,-0.2322],[1.3996,0.75665]],[[486.40903,340.65253],[-0.34824,-0.17253],[4.19514,2.07845]],[[495.90253,340.34097],[-2.96326,4.40562],[0.11672,-0.35016]],[[498.21158,336.13014],[-1.01589,1.23783],[-0.53009,-0.07057]],[[496.83951,335.69206],[0.28466,0.2055],[-1.68748,-1.21818]],[[491.59097,331.84747],[2.11003,1.05814],[-2.54857,-1.27805]],[[486.25,332],[2.56038,0],[-3.84057,0]],[[475.50973,327.98063],[3.72311,-0.1283],[-6.0136,-2.00453]],[[456.72434,327.92302],[6.01838,-2.00613],[0,0]]],&quot;closed&quot;:true}],&quot;index&quot;:null}" fill="#d3d3d3"/><path d="M275.39378,167.09068l-0.01473,0.01472l-0.36827,-0.36885c-0.15996,-0.15402 -0.19174,-0.40507 -0.06409,-0.59623c0.14343,-0.21477 0.43381,-0.27261 0.64858,-0.12919l0.08805,0.0588c0.25122,-0.03607 0.42499,0.1877 0.42499,0.1877l0.15376,0.20357c0.95913,0.3757 1.85941,0.99645 2.37858,1.8825c0.23019,0.39286 0.50924,1.38884 -0.12074,1.70021c-0.75671,0.37401 -1.91972,-1.57487 -2.59601,-2.51664c-0.14997,-0.13238 -0.31771,-0.26199 -0.51069,-0.39087z" data-paper-data="{&quot;index&quot;:null}" fill="#b3b3b3"/><path d="M281.53262,177.55129c0.45862,-0.09135 0.54997,0.36726 0.54997,0.36726l0.08503,0.62043c-0.29625,1.37958 -1.6717,3.07696 -1.5799,4.37644c-0.47441,2.31928 -1.56473,3.9576 -2.84862,5.87068c-0.26496,0.39481 -0.57569,1.42852 -1.07678,1.55292c-0.18509,0.04595 -1.41706,-0.61006 -1.68146,-0.71917c0,0 -0.43226,-0.17838 -0.25388,-0.61065c0.17838,-0.43226 0.61065,-0.25388 0.61065,-0.25388c0.42873,0.17693 0.81926,0.48694 1.14197,0.66646c0.20511,0.1141 0.05875,-0.47645 0.16946,-0.6834c0.01378,-0.02576 0.56951,-0.85713 0.60081,-0.90378c1.08904,-1.62342 1.97367,-3.02718 2.40534,-4.99093c-0.05929,-1.43537 1.28994,-3.01565 1.59736,-4.49809l-0.08722,-0.24435c0,0 -0.09135,-0.45862 0.36726,-0.54997z" data-paper-data="{&quot;index&quot;:null}" fill="#e4e4e4"/><path d="M282.43199,180.37616c-0.05691,0.3725 -0.16502,0.71845 -0.34948,0.99468c-0.15152,0.22688 -0.62714,0.37775 -0.77865,0.60464c-0.60317,0.90325 -0.14605,2.39965 -0.74427,3.34909c-0.55884,2.04279 -1.84231,3.93217 -3.51471,5.23083l0.01551,0.01998c0,0 -0.1218,0.18241 -0.3235,0.21394c-0.17533,0.23661 -0.49154,0.1501 -0.49154,0.1501c-0.56106,-0.15991 -2.17093,-0.66147 -2.40664,-1.26994c-0.33213,-0.85738 0.2276,-1.26815 0.71966,-1.79219c1.10136,-1.17293 2.02332,-2.19867 2.93923,-3.57024c0.38893,-0.58239 0.46585,-1.03924 0.74296,-1.66303c0.02154,-0.04847 0.0543,-0.11448 0.09261,-0.18601c-0.27761,0.10466 -0.63219,0.10434 -0.74767,0.03336c-0.34722,-0.21343 -0.20829,-1.68487 -0.20662,-2.07531c0.00752,-1.76214 0.23683,-3.25909 1.73334,-3.7011c-0.00052,-0.08033 0.01542,-0.13855 0.01542,-0.13855l0.11444,-0.32239c-0.73965,-1.62849 -0.17505,-3.602 -1.14369,-5.28586c-0.35315,-0.61391 -1.32481,-1.9737 -1.50031,-2.81892c-0.07058,-0.04723 -0.14117,-0.09444 -0.21179,-0.14161l-0.38889,-0.25969c-0.21477,-0.14343 -0.27261,-0.43381 -0.12919,-0.64858c0.14343,-0.21477 0.43381,-0.27261 0.64858,-0.12919l0.38889,0.25969c0.53933,0.36015 1.07921,0.71927 1.61449,1.08541c2.1308,2.744 4.15721,4.65756 3.32719,8.36421c0.3826,0.03395 0.70585,0.10717 0.82383,0.27763c0.20249,0.29257 0.20091,0.44697 0.12152,0.5491c-0.01051,0.06934 -0.02988,0.11628 -0.02988,0.11628c-0.31628,0.71103 -0.24057,1.61128 -0.19794,2.3898zM280.08547,176.58292c0.02452,-0.00027 0.04924,-0.00035 0.0742,-0.00027c0.16136,0.04413 0.43192,0.05484 0.73819,0.06129c0.73874,-2.80322 -0.44915,-4.46482 -1.96082,-6.33286c0.56374,1.28584 0.91496,2.68847 1.0227,3.66256c0.08995,0.81325 -0.085,1.44089 0.21574,2.22106zM276.47127,189.81674c1.56207,-1.21299 2.71595,-2.97412 3.23739,-4.88024c0.67785,-0.94304 0.15249,-2.48469 0.81742,-3.48039c0.44328,-0.6638 0.85434,-0.47627 0.96423,-1.35828c0.09098,-0.73025 -0.06439,-1.37795 -0.08805,-2.02635c-0.00398,-0.10937 0.0505,-0.28191 0.12398,-0.43156c-0.49681,0.04907 -1.38047,-0.10003 -1.49146,-0.13038c-1.65522,0.0055 -1.53693,0.95986 -1.72438,2.40733c-0.01556,0.12015 0.05039,0.88002 0.00424,1.37387c0.16668,-0.11925 0.3699,-0.20703 0.49721,-0.17029c0.33195,0.09577 0.58723,0.43629 0.70259,0.76194c0.22189,0.62644 -0.90242,2.44004 -1.23902,2.94407c-0.61559,0.92183 -1.17112,2.06314 -2.04959,2.74529c-0.19054,0.14796 -1.61773,1.60178 -1.56214,1.65708c0.33603,0.33429 1.14531,0.61786 1.66792,0.76509z" data-paper-data="{&quot;index&quot;:null}" fill="#b3b3b3"/><path d="M240.14864,183.0913c-0.25521,0 -0.48064,-0.12747 -0.61611,-0.32221l-0.44874,-0.62823l0.02209,-0.01578l-0.05432,-0.0333c-0.98855,-1.97025 -1.30292,-3.74236 0.66115,-5.17897c0,0 0.16617,-0.1187 0.38704,-0.1455c0.09755,-0.12753 0.2558,-0.23392 0.51152,-0.26234c0.15288,-0.01699 0.27789,0.00087 0.38003,0.03998c0.10281,-0.07208 0.22453,-0.11902 0.35624,-0.13189l0.80919,-0.08991l0.00213,0.01921l0.03921,-0.02265c0.23186,0 0.46372,0 0.69558,0c0.61364,-0.15423 1.49513,-0.0009 2.16407,-0.00115c1.04603,-0.00039 2.03696,0.09887 3.00696,0.24051c0.12583,-0.16816 0.29399,-0.25224 0.29399,-0.25224l0.4344,-0.1655c2.06345,-0.2265 3.86448,-0.06835 5.15301,1.22068l0.18742,-0.18742l0.54545,0.54545v0c0.07967,0.07967 0.14149,0.17717 0.17897,0.28601c0.40958,0.18061 0.73106,0.46264 0.84452,0.91646c0.48087,1.92344 -3.86375,3.37312 -5.0308,3.76213c-2.40739,0.89701 -5.02485,0.81756 -7.5645,0.67822c-0.74856,-0.04107 -1.82629,0.04724 -2.53548,-0.40219c-0.12042,0.08241 -0.2661,0.13061 -0.42304,0.13061z" fill="#0060b9"/><path d="M239.86923,182.58542c0.25619,-0.70489 0.96108,-0.4487 0.96108,-0.4487l0.66084,0.2408c3.84556,1.23004 6.97889,0.53304 10.65995,-0.98985c0.65466,-0.27084 3.79063,-2.60406 2.61346,-3.04107c-2.7393,-1.66877 -6.18384,-1.16877 -9.28211,-1.18633c-1.62498,-0.00921 -3.15947,-0.31879 -4.72945,0.2536c0,0 -0.70599,0.25314 -0.95913,-0.45285c-0.25314,-0.70599 0.45285,-0.95913 0.45285,-0.95913c1.7705,-0.62606 3.42907,-0.35152 5.25282,-0.34153c3.46096,0.01897 7.04289,-0.4129 10.10892,1.44614c1.92298,1.7607 -0.04398,4.09919 -1.90123,5.22978c-3.79493,2.31017 -8.53548,2.78957 -12.67246,1.47012l-0.71685,-0.25991c0,0 -0.70489,-0.25619 -0.4487,-0.96107z" fill="#00488c"/></g></g></svg>