<svg version="1.1" xmlns="http://www.w3.org/2000/svg" xmlns:xlink="http://www.w3.org/1999/xlink" width="52.75" height="52.75" viewBox="0,0,52.75,52.75"><defs><linearGradient x1="227.33278" y1="189.18164" x2="227.33278" y2="194.27005" gradientUnits="userSpaceOnUse" id="color-1"><stop offset="0" stop-color="#4d3b2e"/><stop offset="1" stop-color="#271e17"/></linearGradient></defs><g transform="translate(-213.625,-153.625)"><g data-paper-data="{&quot;isPaintingLayer&quot;:true}" fill-rule="nonzero" stroke-linejoin="miter" stroke-miterlimit="10" stroke-dasharray="" stroke-dashoffset="0" style="mix-blend-mode: normal"><path d="M214.875,205.125v-50.25h50.25v50.25z" fill="#7f7f7f" stroke="#5e5e5e" stroke-width="2.5" stroke-linecap="butt"/><path d="M226.69735,189.31352l0.1089,-0.00012c0.59532,-0.00074 1.1062,0.03241 1.65973,0.24078c1.09877,0.5757 3.84841,1.78625 3.08568,3.31233c-0.14144,0.283 -0.4441,0.54128 -0.67957,0.75127c-0.2699,0.24069 -0.48069,0.33839 -0.83392,0.43616c-1.28111,0.36485 -2.75043,0.19338 -4.05381,0.02563c-1.21991,-0.15701 -2.30589,-0.26453 -2.96679,-1.35649c-0.32364,-1.60451 1.62963,-3.41708 3.3825,-3.54143c0.10398,0.13222 0.29729,0.13188 0.29729,0.13188z" data-paper-data="{&quot;noHover&quot;:false,&quot;origItem&quot;:[&quot;Path&quot;,{&quot;applyMatrix&quot;:true,&quot;segments&quot;:[[[236.73193,174.2664],[0.35994,0.48491],[-6.06787,0.456]],[[225.05501,187.19505],[-1.12034,-5.88437],[2.28781,4.00464]],[[235.30031,192.13772],[-4.22296,-0.57581],[4.5119,0.6152]],[[249.27257,192.05402],[-4.43481,1.33806],[1.22278,-0.35859]],[[252.15278,190.4635],[-0.93429,0.88269],[0.8151,-0.77009]],[[254.50067,187.71919],[-0.48963,1.03786],[2.64034,-5.59671]],[[243.84504,175.63021],[3.80362,2.11133],[-1.91613,-0.76414]],[[238.13176,174.75131],[2.06079,-0.00269],[0,0]],[237.75676,174.75131]],&quot;closed&quot;:true}]}" fill="url(#color-1)" stroke="#937257" stroke-width="1.5" stroke-linecap="butt"/><path d="M229.6336,195.98246l8.76239,-18.15945l2.5716,1.24086l-8.76239,18.15945z" fill="#999999" stroke="#7d7d7d" stroke-width="1.5" stroke-linecap="butt"/><path d="M228.3487,198.51618v-2.28426h5.42513v2.28426z" fill="#999999" stroke="#7d7d7d" stroke-width="1.5" stroke-linecap="butt"/><path d="M227.20657,181.09867l-0.14277,11.56409" fill="none" stroke="#2b2b2b" stroke-width="1.5" stroke-linecap="round"/><path d="M255.09745,187.28001l-0.11808,9.56489" fill="none" stroke="#2b2b2b" stroke-width="1.5" stroke-linecap="round"/><path d="M252.41292,195.93843l-12.0459,-16.16915l2.28975,-1.70585l12.0459,16.16915z" fill="#999999" stroke="#7d7d7d" stroke-width="2" stroke-linecap="butt"/><path d="M235.17302,176.17415l2.24883,-3.13072l19.59602,14.07601l-2.24883,3.13072z" fill="#707070" stroke="#5a5a5a" stroke-width="1.5" stroke-linecap="butt"/><path d="M232.55219,174.83818c0.3284,-0.04356 0.61427,-0.14023 0.86237,-0.28188c0.03127,-0.15665 0.03994,-0.32135 0.0228,-0.49489c-0.00035,-0.00354 -0.00072,-0.00706 -0.0011,-0.01057c-0.36351,-0.29868 -0.71688,-0.62272 -1.03548,-0.95079c-0.76204,-0.23347 -1.76733,-0.30335 -2.38972,-0.6895l-0.06032,-0.09681l-0.02495,0.0291l-0.41439,-0.35519c-0.28707,0.57974 -0.53521,1.179 -0.74581,1.79584l1.43629,0.15959l-0.0367,0.33031c0.62498,-0.02083 1.24139,0.04032 1.82789,0.23278zM227.89488,178.23552l0.00496,-0.00248c0.34479,-0.31809 0.99074,-0.60511 1.72342,-0.91311c-0.10032,-0.02971 -0.20137,-0.06139 -0.30315,-0.09504l-0.07384,-0.08246l-0.01985,0.0397l-1.15009,-0.57505c-0.08312,0.53364 -0.14336,1.07678 -0.18145,1.62844zM234.8893,171.12883c0.04634,-0.89143 -0.01153,-1.85058 -0.10881,-2.76727l-0.00052,0.00033l-0.81725,-1.3076c-0.04612,-0.07117 -0.08617,-0.14663 -0.11943,-0.22566c-0.99649,0.74508 -1.85842,1.57047 -2.59338,2.46571c0.78051,0.01461 1.52518,0.18193 2.13856,0.61028c0.02218,0.01549 0.81167,0.59829 1.50083,1.22421zM224.94157,179.69745c0,-6.82527 2.97442,-13.22836 9.22757,-16.53779c1.15212,-0.60975 4.61355,-2.24343 5.8738,-1.4737c2.14281,1.30877 1.22601,4.5168 0.4602,6.13041c-1.77039,5.33383 -4.22411,10.63149 -9.60495,13.06889l-0.07606,-0.00681l0.01018,0.03055l-1.46025,0.48675c-0.15343,0.05516 -0.31884,0.08522 -0.49127,0.08522c-0.15448,0 -0.30333,-0.02413 -0.44297,-0.06882l-0.86973,0.19327c-0.11074,0.02703 -0.22646,0.04137 -0.34552,0.04137c-0.44598,0 -0.845,-0.20109 -1.11133,-0.51754c-1.16966,-0.17476 -1.16966,-1.4318 -1.16966,-1.4318zM237.3865,166.62348c0.08476,0.16951 0.18578,0.33205 0.29643,0.49031c0.0463,-0.13678 0.09211,-0.27303 0.1375,-0.40864c0.0279,-0.05209 0.86701,-2.49497 0.79184,-2.49237c-0.46163,0.016 -1.4421,0.51503 -2.37269,1.05828c0.01747,0.01857 0.03446,0.03759 0.05094,0.05706l0.98879,1.15359l-0.06515,0.05584z" fill="#707070" stroke="#5a5a5a" stroke-width="1.5" stroke-linecap="butt"/><path d="M249.76367,198.23065v-3.56916h5.85343v3.56916z" fill="#999999" stroke="#7d7d7d" stroke-width="1.5" stroke-linecap="butt"/></g></g></svg>