<svg version="1.1" xmlns="http://www.w3.org/2000/svg" xmlns:xlink="http://www.w3.org/1999/xlink" width="213.01188" height="314" viewBox="0,0,213.01188,314"><defs><linearGradient x1="240" y1="130.625" x2="240" y2="266.375" gradientUnits="userSpaceOnUse" id="color-1"><stop offset="0" stop-color="#3e3e3e"/><stop offset="1" stop-color="#1c1c1c"/></linearGradient><linearGradient x1="194.35629" y1="205.97614" x2="194.35629" y2="228.2754" gradientUnits="userSpaceOnUse" id="color-2"><stop offset="0" stop-color="#636363"/><stop offset="1" stop-color="#5b5b5b"/></linearGradient><linearGradient x1="255" y1="198.25" x2="255" y2="230.75" gradientUnits="userSpaceOnUse" id="color-3"><stop offset="0" stop-color="#636363"/><stop offset="1" stop-color="#5b5b5b"/></linearGradient><linearGradient x1="237.84991" y1="233.08092" x2="237.84991" y2="270.79178" gradientUnits="userSpaceOnUse" id="color-4"><stop offset="0" stop-color="#5b5b5b"/><stop offset="1" stop-color="#616161"/></linearGradient></defs><g transform="translate(-133.49406,-12.5)"><g data-paper-data="{&quot;isPaintingLayer&quot;:true}" fill-rule="nonzero" stroke-linecap="butt" stroke-linejoin="miter" stroke-miterlimit="10" stroke-dasharray="" stroke-dashoffset="0" style="mix-blend-mode: normal"><path d="M134.74406,325.24999v-311.49999h210.51188v311.5z" fill="#9b9b9b" stroke="#5e5e5e" stroke-width="2.5"/><text transform="translate(195.48194,51.5524) scale(0.7584,0.7584)" font-size="40" xml:space="preserve" fill="#ffffff" fill-rule="nonzero" stroke="none" stroke-width="1" stroke-linecap="butt" stroke-linejoin="miter" stroke-miterlimit="10" stroke-dasharray="" stroke-dashoffset="0" font-family="Sans Serif" font-weight="normal" text-anchor="start" style="mix-blend-mode: normal"><tspan x="0" dy="0">ANVIL</tspan></text><path d="M165.113,266.375v-135.75h149.774v135.75z" fill="url(#color-1)" stroke="#5e5e5e" stroke-width="2.5"/><path d="M267.37183,241.94092c0.64404,-0.93159 1.34192,-1.88831 1.54165,-2.67809c0,0 0.23717,-0.71151 0.94868,-0.47434c0.71151,0.23717 0.47434,0.94868 0.47434,0.94868c-1.68795,4.47096 -4.46151,7.74072 -4.46151,13.01283c0,5.45609 -0.23564,10.42136 1.46151,15.51283c0.49983,2.48124 -2.21982,2.41556 -4.09138,2.72749c-4.30208,0.71701 -8.69712,1.25968 -13.12014,1.25968c-6.7906,0 -13.56168,-1.05709 -20.25,-1c-5.88057,0 -11.75537,-0.49104 -17.62014,-0.50968c-1.61366,-0.53789 -3.67172,-0.24032 -5.37986,-0.24032h-0.75c-0.41421,0 -0.75,-0.33579 -0.75,-0.75c0,-0.33738 0.22277,-0.62273 0.52924,-0.71698l0.62978,-0.20993c3.59242,-3.32732 7.85066,-7.89599 7.85066,-12.94323c0.81685,-2.45055 0.13176,-7.21199 -1.79001,-9.09953c-1.93297,-1.89853 -4.59138,-3.15638 -2.59371,-6.19636c3.09096,-4.63644 8.03803,-6.78166 13.5324,-7.57836c1.30368,-0.18903 2.70965,-0.07532 3.9715,-0.49593c5.40869,-0.03823 13.32601,-2.25897 18.19965,0.81658c5.65296,1.84432 10.75907,5.32936 16.40766,7.21222c1.38608,0.46203 2.80411,0.98394 4.26283,0.96151l0.83541,0.32918c0,0 0.0745,0.03725 0.16142,0.11174zM266.5742,243.18602c-0.02223,-0.00901 -0.03461,-0.0152 -0.03461,-0.0152l-0.16459,-0.17082c-1.64204,-0.01828 -3.17592,-0.51807 -4.73717,-1.03849c-5.7214,-1.90713 -10.88701,-5.34996 -16.59234,-7.28778c-4.26872,-3.05128 -12.43279,-0.6417 -17.30035,-0.68342c-1.27515,0.42505 -2.70923,0.31863 -4.0285,0.50407c-5.07103,0.71276 -9.62835,2.66278 -12.4676,6.92164c-1.55976,2.2982 1.813,3.40229 3,5.16795c1.63633,2.43405 2.56059,6.70321 1.61628,9.53616c0,3.84994 -2.88031,7.85767 -5.16031,10.60535c-0.33085,0.39871 -1.03417,1.42075 -1.77174,2.2105c1.23301,-0.04152 2.4907,-0.03337 3.56187,0.32369c5.77978,-0.01923 11.58237,0.49032 17.37986,0.49032c6.71427,0.04483 13.44071,1 20.25,1c3.60292,0 7.13153,-0.40726 10.62986,-0.99032c0.92534,-0.15422 5.43007,-0.73242 5.15862,-1.02251c-1.75429,-5.26286 -1.53849,-10.37331 -1.53849,-15.98717c0,-3.08346 0.71434,-6.57664 2.07626,-9.32951c0.03815,-0.07712 0.07927,-0.15532 0.12293,-0.23446z" fill="#353535" stroke="none" stroke-width="0.5"/><path d="M214.63469,224.37987c0.27976,-1.67034 -0.25,-3.38537 -0.25,-5.00973c-1.53874,-4.40318 -2.83871,-8.93495 -4.29953,-13.36514c-2.30842,0.07969 -4.01409,1.08991 -6.34002,1.48532c-2.46492,0.41904 -5.25283,0.9259 -7.63297,1.72119c-5.2197,1.73599 -10.68942,2.9798 -16,4.75c-0.95537,0.31846 -3.56225,0.94416 -4.14114,1.74373c-0.72818,1.00579 -1.99761,3.32508 -1.97251,5.11093c0.12647,0.2049 0.12647,0.43383 0.12647,0.43383l-0.01779,0.34072c0.0761,0.25939 0.19467,0.49679 0.36382,0.70404c0.84902,1.04017 2.63661,1.55026 3.73348,2.28151c4.88311,1.6277 10.19074,2.75414 15.42049,2.67373c5.2764,0 10.43004,0.5 15.75,0.5c1.21411,0 2.66269,-0.17853 3.73241,0.49989c0.52165,-1.26961 1.2955,-2.48622 1.52728,-3.87002zM211.33651,205.01283c1.5592,4.67761 3.01748,9.41707 4.52881,14.11703c0,1.78466 0.55456,3.65633 0.25,5.49027c-0.27527,1.65758 -1.28092,3.07415 -1.77881,4.61703l-0.27044,0.14425c0.81411,1.81552 1.08461,5.8426 0.15496,7.07383c-1.18185,1.56525 -4.05916,2.02487 -5.84603,2.04476c-5.40584,0 -10.58683,-1.50968 -15.87014,-1.50968c-4.25526,-1.41842 -8.83147,-2.00263 -12.95938,-4.06658c-1.15707,-0.57854 -2.18204,-0.80297 -2.95082,-1.89341c-2.55232,-1.70155 -4.83588,-6.31397 -3.97666,-9.36656c-0.40993,-2.3085 0.92786,-5.40658 2.16096,-6.86901c0.9259,-1.0981 3.52429,-1.81141 4.85886,-2.25627c5.30676,-1.76892 10.78693,-3.00811 16,-4.75c2.44182,-0.81211 5.33524,-1.36635 7.86703,-1.77881c2.49719,-0.40681 4.29074,-1.50968 6.87014,-1.50968c0,0 0.0444,0 0.1116,0.01081c0.63486,-0.14311 0.84991,0.50203 0.84991,0.50203zM173.94802,223.86283c0.31401,2.33333 2.1111,5.04271 3.70731,6.10685c0.822,1.32379 3.21398,2.0712 4.70684,2.56882c3.43242,1.14414 7.05018,1.86026 10.38297,2.97119c5.20316,0 10.30641,1.49032 15.62986,1.49032c1.36828,0.02104 3.6578,-0.3553 4.65397,-1.45524c0.68485,-0.75619 0.06401,-5.09715 -0.5,-5.83951c-0.59805,-0.78717 -2.34374,-0.45524 -3.15397,-0.45524c-5.31939,0 -10.47611,-0.5 -15.75,-0.5c-5.5303,-0.06155 -10.89547,-1.09825 -16.07951,-2.82627c-1.04403,-0.69602 -2.53673,-1.21949 -3.59746,-2.06091z" fill="#353535" stroke="none" stroke-width="0.5"/><path d="M177.59364,225.93723c5.18404,1.72801 10.50064,2.70122 16.03095,2.76277c5.27389,0 10.48089,0.54626 15.80028,0.54626c0.81023,0 2.55603,-0.3301 3.15408,0.45707c0.56401,0.74236 1.18323,5.09799 0.49838,5.85418c-0.99617,1.09994 -3.28836,1.48389 -4.65664,1.46285c-5.32345,0 -10.48104,-1.46143 -15.6842,-1.46143c-3.33279,-1.11093 -6.99103,-1.86711 -10.42345,-3.01125c-1.49286,-0.49762 -3.88567,-1.25565 -4.70767,-2.57945c-1.5962,-1.06413 -3.39075,-3.7879 -3.70476,-6.12122c1.06073,0.84142 2.64902,1.3942 3.69305,2.09023z" data-paper-data="{&quot;noHover&quot;:false,&quot;origItem&quot;:[&quot;Path&quot;,{&quot;applyMatrix&quot;:true,&quot;segments&quot;:[[[347.89604,447.72565],[2.12147,1.68285],[0.62802,4.66665]],[[355.31066,459.93934],[-3.19241,-2.12827],[1.64401,2.64759]],[[364.72434,465.07698],[-2.98573,-0.99524],[6.86485,2.28828]],[[385.49027,471.01937],[-6.66558,-2.22186],[10.40632,0]],[[416.75,474],[-10.64691,0],[2.73657,0.04208]],[[426.05794,471.08951],[-1.99234,2.19988],[1.3697,-1.51238]],[[425.05794,459.41049],[1.12801,1.48472],[-1.19609,-1.57434]],[[418.75,458.5],[1.62045,0],[-10.63877,0]],[[387.25,457.5],[10.54778,0],[-11.0606,-0.1231]],[[355.09097,451.84747],[10.36808,3.45603],[-2.08806,-1.39204]]],&quot;closed&quot;:true}]}" fill="#5b5b5b" stroke="none" stroke-width="0.5"/><path d="M213.15041,228.2754c-1.06972,-0.67842 -2.52048,-0.49652 -3.73459,-0.49652c-5.31996,0 -10.51802,-0.47901 -15.79442,-0.47901c-5.22975,0.08041 -10.57918,-1.07497 -15.46229,-2.70267c-1.09688,-0.73125 -2.88746,-1.2497 -3.73647,-2.28987c-0.16915,-0.20724 -0.28815,-0.44646 -0.36425,-0.70585l0.01762,-0.3415c0,0 -0.00021,-0.23 -0.12668,-0.4349c-0.0251,-1.78585 1.24367,-4.11791 1.97186,-5.1237c0.57889,-0.79958 3.18681,-1.43227 4.14218,-1.75073c5.31058,-1.7702 10.83994,-3.05197 16.05964,-4.78796c2.38013,-0.7953 5.19211,-1.28916 7.65703,-1.7082c2.32593,-0.39541 4.03753,-1.39868 6.34595,-1.47836c1.46082,4.43018 2.76966,8.99639 4.3084,13.39956c0,1.62436 0.52716,3.35066 0.24739,5.021c-0.23177,1.3838 -1.00971,2.60908 -1.53136,3.8787z" data-paper-data="{&quot;noHover&quot;:false,&quot;origItem&quot;:[&quot;Path&quot;,{&quot;applyMatrix&quot;:true,&quot;segments&quot;:[[[429.26937,448.75973],[-0.46355,2.76761],[0.55953,-3.34069]],[[428.76937,438.74027],[0,3.24872],[-3.07748,-8.80636]],[[420.17031,412.01],[2.92164,8.86037],[-4.61685,0.15937]],[[407.49027,414.98063],[4.65185,-0.79082],[-4.92984,0.83808]],[[392.22434,418.42302],[4.76027,-1.59059],[-10.43939,3.47198]],[[360.22434,427.92302],[10.62116,-3.54039],[-1.91073,0.63691]],[[351.94206,431.41049],[1.15778,-1.59915],[-1.45637,2.01158]],[[347.99705,441.63235],[-0.0502,-3.5717],[0.25295,0.4098]],[348.25,442.5],[[348.21442,443.18144],[0,0],[0.1522,0.51878]],[[348.94206,444.58951],[-0.33831,-0.41448],[1.69803,2.08034]],[[356.40903,449.15253],[-2.19375,-1.4625],[9.76622,3.25541]],[[387.25,454.5],[-10.45949,0.16082],[10.5528,0]],[[418.75,455.5],[-10.63992,0],[2.42823,0]],[[426.21481,456.49978],[-2.13943,-1.35683],[1.04329,-2.53923]]],&quot;closed&quot;:true}]}" fill="url(#color-2)" stroke="none" stroke-width="0.5"/><path d="M209.875,243.5v-32.5h90.25v20.07336c-10.46409,-1.03072 -25.91665,0.37637 -30.63525,8.08647c-0.91501,1.49511 -1.65054,2.92723 -2.21251,4.34017z" fill="#5b5b5b" stroke="#353535" stroke-width="1.5"/><path d="M209.875,230.75v-32.5h90.25v32.5z" fill="url(#color-3)" stroke="#353535" stroke-width="1.5"/><path d="M265.59234,241.53218c1.45802,0.66427 1.6698,2.37831 0.28882,3.28602c-0.95859,2.48176 -1.45618,5.35615 -1.45618,7.93332c0,5.61387 -0.22284,10.7484 1.53145,16.01126c0.27145,0.2901 -4.2367,0.8733 -5.16204,1.02752c-3.49833,0.58305 -7.03899,1.00147 -10.64191,1.00147c-6.80929,0 -13.58343,-0.95122 -20.2977,-0.99605c-5.7975,0 -11.62109,-0.527 -17.40087,-0.50776c-1.07117,-0.35706 -2.3307,-0.36809 -3.56371,-0.32657c0.73757,-0.78975 1.44009,-1.81321 1.77094,-2.21192c2.28,-2.74768 5.15507,-6.77001 5.15507,-10.61996c0.94432,-2.83295 0.02042,-7.1226 -1.61592,-9.55665c-0.41073,-0.61096 -1.08289,-1.14359 -1.72176,-1.67416c-0.2791,-0.19892 -0.52826,-0.41208 -0.7422,-0.65054c-0.67839,-0.6522 -1.13483,-1.34636 -0.8543,-2.21575c-0.00467,-0.09163 -0.00703,-0.18573 -0.00703,-0.28242c0,0 0,-0.64185 0.59377,-0.73801c2.8541,-3.99302 7.30109,-5.86567 12.21652,-6.55657c1.31927,-0.18543 2.76035,-0.08373 4.03549,-0.50878c4.86756,0.04172 13.07544,-2.37025 17.34416,0.68103c5.6638,1.92371 10.822,5.35699 16.49414,7.27266c1.43754,-0.43779 3.09431,-0.79594 4.03326,-0.36816z" fill="url(#color-4)" stroke="none" stroke-width="0.5"/><path d="M165.113,298.875v-32.5h149.774v32.5z" fill="#9b9b9b" stroke="none" stroke-width="0"/><path d="M165.113,266.375v-135.75h149.774v135.75z" fill="none" stroke="#5e5e5e" stroke-width="2.5"/><path d="M296.875,211.25c-0.42701,0 -0.61091,-0.24312 -0.6901,-0.45252c-0.5586,-0.21354 -1.10228,-0.46203 -1.6376,-0.73098c-0.05684,0.1844 -0.11743,0.36891 -0.18198,0.55364l0.00968,0.62986c0,0 0,0.75 -0.75,0.75c-0.75,0 -0.75,-0.75 -0.75,-0.75l0.00968,-0.87014c0.11248,-0.3498 0.21324,-0.69569 0.3033,-1.03925c-0.83736,-0.46711 -1.66783,-0.95467 -2.51799,-1.40416c-0.106,0.34985 -0.21659,0.70001 -0.33349,1.05071l0.03849,0.26283c0,0 0,0.75 -0.75,0.75c-0.75,0 -0.75,-0.75 -0.75,-0.75l0.03849,-0.73717c0.13853,-0.41558 0.26833,-0.83107 0.39227,-1.24665c-0.46203,-0.2068 -0.93338,-0.39453 -1.41793,-0.55467c0,0 -0.71151,-0.23717 -0.47434,-0.94868c0.23717,-0.71151 0.94868,-0.47434 0.94868,-0.47434c0.46126,0.1549 0.91172,0.33616 1.35441,0.53573c0.14485,-0.5275 0.2856,-1.05545 0.4281,-1.5842c-0.905,-0.36548 -1.82008,-0.71624 -2.75685,-1.0285c0,0 -0.71151,-0.23717 -0.47434,-0.94868c0.23717,-0.71151 0.94868,-0.47434 0.94868,-0.47434c0.91018,0.30339 1.801,0.64361 2.68236,0.99848c0.19095,-0.67268 0.39329,-1.34716 0.61895,-2.02414c0,0 0.23717,-0.71151 0.94868,-0.47434c0.71151,0.23717 0.47434,0.94868 0.47434,0.94868c-0.23709,0.71126 -0.44806,1.41841 -0.64697,2.12315c0.64263,0.26774 1.283,0.53706 1.92505,0.79916c0.00713,-0.29905 0.01041,-0.60191 0.01041,-0.90948c0,0 0,-0.75 0.75,-0.75c0.75,0 0.75,0.75 0.75,0.75c0,0.50593 -0.00637,1.00464 -0.02307,1.49784c0.49999,0.18993 1.0028,0.3715 1.51024,0.54065l0.51283,1.21151c0,0 0,0.75 -0.75,0.75c-0.64976,0 -0.7366,-0.56292 -0.74821,-0.71339c-0.20693,-0.07261 -0.41312,-0.14704 -0.6187,-0.22303c-0.06947,0.77551 -0.17641,1.54152 -0.33712,2.30508c0.71317,0.35822 1.43893,0.67708 2.1912,0.91984l0.51283,0.96151c0,0 0,0.75 -0.75,0.75zM293.78509,205.74276c-0.74976,-0.30176 -1.49562,-0.61564 -2.24432,-0.92784c-0.1514,0.56268 -0.30128,1.12456 -0.45686,1.68653c0.81962,0.43688 1.62259,0.90977 2.43002,1.36288c0.12678,-0.70291 0.21416,-1.40549 0.27116,-2.12157z" fill="#6a6a6a" stroke="none" stroke-width="0.5"/><path d="M290.33651,222.26283c0.23717,0.71151 -0.47434,0.94868 -0.47434,0.94868l-0.86703,0.2788c-1.44725,0 -2.53835,1.30498 -3.87014,1.25968c-1.68666,-0.05736 -1.10353,-1.35687 -2.17231,-1.77006c-0.72525,-0.28038 -4.65092,1.87779 -5.41166,2.3941c0,0 -0.62404,0.41603 -1.04006,-0.20801c-0.41603,-0.62404 0.20801,-1.04006 0.20801,-1.04006c1.15491,-0.75893 5.18847,-3.05055 6.58834,-2.6059c0.27031,0.08586 1.46031,1.76985 1.82769,1.72994c1.25592,-0.13645 2.19293,-1.24032 3.62986,-1.24032l0.63297,-0.2212c0,0 0.71151,-0.23717 0.94868,0.47434z" fill="#6a6a6a" stroke="none" stroke-width="0.5"/><path d="M218.28959,206.67082c-0.67082,-0.33541 -0.33541,-1.00623 -0.33541,-1.00623l0.17082,-0.16459c0,-0.5 0,-1 0,-1.5c0,0 0,-0.75 0.75,-0.75c0.75,0 0.75,0.75 0.75,0.75c0,0.5 0,1 0,1.5l-0.32918,0.83541c0,0 -0.33541,0.67082 -1.00623,0.33541z" fill="#6a6a6a" stroke="none" stroke-width="0.5"/><path d="M224.40533,201.71967c0.53033,0.53033 0,1.06066 0,1.06066l-0.54316,0.43118c-0.24503,0.03691 -0.48875,0.28063 -0.52566,0.52566c0,0 -0.23717,0.71151 -0.94868,0.47434c-0.71151,-0.23717 -0.47434,-0.94868 -0.47434,-0.94868c0.26549,-0.6423 0.83204,-1.20885 1.47434,-1.47434l-0.04316,-0.06882c0,0 0.53033,-0.53033 1.06066,0z" fill="#6a6a6a" stroke="none" stroke-width="0.5"/><path d="M218.29582,200.66459c0.33541,0.67082 -0.33541,1.00623 -0.33541,1.00623l-0.41939,0.20322c-0.67601,0.45067 -1.25487,0.57367 -1.45451,1.36313c0,0 -0.23717,0.71151 -0.94868,0.47434c-0.71151,-0.23717 -0.47434,-0.94868 -0.47434,-0.94868c0.44609,-1.18157 1.02132,-1.45409 2.04549,-2.13687l0.58061,-0.29678c0,0 0.67082,-0.33541 1.00623,0.33541z" fill="#6a6a6a" stroke="none" stroke-width="0.5"/><path d="M184.125,216.25c0,0.75 -0.75,0.75 -0.75,0.75h-0.5c-1.52695,-0.02348 -2.90663,0.75 -4.5,0.75c0,0 -0.75,0 -0.75,-0.75c0,-0.75 0.75,-0.75 0.75,-0.75c1.60092,0 2.92324,-0.73245 4.5,-0.75h0.5c0,0 0.75,0 0.75,0.75z" fill="#6a6a6a" stroke="none" stroke-width="0.5"/><path d="M200.09467,222.03033c-0.53033,-0.53033 0,-1.06066 0,-1.06066l0.15629,-0.1357c0.63255,-0.94118 1.26683,-1.57546 2.20801,-2.20801c0,0 0.62404,-0.41603 1.04006,0.20801c0.41603,0.62404 -0.20801,1.04006 -0.20801,1.04006c-0.78633,0.51922 -1.27276,1.00566 -1.79199,1.79199l-0.34371,0.3643c0,0 -0.53033,0.53033 -1.06066,0z" fill="#6a6a6a" stroke="none" stroke-width="0.5"/><path d="M204.36062,222.63242c-0.03935,0.21533 -0.18636,0.61758 -0.73562,0.61758c-0.75,0 -0.75,-0.75 -0.75,-0.75l0.33397,-0.87404c0.81201,-0.51898 1.18369,-1.18926 2,-1.75c0,0 0.62404,-0.41603 1.04006,0.20801c0.41603,0.62404 -0.20801,1.04006 -0.20801,1.04006c-0.69815,0.44621 -1.0708,1.00427 -1.68041,1.50838z" fill="#6a6a6a" stroke="none" stroke-width="0.5"/><path d="M225.15533,254.21967c0.53033,0.53033 0,1.06066 0,1.06066l-0.54316,0.43118c-0.46027,0.15342 -0.92343,0.30905 -1.38556,0.47162l0.1099,0.3297c0,0 0.23717,0.71151 -0.47434,0.94868c-0.71151,0.23717 -0.94868,-0.47434 -0.94868,-0.47434l-0.09334,-0.28001c-0.56448,0.22488 -1.12126,0.4678 -1.66289,0.73773c0.02973,0.04637 0.06032,0.09273 0.09178,0.13908l0.12596,0.66603c0,0 0,0.75 -0.75,0.75c-0.75,0 -0.75,-0.75 -0.75,-0.75l0.12596,0.16603c-0.05275,-0.08028 -0.10354,-0.16053 -0.15243,-0.2408c-0.10339,0.06484 -0.20591,0.13108 -0.30751,0.19881c0,0 -0.62404,0.41603 -1.04006,-0.20801c-0.41603,-0.62404 0.20801,-1.04006 0.20801,-1.04006c0.15892,-0.10595 0.31998,-0.20859 0.48297,-0.30815c-0.07894,-0.21504 -0.14737,-0.43126 -0.20659,-0.64919c-0.04097,0.01453 -0.08203,0.02883 -0.12318,0.04289c0,0 -0.71151,0.23717 -0.94868,-0.47434c-0.23717,-0.71151 0.47434,-0.94868 0.47434,-0.94868c0.10866,-0.03506 0.21666,-0.07218 0.32408,-0.11114c-0.06655,-0.61778 -0.08691,-1.25673 -0.08691,-1.92735c0,0 0,-0.75 0.75,-0.75c0.75,0 0.75,0.75 0.75,0.75c0,0.44719 0.0057,0.87871 0.03065,1.29839c0.53322,-0.2637 1.05986,-0.54984 1.58998,-0.82886c-0.20557,-0.80048 -0.35676,-1.58167 -0.37064,-2.21953c0,0 0,-0.75 0.75,-0.75c0.75,0 0.75,0.75 0.75,0.75c-0.01448,0.41689 0.07323,0.96429 0.21187,1.55265c0.39527,-0.17945 0.79684,-0.34205 1.20862,-0.47639l0.66349,-0.4503c0,0 0.62404,-0.41603 1.04006,0.20801c0.41603,0.62404 -0.20801,1.04006 -0.20801,1.04006l-0.83651,0.5497c-0.4973,0.16891 -0.98091,0.37241 -1.45695,0.59424c0.08099,0.25733 0.16371,0.50874 0.24404,0.74702c0.46578,-0.1644 0.93237,-0.3219 1.39622,-0.47651l-0.04316,-0.06882c0,0 0.53033,-0.53033 1.06066,0zM221.16481,254.68139c-0.59709,0.30921 -1.19123,0.62329 -1.79519,0.90826c0.04061,0.16887 0.08783,0.33645 0.14272,0.50304c0.60007,-0.29719 1.21703,-0.56433 1.842,-0.81143c-0.06242,-0.19454 -0.1261,-0.39525 -0.18952,-0.59987z" fill="#6a6a6a" stroke="none" stroke-width="0.5"/><path d="M266.15533,240.78033c-0.53033,0.53033 -1.06066,0 -1.06066,0l-0.59371,-0.6143c-0.43948,-0.68762 -0.55069,-0.96588 -1.37596,-0.91603c0,0 -0.75,0 -0.75,-0.75c0,-0.75 0.75,-0.75 0.75,-0.75c1.35531,0.04509 1.86771,0.48294 2.62404,1.58397l0.40629,0.3857c0,0 0.53033,0.53033 0,1.06066z" fill="#6a6a6a" stroke="none" stroke-width="0.5"/><text transform="translate(150.77661,125.4486) scale(0.25081,0.25081)" font-size="40" xml:space="preserve" fill="#ffffff" fill-rule="nonzero" stroke="none" stroke-width="1" stroke-linecap="butt" stroke-linejoin="miter" stroke-miterlimit="10" stroke-dasharray="" stroke-dashoffset="0" font-family="Sans Serif" font-weight="normal" text-anchor="start" style="mix-blend-mode: normal"><tspan x="0" dy="0">When pickaxe head appears, mash it!</tspan></text></g></g></svg>