<svg version="1.1" xmlns="http://www.w3.org/2000/svg" xmlns:xlink="http://www.w3.org/1999/xlink" width="26.35396" height="22.09877" viewBox="0,0,26.35396,22.09877"><g transform="translate(-226.30512,-176.78761)"><g data-paper-data="{&quot;isPaintingLayer&quot;:true}" fill-rule="nonzero" stroke-linecap="butt" stroke-linejoin="miter" stroke-miterlimit="10" stroke-dasharray="" stroke-dashoffset="0" style="mix-blend-mode: normal"><path d="M228.09091,198.13638v-9.81818h23.81818v9.81818z" fill="#9a6d4e" stroke="#704f39" stroke-width="1.5"/><path d="M233.51539,194.44033l-1.26083,-7.07028l14.23006,-2.53762l1.26083,7.07028z" fill="#f17400" stroke="#c96100" stroke-width="1.5"/><path d="M232.3193,188.88485l2.41587,-6.76329l13.6122,4.86232l-2.41587,6.76329z" fill="#eae0b9" stroke="#dcd2ae" stroke-width="1.5"/><path d="M235.42249,191.49785l-3.26992,-6.39423l8.9317,-4.56754c0.15858,-0.01345 0.31322,0.01494 0.4628,0.10458c1.10731,0.66359 2.47866,1.12767 3.96223,1.3795c0.04855,0.82371 0.07615,1.71394 0.56629,2.18205c0.51937,0.49602 1.0934,0.80676 1.6958,0.98059z" fill="#f17400" stroke="#c96100" stroke-width="1.5"/><path d="M232.77273,182.09092v-2.3768c0.01863,-0.01175 0.03724,-0.02362 0.05584,-0.03561c1.0913,-0.32756 2.02567,-1.01791 2.66305,-1.93095c0.98897,0.49302 1.82848,1.41603 3.28789,1.17249c0.88075,-0.14697 1.77941,-1.29395 2.54533,-0.83495c0.9529,0.57105 2.10133,0.99436 3.34855,1.2618c0.16914,1.06374 0.67377,2.01569 1.40203,2.74402z" fill="#eae0b9" stroke="#dcd2ae" stroke-width="1.5"/><path d="M232.3477,180.79899l0.13359,-0.91127c0.11607,-0.06497 0.23194,-0.1349 0.34728,-0.20921c1.0913,-0.32757 2.02568,-1.01791 2.66305,-1.93096c0.98897,0.49301 1.82848,1.41603 3.2879,1.17249c0.88075,-0.14697 1.77941,-1.29395 2.54533,-0.83495c0.9529,0.57105 2.10132,0.99436 3.34854,1.2618c0.21337,1.34191 0.96062,2.50592 2.01723,3.26753l-0.04122,0.2812z" fill="#f17400" stroke="#c96100" stroke-width="1.5"/><path d="M233.39341,181.31044l-0.256,-1.7358c0.95856,-0.35784 1.77783,-1.0014 2.35422,-1.82708c0.98897,0.49302 1.82848,1.41602 3.28789,1.17249c0.88075,-0.14697 1.77941,-1.29395 2.54533,-0.83495c0.9529,0.57105 2.10133,0.99436 3.34855,1.2618c0.01562,0.09824 0.0341,0.19552 0.05536,0.29176z" fill="#eae0b9" stroke="#dcd2ae" stroke-width="1.5"/><path d="M247.61042,195.33472c-0.22361,-0.1118 -0.1118,-0.33541 -0.1118,-0.33541l0.09755,-0.18948c0.31107,-0.90192 -0.19449,-1.78205 -1.09616,-1.78205c0,0 -0.01411,0 -0.03564,-0.00335c-0.36903,0.37204 -0.60327,0.91967 -0.60327,1.86449c0,0 0,0.25 -0.25,0.25c-0.25,0 -0.25,-0.25 -0.25,-0.25c0,-1.32845 0.4068,-1.94098 0.99286,-2.34825c-0.0656,-0.05162 -0.09114,-0.12825 -0.09114,-0.12825c-0.33227,-1.0249 -0.75935,-1.88847 -1.11111,-2.88889l-0.01283,-0.30128c0,0 0,-0.0066 0.00107,-0.01765c0.00496,-0.05111 0.03283,-0.19752 0.1897,-0.22711c-0.59192,-0.1163 -1.91051,-0.28617 -2.2741,-0.28303c-0.27027,0 -0.51577,-0.02893 -0.74168,-0.07766c-0.35085,0.26415 -0.74937,0.39307 -0.90042,0.8677c0,0.901 -0.18234,1.29718 -0.48386,1.45303c0.96906,0.89278 0.85513,2.72151 1.25204,3.87231l-0.12468,0.41308c0,0 -0.1118,0.22361 -0.33541,0.1118c-0.22361,-0.1118 -0.1118,-0.33541 -0.1118,-0.33541l0.09755,-0.03136c-0.32389,-0.99907 -0.25988,-3.16797 -1.23484,-3.75993c0,0 -0.10553,-0.07035 -0.11615,-0.18601c-0.28094,-0.01716 -0.60194,-0.08094 -0.94276,-0.10656c-0.17131,-0.01288 -1.90873,1.74947 -2.21929,1.95923c0,0 -0.02837,0.01891 -0.07113,0.03229c-0.27242,0.28943 -0.63297,0.54761 -0.70966,0.91086c-0.07628,0.36131 0.55555,0.89488 0.55555,1.44445l-0.12071,0.37234c0,0 -0.07906,0.23717 -0.31623,0.15811c-0.23717,-0.07906 -0.15811,-0.31623 -0.15811,-0.31623l0.10151,-0.29432c0,-0.46572 -0.3344,-0.66049 -0.48888,-0.97992c-0.07033,0.04774 -0.15323,0.04774 -0.15323,0.04774c-1.36437,0 -2.69021,-1.74459 -2.80556,-2.91667l0.07616,-0.11894c-0.75068,0.21577 -1.31308,0.8275 -2.40928,0.10474l0.02757,0.04198c0,0 -0.25,0 -0.25,-0.25c0,-0.25 0.25,-0.25 0.25,-0.25l0.24979,0.04199c1.28347,0.86685 1.8453,-0.6054 3.27371,-0.14027c0.9511,0.33442 3.82726,-1.53077 2.71814,-2.72777c-0.34628,-0.37372 -1.2436,-0.62825 -1.71365,-0.93816c-0.33252,-0.22306 -0.53715,-0.43215 -0.64721,-0.63163c-1.48369,0.36792 -2.60091,0.16747 -3.99189,0.22917h-0.11111c0,0 -0.25,0 -0.25,-0.25c0,-0.25 0.25,-0.25 0.25,-0.25h0.11111c1.39076,0.11136 2.4738,0.22432 3.89355,-0.20274c0.10611,-0.87549 1.69275,-1.61744 1.31993,-2.67382c-0.10542,-0.29872 -1.23995,-0.58764 -1.60204,-1.01332c-0.90275,0.32248 -2.14576,0.31263 -2.97684,0.59927l-0.18948,0.09755c0,0 -0.22361,0.1118 -0.33541,-0.1118c-0.1118,-0.22361 0.1118,-0.33541 0.1118,-0.33541l0.25497,-0.12468c0.89615,-0.29053 1.98404,0.33828 2.83651,-0.19771c0.08354,-0.05253 0.15642,-0.11939 0.22064,-0.1969c0.01227,-0.04025 0.03829,-0.08126 0.08649,-0.11822c0.25026,-0.38551 0.34891,-0.94613 0.47152,-1.36032l-0.15734,-0.15734l0.02774,-0.02774l-0.02978,-0.0194c-0.00374,-0.00111 -0.00752,-0.0023 -0.01134,-0.00358c-0.23717,-0.07906 -0.15811,-0.31623 -0.15811,-0.31623c0.01456,-0.04141 0.03583,-0.08794 0.06304,-0.13845c-0.1523,-0.51451 -0.59726,-0.24635 -1.04819,-0.42071c0.20641,-0.09018 0.40556,-0.19389 0.59632,-0.31001c0.28831,0.04228 0.59658,0.04769 0.78606,0.25893c0.58524,-0.69265 1.63265,-1.48928 2.15386,-0.90131c0.19193,0.21651 0.10602,0.99924 0.2767,1.2767c0.23995,0.39005 0.67608,-0.66024 1.1081,-0.81214l0.18948,-0.09755c0,0 0.22361,-0.1118 0.33541,0.1118v0.00001c0.1118,0.22361 -0.1118,0.33541 -0.1118,0.33541l-0.25497,0.12468c-0.50563,0.15586 -0.93517,1.13259 -1.55857,0.74342c-0.36949,-0.23067 -0.27855,-1.08815 -0.38997,-1.38997c-0.04607,-0.12481 -0.7508,0.42104 -1.23123,0.87318c0.01121,0.02841 0.01737,0.05936 0.01737,0.09175v0.33333h-0.03383c0.2515,1.05717 -0.04019,1.63493 -0.58578,1.97511c0.44984,0.49116 1.35642,0.45568 1.60059,1.04033c0.43516,1.04196 -1.0947,1.93889 -1.22008,2.76008c0.04612,0.02366 0.08919,0.06745 0.11518,0.14542c0.03993,0.11979 -0.00081,0.19925 -0.05092,0.24855c0.07093,0.13516 0.19777,0.26847 0.39686,0.40027c0.46143,0.31166 1.53593,0.61691 1.84192,1.06184c0.07239,0.10527 0.13098,0.21069 0.17684,0.31587c0.71015,-0.63063 2.12224,-1.6107 2.93824,-1.28955c0.80316,0.31609 1.04922,0.91148 1.64516,1.22331l0.02201,-0.07141c0,0 0.07906,-0.23717 0.31623,-0.15811c0.23717,0.07906 0.15811,0.31623 0.15811,0.31623l-0.02641,0.07512c0.1348,0.02596 0.28533,0.04028 0.4559,0.04028c0.90196,0.00993 1.94489,-0.28339 2.79724,0.25901c0.35639,-2.13437 2.60365,-3.13133 2.62266,-4.85785c-0.0203,-0.06377 -0.03805,-0.12446 -0.0534,-0.1823c0.17864,0.04358 0.36105,0.07756 0.54664,0.10136c0.0001,0.00028 0.00019,0.00056 0.00029,0.00084c0.01762,2.03785 -2.52228,2.81742 -2.65803,5.23986c0.83374,0.03474 1.47817,0.2259 2.30015,0.21685h0.33333c0,0 0.25,0 0.25,0.25c0,0.25 -0.25,0.25 -0.25,0.25h-0.33333c-0.90562,-0.00783 -1.49565,-0.19934 -2.39539,-0.22035c-0.09951,0.14125 -0.29161,0.24921 -0.52999,0.29983c0.29616,0.89189 0.73993,1.79946 1.05142,2.70259c0,0 0.00673,0.02019 0.01037,0.05076c0.69041,-0.36371 1.52804,-0.6182 2.24235,-1.3707l0.399,-0.07322c0,0 0.25,0 0.25,0.25c0,0.25 -0.25,0.25 -0.25,0.25l-0.04545,-0.07322c-0.75678,0.73003 -1.6269,0.94577 -2.30805,1.32076c0.91649,0.29294 1.36717,1.33509 1.03513,2.35928l-0.12468,0.25497c0,0 -0.1118,0.22361 -0.33541,0.1118zM233.56567,191.399l-0.03789,-0.06567c-0.06908,0.27397 0.54679,0.42507 0.74044,0.75746c0.38274,0.65694 0.80481,1.65921 1.56512,1.65921c0,0 0.03728,0 0.08304,0.0144c0.00104,-0.00879 0.0022,-0.01768 0.0035,-0.02667c0.04733,-0.32685 1.13654,-1.32753 1.01581,-1.53095c-0.28472,-0.47971 -0.93734,-0.69336 -1.33301,-1.17195c-0.56414,0.23382 -1.12602,0.32226 -1.51508,0.20234c-0.16288,-0.05534 -0.31345,-0.08263 -0.45483,-0.08934c0.04729,0.13677 -0.06711,0.25117 -0.06711,0.25117zM240.4031,190.86132c0.05786,-0.08678 0.12778,-0.11322 0.18963,-0.11456c0.2272,-0.36427 0.32716,-0.99703 0.32716,-1.34236c0.19386,-0.56697 0.50115,-0.69753 0.84948,-0.95212c-1.47844,-0.57393 -2.09836,-1.8253 -4.09262,0.16895c0,0 -0.00008,0.00008 -0.00024,0.00024c0.03055,0.88346 -0.73242,1.69622 -1.60843,2.1871c0.41089,0.4262 1.16591,0.71672 1.32954,1.20688c0.00214,0.00642 0.0042,0.01281 0.00617,0.01917c0.63741,-0.61848 1.54466,-1.60901 1.96045,-1.61674c0.25559,-0.00475 0.68523,0.62589 0.99413,0.55035c0.00555,-0.03303 0.01931,-0.0688 0.04472,-0.10691zM245.59502,189.07489c0.04626,-0.00906 0.02811,-0.02471 -0.03734,-0.04466c0.01507,0.01371 0.02735,0.02894 0.03734,0.04466z" fill="#ffffff" stroke="none" stroke-width="0.5"/><path d="M250.04546,183.53695v12.3267h-20.09091v-15.60134" fill="none" stroke="#704f39" stroke-width="1.5"/><path d="M227.22428,181.64517l0.81848,-3.04093c0.24823,0.2237 0.51899,0.42288 0.80846,0.59373c0.95028,1.663 2.50682,1.42794 3.97735,0.48055c1.0913,-0.32756 2.02567,-1.01791 2.66305,-1.93095c0.98897,0.49302 1.82848,1.41603 3.28789,1.17249c0.88075,-0.14697 1.77941,-1.29395 2.54533,-0.83495c0.9529,0.57105 2.10133,0.99436 3.34855,1.2618c0.3793,2.38538 2.44559,4.20865 4.93773,4.20865c0.65777,0 1.28588,-0.12702 1.86113,-0.35786l-1.24831,4.63793z" fill="#9a6d4e" stroke="#704f39" stroke-width="1.5"/></g></g></svg>