<svg version="1.1" xmlns="http://www.w3.org/2000/svg" xmlns:xlink="http://www.w3.org/1999/xlink" width="30.29167" height="30.29167" viewBox="0,0,30.29167,30.29167"><defs><linearGradient x1="240" y1="165.60418" x2="240" y2="194.39583" gradientUnits="userSpaceOnUse" id="color-1"><stop offset="0" stop-color="#66b8ff"/><stop offset="1" stop-color="#6766ff"/></linearGradient></defs><g transform="translate(-224.85417,-164.85416)"><g data-paper-data="{&quot;isPaintingLayer&quot;:true}" fill-rule="nonzero" stroke-linecap="butt" stroke-linejoin="miter" stroke-miterlimit="10" stroke-dasharray="" stroke-dashoffset="0" style="mix-blend-mode: normal"><path d="M225.60417,194.39583v-28.79167h28.79167v28.79167z" fill="url(#color-1)" stroke="#ffffff" stroke-width="1.5"/><path d="M251.157,180.92014c0.09685,0.01848 0.19884,0.07578 0.28611,0.20668c0.25872,0.38808 -0.12936,0.64681 -0.12936,0.64681l-1.03608,-0.18079c0.06173,-3.15433 -3.70805,-5.09099 -5.82503,-6.67495c0,0 -0.37313,-0.27985 -0.09328,-0.65298c0.27985,-0.37313 0.65298,-0.09328 0.65298,-0.09328c2.30764,1.73525 5.67927,3.58317 6.14466,6.7485z" fill="#b70000" stroke="none" stroke-width="0.5"/><path d="M252.2988,181.12644c-0.0059,0 -0.01173,-0.00007 -0.01748,-0.00022c-0.08014,0.06496 -0.18226,0.10387 -0.29346,0.10387c-0.22927,0 -0.4199,-0.16542 -0.45905,-0.38341l-0.10196,-0.50977c-0.54088,-2.76211 -2.8489,-5.30532 -5.6457,-5.853c0,0 -0.45736,-0.09147 -0.36589,-0.54884c0.09147,-0.45736 0.54883,-0.36589 0.54883,-0.36589c2.32575,0.47343 4.3241,2.10396 5.4775,4.17552c-0.03145,-0.25916 -0.06009,-0.51884 -0.08632,-0.77938c-0.14577,-0.51655 -0.3534,-1.04345 -0.62965,-1.72909l-0.20337,-0.50842c-0.024,-0.0562 -0.03729,-0.11807 -0.03729,-0.18304c0,-0.2576 0.20882,-0.46642 0.46642,-0.46642c0.15453,0 0.29152,0.07516 0.37639,0.19091l0.30769,0.41025l-0.09833,0.07375l0.05461,0.13652c0.02042,0.05148 0.04085,0.10294 0.06125,0.15438c0.3771,0.56642 0.57679,1.24519 0.70415,1.96336c0.21673,0.75411 0.34229,1.50754 0.27811,2.26416c0.03504,0.28158 0.07553,0.55773 0.12771,0.82412l0.00227,0.5642c0,0 0,0.46642 -0.46642,0.46642z" fill="#b70000" stroke="none" stroke-width="0.5"/><path d="M238.65514,167.81712c-0.11312,0.45249 -0.56561,0.33937 -0.56561,0.33937l-0.30147,-0.08972c-0.91693,0 -2.06842,-0.17517 -2.94125,0.17591c-0.0896,0.03604 -0.17221,0.0892 -0.25112,0.14715c2.96632,0.09921 5.56734,0.83056 7.77176,3.02664c0,0 0.32981,0.32981 0,0.65961c-0.32981,0.32981 -0.65961,0 -0.65961,0c-2.20075,-2.21011 -4.83212,-2.76554 -7.8584,-2.76554h-0.51824c-0.25759,0 -0.46642,-0.20882 -0.46642,-0.46642c0,-0.1067 0.03583,-0.20503 0.09611,-0.28362l0.30811,-0.41083l0.1273,0.09548c1.02168,-1.23788 2.7077,-1.11123 4.39175,-1.11123l0.52772,0.11757c0,0 0.45249,0.11312 0.33937,0.56561z" fill="#b70000" stroke="none" stroke-width="0.5"/><path d="M233.17571,170.60615c0,-0.46642 0.46642,-0.46642 0.46642,-0.46642l0.11583,0.00905c2.50867,-0.49144 5.10072,0.88747 7.17222,2.13037c0,0 0.39995,0.23997 0.15998,0.63992c-0.23997,0.39995 -0.63992,0.15998 -0.63992,0.15998c-1.84652,-1.10791 -4.25837,-2.47677 -6.50934,-2.01555l-0.29877,0.00905c0,0 -0.46642,0 -0.46642,-0.46642z" fill="#b70000" stroke="none" stroke-width="0.5"/><path d="M251.52632,180.76715c0.09957,0.019 0.20443,0.07792 0.29416,0.2125c0.266,0.399 -0.133,0.66501 -0.133,0.66501l-1.06524,-0.18588c0.06346,-3.24311 -3.81242,-5.23428 -5.98898,-6.86282c0,0 -0.38364,-0.28773 -0.09591,-0.67136c0.28773,-0.38364 0.67136,-0.09591 0.67136,-0.09591c2.37259,1.78409 5.83912,3.68403 6.31761,6.93845z" fill="#ce0000" stroke="none" stroke-width="0.5"/><path d="M252.70026,180.97925c-0.00607,0 -0.01206,-0.00007 -0.01797,-0.00023c-0.0824,0.06678 -0.18739,0.10679 -0.30172,0.10679c-0.23573,0 -0.43172,-0.17008 -0.47198,-0.3942l-0.10483,-0.52412c-0.55611,-2.83985 -2.92908,-5.45464 -5.80461,-6.01774c0,0 -0.47023,-0.09405 -0.37619,-0.56428c0.09405,-0.47023 0.56428,-0.37619 0.56428,-0.37619c2.39121,0.48676 4.4458,2.16317 5.63166,4.29305c-0.03233,-0.26645 -0.06178,-0.53344 -0.08875,-0.80131c-0.14988,-0.53109 -0.36334,-1.07282 -0.64737,-1.77776l-0.20909,-0.52273c-0.02468,-0.05778 -0.03834,-0.12139 -0.03834,-0.18819c0,-0.26485 0.21469,-0.47954 0.47954,-0.47954c0.15888,0 0.29972,0.07727 0.38699,0.19628l0.31635,0.4218l-0.1011,0.07583l0.05614,0.14037c0.02099,0.05293 0.042,0.10584 0.06297,0.15873c0.38772,0.58237 0.59302,1.28024 0.72397,2.01862c0.22283,0.77533 0.35193,1.54997 0.28594,2.32789c0.03603,0.2895 0.07766,0.57343 0.13131,0.84732l0.00233,0.58009c0,0 0,0.47954 -0.47954,0.47954z" fill="#ce0000" stroke="none" stroke-width="0.5"/><path d="M238.67259,167.29533c-0.11631,0.46523 -0.58153,0.34892 -0.58153,0.34892l-0.30995,-0.09224c-0.94273,0 -2.12664,-0.18011 -3.02404,0.18086c-0.09211,0.03705 -0.17706,0.09171 -0.2582,0.15129c3.04981,0.102 5.72403,0.85393 7.9905,3.11183c0,0 0.33909,0.33909 0,0.67818c-0.33909,0.33909 -0.67818,0 -0.67818,0c-2.26269,-2.27231 -4.96813,-2.84338 -8.07958,-2.84338h-0.53282c-0.26484,0 -0.47954,-0.2147 -0.47954,-0.47954c0,-0.1097 0.03683,-0.2108 0.09882,-0.2916l0.31678,-0.42239l0.13088,0.09817c1.05043,-1.27271 2.78392,-1.1425 4.51537,-1.1425l0.54257,0.12088c0,0 0.46523,0.11631 0.34892,0.58153z" fill="#ce0000" stroke="none" stroke-width="0.5"/><path d="M233.03893,170.16286c0,-0.47954 0.47954,-0.47954 0.47954,-0.47954l0.11909,0.00931c2.57928,-0.50527 5.24428,0.91245 7.37409,2.19034c0,0 0.41121,0.24672 0.16448,0.65793c-0.24672,0.41121 -0.65793,0.16448 -0.65793,0.16448c-1.89849,-1.13909 -4.37823,-2.54648 -6.69255,-2.07228l-0.30718,0.00931c0,0 -0.47954,0 -0.47954,-0.47954z" fill="#ce0000" stroke="none" stroke-width="0.5"/><path d="M242.48925,173.28736c-1.49321,2.08246 -3.03625,4.28065 -4.74966,5.99406c-1.26673,2.53345 -3.56793,4.79818 -5.22387,7.08953c-0.54537,0.75463 -1.31635,1.26453 -1.74129,2.11442c-0.86166,0.86166 -1.64998,1.9982 -2.36318,2.98507c-0.15832,0.21907 -0.65823,0.20326 -0.65823,0.47355c0,0.2864 1.22997,0.59033 1.49966,0.36789c0.78624,-0.64849 1.80324,-1.84646 2.25753,-2.75503c1.34083,-1.36791 3.00357,-2.79103 4.10447,-4.35322c0.99751,-1.4155 1.98381,-3.01163 3.23382,-4.22884c0.63881,-1.27761 1.91748,-2.32063 2.73631,-3.48258c1.3762,-1.95287 2.52192,-4.02811 3.96171,-5.94263c0.04316,-0.08483 0.8077,-1.04012 0.80701,-1.04823c-0.00848,-0.09945 -1.00986,-0.53991 -1.17547,-0.4151c-0.43951,0.33122 -0.8732,0.65009 -1.25275,1.00523c0.02877,0.19432 -0.09645,0.36127 -0.09645,0.36127c-0.3411,0.45311 -0.68292,0.92209 -1.02696,1.39953c-0.00448,0.01678 -0.00884,0.03367 -0.01308,0.05065l-0.24706,0.34106c0,0 -0.01902,0.01902 -0.0525,0.04336zM241.94819,172.44977c0.40969,-1.29301 1.54213,-2.57599 2.77026,-3.17528c0.68079,-0.33221 2.41582,0.15099 2.55586,1.07744c0.08545,0.56527 -0.70334,1.21693 -0.93428,1.68807c-1.44823,1.93508 -2.58606,4.04324 -3.99847,5.99765c-0.83533,1.15586 -2.09664,2.20324 -2.73631,3.48258c-2.61423,2.66703 -4.58983,5.90574 -7.33829,8.58207c-0.46096,0.92193 -2.10747,3.14501 -3.18817,3.30035c-0.66137,0.09507 -2.2586,-0.6518 -2.2586,-1.45865c0,-0.43004 0.61458,-0.70718 0.83431,-1.01899c0.69734,-0.98954 1.5072,-2.12909 2.36318,-2.98507c0.42561,-0.85122 1.20755,-1.35704 1.74129,-2.11442c1.63875,-2.32542 3.94997,-4.54173 5.22387,-7.08953c1.79404,-1.79404 3.40903,-4.1161 4.96535,-6.28621z" fill="#b3b3b3" stroke="none" stroke-width="0.5"/><path d="M242.55937,173.21837l0.2118,-0.28984c0.00424,-0.01698 0.04385,-0.08511 0.04833,-0.10189c0.34404,-0.47744 0.68597,-0.94634 1.02707,-1.39945c0,0 0.12495,-0.16714 0.09619,-0.36145c0.37955,-0.35514 0.81411,-0.67339 1.25362,-1.00462c0.16561,-0.12481 1.16904,0.31728 1.17752,0.41673c0.00069,0.00812 -0.7637,0.96352 -0.80687,1.04836c-1.43978,1.91452 -2.58203,3.99335 -3.95822,5.94622c-0.81883,1.16194 -2.09071,2.22042 -2.72951,3.49804c-1.25002,1.21722 -2.27768,2.8469 -3.27519,4.2624c-1.10089,1.5622 -2.77029,2.98196 -4.11112,4.34987c-0.45428,0.90857 -1.47196,2.10608 -2.25819,2.75458c-0.26969,0.22244 -1.50215,-0.08343 -1.50215,-0.36984c0,-0.27029 0.54033,-0.30173 0.69865,-0.5208c0.71319,-0.98686 1.46112,-2.07612 2.32279,-2.93778c0.42494,-0.84989 1.1957,-1.35999 1.74107,-2.11462c1.65593,-2.29136 3.98806,-4.60872 5.25478,-7.14218c1.71341,-1.71341 3.26367,-3.90794 4.75688,-5.9904c0.03348,-0.02434 0.05255,-0.04333 0.05255,-0.04333z" data-paper-data="{&quot;noHover&quot;:false,&quot;origItem&quot;:[&quot;Path&quot;,{&quot;applyMatrix&quot;:true,&quot;segments&quot;:[[[242.54591,170.80006],[0.05383,-0.03914],[-2.40109,3.34861]],[[234.90843,180.43854],[2.75517,-2.75517],[-2.0369,4.0738]],[[226.50843,191.83854],[2.66275,-3.68452],[-0.87695,1.21345]],[[223.70843,195.23854],[0.68331,-1.36663],[-1.38556,1.38556]],[[219.90843,200.03854],[1.14682,-1.58688],[-0.25458,0.35226]],[[218.85,200.8],[0,-0.43463],[0,0.46053]],[[221.26147,201.39157],[-0.43366,0.35769],[1.26427,-1.04278]],[[224.89157,196.96147],[-0.73049,1.46098],[2.15606,-2.1996]],[[231.49157,189.96147],[-1.77024,2.51202],[1.604,-2.27613]],[[236.69157,183.16147],[-2.01003,1.95729],[1.02721,-2.05441]],[[241.09157,177.56147],[-1.31668,1.86841],[2.21293,-3.14022]],[[247.46201,168.0057],[-2.31518,3.07855],[0.0694,-0.13641]],[[248.75969,166.32014],[0.00111,0.01306],[-0.01363,-0.15992]],[[246.86953,165.65265],[0.2663,-0.20069],[-0.70673,0.53261]],[[244.8551,167.26907],[0.61032,-0.57107],[0.04626,0.31246]],[[244.7,167.85],[0,0],[-0.54849,0.7286]],[[243.04865,170.10045],[0.55321,-0.76772],[-0.0072,0.02699]],[[243.02761,170.1819],[0.00682,-0.02731],[0,0]],[242.63033,170.73033]],&quot;closed&quot;:true}]}" fill="#d3d3d3" stroke="none" stroke-width="0.5"/><path d="M242.45143,171.86899c0.79352,0.06451 0.90187,-0.37039 1.65952,0.08993c0.62728,0.38111 1.03739,0.91107 1.52968,1.33113c0.08305,0.07086 0.25162,0.13564 0.41412,0.17087c-0.34604,0.35803 -0.77844,1.14782 -0.82344,1.2534c-1.02939,1.29073 -1.70615,0.61433 -2.95395,-0.13553c-0.10358,-0.06224 -0.70775,-0.6201 -1.12245,-0.88987c0.19645,-0.05647 0.388,-0.1556 0.43812,-0.27788c0.13068,-0.31884 0.02014,-0.71622 -0.16304,-1.00808c-0.07534,-0.12004 -0.22877,-0.22464 -0.42935,-0.3154c0.22249,-0.14953 0.44433,-0.30293 0.6646,-0.45994c0.25157,0.12782 0.51149,0.21905 0.78619,0.24139z" data-paper-data="{&quot;noHover&quot;:false,&quot;origItem&quot;:[&quot;Path&quot;,{&quot;applyMatrix&quot;:true,&quot;segments&quot;:[[[456.00275,327.98003],[0,0],[-0.53821,1.65636]],[[455.07251,333.79221],[-0.29314,-1.49187],[0.0485,0.24682]],[[462.27566,332.57698],[-0.73412,0.24471],[3.38454,-1.12818]],[[473.25,332],[-3.55565,0],[1.94416,0]],[[483.31066,333.93934],[-1.2758,-1.70778],[0.66323,0.88779]],[[484.09164,337.17082],[0.33579,-1.05607],[-0.12879,0.40505]],[[482.75168,338.19383],[0.615,-0.2322],[1.3996,0.75665]],[[486.40903,340.65253],[-0.34824,-0.17253],[4.19514,2.07845]],[[495.90253,340.34097],[-2.96326,4.40562],[0.11672,-0.35016]],[[498.21158,336.13014],[-1.01589,1.23783],[-0.53009,-0.07057]],[[496.83951,335.69206],[0.28466,0.2055],[-1.68748,-1.21818]],[[491.59097,331.84747],[2.11003,1.05814],[-2.54857,-1.27805]],[[486.25,332],[2.56038,0],[-3.84057,0]],[[475.50973,327.98063],[3.72311,-0.1283],[-6.0136,-2.00453]],[[456.72434,327.92302],[6.01838,-2.00613],[0,0]]],&quot;closed&quot;:true}]}" fill="#d3d3d3" stroke="none" stroke-width="0.5"/><path d="M244.81239,171.17507c0.58228,0.51548 1.23925,1.1322 1.99104,1.32526c0,0 0.0487,0.01392 0.10942,0.04865c0.12902,0.00118 0.25071,0.09556 0.35405,0.43507c0.01561,0.05128 0.01756,0.1093 0.00823,0.17269c-0.68254,0.64634 -1.36786,1.58899 -1.92404,2.60293c-0.389,0.11914 -0.73238,0.28281 -1.00753,0.49603c-0.01976,0.01531 -0.03942,0.03061 -0.05897,0.0459c-0.96903,0.11404 -1.96473,-0.50931 -2.99963,-1.3219c-0.3063,-0.2405 -1.54278,-1.04314 -1.49462,-1.44679c0.01602,-0.13425 0.23537,-0.41168 0.48912,-0.56391c-0.03074,-0.00554 -0.06032,-0.01121 -0.08801,-0.01685c0.25814,-0.24187 0.49596,-0.51015 0.71189,-0.7995c0.03676,-0.0245 0.07351,-0.0491 0.11024,-0.07382c0.21024,0.09347 0.37069,0.20075 0.44747,0.32309c0.18318,0.29186 0.2913,0.70235 0.16062,1.02119c-0.05012,0.12229 -0.24461,0.22682 -0.44106,0.28329c0.4147,0.26977 0.96796,0.79191 1.07154,0.85416c1.2478,0.74986 1.9207,1.43339 2.95009,0.14266c0.045,-0.10558 0.47569,-0.88882 0.82173,-1.24684c-0.16251,-0.03523 -0.33115,-0.09948 -0.4142,-0.17034c-0.49229,-0.42006 -0.90248,-0.94267 -1.52977,-1.32377c-0.75765,-0.46032 -0.86561,-0.02279 -1.65913,-0.08731c-0.2719,-0.02211 -0.52762,-0.11042 -0.77414,-0.23418c0.31657,-0.22529 0.62998,-0.45807 0.93758,-0.69764c0.26673,-0.02994 0.6238,-0.25204 0.86714,-0.23226c0.33021,0.02685 0.66764,0.15657 0.99413,0.34277z" fill="#b3b3b3" stroke="none" stroke-width="0.5"/><path d="M240.7559,173.73683c0.20585,0.27113 1.14357,0.82559 1.31279,0.93913c1.5295,1.02623 2.95714,1.20151 3.68636,-0.77429c0.14383,-0.19177 0.69431,-0.38571 0.49614,-0.5206c-0.44377,-0.30205 -2.71272,-1.93878 -3.45822,-1.93488c-0.00234,0.10251 -0.03775,0.19684 -0.09599,0.27275l-0.30811,0.41083c-0.49617,0.66157 -1.01229,1.12537 -1.63296,1.60706zM239.80942,173.29568c0.12537,-0.6319 0.63775,-1.16211 1.23323,-1.53776c0.39392,-0.50651 0.80364,-1.00406 1.34383,-1.17967c1.10452,-0.35907 2.81561,1.10377 3.64044,1.72772c0.34362,0.25994 0.93596,0.30217 1.08169,0.70764c0.17912,0.49838 -0.281,0.99929 -0.54034,1.34507c-0.25139,0.59156 -1.37534,2.03516 -2.06545,2.19567c-1.02278,0.23788 -4.22118,-1.40395 -4.66485,-2.59246c-0.0207,-0.02029 -0.04111,-0.04354 -0.06103,-0.07011c-0.20474,-0.27298 -0.05997,-0.49604 0.03249,-0.59611z" fill="#b3b3b3" stroke="none" stroke-width="0.5"/></g></g></svg>