<svg version="1.1" xmlns="http://www.w3.org/2000/svg" xmlns:xlink="http://www.w3.org/1999/xlink" width="38.375" height="29.01605" viewBox="0,0,38.375,29.01605"><defs><linearGradient x1="240.00001" y1="194.35249" x2="240.00001" y2="198.60249" gradientUnits="userSpaceOnUse" id="color-1"><stop offset="0" stop-color="#414141"/><stop offset="1" stop-color="#1a1a1a"/></linearGradient></defs><g transform="translate(-220.8125,-170.33644)"><g data-paper-data="{&quot;isPaintingLayer&quot;:true}" fill-rule="nonzero" stroke-linejoin="miter" stroke-miterlimit="10" stroke-dasharray="" stroke-dashoffset="0" style="mix-blend-mode: normal"><path d="M221.5625,198.60249v-8.5h36.875v8.5z" fill="#8c8c8c" stroke="#707070" stroke-width="1.5" stroke-linecap="butt"/><path d="M221.5625,191.47749v-20.39105h36.875v20.39105z" fill="#707070" stroke="#5a5a5a" stroke-width="1.5" stroke-linecap="butt"/><path d="M247.24402,178.7274c0,-0.48659 0.39444,-0.88103 0.88103,-0.88103c0.48659,0 0.88103,0.39444 0.88103,0.88103c0,0.48659 -0.39444,0.88103 -0.88103,0.88103c-0.48659,0 -0.88103,-0.39444 -0.88103,-0.88103z" fill="#555555" stroke="none" stroke-width="0.5" stroke-linecap="butt"/><path d="M243.86674,178.58056c0,-0.48659 0.39444,-0.88103 0.88103,-0.88103c0.48659,0 0.88103,0.39444 0.88103,0.88103c0,0.48659 -0.39444,0.88103 -0.88103,0.88103c-0.48659,0 -0.88103,-0.39444 -0.88103,-0.88103z" fill="#555555" stroke="none" stroke-width="0.5" stroke-linecap="butt"/><path d="M240.6363,178.43372c0,-0.48659 0.39444,-0.88103 0.88103,-0.88103c0.48659,0 0.88103,0.39444 0.88103,0.88103c0,0.48659 -0.39444,0.88103 -0.88103,0.88103c-0.48659,0 -0.88103,-0.39444 -0.88103,-0.88103z" fill="#555555" stroke="none" stroke-width="0.5" stroke-linecap="butt"/><path d="M237.19376,178.87424c0,-0.48659 0.39444,-0.88103 0.88103,-0.88103c0.48659,0 0.88103,0.39444 0.88103,0.88103c0,0.48659 -0.39444,0.88103 -0.88103,0.88103c-0.48659,0 -0.88103,-0.39444 -0.88103,-0.88103z" fill="#555555" stroke="none" stroke-width="0.5" stroke-linecap="butt"/><path d="M233.81648,178.7274c0,-0.48659 0.39444,-0.88103 0.88103,-0.88103c0.48659,0 0.88103,0.39444 0.88103,0.88103c0,0.48659 -0.39444,0.88103 -0.88103,0.88103c-0.48659,0 -0.88103,-0.39444 -0.88103,-0.88103z" fill="#555555" stroke="none" stroke-width="0.5" stroke-linecap="butt"/><path d="M230.58604,178.58056c0,-0.48659 0.39444,-0.88103 0.88103,-0.88103c0.48659,0 0.88103,0.39444 0.88103,0.88103c0,0.48659 -0.39444,0.88103 -0.88103,0.88103c-0.48659,0 -0.88103,-0.39444 -0.88103,-0.88103z" fill="#555555" stroke="none" stroke-width="0.5" stroke-linecap="butt"/><path d="M230.58604,178.58056c0,-0.48659 0.39444,-0.88103 0.88103,-0.88103c0.48659,0 0.88103,0.39444 0.88103,0.88103c0,0.48659 -0.39444,0.88103 -0.88103,0.88103c-0.48659,0 -0.88103,-0.39444 -0.88103,-0.88103z" fill="#555555" stroke="none" stroke-width="0.5" stroke-linecap="butt"/><path d="M227.20876,178.43372c0,-0.48659 0.39444,-0.88103 0.88103,-0.88103c0.48659,0 0.88103,0.39444 0.88103,0.88103c0,0.48659 -0.39444,0.88103 -0.88103,0.88103c-0.48659,0 -0.88103,-0.39444 -0.88103,-0.88103z" fill="#555555" stroke="none" stroke-width="0.5" stroke-linecap="butt"/><path d="M223.97832,178.28689c0,-0.48659 0.39444,-0.88103 0.88103,-0.88103c0.48659,0 0.88103,0.39444 0.88103,0.88103c0,0.48659 -0.39444,0.88103 -0.88103,0.88103c-0.48659,0 -0.88103,-0.39444 -0.88103,-0.88103z" fill="#555555" stroke="none" stroke-width="0.5" stroke-linecap="butt"/><path d="M247.29296,181.85995c0,-0.48659 0.39444,-0.88103 0.88103,-0.88103c0.48659,0 0.88103,0.39444 0.88103,0.88103c0,0.48659 -0.39444,0.88103 -0.88103,0.88103c-0.48659,0 -0.88103,-0.39444 -0.88103,-0.88103z" fill="#555555" stroke="none" stroke-width="0.5" stroke-linecap="butt"/><path d="M243.91568,181.71311c0,-0.48659 0.39444,-0.88103 0.88103,-0.88103c0.48659,0 0.88103,0.39444 0.88103,0.88103c0,0.48659 -0.39444,0.88103 -0.88103,0.88103c-0.48659,0 -0.88103,-0.39444 -0.88103,-0.88103z" fill="#555555" stroke="none" stroke-width="0.5" stroke-linecap="butt"/><path d="M240.68523,181.56628c0,-0.48659 0.39444,-0.88103 0.88103,-0.88103c0.48659,0 0.88103,0.39444 0.88103,0.88103c0,0.48659 -0.39444,0.88103 -0.88103,0.88103c-0.48659,0 -0.88103,-0.39444 -0.88103,-0.88103z" fill="#555555" stroke="none" stroke-width="0.5" stroke-linecap="butt"/><path d="M237.24271,182.00679c0,-0.48659 0.39444,-0.88103 0.88103,-0.88103c0.48659,0 0.88103,0.39444 0.88103,0.88103c0,0.48659 -0.39444,0.88103 -0.88103,0.88103c-0.48659,0 -0.88103,-0.39444 -0.88103,-0.88103z" fill="#555555" stroke="none" stroke-width="0.5" stroke-linecap="butt"/><path d="M233.86543,181.85995c0,-0.48659 0.39444,-0.88103 0.88103,-0.88103c0.48659,0 0.88103,0.39444 0.88103,0.88103c0,0.48659 -0.39444,0.88103 -0.88103,0.88103c-0.48659,0 -0.88103,-0.39444 -0.88103,-0.88103z" fill="#555555" stroke="none" stroke-width="0.5" stroke-linecap="butt"/><path d="M230.63499,181.71311c0,-0.48659 0.39444,-0.88103 0.88103,-0.88103c0.48659,0 0.88103,0.39444 0.88103,0.88103c0,0.48659 -0.39444,0.88103 -0.88103,0.88103c-0.48659,0 -0.88103,-0.39444 -0.88103,-0.88103z" fill="#555555" stroke="none" stroke-width="0.5" stroke-linecap="butt"/><path d="M230.63499,181.71311c0,-0.48659 0.39444,-0.88103 0.88103,-0.88103c0.48659,0 0.88103,0.39444 0.88103,0.88103c0,0.48659 -0.39444,0.88103 -0.88103,0.88103c-0.48659,0 -0.88103,-0.39444 -0.88103,-0.88103z" fill="#555555" stroke="none" stroke-width="0.5" stroke-linecap="butt"/><path d="M227.25771,181.56628c0,-0.48659 0.39444,-0.88103 0.88103,-0.88103c0.48659,0 0.88103,0.39444 0.88103,0.88103c0,0.48659 -0.39444,0.88103 -0.88103,0.88103c-0.48659,0 -0.88103,-0.39444 -0.88103,-0.88103z" fill="#555555" stroke="none" stroke-width="0.5" stroke-linecap="butt"/><path d="M224.02727,181.41944c0,-0.48659 0.39444,-0.88103 0.88103,-0.88103c0.48659,0 0.88103,0.39444 0.88103,0.88103c0,0.48659 -0.39444,0.88103 -0.88103,0.88103c-0.48659,0 -0.88103,-0.39444 -0.88103,-0.88103z" fill="#555555" stroke="none" stroke-width="0.5" stroke-linecap="butt"/><path d="M248.3045,183.68728c0.48659,0 0.88103,0.39444 0.88103,0.88103c0,0.48659 -0.39444,0.88103 -0.88103,0.88103c-0.48659,0 -0.88103,-0.39444 -0.88103,-0.88103c0,-0.48659 0.39444,-0.88103 0.88103,-0.88103z" data-paper-data="{&quot;index&quot;:null}" fill="#555555" stroke="none" stroke-width="0.5" stroke-linecap="butt"/><path d="M244.92722,183.83411c0.48659,0 0.88103,0.39444 0.88103,0.88103c0,0.48659 -0.39444,0.88103 -0.88103,0.88103c-0.48659,0 -0.88103,-0.39444 -0.88103,-0.88103c0,-0.48659 0.39444,-0.88103 0.88103,-0.88103z" data-paper-data="{&quot;index&quot;:null}" fill="#555555" stroke="none" stroke-width="0.5" stroke-linecap="butt"/><path d="M241.69678,183.98095c0.48659,0 0.88103,0.39444 0.88103,0.88103c0,0.48659 -0.39444,0.88103 -0.88103,0.88103c-0.48659,0 -0.88103,-0.39444 -0.88103,-0.88103c0,-0.48659 0.39444,-0.88103 0.88103,-0.88103z" data-paper-data="{&quot;index&quot;:null}" fill="#555555" stroke="none" stroke-width="0.5" stroke-linecap="butt"/><path d="M238.25426,183.54044c0.48659,0 0.88103,0.39444 0.88103,0.88103c0,0.48659 -0.39444,0.88103 -0.88103,0.88103c-0.48659,0 -0.88103,-0.39444 -0.88103,-0.88103c0,-0.48659 0.39444,-0.88103 0.88103,-0.88103z" data-paper-data="{&quot;index&quot;:null}" fill="#555555" stroke="none" stroke-width="0.5" stroke-linecap="butt"/><path d="M234.87698,183.68728c0.48659,0 0.88103,0.39444 0.88103,0.88103c0,0.48659 -0.39444,0.88103 -0.88103,0.88103c-0.48659,0 -0.88103,-0.39444 -0.88103,-0.88103c0,-0.48659 0.39444,-0.88103 0.88103,-0.88103z" data-paper-data="{&quot;index&quot;:null}" fill="#555555" stroke="none" stroke-width="0.5" stroke-linecap="butt"/><path d="M231.64654,183.83411c0.48659,0 0.88103,0.39444 0.88103,0.88103c0,0.48659 -0.39444,0.88103 -0.88103,0.88103c-0.48659,0 -0.88103,-0.39444 -0.88103,-0.88103c0,-0.48659 0.39444,-0.88103 0.88103,-0.88103z" data-paper-data="{&quot;index&quot;:null}" fill="#555555" stroke="none" stroke-width="0.5" stroke-linecap="butt"/><path d="M231.64654,183.83411c0.48659,0 0.88103,0.39444 0.88103,0.88103c0,0.48659 -0.39444,0.88103 -0.88103,0.88103c-0.48659,0 -0.88103,-0.39444 -0.88103,-0.88103c0,-0.48659 0.39444,-0.88103 0.88103,-0.88103z" data-paper-data="{&quot;index&quot;:null}" fill="#555555" stroke="none" stroke-width="0.5" stroke-linecap="butt"/><path d="M228.26926,183.98095c0.48659,0 0.88103,0.39444 0.88103,0.88103c0,0.48659 -0.39444,0.88103 -0.88103,0.88103c-0.48659,0 -0.88103,-0.39444 -0.88103,-0.88103c0,-0.48659 0.39444,-0.88103 0.88103,-0.88103z" data-paper-data="{&quot;index&quot;:null}" fill="#555555" stroke="none" stroke-width="0.5" stroke-linecap="butt"/><path d="M225.03882,184.12779c0.48659,0 0.88103,0.39444 0.88103,0.88103c0,0.48659 -0.39444,0.88103 -0.88103,0.88103c-0.48659,0 -0.88103,-0.39444 -0.88103,-0.88103c0,-0.48659 0.39444,-0.88103 0.88103,-0.88103z" data-paper-data="{&quot;index&quot;:null}" fill="#555555" stroke="none" stroke-width="0.5" stroke-linecap="butt"/><path d="M254.08016,178.46636c0,-0.48659 0.39444,-0.88103 0.88103,-0.88103c0.48659,0 0.88103,0.39444 0.88103,0.88103c0,0.48659 -0.39444,0.88103 -0.88103,0.88103c-0.48659,0 -0.88103,-0.39444 -0.88103,-0.88103z" fill="#555555" stroke="none" stroke-width="0.5" stroke-linecap="butt"/><path d="M250.6376,178.90687c0,-0.48659 0.39444,-0.88103 0.88103,-0.88103c0.48659,0 0.88103,0.39444 0.88103,0.88103c0,0.48659 -0.39444,0.88103 -0.88103,0.88103c-0.48659,0 -0.88103,-0.39444 -0.88103,-0.88103z" fill="#555555" stroke="none" stroke-width="0.5" stroke-linecap="butt"/><path d="M254.1291,181.59892c0,-0.48659 0.39444,-0.88103 0.88103,-0.88103c0.48659,0 0.88103,0.39444 0.88103,0.88103c0,0.48659 -0.39444,0.88103 -0.88103,0.88103c-0.48659,0 -0.88103,-0.39444 -0.88103,-0.88103z" fill="#555555" stroke="none" stroke-width="0.5" stroke-linecap="butt"/><path d="M250.68656,182.03944c0,-0.48659 0.39444,-0.88103 0.88103,-0.88103c0.48659,0 0.88103,0.39444 0.88103,0.88103c0,0.48659 -0.39444,0.88103 -0.88103,0.88103c-0.48659,0 -0.88103,-0.39444 -0.88103,-0.88103z" fill="#555555" stroke="none" stroke-width="0.5" stroke-linecap="butt"/><path d="M255.14065,184.01357c0.48659,0 0.88103,0.39444 0.88103,0.88103c0,0.48659 -0.39444,0.88103 -0.88103,0.88103c-0.48659,0 -0.88103,-0.39444 -0.88103,-0.88103c0,-0.48659 0.39444,-0.88103 0.88103,-0.88103z" data-paper-data="{&quot;index&quot;:null}" fill="#555555" stroke="none" stroke-width="0.5" stroke-linecap="butt"/><path d="M251.6981,183.57306c0.48659,0 0.88103,0.39444 0.88103,0.88103c0,0.48659 -0.39444,0.88103 -0.88103,0.88103c-0.48659,0 -0.88103,-0.39444 -0.88103,-0.88103c0,-0.48659 0.39444,-0.88103 0.88103,-0.88103z" data-paper-data="{&quot;index&quot;:null}" fill="#555555" stroke="none" stroke-width="0.5" stroke-linecap="butt"/><path d="M247.24402,175.43169c0,-0.48659 0.39444,-0.88103 0.88103,-0.88103c0.48659,0 0.88103,0.39444 0.88103,0.88103c0,0.48659 -0.39444,0.88103 -0.88103,0.88103c-0.48659,0 -0.88103,-0.39444 -0.88103,-0.88103z" fill="#555555" stroke="none" stroke-width="0.5" stroke-linecap="butt"/><path d="M243.86674,175.28486c0,-0.48659 0.39444,-0.88103 0.88103,-0.88103c0.48659,0 0.88103,0.39444 0.88103,0.88103c0,0.48659 -0.39444,0.88103 -0.88103,0.88103c-0.48659,0 -0.88103,-0.39444 -0.88103,-0.88103z" fill="#555555" stroke="none" stroke-width="0.5" stroke-linecap="butt"/><path d="M240.6363,175.13802c0,-0.48659 0.39444,-0.88103 0.88103,-0.88103c0.48659,0 0.88103,0.39444 0.88103,0.88103c0,0.48659 -0.39444,0.88103 -0.88103,0.88103c-0.48659,0 -0.88103,-0.39444 -0.88103,-0.88103z" fill="#555555" stroke="none" stroke-width="0.5" stroke-linecap="butt"/><path d="M237.19376,175.57853c0,-0.48659 0.39444,-0.88103 0.88103,-0.88103c0.48659,0 0.88103,0.39444 0.88103,0.88103c0,0.48659 -0.39444,0.88103 -0.88103,0.88103c-0.48659,0 -0.88103,-0.39444 -0.88103,-0.88103z" fill="#555555" stroke="none" stroke-width="0.5" stroke-linecap="butt"/><path d="M233.81648,175.43169c0,-0.48659 0.39444,-0.88103 0.88103,-0.88103c0.48659,0 0.88103,0.39444 0.88103,0.88103c0,0.48659 -0.39444,0.88103 -0.88103,0.88103c-0.48659,0 -0.88103,-0.39444 -0.88103,-0.88103z" fill="#555555" stroke="none" stroke-width="0.5" stroke-linecap="butt"/><path d="M230.58604,175.28486c0,-0.48659 0.39444,-0.88103 0.88103,-0.88103c0.48659,0 0.88103,0.39444 0.88103,0.88103c0,0.48659 -0.39444,0.88103 -0.88103,0.88103c-0.48659,0 -0.88103,-0.39444 -0.88103,-0.88103z" fill="#555555" stroke="none" stroke-width="0.5" stroke-linecap="butt"/><path d="M230.58604,175.28486c0,-0.48659 0.39444,-0.88103 0.88103,-0.88103c0.48659,0 0.88103,0.39444 0.88103,0.88103c0,0.48659 -0.39444,0.88103 -0.88103,0.88103c-0.48659,0 -0.88103,-0.39444 -0.88103,-0.88103z" fill="#555555" stroke="none" stroke-width="0.5" stroke-linecap="butt"/><path d="M227.20876,175.13802c0,-0.48659 0.39444,-0.88103 0.88103,-0.88103c0.48659,0 0.88103,0.39444 0.88103,0.88103c0,0.48659 -0.39444,0.88103 -0.88103,0.88103c-0.48659,0 -0.88103,-0.39444 -0.88103,-0.88103z" fill="#555555" stroke="none" stroke-width="0.5" stroke-linecap="butt"/><path d="M223.97832,174.99118c0,-0.48659 0.39444,-0.88103 0.88103,-0.88103c0.48659,0 0.88103,0.39444 0.88103,0.88103c0,0.48659 -0.39444,0.88103 -0.88103,0.88103c-0.48659,0 -0.88103,-0.39444 -0.88103,-0.88103z" fill="#555555" stroke="none" stroke-width="0.5" stroke-linecap="butt"/><path d="M254.08016,175.17066c0,-0.48659 0.39444,-0.88103 0.88103,-0.88103c0.48659,0 0.88103,0.39444 0.88103,0.88103c0,0.48659 -0.39444,0.88103 -0.88103,0.88103c-0.48659,0 -0.88103,-0.39444 -0.88103,-0.88103z" fill="#555555" stroke="none" stroke-width="0.5" stroke-linecap="butt"/><path d="M250.6376,175.61118c0,-0.48659 0.39444,-0.88103 0.88103,-0.88103c0.48659,0 0.88103,0.39444 0.88103,0.88103c0,0.48659 -0.39444,0.88103 -0.88103,0.88103c-0.48659,0 -0.88103,-0.39444 -0.88103,-0.88103z" fill="#555555" stroke="none" stroke-width="0.5" stroke-linecap="butt"/><path d="M247.61902,187.5567c0,-0.48658 0.39444,-0.88103 0.88103,-0.88103c0.48658,0 0.88103,0.39444 0.88103,0.88103c0,0.48658 -0.39445,0.88103 -0.88103,0.88103c-0.48658,0 -0.88103,-0.39445 -0.88103,-0.88103z" fill="#555555" stroke="none" stroke-width="0.5" stroke-linecap="butt"/><path d="M244.24174,187.40986c0,-0.48658 0.39445,-0.88103 0.88103,-0.88103c0.48658,0 0.88103,0.39444 0.88103,0.88103c0,0.48658 -0.39445,0.88103 -0.88103,0.88103c-0.48658,0 -0.88103,-0.39445 -0.88103,-0.88103z" fill="#555555" stroke="none" stroke-width="0.5" stroke-linecap="butt"/><path d="M241.01131,187.26302c0,-0.48658 0.39444,-0.88103 0.88102,-0.88103c0.48658,0 0.88103,0.39445 0.88103,0.88103c0,0.48658 -0.39445,0.88102 -0.88103,0.88102c-0.48658,0 -0.88102,-0.39444 -0.88102,-0.88102z" fill="#555555" stroke="none" stroke-width="0.5" stroke-linecap="butt"/><path d="M237.56876,187.70353c0,-0.48658 0.39444,-0.88102 0.88102,-0.88102c0.48658,0 0.88103,0.39444 0.88103,0.88102c0,0.48658 -0.39445,0.88103 -0.88103,0.88103c-0.48658,0 -0.88102,-0.39445 -0.88102,-0.88103z" fill="#555555" stroke="none" stroke-width="0.5" stroke-linecap="butt"/><path d="M234.19148,187.5567c0,-0.48658 0.39444,-0.88103 0.88103,-0.88103c0.48658,0 0.88103,0.39444 0.88103,0.88103c0,0.48658 -0.39445,0.88103 -0.88103,0.88103c-0.48658,0 -0.88103,-0.39445 -0.88103,-0.88103z" fill="#555555" stroke="none" stroke-width="0.5" stroke-linecap="butt"/><path d="M230.96104,187.40986c0,-0.48658 0.39445,-0.88103 0.88103,-0.88103c0.48658,0 0.88103,0.39444 0.88103,0.88103c0,0.48658 -0.39444,0.88103 -0.88103,0.88103c-0.48658,0 -0.88103,-0.39445 -0.88103,-0.88103z" fill="#555555" stroke="none" stroke-width="0.5" stroke-linecap="butt"/><path d="M230.96104,187.40986c0,-0.48658 0.39445,-0.88103 0.88103,-0.88103c0.48658,0 0.88103,0.39444 0.88103,0.88103c0,0.48658 -0.39444,0.88103 -0.88103,0.88103c-0.48658,0 -0.88103,-0.39445 -0.88103,-0.88103z" fill="#555555" stroke="none" stroke-width="0.5" stroke-linecap="butt"/><path d="M227.58377,187.26302c0,-0.48658 0.39444,-0.88103 0.88102,-0.88103c0.48658,0 0.88103,0.39445 0.88103,0.88103c0,0.48658 -0.39445,0.88102 -0.88103,0.88102c-0.48658,0 -0.88102,-0.39444 -0.88102,-0.88102z" fill="#555555" stroke="none" stroke-width="0.5" stroke-linecap="butt"/><path d="M224.35333,187.11618c0,-0.48658 0.39444,-0.88103 0.88102,-0.88103c0.48658,0 0.88103,0.39445 0.88103,0.88103c0,0.48658 -0.39444,0.88103 -0.88103,0.88103c-0.48658,0 -0.88102,-0.39444 -0.88102,-0.88103z" fill="#555555" stroke="none" stroke-width="0.5" stroke-linecap="butt"/><path d="M254.45516,187.29567c0,-0.48658 0.39445,-0.88103 0.88103,-0.88103c0.48658,0 0.88103,0.39445 0.88103,0.88103c0,0.48658 -0.39444,0.88102 -0.88103,0.88102c-0.48658,0 -0.88103,-0.39444 -0.88103,-0.88102z" fill="#555555" stroke="none" stroke-width="0.5" stroke-linecap="butt"/><path d="M251.01261,187.73618c0,-0.48658 0.39444,-0.88103 0.88103,-0.88103c0.48658,0 0.88103,0.39444 0.88103,0.88103c0,0.48658 -0.39445,0.88103 -0.88103,0.88103c-0.48658,0 -0.88103,-0.39444 -0.88103,-0.88103z" fill="#555555" stroke="none" stroke-width="0.5" stroke-linecap="butt"/><path d="M228.11111,198.60249v-4.25h23.77778v4.25z" fill="url(#color-1)" stroke="#666666" stroke-width="1.5" stroke-linecap="butt"/><path d="M233.53742,198.10645l0.125,-3.5" fill="none" stroke="#666666" stroke-width="1.5" stroke-linecap="round"/><path d="M239.9375,198.22749l0.125,-3.5" fill="none" stroke="#666666" stroke-width="1.5" stroke-linecap="round"/><path d="M246.0652,198.02659l-0.125,-3.4375" fill="none" stroke="#666666" stroke-width="1.5" stroke-linecap="round"/></g></g></svg>