<svg version="1.1" xmlns="http://www.w3.org/2000/svg" xmlns:xlink="http://www.w3.org/1999/xlink" width="23.18234" height="34.42585" viewBox="0,0,23.18234,34.42585"><g transform="translate(-231.06728,-165.79107)"><g data-paper-data="{&quot;isPaintingLayer&quot;:true}" fill-rule="nonzero" stroke-linejoin="miter" stroke-miterlimit="10" stroke-dasharray="" stroke-dashoffset="0" style="mix-blend-mode: normal"><path d="M244.8125,173.4375l0.5,2.34084l-6.875,12.7074l9.25,9.19614l-1.125,1.75563l-2.375,-0.1672l-11.875,-11.36977l8.25,-13.62701z" fill="#6e89a2" stroke="#495a6b" stroke-width="1.5" stroke-linecap="round"/><path d="M236.07194,176.64829c0.23717,-0.47587 0.94869,-0.31724 0.94869,-0.31724l0.375,0.0836c1.33554,0.31033 2.10595,0.84174 2.88687,1.61885c0,0 0.41603,0.41736 -0.20801,0.6956c-0.62404,0.27824 -1.04006,-0.13912 -1.04006,-0.13912c-0.57391,-0.5813 -1.10674,-1.01238 -2.11313,-1.2236l-0.375,-0.0836c0,0 -0.71151,-0.15863 -0.47434,-0.63449z" fill="#1f272e" stroke="none" stroke-width="0.5" stroke-linecap="butt"/><path d="M233.32194,180.05879c-0.23717,-0.47587 0.47434,-0.63449 0.47434,-0.63449l0.61217,-0.10934c1.20959,0 2.08879,0.10413 3.23717,0.36015c0,0 0.71151,0.15862 0.47434,0.63449c-0.23717,0.47587 -0.94868,0.31724 -0.94868,0.31724c-1.01498,-0.22628 -1.69531,-0.30866 -2.76283,-0.30866l-0.13783,0.05786c0,0 -0.71152,0.15862 -0.94869,-0.31724z" fill="#1f272e" stroke="none" stroke-width="0.5" stroke-linecap="butt"/><path d="M244.04507,186.27987c-0.53033,0.35469 -1.06066,0 -1.06066,0l-0.18032,-0.12494c-0.6562,-0.55584 -0.73801,-0.71401 -1.70394,-0.36631c0,0 -0.67082,0.22433 -1.00623,-0.22433c-0.33541,-0.44865 0.33541,-0.67298 0.33541,-0.67298c1.63457,-0.51975 2.44458,-0.27421 3.54606,0.6369l0.06968,0.04227c0,0 0.53033,0.35469 0,0.70938z" fill="#1f272e" stroke="none" stroke-width="0.5" stroke-linecap="butt"/><path d="M231.15845,185.41784c0,-0.50161 0.75,-0.50161 0.75,-0.50161l0.36217,0.02574c1.26137,0.3102 1.78002,0.89949 2.59848,1.58374c0,0 0.46852,0.39169 -0.11713,0.70504c-0.58565,0.31335 -1.05417,-0.07834 -1.05417,-0.07834c-0.57165,-0.47791 -1.00986,-1.09451 -1.90152,-1.25871l0.11217,0.02574c0,0 -0.75,0 -0.75,-0.50161z" fill="#1f272e" stroke="none" stroke-width="0.5" stroke-linecap="butt"/><path d="M244.01889,189.61268c-0.14709,0.49187 -0.88252,0.39349 -0.88252,0.39349l-0.24074,-0.0996c-0.94296,0.17365 -1.10861,0.68017 -1.40066,1.27118c0,0 -0.23717,0.47587 -0.94868,0.31724c-0.71151,-0.15862 -0.47434,-0.63449 -0.47434,-0.63449c0.47134,-0.93871 0.91059,-1.55185 2.34934,-1.90567l1.00926,0.0676c0,0 0.73544,0.09838 0.58835,0.59024z" fill="#1f272e" stroke="none" stroke-width="0.5" stroke-linecap="butt"/><path d="M239.68878,197.14231c-0.53033,0.35469 -1.06066,0 -1.06066,0l-0.55618,-0.76412c0.44097,-0.80206 0.90078,-1.04196 2.09934,-1.32046c0,0 0.71151,-0.15862 0.94868,0.31724c0.23717,0.47587 -0.47434,0.63449 -0.47434,0.63449c-0.76006,0.15952 -0.93801,0.16945 -1.15066,0.68597l0.19382,-0.26251c0,0 0.53033,0.35469 0,0.70938z" fill="#1f272e" stroke="none" stroke-width="0.5" stroke-linecap="butt"/><path d="M236.90845,196.11881c-0.75,0 -0.75,-0.50161 -0.75,-0.50161l0.0102,-0.33554c-0.29312,-1.37467 0.52406,-1.58729 2.3648,-1.58729c0,0 0.75,0 0.75,0.50161c0,0.50161 -0.75,0.50161 -0.75,0.50161c-0.35696,0 -0.71379,-0.14875 -1.06147,-0.09468c-0.25592,0.0398 0.12322,0.34172 0.17626,0.51383l0.0102,0.50047c0,0 0,0.50161 -0.75,0.50161z" fill="#1f272e" stroke="none" stroke-width="0.5" stroke-linecap="butt"/><path d="M250.20427,196.51034c-0.33541,0.44865 -1.00623,0.22433 -1.00623,0.22433l-0.16459,-0.11425c-0.81531,-0.00203 -1.70386,-0.07111 -2.16435,0.39695c0,0 -0.46852,0.39169 -1.05417,0.07834c-0.58565,-0.31335 -0.11713,-0.70504 -0.11713,-0.70504c0.95065,-0.72337 1.93463,-0.77052 3.33565,-0.77347l0.83541,0.22016c0,0 0.67082,0.22433 0.33541,0.67298z" fill="#1f272e" stroke="none" stroke-width="0.5" stroke-linecap="butt"/><path d="M234.65845,188.67829c0,-0.27703 0.33579,-0.50161 0.75,-0.50161c0.41421,0 0.75,0.22458 0.75,0.50161c0,0.27703 -0.33579,0.50161 -0.75,0.50161c-0.41421,0 -0.75,-0.22458 -0.75,-0.50161z" fill="#415261" stroke="none" stroke-width="0.5" stroke-linecap="butt"/><path d="M241.90845,176.2217c0,-0.27703 0.33579,-0.50161 0.75,-0.50161c0.41421,0 0.75,0.22458 0.75,0.50161c0,0.27703 -0.33579,0.50161 -0.75,0.50161c-0.41421,0 -0.75,-0.22458 -0.75,-0.50161z" fill="#415261" stroke="none" stroke-width="0.5" stroke-linecap="butt"/><path d="M238.40845,180.23456c0,-0.27703 0.33579,-0.50161 0.75,-0.50161c0.41421,0 0.75,0.22458 0.75,0.50161c0,0.27703 -0.33579,0.50161 -0.75,0.50161c-0.41421,0 -0.75,-0.22458 -0.75,-0.50161z" fill="#415261" stroke="none" stroke-width="0.5" stroke-linecap="butt"/><path d="M242.03345,194.78119c0,-0.27703 0.33579,-0.50161 0.75,-0.50161c0.41421,0 0.75,0.22458 0.75,0.50161c0,0.27703 -0.33579,0.50161 -0.75,0.50161c-0.41421,0 -0.75,-0.22458 -0.75,-0.50161z" fill="#415261" stroke="none" stroke-width="0.5" stroke-linecap="butt"/><path d="M244.28345,198.12524c0,-0.27703 0.33579,-0.50161 0.75,-0.50161c0.41421,0 0.75,0.22458 0.75,0.50161c0,0.27703 -0.33579,0.50161 -0.75,0.50161c-0.41421,0 -0.75,-0.22458 -0.75,-0.50161z" fill="#415261" stroke="none" stroke-width="0.5" stroke-linecap="butt"/><path d="M236.15845,183.82942c0,-0.27703 0.33579,-0.50161 0.75,-0.50161c0.41421,0 0.75,0.22458 0.75,0.50161c0,0.27703 -0.33579,0.50161 -0.75,0.50161c-0.41421,0 -0.75,-0.22458 -0.75,-0.50161z" fill="#4c5761" stroke="none" stroke-width="0.5" stroke-linecap="butt"/><path d="M240.03345,193.44357c0,-0.27703 0.33579,-0.50161 0.75,-0.50161c0.41421,0 0.75,0.22458 0.75,0.50161c0,0.27703 -0.33579,0.50161 -0.75,0.50161c-0.41421,0 -0.75,-0.22458 -0.75,-0.50161z" fill="#4c5761" stroke="none" stroke-width="0.5" stroke-linecap="butt"/><path d="M237.77706,184.64599c-0.64601,-0.38262 -1.09577,1.02902 -0.9781,1.54741c0.04191,0.18467 0.71609,0.50689 1.11936,0.68232c-0.22526,-0.59003 -0.14843,-1.52616 -0.03295,-2.18836zM238.98996,183.55645c0.71378,0.21173 0.48353,0.8681 0.48353,0.8681c-0.11673,0.32984 -0.58104,1.19848 -0.27181,1.56171c0.4195,0.49274 1.21246,0.00721 1.31905,1.04602c0.19052,1.85676 -1.80476,1.63612 -2.91045,1.22855c-2.91119,-1.07308 -2.84588,-5.64516 0.62729,-4.92755l0.48613,0.18112c0.08015,0.0004 0.16869,0.01311 0.26626,0.04205z" data-paper-data="{&quot;index&quot;:null}" fill="#e4ddb2" stroke="none" stroke-width="0.5" stroke-linecap="butt"/><path d="M237.89531,184.64229c-0.11548,0.66219 -0.19252,1.68848 0.03273,2.27852c-0.40327,-0.17543 -1.12949,-0.51825 -1.17141,-0.70293c-0.11766,-0.51839 0.37939,-2.00025 1.0254,-1.61763z" data-paper-data="{&quot;noHover&quot;:false,&quot;origItem&quot;:[&quot;Path&quot;,{&quot;applyMatrix&quot;:true,&quot;selected&quot;:true,&quot;segments&quot;:[[[436.89795,344.55388],[0,0],[0.23095,1.44025],7],[[436.83204,349.31349],[0.45051,-1.2833],[0.80654,-0.38156],7],[[439.07077,347.82947],[-0.08383,0.40166],[0.23532,-1.12748],7],[[437.11456,344.46392],[1.29201,-0.83218],[0,0],7]],&quot;closed&quot;:true}],&quot;index&quot;:null}" fill="#f8f0c1" stroke="none" stroke-width="0.5" stroke-linecap="butt"/><path d="M246.94898,184.7989c0.11548,0.66219 0.1923,1.59832 -0.03296,2.18835c0.40327,-0.17543 1.07745,-0.49764 1.11936,-0.68232c0.11766,-0.51839 -0.3321,-1.93001 -0.97811,-1.5474zM246.11064,183.62595l0.48613,-0.18112c3.47317,-0.71761 3.53848,3.85447 0.62729,4.92755c-1.10569,0.40756 -3.10097,0.62821 -2.91045,-1.22856c0.10659,-1.03882 0.89955,-0.55327 1.31905,-1.04602c0.30923,-0.36322 -0.15508,-1.23186 -0.2718,-1.5617c0,0 -0.23025,-0.65636 0.48353,-0.86809c0.09757,-0.02894 0.18611,-0.04166 0.26626,-0.04206z" fill="#e4ddb2" stroke="none" stroke-width="0.5" stroke-linecap="butt"/><path d="M247.05231,184.71179c0.646,-0.38262 1.14306,1.09924 1.0254,1.61764c-0.04192,0.18467 -0.76814,0.52749 -1.17141,0.70293c0.22525,-0.59003 0.14821,-1.61632 0.03273,-2.27852z" data-paper-data="{&quot;noHover&quot;:false,&quot;origItem&quot;:[&quot;Path&quot;,{&quot;applyMatrix&quot;:true,&quot;segments&quot;:[[[218.44898,172.27694],[0,0],[0.11548,0.72012]],[[218.41602,174.65674],[0.22525,-0.64165],[0.40327,-0.19078]],[[219.53539,173.91473],[-0.04192,0.20083],[0.11766,-0.56374]],[[218.55728,172.23196],[0.646,-0.41609],[0,0]]],&quot;closed&quot;:true}]}" fill="#f8f0c1" stroke="none" stroke-width="0.5" stroke-linecap="butt"/><path d="M241.58794,167.23342c-0.1132,0.16994 -0.29683,0.24655 -0.43937,0.28108c-0.1659,0.12511 -0.44583,0.24828 -0.79889,0.06864c-1.38011,0.20772 -2.49227,1.17219 -3.55226,1.98379c-2.87101,2.19825 -4.23014,3.87679 -4.23014,7.40133c-0.07458,6.11118 6.57314,7.57723 11.69683,7.58805c6.04275,-0.80648 9.29508,-5.17933 8.32528,-10.64025c-1.59951,-4.36677 -5.90322,-7.25264 -11.00147,-6.68265zM240.54459,166.17787l0.2744,-0.23486c6.11034,-0.91852 11.34897,2.41488 13.22618,7.64058c1.16235,6.30392 -2.70737,11.44602 -9.67472,12.34859c-1.90844,0.00357 -4.19603,0.29247 -6.0351,-0.26196c-3.78631,-1.14148 -7.23353,-4.96063 -7.26807,-8.70196c0,-4.46238 4.06308,-10.45472 9.4773,-10.7904z" fill="#495a6b" stroke="none" stroke-width="0.5" stroke-linecap="butt"/><path d="M241.58223,167.18773c5.09825,-0.56999 9.45656,2.35199 11.05607,6.71876c0.9698,5.46092 -2.32308,9.88868 -8.36584,10.69515c-5.12369,-0.01082 -11.82941,-1.51675 -11.75483,-7.62793c0,-3.52454 1.37623,-5.24345 4.24724,-7.4417c1.05999,-0.8116 2.19225,-1.7857 3.57236,-1.99342c0.35306,0.17964 0.63721,0.05566 0.80311,-0.06945c0.14254,-0.03453 0.3287,-0.11147 0.4419,-0.28141z" data-paper-data="{&quot;noHover&quot;:false,&quot;origItem&quot;:[&quot;Path&quot;,{&quot;applyMatrix&quot;:true,&quot;segments&quot;:[[[426.17588,306.34951],[0,0],[-0.2264,0.36962]],[[425.29714,306.96085],[0.28508,-0.0751],[-0.3318,0.27212]],[[423.69936,307.11013],[0.70612,0.39072],[-2.76022,0.45178]],[[416.59484,311.42481],[2.11998,-1.7652],[-5.74202,4.78112]],[[408.13456,327.52247],[0,-7.66576],[-0.14916,13.29162]],[[431.52822,344.02625],[-10.24738,-0.02354],[12.0855,-1.75406]],[[448.17878,320.88405],[1.9396,11.87732],[-3.19902,-9.49758]],[[426.17584,306.34949],[10.1965,-1.2397],[0,0]]],&quot;closed&quot;:true,&quot;fillColor&quot;:[0,0,0,1]}]}" fill="#84a4c2" stroke="none" stroke-width="0.5" stroke-linecap="butt"/><path d="M247.64187,179.38024c-3.99208,1.26266 -11.48504,1.0468 -12.84238,-3.29557c-0.21223,0.08066 -0.55538,0.12779 -0.85169,-0.21279c-0.46852,-0.53854 0.11713,-0.96937 0.11713,-0.96937c4.37096,-3.17354 7.87205,-5.35627 13.73505,-3.55443c2.33393,0.91897 3.1779,2.00097 4.27929,4.01443l0.07918,0.53832c0,0 0,0.68967 -0.75,0.68967c-0.1663,0 -0.29573,-0.03391 -0.39646,-0.0867c-1.16981,0.89889 -2.13681,1.99219 -3.37012,2.87646zM236.14825,175.32766c0.67147,3.78106 7.59842,3.76483 10.77679,2.84094c1.21132,-0.92337 2.18436,-2.02495 3.38989,-2.92127l-0.118,-0.02439c0,0 0.01647,-0.04544 0.05375,-0.10836c-0.69507,-1.15743 -1.36854,-1.84004 -2.98377,-2.47722c-4.81162,-1.47065 -7.76348,0.08182 -11.16921,2.53741c0.03863,0.08718 0.05054,0.15289 0.05054,0.15289z" fill="#000000" stroke="none" stroke-width="0.5" stroke-linecap="butt"/><path d="M236.04773,175.17336c3.40573,-2.45559 6.44789,-4.03383 11.25951,-2.56318c1.61523,0.63719 2.29834,1.34513 2.9934,2.50256c-0.03728,0.06293 -0.05372,0.10912 -0.05372,0.10912l0.118,0.02457c-1.20553,0.89633 -2.18985,2.02788 -3.40117,2.95125c-3.17837,0.92388 -10.19404,0.91069 -10.86551,-2.87037c0,0 -0.01189,-0.06679 -0.05052,-0.15397z" data-paper-data="{&quot;noHover&quot;:false,&quot;origItem&quot;:[&quot;Path&quot;,{&quot;applyMatrix&quot;:true,&quot;segments&quot;:[[[415.29649,323.95423],[0,0],[1.34295,8.22368]],[[436.85007,330.13319],[-6.35673,2.00942],[2.42263,-2.00831]],[[443.62986,323.77952],[-2.41107,1.94947],[0,0]],[443.39387,323.72648],[[443.50137,323.4908],[-0.07456,0.13687],[-1.39014,-2.51738]],[[437.53383,318.10291],[3.23045,1.38586],[-9.62324,-3.19863]],[[415.19541,323.62168],[6.81147,-5.34082],[0.07726,0.18961]]],&quot;closed&quot;:true}]}" fill="#ff9e9e" stroke="none" stroke-width="0.5" stroke-linecap="butt"/><path d="M243.20244,172.9141c0.0242,-0.00097 0.0487,-0.00157 0.07351,-0.0018c2.1339,-0.01991 1.91218,4.39331 -0.20032,4.36362c-1.61832,-0.02273 -1.79002,-1.58417 -1.48786,-2.85138c0.03649,-0.25495 0.1119,-0.49888 0.23173,-0.71357c0.11371,-0.26959 0.24493,-0.49751 0.37831,-0.65481c0,0 0.44233,-0.50842 1.00464,-0.14205z" fill="#000000" stroke="none" stroke-width="0.5" stroke-linecap="butt"/><path d="M238.28345,177.73993c0,0.3809 -0.33578,0.68967 -0.75,0.68967c-0.40588,0 -0.73646,-0.29647 -0.74959,-0.66677c-0.2244,-0.11919 -0.37541,-0.34218 -0.37541,-0.59762c0,-0.0815 0.01538,-0.1597 0.0436,-0.23227c-0.11955,0.07409 -0.26359,0.11733 -0.4186,0.11733c-0.41422,0 -0.75,-0.30877 -0.75,-0.68967c0,-0.02458 0.0014,-0.04886 0.00413,-0.07277c-0.0815,-0.11035 -0.12913,-0.24356 -0.12913,-0.387c0,-0.3809 0.33578,-0.68967 0.75,-0.68967c0.41422,0 0.75,0.30877 0.75,0.68967c0,0.02458 -0.0014,0.04886 -0.00412,0.07277c0.0815,0.11035 0.12912,0.24356 0.12912,0.387c0,0.0815 -0.01538,0.15969 -0.0436,0.23227c0.11955,-0.07409 0.26359,-0.11733 0.4186,-0.11733c0.40588,0 0.73646,0.29647 0.74959,0.66677c0.2244,0.11919 0.37541,0.34219 0.37541,0.59762z" fill="#ffe156" stroke="none" stroke-width="0.5" stroke-linecap="butt"/><path d="M235.15845,177.96982c0,-0.3809 0.33578,-0.68967 0.75,-0.68967c0.41422,0 0.75,0.30877 0.75,0.68967c0,0.3809 -0.33578,0.68967 -0.75,0.68967c-0.41422,0 -0.75,-0.30877 -0.75,-0.68967z" fill="#ffe156" stroke="none" stroke-width="0.5" stroke-linecap="butt"/><path d="M249.15845,177.16521c0,-0.3809 0.33578,-0.68967 0.75,-0.68967c0.41422,0 0.75,0.30877 0.75,0.68967c0,0.3809 -0.33578,0.68967 -0.75,0.68967c-0.41422,0 -0.75,-0.30877 -0.75,-0.68967z" fill="#ffe156" stroke="none" stroke-width="0.5" stroke-linecap="butt"/><path d="M247.40845,177.62499c0,-0.3809 0.33578,-0.68967 0.75,-0.68967c0.41422,0 0.75,0.30877 0.75,0.68967c0,0.3809 -0.33578,0.68967 -0.75,0.68967c-0.41422,0 -0.75,-0.30877 -0.75,-0.68967z" fill="#ffe156" stroke="none" stroke-width="0.5" stroke-linecap="butt"/><path d="M237.03345,169.80878c0,-0.3809 0.33578,-0.68967 0.75,-0.68967c0.41422,0 0.75,0.30877 0.75,0.68967c0,0.3809 -0.33578,0.68967 -0.75,0.68967c-0.41422,0 -0.75,-0.30877 -0.75,-0.68967z" fill="#4c6071" stroke="none" stroke-width="0.5" stroke-linecap="butt"/><path d="M240.53345,182.56759c0,-0.3809 0.33578,-0.68967 0.75,-0.68967c0.41422,0 0.75,0.30877 0.75,0.68967c0,0.3809 -0.33578,0.68967 -0.75,0.68967c-0.41422,0 -0.75,-0.30877 -0.75,-0.68967z" fill="#4c6071" stroke="none" stroke-width="0.5" stroke-linecap="butt"/><path d="M249.53345,180.03881c0,-0.3809 0.33578,-0.68967 0.75,-0.68967c0.41422,0 0.75,0.30877 0.75,0.68967c0,0.3809 -0.33578,0.68967 -0.75,0.68967c-0.41422,0 -0.75,-0.30877 -0.75,-0.68967z" fill="#4c6071" stroke="none" stroke-width="0.5" stroke-linecap="butt"/><path d="M248.53345,170.3835c0,-0.3809 0.33578,-0.68967 0.75,-0.68967c0.41422,0 0.75,0.30877 0.75,0.68967c0,0.3809 -0.33578,0.68967 -0.75,0.68967c-0.41422,0 -0.75,-0.30877 -0.75,-0.68967z" fill="#4c6071" stroke="none" stroke-width="0.5" stroke-linecap="butt"/></g></g></svg>