<svg version="1.1" xmlns="http://www.w3.org/2000/svg" xmlns:xlink="http://www.w3.org/1999/xlink" width="23.48499" height="17.65487" viewBox="0,0,23.48499,17.65487"><g transform="translate(-238.57292,-167.11635)"><g data-paper-data="{&quot;isPaintingLayer&quot;:true}" fill-rule="nonzero" stroke-linejoin="miter" stroke-miterlimit="10" stroke-dasharray="" stroke-dashoffset="0" style="mix-blend-mode: normal"><path d="M244.19801,173.66545c2.20199,0.43211 3.99004,1.15939 6.27299,0.96553l0.36033,-0.03059c0,0 0.13718,-0.01165 0.24944,0.06407c0.05619,-0.05572 0.25962,-0.2249 0.49422,-0.02701c0.27643,0.23315 0.04327,0.50958 0.04327,0.50958l-0.24336,0.22931c-1.81893,0.71394 -1.76875,3.70838 -2.37115,5.22128c-0.1557,0.3859 -0.45751,1.27707 -0.74018,1.56594c-0.81414,0.83199 -4.58252,1.22381 -5.17362,0.04334c-0.20827,-0.41593 -0.00885,-1.18659 0.02721,-1.63381c0.13882,-1.72218 2.07856,-4.88008 0.56326,-6.35458c0,0 -0.24899,-0.26226 0.01326,-0.51125c0.17304,-0.16428 0.3403,-0.10599 0.43408,-0.04733c0.04206,-0.00001 0.07025,0.00552 0.07025,0.00552zM243.83807,180.6312c-0.02718,0.33728 -0.20255,0.95569 -0.08834,1.27941c0.11706,0.33182 1.1449,0.24422 1.40186,0.24427c1.65828,0.00037 2.58194,-0.29787 3.18023,-1.82481c0.60849,-1.52818 0.63851,-3.69633 1.82603,-4.95413c-1.95488,0.08786 -3.58301,-0.44874 -5.44532,-0.86345c0.78,1.86513 -0.72187,4.22569 -0.87446,6.11871z" fill="#686868" stroke="none" stroke-width="0.5" stroke-linecap="butt"/><path d="M245.12512,175.61643l-0.17862,-2.10345l15.66778,-1.33048l0.17862,2.10345z" fill="#919191" stroke="#686868" stroke-width="1.5" stroke-linecap="butt"/><path d="M244.97827,176.13881l-0.2861,-3.3691l4.68289,-0.39766l0.2861,3.3691z" fill="#919191" stroke="none" stroke-width="0" stroke-linecap="butt"/><path d="M243.55429,173.63119l-0.2861,-3.3691l17.05999,-1.4487l0.2861,3.3691z" fill="#707070" stroke="#5a5a5a" stroke-width="1.5" stroke-linecap="butt"/><path d="M260.55645,171.50153l-0.16658,-1.96175l0.69069,-0.05865l0.16659,1.96175z" fill="#8c8c8c" stroke="#5a5a5a" stroke-width="1.5" stroke-linecap="butt"/><path d="M259.83036,167.86635l0.04299,0.50626" fill="none" stroke="#5a5a5a" stroke-width="1.5" stroke-linecap="round"/><path d="M243.61164,169.0524l0.06449,0.75939" fill="none" stroke="#5a5a5a" stroke-width="1.5" stroke-linecap="round"/><path d="M251.19705,174.03744c0.19865,0.32519 -0.12655,0.52383 -0.12655,0.52383l-0.17866,0.09922c-0.42579,0.40425 -0.64417,0.74637 -0.93581,0.95997c-0.97454,1.2848 -1.04245,3.30211 -1.61087,4.72967c-0.59829,1.52693 -1.54504,1.82716 -3.20332,1.82679c-0.25697,-0.00006 -1.29063,0.08389 -1.40771,-0.24793c-0.1142,-0.32372 0.05789,-0.94548 0.08507,-1.28277c0.15259,-1.89302 1.66094,-4.28932 0.88094,-6.15444c1.46463,0.32615 2.80334,0.73076 4.25923,0.84594l0.15767,-0.23546c0.25283,-0.37759 0.47246,-0.70429 0.8017,-1.02015c0,0 0.25664,-0.24365 0.51008,-0.01405l0.24438,-0.15719c0,0 0.32519,-0.19865 0.52383,0.12655z" fill="#919191" stroke="none" stroke-width="0.5" stroke-linecap="butt"/><path d="M254.50808,174.89081c0.37865,0.04284 0.3358,0.42149 0.3358,0.42149l-0.04465,0.36842c-0.53659,2.19962 -3.23223,3.03505 -5.30334,2.54064c0,0 -0.37041,-0.08948 -0.28092,-0.45988c0.08948,-0.37041 0.45988,-0.28092 0.45988,-0.28092c1.65642,0.40566 3.95896,-0.20116 4.38357,-1.97879l0.02817,-0.27515c0,0 0.04284,-0.37865 0.42149,-0.3358z" fill="#686868" stroke="none" stroke-width="0.5" stroke-linecap="butt"/><path d="M252.38444,176.608c-0.11108,0.36451 -0.47559,0.25344 -0.47559,0.25344l-0.30556,-0.0938c-0.75616,-0.22562 -0.94359,-0.53245 -0.79913,-1.30822c0,0 0.08948,-0.37041 0.45988,-0.28092c0.37041,0.08948 0.28092,0.45988 0.28092,0.45988c-0.11996,0.32869 -0.10991,0.34512 0.23729,0.38845l0.34876,0.10559c0,0 0.36451,0.11108 0.25344,0.47559z" fill="#686868" stroke="none" stroke-width="0.5" stroke-linecap="butt"/><path d="M246.32261,175.57978c0.00811,1.15682 -0.54273,2.32086 -0.72625,3.46697c-0.04439,0.27722 -0.05415,0.56301 -0.1385,0.83079c-0.08114,0.2576 -0.5107,0.67344 -0.25777,0.76814c0.3095,0.11587 0.91933,0.18157 1.25989,0.15265c0.62551,-0.26654 0.43801,-0.6926 0.53664,-1.28999c0.14868,-0.90052 0.47881,-1.98379 0.80906,-2.82457c0.02613,-0.06653 0.25764,-0.709 0.4761,-1.03629c-0.4535,0.02668 -1.25533,-0.05334 -1.36917,-0.05986c-0.19589,-0.01649 -0.39357,-0.01942 -0.59001,-0.00784zM245.68372,175.05599c0.06853,-0.08063 0.1552,-0.11793 0.1552,-0.11793l0.30289,-0.10909c0.27349,-0.02236 0.54962,-0.02288 0.8232,-0.00167c0.39112,0.02238 2.11786,-0.04114 2.30552,0.36418c0.10176,0.21979 -0.64103,1.48791 -0.7568,1.77421c-0.56195,1.38973 -0.38957,3.932 -1.86845,4.57188c-0.43617,0.03704 -1.6267,-0.00241 -1.96871,-0.33805c-0.4686,-0.45987 -0.0974,-1.08638 0.05504,-1.55302c0.3719,-1.13845 0.9225,-3.09238 0.82038,-4.25754c0,0 -0.01803,-0.21241 0.13174,-0.33298z" fill="#5a5a5a" stroke="none" stroke-width="0.5" stroke-linecap="butt"/><path d="M246.91464,175.56229c0.11384,0.00652 0.92713,0.09033 1.38062,0.06365c-0.21846,0.32729 -0.4483,0.9709 -0.47443,1.03742c-0.33024,0.84078 -0.67018,1.96927 -0.81887,2.8698c-0.09863,0.59739 0.08115,1.02391 -0.54435,1.29045c-0.34056,0.02892 -0.9612,-0.04035 -1.2707,-0.15622c-0.25293,-0.0947 0.17485,-0.51172 0.25599,-0.76932c0.08435,-0.26778 0.0892,-0.55828 0.13359,-0.8355c0.18352,-1.14611 0.75049,-2.3511 0.74238,-3.50792c0.19643,-0.01158 0.39988,-0.00884 0.59577,0.00764z" data-paper-data="{&quot;noHover&quot;:false,&quot;origItem&quot;:[&quot;Path&quot;,{&quot;applyMatrix&quot;:true,&quot;segments&quot;:[[[458.23779,365.42124],[0.74732,-0.20366],[0.96781,4.44978]],[[458.24702,379.36477],[-0.22094,-4.56367],[0.05344,1.10385]],[[458.38611,382.67729],[0.10812,-1.09984],[-0.10401,1.05803]],[[458.01502,385.84502],[-1.05102,-0.16001],[1.28606,0.19579]],[[462.99199,385.41302],[-1.2885,0.38713],[2.19379,-1.53318]],[[464.01486,380.00922],[0.1037,2.38113],[-0.15632,-3.58939]],[[464.84472,368.47331],[-0.59147,3.50624],[0.0468,-0.27742]],[[465.83978,364.09585],[-0.57661,1.43764],[-1.72537,0.46992]],[[460.51698,364.97376],[0.4438,-0.06706],[-0.76796,0.09508]]],&quot;closed&quot;:true}]}" fill="#707070" stroke="none" stroke-width="0.5" stroke-linecap="butt"/><path d="M240.49976,183.97794c-0.31995,0.25399 -0.77489,0.28047 -1.41321,-0.0393c-0.41977,-0.21029 -0.23395,-0.91148 -0.29835,-1.37654c-0.13667,-0.98682 -0.51951,-4.55525 0.2586,-5.23326c0.15082,-0.13142 0.37749,-0.19825 0.64298,-0.22352c0.11099,-0.10489 0.27443,-0.18211 0.51509,-0.18211c0.27866,0 0.45379,0.10354 0.56385,0.23367c0.16875,0.02322 0.33553,0.05057 0.49407,0.07814c0.13619,-0.18887 0.35811,-0.31182 0.60875,-0.31182h0.77778c0.4206,0 0.84279,-0.00149 1.26426,0.00193c2.5238,-0.42852 6.37573,-0.16524 7.17477,1.17195c0.29484,0.49341 0.48093,5.11708 0.12756,5.51196c-0.44632,0.49874 -2.5295,0.25814 -3.16875,0.25715c-2.49351,-0.3079 -4.49429,-0.25224 -6.95844,0.10502z" fill="#0060b9" stroke="none" stroke-width="0.5" stroke-linecap="butt"/><path d="M239.23264,184.00654c0,-0.75 0.75,-0.75 0.75,-0.75h0.33333c2.6562,0.00692 5.32661,-0.11424 8,-0.11111c0.86499,0.00101 2.30615,0.71355 2.59295,-0.10251c0.09273,-0.26385 -0.26771,-2.13161 -0.33541,-2.59698c-0.10505,-0.74738 0.04187,-1.5479 -0.06156,-2.2635c-0.02413,-0.16695 -1.98671,-0.29826 -2.24915,-0.31668c-2.81824,-0.19779 -5.81595,-0.30228 -8.61854,0.10546c0,0 -0.74246,0.10607 -0.84853,-0.6364c-0.10607,-0.74246 0.6364,-0.84853 0.6364,-0.84853c3.13248,-0.44031 6.63559,-0.44744 9.76769,0c1.11802,0.15972 2.05918,-0.14862 2.69795,1.12212c0.28752,0.57197 0.06192,1.94667 0.16066,2.62539c0.09205,0.65489 0.48011,3.09837 0.10903,3.62524c-0.4286,0.60854 -2.20677,0.73746 -2.90944,0.78449c-2.92412,0.19571 -6.01824,0.10636 -8.94206,0.113h-0.33333c0,0 -0.75,0 -0.75,-0.75z" fill="#00488c" stroke="none" stroke-width="0.5" stroke-linecap="butt"/></g></g></svg>