<svg version="1.1" xmlns="http://www.w3.org/2000/svg" xmlns:xlink="http://www.w3.org/1999/xlink" width="32.93582" height="32.11143" viewBox="0,0,32.93582,32.11143"><g transform="translate(-223.53211,-163.9443)"><g data-paper-data="{&quot;isPaintingLayer&quot;:true}" fill-rule="nonzero" stroke="none" stroke-width="0.5" stroke-linecap="butt" stroke-linejoin="miter" stroke-miterlimit="10" stroke-dasharray="" stroke-dashoffset="0" style="mix-blend-mode: normal"><path d="M229.61779,167.92407c1.98242,-3.61339 7.52599,-3.97977 11.06054,-3.97977c5.09013,0 10.20477,1.11128 12.75193,6.29147c2.52666,4.51128 3.07902,9.30875 3.03533,14.36265c-1.40464,4.42687 -5.25571,9.7846 -10.02885,10.58789c-4.28473,1.24902 -9.99588,1.28898 -14.04573,-0.78537c-5.68769,-1.63575 -6.95808,-6.177 -8.65548,-11.37242c-0.88902,-5.34963 1.23346,-9.41701 4.46703,-13.54089c0.45707,-0.58292 0.85605,-1.08992 1.41524,-1.56356zM229.78214,169.56625c-0.19759,0.22994 -0.38299,0.47297 -0.58623,0.73218c-3.00432,3.83154 -5.01988,7.45589 -4.22578,12.41724c1.58336,4.84638 2.63196,8.92691 7.88205,10.47566c3.8543,1.95856 9.23257,1.91593 13.3048,0.72885c4.29101,-0.73639 7.71542,-5.56999 9.05291,-9.52965c-0.04835,-4.78603 -0.49801,-9.25145 -2.90123,-13.54233c-2.3236,-4.75838 -7.00711,-5.606 -11.63033,-5.606c-3.16574,0 -5.9993,-0.05624 -8.48062,2.2141c-0.36701,0.3358 -0.81529,0.55677 -1.17105,0.8519c-0.04062,0.06126 -0.0755,0.09685 -0.0755,0.09685l-0.28213,0.28452c-0.08657,0.12648 -0.15547,0.26923 -0.20028,0.43525c0,0 -0.17463,0.53451 -0.68661,0.44143z" fill="#5f6f87"/><path d="M230.43759,169.09898c0.0448,-0.16602 0.11467,-0.30962 0.20123,-0.43609l0.28302,-0.28527c0,0 0.03515,-0.03581 0.07577,-0.09707c0.35576,-0.29513 0.80747,-0.51857 1.17448,-0.85437c2.48132,-2.27034 5.3396,-2.22079 8.50534,-2.22079c4.62322,0 9.33902,0.86535 11.66262,5.62373c2.40321,4.29088 2.85941,8.79356 2.90775,13.57959c-1.33749,3.95966 -4.78527,8.82091 -9.07628,9.5573c-4.07223,1.18708 -9.48846,1.22814 -13.34275,-0.73043c-5.25009,-1.54875 -6.31992,-5.65959 -7.90328,-10.50598c-0.7941,-4.96134 1.23136,-8.62182 4.23569,-12.45336c0.20325,-0.25921 0.39051,-0.50427 0.58809,-0.73421c0.51198,0.09309 0.68832,-0.44307 0.68832,-0.44307z" data-paper-data="{&quot;noHover&quot;:false,&quot;origItem&quot;:[&quot;Path&quot;,{&quot;applyMatrix&quot;:true,&quot;segments&quot;:[[[459.56426,339.13247],[1.02396,0.18617],[-0.39517,0.45988]],[[458.39179,340.59683],[0.40649,-0.51842],[-6.00865,7.66308]],[[449.94023,365.4313],[-1.5882,-9.92268],[3.16673,9.69277]],[[465.70433,386.38263],[-10.50019,-3.0975],[7.70859,3.91713]],[[492.31393,387.84033],[-8.14445,2.37416],[8.58201,-1.47279]],[[510.41975,368.78102],[-2.67499,7.91932],[-0.09669,-9.57206]],[[504.6173,341.69637],[4.80643,8.58176],[-4.6472,-9.51676]],[[481.35664,330.48438],[9.24644,0],[-6.33147,0]],[[464.3954,334.91257],[4.96264,-4.54068],[-0.73401,0.6716]],[[462.05329,336.61638],[0.71153,-0.59026],[-0.08124,0.12253]],[461.90229,336.81008],[[461.33804,337.37912],[0,0],[-0.17314,0.25296]],[[460.93748,338.24961],[0.08961,-0.33204],[0,0]]],&quot;closed&quot;:true}]}" fill="#778caa"/><path d="M227.53596,183.95882c0.0033,-0.01042 0.00661,-0.02086 0.00991,-0.03128l-0.0127,0.00091l-0.01855,-0.25977c-0.13127,-0.12478 -0.21739,-0.2966 -0.23135,-0.48845l-0.06033,-0.72391c-0.01482,-0.10302 -0.0071,-0.21746 0.01966,-0.33061c-0.20268,-0.13426 -0.33633,-0.36437 -0.33633,-0.6257c0,-0.27084 0,-1.29166 0,-1.5625c0,0 0,-0.75 0.75,-0.75c0.75,0 0.75,0.75 0.75,0.75c0,0.05589 0,0.11178 0,0.16768c0.07819,-0.02764 0.16234,-0.04268 0.25,-0.04268c0.36532,0 0.66963,0.26118 0.73639,0.607l0.05908,0.27571c0.10381,0.01496 0.20075,0.0512 0.28626,0.10413c0.03289,-0.0275 0.06817,-0.05223 0.10549,-0.07384c0.48803,-0.40622 1.0374,-0.55053 1.55212,-0.15076c0.044,-0.00804 0.08934,-0.01224 0.13566,-0.01224c0.20938,0 0.39874,0.0858 0.5348,0.22417c0.1104,-0.08742 0.24599,-0.14442 0.39411,-0.15834c0.07029,-0.55966 0.52836,-1.23233 0.93941,-1.42917c0.01384,-0.00663 0.02826,-0.0077 0.04293,-0.00422l0.44181,-0.54c0.13747,-0.1707 0.3482,-0.27992 0.58444,-0.27992c0.41422,0 0.75,0.33578 0.75,0.75c0,0.04688 -0.0043,0.09274 -0.01253,0.13724l-0.12268,0.73606l-0.03986,-0.00664l0.01747,0.10204c-0.34055,0.44083 -0.70253,1.34873 -1.04533,1.19906c-0.07146,0.15435 -0.15382,0.30742 -0.24344,0.45322l0.00414,0.00188l-0.30546,0.67203c-0.07514,0.17554 -0.21533,0.31662 -0.39026,0.39291c-0.02405,0.07094 -0.05064,0.14126 -0.07943,0.21099l0.13248,0.03312l-0.1837,0.73478c-0.07579,0.33399 -0.37449,0.58332 -0.73141,0.58332c-0.24928,0 -0.47015,-0.12161 -0.60652,-0.30874c-0.10402,0.28933 -0.38084,0.49624 -0.70598,0.49624c-0.07088,0 -0.13945,-0.00983 -0.20445,-0.02821c-0.04396,0.20327 -0.17033,0.37587 -0.34239,0.48106c0.00326,0.07117 -0.00474,0.13988 -0.02589,0.20108l-0.05427,0.65128c-0.02827,0.38843 -0.35235,0.69478 -0.748,0.69478c-0.30953,0 -0.57526,-0.1875 -0.68981,-0.45512l-0.30546,-0.67203l0.19655,-0.08934c-0.03551,-0.06478 -0.06832,-0.12931 -0.09849,-0.19373c-0.07183,0.02287 -0.14837,0.03521 -0.22779,0.03521c-0.37944,0 -0.69306,-0.28177 -0.74305,-0.64747l-0.12323,-0.80098l0.01002,-0.00154z" fill="#d30000"/><path d="M251.82522,174.84137c0.72115,-0.20604 0.92719,0.51511 0.92719,0.51511l0.15126,0.58125l0.06177,0.74126c0.0022,0.02338 0.00332,0.04707 0.00332,0.07102c0,0.41422 -0.33578,0.75 -0.75,0.75c-0.04208,0 -0.08335,-0.00346 -0.12354,-0.01012c-0.34697,0.27824 -0.65858,0.76396 -0.91945,1.02557l0.03967,0.47603c0.0022,0.02338 0.00332,0.04707 0.00332,0.07102c0,0.41422 -0.33578,0.75 -0.75,0.75c-0.28951,0 -0.54071,-0.16404 -0.66572,-0.40423l-0.18702,-0.34287c-0.29857,0.07254 -0.62123,0.11958 -0.90324,0.12314c-0.11873,0.25763 -0.37924,0.43646 -0.68152,0.43646c-0.33738,0 -0.62273,-0.22277 -0.71698,-0.52923l-0.07395,-0.22187c-0.11194,-0.00602 -0.21737,-0.03659 -0.31098,-0.08642c-0.13511,0.13152 -0.31964,0.21252 -0.52309,0.21252c-0.35692,0 -0.65562,-0.24933 -0.73141,-0.58332l-0.1837,-0.73478c-0.13823,-0.79933 -0.73499,-1.09781 -1.0464,-1.94473c0,0 -0.23717,-0.71151 0.47434,-0.94868c0.71151,-0.23717 0.94868,0.47434 0.94868,0.47434c0.08093,0.29393 0.19526,0.51139 0.32234,0.70628c0.06844,-0.02057 0.14101,-0.03161 0.21615,-0.03161c0.28146,0 0.52671,0.15505 0.655,0.38439l0.20493,0.3513c0.08241,-0.03115 0.17175,-0.04818 0.26507,-0.04818c0.12966,0 0.25164,0.0329 0.35804,0.09082l0.01218,-0.04622c0.26379,0.21013 0.76851,0.66969 1.06731,1.01251c0.0029,-0.41173 0.33756,-0.74461 0.74998,-0.74461c0.02137,0 0.04252,0.0009 0.06343,0.00265c0.13258,-0.11827 0.30743,-0.19015 0.49907,-0.19015c0.17705,0 0.33977,0.06135 0.46806,0.16395c-0.0491,-0.28403 -0.0866,-0.6079 0.04716,-0.73621c0.11971,-0.11483 0.30411,-0.05381 0.48478,-0.00295c0,-0.10114 0,-0.17479 0,-0.17479c0,-0.07651 0.01146,-0.15035 0.03275,-0.21989l-0.00389,-0.01157c0,0 -0.20604,-0.72115 0.51511,-0.92719z" fill="#d30000"/><path d="M245.46067,169.5998c0.18548,-0.30227 0.5719,-0.3452 0.5719,-0.3452l0.84976,-0.07779c2.93025,0.32456 5.37981,2.94935 5.67448,5.85984c-0.67933,3.23286 -6.79609,3.22431 -8.52119,0.69566c-1.25762,-1.84341 -0.05631,-4.33249 1.09516,-5.87461c0,0 0.12452,-0.16602 0.32989,-0.2579z" fill="#000000"/><path d="M229.66968,173.85097l0.29496,-0.22862c1.83866,-0.81306 5.59227,-1.01673 6.67466,1.28726c0.79549,1.6933 -0.7082,3.7941 -1.64962,5.04335c-1.60102,1.58244 -5.3932,3.3761 -7.49549,1.63364c-2.08809,-1.73069 -0.17857,-6.0529 1.32164,-7.57845c0,0 0.40073,-0.40073 0.85385,-0.15717z" fill="#000000"/><path d="M240.89931,190.97754c-0.04999,0.3657 -0.36362,0.64747 -0.74305,0.64747c-0.37645,0 -0.68812,-0.27735 -0.74182,-0.63886l-0.07586,-0.45513l-0.149,-0.00501c-0.11727,0.36331 -0.34322,0.85886 -0.76318,1.46663l-0.5347,-1.39997l-0.29245,0.43868c-0.13354,0.20677 -0.36603,0.34366 -0.63049,0.34366c-0.21605,0 -0.41076,-0.09135 -0.54762,-0.23754c-0.01115,0.01617 -0.02258,0.03223 -0.03426,0.04818c0.05494,0.34457 0.03276,0.60652 -0.08307,0.89812l0.14256,0.03564l-0.1837,0.73478c-0.07579,0.33399 -0.37449,0.58332 -0.73141,0.58332c-0.35628,0 -0.65453,-0.24842 -0.731,-0.5815c-0.26685,-0.06126 -0.47937,-0.26488 -0.55333,-0.52666l-0.18706,-0.60792c-0.0974,0.05382 -0.19274,0.08719 -0.27862,0.09108c-0.44523,0.02016 -0.70703,-0.54281 -1.06055,-0.81422c0,0 -0.49828,-0.56055 0.06228,-1.05883c0.3212,-0.28551 0.62195,-0.22338 0.82022,-0.11826c0.02228,-0.33622 0.23,-0.76904 0.88591,-0.81385c0.07513,-0.00513 0.14719,-0.00345 0.2163,0.00445c0.09853,-0.0476 0.20907,-0.07429 0.32584,-0.07429c0.20164,0 0.38468,0.07957 0.51946,0.20902c0.21208,-0.40109 0.49758,-0.74601 0.77472,-0.76716c0.17353,-0.01324 0.31885,0.0563 0.44946,0.16899c0.06507,-0.34337 0.23397,-0.65614 0.52612,-0.81411c-0.01292,-0.05516 -0.01976,-0.11265 -0.01976,-0.17175c0,-0.2243 0.09846,-0.42561 0.25453,-0.56305l0.5597,-0.4975l0.02365,0.0266l0.04314,-0.07949c0.36772,-0.2029 0.77398,-0.40211 1.21069,-0.5945c0.09016,-0.31305 0.37873,-0.54205 0.7208,-0.54205c0.13537,0 0.26235,0.03586 0.37198,0.0986c2.95187,-1.10469 6.81361,-1.85773 9.70659,-1.53075l-0.01586,-0.19026l0.74126,-0.06177c0.02338,-0.0022 0.04707,-0.00332 0.07102,-0.00332c0.41422,0 0.75,0.33578 0.75,0.75c0,0.16648 -0.05425,0.3203 -0.14603,0.44474c0.07326,0.15804 0.14102,0.35173 0.20276,0.58746c0.56301,2.14944 -1.20637,1.87805 -2.48083,1.43559c-0.28386,0.41097 -0.74117,0.48847 -1.1823,0.22937c-0.24952,0.80139 -0.80818,1.97905 -1.07349,2.15648c-0.85957,0.57486 -1.67908,0.06763 -2.27753,-0.16795c-0.24839,0.09236 -0.4347,0.06529 -0.62815,-0.05001c-0.08802,0.05536 -0.15994,0.15646 -0.21347,0.32034l-0.0363,0.02802l0.01225,0.00857l-0.43149,0.61641c-0.13496,0.19828 -0.36249,0.3285 -0.62044,0.3285c-0.2748,0 -0.51507,-0.14779 -0.64569,-0.36822c-0.13655,0.18542 -0.35638,0.30572 -0.60431,0.30572c-0.14462,0 -0.27968,-0.04093 -0.39423,-0.11184c-0.0565,0.04724 -0.12004,0.08631 -0.18884,0.11541z" fill="#d30000"/><path d="M231.91815,190.16197c0.27732,-0.92121 0.43856,-1.42209 0.75785,-1.65548c0.04008,-0.1984 0.14709,-0.34109 0.14709,-0.34109c3.69074,-4.91416 7.65785,-5.84604 13.4891,-6.37615c1.95999,-0.00188 3.73975,0.34248 5.67747,0.53769h0.81805c0.41422,0 0.75,0.33578 0.75,0.75c0,0.3118 -0.19027,0.57917 -0.46104,0.69231l-0.67666,0.30074l-0.09599,-0.21597c-2.50957,1.49168 -5.92693,1.39242 -8.75519,1.95862c-2.27265,0.45497 -4.40883,1.77381 -6.5033,2.70468c-0.65318,0.36166 -1.21095,0.78888 -1.80783,1.23654l-0.60932,0.45699c-0.07887,0.0605 -0.1701,0.10567 -0.26924,0.13109c-0.25899,0.24298 -0.52725,0.47717 -0.83131,0.69135l0.13743,0.20614l-0.68378,0.45586c-0.12071,0.08304 -0.26696,0.13165 -0.42455,0.13165c-0.41422,0 -0.75,-0.33578 -0.75,-0.75c0,-0.02863 0.00161,-0.05688 0.00473,-0.08467l0.07592,-0.75919l0.02341,0.00234z" fill="#000000"/><path d="M236.13126,192.13751c-0.45,0.6 -1.05,0.15 -1.05,0.15l-0.33033,-0.25717c-1.48057,-1.49221 -2.84131,-2.76817 -4.03121,-4.55181c0,0 -0.41602,-0.62404 0.20802,-1.04006c0.62404,-0.41602 1.04006,0.20802 1.04006,0.20802c1.13704,1.70677 2.4173,2.90615 3.84379,4.32319l0.16967,0.11783c0,0 0.6,0.45 0.15,1.05z" fill="#a9a9a9"/><path d="M237.9132,189.73811c-0.48809,0.56944 -1.05753,0.08134 -1.05753,0.08134l-0.58215,-0.54178c-0.71787,-1.12922 -1.49122,-2.26636 -2.3279,-3.30913c0,0 -0.46852,-0.58565 0.11713,-1.05417c0.58565,-0.46852 1.05417,0.11713 1.05417,0.11713c0.86799,1.08789 1.67385,2.26616 2.4221,3.44087l0.29285,0.20822c0,0 0.56944,0.48809 0.08134,1.05753z" fill="#a9a9a9"/><path d="M240.61691,188.90603c-0.46852,0.58565 -1.05417,0.11713 -1.05417,0.11713l-0.55549,-0.59848c-0.5243,-1.57423 -1.02121,-3.3122 -1.92123,-4.70951c0,0 -0.40266,-0.63274 0.23009,-1.0354c0.63274,-0.40266 1.0354,0.23009 1.0354,0.23009c0.95815,1.52085 1.51081,3.33798 2.07877,5.04049l0.06951,-0.09848c0,0 0.58565,0.46852 0.11713,1.05417z" fill="#a9a9a9"/><path d="M242.29043,188.17541c-0.7379,0.13416 -0.87206,-0.60374 -0.87206,-0.60374l-0.09861,-0.5845c-0.45216,-1.35894 -0.67136,-2.77286 -1.125,-4.125c0,0 -0.23717,-0.71151 0.47434,-0.94868c0.71151,-0.23717 0.94868,0.47434 0.94868,0.47434c0.44931,1.35573 0.67112,2.76598 1.125,4.125l0.15139,0.7905c0,0 0.13416,0.7379 -0.60374,0.87206z" fill="#a9a9a9"/><path d="M246.02566,187.35262c-0.72761,0.1819 -0.90951,-0.5457 -0.90951,-0.5457l-0.13283,-0.53482c-0.30309,-1.52373 -0.86275,-2.9375 -1.07048,-4.48546c0,0 -0.09912,-0.74342 0.64429,-0.84254c0.74342,-0.09912 0.84254,0.64429 0.84254,0.64429c0.20028,1.51263 0.75481,2.89849 1.05452,4.38954l0.11717,0.46518c0,0 0.1819,0.72761 -0.5457,0.90951z" fill="#a9a9a9"/><path d="M249.5498,186.22116c-0.72115,0.20604 -0.92719,-0.51511 -0.92719,-0.51511l-0.11536,-0.40637c-0.35057,-1.05533 -0.55276,-2.14175 -0.88032,-3.2041c0,0 -0.22056,-0.71684 0.49627,-0.9374c0.71684,-0.22056 0.9374,0.49627 0.9374,0.49627c0.32289,1.05143 0.52082,2.12822 0.86968,3.1709l0.13464,0.46863c0,0 0.20604,0.72115 -0.51511,0.92719z" fill="#a9a9a9"/><path d="M252.09376,185.31251c-0.75,0 -0.75,-0.75 -0.75,-0.75l0.00259,-0.31271c-0.06304,-0.75648 -0.10556,-1.45603 -0.2927,-2.19288c0,0 -0.1819,-0.72761 0.5457,-0.90951c0.72761,-0.1819 0.90951,0.5457 0.90951,0.5457c0.20174,0.81799 0.26251,1.59459 0.3323,2.43212l0.00259,0.43729c0,0 0,0.75 -0.75,0.75z" fill="#a9a9a9"/><path d="M230.96682,172.37329c-0.23266,0.25118 -0.53095,0.4243 -0.85947,0.54683l0.08737,0.2097l-0.73451,0.30605c-0.09291,0.04124 -0.19575,0.06414 -0.30394,0.06414c-0.41422,0 -0.75,-0.33578 -0.75,-0.75c0,-0.16332 0.05221,-0.31446 0.14085,-0.43762l0.23413,-0.33447c-0.05562,-0.67528 0.63598,-0.78168 0.63598,-0.78168l0.26145,-0.04022c0.06297,-0.07396 0.14963,-0.14304 0.26719,-0.20182c0.67082,-0.33541 1.00623,0.33541 1.00623,0.33541l0.00117,0.08575c0.08844,0.12308 0.14051,0.27404 0.14051,0.43716c0,0.15582 -0.04752,0.30054 -0.12885,0.42046z" fill="#d30000"/><path d="M232.7195,170.85517c0.12933,-0.23813 0.37641,-0.35044 0.37641,-0.35044c2.51586,-0.38861 1.9942,1.72822 -0.00045,1.73507l-0.6267,-0.80229c0,0 0,-0.36127 0.25074,-0.58234z" fill="#d30000"/><path d="M237.08042,175.57726c-0.70225,-0.26334 -0.4389,-0.96559 -0.4389,-0.96559l0.16214,-0.41856c0.0625,-0.25 0.125,-0.5 0.1875,-0.75c0,0 0.1819,-0.72761 0.90951,-0.5457c0.38951,0.09738 0.51838,0.35114 0.55403,0.56595c0.25789,0.26078 0.19136,0.65995 0.19136,0.65995l-0.30405,0.50117l0.00176,0.00053c0,0 0,0.47849 -0.38218,0.67109c-0.0285,0.04296 -0.06466,0.09013 -0.10912,0.1353l-0.04126,0.06802c-0.00428,-0.00597 -0.00857,-0.01194 -0.01284,-0.01791c-0.15437,0.12984 -0.3876,0.21963 -0.71793,0.09575z" fill="#d30000"/><path d="M238.19943,178.02382c-0.00789,0.05098 -0.01578,0.10196 -0.02367,0.15294l0.02061,0.00515l-0.2462,0.98478c-0.07579,0.33399 -0.37449,0.58332 -0.73141,0.58332c-0.41422,0 -0.75,-0.33578 -0.75,-0.75c0,-0.06861 0.00921,-0.13508 0.02647,-0.19822l0.1771,-0.70839c0.03922,-0.25664 0.07843,-0.51329 0.11765,-0.76994c0,0 0.11405,-0.74128 0.85532,-0.62723c0.51293,0.07891 0.61633,0.45815 0.63136,0.6843l0.05688,-0.00723c-0.00985,0.05881 -0.02746,0.11598 -0.05166,0.1711l0.06187,0.0181c0,0 0,0.24999 -0.14433,0.46131z" fill="#d30000"/><path d="M224.78126,177.31251c0,-0.10386 0.02111,-0.20279 0.05928,-0.29273c0.00448,-0.02686 0.00895,-0.05371 0.01343,-0.08057c0,0 0.1233,-0.73979 0.86309,-0.61649c0.29975,0.04996 0.4578,0.20112 0.53977,0.36328c0.01225,0.0084 0.02455,0.01724 0.03692,0.02652c0.6,0.45 0.15,1.05 0.15,1.05l-0.20486,-0.00875c-0.01012,0.06069 -0.02023,0.12137 -0.03035,0.18205l-0.11457,-0.12746c-0.13743,0.15585 -0.3386,0.25416 -0.56272,0.25416c-0.27411,0 -0.51388,-0.14705 -0.64471,-0.36657l-0.15758,-0.00673c0.01803,-0.10817 0.03605,-0.21633 0.05408,-0.3245c-0.00118,-0.01725 -0.00179,-0.03465 -0.00179,-0.0522z" fill="#d30000"/><path d="M226.65626,180.31251c0,0.32362 -0.13964,0.5076 -0.29842,0.6122l-0.01609,0.19302c-0.02827,0.38843 -0.35235,0.69478 -0.748,0.69478c-0.41422,0 -0.75,-0.33578 -0.75,-0.75c0,-0.02214 0.00096,-0.04406 0.00284,-0.06572l0.05966,-0.77559v-0.72119v0c0,-0.41422 0.33578,-0.75 0.75,-0.75c0.37944,0 0.69306,0.28177 0.74305,0.64747l0.05905,0.38383c0.11283,0.1111 0.1979,0.27862 0.1979,0.5312z" fill="#d30000"/><path d="M242.52566,175.29012c-0.72761,0.1819 -0.90951,-0.5457 -0.90951,-0.5457l-0.05581,-0.32276c-0.125,-0.22916 -0.25,-0.45834 -0.375,-0.6875c0,0 -0.35914,-0.65842 0.29928,-1.01756c0.65842,-0.35914 1.01756,0.29928 1.01756,0.29928c0.125,0.22916 0.25,0.45834 0.375,0.6875l0.19419,0.67724c0,0 0.1819,0.72761 -0.5457,0.90951z" fill="#d30000"/><path d="M243.90601,176.62754c0.42485,0.26643 0.29036,0.80437 0.29036,0.80437l-1.50162,0.30527c-0.08334,-0.25 -0.16666,-0.5 -0.25,-0.75c0,0 -0.23717,-0.71151 0.47434,-0.94868c0.71151,-0.23717 0.94868,0.47434 0.94868,0.47434c0.01274,0.03823 0.02549,0.07647 0.03823,0.1147z" fill="#d30000"/><path d="M245.55527,168.88784c0.23717,0.71151 -0.47434,0.94868 -0.47434,0.94868l-0.48695,0.0984c-0.25,-0.02084 -0.5,-0.04166 -0.75,-0.0625c0,0 -0.74741,-0.06229 -0.68512,-0.8097c0.06229,-0.74741 0.8097,-0.68512 0.8097,-0.68512c0.25,0.02084 0.5,0.04166 0.75,0.0625l-0.11195,-0.0266c0,0 0.71151,-0.23717 0.94868,0.47434z" fill="#d30000"/><path d="M247.79213,169.08063c-0.64312,0.38587 -1.02899,-0.25725 -1.02899,-0.25725l-0.2495,-0.5439l-0.10566,-0.09392c0,0 -0.56055,-0.49828 -0.06228,-1.05883c0.05952,-0.06696 0.11991,-0.1188 0.18014,-0.1582c0.13356,-0.2067 0.36601,-0.34353 0.63041,-0.34353c0.31812,0 0.58997,0.19805 0.69899,0.47758l0.29936,0.71848c0.04124,0.09291 0.06414,0.19575 0.06414,0.30394c0,0.10223 -0.02045,0.19967 -0.05749,0.28848c0.01833,0.21041 -0.0435,0.47176 -0.36914,0.66715z" fill="#d30000"/><path d="M250.72357,168.64905l0.00242,1.68375l-1.46788,-0.80177c0,0 -0.46852,-0.58565 0.11713,-1.05417c0.58565,-0.46852 1.05417,0.11713 1.05417,0.11713l-0.46788,0.44823l-0.62258,0.18375" fill="#d30000"/><path d="M253.2373,173.72116c-0.72115,0.20604 -0.92719,-0.51511 -0.92719,-0.51511l-0.14365,-0.52024c-0.04166,-0.25 -0.08334,-0.5 -0.125,-0.75c0,0 -0.1233,-0.73979 0.61649,-0.86309c0.73979,-0.1233 0.86309,0.61649 0.86309,0.61649c0.04166,0.25 0.08334,0.5 0.125,0.75l0.10635,0.35476c0,0 0.20604,0.72115 -0.51511,0.92719z" fill="#d30000"/><path d="M237.29012,177.84647c0.27855,0.69636 -0.41781,0.97491 -0.41781,0.97491l-0.72164,0.28125c-0.89882,0.22354 -1.80475,0.41967 -2.71274,0.60731c-0.02196,0.72164 -0.03232,1.44351 -0.03167,2.16508l-0.06829,0.59303c0,0 -0.09303,0.74421 -0.83724,0.65118c-0.74421,-0.09303 -0.65118,-0.83724 -0.65118,-0.83724l0.05671,-0.40697c0.00052,-0.61947 0.00858,-1.23904 0.02465,-1.85843c-0.64136,0.1299 -1.28236,0.26077 -1.92123,0.39929c-0.16595,1.12536 -0.29092,2.25488 -0.29092,3.39665v0.375c0,0 0,0.75 -0.75,0.75c-0.75,0 -0.75,-0.75 -0.75,-0.75v-0.375c0,-1.02059 0.10286,-2.03304 0.24602,-3.04208c-0.70112,0.17157 -1.39791,0.35905 -2.08795,0.57142c0,0 -0.71684,0.22056 -0.9374,-0.49627c-0.22056,-0.71684 0.49627,-0.9374 0.49627,-0.9374c0.91743,-0.28223 1.84606,-0.52044 2.78065,-0.73579c0.115,-0.68804 0.23338,-1.37566 0.33517,-2.06437c-0.8459,0.24798 -1.69156,0.5405 -2.54429,0.89681c0,0 -0.69231,0.28846 -0.98077,-0.40385c-0.28846,-0.69231 0.40385,-0.98077 0.40385,-0.98077c1.11373,-0.46263 2.21489,-0.82329 3.31904,-1.12025c0.08622,-0.93221 0.11404,-1.86852 0.03451,-2.81266c0,0 -0.06229,-0.74741 0.68512,-0.8097c0.74741,-0.06229 0.8097,0.68512 0.8097,0.68512c0.07115,0.86237 0.05584,1.71654 -0.01043,2.56596c0.49628,-0.11028 0.99458,-0.21132 1.4963,-0.30655c0.10727,-1.02443 0.24021,-2.04621 0.4009,-3.06409c0,0 0.11697,-0.74082 0.85779,-0.62385c0.74082,0.11697 0.62385,0.85779 0.62385,0.85779c-0.13405,0.84889 -0.24866,1.70083 -0.34483,2.5549c0.81278,-0.13857 1.63781,-0.27118 2.48071,-0.41166l0.38119,-0.19557c0,0 0.68536,-0.30461 0.98997,0.38075c0.30461,0.68536 -0.38075,0.98997 -0.38075,0.98997l-0.74381,0.30443c-0.98219,0.1637 -1.93951,0.31464 -2.88121,0.47723c-0.06002,0.69163 -0.10842,1.38432 -0.14569,2.07756c0.76428,-0.16162 1.52662,-0.33189 2.2842,-0.52218l0.52836,-0.21875c0,0 0.69636,-0.27855 0.97491,0.41781zM232.12171,176.37209c-0.51159,0.10069 -1.01997,0.20898 -1.52668,0.32896c-0.09763,0.71239 -0.21589,1.42289 -0.33352,2.13353c0.57455,-0.12024 1.15025,-0.23627 1.72591,-0.35295c0.03369,-0.70384 0.07823,-1.40716 0.13428,-2.10954z" fill="#a9a9a9"/><path d="M252.00979,178.31155c-0.62404,0.41602 -1.04006,-0.20802 -1.04006,-0.20802l-0.36539,-0.54843c-0.53062,-0.76036 -1.14908,-1.67397 -1.74562,-2.66122c-0.50743,0.24822 -1.01341,0.49993 -1.51229,0.76012c0.46726,1.01971 1.02759,1.91976 1.74561,2.53545l0.28922,0.36056c0,0 0.45,0.6 -0.15,1.05c-0.6,0.45 -1.05,-0.15 -1.05,-0.15l-0.08578,-0.13944c-0.84509,-0.7705 -1.4858,-1.81249 -2.01513,-2.96419c-0.64523,0.37239 -1.26906,0.76763 -1.85796,1.19769c0,0 -0.60655,0.44113 -1.04768,-0.16542c-0.44113,-0.60655 0.16542,-1.04768 0.16542,-1.04768c0.68544,-0.49668 1.41359,-0.94872 2.16584,-1.37353c-0.26672,-0.70845 -0.50782,-1.43281 -0.74184,-2.14079c-0.58585,0.35558 -1.12468,0.75365 -1.57754,1.2137c0,0 -0.53033,0.53033 -1.06066,0c-0.53033,-0.53033 0,-1.06066 0,-1.06066c0.6242,-0.61635 1.36406,-1.13076 2.15821,-1.58342c-0.16423,-0.47218 -0.3313,-0.92522 -0.50769,-1.34779c0,0 -0.28846,-0.69231 0.40385,-0.98077c0.69231,-0.28846 0.98077,0.40385 0.98077,0.40385c0.15641,0.376 0.3059,0.79276 0.45413,1.23588c0.3556,-0.16929 0.71501,-0.33133 1.07349,-0.48924c-0.17406,-0.63491 -0.27681,-1.25222 -0.28243,-1.83318c0,0 0,-0.75 0.75,-0.75c0.75,0 0.75,0.75 0.75,0.75c-0.00508,0.38866 0.04934,0.80472 0.15029,1.23806c0.22481,-0.09839 0.44668,-0.19672 0.66436,-0.29583l0.59994,-0.30054c0,0 0.67082,-0.33541 1.00623,0.33541c0.33541,0.67082 -0.33541,1.00623 -0.33541,1.00623l-0.65006,0.32446c-0.26476,0.12013 -0.53952,0.23918 -0.82063,0.35899c0.25581,0.63293 0.57409,1.27817 0.92084,1.90902c0.8213,-0.40228 1.63446,-0.80693 2.4178,-1.23421l0.27373,-0.1374c0,0 0.67082,-0.33541 1.00623,0.33541c0.33541,0.67082 -0.33541,1.00623 -0.33541,1.00623l-0.22627,0.1126c-0.76852,0.41919 -1.56934,0.8155 -2.37922,1.20946c0.5763,0.9312 1.16402,1.7822 1.63451,2.45202l0.38461,0.57657c0,0 0.41602,0.62404 -0.20802,1.04006zM246.06962,172.11631c0.22252,0.70754 0.45473,1.44029 0.71455,2.15264c0.44099,-0.22798 0.88646,-0.45025 1.33294,-0.67004c-0.35136,-0.65207 -0.67549,-1.3199 -0.94497,-1.98359c-0.36897,0.16001 -0.73893,0.32577 -1.10252,0.501z" fill="#a9a9a9"/><path d="M233.9323,167.26831c0.04907,0.02582 0.65423,0.36069 0.33228,1.00461c-0.33541,0.67082 -1.00623,0.33541 -1.00623,0.33541l-0.35014,-0.23504c-0.33276,-0.37469 -0.67778,-0.73875 -1.03227,-1.09295c0,0 -0.53033,-0.53033 0,-1.06066c0.53033,-0.53033 1.06066,0 1.06066,0c0.34069,0.34096 0.67327,0.69032 0.99571,1.04863z" fill="#5f6f87"/><path d="M240.00835,166.79583c-0.67082,-0.33541 -0.33541,-1.00623 -0.33541,-1.00623l0.11853,-0.16289c0.04166,-0.25 0.08334,-0.5 0.125,-0.75c0,0 0.1233,-0.73979 0.86309,-0.61649c0.73979,0.1233 0.61649,0.86309 0.61649,0.86309c-0.04166,0.25 -0.08334,0.5 -0.125,0.75l-0.25647,0.58711c0,0 -0.33541,0.67082 -1.00623,0.33541z" fill="#5f6f87"/><path d="M244.969,166.05909c-0.1819,-0.72761 0.5457,-0.90951 0.5457,-0.90951l0.00181,0.05068c0.20834,-0.14584 0.41666,-0.29166 0.625,-0.4375c0,0 0.61443,-0.43009 1.04452,0.18433c0.43009,0.61443 -0.18433,1.04452 -0.18433,1.04452c-0.20834,0.14584 -0.41666,0.29166 -0.625,0.4375l-0.49819,0.17568c0,0 -0.72761,0.1819 -0.90951,-0.5457z" fill="#5f6f87"/><path d="M253.56975,177.54968c-0.22855,-0.68564 0.42386,-0.93081 0.4716,-0.94773c0.12229,-0.13757 0.24457,-0.27515 0.36686,-0.41272c0,0 0.49828,-0.56055 1.05883,-0.06228c0.56055,0.49828 0.06228,1.05883 0.06228,1.05883c-0.16666,0.1875 -0.33334,0.375 -0.5,0.5625l-0.51089,0.27573c0,0 -0.71151,0.23717 -0.94868,-0.47434z" fill="#5f6f87"/><path d="M253.87593,181.78218c0.53033,-0.53033 1.06066,0 1.06066,0l-0.11168,0.04953c0.27084,0.0625 0.54166,0.125 0.8125,0.1875c0,0 0.7308,0.16864 0.56215,0.89944c-0.16865,0.7308 -0.89944,0.56215 -0.89944,0.56215c-0.27084,-0.0625 -0.54166,-0.125 -0.8125,-0.1875l-0.61168,-0.45047c0,0 -0.53033,-0.53033 0,-1.06066z" fill="#5f6f87"/><path d="M249.59376,191.62501c0,-0.25 0,-1.1875 0,-1.4375c0,0 0,-0.01907 0.00304,-0.05113l-0.0009,-0.25347c0,0 0.24628,-0.55413 0.7942,-0.44441c0.70366,0.03024 0.70366,0.74902 0.70366,0.74902c0,0.24159 0,0.48319 0,0.72478c0.17393,0.32066 0.28546,0.67553 0.3125,1.02522c0,0 0,0.75 -0.75,0.75c-0.37922,0 -0.5667,-0.19174 -0.65938,-0.38133c-0.40312,-0.18536 -0.40312,-0.68117 -0.40312,-0.68117z" fill="#5f6f87"/><path d="M241.48909,192.8171c0.74542,0.08283 0.66259,0.82824 0.66259,0.82824l-0.06812,0.60297c-0.04166,0.25 -0.08334,0.5 -0.125,0.75c0,0 -0.1233,0.73979 -0.86309,0.61649c-0.73979,-0.1233 -0.61649,-0.86309 -0.61649,-0.86309c0.04166,-0.25 0.08334,-0.5 0.125,-0.75l0.05688,-0.52203c0,0 0.08283,-0.74542 0.82824,-0.66259z" fill="#5f6f87"/><path d="M253.21876,186.50001c0.35531,0 0.54229,0.16833 0.6407,0.34549c0.13813,0.09669 0.27627,0.19339 0.4144,0.29008c0,0 0.61442,0.4301 0.18433,1.04452c-0.4301,0.61442 -1.04452,0.18433 -1.04452,0.18433c-0.20833,-0.14583 -0.41667,-0.29167 -0.625,-0.4375l-0.3199,-0.67692c0,0 0,-0.75 0.75,-0.75z" fill="#5f6f87"/><path d="M230.78126,192.68751c0,-0.41421 0.33579,-0.75 0.75,-0.75c0.41421,0 0.75,0.33579 0.75,0.75c0,0.41421 -0.33579,0.75 -0.75,0.75c-0.41421,0 -0.75,-0.33579 -0.75,-0.75z" fill="#5f6f87"/><path d="M229.86777,189.32534c0.23717,0.71151 -0.47434,0.94868 -0.47434,0.94868l0.00543,-0.03459c-0.20833,0.14583 -0.41667,0.29167 -0.625,0.4375c0,0 -0.61442,0.4301 -1.04452,-0.18433c-0.4301,-0.61442 0.18433,-1.04452 0.18433,-1.04452c0.20833,-0.14583 0.41667,-0.29167 0.625,-0.4375l0.38043,-0.15959c0,0 0.71151,-0.23717 0.94868,0.47434z" fill="#5f6f87"/><path d="M227.68027,186.73718c-0.23717,0.71151 -0.94868,0.47434 -0.94868,0.47434l-0.07363,-0.03422c-0.25,-0.04167 -0.5,-0.08333 -0.75,-0.125c0,0 -0.08801,-0.01467 -0.19826,-0.06424c-0.35025,-0.0632 -0.61594,-0.3696 -0.61594,-0.73805c0,-0.41421 0.33579,-0.75 0.75,-0.75c0.11791,0 0.22947,0.02721 0.32873,0.07569c0.24402,0.04067 0.48804,0.08134 0.73207,0.12201l0.30137,0.09078c0,0 0.71151,0.23717 0.47434,0.94868z" fill="#5f6f87"/><path d="M226.90626,183.75001c0,0.75 -0.75,0.75 -0.75,0.75l-0.1267,-0.0102c-0.25,0.04167 -0.5,0.08333 -0.75,0.125c0,0 -0.7398,0.1233 -0.86309,-0.6165c-0.1233,-0.7398 0.6165,-0.86309 0.6165,-0.86309c0.25,-0.04167 0.5,-0.08333 0.75,-0.125l0.3733,-0.0102c0,0 0.75,0 0.75,0.75z" fill="#5f6f87"/><path d="M227.21876,173.31251c0.41421,0 0.75,0.33579 0.75,0.75c0,0.41421 -0.33579,0.75 -0.75,0.75c-0.21535,0 -0.4095,-0.09076 -0.54629,-0.23612c-0.08273,0.03142 -0.17246,0.04862 -0.26621,0.04862c-0.41421,0 -0.75,-0.33579 -0.75,-0.75c0,-0.41421 0.33579,-0.75 0.75,-0.75c0.21535,0 0.4095,0.09076 0.54629,0.23612c0.08273,-0.03142 0.17246,-0.04862 0.26621,-0.04862z" fill="#5f6f87"/><path d="M231.95208,169.33542c-0.33541,0.67082 -1.00623,0.33541 -1.00623,0.33541l-0.28786,-0.17276c-0.1875,-0.16667 -0.375,-0.33333 -0.5625,-0.5c0,0 -0.56056,-0.49827 -0.06228,-1.05883c0.49827,-0.56056 1.05883,-0.06228 1.05883,-0.06228c0.1875,0.16667 0.375,0.33333 0.5625,0.5l-0.03786,-0.04776c0,0 0.67082,0.33541 0.33541,1.00623z" fill="#5f6f87"/></g></g></svg>