<svg version="1.1" xmlns="http://www.w3.org/2000/svg" xmlns:xlink="http://www.w3.org/1999/xlink" width="34.71975" height="25.24312" viewBox="0,0,34.71975,25.24312"><g transform="translate(-222.64013,-167.37844)"><g data-paper-data="{&quot;isPaintingLayer&quot;:true}" fill-rule="nonzero" stroke="none" stroke-width="0.5" stroke-linecap="butt" stroke-linejoin="miter" stroke-miterlimit="10" stroke-dasharray="" stroke-dashoffset="0" style="mix-blend-mode: normal"><path d="M223.25546,180.57795c-0.03926,-0.50314 0.21703,-0.9303 0.21703,-0.9303c2.19068,-3.62795 4.8086,-8.47671 8.5153,-10.85175c1.76303,-1.12965 3.35564,-0.2299 5.14516,-0.60621c1.19675,-0.25166 2.37329,-0.95708 3.58395,-0.78433c1.30219,0.18581 2.10325,1.5841 3.20842,2.29741c1.06362,0.6865 4.07516,0.21268 5.2328,0.2393c1.90549,1.11713 4.85806,4.73601 5.11082,7.21745c0.06372,0.62555 -0.42646,1.21625 -0.39611,1.8443c0.07563,1.56492 3.31489,2.6573 3.48056,4.1554c0.16265,1.47072 -2.77861,3.84343 -3.78139,4.69106c-1.37743,1.16431 -2.34714,2.75813 -4.14464,3.35198c-1.55918,0.51511 -3.30018,-0.15021 -4.80583,0.38212c-2.05771,0.72753 -3.1531,1.03425 -5.46466,1.03718c-2.68153,-0.0112 -4.8668,-0.8153 -7.37706,-1.61052c-4.97817,-1.57702 -10.45892,-2.63366 -8.85529,-9.42966zM226.1533,180.79323c-0.01029,0.25565 -0.07163,0.43967 -0.07163,0.43967l-0.35422,1.0492c-1.3083,4.84884 3.66347,4.96769 6.93867,5.97908c2.21952,0.6854 4.11653,1.48317 6.4908,1.47123c2.86842,0.00395 6.61315,-0.50081 9.37566,-1.27723c1.13124,-0.31794 2.3303,-2.09645 3.17452,-2.81151c0.76996,-0.65217 1.3525,-1.51022 2.14048,-2.14049c0.16533,-0.13224 0.76364,0.0592 0.62684,-0.10239c-1.02377,-1.20924 -3.09773,-1.7507 -3.45338,-3.93419c-0.10945,-0.67197 0.37393,-1.32706 0.37433,-2.00788c0.0005,-0.83324 -2.2477,-4.34135 -2.97877,-4.72431c-1.84923,0.06567 -4.24001,0.40533 -5.93853,-0.53114c-0.5772,-0.31824 -1.18709,-1.85599 -2.18465,-1.93999c-0.89291,-0.07518 -1.69955,0.58755 -2.57954,0.75654c-0.85338,0.16388 -3.31938,-0.45752 -4.10008,0.16423c-3.22173,2.5658 -5.37672,6.11738 -7.46051,9.60918z" fill="#26251b"/><path d="M233.57987,171.13727c0.7807,-0.62175 3.26634,-0.00956 4.11972,-0.17344c0.87999,-0.16899 1.70263,-0.83349 2.59554,-0.75831c0.99755,0.08399 1.62322,1.62444 2.20042,1.94267c1.69852,0.93647 4.11556,0.61413 5.96479,0.54846c0.73106,0.38296 2.99192,3.91627 2.99142,4.74951c-0.0004,0.68083 -0.48246,1.3457 -0.37302,2.01768c0.35564,2.1835 2.42814,2.74096 3.4519,3.9502c0.1368,0.16158 -0.46174,-0.0289 -0.62707,0.10334c-0.78798,0.63027 -1.3745,1.49924 -2.14446,2.15141c-0.84422,0.71507 -2.05429,2.50915 -3.18554,2.82709c-2.76251,0.77642 -6.55327,1.29805 -9.42168,1.2941c-2.37428,0.01194 -4.30464,-0.80018 -6.52416,-1.48558c-3.2752,-1.01139 -8.26566,-1.16432 -6.95736,-6.01316l0.35372,-1.05322c0,0 0.06122,-0.18582 0.07151,-0.44147c2.0838,-3.4918 4.26254,-7.09348 7.48427,-9.65928z" data-paper-data="{&quot;noHover&quot;:false,&quot;origItem&quot;:[&quot;Path&quot;,{&quot;applyMatrix&quot;:true,&quot;segments&quot;:[[[483.32901,330.02966],[3.60626,-6.04297],[-0.01781,0.44244]],[483.20504,330.79057],[[482.59202,332.60634],[0,0],[-2.26417,8.3915]],[[494.60022,342.95386],[-5.66812,-1.75034],[3.84115,1.18617]],[[505.83333,345.5],[-4.10897,0.02066],[4.96414,0.00683]],[[522.05903,343.2896],[-4.78085,1.34368],[1.95775,-0.55023]],[[527.55291,338.42394],[-1.46102,1.23751],[1.3325,-1.12865]],[[531.25727,334.71957],[-1.36369,1.09076],[0.28613,-0.22886]],[[532.34209,334.54238],[0.23675,0.27964],[-1.77175,-2.09273]],[[526.36561,327.73379],[0.61548,3.7788],[-0.18941,-1.16293]],[[527.01344,324.25891],[-0.0007,1.17825],[0.00086,-1.44202]],[[521.85833,316.08292],[1.26519,0.66276],[-3.20031,0.11365]],[[511.58099,315.16371],[2.93949,1.62068],[-0.99891,-0.55075]],[[507.8002,311.80633],[1.72638,0.14536],[-1.54528,-0.13011]],[[503.336,313.11561],[1.52292,-0.29246],[-1.47688,0.28362]],[[496.24032,313.39983],[1.3511,-1.07602],[-5.57559,4.44043]]],&quot;closed&quot;:true}]}" fill="#312f22"/><path d="M248.74606,179.2282c-1.34125,0.5365 -1.87775,-0.80475 -1.87775,-0.80475l-0.21946,-0.65991c-0.72827,-1.46679 -1.78106,-0.70158 -3.51977,-0.55571c0,0 -1.43958,0.11996 -1.55954,-1.31961c-0.11996,-1.43958 1.31961,-1.55955 1.31961,-1.55955c3.04849,-0.25243 4.09823,-0.68667 6.11069,1.7556l0.55097,1.26618c0,0 0.5365,1.34125 -0.80475,1.87775z" fill="#26251b"/><path d="M240.40886,173.84216c0,1.44457 -1.44457,1.44457 -1.44457,1.44457l0.15775,-0.04313c-2.11986,0.5164 -3.04927,1.18712 -5.32512,0.99734c0,0 -1.43573,-0.15953 -1.27621,-1.59526c0.15953,-1.43573 1.59526,-1.27621 1.59526,-1.27621c1.70264,0.26593 2.62299,-0.49932 4.30535,-0.92875l0.54297,-0.04313c0,0 1.44457,0 1.44457,1.44457z" fill="#26251b"/><path d="M250.0146,185.99871c-1.37044,0.45681 -1.82725,-0.91362 -1.82725,-0.91362l0.14558,-0.43698c-0.44942,-0.32102 -0.89884,-0.64203 -1.34826,-0.96305c0,0 -1.1755,-0.83964 -0.33586,-2.01513c0.83964,-1.17549 2.01513,-0.33585 2.01513,-0.33585c0.44942,0.32102 0.89884,0.64202 1.34826,0.96304l0.91602,1.87434c0,0 0.45681,1.37043 -0.91363,1.82725z" fill="#26251b"/><path d="M235.13431,179.54884c0.45681,1.37044 -0.91363,1.82725 -0.91363,1.82725l-0.38861,0.11424c-1.91865,0.95413 -2.58316,1.00893 -3.37076,2.95421c0,0 -0.5867,1.32006 -1.90676,0.73337c-1.32006,-0.5867 -0.73337,-1.90676 -0.73337,-1.90676c1.197,-2.53891 2.2386,-3.11877 4.71883,-4.36495l0.76704,-0.27098c0,0 1.37044,-0.45681 1.82725,0.91363z" fill="#26251b"/><path d="M244.95738,180.84769c-0.45681,1.37044 -1.82725,0.91363 -1.82725,0.91363l-1.07893,-0.36199c-0.383,-0.21758 -0.71524,-0.72951 -1.14898,-0.65274c-0.28583,0.05059 -0.04534,0.57877 -0.068,0.86815c0,0 -0.64603,1.29206 -1.93809,0.64603c-1.29206,-0.64603 -0.64603,-1.93809 -0.64603,-1.93809c0.49096,-0.73787 0.64304,-1.90238 1.47287,-2.2136c0.97661,-0.36627 2.05894,0.33528 3.08842,0.50292l1.23238,0.40845c0,0 1.37044,0.45681 0.91363,1.82725z" fill="#26251b"/><path d="M239.06062,184.43567c0,1.44457 -1.44457,1.44457 -1.44457,1.44457l-1.33483,-0.01115c-0.66514,-0.12922 -1.42898,0.02355 -1.99326,0.39865c0,0 -1.25423,0.71671 -1.97094,-0.53753c-0.71671,-1.25424 0.53753,-1.97094 0.53753,-1.97094c1.1399,-0.59675 2.50328,-0.86943 3.78502,-0.75701l0.97648,-0.01116c0,0 1.44457,0 1.44457,1.44457z" fill="#26251b"/><path d="M245.80194,186.74698c0,1.44457 -1.44457,1.44457 -1.44457,1.44457c-0.51363,0 -2.1829,0 -2.69653,0c0,0 -1.44457,0 -1.44457,-1.44457c0,-1.44457 1.44457,-1.44457 1.44457,-1.44457c0.51363,0 1.02724,0 1.54087,0h1.15566c0,0 1.44457,0 1.44457,1.44457z" fill="#26251b"/></g></g></svg>