<svg version="1.1" xmlns="http://www.w3.org/2000/svg" xmlns:xlink="http://www.w3.org/1999/xlink" width="42.10934" height="23.92741" viewBox="0,0,42.10934,23.92741"><g transform="translate(-238.27104,-168.83033)"><g data-paper-data="{&quot;isPaintingLayer&quot;:true}" fill-rule="nonzero" stroke="none" stroke-width="0.5" stroke-linecap="butt" stroke-linejoin="miter" stroke-miterlimit="10" stroke-dasharray="" stroke-dashoffset="0" style="mix-blend-mode: normal"><path d="M273.46325,191.22586c0.03872,0.09068 0.04809,0.20728 -0.01182,0.35275c-0.17763,0.43127 -0.6089,0.25365 -0.6089,0.25365l-0.42822,-0.96061c2.65183,-1.70922 2.15489,-5.91813 2.28772,-8.55875c0,0 0.02397,-0.4658 0.48976,-0.44183c0.4658,0.02397 0.44183,0.48976 0.44183,0.48976c-0.15196,2.88326 0.1964,6.71228 -2.17037,8.86502z" fill="#b70000"/><path d="M273.9293,192.28843c-0.00329,-0.0049 -0.00649,-0.00977 -0.00957,-0.01463c-0.09863,-0.03024 -0.18791,-0.09326 -0.24997,-0.18553c-0.12796,-0.19024 -0.09709,-0.44074 0.06195,-0.59489l0.36609,-0.36911c1.99006,-1.99035 2.81223,-5.32485 1.70578,-7.95122c0,0 -0.17935,-0.43055 0.25121,-0.60991c0.43055,-0.17935 0.60991,0.2512 0.60991,0.2512c0.90517,2.19406 0.66748,4.76224 -0.40772,6.87544c0.19749,-0.17073 0.39698,-0.33943 0.59853,-0.5066c0.34726,-0.40924 0.66859,-0.87559 1.08334,-1.48748l0.30837,-0.4525c0.03324,-0.05128 0.07716,-0.09684 0.13107,-0.1331c0.21375,-0.14377 0.50357,-0.08704 0.64733,0.12671c0.08624,0.12822 0.10033,0.28384 0.05165,0.41887l-0.16869,0.48427l-0.11607,-0.04043l-0.0828,0.12151c-0.03132,0.04568 -0.06262,0.09135 -0.09392,0.13698c-0.25954,0.62903 -0.71132,1.17355 -1.23615,1.68004c-0.50478,0.60071 -1.05988,1.12538 -1.72352,1.4944c-0.21409,0.18623 -0.42064,0.37394 -0.61256,0.56591l-0.46689,0.31676c0,0 -0.38702,0.26031 -0.64733,-0.12671z" fill="#b70000"/><path d="M277.35845,173.53934c-0.4386,0.15867 -0.59727,-0.27992 -0.59727,-0.27992l-0.0938,-0.30022c-0.51174,-0.76084 -1.00904,-1.81408 -1.78748,-2.34239c-0.07991,-0.05423 -0.17013,-0.09311 -0.26225,-0.12625c1.57319,2.51674 2.41797,5.08316 1.82602,8.13796c0,0 -0.0896,0.45773 -0.54733,0.36813c-0.45773,-0.0896 -0.36813,-0.54733 -0.36813,-0.54733c0.60564,-3.05959 -0.40205,-5.55301 -2.09102,-8.06414l-0.28923,-0.43002c-0.14376,-0.21374 -0.08704,-0.50357 0.12671,-0.64733c0.08854,-0.05955 0.19012,-0.0847 0.28898,-0.07854l0.51285,0.02638l-0.00818,0.15892c1.59736,0.1569 2.43324,1.62659 3.37311,3.02397l0.19697,0.5035c0,0 0.15867,0.4386 -0.27992,0.59727z" fill="#b70000"/><path d="M271.98611,170.54923c0.38702,-0.26031 0.64733,0.12671 0.64733,0.12671l0.05714,0.10116c1.80788,1.80735 2.11033,4.72773 2.23511,7.14027c0,0 0.02409,0.4658 -0.4417,0.48989c-0.4658,0.02409 -0.48989,-0.4417 -0.48989,-0.4417c-0.11123,-2.15052 -0.32145,-4.91577 -1.96043,-6.52615l-0.17425,-0.24286c0,0 -0.26031,-0.38702 0.12671,-0.64733z" fill="#b70000"/><path d="M273.79631,191.44693c0.0398,0.09322 0.04944,0.21312 -0.01216,0.36268c-0.18262,0.4434 -0.62603,0.26078 -0.62603,0.26078l-0.44027,-0.98765c2.72646,-1.75733 2.21554,-6.0847 2.35211,-8.79964c0,0 0.02464,-0.47892 0.50355,-0.45427c0.47892,0.02464 0.45427,0.50355 0.45427,0.50355c-0.15624,2.96441 0.20192,6.9012 -2.23146,9.11454z" fill="#ce0000"/><path d="M274.27549,192.53941c-0.00339,-0.00504 -0.00667,-0.01005 -0.00984,-0.01504c-0.1014,-0.0311 -0.19319,-0.09589 -0.257,-0.19076c-0.13156,-0.1956 -0.09982,-0.45315 0.06368,-0.61164l0.37639,-0.3795c2.04606,-2.04637 2.89138,-5.47472 1.75379,-8.17502c0,0 -0.1844,-0.44267 0.25827,-0.62708c0.44267,-0.1844 0.62708,0.25827 0.62708,0.25827c0.93064,2.25582 0.68627,4.89627 -0.41921,7.06896c0.20305,-0.17553 0.40815,-0.34898 0.61537,-0.52086c0.35704,-0.42077 0.68742,-0.90023 1.11384,-1.52934l0.31705,-0.46523c0.03417,-0.05273 0.07933,-0.09956 0.13476,-0.13684c0.21977,-0.14781 0.51773,-0.08949 0.66554,0.13028c0.08867,0.13183 0.10316,0.29182 0.05311,0.43066l-0.17344,0.49791l-0.11935,-0.04157l-0.08514,0.12492c-0.03221,0.04696 -0.06438,0.09392 -0.09657,0.14084c-0.26685,0.64674 -0.73134,1.20658 -1.27095,1.72733c-0.51899,0.61761 -1.08971,1.15706 -1.77203,1.53647c-0.22011,0.19147 -0.43247,0.38447 -0.6298,0.58185l-0.48004,0.32568c0,0 -0.39791,0.26763 -0.66554,-0.13028z" fill="#ce0000"/><path d="M277.80116,173.26261c-0.45095,0.16314 -0.61408,-0.2878 -0.61408,-0.2878l-0.09645,-0.30867c-0.52614,-0.78225 -1.03743,-1.86515 -1.8378,-2.40833c-0.08215,-0.05575 -0.17492,-0.09574 -0.26964,-0.12981c1.61747,2.58757 2.48603,5.22622 1.87741,8.36701c0,0 -0.09212,0.47061 -0.56273,0.37849c-0.47061,-0.09212 -0.37849,-0.56273 -0.37849,-0.56273c0.62269,-3.1457 -0.41337,-5.70931 -2.14987,-8.29111l-0.29737,-0.44212c-0.14781,-0.21976 -0.08948,-0.51773 0.13028,-0.66554c0.09103,-0.06122 0.19547,-0.08709 0.29711,-0.08074l0.52728,0.02712l-0.00841,0.16339c1.64231,0.16132 2.50173,1.67239 3.46805,3.1091l0.20251,0.51767c0,0 0.16314,0.45095 -0.2878,0.61408z" fill="#ce0000"/><path d="M272.2776,170.18833c0.39791,-0.26763 0.66554,0.13028 0.66554,0.13028l0.05874,0.10401c1.85876,1.85822 2.16972,4.8608 2.29801,7.34125c0,0 0.02478,0.47891 -0.45414,0.50367c-0.47891,0.02478 -0.50367,-0.45414 -0.50367,-0.45414c-0.11437,-2.21104 -0.3305,-5.05413 -2.01561,-6.70984l-0.17916,-0.24969c0,0 -0.26763,-0.39791 0.13028,-0.66554z" fill="#ce0000"/><path d="M274.95922,179.77373c-2.56133,-0.0768 -5.2465,-0.13036 -7.6245,-0.59584c-2.80915,0.36283 -5.97267,-0.28269 -8.79815,-0.37794c-0.93054,-0.03137 -1.78393,-0.38653 -2.7263,-0.26481c-1.19588,-0.23409 -2.57891,-0.25391 -3.79582,-0.29493c-0.27014,-0.00911 -0.53602,-0.43274 -0.7603,-0.28189c-0.23765,0.15984 0.19661,1.35006 0.5317,1.4497c0.9769,0.29048 2.53853,0.46576 3.54598,0.33565c1.88337,0.34915 3.99222,0.9346 5.90289,0.97623c1.73126,0.03771 3.60614,-0.03469 5.31378,0.32321c1.41665,-0.18297 2.99574,0.29592 4.41689,0.32688c2.3885,0.05203 4.7499,-0.15548 7.14207,-0.02928c0.09448,-0.01153 1.31384,0.08971 1.32019,0.08461c0.07779,-0.06254 -0.1156,-1.13928 -0.31159,-1.20704c-0.52013,-0.17984 -1.02676,-0.36174 -1.53327,-0.47848c-0.14518,0.13232 -0.3536,0.12159 -0.3536,0.12159c-0.56635,-0.03015 -1.14626,-0.05205 -1.73444,-0.07106c-0.01642,0.00565 -0.03287,0.01146 -0.04933,0.01741l-0.42089,-0.01466c0,0 -0.0264,-0.00517 -0.06528,-0.01936zM275.35226,178.85732c1.30155,-0.38168 2.99815,-0.15805 4.18085,0.52655c0.65561,0.37949 1.22299,2.08885 0.5324,2.7221c-0.42136,0.38638 -1.40231,0.09556 -1.92214,0.16688c-2.41394,-0.12173 -4.79825,0.1107 -7.20824,0.02948c-1.4253,-0.04805 -2.99833,-0.5101 -4.41689,-0.32688c-3.67203,-0.68074 -7.46201,-0.51251 -11.21668,-1.29944c-1.02225,0.13204 -3.78583,0.00652 -4.51786,-0.80352c-0.448,-0.49573 -0.71968,-2.23789 -0.05018,-2.6882c0.35684,-0.24001 0.9298,0.11528 1.31116,0.12359c1.21028,0.02637 2.60783,0.06238 3.79582,0.29493c0.94385,-0.12191 1.79997,0.24462 2.7263,0.26481c2.84416,0.06197 5.97309,0.74283 8.79815,0.37794c2.4899,0.48739 5.31801,0.53151 7.9873,0.61176z" fill="#b3b3b3"/><path d="M275.0556,179.79341l0.35871,0.01399c0.01646,-0.00596 0.09509,-0.01111 0.11152,-0.01676c0.58818,0.01901 1.16809,0.04104 1.73443,0.0712c0,0 0.20842,0.0104 0.35361,-0.12191c0.50651,0.11674 1.01312,0.29971 1.53325,0.47954c0.19599,0.06776 0.38917,1.14711 0.31139,1.20965c-0.00635,0.0051 -1.22572,-0.09595 -1.32022,-0.08443c-2.39216,-0.12619 -4.75461,0.0862 -7.1431,0.03418c-1.42114,-0.03096 -3.00927,-0.49559 -4.42592,-0.31261c-1.70765,-0.3579 -3.63346,-0.30109 -5.36471,-0.33881c-1.91068,-0.04162 -4.02045,-0.63447 -5.90383,-0.98362c-1.00744,0.13013 -2.56907,-0.04598 -3.54597,-0.33645c-0.33509,-0.09964 -0.76913,-1.293 -0.53147,-1.45285c0.22428,-0.15085 0.55193,0.27995 0.82206,0.28906c1.2169,0.04102 2.53816,0.05371 3.73404,0.2878c0.94238,-0.12172 1.7958,0.23315 2.72635,0.26452c2.82549,0.09523 6.04993,0.73704 8.85909,0.3742c2.378,0.46548 5.06416,0.52707 7.62549,0.60387c0.03888,0.0142 0.06528,0.01942 0.06528,0.01942z" data-paper-data="{&quot;noHover&quot;:false,&quot;origItem&quot;:[&quot;Path&quot;,{&quot;applyMatrix&quot;:true,&quot;segments&quot;:[[[242.54591,170.80006],[0.05383,-0.03914],[-2.40109,3.34861]],[[234.90843,180.43854],[2.75517,-2.75517],[-2.0369,4.0738]],[[226.50843,191.83854],[2.66275,-3.68452],[-0.87695,1.21345]],[[223.70843,195.23854],[0.68331,-1.36663],[-1.38556,1.38556]],[[219.90843,200.03854],[1.14682,-1.58688],[-0.25458,0.35226]],[[218.85,200.8],[0,-0.43463],[0,0.46053]],[[221.26147,201.39157],[-0.43366,0.35769],[1.26427,-1.04278]],[[224.89157,196.96147],[-0.73049,1.46098],[2.15606,-2.1996]],[[231.49157,189.96147],[-1.77024,2.51202],[1.604,-2.27613]],[[236.69157,183.16147],[-2.01003,1.95729],[1.02721,-2.05441]],[[241.09157,177.56147],[-1.31668,1.86841],[2.21293,-3.14022]],[[247.46201,168.0057],[-2.31518,3.07855],[0.0694,-0.13641]],[[248.75969,166.32014],[0.00111,0.01306],[-0.01363,-0.15992]],[[246.86953,165.65265],[0.2663,-0.20069],[-0.70673,0.53261]],[[244.8551,167.26907],[0.61032,-0.57107],[0.04626,0.31246]],[[244.7,167.85],[0,0],[-0.54849,0.7286]],[[243.04865,170.10045],[0.55321,-0.76772],[-0.0072,0.02699]],[[243.02761,170.1819],[0.00682,-0.02731],[0,0]],[242.63033,170.73033]],&quot;closed&quot;:true}]}" fill="#d3d3d3"/><path d="M276.11504,178.95076c0.38934,0.69444 0.81068,0.54163 0.85156,1.42721c0.03385,0.7332 -0.17701,1.36927 -0.25082,2.01219c-0.01245,0.10846 0.02788,0.28449 0.08934,0.43899c-0.49021,-0.08732 -1.38688,-0.00533 -1.4996,0.01626c-1.64552,-0.1338 -1.46196,-1.07286 -1.53615,-2.52675c-0.00616,-0.12068 0.11954,-0.93335 0.11195,-1.42802c0.1565,0.13149 0.34566,0.23511 0.47509,0.20845c0.3375,-0.06951 0.60554,-0.38301 0.74548,-0.6979c0.05756,-0.12951 0.05872,-0.3152 0.02209,-0.53229c0.24825,0.10116 0.49934,0.19963 0.75256,0.29477c0.03434,0.28008 0.1037,0.54667 0.23848,0.78708z" data-paper-data="{&quot;noHover&quot;:false,&quot;origItem&quot;:[&quot;Path&quot;,{&quot;applyMatrix&quot;:true,&quot;segments&quot;:[[[456.00275,327.98003],[0,0],[-0.53821,1.65636]],[[455.07251,333.79221],[-0.29314,-1.49187],[0.0485,0.24682]],[[462.27566,332.57698],[-0.73412,0.24471],[3.38454,-1.12818]],[[473.25,332],[-3.55565,0],[1.94416,0]],[[483.31066,333.93934],[-1.2758,-1.70778],[0.66323,0.88779]],[[484.09164,337.17082],[0.33579,-1.05607],[-0.12879,0.40505]],[[482.75168,338.19383],[0.615,-0.2322],[1.3996,0.75665]],[[486.40903,340.65253],[-0.34824,-0.17253],[4.19514,2.07845]],[[495.90253,340.34097],[-2.96326,4.40562],[0.11672,-0.35016]],[[498.21158,336.13014],[-1.01589,1.23783],[-0.53009,-0.07057]],[[496.83951,335.69206],[0.28466,0.2055],[-1.68748,-1.21818]],[[491.59097,331.84747],[2.11003,1.05814],[-2.54857,-1.27805]],[[486.25,332],[2.56038,0],[-3.84057,0]],[[475.50973,327.98063],[3.72311,-0.1283],[-6.0136,-2.00453]],[[456.72434,327.92302],[6.01838,-2.00613],[0,0]]],&quot;closed&quot;:true}]}" fill="#d3d3d3"/><path d="M278.00849,180.52254c-0.10276,0.77085 -0.24784,1.66018 0.01154,2.39174c0,0 0.01563,0.04818 0.0207,0.11795c0.07103,0.10772 0.06063,0.26136 -0.16341,0.53659c-0.03384,0.04157 -0.08089,0.07557 -0.1387,0.10321c-0.91724,-0.20563 -2.08191,-0.24819 -3.23365,-0.14381c-0.31596,-0.25629 -0.64341,-0.44987 -0.9739,-0.55918c-0.02373,-0.00785 -0.0474,-0.01563 -0.071,-0.02331c-0.63545,-0.74043 -0.67391,-1.91453 -0.57722,-3.22676c0.02861,-0.38838 0.00454,-1.86233 0.36636,-2.04765c0.12034,-0.06163 0.47296,-0.03446 0.7409,0.09114c-0.01256,-0.0286 -0.02436,-0.05631 -0.03514,-0.08243c0.34477,0.07921 0.7001,0.12682 1.06071,0.1445c0.04085,0.01683 0.08177,0.03359 0.12278,0.05027c0.03978,0.22662 0.04031,0.41963 -0.01836,0.55162c-0.13994,0.31489 -0.42022,0.6337 -0.75771,0.70321c-0.12944,0.02666 -0.32473,-0.07638 -0.48122,-0.20787c0.0076,0.49467 -0.11688,1.24515 -0.11073,1.36584c0.07419,1.45389 -0.11744,2.39372 1.52808,2.52752c0.11272,-0.02158 1.003,-0.10134 1.4932,-0.01402c-0.06146,-0.15451 -0.10227,-0.3303 -0.08982,-0.43876c0.07381,-0.64292 0.27853,-1.27496 0.24466,-2.00816c-0.04089,-0.88558 -0.46419,-0.73098 -0.85352,-1.42543c-0.1334,-0.23795 -0.20284,-0.49943 -0.23773,-0.77306c0.36362,0.13695 0.73169,0.26709 1.10215,0.38862c0.17371,0.20462 0.55728,0.37695 0.67668,0.5899c0.16201,0.28898 0.24269,0.64137 0.27041,1.0162z" fill="#b3b3b3"/><path d="M273.61888,178.5863c-0.11009,0.32213 -0.04682,1.40967 -0.04659,1.61345c0.00208,1.84188 0.65341,3.12432 2.69985,2.62671c0.2394,0.01232 0.70755,0.36085 0.70888,0.12114c0.00296,-0.5368 0.09477,-3.33298 -0.32453,-3.9494c-0.08637,0.05527 -0.1844,0.07853 -0.27989,0.07257l-0.51285,-0.02638c-0.82587,-0.04248 -1.49876,-0.2119 -2.24485,-0.45808zM273.4567,177.55473c0.5943,-0.24864 1.32022,-0.11939 1.96426,0.16507c0.64014,0.04418 1.28165,0.10647 1.72885,0.4567c0.91438,0.7161 0.65552,2.95233 0.59812,3.98498c-0.02392,0.4302 0.27163,0.94528 0.01651,1.29249c-0.31357,0.42678 -0.98601,0.32454 -1.41767,0.30233c-0.63116,0.12155 -2.4563,-0.00539 -2.97464,-0.48844c-0.7682,-0.71591 -1.19089,-4.28617 -0.45231,-5.31762c0.00528,-0.0285 0.01318,-0.05841 0.02411,-0.08977c0.11225,-0.32224 0.37813,-0.3266 0.51277,-0.30573z" fill="#b3b3b3"/><path d="M240.14864,183.09131c-0.25521,0 -0.48064,-0.12747 -0.61611,-0.32221l-0.44874,-0.62823l0.02209,-0.01578l-0.05432,-0.0333c-0.98855,-1.97025 -1.30292,-3.74236 0.66115,-5.17897c0,0 0.16617,-0.1187 0.38704,-0.1455c0.09755,-0.12753 0.2558,-0.23392 0.51152,-0.26234c0.15288,-0.01699 0.27789,0.00087 0.38003,0.03998c0.10281,-0.07208 0.22453,-0.11902 0.35624,-0.13189l0.80919,-0.08991l0.00213,0.01921l0.03921,-0.02265c0.23186,0 0.46372,0 0.69558,0c0.61364,-0.15423 1.49513,-0.0009 2.16407,-0.00115c1.04603,-0.00039 2.03696,0.09887 3.00696,0.24051c0.12583,-0.16816 0.29399,-0.25224 0.29399,-0.25224l0.4344,-0.1655c2.06345,-0.2265 3.86448,-0.06835 5.15301,1.22068l0.18742,-0.18742l0.54545,0.54545v0c0.07967,0.07967 0.14149,0.17717 0.17897,0.28601c0.40958,0.18061 0.73106,0.46264 0.84452,0.91646c0.48087,1.92344 -3.86375,3.37312 -5.0308,3.76213c-2.40739,0.89701 -5.02485,0.81756 -7.5645,0.67822c-0.74856,-0.04107 -1.82629,0.04724 -2.53548,-0.40219c-0.12042,0.08241 -0.2661,0.13061 -0.42304,0.13061z" fill="#0060b9"/><path d="M239.86923,182.58543c0.25619,-0.70489 0.96108,-0.4487 0.96108,-0.4487l0.66084,0.2408c3.84556,1.23004 6.97889,0.53304 10.65995,-0.98985c0.65466,-0.27084 3.79063,-2.60406 2.61346,-3.04107c-2.7393,-1.66877 -6.18384,-1.16877 -9.28211,-1.18633c-1.62498,-0.00921 -3.15947,-0.31879 -4.72945,0.2536c0,0 -0.70599,0.25314 -0.95913,-0.45285c-0.25314,-0.70599 0.45285,-0.95913 0.45285,-0.95913c1.7705,-0.62606 3.42907,-0.35152 5.25282,-0.34153c3.46096,0.01897 7.04289,-0.4129 10.10892,1.44614c1.92298,1.7607 -0.04398,4.09919 -1.90123,5.22978c-3.79493,2.31017 -8.53548,2.78957 -12.67246,1.47012l-0.71685,-0.25991c0,0 -0.70489,-0.25619 -0.4487,-0.96107z" fill="#00488c"/></g></g></svg>