<svg version="1.1" xmlns="http://www.w3.org/2000/svg" xmlns:xlink="http://www.w3.org/1999/xlink" width="52.75" height="52.75" viewBox="0,0,52.75,52.75"><g transform="translate(-213.625,-153.625)"><g stroke-miterlimit="10"><path d="M214.875,205.125v-50.25h50.25v50.25z" fill="#7f7f7f" stroke="#5e5e5e" stroke-width="2.5" stroke-linecap="butt"/><path d="M221.5625,198.60249v-8.5h36.875v8.5z" fill="#8c8c8c" stroke="#707070" stroke-width="1.5" stroke-linecap="butt"/><path d="M221.5625,198.60249v-26.375h36.875v26.375z" fill="#707070" stroke="#5a5a5a" stroke-width="1.5" stroke-linecap="butt"/><path d="M221.5625,178.35249v-17.26605h36.875v17.26605z" fill="#707070" stroke="#5a5a5a" stroke-width="1.5" stroke-linecap="butt"/><path d="M232.1875,198.60249v-16.72749h15.625v16.72749z" fill="#8c8c8c" stroke="#5a5a5a" stroke-width="1.5" stroke-linecap="butt"/><path d="M244.82895,192.85854v2.25h-4.875" fill="none" stroke="#5a5a5a" stroke-width="1.5" stroke-linecap="round"/><path d="M221.5625,198.60249v-8.5h36.875v8.5z" fill="#8c8c8c" stroke="#707070" stroke-width="1.5" stroke-linecap="butt"/><path d="M221.5625,198.60249v-26.375h36.875v26.375z" fill="#707070" stroke="#5a5a5a" stroke-width="1.5" stroke-linecap="butt"/><path d="M221.5625,178.35249v-17.26605h36.875v17.26605z" fill="#707070" stroke="#5a5a5a" stroke-width="1.5" stroke-linecap="butt"/><path d="M232.70125,196.72749v-15.62749h14.5975v15.62749z" fill="#8c8c8c" stroke="#5a5a5a" stroke-width="1.5" stroke-linecap="butt"/><path d="M244.26923,188.89943c0,1.94023 -1.8253,3.51309 -4.07692,3.51309c-2.25162,0 -4.07692,-1.57286 -4.07692,-3.51309c0,-1.94023 1.8253,-3.51309 4.07692,-3.51309c2.25162,0 4.07692,1.57286 4.07692,3.51309z" fill="none" stroke="#5a5a5a" stroke-width="1.5" stroke-linecap="butt"/><path d="M240.11539,184.25868v4.23077l5,0.15385" fill="none" stroke="#5a5a5a" stroke-width="1.5" stroke-linecap="round"/><path d="M240.57693,188.3356l3.15385,-3.07692" fill="none" stroke="#5a5a5a" stroke-width="1.5" stroke-linecap="round"/><path d="M244.34616,193.02791l-4.07693,-4.23077l0.07693,5.46154" fill="none" stroke="#5a5a5a" stroke-width="1.5" stroke-linecap="round"/><path d="M235.11539,188.64329h4.69231l-4.15385,-3.15385" fill="none" stroke="#5a5a5a" stroke-width="1.5" stroke-linecap="round"/><path d="M239.88462,188.87406l-3.38461,4.15385" fill="none" stroke="#5a5a5a" stroke-width="1.5" stroke-linecap="round"/></g></g></svg>