<svg version="1.1" xmlns="http://www.w3.org/2000/svg" xmlns:xlink="http://www.w3.org/1999/xlink" width="187.93294" height="140.17012" viewBox="0,0,187.93294,140.17012"><g transform="translate(62.60332,-100.1197)"><g data-paper-data="{&quot;isPaintingLayer&quot;:true}" fill-rule="nonzero" stroke-linecap="butt" stroke-linejoin="miter" stroke-miterlimit="10" stroke-dasharray="" stroke-dashoffset="0" style="mix-blend-mode: normal"><path d="M6,160.32007v-39.35988h39.35988v39.35988z" fill="#7f7f7f" stroke="#5e5e5e" stroke-width="2.5"/><path d="M6,199.67994v-39.35987h39.35987v39.35987z" fill="#7f7f7f" stroke="#5e5e5e" stroke-width="2.5"/><path d="M6,239.03982v-39.35987h39.35987v39.35987z" fill="#7f7f7f" stroke="#5e5e5e" stroke-width="2.5"/><path d="M45.35988,160.32007v-39.35987h39.35987v39.35987z" fill="#7f7f7f" stroke="#5e5e5e" stroke-width="2.5"/><path d="M45.35988,199.67994v-39.35987h39.35987v39.35987z" fill="#7f7f7f" stroke="#5e5e5e" stroke-width="2.5"/><path d="M45.35988,239.03982v-39.35987h39.35987v39.35987z" fill="#7f7f7f" stroke="#5e5e5e" stroke-width="2.5"/><path d="M84.71975,160.32007v-39.35988h39.35987v39.35988z" fill="#7f7f7f" stroke="#5e5e5e" stroke-width="2.5"/><path d="M84.71975,199.67994v-39.35988h39.35987v39.35988z" fill="#7f7f7f" stroke="#5e5e5e" stroke-width="2.5"/><path d="M84.71975,239.03982v-39.35987h39.35987v39.35987z" fill="#7f7f7f" stroke="#5e5e5e" stroke-width="2.5"/><path d="M55.03712,143.56673c0.00085,-1.63886 -0.95064,-3.4505 -0.20641,-4.90966c1.50153,-2.94397 4.58354,-0.29303 6.10438,-1.36136c2.00933,-1.41148 -0.82929,-4.19124 2.07908,-5.80726c1.71893,-0.95512 6.21191,-0.66697 7.7585,0.86175c0.73543,0.72694 0.69021,2.14577 1.58264,2.66815c0.56682,0.33178 1.39802,0.24517 1.82405,0.74503c0.70393,0.82591 1.46796,1.8895 1.33984,2.96711c-0.13635,1.14685 -2.3133,1.24703 -2.51381,2.38442c-0.08254,0.4682 0.17292,0.93499 0.25937,1.40248c-0.5124,1.40153 -2.00902,4.97922 -3.3119,5.83344c-1.59288,1.04436 -6.78316,1.31353 -8.80974,1.7027c-0.86407,0.16593 -1.81218,0.46411 -2.63514,0.15285c-1.21345,-0.45895 -2.30022,-2.79793 -2.86076,-3.79982l-0.65327,-1.30326c0,0 -0.41839,-0.83677 0.04318,-1.53656zM58.01894,144.20311l0.34587,0.69367c0.44044,0.79926 0.44069,2.06979 1.28432,2.41779c0.37186,0.15339 3.63124,-1.29063 4.00634,-1.34038c3.78337,-0.50182 4.8985,0.2841 6.52183,-3.82036c-0.1663,-2.05138 0.02611,-3.53187 2.30515,-4.08874c0.60269,-0.14726 -1.29945,-0.08073 -1.8102,-0.43294c-2.53536,-1.74842 -2.00069,-4.52962 -5.99564,-3.51673c-0.68936,0.17478 0.10039,1.4602 -0.14202,2.12878c-0.47083,1.29858 -0.84071,2.81313 -1.92398,3.67017c-1.1561,0.91466 -2.93008,0.36826 -4.40373,0.4072c-0.23074,0.0061 -0.67321,-0.34112 -0.6836,-0.11052c-0.05136,1.14057 0.61925,2.22637 0.62263,3.36809c0,0 0,0.29265 -0.12698,0.62398z" fill="#d6b991" stroke="none" stroke-width="0.5"/><path d="M58.08877,143.60364c-0.00338,-1.14172 -0.67894,-2.25535 -0.62758,-3.39592c0.01038,-0.23059 0.57706,0.12257 0.8078,0.11647c1.47366,-0.03894 3.12571,0.48778 4.28182,-0.42688c1.08327,-0.85704 1.50553,-2.41628 1.97636,-3.71486c0.24241,-0.66858 -0.54358,-1.95433 0.14578,-2.12911c3.99495,-1.01289 3.51886,1.80122 6.05421,3.54964c0.51075,0.35222 2.41677,0.29465 1.81409,0.44192c-2.27903,0.55687 -2.47072,2.07548 -2.30442,4.12686c-1.62333,4.10446 -2.81374,3.36076 -6.59712,3.86257c-0.37511,0.04975 -3.65778,1.48201 -4.02965,1.32861c-0.84362,-0.34799 -0.85719,-1.6334 -1.29763,-2.43265l-0.3489,-0.69895c0.12698,-0.33133 0.12523,-0.62771 0.12523,-0.62771z" data-paper-data="{&quot;noHover&quot;:false,&quot;origItem&quot;:[&quot;Path&quot;,{&quot;applyMatrix&quot;:true,&quot;segments&quot;:[[[341.12911,333.00357],[0.20422,-0.53289],[0,0]],[[341.68539,334.11923],[0,0],[0.70838,1.28547]],[[343.751,338.00784],[-1.35683,-0.55969],[0.59808,0.24671]],[[350.19454,335.85206],[-0.6033,0.08002],[6.08493,-0.80709]],[[360.68382,329.70765],[-2.61086,6.60134],[-0.26747,-3.29931]],[[364.39127,323.13159],[-3.66545,0.89563],[0.96932,-0.23685]],[[361.47987,322.43527],[0.82145,0.56648],[-4.0777,-2.81204]],[[351.83687,316.77919],[6.42522,-1.62907],[-1.10872,0.28111]],[[351.60846,320.20298],[0.38987,-1.0753],[-0.75725,2.08855]],[[348.51405,326.10584],[1.74226,-1.37841],[-1.8594,1.47108]],[[341.43138,326.76075],[2.37013,-0.06263],[-0.37111,0.00981]],[[340.33193,326.58299],[0.0167,-0.37087],[-0.08261,1.83441]],[[341.33333,332],[-0.00544,-1.83626],[0,0]]],&quot;closed&quot;:true}]}" fill="#e5c69b" stroke="none" stroke-width="0.5"/><path d="M66.61313,138.49538c-0.30484,1.52422 -1.82906,1.21937 -1.82906,1.21937l-0.11912,-0.30275c-0.48359,0.20725 -0.96718,0.41451 -1.45078,0.62176c0,0 -1.42872,0.61231 -2.04103,-0.81641c-0.61231,-1.42872 0.81641,-2.04103 0.81641,-2.04103c0.48359,-0.20725 0.96718,-0.41451 1.45078,-0.62176l1.95342,0.11176c0,0 1.52422,0.30484 1.21937,1.82906z" fill="#d6b991" stroke="none" stroke-width="0.5"/><path d="M65.86852,143.41304c0.9951,1.19413 -0.19902,2.18923 -0.19902,2.18923l-0.92208,0.6685c-0.07435,0.40289 -0.14871,0.80578 -0.22306,1.20867c0,0 -0.377,1.50799 -1.88499,1.13099c-1.50799,-0.377 -1.13099,-1.88499 -1.13099,-1.88499c0.20198,-0.70246 0.40397,-1.40493 0.60595,-2.10739l1.56497,-1.40403c0,0 1.19413,-0.9951 2.18923,0.19902z" fill="#d6b991" stroke="none" stroke-width="0.5"/><path d="M92.58732,182.92659c0.00085,-1.63886 -0.95064,-3.4505 -0.20641,-4.90966c1.50153,-2.94397 4.58354,-0.29303 6.10438,-1.36136c2.00933,-1.41148 -0.82929,-4.19124 2.07908,-5.80726c1.71893,-0.95512 6.21191,-0.66697 7.7585,0.86175c0.73543,0.72694 0.69021,2.14577 1.58264,2.66815c0.56682,0.33178 1.39802,0.24517 1.82405,0.74503c0.70393,0.82591 1.46796,1.8895 1.33984,2.96711c-0.13635,1.14685 -2.3133,1.24703 -2.51381,2.38442c-0.08254,0.4682 0.17292,0.93499 0.25937,1.40248c-0.5124,1.40153 -2.00902,4.97922 -3.3119,5.83344c-1.59288,1.04436 -6.78316,1.31353 -8.80974,1.7027c-0.86407,0.16593 -1.81218,0.46411 -2.63514,0.15285c-1.21345,-0.45895 -2.30022,-2.79793 -2.86076,-3.79982l-0.65327,-1.30326c0,0 -0.41839,-0.83677 0.04318,-1.53656zM95.56913,183.56297l0.34587,0.69367c0.44044,0.79926 0.44069,2.06979 1.28432,2.41779c0.37186,0.15339 3.63124,-1.29063 4.00634,-1.34038c3.78337,-0.50182 4.8985,0.2841 6.52183,-3.82036c-0.1663,-2.05138 0.02611,-3.53187 2.30515,-4.08874c0.60269,-0.14726 -1.29945,-0.08073 -1.8102,-0.43294c-2.53536,-1.74842 -2.00069,-4.52962 -5.99564,-3.51673c-0.68936,0.17478 0.10039,1.4602 -0.14202,2.12878c-0.47083,1.29858 -0.84071,2.81313 -1.92398,3.67017c-1.1561,0.91466 -2.93008,0.36826 -4.40373,0.4072c-0.23074,0.0061 -0.67321,-0.34112 -0.6836,-0.11052c-0.05136,1.14057 0.61925,2.22637 0.62263,3.36809c0,0 0,0.29265 -0.12698,0.62398z" fill="#92d6ab" stroke="none" stroke-width="0.5"/><path d="M95.63893,182.96351c-0.00338,-1.14172 -0.67894,-2.25535 -0.62758,-3.39592c0.01038,-0.23059 0.57706,0.12257 0.8078,0.11647c1.47366,-0.03894 3.12571,0.48778 4.28182,-0.42688c1.08327,-0.85704 1.50553,-2.41628 1.97636,-3.71486c0.24241,-0.66858 -0.54358,-1.95433 0.14578,-2.12911c3.99495,-1.01289 3.51886,1.80122 6.05421,3.54964c0.51075,0.35222 2.41677,0.29465 1.81409,0.44192c-2.27903,0.55687 -2.47072,2.07548 -2.30442,4.12686c-1.62333,4.10446 -2.81374,3.36076 -6.59712,3.86257c-0.37511,0.04975 -3.65778,1.48201 -4.02965,1.32861c-0.84362,-0.34799 -0.85719,-1.6334 -1.29763,-2.43265l-0.3489,-0.69895c0.12698,-0.33133 0.12523,-0.62771 0.12523,-0.62771z" data-paper-data="{&quot;noHover&quot;:false,&quot;origItem&quot;:[&quot;Path&quot;,{&quot;applyMatrix&quot;:true,&quot;segments&quot;:[[[341.12911,333.00357],[0.20422,-0.53289],[0,0]],[[341.68539,334.11923],[0,0],[0.70838,1.28547]],[[343.751,338.00784],[-1.35683,-0.55969],[0.59808,0.24671]],[[350.19454,335.85206],[-0.6033,0.08002],[6.08493,-0.80709]],[[360.68382,329.70765],[-2.61086,6.60134],[-0.26747,-3.29931]],[[364.39127,323.13159],[-3.66545,0.89563],[0.96932,-0.23685]],[[361.47987,322.43527],[0.82145,0.56648],[-4.0777,-2.81204]],[[351.83687,316.77919],[6.42522,-1.62907],[-1.10872,0.28111]],[[351.60846,320.20298],[0.38987,-1.0753],[-0.75725,2.08855]],[[348.51405,326.10584],[1.74226,-1.37841],[-1.8594,1.47108]],[[341.43138,326.76075],[2.37013,-0.06263],[-0.37111,0.00981]],[[340.33193,326.58299],[0.0167,-0.37087],[-0.08261,1.83441]],[[341.33333,332],[-0.00544,-1.83626],[0,0]]],&quot;closed&quot;:true}]}" fill="#9ce6c9" stroke="none" stroke-width="0.5"/><path d="M104.16329,177.85524c-0.30484,1.52422 -1.82906,1.21937 -1.82906,1.21937l-0.11912,-0.30275c-0.48359,0.20725 -0.96718,0.41451 -1.45078,0.62176c0,0 -1.42872,0.61231 -2.04103,-0.81641c-0.61231,-1.42872 0.81641,-2.04103 0.81641,-2.04103c0.48359,-0.20725 0.96718,-0.41451 1.45078,-0.62176l1.95342,0.11176c0,0 1.52422,0.30484 1.21937,1.82906z" fill="#92d6ab" stroke="none" stroke-width="0.5"/><path d="M103.41872,182.7729c0.9951,1.19413 -0.19902,2.18923 -0.19902,2.18923l-0.92208,0.6685c-0.07435,0.40289 -0.14871,0.80578 -0.22306,1.20867c0,0 -0.377,1.50799 -1.88499,1.13099c-1.50799,-0.377 -1.13099,-1.88499 -1.13099,-1.88499c0.20198,-0.70246 0.40397,-1.40493 0.60595,-2.10739l1.56497,-1.40403c0,0 1.19413,-0.9951 2.18923,0.19902z" fill="#92d6ab" stroke="none" stroke-width="0.5"/><path d="M15.67724,182.9266c0.00085,-1.63886 -0.95064,-3.4505 -0.20641,-4.90966c1.50153,-2.94397 4.58354,-0.29303 6.10438,-1.36136c2.00933,-1.41148 -0.82929,-4.19124 2.07908,-5.80726c1.71893,-0.95512 6.21191,-0.66697 7.7585,0.86175c0.73543,0.72694 0.69021,2.14577 1.58264,2.66815c0.56682,0.33178 1.39802,0.24517 1.82405,0.74503c0.70393,0.82591 1.46796,1.8895 1.33984,2.96711c-0.13635,1.14685 -2.3133,1.24703 -2.51381,2.38442c-0.08254,0.4682 0.17292,0.93499 0.25937,1.40248c-0.5124,1.40153 -2.00902,4.97922 -3.3119,5.83344c-1.59288,1.04436 -6.78316,1.31353 -8.80974,1.7027c-0.86407,0.16593 -1.81218,0.46411 -2.63514,0.15285c-1.21345,-0.45895 -2.30022,-2.79793 -2.86076,-3.79982l-0.65327,-1.30326c0,0 -0.41839,-0.83677 0.04318,-1.53656zM18.65906,183.56298l0.34587,0.69367c0.44044,0.79926 0.44069,2.06979 1.28432,2.41779c0.37186,0.15339 3.63124,-1.29063 4.00634,-1.34038c3.78337,-0.50182 4.8985,0.2841 6.52183,-3.82036c-0.1663,-2.05138 0.02611,-3.53187 2.30515,-4.08874c0.60269,-0.14726 -1.29945,-0.08073 -1.8102,-0.43294c-2.53536,-1.74842 -2.00069,-4.52962 -5.99564,-3.51673c-0.68936,0.17478 0.10039,1.4602 -0.14202,2.12878c-0.47083,1.29858 -0.84071,2.81313 -1.92398,3.67017c-1.1561,0.91466 -2.93008,0.36826 -4.40373,0.4072c-0.23074,0.0061 -0.67321,-0.34112 -0.6836,-0.11052c-0.05136,1.14057 0.61925,2.22637 0.62263,3.36809c0,0 0,0.29265 -0.12698,0.62398z" fill="#cbcdb2" stroke="none" stroke-width="0.5"/><path d="M18.72884,182.96352c-0.00338,-1.14172 -0.67894,-2.25535 -0.62758,-3.39592c0.01038,-0.23059 0.57706,0.12257 0.8078,0.11647c1.47366,-0.03894 3.12571,0.48778 4.28182,-0.42688c1.08327,-0.85704 1.50553,-2.41628 1.97636,-3.71486c0.24241,-0.66858 -0.54358,-1.95433 0.14578,-2.12911c3.99495,-1.01289 3.51886,1.80122 6.05421,3.54964c0.51075,0.35222 2.41677,0.29465 1.81409,0.44192c-2.27903,0.55687 -2.47072,2.07548 -2.30442,4.12686c-1.62333,4.10446 -2.81374,3.36076 -6.59712,3.86257c-0.37511,0.04975 -3.65778,1.48201 -4.02965,1.32861c-0.84362,-0.34799 -0.85719,-1.6334 -1.29763,-2.43265l-0.3489,-0.69895c0.12698,-0.33133 0.12523,-0.62771 0.12523,-0.62771z" data-paper-data="{&quot;noHover&quot;:false,&quot;origItem&quot;:[&quot;Path&quot;,{&quot;applyMatrix&quot;:true,&quot;segments&quot;:[[[341.12911,333.00357],[0.20422,-0.53289],[0,0]],[[341.68539,334.11923],[0,0],[0.70838,1.28547]],[[343.751,338.00784],[-1.35683,-0.55969],[0.59808,0.24671]],[[350.19454,335.85206],[-0.6033,0.08002],[6.08493,-0.80709]],[[360.68382,329.70765],[-2.61086,6.60134],[-0.26747,-3.29931]],[[364.39127,323.13159],[-3.66545,0.89563],[0.96932,-0.23685]],[[361.47987,322.43527],[0.82145,0.56648],[-4.0777,-2.81204]],[[351.83687,316.77919],[6.42522,-1.62907],[-1.10872,0.28111]],[[351.60846,320.20298],[0.38987,-1.0753],[-0.75725,2.08855]],[[348.51405,326.10584],[1.74226,-1.37841],[-1.8594,1.47108]],[[341.43138,326.76075],[2.37013,-0.06263],[-0.37111,0.00981]],[[340.33193,326.58299],[0.0167,-0.37087],[-0.08261,1.83441]],[[341.33333,332],[-0.00544,-1.83626],[0,0]]],&quot;closed&quot;:true}]}" fill="#e4e6c8" stroke="none" stroke-width="0.5"/><path d="M27.25319,177.85525c-0.30484,1.52422 -1.82906,1.21937 -1.82906,1.21937l-0.11912,-0.30275c-0.48359,0.20725 -0.96718,0.41451 -1.45078,0.62176c0,0 -1.42872,0.61231 -2.04103,-0.81641c-0.61231,-1.42872 0.81641,-2.04103 0.81641,-2.04103c0.48359,-0.20725 0.96718,-0.41451 1.45078,-0.62176l1.95342,0.11176c0,0 1.52422,0.30484 1.21937,1.82906z" fill="#cbcdb2" stroke="none" stroke-width="0.5"/><path d="M26.50863,182.77291c0.9951,1.19413 -0.19902,2.18923 -0.19902,2.18923l-0.92208,0.6685c-0.07435,0.40289 -0.14871,0.80578 -0.22306,1.20867c0,0 -0.377,1.50799 -1.88499,1.13099c-1.50799,-0.377 -1.13099,-1.88499 -1.13099,-1.88499c0.20198,-0.70246 0.40397,-1.40493 0.60595,-2.10739l1.56497,-1.40403c0,0 1.19413,-0.9951 2.18923,0.19902z" fill="#cbcdb2" stroke="none" stroke-width="0.5"/><path d="M36.22895,134.08068c1.50309,0.50103 1.00206,2.00411 1.00206,2.00411l-0.39702,1.18337c-1.17865,4.31492 -3.38632,7.26404 -4.90169,11.32998c-0.53258,1.42899 -0.2996,3.07658 -0.8669,4.49214c-1.22417,3.05462 -3.73165,3.54645 -6.16775,2.95153l-1.01459,0.12683l-0.02719,-0.21756c-0.14561,0.06902 -0.29122,0.13803 -0.43682,0.20704l0.03972,-0.59047c-0.05493,-0.02264 -0.10969,-0.0457 -0.16424,-0.06918c-0.01769,-0.00395 -0.03536,-0.00792 -0.05304,-0.01188l-0.2635,0.52701l-1.65932,-0.82966c-0.12567,-0.05957 -0.24226,-0.1352 -0.3471,-0.22423c-1.88634,-0.44988 -3.74183,-0.9145 -5.66888,-1.35445c0,0 -1.54382,-0.35627 -1.18755,-1.90009c0.35627,-1.54382 1.90009,-1.18755 1.90009,-1.18755c2.74033,0.63851 5.29368,1.29686 8.03535,1.90308l0.01825,0.01293l0.002,-0.008l1.65787,0.41446c0.18087,0.04105 0.34999,0.11304 0.50149,0.21011c0.86051,-0.03365 1.64082,-0.19337 1.90765,-1.17258c1.49287,-5.47836 4.15015,-9.97578 5.63904,-15.44324l0.44798,-1.35167c0,0 0.50102,-1.50308 2.00411,-1.00205z" fill="#d3d3d3" stroke="none" stroke-width="0.5"/><path d="M25.20529,125.22736c2.98495,0.74624 6.80248,1.3328 9.39025,3.13315c0.79447,0.55273 -1.3744,4.64711 -1.74625,5.51403c-2.2894,5.33757 -5.38298,11.09214 -6.39147,16.84253c-2.4295,0.09892 -5.32761,-1.11084 -7.61484,-1.80369c-0.10392,-0.03148 -3.4602,-1.03349 -3.81454,-1.45332c-0.46428,-0.55006 0.81732,-1.18993 1.15312,-1.82661c0.99573,-1.88787 2.06731,-3.62962 2.96822,-5.55945c2.26711,-4.85638 3.92163,-9.94842 5.95457,-14.87177z" data-paper-data="{&quot;noHover&quot;:false,&quot;origItem&quot;:[&quot;Path&quot;,{&quot;applyMatrix&quot;:true,&quot;segments&quot;:[[[416.06851,312.0524],[0,0],[-3.20776,7.76851]],[[406.76863,335.38371],[3.57725,-7.66283],[-1.42153,3.04506]],[[402.06622,344.12437],[1.57115,-2.97885],[-0.52986,1.00461]],[[400.24372,347.00332],[-0.73258,-0.86794],[0.55912,0.66244]],[[406.23886,349.27834],[-0.16397,-0.04967],[3.60899,1.09324]],[[418.19363,352.11284],[-3.83349,0.15608],[1.59128,-9.07349]],[[428.20214,325.68187],[-3.61243,8.4221],[0.58673,-1.36791]],[[430.97534,317.00601],[1.25359,0.87214],[-4.08322,-2.84076]],[[416.22699,312.09202],[4.70993,1.17748],[0,0]]],&quot;closed&quot;:true}]}" fill="#d3d3d3" stroke="none" stroke-width="0.5"/><path d="M30.29942,143.88668c-1.12034,1.12034 -2.24067,0 -2.24067,0l-0.43448,-0.49186c-2.46772,-3.94969 -4.75843,-7.98532 -6.6531,-12.23763c0,0 -0.64348,-1.44784 0.80436,-2.09132c1.44784,-0.64349 2.09132,0.80436 2.09132,0.80436c1.82585,4.11934 4.05507,8.02331 6.44455,11.84515l-0.01197,-0.06936c0,0 1.12034,1.12033 0,2.24067z" fill="#e4e4e4" stroke="none" stroke-width="0.5"/><path d="M24.11564,124.8449c0.07464,-0.20282 0.20597,-0.41303 0.41619,-0.62325c1.12034,-1.12034 2.24067,0 2.24067,0l0.10522,0.11442c2.71123,2.27369 6.18987,5.97069 7.36718,9.36744c1.01543,2.92968 1.29754,5.65517 -3.90367,3.77789c-1.00085,-0.36124 -1.25795,-1.72961 -1.72646,-2.68496c-1.39593,-2.84652 -2.93703,-5.42752 -4.54951,-8.24587c0,0 -0.53515,-0.93652 0.05037,-1.70567z" fill="#e4e4e4" stroke="none" stroke-width="0.5"/><path d="M25.10309,125.2656c-2.03294,4.92335 -3.62676,9.93002 -5.89387,14.78639c-0.90091,1.92983 -1.98446,3.65159 -2.98019,5.53946c-0.3358,0.63668 -1.6193,1.27449 -1.15502,1.82456c0.35435,0.41983 3.69555,1.41033 3.79946,1.44181c2.28722,0.69285 5.14692,1.8953 7.57642,1.79639c1.00849,-5.75039 4.05356,-11.41325 6.34297,-16.75082c0.37184,-0.86692 2.55201,-4.94567 1.75754,-5.49839c-2.58777,-1.80035 -6.36192,-2.36804 -9.34688,-3.11428zM24.43305,121.98272c0.3798,-0.05599 0.694,0.02257 0.694,0.02257l0.84501,0.21125c3.08273,0.77068 8.72122,1.52012 10.93337,4.0683c2.02271,2.32996 0.321,4.98908 -0.54156,7.32695c-2.38609,6.46712 -4.95084,13.18504 -7.83563,19.43441c-4.11354,1.12623 -14.37643,-0.20706 -16.50944,-4.7894c-0.60293,-1.29527 2.41069,-5.85712 2.90177,-6.70517c3.4114,-5.89116 5.07204,-12.42518 7.73217,-18.63338c0,0 0.53795,-1.25521 1.78031,-0.93553z" fill="#b3b3b3" stroke="none" stroke-width="0.5"/><path d="M36.06061,137.5702c-0.43831,-0.46874 -0.43831,-1.14142 -0.43831,-1.14142l0.00162,-1.61822c-0.17077,-1.909 -0.59433,-3.68322 -0.8344,-5.57909c0,0 -0.19652,-1.57216 1.37564,-1.76868c1.57216,-0.19652 1.76868,1.37563 1.76868,1.37563c0.24398,1.98063 0.67126,3.82766 0.85562,5.82854l0.00042,0.45318c0.74782,0.50444 0.62273,1.50515 0.62273,1.50515c-0.96966,7.71968 -5.51764,14.26293 -9.28038,20.8698l-0.67781,0.75676c0,0 -0.46668,0.46668 -1.09884,0.49644c-0.45842,0.60137 -1.28901,0.60137 -1.28901,0.60137l-0.59553,-0.0473c-3.67041,-0.92818 -11.99786,-2.56886 -13.71545,-5.9137c-0.72817,-1.41803 -0.57714,-3.39506 -0.58232,-4.9185c0,0 0,-1.58439 1.58439,-1.58439c1.58439,0 1.58439,1.58439 1.58439,1.58439c-0.00395,1.00311 -0.12283,2.52764 0.26269,3.5316c0.48695,1.26809 1.19624,0.74476 2.38277,1.06902c2.42273,0.66211 4.72495,1.7131 7.09521,2.51733c0.14198,-1.29787 0.27741,-2.59645 0.4073,-3.89558c0,0 0.15766,-1.57653 1.73419,-1.41888c1.57653,0.15765 1.41888,1.73418 1.41888,1.73418c-0.07101,0.71007 -0.14386,1.41997 -0.21909,2.12962c3.09612,-5.22692 6.52315,-10.5738 7.6366,-16.56727z" fill="#b3b3b3" stroke="none" stroke-width="0.5"/><path d="M73.77914,173.44055c1.50309,0.50103 1.00206,2.00411 1.00206,2.00411l-0.39702,1.18337c-1.17865,4.31492 -3.38632,7.26404 -4.90169,11.32998c-0.53258,1.42899 -0.2996,3.07658 -0.8669,4.49214c-1.22417,3.05462 -3.73165,3.54645 -6.16775,2.95153l-1.01459,0.12683l-0.02719,-0.21756c-0.14561,0.06902 -0.29122,0.13803 -0.43682,0.20704l0.03972,-0.59047c-0.05493,-0.02264 -0.10969,-0.0457 -0.16424,-0.06918c-0.01769,-0.00395 -0.03536,-0.00792 -0.05304,-0.01188l-0.2635,0.52701l-1.65932,-0.82966c-0.12567,-0.05957 -0.24226,-0.1352 -0.3471,-0.22423c-1.88634,-0.44988 -3.74183,-0.9145 -5.66888,-1.35445c0,0 -1.54382,-0.35627 -1.18755,-1.90009c0.35627,-1.54382 1.90009,-1.18755 1.90009,-1.18755c2.74033,0.63851 5.29368,1.29686 8.03535,1.90308l0.01825,0.01293l0.002,-0.008l1.65787,0.41446c0.18087,0.04105 0.34999,0.11304 0.50149,0.21011c0.86051,-0.03365 1.64082,-0.19337 1.90765,-1.17258c1.49287,-5.47836 4.15015,-9.97578 5.63904,-15.44324l0.44798,-1.35167c0,0 0.50102,-1.50308 2.00411,-1.00205z" fill="#f17400" stroke="none" stroke-width="0.5"/><path d="M62.82629,164.72452c2.98495,0.74624 6.80248,1.3328 9.39025,3.13315c0.79447,0.55273 -1.3744,4.64711 -1.74625,5.51403c-2.2894,5.33757 -5.38298,11.09214 -6.39147,16.84253c-2.4295,0.09892 -5.32761,-1.11084 -7.61484,-1.80369c-0.10392,-0.03148 -3.4602,-1.03349 -3.81454,-1.45332c-0.46428,-0.55006 0.81732,-1.18993 1.15312,-1.82661c0.99573,-1.88787 2.06731,-3.62962 2.96822,-5.55945c2.26711,-4.85638 3.92163,-9.94842 5.95457,-14.87177z" data-paper-data="{&quot;noHover&quot;:false,&quot;origItem&quot;:[&quot;Path&quot;,{&quot;applyMatrix&quot;:true,&quot;segments&quot;:[[[416.06851,312.0524],[0,0],[-3.20776,7.76851]],[[406.76863,335.38371],[3.57725,-7.66283],[-1.42153,3.04506]],[[402.06622,344.12437],[1.57115,-2.97885],[-0.52986,1.00461]],[[400.24372,347.00332],[-0.73258,-0.86794],[0.55912,0.66244]],[[406.23886,349.27834],[-0.16397,-0.04967],[3.60899,1.09324]],[[418.19363,352.11284],[-3.83349,0.15608],[1.59128,-9.07349]],[[428.20214,325.68187],[-3.61243,8.4221],[0.58673,-1.36791]],[[430.97534,317.00601],[1.25359,0.87214],[-4.08322,-2.84076]],[[416.22699,312.09202],[4.70993,1.17748],[0,0]]],&quot;closed&quot;:true}]}" fill="#f17400" stroke="none" stroke-width="0.5"/><path d="M67.84963,183.24655c-1.12034,1.12034 -2.24067,0 -2.24067,0l-0.43448,-0.49186c-2.46772,-3.94969 -4.75843,-7.98532 -6.6531,-12.23763c0,0 -0.64348,-1.44784 0.80436,-2.09132c1.44784,-0.64349 2.09132,0.80436 2.09132,0.80436c1.82585,4.11934 4.05507,8.02331 6.44455,11.84515l-0.01197,-0.06936c0,0 1.12034,1.12033 0,2.24067z" fill="#ff9531" stroke="none" stroke-width="0.5"/><path d="M61.66582,164.20477c0.07464,-0.20282 0.20597,-0.41303 0.41619,-0.62325c1.12034,-1.12034 2.24067,0 2.24067,0l0.10522,0.11442c2.71123,2.27369 6.18987,5.97069 7.36718,9.36744c1.01543,2.92968 1.29754,5.65517 -3.90367,3.77789c-1.00085,-0.36124 -1.25795,-1.72961 -1.72646,-2.68496c-1.39593,-2.84652 -2.93703,-5.42752 -4.54951,-8.24587c0,0 -0.53515,-0.93652 0.05037,-1.70567z" fill="#ff9531" stroke="none" stroke-width="0.5"/><path d="M62.65328,164.62547c-2.03294,4.92335 -3.62676,9.93002 -5.89387,14.78639c-0.90091,1.92983 -1.98446,3.65159 -2.98019,5.53946c-0.3358,0.63668 -1.6193,1.27449 -1.15502,1.82456c0.35435,0.41983 3.69555,1.41033 3.79946,1.44181c2.28722,0.69285 5.14692,1.8953 7.57642,1.79639c1.00849,-5.75039 4.05356,-11.41325 6.34297,-16.75082c0.37184,-0.86692 2.55201,-4.94567 1.75754,-5.49839c-2.58777,-1.80035 -6.36192,-2.36804 -9.34688,-3.11428zM61.98325,161.34259c0.3798,-0.05599 0.694,0.02257 0.694,0.02257l0.84501,0.21125c3.08273,0.77068 8.72122,1.52012 10.93337,4.0683c2.02271,2.32996 0.321,4.98908 -0.54156,7.32695c-2.38609,6.46712 -4.95084,13.18504 -7.83563,19.43441c-4.11354,1.12623 -14.37643,-0.20706 -16.50944,-4.7894c-0.60293,-1.29527 2.41069,-5.85712 2.90177,-6.70517c3.4114,-5.89116 5.07204,-12.42518 7.73217,-18.63338c0,0 0.53795,-1.25521 1.78031,-0.93553z" fill="#c96100" stroke="none" stroke-width="0.5"/><path d="M73.6108,176.93007c-0.43831,-0.46874 -0.43831,-1.14142 -0.43831,-1.14142l0.00162,-1.61822c-0.17077,-1.909 -0.59433,-3.68322 -0.8344,-5.57909c0,0 -0.19652,-1.57216 1.37564,-1.76868c1.57216,-0.19652 1.76868,1.37563 1.76868,1.37563c0.24398,1.98063 0.67126,3.82766 0.85562,5.82854l0.00042,0.45318c0.74782,0.50444 0.62273,1.50515 0.62273,1.50515c-0.96966,7.71968 -5.51764,14.26293 -9.28038,20.8698l-0.67781,0.75676c0,0 -0.46668,0.46668 -1.09884,0.49644c-0.45842,0.60137 -1.28901,0.60137 -1.28901,0.60137l-0.59553,-0.0473c-3.67041,-0.92818 -11.99786,-2.56886 -13.71545,-5.9137c-0.72817,-1.41803 -0.57714,-3.39506 -0.58232,-4.9185c0,0 0,-1.58439 1.58439,-1.58439c1.58439,0 1.58439,1.58439 1.58439,1.58439c-0.00395,1.00311 -0.12283,2.52764 0.26269,3.5316c0.48695,1.26809 1.19624,0.74477 2.38277,1.06903c2.42273,0.66211 4.72495,1.7131 7.09521,2.51733c0.14198,-1.29787 0.27741,-2.59645 0.4073,-3.89558c0,0 0.15766,-1.57653 1.73419,-1.41888c1.57653,0.15765 1.41888,1.73418 1.41888,1.73418c-0.07101,0.71007 -0.14386,1.41997 -0.21909,2.12962c3.09612,-5.22692 6.52315,-10.5738 7.6366,-16.56727z" fill="#c96100" stroke="none" stroke-width="0.5"/><path d="M114.94869,212.80044c1.50309,0.50103 1.00206,2.00411 1.00206,2.00411l-0.39702,1.18337c-1.17865,4.31492 -3.38632,7.26404 -4.90169,11.32998c-0.53258,1.42899 -0.2996,3.07658 -0.8669,4.49214c-1.22417,3.05462 -3.73165,3.54645 -6.16775,2.95153l-1.01459,0.12683l-0.02719,-0.21756c-0.14561,0.06902 -0.29122,0.13803 -0.43682,0.20704l0.03972,-0.59047c-0.05493,-0.02264 -0.10969,-0.0457 -0.16424,-0.06918c-0.01769,-0.00395 -0.03536,-0.00792 -0.05304,-0.01188l-0.2635,0.52701l-1.65932,-0.82966c-0.12567,-0.05957 -0.24226,-0.1352 -0.3471,-0.22423c-1.88634,-0.44988 -3.74183,-0.9145 -5.66888,-1.35445c0,0 -1.54382,-0.35627 -1.18755,-1.90009c0.35627,-1.54382 1.90009,-1.18755 1.90009,-1.18755c2.74033,0.63851 5.29368,1.29686 8.03535,1.90308l0.01825,0.01293l0.002,-0.008l1.65787,0.41446c0.18087,0.04105 0.34999,0.11304 0.50149,0.21011c0.86051,-0.03365 1.64082,-0.19337 1.90765,-1.17258c1.49287,-5.47836 4.15015,-9.97578 5.63904,-15.44324l0.44798,-1.35167c0,0 0.50102,-1.50308 2.00411,-1.00205z" fill="#eae0b9" stroke="none" stroke-width="0.5"/><path d="M103.92505,203.94712c2.98495,0.74624 6.80248,1.3328 9.39025,3.13315c0.79447,0.55273 -1.3744,4.64711 -1.74625,5.51403c-2.2894,5.33757 -5.38298,11.09214 -6.39147,16.84253c-2.4295,0.09892 -5.32761,-1.11084 -7.61484,-1.80369c-0.10392,-0.03148 -3.4602,-1.03349 -3.81454,-1.45332c-0.46428,-0.55006 0.81732,-1.18993 1.15312,-1.82661c0.99573,-1.88787 2.06731,-3.62962 2.96822,-5.55945c2.26711,-4.85638 3.92163,-9.94842 5.95457,-14.87177z" data-paper-data="{&quot;noHover&quot;:false,&quot;origItem&quot;:[&quot;Path&quot;,{&quot;applyMatrix&quot;:true,&quot;segments&quot;:[[[416.06851,312.0524],[0,0],[-3.20776,7.76851]],[[406.76863,335.38371],[3.57725,-7.66283],[-1.42153,3.04506]],[[402.06622,344.12437],[1.57115,-2.97885],[-0.52986,1.00461]],[[400.24372,347.00332],[-0.73258,-0.86794],[0.55912,0.66244]],[[406.23886,349.27834],[-0.16397,-0.04967],[3.60899,1.09324]],[[418.19363,352.11284],[-3.83349,0.15608],[1.59128,-9.07349]],[[428.20214,325.68187],[-3.61243,8.4221],[0.58673,-1.36791]],[[430.97534,317.00601],[1.25359,0.87214],[-4.08322,-2.84076]],[[416.22699,312.09202],[4.70993,1.17748],[0,0]]],&quot;closed&quot;:true}]}" fill="#eae0b9" stroke="none" stroke-width="0.5"/><path d="M109.01918,222.60644c-1.12034,1.12034 -2.24067,0 -2.24067,0l-0.43448,-0.49186c-2.46772,-3.94969 -4.75843,-7.98532 -6.6531,-12.23763c0,0 -0.64348,-1.44784 0.80436,-2.09132c1.44784,-0.64349 2.09132,0.80436 2.09132,0.80436c1.82585,4.11934 4.05507,8.02331 6.44455,11.84515l-0.01197,-0.06936c0,0 1.12034,1.12033 0,2.24067z" fill="#fff3c9" stroke="none" stroke-width="0.5"/><path d="M102.83537,203.56466c0.07464,-0.20282 0.20597,-0.41303 0.41619,-0.62325c1.12034,-1.12034 2.24067,0 2.24067,0l0.10522,0.11442c2.71123,2.27369 6.18987,5.97069 7.36718,9.36744c1.01543,2.92968 1.29754,5.65517 -3.90367,3.77789c-1.00085,-0.36124 -1.25795,-1.72961 -1.72646,-2.68496c-1.39593,-2.84652 -2.93703,-5.42752 -4.54951,-8.24587c0,0 -0.53515,-0.93652 0.05037,-1.70567z" fill="#fff3c9" stroke="none" stroke-width="0.5"/><path d="M103.82283,203.98536c-2.03294,4.92335 -3.62676,9.93002 -5.89387,14.78639c-0.90091,1.92983 -1.98446,3.65159 -2.98019,5.53946c-0.3358,0.63668 -1.6193,1.27449 -1.15502,1.82456c0.35435,0.41983 3.69555,1.41033 3.79946,1.44181c2.28722,0.69285 5.14692,1.8953 7.57642,1.79639c1.00849,-5.75039 4.05356,-11.41325 6.34297,-16.75082c0.37184,-0.86692 2.55201,-4.94567 1.75754,-5.49839c-2.58777,-1.80035 -6.36192,-2.36804 -9.34688,-3.11428zM103.1528,200.70248c0.3798,-0.05599 0.694,0.02257 0.694,0.02257l0.84501,0.21125c3.08273,0.77068 8.72122,1.52012 10.93337,4.0683c2.02271,2.32996 0.321,4.98908 -0.54156,7.32695c-2.38609,6.46712 -4.95084,13.18504 -7.83563,19.43441c-4.11354,1.12623 -14.37643,-0.20706 -16.50944,-4.7894c-0.60293,-1.29527 2.41069,-5.85712 2.90177,-6.70517c3.4114,-5.89116 5.07204,-12.42518 7.73217,-18.63338c0,0 0.53795,-1.25521 1.78031,-0.93553z" fill="#dcd2ae" stroke="none" stroke-width="0.5"/><path d="M114.78035,216.28996c-0.43831,-0.46874 -0.43831,-1.14142 -0.43831,-1.14142l0.00162,-1.61822c-0.17077,-1.909 -0.59433,-3.68322 -0.8344,-5.57909c0,0 -0.19652,-1.57216 1.37564,-1.76868c1.57216,-0.19652 1.76868,1.37563 1.76868,1.37563c0.24398,1.98063 0.67126,3.82766 0.85562,5.82854l0.00042,0.45318c0.74782,0.50444 0.62273,1.50515 0.62273,1.50515c-0.96966,7.71968 -5.51764,14.26293 -9.28038,20.8698l-0.67781,0.75676c0,0 -0.46668,0.46668 -1.09884,0.49644c-0.45842,0.60137 -1.28901,0.60137 -1.28901,0.60137l-0.59553,-0.0473c-3.67041,-0.92818 -11.99786,-2.56886 -13.71545,-5.9137c-0.72817,-1.41803 -0.57714,-3.39506 -0.58232,-4.9185c0,0 0,-1.58439 1.58439,-1.58439c1.58439,0 1.58439,1.58439 1.58439,1.58439c-0.00395,1.00311 -0.12283,2.52764 0.26269,3.5316c0.48695,1.26809 1.19624,0.74477 2.38277,1.06903c2.42273,0.66211 4.72495,1.7131 7.09521,2.51733c0.14198,-1.29787 0.27741,-2.59645 0.4073,-3.89558c0,0 0.15766,-1.57653 1.73419,-1.41888c1.57653,0.15765 1.41888,1.73418 1.41888,1.73418c-0.07101,0.71007 -0.14386,1.41997 -0.21909,2.12962c3.09612,-5.22692 6.52315,-10.5738 7.6366,-16.56727z" fill="#dcd2ae" stroke="none" stroke-width="0.5"/><path d="M36.22893,212.80044c1.50309,0.50103 1.00206,2.00411 1.00206,2.00411l-0.39702,1.18337c-1.17865,4.31492 -3.38632,7.26404 -4.90169,11.32998c-0.53258,1.42899 -0.2996,3.07658 -0.8669,4.49214c-1.22417,3.05462 -3.73165,3.54645 -6.16775,2.95153l-1.01459,0.12683l-0.02719,-0.21756c-0.14561,0.06902 -0.29122,0.13803 -0.43682,0.20704l0.03972,-0.59047c-0.05493,-0.02264 -0.10969,-0.0457 -0.16424,-0.06918c-0.01769,-0.00395 -0.03536,-0.00792 -0.05304,-0.01188l-0.2635,0.52701l-1.65932,-0.82966c-0.12567,-0.05957 -0.24226,-0.1352 -0.3471,-0.22423c-1.88634,-0.44988 -3.74183,-0.9145 -5.66888,-1.35445c0,0 -1.54382,-0.35627 -1.18755,-1.90009c0.35627,-1.54382 1.90009,-1.18755 1.90009,-1.18755c2.74033,0.63851 5.29368,1.29686 8.03535,1.90308l0.01825,0.01293l0.002,-0.008l1.65787,0.41446c0.18087,0.04105 0.34999,0.11304 0.50149,0.21011c0.86051,-0.03365 1.64082,-0.19337 1.90765,-1.17258c1.49287,-5.47836 4.15015,-9.97578 5.63904,-15.44324l0.44798,-1.35167c0,0 0.50102,-1.50308 2.00411,-1.00205z" fill="#efcc6c" stroke="none" stroke-width="0.5"/><path d="M25.20527,203.94712c2.98495,0.74624 6.80248,1.3328 9.39025,3.13315c0.79447,0.55273 -1.3744,4.64711 -1.74625,5.51403c-2.2894,5.33757 -5.38298,11.09214 -6.39147,16.84253c-2.4295,0.09892 -5.32761,-1.11084 -7.61484,-1.80369c-0.10392,-0.03148 -3.4602,-1.03349 -3.81454,-1.45332c-0.46428,-0.55006 0.81732,-1.18993 1.15312,-1.82661c0.99573,-1.88787 2.06731,-3.62962 2.96822,-5.55945c2.26711,-4.85638 3.92163,-9.94842 5.95457,-14.87177z" data-paper-data="{&quot;noHover&quot;:false,&quot;origItem&quot;:[&quot;Path&quot;,{&quot;applyMatrix&quot;:true,&quot;segments&quot;:[[[416.06851,312.0524],[0,0],[-3.20776,7.76851]],[[406.76863,335.38371],[3.57725,-7.66283],[-1.42153,3.04506]],[[402.06622,344.12437],[1.57115,-2.97885],[-0.52986,1.00461]],[[400.24372,347.00332],[-0.73258,-0.86794],[0.55912,0.66244]],[[406.23886,349.27834],[-0.16397,-0.04967],[3.60899,1.09324]],[[418.19363,352.11284],[-3.83349,0.15608],[1.59128,-9.07349]],[[428.20214,325.68187],[-3.61243,8.4221],[0.58673,-1.36791]],[[430.97534,317.00601],[1.25359,0.87214],[-4.08322,-2.84076]],[[416.22699,312.09202],[4.70993,1.17748],[0,0]]],&quot;closed&quot;:true}]}" fill="#efcc6c" stroke="none" stroke-width="0.5"/><path d="M30.2994,222.60644c-1.12034,1.12034 -2.24067,0 -2.24067,0l-0.43448,-0.49186c-2.46772,-3.94969 -4.75843,-7.98532 -6.6531,-12.23763c0,0 -0.64348,-1.44784 0.80436,-2.09132c1.44784,-0.64349 2.09132,0.80436 2.09132,0.80436c1.82585,4.11934 4.05507,8.02331 6.44455,11.84515l-0.01197,-0.06936c0,0 1.12034,1.12033 0,2.24067z" fill="#ffda73" stroke="none" stroke-width="0.5"/><path d="M24.11564,203.56466c0.07464,-0.20282 0.20597,-0.41303 0.41619,-0.62325c1.12034,-1.12034 2.24067,0 2.24067,0l0.10522,0.11442c2.71123,2.27369 6.18987,5.97069 7.36718,9.36744c1.01543,2.92968 1.29754,5.65517 -3.90367,3.77789c-1.00085,-0.36124 -1.25795,-1.72961 -1.72646,-2.68496c-1.39593,-2.84652 -2.93703,-5.42752 -4.54951,-8.24587c0,0 -0.53515,-0.93652 0.05037,-1.70567z" fill="#ffda73" stroke="none" stroke-width="0.5"/><path d="M19.99938,225.1772c0.88389,0.88389 0,1.76777 0,1.76777l-0.3441,0.34105c-0.43601,0.38756 -0.87202,0.77513 -1.30803,1.16269c0,0 -0.93426,0.83045 -1.76472,-0.10381c-0.83045,-0.93426 0.10381,-1.76471 0.10381,-1.76471c0.43601,-0.38756 0.87202,-0.77513 1.30803,-1.16269l0.23724,-0.24029c0,0 0.88389,-0.88389 1.76777,0z" fill="#d7b761" stroke="none" stroke-width="0.5"/><path d="M24.76043,224.64845c0.39529,-1.18586 1.58114,-0.79057 1.58114,-0.79057l0.54839,0.18893c0.43601,0.19378 0.87202,0.38756 1.30803,0.58134c0,0 1.14227,0.50767 0.63459,1.64993c-0.50768,1.14226 -1.64994,0.63459 -1.64994,0.63459c-0.43601,-0.19378 -0.87201,-0.38756 -1.30802,-0.58134l-0.32362,-0.10174c0,0 -1.18586,-0.39529 -0.79057,-1.58114z" fill="#d7b761" stroke="none" stroke-width="0.5"/><path d="M21.40756,218.38098c-1.04007,0.69338 -1.73344,-0.34669 -1.73344,-0.34669l-0.0641,-0.18031c-0.33912,-0.29067 -0.67823,-0.58135 -1.01735,-0.87202c0,0 -0.94908,-0.81349 -0.13559,-1.76256c0.81349,-0.94907 1.76256,-0.13558 1.76256,-0.13558c0.33912,0.29067 0.67824,0.58134 1.01736,0.87202l0.51725,0.6917c0,0 0.69338,1.04006 -0.34668,1.73344z" fill="#d7b761" stroke="none" stroke-width="0.5"/><path d="M32.21808,208.28541c-1.11804,-0.55902 -0.55902,-1.67705 -0.55902,-1.67705l0.53683,-0.74882c0.33912,-0.24223 0.67824,-0.48445 1.01736,-0.72668c0,0 1.01716,-0.72655 1.74371,0.29062c0.72655,1.01717 -0.29062,1.74371 -0.29062,1.74371c-0.33912,0.24223 -0.67824,0.48445 -1.01736,0.72668l0.24615,-0.16747c0,0 -0.55901,1.11803 -1.67705,0.55902z" fill="#d7b761" stroke="none" stroke-width="0.5"/><path d="M18.41114,234.15526c-1.11804,-0.55901 -0.55902,-1.67705 -0.55902,-1.67705l0.22285,-0.41761c0.14533,-0.43601 0.29067,-0.87201 0.43601,-1.30802c0,0 0.39529,-1.18586 1.58114,-0.79057c1.18586,0.39529 0.79057,1.58113 0.79057,1.58113c-0.14533,0.43601 -0.29068,0.87202 -0.43601,1.30803l-0.35849,0.74507c0,0 -0.55901,1.11803 -1.67705,0.55902z" fill="#d7b761" stroke="none" stroke-width="0.5"/><path d="M34.14315,220.82898c0,-0.69035 0.55964,-1.25 1.25,-1.25c0.69036,0 1.25,0.55965 1.25,1.25c0,0.69035 -0.55964,1.25 -1.25,1.25c-0.69036,0 -1.25,-0.55965 -1.25,-1.25z" fill="#d7b761" stroke="none" stroke-width="0.5"/><path d="M25.10308,203.98536c-2.03294,4.92335 -3.62676,9.93002 -5.89387,14.78639c-0.90091,1.92983 -1.98446,3.65159 -2.98019,5.53946c-0.3358,0.63668 -1.6193,1.27449 -1.15502,1.82456c0.35435,0.41983 3.69555,1.41033 3.79946,1.44181c2.28722,0.69285 5.14692,1.8953 7.57642,1.79639c1.00849,-5.75039 4.05356,-11.41325 6.34297,-16.75082c0.37184,-0.86692 2.55201,-4.94567 1.75754,-5.49839c-2.58777,-1.80035 -6.36192,-2.36804 -9.34688,-3.11428zM24.43305,200.70248c0.3798,-0.05599 0.694,0.02257 0.694,0.02257l0.84501,0.21125c3.08273,0.77068 8.72122,1.52012 10.93337,4.0683c2.02271,2.32996 0.321,4.98908 -0.54156,7.32695c-2.38609,6.46712 -4.95084,13.18504 -7.83563,19.43441c-4.11354,1.12623 -14.37643,-0.20706 -16.50944,-4.7894c-0.60293,-1.29527 2.41069,-5.85712 2.90177,-6.70517c3.4114,-5.89116 5.07204,-12.42518 7.73217,-18.63338c0,0 0.53795,-1.25521 1.78031,-0.93553z" fill="#c9ab5a" stroke="none" stroke-width="0.5"/><path d="M36.06059,216.28996c-0.43831,-0.46874 -0.43831,-1.14142 -0.43831,-1.14142l0.00162,-1.61822c-0.17077,-1.909 -0.59433,-3.68322 -0.8344,-5.57909c0,0 -0.19652,-1.57216 1.37564,-1.76868c1.57216,-0.19652 1.76868,1.37563 1.76868,1.37563c0.24398,1.98063 0.67126,3.82766 0.85562,5.82854l0.00042,0.45318c0.74782,0.50444 0.62273,1.50515 0.62273,1.50515c-0.96966,7.71968 -5.51764,14.26293 -9.28038,20.8698l-0.67781,0.75676c0,0 -0.46668,0.46668 -1.09884,0.49644c-0.45842,0.60137 -1.28901,0.60137 -1.28901,0.60137l-0.59553,-0.0473c-3.67041,-0.92818 -11.99786,-2.56886 -13.71545,-5.9137c-0.72817,-1.41803 -0.57714,-3.39506 -0.58232,-4.9185c0,0 0,-1.58439 1.58439,-1.58439c1.58439,0 1.58439,1.58439 1.58439,1.58439c-0.00395,1.00311 -0.12283,2.52764 0.26269,3.5316c0.48695,1.26809 1.19624,0.74477 2.38277,1.06903c2.42273,0.66211 4.72495,1.7131 7.09521,2.51733c0.14198,-1.29787 0.27741,-2.59645 0.4073,-3.89558c0,0 0.15766,-1.57653 1.73419,-1.41888c1.57653,0.15765 1.41888,1.73418 1.41888,1.73418c-0.07101,0.71007 -0.14386,1.41997 -0.21909,2.12962c3.09612,-5.22692 6.52315,-10.5738 7.6366,-16.56727z" fill="#c9ab5a" stroke="none" stroke-width="0.5"/><path d="M25.42296,209.20209c0,-0.69035 0.55964,-1.25 1.25,-1.25c0.69036,0 1.25,0.55965 1.25,1.25c0,0.69035 -0.55964,1.25 -1.25,1.25c-0.69036,0 -1.25,-0.55965 -1.25,-1.25z" fill="#efcc6c" stroke="none" stroke-width="0.5"/><path d="M26.58565,217.05024c0,-0.69035 0.55964,-1.25 1.25,-1.25c0.69036,0 1.25,0.55965 1.25,1.25c0,0.69035 -0.55964,1.25 -1.25,1.25c-0.69036,0 -1.25,-0.55965 -1.25,-1.25z" fill="#efcc6c" stroke="none" stroke-width="0.5"/><path d="M87.65514,141.21808c-0.03926,-0.50314 0.21703,-0.9303 0.21703,-0.9303c2.19068,-3.62795 4.8086,-8.47671 8.5153,-10.85175c1.76303,-1.12965 3.35564,-0.2299 5.14516,-0.60621c1.19675,-0.25166 2.37329,-0.95708 3.58395,-0.78433c1.30219,0.18581 2.10325,1.5841 3.20842,2.29741c1.06362,0.6865 4.07516,0.21268 5.2328,0.2393c1.90549,1.11713 4.85806,4.73601 5.11082,7.21745c0.06372,0.62555 -0.42646,1.21625 -0.39611,1.8443c0.07563,1.56492 3.31489,2.6573 3.48056,4.1554c0.16265,1.47072 -2.77861,3.84343 -3.78139,4.69106c-1.37743,1.16431 -2.34714,2.75813 -4.14464,3.35198c-1.55918,0.51511 -3.30018,-0.15021 -4.80583,0.38212c-2.05771,0.72753 -3.1531,1.03425 -5.46466,1.03718c-2.68153,-0.0112 -4.8668,-0.8153 -7.37706,-1.61052c-4.97817,-1.57702 -10.45892,-2.63366 -8.85529,-9.42966zM90.55298,141.43336c-0.01029,0.25565 -0.07163,0.43967 -0.07163,0.43967l-0.35422,1.0492c-1.3083,4.84884 3.66347,4.96769 6.93867,5.97908c2.21952,0.6854 4.11653,1.48317 6.4908,1.47123c2.86842,0.00395 6.61315,-0.50081 9.37566,-1.27723c1.13124,-0.31794 2.3303,-2.09645 3.17452,-2.81151c0.76996,-0.65217 1.3525,-1.51022 2.14048,-2.14049c0.16533,-0.13224 0.76364,0.0592 0.62684,-0.10239c-1.02377,-1.20924 -3.09773,-1.7507 -3.45338,-3.93419c-0.10945,-0.67197 0.37393,-1.32706 0.37433,-2.00788c0.0005,-0.83324 -2.2477,-4.34135 -2.97877,-4.72431c-1.84923,0.06567 -4.24001,0.40533 -5.93853,-0.53114c-0.5772,-0.31824 -1.18709,-1.85599 -2.18465,-1.93999c-0.89291,-0.07518 -1.69955,0.58755 -2.57954,0.75654c-0.85338,0.16388 -3.31938,-0.45752 -4.10008,0.16423c-3.22173,2.5658 -5.37672,6.11738 -7.46051,9.60918z" fill="#252525" stroke="none" stroke-width="0.5"/><path d="M97.97955,131.7774c0.7807,-0.62175 3.26634,-0.00956 4.11972,-0.17344c0.87999,-0.16899 1.70263,-0.83349 2.59554,-0.75831c0.99755,0.08399 1.62322,1.62444 2.20042,1.94267c1.69852,0.93647 4.11556,0.61413 5.96479,0.54846c0.73106,0.38296 2.99192,3.91627 2.99142,4.74951c-0.0004,0.68083 -0.48246,1.3457 -0.37302,2.01768c0.35564,2.1835 2.42814,2.74096 3.4519,3.9502c0.1368,0.16158 -0.46174,-0.0289 -0.62707,0.10334c-0.78798,0.63027 -1.3745,1.49924 -2.14446,2.15141c-0.84422,0.71507 -2.05429,2.50915 -3.18554,2.82709c-2.76251,0.77642 -6.55327,1.29805 -9.42168,1.2941c-2.37428,0.01194 -4.30464,-0.80018 -6.52416,-1.48558c-3.2752,-1.01139 -8.26566,-1.16432 -6.95736,-6.01316l0.35372,-1.05322c0,0 0.06122,-0.18582 0.07151,-0.44147c2.0838,-3.4918 4.26254,-7.09348 7.48427,-9.65928z" data-paper-data="{&quot;noHover&quot;:false,&quot;origItem&quot;:[&quot;Path&quot;,{&quot;applyMatrix&quot;:true,&quot;segments&quot;:[[[483.32901,330.02966],[3.60626,-6.04297],[-0.01781,0.44244]],[483.20504,330.79057],[[482.59202,332.60634],[0,0],[-2.26417,8.3915]],[[494.60022,342.95386],[-5.66812,-1.75034],[3.84115,1.18617]],[[505.83333,345.5],[-4.10897,0.02066],[4.96414,0.00683]],[[522.05903,343.2896],[-4.78085,1.34368],[1.95775,-0.55023]],[[527.55291,338.42394],[-1.46102,1.23751],[1.3325,-1.12865]],[[531.25727,334.71957],[-1.36369,1.09076],[0.28613,-0.22886]],[[532.34209,334.54238],[0.23675,0.27964],[-1.77175,-2.09273]],[[526.36561,327.73379],[0.61548,3.7788],[-0.18941,-1.16293]],[[527.01344,324.25891],[-0.0007,1.17825],[0.00086,-1.44202]],[[521.85833,316.08292],[1.26519,0.66276],[-3.20031,0.11365]],[[511.58099,315.16371],[2.93949,1.62068],[-0.99891,-0.55075]],[[507.8002,311.80633],[1.72638,0.14536],[-1.54528,-0.13011]],[[503.336,313.11561],[1.52292,-0.29246],[-1.47688,0.28362]],[[496.24032,313.39983],[1.3511,-1.07602],[-5.57559,4.44043]]],&quot;closed&quot;:true}]}" fill="#3d3d3d" stroke="none" stroke-width="0.5"/><path d="M113.14574,139.86833c-1.34125,0.5365 -1.87775,-0.80475 -1.87775,-0.80475l-0.21946,-0.65991c-0.72827,-1.46679 -1.78106,-0.70158 -3.51977,-0.55571c0,0 -1.43958,0.11996 -1.55954,-1.31961c-0.11996,-1.43958 1.31961,-1.55955 1.31961,-1.55955c3.04849,-0.25243 4.09823,-0.68667 6.11069,1.7556l0.55097,1.26618c0,0 0.5365,1.34125 -0.80475,1.87775z" fill="#313131" stroke="none" stroke-width="0.5"/><path d="M104.80854,134.48229c0,1.44457 -1.44457,1.44457 -1.44457,1.44457l0.15775,-0.04313c-2.11986,0.5164 -3.04927,1.18712 -5.32512,0.99734c0,0 -1.43573,-0.15953 -1.27621,-1.59526c0.15953,-1.43573 1.59526,-1.27621 1.59526,-1.27621c1.70264,0.26593 2.62299,-0.49932 4.30535,-0.92875l0.54297,-0.04313c0,0 1.44457,0 1.44457,1.44457z" fill="#313131" stroke="none" stroke-width="0.5"/><path d="M114.41428,146.63884c-1.37044,0.45681 -1.82725,-0.91362 -1.82725,-0.91362l0.14558,-0.43698c-0.44942,-0.32102 -0.89884,-0.64203 -1.34826,-0.96305c0,0 -1.1755,-0.83964 -0.33586,-2.01513c0.83964,-1.17549 2.01513,-0.33585 2.01513,-0.33585c0.44942,0.32102 0.89884,0.64202 1.34826,0.96304l0.91602,1.87434c0,0 0.45681,1.37043 -0.91363,1.82725z" fill="#313131" stroke="none" stroke-width="0.5"/><path d="M99.53399,140.18896c0.45681,1.37044 -0.91363,1.82725 -0.91363,1.82725l-0.38861,0.11424c-1.91865,0.95413 -2.58316,1.00893 -3.37076,2.95421c0,0 -0.5867,1.32006 -1.90676,0.73337c-1.32006,-0.5867 -0.73337,-1.90676 -0.73337,-1.90676c1.197,-2.53891 2.2386,-3.11877 4.71883,-4.36495l0.76704,-0.27098c0,0 1.37044,-0.45681 1.82725,0.91363z" fill="#313131" stroke="none" stroke-width="0.5"/><path d="M109.35706,141.48782c-0.45681,1.37044 -1.82725,0.91363 -1.82725,0.91363l-1.07893,-0.36199c-0.383,-0.21758 -0.71524,-0.72951 -1.14898,-0.65274c-0.28583,0.05059 -0.04534,0.57877 -0.068,0.86815c0,0 -0.64603,1.29206 -1.93809,0.64603c-1.29206,-0.64603 -0.64603,-1.93809 -0.64603,-1.93809c0.49096,-0.73787 0.64304,-1.90238 1.47287,-2.2136c0.97661,-0.36627 2.05894,0.33528 3.08842,0.50292l1.23238,0.40845c0,0 1.37044,0.45681 0.91363,1.82725z" fill="#313131" stroke="none" stroke-width="0.5"/><path d="M103.4603,145.0758c0,1.44457 -1.44457,1.44457 -1.44457,1.44457l-1.33483,-0.01115c-0.66514,-0.12922 -1.42898,0.02355 -1.99326,0.39865c0,0 -1.25423,0.71671 -1.97094,-0.53753c-0.71671,-1.25424 0.53753,-1.97094 0.53753,-1.97094c1.1399,-0.59675 2.50328,-0.86943 3.78502,-0.75701l0.97648,-0.01116c0,0 1.44457,0 1.44457,1.44457z" fill="#313131" stroke="none" stroke-width="0.5"/><path d="M110.20162,147.38711c0,1.44457 -1.44457,1.44457 -1.44457,1.44457c-0.51363,0 -2.1829,0 -2.69653,0c0,0 -1.44457,0 -1.44457,-1.44457c0,-1.44457 1.44457,-1.44457 1.44457,-1.44457c0.51363,0 1.02724,0 1.54087,0h1.15566c0,0 1.44457,0 1.44457,1.44457z" fill="#313131" stroke="none" stroke-width="0.5"/><path d="M48.29527,219.93784c-0.03926,-0.50314 0.21703,-0.9303 0.21703,-0.9303c2.19068,-3.62795 4.8086,-8.47671 8.5153,-10.85175c1.76303,-1.12965 3.35564,-0.2299 5.14516,-0.60621c1.19675,-0.25166 2.37329,-0.95708 3.58395,-0.78433c1.30219,0.18581 2.10325,1.5841 3.20842,2.29741c1.06362,0.6865 4.07516,0.21268 5.2328,0.2393c1.90549,1.11713 4.85806,4.73601 5.11082,7.21745c0.06372,0.62555 -0.42646,1.21625 -0.39611,1.8443c0.07563,1.56492 3.31489,2.6573 3.48056,4.1554c0.16265,1.47072 -2.77861,3.84343 -3.78139,4.69106c-1.37743,1.16431 -2.34714,2.75813 -4.14464,3.35198c-1.55918,0.51511 -3.30018,-0.15021 -4.80583,0.38212c-2.05771,0.72753 -3.1531,1.03425 -5.46466,1.03718c-2.68153,-0.0112 -4.8668,-0.8153 -7.37706,-1.61052c-4.97817,-1.57702 -10.45892,-2.63366 -8.85529,-9.42966zM51.19311,220.15312c-0.01029,0.25565 -0.07163,0.43967 -0.07163,0.43967l-0.35422,1.0492c-1.3083,4.84884 3.66347,4.96769 6.93867,5.97908c2.21952,0.6854 4.11653,1.48317 6.4908,1.47123c2.86842,0.00395 6.61315,-0.50081 9.37566,-1.27723c1.13124,-0.31794 2.3303,-2.09645 3.17452,-2.81151c0.76996,-0.65217 1.3525,-1.51022 2.14048,-2.14049c0.16533,-0.13224 0.76364,0.0592 0.62684,-0.10239c-1.02377,-1.20924 -3.09773,-1.7507 -3.45338,-3.93419c-0.10945,-0.67197 0.37393,-1.32706 0.37433,-2.00788c0.0005,-0.83324 -2.2477,-4.34135 -2.97877,-4.72431c-1.84923,0.06567 -4.24001,0.40533 -5.93853,-0.53114c-0.5772,-0.31824 -1.18709,-1.85599 -2.18465,-1.93999c-0.89291,-0.07518 -1.69955,0.58755 -2.57954,0.75654c-0.85338,0.16388 -3.31938,-0.45752 -4.10008,0.16423c-3.22173,2.5658 -5.37672,6.11738 -7.46051,9.60918z" fill="#26251b" stroke="none" stroke-width="0.5"/><path d="M58.61968,210.49716c0.7807,-0.62175 3.26634,-0.00956 4.11972,-0.17344c0.87999,-0.16899 1.70263,-0.83349 2.59554,-0.75831c0.99755,0.08399 1.62322,1.62444 2.20042,1.94267c1.69852,0.93647 4.11556,0.61413 5.96479,0.54846c0.73106,0.38296 2.99192,3.91627 2.99142,4.74951c-0.0004,0.68083 -0.48246,1.3457 -0.37302,2.01768c0.35564,2.1835 2.42814,2.74096 3.4519,3.9502c0.1368,0.16158 -0.46174,-0.0289 -0.62707,0.10334c-0.78798,0.63027 -1.3745,1.49924 -2.14446,2.15141c-0.84422,0.71507 -2.05429,2.50915 -3.18554,2.82709c-2.76251,0.77642 -6.55327,1.29805 -9.42168,1.2941c-2.37428,0.01194 -4.30464,-0.80018 -6.52416,-1.48558c-3.2752,-1.01139 -8.26566,-1.16432 -6.95736,-6.01316l0.35372,-1.05322c0,0 0.06122,-0.18582 0.07151,-0.44147c2.0838,-3.4918 4.26254,-7.09348 7.48427,-9.65928z" data-paper-data="{&quot;noHover&quot;:false,&quot;origItem&quot;:[&quot;Path&quot;,{&quot;applyMatrix&quot;:true,&quot;segments&quot;:[[[483.32901,330.02966],[3.60626,-6.04297],[-0.01781,0.44244]],[483.20504,330.79057],[[482.59202,332.60634],[0,0],[-2.26417,8.3915]],[[494.60022,342.95386],[-5.66812,-1.75034],[3.84115,1.18617]],[[505.83333,345.5],[-4.10897,0.02066],[4.96414,0.00683]],[[522.05903,343.2896],[-4.78085,1.34368],[1.95775,-0.55023]],[[527.55291,338.42394],[-1.46102,1.23751],[1.3325,-1.12865]],[[531.25727,334.71957],[-1.36369,1.09076],[0.28613,-0.22886]],[[532.34209,334.54238],[0.23675,0.27964],[-1.77175,-2.09273]],[[526.36561,327.73379],[0.61548,3.7788],[-0.18941,-1.16293]],[[527.01344,324.25891],[-0.0007,1.17825],[0.00086,-1.44202]],[[521.85833,316.08292],[1.26519,0.66276],[-3.20031,0.11365]],[[511.58099,315.16371],[2.93949,1.62068],[-0.99891,-0.55075]],[[507.8002,311.80633],[1.72638,0.14536],[-1.54528,-0.13011]],[[503.336,313.11561],[1.52292,-0.29246],[-1.47688,0.28362]],[[496.24032,313.39983],[1.3511,-1.07602],[-5.57559,4.44043]]],&quot;closed&quot;:true}]}" fill="#312f22" stroke="none" stroke-width="0.5"/><path d="M73.78587,218.58809c-1.34125,0.5365 -1.87775,-0.80475 -1.87775,-0.80475l-0.21946,-0.65991c-0.72827,-1.46679 -1.78106,-0.70158 -3.51977,-0.55571c0,0 -1.43958,0.11996 -1.55954,-1.31961c-0.11996,-1.43958 1.31961,-1.55955 1.31961,-1.55955c3.04849,-0.25243 4.09823,-0.68667 6.11069,1.7556l0.55097,1.26618c0,0 0.5365,1.34125 -0.80475,1.87775z" fill="#26251b" stroke="none" stroke-width="0.5"/><path d="M65.44867,213.20205c0,1.44457 -1.44457,1.44457 -1.44457,1.44457l0.15775,-0.04313c-2.11986,0.5164 -3.04927,1.18712 -5.32512,0.99734c0,0 -1.43573,-0.15953 -1.27621,-1.59526c0.15953,-1.43573 1.59526,-1.27621 1.59526,-1.27621c1.70264,0.26593 2.62299,-0.49932 4.30535,-0.92875l0.54297,-0.04313c0,0 1.44457,0 1.44457,1.44457z" fill="#26251b" stroke="none" stroke-width="0.5"/><path d="M75.05441,225.3586c-1.37044,0.45681 -1.82725,-0.91362 -1.82725,-0.91362l0.14558,-0.43698c-0.44942,-0.32102 -0.89884,-0.64203 -1.34826,-0.96305c0,0 -1.1755,-0.83964 -0.33586,-2.01513c0.83964,-1.17549 2.01513,-0.33585 2.01513,-0.33585c0.44942,0.32102 0.89884,0.64202 1.34826,0.96304l0.91602,1.87434c0,0 0.45681,1.37043 -0.91363,1.82725z" fill="#26251b" stroke="none" stroke-width="0.5"/><path d="M60.17412,218.90873c0.45681,1.37044 -0.91363,1.82725 -0.91363,1.82725l-0.38861,0.11424c-1.91865,0.95413 -2.58316,1.00893 -3.37076,2.95421c0,0 -0.5867,1.32006 -1.90676,0.73337c-1.32006,-0.5867 -0.73337,-1.90676 -0.73337,-1.90676c1.197,-2.53891 2.2386,-3.11877 4.71883,-4.36495l0.76704,-0.27098c0,0 1.37044,-0.45681 1.82725,0.91363z" fill="#26251b" stroke="none" stroke-width="0.5"/><path d="M69.99719,220.20758c-0.45681,1.37044 -1.82725,0.91363 -1.82725,0.91363l-1.07893,-0.36199c-0.383,-0.21758 -0.71524,-0.72951 -1.14898,-0.65274c-0.28583,0.05059 -0.04534,0.57877 -0.068,0.86815c0,0 -0.64603,1.29206 -1.93809,0.64603c-1.29206,-0.64603 -0.64603,-1.93809 -0.64603,-1.93809c0.49096,-0.73787 0.64304,-1.90238 1.47287,-2.2136c0.97661,-0.36627 2.05894,0.33528 3.08842,0.50292l1.23238,0.40845c0,0 1.37044,0.45681 0.91363,1.82725z" fill="#26251b" stroke="none" stroke-width="0.5"/><path d="M64.10043,223.79556c0,1.44457 -1.44457,1.44457 -1.44457,1.44457l-1.33483,-0.01115c-0.66514,-0.12922 -1.42898,0.02355 -1.99326,0.39865c0,0 -1.25423,0.71671 -1.97094,-0.53753c-0.71671,-1.25424 0.53753,-1.97094 0.53753,-1.97094c1.1399,-0.59675 2.50328,-0.86943 3.78502,-0.75701l0.97648,-0.01116c0,0 1.44457,0 1.44457,1.44457z" fill="#26251b" stroke="none" stroke-width="0.5"/><path d="M70.84175,226.10687c0,1.44457 -1.44457,1.44457 -1.44457,1.44457c-0.51363,0 -2.1829,0 -2.69653,0c0,0 -1.44457,0 -1.44457,-1.44457c0,-1.44457 1.44457,-1.44457 1.44457,-1.44457c0.51363,0 1.02724,0 1.54087,0h1.15566c0,0 1.44457,0 1.44457,1.44457z" fill="#26251b" stroke="none" stroke-width="0.5"/><path d="M45.35988,120.96019v-19.59049h39.35987v19.59049z" fill="#7f7f7f" stroke="#5e5e5e" stroke-width="2.5"/><text transform="translate(61.20163,115.03584) scale(0.33551,0.33551)" font-size="40" xml:space="preserve" fill="#ffffff" fill-rule="nonzero" stroke="none" stroke-width="1" stroke-linecap="butt" stroke-linejoin="miter" stroke-miterlimit="10" stroke-dasharray="" stroke-dashoffset="0" font-family="Sans Serif" font-weight="normal" text-anchor="start" style="mix-blend-mode: normal"><tspan x="0" dy="0">1</tspan></text><path d="M-38.31379,150.93561c1.50309,0.50103 1.00206,2.00411 1.00206,2.00411l-0.39702,1.18337c-1.17865,4.31492 -3.38632,7.26404 -4.90169,11.32998c-0.53258,1.42899 -0.2996,3.07658 -0.8669,4.49214c-1.22417,3.05462 -3.73165,3.54645 -6.16775,2.95153l-1.01459,0.12683l-0.02719,-0.21756c-0.14561,0.06902 -0.29122,0.13803 -0.43682,0.20704l0.03972,-0.59047c-0.05493,-0.02264 -0.10969,-0.0457 -0.16424,-0.06918c-0.01769,-0.00395 -0.03536,-0.00792 -0.05304,-0.01188l-0.2635,0.52701l-1.65932,-0.82966c-0.12567,-0.05957 -0.24226,-0.1352 -0.3471,-0.22423c-1.88634,-0.44988 -3.74183,-0.9145 -5.66888,-1.35445c0,0 -1.54382,-0.35627 -1.18755,-1.90009c0.35627,-1.54382 1.90009,-1.18755 1.90009,-1.18755c2.74033,0.63851 5.29368,1.29686 8.03535,1.90308l0.01825,0.01293l0.002,-0.008l1.65787,0.41446c0.18087,0.04105 0.34999,0.11304 0.50149,0.21011c0.86051,-0.03365 1.64082,-0.19337 1.90765,-1.17258c1.49287,-5.47836 4.15015,-9.97578 5.63904,-15.44324l0.44798,-1.35167c0,0 0.50102,-1.50308 2.00411,-1.00205z" fill="#c1c2d4" stroke="none" stroke-width="0.5"/><path d="M-49.33745,142.08229c2.98495,0.74624 6.80248,1.3328 9.39025,3.13315c0.79447,0.55273 -1.3744,4.64711 -1.74625,5.51403c-2.2894,5.33757 -5.38298,11.09214 -6.39147,16.84253c-2.4295,0.09892 -5.32761,-1.11084 -7.61484,-1.80369c-0.10392,-0.03148 -3.4602,-1.03349 -3.81454,-1.45332c-0.46428,-0.55006 0.81732,-1.18993 1.15312,-1.82661c0.99573,-1.88787 2.06731,-3.62962 2.96822,-5.55945c2.26711,-4.85638 3.92163,-9.94842 5.95457,-14.87177z" data-paper-data="{&quot;noHover&quot;:false,&quot;origItem&quot;:[&quot;Path&quot;,{&quot;applyMatrix&quot;:true,&quot;segments&quot;:[[[416.06851,312.0524],[0,0],[-3.20776,7.76851]],[[406.76863,335.38371],[3.57725,-7.66283],[-1.42153,3.04506]],[[402.06622,344.12437],[1.57115,-2.97885],[-0.52986,1.00461]],[[400.24372,347.00332],[-0.73258,-0.86794],[0.55912,0.66244]],[[406.23886,349.27834],[-0.16397,-0.04967],[3.60899,1.09324]],[[418.19363,352.11284],[-3.83349,0.15608],[1.59128,-9.07349]],[[428.20214,325.68187],[-3.61243,8.4221],[0.58673,-1.36791]],[[430.97534,317.00601],[1.25359,0.87214],[-4.08322,-2.84076]],[[416.22699,312.09202],[4.70993,1.17748],[0,0]]],&quot;closed&quot;:true}]}" fill="#c1c2d4" stroke="none" stroke-width="0.5"/><path d="M-44.24332,160.74161c-1.12034,1.12034 -2.24067,0 -2.24067,0l-0.43448,-0.49186c-2.46772,-3.94969 -4.75843,-7.98532 -6.6531,-12.23763c0,0 -0.64348,-1.44784 0.80436,-2.09132c1.44784,-0.64349 2.09132,0.80436 2.09132,0.80436c1.82585,4.11934 4.05507,8.02331 6.44455,11.84515l-0.01197,-0.06936c0,0 1.12034,1.12033 0,2.24067z" fill="#cecfe2" stroke="none" stroke-width="0.5"/><path d="M-50.4271,141.69983c0.07464,-0.20282 0.20597,-0.41303 0.41619,-0.62325c1.12034,-1.12034 2.24067,0 2.24067,0l0.10522,0.11442c2.71123,2.27369 6.18987,5.97069 7.36718,9.36744c1.01543,2.92968 1.29754,5.65517 -3.90367,3.77789c-1.00085,-0.36124 -1.25795,-1.72961 -1.72646,-2.68496c-1.39593,-2.84652 -2.93703,-5.42752 -4.54951,-8.24587c0,0 -0.53515,-0.93652 0.05037,-1.70567z" fill="#cecfe2" stroke="none" stroke-width="0.5"/><path d="M-49.43965,142.12053c-2.03294,4.92335 -3.62676,9.93002 -5.89387,14.78639c-0.90091,1.92983 -1.98446,3.65159 -2.98019,5.53946c-0.3358,0.63668 -1.6193,1.27449 -1.15502,1.82456c0.35435,0.41983 3.69555,1.41033 3.79946,1.44181c2.28722,0.69285 5.14692,1.8953 7.57642,1.79639c1.00849,-5.75039 4.05356,-11.41325 6.34297,-16.75082c0.37184,-0.86692 2.55201,-4.94567 1.75754,-5.49839c-2.58777,-1.80035 -6.36192,-2.36804 -9.34688,-3.11428zM-50.10969,138.83765c0.3798,-0.05599 0.694,0.02257 0.694,0.02257l0.84501,0.21125c3.08273,0.77068 8.72122,1.52012 10.93337,4.0683c2.02271,2.32996 0.321,4.98908 -0.54156,7.32695c-2.38609,6.46712 -4.95084,13.18504 -7.83563,19.43441c-4.11354,1.12623 -14.37643,-0.20706 -16.50944,-4.7894c-0.60293,-1.29527 2.41069,-5.85712 2.90177,-6.70517c3.4114,-5.89116 5.07204,-12.42518 7.73217,-18.63338c0,0 0.53795,-1.25521 1.78031,-0.93553z" fill="#a3a3b3" stroke="none" stroke-width="0.5"/><path d="M-38.48213,154.42513c-0.43831,-0.46874 -0.43831,-1.14142 -0.43831,-1.14142l0.00162,-1.61822c-0.17077,-1.909 -0.59433,-3.68322 -0.8344,-5.57909c0,0 -0.19652,-1.57216 1.37564,-1.76868c1.57216,-0.19652 1.76868,1.37563 1.76868,1.37563c0.24398,1.98063 0.67126,3.82766 0.85562,5.82854l0.00042,0.45318c0.74782,0.50444 0.62273,1.50515 0.62273,1.50515c-0.96966,7.71968 -5.51764,14.26293 -9.28038,20.8698l-0.67781,0.75676c0,0 -0.46668,0.46668 -1.09884,0.49644c-0.45842,0.60137 -1.28901,0.60137 -1.28901,0.60137l-0.59553,-0.0473c-3.67041,-0.92818 -11.99786,-2.56886 -13.71545,-5.9137c-0.72817,-1.41803 -0.57714,-3.39506 -0.58232,-4.9185c0,0 0,-1.58439 1.58439,-1.58439c1.58439,0 1.58439,1.58439 1.58439,1.58439c-0.00395,1.00311 -0.12283,2.52764 0.26269,3.5316c0.48695,1.26809 1.19624,0.74476 2.38277,1.06902c2.42273,0.66211 4.72495,1.7131 7.09521,2.51733c0.14198,-1.29787 0.27741,-2.59645 0.4073,-3.89558c0,0 0.15766,-1.57653 1.73419,-1.41888c1.57653,0.15765 1.41888,1.73418 1.41888,1.73418c-0.07101,0.71007 -0.14386,1.41997 -0.21909,2.12962c3.09612,-5.22692 6.52315,-10.5738 7.6366,-16.56727z" fill="#a3a3b3" stroke="none" stroke-width="0.5"/></g></g></svg>