<svg version="1.1" xmlns="http://www.w3.org/2000/svg" xmlns:xlink="http://www.w3.org/1999/xlink" width="40.51879" height="22.90628" viewBox="0,0,40.51879,22.90628"><g transform="translate(-206.34565,-168.54686)"><g data-paper-data="{&quot;isPaintingLayer&quot;:true}" fill-rule="nonzero" stroke="none" stroke-width="0.5" stroke-linecap="butt" stroke-linejoin="miter" stroke-miterlimit="10" stroke-dasharray="" stroke-dashoffset="0" style="mix-blend-mode: normal"><path d="M212.06457,176.99832c0.0041,0.00227 0.09374,0.02082 0.09784,0.0231c0.19499,0.26172 0.38788,0.58981 0.58139,0.9944l0.66796,0.39424c0,0 0.1163,-0.00948 0.29505,-0.15138c0.33649,-0.03016 0.6023,-0.38521 0.6023,-0.81503c0,-0.158 -0.03569,-0.30686 -0.09778,-0.4317l-0.32852,-0.68951l-0.06469,0.04888l-0.03282,-0.20609c-0.14854,-0.11074 -0.30414,-0.20831 -0.46576,-0.29277c-0.15495,-0.3809 -0.51163,-0.70787 -0.90545,-0.89169l0.0344,-0.04328c0.62483,-0.78593 1.70437,-1.7719 2.76467,-2.17702c0.43044,0.04143 0.94234,0.21147 1.36944,0.3528c0.10221,0.98748 0.41253,0.68825 0.72828,0.28853l0.3776,0.52342c0.08479,0.13532 0.20312,0.23588 0.33919,0.2825c0.12023,0.19118 0.3091,0.42891 0.71946,0.17151c0.58042,-0.36407 0.29244,-1.09679 0.29244,-1.09679c-0.18179,-0.43733 -0.38782,-0.80502 -0.6149,-1.10694c0.71857,-0.26431 1.78076,-0.77927 1.92765,-0.81013c1.51592,-0.31847 3.49671,0.43724 4.92829,1.00603l0.48757,0.48565c0.11168,0.11406 0.25726,0.18197 0.41249,0.18197c0.3584,0 0.654,-0.36463 0.654,-0.81425c0,-0.19475 -0.05637,-0.26501 -0.14729,-0.40511l-0.12892,-0.31058c0.28291,-2.62194 4.13706,-0.51104 6.02993,0.12275c-0.05114,0.05555 -0.10032,0.11329 -0.14737,0.17129c-0.54778,0.6754 -0.82523,1.879 -1.05907,2.76039c-0.03644,0.27435 -0.0709,0.55178 -0.10735,0.82612l-0.20427,0.77851c-0.02465,0.08603 -0.03735,0.18026 -0.03735,0.27694c0,0.44961 0.29371,0.82215 0.6521,0.82215c0.24053,0 0.37026,-0.1235 0.48235,-0.36738l0.32922,-0.68335l-0.10994,-0.08218l0.05837,-0.21728l-0.14109,-0.05835c0.00459,-0.00855 0.08497,-0.06949 0.08956,-0.07808l0.0658,0.0755c0.01768,-0.13305 0.03614,-0.26435 0.05382,-0.3974c0.77297,-1.52693 1.60041,-3.46616 2.50097,-3.8428c1.48599,-0.62147 6.08214,-0.06106 7.37001,0.92311c4.25914,3.06849 4.20139,10.22905 0.59769,13.80014c-2.2083,2.2223 -7.42196,4.4923 -9.77774,1.57182l-0.35937,-0.69719c-0.11209,-0.24388 -0.26004,-0.33233 -0.50056,-0.33233c-0.3584,0 -0.65259,0.36862 -0.65259,0.81823c0,0.09669 0.013,0.18987 0.03765,0.2759l0.21719,0.82164l0.08164,-0.14267l0.03708,0.07742l0.14415,0.01724c-0.01997,0.07355 -0.0501,0.14402 -0.0915,0.20926c-0.18447,0.29068 -0.59891,-0.02225 -0.89104,0.03889c-2.1326,0.44639 -3.20623,-0.77155 -4.95399,-1.88701l0.12549,-0.19955c0.1944,-0.14062 0.32426,-0.29552 0.32426,-0.59726c0,-0.44961 -0.29658,-0.81449 -0.65498,-0.81449c-0.07708,0 -0.15297,0.0165 -0.22155,0.04742l-0.65941,0.27209l0.06869,0.06335l-0.06135,0.04662l0.02004,0.196c-2.33502,0.59858 -4.5658,2.62494 -7.36009,2.17951c-0.93322,-0.14877 1.16441,-2.41796 0.45816,-3.37552c-0.03502,-0.16105 -0.12275,-0.32846 -0.303,-0.46413c-0.32498,-0.24462 -0.57447,-0.10952 -0.72545,0.04624c-0.08947,-0.00628 -0.18523,-0.01005 -0.28727,-0.00999c-0.29164,0.0002 -0.43293,0.30739 -0.6896,0.48109c-0.44553,0.35387 -1.40694,1.09685 -2.16199,1.27089c-0.33386,-0.05387 -0.66883,-0.15623 -0.99127,-0.29489l-0.03457,-0.02651c-0.0907,-0.13039 -0.1647,-0.30237 -0.21661,-0.51961c0.09285,-0.1354 0.17847,-0.27811 0.25644,-0.42494c0.04211,-0.02786 0.08361,-0.05476 0.1245,-0.08038c0,0 0.57977,-0.36699 0.28957,-1.09513c-0.01794,-0.045 -0.03706,-0.08626 -0.05701,-0.12326c-0.03423,-0.21331 -0.14322,-0.44713 -0.43007,-0.56708c-0.13986,-0.05848 -0.2586,-0.06419 -0.3585,-0.03751c-0.02288,-0.00306 -0.04613,-0.00469 -0.06965,-0.00469c-0.12594,0 -0.15849,0.02475 -0.25801,0.10264l-0.54818,0.41175l0.04801,0.10019c-0.56288,0.22647 -1.05215,0.55039 -1.67073,1.06973l-0.57959,-0.00437c0,0 -0.10147,-0.00004 -0.22416,0.0503c-0.03533,-0.02313 -0.07024,-0.04727 -0.10462,-0.07195c-0.70928,-0.97865 -1.5768,-3.09387 -1.69723,-4.80565c0.12426,-0.93159 0.48048,-1.8013 1.09319,-2.40846c0.01698,-0.01711 0.0339,-0.0342 0.05075,-0.05101c0.91262,-0.31959 2.29405,-0.64665 3.29765,-0.47349z" data-paper-data="{&quot;noHover&quot;:false,&quot;origItem&quot;:[&quot;Path&quot;,{&quot;applyMatrix&quot;:true,&quot;segments&quot;:[[[438.8664,355.86192],[2.10954,-0.58887],[-0.03896,0.03096]],[[438.7491,355.95566],[0.03924,-0.03153],[-1.41628,1.11874]],[[436.22267,360.38278],[0.28722,-1.71652],[0.27836,3.15407]],[[440.14332,369.21586],[-1.63953,-1.80323],[0.07949,0.04547]],[[440.38506,369.348],[-0.08167,-0.04261],[0.2836,-0.09275]],[440.90321,369.25526],[[442.04838,369.30968],[0,0],[1.42986,-0.95693]],[[445.90966,367.33584],[-1.30111,0.41728],[0,0]],[445.79856,367.15066],[[447.06539,366.39056],[0,0],[0.23004,-0.14352]],[[447.85828,366.16411],[-0.29111,0],[0.05439,0]],[[448.01927,366.17265],[-0.05289,-0.00564],[0.23092,-0.04916]],[[448.84781,366.24109],[-0.32329,-0.10776],[0.66307,0.22102]],[[449.84111,367.28215],[-0.07911,-0.39303],[0.04611,0.06818]],[[449.9727,367.50848],[-0.04146,-0.08292],[0.67082,1.34164]],[[449.30188,369.52095],[0,0],[-0.09453,0.04719]],[[449.01404,369.66888],[0.09734,-0.05134],[-0.18022,0.27055]],[[448.42076,370.45023],[0.21463,-0.24948],[0.12001,0.40029]],[[448.92042,371.40462],[-0.20965,-0.24025],[0,0]],[[449.00025,371.45325],[0,0],[0.74532,0.2555]],[[451.29008,371.99274],[-0.77172,-0.09927],[1.74529,-0.32068]],[[456.10236,369.72661],[-1.02984,0.65202],[0.59331,-0.32007]],[[457.88228,368.76639],[-0.67413,0.00037],[0.23588,-0.00013]],[[458.54591,368.78375],[-0.2068,-0.01158],[0.34898,-0.287]],[[460.2218,368.69623],[-0.7512,-0.45072],[0.41663,0.24998]],[[460.92009,369.54691],[-0.08095,-0.29674],[1.63251,1.76437]],[[459.85046,375.74956],[-2.15716,-0.27411],[6.45906,0.82074]],[[476.8113,371.69865],[-5.39745,1.10292],[0,0]],[476.70998,371.52978],[476.8527,371.44415],[476.74979,371.1354],[[478.26214,370.63128],[0,0],[0.15852,-0.05699]],[[478.7697,370.54323],[-0.17815,0],[0.82843,0]],[[480.2697,372.04323],[0,-0.82843],[0,0.55597]],[[479.51787,373.34362],[0.44936,-0.2591],[0,0]],[[479.23795,373.51157],[0,0],[4.03999,2.05532]],[[490.63008,377.00352],[-4.92954,0.82249],[0.67526,-0.11267]],[[492.68276,376.93662],[-0.42639,0.53559],[0.09572,-0.12023]],[[492.89275,376.5522],[-0.04615,0.13551],[0,0]],[492.68158,376.6789],[492.59595,376.53618],[492.2872,376.6391],[[491.78308,375.12674],[0,0],[-0.05699,-0.15852]],[[491.69503,374.61918],[0,0.17815],[0,-0.82843]],[[493.19503,373.11918],[-0.82843,0],[0.55597,0]],[[494.49542,373.87102],[-0.2591,-0.44936],[0,0]],[[495.18261,375.01633],[0,0],[5.44543,5.38115]],[[517.75992,372.15991],[-5.10452,4.09472],[8.32999,-6.57994]],[[516.37965,346.79716],[9.84507,5.65388],[-2.97696,-1.81338]],[[499.35864,345.1232],[3.43488,-1.14511],[-2.08166,0.69398]],[[493.743,352.09208],[1.78674,-2.81346],[-0.04086,0.24516]],[[493.62042,352.82757],[0.04086,-0.24516],[0,0]],[[493.2926,352.78397],[0,0],[-0.01061,0.01583]],[[493.26077,352.83137],[0.01061,-0.01577],[0,0]],[493.58768,352.94034],[493.45365,353.34243],[493.70849,353.49534],[[492.94985,354.75974],[0,0],[-0.2591,0.44936]],[[491.64946,355.51157],[0.55597,0],[-0.82843,0]],[[490.14946,354.01157],[0,0.82843],[0,-0.17815]],[[490.23751,353.50401],[-0.05699,0.15852],[0,0]],[[490.71373,352.07535],[0,0],[0.08425,-0.5055]],[[490.96648,350.55885],[-0.08425,0.5055],[0.54054,-1.62401]],[[493.42235,345.48065],[-1.2662,1.24447],[0.10877,-0.1069]],[[493.76286,345.16489],[-0.11821,0.10236],[-4.37538,-1.16779]],[[479.89332,344.96506],[0.65396,-4.83108],[0,0]],[[480.19114,345.33734],[0,0],[0.21016,0.25814]],[[480.5273,346.28371],[0,-0.35883],[0,0.82843]],[[479.0273,347.78371],[0.82843,0],[-0.35883,0]],[[478.08092,347.44755],[0.25814,0.21016],[0,0]],[[476.96074,346.5514],[0,0],[-3.3091,-1.04805]],[[465.61502,344.6732],[3.50406,-0.5868],[-0.33955,0.05686]],[[461.17133,346.15232],[1.66097,-0.48701],[0.52492,0.5563]],[[462.59487,348.18884],[-0.4202,-0.80579],[0,0]],[[461.92405,350.2013],[1.34164,-0.67082],[-0.94857,0.47429]],[[460.08433,349.79162],[0.27791,0.35227],[-0.31452,-0.08589]],[[459.30048,349.27069],[0.196,0.24934],[0,0]],[[458.60417,348.4003],[0,0],[-0.72986,0.73651]],[[456.74448,347.77414],[0.23626,1.8195],[-0.98723,-0.26042]],[[453.75724,347.21473],[0.99495,0.07634],[-2.45089,0.74646]],[[447.37336,351.2083],[1.4443,-1.44812],[0,0]],[[447.29391,351.28775],[0,0],[0.91033,0.3387]],[[449.38769,352.92755],[-0.35818,-0.70184],[0.37359,0.15561]],[[450.46451,353.4661],[-0.34337,-0.20404],[0,0]],[450.54062,353.8447],[450.69009,353.75501],[[451.45019,355.02185],[0,0],[0.14352,0.23004]],[[451.67663,355.81473],[0,-0.29111],[0,0.79195]],[[450.2851,357.31087],[0.7778,-0.05558],[-0.4132,0.26146]],[449.40385,357.57233],[[447.86001,356.84407],[0,0],[-0.44729,-0.74548]],[[446.51676,355.00687],[0.45071,0.48223],[-0.00947,-0.00419]],[[446.48835,354.99429],[0.00947,0.00419],[-2.31984,-0.31907]]],&quot;closed&quot;:true}],&quot;index&quot;:null}" fill="#ccc599"/><path d="M243.2523,185.86108c0.45886,0.57564 0,1.15129 0,1.15129l-0.34788,0.40203c-2.47517,1.86308 -4.99593,2.62125 -7.91179,2.63246c0,0 -0.60468,0 -0.64663,-0.73224c-1.39613,0.12923 -2.82273,0.17026 -4.31026,0.17026c-1.805,-0.37036 -3.40132,-1.90539 -5.03209,-2.23893c-0.2433,-0.04977 -1.36943,0.83714 -1.61846,0.9417c-2.20729,0.92682 -6.55446,2.30655 -5.97155,-2.16437c0.30767,-2.11381 -2.83324,1.93744 -4.41981,0.23504c-0.30947,-0.33206 -0.37669,-1.45431 -0.29991,-2.12196c-0.78779,0.59785 -2.83069,1.54971 -3.1273,1.67464c0,0 -0.61562,0.25744 -0.82083,-0.51487c-0.20521,-0.77231 0.41042,-1.02975 0.41042,-1.02975c0.82154,-0.3407 3.80832,-2.60621 4.59649,-1.84536c0.35003,0.33791 0.25007,1.07573 0.26111,1.62963c0.00628,0.31503 -0.51148,0.86129 -0.26111,0.88681c1.89805,0.19351 5.51283,-3.26986 4.94114,1.35347c-0.46344,3.41372 5.12517,-0.76832 6.45144,-0.66346c1.51839,0.12005 3.34194,1.88104 4.99751,2.23476c3.83896,0 7.26848,-0.26088 10.81933,-1.74573l0.49449,-0.37788c0,0 0.50306,-0.37866 0.83953,0.18415l0.03844,-0.06172c0,0 0.45886,-0.57564 0.91772,0z" fill="#c2bb91"/><path d="M240.65637,171.61763c0,0.81408 -0.64893,0.81408 -0.64893,0.81408h-0.66864c-0.94807,0 -2.23441,-0.28871 -3.14253,0.0999c-0.76013,0.32529 -1.68672,1.65285 -2.41428,2.26171c-0.01996,0.1894 -0.04494,0.38935 -0.07488,0.60065l-0.10382,0.09894l0.05131,0.03862l-0.3282,0.68622c-0.11209,0.24388 -0.32205,0.40803 -0.56257,0.40803c-0.3584,0 -0.64893,-0.36447 -0.64893,-0.81408c0,-0.09669 0.01344,-0.18943 0.0381,-0.27546l0.21809,-0.82078l0.12581,0.05261c0.05271,-0.42706 0.25957,-2.06912 0.01315,-2.19792c-0.48874,-0.25546 -1.25406,-0.21496 -1.79713,-0.44205c-0.94921,-0.21388 -1.82861,-1.06764 -2.85113,-0.58535c-0.57444,0.27095 -1.08212,1.33024 -1.55246,1.5342c-0.71062,0.30818 -1.58414,-0.43888 -2.29136,-0.50822c-1.80336,-0.17684 -4.76714,-0.4342 -5.91506,1.4656c-3.04532,-0.20699 -3.36033,1.67964 -5.63455,3.11687c0.13891,0.13647 0.25873,0.36748 0.2077,0.75156c-0.10668,0.803 -0.74677,0.66917 -0.74677,0.66917c-0.40579,-0.08669 -0.81905,-0.1188 -1.2306,-0.12872c-0.33111,-0.00798 -0.65408,0.17061 -0.95468,0.34492c-2.34484,1.35978 -0.3197,2.36883 0.39674,4.57347c0.15348,0.47229 0.59375,1.03582 0.36701,1.45915c-1.26689,2.3654 -2.66874,-0.99547 -2.96174,-2.09817c-1.14901,-2.46194 -0.27671,-4.42259 1.44423,-5.90105c0.84584,-0.72665 2.44954,-0.36359 3.14407,-1.3059c1.21381,-1.64685 3.38942,-4.21726 5.42448,-2.95949c0.44069,-1.59995 1.98604,-1.23681 3.06282,-1.46195c1.11114,-0.23232 2.37629,-0.27171 3.50341,-0.14811c0.15026,0.01648 1.66583,0.64953 1.72049,0.61019c0.50719,-0.36501 0.87746,-1.23322 1.56786,-1.54146c1.3753,-0.614 2.35091,0.29443 3.6124,0.53308c1.42783,0.59707 2.29284,0.98931 2.63967,1.98534c1.35529,-1.46866 3.64899,-1.72976 5.67336,-1.72976h0.66864c0,0 0.64893,0 0.64893,0.81408z" fill="#dcd5a5"/><path d="M208.80996,177.47734c-0.01685,0.0168 -0.03377,0.03377 -0.05075,0.05087c-0.61271,0.60717 -0.96872,1.4711 -1.09298,2.4027c0.12042,1.71178 0.98685,3.81527 1.69614,4.79391c0.03439,0.02468 0.06925,0.04858 0.10458,0.07172c0.12269,-0.05034 0.22416,-0.05033 0.22416,-0.05033l0.49542,0.02953c0.61858,-0.51934 1.10757,-0.84478 1.67046,-1.07125l-0.04806,-0.1005l0.54805,-0.41252c0.09952,-0.07789 0.21708,-0.12289 0.34301,-0.12289c0.02353,0 0.04677,0.00157 0.06965,0.00463c0.0999,-0.02668 0.21858,-0.02134 0.35844,0.03714c0.28686,0.11995 0.3955,0.35171 0.42972,0.56501c0.01994,0.037 0.03899,0.07784 0.05692,0.12284c0.29021,0.72814 -0.29021,1.09222 -0.29021,1.09222c-0.0409,0.02562 -0.08241,0.05242 -0.12452,0.08028c-0.07797,0.14684 -0.16381,0.28865 -0.25666,0.42405c0.05191,0.21724 0.12546,0.38758 0.21616,0.51797l0.03454,0.0264c0.32244,0.13867 0.65676,0.23892 0.99061,0.2928c0.75505,-0.17404 1.63635,-0.87602 2.08187,-1.22989c0.25667,-0.1737 0.47839,-0.52094 0.77002,-0.52113c0.10205,-0.00008 0.19764,0.00314 0.2871,0.00942c0.15097,-0.15576 0.40003,-0.29212 0.72501,-0.0475c0.18024,0.13567 0.26707,0.30064 0.3021,0.46168c0.70626,0.95756 -1.39596,3.21755 -0.46274,3.36631c2.7943,0.44543 5.00252,-1.59995 7.33755,-2.19852l-0.04383,-0.09164l0.06174,-0.04648l-0.04452,-0.16756l0.65426,-0.2736c0.06858,-0.03092 0.1425,-0.04779 0.21958,-0.04779c0.3584,0 0.64893,0.36447 0.64893,0.81408c0,0.30174 -0.13085,0.56514 -0.32525,0.70575l-0.1211,0.09116c1.74776,1.11547 2.79583,2.34154 4.92843,1.89516c0.29213,-0.06114 0.70356,0.25437 0.88802,-0.03631c0.04141,-0.06525 0.07088,-0.13508 0.09085,-0.20863l-0.09135,0.06876l-0.03704,-0.07746l-0.13357,0.05586l-0.21809,-0.82079c-0.02465,-0.08603 -0.0381,-0.17877 -0.0381,-0.27546c0,-0.44961 0.29053,-0.81408 0.64893,-0.81408c0.24053,0 0.45048,0.16416 0.56258,0.40804l0.29729,0.62158c2.35578,2.92047 7.55902,0.67205 9.76732,-1.55024c3.60369,-3.57108 3.66202,-10.69645 -0.59712,-13.76495c-1.28788,-0.98416 -5.87759,-1.52998 -7.36357,-0.9085c-0.90056,0.37664 -1.65645,2.25524 -2.42942,3.78217c-0.01768,0.13305 -0.03535,0.26611 -0.05303,0.39916l-0.14182,-0.02366c-0.00459,0.00859 -0.00918,0.01717 -0.01377,0.02573l0.14142,0.05914l-0.05798,0.21822l0.11025,0.08299l-0.3282,0.68622c-0.11209,0.24388 -0.32205,0.40803 -0.56258,0.40803c-0.3584,0 -0.64893,-0.36447 -0.64893,-0.81408c0,-0.09669 0.01344,-0.18943 0.0381,-0.27546l0.20602,-0.77537c0.03644,-0.27435 0.0729,-0.54869 0.10934,-0.82304c0.23385,-0.88138 0.51467,-2.08066 1.06246,-2.75605c0.04705,-0.05802 0.09617,-0.11582 0.14731,-0.17137c-1.89286,-0.63379 -5.71728,-2.73039 -6.0002,-0.10846l0.12884,0.20204c0.09092,0.1401 0.14543,0.31887 0.14543,0.51362c0,0.44961 -0.29053,0.81408 -0.64893,0.81408c-0.15524,0 -0.29774,-0.06838 -0.40942,-0.18244l-0.48461,-0.48636c-1.43157,-0.5688 -3.39243,-1.33781 -4.90835,-1.01934c-0.14689,0.03086 -1.20385,0.53844 -1.92242,0.80275c0.22709,0.30192 0.43406,0.66795 0.61585,1.10527c0,0 0.29021,0.72814 -0.29021,1.09221c-0.41037,0.2574 -0.67566,-0.03116 -0.79589,-0.22234c-0.13607,-0.04662 -0.25432,-0.1474 -0.33911,-0.28273l-0.30123,-0.47238c-0.31575,0.39973 -0.70232,0.64765 -0.80454,-0.33983c-0.4271,-0.14134 -0.86189,-0.26217 -1.29233,-0.30361c-1.0603,0.40512 -2.13695,1.38148 -2.76177,2.16741l-0.03438,0.04312c0.39382,0.18382 0.75085,0.50905 0.9058,0.88996c0.16162,0.08446 0.31731,0.18154 0.46585,0.29228l0.03292,0.20547l0.06467,-0.04867l0.32883,0.68754c0.06209,0.12485 0.09796,0.27233 0.09796,0.43031c0,0.4298 -0.26551,0.78182 -0.602,0.81199c-0.17876,0.1419 -0.38125,0.1419 -0.38125,0.1419l-0.66789,-0.39524c-0.19351,-0.40459 -0.38613,-0.73537 -0.58112,-0.99709c-0.0041,-0.00227 -0.00819,-0.00456 -0.01229,-0.00683c-1.0036,-0.17317 -2.38477,0.15129 -3.29739,0.47089zM216.47475,187.48756c-1.15134,0.5738 -2.53519,0.46013 -3.82304,-0.06923l-0.61991,-0.46095c0,0 -0.20581,-0.15491 -0.292,-0.43333c-0.49708,0.27439 -1.05038,0.38518 -1.61254,0.25545c-0.07035,-0.01624 -0.13982,-0.03434 -0.20837,-0.05429c-0.35649,0.00611 -0.70632,-0.095 -1.03875,-0.35219c-0.22029,-0.17044 -0.4304,-0.38211 -0.6282,-0.6274c-1.58448,-1.51538 -2.23724,-4.28251 -1.74583,-6.6399c0.12995,-1.24312 0.55352,-2.32615 1.35368,-2.9528c0.10884,-0.04586 0.22047,-0.09061 0.33453,-0.13395c0.66388,-0.62063 1.30737,-1.04489 1.92343,-1.24628c0.1472,-0.9103 1.00734,-1.5733 1.54313,-2.04361c1.12771,-0.9899 2.18482,-1.43645 3.28206,-1.47691c0.80606,-0.28229 1.61902,-0.32831 2.34679,-0.00762c0.46967,-0.36998 1.04242,-0.63246 1.37973,-0.82353c2.03102,-1.15044 4.44151,-0.55247 6.53663,0.28009c0.37182,-0.6977 1.15837,-1.52749 1.53401,-1.70246c1.93886,-0.90308 4.70499,-0.04069 6.51313,1.00296c0.32925,0.19004 0.57633,0.37505 0.75542,0.55764c0.20315,-0.21735 0.38914,-0.3742 0.54167,-0.44641c1.76845,-0.83731 6.92416,-0.09392 8.46091,1.04874c4.92172,3.8179 5.08477,12.0268 0.74016,16.43246c-2.55317,2.55469 -7.48497,4.48939 -10.59467,2.24254c-0.33058,0.49683 -1.27542,0.62388 -1.73955,0.72083c-2.18477,0.45638 -4.92508,-0.43177 -6.07353,-2.81677c-0.33732,0.42144 -0.97431,0.66396 -1.45137,0.93595c-1.5875,0.90507 -4.57597,1.90532 -6.3507,1.16337c-1.34155,-0.56085 -1.34254,-1.55179 -1.06682,-2.35236z" data-paper-data="{&quot;index&quot;:null}" fill="#ada882"/><path d="M234.90467,179.81412c-0.0713,-0.43801 -0.04485,-0.90957 0.0833,-1.28576c-0.54662,-0.03175 -1.04894,0.28826 -1.42083,1.28229c0,0 -0.02618,0.06569 -0.07855,0.14775c0.38725,0.1498 0.87699,0.31577 1.35897,0.40172c0.00311,-0.17341 0.0238,-0.35841 0.05711,-0.546zM237.77789,180.56445c-1.11172,2.09902 -3.42449,1.47062 -5.10782,0.77287c0,0 -0.61562,-0.25744 -0.41042,-1.02974c0.04601,-0.17317 0.11266,-0.29457 0.18837,-0.3787c-0.22997,-0.37403 -0.04172,-0.84635 -0.04172,-0.84635c1.39157,-3.34769 3.63978,-2.05686 5.59477,-0.6136l0.17922,0.10973c0,0 0.58042,0.36407 0.29021,1.09221c-0.11232,0.28178 -0.26808,0.40001 -0.41686,0.43904z" fill="#000000"/><path d="M234.87526,180.40181c-0.48197,-0.08596 -1.03735,-0.26753 -1.42461,-0.41733c0.05237,-0.08206 0.07684,-0.15211 0.07684,-0.15211c0.37189,-0.99404 0.94486,-1.3736 1.49148,-1.34185c-0.12814,0.37619 -0.14606,0.90761 -0.07476,1.34562c-0.03331,0.18759 -0.06585,0.39227 -0.06896,0.56568z" data-paper-data="{&quot;noHover&quot;:false,&quot;origItem&quot;:[&quot;Path&quot;,{&quot;applyMatrix&quot;:true,&quot;segments&quot;:[[[499.18468,360.16758],[-0.07701,0.34565],[-0.16482,-0.80705]],[[499.37722,357.79848],[-0.2962,0.69316],[-1.26352,-0.0585]],[[496.09296,360.16119],[0.85963,-1.83158],[0,0]],[[495.91139,360.43343],[0.12105,-0.1512],[0.89514,0.27603]],[[499.05266,361.17362],[-1.11409,-0.15838],[0.00719,-0.31953]]],&quot;closed&quot;:true}]}" fill="#fff4ce"/><path d="M240.38385,178.27549c0.75092,0.29466 1.59379,0.54731 2.3296,0.37995c-0.21726,-0.23793 -0.22397,-0.66955 -0.01815,-1.3191c-0.84349,0.02632 -1.70916,0.28464 -2.31145,0.93915zM245.33685,177.62915l-0.09248,0.55865c-1.34452,2.66414 -3.58432,2.34197 -5.66501,1.47189c0,0 -0.5229,-0.21866 -0.44424,-0.85752c-0.47404,-0.50471 -0.08016,-1.12236 -0.08016,-1.12236c1.23061,-1.86121 3.2949,-2.20045 5.12075,-1.81936l0.71742,0.29738c0,0 0.61562,0.25744 0.41042,1.02974c-0.00847,0.03188 -0.01764,0.06202 -0.02745,0.09048c0.06074,0.18326 0.06074,0.3511 0.06074,0.3511z" fill="#000000"/><path d="M242.73433,177.31298c-0.20581,0.64954 -0.19846,1.12611 0.01881,1.36403c-0.73581,0.16736 -1.66101,-0.09761 -2.41193,-0.39227c0.60229,-0.6545 1.54963,-0.94544 2.39312,-0.97177z" data-paper-data="{&quot;noHover&quot;:false,&quot;origItem&quot;:[&quot;Path&quot;,{&quot;applyMatrix&quot;:true,&quot;segments&quot;:[[[511.84987,357.33256],[1.3922,-1.20597],[1.73576,0.54291]],[[517.23476,358.03264],[-1.70084,0.30839],[-0.50221,-0.43839]],[[517.19281,355.60213],[-0.47574,1.19683],[-1.94973,0.0485]]],&quot;closed&quot;:true}]}" fill="#fff4ce"/><path d="M242.94775,184.45599c-0.48959,0.80795 -1.28995,0.92552 -1.9378,1.42058c-1.56825,1.16609 -3.68794,1.64868 -5.50454,1.65106l-0.61691,0.12898c-0.0385,0.00893 -0.07818,0.0136 -0.11874,0.0136c-0.33268,0 -0.60691,-0.31407 -0.64453,-0.71876c-0.10276,-0.04257 -0.20842,-0.12968 -0.30796,-0.28578c-0.40538,-0.63569 0.10134,-1.14425 0.10134,-1.14425c2.05504,-2.05627 3.62423,-3.80323 6.36963,-4.09009c0.91563,-0.09567 2.39761,0.14678 2.91684,1.01082c0.26633,0.10141 0.46017,0.41186 0.46017,0.7791c0,0.30174 -0.13086,0.56514 -0.32526,0.70575l-0.18165,0.13673c-0.0582,0.12542 -0.12811,0.25612 -0.2106,0.39226zM236.51173,184.93101c0.01144,-0.00531 0.02289,-0.01058 0.03437,-0.01584c0.00516,-0.01133 0.01052,-0.02248 0.01609,-0.03345c-0.01685,0.01638 -0.03366,0.03281 -0.05045,0.04929z" fill="#000000"/><path d="M216.88673,169.27788c0.19347,-0.48542 0.58042,-0.24272 0.58042,-0.24272l0.40239,0.25602c1.31866,0.41357 2.06827,1.86751 2.38696,3.45304c0,0 0.10493,0.52651 -0.31477,0.65815c-0.4197,0.13163 -0.52463,-0.39489 -0.52463,-0.39489c-0.25216,-1.2779 -0.79765,-2.36894 -1.84775,-2.69828l-0.48914,-0.3032c0,0 -0.38694,-0.24271 -0.19347,-0.72814z" fill="#7d4632"/><path d="M221.47998,169.13682c0.30591,0.38377 0,0.76752 0,0.76752l0.00235,-0.11233c-0.17191,0.83436 -0.00164,1.10175 0.30156,1.86251c0,0 0.19347,0.48542 -0.19347,0.72814c-0.38694,0.24271 -0.58042,-0.24271 -0.58042,-0.24271c-0.38835,-0.97437 -0.57882,-1.51934 -0.36708,-2.61119l0.22524,-0.39193c0,0 0.30591,-0.38377 0.61182,0z" fill="#7d4632"/><path d="M240.99726,170.0798c0,0.54272 -0.43262,0.54272 -0.43262,0.54272l-0.00652,-0.01621c-0.48411,0.12272 -0.81325,0.53562 -0.91107,1.14294c0,0 -0.10493,0.52653 -0.52463,0.3949c-0.4197,-0.13163 -0.31478,-0.65815 -0.31478,-0.65815c0.22941,-1.03078 0.71897,-1.64492 1.54062,-1.93272l0.21636,-0.01621c0,0 0.43262,0 0.43262,0.54272z" fill="#7d4632"/><path d="M241.34472,191.45314c-0.43262,0 -0.43262,-0.54272 -0.43262,-0.54272v-0.27961c0,-0.84728 -0.25712,-2.83628 -1.2455,-2.40933c0,0 -0.41969,0.13162 -0.52463,-0.3949c-0.10493,-0.52652 0.31477,-0.65815 0.31477,-0.65815c1.65684,-0.42335 2.32058,1.74834 2.32058,3.46238v0.27961c0,0 0,0.54272 -0.43262,0.54272z" fill="#7d4632"/><path d="M243.57353,189.21629c-0.43262,0 -0.43262,-0.54272 -0.43262,-0.54272v-0.13979c0.03312,-1.24357 -0.8165,-1.13492 -1.57331,-1.13492c0,0 -0.43262,0 -0.43262,-0.54272c0,-0.54272 0.43262,-0.54272 0.43262,-0.54272c1.29002,0 2.40595,0.29462 2.43854,2.22037v0.13979c0,0 0,0.54272 -0.43262,0.54272z" fill="#7d4632"/><path d="M239.11592,191.03373c-0.43262,0 -0.43262,-0.54272 -0.43262,-0.54272l0.00324,-0.4929c-0.15931,-0.79324 -0.26752,-0.88411 -0.90139,-1.07762c0,0 -0.4197,-0.13163 -0.31477,-0.65815c0.10493,-0.52652 0.52463,-0.39489 0.52463,-0.39489c0.98837,0.31671 1.30564,0.7642 1.55029,1.99803l0.00324,0.62552c0,0 0,0.54272 -0.43262,0.54272z" fill="#7d4632"/><path d="M233.34945,168.71742c0.3059,-0.38376 0.61182,0 0.61182,0l0.15162,0.19793c0.44232,0.74305 0.82077,1.34075 1.15525,2.17997c0,0 0.19347,0.48542 -0.19347,0.72814c-0.38694,0.24272 -0.58042,-0.24272 -0.58042,-0.24272c-0.31422,-0.78837 -0.65318,-1.31368 -1.07355,-2.01412l-0.07125,-0.08167c0,0 -0.3059,-0.38376 0,-0.76753z" fill="#7d4632"/><path d="M207.46695,185.58142c-0.43262,0 -0.43262,-0.54272 -0.43262,-0.54272l0.01292,-0.27144c0.43456,-1.40317 1.66924,-1.11011 2.75994,-1.11011c0,0 0.43262,0 0.43262,0.54272c0,0.54272 -0.43262,0.54272 -0.43262,0.54272c-0.43378,0 -1.99012,-0.14766 -1.92054,0.28793l0.01292,0.00817c0,0 0,0.54272 -0.43262,0.54272z" fill="#7d4632"/></g></g></svg>