<svg version="1.1" xmlns="http://www.w3.org/2000/svg" xmlns:xlink="http://www.w3.org/1999/xlink" width="52.75" height="52.75" viewBox="0,0,52.75,52.75"><g transform="translate(-213.625,-153.625)"><g data-paper-data="{&quot;isPaintingLayer&quot;:true}" fill-rule="nonzero" stroke-linejoin="miter" stroke-miterlimit="10" stroke-dasharray="" stroke-dashoffset="0" style="mix-blend-mode: normal"><path d="M214.875,205.125v-50.25h50.25v50.25z" fill="#7f7f7f" stroke="#5e5e5e" stroke-width="2.5" stroke-linecap="butt"/><path d="M228.11031,171.77274v-9.81818h23.81818v9.81818z" fill="#9a6d4e" stroke="#704f39" stroke-width="1.5" stroke-linecap="butt"/><path d="M228.09091,198.13638v-27.54546h23.81818v27.54546z" fill="#9a6d4e" stroke="#704f39" stroke-width="1.5" stroke-linecap="butt"/><path d="M233.93757,171.25l0.25,10.25l0.125,15.75" fill="none" stroke="#704f39" stroke-width="1.5" stroke-linecap="round"/><path d="M233.43757,179l-5.25,0.25" fill="none" stroke="#704f39" stroke-width="1.5" stroke-linecap="round"/><path d="M240.31257,171.375l0.125,17.125l-5.875,-0.125" fill="none" stroke="#704f39" stroke-width="1.5" stroke-linecap="round"/><path d="M240.93757,197.75l-0.25,-9" fill="none" stroke="#704f39" stroke-width="1.5" stroke-linecap="round"/><path d="M246.43757,171.75l0.25,12.375l-5.5,-0.125" fill="none" stroke="#704f39" stroke-width="1.5" stroke-linecap="round"/><path d="M246.93757,184.625l0.125,12.875" fill="none" stroke="#704f39" stroke-width="1.5" stroke-linecap="round"/><path d="M247.18757,178.375l3.75,0.125" fill="none" stroke="#704f39" stroke-width="1.5" stroke-linecap="round"/><path d="M247.68757,191.5h3.375" fill="none" stroke="#704f39" stroke-width="1.5" stroke-linecap="round"/><path d="M229.43757,177c0,-0.41421 0.33579,-0.75 0.75,-0.75c0.41421,0 0.75,0.33579 0.75,0.75c0,0.41421 -0.33579,0.75 -0.75,0.75c-0.41421,0 -0.75,-0.33579 -0.75,-0.75z" fill="#797979" stroke="none" stroke-width="0.5" stroke-linecap="butt"/><path d="M231.56257,176.75c0,-0.41421 0.33579,-0.75 0.75,-0.75c0.41421,0 0.75,0.33579 0.75,0.75c0,0.41421 -0.33579,0.75 -0.75,0.75c-0.41421,0 -0.75,-0.33579 -0.75,-0.75z" fill="#797979" stroke="none" stroke-width="0.5" stroke-linecap="butt"/><path d="M229.31257,181.5c0,-0.41421 0.33579,-0.75 0.75,-0.75c0.41421,0 0.75,0.33579 0.75,0.75c0,0.41421 -0.33579,0.75 -0.75,0.75c-0.41421,0 -0.75,-0.33579 -0.75,-0.75z" fill="#797979" stroke="none" stroke-width="0.5" stroke-linecap="butt"/><path d="M231.31257,181.75c0,-0.41421 0.33579,-0.75 0.75,-0.75c0.41421,0 0.75,0.33579 0.75,0.75c0,0.41421 -0.33579,0.75 -0.75,0.75c-0.41421,0 -0.75,-0.33579 -0.75,-0.75z" fill="#797979" stroke="none" stroke-width="0.5" stroke-linecap="butt"/><path d="M235.56257,186.25c0,-0.41421 0.33579,-0.75 0.75,-0.75c0.41421,0 0.75,0.33579 0.75,0.75c0,0.41421 -0.33579,0.75 -0.75,0.75c-0.41421,0 -0.75,-0.33579 -0.75,-0.75z" fill="#797979" stroke="none" stroke-width="0.5" stroke-linecap="butt"/><path d="M237.56257,186.25c0,-0.41421 0.33579,-0.75 0.75,-0.75c0.41421,0 0.75,0.33579 0.75,0.75c0,0.41421 -0.33579,0.75 -0.75,0.75c-0.41421,0 -0.75,-0.33579 -0.75,-0.75z" fill="#797979" stroke="none" stroke-width="0.5" stroke-linecap="butt"/><path d="M237.31257,190.625c0,-0.41421 0.33579,-0.75 0.75,-0.75c0.41421,0 0.75,0.33579 0.75,0.75c0,0.41421 -0.33579,0.75 -0.75,0.75c-0.41421,0 -0.75,-0.33579 -0.75,-0.75z" fill="#797979" stroke="none" stroke-width="0.5" stroke-linecap="butt"/><path d="M235.06257,190.375c0,-0.41421 0.33579,-0.75 0.75,-0.75c0.41421,0 0.75,0.33579 0.75,0.75c0,0.41421 -0.33579,0.75 -0.75,0.75c-0.41421,0 -0.75,-0.33579 -0.75,-0.75z" fill="#797979" stroke="none" stroke-width="0.5" stroke-linecap="butt"/><path d="M235.06257,172.375c0,-0.41421 0.33579,-0.75 0.75,-0.75c0.41421,0 0.75,0.33579 0.75,0.75c0,0.41421 -0.33579,0.75 -0.75,0.75c-0.41421,0 -0.75,-0.33579 -0.75,-0.75z" fill="#797979" stroke="none" stroke-width="0.5" stroke-linecap="butt"/><path d="M237.06257,172.625c0,-0.41421 0.33579,-0.75 0.75,-0.75c0.41421,0 0.75,0.33579 0.75,0.75c0,0.41421 -0.33579,0.75 -0.75,0.75c-0.41421,0 -0.75,-0.33579 -0.75,-0.75z" fill="#797979" stroke="none" stroke-width="0.5" stroke-linecap="butt"/><path d="M241.43757,172.625c0,-0.41421 0.33579,-0.75 0.75,-0.75c0.41421,0 0.75,0.33579 0.75,0.75c0,0.41421 -0.33579,0.75 -0.75,0.75c-0.41421,0 -0.75,-0.33579 -0.75,-0.75z" fill="#797979" stroke="none" stroke-width="0.5" stroke-linecap="butt"/><path d="M243.56257,172.625c0,-0.41421 0.33579,-0.75 0.75,-0.75c0.41421,0 0.75,0.33579 0.75,0.75c0,0.41421 -0.33579,0.75 -0.75,0.75c-0.41421,0 -0.75,-0.33579 -0.75,-0.75z" fill="#797979" stroke="none" stroke-width="0.5" stroke-linecap="butt"/><path d="M241.68757,181.875c0,-0.41421 0.33579,-0.75 0.75,-0.75c0.41421,0 0.75,0.33579 0.75,0.75c0,0.41421 -0.33579,0.75 -0.75,0.75c-0.41421,0 -0.75,-0.33579 -0.75,-0.75z" fill="#797979" stroke="none" stroke-width="0.5" stroke-linecap="butt"/><path d="M243.81257,181.875c0,-0.41421 0.33579,-0.75 0.75,-0.75c0.41421,0 0.75,0.33579 0.75,0.75c0,0.41421 -0.33579,0.75 -0.75,0.75c-0.41421,0 -0.75,-0.33579 -0.75,-0.75z" fill="#797979" stroke="none" stroke-width="0.5" stroke-linecap="butt"/><path d="M247.56257,176.25c0,-0.41421 0.33579,-0.75 0.75,-0.75c0.41421,0 0.75,0.33579 0.75,0.75c0,0.41421 -0.33579,0.75 -0.75,0.75c-0.41421,0 -0.75,-0.33579 -0.75,-0.75z" fill="#797979" stroke="none" stroke-width="0.5" stroke-linecap="butt"/><path d="M249.31257,176.25c0,-0.41421 0.33579,-0.75 0.75,-0.75c0.41421,0 0.75,0.33579 0.75,0.75c0,0.41421 -0.33579,0.75 -0.75,0.75c-0.41421,0 -0.75,-0.33579 -0.75,-0.75z" fill="#797979" stroke="none" stroke-width="0.5" stroke-linecap="butt"/><path d="M247.43757,180.25c0,-0.41421 0.33579,-0.75 0.75,-0.75c0.41421,0 0.75,0.33579 0.75,0.75c0,0.41421 -0.33579,0.75 -0.75,0.75c-0.41421,0 -0.75,-0.33579 -0.75,-0.75z" fill="#797979" stroke="none" stroke-width="0.5" stroke-linecap="butt"/><path d="M249.43757,180.375c0,-0.41421 0.33579,-0.75 0.75,-0.75c0.41421,0 0.75,0.33579 0.75,0.75c0,0.41421 -0.33579,0.75 -0.75,0.75c-0.41421,0 -0.75,-0.33579 -0.75,-0.75z" fill="#797979" stroke="none" stroke-width="0.5" stroke-linecap="butt"/><path d="M249.43757,189.375c0,-0.41421 0.33579,-0.75 0.75,-0.75c0.41421,0 0.75,0.33579 0.75,0.75c0,0.41421 -0.33579,0.75 -0.75,0.75c-0.41421,0 -0.75,-0.33579 -0.75,-0.75z" fill="#797979" stroke="none" stroke-width="0.5" stroke-linecap="butt"/><path d="M247.68757,189.375c0,-0.41421 0.33579,-0.75 0.75,-0.75c0.41421,0 0.75,0.33579 0.75,0.75c0,0.41421 -0.33579,0.75 -0.75,0.75c-0.41421,0 -0.75,-0.33579 -0.75,-0.75z" fill="#797979" stroke="none" stroke-width="0.5" stroke-linecap="butt"/><path d="M249.43757,193.625c0,-0.03192 0.00199,-0.06336 0.00586,-0.09423c-0.13348,0.2071 -0.36616,0.34423 -0.63086,0.34423c-0.41421,0 -0.75,-0.33579 -0.75,-0.75c0,-0.41421 0.33579,-0.75 0.75,-0.75c0.41421,0 0.75,0.33579 0.75,0.75c0,0.03192 -0.00199,0.06336 -0.00586,0.09423c0.13348,-0.2071 0.36616,-0.34423 0.63086,-0.34423c0.41421,0 0.75,0.33579 0.75,0.75c0,0.41421 -0.33579,0.75 -0.75,0.75c-0.41421,0 -0.75,-0.33579 -0.75,-0.75z" fill="#797979" stroke="none" stroke-width="0.5" stroke-linecap="butt"/><path d="M229.56257,168.125c0,-0.41421 0.33579,-0.75 0.75,-0.75c0.41421,0 0.75,0.33579 0.75,0.75c0,0.41421 -0.33579,0.75 -0.75,0.75c-0.41421,0 -0.75,-0.33579 -0.75,-0.75z" fill="#797979" stroke="none" stroke-width="0.5" stroke-linecap="butt"/><path d="M229.31257,164c0,-0.41421 0.33579,-0.75 0.75,-0.75c0.41421,0 0.75,0.33579 0.75,0.75c0,0.41421 -0.33579,0.75 -0.75,0.75c-0.41421,0 -0.75,-0.33579 -0.75,-0.75z" fill="#797979" stroke="none" stroke-width="0.5" stroke-linecap="butt"/><path d="M248.56257,164.125c0,-0.41421 0.33579,-0.75 0.75,-0.75c0.41421,0 0.75,0.33579 0.75,0.75c0,0.41421 -0.33579,0.75 -0.75,0.75c-0.41421,0 -0.75,-0.33579 -0.75,-0.75z" fill="#797979" stroke="none" stroke-width="0.5" stroke-linecap="butt"/><path d="M248.93757,168.375c0,-0.41421 0.33579,-0.75 0.75,-0.75c0.41421,0 0.75,0.33579 0.75,0.75c0,0.41421 -0.33579,0.75 -0.75,0.75c-0.41421,0 -0.75,-0.33579 -0.75,-0.75z" fill="#797979" stroke="none" stroke-width="0.5" stroke-linecap="butt"/><path d="M244.56257,177.37499c0,2.48528 -2.10671,4.50001 -4.70547,4.50001c-2.59876,0 -4.70547,-2.01472 -4.70547,-4.5c0,-2.48528 2.10671,-4.5 4.70547,-4.5c2.59876,0 4.70547,2.01472 4.70547,4.50001z" fill="#717171" stroke="#5a5a5a" stroke-width="1.5" stroke-linecap="butt"/><path d="M238.30842,179.46142v-3.51009h14.67858v3.51009z" fill="#717171" stroke="#5a5a5a" stroke-width="1.5" stroke-linecap="butt"/><path d="M253.14655,179.78052v-8.13704h3.35054v8.13704z" fill="#717171" stroke="#5a5a5a" stroke-width="1.5" stroke-linecap="butt"/></g></g></svg>