<svg version="1.1" xmlns="http://www.w3.org/2000/svg" xmlns:xlink="http://www.w3.org/1999/xlink" width="46.82988" height="21.10311" viewBox="0,0,46.82988,21.10311"><g transform="translate(-202.54613,-169.44844)"><g data-paper-data="{&quot;isPaintingLayer&quot;:true}" fill-rule="nonzero" stroke="none" stroke-width="0.5" stroke-linecap="butt" stroke-linejoin="miter" stroke-miterlimit="10" stroke-dasharray="" stroke-dashoffset="0" style="mix-blend-mode: normal"><path d="M209.1558,177.23462c0.00474,0.00209 0.10834,0.01918 0.11308,0.02128c0.22536,0.24112 0.4483,0.54338 0.67194,0.91612l0.772,0.36321c0,0 0.13441,-0.00873 0.34101,-0.13946c0.3889,-0.02779 0.69611,-0.35489 0.69611,-0.75087c0,-0.14556 -0.04125,-0.2827 -0.11301,-0.39772l-0.37969,-0.63523l-0.07477,0.04503l-0.03793,-0.18987c-0.17168,-0.10202 -0.35151,-0.19191 -0.53831,-0.26972c-0.17909,-0.35092 -0.59132,-0.65215 -1.04648,-0.8215l0.03976,-0.03987c0.72215,-0.72406 1.96984,-1.63242 3.19529,-2.00565c0.49748,0.03817 1.08912,0.19482 1.58274,0.32503c0.11813,0.90975 0.47679,0.63407 0.84172,0.26582l0.43641,0.48222c0.098,0.12467 0.23476,0.21731 0.39202,0.26026c0.13896,0.17613 0.35724,0.39515 0.83152,0.15801c0.67082,-0.33541 0.33799,-1.01045 0.33799,-1.01045c-0.2101,-0.4029 -0.44822,-0.74165 -0.71068,-1.0198c0.83049,-0.2435 2.05812,-0.71793 2.22789,-0.74636c1.75203,-0.2934 4.04135,0.40282 5.6959,0.92684l0.56351,0.44742c0.12907,0.10508 0.29733,0.16765 0.47674,0.16765c0.41422,0 0.75587,-0.33593 0.75587,-0.75015c0,-0.17942 -0.06515,-0.24415 -0.17023,-0.37322l-0.149,-0.28613c0.32698,-2.41554 4.78144,-0.47081 6.96913,0.11309c-0.0591,0.05118 -0.11594,0.10437 -0.17032,0.15781c-0.6331,0.62223 -0.95376,1.73109 -1.22403,2.54309c-0.04212,0.25275 -0.08194,0.50834 -0.12407,0.76109l-0.23609,0.71723c-0.02849,0.07926 -0.04317,0.16607 -0.04317,0.25514c0,0.41422 0.33946,0.75743 0.75367,0.75743c0.27799,0 0.42793,-0.11378 0.55748,-0.33846l0.3805,-0.62956l-0.12706,-0.07571l0.06746,-0.20018l-0.16306,-0.05376c0.0053,-0.00788 0.09821,-0.06402 0.10351,-0.07193l0.07605,0.06956c0.02043,-0.12258 0.04177,-0.24354 0.0622,-0.36612c0.89337,-1.40673 1.84968,-3.19331 2.89051,-3.5403c1.71744,-0.57255 7.02947,-0.05625 8.51794,0.85044c4.92253,2.82694 4.85579,9.42383 0.69079,12.7138c-2.55226,2.04736 -8.57798,4.13867 -11.30069,1.44809l-0.41534,-0.64231c-0.12955,-0.22468 -0.30054,-0.30617 -0.57853,-0.30617c-0.41422,0 -0.75424,0.3396 -0.75424,0.75382c0,0.08908 0.01502,0.17492 0.04351,0.25418l0.25102,0.75696l0.09436,-0.13144l0.04285,0.07133l0.1666,0.01588c-0.02308,0.06776 -0.0579,0.13268 -0.10575,0.19279c-0.2132,0.2678 -0.69219,-0.0205 -1.02982,0.03583c-2.46477,0.41125 -3.70562,-0.71081 -5.72561,-1.73847l0.14504,-0.18384c0.22468,-0.12955 0.37477,-0.27226 0.37477,-0.55024c0,-0.41422 -0.34278,-0.75037 -0.757,-0.75037c-0.08908,0 -0.1768,0.0152 -0.25606,0.04369l-0.76212,0.25067l0.07939,0.05836l-0.0709,0.04295l0.02316,0.18057c-2.69872,0.55146 -5.27695,2.41831 -8.50648,2.00794c-1.07858,-0.13706 1.34577,-2.22762 0.52952,-3.1098c-0.04047,-0.14837 -0.14187,-0.3026 -0.35019,-0.42759c-0.3756,-0.22536 -0.66395,-0.1009 -0.83844,0.0426c-0.1034,-0.00579 -0.21408,-0.00926 -0.33202,-0.0092c-0.33706,0.00018 -0.50036,0.28319 -0.79701,0.44322c-0.51492,0.32601 -1.62608,1.01051 -2.49873,1.17085c-0.38586,-0.04963 -0.77301,-0.14393 -1.14567,-0.27168l-0.03995,-0.02442c-0.10483,-0.12013 -0.19035,-0.27857 -0.25035,-0.47871c0.10731,-0.12474 0.20627,-0.25622 0.29638,-0.39149c0.04867,-0.02567 0.09663,-0.05045 0.14389,-0.07405c0,0 0.67007,-0.3381 0.33467,-1.00892c-0.02073,-0.04146 -0.04283,-0.07947 -0.06589,-0.11356c-0.03956,-0.19652 -0.16553,-0.41193 -0.49706,-0.52244c-0.16164,-0.05388 -0.29888,-0.05914 -0.41434,-0.03456c-0.02644,-0.00282 -0.05331,-0.00432 -0.0805,-0.00432c-0.14556,0 -0.18318,0.0228 -0.2982,0.09456l-0.63356,0.37934l0.05549,0.0923c-0.65055,0.20864 -1.21603,0.50706 -1.93096,0.98552l-0.66986,-0.00403c0,0 -0.11728,-0.00004 -0.25908,0.04634c-0.04083,-0.02131 -0.08118,-0.04355 -0.12092,-0.06629c-0.81976,-0.90161 -1.8224,-2.85032 -1.96158,-4.42735c0.14361,-0.85826 0.55532,-1.6595 1.26346,-2.21887c0.01962,-0.01576 0.03918,-0.03151 0.05866,-0.04699c1.05477,-0.29443 2.65136,-0.59575 3.81128,-0.43622z" data-paper-data="{&quot;noHover&quot;:false,&quot;origItem&quot;:[&quot;Path&quot;,{&quot;applyMatrix&quot;:true,&quot;segments&quot;:[[[438.8664,355.86192],[2.10954,-0.58887],[-0.03896,0.03096]],[[438.7491,355.95566],[0.03924,-0.03153],[-1.41628,1.11874]],[[436.22267,360.38278],[0.28722,-1.71652],[0.27836,3.15407]],[[440.14332,369.21586],[-1.63953,-1.80323],[0.07949,0.04547]],[[440.38506,369.348],[-0.08167,-0.04261],[0.2836,-0.09275]],[440.90321,369.25526],[[442.04838,369.30968],[0,0],[1.42986,-0.95693]],[[445.90966,367.33584],[-1.30111,0.41728],[0,0]],[445.79856,367.15066],[[447.06539,366.39056],[0,0],[0.23004,-0.14352]],[[447.85828,366.16411],[-0.29111,0],[0.05439,0]],[[448.01927,366.17265],[-0.05289,-0.00564],[0.23092,-0.04916]],[[448.84781,366.24109],[-0.32329,-0.10776],[0.66307,0.22102]],[[449.84111,367.28215],[-0.07911,-0.39303],[0.04611,0.06818]],[[449.9727,367.50848],[-0.04146,-0.08292],[0.67082,1.34164]],[[449.30188,369.52095],[0,0],[-0.09453,0.04719]],[[449.01404,369.66888],[0.09734,-0.05134],[-0.18022,0.27055]],[[448.42076,370.45023],[0.21463,-0.24948],[0.12001,0.40029]],[[448.92042,371.40462],[-0.20965,-0.24025],[0,0]],[[449.00025,371.45325],[0,0],[0.74532,0.2555]],[[451.29008,371.99274],[-0.77172,-0.09927],[1.74529,-0.32068]],[[456.10236,369.72661],[-1.02984,0.65202],[0.59331,-0.32007]],[[457.88228,368.76639],[-0.67413,0.00037],[0.23588,-0.00013]],[[458.54591,368.78375],[-0.2068,-0.01158],[0.34898,-0.287]],[[460.2218,368.69623],[-0.7512,-0.45072],[0.41663,0.24998]],[[460.92009,369.54691],[-0.08095,-0.29674],[1.63251,1.76437]],[[459.85046,375.74956],[-2.15716,-0.27411],[6.45906,0.82074]],[[476.8113,371.69865],[-5.39745,1.10292],[0,0]],[476.70998,371.52978],[476.8527,371.44415],[476.74979,371.1354],[[478.26214,370.63128],[0,0],[0.15852,-0.05699]],[[478.7697,370.54323],[-0.17815,0],[0.82843,0]],[[480.2697,372.04323],[0,-0.82843],[0,0.55597]],[[479.51787,373.34362],[0.44936,-0.2591],[0,0]],[[479.23795,373.51157],[0,0],[4.03999,2.05532]],[[490.63008,377.00352],[-4.92954,0.82249],[0.67526,-0.11267]],[[492.68276,376.93662],[-0.42639,0.53559],[0.09572,-0.12023]],[[492.89275,376.5522],[-0.04615,0.13551],[0,0]],[492.68158,376.6789],[492.59595,376.53618],[492.2872,376.6391],[[491.78308,375.12674],[0,0],[-0.05699,-0.15852]],[[491.69503,374.61918],[0,0.17815],[0,-0.82843]],[[493.19503,373.11918],[-0.82843,0],[0.55597,0]],[[494.49542,373.87102],[-0.2591,-0.44936],[0,0]],[[495.18261,375.01633],[0,0],[5.44543,5.38115]],[[517.75992,372.15991],[-5.10452,4.09472],[8.32999,-6.57994]],[[516.37965,346.79716],[9.84507,5.65388],[-2.97696,-1.81338]],[[499.35864,345.1232],[3.43488,-1.14511],[-2.08166,0.69398]],[[493.743,352.09208],[1.78674,-2.81346],[-0.04086,0.24516]],[[493.62042,352.82757],[0.04086,-0.24516],[0,0]],[[493.2926,352.78397],[0,0],[-0.01061,0.01583]],[[493.26077,352.83137],[0.01061,-0.01577],[0,0]],[493.58768,352.94034],[493.45365,353.34243],[493.70849,353.49534],[[492.94985,354.75974],[0,0],[-0.2591,0.44936]],[[491.64946,355.51157],[0.55597,0],[-0.82843,0]],[[490.14946,354.01157],[0,0.82843],[0,-0.17815]],[[490.23751,353.50401],[-0.05699,0.15852],[0,0]],[[490.71373,352.07535],[0,0],[0.08425,-0.5055]],[[490.96648,350.55885],[-0.08425,0.5055],[0.54054,-1.62401]],[[493.42235,345.48065],[-1.2662,1.24447],[0.10877,-0.1069]],[[493.76286,345.16489],[-0.11821,0.10236],[-4.37538,-1.16779]],[[479.89332,344.96506],[0.65396,-4.83108],[0,0]],[[480.19114,345.33734],[0,0],[0.21016,0.25814]],[[480.5273,346.28371],[0,-0.35883],[0,0.82843]],[[479.0273,347.78371],[0.82843,0],[-0.35883,0]],[[478.08092,347.44755],[0.25814,0.21016],[0,0]],[[476.96074,346.5514],[0,0],[-3.3091,-1.04805]],[[465.61502,344.6732],[3.50406,-0.5868],[-0.33955,0.05686]],[[461.17133,346.15232],[1.66097,-0.48701],[0.52492,0.5563]],[[462.59487,348.18884],[-0.4202,-0.80579],[0,0]],[[461.92405,350.2013],[1.34164,-0.67082],[-0.94857,0.47429]],[[460.08433,349.79162],[0.27791,0.35227],[-0.31452,-0.08589]],[[459.30048,349.27069],[0.196,0.24934],[0,0]],[[458.60417,348.4003],[0,0],[-0.72986,0.73651]],[[456.74448,347.77414],[0.23626,1.8195],[-0.98723,-0.26042]],[[453.75724,347.21473],[0.99495,0.07634],[-2.45089,0.74646]],[[447.37336,351.2083],[1.4443,-1.44812],[0,0]],[[447.29391,351.28775],[0,0],[0.91033,0.3387]],[[449.38769,352.92755],[-0.35818,-0.70184],[0.37359,0.15561]],[[450.46451,353.4661],[-0.34337,-0.20404],[0,0]],[450.54062,353.8447],[450.69009,353.75501],[[451.45019,355.02185],[0,0],[0.14352,0.23004]],[[451.67663,355.81473],[0,-0.29111],[0,0.79195]],[[450.2851,357.31087],[0.7778,-0.05558],[-0.4132,0.26146]],[449.40385,357.57233],[[447.86001,356.84407],[0,0],[-0.44729,-0.74548]],[[446.51676,355.00687],[0.45071,0.48223],[-0.00947,-0.00419]],[[446.48835,354.99429],[0.00947,0.00419],[-2.31984,-0.31907]]],&quot;closed&quot;:true}],&quot;index&quot;:null}" fill="#ccc599"/><path d="M245.20124,185.39971c0.53033,0.53033 0,1.06066 0,1.06066l-0.40206,0.37038c-2.8607,1.71642 -5.77408,2.41491 -9.14411,2.42523c0,0 -0.69886,0 -0.74735,-0.6746c-1.61359,0.11906 -3.26239,0.15686 -4.98161,0.15686c-2.08614,-0.34121 -3.9311,-1.7554 -5.81587,-2.06268c-0.28119,-0.04585 -1.58273,0.77124 -1.87055,0.86757c-2.55109,0.85386 -7.57536,2.12498 -6.90166,-1.99399c0.35559,-1.94741 -3.27454,1.78493 -5.10823,0.21654c-0.35767,-0.30592 -0.43536,-1.33983 -0.34662,-1.95492c-0.91049,0.55079 -3.27159,1.42772 -3.6144,1.54281c0,0 -0.71151,0.23717 -0.94868,-0.47434c-0.23717,-0.71151 0.47434,-0.94869 0.47434,-0.94869c0.9495,-0.31388 4.40149,-2.40105 5.31242,-1.70009c0.40455,0.31131 0.28902,0.99105 0.30178,1.50135c0.00726,0.29023 -0.59115,0.79349 -0.30178,0.817c2.19368,0.17828 6.37149,-3.01246 5.71076,1.24693c-0.53562,3.14499 5.92345,-0.70784 7.4563,-0.61123c1.75489,0.1106 3.86247,1.73297 5.77591,2.05884c4.4369,0 8.4006,-0.24034 12.50451,-1.60831l0.57151,-0.34813c0,0 0.58141,-0.34885 0.97029,0.16965l0.04443,-0.05686c0,0 0.53033,-0.53033 1.06066,0z" fill="#c2bb91"/><path d="M242.20097,172.27749c0,0.75 -0.75,0.75 -0.75,0.75h-0.77278c-1.09574,0 -2.58243,-0.26598 -3.632,0.09204c-0.87853,0.29968 -1.94944,1.52274 -2.79032,2.08367c-0.02307,0.17449 -0.05194,0.3587 -0.08654,0.55337l-0.11999,0.09115l0.0593,0.03558l-0.37932,0.6322c-0.12955,0.22468 -0.37221,0.37591 -0.65019,0.37591c-0.41422,0 -0.75,-0.33578 -0.75,-0.75c0,-0.08908 0.01553,-0.17452 0.04403,-0.25378l0.25206,-0.75617l0.14541,0.04847c0.06092,-0.39344 0.3,-1.90624 0.0152,-2.0249c-0.56487,-0.23535 -1.44939,-0.19804 -2.07705,-0.40725c-1.09706,-0.19704 -2.11343,-0.9836 -3.29521,-0.53927c-0.66391,0.24962 -1.25067,1.22552 -1.79427,1.41343c-0.8213,0.28392 -1.83088,-0.40433 -2.64825,-0.46821c-2.08424,-0.16292 -5.50965,-0.40002 -6.83637,1.35023c-3.51965,-0.1907 -3.88372,1.54742 -6.51217,2.87151c0.16055,0.12573 0.29903,0.33855 0.24005,0.6924c-0.1233,0.73979 -0.86309,0.61649 -0.86309,0.61649c-0.46899,-0.07987 -0.94662,-0.10945 -1.42227,-0.11859c-0.38268,-0.00735 -0.75596,0.15718 -1.10338,0.31777c-2.71007,1.25274 -0.3695,2.18236 0.45853,4.21345c0.17738,0.43511 0.68623,0.95428 0.42418,1.34429c-1.46422,2.1792 -3.08442,-0.91711 -3.42305,-1.933c-1.32798,-2.26814 -0.31981,-4.07445 1.66918,-5.43652c0.97759,-0.66945 2.83107,-0.33497 3.63378,-1.2031c1.40287,-1.51721 3.91735,-3.88528 6.26938,-2.72652c0.50933,-1.474 2.29538,-1.13945 3.53987,-1.34687c1.28421,-0.21403 2.74641,-0.25032 4.04909,-0.13645c0.17366,0.01518 1.9253,0.5984 1.98847,0.56216c0.58619,-0.33628 1.01413,-1.13614 1.81206,-1.42012c1.58951,-0.56567 2.71708,0.27125 4.17506,0.49112c1.65023,0.55007 2.64997,0.91143 3.05082,1.82906c1.56639,-1.35305 4.21734,-1.59359 6.55702,-1.59359h0.77278c0,0 0.75,0 0.75,0.75z" fill="#dcd5a5"/><path d="M205.39426,177.67593c-0.01948,0.01548 -0.03903,0.03111 -0.05865,0.04687c-0.70814,0.55937 -1.11961,1.3553 -1.26322,2.21356c0.13918,1.57703 1.14056,3.51493 1.96033,4.41654c0.03975,0.02274 0.08004,0.04476 0.12087,0.06607c0.1418,-0.04638 0.25907,-0.04637 0.25907,-0.04637l0.57259,0.02721c0.71493,-0.47846 1.28008,-0.77828 1.93064,-0.98692l-0.05555,-0.09259l0.63341,-0.38005c0.11502,-0.07176 0.25089,-0.11322 0.39644,-0.11322c0.0272,0 0.05405,0.00145 0.0805,0.00427c0.11546,-0.02458 0.25262,-0.01966 0.41427,0.03422c0.33154,0.11051 0.4571,0.32402 0.49665,0.52053c0.02305,0.03409 0.04506,0.07171 0.06579,0.11317c0.33541,0.67082 -0.33541,1.00624 -0.33541,1.00624c-0.04727,0.0236 -0.09525,0.04829 -0.14392,0.07396c-0.09011,0.13528 -0.18933,0.26593 -0.29664,0.39067c0.06,0.20014 0.145,0.35707 0.24983,0.4772l0.03992,0.02432c0.37266,0.12775 0.75905,0.22011 1.14491,0.26975c0.87265,-0.16034 1.89122,-0.80706 2.40614,-1.13307c0.29665,-0.16003 0.5529,-0.47993 0.88996,-0.48011c0.11794,-0.00007 0.22842,0.00289 0.33182,0.00868c0.17449,-0.1435 0.46234,-0.26912 0.83794,-0.04376c0.20831,0.12499 0.30867,0.27697 0.34915,0.42534c0.81626,0.88218 -1.61339,2.96427 -0.53482,3.10132c3.22953,0.41037 5.7817,-1.474 8.48042,-2.02545l-0.05066,-0.08443l0.07136,-0.04282l-0.05146,-0.15437l0.75617,-0.25206c0.07926,-0.02849 0.1647,-0.04403 0.25378,-0.04403c0.41422,0 0.75,0.33578 0.75,0.75c0,0.27799 -0.15123,0.52065 -0.37591,0.65019l-0.13996,0.08398c2.01999,1.02766 3.2313,2.15722 5.69607,1.74597c0.33763,-0.05633 0.81314,0.23435 1.02634,-0.03345c0.04786,-0.06011 0.08192,-0.12445 0.105,-0.19221l-0.10558,0.06335l-0.04281,-0.07136l-0.15438,0.05146l-0.25206,-0.75618c-0.02849,-0.07926 -0.04403,-0.1647 -0.04403,-0.25378c0,-0.41422 0.33578,-0.75 0.75,-0.75c0.27799,0 0.52065,0.15124 0.6502,0.37592l0.34359,0.57265c2.72271,2.69057 8.73639,0.61915 11.28865,-1.42821c4.16499,-3.28997 4.2324,-9.85443 -0.69013,-12.68138c-1.48848,-0.90669 -6.79306,-1.40954 -8.5105,-0.83698c-1.04083,0.34699 -1.91445,2.07771 -2.80782,3.48444c-0.02043,0.12258 -0.04086,0.24516 -0.06129,0.36774l-0.16391,-0.0218c-0.0053,0.00791 -0.01061,0.01582 -0.01592,0.0237l0.16345,0.05448l-0.06701,0.20104l0.12742,0.07646l-0.37932,0.6322c-0.12955,0.22468 -0.37221,0.37591 -0.6502,0.37591c-0.41422,0 -0.75,-0.33578 -0.75,-0.75c0,-0.08908 0.01553,-0.17452 0.04403,-0.25378l0.23811,-0.71433c0.04212,-0.25275 0.08425,-0.5055 0.12637,-0.75825c0.27027,-0.812 0.59483,-1.91687 1.22794,-2.5391c0.05438,-0.05345 0.11115,-0.1067 0.17025,-0.15788c-2.18769,-0.5839 -6.60779,-2.51546 -6.93477,-0.09992l0.14891,0.18614c0.10508,0.12907 0.16808,0.29377 0.16808,0.47319c0,0.41422 -0.33578,0.75 -0.75,0.75c-0.17942,0 -0.34412,-0.063 -0.47319,-0.16808l-0.56009,-0.44807c-1.65455,-0.52402 -3.92083,-1.2325 -5.67286,-0.9391c-0.16977,0.02843 -1.39136,0.49605 -2.22185,0.73956c0.26246,0.27815 0.50167,0.61537 0.71177,1.01826c0,0 0.33541,0.67082 -0.33541,1.00623c-0.47429,0.23714 -0.7809,-0.02871 -0.91986,-0.20484c-0.15726,-0.04295 -0.29393,-0.1358 -0.39193,-0.26047l-0.34815,-0.43519c-0.36493,0.36826 -0.81171,0.59667 -0.92985,-0.31308c-0.49362,-0.13021 -0.99614,-0.24153 -1.49362,-0.27971c-1.22545,0.37323 -2.46979,1.27273 -3.19194,1.99679l-0.03973,0.03973c0.45516,0.16935 0.8678,0.46898 1.04689,0.8199c0.18679,0.07781 0.36673,0.16725 0.53841,0.26927l0.03805,0.1893l0.07474,-0.04484l0.38005,0.63342c0.07176,0.11502 0.11322,0.25089 0.11322,0.39644c0,0.39597 -0.30686,0.72028 -0.69576,0.74807c-0.2066,0.13073 -0.44063,0.13073 -0.44063,0.13073l-0.77192,-0.36413c-0.22365,-0.37274 -0.44627,-0.67748 -0.67163,-0.9186c-0.00474,-0.00209 -0.00947,-0.0042 -0.0142,-0.00629c-1.15992,-0.15954 -2.75621,0.13938 -3.81098,0.43382zM214.2529,186.89815c-1.33067,0.52863 -2.93006,0.42391 -4.4185,-0.06378l-0.71646,-0.42466c0,0 -0.23787,-0.14272 -0.33748,-0.39922c-0.5745,0.25279 -1.21398,0.35486 -1.8637,0.23534c-0.08131,-0.01496 -0.1616,-0.03164 -0.24083,-0.05002c-0.41202,0.00563 -0.81633,-0.08752 -1.20054,-0.32447c-0.2546,-0.15702 -0.49744,-0.35203 -0.72605,-0.57801c-1.83127,-1.39609 -2.58571,-3.94539 -2.01775,-6.11721c0.15019,-1.14526 0.63973,-2.14304 1.56453,-2.72036c0.12579,-0.04225 0.25481,-0.08348 0.38664,-0.12341c0.76728,-0.57177 1.511,-0.96264 2.22302,-1.14817c0.17013,-0.83864 1.16424,-1.44945 1.78348,-1.88274c1.30336,-0.91198 2.52512,-1.32337 3.79326,-1.36065c0.93161,-0.26007 1.87119,-0.30247 2.71232,-0.00702c0.54282,-0.34086 1.20478,-0.58267 1.59463,-0.7587c2.34736,-1.05988 5.13331,-0.50898 7.55476,0.25804c0.42973,-0.64278 1.33879,-1.40725 1.77294,-1.56844c2.24085,-0.83199 5.43782,-0.03749 7.52759,0.92401c0.38053,0.17508 0.6661,0.34553 0.87308,0.51374c0.23479,-0.20024 0.44975,-0.34474 0.62604,-0.41127c2.0439,-0.7714 8.00265,-0.08653 9.77876,0.96618c5.68831,3.51736 5.87676,11.08006 0.85544,15.13891c-2.95084,2.35359 -8.65081,4.13599 -12.24486,2.06601c-0.38207,0.45772 -1.47408,0.57477 -2.0105,0.66409c-2.52506,0.42045 -5.6922,-0.39778 -7.01952,-2.59504c-0.38986,0.38826 -1.12607,0.61169 -1.67743,0.86227c-1.83476,0.83382 -5.28871,1.75533 -7.33987,1.07179c-1.5505,-0.5167 -1.55165,-1.42963 -1.23299,-2.16718z" data-paper-data="{&quot;index&quot;:null}" fill="#ada882"/><path d="M235.5534,179.82876c-0.08241,-0.40353 -0.05183,-0.83797 0.09627,-1.18455c-0.63176,-0.02925 -1.21232,0.26557 -1.64213,1.18135c0,0 -0.03026,0.06052 -0.09079,0.13612c0.44757,0.13801 1.01359,0.29091 1.57064,0.3701c0.00359,-0.15976 0.02751,-0.3302 0.06601,-0.50302zM238.87415,180.52002c-1.28488,1.93379 -3.95788,1.35485 -5.9034,0.71203c0,0 -0.71151,-0.23717 -0.47434,-0.94868c0.05318,-0.15954 0.13021,-0.27138 0.21771,-0.34889c-0.26579,-0.34459 -0.04822,-0.77973 -0.04822,-0.77973c1.60832,-3.08416 4.2067,-1.89495 6.46619,-0.5653l0.20713,0.10109c0,0 0.67082,0.33541 0.33541,1.00623c-0.12981,0.2596 -0.30984,0.36852 -0.48179,0.40448z" fill="#000000"/><path d="M235.51941,180.37019c-0.55704,-0.07919 -1.19893,-0.24647 -1.6465,-0.38448c0.06053,-0.0756 0.08881,-0.14014 0.08881,-0.14014c0.42981,-0.91579 1.09203,-1.26547 1.72379,-1.23622c-0.1481,0.34658 -0.16881,0.83616 -0.0864,1.23969c-0.0385,0.17282 -0.07611,0.36139 -0.0797,0.52115z" data-paper-data="{&quot;noHover&quot;:false,&quot;origItem&quot;:[&quot;Path&quot;,{&quot;applyMatrix&quot;:true,&quot;segments&quot;:[[[499.18468,360.16758],[-0.07701,0.34565],[-0.16482,-0.80705]],[[499.37722,357.79848],[-0.2962,0.69316],[-1.26352,-0.0585]],[[496.09296,360.16119],[0.85963,-1.83158],[0,0]],[[495.91139,360.43343],[0.12105,-0.1512],[0.89514,0.27603]],[[499.05266,361.17362],[-1.11409,-0.15838],[0.00719,-0.31953]]],&quot;closed&quot;:true}]}" fill="#fff4ce"/><path d="M241.886,178.41125c0.86788,0.27146 1.84203,0.50423 2.69245,0.35004c-0.2511,-0.2192 -0.25885,-0.61684 -0.02098,-1.21526c-0.97487,0.02425 -1.97537,0.26223 -2.67147,0.86522zM247.61047,177.81579l-0.10688,0.51467c-1.55394,2.45442 -4.1426,2.15761 -6.54738,1.35602c0,0 -0.60435,-0.20145 -0.51343,-0.79002c-0.54787,-0.46498 -0.09265,-1.03401 -0.09265,-1.03401c1.42229,-1.7147 3.8081,-2.02723 5.91834,-1.67614l0.82916,0.27397c0,0 0.71151,0.23717 0.47434,0.94868c-0.00979,0.02937 -0.02039,0.05714 -0.03172,0.08336c0.0702,0.16883 0.0702,0.32346 0.0702,0.32346z" fill="#000000"/><path d="M244.60259,177.52451c-0.23787,0.59841 -0.22937,1.03746 0.02174,1.25665c-0.85042,0.15419 -1.91972,-0.08993 -2.7876,-0.36139c0.6961,-0.60298 1.791,-0.87102 2.76586,-0.89527z" data-paper-data="{&quot;noHover&quot;:false,&quot;origItem&quot;:[&quot;Path&quot;,{&quot;applyMatrix&quot;:true,&quot;segments&quot;:[[[511.84987,357.33256],[1.3922,-1.20597],[1.73576,0.54291]],[[517.23476,358.03264],[-1.70084,0.30839],[-0.50221,-0.43839]],[[517.19281,355.60213],[-0.47574,1.19683],[-1.94973,0.0485]]],&quot;closed&quot;:true}]}" fill="#fff4ce"/><path d="M244.84925,184.10522c-0.56585,0.74435 -1.49087,0.85266 -2.23962,1.30875c-1.81251,1.0743 -4.26236,1.5189 -6.36191,1.52109l-0.713,0.11883c-0.0445,0.00823 -0.09036,0.01253 -0.13723,0.01253c-0.3845,0 -0.70144,-0.28935 -0.74492,-0.66218c-0.11877,-0.03922 -0.24088,-0.11947 -0.35593,-0.26328c-0.46852,-0.58565 0.11713,-1.05418 0.11713,-1.05418c2.37513,-1.8944 4.18873,-3.50384 7.36174,-3.76812c1.05824,-0.08814 2.77106,0.13523 3.37116,0.93125c0.30781,0.09343 0.53184,0.37944 0.53184,0.71777c0,0.27799 -0.15124,0.52065 -0.37592,0.65019l-0.20994,0.12597c-0.06727,0.11555 -0.14806,0.23596 -0.2434,0.36138zM237.41078,184.54285c0.01322,-0.00489 0.02646,-0.00975 0.03972,-0.01459c0.00596,-0.01044 0.01216,-0.02071 0.0186,-0.03082c-0.01947,0.01509 -0.0389,0.03023 -0.05831,0.04541z" fill="#000000"/><path d="M214.72905,170.12192c0.2236,-0.44721 0.67082,-0.22361 0.67082,-0.22361l0.46506,0.23587c1.52405,0.38101 2.39042,1.7205 2.75875,3.18122c0,0 0.12127,0.48506 -0.3638,0.60634c-0.48507,0.12127 -0.60634,-0.3638 -0.60634,-0.3638c-0.29144,-1.1773 -0.92189,-2.18246 -2.13555,-2.48587l-0.56533,-0.27933c0,0 -0.44721,-0.2236 -0.2236,-0.67082z" fill="#7d4632"/><path d="M220.03773,169.99197c0.35356,0.35356 0,0.7071 0,0.7071l0.00272,-0.10349c-0.19869,0.76868 -0.0019,1.01502 0.34853,1.71589c0,0 0.22361,0.44721 -0.22361,0.67082c-0.44721,0.2236 -0.67082,-0.2236 -0.67082,-0.2236c-0.44884,-0.89767 -0.66897,-1.39974 -0.42425,-2.40564l0.26032,-0.36108c0,0 0.35356,-0.35356 0.70711,0z" fill="#7d4632"/><path d="M242.59496,170.86072c0,0.5 -0.5,0.5 -0.5,0.5l-0.00753,-0.01493c-0.55951,0.11306 -0.93992,0.49346 -1.05297,1.05297c0,0 -0.12127,0.48508 -0.60634,0.36381c-0.48507,-0.12127 -0.36381,-0.60634 -0.36381,-0.60634c0.26514,-0.94964 0.83095,-1.51543 1.78058,-1.78058l0.25006,-0.01493c0,0 0.5,0 0.5,0.5z" fill="#7d4632"/><path d="M242.99654,190.55156c-0.5,0 -0.5,-0.5 -0.5,-0.5v-0.2576c0,-0.78058 -0.29717,-2.61301 -1.43949,-2.21967c0,0 -0.48506,0.12126 -0.60634,-0.36381c-0.12127,-0.48507 0.3638,-0.60634 0.3638,-0.60634c1.91491,-0.39002 2.68203,1.61071 2.68203,3.18982v0.2576c0,0 0,0.5 -0.5,0.5z" fill="#7d4632"/><path d="M245.5725,188.4908c-0.5,0 -0.5,-0.5 -0.5,-0.5v-0.12879c0.03828,-1.14568 -0.94368,-1.04558 -1.81836,-1.04558c0,0 -0.5,0 -0.5,-0.5c0,-0.5 0.5,-0.5 0.5,-0.5c1.49095,0 2.78069,0.27143 2.81836,2.04558v0.12879c0,0 0,0.5 -0.5,0.5z" fill="#7d4632"/><path d="M240.42059,190.16517c-0.5,0 -0.5,-0.5 -0.5,-0.5l0.00375,-0.4541c-0.18412,-0.7308 -0.30919,-0.81451 -1.04179,-0.99279c0,0 -0.48507,-0.12127 -0.3638,-0.60634c0.12127,-0.48507 0.60634,-0.3638 0.60634,-0.3638c1.14232,0.29178 1.509,0.70404 1.79176,1.84075l0.00375,0.57628c0,0 0,0.5 -0.5,0.5z" fill="#7d4632"/><path d="M233.75595,169.60558c0.35355,-0.35355 0.70711,0 0.70711,0l0.17524,0.18235c0.51121,0.68456 0.94861,1.23521 1.33519,2.00836c0,0 0.22361,0.44721 -0.22361,0.67082c-0.44721,0.22361 -0.67082,-0.22361 -0.67082,-0.22361c-0.36316,-0.72631 -0.75492,-1.21027 -1.24076,-1.85557l-0.08235,-0.07524c0,0 -0.35355,-0.35355 0,-0.70711z" fill="#7d4632"/><path d="M203.84207,185.14206c-0.5,0 -0.5,-0.5 -0.5,-0.5l0.01493,-0.25007c0.50224,-1.29271 1.92923,-1.02272 3.18982,-1.02272c0,0 0.5,0 0.5,0.5c0,0.5 -0.5,0.5 -0.5,0.5c-0.50134,0 -2.3001,-0.13604 -2.21968,0.26526l0.01493,0.00753c0,0 0,0.5 -0.5,0.5z" fill="#7d4632"/></g></g></svg>