<svg version="1.1" xmlns="http://www.w3.org/2000/svg" xmlns:xlink="http://www.w3.org/1999/xlink" width="34.06146" height="34.79089" viewBox="0,0,34.06146,34.79089"><defs><linearGradient x1="238.9364" y1="162.60455" x2="238.9364" y2="189.91016" gradientUnits="userSpaceOnUse" id="color-1"><stop offset="0" stop-color="#ff7500" stop-opacity="0.65306"/><stop offset="1" stop-color="#ff0a00" stop-opacity="0.64511"/></linearGradient><linearGradient x1="239.3611" y1="169.017" x2="239.3611" y2="191.23505" gradientUnits="userSpaceOnUse" id="color-2"><stop offset="0" stop-color="#ff9c00" stop-opacity="0.64511"/><stop offset="1" stop-color="#ff7500" stop-opacity="0.64511"/></linearGradient><radialGradient cx="240" cy="180" r="15.41496" gradientUnits="userSpaceOnUse" id="color-3"><stop offset="0" stop-color="#ff7500"/><stop offset="1" stop-color="#ff7500" stop-opacity="0"/></radialGradient></defs><g transform="translate(-222.96926,-162.60455)"><g data-paper-data="{&quot;isPaintingLayer&quot;:true}" fill-rule="nonzero" stroke="none" stroke-linecap="butt" stroke-linejoin="miter" stroke-miterlimit="10" stroke-dasharray="" stroke-dashoffset="0" style="mix-blend-mode: normal"><path d="M224.14911,172.90536c-0.00634,-0.1767 0.03543,-0.30864 0.10047,-0.4071c-0.02559,-1.05156 -0.01391,-2.16337 0.11618,-3.18898c0,0 0.08672,-0.66705 0.75377,-0.58033c0.66705,0.08672 0.58033,0.75376 0.58033,0.75376c-0.14437,1.07964 -0.13734,2.28242 -0.09424,3.37039l-0.76014,0.70038c0,0 -0.67223,0.02413 -0.69636,-0.64811z" fill="#b36f00" stroke-width="0.5"/><path d="M252.05634,179.24632c-0.11129,-0.02287 -0.22691,-0.02924 -0.33983,-0.02499c-0.72569,-0.34121 -1.54142,-0.47298 -2.34243,-0.28612c-0.11952,-0.18932 -0.23358,-0.4487 -0.33277,-0.74419c0.05683,-1.60812 -0.23677,-3.33375 -0.95226,-4.61413c0.01025,-0.36501 0.07805,-0.71641 0.17326,-1.04745c0.56799,-0.51991 0.83605,-1.35753 0.9165,-2.25724c0.0448,-0.11639 0.0903,-0.23624 0.13154,-0.35771c0.03121,-0.09195 0.11481,-1.43507 0.34698,-1.50653c0.03228,-0.00994 0.06592,-0.01935 0.09959,-0.02784c1.0282,0.17184 2.49613,0.33365 3.59354,0.73801c0.56599,0.32094 1.06162,0.72586 1.35594,1.17283c0.00325,0.30232 -0.06718,0.61654 0.33092,0.86492c0.92356,3.04399 -0.08733,6.73372 -0.8566,9.96168c-0.55623,-0.78038 -1.1588,-1.67288 -2.12438,-1.87124z" data-paper-data="{&quot;noHover&quot;:false,&quot;origItem&quot;:[&quot;Path&quot;,{&quot;applyMatrix&quot;:true,&quot;segments&quot;:[[[477.95227,392.11227],[1.72653,-1.2593],[7.2165,1.63665]],[[500.01839,393.74947],[-6.76501,2.13355],[0.54413,-0.89374]],[[501.92949,393.00282],[-0.67403,0.0146],[0.98949,-0.66716]],[[504.49904,389.97879],[-0.70185,1.26986],[0.8749,-2.45688]],[[506.0584,382.00509],[-0.35811,2.2969],[-0.01975,-0.07486]],[[505.99438,381.78517],[0.02294,0.07173],[-0.16503,-0.51593]],[[502.63247,381.06186],[0.20579,0.06736],[-0.27189,-0.089]],[[501.83423,380.782],[0.26062,0.09705],[-2.00815,-0.15746]],[[496.81208,378.82764],[1.17313,1.25384],[-0.74047,-0.20424]],[[494.49559,378.47748],[0.81416,0.01395],[-2.83757,1.62661]],[[484.33892,380.67863],[3.58719,0.08752],[-0.65645,0.2284]],[[482.69588,381.42621],[0.41925,-0.27111],[0.43619,1.78157]],[[482.12742,386.60761],[0.74313,-1.62647],[0.01223,0.25168]],[[482.07966,387.35843],[0.04827,-0.2487],[-0.41879,2.15789]]],&quot;closed&quot;:true}]}" fill="#c48c00" stroke-width="0.5"/><path d="M248.62507,172.18372c0.14739,-1.39017 1.86706,-1.91016 2.40059,-2.73629c0.41057,-0.63572 -0.14265,-2.07493 0.50133,-2.34026c0.22401,-0.0923 0.46706,0.17826 0.70334,0.20421c0.68519,0.07519 1.4214,-0.30946 2.08508,-0.09913c0.59322,0.188 -0.10589,2.82611 -0.12223,2.91521c0.10165,3.15699 -3.17884,2.08785 -5.12885,2.217l-0.34056,0.45252c-0.0711,-0.2291 -0.11632,-0.44718 -0.09871,-0.61325z" data-paper-data="{&quot;noHover&quot;:false,&quot;origItem&quot;:[&quot;Path&quot;,{&quot;applyMatrix&quot;:true,&quot;segments&quot;:[[[470.68621,56.41358],[0.21884,-0.08207],[0,0]],[[471.1226,56.78851],[0,0],[0.14421,2.17251]],[[473.27154,62.39121],[-3.02476,0.15181],[0.08557,0.01711]],[[476.03153,62.50451],[-0.17397,0.66367],[0.19463,-0.7425]],[[475.89956,60.20553],[-0.06488,0.76484],[0.02237,-0.26375]],[[476.08625,59.43369],[0.09081,0.24863],[-0.26106,-0.71474]],[[473.8573,58.9409],[0.61361,0.44999],[-0.79739,-0.58477]],[[471.26765,56.30007],[1.33395,0.14739],[-0.15935,-0.01761]]],&quot;closed&quot;:true}]}" fill="#474747" stroke-width="0.5"/><path d="M241.37014,169.58915c-0.1878,-0.96769 -1.07365,-1.57999 -1.8479,-2.14471c3.23618,-0.73395 6.93674,-1.70444 9.97045,-0.74766c0.24401,0.40079 0.55898,0.33381 0.86125,0.34036c0.44373,0.29918 0.8432,0.79922 1.15794,1.36868c0.39234,1.10177 0.53808,2.57137 0.69868,3.6014c-0.00885,0.03357 -0.01864,0.0671 -0.02892,0.09928c-0.074,0.23137 -1.41795,0.30028 -1.51023,0.33048c-0.12192,0.03991 -0.24226,0.08409 -0.35913,0.12762c-0.90053,0.07061 -1.74104,0.3295 -2.26712,0.89177c-0.33206,0.09159 -0.68418,0.15554 -1.04928,0.1618c-1.27249,-0.72944 -2.9948,-1.04189 -4.60345,-1.00264c-0.29438,-0.10242 -0.5525,-0.21931 -0.7405,-0.34089c0.1956,-0.79893 0.07276,-1.61605 -0.2605,-2.34542c0.00548,-0.11286 0.00038,-0.22855 -0.02127,-0.34008z" data-paper-data="{&quot;noHover&quot;:false,&quot;origItem&quot;:[&quot;Path&quot;,{&quot;applyMatrix&quot;:true,&quot;segments&quot;:[[[477.95227,392.11227],[1.72653,-1.2593],[7.2165,1.63665]],[[500.01839,393.74947],[-6.76501,2.13355],[0.54413,-0.89374]],[[501.92949,393.00282],[-0.67403,0.0146],[0.98949,-0.66716]],[[504.49904,389.97879],[-0.70185,1.26986],[0.8749,-2.45688]],[[506.0584,382.00509],[-0.35811,2.2969],[-0.01975,-0.07486]],[[505.99438,381.78517],[0.02294,0.07173],[-0.16503,-0.51593]],[[502.63247,381.06186],[0.20579,0.06736],[-0.27189,-0.089]],[[501.83423,380.782],[0.26062,0.09705],[-2.00815,-0.15746]],[[496.81208,378.82764],[1.17313,1.25384],[-0.74047,-0.20424]],[[494.49559,378.47748],[0.81416,0.01395],[-2.83757,1.62661]],[[484.33892,380.67863],[3.58719,0.08752],[-0.65645,0.2284]],[[482.69588,381.42621],[0.41925,-0.27111],[0.43619,1.78157]],[[482.12742,386.60761],[0.74313,-1.62647],[0.01223,0.25168]],[[482.07966,387.35843],[0.04827,-0.2487],[-0.41879,2.15789]]],&quot;closed&quot;:true}],&quot;index&quot;:null}" fill="#c48c00" stroke-width="0.5"/><path d="M233.12615,165.99309c0.67266,0 0.67266,0.67266 0.67266,0.67266l-0.67266,0.78477c-1.08881,-0.00404 -2.29107,0.03206 -3.36484,0.21506c0,0 -0.66351,0.11059 -0.77409,-0.55292c-0.11059,-0.66351 0.55292,-0.7741 0.55292,-0.7741c1.02029,-0.16679 2.13097,-0.21834 3.18277,-0.23048c0.09607,-0.06853 0.22642,-0.11501 0.40324,-0.11501z" data-paper-data="{&quot;index&quot;:null}" fill="#b36f00" stroke-width="0.5"/><path d="M240.50349,164.86924c2.98258,0.56643 4.86516,-0.4652 6.82167,1.30405c0.68834,-0.47615 1.64178,-0.76985 2.9319,-0.80771c4.15255,-0.71396 5.8288,0.60149 5.60701,4.1916c-0.03863,0.62529 0.19103,1.33991 -0.19477,1.87104c-0.58227,0.80163 -2.17334,0.51637 -3.04165,1.096c-1.33515,0.89129 -1.6309,2.54484 -3.85801,2.75807c-1.08894,0.10425 -2.08909,-0.57566 -3.15627,-0.78906c-2.28188,-0.45629 -4.07337,0.05849 -5.60703,-0.83414c-2.49491,1.97342 -5.13342,-0.76375 -7.5096,-0.19117c-1.21173,0.29198 -2.69432,0.61086 -3.77475,0.05616c-0.71923,-0.36926 -0.9894,-1.18653 -1.60576,-1.6679c-0.7968,0.3855 -1.5065,-0.22462 -1.5065,-0.22462l-0.54245,-1.55044c0.77716,-1.30362 0.62233,-3.0072 2.37225,-3.83365c0.92124,-0.43509 2.16051,0.23786 3.15253,-0.06083c0.92042,-0.27713 1.6186,-0.94699 2.49814,-1.30919c1.23658,-0.02071 3.53917,-0.21373 5.28161,0.06837c0.5241,-0.54639 1.39385,-0.29716 1.39385,-0.29716l0.73787,0.22057zM245.13055,171.99258l0.80873,-0.37348c-0.20945,-1.18702 -0.26121,-2.3586 -0.0057,-3.36132c-1.10593,-1.63414 -2.70881,-1.14974 -4.57345,-1.1094c0.08139,0.18743 0.14565,0.37893 0.19079,0.57148c0.10973,0.46804 -0.51208,0.8594 -0.63027,1.32592c-0.18223,0.71922 0.02661,1.55076 0.0686,2.35613c0.78232,1.12151 2.3736,0.87629 3.86539,0.83596c0.13796,-0.15634 0.27591,-0.24528 0.27591,-0.24528zM247.81685,172.95812c0.22831,0.07361 0.44036,0.1176 0.60661,0.10181c1.39168,-0.13219 1.86985,-1.84405 2.70175,-2.36852c0.64018,-0.40359 2.05308,0.19906 2.32544,-0.44197c0.09475,-0.223 -0.17143,-0.4557 -0.19477,-0.69225c-0.06768,-0.68597 0.34073,-1.39598 0.13768,-2.06192c-0.18148,-0.59523 -2.79019,0.08627 -2.87946,0.10162c-3.1557,-0.13616 -2.09151,3.07648 -2.24197,5.02497l-0.45528,0.33627zM228.50702,169.94196c0.72517,0.48681 1.18919,1.20733 1.79815,1.80024c0.37032,0.36056 1.04182,-0.37057 1.59234,-0.4565c0.6855,-0.10698 1.40509,-0.10927 2.09011,0c0.77127,0.12303 3.51164,1.55808 4.36304,0.6305c0.01336,-0.01456 0.02592,-0.02936 0.0377,-0.0444c-0.06406,-0.21799 -0.10068,-0.552 0.12008,-0.85378c-0.05822,-0.31685 -0.16427,-0.64823 -0.16112,-0.94817c0.00322,-0.30571 0.64324,-2.53233 0.25471,-2.6722c-1.39535,-0.50232 -3.42295,-0.30045 -4.91258,-0.33795c-0.79173,0.36824 -1.41609,1.01604 -2.2726,1.2541c-0.89181,0.24787 -1.92687,-0.32852 -2.81089,-0.06083c-0.17918,0.05425 -0.45825,0.76588 -0.70755,1.46648c0.35304,0.05771 0.60862,0.22249 0.60862,0.22249z" data-paper-data="{&quot;index&quot;:null}" fill="#5d594e" stroke-width="0.5"/><path d="M245.15878,172.03032c0,0 -0.14325,0.09151 -0.2812,0.24784c-1.4918,0.04033 -3.14596,0.27408 -3.92829,-0.84743c-0.04199,-0.80537 -0.26091,-1.67835 -0.07869,-2.39757c0.11819,-0.46651 0.75718,-0.88006 0.64743,-1.3481c-0.04515,-0.19254 -0.10623,-0.38609 -0.18763,-0.57352c1.86463,-0.04035 3.54105,-0.51223 4.64698,1.1219c-0.25551,1.00272 -0.20861,2.22848 0.00084,3.41549l-0.81946,0.38137z" data-paper-data="{&quot;noHover&quot;:false,&quot;origItem&quot;:[&quot;Path&quot;,{&quot;applyMatrix&quot;:true,&quot;segments&quot;:[[[467.8469,57.21665],[0.13223,0.17431],[-1.42989,-0.04497]],[[464.14189,58.14872],[0.74987,-1.25045],[-0.04025,0.89796]],[[464.07613,60.77574],[-0.17466,-0.80191],[0.11329,0.52015]],[[464.68025,62.2541],[0.10519,-0.52185],[-0.04327,0.21468]],[[464.49737,62.89127],[0.07802,-0.20898],[1.78727,0.04498]],[[468.88106,61.65433],[-1.06004,1.82201],[-0.2449,-1.11801]],[[468.88653,57.90654],[-0.20076,1.32349],[0,0]],[468.11136,57.49013]],&quot;closed&quot;:true}],&quot;index&quot;:null}" fill="#5c5c5c" stroke-width="0.5"/><path d="M228.45499,169.94524c0,0 -0.25572,-0.16729 -0.60876,-0.22499c0.2493,-0.7006 0.53118,-1.42754 0.71035,-1.48179c0.88402,-0.26769 1.92795,0.29494 2.81976,0.04707c0.85652,-0.23806 1.52786,-0.90207 2.31958,-1.27032c1.48964,0.03751 3.55753,-0.13969 4.95288,0.36263c0.38853,0.13987 -0.24637,2.39076 -0.24959,2.69647c-0.00316,0.29994 0.10083,0.6401 0.15905,0.95696c-0.22076,0.30178 -0.18755,0.64299 -0.12348,0.86098c-0.01177,0.01503 -0.02459,0.03027 -0.03796,0.04484c-0.8514,0.92758 -3.62063,-0.48605 -4.39188,-0.60907c-0.68501,-0.10927 -1.45294,-0.1132 -2.13843,-0.00622c-0.55051,0.08592 -1.23147,0.80929 -1.6018,0.44873c-0.60896,-0.59291 -1.08455,-1.33845 -1.8097,-1.82526z" data-paper-data="{&quot;noHover&quot;:false,&quot;origItem&quot;:[&quot;Path&quot;,{&quot;applyMatrix&quot;:true,&quot;segments&quot;:[[[451.5942,60.0246],[0.33839,-0.06434],[0.23895,0.78115]],[[452.27239,61.65969],[-0.17174,-0.06049],[0.84734,0.29847]],[[454.96666,61.59187],[-0.85481,-0.27637],[0.82098,0.26543]],[[457.14496,62.99016],[-0.75887,-0.41059],[1.42783,-0.04182]],[[461.85371,62.61336],[-1.33745,0.56007],[0.37241,-0.15595]],[[461.60957,59.63393],[0.00309,0.34086],[-0.00303,-0.33442]],[[461.764,58.57674],[-0.05581,0.35329],[-0.2116,-0.33648]],[[461.6489,57.6248],[-0.06141,0.24305],[-0.01129,-0.01676]],[[461.61277,57.5753],[0.01281,0.01624],[-0.81608,-1.03423]],[[457.43076,58.27829],[0.73926,-0.13717],[-0.65659,0.12183]],[[455.42738,58.27829],[0.65705,0.11928],[-0.52767,-0.0958]],[[453.90111,57.76931],[0.35496,-0.40202],[-0.5837,0.66108]],[[452.17757,59.77653],[0.69507,-0.54278],[0,0]]],&quot;closed&quot;:true}],&quot;index&quot;:null}" fill="#6a6a6a" stroke-width="0.5"/><path d="M236.81274,174.31557c0.13192,0.65959 -0.52768,0.79153 -0.52768,0.79153l-0.69247,0.12517c-0.22422,0 -0.44844,0 -0.67266,0c0,0 -0.67266,0 -0.67266,-0.67266c0,-0.67266 0.67266,-0.67266 0.67266,-0.67266c0.22422,0 0.44844,0 0.67266,0l0.42863,-0.09904c0,0 0.6596,-0.13192 0.79152,0.52768z" data-paper-data="{&quot;index&quot;:null}" fill="#b36f00" stroke-width="0.5"/><path d="M240.20418,166.06231l-0.02532,0.86557c-0.12418,0.45125 -0.27732,0.90354 -0.48787,1.33791c0.29679,0.43209 0.57183,0.87126 0.7573,1.33124c1.87151,4.64157 5.27988,8.80213 7.69207,13.34007c1.03205,1.54982 2.04246,3.1423 3.43167,4.52507l0.49207,0.95159c0,0 0.4124,0.93098 -0.82479,1.24131c-1.2372,0.31033 -1.64957,-0.62065 -1.64957,-0.62065l-0.10428,-0.39464c-1.49502,-1.51029 -2.60722,-3.21384 -3.72442,-4.89864c-1.9853,-3.73485 -4.65098,-7.21699 -6.58474,-10.92017c-0.38816,5.37239 -1.65566,10.77368 -1.65566,16.12752c0,0 0,0.98134 -1.30411,0.98134c-1.30411,0 -1.30411,-0.98134 -1.30411,-0.98134c0,-2.76267 0.276,-5.53102 0.61395,-8.30081c-1.00725,3.0627 -2.13028,6.0911 -3.43973,9.05988c0,0 -0.4124,0.93099 -1.64958,0.62065c-1.2372,-0.31033 -0.82479,-1.24131 -0.82479,-1.24131c2.9832,-6.70338 4.94844,-13.72096 6.81634,-20.74893c0.04981,-0.18101 0.10713,-0.35616 0.16943,-0.52732c-0.56616,-0.87432 -1.06032,-1.75238 -1.08926,-2.87021c0,0 0,-0.98134 1.30411,-0.98134c0.65803,0 0.98402,0.24984 1.14553,0.49741c0.19295,-0.15459 0.48861,-0.27303 0.94167,-0.27303c1.30411,0 1.30411,0.98134 1.30411,0.98134l-0.02532,0.41683c-0.01497,0.0544 -0.03062,0.10827 -0.04689,0.16166c0.07221,0.17644 0.07221,0.319 0.07221,0.319z" data-paper-data="{&quot;index&quot;:null}" fill="#d39400" stroke-width="0.5"/><path d="M230.61399,184.71372l-0.35174,0.83261c-1.19376,-0.16674 -2.42042,-0.16965 -3.41332,0.12165c-1.67274,-1.04661 -1.2613,-2.73887 -1.28784,-4.60375c0.19023,0.07463 0.38584,0.12872 0.57988,0.16694c0.47167,0.09289 0.86203,-0.56052 1.32401,-0.69536c0.71222,-0.2079 1.5925,-0.02043 2.39885,-0.00735c1.14884,0.74161 0.97457,2.40308 0.98777,3.89538c-0.15129,0.14347 -0.2376,0.28991 -0.2376,0.28991z" data-paper-data="{&quot;noHover&quot;:false,&quot;origItem&quot;:[&quot;Path&quot;,{&quot;applyMatrix&quot;:true,&quot;segments&quot;:[[[467.8469,57.21665],[0.13223,0.17431],[-1.42989,-0.04497]],[[464.14189,58.14872],[0.74987,-1.25045],[-0.04025,0.89796]],[[464.07613,60.77574],[-0.17466,-0.80191],[0.11329,0.52015]],[[464.68025,62.2541],[0.10519,-0.52185],[-0.04327,0.21468]],[[464.49737,62.89127],[0.07802,-0.20898],[1.78727,0.04498]],[[468.88106,61.65433],[-1.06004,1.82201],[-0.2449,-1.11801]],[[468.88653,57.90654],[-0.20076,1.32349],[0,0]],[468.11136,57.49013]],&quot;closed&quot;:true}]}" fill="#827c6d" stroke-width="0.5"/><path d="M227.93119,168.09549c0.51251,0.70723 1.27461,1.15578 1.88899,1.74307c0.37361,0.35716 -0.32487,1.06362 -0.391,1.61686c-0.08232,0.68889 -0.05085,1.45618 0.08292,2.13683c0.1506,0.76635 1.66264,3.48309 0.7662,4.36721c-0.01408,0.01387 -0.02884,0.02724 -0.04345,0.03954c-0.22015,-0.05621 -0.56233,-0.07716 -0.85599,0.15428c-0.31874,-0.04683 -0.66242,-0.13854 -0.96204,-0.12463c-0.3054,0.01418 -2.53207,0.72941 -2.68579,0.34614c-0.55204,-1.37643 -0.44911,-3.44934 -0.54002,-4.93669c0.33962,-0.80442 0.97912,-1.49914 1.18631,-2.36365c0.21573,-0.90013 -0.38398,-1.9232 -0.14817,-2.81627c0.04779,-0.181 0.76415,-0.48877 1.45536,-0.76303c0.07033,0.35074 0.24668,0.6003 0.24668,0.6003z" data-paper-data="{&quot;noHover&quot;:false,&quot;origItem&quot;:[&quot;Path&quot;,{&quot;applyMatrix&quot;:true,&quot;segments&quot;:[[[451.5942,60.0246],[0.33839,-0.06434],[0.23895,0.78115]],[[452.27239,61.65969],[-0.17174,-0.06049],[0.84734,0.29847]],[[454.96666,61.59187],[-0.85481,-0.27637],[0.82098,0.26543]],[[457.14496,62.99016],[-0.75887,-0.41059],[1.42783,-0.04182]],[[461.85371,62.61336],[-1.33745,0.56007],[0.37241,-0.15595]],[[461.60957,59.63393],[0.00309,0.34086],[-0.00303,-0.33442]],[[461.764,58.57674],[-0.05581,0.35329],[-0.2116,-0.33648]],[[461.6489,57.6248],[-0.06141,0.24305],[-0.01129,-0.01676]],[[461.61277,57.5753],[0.01281,0.01624],[-0.81608,-1.03423]],[[457.43076,58.27829],[0.73926,-0.13717],[-0.65659,0.12183]],[[455.42738,58.27829],[0.65705,0.11928],[-0.52767,-0.0958]],[[453.90111,57.76931],[0.35496,-0.40202],[-0.5837,0.66108]],[[452.17757,59.77653],[0.69507,-0.54278],[0,0]]],&quot;closed&quot;:true}]}" fill="#8e8878" stroke-width="0.5"/><path d="M223.29058,180.3183l-0.24689,-0.72949c0,0 -0.28027,-0.86025 0.24697,-1.4036c-0.3444,-1.7312 -0.2341,-4.03924 -0.25775,-5.27576c0.33042,-0.89197 0.97481,-1.61373 1.21876,-2.54349c0.26292,-1.0021 -0.45405,-2.21643 -0.05228,-3.15269c0.76316,-1.77843 2.4712,-1.6848 3.74611,-2.50821l1.5689,0.4865c0,0 0.63517,0.68736 0.2785,1.49748c0.50316,0.59871 1.3296,0.83938 1.72441,1.54491c0.59309,1.05984 0.32759,2.55291 0.07925,3.77433c-0.48699,2.39519 2.34304,4.93383 0.46038,7.49792c0.94706,1.50066 0.49686,3.30947 1.0347,5.57351c0.25153,1.05883 0.96688,2.03396 0.90175,3.12593c-0.13321,2.23333 -1.7751,2.58819 -2.61793,3.95445c-0.54811,0.88854 -0.20597,2.46836 -0.9862,3.079c-0.51695,0.40459 -1.23935,0.20071 -1.86285,0.26175c-3.57985,0.3504 -4.95457,-1.27758 -4.39,-5.45307c-0.00844,-1.29065 0.25089,-2.25401 0.70204,-2.95899c-1.83828,-1.8918 -0.87484,-3.81016 -1.54787,-6.77051zM230.81051,184.40236c-0.01319,-1.49227 0.17479,-3.09132 -0.97405,-3.83292c-0.80635,-0.01309 -1.64486,-0.19196 -2.35707,0.01595c-0.46198,0.13485 -0.83078,0.77029 -1.30246,0.67742c-0.19404,-0.03821 -0.38772,-0.09555 -0.57795,-0.17017c0.02656,1.86489 -0.40004,3.48411 1.27271,4.53072c0.99291,-0.2913 2.1656,-0.28159 3.35937,-0.11485l0.34423,-0.8216c0,0 0.08394,-0.14105 0.23523,-0.28453zM231.63654,187.33684l-0.31972,0.46704c-1.94184,0.22024 -5.19058,-0.72804 -4.94132,2.42074c-0.01213,0.08977 -0.59964,2.72123 0.00172,2.88125c0.67279,0.17904 1.36769,-0.25457 2.05566,-0.21154c0.23723,0.01483 0.47933,0.2725 0.69879,0.16982c0.63086,-0.29517 -0.02208,-1.68556 0.35829,-2.3398c0.4943,-0.85018 2.1879,-1.38943 2.27009,-2.78496c0.00982,-0.1667 -0.04175,-0.37704 -0.12349,-0.60256zM227.6856,167.54735c-0.69121,0.27427 -1.39238,0.57868 -1.44016,0.75969c-0.23582,0.89305 0.37733,1.90678 0.1616,2.8069c-0.20719,0.86451 -0.83218,1.51169 -1.17179,2.31612c0.09091,1.48733 -0.03812,3.52086 0.51392,4.8973c0.15372,0.38327 2.35595,-0.3362 2.66135,-0.35038c0.29963,-0.01391 0.6346,0.08019 0.95333,0.12701c0.29368,-0.23144 0.62878,-0.20683 0.84893,-0.15062c0.0146,-0.01231 0.02895,-0.02539 0.04301,-0.03927c0.89645,-0.88412 -0.63596,-3.57126 -0.78658,-4.33762c-0.13376,-0.68065 -0.15729,-1.39986 -0.07496,-2.08876c0.06612,-0.55324 0.77271,-1.25053 0.3991,-1.60768c-0.61437,-0.58731 -1.35106,-1.02519 -1.86357,-1.73243c0,0 -0.17384,-0.24951 -0.24418,-0.60026z" fill="#5d594e" stroke-width="0.5"/><path d="M256.76646,180.16449l0.21249,0.74024c0,0 0.23971,0.87242 -0.31238,1.39052c0.26303,1.74542 0.04485,4.04577 0.01063,5.28204c-0.37179,0.87554 -1.04925,1.56635 -1.33642,2.48368c-0.30951,0.9887 0.34985,2.23525 -0.09528,3.15168c-0.84553,1.74078 -2.54732,1.56734 -3.85936,2.3302l-1.54442,-0.55937c0,0 -0.60232,-0.71633 -0.20813,-1.50887c-0.4746,-0.62159 -1.28887,-0.90068 -1.65025,-1.6239c-0.54285,-1.08643 -0.20779,-2.56544 0.09742,-3.7739c0.59852,-2.36978 -2.10964,-5.03805 -0.10907,-7.51124c-0.87582,-1.54333 -0.34148,-3.32909 -0.77279,-5.61582c-0.20172,-1.06944 -0.87066,-2.07697 -0.75451,-3.16471c0.23756,-2.22465 1.89425,-2.5023 2.80008,-3.82764c0.58908,-0.86192 0.32124,-2.45602 1.12918,-3.02949c0.53532,-0.37996 1.24738,-0.14251 1.87306,-0.1743c3.59232,-0.18253 4.88938,1.50799 4.13006,5.6525c-0.05196,1.28963 -0.35606,2.2398 -0.83971,2.9229c1.74776,1.97573 0.69561,3.84691 1.2294,6.83551zM249.44585,175.73307c-0.05664,1.49126 -0.31924,3.07975 0.79365,3.87429c0.80485,0.05079 1.63407,0.26871 2.35524,0.09435c0.46778,-0.11309 0.86591,-0.73057 1.33272,-0.61574c0.19204,0.04724 0.38283,0.11359 0.56936,0.19703c0.06072,-1.86408 0.56261,-3.46157 -1.05934,-4.58531c-1.00546,0.24453 -2.1764,0.17996 -3.36106,-0.04245l-0.3823,0.80459c0,0 -0.09045,0.13697 -0.24828,0.27321zM248.75801,172.76314l0.34123,-0.45157c1.95001,-0.12914 5.15083,0.9701 5.04917,-2.1869c0.01632,-0.08911 0.7263,-2.6902 0.13309,-2.87818c-0.66368,-0.21032 -1.37811,0.19031 -2.0633,0.11513c-0.23628,-0.02592 -0.46606,-0.29463 -0.69008,-0.20232c-0.64398,0.26533 -0.05681,1.68474 -0.46737,2.32047c-0.53353,0.82612 -2.25051,1.28555 -2.39791,2.6757c-0.01761,0.16607 0.02406,0.37858 0.09517,0.60768zM251.77874,192.71581c0.70328,-0.24162 1.41793,-0.5129 1.47413,-0.69148c0.27734,-0.88104 -0.2877,-1.92234 -0.0301,-2.81139c0.24741,-0.85386 0.902,-1.47109 1.27887,-2.25876c-0.02122,-1.48996 0.2028,-3.51522 -0.28423,-4.91598c-0.13562,-0.39004 -2.3691,0.2256 -2.67483,0.22548c-0.29995,-0.00013 -0.63015,-0.1098 -0.94635,-0.17148c-0.30418,0.21745 -0.63776,0.17719 -0.85504,0.11075c-0.01516,0.01161 -0.0301,0.024 -0.04481,0.03721c-0.93684,0.84121 0.46818,3.59711 0.58277,4.36967c0.10177,0.68617 0.09162,1.40569 -0.02285,2.08998c-0.09193,0.54955 -0.83037,1.21301 -0.47388,1.58725c0.58622,0.61541 1.30162,1.08728 1.78047,1.81772c0,0 0.16198,0.25737 0.21583,0.61102z" fill="#5d594e" stroke-width="0.5"/><path d="M249.65672,175.43123l0.39031,-0.81525c1.18466,0.22241 2.40983,0.28272 3.41528,0.03818c1.62194,1.12372 1.13177,2.79488 1.07104,4.65896c-0.18653,-0.08345 -0.3794,-0.14663 -0.57143,-0.19389c-0.46681,-0.11485 -0.88731,0.51957 -1.35509,0.63266c-0.72117,0.17435 -1.59171,-0.0541 -2.39656,-0.1049c-1.11289,-0.79455 -0.86107,-2.44605 -0.80443,-3.93733c0.15783,-0.13624 0.2509,-0.27847 0.2509,-0.27847z" data-paper-data="{&quot;noHover&quot;:false,&quot;origItem&quot;:[&quot;Path&quot;,{&quot;applyMatrix&quot;:true,&quot;segments&quot;:[[[467.8469,57.21665],[0.13223,0.17431],[-1.42989,-0.04497]],[[464.14189,58.14872],[0.74987,-1.25045],[-0.04025,0.89796]],[[464.07613,60.77574],[-0.17466,-0.80191],[0.11329,0.52015]],[[464.68025,62.2541],[0.10519,-0.52185],[-0.04327,0.21468]],[[464.49737,62.89127],[0.07802,-0.20898],[1.78727,0.04498]],[[468.88106,61.65433],[-1.06004,1.82201],[-0.2449,-1.11801]],[[468.88653,57.90654],[-0.20076,1.32349],[0,0]],[468.11136,57.49013]],&quot;closed&quot;:true}]}" fill="#827c6d" stroke-width="0.5"/><path d="M248.39479,173.09742c-0.16626,0.01579 -0.38383,-0.0318 -0.61214,-0.10541l0.45622,-0.33559c0.15045,-1.94849 -0.88276,-5.24047 2.27293,-5.10431c0.08928,-0.01535 2.73487,-0.68559 2.91638,-0.09035c0.20305,0.66594 -0.18961,1.3979 -0.12192,2.08387c0.02335,0.23655 0.29124,0.48254 0.19651,0.70553c-0.27236,0.64104 -1.70543,0.07213 -2.3456,0.47572c-0.83191,0.52447 -1.37068,2.23834 -2.76237,2.37053z" data-paper-data="{&quot;noHover&quot;:false,&quot;origItem&quot;:[&quot;Path&quot;,{&quot;applyMatrix&quot;:true,&quot;segments&quot;:[[[470.68621,56.41358],[0.21884,-0.08207],[0,0]],[[471.1226,56.78851],[0,0],[0.14421,2.17251]],[[473.27154,62.39121],[-3.02476,0.15181],[0.08557,0.01711]],[[476.03153,62.50451],[-0.17397,0.66367],[0.19463,-0.7425]],[[475.89956,60.20553],[-0.06488,0.76484],[0.02237,-0.26375]],[[476.08625,59.43369],[0.09081,0.24863],[-0.26106,-0.71474]],[[473.8573,58.9409],[0.61361,0.44999],[-0.79739,-0.58477]],[[471.26765,56.30007],[1.33395,0.14739],[-0.15935,-0.01761]]],&quot;closed&quot;:true}],&quot;index&quot;:null}" fill="#787265" stroke-width="0.5"/><path d="M232.28815,170.07723c1.29397,-0.01396 1.38806,1.01281 1.38806,1.01281l0.03748,0.74553c1.22198,3.27768 3.2142,7.05819 4.43373,10.68954c0.62988,-1.53232 1.14932,-3.08934 1.66815,-4.6488c-0.81861,-2.87398 -1.45134,-5.72528 -2.50053,-8.61853c-0.01861,-1.4384 -0.90461,-2.75988 -1.43441,-4.18095l0.01547,-0.70038c0,0 0.22254,-0.9995 1.50071,-0.76401c1.19413,0.22001 1.07838,1.10689 1.058,1.22253c0.56713,1.43604 1.3518,2.73233 1.42264,4.21953c0.60245,1.56039 1.04968,3.11167 1.46191,4.66263c0.99191,-2.00291 2.56335,-4.18065 1.64368,-6.38017c0,0 -0.37256,-0.99928 0.87019,-1.23565c1.24274,-0.23637 1.6153,0.76292 1.6153,0.76292c1.09833,3.1881 -1.07865,5.69275 -2.06592,8.51375c-0.31224,0.89217 -0.60836,1.78659 -0.90509,2.67991c0.09276,0.32017 0.18878,0.64067 0.28908,0.96158c0.98983,3.16668 2.76231,6.31093 3.94712,9.48891c0,0 0.37256,0.99928 -0.87019,1.23565c-1.24274,0.23637 -1.6153,-0.76292 -1.6153,-0.76292c-0.88887,-2.38419 -2.09913,-4.74491 -3.07377,-7.11431c-0.45954,1.22068 -0.96587,2.43017 -1.56313,3.61974l0.01758,0.03708c0,0 -0.10117,0.45433 -0.55879,0.67819c0.05803,0.39796 0.09869,0.79094 0.11965,1.17796c0,0 0.03244,1.02628 -1.26454,0.99139c-1.29698,-0.0349 -1.32942,-1.06117 -1.32942,-1.06117c0.00184,-1.19523 -0.67898,-1.89077 -1.05211,-3.06435c-1.28362,-4.03733 -2.8341,-7.96377 -4.31551,-11.93734l-0.13991,-1.19035c0,0 -0.09409,-1.02679 1.19989,-1.04073z" data-paper-data="{&quot;index&quot;:null}" fill="#a87500" stroke-width="0.5"/><path d="M245.71407,170.46358c0.92214,0.65149 0,1.30298 0,1.30298l-0.77336,0.53329c-0.29817,0.28088 -0.59635,0.56175 -0.89452,0.84263c-0.82359,0.76965 -1.64111,1.58826 -2.43563,2.40501c0.86035,0.99459 1.78617,1.96331 2.52921,2.91052c0.57134,0.72832 0.84728,1.95608 1.65338,2.59959c2.20573,1.76082 5.00524,4.21984 5.07362,6.69943c0,0 0,0.92135 -1.30411,0.92135c-1.30411,0 -1.30411,-0.92135 -1.30411,-0.92135c0.08237,-1.98715 -2.80216,-4.10984 -4.46787,-5.51871c-0.95026,-0.80374 -1.22126,-1.98538 -1.92468,-2.87751c-0.55304,-0.70143 -1.20171,-1.41895 -1.85267,-2.1514c-0.0321,0.03362 -0.06415,0.06715 -0.09613,0.10062c-0.17501,0.18318 -0.31781,0.38334 -0.44417,0.59265c-0.48216,1.4864 -0.74689,3.11618 -1.51538,4.49883c-0.95723,1.72219 -2.37543,3.89993 -2.29763,5.77683c0,0 0,0.92135 -1.30411,0.92135c-1.30411,0 -1.30411,-0.92135 -1.30411,-0.92135c0.05258,-1.90657 1.06639,-3.95722 2.08683,-5.76612c-2.1988,1.73864 -4.26463,3.66074 -4.24936,5.97678c0,0 0,0.92135 -1.30411,0.92135c-1.30411,0 -1.30411,-0.92135 -1.30411,-0.92135c0.0214,-3.85681 4.43308,-6.78009 7.75717,-9.43797c0.33933,-0.27132 0.56932,-0.63207 0.76703,-1.01445c0.13677,-0.48861 0.28893,-0.96662 0.48488,-1.41867c0.24243,-0.55927 0.52195,-1.09361 0.80664,-1.61761c-0.63139,-0.86409 -1.14219,-1.74585 -1.39632,-2.64358c-1.28061,-1.80948 -2.69756,-3.93524 -2.75413,-5.98677l-0.16049,-0.00927c0,0 -0.58322,-0.82407 0.58322,-1.23612c1.16642,-0.41205 1.74965,0.41205 1.74965,0.41205l0.43586,0.83336c-0.07181,1.73234 1.52502,3.85149 2.61295,5.38874c0.06332,0.22366 0.14325,0.44595 0.23752,0.6669c0.3166,-0.77983 0.53039,-1.58947 0.53961,-2.4755c0.78823,-1.15977 1.43796,-2.49834 1.77946,-3.76084l-0.02532,-0.02996c0,0 0,-0.92135 1.30411,-0.92135c1.30411,0 1.30411,0.92135 1.30411,0.92135l-0.02532,0.39135c-0.37345,1.27404 -0.9442,2.6718 -1.79858,3.82283c0.00556,0.4972 -0.05967,0.97336 -0.17538,1.43548c0.18214,-0.17156 0.36428,-0.34314 0.5464,-0.51471l1.01566,-0.73065c0,0 0.92214,-0.65149 1.8443,0z" data-paper-data="{&quot;index&quot;:null}" fill="#855d00" stroke-width="0.5"/><path d="M242.10838,163.03137c1.30411,0 1.30411,0.92135 1.30411,0.92135c0,1.52175 0,3.15343 0,4.73622c0.06868,-0.09869 0.13966,-0.19952 0.213,-0.30314l-0.13768,-0.00927c0,0 0,-0.92135 1.30411,-0.92135c1.30411,0 1.30411,0.92135 1.30411,0.92135l-0.13768,0.83336c-0.73926,1.04456 -1.13837,1.64058 -1.41711,2.8221c-0.36225,0.52424 -0.7332,1.04169 -1.10887,1.55452c0.01043,2.16456 -0.02235,4.33131 -0.32441,6.46698c-0.13139,0.92898 -0.44744,1.84284 -0.82681,2.74884c1.16832,1.58154 2.56724,2.96286 2.62218,4.9547v0.21066c0,0 0,0.92135 -1.30411,0.92135c-1.30411,0 -1.30411,-0.92135 -1.30411,-0.92135v-0.21066c0.04086,-0.98575 -0.4182,-1.84805 -1.03425,-2.67894c-0.61461,1.37984 -1.1375,2.75557 -1.12827,4.15355c0,0 0,0.92135 -1.30411,0.92135c-1.30411,0 -1.30411,-0.92135 -1.30411,-0.92135c0.01193,-2.1494 1.15159,-4.17913 2.03627,-6.26029c-0.29958,-0.39805 -0.56925,-0.80651 -0.77301,-1.23503c-0.1643,-0.34552 -0.33808,-0.69528 -0.52017,-1.04819c-0.65968,1.02459 -1.26457,2.07059 -1.78352,3.15477c-0.77287,1.61466 -2.47772,2.8203 -2.93645,4.51615c0,0 -0.25576,0.90347 -1.53454,0.72277c-1.27878,-0.1807 -1.02303,-1.08415 -1.02303,-1.08415c0.52947,-1.8063 2.23583,-3.04806 3.02697,-4.75278c0.79597,-1.71514 1.8098,-3.34465 2.92752,-4.94238c-1.3254,-2.24771 -2.87052,-4.52341 -4.35128,-6.56472c0,0 -0.58322,-0.82407 0.58322,-1.23612c1.16642,-0.41205 1.74965,0.41205 1.74965,0.41205c1.17063,1.68626 2.41107,3.47453 3.55475,5.27993c0.76859,-1.02281 1.55957,-2.04228 2.34202,-3.07304c-0.00696,-0.88075 -0.01852,-1.76071 -0.01852,-2.63748c0,-2.10657 0,-4.21315 0,-6.31972v-0.21066c0,0 0,-0.92135 1.30411,-0.92135zM239.82725,178.41707c0.24637,0.42913 0.48342,0.85728 0.7089,1.28328c0.11422,-0.84815 0.18559,-1.70132 0.22913,-2.55726c-0.31676,0.42393 -0.63024,0.84816 -0.93802,1.274z" data-paper-data="{&quot;index&quot;:null}" fill="#704e00" stroke-width="0.5"/><path d="M230.18394,176.68972c0.0588,-2.99909 -1.9456,-5.9248 -2.00873,-8.92759h-0.00142v-0.7368c0,-0.3488 0.30116,-0.63154 0.67266,-0.63154c0.37151,0 0.67266,0.28274 0.67266,0.63154v0.73329c0.00046,0.06411 0.00177,0.12811 0.00389,0.19203c0.17816,0.48769 0.33401,0.98238 0.48191,1.48026c0.02188,-0.83988 0.07495,-1.60627 0.07475,-1.98456c-0.00019,-0.34427 -0.07686,-1.8798 0.33504,-2.01982c0.53017,-0.18021 1.13167,0.22317 1.59805,0.52069c0.84098,0.53647 1.69791,1.95393 2.46663,3.08306c-0.00378,-1.26601 0.46043,-2.99911 0.78797,-3.56159c0.23882,-0.41015 0.46194,-1.08326 0.95974,-1.07453c0.53403,0.00936 0.77543,0.69915 1.08118,1.11032c0.6734,0.90556 2.08921,3.46931 2.48613,5.00692c0.88525,-2.45873 2.23614,-4.69985 3.59149,-6.9378l0.32364,-0.6077c0.10786,-0.21361 0.33963,-0.36135 0.60816,-0.36135c0.26853,0 0.50031,0.14773 0.60817,0.36135l0.32981,0.6193l-0.20156,0.09462c0.80948,1.50898 1.34017,3.69975 1.58008,5.55746c0.41074,-1.33607 1.09723,-2.86872 1.3528,-3.56631l0.10134,-0.06589l-0.03572,-0.02683l0.44456,-0.52173c0.12316,-0.1471 0.3144,-0.24158 0.52914,-0.24158c0.37151,0 0.67266,0.28274 0.67266,0.63154v0.63154h-0.1362c0.27099,1.81482 -0.29003,3.47113 -0.42564,5.40734c-0.19058,2.72091 -0.33504,5.43504 -0.33504,8.17078c0,2.1403 0.58695,6.35482 -1.22708,7.93874c-1.51416,1.3221 -5.03981,1.48135 -7.0214,1.7433c-2.49125,-0.00212 -6.24364,1.1756 -8.6181,0.15723c-2.08987,-0.89632 -2.85568,-4.19689 -2.86255,-6.10318c-0.36587,-2.06105 0.21003,-3.9318 0.56741,-5.94503l0.32804,-0.56226c0,0 0.07775,-0.10949 0.21551,-0.1952z" fill="url(#color-1)" stroke-width="0.5"/><path d="M240.24904,192.39827c0.02165,-0.11153 0.02675,-0.22722 0.02127,-0.34008c0.33325,-0.72937 0.4561,-1.5465 0.2605,-2.34542c0.188,-0.12158 0.44612,-0.23846 0.7405,-0.34089c1.60865,0.03925 3.33096,-0.2732 4.60345,-1.00264c0.3651,0.00626 0.71722,0.07021 1.04928,0.1618c0.52608,0.56227 1.36659,0.82116 2.26712,0.89177c0.11687,0.04353 0.23721,0.08771 0.35913,0.12762c0.09228,0.03021 1.43623,0.09911 1.51023,0.33048c0.01029,0.03217 0.02007,0.06571 0.02892,0.09928c-0.1606,1.03003 -0.30634,2.49963 -0.69868,3.6014c-0.31473,0.56946 -0.71421,1.0695 -1.15794,1.36868c-0.30227,0.00655 -0.61724,-0.06043 -0.86125,0.34036c-3.03372,0.95678 -6.73427,-0.01371 -9.97045,-0.74766c0.77425,-0.56472 1.6601,-1.17702 1.8479,-2.14471z" data-paper-data="{&quot;noHover&quot;:false,&quot;origItem&quot;:[&quot;Path&quot;,{&quot;applyMatrix&quot;:true,&quot;segments&quot;:[[[477.95227,392.11227],[1.72653,-1.2593],[7.2165,1.63665]],[[500.01839,393.74947],[-6.76501,2.13355],[0.54413,-0.89374]],[[501.92949,393.00282],[-0.67403,0.0146],[0.98949,-0.66716]],[[504.49904,389.97879],[-0.70185,1.26986],[0.8749,-2.45688]],[[506.0584,382.00509],[-0.35811,2.2969],[-0.01975,-0.07486]],[[505.99438,381.78517],[0.02294,0.07173],[-0.16503,-0.51593]],[[502.63247,381.06186],[0.20579,0.06736],[-0.27189,-0.089]],[[501.83423,380.782],[0.26062,0.09705],[-2.00815,-0.15746]],[[496.81208,378.82764],[1.17313,1.25384],[-0.74047,-0.20424]],[[494.49559,378.47748],[0.81416,0.01395],[-2.83757,1.62661]],[[484.33892,380.67863],[3.58719,0.08752],[-0.65645,0.2284]],[[482.69588,381.42621],[0.41925,-0.27111],[0.43619,1.78157]],[[482.12742,386.60761],[0.74313,-1.62647],[0.01223,0.25168]],[[482.07966,387.35843],[0.04827,-0.2487],[-0.41879,2.15789]]],&quot;closed&quot;:true}]}" fill="#c48c00" stroke-width="0.5"/><path d="M232.00506,195.99431c-0.17682,0 -0.30716,-0.04648 -0.40324,-0.11501c-1.0518,-0.01214 -2.16247,-0.06369 -3.18277,-0.23048c0,0 -0.66351,-0.11059 -0.55292,-0.7741c0.11059,-0.66351 0.77409,-0.55292 0.77409,-0.55292c1.07377,0.183 2.27603,0.21911 3.36484,0.21506l0.67266,0.78477c0,0 0,0.67266 -0.67266,0.67266z" fill="#b36f00" stroke-width="0.5"/><path d="M247.27369,188.89c1.39169,0.13219 1.93046,1.84606 2.76237,2.37053c0.64017,0.40359 2.07324,-0.16532 2.3456,0.47572c0.09474,0.22299 -0.17315,0.46898 -0.19651,0.70553c-0.06769,0.68597 0.32498,1.41793 0.12192,2.08387c-0.1815,0.59523 -2.8271,-0.075 -2.91638,-0.09035c-3.15569,0.13616 -2.12248,-3.15583 -2.27293,-5.10431l-0.45622,-0.33559c0.22831,-0.07361 0.44588,-0.1212 0.61214,-0.10541z" data-paper-data="{&quot;noHover&quot;:false,&quot;origItem&quot;:[&quot;Path&quot;,{&quot;applyMatrix&quot;:true,&quot;segments&quot;:[[[470.68621,56.41358],[0.21884,-0.08207],[0,0]],[[471.1226,56.78851],[0,0],[0.14421,2.17251]],[[473.27154,62.39121],[-3.02476,0.15181],[0.08557,0.01711]],[[476.03153,62.50451],[-0.17397,0.66367],[0.19463,-0.7425]],[[475.89956,60.20553],[-0.06488,0.76484],[0.02237,-0.26375]],[[476.08625,59.43369],[0.09081,0.24863],[-0.26106,-0.71474]],[[473.8573,58.9409],[0.61361,0.44999],[-0.79739,-0.58477]],[[471.26765,56.30007],[1.33395,0.14739],[-0.15935,-0.01761]]],&quot;closed&quot;:true}]}" fill="#787265" stroke-width="0.5"/><path d="M251.55906,192.15678c-0.47885,-0.73044 -1.21914,-1.21415 -1.80536,-1.82955c-0.35649,-0.37424 0.37428,-1.04726 0.46621,-1.59679c0.11447,-0.68428 0.11893,-1.45221 0.01715,-2.13837c-0.11459,-0.77256 -1.49786,-3.55706 -0.56103,-4.39828c0.01471,-0.0132 0.03009,-0.02586 0.04525,-0.03746c0.21727,0.06644 0.5581,0.10338 0.86228,-0.11407c0.31621,0.06169 0.65521,0.16939 0.95516,0.1695c0.30573,0.00013 2.56343,-0.61014 2.69903,-0.2201c0.48703,1.40075 0.28724,3.46658 0.30846,4.95654c-0.37689,0.78765 -1.04819,1.45169 -1.2956,2.30555c-0.2576,0.88905 0.29359,1.93907 0.01624,2.82011c-0.05621,0.17857 -0.78619,0.45249 -1.48947,0.69411c-0.05384,-0.35365 -0.21833,-0.61118 -0.21833,-0.61118z" data-paper-data="{&quot;noHover&quot;:false,&quot;origItem&quot;:[&quot;Path&quot;,{&quot;applyMatrix&quot;:true,&quot;segments&quot;:[[[451.5942,60.0246],[0.33839,-0.06434],[0.23895,0.78115]],[[452.27239,61.65969],[-0.17174,-0.06049],[0.84734,0.29847]],[[454.96666,61.59187],[-0.85481,-0.27637],[0.82098,0.26543]],[[457.14496,62.99016],[-0.75887,-0.41059],[1.42783,-0.04182]],[[461.85371,62.61336],[-1.33745,0.56007],[0.37241,-0.15595]],[[461.60957,59.63393],[0.00309,0.34086],[-0.00303,-0.33442]],[[461.764,58.57674],[-0.05581,0.35329],[-0.2116,-0.33648]],[[461.6489,57.6248],[-0.06141,0.24305],[-0.01129,-0.01676]],[[461.61277,57.5753],[0.01281,0.01624],[-0.81608,-1.03423]],[[457.43076,58.27829],[0.73926,-0.13717],[-0.65659,0.12183]],[[455.42738,58.27829],[0.65705,0.11928],[-0.52767,-0.0958]],[[453.90111,57.76931],[0.35496,-0.40202],[-0.5837,0.66108]],[[452.17757,59.77653],[0.69507,-0.54278],[0,0]]],&quot;closed&quot;:true}]}" fill="#827c6d" stroke-width="0.5"/><path d="M252.9362,192.62038c0.16863,0.08385 0.33774,0.25202 0.33774,0.58928c0,0.67266 -0.67266,0.67266 -0.67266,0.67266l-0.71376,-0.37184c-0.33155,-0.67231 -0.77444,-1.20937 -1.19126,-1.83358c0,0 -0.37313,-0.55969 0.18656,-0.93281c0.55969,-0.37313 0.93281,0.18656 0.93281,0.18656c0.38698,0.58149 0.78377,1.09436 1.12057,1.68972z" fill="#5d594e" stroke-width="0.5"/><path d="M229.92937,189.34977c-0.30495,-0.12198 -0.40144,-0.33329 -0.42034,-0.51763c-0.9609,0.00587 -1.7567,0.11165 -2.55384,0.92927c0,0 -0.47564,0.47564 -0.95129,0c-0.47564,-0.47564 0,-0.95129 0,-0.95129c1.34154,-1.31591 2.6284,-1.31812 4.39951,-1.31812l0.40033,1.48303c0,0 -0.24982,0.62455 -0.87437,0.37473z" fill="#5d594e" stroke-width="0.5"/><path d="M232.67477,180.47783c0.04492,-2.4403 -1.48631,-4.8209 -1.53454,-7.26421h-0.00108v-0.59952c0,-0.2838 0.23007,-0.51387 0.51387,-0.51387c0.2838,0 0.51387,0.23007 0.51387,0.51387v0.59666c0.00035,0.05216 0.00135,0.10424 0.00298,0.15625c0.1361,0.39683 0.25516,0.79935 0.36815,1.20446c0.01672,-0.68339 0.05727,-1.30698 0.0571,-1.61479c-0.00014,-0.28011 -0.05872,-1.52956 0.25594,-1.64348c0.40501,-0.14663 0.86452,0.18159 1.22081,0.42367c0.64246,0.43652 1.2971,1.58987 1.88436,2.50863c-0.00289,-1.03013 0.35175,-2.44031 0.60195,-2.898c0.18244,-0.33374 0.3529,-0.88143 0.73317,-0.87433c0.40797,0.00761 0.59237,0.56888 0.82596,0.90345c0.51443,0.73684 1.59603,2.82291 1.89926,4.07404c0.67628,-2.00062 1.70827,-3.82417 2.74368,-5.64515l0.24723,-0.49448c0.0824,-0.17382 0.25946,-0.29402 0.46459,-0.29402c0.20514,0 0.38221,0.12021 0.4646,0.29402l0.25195,0.50391l-0.15398,0.07699c0.61839,1.22782 1.02381,3.01041 1.20709,4.52199c0.31377,-1.08714 0.83822,-2.33422 1.03345,-2.90184l0.07742,-0.05361l-0.02729,-0.02183l0.33961,-0.42452c0.09408,-0.11969 0.24018,-0.19657 0.40423,-0.19657c0.2838,0 0.51387,0.23007 0.51387,0.51387v0.51387h-0.10406c0.20703,1.47667 -0.22156,2.82439 -0.32516,4.39985c-0.14559,2.21396 -0.25594,4.42239 -0.25594,6.64841c0,1.74152 0.44839,5.1708 -0.93741,6.45959c-1.15673,1.07576 -3.8501,1.20534 -5.36392,1.41848c-1.90316,-0.00171 -4.76976,0.95656 -6.5837,0.12793c-1.59653,-0.72931 -2.18156,-3.41493 -2.18681,-4.96604c-0.2795,-1.67704 0.16045,-3.19924 0.43347,-4.83737l0.25061,-0.4575c0,0 0.0594,-0.0891 0.16463,-0.15883z" fill="url(#color-2)" stroke-width="0.5"/><path d="M239.38241,197.11815l-0.73787,0.22057c0,0 -0.86974,0.24923 -1.39385,-0.29716c-1.74244,0.2821 -4.04503,0.08908 -5.28161,0.06837c-0.87955,-0.3622 -1.57772,-1.03206 -2.49814,-1.30919c-0.99202,-0.29869 -2.23129,0.37426 -3.15253,-0.06083c-1.74992,-0.82645 -1.59509,-2.53004 -2.37225,-3.83365l0.54245,-1.55044c0,0 0.7097,-0.61011 1.5065,-0.22462c0.61636,-0.48137 0.88653,-1.29864 1.60576,-1.6679c1.08043,-0.5547 2.56301,-0.23582 3.77475,0.05616c2.37618,0.57258 5.01469,-2.16459 7.5096,-0.19117c1.53366,-0.89263 3.32516,-0.37785 5.60703,-0.83414c1.06717,-0.2134 2.06732,-0.89331 3.15627,-0.78906c2.22711,0.21322 2.52286,1.86678 3.85801,2.75807c0.86831,0.57963 2.45938,0.29437 3.04165,1.096c0.38579,0.53113 0.15614,1.24575 0.19477,1.87104c0.22179,3.59012 -1.45446,4.90556 -5.60701,4.1916c-1.29012,-0.03786 -2.24356,-0.33156 -2.9319,-0.80771c-1.95651,1.76925 -3.83908,0.73762 -6.82167,1.30405zM243.73354,189.74954c-1.49179,-0.04033 -3.08306,-0.28555 -3.86539,0.83596c-0.04199,0.80537 -0.25083,1.63691 -0.0686,2.35613c0.11819,0.46651 0.74,0.85788 0.63027,1.32592c-0.04514,0.19254 -0.1094,0.38405 -0.19079,0.57148c1.86464,0.04034 3.46752,0.52474 4.57345,-1.1094c-0.2555,-1.00272 -0.20374,-2.1743 0.0057,-3.36132l-0.80873,-0.37348c0,0 -0.13795,-0.08894 -0.27591,-0.24528zM246.69576,189.02927l0.45528,0.33627c0.15045,1.94849 -0.91374,5.16112 2.24197,5.02497c0.08928,0.01535 2.69798,0.69685 2.87946,0.10162c0.20305,-0.66594 -0.20536,-1.37594 -0.13768,-2.06192c0.02334,-0.23655 0.28951,-0.46925 0.19477,-0.69225c-0.27236,-0.64104 -1.68526,-0.03839 -2.32544,-0.44197c-0.8319,-0.52447 -1.31007,-2.23632 -2.70175,-2.36852c-0.16625,-0.01579 -0.3783,0.0282 -0.60661,0.10181zM226.7773,192.26794c0.2493,0.7006 0.52837,1.41223 0.70755,1.46648c0.88402,0.26769 1.91909,-0.3087 2.81089,-0.06083c0.85651,0.23806 1.48087,0.88586 2.2726,1.2541c1.48963,-0.03751 3.51723,0.16436 4.91258,-0.33795c0.38853,-0.13987 -0.25149,-2.36649 -0.25471,-2.6722c-0.00316,-0.29994 0.1029,-0.63132 0.16112,-0.94817c-0.22076,-0.30178 -0.18415,-0.63579 -0.12008,-0.85378c-0.01178,-0.01503 -0.02433,-0.02984 -0.0377,-0.0444c-0.8514,-0.92758 -3.59177,0.50747 -4.36304,0.6305c-0.68501,0.10927 -1.40461,0.10698 -2.09011,0c-0.55052,-0.08592 -1.22201,-0.81706 -1.59234,-0.4565c-0.60897,0.59291 -1.07299,1.31343 -1.79815,1.80024c0,0 -0.25558,0.16478 -0.60862,0.22249z" fill="#5d594e" stroke-width="0.5"/><path d="M244.03766,189.95711l0.81946,0.38137c-0.20945,1.18702 -0.25636,2.41278 -0.00084,3.41549c-1.10593,1.63413 -2.78235,1.16225 -4.64698,1.1219c0.0814,-0.18743 0.14248,-0.38098 0.18763,-0.57352c0.10974,-0.46804 -0.52924,-0.88158 -0.64743,-1.3481c-0.18222,-0.71922 0.0367,-1.5922 0.07869,-2.39757c0.78233,-1.12151 2.43649,-0.88776 3.92829,-0.84743c0.13795,0.15634 0.2812,0.24784 0.2812,0.24784z" data-paper-data="{&quot;noHover&quot;:false,&quot;origItem&quot;:[&quot;Path&quot;,{&quot;applyMatrix&quot;:true,&quot;segments&quot;:[[[467.8469,57.21665],[0.13223,0.17431],[-1.42989,-0.04497]],[[464.14189,58.14872],[0.74987,-1.25045],[-0.04025,0.89796]],[[464.07613,60.77574],[-0.17466,-0.80191],[0.11329,0.52015]],[[464.68025,62.2541],[0.10519,-0.52185],[-0.04327,0.21468]],[[464.49737,62.89127],[0.07802,-0.20898],[1.78727,0.04498]],[[468.88106,61.65433],[-1.06004,1.82201],[-0.2449,-1.11801]],[[468.88653,57.90654],[-0.20076,1.32349],[0,0]],[468.11136,57.49013]],&quot;closed&quot;:true}]}" fill="#827c6d" stroke-width="0.5"/><path d="M227.33391,192.04217c0.72516,-0.48681 1.20075,-1.23234 1.8097,-1.82526c0.37032,-0.36056 1.05129,0.36281 1.6018,0.44873c0.68549,0.10698 1.45342,0.10304 2.13843,-0.00622c0.77126,-0.12303 3.54048,-1.53666 4.39188,-0.60907c0.01336,0.01457 0.02619,0.0298 0.03796,0.04484c-0.06406,0.21799 -0.09728,0.5592 0.12348,0.86098c-0.05823,0.31686 -0.16221,0.65702 -0.15905,0.95696c0.00322,0.30571 0.63812,2.5566 0.24959,2.69647c-1.39534,0.50232 -3.46323,0.32512 -4.95288,0.36263c-0.79172,-0.36825 -1.46306,-1.03226 -2.31958,-1.27032c-0.89182,-0.24787 -1.93574,0.31476 -2.81976,0.04707c-0.17917,-0.05425 -0.46105,-0.78119 -0.71035,-1.48179c0.35304,-0.05771 0.60876,-0.22499 0.60876,-0.22499z" data-paper-data="{&quot;noHover&quot;:false,&quot;origItem&quot;:[&quot;Path&quot;,{&quot;applyMatrix&quot;:true,&quot;segments&quot;:[[[451.5942,60.0246],[0.33839,-0.06434],[0.23895,0.78115]],[[452.27239,61.65969],[-0.17174,-0.06049],[0.84734,0.29847]],[[454.96666,61.59187],[-0.85481,-0.27637],[0.82098,0.26543]],[[457.14496,62.99016],[-0.75887,-0.41059],[1.42783,-0.04182]],[[461.85371,62.61336],[-1.33745,0.56007],[0.37241,-0.15595]],[[461.60957,59.63393],[0.00309,0.34086],[-0.00303,-0.33442]],[[461.764,58.57674],[-0.05581,0.35329],[-0.2116,-0.33648]],[[461.6489,57.6248],[-0.06141,0.24305],[-0.01129,-0.01676]],[[461.61277,57.5753],[0.01281,0.01624],[-0.81608,-1.03423]],[[457.43076,58.27829],[0.73926,-0.13717],[-0.65659,0.12183]],[[455.42738,58.27829],[0.65705,0.11928],[-0.52767,-0.0958]],[[453.90111,57.76931],[0.35496,-0.40202],[-0.5837,0.66108]],[[452.17757,59.77653],[0.69507,-0.54278],[0,0]]],&quot;closed&quot;:true}]}" fill="#8e8878" stroke-width="0.5"/><path d="M255.41496,180c0,8.01399 -6.90151,14.51062 -15.41496,14.51062c-8.51345,0 -15.41496,-6.49663 -15.41496,-14.51062c0,-8.01399 6.90151,-14.51062 15.41496,-14.51062c8.51345,0 15.41496,6.49663 15.41496,14.51062z" fill="url(#color-3)" stroke-width="0"/></g></g></svg>