<svg version="1.1" xmlns="http://www.w3.org/2000/svg" xmlns:xlink="http://www.w3.org/1999/xlink" width="41.28733" height="32.63926" viewBox="0,0,41.28733,32.63926"><g transform="translate(-219.35632,-163.68036)"><g data-paper-data="{&quot;isPaintingLayer&quot;:true}" fill-rule="nonzero" stroke="none" stroke-width="0.5" stroke-linecap="butt" stroke-linejoin="miter" stroke-miterlimit="10" stroke-dasharray="" stroke-dashoffset="0" style="mix-blend-mode: normal"><path d="M238.2282,179.22004c0.51582,0.55633 0.72547,2.81252 1.06063,3.55477c1.2084,2.67613 1.83559,5.80843 3.59204,8.2037c0.03849,0.16066 -4.5349,2.05001 -5.37252,2.25688c-3.63481,0.89769 -6.39602,-1.22516 -10.05968,-1.55129c-1.48411,-0.13211 -4.69446,0.0053 -5.8795,-0.66291c-0.48271,-0.27219 0.40078,-1.04601 0.4938,-1.5923c0.16887,-1.0323 -0.06857,-2.65834 0.3395,-3.61347c0.8749,-2.04784 4.6492,-2.48235 6.30714,-3.63636c1.76671,-1.22972 2.76574,-2.83414 4.96336,-2.82059c0.31355,0.00194 3.17179,-0.23904 4.1911,-0.32672c0.1604,0.0448 0.2886,0.10684 0.36413,0.1883z" data-paper-data="{&quot;noHover&quot;:false,&quot;origItem&quot;:[&quot;Path&quot;,{&quot;applyMatrix&quot;:true,&quot;selected&quot;:true,&quot;segments&quot;:[[[125.7457,436.86169],[0.3208,0.08961],[-2.03864,0.17536],7],[[117.40402,437.53438],[0.62709,0.00387],[-4.39524,-0.02711],7],[[107.56349,443.1542],[3.53341,-2.45944],[-3.31588,2.30803],7],[[94.98445,450.35501],[1.74981,-4.09568],[-0.81613,1.91026],7],[[94.30091,457.54748],[0.33774,-2.0646],[-0.18604,1.09259],7],[[93.3091,460.72104],[-0.96541,-0.54437],[2.37007,1.33643],7],[[105.04236,462.01236],[-2.96822,-0.26422],[7.32733,0.65226],7],[[125.03551,465.11119],[-7.26962,1.79539],[1.67526,-0.41374],7],[[135.74988,460.63644],[0.07697,0.32133],[-3.5129,-4.79054],7],[[128.56735,444.31314],[2.4168,5.35227],[-0.67031,-1.48449],7],[[126.47062,437.23552],[1.03163,1.11266],[-0.15106,-0.16292],7]],&quot;closed&quot;:true}]}" fill="#827c6d"/><path d="M231.30239,170.29469c0.46648,-0.51913 1.98163,-3.88944 2.43102,-3.97098c0.64969,-0.11787 1.20197,0.55476 1.81117,0.80945c1.794,0.75003 3.34305,1.26639 5.28168,1.58949c2.72276,0.45379 5.62605,0.67253 8.34211,-0.00381c1.35868,-0.33834 2.85315,-1.01286 4.12463,-1.5904c0.5816,-0.26418 1.00869,-1.07089 1.64209,-0.98806c0.4172,0.05455 1.37644,2.18876 1.5354,2.45303c1.68764,2.80587 1.55323,4.61658 1.56507,7.94338c-0.31011,2.46679 -4.23828,4.18823 -6.04053,5.64958c-1.4034,1.13794 -2.49134,4.15959 -4.0784,4.83764c-2.72501,1.16422 -4.44124,-0.88173 -5.49868,-3.14579c-0.1649,-0.40622 -0.33447,-0.81155 -0.50874,-1.21604c-0.12251,-0.32713 -0.23374,-0.6471 -0.33301,-0.951c-0.33956,-1.01866 -0.87596,-3.71765 -1.64756,-4.40172c-1.24104,-1.10027 -1.6637,-0.99874 -2.4174,-0.7252c-0.76522,-0.0667 -1.64074,-0.05544 -2.27906,-0.10864c-1.0352,-0.08626 -3.42906,-0.72728 -4.35036,-0.34934c-1.10854,0.45476 -1.30294,1.67103 -2.10981,2.38245c-0.85916,0.75753 -2.08014,1.4394 -3.07187,2.03123c-0.26282,0.1654 -0.58931,0.68746 -0.82633,0.88951c-0.06245,0.02534 -0.22079,0.0794 -0.28346,0.10456c-0.03294,-0.01125 -0.06082,-0.04305 -0.0823,-0.09978c-0.24621,-0.65023 -0.08928,-1.42499 -0.37726,-2.05783c-0.2639,-0.57995 -1.39505,-0.89138 -1.19567,-1.49654c0.12434,-0.3774 2.62512,-1.78954 2.9509,-2.1538c1.17057,-1.30884 2.73405,-2.53496 3.85616,-3.90573c0.54308,-0.47378 1.07114,-0.9814 1.56019,-1.52566z" data-paper-data="{&quot;noHover&quot;:false,&quot;origItem&quot;:[&quot;Path&quot;,{&quot;applyMatrix&quot;:true,&quot;selected&quot;:true,&quot;segments&quot;:[[[109.65492,422.40219],[1.08616,-0.94757],[-2.24423,2.74153],7],[[101.95146,430.17891],[2.34114,-2.61768],[-0.65156,0.72853],7],[[96.04969,434.47309],[0.24868,-0.7548],[-0.39877,1.21034],7],[[98.43995,437.45673],[-0.52781,-1.15989],[0.57595,1.26567],7],[[99.19168,441.56011],[-0.49241,-1.30045],[0.04296,0.11346],7],[[99.35608,441.75897],[-0.06588,-0.0225],[0.12533,-0.05032],7],[[99.73148,441.60753],[-0.1249,0.05069],[0.47403,-0.40409],7],[[101.38305,439.82464],[-0.52564,0.33081],[1.98347,-1.18365],7],[[107.52476,435.75221],[-1.71831,1.51506],[1.61373,-1.42285],7],[[111.74347,430.96598],[-2.21708,0.90951],[1.8426,-0.75588],7],[[120.64384,431.67615],[-2.0704,-0.17253],[1.27664,0.10639],7],[[125.00223,431.88303],[-1.53043,-0.13339],[1.50739,-0.54709],7],[[130.00615,433.26661],[-2.48208,-2.20054],[1.5432,1.36815],7],[[133.21034,442.04455],[-0.67911,-2.03733],[0.19853,0.6078],7],[[133.87445,443.94698],[-0.24501,-0.65427],[0.34854,0.80898],7],[[134.88921,446.37977],[-0.32979,-0.81244],[2.11488,4.52812],7],[[145.85421,452.68683],[-5.45002,2.32843],[3.17413,-1.3561],7],[[153.97924,443.04982],[-2.8068,2.27588],[3.60451,-2.92271],7],[[166.05073,431.79456],[-0.62022,4.93359],[-0.02367,-6.65359],7],[[162.93148,415.95202],[3.37528,5.61173],[-0.31791,-0.52855],7],[[159.86915,411.0597],[0.83441,0.10911],[-1.2668,-0.16565],7],[[156.58562,413.03669],[1.16321,-0.52836],[-2.54297,1.15508],7],[[148.34287,416.22531],[2.71735,-0.67667],[-5.43211,1.35269],7],[[131.72776,416.26501],[5.44551,0.90758],[-3.87726,-0.64621],7],[[121.21443,413.07511],[3.588,1.50007],[-1.2184,-0.50939],7],[[117.60077,411.4512],[1.29938,-0.23575],[-0.89877,0.16307],7],[[112.76622,419.3667],[0.93295,-1.03825],[-0.97811,1.08851],7]],&quot;closed&quot;:true}]}" fill="#827c6d"/><path d="M249.4975,167.1892c0.88389,0.88388 0,1.76777 0,1.76777l-0.70529,0.51865c-2.9529,0.97575 -5.46327,0.97478 -8.49734,0.46067c-1.99702,-0.65989 -4.20983,-1.61584 -6.15133,-2.13094c-0.38536,-0.10224 -0.49383,0.63816 -0.64583,1.00674c-0.64292,1.55901 -0.72172,2.866 -2.04656,4.10257c-1.56956,1.46498 -3.31101,3.34233 -5.16326,4.4644c-0.90385,0.54755 -2.12843,0.46307 -1.77668,1.3117c0,0 0,1.25 -1.25,1.25c-1.25,0 -1.25,-1.25 -1.25,-1.25c0.36893,-3.17576 1.91414,-2.18443 3.89442,-3.97483c2.50772,-2.26727 3.90712,-4.01771 5.3208,-6.94848c0.54916,-1.13849 1.33799,-2.35296 2.82117,-2.46025c1.56363,-0.11311 5.27041,1.67102 6.8499,2.20281c2.55928,0.4183 4.61198,0.43298 7.10414,-0.40608l-0.27191,0.08528c0,0 0.88388,-0.88388 1.76777,0z" fill="#8e8878"/><path d="M244.22974,173.27358c0,1.25 -1.25,1.25 -1.25,1.25l-0.42218,-0.01701c-1.66868,-0.28276 -4.91862,-1.7141 -5.87331,0.27688c0,0 -0.64312,1.07187 -1.71499,0.42874c-1.07187,-0.64312 -0.42875,-1.71499 -0.42875,-1.71499c2.13246,-3.21166 5.23736,-1.97812 8.42805,-1.45663l0.01118,-0.017c0,0 1.25,0 1.25,1.25z" fill="#8e8878"/><path d="M255.28754,169.97996c0.69338,1.04006 -0.34669,1.73344 -0.34669,1.73344l-0.45955,0.2772c-1.50607,1.41504 -2.52532,0.78886 -3.86408,1.66618c-0.55934,0.36655 -0.58768,1.2033 -0.93175,1.77675c0,0 -0.64312,1.07187 -1.71499,0.42874c-1.07187,-0.64312 -0.42874,-1.71499 -0.42874,-1.71499c0.26584,-0.44307 1.39083,-2.37067 1.6685,-2.557c1.04093,-0.6985 2.66394,-0.43635 3.50329,-1.36745l0.84057,-0.58955c0,0 1.04006,-0.69338 1.73344,0.34668z" fill="#8e8878"/><path d="M245.02987,177.47408c1,0.75 0.25,1.75 0.25,1.75l-1.00694,1.18861c-1.0537,0.62461 -2.08926,0.66284 -2.60488,1.73812c0,0 -0.64312,1.07187 -1.71499,0.42875c-1.07187,-0.64312 -0.42875,-1.71499 -0.42875,-1.71499c1.07369,-1.61707 1.89166,-1.63899 3.46237,-2.59562l0.29318,-0.54488c0,0 0.75,-1 1.75,-0.25z" fill="#8e8878"/><path d="M232.32398,178.15497c0.36425,0.12142 0.57933,0.31743 0.7025,0.53075c0.06596,-0.02991 0.13385,-0.05813 0.20382,-0.08454c1.57603,-0.5949 3.74358,-0.42948 5.42688,-0.71004l0.42219,-0.01701c0,0 1.25,0 1.25,1.25c0,1.25 -1.25,1.25 -1.25,1.25l-0.01118,-0.017c-1.54769,0.25795 -3.51583,0.0974 -4.97411,0.59008c-1.58338,0.53495 -2.18167,2.66029 -3.80994,3.42962c-3.6897,1.74332 -5.43596,1.37329 -7.68457,5.14135c0,0 -0.64312,1.07187 -1.71498,0.42875c-1.07187,-0.64312 -0.42875,-1.71499 -0.42875,-1.71499c1.47798,-2.45166 2.88025,-3.53829 4.64809,-4.39414c-0.37999,-1.17391 0.79561,-1.56578 0.79561,-1.56578c2.37707,-0.77641 3.2097,-1.76273 5.03159,-3.25723l-0.18829,-0.06926c0,0 0.39528,-1.18586 1.58113,-0.79057z" fill="#8e8878"/><path d="M237.92154,184.78646c-0.24514,1.22573 -1.47087,0.98058 -1.47087,0.98058l-0.05742,-0.46633c-0.57161,0.44166 -1.08262,0.99089 -1.4425,1.61722c0,0 -0.64312,1.07187 -1.71499,0.42874c-1.07187,-0.64312 -0.42875,-1.71498 -0.42875,-1.71498c0.53485,-0.86517 1.23808,-1.63806 2.0245,-2.28315l2.10945,-0.03295c0,0 1.22573,0.24514 0.98058,1.47087z" fill="#8e8878"/><path d="M231.38105,189.70372c-0.39529,1.18586 -1.58114,0.79057 -1.58114,0.79057l-1.10507,-0.38537c-0.50806,-0.04022 -1.02851,0.2627 -1.40246,0.60897c0,0 -0.97609,0.78087 -1.75696,-0.19521c-0.78087,-0.97609 0.19521,-1.75696 0.19521,-1.75696c0.95157,-0.70206 2.18261,-1.09097 3.36466,-1.12452l1.49518,0.48137c0,0 1.18585,0.39529 0.79057,1.58114z" fill="#8e8878"/><path d="M257.93116,168.77327c1.25,0 1.25,1.25 1.25,1.25v0.43338c0,2.41906 0.05389,4.57142 -0.7142,6.8959c-1.39611,4.12017 -4.22707,3.80566 -7.08058,6.17979c-1.59792,1.32947 -0.59095,3.56542 -3.30584,4.38049c-2.03388,0.61062 -4.2807,-0.47986 -5.75683,-1.83671c0.19019,0.67333 0.32982,1.28458 0.35237,1.41419c1.10389,3.55888 -1.4845,5.99346 -4.77984,6.92314c-5.08459,1.43446 -10.44762,-3.03791 -15.72965,-2.13853c0,0 -1.23299,0.2055 -1.43849,-1.02749c-0.2055,-1.23299 1.0275,-1.43849 1.0275,-1.43849c3.25179,-0.53196 6.46407,0.31296 9.60768,1.10329c1.81595,0.45655 3.91096,1.59098 5.86563,1.09194c0.79615,-0.20326 1.24314,-1.11294 1.9909,-1.45356c0.33719,-0.1536 0.76952,0.04603 1.10627,-0.10854c0.72541,-0.33295 0.03165,-2.0535 -0.07628,-2.34913c-0.24336,-1.53768 -2.5598,-6.11234 0.91257,-6.53231c1.17728,-0.14238 3.10084,3.27767 4.41615,3.75785c3.12802,1.14196 2.48101,-2.12414 4.16272,-3.66856c2.33476,-2.14416 5.22809,-1.64078 6.35402,-5.08794c0.68964,-2.04835 0.58592,-3.96423 0.58592,-6.10533v-0.43338c0,0 0,-1.25 1.25,-1.25z" fill="#787265"/><path d="M228.98603,169.18027c0.16794,-0.1705 0.33292,-0.34499 0.49444,-0.52412c1.33399,-1.47935 1.51472,-4.07749 3.64997,-4.70974c2.11303,-0.62566 5.87154,1.98803 8.10461,2.36021c2.68758,0.44793 5.82847,0.73987 8.41701,-0.35523c1.35367,-0.57268 4.2066,-2.52881 5.68164,-2.24261c1.40002,0.27165 1.96163,1.51394 2.58588,2.53765c0.62379,1.02295 1.77798,2.33034 2.2364,3.38379c0.8546,1.9639 0.32741,5.01237 0.32104,7.11335c-0.68693,3.65177 -4.23432,5.22302 -6.96549,7.3736c-1.79542,1.41376 -2.4522,4.14237 -4.60497,5.14911c-1.52029,0.71096 -2.87242,0.7589 -4.05846,0.36768c0.1422,0.28746 0.28957,0.57355 0.44314,0.858c-0.16481,0.78178 -0.01699,1.70472 -0.49444,2.34533c-0.37912,0.50868 -2.34452,0.88 -3.02824,1.19035c-2.05462,0.93264 -4.25795,2.45718 -6.68734,2.2774c-2.63317,-0.19486 -5.1471,-1.96352 -7.80607,-2.1673c-1.64174,-0.12581 -6.4152,-0.06619 -7.56798,-1.52121c-0.6569,-0.82913 -0.21898,-2.65736 -0.06253,-3.61371c0.2209,-1.29736 -0.03748,-3.00179 0.52498,-4.20451c0.54486,-1.16511 1.4286,-1.86443 2.43102,-2.3915c-0.84183,-1.66063 -2.14807,-4.55053 -2.09689,-4.83564c0.0437,-0.24348 0.19545,-0.51066 0.40905,-0.78305c0.0443,-0.40612 0.28887,-0.71184 0.28887,-0.71184c1.11649,-1.38136 2.44874,-2.48189 3.80916,-3.5492c0.19678,-0.24821 0.41546,-0.49276 0.67809,-0.72819c0.52893,-0.47416 0.98755,-0.6773 1.40027,-0.91157c0.31029,-0.25414 0.61696,-0.51326 0.91769,-0.78044c0.08461,-0.11422 0.16773,-0.24401 0.24969,-0.39346zM237.83303,179.07094c-1.01932,0.08768 -3.8573,0.33828 -4.17084,0.33634c-2.19762,-0.01355 -3.15356,1.58019 -4.92027,2.80991c-1.65794,1.15401 -5.41461,1.55256 -6.28952,3.6004c-0.40807,0.95513 -0.1729,2.56394 -0.34177,3.59624c-0.09302,0.54629 -0.97861,1.31459 -0.49591,1.58678c1.18503,0.66822 4.38252,0.51355 5.86663,0.64566c3.66366,0.32613 6.36176,2.44711 9.99657,1.54942c0.83763,-0.20687 5.39567,-2.07671 5.35719,-2.23738c-1.75645,-2.39527 -2.38287,-5.48552 -3.59127,-8.16165c-0.33515,-0.74224 -0.53255,-2.98248 -1.04836,-3.53881c-0.07553,-0.08146 -0.20206,-0.14211 -0.36246,-0.18691zM229.78764,171.84119c-1.12211,1.37077 -2.68116,2.57952 -3.85173,3.88836c-0.32578,0.36426 -2.82654,1.76969 -2.95088,2.14709c-0.19938,0.60517 0.93122,0.91187 1.19513,1.49182c0.28798,0.63284 0.12966,1.40147 0.37586,2.05169c0.02148,0.05673 0.04926,0.08818 0.0822,0.09943c0.06267,-0.02516 0.12525,-0.05038 0.1877,-0.07572c0.23702,-0.20204 0.56297,-0.72604 0.82578,-0.89145c0.99174,-0.59183 2.2117,-1.27868 3.07086,-2.03621c0.80687,-0.71142 1.00081,-1.93836 2.10935,-2.39311c0.9213,-0.37794 3.41498,0.26882 4.45019,0.35509c0.63832,0.05319 1.41398,0.03674 2.17919,0.10344c0.75369,-0.27355 1.26092,-0.40848 2.50196,0.69179c0.7716,0.68408 1.26254,3.37031 1.6021,4.38897c0.09927,0.3039 0.20955,0.62408 0.33205,0.95121c0.17427,0.40449 0.34249,0.81018 0.50738,1.2164c1.05744,2.26406 2.75749,4.31775 5.4825,3.15353c1.58706,-0.67805 2.65912,-3.68057 4.06252,-4.8185c1.80226,-1.46135 5.72564,-3.16084 6.03575,-5.62763c-0.01184,-3.3268 0.12802,-5.1154 -1.55962,-7.92127c-0.15896,-0.26427 -1.11396,-2.3916 -1.53117,-2.44616c-0.6334,-0.08283 -1.06016,0.72431 -1.64176,0.9885c-1.27149,0.57754 -2.7627,1.25597 -4.12138,1.59431c-2.71606,0.67634 -5.5848,0.47364 -8.30756,0.01985c-1.93863,-0.3231 -3.46266,-0.84492 -5.25666,-1.59495c-0.6092,-0.25469 -1.15714,-0.92983 -1.80683,-0.81196c-0.44939,0.08154 -1.9508,3.43863 -2.41728,3.95775c-0.48906,0.54425 -1.01257,1.04396 -1.55565,1.51775z" fill="#5d594e"/></g></g></svg>