<svg version="1.1" xmlns="http://www.w3.org/2000/svg" xmlns:xlink="http://www.w3.org/1999/xlink" width="52.75" height="52.75" viewBox="0,0,52.75,52.75"><g transform="translate(-213.625,-153.625)"><g data-paper-data="{&quot;isPaintingLayer&quot;:true}" fill-rule="nonzero" stroke-linecap="butt" stroke-linejoin="miter" stroke-miterlimit="10" stroke-dasharray="" stroke-dashoffset="0" style="mix-blend-mode: normal"><path d="M214.875,205.125v-50.25h50.25v50.25z" fill="#7f7f7f" stroke="#5e5e5e" stroke-width="2.5"/><path d="M234.23548,186.14202c-0.12404,-1.24037 1.11633,-1.36441 1.11633,-1.36441l1.12128,-0.10591c0.22936,0 0.45871,0 0.68807,0c0.00246,-0.91778 0.07389,-1.85445 -0.08287,-2.73608c-0.3658,-2.05733 -1.58518,-4.28007 -1.57751,-6.411c0.00091,-0.25398 -0.03255,-0.68844 -0.05143,-1.202c-0.4964,-0.44127 -0.16792,-1.5339 -0.14802,-2.06663c0.04659,-1.24746 0.19469,-2.47477 0.37208,-3.69473c-1.21156,-0.758 -2.27814,-1.59456 -3.2419,-2.56263c-0.56804,0.28815 -1.13249,0.58351 -1.69241,0.88709c-0.16907,0.14845 -0.94917,0.74917 -1.72928,-0.03093c-0.88145,-0.88145 0,-1.7629 0,-1.7629l0.38426,-0.31262c0.45317,-0.24709 0.90922,-0.48901 1.36768,-0.72624c-0.28301,-0.3813 -0.55757,-0.78065 -0.82519,-1.19998l-0.02922,0.01275c0,0 -0.88145,-0.88145 0,-1.7629c0.88145,-0.88145 1.7629,0 1.7629,0l0.36967,0.41165c1.15643,1.82317 2.44261,3.18146 4.04862,4.32868c0.19519,-1.31167 0.36189,-2.62585 0.40949,-3.9586c0.0397,-1.11146 -0.56924,-2.55879 0.23373,-3.32831c0.86369,-0.8277 2.58791,-1.28307 3.27221,0c1.3511,2.53331 0.6028,8.68205 0.5329,11.10683c-0.08264,2.86692 0.33148,5.67997 0.78439,8.47829c1.0912,-0.77011 2.18513,-1.50666 3.10077,-2.53092l0.16806,-0.6263c0,0 0.17833,-0.44583 0.59033,-0.67341c0.36457,-0.79144 0.64352,-1.63884 0.98006,-2.64847l0.44237,-1.0096c0,0 0.50628,-1.13912 1.6454,-0.63284c1.13912,0.50628 0.63284,1.6454 0.63284,1.6454l-0.35543,0.78544c-0.05704,0.17113 -0.11328,0.33887 -0.16915,0.50352c0.49358,-0.05889 0.98838,-0.10767 1.4838,-0.14611l0.29506,-0.00367c0,0 1.24656,0 1.24656,1.24656c0,1.24656 -1.24656,1.24656 -1.24656,1.24656l-0.10384,-0.00367c-0.83607,0.06371 -1.67025,0.16026 -2.4989,0.28835c0,0 -0.08422,0.01296 -0.21201,0.01008c-0.47793,0.9895 -1.07142,1.91352 -1.94299,2.88267c0,0 -0.38816,0.43129 -0.92908,0.44054c-0.33328,0.25356 -0.67234,0.49731 -1.01287,0.74063c-0.03327,0.06117 -0.05759,0.09592 -0.05759,0.09592h-0.00001l-0.9861,1.29053c-0.18201,0.13237 -0.36402,0.26474 -0.54603,0.39711c0.32751,2.21721 0.5659,4.43483 0.48598,6.67245c-0.0348,0.97438 0.03373,1.92044 0.16999,2.84882c0.373,0.0272 0.85588,0.20562 1.05354,0.89744v0c0.23455,0.82094 -0.25382,1.24025 -0.58486,1.42299c0.53081,2.13487 1.27087,4.22145 1.75472,6.39882c0.04022,0.18098 -0.00151,0.40125 -0.0999,0.62975c0.02654,0.06245 0.05282,0.12486 0.07881,0.18722c0,0 0.47945,1.15067 -0.67122,1.63011c-0.79297,0.33041 -1.26717,-0.11335 -1.48536,-0.42118c-0.09164,-0.02115 -0.17998,-0.0493 -0.26515,-0.08394c-0.66473,-0.00674 -1.30994,-0.43325 -1.87467,-0.99101h0c-0.24695,0.19903 -0.49982,0.38083 -0.80339,0.41527c-0.08548,0.0097 -0.17095,0.01574 -0.2564,0.01861l0.00718,0.04667l-1.27425,0.19604c-0.03734,0.00639 -0.07525,0.01111 -0.11365,0.01411c-0.26603,0.14548 -0.57129,0.22818 -0.89587,0.22818c-0.02369,0 -0.04727,-0.00044 -0.07075,-0.00131c-1.06889,0.36465 -2.39553,0.81718 -2.94674,-0.14745c-1.39537,-2.4419 0.85455,-3.00369 1.66418,-4.89084c1.05649,-2.46256 1.58213,-6.30914 1.55259,-9.31308c-0.02182,-0.00807 -0.04913,-0.01885 -0.08048,-0.03259c-0.23904,0 -0.47809,0 -0.71714,0l-0.87321,0.09354c0,0 -1.24037,0.12404 -1.36441,-1.11633z" fill="#5a4124" stroke="none" stroke-width="0.5"/></g></g></svg>