<svg version="1.1" xmlns="http://www.w3.org/2000/svg" xmlns:xlink="http://www.w3.org/1999/xlink" width="45.94595" height="45.41888" viewBox="0,0,45.94595,45.41888"><g transform="translate(-216.09862,-158.76827)"><g data-paper-data="{&quot;isPaintingLayer&quot;:true}" fill-rule="nonzero" stroke="none" stroke-width="0.5" stroke-linecap="butt" stroke-linejoin="miter" stroke-miterlimit="10" stroke-dasharray="" stroke-dashoffset="0" style="mix-blend-mode: normal"><path d="M255.30711,184.59824c0.83228,-0.30368 1.80113,-0.71104 2.30412,-1.50418c0.97162,-1.53207 -0.43944,-4.64968 -2.18011,-5.2836c0.02459,0.16751 0.03981,0.33173 0.04508,0.49114c0,0 0.00961,0.31304 -0.18588,0.54075c0.08272,0.17275 0.08778,0.33767 0.08778,0.33767l0.02235,0.81156c-0.13648,1.00882 -0.02128,1.99675 -0.15786,3.00626c0.01717,0.55937 0.01031,1.1104 -0.0363,1.64414zM258.9108,183.84315c-0.64194,1.11968 -1.9428,1.73956 -3.08593,2.16289l-0.57615,0.25264c0,0 -0.16029,0.06989 -0.35982,0.06478c-0.35674,1.13344 -1.02465,2.11899 -2.2043,2.84256c-1.03948,0.63759 -2.09905,1.12607 -3.19252,0.06568c-1.6099,-1.5612 -2.37065,-6.2866 -2.44286,-8.42043c-0.07262,-2.36616 0.01233,-5.23144 1.90465,-6.98954c2.38065,-2.2118 4.92773,-0.0412 6.00057,2.38959c3.07481,0.25195 5.56026,4.83426 3.95635,7.63182zM254.0647,178.68528c-0.08272,-0.17275 -0.08778,-0.33767 -0.08778,-0.33767c-0.04121,-1.47271 -2.05629,-5.3818 -3.97592,-3.45184c-1.52649,1.5347 -1.51351,3.8806 -1.45248,5.86949c0.05559,2.06094 0.78661,5.76945 2.04606,7.44934c0.43299,0.57753 1.67135,-0.45403 1.97501,-0.67793c1.2523,-0.92338 1.2169,-3.25209 1.17502,-4.61665c0.13648,-1.00882 0.02128,-1.99675 0.15786,-3.00626l-0.02366,-0.68774c0,0 -0.00961,-0.31304 0.18588,-0.54075z" fill="#b55800"/><path d="M255.1887,184.68878c0.04661,-0.53375 0.04245,-1.09057 0.02528,-1.64994c0.13657,-1.0095 0.01612,-2.0752 0.15259,-3.08402l-0.01292,-0.8184c0,0 -0.00358,-0.16571 -0.08631,-0.33847c0.19549,-0.22771 0.19209,-0.54345 0.19209,-0.54345c-0.00527,-0.15941 -0.01886,-0.32417 -0.04345,-0.49169c1.74067,0.63392 3.19198,3.84242 2.22037,5.37449c-0.503,0.79314 -1.51354,1.20443 -2.34582,1.50811z" data-paper-data="{&quot;noHover&quot;:false,&quot;origItem&quot;:[&quot;Path&quot;,{&quot;applyMatrix&quot;:true,&quot;segments&quot;:[[[484.16823,319.28855],[0,0],[-0.55602,-1.6824]],[[481.30265,314.59019],[1.55467,1.05418],[-3.00308,-2.03631]],[[470.60667,318.6242],[1.37404,-3.44081],[0.33638,-0.03887]],[[471.59125,318.56421],[-0.31899,0.00075],[0,0]],[[472.66084,318.96898],[-0.44321,-0.40477],[0.35042,-0.15477]],[473.34125,318.81421],[[474.96497,318.81932],[0,0],[2.00831,0.33472]],[[480.96497,319.31932],[-2.00968,-0.33495],[1.11927,0]],[[484.24948,319.49276],[-1.06413,-0.12592],[0,0]]],&quot;closed&quot;:true}]}" fill="#e56e00"/><path d="M253.91691,179.19365l0.02897,0.6953c-0.13657,1.0095 -0.02285,2.0495 -0.15933,3.05831c0.04188,1.36456 0.04499,3.71509 -1.20731,4.63848c-0.30366,0.22391 -1.5572,1.25609 -1.99019,0.67856c-1.25945,-1.67989 -2.03382,-5.44861 -2.08941,-7.50955c-0.06104,-1.98889 -0.03538,-4.37322 1.49111,-5.90792c1.91963,-1.92996 3.97771,1.99028 4.01892,3.463c0,0 0.00782,0.16749 0.09054,0.34025c-0.19549,0.22771 -0.1833,0.54357 -0.1833,0.54357z" data-paper-data="{&quot;noHover&quot;:false,&quot;origItem&quot;:[&quot;Path&quot;,{&quot;applyMatrix&quot;:true,&quot;segments&quot;:[[[472.27166,321.40944],[0.44321,0.40477],[-0.35042,0.15477]],[[471.59125,321.56421],[0,0],[-2.94657,-0.00798]],[[464.4469,329.30053],[-3.74033,-3.95586],[2.9743,3.14569]],[[476.09125,332.56421],[-3.97966,0],[4.12335,0.01531]],[[491.10845,328.93103],[-3.43547,2.41466],[1.18108,-0.83014]],[[489.87439,324.94127],[0.42897,0.62077],[-1.76907,-2.56008]],[[480.71753,322.3091],[2.7304,0],[-2.00831,-0.33472]],[[474.71753,321.8091],[2.00968,0.33495],[0,0]],[473.34125,321.81421]],&quot;closed&quot;:true}]}" fill="#e56e00"/><path d="M248.3169,188.26307c-0.18192,-0.49465 -0.36385,-0.9893 -0.54578,-1.48396c-0.60646,-1.64894 -1.11685,-3.34771 -1.35465,-5.0162c-4.7329,0.64954 -9.32841,-1.04766 -14.03705,-0.12881c-2.01945,0.06834 -4.03927,0.12652 -6.05893,0.1885l-0.02394,0.00854c2.25439,3.47386 7.73023,5.73186 11.39891,6.66403c3.42743,0.45785 7.38848,1.0411 10.75425,-0.07495zM249.17893,186.26135c0.18192,0.49465 0.36385,0.9893 0.54578,1.48396l0.06746,-0.04525c0,0 0.28601,0.26898 0.24954,0.62464c0.41134,0.60186 -0.18811,1.02862 -0.18811,1.02862l-0.54324,0.3543c-3.72017,1.35681 -8.06306,0.78516 -11.89972,0.26028c-4.67725,-1.17719 -11.43688,-4.19986 -13.2029,-8.96869c0,0 -0.02933,-0.07974 -0.0414,-0.19541c-0.06213,-0.28794 0.08682,-0.55437 0.08682,-0.55437l0.3738,-0.66694c2.29816,-3.68133 5.96799,-5.5754 9.77711,-7.34401c4.95689,-1.58995 12.02989,-3.07552 16.31767,0.92622c0,0 0.54635,0.51381 0.03254,1.06016c-0.26558,0.2824 -0.53985,0.28156 -0.74288,0.21483c-3.41536,3.19804 -2.33894,7.72556 -0.83246,11.82166zM226.27448,180.32332c1.97843,-0.06072 3.95678,-0.12623 5.93542,-0.1796c4.72688,-0.95566 9.33539,0.81146 14.07077,0.12417c-0.08651,-2.45578 0.55455,-4.79008 2.51256,-6.73538c-3.86213,-2.62052 -9.83285,-1.17036 -13.84357,0.10321c-3.49987,1.63267 -6.93859,3.3466 -9.04971,6.74013l-0.02622,0.04704z" fill="#b55800"/><path d="M248.49782,188.43388c-3.36577,1.11605 -7.37002,0.56891 -10.79744,0.11107c-3.66869,-0.93217 -9.19718,-3.25479 -11.45157,-6.72865l0.02396,-0.0086c2.01966,-0.06198 4.0468,-0.1347 6.06626,-0.20304c4.70863,-0.91886 9.39114,0.78968 14.12404,0.14014c0.2378,1.66849 0.75108,3.39253 1.35754,5.04146c0.18192,0.49465 0.3626,0.99533 0.54453,1.48998z" data-paper-data="{&quot;noHover&quot;:false,&quot;origItem&quot;:[&quot;Path&quot;,{&quot;applyMatrix&quot;:true,&quot;segments&quot;:[[[491.06559,333.48723],[0,0],[-1,0.33333]],[[488.06559,334.48723],[1,-0.33333],[-3.33353,1.11118]],[[477.95481,336.88751],[3.35,-0.37302],[1.00811,9.50119]],[[476.83614,364.94049],[-1.54797,-9.46921],[0.01272,4.0412]],[[476.84125,377.06421],[0,-4.04122],[0,0]],[[476.85686,377.1126],[0,0],[7.08275,-4.29353]],[[490.87797,354.73434],[-2.08853,7.27673],[1.12554,-6.82354]],[[491.38792,333.23136],[2.02455,6.79685],[0,0]]],&quot;closed&quot;:true}]}" fill="#d66700"/><path d="M225.82651,180.43933l0.02617,-0.04718c2.11112,-3.39353 5.56488,-5.16197 9.06475,-6.79464c4.01073,-1.27357 10.06214,-2.6978 13.92427,-0.07728c-1.95801,1.9453 -2.60155,4.31152 -2.51504,6.76729c-4.73538,0.68729 -9.43037,-1.07012 -14.15725,-0.11445c-1.97864,0.05337 -3.96368,0.10612 -5.94211,0.16683z" data-paper-data="{&quot;noHover&quot;:false,&quot;origItem&quot;:[&quot;Path&quot;,{&quot;applyMatrix&quot;:true,&quot;segments&quot;:[[[473.84125,377.06421],[0,0],[0,-3.95872]],[[473.84636,365.18793],[-0.0147,3.95869],[-1.62043,-9.50794]],[[474.95783,337.06725],[1.08341,9.50847],[-4.91455,0.02227]],[[461.64756,331.63127],[3.76865,4.03353],[-5.47551,7.55986]],[[461.00458,359.31172],[-2.29989,-8.09581],[3.04908,7.09662]],[[473.9233,377.81613],[-6.65435,-4.42844],[0,0]],[474.01573,377.87144]],&quot;closed&quot;:true}]}" fill="#d66700"/><path d="M250.12403,201.65754c-0.74926,0.0333 -0.78256,-0.71595 -0.78256,-0.71595l-0.03624,-0.84108c0.14082,-2.16349 1.13811,-5.95588 0.58141,-7.97885c-0.09718,-0.35314 -0.73457,-0.04284 -1.09184,-0.12351c-1.3786,-0.31123 -2.81924,-0.48351 -4.13003,-1.01229c0,0 -0.69426,-0.28375 -0.41051,-0.978c0.28375,-0.69426 0.978,-0.41051 0.978,-0.41051c1.32867,0.55157 5.16503,0.41759 5.92662,1.7297c0.19363,0.33359 -0.00539,1.82557 -0.01499,2.35326c-0.03933,2.16191 -0.19281,4.28084 -0.33875,6.43655l0.03485,0.75812c0,0 0.0333,0.74926 -0.71595,0.78256z" fill="#b55800"/><path d="M231.17568,203.74884c-0.31516,-0.68057 0.36541,-0.99572 0.36541,-0.99572l0.34303,-0.1476c0.48593,-0.13371 0.97186,-0.26742 1.4578,-0.4011c0.33124,-0.09951 3.48012,-0.82916 3.50701,-0.92673c0.31239,-1.1331 -0.16933,-3.53941 -0.1641,-4.83936c0.0082,-2.03847 0.78804,-4.23058 0.52924,-6.21627c0,0 -0.08377,-0.7453 0.66154,-0.82908c0.7453,-0.08377 0.82908,0.66154 0.82908,0.66154c0.2905,2.91599 -0.51408,6.23285 -0.60378,9.19751c-0.01992,0.65854 0.38434,2.20386 0.05525,2.76133c-0.5774,0.97811 -3.38852,1.32901 -4.39947,1.63259c-0.49153,0.13529 -0.98305,0.27057 -1.47459,0.40582l-0.11068,0.06251c0,0 -0.68057,0.31516 -0.99572,-0.36541z" fill="#b55800"/><path d="M224.95785,167.31545c-0.38008,-0.64656 0.26648,-1.02664 0.26648,-1.02664l0.34077,-0.20032c1.2465,-0.73133 3.62831,-3.33794 5.1679,-2.61673c0.76329,0.35755 1.38241,2.26663 1.86269,2.96029c1.15847,1.67313 2.10087,3.41428 3.86948,4.55091c0,0 0.62911,0.40832 0.22079,1.03742c-0.40832,0.62911 -1.03742,0.22079 -1.03742,0.22079c-2.89058,-1.89183 -3.67087,-4.90048 -5.63127,-7.45116c-0.35703,-0.46453 -0.92393,0.72142 -1.40255,1.05933c-0.75458,0.53274 -1.49331,1.06342 -2.28946,1.53229l-0.34077,0.20032c0,0 -0.64656,0.38008 -1.02664,-0.26648z" fill="#b55800"/><path d="M242.09863,159.05909c0.47248,-0.58246 1.05494,-0.10999 1.05494,-0.10999l0.29779,0.24518c0.47027,0.3214 0.91228,0.69022 1.30672,1.10114c1.97003,1.31955 3.67093,2.98165 5.61945,4.33859c0.64982,0.45253 1.44262,0.82376 1.32385,1.87549c-0.22496,1.99201 -3.77086,3.58904 -4.6472,5.3081c0,0 -0.34907,0.66381 -1.01288,0.31475c-0.66381,-0.34907 -0.31475,-1.01288 -0.31475,-1.01288c0.98452,-1.82915 3.07889,-3.40448 4.49637,-4.86332c0.18211,-0.18742 -0.46696,-0.23702 -0.68589,-0.37971c-0.02486,-0.01621 -1.3454,-0.91053 -1.35242,-0.91576c-1.50938,-1.12527 -2.83357,-2.45384 -4.39324,-3.51828c-0.35796,-0.37293 -0.75067,-0.71852 -1.18051,-1.00569l-0.40225,-0.32267c0,0 -0.58246,-0.47248 -0.10999,-1.05494z" fill="#b55800"/><path d="M216.31435,174.39477c-0.50885,-0.55098 0.04212,-1.05982 0.04212,-1.05982l0.59353,-0.5481c1.15549,-1.02362 4.45032,-4.48631 6.1334,-4.01546c0.64674,0.18093 1.55924,1.61432 2.02686,2.08962c1.39262,1.41547 2.55839,2.94217 3.90472,4.39993c0,0 0.50885,0.55098 -0.04212,1.05982c-0.55098,0.50885 -1.05982,-0.04212 -1.05982,-0.04212c-1.6627,-1.80032 -3.28652,-4.75176 -5.31126,-6.08668c-0.46653,-0.30759 -0.80998,0.77429 -1.25909,1.10679c-1.1486,0.85034 -2.31063,1.64458 -3.38605,2.60016l-0.58245,0.53798c0,0 -0.55098,0.50885 -1.05982,-0.04212z" fill="#b55800"/><path d="M216.64369,182.51121c0.54953,-0.5104 1.05994,0.03913 1.05994,0.03913l0.11252,0.13221c2.05928,1.66663 3.7139,3.73884 5.71303,5.48886c0.00615,0.00539 1.48178,1.29724 1.54437,1.28262c0.61035,-0.14253 2.53343,-2.51093 2.88694,-3.1415c0,0 0.37513,-0.64944 1.02458,-0.27431c0.64944,0.37513 0.27431,1.02458 0.27431,1.02458c-0.56162,0.95118 -2.83827,3.72318 -4.01766,3.88179c-0.78718,0.10586 -2.18696,-1.19778 -2.69871,-1.64291c-1.99172,-1.7324 -3.62709,-3.79933 -5.67052,-5.45314l-0.26792,-0.27738c0,0 -0.5104,-0.54953 0.03913,-1.05994z" fill="#b55800"/><path d="M260.02289,194.52658c-0.68327,-0.30926 -0.37402,-0.99253 -0.37402,-0.99253l0.15791,-0.29459c0.6775,-3.72235 0.34479,-6.17174 -3.82239,-6.92134c0,0 -0.73788,-0.1343 -0.60357,-0.87218c0.1343,-0.73788 0.87218,-0.60357 0.87218,-0.60357c4.97862,0.91552 5.85213,4.14619 5.02954,8.6657l-0.26712,0.64448c0,0 -0.30926,0.68327 -0.99253,0.37402z" fill="#b55800"/><path d="M255.88118,189.33606c-0.66022,0.35583 -1.01605,-0.30439 -1.01605,-0.30439l-0.0434,-0.11561c-0.34596,-0.40625 -0.69192,-0.81249 -1.03787,-1.21874c0,0 -0.48627,-0.571 0.08474,-1.05727c0.571,-0.48627 1.05727,0.08474 1.05727,0.08474c0.34596,0.40625 0.69192,0.81249 1.03787,1.21874l0.22182,0.37648c0,0 0.35583,0.66022 -0.30439,1.01605z" fill="#b55800"/><path d="M256.12493,173.37818c0.54635,0.51381 0.03254,1.06016 0.03254,1.06016l-0.18881,0.19407c-0.29684,0.3906 -0.54798,0.81909 -0.75136,1.26553c0,0 -0.31467,0.68079 -0.99547,0.36612c-0.68079,-0.31467 -0.36612,-0.99547 -0.36612,-0.99547c0.2525,-0.53981 0.55789,-1.05861 0.91346,-1.53685l0.29561,-0.32103c0,0 0.51381,-0.54635 1.06016,-0.03254z" fill="#b55800"/><path d="M260.61369,168.52162c0.72069,-0.20763 0.92831,0.51306 0.92831,0.51306l0.20763,0.72069c1.23031,4.32153 -1.52787,7.77957 -5.68344,8.26107c0,0 -0.74502,0.08632 -0.83134,-0.65869c-0.08632,-0.74502 0.65869,-0.83134 0.65869,-0.83134c3.23244,-0.37454 5.43022,-2.87953 4.41471,-6.35578l-0.20763,-0.72069c0,0 -0.20763,-0.72069 0.51306,-0.92831z" fill="#b55800"/></g></g></svg>