<svg version="1.1" xmlns="http://www.w3.org/2000/svg" xmlns:xlink="http://www.w3.org/1999/xlink" width="103" height="52.75" viewBox="0,0,103,52.75"><g transform="translate(-188.5,-153.625)"><g data-paper-data="{&quot;isPaintingLayer&quot;:true}" fill-rule="nonzero" stroke-linecap="butt" stroke-linejoin="miter" stroke-miterlimit="10" stroke-dasharray="" stroke-dashoffset="0" style="mix-blend-mode: normal"><path d="M189.75,205.125v-50.25h50.25v50.25z" fill="#3bc300" stroke="#33a900" stroke-width="2.5"/><path d="M240,205.125v-50.25h50.25v50.25z" fill="#7f7f7f" stroke="#5e5e5e" stroke-width="2.5"/><path d="M200.85473,162.26954c-0.08601,0.01695 -0.14597,0.01695 -0.14597,0.01695c-0.09763,-0.00269 -0.19282,-0.00287 -0.28564,-0.00063c-0.27635,0.01699 -0.55243,0.04727 -0.82824,0.09508c-2.90731,0.63466 -2.8921,4.26002 -3.80448,6.82542c-0.79963,2.24837 -2.03504,3.84395 -0.58108,6.04001c4.18059,4.16283 15.23588,6.00559 18.30591,-0.23505c1.71329,-7.01057 -2.01839,-10.86561 -8.39481,-12.50529c-1.42687,0.00991 -2.8496,-0.25854 -4.26569,-0.2365zM200.76458,160.78999c1.50695,-0.02547 3.01006,0.21863 4.53911,0.22729c7.32692,1.7889 11.63358,6.60282 9.61836,14.51447c-3.68723,7.29574 -15.77805,5.77694 -20.87275,0.66561c-1.85045,-2.76152 -0.6995,-4.64387 0.31958,-7.46987c0.95214,-2.64036 1.23055,-5.51224 3.13149,-6.9721c0.1089,-0.35158 0.4944,-0.48008 0.4944,-0.48008l0.73076,-0.24126c0.45219,-0.1104 0.90284,-0.17664 1.35275,-0.21209c0.20088,-0.01941 0.41086,-0.03136 0.63047,-0.03547c0,0 0.02094,0 0.05582,0.0035z" fill="#1f6600" stroke="none" stroke-width="0.5"/><path d="M233.66281,182.17165c0.53033,0.53033 0,1.06066 0,1.06066l-0.45033,0.45033c-2.59262,2.5743 -5.34149,4.80327 -7.58593,7.80043c-0.58613,0.78271 -1.84648,3.66851 -2.65948,4.00097c-2.41838,0.98892 -2.00694,0.25048 -2.28753,-1.3903c0.9065,-3.71281 2.92152,-7.09449 2.92152,-10.94143c0,-1.66341 0.17226,-3.44728 0.00365,-5.10489c-0.0207,-0.20354 -0.07875,-0.51031 -0.10281,-0.78894c-0.41494,0.32946 -0.97879,0.65847 -0.98646,0.66358c-3.40373,2.26736 -5.67787,5.72877 -8.98408,8.09032c-1.62575,1.16123 -3.52813,1.82731 -5.2013,2.94275c0,0 -0.62404,0.41603 -1.04006,-0.20801c-0.41603,-0.62404 0.20801,-1.04006 0.20801,-1.04006c1.65802,-1.10535 3.55095,-1.76486 5.15628,-2.91154c3.3177,-2.36982 5.6061,-5.83783 9.0291,-8.12154c0.51427,-0.34285 2.19739,-1.71428 2.7964,-1.38821c1.02234,0.55652 0.62127,4.58894 0.62127,5.61488c0,4.97634 -1.72101,8.66412 -2.93273,13.37625c0.0108,-0.02366 2.14491,-3.67718 2.96713,-4.63589c2.21955,-2.58799 4.65782,-4.64088 7.01637,-7.01903l0.45033,-0.45033c0,0 0.53033,-0.53033 1.06066,0z" fill="#1f6600" stroke="none" stroke-width="0.5"/><text transform="translate(248.1055,183.514) scale(0.30457,0.30457)" font-size="40" xml:space="preserve" fill="#ffffff" fill-rule="nonzero" stroke="none" stroke-width="1" stroke-linecap="butt" stroke-linejoin="miter" stroke-miterlimit="10" stroke-dasharray="" stroke-dashoffset="0" font-family="Sans Serif" font-weight="normal" text-anchor="start" style="mix-blend-mode: normal"><tspan x="0" dy="0">Music</tspan></text></g></g></svg>