<svg version="1.1" xmlns="http://www.w3.org/2000/svg" xmlns:xlink="http://www.w3.org/1999/xlink" width="52.75" height="52.75" viewBox="0,0,52.75,52.75"><g transform="translate(-213.625,-153.625)"><g data-paper-data="{&quot;isPaintingLayer&quot;:true}" fill-rule="nonzero" stroke-linejoin="miter" stroke-miterlimit="10" stroke-dasharray="" stroke-dashoffset="0" style="mix-blend-mode: normal"><path d="M214.875,205.125v-50.25h50.25v50.25z" fill="#7f7f7f" stroke="#5e5e5e" stroke-width="2.5" stroke-linecap="butt"/><path d="M254.6875,198.48725v-8.5h3.75v8.5z" fill="#7a623e" stroke="#574c2d" stroke-width="1.5" stroke-linecap="butt"/><path d="M221.5625,198.48725v-8.5h3.75v8.5z" fill="#7a623e" stroke="#574c2d" stroke-width="1.5" stroke-linecap="butt"/><path d="M221.5625,194.23725v-20.39105h36.875v20.39105z" fill="#99774e" stroke="none" stroke-width="0" stroke-linecap="butt"/><path d="M221.5625,172.73509v-11.22223h36.875v11.22223z" fill="#8c8c8c" stroke="#707070" stroke-width="1.5" stroke-linecap="butt"/><path d="M243.24306,164.62088c0,-0.41422 0.33578,-0.75 0.75,-0.75c0.41422,0 0.75,0.33578 0.75,0.75c0,0.41422 -0.33578,0.75 -0.75,0.75c-0.41422,0 -0.75,-0.33578 -0.75,-0.75z" fill="#707070" stroke="none" stroke-width="0.5" stroke-linecap="butt"/><path d="M240.36806,164.49588c0,-0.41422 0.33578,-0.75 0.75,-0.75c0.41422,0 0.75,0.33578 0.75,0.75c0,0.41422 -0.33578,0.75 -0.75,0.75c-0.41422,0 -0.75,-0.33578 -0.75,-0.75z" fill="#707070" stroke="none" stroke-width="0.5" stroke-linecap="butt"/><path d="M237.61806,164.37088c0,-0.41422 0.33578,-0.75 0.75,-0.75c0.41422,0 0.75,0.33578 0.75,0.75c0,0.41422 -0.33578,0.75 -0.75,0.75c-0.41422,0 -0.75,-0.33578 -0.75,-0.75z" fill="#707070" stroke="none" stroke-width="0.5" stroke-linecap="butt"/><path d="M234.6875,164.74588c0,-0.41422 0.33578,-0.75 0.75,-0.75c0.41422,0 0.75,0.33578 0.75,0.75c0,0.41422 -0.33578,0.75 -0.75,0.75c-0.41422,0 -0.75,-0.33578 -0.75,-0.75z" fill="#707070" stroke="none" stroke-width="0.5" stroke-linecap="butt"/><path d="M231.8125,164.62088c0,-0.41422 0.33578,-0.75 0.75,-0.75c0.41422,0 0.75,0.33578 0.75,0.75c0,0.41422 -0.33578,0.75 -0.75,0.75c-0.41422,0 -0.75,-0.33578 -0.75,-0.75z" fill="#707070" stroke="none" stroke-width="0.5" stroke-linecap="butt"/><path d="M229.0625,164.49588c0,-0.41422 0.33578,-0.75 0.75,-0.75c0.41422,0 0.75,0.33578 0.75,0.75c0,0.41422 -0.33578,0.75 -0.75,0.75c-0.41422,0 -0.75,-0.33578 -0.75,-0.75z" fill="#707070" stroke="none" stroke-width="0.5" stroke-linecap="butt"/><path d="M229.0625,164.49588c0,-0.41422 0.33578,-0.75 0.75,-0.75c0.41422,0 0.75,0.33578 0.75,0.75c0,0.41422 -0.33578,0.75 -0.75,0.75c-0.41422,0 -0.75,-0.33578 -0.75,-0.75z" fill="#707070" stroke="none" stroke-width="0.5" stroke-linecap="butt"/><path d="M226.1875,164.37088c0,-0.41422 0.33578,-0.75 0.75,-0.75c0.41422,0 0.75,0.33578 0.75,0.75c0,0.41422 -0.33578,0.75 -0.75,0.75c-0.41422,0 -0.75,-0.33578 -0.75,-0.75z" fill="#707070" stroke="none" stroke-width="0.5" stroke-linecap="butt"/><path d="M223.4375,164.24588c0,-0.41422 0.33578,-0.75 0.75,-0.75c0.41422,0 0.75,0.33578 0.75,0.75c0,0.41422 -0.33578,0.75 -0.75,0.75c-0.41422,0 -0.75,-0.33578 -0.75,-0.75z" fill="#707070" stroke="none" stroke-width="0.5" stroke-linecap="butt"/><path d="M243.28472,167.28752c0,-0.41422 0.33578,-0.75 0.75,-0.75c0.41422,0 0.75,0.33578 0.75,0.75c0,0.41422 -0.33578,0.75 -0.75,0.75c-0.41422,0 -0.75,-0.33578 -0.75,-0.75z" fill="#707070" stroke="none" stroke-width="0.5" stroke-linecap="butt"/><path d="M240.40972,167.16252c0,-0.41422 0.33578,-0.75 0.75,-0.75c0.41422,0 0.75,0.33578 0.75,0.75c0,0.41422 -0.33578,0.75 -0.75,0.75c-0.41422,0 -0.75,-0.33578 -0.75,-0.75z" fill="#707070" stroke="none" stroke-width="0.5" stroke-linecap="butt"/><path d="M237.65972,167.03752c0,-0.41422 0.33578,-0.75 0.75,-0.75c0.41422,0 0.75,0.33578 0.75,0.75c0,0.41422 -0.33578,0.75 -0.75,0.75c-0.41422,0 -0.75,-0.33578 -0.75,-0.75z" fill="#707070" stroke="none" stroke-width="0.5" stroke-linecap="butt"/><path d="M234.72917,167.41252c0,-0.41422 0.33578,-0.75 0.75,-0.75c0.41422,0 0.75,0.33578 0.75,0.75c0,0.41422 -0.33578,0.75 -0.75,0.75c-0.41422,0 -0.75,-0.33578 -0.75,-0.75z" fill="#707070" stroke="none" stroke-width="0.5" stroke-linecap="butt"/><path d="M231.85417,167.28752c0,-0.41422 0.33578,-0.75 0.75,-0.75c0.41422,0 0.75,0.33578 0.75,0.75c0,0.41422 -0.33578,0.75 -0.75,0.75c-0.41422,0 -0.75,-0.33578 -0.75,-0.75z" fill="#707070" stroke="none" stroke-width="0.5" stroke-linecap="butt"/><path d="M229.10417,167.16252c0,-0.41422 0.33578,-0.75 0.75,-0.75c0.41422,0 0.75,0.33578 0.75,0.75c0,0.41422 -0.33578,0.75 -0.75,0.75c-0.41422,0 -0.75,-0.33578 -0.75,-0.75z" fill="#707070" stroke="none" stroke-width="0.5" stroke-linecap="butt"/><path d="M229.10417,167.16252c0,-0.41422 0.33578,-0.75 0.75,-0.75c0.41422,0 0.75,0.33578 0.75,0.75c0,0.41422 -0.33578,0.75 -0.75,0.75c-0.41422,0 -0.75,-0.33578 -0.75,-0.75z" fill="#707070" stroke="none" stroke-width="0.5" stroke-linecap="butt"/><path d="M226.22917,167.03752c0,-0.41422 0.33578,-0.75 0.75,-0.75c0.41422,0 0.75,0.33578 0.75,0.75c0,0.41422 -0.33578,0.75 -0.75,0.75c-0.41422,0 -0.75,-0.33578 -0.75,-0.75z" fill="#707070" stroke="none" stroke-width="0.5" stroke-linecap="butt"/><path d="M223.47917,166.91252c0,-0.41422 0.33578,-0.75 0.75,-0.75c0.41422,0 0.75,0.33578 0.75,0.75c0,0.41422 -0.33578,0.75 -0.75,0.75c-0.41422,0 -0.75,-0.33578 -0.75,-0.75z" fill="#707070" stroke="none" stroke-width="0.5" stroke-linecap="butt"/><path d="M244.14583,168.84311c0.41422,0 0.75,0.33578 0.75,0.75c0,0.41422 -0.33578,0.75 -0.75,0.75c-0.41422,0 -0.75,-0.33578 -0.75,-0.75c0,-0.41422 0.33578,-0.75 0.75,-0.75z" data-paper-data="{&quot;index&quot;:null}" fill="#707070" stroke="none" stroke-width="0.5" stroke-linecap="butt"/><path d="M241.27083,168.96811c0.41422,0 0.75,0.33578 0.75,0.75c0,0.41422 -0.33578,0.75 -0.75,0.75c-0.41422,0 -0.75,-0.33578 -0.75,-0.75c0,-0.41422 0.33578,-0.75 0.75,-0.75z" data-paper-data="{&quot;index&quot;:null}" fill="#707070" stroke="none" stroke-width="0.5" stroke-linecap="butt"/><path d="M238.52083,169.09311c0.41422,0 0.75,0.33578 0.75,0.75c0,0.41422 -0.33578,0.75 -0.75,0.75c-0.41422,0 -0.75,-0.33578 -0.75,-0.75c0,-0.41422 0.33578,-0.75 0.75,-0.75z" data-paper-data="{&quot;index&quot;:null}" fill="#707070" stroke="none" stroke-width="0.5" stroke-linecap="butt"/><path d="M235.59028,168.71811c0.41422,0 0.75,0.33578 0.75,0.75c0,0.41422 -0.33578,0.75 -0.75,0.75c-0.41422,0 -0.75,-0.33578 -0.75,-0.75c0,-0.41422 0.33578,-0.75 0.75,-0.75z" data-paper-data="{&quot;index&quot;:null}" fill="#707070" stroke="none" stroke-width="0.5" stroke-linecap="butt"/><path d="M232.71528,168.84311c0.41422,0 0.75,0.33578 0.75,0.75c0,0.41422 -0.33578,0.75 -0.75,0.75c-0.41422,0 -0.75,-0.33578 -0.75,-0.75c0,-0.41422 0.33578,-0.75 0.75,-0.75z" data-paper-data="{&quot;index&quot;:null}" fill="#707070" stroke="none" stroke-width="0.5" stroke-linecap="butt"/><path d="M229.96528,168.96811c0.41422,0 0.75,0.33578 0.75,0.75c0,0.41422 -0.33578,0.75 -0.75,0.75c-0.41422,0 -0.75,-0.33578 -0.75,-0.75c0,-0.41422 0.33578,-0.75 0.75,-0.75z" data-paper-data="{&quot;index&quot;:null}" fill="#707070" stroke="none" stroke-width="0.5" stroke-linecap="butt"/><path d="M229.96528,168.96811c0.41422,0 0.75,0.33578 0.75,0.75c0,0.41422 -0.33578,0.75 -0.75,0.75c-0.41422,0 -0.75,-0.33578 -0.75,-0.75c0,-0.41422 0.33578,-0.75 0.75,-0.75z" data-paper-data="{&quot;index&quot;:null}" fill="#707070" stroke="none" stroke-width="0.5" stroke-linecap="butt"/><path d="M227.09028,169.09311c0.41422,0 0.75,0.33578 0.75,0.75c0,0.41422 -0.33578,0.75 -0.75,0.75c-0.41422,0 -0.75,-0.33578 -0.75,-0.75c0,-0.41422 0.33578,-0.75 0.75,-0.75z" data-paper-data="{&quot;index&quot;:null}" fill="#707070" stroke="none" stroke-width="0.5" stroke-linecap="butt"/><path d="M224.34028,169.21811c0.41422,0 0.75,0.33578 0.75,0.75c0,0.41422 -0.33578,0.75 -0.75,0.75c-0.41422,0 -0.75,-0.33578 -0.75,-0.75c0,-0.41422 0.33578,-0.75 0.75,-0.75z" data-paper-data="{&quot;index&quot;:null}" fill="#707070" stroke="none" stroke-width="0.5" stroke-linecap="butt"/><path d="M254.68751,164.64864c0,-0.41422 0.33578,-0.75 0.75,-0.75c0.41422,0 0.75,0.33578 0.75,0.75c0,0.41422 -0.33578,0.75 -0.75,0.75c-0.41422,0 -0.75,-0.33578 -0.75,-0.75z" fill="#707070" stroke="none" stroke-width="0.5" stroke-linecap="butt"/><path d="M251.81251,164.52364c0,-0.41422 0.33578,-0.75 0.75,-0.75c0.41422,0 0.75,0.33578 0.75,0.75c0,0.41422 -0.33578,0.75 -0.75,0.75c-0.41422,0 -0.75,-0.33578 -0.75,-0.75z" fill="#707070" stroke="none" stroke-width="0.5" stroke-linecap="butt"/><path d="M249.06251,164.39864c0,-0.41422 0.33578,-0.75 0.75,-0.75c0.41422,0 0.75,0.33578 0.75,0.75c0,0.41422 -0.33578,0.75 -0.75,0.75c-0.41422,0 -0.75,-0.33578 -0.75,-0.75z" fill="#707070" stroke="none" stroke-width="0.5" stroke-linecap="butt"/><path d="M246.13195,164.77364c0,-0.41422 0.33578,-0.75 0.75,-0.75c0.41422,0 0.75,0.33578 0.75,0.75c0,0.41422 -0.33578,0.75 -0.75,0.75c-0.41422,0 -0.75,-0.33578 -0.75,-0.75z" fill="#707070" stroke="none" stroke-width="0.5" stroke-linecap="butt"/><path d="M254.72917,167.31536c0,-0.41422 0.33578,-0.75 0.75,-0.75c0.41422,0 0.75,0.33578 0.75,0.75c0,0.41422 -0.33578,0.75 -0.75,0.75c-0.41422,0 -0.75,-0.33578 -0.75,-0.75z" fill="#707070" stroke="none" stroke-width="0.5" stroke-linecap="butt"/><path d="M251.85417,167.19036c0,-0.41422 0.33578,-0.75 0.75,-0.75c0.41422,0 0.75,0.33578 0.75,0.75c0,0.41422 -0.33578,0.75 -0.75,0.75c-0.41422,0 -0.75,-0.33578 -0.75,-0.75z" fill="#707070" stroke="none" stroke-width="0.5" stroke-linecap="butt"/><path d="M249.10417,167.06536c0,-0.41422 0.33578,-0.75 0.75,-0.75c0.41422,0 0.75,0.33578 0.75,0.75c0,0.41422 -0.33578,0.75 -0.75,0.75c-0.41422,0 -0.75,-0.33578 -0.75,-0.75z" fill="#707070" stroke="none" stroke-width="0.5" stroke-linecap="butt"/><path d="M246.17362,167.44036c0,-0.41422 0.33578,-0.75 0.75,-0.75c0.41422,0 0.75,0.33578 0.75,0.75c0,0.41422 -0.33578,0.75 -0.75,0.75c-0.41422,0 -0.75,-0.33578 -0.75,-0.75z" fill="#707070" stroke="none" stroke-width="0.5" stroke-linecap="butt"/><path d="M255.59028,168.87088c0.41422,0 0.75,0.33578 0.75,0.75c0,0.41422 -0.33578,0.75 -0.75,0.75c-0.41422,0 -0.75,-0.33578 -0.75,-0.75c0,-0.41422 0.33578,-0.75 0.75,-0.75z" data-paper-data="{&quot;index&quot;:null}" fill="#707070" stroke="none" stroke-width="0.5" stroke-linecap="butt"/><path d="M252.71528,168.99588c0.41422,0 0.75,0.33578 0.75,0.75c0,0.41422 -0.33578,0.75 -0.75,0.75c-0.41422,0 -0.75,-0.33578 -0.75,-0.75c0,-0.41422 0.33578,-0.75 0.75,-0.75z" data-paper-data="{&quot;index&quot;:null}" fill="#707070" stroke="none" stroke-width="0.5" stroke-linecap="butt"/><path d="M249.96528,169.12088c0.41422,0 0.75,0.33578 0.75,0.75c0,0.41422 -0.33578,0.75 -0.75,0.75c-0.41422,0 -0.75,-0.33578 -0.75,-0.75c0,-0.41422 0.33578,-0.75 0.75,-0.75z" data-paper-data="{&quot;index&quot;:null}" fill="#707070" stroke="none" stroke-width="0.5" stroke-linecap="butt"/><path d="M247.03473,168.74588c0.41422,0 0.75,0.33578 0.75,0.75c0,0.41422 -0.33578,0.75 -0.75,0.75c-0.41422,0 -0.75,-0.33578 -0.75,-0.75c0,-0.41422 0.33578,-0.75 0.75,-0.75z" data-paper-data="{&quot;index&quot;:null}" fill="#707070" stroke="none" stroke-width="0.5" stroke-linecap="butt"/><path d="M222.16667,174.32923l35,2" fill="none" stroke="#a68155" stroke-width="1.5" stroke-linecap="round"/><path d="M222.16667,179.99589l29.66666,-5.66666" fill="none" stroke="#a68155" stroke-width="1.5" stroke-linecap="round"/><path d="M257.72222,185.55143l-34.77777,-2.55555" fill="none" stroke="#a68155" stroke-width="1.5" stroke-linecap="round"/><path d="M222.72222,192.77365l34.88889,-11.55555" fill="none" stroke="#a68155" stroke-width="1.5" stroke-linecap="round"/><path d="M221.72222,188.10699l36.11111,4.22223" fill="none" stroke="#a68155" stroke-width="1.5" stroke-linecap="round"/><path d="M257.83334,189.32925l-35.66667,-3.88889" fill="none" stroke="#a68155" stroke-width="1.5" stroke-linecap="round"/><path d="M241.83334,180.88477l-19.33334,0.33334" fill="none" stroke="#a68155" stroke-width="1.5" stroke-linecap="round"/><path d="M257.5,179.21811l-9.22222,-0.11112" fill="none" stroke="#a68155" stroke-width="1.5" stroke-linecap="round"/><path d="M243.72222,193.55147l-7.22222,-1.33333" fill="none" stroke="#a68155" stroke-width="1.5" stroke-linecap="round"/><path d="M222.27778,176.32923l35,5.66666" fill="none" stroke="#8c6f48" stroke-width="1.5" stroke-linecap="round"/><path d="M221.61111,183.55147l36,-5.77777" fill="none" stroke="#8c6f48" stroke-width="1.5" stroke-linecap="round"/><path d="M255.83334,174.32923l-27.44444,8.11111" fill="none" stroke="#8c6f48" stroke-width="1.5" stroke-linecap="round"/><path d="M258.05556,186.77367l-36,-7.44445" fill="none" stroke="#8c6f48" stroke-width="1.5" stroke-linecap="round"/><path d="M257.94444,184.66258l-35.66666,4.22222" fill="none" stroke="#8c6f48" stroke-width="1.5" stroke-linecap="round"/><path d="M221.72222,186.55147l9.33334,-1.44445" fill="none" stroke="#8c6f48" stroke-width="1.5" stroke-linecap="round"/><path d="M231.94445,193.21811l-9.44445,-2" fill="none" stroke="#8c6f48" stroke-width="1.5" stroke-linecap="round"/><path d="M257.5,190.66259l-17.88889,2.88888" fill="none" stroke="#8c6f48" stroke-width="1.5" stroke-linecap="round"/><path d="M258.05556,188.55147l-22.88889,2.11112" fill="none" stroke="#8c6f48" stroke-width="1.5" stroke-linecap="round"/><path d="M229.72222,190.32922l-8.11111,-0.11111" fill="none" stroke="#8c6f48" stroke-width="1.5" stroke-linecap="round"/><path d="M221.5625,194.23725v-20.39105h36.875v20.39105z" fill="none" stroke="#705d39" stroke-width="1.5" stroke-linecap="butt"/><path d="M228.96653,163.67147c0.89033,-0.20949 1.59104,0.08692 1.18034,1.7241c-0.10889,0.43406 -0.72553,0.52566 -1.1075,0.75881c-0.67379,0.41128 -3.05355,2.34534 -3.71041,2.32918c-0.45358,-0.01116 -0.84191,-0.39161 -1.15533,-0.71967c-2.02979,-2.12465 2.48686,-3.46774 3.94492,-4.20115c0,0 0.49575,-0.24787 0.84798,0.10873z" fill="#c6c6c6" stroke="none" stroke-width="0.5" stroke-linecap="butt"/><path d="M254.32895,168.48356c-0.75,0 -0.75,-0.75 -0.75,-0.75c0,-1 0,-2.625 0,-3.625c0,0 0,-0.75 0.75,-0.75c0.75,0 0.75,0.75 0.75,0.75c0,1 0,2 0,3v0.625c0,0 0,0.75 -0.75,0.75z" fill="#c6c6c6" stroke="none" stroke-width="0.5" stroke-linecap="butt"/><path d="M252.20395,166.73356c-0.75,0 -0.75,-0.75 -0.75,-0.75c0,-0.5 0,-1.375 0,-1.875c0,0 0,-0.75 0.75,-0.75c0.75,0 0.75,0.75 0.75,0.75c0,0.5 0,1 0,1.5v0.375c0,0 0,0.75 -0.75,0.75z" fill="#c6c6c6" stroke="none" stroke-width="0.5" stroke-linecap="butt"/><path d="M235.07895,166.48356c0.75,0 0.75,0.75 0.75,0.75l-0.03849,0.86217c-0.35032,1.04318 -0.63841,1.63898 -1.49299,2.34848c0,0 -0.58565,0.46852 -1.05417,-0.11713c-0.46852,-0.58565 0.11713,-1.05417 0.11713,-1.05417c0.65297,-0.49376 0.7515,-0.8784 1.00701,-1.65152l-0.03849,-0.38783c0,0 0,-0.75 0.75,-0.75z" fill="#c6c6c6" stroke="none" stroke-width="0.5" stroke-linecap="butt"/><path d="M237.43962,167.30737c-0.41054,-0.60856 -0.51008,-1.33352 -0.03664,-2.1487c0.52083,-0.89679 1.82663,-1.43822 2.69351,-0.43696c0.36127,0.41727 -0.16101,1.1134 -0.05429,1.65492c0.64074,1.50636 3.17053,0.09696 3.98403,1.24715c0.90953,1.28597 -0.64837,2.75398 -1.70213,2.9751c-2.93418,0.61571 -4.4777,-0.98685 -4.88447,-3.2915z" fill="#e4a700" stroke="none" stroke-width="0.5" stroke-linecap="butt"/><path d="M245.95395,164.35856c0,-0.75 0.75,-0.75 0.75,-0.75c0.25,0 1.125,0 1.375,0c0,0 0.27384,0 0.49059,0.16547c0.28101,0.07386 0.59813,0.26054 0.951,0.59313c0.95257,0.89781 0.37328,5.65697 -0.68705,6.26328c-3.17039,1.81285 -2.62954,-4.15343 -2.62954,-5.64688c0,0 0,-0.01696 0.00255,-0.04578c-0.13886,-0.10889 -0.25255,-0.28721 -0.25255,-0.57922z" fill="#e4a700" stroke="none" stroke-width="0.5" stroke-linecap="butt"/><path d="M243.08334,181.79953v-6.0321h13.05555v6.0321z" fill="#ef8f3c" stroke="#e06c00" stroke-width="0.5" stroke-linecap="butt"/><path d="M252.31479,178.3085c0,-0.18161 0.14721,-0.32882 0.32882,-0.32882c0.18161,0 0.32882,0.14721 0.32882,0.32882c0,0.18161 -0.14721,0.32882 -0.32882,0.32882c-0.18161,0 -0.32882,-0.14721 -0.32882,-0.32882z" fill="#e06c00" stroke="none" stroke-width="0.5" stroke-linecap="butt"/><path d="M251.05429,178.2537c0,-0.18161 0.14721,-0.32882 0.32882,-0.32882c0.18161,0 0.32882,0.14721 0.32882,0.32882c0,0.18161 -0.14721,0.32882 -0.32882,0.32882c-0.18161,0 -0.32882,-0.14721 -0.32882,-0.32882z" fill="#e06c00" stroke="none" stroke-width="0.5" stroke-linecap="butt"/><path d="M249.8486,178.1989c0,-0.18161 0.14721,-0.32882 0.32882,-0.32882c0.18161,0 0.32882,0.14721 0.32882,0.32882c0,0.18161 -0.14721,0.32883 -0.32882,0.32883c-0.18161,0 -0.32882,-0.14722 -0.32882,-0.32883z" fill="#e06c00" stroke="none" stroke-width="0.5" stroke-linecap="butt"/><path d="M248.56375,178.36331c0,-0.18161 0.14721,-0.32882 0.32882,-0.32882c0.18161,0 0.32882,0.14721 0.32882,0.32882c0,0.18161 -0.14721,0.32882 -0.32882,0.32882c-0.18161,0 -0.32882,-0.14721 -0.32882,-0.32882z" fill="#e06c00" stroke="none" stroke-width="0.5" stroke-linecap="butt"/><path d="M247.30326,178.3085c0,-0.18161 0.14721,-0.32882 0.32882,-0.32882c0.18161,0 0.32882,0.14721 0.32882,0.32882c0,0.18161 -0.14721,0.32882 -0.32882,0.32882c-0.18161,0 -0.32882,-0.14721 -0.32882,-0.32882z" fill="#e06c00" stroke="none" stroke-width="0.5" stroke-linecap="butt"/><path d="M246.09757,178.2537c0,-0.18161 0.14721,-0.32882 0.32882,-0.32882c0.18161,0 0.32882,0.14721 0.32882,0.32882c0,0.18161 -0.14721,0.32882 -0.32882,0.32882c-0.18161,0 -0.32882,-0.14721 -0.32882,-0.32882z" fill="#e06c00" stroke="none" stroke-width="0.5" stroke-linecap="butt"/><path d="M246.09757,178.2537c0,-0.18161 0.14721,-0.32882 0.32882,-0.32882c0.18161,0 0.32882,0.14721 0.32882,0.32882c0,0.18161 -0.14721,0.32882 -0.32882,0.32882c-0.18161,0 -0.32882,-0.14721 -0.32882,-0.32882z" fill="#e06c00" stroke="none" stroke-width="0.5" stroke-linecap="butt"/><path d="M244.83707,178.1989c0,-0.18161 0.14721,-0.32882 0.32882,-0.32882c0.18161,0 0.32882,0.14721 0.32882,0.32882c0,0.18161 -0.14721,0.32883 -0.32882,0.32883c-0.18161,0 -0.32882,-0.14722 -0.32882,-0.32883z" fill="#e06c00" stroke="none" stroke-width="0.5" stroke-linecap="butt"/><path d="M243.63138,178.14409c0,-0.18161 0.14721,-0.32882 0.32882,-0.32882c0.18161,0 0.32882,0.14721 0.32882,0.32882c0,0.18161 -0.14721,0.32882 -0.32882,0.32882c-0.18161,0 -0.32882,-0.14721 -0.32882,-0.32882z" fill="#e06c00" stroke="none" stroke-width="0.5" stroke-linecap="butt"/><path d="M252.33305,179.47766c0,-0.18161 0.14722,-0.32882 0.32883,-0.32882c0.18161,0 0.32882,0.14721 0.32882,0.32882c0,0.18161 -0.14721,0.32882 -0.32882,0.32882c-0.18161,0 -0.32883,-0.14721 -0.32883,-0.32882z" fill="#e06c00" stroke="none" stroke-width="0.5" stroke-linecap="butt"/><path d="M251.07256,179.42286c0,-0.18161 0.14721,-0.32882 0.32882,-0.32882c0.18161,0 0.32883,0.14721 0.32883,0.32882c0,0.18161 -0.14722,0.32882 -0.32883,0.32882c-0.18161,0 -0.32882,-0.14721 -0.32882,-0.32882z" fill="#e06c00" stroke="none" stroke-width="0.5" stroke-linecap="butt"/><path d="M249.86686,179.36805c0,-0.18161 0.14721,-0.32882 0.32882,-0.32882c0.18161,0 0.32882,0.14721 0.32882,0.32882c0,0.18161 -0.14721,0.32882 -0.32882,0.32882c-0.18161,0 -0.32882,-0.14721 -0.32882,-0.32882z" fill="#e06c00" stroke="none" stroke-width="0.5" stroke-linecap="butt"/><path d="M248.58202,179.53246c0,-0.18161 0.14721,-0.32883 0.32882,-0.32883c0.18161,0 0.32882,0.14722 0.32882,0.32883c0,0.18161 -0.14721,0.32882 -0.32882,0.32882c-0.18161,0 -0.32882,-0.14721 -0.32882,-0.32882z" fill="#e06c00" stroke="none" stroke-width="0.5" stroke-linecap="butt"/><path d="M247.32153,179.47766c0,-0.18161 0.14721,-0.32882 0.32882,-0.32882c0.18161,0 0.32882,0.14721 0.32882,0.32882c0,0.18161 -0.14721,0.32882 -0.32882,0.32882c-0.18161,0 -0.32882,-0.14721 -0.32882,-0.32882z" fill="#e06c00" stroke="none" stroke-width="0.5" stroke-linecap="butt"/><path d="M246.11584,179.42286c0,-0.18161 0.14721,-0.32882 0.32882,-0.32882c0.18161,0 0.32882,0.14721 0.32882,0.32882c0,0.18161 -0.14721,0.32882 -0.32882,0.32882c-0.18161,0 -0.32882,-0.14721 -0.32882,-0.32882z" fill="#e06c00" stroke="none" stroke-width="0.5" stroke-linecap="butt"/><path d="M246.11584,179.42286c0,-0.18161 0.14721,-0.32882 0.32882,-0.32882c0.18161,0 0.32882,0.14721 0.32882,0.32882c0,0.18161 -0.14721,0.32882 -0.32882,0.32882c-0.18161,0 -0.32882,-0.14721 -0.32882,-0.32882z" fill="#e06c00" stroke="none" stroke-width="0.5" stroke-linecap="butt"/><path d="M244.85534,179.36805c0,-0.18161 0.14721,-0.32882 0.32882,-0.32882c0.18161,0 0.32882,0.14721 0.32882,0.32882c0,0.18161 -0.14721,0.32882 -0.32882,0.32882c-0.18161,0 -0.32882,-0.14721 -0.32882,-0.32882z" fill="#e06c00" stroke="none" stroke-width="0.5" stroke-linecap="butt"/><path d="M243.64965,179.31325c0,-0.18161 0.14721,-0.32882 0.32882,-0.32882c0.18161,0 0.32882,0.14721 0.32882,0.32882c0,0.18161 -0.14721,0.32882 -0.32882,0.32882c-0.18161,0 -0.32882,-0.14721 -0.32882,-0.32882z" fill="#e06c00" stroke="none" stroke-width="0.5" stroke-linecap="butt"/><path d="M252.71059,180.15967c0.18161,0 0.32882,0.14722 0.32882,0.32883c0,0.18161 -0.14721,0.32882 -0.32882,0.32882c-0.18161,0 -0.32882,-0.14721 -0.32882,-0.32882c0,-0.18161 0.14721,-0.32883 0.32882,-0.32883z" data-paper-data="{&quot;index&quot;:null}" fill="#e06c00" stroke="none" stroke-width="0.5" stroke-linecap="butt"/><path d="M251.45009,180.21447c0.18161,0 0.32883,0.14721 0.32883,0.32882c0,0.18161 -0.14722,0.32882 -0.32883,0.32882c-0.18161,0 -0.32882,-0.14721 -0.32882,-0.32882c0,-0.18161 0.14721,-0.32882 0.32882,-0.32882z" data-paper-data="{&quot;index&quot;:null}" fill="#e06c00" stroke="none" stroke-width="0.5" stroke-linecap="butt"/><path d="M250.2444,180.26928c0.18161,0 0.32882,0.14722 0.32882,0.32883c0,0.18161 -0.14721,0.32882 -0.32882,0.32882c-0.18161,0 -0.32883,-0.14721 -0.32883,-0.32882c0,-0.18161 0.14722,-0.32883 0.32883,-0.32883z" data-paper-data="{&quot;index&quot;:null}" fill="#e06c00" stroke="none" stroke-width="0.5" stroke-linecap="butt"/><path d="M248.95956,180.10486c0.18161,0 0.32882,0.14721 0.32882,0.32882c0,0.18161 -0.14721,0.32882 -0.32882,0.32882c-0.18161,0 -0.32882,-0.14721 -0.32882,-0.32882c0,-0.18161 0.14721,-0.32882 0.32882,-0.32882z" data-paper-data="{&quot;index&quot;:null}" fill="#e06c00" stroke="none" stroke-width="0.5" stroke-linecap="butt"/><path d="M247.69906,180.15967c0.18161,0 0.32882,0.14722 0.32882,0.32883c0,0.18161 -0.14721,0.32882 -0.32882,0.32882c-0.18161,0 -0.32882,-0.14721 -0.32882,-0.32882c0,-0.18161 0.14721,-0.32883 0.32882,-0.32883z" data-paper-data="{&quot;index&quot;:null}" fill="#e06c00" stroke="none" stroke-width="0.5" stroke-linecap="butt"/><path d="M246.49337,180.21447c0.18161,0 0.32882,0.14721 0.32882,0.32882c0,0.18161 -0.14721,0.32882 -0.32882,0.32882c-0.18161,0 -0.32882,-0.14721 -0.32882,-0.32882c0,-0.18161 0.14721,-0.32882 0.32882,-0.32882z" data-paper-data="{&quot;index&quot;:null}" fill="#e06c00" stroke="none" stroke-width="0.5" stroke-linecap="butt"/><path d="M246.49337,180.21447c0.18161,0 0.32882,0.14721 0.32882,0.32882c0,0.18161 -0.14721,0.32882 -0.32882,0.32882c-0.18161,0 -0.32882,-0.14721 -0.32882,-0.32882c0,-0.18161 0.14721,-0.32882 0.32882,-0.32882z" data-paper-data="{&quot;index&quot;:null}" fill="#e06c00" stroke="none" stroke-width="0.5" stroke-linecap="butt"/><path d="M245.23288,180.26928c0.18161,0 0.32882,0.14722 0.32882,0.32883c0,0.18161 -0.14721,0.32882 -0.32882,0.32882c-0.18161,0 -0.32882,-0.14721 -0.32882,-0.32882c0,-0.18161 0.14721,-0.32883 0.32882,-0.32883z" data-paper-data="{&quot;index&quot;:null}" fill="#e06c00" stroke="none" stroke-width="0.5" stroke-linecap="butt"/><path d="M244.02719,180.32408c0.18161,0 0.32883,0.14721 0.32883,0.32882c0,0.18161 -0.14722,0.32882 -0.32883,0.32882c-0.18161,0 -0.32882,-0.14721 -0.32882,-0.32882c0,-0.18161 0.14721,-0.32882 0.32882,-0.32882z" data-paper-data="{&quot;index&quot;:null}" fill="#e06c00" stroke="none" stroke-width="0.5" stroke-linecap="butt"/><path d="M254.86622,178.21108c0,-0.18161 0.14722,-0.32882 0.32882,-0.32882c0.18161,0 0.32882,0.14721 0.32882,0.32882c0,0.18161 -0.14722,0.32883 -0.32882,0.32883c-0.18161,0 -0.32882,-0.14722 -0.32882,-0.32883z" fill="#e06c00" stroke="none" stroke-width="0.5" stroke-linecap="butt"/><path d="M253.58137,178.37549c0,-0.18161 0.14721,-0.32882 0.32882,-0.32882c0.18161,0 0.32882,0.14721 0.32882,0.32882c0,0.18161 -0.14721,0.32882 -0.32882,0.32882c-0.18161,0 -0.32882,-0.14721 -0.32882,-0.32882z" fill="#e06c00" stroke="none" stroke-width="0.5" stroke-linecap="butt"/><path d="M254.88449,179.38024c0,-0.18161 0.14722,-0.32882 0.32882,-0.32882c0.18161,0 0.32882,0.14721 0.32882,0.32882c0,0.18161 -0.14722,0.32882 -0.32882,0.32882c-0.18161,0 -0.32882,-0.14721 -0.32882,-0.32882z" fill="#e06c00" stroke="none" stroke-width="0.5" stroke-linecap="butt"/><path d="M253.59964,179.54465c0,-0.18161 0.14721,-0.32882 0.32882,-0.32882c0.18161,0 0.32882,0.14721 0.32882,0.32882c0,0.18161 -0.14721,0.32882 -0.32882,0.32882c-0.18161,0 -0.32882,-0.14721 -0.32882,-0.32882z" fill="#e06c00" stroke="none" stroke-width="0.5" stroke-linecap="butt"/><path d="M255.26203,180.28145c0.18161,0 0.32882,0.14721 0.32882,0.32882c0,0.18161 -0.14721,0.32882 -0.32882,0.32882c-0.18161,0 -0.32882,-0.14721 -0.32882,-0.32882c0,-0.18161 0.14721,-0.32882 0.32882,-0.32882z" data-paper-data="{&quot;index&quot;:null}" fill="#e06c00" stroke="none" stroke-width="0.5" stroke-linecap="butt"/><path d="M253.97717,180.11704c0.18161,0 0.32882,0.14721 0.32882,0.32882c0,0.18161 -0.14721,0.32882 -0.32882,0.32882c-0.18161,0 -0.32882,-0.14721 -0.32882,-0.32882c0,-0.18161 0.14721,-0.32882 0.32882,-0.32882z" data-paper-data="{&quot;index&quot;:null}" fill="#e06c00" stroke="none" stroke-width="0.5" stroke-linecap="butt"/><path d="M252.31479,177.07846c0,-0.18161 0.14721,-0.32882 0.32882,-0.32882c0.18161,0 0.32882,0.14721 0.32882,0.32882c0,0.18161 -0.14721,0.32882 -0.32882,0.32882c-0.18161,0 -0.32882,-0.14721 -0.32882,-0.32882z" fill="#e06c00" stroke="none" stroke-width="0.5" stroke-linecap="butt"/><path d="M251.05429,177.02365c0,-0.18161 0.14721,-0.32882 0.32882,-0.32882c0.18161,0 0.32882,0.14721 0.32882,0.32882c0,0.18161 -0.14721,0.32882 -0.32882,0.32882c-0.18161,0 -0.32882,-0.14721 -0.32882,-0.32882z" fill="#e06c00" stroke="none" stroke-width="0.5" stroke-linecap="butt"/><path d="M249.8486,176.96885c0,-0.18161 0.14721,-0.32883 0.32882,-0.32883c0.18161,0 0.32882,0.14722 0.32882,0.32883c0,0.18161 -0.14721,0.32882 -0.32882,0.32882c-0.18161,0 -0.32882,-0.14721 -0.32882,-0.32882z" fill="#e06c00" stroke="none" stroke-width="0.5" stroke-linecap="butt"/><path d="M248.56375,177.13326c0,-0.18161 0.14721,-0.32882 0.32882,-0.32882c0.18161,0 0.32882,0.14721 0.32882,0.32882c0,0.18161 -0.14721,0.32883 -0.32882,0.32883c-0.18161,0 -0.32882,-0.14722 -0.32882,-0.32883z" fill="#e06c00" stroke="none" stroke-width="0.5" stroke-linecap="butt"/><path d="M247.30326,177.07846c0,-0.18161 0.14721,-0.32882 0.32882,-0.32882c0.18161,0 0.32882,0.14721 0.32882,0.32882c0,0.18161 -0.14721,0.32882 -0.32882,0.32882c-0.18161,0 -0.32882,-0.14721 -0.32882,-0.32882z" fill="#e06c00" stroke="none" stroke-width="0.5" stroke-linecap="butt"/><path d="M246.09757,177.02365c0,-0.18161 0.14721,-0.32882 0.32882,-0.32882c0.18161,0 0.32882,0.14721 0.32882,0.32882c0,0.18161 -0.14721,0.32882 -0.32882,0.32882c-0.18161,0 -0.32882,-0.14721 -0.32882,-0.32882z" fill="#e06c00" stroke="none" stroke-width="0.5" stroke-linecap="butt"/><path d="M246.09757,177.02365c0,-0.18161 0.14721,-0.32882 0.32882,-0.32882c0.18161,0 0.32882,0.14721 0.32882,0.32882c0,0.18161 -0.14721,0.32882 -0.32882,0.32882c-0.18161,0 -0.32882,-0.14721 -0.32882,-0.32882z" fill="#e06c00" stroke="none" stroke-width="0.5" stroke-linecap="butt"/><path d="M244.83707,176.96885c0,-0.18161 0.14721,-0.32883 0.32882,-0.32883c0.18161,0 0.32882,0.14722 0.32882,0.32883c0,0.18161 -0.14721,0.32882 -0.32882,0.32882c-0.18161,0 -0.32882,-0.14721 -0.32882,-0.32882z" fill="#e06c00" stroke="none" stroke-width="0.5" stroke-linecap="butt"/><path d="M243.63138,176.91404c0,-0.18161 0.14721,-0.32882 0.32882,-0.32882c0.18161,0 0.32882,0.14721 0.32882,0.32882c0,0.18161 -0.14721,0.32882 -0.32882,0.32882c-0.18161,0 -0.32882,-0.14721 -0.32882,-0.32882z" fill="#e06c00" stroke="none" stroke-width="0.5" stroke-linecap="butt"/><path d="M254.86622,176.98103c0,-0.18161 0.14722,-0.32882 0.32882,-0.32882c0.18161,0 0.32882,0.14721 0.32882,0.32882c0,0.18161 -0.14722,0.32882 -0.32882,0.32882c-0.18161,0 -0.32882,-0.14721 -0.32882,-0.32882z" fill="#e06c00" stroke="none" stroke-width="0.5" stroke-linecap="butt"/><path d="M253.58137,177.14544c0,-0.18161 0.14721,-0.32882 0.32882,-0.32882c0.18161,0 0.32882,0.14721 0.32882,0.32882c0,0.18161 -0.14721,0.32882 -0.32882,0.32882c-0.18161,0 -0.32882,-0.14721 -0.32882,-0.32882z" fill="#e06c00" stroke="none" stroke-width="0.5" stroke-linecap="butt"/><path d="M243.08334,183.50211v-1.70258h13.05555v1.70258z" fill="#ef8f3c" stroke="#e06c00" stroke-width="0.5" stroke-linecap="butt"/></g></g></svg>