<svg version="1.1" xmlns="http://www.w3.org/2000/svg" xmlns:xlink="http://www.w3.org/1999/xlink" width="31.98103" height="13.76776" viewBox="0,0,31.98103,13.76776"><g transform="translate(-238.57293,-171.00346)"><g data-paper-data="{&quot;isPaintingLayer&quot;:true}" fill-rule="nonzero" stroke-linecap="butt" stroke-linejoin="miter" stroke-miterlimit="10" stroke-dasharray="" stroke-dashoffset="0" style="mix-blend-mode: normal"><path d="M248.65993,174.53451l0.00646,-2.44415l21.38625,0.05654l-0.00646,2.44415z" fill="#707070" stroke="#5a5a5a" stroke-width="1"/><path d="M254.77335,176.65833c-0.61124,2.69697 -4.65381,2.35985 -5.53223,0.11612c-0.18582,0.56384 -0.4585,1.3383 -0.9278,1.66321c-0.8186,0.56674 -2.01301,-0.42476 -2.453,0.69154c-0.41821,1.06106 0.24636,2.65128 -0.21279,3.52316c-0.60187,1.1429 -1.62463,0.35324 -2.46452,0.0187c-1.28433,-0.85962 -3.32985,-1.84735 -2.55047,-3.84801c0.49705,-1.27591 2.2545,-1.90401 1.21381,-3.42726c0,0 -0.24964,-0.38432 0.13468,-0.63396c0.01646,-0.01069 0.03267,-0.02022 0.04862,-0.02866l0.02359,-0.10955c0.50562,-1.24998 1.35622,-1.51413 2.38672,-2.19507c1.2368,-0.79245 3.2558,-1.66536 4.72609,-1.36419c0.53494,0.10957 1.4364,0.14221 1.72897,0.72052c0.21813,0.43118 -0.07742,1.4497 -0.21115,1.89385c-0.03049,0.1013 -0.11503,0.2852 -0.19381,0.42247c0.38311,-0.0882 1.33708,0.07826 1.5446,0.08858c1.65002,-0.28525 3.433,0.02321 5.10279,-0.07608c1.82526,-0.10853 3.70798,-0.51122 5.53503,-0.43045c1.23112,-0.21282 5.53064,0.59485 3.42299,2.69035c-0.32531,0.32342 -0.91203,0.17071 -1.29583,0.18447c-1.7267,0.06186 -3.50205,0.13387 -5.22405,0.05775c-1.64636,-0.07278 -3.26303,-0.08211 -4.8891,-0.12108zM253.7773,176.65807c0,0 -0.07509,-0.07691 -0.1153,-0.19259c-0.276,-0.00939 -0.5525,-0.02018 -0.8297,-0.03283c-0.80758,-0.03684 -1.88628,-0.25409 -2.78138,-0.09814c0.40453,1.50888 3.4604,2.00249 3.82497,0.13797c-0.0005,-0.00002 -0.001,-0.00003 -0.0015,-0.00004zM242.84129,175.31658c0.36042,0.79783 0.35746,1.65663 -0.20246,2.43226c-0.37634,0.52133 -1.22732,1.05181 -1.23476,1.77354c-0.0139,1.35009 1.31383,1.74084 2.20393,2.33661c0.36813,0.14234 0.81465,0.44152 1.16854,0.5418c0.06942,0.01967 -0.1443,-1.32641 -0.14573,-1.3534c-0.03483,-0.65963 0.12749,-1.66207 0.38514,-2.27477c0.27395,-0.65145 0.76478,-1.06267 1.46463,-1.1223c0.2449,-0.02087 1.05884,0.25586 1.27365,0.06103c0.41713,-0.37833 0.62437,-1.20565 0.8359,-1.69629c1.09955,-0.74147 2.52097,-0.67793 3.78989,-0.51828c2.38161,0.29966 4.83074,0.09707 7.23602,0.20341c1.50729,0.06662 3.09053,0.05991 4.60371,0.00382c0.41308,-0.01531 0.99009,0.3385 1.24008,0.00927c0.94516,-1.24475 -2.2536,-1.19752 -2.72919,-1.11531c-1.82998,-0.0809 -3.70669,0.33035 -5.53503,0.43045c-1.66979,0.09142 -3.45434,-0.20889 -5.10279,0.07608c-0.33851,-0.01341 -2.16976,0.03766 -2.36835,-0.18906c-0.71964,-0.82155 0.58978,-1.90339 0.35271,-2.71678c-0.02493,-0.0855 -1.0466,-0.22557 -1.10159,-0.23775c-1.18783,-0.26305 -3.05056,0.58489 -4.03635,1.23628c-0.80802,0.51772 -1.63835,0.70329 -2.00822,1.69018z" fill="#686868" stroke="none" stroke-width="0.5"/><path d="M242.90195,174.87801c0.36986,-0.9869 1.20308,-1.17883 2.0111,-1.69655c0.98579,-0.65139 2.85728,-1.50868 4.04511,-1.24565c0.055,0.01219 1.10861,0.20423 1.13354,0.28973c0.23707,0.81339 -1.06439,1.88901 -0.34473,2.71057c0.19858,0.22671 1.99606,0.12656 2.33458,0.13998c1.64845,-0.28497 3.46776,0.0242 5.13756,-0.06722c1.82833,-0.1001 3.71005,-0.50285 5.54003,-0.42195c0.4756,-0.08222 3.67578,-0.12465 2.73062,1.12011c-0.24998,0.32922 -0.88665,-0.01143 -1.29974,0.00389c-1.51317,0.05609 -3.09499,0.06734 -4.60228,0.00069c-2.40527,-0.10633 -4.81599,0.11365 -7.19762,-0.18601c-1.26892,-0.15966 -2.67274,-0.23908 -3.77229,0.50239c-0.21153,0.49065 -0.41603,1.30789 -0.83315,1.68621c-0.21481,0.19483 -1.02874,-0.08216 -1.27363,-0.06129c-0.69985,0.05963 -1.19062,0.46629 -1.46457,1.11774c-0.25765,0.61268 -0.42137,1.60771 -0.38655,2.26733c0.00143,0.02699 0.21355,1.36908 0.14412,1.34941c-0.3539,-0.10028 -0.85653,-0.37543 -1.22466,-0.51778c-0.89011,-0.59576 -2.21958,-0.9939 -2.20568,-2.34398c0.00743,-0.72172 0.85827,-1.25687 1.23461,-1.7782c0.55992,-0.77563 0.56395,-1.64122 0.20355,-2.43905z" data-paper-data="{&quot;noHover&quot;:false,&quot;origItem&quot;:[&quot;Path&quot;,{&quot;applyMatrix&quot;:true,&quot;segments&quot;:[[[439.09914,362.24845],[0,0],[1.69658,2.30928]],[[440.10526,370.17345],[1.26511,-2.86416],[-0.85033,1.92511]],[[437.35828,376.69157],[-0.4671,-2.31577],[0.87378,4.332]],[[446.00382,382.67357],[-3.25505,-1.30202],[1.27543,0.20536]],[[450.11362,383.61343],[-1.20126,-0.08035],[0.23564,0.01576]],[[448.72654,379.37942],[0.02292,0.08545],[-0.56016,-2.08823]],[[448.41241,371.83443],[-0.40818,2.13686],[0.434,-2.27208]],[[452.33831,367.245],[-2.20014,0.66695],[0.76989,-0.23339]],[[456.45765,366.57411],[-0.55524,0.76988],[1.07819,-1.49499]],[[457.98017,360.57458],[-0.34354,1.71477],[3.0161,-3.12184]],[[469.76163,356.33749],[-4.17125,0.3519],[7.82897,-0.66047]],[[493.06732,352.06707],[-7.77322,1.29554],[4.87117,-0.81186]],[[507.80949,348.94804],[-4.80655,1.20878],[1.31215,-0.32999]],[[511.78611,348.13429],[-0.57643,1.22408],[2.17944,-4.62815]],[[502.28953,346.41975],[1.46679,-0.58672],[-5.91402,0.98567]],[[484.86096,351.56261],[5.78563,-1.56404],[-5.28395,1.42842]],[[468.57525,355.2769],[5.08395,-2.03358],[-1.09293,0.1873]],[[460.86401,356.28247],[0.78999,0.59076],[-2.86287,-2.14087]],[[460.14541,347.34433],[1.31228,2.44295],[-0.13794,-0.25678]],[[456.45678,347.33238],[0.18435,0.00159],[-3.98196,-0.03427]],[[444.37458,354.0359],[2.71314,-2.75604],[-2.23489,2.20715]],[[439.09452,360.81324],[0.51295,-3.41129],[0,0]]],&quot;closed&quot;:true}]}" fill="#919191" stroke="none" stroke-width="0.5"/><path d="M255.55389,176.77953l-0.01211,-2.79328l8.72903,-0.03784l0.0121,2.79329z" fill="#707070" stroke="#5a5a5a" stroke-width="1"/><path d="M252.39366,177.31554c-0.18129,0.42089 -0.60219,0.23959 -0.60219,0.23959l-0.61181,-0.34733c-0.17932,-0.27606 -0.35865,-0.55214 -0.53798,-0.8282c0,0 -0.24964,-0.38432 0.13468,-0.63396c0.38432,-0.24964 0.63396,0.13468 0.63396,0.13468c0.17932,0.27606 0.35865,0.55214 0.53798,0.8282l0.20577,0.00482c0,0 0.42089,0.18129 0.23959,0.60219z" fill="#686868" stroke="none" stroke-width="0.5"/><path d="M249.2023,173.2185l-0.01989,0.19513c-0.38737,0.55842 -2.09323,1.652 -2.51841,0.32391c-0.31364,-0.97969 1.01336,-1.2403 1.81094,-1.28675c0.06527,-0.06014 0.16,-0.10483 0.29746,-0.10974c0.24446,-0.00872 0.36309,0.1177 0.42056,0.23747c0.07321,0.07086 0.12816,0.17908 0.12085,0.34427c-0.00605,0.13684 -0.05119,0.23097 -0.11151,0.2957z" fill="#686868" stroke="none" stroke-width="0.5"/><path d="M240.49976,183.97794c-0.31995,0.25399 -0.77489,0.28047 -1.41321,-0.0393c-0.41977,-0.21029 -0.23395,-0.91148 -0.29835,-1.37654c-0.13667,-0.98682 -0.51951,-4.55525 0.2586,-5.23326c0.15082,-0.13142 0.37749,-0.19825 0.64298,-0.22352c0.11099,-0.10489 0.27443,-0.18211 0.51509,-0.18211c0.27866,0 0.45379,0.10354 0.56385,0.23367c0.16875,0.02322 0.33553,0.05057 0.49407,0.07814c0.13619,-0.18887 0.35811,-0.31182 0.60875,-0.31182h0.77778c0.4206,0 0.84279,-0.00149 1.26426,0.00193c2.5238,-0.42852 6.37573,-0.16524 7.17477,1.17195c0.29484,0.49341 0.48093,5.11708 0.12756,5.51196c-0.44632,0.49874 -2.5295,0.25814 -3.16875,0.25715c-2.49351,-0.3079 -4.49429,-0.25224 -6.95844,0.10502z" fill="#0060b9" stroke="none" stroke-width="0.5"/><path d="M239.23264,184.00654c0,-0.75 0.75,-0.75 0.75,-0.75h0.33333c2.6562,0.00692 5.32661,-0.11424 8,-0.11111c0.86499,0.00101 2.30615,0.71355 2.59295,-0.10251c0.09273,-0.26385 -0.26771,-2.13161 -0.33541,-2.59698c-0.10505,-0.74738 0.04187,-1.5479 -0.06156,-2.2635c-0.02413,-0.16695 -1.98671,-0.29826 -2.24915,-0.31668c-2.81824,-0.19779 -5.81595,-0.30228 -8.61854,0.10546c0,0 -0.74246,0.10607 -0.84853,-0.6364c-0.10607,-0.74246 0.6364,-0.84853 0.6364,-0.84853c3.13248,-0.44031 6.63559,-0.44744 9.76769,0c1.11802,0.15972 2.05918,-0.14862 2.69795,1.12212c0.28752,0.57197 0.06192,1.94667 0.16066,2.62539c0.09205,0.65489 0.48011,3.09837 0.10903,3.62524c-0.4286,0.60854 -2.20677,0.73746 -2.90944,0.78449c-2.92412,0.19571 -6.01824,0.10636 -8.94206,0.113h-0.33333c0,0 -0.75,0 -0.75,-0.75z" fill="#00488c" stroke="none" stroke-width="0.5"/></g></g></svg>