<svg version="1.1" xmlns="http://www.w3.org/2000/svg" xmlns:xlink="http://www.w3.org/1999/xlink" width="52.75" height="52.75" viewBox="0,0,52.75,52.75"><g transform="translate(-213.625,-153.625)"><g data-paper-data="{&quot;isPaintingLayer&quot;:true}" fill-rule="nonzero" stroke-linecap="butt" stroke-linejoin="miter" stroke-miterlimit="10" stroke-dasharray="" stroke-dashoffset="0" style="mix-blend-mode: normal"><path d="M214.875,205.125v-50.25h50.25v50.25z" fill="#7f7f7f" stroke="#5e5e5e" stroke-width="2.5"/><path d="M236.14455,171.06482c4.36182,-0.09908 3.63555,6.76646 0.51924,7.79349c-0.62112,0.20469 -1.28851,-0.24262 -1.91183,-0.44049c-3.79644,-1.20515 -1.63697,-4.10993 -2.07151,-6.95097c0,0 -0.17678,-1.23744 1.06066,-1.41421c1.11908,-0.15987 1.3707,0.83688 1.40859,1.02902c0.0743,0.01241 0.14637,0.03136 0.21562,0.05625l0.14648,0.04883c0.2034,-0.07448 0.41494,-0.11695 0.63276,-0.1219z" fill="#cbd49f" stroke="none" stroke-width="0.5"/><path d="M252.12847,185.51649c0.04552,0.18363 0.04552,0.32097 0.04552,0.32097l-0.08879,0.18704c-0.08309,0.81525 -0.24696,1.5822 -0.75055,2.16706c-2.39418,2.78057 -4.4048,0.45312 -4.32113,-2.23783c0.08376,-2.69373 1.538,-4.63256 3.13927,-6.63415c0,0 0.78087,-0.97609 1.75696,-0.19522c0.2259,0.18071 0.35769,0.37189 0.42684,0.55899c0.60349,0.08865 1.06676,0.60856 1.06676,1.23667c0,0.20995 -0.05175,0.4078 -0.14321,0.58151l-0.60344,1.20686c-0.42294,0.81759 -0.45634,1.82735 -0.52824,2.80809z" fill="#cbd49f" stroke="none" stroke-width="0.5"/><path d="M237.1894,185.55447c0,0 0.16583,1.23835 1.40326,1.06158c1.23744,-0.17678 1.04936,-1.41055 1.04936,-1.41055c-0.43308,-2.98225 -0.97918,-7.91854 0.13377,-10.75268c0.58112,-1.47985 2.79141,-3.58118 2.66763,-5.28726c0.06151,0.30082 0.16907,0.72859 0.27993,0.91004c0.6738,1.10283 1.70691,2.1384 2.51661,3.14859c2.2607,3.3843 0.92157,7.96691 1.20286,11.90614c0.02794,0.39118 0.74505,2.78704 0.2964,3.19914c-0.66588,0.61161 -2.42186,0.76894 -3.23215,1.10726c-2.41303,1.00752 -5.09825,1.5581 -7.75237,1.5519c-0.77676,0 -1.62428,0.43058 -2.33667,0.12096c-0.53543,-0.23271 -1.65729,-2.37897 -1.97275,-2.85171c-2.99108,-4.48236 -3.3078,-8.0432 -3.67563,-13.26478c-0.03097,-0.4396 0.5138,0.83742 0.84117,1.13244c1.06889,0.96326 2.43457,1.40113 3.54905,2.30354c1.42961,1.13243 2.6636,2.0763 4.08046,3.22209l0.29727,0.312c0,0 0.11303,0.11878 0.31135,0.22672c0.07075,1.1307 0.18445,2.25638 0.34045,3.36459z" data-paper-data="{&quot;noHover&quot;:false,&quot;origItem&quot;:[&quot;Path&quot;,{&quot;applyMatrix&quot;:true,&quot;segments&quot;:[[[393.84178,278.63082],[0.1415,2.2614],[-0.39663,-0.21588]],[393.20165,278.17144],[[392.58811,277.53627],[0,0],[-2.83372,-2.29158]],[[384.39239,270.97969],[2.85922,2.26487],[-2.22896,-1.80482]],[[377.29831,266.36262],[2.13778,1.92652],[-0.65474,-0.59004]],[[375.79445,264.18779],[-0.06194,-0.8792],[0.73567,10.44315]],[[383.11682,290.58878],[-5.98217,-8.96472],[0.63092,0.94548]],[[387.0371,296.27885],[-1.07085,-0.46541],[1.42477,0.61924]],[[391.69113,296.03211],[-1.55352,0],[5.30823,0.01241]],[[407.12586,292.94412],[-4.82605,2.01505],[1.62058,-0.67665]],[[413.57008,290.74732],[-1.33175,1.22322],[0.89731,-0.82419]],[[412.96501,284.36682],[0.05587,0.78235],[-0.56258,-7.87846]],[[410.57217,260.66829],[4.52141,6.7686],[-1.61939,-2.02037]],[[405.56694,254.39326],[1.3476,2.20566],[-0.22172,-0.36289]],[[405.01205,252.57566],[0.12301,0.60164],[0.24756,3.41218]],[[399.75807,262.96747],[1.16225,-2.9597],[-2.22589,5.66828]],[[399.49322,284.65562],[-0.86615,-5.96449],[0,0]],[[397.3719,287.48405],[2.47487,-0.35355],[-2.47487,0.35355]],[[394.54347,285.36273],[0,0],[-0.312,-2.2164]]],&quot;closed&quot;:true}]}" fill="#d8e1a9" stroke="none" stroke-width="0.5"/><path d="M246.39571,189.32064c0,-1.25 1.25,-1.25 1.25,-1.25h1.43425c0.6458,0.00151 1.64107,0.80655 1.92419,0.22611c0.12645,-0.25926 -0.31115,-0.52784 -0.28954,-0.81548c0.0988,-1.31531 1.23803,-2.48364 1.43425,-3.68807c0.23439,-1.43877 -0.59223,-3.12442 -0.9498,-4.67218c-0.68388,1.13844 -1.70427,2.32529 -2.23041,3.3825c0,0 -0.55902,1.11804 -1.67706,0.55902c-1.11803,-0.55901 -0.55901,-1.67705 -0.55901,-1.67705c0.83014,-1.6534 1.74785,-3.406 2.93362,-4.82721c0.50509,-0.60538 0.748,-1.77045 1.53591,-1.79871c2.23644,-0.0802 2.60357,3.37227 2.80337,4.75434c0.1937,1.33986 0.80778,3.35413 0.61111,4.67976c-0.17645,1.18932 -1.17455,2.45706 -1.43426,3.68808c-0.14266,0.67623 0.18919,1.55457 -0.28954,2.05302c-0.7335,0.76372 -2.80936,0.63382 -3.81282,0.63589h-1.43425c0,0 -1.25,0 -1.25,-1.25z" fill="#bac292" stroke="none" stroke-width="0.5"/><path d="M239.87537,173.82747c-0.69338,1.04006 -1.73344,0.34669 -1.73344,0.34669l-0.48032,-0.33182c-0.77459,-0.39143 -2.81918,-1.0356 -4.23373,-1.8954c0.18542,1.59735 0.30575,3.16415 0.30575,4.87523c0,0 0,1.25 -1.25,1.25c-1.25,0 -1.25,-1.25 -1.25,-1.25c0,-2.51254 -0.25823,-4.62975 -0.61154,-7.08264l0.02732,-0.08861h-0.03046v-1.43425v0c0,-0.69036 0.55964,-1.25 1.25,-1.25c0.39906,0 0.75444,0.187 0.9833,0.47815l0.81236,1.01544l-0.02197,0.01758c1.65736,1.11819 3.17264,2.15507 5.13701,3.12843l0.74904,0.48776c0,0 1.04006,0.69337 0.34669,1.73344z" fill="#bac292" stroke="none" stroke-width="0.5"/><path d="M243.95763,173.97431c-0.32542,0 -0.56611,-0.08472 -0.74416,-0.21005c-0.03752,0.12625 -0.0771,0.2528 -0.11892,0.3798l0.06415,0.0145c0,0 0,1.25 -1.25,1.25c-1.25,0 -1.25,-1.25 -1.25,-1.25l0.06414,-0.80507c0.4358,-1.28905 0.57567,-2.53313 0.76799,-3.87935c0,0 0.17677,-1.23744 1.41421,-1.06066c0.0462,0.0066 0.09043,0.01468 0.13277,0.02412c1.11583,-0.30746 1.49099,0.81803 1.49099,0.81803c0.30846,0.93655 0.52365,1.90645 0.66626,2.88212l0.01256,0.58656c0,0 0,1.25 -1.25,1.25z" fill="#e3edb2" stroke="none" stroke-width="0.5"/><path d="M229.55947,179.78424c-1.11803,0.55902 -1.67705,-0.55902 -1.67705,-0.55902l-0.3243,-0.79203c-0.11515,-0.8284 -0.29523,-1.65279 -0.5631,-2.4451c0,0 -0.39529,-1.18585 0.79057,-1.58114c1.18586,-0.39529 1.58114,0.79057 1.58114,0.79057c0.30846,0.93655 0.52365,1.90644 0.66626,2.88212l0.08549,0.02755c0,0 0.55902,1.11803 -0.55902,1.67705z" fill="#e3edb2" stroke="none" stroke-width="0.5"/><path d="M237.17552,189.73042c0,-1.40525 0,-2.81049 0,-4.21574c-0.1501,-1.07927 -0.26944,-2.17601 -0.33828,-3.27619c-0.19832,-0.10794 -0.32007,-0.22969 -0.32007,-0.22969l-0.30677,-0.31758c-1.41686,-1.14579 -2.66825,-2.14586 -4.09786,-3.27829c-1.11448,-0.90241 -2.47815,-1.34528 -3.54704,-2.30854c-0.32737,-0.29502 -0.7829,-1.52702 -0.75193,-1.08741c0.36784,5.22158 0.6701,8.71813 3.66119,13.20049c0.31546,0.47274 1.42471,2.61233 1.96014,2.84504c0.71239,0.30962 1.55025,-0.12337 2.32701,-0.12337c0.53112,0.00124 1.06208,-0.0195 1.59102,-0.06154zM239.67552,185.42767c0,1.43425 0,2.8685 0,4.30275l0.14577,0.79435c1.25747,-0.26041 2.48572,-0.64017 3.65799,-1.12963c0.81029,-0.33833 2.55624,-0.48679 3.22211,-1.0984c0.44866,-0.4121 -0.2746,-2.79908 -0.30253,-3.19025c-0.28129,-3.93923 1.06428,-8.46497 -1.19642,-11.84927c-0.8097,-1.01019 -1.82882,-2.03468 -2.50262,-3.13751c-0.11086,-0.18144 -0.21594,-0.60798 -0.27745,-0.9088c0.12378,1.70609 -2.04587,3.71606 -2.62699,5.19591c-1.11294,2.83414 -0.5655,7.86183 -0.13242,10.84408c0,0 0.00467,0.03273 0.00718,0.0883c0.00538,0.05539 0.00538,0.08848 0.00538,0.08848zM236.80067,178.96969c0.13244,-2.85497 0.74283,-5.63882 2.18287,-8.10216c0.5223,-0.89346 1.47228,-3.90497 2.44682,-4.21551c2.45572,-0.78253 4.53676,3.56009 5.79013,5.12957c2.6781,4.02388 1.34317,8.54438 1.67208,13.14767c0.12161,1.70195 0.9956,3.44785 -0.30254,5.00547c-0.54249,0.65094 -2.18909,1.11843 -3.00775,1.39132c-3.2722,1.09073 -6.29256,2.10579 -9.82036,2.11307c-0.55692,0 -3.07877,0.0298 -3.40999,-0.12337c-1.0683,-0.49401 -2.31772,-2.75135 -2.95729,-3.71154c-2.0678,-3.1044 -3.65748,-6.03824 -3.89559,-9.83589c-0.0908,-1.44809 -0.61776,-6.04244 1.0002,-6.87798c1.9046,-0.98356 5.69746,2.39997 7.17504,3.5704c1.0642,0.8617 2.07965,1.6773 3.12638,2.50894z" fill="#bac292" stroke="none" stroke-width="0.5"/></g></g></svg>