<svg version="1.1" xmlns="http://www.w3.org/2000/svg" xmlns:xlink="http://www.w3.org/1999/xlink" width="30.02351" height="28.64872" viewBox="0,0,30.02351,28.64872"><g transform="translate(-225.00476,-160.95718)"><g data-paper-data="{&quot;isPaintingLayer&quot;:true}" fill-rule="nonzero" stroke-linecap="butt" stroke-linejoin="miter" stroke-miterlimit="10" stroke-dasharray="" stroke-dashoffset="0" style="mix-blend-mode: normal"><path d="M244.95741,185.24194c-1.52141,0 -3.03849,-0.03814 -4.55538,-0.08281c-0.00854,0.19733 -0.01859,0.39772 -0.0294,0.60164c-0.0065,0.12257 -0.05729,0.25366 -0.12182,0.38578c-0.03755,0.34418 -0.09534,0.67417 -0.18024,0.97935c0.36288,0.24551 1.91738,0.1713 2.11372,0.17161c0.38942,0.00063 2.63973,0.20858 2.87704,0.04011c0.3077,-0.21844 0.43466,-1.15751 0.48179,-2.20044zM244.95741,183.74194l0.40847,-0.09655c0,0 0.08409,-0.01682 0.20108,-0.01065c-0.00447,-0.72067 -0.02528,-1.34203 -0.02477,-1.63385c0.23483,-1.87863 0.08361,-3.79218 -0.0592,-5.70026c-0.19689,-1.04552 -0.24423,-2.06314 -0.16629,-2.69661c0.00029,-0.00233 0.00058,-0.00467 0.00087,-0.007l-0.00139,0.0001l-0.10632,-1.48847c-0.00163,-0.02017 -0.00246,-0.04057 -0.00246,-0.06116c0,-0.41421 0.33579,-0.75 0.75,-0.75c0.38611,0 0.70407,0.29176 0.74544,0.66685l0.10988,0.87902l-0.02135,0.00267l0.02569,0.04375c0.00029,0.95059 0.05888,1.90831 0.12789,2.86829c0.39307,1.66903 0.87946,3.27172 1.8023,2.56548c1.96667,-1.50506 0.3753,-7.46758 -0.16879,-9.37451c-0.31481,-0.83782 -0.62429,-1.67236 -0.97709,-2.495l-0.22041,-0.55046l-0.16344,-0.05562c-1.2924,-0.5879 -2.84366,-0.3359 -4.23133,-0.27324c-2.91841,0.13176 -7.9029,-1.20819 -10.0149,1.2942c0,0 -0.18091,0.21106 -0.45094,0.26605c-1.29343,2.36508 -2.14808,4.9797 -2.14628,7.6903c0.00026,0.39115 -0.16848,2.53654 0.32953,2.81831c1.23849,0.70073 1.88196,-0.01119 2.22474,-0.96828c0.08107,-1.14505 0.2556,-2.26401 0.59592,-3.31548c0.02942,-0.14611 0.0602,-0.29195 0.09216,-0.43749l-0.16893,-0.03754l0.21902,-0.98558c0.06882,-0.34319 0.37189,-0.60172 0.73534,-0.60172c0.41421,0 0.75,0.33579 0.75,0.75v0.77778h-0.03832l0.03384,0.08184c-0.07787,0.35653 -0.15236,0.71411 -0.21793,1.07321c0.02544,0.72425 -0.24748,1.58536 -0.33978,2.27784c-0.31415,2.35665 -0.29734,4.85962 -0.16322,7.26273c1.44918,0.00713 2.89374,0.04583 4.33712,0.08891c-0.04066,-1.04642 -0.11067,-1.97952 -0.11026,-2.27557l0.02389,-0.04398l-0.01954,-0.00244l0.10988,-0.87902c0.04137,-0.37508 0.35933,-0.66685 0.74544,-0.66685c0.3893,0 0.70933,0.29661 0.74641,0.67617l0.11011,0.99101l-0.21837,0.02426l-0.00069,0.00552c0,0.00108 0.00001,0.00215 0.00001,0.00323c0.1824,0.73046 0.25731,1.45872 0.27491,2.21767c1.50923,0.04438 3.0186,0.08213 4.53206,0.08213zM234.52265,187.11009c0.24598,0.26458 0.72295,0.03145 1.08068,0.08175c0.6992,0.07043 2.04263,0.36327 2.73373,0.16274c0.33846,-0.09821 0.44369,-1.08806 0.45397,-2.24396c-1.43496,-0.04289 -2.87105,-0.08162 -4.31177,-0.08946c-0.01706,0.76785 -0.05288,1.98539 0.04339,2.08893zM242.92863,164.07582c1.68339,-0.07704 3.29918,-0.25542 4.87978,0.39342l0.27506,0.08896c0,0 0.39623,0.13208 0.49876,0.49479c0.12602,0.12994 0.18265,0.27151 0.18265,0.27151l0.21522,0.53866c0.36945,0.86261 0.69399,1.73733 1.02291,2.61611c0.76685,2.68075 2.35323,9.02852 -0.39102,11.06993c-1.00602,0.74837 -1.81417,0.72567 -2.44725,0.2669c0.0026,0.7631 -0.03111,1.52326 -0.12545,2.27799c0.00294,1.48101 0.23738,5.40283 -1.07468,6.44105c-1.03347,0.81777 -4.82283,0.4807 -6.50223,-0.21671c-0.15559,0.17206 -0.33798,0.31484 -0.5513,0.42196c-0.74974,0.37652 -2.68004,0.02083 -3.48849,-0.05948c-0.53305,-0.07716 -1.67093,-0.17692 -2.03043,-0.58491c-0.646,-0.73316 -0.406,-3.53651 -0.40698,-4.49296c-0.00153,-1.47984 -0.10207,-3.06778 -0.11617,-4.65762c-0.75941,0.55717 -1.75008,0.68037 -2.99114,-0.04959c-0.76411,-0.44943 -0.99806,-2.19498 -1.0038,-2.95946c-0.0263,-3.50166 0.72475,-6.61808 2.42772,-9.69757c0,0 0.20243,-0.36438 0.57712,-0.39893c2.63736,-2.95695 7.48515,-1.60092 11.04972,-1.76406z" fill="#8c7a00" stroke="none" stroke-width="0.5"/><path d="M245.5893,185.11805c-0.04713,1.04294 -0.1751,2.02253 -0.48279,2.24097c-0.23731,0.16847 -2.55872,-0.01812 -2.94814,-0.01875c-0.19633,-0.00032 -1.77265,0.04605 -2.13552,-0.19945c0.0849,-0.30518 0.14047,-0.65251 0.17802,-0.99669c0.06453,-0.13211 0.11632,-0.27103 0.12282,-0.3936c0.01082,-0.20392 0.02441,-0.41504 0.03295,-0.61237c1.51689,0.04468 3.12447,0.08222 4.64588,0.08222z" data-paper-data="{&quot;noHover&quot;:false,&quot;origItem&quot;:[&quot;Path&quot;,{&quot;applyMatrix&quot;:true,&quot;selected&quot;:true,&quot;segments&quot;:[[[244.95738,185.24194],[0,0],[-1.52141,0],7],[[240.402,185.15912],[1.51689,0.04468],[-0.00854,0.19733],7],[[240.3726,185.76076],[0.01082,-0.20392],[-0.0065,0.12257],7],[[240.25078,186.14654],[0.06453,-0.13211],[-0.03755,0.34418],7],[[240.07053,187.12589],[0.0849,-0.30518],[0.36288,0.24551],7],[[242.18425,187.29751],[-0.19633,-0.00032],[0.38942,0.00063],7],[[245.06129,187.33762],[-0.23731,0.16847],[0.3077,-0.21844],7],[[245.54308,185.13718],[-0.04713,1.04294],[0,0],7]],&quot;closed&quot;:true}]}" fill="#9e8a00" stroke="none" stroke-width="0.5"/><path d="M225.75476,188.8559v-27.14872h28.52351v27.14872z" fill="#999999" stroke="#7d7d7d" stroke-width="1.5"/><path d="M225.75476,169.2559v-7.54872h28.52351v7.54872z" fill="#999999" stroke="#7d7d7d" stroke-width="1.5"/><path d="M227.48628,171.6784c0,-0.41422 0.33578,-0.75 0.75,-0.75c0.41422,0 0.75,0.33578 0.75,0.75c0,0.41422 -0.33578,0.75 -0.75,0.75c-0.41422,0 -0.75,-0.33578 -0.75,-0.75z" fill="#7d7d7d" stroke="none" stroke-width="0.5"/><path d="M232.38628,171.3784c0,-0.41422 0.33578,-0.75 0.75,-0.75c0.41422,0 0.75,0.33578 0.75,0.75c0,0.41422 -0.33578,0.75 -0.75,0.75c-0.41422,0 -0.75,-0.33578 -0.75,-0.75z" fill="#7d7d7d" stroke="none" stroke-width="0.5"/><path d="M237.78628,171.3784c0,-0.41422 0.33578,-0.75 0.75,-0.75c0.41422,0 0.75,0.33578 0.75,0.75c0,0.41422 -0.33578,0.75 -0.75,0.75c-0.41422,0 -0.75,-0.33578 -0.75,-0.75z" fill="#7d7d7d" stroke="none" stroke-width="0.5"/><path d="M243.48628,171.4784c0,-0.41422 0.33578,-0.75 0.75,-0.75c0.41422,0 0.75,0.33578 0.75,0.75c0,0.41422 -0.33578,0.75 -0.75,0.75c-0.41422,0 -0.75,-0.33578 -0.75,-0.75z" fill="#7d7d7d" stroke="none" stroke-width="0.5"/><path d="M247.28628,171.3784c0,-0.41422 0.33578,-0.75 0.75,-0.75c0.41422,0 0.75,0.33578 0.75,0.75c0,0.41422 -0.33578,0.75 -0.75,0.75c-0.41422,0 -0.75,-0.33578 -0.75,-0.75z" fill="#7d7d7d" stroke="none" stroke-width="0.5"/><path d="M251.28628,171.3784c0,-0.41422 0.33578,-0.75 0.75,-0.75c0.41422,0 0.75,0.33578 0.75,0.75c0,0.41422 -0.33578,0.75 -0.75,0.75c-0.41422,0 -0.75,-0.33578 -0.75,-0.75z" fill="#7d7d7d" stroke="none" stroke-width="0.5"/><path d="M251.38628,174.6784c0,-0.41422 0.33578,-0.75 0.75,-0.75c0.41422,0 0.75,0.33578 0.75,0.75c0,0.41422 -0.33578,0.75 -0.75,0.75c-0.41422,0 -0.75,-0.33578 -0.75,-0.75z" fill="#7d7d7d" stroke="none" stroke-width="0.5"/><path d="M251.38628,178.2784c0,-0.41422 0.33578,-0.75 0.75,-0.75c0.41422,0 0.75,0.33578 0.75,0.75c0,0.41422 -0.33578,0.75 -0.75,0.75c-0.41422,0 -0.75,-0.33578 -0.75,-0.75z" fill="#7d7d7d" stroke="none" stroke-width="0.5"/><path d="M251.48628,182.0784c0,-0.41422 0.33578,-0.75 0.75,-0.75c0.41422,0 0.75,0.33578 0.75,0.75c0,0.41422 -0.33578,0.75 -0.75,0.75c-0.41422,0 -0.75,-0.33578 -0.75,-0.75z" fill="#7d7d7d" stroke="none" stroke-width="0.5"/><path d="M251.68628,186.6784c0,-0.41422 0.33578,-0.75 0.75,-0.75c0.41422,0 0.75,0.33578 0.75,0.75c0,0.41422 -0.33578,0.75 -0.75,0.75c-0.41422,0 -0.75,-0.33578 -0.75,-0.75z" fill="#7d7d7d" stroke="none" stroke-width="0.5"/><path d="M248.38628,186.7784c0,-0.41422 0.33578,-0.75 0.75,-0.75c0.41422,0 0.75,0.33578 0.75,0.75c0,0.41422 -0.33578,0.75 -0.75,0.75c-0.41422,0 -0.75,-0.33578 -0.75,-0.75z" fill="#7d7d7d" stroke="none" stroke-width="0.5"/><path d="M244.98628,186.4784c0,-0.41422 0.33578,-0.75 0.75,-0.75c0.41422,0 0.75,0.33578 0.75,0.75c0,0.41422 -0.33578,0.75 -0.75,0.75c-0.41422,0 -0.75,-0.33578 -0.75,-0.75z" fill="#7d7d7d" stroke="none" stroke-width="0.5"/><path d="M238.58628,186.6784c0,-0.41422 0.33578,-0.75 0.75,-0.75c0.41422,0 0.75,0.33578 0.75,0.75c0,0.41422 -0.33578,0.75 -0.75,0.75c-0.41422,0 -0.75,-0.33578 -0.75,-0.75z" fill="#7d7d7d" stroke="none" stroke-width="0.5"/><path d="M232.88628,186.3784c0,-0.41422 0.33578,-0.75 0.75,-0.75c0.41422,0 0.75,0.33578 0.75,0.75c0,0.41422 -0.33578,0.75 -0.75,0.75c-0.41422,0 -0.75,-0.33578 -0.75,-0.75z" fill="#7d7d7d" stroke="none" stroke-width="0.5"/><path d="M227.38628,186.5784c0,-0.41422 0.33578,-0.75 0.75,-0.75c0.41422,0 0.75,0.33578 0.75,0.75c0,0.41422 -0.33578,0.75 -0.75,0.75c-0.41422,0 -0.75,-0.33578 -0.75,-0.75z" fill="#7d7d7d" stroke="none" stroke-width="0.5"/><path d="M227.58628,182.1784c0,-0.41422 0.33578,-0.75 0.75,-0.75c0.41422,0 0.75,0.33578 0.75,0.75c0,0.41422 -0.33578,0.75 -0.75,0.75c-0.41422,0 -0.75,-0.33578 -0.75,-0.75z" fill="#7d7d7d" stroke="none" stroke-width="0.5"/><path d="M227.38628,178.1784c0,-0.41422 0.33578,-0.75 0.75,-0.75c0.41422,0 0.75,0.33578 0.75,0.75c0,0.41422 -0.33578,0.75 -0.75,0.75c-0.41422,0 -0.75,-0.33578 -0.75,-0.75z" fill="#7d7d7d" stroke="none" stroke-width="0.5"/><path d="M227.48628,174.5784c0,-0.41422 0.33578,-0.75 0.75,-0.75c0.41422,0 0.75,0.33578 0.75,0.75c0,0.41422 -0.33578,0.75 -0.75,0.75c-0.41422,0 -0.75,-0.33578 -0.75,-0.75z" fill="#7d7d7d" stroke="none" stroke-width="0.5"/><path d="M227.18628,167.3784c0,-0.41422 0.33578,-0.75 0.75,-0.75c0.41422,0 0.75,0.33578 0.75,0.75c0,0.41422 -0.33578,0.75 -0.75,0.75c-0.41422,0 -0.75,-0.33578 -0.75,-0.75z" fill="#7d7d7d" stroke="none" stroke-width="0.5"/><path d="M227.08628,165.1784c0,-0.41422 0.33578,-0.75 0.75,-0.75c0.41422,0 0.75,0.33578 0.75,0.75c0,0.41422 -0.33578,0.75 -0.75,0.75c-0.41422,0 -0.75,-0.33578 -0.75,-0.75z" fill="#7d7d7d" stroke="none" stroke-width="0.5"/><path d="M227.08628,163.2784c0,-0.41422 0.33578,-0.75 0.75,-0.75c0.41422,0 0.75,0.33578 0.75,0.75c0,0.41422 -0.33578,0.75 -0.75,0.75c-0.41422,0 -0.75,-0.33578 -0.75,-0.75z" fill="#7d7d7d" stroke="none" stroke-width="0.5"/><path d="M231.68628,167.5784c0,-0.41422 0.33578,-0.75 0.75,-0.75c0.41422,0 0.75,0.33578 0.75,0.75c0,0.41422 -0.33578,0.75 -0.75,0.75c-0.41422,0 -0.75,-0.33578 -0.75,-0.75z" fill="#7d7d7d" stroke="none" stroke-width="0.5"/><path d="M237.78628,167.0784c0,-0.41422 0.33578,-0.75 0.75,-0.75c0.41422,0 0.75,0.33578 0.75,0.75c0,0.41422 -0.33578,0.75 -0.75,0.75c-0.41422,0 -0.75,-0.33578 -0.75,-0.75z" fill="#7d7d7d" stroke="none" stroke-width="0.5"/><path d="M243.58628,167.2784c0,-0.41422 0.33578,-0.75 0.75,-0.75c0.41422,0 0.75,0.33578 0.75,0.75c0,0.41422 -0.33578,0.75 -0.75,0.75c-0.41422,0 -0.75,-0.33578 -0.75,-0.75z" fill="#7d7d7d" stroke="none" stroke-width="0.5"/><path d="M247.58628,166.9784c0,-0.41422 0.33578,-0.75 0.75,-0.75c0.41422,0 0.75,0.33578 0.75,0.75c0,0.41422 -0.33578,0.75 -0.75,0.75c-0.41422,0 -0.75,-0.33578 -0.75,-0.75z" fill="#7d7d7d" stroke="none" stroke-width="0.5"/><path d="M250.78628,167.1784c0,-0.41422 0.33578,-0.75 0.75,-0.75c0.41422,0 0.75,0.33578 0.75,0.75c0,0.41422 -0.33578,0.75 -0.75,0.75c-0.41422,0 -0.75,-0.33578 -0.75,-0.75z" fill="#7d7d7d" stroke="none" stroke-width="0.5"/><path d="M250.98628,165.4784c0,-0.41422 0.33578,-0.75 0.75,-0.75c0.41422,0 0.75,0.33578 0.75,0.75c0,0.41422 -0.33578,0.75 -0.75,0.75c-0.41422,0 -0.75,-0.33578 -0.75,-0.75z" fill="#7d7d7d" stroke="none" stroke-width="0.5"/><path d="M251.08628,163.3784c0,-0.41422 0.33578,-0.75 0.75,-0.75c0.41422,0 0.75,0.33578 0.75,0.75c0,0.41422 -0.33578,0.75 -0.75,0.75c-0.41422,0 -0.75,-0.33578 -0.75,-0.75z" fill="#7d7d7d" stroke="none" stroke-width="0.5"/><path d="M247.98628,163.7784c0,-0.41422 0.33578,-0.75 0.75,-0.75c0.41422,0 0.75,0.33578 0.75,0.75c0,0.41422 -0.33578,0.75 -0.75,0.75c-0.41422,0 -0.75,-0.33578 -0.75,-0.75z" fill="#7d7d7d" stroke="none" stroke-width="0.5"/><path d="M243.98628,163.4784c0,-0.41422 0.33578,-0.75 0.75,-0.75c0.41422,0 0.75,0.33578 0.75,0.75c0,0.41422 -0.33578,0.75 -0.75,0.75c-0.41422,0 -0.75,-0.33578 -0.75,-0.75z" fill="#7d7d7d" stroke="none" stroke-width="0.5"/><path d="M237.28628,163.3784c0,-0.41422 0.33578,-0.75 0.75,-0.75c0.41422,0 0.75,0.33578 0.75,0.75c0,0.41422 -0.33578,0.75 -0.75,0.75c-0.41422,0 -0.75,-0.33578 -0.75,-0.75z" fill="#7d7d7d" stroke="none" stroke-width="0.5"/><path d="M231.08628,163.0784c0,-0.41422 0.33578,-0.75 0.75,-0.75c0.41422,0 0.75,0.33578 0.75,0.75c0,0.41422 -0.33578,0.75 -0.75,0.75c-0.41422,0 -0.75,-0.33578 -0.75,-0.75z" fill="#7d7d7d" stroke="none" stroke-width="0.5"/></g></g></svg>