<svg version="1.1" xmlns="http://www.w3.org/2000/svg" xmlns:xlink="http://www.w3.org/1999/xlink" width="12.00484" height="12.97925" viewBox="0,0,12.00484,12.97925"><g transform="translate(-234.29033,-169.99229)"><g data-paper-data="{&quot;isPaintingLayer&quot;:true}" fill-rule="nonzero" stroke="none" stroke-width="0.5" stroke-linecap="butt" stroke-linejoin="miter" stroke-miterlimit="10" stroke-dasharray="" stroke-dashoffset="0" style="mix-blend-mode: normal"><path d="M240.06532,179.18834c-0.10459,-0.23956 -0.0522,-0.49195 -0.0522,-0.49195c0.51924,-2.48434 0.40643,-6.25379 2.71048,-7.95303c4.21794,-3.11075 3.96272,4.31418 2.9335,6.39461c-1.20415,2.07108 -1.61728,3.08313 -4.22958,2.82147l-0.71931,-0.10493c0,0 -0.61478,-0.09037 -0.6429,-0.66618zM241.57758,178.46697c1.95677,0.19589 1.80409,-0.39663 2.75828,-2.03913c0.3638,-0.73348 1.33922,-6.20516 -0.70252,-4.49184c-1.71643,1.44034 -1.72029,4.39449 -2.05576,6.53097z" fill="#000000"/><path d="M243.64101,171.88659c2.04175,-1.71332 1.09246,3.84461 0.72866,4.57808c-0.95419,1.64251 -0.85646,2.2435 -2.81323,2.04761c0.33547,-2.13648 0.36814,-5.18535 2.08457,-6.62569z" data-paper-data="{&quot;noHover&quot;:false,&quot;origItem&quot;:[&quot;Path&quot;,{&quot;applyMatrix&quot;:true,&quot;segments&quot;:[[[483.89076,359.77985],[1.74268,-3.95871],[3.68275,1.3808]],[[490.26767,357.25009],[-2.6859,2.68685],[1.07897,-1.23174]],[[491.20979,348.20614],[4.82477,-2.26681],[-4.05604,1.90564]]],&quot;closed&quot;:true}]}" fill="#dcdcdc"/><path d="M239.51396,181.59851l-0.72427,0.06201c-2.62322,0.10601 -2.97551,-0.92879 -4.05449,-3.06775c-0.90381,-2.1379 -0.71749,-9.56488 3.3082,-6.20905c2.19903,1.83312 1.86249,5.58921 2.23323,8.1c0,0 0.03731,0.25505 -0.08133,0.48798c-0.06228,0.57312 -0.68134,0.62681 -0.68134,0.62681zM237.06442,173.5202c-1.93636,-1.83159 -1.28771,3.68838 -0.96812,4.44217c0.85493,1.69629 0.66732,2.27869 2.63227,2.19939c-0.20795,-2.15263 -0.03631,-5.1018 -1.66415,-6.64156z" data-paper-data="{&quot;index&quot;:null}" fill="#000000"/><path d="M238.74698,180.20825c-1.96495,0.0793 -1.8317,-0.51482 -2.68662,-2.21111c-0.31959,-0.75379 -0.93702,-6.3583 0.99934,-4.52671c1.62784,1.53976 1.47933,4.58519 1.68729,6.73782z" data-paper-data="{&quot;noHover&quot;:false,&quot;origItem&quot;:[&quot;Path&quot;,{&quot;applyMatrix&quot;:true,&quot;segments&quot;:[[[483.89076,359.77985],[1.74268,-3.95871],[3.68275,1.3808]],[[490.26767,357.25009],[-2.6859,2.68685],[1.07897,-1.23174]],[[491.20979,348.20614],[4.82477,-2.26681],[-4.05604,1.90564]]],&quot;closed&quot;:true}],&quot;index&quot;:null}" fill="#dcdcdc"/><path d="M241.3198,182.52603c-0.82197,0.54565 -1.5729,0.54958 -2.17404,0.23029c-0.83731,-0.1391 -1.5828,-0.56368 -1.9694,-1.33109c-0.95931,-1.38429 0.24689,-3.98524 1.78028,-4.3753c0.45569,-0.11592 1.71746,0.27012 2.13599,0.37887c0.56873,0.37316 1.15281,0.67123 1.53985,1.26541c1.20922,1.85639 0.18624,3.2594 -1.31268,3.83181z" fill="#000000"/></g></g></svg>