<svg version="1.1" xmlns="http://www.w3.org/2000/svg" xmlns:xlink="http://www.w3.org/1999/xlink" width="38.566" height="37.60704" viewBox="0,0,38.566,37.60704"><g transform="translate(-220.77004,-161.16297)"><g data-paper-data="{&quot;isPaintingLayer&quot;:true}" fill-rule="nonzero" stroke="#82684d" stroke-width="1.5" stroke-linecap="round" stroke-linejoin="miter" stroke-miterlimit="10" stroke-dasharray="" stroke-dashoffset="0" style="mix-blend-mode: normal"><path d="M258.48545,174.37955l-3.74947,7.49894l2.77738,7.2212l0.41661,8.05441l-8.47102,-1.66643l-11.38727,1.94417l-16.10882,0.55548l3.6106,-16.80317l-4.02721,-6.94346l0.69435,-5.4159l29.16253,-6.80459z" fill="#98795a"/><path d="M256.12466,172.01877l-10.97066,3.19399l-12.35936,6.24911l-6.66572,-0.97208l-1.66643,-2.49965l23.74663,-11.52614l7.36007,3.74947z" fill="#98795a"/><path d="M255.01371,169.93573l-11.10953,2.36078l-10.69293,5.83251l-9.0265,-0.83322l-1.94417,-2.63851l0.55548,-4.99929l28.05157,-7.36007l3.74947,5.83251z" fill="#9f7f5e"/><path d="M246.9593,181.73961l-11.2484,10.13745l-11.52614,-1.38869l1.8053,-9.72084l6.52685,0.55548l13.33144,-5.4159l1.24982,5.55477l6.94346,0.13887" fill="#9f7f5e"/><path d="M235.98863,192.43253l12.77596,2.36078" fill="none"/></g></g></svg>