<svg version="1.1" xmlns="http://www.w3.org/2000/svg" xmlns:xlink="http://www.w3.org/1999/xlink" width="32.5" height="34.87333" viewBox="0,0,32.5,34.87333"><defs><linearGradient x1="240" y1="163.31334" x2="240" y2="178.60779" gradientUnits="userSpaceOnUse" id="color-1"><stop offset="0" stop-color="#707070"/><stop offset="1" stop-color="#252525"/></linearGradient><linearGradient x1="239.3889" y1="173.387" x2="239.3889" y2="191.87748" gradientUnits="userSpaceOnUse" id="color-2"><stop offset="0" stop-color="#b8b0a2"/><stop offset="1" stop-color="#918d84"/></linearGradient><linearGradient x1="239.41904" y1="174.83511" x2="239.41904" y2="190.42307" gradientUnits="userSpaceOnUse" id="color-3"><stop offset="0" stop-color="#c4bcad"/><stop offset="1" stop-color="#a8a399"/></linearGradient><linearGradient x1="239.27778" y1="188.62874" x2="239.27778" y2="194.45955" gradientUnits="userSpaceOnUse" id="color-4"><stop offset="0" stop-color="#3d3d3d"/><stop offset="1" stop-color="#272727"/></linearGradient></defs><g transform="translate(-223.75,-162.56334)"><g data-paper-data="{&quot;isPaintingLayer&quot;:true}" fill-rule="nonzero" stroke-linejoin="miter" stroke-miterlimit="10" stroke-dasharray="" stroke-dashoffset="0" style="mix-blend-mode: normal"><path d="M224.5,178.60779v-15.29445h31v15.29445z" fill="url(#color-1)" stroke="#7d7d7d" stroke-width="1.5" stroke-linecap="butt"/><path d="M225.40362,179.96747l-0.77777,-0.88889" fill="none" stroke="#7d7d7d" stroke-width="1.5" stroke-linecap="round"/><path d="M254.29251,180.3008l1.11111,-1" fill="none" stroke="#7d7d7d" stroke-width="1.5" stroke-linecap="round"/><path d="M251.65014,185.42249c0.25478,0.64097 0.3391,1.36889 0.25501,2.0535c-2.34197,5.51464 -11.43477,4.80752 -16.37263,3.40753c-2.43278,-0.69543 -5.99752,-1.19439 -7.7073,-3.24565c-1.40929,-1.69076 -1.29695,-5.01244 0.28623,-6.68368c-0.01848,-0.13153 -0.00424,-0.23121 -0.00424,-0.23121c0.57246,-3.94842 4.07429,-5.61136 7.84853,-5.08084l0.45157,0.18276c0,0 0.06103,0.03051 0.13707,0.09155c1.26784,-0.86945 3.05415,-1.01848 4.72155,-0.92818c0.06939,-0.14998 0.16452,-0.24511 0.16452,-0.24511c2.19049,-2.17197 5.66132,-1.6338 7.37659,0.89209l0.38012,0.74728c0,0 0.25846,0.51693 -0.13217,0.87012c1.03316,0.64836 1.42939,1.73699 1.43357,3.57641v0.32679c1.1298,0.91385 1.63928,2.21118 1.19337,3.87925l-0.06949,0.15133zM230.3486,180.623c0.20604,0.72115 -0.51511,0.92719 -0.51511,0.92719c-1.81014,0.35712 -1.78026,3.96809 -0.84825,5.1367c1.40161,1.75743 4.92384,2.17305 6.95937,2.75435c3.91727,1.12897 12.57602,2.09631 14.51626,-2.37025c0.06622,-0.35198 -0.03426,-0.73483 -0.18944,-1.05761l-0.15719,-0.70391c0,0 -0.00822,-0.04108 -0.01105,-0.10576c-0.03929,-0.25793 0.07567,-0.48784 0.07567,-0.48784l0.06079,-0.09286c0.46059,-1.47033 -0.39993,-2.33759 -1.68541,-2.88237c0,0 -0.68936,-0.29544 -0.39392,-0.9848c0.20458,-0.47734 0.59802,-0.4825 0.82068,-0.44052c-0.0627,-1.7195 -0.54032,-2.02517 -2.45961,-2.29936c0,0 -0.74246,-0.10607 -0.6364,-0.84853c0.10607,-0.74246 0.84852,-0.63639 0.84852,-0.63639c0.34142,0.04878 0.65529,0.10717 0.9433,0.17728l-0.11784,-0.24102c-0.96232,-1.4791 -2.8109,-1.99581 -4.25948,-1.25715l0.88768,1.06127c0,0 0.33541,0.67082 -0.33541,1.00623c-0.67082,0.33541 -1.00623,-0.33541 -1.00623,-0.33541l0.23142,-0.25961c-1.74529,-0.24932 -5.64609,-0.77027 -6.4268,1.33076c0,0 -0.29543,0.68936 -0.98479,0.39392c-0.68936,-0.29544 -0.39392,-0.9848 -0.39392,-0.9848c0.05391,-0.11625 0.1122,-0.22736 0.1746,-0.33354c-2.56216,-0.28308 -4.91323,0.62747 -5.66473,3.00157c0.2123,0.03248 0.45985,0.15639 0.5673,0.53248z" fill="url(#color-2)" stroke="none" stroke-width="0.5" stroke-linecap="butt"/><path d="M229.73295,180.07778c0.7515,-2.3741 3.12178,-3.31254 5.68394,-3.02946c-0.0624,0.10618 -0.06041,0.29704 -0.11432,0.41329c0,0 -0.35979,0.61286 0.32957,0.9083c0.68936,0.29544 0.99229,-0.39943 0.99229,-0.39943c0.78071,-2.10103 4.7334,-1.57979 6.47869,-1.33047l-0.23181,0.25938c0,0 0.3415,0.67514 1.01232,0.33973c0.67082,-0.33541 0.27355,-0.92771 0.27355,-0.92771l-0.83452,-1.14559c1.44859,-0.73866 3.31385,-0.20783 4.27617,1.27127l0.03736,0.30035c-0.288,-0.07011 -0.59965,-0.12562 -0.94106,-0.1744c0,0 -0.66588,-0.17037 -0.77195,0.57209c-0.10607,0.74246 0.64013,0.85356 0.64013,0.85356c1.9193,0.27418 2.40358,0.59533 2.46628,2.31483c-0.22267,-0.04198 -0.61581,-0.03554 -0.82039,0.4418c-0.29544,0.68936 0.39479,0.99043 0.39479,0.99043c1.28547,0.54478 2.14541,1.42596 1.68482,2.89629l-0.06088,0.09331c0,0 -0.11543,0.23211 -0.07614,0.49004c0.00284,0.06468 0.01094,0.10621 0.01094,0.10621l0.15642,0.70664c0.15518,0.32279 0.25431,0.70941 0.1881,1.06139c-1.94024,4.46656 -10.66811,3.52511 -14.58539,2.39614c-2.03553,-0.5813 -5.58163,-1.02335 -6.98324,-2.78078c-0.93201,-1.16861 -0.96496,-4.80329 0.84518,-5.16042c0,0 0.72201,-0.21125 0.51597,-0.93239c-0.10745,-0.37608 -0.35453,-0.50193 -0.56682,-0.53441z" data-paper-data="{&quot;noHover&quot;:false,&quot;origItem&quot;:[&quot;Path&quot;,{&quot;applyMatrix&quot;:true,&quot;segments&quot;:[[[460.47497,347.02378],[-0.21491,-0.75217],[0.41208,1.44229]],[[459.44476,348.87815],[0,0],[-3.62027,0.71425]],[[457.74825,359.15155],[-1.86401,-2.33721],[2.80322,3.51485]],[[471.66698,364.66025],[-4.07106,-1.1626],[7.83455,2.25795]],[[500.6995,359.91975],[-3.88048,8.93312],[0.13244,-0.70395]],[[500.32063,357.80452],[0.31036,0.64557],[0,0]],[500.00625,356.39671],[[499.98414,356.18518],[0.00568,0.12937],[-0.07858,-0.51586]],[500.13548,355.20949],[[500.25706,355.02378],[0,0],[0.92117,-2.94066]],[[496.88625,349.25903],[2.57095,1.08956],[0,0]],[[496.09841,347.28943],[-0.59088,1.37872],[0.40915,-0.95467]],[[497.73978,346.4084],[-0.44533,-0.08396],[-0.1254,-3.439]],[[492.82055,341.80968],[3.83859,0.54837],[0,0]],[[491.54776,340.11262],[-0.21213,1.48492],[0.21213,-1.48492]],[[493.24481,338.83983],[0,0],[0.68283,0.09755]],[[495.1314,339.19439],[-0.576,-0.14022],[0,0]],[[494.89572,338.71236],[0,0],[-1.92464,-2.95819]],[[486.37675,336.19807],[2.89717,-1.47733],[0,0]],[488.1521,338.3206],[[487.48128,340.33306],[1.34164,-0.67082],[-1.34164,0.67082]],[485.46882,339.66224],[[485.93166,339.14301],[0,0],[-3.49058,-0.49865]],[[473.07806,341.80452],[1.56142,-4.20206],[0,0]],[[471.10847,342.59236],[1.37872,0.59088],[-1.37872,-0.59088]],[[470.32063,340.62276],[0,0],[0.10782,-0.2325]],[[470.66983,339.95569],[-0.1248,0.21235],[-5.12433,-0.56616]],[[459.34037,345.95883],[1.50299,-4.74819],[0.42459,0.06495]]],&quot;closed&quot;:true}]}" fill="url(#color-3)" stroke="none" stroke-width="0.5" stroke-linecap="butt"/><path d="M235.8219,181.05127c0,0.75 -0.75,0.75 -0.75,0.75h-0.33333c-1.26701,-0.0033 -1.81048,0.31356 -2.31064,1.54544c0,0 -0.29544,0.68936 -0.9848,0.39392c-0.68936,-0.29544 -0.39392,-0.9848 -0.39392,-0.9848c0.77376,-1.73925 1.78927,-2.45024 3.68936,-2.45456h0.33333c0,0 0.75,0 0.75,0.75z" fill="#918d84" stroke="none" stroke-width="0.5" stroke-linecap="butt"/><path d="M242.85383,179.72001c-0.33541,0.67082 -1.00623,0.33541 -1.00623,0.33541l-0.62669,-0.3148c-0.5296,-0.39724 -1.39877,0.36116 -1.74719,0.94888c0,0 -0.41602,0.62404 -1.04006,0.20802c-0.62404,-0.41602 -0.20801,-1.04006 -0.20801,-1.04006c0.92621,-1.30114 2.05712,-1.99523 3.58615,-1.49555l0.70664,0.35187c0,0 0.67082,0.33541 0.33541,1.00623z" fill="#918d84" stroke="none" stroke-width="0.5" stroke-linecap="butt"/><path d="M247.04667,183.80382c-0.53033,0.53033 -1.06066,0 -1.06066,0l-0.22223,-0.22222c-0.51579,-0.59365 -0.62646,-0.48803 -1.37474,-0.25363c0,0 -0.72114,0.20604 -0.92718,-0.51511c-0.20604,-0.72115 0.5151,-0.92718 0.5151,-0.92718c1.29119,-0.34517 1.85944,-0.28113 2.84748,0.63526l0.22223,0.22222c0,0 0.53033,0.53033 0,1.06066z" fill="#918d84" stroke="none" stroke-width="0.5" stroke-linecap="butt"/><path d="M239.37745,183.49571c0,0.75 -0.75,0.75 -0.75,0.75l-0.22727,-0.00754c-1.0985,0.15427 -1.66406,0.49389 -2.57893,1.1038c0,0 -0.62404,0.41602 -1.04006,-0.20802c-0.41602,-0.62404 0.20801,-1.04006 0.20801,-1.04006c1.08492,-0.72328 1.8912,-1.15106 3.19885,-1.34065l0.4394,-0.00753c0,0 0.75,0 0.75,0.75z" fill="#918d84" stroke="none" stroke-width="0.5" stroke-linecap="butt"/><path d="M224.5,178.60779v-15.29445h31v15.29445z" fill="none" stroke="#7d7d7d" stroke-width="1.5" stroke-linecap="butt"/><path d="M225.89584,196.68666v-17.16363h26.76389v17.16364z" fill="#7c583f" stroke="#704f39" stroke-width="1.5" stroke-linecap="butt"/><path d="M254.73696,179.3008l-4.79869,7.44444h-21.04879l-3.70808,-7.55555z" fill="#999999" stroke="#7d7d7d" stroke-width="1.5" stroke-linecap="round"/><path d="M225.89584,196.68666v-10.28503h26.76389v10.28503z" fill="#9a6d4e" stroke="#704f39" stroke-width="1.5" stroke-linecap="butt"/><path d="M242.53617,191.54415c0,1.61013 -1.45883,2.9154 -3.25839,2.9154c-1.79956,0 -3.25839,-1.30527 -3.25839,-2.9154c0,-1.61013 1.45883,-2.9154 3.25839,-2.9154c1.79956,0 3.25839,1.30527 3.25839,2.9154z" fill="url(#color-4)" stroke="#704f39" stroke-width="1.5" stroke-linecap="butt"/><path d="M227.09807,188.69719c0,-0.41421 0.33579,-0.75 0.75,-0.75c0.41421,0 0.75,0.33579 0.75,0.75c0,0.41421 -0.33579,0.75 -0.75,0.75c-0.41421,0 -0.75,-0.33579 -0.75,-0.75z" fill="#00ff5f" stroke="none" stroke-width="0.5" stroke-linecap="butt"/></g></g></svg>