<svg version="1.1" xmlns="http://www.w3.org/2000/svg" xmlns:xlink="http://www.w3.org/1999/xlink" width="29.75569" height="29.2734" viewBox="0,0,29.75569,29.2734"><g transform="translate(-225.12216,-165.3633)"><g data-paper-data="{&quot;isPaintingLayer&quot;:true}" fill-rule="nonzero" stroke="none" stroke-width="0.5" stroke-linecap="butt" stroke-linejoin="miter" stroke-miterlimit="10" stroke-dasharray="" stroke-dashoffset="0" style="mix-blend-mode: normal"><path d="M229.1879,173.37269c1.30231,-1.62091 3.71699,-2.46235 5.56719,-3.16019c5.32665,-2.00905 11.34637,-1.37394 14.93657,3.37407c6.42416,8.36862 -1.40083,20.69674 -11.5271,19.29819c-4.46922,-0.56937 -10.58383,-5.87394 -11.25969,-10.42888c-0.46756,-3.15116 0.56873,-5.55948 1.99626,-8.21828l0.12406,-0.15416c0,0 0.24807,-0.33703 0.16272,-0.71075z" data-paper-data="{&quot;noHover&quot;:false,&quot;origItem&quot;:[&quot;Path&quot;,{&quot;applyMatrix&quot;:true,&quot;segments&quot;:[[461.79205,256.51809],[[461.57425,256.7885],[0,0],[-2.51619,4.68647]],[[458.07109,271.20873],[-0.82414,-5.55431],[1.19129,8.02865]],[[477.82886,289.50257],[-7.87755,-1.00359],[17.84882,2.46512]],[[498.05541,255.64538],[11.32339,14.75074],[-6.32818,-8.36895]],[[471.84818,249.73122],[9.38889,-3.5412],[-3.26121,1.23003]],[[462.07578,255.26964],[2.29549,-2.85706],[0.15045,0.65872]]],&quot;closed&quot;:true}]}" fill="#e6d0a9"/><path d="M242.06658,188.74435c0.0516,-0.11908 0.12566,-0.20362 0.20996,-0.26301c0.12588,-0.32804 0.6177,-0.38208 0.6177,-0.38208c0.52791,-0.05708 1.06194,-0.08928 1.59505,-0.08981l0.72551,-0.07972c0.03871,-0.00474 0.0784,-0.0072 0.11884,-0.0072c0.41421,0 0.75,0.2583 0.75,0.57692c0,0.20343 -0.13688,0.38227 -0.34365,0.48499l-0.65699,0.33692l-0.07475,-0.08625c-0.43279,0.28215 -0.89169,0.34772 -1.89684,0.35408l-0.5705,-0.11508c0,0 -0.71151,-0.18244 -0.47434,-0.72975z" fill="#66c7ff"/><path d="M254.65159,171.18946c0.37195,0.65127 -0.27933,1.02322 -0.27933,1.02322l-0.11596,0.06622c-0.88569,0.50534 -1.79273,0.97498 -2.7166,1.40658c0,0 -0.67964,0.31716 -0.9968,-0.36247c-0.31716,-0.67964 0.36247,-0.9968 0.36247,-0.9968c0.88696,-0.41345 1.75748,-0.86418 2.60704,-1.34986l0.11596,-0.06622c0,0 0.65127,-0.37195 1.02322,0.27933z" fill="#8c5900"/><path d="M244.44476,165.70029c0.75,0 0.75,0.75 0.75,0.75l-0.02643,0.64178c-0.11111,0.40741 -0.22222,0.81481 -0.33333,1.22222c0,0 -0.19734,0.72357 -0.92091,0.52623c-0.72357,-0.19734 -0.52623,-0.92091 -0.52623,-0.92091c0.11111,-0.40741 0.22222,-0.81481 0.33333,-1.22222l-0.02643,-0.24711c0,0 0,-0.75 0.75,-0.75z" fill="#8c5900"/><path d="M234.02554,166.36441c0.53033,-0.53033 1.06066,0 1.06066,0l0.41743,0.43357c0.25926,0.37037 0.51852,0.74074 0.77778,1.11111c0,0 0.4301,0.61442 -0.18433,1.04452c-0.61442,0.4301 -1.04452,-0.18433 -1.04452,-0.18433c-0.25926,-0.37037 -0.51852,-0.74074 -0.77778,-1.11111l-0.24924,-0.2331c0,0 -0.53033,-0.53033 0,-1.06066z" fill="#8c5900"/><path d="M225.93183,171.25649c0.41603,-0.62404 1.04006,-0.20801 1.04006,-0.20801l0.37776,0.25425c0.33333,0.25926 0.66667,0.51852 1,0.77778c0,0 0.59201,0.46046 0.13156,1.05247c-0.46046,0.59201 -1.05247,0.13156 -1.05247,0.13156c-0.33333,-0.25926 -0.66667,-0.51852 -1,-0.77778l-0.2889,-0.1902c0,0 -0.62404,-0.41603 -0.20801,-1.04006z" fill="#8c5900"/><path d="M229.07228,174.11507l-0.12357,0.15341c-1.42752,2.6588 -2.45503,5.02995 -1.98747,8.18111c0.67586,4.55494 6.74007,9.80938 11.20929,10.37875c10.12628,1.39855 17.89941,-10.83977 11.47525,-19.2084c-3.5902,-4.74801 -9.54165,-5.36436 -14.8683,-3.35531c-1.8502,0.69784 -4.24192,1.52123 -5.54423,3.14214c0.08536,0.37372 -0.16097,0.70829 -0.16097,0.70829zM227.12873,173.58781c1.35394,-2.70216 4.35479,-3.89944 7.048,-4.91564c6.05692,-2.28541 12.73216,-1.40953 16.82251,3.9158c7.27258,9.5944 -1.42149,23.49509 -13.05869,21.92677c-5.24769,-0.75258 -11.83515,-6.46649 -12.66285,-11.81508c-0.4949,-3.19808 0.40679,-5.80703 1.7849,-8.50002c-0.07753,-0.31392 0.06612,-0.61183 0.06612,-0.61183z" data-paper-data="{&quot;index&quot;:null}" fill="#8d7f67"/><path d="M235.10262,187.04498c-0.05467,-0.32819 -0.09999,-0.6521 -0.13732,-0.974c-0.61991,-0.00989 -1.23969,-0.016 -1.85922,-0.01682c-0.00022,0.04725 -0.00045,0.09449 -0.00071,0.14174c-0.00187,0.33801 -0.40187,0.94877 -0.06975,1.01164c0.65393,0.12378 1.34507,0.19083 2.05924,0.21905zM236.78147,186.76517l0.00907,0.66541c0.59909,-0.01714 1.20604,-0.05058 1.81336,-0.09086l-0.10595,-0.64811c0,-0.17971 -0.00272,-0.35746 -0.0084,-0.53363c-0.60177,-0.01837 -1.20357,-0.03582 -1.80534,-0.051c0.02809,0.21766 0.06033,0.43677 0.09725,0.6582zM240.19417,186.55122l0.11331,0.66488c0.95273,-0.07099 1.88879,-0.13694 2.77843,-0.16027c-0.05217,-0.16028 -0.05217,-0.29259 -0.05217,-0.29259c0,-0.15142 0,-0.30882 0,-0.47079c-0.94716,-0.02263 -1.89501,-0.05148 -2.84318,-0.08125c0.00241,0.11257 0.0036,0.22587 0.0036,0.34002zM244.73575,182.50822c0,0.70501 0,1.41002 0,2.11502c0.48128,0.00673 0.96231,0.01102 1.44305,0.01218c-0.07853,-0.34968 -0.13605,-0.7079 -0.1649,-1.08148c-0.02866,-0.37113 0.52351,-1.03799 0.15745,-1.10556c-0.39806,-0.07347 -0.89766,-0.06983 -1.44214,-0.02647c0.00654,0.05318 0.00654,0.08631 0.00654,0.08631zM244.73575,186.33774v0.4255c0,0 -0.00001,0.07961 -0.02435,0.19012c0.76902,-0.1162 1.5717,-0.27148 2.2216,-0.02948c-0.08753,-0.22546 -0.17341,-0.44808 -0.25548,-0.66976l-0.23977,0.08363c-0.56696,0 -1.13433,-0.00454 -1.70201,-0.01248c0,0.00416 0,0.00832 0,0.01248zM233.1054,183.07434c0.00019,0.42592 0.00119,0.85187 0.00189,1.27782c0.57554,0.00077 1.15131,0.00609 1.72721,0.01478c-0.01781,-0.42977 -0.0257,-0.86313 -0.02695,-1.30547c-0.56817,0.00663 -1.13573,0.01092 -1.70216,0.01287zM238.32828,184.45106c-0.07895,-0.48342 -0.1881,-0.96426 -0.33288,-1.4513c-0.49516,0.01341 -0.99057,0.02503 -1.48591,0.03487c0.00104,0.46465 0.00941,0.91759 0.0298,1.36672c0.5963,0.01467 1.19266,0.03167 1.789,0.0497zM243.03374,184.59044c0,-0.68206 0,-1.36232 0,-1.959c-0.82031,0.12123 -1.61792,0.24787 -2.23067,0.27295c-0.35312,0.01445 -0.7067,0.02798 -1.06062,0.0406c0.13437,0.52338 0.23776,1.03939 0.3115,1.5599c0.99375,0.03128 1.98716,0.06184 2.97978,0.08555zM231.47154,182.59562c-0.04248,-0.10096 -0.06818,-0.22316 -0.06818,-0.37107c0,-0.851 0.851,-0.851 0.851,-0.851h0.14183c3.89166,0 7.83617,-0.10555 11.72983,-0.28261c0.69369,-0.03154 2.53378,-0.40154 3.14547,0.05878c1.17558,0.88467 1.06152,6.18688 0.65669,7.15489c-4.18027,0.51578 -8.22706,0.56786 -12.43664,0.44393c-0.39989,-0.01177 -3.1076,0.06381 -3.45111,-0.16027c-1.2515,-0.81638 -0.63708,-4.41808 -0.63708,-5.65456c0,0 -0.00001,-0.15815 0.06818,-0.3381z" fill="#000000"/><path d="M244.69611,182.37584c0.54448,-0.04336 1.10701,-0.04918 1.50507,0.02429c0.36606,0.06756 -0.1594,0.78729 -0.13074,1.15842c0.02885,0.37358 0.05877,0.77599 0.1373,1.12567c-0.48074,-0.00115 -1.02326,-0.00777 -1.50454,-0.0145c0,-0.70501 -0.00217,-1.50136 -0.00217,-2.20637c0,0 0.00161,-0.03433 -0.00492,-0.08751z" data-paper-data="{&quot;noHover&quot;:false,&quot;origItem&quot;:[&quot;Path&quot;,{&quot;applyMatrix&quot;:true,&quot;selected&quot;:true,&quot;segments&quot;:[[[244.5817,157.32764],[0,0],[0,0.70501],7],[[244.5817,159.44267],[0,-0.70501],[0.48128,0.00673],7],[[246.02475,159.45484],[-0.48074,-0.00115],[-0.07853,-0.34968],7],[[245.85985,158.37336],[0.02885,0.37358],[-0.02866,-0.37113],7],[[246.01731,157.26781],[0.36606,0.06756],[-0.39806,-0.07347],7],[[244.57517,157.24133],[0.54448,-0.04336],[0.00654,0.05318],7]],&quot;closed&quot;:true}]}" fill="#ffb900"/><path d="M244.68079,186.31117c0.56768,0.00794 1.24208,0.00406 1.80904,0.00406l0.2402,-0.08259c0.08207,0.22168 0.16994,0.48148 0.25748,0.70694c-0.64991,-0.242 -1.56121,-0.0854 -2.33023,0.03081c0.02434,-0.11051 0.02233,-0.19891 0.02233,-0.19891l0.00103,-0.44723c0,-0.00416 0.00015,-0.00891 0.00015,-0.01308z" data-paper-data="{&quot;noHover&quot;:false,&quot;origItem&quot;:[&quot;Path&quot;,{&quot;applyMatrix&quot;:true,&quot;selected&quot;:true,&quot;segments&quot;:[[[244.5817,161.15716],[0,-0.00416],[0,0],7],[[244.5817,161.58266],[0,0],[0,0],7],[[244.55735,161.77278],[0.02434,-0.11051],[0.76902,-0.1162],7],[[246.77895,161.7433],[-0.64991,-0.242],[-0.08753,-0.22546],7],[[246.52348,161.07353],[0.08207,0.22168],[0,0],7],[[246.28371,161.15716],[0,0],[-0.56696,0],7],[[244.5817,161.14468],[0.56768,0.00794],[0,0.00416],7]],&quot;closed&quot;:true}]}" fill="#ffb900"/><path d="M240.13697,186.1926c0.94817,0.02977 2.00393,0.06083 2.95109,0.08346c0,0.16197 0.00238,0.33778 0.00238,0.4892c0,0 -0.00149,0.14334 0.05068,0.30362c-0.88964,0.02333 -1.93399,0.09627 -2.88672,0.16726l-0.11662,-0.69126c0,-0.11415 0.00158,-0.23971 -0.00082,-0.35228z" data-paper-data="{&quot;noHover&quot;:false,&quot;origItem&quot;:[&quot;Path&quot;,{&quot;applyMatrix&quot;:true,&quot;selected&quot;:true,&quot;segments&quot;:[[[240.04012,161.37064],[0,-0.11415],[0,0],7],[[240.15343,162.03551],[0,0],[0.95273,-0.07099],7],[[242.93186,161.87525],[-0.88964,0.02333],[-0.05217,-0.16028],7],[[242.87969,161.58266],[0,0],[0,-0.15142],7],[[242.87969,161.11187],[0,0.16197],[-0.94716,-0.02263],7],[[240.03651,161.03062],[0.94817,0.02977],[0.00241,0.11257],7]],&quot;closed&quot;:true}]}" fill="#ffb900"/><path d="M240.00683,184.53647c-0.07374,-0.52051 -0.18259,-1.08938 -0.31696,-1.61276c0.35392,-0.01262 0.7239,-0.04856 1.07703,-0.06301c0.61275,-0.02508 1.49529,-0.13704 2.3156,-0.25827c0,0.59668 0,1.33497 0,2.01703c-0.99263,-0.02371 -2.08192,-0.05171 -3.07567,-0.08299z" data-paper-data="{&quot;noHover&quot;:false,&quot;origItem&quot;:[&quot;Path&quot;,{&quot;applyMatrix&quot;:true,&quot;selected&quot;:true,&quot;segments&quot;:[[[242.87969,159.40986],[-0.99263,-0.02371],[0,-0.68206],7],[[242.87969,157.45086],[0,0.59668],[-0.82031,0.12123],7],[[240.64903,157.72381],[0.61275,-0.02508],[-0.35312,0.01445],7],[[239.58841,157.76441],[0.35392,-0.01262],[0.13437,0.52338],7],[[239.89991,159.32431],[-0.07374,-0.52051],[0.99375,0.03128],7]],&quot;closed&quot;:true}]}" fill="#ffb900"/><path d="M236.4943,184.43592c-0.02038,-0.44913 -0.02895,-0.97095 -0.02999,-1.4356c0.49534,-0.00984 1.07122,-0.03157 1.56638,-0.04498c0.14478,0.48704 0.26299,1.04769 0.34194,1.5311c-0.59633,-0.01803 -1.28202,-0.03585 -1.87833,-0.05052z" data-paper-data="{&quot;noHover&quot;:false,&quot;origItem&quot;:[&quot;Path&quot;,{&quot;applyMatrix&quot;:true,&quot;selected&quot;:true,&quot;segments&quot;:[[[238.17423,159.27048],[-0.59633,-0.01803],[-0.07895,-0.48342],7],[[237.84135,157.81918],[0.14478,0.48704],[-0.49516,0.01341],7],[[236.35544,157.85406],[0.49534,-0.00984],[0.00104,0.46465],7],[[236.38524,159.22077],[-0.02038,-0.44913],[0.5963,0.01467],7]],&quot;closed&quot;:true}]}" fill="#ffb900"/><path d="M236.63751,186.07477c0.60177,0.01518 1.29627,0.03161 1.89804,0.04998c0.00567,0.17617 0.01891,0.38204 0.01891,0.56175l0.09821,0.68222c-0.60732,0.04029 -1.30787,0.07948 -1.90696,0.09663l-0.02097,-0.70041c-0.03692,-0.22143 -0.05914,-0.4725 -0.08723,-0.69017z" data-paper-data="{&quot;noHover&quot;:false,&quot;origItem&quot;:[&quot;Path&quot;,{&quot;applyMatrix&quot;:true,&quot;selected&quot;:true,&quot;segments&quot;:[[[236.62742,161.58459],[-0.03692,-0.22143],[0,0],7],[[236.63649,162.25],[0,0],[0.59909,-0.01714],7],[[238.44986,162.15913],[-0.60732,0.04029],[0,0],7],[[238.34391,161.51102],[0,0],[0,-0.17971],7],[[238.33551,160.97739],[0.00567,0.17617],[-0.60177,-0.01837],7],[[236.53017,160.92639],[0.60177,0.01518],[0.02809,0.21766],7]],&quot;closed&quot;:true}]}" fill="#ffb900"/><path d="M235.14289,187.45679c-0.71417,-0.02822 -1.50442,-0.1008 -2.15836,-0.22458c-0.33212,-0.06287 0.07046,-0.72772 0.07233,-1.06572c0.00026,-0.04725 0.00395,-0.09954 0.00416,-0.14679c0.61953,0.00082 1.33094,0.00899 1.95085,0.01888c0.03733,0.3219 0.09075,0.69336 0.14543,1.02155z" data-paper-data="{&quot;noHover&quot;:false,&quot;origItem&quot;:[&quot;Path&quot;,{&quot;applyMatrix&quot;:true,&quot;selected&quot;:true,&quot;segments&quot;:[[[234.94857,161.8644],[0,0],[-0.05467,-0.32819],7],[[234.81125,160.8904],[0.03733,0.3219],[-0.61991,-0.00989],7],[[232.95203,160.87359],[0.61953,0.00082],[-0.00022,0.04725],7],[[232.95132,161.01533],[0.00026,-0.04725],[-0.00187,0.33801],7],[[232.88157,162.02697],[-0.33212,-0.06287],[0.65393,0.12378],7],[[234.9408,162.24602],[-0.71417,-0.02822],[0,0],7]],&quot;closed&quot;:true}]}" fill="#ffb900"/><path d="M234.8523,183.0266c0.00125,0.44235 0.00967,0.94476 0.02748,1.37453c-0.5759,-0.00869 -1.24256,-0.01447 -1.8181,-0.01524c-0.00071,-0.42596 -0.00169,-0.91938 -0.00188,-1.34531c0.56643,-0.00195 1.22434,-0.00736 1.79251,-0.01399z" data-paper-data="{&quot;noHover&quot;:false,&quot;origItem&quot;:[&quot;Path&quot;,{&quot;applyMatrix&quot;:true,&quot;selected&quot;:true,&quot;segments&quot;:[[[232.95135,157.89376],[0.56643,-0.00195],[0.00019,0.42592],7],[[232.95324,159.17158],[-0.00071,-0.42596],[0.57554,0.00077],7],[[234.68045,159.18637],[-0.5759,-0.00869],[-0.01781,-0.42977],7],[[234.6535,157.88089],[0.00125,0.44235],[-0.56817,0.00663],7]],&quot;closed&quot;:true}]}" fill="#ffb900"/><path d="M245.01737,174.04228c-0.9108,0.77651 -3.17605,2.91751 -1.99926,3.67173c0.41216,0.26416 2.50255,0.19021 2.87619,0.20454c0.86631,0.03322 1.8994,0.74679 2.59115,0.22422c0.43284,-0.32698 -0.45148,-0.987 -0.7007,-1.46883c-0.58353,-1.12816 -0.75513,-2.30792 -2.10539,-2.54125l-0.228,0.02027c0,0 -0.21845,0.00001 -0.43399,-0.11068zM245.39862,172.45392c0.03319,-0.00297 0.05275,-0.00297 0.05275,-0.00297l0.59722,0.02027c1.88376,0.4754 5.41395,4.84063 3.58932,6.92403c-0.79954,0.91294 -6.9065,0.33893 -7.73611,-0.39645c-2.38603,-2.11504 0.8779,-5.41985 2.42005,-6.58394c0,0 0.5847,-0.43852 1.07676,0.03907z" fill="#000000"/><path d="M245.446,174.09648l0.23432,-0.02051c1.35026,0.23333 1.57623,1.48238 2.15977,2.61054c0.24922,0.48183 1.12495,1.16144 0.69211,1.48842c-0.69175,0.52257 -1.76348,-0.16701 -2.62979,-0.20023c-0.37365,-0.01433 -2.52119,0.03197 -2.93335,-0.23219c-1.1768,-0.75422 1.12159,-2.97817 2.03239,-3.75469c0.21554,0.11068 0.44455,0.10865 0.44455,0.10865z" data-paper-data="{&quot;noHover&quot;:false,&quot;origItem&quot;:[&quot;Path&quot;,{&quot;applyMatrix&quot;:true,&quot;segments&quot;:[[[489.89726,256.3898],[0.37992,0.19509],[-1.6054,1.3687]],[[486.37332,262.86168],[-2.07425,-1.3294],[0.72648,0.46561]],[[491.44297,263.2222],[-0.6586,-0.02525],[1.52698,0.05855]],[[496.0102,263.61742],[-1.2193,0.92109],[0.76294,-0.57634]],[[494.77513,261.02843],[0.43928,0.84928],[-1.02855,-1.98853]],[[491.06411,256.54916],[2.38001,0.41127],[0,0]],[490.66223,256.58488]],&quot;closed&quot;:true}]}" fill="#ffbaba"/><path d="M233.18593,173.87227c-0.09043,0.09595 -0.17168,0.14765 -0.17168,0.14765c-0.60167,0.38147 -1.21362,0.76238 -1.73541,1.24741c-2.59542,2.41258 -0.39355,2.79533 1.91126,2.55223c0.15117,-0.01594 2.03481,-0.18073 2.07182,-0.25734c0.43096,-0.8922 -1.08449,-3.37502 -2.076,-3.68995zM232.24299,172.51428c0.23613,-0.37279 0.72698,-0.37279 0.72698,-0.37279l0.18783,0.00422c2.01837,0.30859 4.83206,4.12914 3.50304,6.38595c-1.17097,1.98842 -7.59916,1.69484 -8.21862,-0.54687c-0.70231,-2.54152 1.88748,-4.27016 3.65826,-5.40081c0,0 0.05429,-0.03455 0.14251,-0.06971z" fill="#000000"/><path d="M235.3092,177.59359c-0.03701,0.07661 -1.95464,0.26518 -2.10581,0.28113c-2.30481,0.2431 -4.57222,-0.21689 -1.9768,-2.62947c0.52179,-0.48503 1.19481,-0.8999 1.79647,-1.28137c0,0 0.08522,-0.05092 0.17565,-0.14687c0.99151,0.31493 2.54144,2.88439 2.11048,3.77658z" data-paper-data="{&quot;noHover&quot;:false,&quot;origItem&quot;:[&quot;Path&quot;,{&quot;applyMatrix&quot;:true,&quot;segments&quot;:[[[469.04287,256.09013],[1.74766,0.5551],[-0.1594,0.16912]],[[468.74027,256.35038],[0,0],[-1.06051,0.67239]],[[465.6814,258.5491],[0.91972,-0.85493],[-4.57475,4.25247]],[[469.05023,263.04772],[-4.06251,0.42849],[0.26646,-0.0281]],[[472.70207,262.59413],[-0.06523,0.13503],[0.75962,-1.57261]]],&quot;closed&quot;:true}]}" fill="#ffbaba"/><path d="M232.22213,176.39652c0,-0.47 0.38101,-0.851 0.851,-0.851c0.47,0 0.851,0.38101 0.851,0.851c0,0.47 -0.38101,0.851 -0.851,0.851c-0.47,0 -0.851,-0.38101 -0.851,-0.851z" fill="#000000"/><path d="M244.17302,176.31547c0,-0.64904 0.52615,-1.1752 1.1752,-1.1752c0.64904,0 1.1752,0.52615 1.1752,1.1752c0,0.64904 -0.52615,1.1752 -1.1752,1.1752c-0.64904,0 -1.1752,-0.52615 -1.1752,-1.1752z" fill="#000000"/><path d="M231.73697,166.74805c0.70225,-0.26334 0.96559,0.4389 0.96559,0.4389l0.3252,0.86813c0.34582,0.7827 0.60212,1.60579 0.81128,2.43553c0,0 0.1819,0.72761 -0.54571,0.90951c-0.72761,0.1819 -0.90951,-0.54571 -0.90951,-0.54571c-0.18851,-0.761 -0.42418,-1.51546 -0.74428,-2.23114l-0.34147,-0.90965c0,0 -0.26334,-0.70225 0.4389,-0.96559z" fill="#8c5900"/><path d="M240.0125,165.37717c0.7398,0.1233 0.6165,0.86309 0.6165,0.86309l-0.10091,0.54337c0,0.87072 0.00264,1.68759 -0.11865,2.55051c0,0 -0.10607,0.74246 -0.84853,0.6364c-0.74246,-0.10607 -0.6364,-0.84853 -0.6364,-0.84853c0.11516,-0.79153 0.10357,-1.53823 0.10357,-2.33838l0.12132,-0.78997c0,0 0.1233,-0.7398 0.86309,-0.6165z" fill="#8c5900"/><path d="M250.41954,169.2533c0.53033,0.53033 0,1.06066 0,1.06066l-0.44444,0.44444c-0.34924,0.34255 -0.63999,0.74836 -0.87915,1.17511c0,0 -0.3721,0.65118 -1.02329,0.27908c-0.65118,-0.3721 -0.27908,-1.02329 -0.27908,-1.02329c0.31215,-0.53791 0.6844,-1.04851 1.12085,-1.49156l0.44444,-0.44444c0,0 0.53033,-0.53033 1.06066,0z" fill="#8c5900"/><path d="M254.75455,175.50887c0.38587,0.64312 -0.25725,1.02899 -0.25725,1.02899l-0.5254,0.31425c-0.66712,0.44427 -1.35134,0.86419 -2.05179,1.2538c0,0 -0.65562,0.36423 -1.01985,-0.29139c-0.36423,-0.65562 0.29139,-1.01985 0.29139,-1.01985c0.6655,-0.36924 1.31517,-0.76814 1.94821,-1.19064l0.58571,-0.35242c0,0 0.64312,-0.38587 1.02899,0.25725z" fill="#8c5900"/><path d="M227.47318,174.60489c0.21694,0.04127 0.61047,0.19102 0.61047,0.73429c0,0.75 -0.75,0.75 -0.75,0.75l-0.52714,-0.12596c-0.44444,-0.2963 -0.88889,-0.59259 -1.33333,-0.88889c0,0 -0.62404,-0.41603 -0.20801,-1.04006c0.41603,-0.62404 1.04006,-0.20801 1.04006,-0.20801c0.38932,0.25954 0.77863,0.51909 1.16795,0.77863z" fill="#8c5900"/></g></g></svg>