<svg version="1.1" xmlns="http://www.w3.org/2000/svg" xmlns:xlink="http://www.w3.org/1999/xlink" width="52.75" height="52.75" viewBox="0,0,52.75,52.75"><g transform="translate(-213.625,-153.625)"><g data-paper-data="{&quot;isPaintingLayer&quot;:true}" fill-rule="nonzero" stroke-linecap="butt" stroke-linejoin="miter" stroke-miterlimit="10" stroke-dasharray="" stroke-dashoffset="0" style="mix-blend-mode: normal"><path d="M214.87501,205.125v-50.25h50.25v50.25z" fill="#7f7f7f" stroke="#5e5e5e" stroke-width="2.5"/><path d="M242.08021,181.86651c0.11349,0.57197 -0.45847,0.68545 -0.45847,0.68545l-0.70401,0.12755c-0.8291,-0.19083 -1.17893,-0.42667 -1.57168,-0.94816c-0.00293,0.37458 0.04306,0.8285 0.09362,1.27098c0.01972,0.03626 0.0409,0.07376 0.06363,0.11273l0.03834,0.0687l0.09843,-0.03526l0.07469,0.20847c2.05406,-0.07507 3.40487,-0.84619 2.7108,-2.89c-0.11536,-0.3397 -0.07464,-1.20819 -0.3738,-1.49113c-0.4845,0.32418 -1.06104,0.61255 -1.55933,0.95296c-0.1906,0.2014 -0.37723,0.41459 -0.54714,0.62129c0.0204,0.02481 0.03104,0.04119 0.03104,0.04119c0.28875,0.44736 0.41028,0.83436 0.94907,0.92202l0.46936,-0.10528c0,0 0.57197,-0.11349 0.68545,0.45847zM231.05256,183.31495c4.49284,-1.20172 5.0424,5.86629 6.10618,8.70636c0.63656,0.01851 1.39009,-0.04902 2.00871,-0.20316c0.64214,-0.16001 1.63163,-0.11816 2.18033,-0.55503c0.14341,-0.11418 -0.93604,-2.07753 -1.08273,-2.34029c-0.38537,-0.6903 -1.92709,-3.95733 -1.70092,-4.69748c0.02352,-0.07699 0.06051,-0.1456 0.10708,-0.20828l-0.1862,-0.33352c-0.43222,-0.79948 -0.47962,-1.29282 -0.44843,-2.19591c0.08963,-0.30539 0.19043,-0.57378 0.31599,-0.82217c0.19453,-0.51845 0.55769,-0.91165 0.98871,-1.24799c0.57491,-0.56447 1.44669,-1.37613 2.30296,-1.56877c0.08053,-0.07471 0.15607,-0.15229 0.22556,-0.23346c1.01896,-1.19004 0.50308,-2.4062 -0.99524,-2.24218c-3.80986,2.22244 -8.47275,3.11189 -9.82201,7.94187zM230.41683,184.27563c-0.23194,-0.10632 -0.31609,-0.36741 -0.31609,-0.36741l-0.17972,-0.87694c1.51583,-5.22263 6.32548,-6.46126 10.58791,-8.76562c2.55901,-0.36094 3.88196,1.8324 2.39812,3.90991c0.45872,0.49266 0.43478,1.3702 0.62594,1.92575c0.86333,2.5091 -0.81627,4.65616 -3.68464,4.36765c-0.0141,-0.00194 0.53009,1.16485 0.63545,1.58598c0.38038,1.52048 1.99037,3.42921 2.07194,4.89754c0.12478,2.24644 -4.61234,2.33935 -6.06853,2.0223c-1.40011,-2.20103 -1.12027,-4.78541 -2.32346,-7.00607c-0.60375,-1.1143 -1.8321,-1.91565 -3.05195,-1.45362c0,0 -0.46856,0.16786 -0.69498,-0.23947z" fill="#686868" stroke="none" stroke-width="0.5"/><path d="M240.88161,175.33484c1.49831,-0.16402 2.02148,1.05423 1.00254,2.24427c-0.06949,0.08116 -0.17306,0.23126 -0.25359,0.30597c-0.85628,0.19264 -1.71516,1.00678 -2.29007,1.57126c-0.43102,0.33634 -0.78396,0.72838 -0.97849,1.24683c-0.12556,0.24837 -0.22013,0.51464 -0.30975,0.82003c-0.0312,0.90309 0.03207,1.3836 0.46429,2.18308l0.19109,0.32438c-0.04657,0.06267 -0.08109,0.11802 -0.10462,0.195c-0.22617,0.74015 1.26842,3.96886 1.65379,4.65918c0.14668,0.26275 1.24554,2.30133 1.10213,2.41552c-0.5487,0.43688 -1.54972,0.39665 -2.19186,0.55667c-0.61862,0.15415 -1.3818,0.22035 -2.01836,0.20184c-1.06378,-2.84007 -1.64192,-9.94996 -6.13476,-8.74823c1.34926,-4.82997 6.05782,-5.75334 9.86768,-7.97578z" data-paper-data="{&quot;noHover&quot;:false,&quot;origItem&quot;:[&quot;Path&quot;,{&quot;applyMatrix&quot;:true,&quot;segments&quot;:[[[439.72045,350.22077],[9.68153,-8.5257],[11.37493,3.7069]],[[440.68431,377.55929],[1.68731,-7.61683],[1.347,0.93236]],[[445.30152,379.93724],[-1.55033,-0.53481],[1.6093,0.55515]],[[450.7822,381.79687],[-1.79592,0.17301],[0.46939,-0.04522]],[[451.72797,375.2314],[-0.052,0.77234],[0.13662,-2.02912]],[[454.64509,362.71523],[-1.52546,1.27927],[0.15867,-0.13306]],[[455.16804,362.41614],[-0.1883,0.06988],[0,0]],[[455.23404,361.43576],[0,0],[0.18863,-2.33028]],[[457.34546,356.07093],[-1.33339,1.90405],[0.62146,-0.53302]],[[459.17962,354.74069],[-0.61902,0.35968],[1.14641,-0.84547]],[[463.06168,353.43516],[-1.40116,0.12114],[2.03132,-0.41146]],[[470.22808,353.28029],[-2.1169,-0.78496],[0.27842,-0.04825]],[[471.04187,353.09299],[-0.26368,0.07763],[3.86608,-1.13816]],[[472.03878,346.86178],[3.46152,1.74681],[-11.3329,-0.54791]]],&quot;closed&quot;:true}]}" fill="#919191" stroke="none" stroke-width="0.5"/><path d="M245.91858,165.66246c0.44352,-0.06537 2.0562,1.13731 2.53513,1.37242l0.59372,0.70489c0,0 0.06521,0.09659 0.10561,0.23901c2.45331,-1.55591 5.11873,-2.67374 7.51963,-4.29479c0.69548,-0.46958 2.27733,-1.92883 3.16426,-1.74217c0.87524,0.1842 1.18662,1.33911 1.45943,1.97761c-1.43622,4.19305 -6.91323,6.72555 -10.72161,8.57451l-0.45879,0.14043c0,0 -0.04781,0.01334 -0.12214,0.02074c-0.26902,1.21514 -1.45461,2.27918 -2.71608,3.17496c1.44786,0.90574 0.86823,3.0913 3.16327,3.5809c2.25477,0.48102 3.14318,-2.42415 5.41428,-0.75268c2.17284,2.17334 -1.33168,4.02453 -3.38936,4.41744c-3.45531,0.65977 -6.30136,-2.046 -7.6865,-4.89903c0,0 -0.00187,-0.00385 -0.00503,-0.01111c-0.04265,-0.0462 -0.06535,-0.07982 -0.06535,-0.07982l-0.17509,-0.36638c-0.00126,-0.02501 -0.00217,-0.05012 -0.00272,-0.07533c-0.66398,0.44686 -1.60256,1.0291 -2.30142,0.8936c-1.27161,-0.24656 -2.30582,-2.43457 -2.94729,-3.40168l-0.28672,-0.85511c0,0 -0.06107,-0.18705 -0.02387,-0.39984c0.00528,-0.36844 0.34315,-0.59656 0.34315,-0.59656c1.71669,-1.15908 3.9307,-3.20838 6.06084,-4.4248c-0.73771,-1.16679 -1.56333,-2.88682 0.54267,-3.1972zM245.98857,177.35088c0.08287,0.09418 0.12387,0.17863 0.12387,0.17863c0.87172,1.79552 2.48677,3.8461 4.63782,4.15623c0.94554,0.13632 5.16048,-1.39127 4.15194,-1.89276c-0.64001,-0.72379 -3.41122,1.31403 -4.7433,1.07273c-1.27612,-0.23116 -2.52087,-0.90334 -3.12225,-2.09155c-0.10778,-0.21295 -0.52931,-1.66815 -0.68352,-1.75781c-0.13194,-0.07671 -0.52963,-0.02606 -0.46813,0.23435c0.02471,0.02013 0.04738,0.04107 0.06803,0.06202l-0.01591,-0.05615c0,0 0.02374,0.03515 0.05144,0.09432zM259.81524,163.96614c-0.60903,-0.87985 -1.95995,0.70901 -2.95018,1.37591c-2.21527,1.49194 -4.71109,2.48829 -6.98068,3.92869c0.20335,0.53734 0.28338,1.16988 0.28115,1.77463c3.40562,-1.65324 7.76869,-3.79469 9.6497,-7.07923zM240.53783,174.24419l0.07593,0.24094c0.3362,0.48657 1.29853,2.48152 1.89811,2.59778c0.29435,0.05707 1.3138,-0.75116 1.53903,-0.90364c1.10833,-0.75035 4.67799,-2.67591 4.52093,-4.04967c0.13649,-0.72025 0.60025,-2.29459 -0.41721,-2.73016c-0.39965,-0.17109 -1.78638,0.94443 -2.14177,1.14853c-1.89107,1.08603 -3.67115,2.45481 -5.475,3.69623zM247.21814,168.04655c-1.2046,-0.72312 -1.52927,-1.32345 -0.50253,0.16751c0.169,-0.06415 0.33661,-0.1203 0.50253,-0.16751z" fill="#5a5a5a" stroke="none" stroke-width="0.5"/><path d="M245.98437,177.27102l0.01606,0.05566c-0.02065,-0.02095 -0.13797,-0.07021 -0.16267,-0.09034c-0.0615,-0.26041 0.42938,-0.27853 0.56132,-0.20182c0.15421,0.08966 0.57916,1.52475 0.68694,1.7377c0.60138,1.18822 1.80333,1.81338 3.07945,2.04454c1.33208,0.24129 4.14455,-1.73517 4.78455,-1.01137c1.00854,0.50149 -3.24948,2.06585 -4.19502,1.92952c-2.15105,-0.31012 -3.81869,-2.4221 -4.69041,-4.21762c0,0 -0.0406,-0.08591 -0.12347,-0.18009c-0.0277,-0.05916 0.04325,-0.06617 0.04325,-0.06617z" data-paper-data="{&quot;noHover&quot;:false,&quot;origItem&quot;:[&quot;Path&quot;,{&quot;applyMatrix&quot;:true,&quot;segments&quot;:[[[245.98857,177.35088],[-0.0277,-0.05916],[0.08287,0.09418]],[[246.11244,177.52951],[0,0],[0.87172,1.79552]],[[250.75026,181.68574],[-2.15105,-0.31012],[0.94554,0.13632]],[[254.90221,179.79298],[1.00854,0.50149],[-0.64001,-0.72379]],[[250.15891,180.86571],[1.33208,0.24129],[-1.27612,-0.23116]],[[247.03665,178.77416],[0.60138,1.18822],[-0.10778,-0.21295]],[[246.35314,177.01635],[0.15421,0.08966],[-0.13194,-0.07671]],[[245.88501,177.2507],[-0.0615,-0.26041],[0.02471,0.02013]],[[245.95304,177.31272],[-0.02065,-0.02095],[0,0]],[245.93714,177.25656]],&quot;closed&quot;:true}]}" fill="#707070" stroke="none" stroke-width="0.5"/><path d="M246.7213,168.26313c-1.02674,-1.49096 -0.66648,-0.91257 0.53812,-0.18945c-0.16591,0.04721 -0.36912,0.1253 -0.53812,0.18945z" data-paper-data="{&quot;noHover&quot;:false,&quot;origItem&quot;:[&quot;Path&quot;,{&quot;applyMatrix&quot;:true,&quot;segments&quot;:[[[247.21814,168.04655],[-0.16591,0.04721],[-1.2046,-0.72312]],[[246.71561,168.21406],[-1.02674,-1.49096],[0.169,-0.06415]]],&quot;closed&quot;:true}]}" fill="#707070" stroke="none" stroke-width="0.5"/><path d="M250.12713,171.07643c0.00222,-0.60475 -0.08519,-1.24984 -0.28854,-1.78718c2.26958,-1.4404 4.84703,-2.48927 7.0623,-3.9812c0.99023,-0.6669 2.34648,-2.24906 2.95551,-1.36921c-1.88101,3.28455 -6.32365,5.48436 -9.72927,7.1376z" data-paper-data="{&quot;noHover&quot;:false,&quot;origItem&quot;:[&quot;Path&quot;,{&quot;applyMatrix&quot;:true,&quot;segments&quot;:[[[259.81524,163.96614],[-1.88101,3.28455],[-0.60903,-0.87985]],[[256.86506,165.34205],[0.99023,-0.6669],[-2.21527,1.49194]],[[249.88438,169.27074],[2.26958,-1.4404],[0.20335,0.53734]],[[250.16553,171.04537],[0.00222,-0.60475],[3.40562,-1.65324]]],&quot;closed&quot;:true}]}" fill="#707070" stroke="none" stroke-width="0.5"/><path d="M246.02627,170.50043c0.3554,-0.2041 1.7586,-1.3114 2.15825,-1.14031c1.01746,0.43558 0.57079,2.03403 0.4343,2.75428c0.15706,1.37377 -3.47821,3.36027 -4.58654,4.11062c-0.22523,0.15248 -1.25462,0.95527 -1.54897,0.89819c-0.59957,-0.11626 -1.58096,-2.13835 -1.91716,-2.62492l-0.07655,-0.24344c1.80385,-1.24141 3.64559,-2.66839 5.53667,-3.75442z" data-paper-data="{&quot;noHover&quot;:false,&quot;origItem&quot;:[&quot;Path&quot;,{&quot;applyMatrix&quot;:true,&quot;segments&quot;:[[[240.53783,174.24419],[1.80385,-1.24141],[0,0]],[[240.61376,174.48513],[0,0],[0.3362,0.48657]],[[242.51187,177.08291],[-0.59957,-0.11626],[0.29435,0.05707]],[[244.05089,176.17927],[-0.22523,0.15248],[1.10833,-0.75035]],[[248.57182,172.1296],[0.15706,1.37377],[0.13649,-0.72025]],[[248.1546,169.39943],[1.01746,0.43558],[-0.39965,-0.17109]],[[246.01283,170.54797],[0.3554,-0.2041],[-1.89107,1.08603]]],&quot;closed&quot;:true}]}" fill="#707070" stroke="none" stroke-width="0.5"/><path d="M241.06181,176.78712c-0.23816,0.22371 -0.46823,0.18861 -0.62448,0.11451c-1.66682,0.94138 -3.28325,2.09965 -4.77613,3.29289c-1.67977,1.34264 -3.21933,3.32929 -5.055,4.35753c-0.52813,0.29583 -1.79368,1.25521 -2.4301,0.94976c-0.95359,-0.45766 -0.84113,-3.74889 -0.44189,-4.50962c0.21964,-0.41851 0.90244,-0.74452 1.30585,-0.96973c3.11761,-2.5081 6.59059,-4.69916 10.08175,-6.64813c0,0 0.50914,-0.28424 0.79338,0.22491c0.11936,0.21382 0.09881,0.38797 0.03481,0.51806c0.2471,0.44263 0.49419,0.88525 0.74129,1.32788c0.17012,-0.04908 0.46902,-0.07129 0.66307,0.27632c0.18692,0.33482 0.03074,0.57237 -0.09813,0.6958c-0.00878,0.1165 -0.06096,0.24443 -0.19444,0.36982zM229.69059,180.99038c-1.04654,0.58424 -1.1621,1.44457 -0.99169,2.68017c0.03539,0.25663 -0.27602,0.71435 -0.0246,0.77679c0.53094,0.13188 0.88534,-0.64767 1.36343,-0.9136c1.77224,-0.98577 3.27018,-2.95125 4.89533,-4.25022c1.48061,-1.18344 3.08251,-2.33389 4.73206,-3.28403c-0.22543,-0.40381 -0.45087,-0.80763 -0.6763,-1.21144c-3.22882,1.83834 -6.39456,3.89447 -9.29824,6.20232z" fill="#5a5a5a" stroke="none" stroke-width="0.5"/><path d="M239.01697,174.76125c0.22543,0.40381 0.45556,0.81363 0.68099,1.21744c-1.64955,0.95013 -3.24786,2.10784 -4.72847,3.29128c-1.62515,1.29897 -3.18688,3.30563 -4.95912,4.2914c-0.47809,0.26593 -0.83374,1.04418 -1.36468,0.9123c-0.25142,-0.06245 0.05785,-0.52269 0.02245,-0.77933c-0.17041,-1.23561 -0.0612,-2.1081 0.98534,-2.69234c2.90367,-2.30785 6.13465,-4.40241 9.36347,-6.24075z" data-paper-data="{&quot;noHover&quot;:false,&quot;origItem&quot;:[&quot;Path&quot;,{&quot;applyMatrix&quot;:true,&quot;segments&quot;:[[[440.04188,343.29771],[9.49817,-0.90675],[-3.07626,-0.20712]],[[434.14549,347.68801],[1.36474,-2.90387],[-0.28345,0.60312]],[[433.00342,349.32892],[-0.45472,-0.48717],[0.96025,1.02878]],[[437.22489,349.26993],[-1.40397,-0.09671],[5.20438,0.35848]],[[453.74179,346.96609],[-5.32623,0.52323],[4.85252,-0.4767]],[[468.552,346.51726],[-4.88981,-0.26336],[0.07992,-1.18699]],[[468.79175,342.95628],[-0.07992,1.18699],[-9.54122,-0.56172]]],&quot;closed&quot;:true}]}" fill="#707070" stroke="none" stroke-width="0.5"/><path d="M223.30253,197.12582c0.31779,0.4889 -0.17111,0.8067 -0.17111,0.8067l-0.5319,0.14206c-1.79635,-0.47998 -2.3562,-3.05652 -3.17694,-4.57774c-0.2141,-0.39684 -0.9218,-1.17649 -0.66258,-1.66753c0.42247,-0.80029 1.01339,-0.78241 1.52402,-0.51341c0.11018,-0.10054 0.20455,-0.18476 0.26389,-0.23896c1.43945,-1.31466 3.45166,-2.12354 4.74264,-3.59643c0.18576,-0.21193 0.45467,-0.63307 0.75303,-0.93114c0.01218,-0.85308 0.77892,-2.06642 1.34582,-2.44594c0,0 0.4889,-0.31779 0.8067,0.17111c0.05965,0.09176 0.09087,0.1775 0.10225,0.25623c0.59844,-0.06188 1.10806,0.19468 1.04556,1.21158c-0.0294,0.47822 -1.00379,0.58362 -1.31168,0.89861c-0.22223,0.22736 -0.26161,0.7112 -0.5757,0.76047c-0.17497,0.02745 -0.33092,0.0389 -0.46931,0.03619c-1.11368,1.34778 -2.76858,2.49955 -4.11196,3.37553c-0.24108,0.1572 -1.19361,0.71199 -1.81016,1.15892c0.62347,0.79188 1.42634,2.52266 1.53495,3.62764c0.09626,0.1756 0.19901,0.34761 0.30798,0.51524l0.00275,0.05127l0.01829,-0.00798l0.26624,0.61049c0.04114,0.08997 0.05758,0.18655 0.05117,0.28095c0.01917,0.02289 0.0379,0.04821 0.05607,0.07617z" fill="#5a5a5a" stroke="none" stroke-width="0.5"/></g></g></svg>