<svg version="1.1" xmlns="http://www.w3.org/2000/svg" xmlns:xlink="http://www.w3.org/1999/xlink" width="38.375" height="36.14105" viewBox="0,0,38.375,36.14105"><defs><linearGradient x1="240.00001" y1="194.35249" x2="240.00001" y2="198.60249" gradientUnits="userSpaceOnUse" id="color-1"><stop offset="0" stop-color="#414141"/><stop offset="1" stop-color="#ff6300"/></linearGradient><linearGradient x1="240.26646" y1="194.60854" x2="240.26646" y2="197.98354" gradientUnits="userSpaceOnUse" id="color-2"><stop offset="0" stop-color="#ffc500" stop-opacity="0"/><stop offset="1" stop-color="#ffc500"/></linearGradient></defs><g transform="translate(-220.8125,-163.21144)"><g data-paper-data="{&quot;isPaintingLayer&quot;:true}" fill-rule="nonzero" stroke-linejoin="miter" stroke-miterlimit="10" stroke-dasharray="" stroke-dashoffset="0" style="mix-blend-mode: normal"><path d="M221.5625,198.60249v-15.625h36.875v15.625z" fill="#8c8c8c" stroke="#707070" stroke-width="1.5" stroke-linecap="butt"/><path d="M221.5625,190.06159v-7.0841h36.875v7.0841z" fill="#707070" stroke="#5a5a5a" stroke-width="1.5" stroke-linecap="butt"/><path d="M221.5625,182.97749v-19.01605h36.875v19.01605z" fill="#707070" stroke="#5a5a5a" stroke-width="1.5" stroke-linecap="butt"/><path d="M228.11111,198.60249v-4.25h23.77778v4.25z" fill="url(#color-1)" stroke="#666666" stroke-width="1.5" stroke-linecap="butt"/><path d="M248.27223,198.05303c-0.06342,0 -0.12604,-0.00097 -0.18768,-0.00286c-0.0441,0.00135 -0.08871,0.00223 -0.13376,0.00263l-3.43129,0.03465l-0.01652,-0.13079c-5.19729,0.29467 -11.04682,0.32499 -15.85065,-0.01831l0.3836,-0.34659l-0.72911,-0.03436l0.37073,-0.62889c0.12319,-0.23446 0.83815,-0.41434 1.70172,-0.41434c0.76122,0 1.40698,0.13977 1.63372,0.33349l0.22453,0.17775c0.39389,-0.1671 0.63363,-0.64024 1.39543,-0.68296c2.06097,-0.11558 1.81597,0.73757 2.74581,0.1127l0.46175,-0.48955c0.18302,-0.21303 0.86214,-0.37121 1.67193,-0.37121c0.85082,0 1.55739,0.17461 1.69588,0.404l0.26345,0.39104c0.13117,0.00611 0.26941,0.00174 0.41552,-0.01552l0.91485,0.24023c0.50286,-0.09993 1.2452,-0.19369 2.28371,-0.27657c0.33936,-0.02708 0.59778,0.03546 0.81041,0.13079l0.44289,-0.52591c0.16712,-0.21917 0.85663,-0.38342 1.68183,-0.38342c0.79953,0 1.47168,0.15419 1.66473,0.36313l0.49005,0.48493c0.02333,0.02329 0.0444,0.04791 0.06263,0.07348c0.20337,-0.02393 0.42647,-0.03714 0.66048,-0.03714c0.9502,0 1.72048,0.21778 1.72048,0.48642v0v0.70752c0,0 0,0.48642 -1.72048,0.48642c-0.48772,0 -0.83718,-0.03909 -1.08758,-0.09511c-0.16957,0.0158 -0.35078,0.02435 -0.53906,0.02435z" data-paper-data="{&quot;index&quot;:null}" fill="#ff8800" stroke="none" stroke-width="0.5" stroke-linecap="butt"/><path d="M248.27227,198.09183c-0.06342,0 -0.12606,-0.00069 -0.1877,-0.00203c-0.04411,0.00096 -0.08872,0.00158 -0.13376,0.00186l-3.43129,0.02459l-0.01652,-0.09284c-5.1973,0.20918 -11.04682,0.2307 -15.85065,-0.013l0.3836,-0.24604l-0.72911,-0.02439l0.37073,-0.44644c0.12319,-0.16644 0.83815,-0.29413 1.70172,-0.29413c0.76121,0 1.40697,0.09922 1.63371,0.23674l0.22454,0.12618c0.39388,-0.11863 0.63363,-0.4545 1.39543,-0.48482c2.06097,-0.08205 1.81596,0.52359 2.74581,0.08001l0.46175,-0.34752c0.18302,-0.15123 0.86214,-0.26351 1.67193,-0.26351c0.85081,0 1.55738,0.12395 1.69587,0.28679l0.26345,0.27759c0.13117,0.00434 0.26941,0.00124 0.41552,-0.01102l0.91484,0.17053c0.50288,-0.07094 1.24521,-0.13749 2.28372,-0.19633c0.33937,-0.01923 0.59778,0.02517 0.81041,0.09284l0.44289,-0.37334c0.16712,-0.15559 0.85663,-0.27219 1.68183,-0.27219c0.79954,0 1.47168,0.10946 1.66473,0.25778l0.49005,0.34424c0.02332,0.01653 0.04439,0.03401 0.06263,0.05216c0.20336,-0.01698 0.42647,-0.02636 0.66048,-0.02636c0.9502,0 1.72048,0.1546 1.72048,0.3453v0v0.50226c0,0 0,0.3453 -1.72048,0.3453c-0.48773,0 -0.83718,-0.02775 -1.08759,-0.06752c-0.16956,0.01121 -0.35076,0.01729 -0.53905,0.01729z" data-paper-data="{&quot;index&quot;:null}" fill="#ffb900" stroke="none" stroke-width="0.5" stroke-linecap="butt"/><path d="M228.82896,197.98354v-3.375h22.875v3.375z" fill="url(#color-2)" stroke="none" stroke-width="0" stroke-linecap="butt"/><path d="M233.66242,194.60645l-0.125,3.5" fill="none" stroke="#666666" stroke-width="1.5" stroke-linecap="round"/><path d="M239.9375,198.22749l0.125,-3.5" fill="none" stroke="#666666" stroke-width="1.5" stroke-linecap="round"/><path d="M246.0652,198.02659l-0.125,-3.4375" fill="none" stroke="#666666" stroke-width="1.5" stroke-linecap="round"/><path d="M228.11111,198.60249v-4.25h23.77778v4.25z" fill="none" stroke="#666666" stroke-width="1.5" stroke-linecap="butt"/><path d="M240.45395,188.23354l0.125,3.375l-2,-0.375v-2.875l3.625,-0.25v2.875l-3.625,-0.75" data-paper-data="{&quot;index&quot;:null}" fill="none" stroke="#5a5a5a" stroke-width="1.5" stroke-linecap="round"/><path d="M242.07895,188.23354l-1.125,-0.375" fill="none" stroke="#5a5a5a" stroke-width="1.5" stroke-linecap="round"/><path d="M238.76645,188.82283l3.28571,0.28571" fill="none" stroke="#5a5a5a" stroke-width="1.5" stroke-linecap="round"/></g></g></svg>