<svg version="1.1" xmlns="http://www.w3.org/2000/svg" xmlns:xlink="http://www.w3.org/1999/xlink" width="56.04863" height="120.04208" viewBox="0,0,56.04863,120.04208"><g transform="translate(-210.16695,-68.5)"><g data-paper-data="{&quot;isPaintingLayer&quot;:true}" fill="#5a4124" fill-rule="nonzero" stroke="none" stroke-width="0.5" stroke-linecap="butt" stroke-linejoin="miter" stroke-miterlimit="10" stroke-dasharray="" stroke-dashoffset="0" style="mix-blend-mode: normal"><path d="M217,123.2c-2,-1.5 -0.5,-3.5 -0.5,-3.5l0.15049,-0.09911c-0.76979,0.18306 -1.55495,0.34197 -2.37034,0.47004l-0.78958,0.30078c0,0 -2.37171,0.79057 -3.16228,-1.58114c-0.79057,-2.37171 1.58114,-3.16228 1.58114,-3.16228l1.61043,-0.49922c2.40658,-0.36115 4.48722,-1.06558 6.77938,-1.83066c0.66543,-0.36141 1.33391,-0.7173 2.00508,-1.06806c-3.68855,-5.11387 -6.76024,-10.66383 -8.77603,-16.63979l-0.34948,-0.86209c0,0 -0.92847,-2.32119 1.39272,-3.24967c2.32119,-0.92848 3.24966,1.39272 3.24966,1.39272l0.45052,1.1379c0.05002,0.15223 0.10088,0.30416 0.15256,0.4558c0.33297,-1.82579 0.57698,-3.67808 0.57573,-5.66523l0.21026,-2.42634c0,0 0.22634,-2.48973 2.71608,-2.2634c2.48973,0.22634 2.2634,2.71608 2.2634,2.71608l-0.18974,1.97366c-0.00285,4.81195 -1.32323,8.90789 -2.02907,13.58015c0,0 -0.00143,0.00924 -0.00466,0.02651c0.56501,1.02786 1.16161,2.0391 1.78476,3.03329c0.55709,0.23264 0.91674,0.59229 0.91674,0.59229l0.74139,0.82558c2.31924,3.65641 4.8987,6.3805 8.1196,8.68126c0.39145,-2.63058 0.72578,-5.26621 0.82124,-7.93907c0.06064,-1.69801 -0.63357,-3.7869 -0.25594,-5.36801c-1.27981,-9.63062 -4.87037,-18.90071 -4.89406,-28.632v-2.6c0,-1.38071 1.11929,-2.5 2.5,-2.5c0.99801,0 1.85943,0.58479 2.26029,1.43041l1.17578,2.35156l-0.07912,0.03956c0.07775,0.10456 0.15294,0.21122 0.22529,0.32024c1.1385,1.71542 1.06921,6.22402 1.62956,8.30003c0.25671,0.95108 0.53197,1.91069 0.81639,2.87741c3.9124,-2.75546 9.6062,-2.3776 13.0994,-5.67744l1.83207,-1.11238c0,0 2.17061,-1.24035 3.41096,0.93026c1.24034,2.17061 -0.93026,3.41096 -0.93026,3.41096l-0.96793,0.48762c-0.88001,0.7662 -1.76423,1.36177 -2.66555,1.85412c1.1518,1.01933 2.162,2.18261 3.21498,3.61722l0.69935,1.54196c0,0 0.92847,2.32119 -1.39272,3.24966c-2.32119,0.92848 -3.24966,-1.39271 -3.24966,-1.39271l-0.10065,-0.45804c-1.44421,-2.00798 -2.61908,-3.216 -4.6496,-4.38424c-0.60171,0.2044 -1.21812,0.41806 -1.85192,0.65507c-1.3348,0.49914 -2.91462,0.66886 -3.9407,1.65778c-0.35212,0.33937 -0.62482,0.739 -0.86013,1.16755c1.19719,4.14304 2.24446,8.36347 2.45192,12.55607c2.0867,5.5466 0.75397,16.70837 0.62226,21.27735c-0.16574,5.74967 0.6648,11.39131 1.57312,17.0034c2.18843,-1.54448 4.38232,-3.02164 6.21866,-5.07581l0.33704,-1.25606c0,0 0.35765,-0.89412 1.18393,-1.35053c0.59564,-1.29307 1.07733,-2.66063 1.60034,-4.21789c-0.11416,-0.79784 0.26361,-1.45327 0.58175,-1.84808c-0.78905,-2.21619 -1.85538,-4.20792 -2.61655,-6.46446l-0.2,-0.6c0,0 -0.79057,-2.37171 1.58114,-3.16228c2.37171,-0.79057 3.16228,1.58114 3.16228,1.58114l0.2,0.6c0.42433,1.29131 0.95481,2.49622 1.48212,3.70658c1.49491,-2.82687 2.11877,-6.10471 3.43848,-9.27755l0.47162,-0.9565c0,0 1.11804,-2.23607 3.35411,-1.11803c2.23607,1.11804 1.11803,3.35411 1.11803,3.35411l-0.32838,0.6435c-2.25196,5.3946 -2.96562,10.42457 -7.27038,14.4312c-0.06868,0.20492 -0.13689,0.40743 -0.20484,0.60766c0.98988,-0.11811 1.98222,-0.21593 2.97579,-0.29303l0.59174,-0.00736c0,0 2.5,0 2.5,2.5c0,2.5 -2.5,2.5 -2.5,2.5l-0.20826,-0.00736c-1.67676,0.12777 -3.34972,0.32141 -5.0116,0.57829c0,0 -0.1689,0.02599 -0.42519,0.02021c-0.9585,1.98446 -2.14876,3.8376 -3.89672,5.78127c0,0 -0.77847,0.86496 -1.8633,0.88352c-0.6684,0.50852 -1.34839,0.99736 -2.03134,1.48536c-0.06672,0.12268 -0.1155,0.19237 -0.1155,0.19237h-0.00002l-1.97765,2.58818c-0.36502,0.26547 -0.73005,0.53094 -1.09507,0.79642c0.65683,4.44667 1.13492,8.89416 0.97465,13.38174c-0.06979,1.95414 0.06764,3.85149 0.34092,5.71338c0.74806,0.05455 1.71648,0.41238 2.11289,1.79983v-0.00001c0.4704,1.64641 -0.50904,2.48735 -1.17295,2.85383c1.06456,4.28154 2.54875,8.46621 3.51914,12.83297c0.08066,0.36296 -0.00303,0.80471 -0.20035,1.26298c0.05323,0.12524 0.10593,0.2504 0.15805,0.37548c0,0 0.96154,2.30769 -1.34615,3.26923c-1.59032,0.66264 -2.54134,-0.22733 -2.97893,-0.84468c-0.18379,-0.04242 -0.36095,-0.09887 -0.53176,-0.16834c-1.33313,-0.01351 -2.62712,-0.86889 -3.75969,-1.9875h-0.00001c-0.49526,0.39915 -1.0024,0.76376 -1.61121,0.83284c-0.17143,0.01945 -0.34284,0.03156 -0.51421,0.03732l0.0144,0.09359l-2.55553,0.39316c-0.07489,0.01281 -0.15092,0.02229 -0.22793,0.02829c-0.53352,0.29176 -1.14573,0.45762 -1.79668,0.45762c-0.04751,0 -0.09481,-0.00088 -0.14189,-0.00263c-2.14369,0.73132 -4.80429,1.63887 -5.90976,-0.29571c-2.79845,-4.89729 1.71381,-6.02397 3.33755,-9.8087c2.11882,-4.93871 3.173,-12.65312 3.11375,-18.6776c-0.04376,-0.01619 -0.09854,-0.0378 -0.16141,-0.06535c-0.47941,0 -0.95882,0 -1.43824,0l-1.75124,0.18759c0,0 -2.48759,0.24876 -2.73635,-2.23883v-0.00001c-0.24876,-2.48759 2.23883,-2.73635 2.23883,-2.73635l2.24876,-0.21241c0.45998,0 0.91995,0 1.37993,0c0.00493,-1.84063 0.14819,-3.71914 -0.16619,-5.48727c-0.73362,-4.12602 -3.17911,-8.58377 -3.16374,-12.8574c0.00183,-0.50937 -0.06528,-1.38069 -0.10314,-2.41064c-0.99554,-0.88498 -0.33676,-3.07628 -0.29686,-4.14468c0.09343,-2.5018 0.39045,-4.96321 0.74621,-7.40987c-2.42982,-1.52018 -4.56887,-3.19792 -6.5017,-5.13941c-1.13922,0.5779 -2.27123,1.17024 -3.39416,1.77908c-0.06235,0.05474 -0.16614,0.14016 -0.30374,0.23338c-0.10856,0.70565 -0.21712,1.4113 -0.32568,2.11695l-1.67093,2.71986c0,0 -1.5,2 -3.5,0.5z"/></g></g></svg>