<svg version="1.1" xmlns="http://www.w3.org/2000/svg" xmlns:xlink="http://www.w3.org/1999/xlink" width="120.57962" height="140.17014" viewBox="0,0,120.57962,140.17014"><g transform="translate(-4.75,-100.1197)"><g data-paper-data="{&quot;isPaintingLayer&quot;:true}" fill-rule="nonzero" stroke-linecap="butt" stroke-linejoin="miter" stroke-miterlimit="10" stroke-dasharray="" stroke-dashoffset="0" style="mix-blend-mode: normal"><path d="M6,160.32007v-39.35988h39.35988v39.35988z" fill="#7f7f7f" stroke="#5e5e5e" stroke-width="2.5"/><path d="M6,199.67994v-39.35987h39.35987v39.35987z" fill="#7f7f7f" stroke="#5e5e5e" stroke-width="2.5"/><path d="M6,239.03984v-39.35987h39.35987v39.35987z" fill="#7f7f7f" stroke="#5e5e5e" stroke-width="2.5"/><path d="M45.35988,160.32007v-39.35987h39.35987v39.35987z" fill="#7f7f7f" stroke="#5e5e5e" stroke-width="2.5"/><path d="M45.35988,199.67994v-39.35987h39.35987v39.35987z" fill="#7f7f7f" stroke="#5e5e5e" stroke-width="2.5"/><path d="M45.35988,239.03984v-39.35987h39.35987v39.35987z" fill="#7f7f7f" stroke="#5e5e5e" stroke-width="2.5"/><path d="M84.71975,160.32007v-39.35988h39.35987v39.35988z" fill="#7f7f7f" stroke="#5e5e5e" stroke-width="2.5"/><path d="M84.71975,199.67994v-39.35988h39.35987v39.35988z" fill="#7f7f7f" stroke="#5e5e5e" stroke-width="2.5"/><path d="M84.71975,239.03984v-39.35987h39.35987v39.35987z" fill="#7f7f7f" stroke="#5e5e5e" stroke-width="2.5"/><path d="M114.94869,134.0807c1.50309,0.50103 1.00206,2.00411 1.00206,2.00411l-0.39702,1.18337c-1.17865,4.31492 -3.38632,7.26404 -4.90169,11.32998c-0.53258,1.42899 -0.2996,3.07658 -0.8669,4.49214c-1.22417,3.05462 -3.73165,3.54645 -6.16775,2.95153l-1.01459,0.12683l-0.02719,-0.21756c-0.14561,0.06902 -0.29122,0.13803 -0.43682,0.20704l0.03972,-0.59047c-0.05493,-0.02264 -0.10969,-0.0457 -0.16424,-0.06918c-0.01769,-0.00395 -0.03536,-0.00792 -0.05304,-0.01188l-0.2635,0.52701l-1.65932,-0.82966c-0.12567,-0.05957 -0.24226,-0.1352 -0.3471,-0.22423c-1.88634,-0.44988 -3.74183,-0.9145 -5.66888,-1.35445c0,0 -1.54382,-0.35627 -1.18755,-1.90009c0.35627,-1.54382 1.90009,-1.18755 1.90009,-1.18755c2.74033,0.63851 5.29368,1.29686 8.03535,1.90308l0.01825,0.01293l0.002,-0.008l1.65787,0.41446c0.18087,0.04105 0.34999,0.11304 0.50149,0.21011c0.86051,-0.03365 1.64082,-0.19337 1.90765,-1.17258c1.49287,-5.47836 4.15015,-9.97578 5.63904,-15.44324l0.44798,-1.35167c0,0 0.50102,-1.50308 2.00411,-1.00205z" fill="#868686" stroke="none" stroke-width="0.5"/><path d="M103.92505,125.22737c2.98495,0.74624 6.80248,1.3328 9.39025,3.13315c0.79447,0.55273 -1.3744,4.64711 -1.74625,5.51403c-2.2894,5.33757 -5.38298,11.09214 -6.39147,16.84253c-2.4295,0.09892 -5.32761,-1.11084 -7.61484,-1.80369c-0.10392,-0.03148 -3.4602,-1.03349 -3.81454,-1.45332c-0.46428,-0.55006 0.81732,-1.18993 1.15312,-1.82661c0.99573,-1.88787 2.06731,-3.62962 2.96822,-5.55945c2.26711,-4.85638 3.92163,-9.94842 5.95457,-14.87177z" data-paper-data="{&quot;noHover&quot;:false,&quot;origItem&quot;:[&quot;Path&quot;,{&quot;applyMatrix&quot;:true,&quot;segments&quot;:[[[416.06851,312.0524],[0,0],[-3.20776,7.76851]],[[406.76863,335.38371],[3.57725,-7.66283],[-1.42153,3.04506]],[[402.06622,344.12437],[1.57115,-2.97885],[-0.52986,1.00461]],[[400.24372,347.00332],[-0.73258,-0.86794],[0.55912,0.66244]],[[406.23886,349.27834],[-0.16397,-0.04967],[3.60899,1.09324]],[[418.19363,352.11284],[-3.83349,0.15608],[1.59128,-9.07349]],[[428.20214,325.68187],[-3.61243,8.4221],[0.58673,-1.36791]],[[430.97534,317.00601],[1.25359,0.87214],[-4.08322,-2.84076]],[[416.22699,312.09202],[4.70993,1.17748],[0,0]]],&quot;closed&quot;:true}]}" fill="#868686" stroke="none" stroke-width="0.5"/><path d="M109.01918,143.88669c-1.12034,1.12034 -2.24067,0 -2.24067,0l-0.43448,-0.49186c-2.46772,-3.94969 -4.75843,-7.98532 -6.6531,-12.23763c0,0 -0.64348,-1.44784 0.80436,-2.09132c1.44784,-0.64349 2.09132,0.80436 2.09132,0.80436c1.82585,4.11934 4.05507,8.02331 6.44455,11.84515l-0.01197,-0.06936c0,0 1.12034,1.12033 0,2.24067z" fill="#969696" stroke="none" stroke-width="0.5"/><path d="M102.83537,124.84491c0.07464,-0.20282 0.20597,-0.41303 0.41619,-0.62325c1.12034,-1.12034 2.24067,0 2.24067,0l0.10522,0.11442c2.71123,2.27369 6.18987,5.97069 7.36718,9.36744c1.01543,2.92968 1.29754,5.65517 -3.90367,3.77789c-1.00085,-0.36124 -1.25795,-1.72961 -1.72646,-2.68496c-1.39593,-2.84652 -2.93703,-5.42752 -4.54951,-8.24587c0,0 -0.53515,-0.93652 0.05037,-1.70567z" fill="#969696" stroke="none" stroke-width="0.5"/><path d="M103.82283,125.26561c-2.03294,4.92335 -3.62676,9.93002 -5.89387,14.78639c-0.90091,1.92983 -1.98446,3.65159 -2.98019,5.53946c-0.3358,0.63668 -1.6193,1.27449 -1.15502,1.82456c0.35435,0.41983 3.69555,1.41033 3.79946,1.44181c2.28722,0.69285 5.14692,1.8953 7.57642,1.79639c1.00849,-5.75039 4.05356,-11.41325 6.34297,-16.75082c0.37184,-0.86692 2.55201,-4.94567 1.75754,-5.49839c-2.58777,-1.80035 -6.36192,-2.36804 -9.34688,-3.11428zM103.1528,121.98274c0.3798,-0.05599 0.694,0.02257 0.694,0.02257l0.84501,0.21125c3.08273,0.77068 8.72122,1.52012 10.93337,4.0683c2.02271,2.32996 0.321,4.98908 -0.54156,7.32695c-2.38609,6.46712 -4.95084,13.18504 -7.83563,19.43441c-4.11354,1.12623 -14.37643,-0.20706 -16.50944,-4.7894c-0.60293,-1.29527 2.41069,-5.85712 2.90177,-6.70517c3.4114,-5.89116 5.07204,-12.42518 7.73217,-18.63338c0,0 0.53795,-1.25521 1.78031,-0.93553z" fill="#777777" stroke="none" stroke-width="0.5"/><path d="M114.78035,137.5702c-0.43831,-0.46874 -0.43831,-1.14142 -0.43831,-1.14142l0.00162,-1.61822c-0.17077,-1.909 -0.59433,-3.68322 -0.8344,-5.57909c0,0 -0.19652,-1.57216 1.37564,-1.76868c1.57216,-0.19652 1.76868,1.37563 1.76868,1.37563c0.24398,1.98063 0.67126,3.82766 0.85562,5.82854l0.00042,0.45318c0.74782,0.50444 0.62273,1.50515 0.62273,1.50515c-0.96966,7.71968 -5.51764,14.26293 -9.28038,20.8698l-0.67781,0.75676c0,0 -0.46668,0.46668 -1.09884,0.49644c-0.45842,0.60137 -1.28901,0.60137 -1.28901,0.60137l-0.59553,-0.0473c-3.67041,-0.92818 -11.99786,-2.56886 -13.71545,-5.9137c-0.72817,-1.41803 -0.57714,-3.39506 -0.58232,-4.9185c0,0 0,-1.58439 1.58439,-1.58439c1.58439,0 1.58439,1.58439 1.58439,1.58439c-0.00395,1.00311 -0.12283,2.52764 0.26269,3.5316c0.48695,1.26809 1.19624,0.74477 2.38277,1.06903c2.42273,0.66211 4.72495,1.7131 7.09521,2.51733c0.14198,-1.29787 0.27741,-2.59645 0.4073,-3.89558c0,0 0.15766,-1.57653 1.73419,-1.41888c1.57653,0.15765 1.41888,1.73418 1.41888,1.73418c-0.07101,0.71007 -0.14386,1.41997 -0.21909,2.12962c3.09612,-5.22692 6.52315,-10.5738 7.6366,-16.56727z" fill="#777777" stroke="none" stroke-width="0.5"/><path d="M28.59745,154.29589c-0.13527,0.30766 -0.42438,0.63641 -1.04223,0.63641c-1.1612,0 -1.1612,-1.1612 -1.1612,-1.1612l0.02255,-0.47791c0.07599,-0.37059 0.15199,-0.74118 0.22798,-1.11177c-0.30944,-0.91386 -0.04106,-2.19396 0.14166,-3.25374c-0.00001,-0.5046 -0.03067,-0.99332 -0.12105,-1.44177c-0.40424,-2.00572 -2.24501,-4.16963 -0.10271,-6.11599c1.43509,-1.30383 4.69766,-0.64165 6.42827,-1.62067c1.12973,-0.63909 2.87075,-2.87331 4.39341,-2.24984c0.65377,0.26769 0.34878,1.37026 0.56813,2.0418c0.72562,2.22147 1.55568,3.29216 0.68845,5.65452c-0.43752,1.0938 -0.94991,3.31798 -1.75816,4.14259c-1.37106,1.39882 -4.21838,2.11509 -5.8786,3.36025c-0.44868,0.33651 -1.61054,1.26997 -2.40651,1.5973z" fill="#dedac3" stroke="none" stroke-width="0.5"/><path d="M13.82292,136.86388c0.04282,-0.05841 0.09313,-0.11711 0.15184,-0.17582c0.82109,-0.82109 1.64218,0 1.64218,0c1.70067,1.70815 3.67483,3.26391 6.01457,3.96115c1.14024,0.33979 3.66548,0.64296 4.38342,1.71298c0.55797,0.83161 0.1044,2.48327 -0.07309,3.38056c-0.52635,2.66106 0.01158,4.62772 0.02255,7.27778v1.25092c0,0.64131 -0.51989,1.1612 -1.1612,1.1612c-0.26564,0 -0.51045,-0.0892 -0.70611,-0.23928l-0.99135,-0.74351l0.25549,-0.34066c-0.67052,-0.539 -1.28867,-1.15745 -1.88096,-1.76868c-1.2704,-1.31103 -3.59776,-2.24591 -5.12949,-3.39471c-0.84707,-0.6353 -2.88407,-1.74127 -3.34409,-2.6613c-0.79651,-1.59302 -0.12259,-5.2152 -0.12259,-7.02408v-1.25092c0,0 0,-1.00776 0.93882,-1.14564z" fill="#d4d0ba" stroke="none" stroke-width="0.5"/><path d="M25.85918,126.88324c2.74667,2.06 5.36776,4.03633 8.09937,6.08003c0.7735,0.4641 1.49222,1.0225 2.25192,1.50887c0.41316,0.26451 1.62421,0.37641 1.28095,0.7269c-1.1406,1.16462 -3.75126,1.76187 -5.211,2.57193c-1.5516,0.86104 -3.22029,1.6573 -4.78071,2.52323c-0.5514,0.30599 -0.9263,1.25206 -1.54158,1.11386c-1.63495,-0.36723 -4.7319,-2.83783 -6.12966,-3.88614c-2.31483,-0.92593 -3.9974,-3.46122 -6.09165,-4.31922c0.10577,0.03642 0.25655,0.07931 0.33063,0.06215c0.41818,-0.09689 0.81482,-0.28176 1.19822,-0.47482c1.0446,-0.52601 1.53524,-0.94304 2.4347,-1.62259c2.28893,-1.72932 5.1967,-3.20631 7.73563,-4.69356z" data-paper-data="{&quot;noHover&quot;:false,&quot;origItem&quot;:[&quot;Path&quot;,{&quot;applyMatrix&quot;:true,&quot;segments&quot;:[[[469.78459,315.78736],[0,0],[-5.4662,3.20197]],[[453.22175,325.82543],[4.92795,-3.72314],[-1.93648,1.46304]],[[447.98496,329.29685],[2.24898,-1.13247],[-0.82544,0.41565]],[[445.4057,330.31391],[0.90033,-0.20859],[-0.15949,0.03695]],[[444.69384,330.18047],[0.22771,0.07841],[4.50881,1.84722]],[[457.79426,339.42092],[-4.98372,-1.99349],[3.0093,2.25698]],[[470.90171,347.74005],[-3.51997,-0.79062],[1.32468,0.29754]],[[474.1968,345.34589],[-1.18714,0.65878],[3.35951,-1.86431]],[[484.43084,339.95955],[-3.34051,1.85377],[3.14274,-1.74402]],[[495.63707,334.46173],[-2.45566,2.50736],[0.73902,-0.75458]],[[492.87881,332.90229],[0.88951,0.56948],[-1.63559,-1.04712]],[[488.03111,329.67049],[1.66531,0.99919],[-5.88104,-4.39998]],[[470.68982,316.66867],[5.91345,4.43509],[0,0]]],&quot;closed&quot;:true}]}" fill="#e9e5cd" stroke="none" stroke-width="0.5"/><path d="M12.29401,133.09558c1.1612,0 1.1612,1.1612 1.1612,1.1612l-0.08305,0.31929c0.74445,1.86112 0.94345,3.39614 1.32832,5.32051c0.00587,1.41848 -0.60351,4.5657 0.11843,5.82109c0.47539,0.82667 1.93683,1.56708 2.67513,2.1208c2.07458,1.55593 4.07617,3.04064 5.8786,4.86135c0.38043,0.38429 2.6031,2.38592 3.17517,2.1905c0.74716,-0.25523 1.90666,-1.55642 2.56235,-2.04818c2.1357,-1.57806 4.22658,-2.49614 6.13022,-4.39544c0.62439,-0.62296 2.40292,-1.48516 2.78468,-2.20005c0.24771,-0.46387 -0.12398,-2.64741 -0.12259,-3.23345c0.00593,-2.50417 -0.48999,-4.99919 -0.50036,-7.50551c0,0 0,-1.1612 1.1612,-1.1612c1.1612,0 1.1612,1.1612 1.1612,1.1612c-0.01452,2.92138 0.50036,5.81845 0.50036,8.75643c0,0.52051 0.02881,2.71008 -0.12259,3.02114c-0.50557,1.03873 -2.3955,1.97739 -3.21972,2.80362c-1.97597,1.9808 -4.20817,2.95192 -6.37896,4.61117c-0.82553,0.61915 -2.45891,2.27372 -3.44206,2.45513c-1.7431,0.32163 -2.98382,-1.02976 -4.20597,-1.95476c-2.28964,-1.73295 -4.40888,-3.74448 -6.75496,-5.50404c-1.06069,-0.79552 -2.67888,-1.69146 -3.32929,-2.88288c-0.9409,-1.72353 -0.39142,-4.78078 -0.38193,-6.68809c-0.34782,-1.73912 -0.50269,-3.00978 -1.17351,-4.68684l-0.08305,-1.18181c0,0 0,-1.1612 1.1612,-1.1612z" fill="#bebaa7" stroke="none" stroke-width="0.5"/><path d="M25.43731,126.52031c-2.53893,1.48725 -5.40416,2.93315 -7.69309,4.66247c-0.89945,0.67955 -1.38777,1.08639 -2.43238,1.6124c-0.3834,0.19306 -0.77983,0.37552 -1.19801,0.4724c-0.07408,0.01716 -0.22488,-0.02556 -0.33064,-0.06198c2.09425,0.85799 3.77003,3.36606 6.08487,4.29199c1.39776,1.04832 4.45318,3.49683 6.08813,3.86406c0.61529,0.1382 0.9791,-0.80605 1.5305,-1.11204c1.56042,-0.86593 3.2019,-1.6408 4.75349,-2.50184c1.45974,-0.81006 4.06445,-1.389 5.20505,-2.55362c0.34326,-0.35049 -0.86799,-0.45982 -1.28115,-0.72433c-0.7597,-0.48636 -1.47815,-1.037 -2.25165,-1.5011c-2.73162,-2.0437 -5.30799,-3.97906 -8.05466,-6.03907zM26.01962,124.31433c0.48861,-0.00205 0.85558,0.36492 0.85558,0.36492l0.376,0.3925c2.72237,2.04177 5.25922,3.94088 7.9571,5.96974c1.61291,0.96775 4.92472,2.3607 4.47307,4.77972c-0.06008,0.32179 -2.10273,1.94902 -2.55064,2.19986c-2.76744,1.54986 -5.7352,2.71186 -8.50624,4.25312c-1.12859,0.62772 -1.30837,1.51265 -2.97281,1.3898c-0.55626,-0.04106 -0.92268,-0.63177 -1.41738,-0.88943c-1.84941,-0.96328 -3.83196,-1.99834 -5.50404,-3.25239c-2.14896,-0.85958 -5.13013,-2.80379 -6.36447,-4.81888c-0.36559,-0.59684 -1.09268,-1.17239 -0.97112,-1.86167c0.24629,-1.39658 1.92826,-1.65211 2.88518,-2.12696c3.60411,-1.78843 6.9579,-4.37442 10.42628,-6.46024c0,0 0.7288,-0.43728 1.31349,0.05989z" fill="#bebaa7" stroke="none" stroke-width="0.5"/><path d="M26.55449,152.93083c-1.1612,0 -1.1612,-1.1612 -1.1612,-1.1612l0.00565,-1.1365c-0.50169,-2.50844 -0.50602,-5.05969 -0.50602,-7.61993c0,0 0,-1.1612 1.1612,-1.1612c1.1612,0 1.1612,1.1612 1.1612,1.1612c0,2.4871 0.00725,4.95375 0.49472,7.39109l0.00565,1.36534c0,0 0,1.1612 -1.1612,1.1612z" fill="#bebaa7" stroke="none" stroke-width="0.5"/><path d="M26.3043,155.43264c-1.1612,0 -1.1612,-1.1612 -1.1612,-1.1612v-0.25018c0.00379,-0.76181 -0.07459,-1.52782 -0.22763,-2.27411c0,0 -0.22773,-1.13865 0.91092,-1.36638c1.13865,-0.22773 1.36638,0.91092 1.36638,0.91092c0.17568,0.89735 0.26895,1.81519 0.27273,2.72957v0.25018c0,0 0,1.1612 -1.1612,1.1612z" fill="#bebaa7" stroke="none" stroke-width="0.5"/><path d="M72.28734,173.18766c-0.39578,0.78308 -1.27747,1.50973 -2.74309,2.01068c-2.40066,0.82054 -5.23311,0.70546 -7.71018,0.01437c-0.35437,-0.62455 -1.16384,-0.5884 -1.16384,-0.5884l0.31522,0.19531c-0.77893,-0.4568 -1.67527,-0.73634 -2.42837,-1.23458c-2.52411,-1.6699 -0.71085,-4.19057 1.15584,-5.50793c2.68653,-1.89594 6.62312,-1.1113 9.36893,0.08044c2.07526,0.87205 3.47145,2.4738 3.46271,3.96977c-0.29481,0.3846 -0.26774,0.88956 -0.26774,0.88956z" data-paper-data="{&quot;noHover&quot;:false,&quot;origItem&quot;:[&quot;Path&quot;,{&quot;applyMatrix&quot;:true,&quot;segments&quot;:[[293.26464,182.89063],[[294.18148,182.78536],[-0.46997,-0.11817],[1.37685,-0.58507]],[[296.42446,178.05743],[0.02217,2.25093],[0.00547,-2.99327]],[[292.82042,169.49621],[2.80567,1.71471],[-1.94948,-1.19144]],[[287.34653,170.60716],[0.53234,-2.97932],[-0.15883,0.88891]],[[287.18737,173.31146],[0.11055,-0.8962],[0,0]],[287.24009,172.94747],[[287.16625,174.23848],[0.43288,-0.57294],[0.3476,2.54806]],[[290.20249,181.24779],[-1.70507,-1.87862],[1.04095,1.1469]],[[293.11311,182.96778],[-0.87582,-0.05288],[0,0]]],&quot;closed&quot;:true}]}" fill="#816e3a" stroke="none" stroke-width="0.5"/><path d="M57.69362,175.80525c0.1495,0.08675 0.30225,0.16935 0.4565,0.25127c0.20626,0.45354 0.68365,0.65887 0.68365,0.65887c3.46783,1.49087 7.83631,2.03592 11.49652,0.77927c0.77048,-0.26452 1.56135,-0.69886 2.27587,-1.25849c0.27842,3.11323 -0.00234,6.60606 -0.3863,9.55754c-0.00612,2.21206 -0.34987,4.41675 -0.35603,6.63958c-0.00236,0.85418 0.30487,2.56544 -0.04339,3.37272c-0.36516,0.84641 -3.13037,1.31307 -3.93182,1.50587c-3.70329,0.89091 -6.96152,0.3167 -10.05851,-1.90461c-0.76747,-3.19942 0.09944,-7.73521 0.31067,-11.04457c0.17456,-2.73474 -0.10329,-5.70348 -0.44716,-8.55747z" data-paper-data="{&quot;noHover&quot;:false,&quot;origItem&quot;:[&quot;Path&quot;,{&quot;applyMatrix&quot;:true,&quot;segments&quot;:[[[277.26388,174.50923],[2.57984,-0.92396],[-3.12191,1.11811]],[[267.04039,178.56447],[2.63296,-1.97302],[-0.81144,3.72387]],[[269.26996,188.51188],[-2.28611,-3.0466],[0.49475,0.65933]],[[272.19823,191.51298],[-0.92182,0.00034],[0.8792,-0.00033]],[[275.30252,190.21126],[-0.78511,0.33648],[2.04312,-0.87562]],[[281.50245,187.90694],[-2.03321,0.87138],[2.86183,-0.81766]],[[290.4017,184.50448],[-2.74772,1.48988],[-0.79705,-0.4341]],[[288.34294,182.91874],[0.54831,0.60246],[-2.60479,-2.86205]],[[284.52199,172.1062],[0.00617,3.77472],[0,0]],[[284.85659,171.21785],[-0.3346,0.36917],[0.01405,-0.17409]],[[284.9071,170.69964],[-0.02037,0.17164],[-2.48377,1.44718]]],&quot;closed&quot;:true}]}" fill="#efcc6c" stroke="none" stroke-width="0.5"/><path d="M56.98706,178.40594c-0.29879,-0.19174 -0.85652,-0.68612 -0.48354,-1.54979c0.49557,-1.14756 1.64314,-0.65199 1.64314,-0.65199l0.78128,0.34791c1.57342,0.92999 3.25754,1.58691 4.93425,2.31101c2.52087,1.09411 5.51376,1.71627 7.85297,3.20328c1.44597,0.91919 3.76896,2.28223 0.55608,4.27781c-0.83529,0.51882 -2.76717,-0.93061 -3.52863,-1.31834c-3.59082,-1.8284 -7.47746,-3.22652 -11.17811,-4.82465c0,0 -1.14756,-0.49558 -0.65199,-1.64314c0.02346,-0.05431 0.04837,-0.10494 0.07455,-0.15212z" fill="#ffda73" stroke="none" stroke-width="0.5"/><path d="M73.19869,189.97648c-0.49558,1.14756 -1.64314,0.65199 -1.64314,0.65199c-4.71223,-2.03498 -10.07145,-4.34937 -14.78369,-6.38436c0,0 -1.14756,-0.49557 -0.65199,-1.64314c0.49557,-1.14756 1.64314,-0.65199 1.64314,-0.65199c4.71161,2.03471 9.42931,4.07206 14.14092,6.10677l0.64277,0.27758c0,0 1.14756,0.49558 0.65199,1.64314z" fill="#ffda73" stroke="none" stroke-width="0.5"/><path d="M74.77136,173.88486c0.6732,3.77364 0.38699,8.27688 -0.10696,12.07393c-0.00718,2.59615 -0.33119,5.16824 -0.34079,7.78033c-0.00284,0.77396 0.06476,2.49193 -0.30414,3.16038c-0.98829,1.79072 -3.76132,2.36312 -5.56497,2.79617c-4.71589,1.13227 -8.99519,0.25579 -12.6781,-2.94646c-1.18331,-3.70474 -0.33722,-8.64428 -0.08129,-12.54096c0.24917,-3.79378 -0.47583,-8.02839 -0.90402,-11.80129c0,0 -0.03931,-0.3511 0.11053,-0.70088c-0.11743,-2.16836 1.42467,-4.25724 3.41442,-5.64632c3.44371,-2.4041 8.13198,-1.70722 11.71862,-0.16528c1.60107,0.70605 3.89115,2.02838 4.76184,3.66089c0.73537,1.37877 0.59545,2.81895 -0.03566,4.10365zM58.18964,184.37331c-0.21123,3.30936 -1.09776,7.794 -0.33029,10.99342c3.097,2.22132 6.31288,2.78782 10.01617,1.89691c0.80145,-0.1928 3.55095,-0.65207 3.91611,-1.49848c0.34826,-0.80728 0.03332,-2.5118 0.03569,-3.36599c0.00616,-2.22284 0.33643,-4.39337 0.34255,-6.60543c0.38395,-2.95148 0.68299,-6.40569 0.40457,-9.51892c-0.71452,0.55963 -1.50153,0.99684 -2.27201,1.26136c-3.66021,1.25664 -7.97349,0.71194 -11.44133,-0.77893c0,0 -0.47664,-0.20584 -0.6829,-0.65938c-0.15425,-0.08192 -0.30621,-0.16506 -0.45571,-0.25181c0.34386,2.85398 0.64171,5.79249 0.46715,8.52722zM72.22788,173.00668c0,0 -0.02796,-0.49884 0.26685,-0.88344c0.00874,-1.49597 -1.37597,-3.06155 -3.45123,-3.93362c-2.7458,-1.19174 -6.60196,-1.98144 -9.28849,-0.08551c-1.86669,1.31736 -3.6744,3.79586 -1.15028,5.46577c0.75309,0.49823 1.64065,0.76146 2.41958,1.21826l-0.31326,-0.19271c0,0 0.80158,-0.04492 1.15594,0.57963c2.47706,0.69109 5.23799,0.81204 7.63865,-0.0085c1.46561,-0.50095 2.33721,-1.20711 2.73299,-1.99019z" fill="#c9ab5a" stroke="none" stroke-width="0.5"/><path d="M72.68731,171.42834c0.00144,-0.01552 0.00316,-0.03147 0.00521,-0.0478c-0.24425,-0.34196 -0.21702,-0.76947 -0.21702,-0.76947l0.06626,-0.69928c-0.35652,-2.64934 -0.66118,-4.86465 -3.12306,-6.32408c-2.39658,-1.173 -6.9778,-2.58712 -9.38095,-0.51079c-1.92921,1.66685 -2.31156,6.69756 -2.03851,9.29244c3.1379,1.26238 6.99421,1.03932 10.26064,0.85057c1.4916,-0.08619 3.52842,-0.54861 4.42743,-1.79161zM74.9917,171.3948l-0.13049,0.94017c-3.19001,4.9552 -13.92228,4.04617 -18.6078,1.79762c0,0 -1.04452,-0.51003 -0.53449,-1.55455c0.01872,-0.03833 0.03816,-0.07458 0.05824,-0.10882c-0.28649,-3.38444 0.25828,-8.96435 2.84553,-11.11612c3.21531,-2.6741 8.57593,-1.32585 11.86057,0.27484c3.12457,1.89563 3.80713,4.55532 4.26885,7.98643l-0.05058,1.13268c0.24203,0.28995 0.29017,0.64775 0.29017,0.64775z" fill="#c9ab5a" stroke="none" stroke-width="0.5"/><path d="M68.28463,173.25933c-3.26642,0.18875 -7.18592,0.3986 -10.32383,-0.86379c-0.27305,-2.59488 0.11445,-7.68421 2.04367,-9.35107c2.40315,-2.07633 7.05221,-0.66085 9.44879,0.51215c2.46189,1.45943 2.77675,3.71845 3.13327,6.36779l-0.06748,0.70301c0,0 -0.02857,0.43069 0.21568,0.77265c-0.00205,0.01632 -0.00387,0.03249 -0.00531,0.04801c-0.89902,1.243 -2.95318,1.72505 -4.44478,1.81124z" data-paper-data="{&quot;noHover&quot;:false,&quot;origItem&quot;:[&quot;Path&quot;,{&quot;applyMatrix&quot;:true,&quot;segments&quot;:[[[479.29333,231.24683],[-1.79803,2.486],[0.00289,-0.03104]],[[479.30375,231.15124],[-0.00409,0.03265],[-0.4885,-0.68392]],[478.86972,229.6123],[[479.00223,228.21375],[0,0],[-0.71304,-5.29868]],[[472.7561,215.5656],[4.92378,2.91885],[-4.79316,-2.34601]],[[453.9942,214.54402],[4.8063,-4.15266],[-3.85843,3.3337]],[[449.91719,233.12891],[-0.54611,-5.18976],[6.27581,2.52476]],[[470.43847,234.83005],[-6.53285,0.37749],[2.9832,-0.17238]]],&quot;closed&quot;:true}]}" fill="#efcc6c" stroke="none" stroke-width="0.5"/><path d="M69.70077,170.10164c-1.25,0 -1.25,-1.25 -1.25,-1.25l0.01256,-0.02564c-0.11644,-2.24994 -4.07644,-3.40612 -6.04958,-3.37995c0,0 -1.25,0 -1.25,-1.25c0,-1.25 1.25,-1.25 1.25,-1.25c3.52827,0.03521 7.82438,1.85241 8.52445,5.52639l0.01256,0.3792c0,0 0,1.25 -1.25,1.25z" fill="#ffda73" stroke="none" stroke-width="0.5"/><path d="M115.9386,183.01697c-0.87582,-0.05288 -1.89248,-0.57424 -2.93343,-1.72114c-1.70507,-1.87862 -2.72238,-4.52457 -3.06998,-7.07264c0.43288,-0.57294 0.07876,-1.30175 0.07876,-1.30175l-0.05433,0.36682c0.11055,-0.8962 0.01182,-1.82991 0.17065,-2.71883c0.53234,-2.97932 3.56533,-2.314 5.51481,-1.12256c2.80567,1.71471 3.64604,5.63978 3.64057,8.63305c0.02217,2.25093 -0.89477,4.16773 -2.27162,4.7528c-0.46997,-0.11817 -0.92281,0.10688 -0.92281,0.10688z" data-paper-data="{&quot;noHover&quot;:false,&quot;origItem&quot;:[&quot;Path&quot;,{&quot;applyMatrix&quot;:true,&quot;segments&quot;:[[293.26464,182.89063],[[294.18148,182.78536],[-0.46997,-0.11817],[1.37685,-0.58507]],[[296.42446,178.05743],[0.02217,2.25093],[0.00547,-2.99327]],[[292.82042,169.49621],[2.80567,1.71471],[-1.94948,-1.19144]],[[287.34653,170.60716],[0.53234,-2.97932],[-0.15883,0.88891]],[[287.18737,173.31146],[0.11055,-0.8962],[0,0]],[287.24009,172.94747],[[287.16625,174.23848],[0.43288,-0.57294],[0.3476,2.54806]],[[290.20249,181.24779],[-1.70507,-1.87862],[1.04095,1.1469]],[[293.11311,182.96778],[-0.87582,-0.05288],[0,0]]],&quot;closed&quot;:true}]}" fill="#816e3a" stroke="none" stroke-width="0.5"/><path d="M107.74968,170.65693c-0.02037,0.17164 -0.03564,0.34462 -0.04969,0.51871c-0.3346,0.36917 -0.33384,0.88884 -0.33384,0.88884c0.00617,3.77472 1.23772,8.0013 3.84251,10.86335c0.54831,0.60246 1.26061,1.15632 2.05766,1.59042c-2.74772,1.48988 -6.06564,2.6169 -8.92747,3.43456c-2.03321,0.87138 -4.19351,1.42987 -6.23662,2.30549c-0.78511,0.33648 -2.23433,1.29698 -3.11353,1.29731c-0.92182,0.00034 -2.44653,-2.35326 -2.94128,-3.01259c-2.28611,-3.0466 -3.05072,-6.26547 -2.23928,-9.98934c2.63296,-1.97302 7.14074,-2.97542 10.26265,-4.09353c2.57984,-0.92396 5.19514,-2.35604 7.67891,-3.80322z" data-paper-data="{&quot;noHover&quot;:false,&quot;origItem&quot;:[&quot;Path&quot;,{&quot;applyMatrix&quot;:true,&quot;segments&quot;:[[[277.26388,174.50923],[2.57984,-0.92396],[-3.12191,1.11811]],[[267.04039,178.56447],[2.63296,-1.97302],[-0.81144,3.72387]],[[269.26996,188.51188],[-2.28611,-3.0466],[0.49475,0.65933]],[[272.19823,191.51298],[-0.92182,0.00034],[0.8792,-0.00033]],[[275.30252,190.21126],[-0.78511,0.33648],[2.04312,-0.87562]],[[281.50245,187.90694],[-2.03321,0.87138],[2.86183,-0.81766]],[[290.4017,184.50448],[-2.74772,1.48988],[-0.79705,-0.4341]],[[288.34294,182.91874],[0.54831,0.60246],[-2.60479,-2.86205]],[[284.52199,172.1062],[0.00617,3.77472],[0,0]],[[284.85659,171.21785],[-0.3346,0.36917],[0.01405,-0.17409]],[[284.9071,170.69964],[-0.02037,0.17164],[-2.48377,1.44718]]],&quot;closed&quot;:true}]}" fill="#efcc6c" stroke="none" stroke-width="0.5"/><path d="M105.08199,171.03936c0.05757,-0.35032 0.29031,-1.05835 1.23108,-1.05835c1.25,0 1.25,1.25 1.25,1.25l-0.00965,0.85519c-0.22998,1.81319 -0.16538,3.61974 -0.16538,5.44612c-0.00502,2.74806 0.61037,5.74235 0.17262,8.47941c-0.27059,1.6919 -0.60096,4.36492 -3.70679,2.2065c-0.80746,-0.56115 -0.24273,-2.90936 -0.18866,-3.76214c0.25494,-4.02144 -0.00242,-8.14388 -0.00242,-12.17487c0,0 0,-1.25 1.25,-1.25c0.05916,0 0.11552,0.0028 0.16921,0.00813z" fill="#ffda73" stroke="none" stroke-width="0.5"/><path d="M100.88693,190.50973c-1.25,0 -1.25,-1.25 -1.25,-1.25c0,-5.13286 0,-10.97047 0,-16.10334c0,0 0,-1.25 1.25,-1.25c1.25,0 1.25,1.25 1.25,1.25c0,5.13218 0,10.27101 0,15.40319v0.70015c0,0 0,1.25 -1.25,1.25z" fill="#ffda73" stroke="none" stroke-width="0.5"/><path d="M116.28336,185.57383c-3.1975,2.11414 -7.44517,3.63674 -11.12689,4.68866c-2.38625,1.02268 -4.87602,1.74496 -7.27786,2.77174c-0.71166,0.30423 -2.26204,1.04741 -3.02197,0.97375c-2.03579,-0.19735 -3.66069,-2.5162 -4.77333,-4.00035c-2.90915,-3.88053 -3.80107,-8.15663 -2.32138,-12.8073c2.932,-2.55513 7.80221,-3.73671 11.48102,-5.04664c3.58167,-1.27534 7.18183,-3.61978 10.47578,-5.50869c0,0 0.30674,-0.17528 0.68726,-0.1764c1.94411,-0.96748 4.4732,-0.37991 6.5373,0.89607c3.57239,2.20837 4.79133,6.78873 4.79771,10.69277c-0.01343,1.74978 -0.31946,4.37645 -1.47299,5.82302c-0.97424,1.22174 -2.35187,1.66426 -3.7815,1.5942zM100.08042,174.50923c-3.12191,1.11811 -7.59052,2.08222 -10.22348,4.05524c-0.81144,3.72387 -0.05655,6.90082 2.22956,9.94741c0.49475,0.65933 2.00645,3.00144 2.92827,3.0011c0.8792,-0.00033 2.31918,-0.96525 3.1043,-1.30172c2.04312,-0.87562 4.16672,-1.43294 6.19993,-2.30432c2.86183,-0.81766 6.15153,-1.91258 8.89925,-3.40246c-0.79705,-0.4341 -1.51045,-0.98328 -2.05876,-1.58574c-2.60479,-2.86205 -3.81478,-7.03782 -3.82095,-10.81254c0,0 0,-0.51918 0.3346,-0.88835c0.01405,-0.17409 0.03014,-0.34656 0.05051,-0.5182c-2.48377,1.44718 -5.06339,2.88562 -7.64322,3.80958zM116.08118,182.89063c0,0 0.44687,-0.22344 0.91684,-0.10527c1.37685,-0.58507 2.26514,-2.477 2.24298,-4.72793c0.00547,-2.99327 -0.79837,-6.84651 -3.60403,-8.56122c-1.94948,-1.19144 -4.94155,-1.86837 -5.47389,1.11095c-0.15883,0.88891 -0.04861,1.80809 -0.15916,2.70429l0.05272,-0.36399c0,0 0.35904,0.71808 -0.07384,1.29101c0.3476,2.54806 1.33116,5.13069 3.03623,7.00931c1.04095,1.1469 2.0348,1.6671 2.91062,1.71999z" fill="#c9ab5a" stroke="none" stroke-width="0.5"/><path d="M63.34976,126.18302c0.34352,-0.10001 0.70684,-0.19057 1.02213,-0.3575c-0.36769,1.55552 2.49033,2.96888 3.53308,3.503c0.98471,0.50439 2.29472,0.40012 3.34355,0.40217c0.49848,0.00097 1.01952,0.13735 1.49944,0.00258c0.04171,-0.01171 0.08894,-0.0429 0.13705,-0.08528c-0.84907,1.76466 2.69748,3.28258 4.11337,3.58885c0.53413,-0.10035 1.08121,-0.14864 1.60334,-0.29946c0.05515,-0.01593 0.12009,-0.03893 0.19045,-0.06746c-0.10411,0.26547 -0.18487,0.54721 -0.24849,0.75786c-0.63037,2.08741 -1.38425,4.10204 -2.20006,6.14156c-1.89609,4.74023 -4.49192,9.0608 -7.08549,13.45483c-0.62876,0.61946 -1.65407,2.19522 -2.37789,2.56625c-1.1829,0.60634 -1.27951,-3.32897 -1.69122,-3.58185c-1.85355,-1.13846 -3.45958,1.73826 -4.08541,1.33717c-0.72725,-0.46609 -1.35039,-1.13719 -2.15025,-1.46332c-1.32465,-0.54011 -4.04676,-1.61284 -5.464,-1.59676c-1.55622,0.01766 -3.43675,2.35662 -2.33159,-0.03408c3.10266,-7.83823 5.02719,-16.11403 8.13174,-23.95986c1.36321,0.01993 2.72952,0.0787 4.06025,-0.30872z" data-paper-data="{&quot;noHover&quot;:false,&quot;origItem&quot;:[&quot;Path&quot;,{&quot;applyMatrix&quot;:true,&quot;segments&quot;:[[[59.30746,205.25813],[1.36321,0.01993],[-3.10455,7.84583]],[[51.19866,229.14253],[3.10266,-7.83823],[-1.10516,2.3907]],[[53.52742,229.17297],[-1.55622,0.01766],[1.41724,-0.01608]],[[58.97645,230.75781],[-1.32465,-0.54011],[0.79985,0.32613]],[[61.1176,232.21748],[-0.72725,-0.46609],[0.62583,0.40109]],[[65.18734,230.87835],[-1.85355,-1.13846],[0.41171,0.25288]],[[66.87337,234.46064],[-1.1829,0.60634],[0.72383,-0.37102]],[[69.24122,231.89686],[-0.62876,0.61946],[2.59357,-4.39403]],[[76.29383,218.4937],[-1.89609,4.74023],[0.81581,-2.03953]],[[78.49941,212.37077],[-0.63037,2.08741],[0.06362,-0.21066]],[[78.74873,211.61441],[-0.10411,0.26547],[-0.07035,0.02853]],[[78.55833,211.68197],[0.05515,-0.01593],[-0.52213,0.15082]],[[76.95595,211.98303],[0.53413,-0.10035],[-1.41589,-0.30627]],[[72.85574,208.40826],[-0.84907,1.76466],[-0.04811,0.04238]],[[72.71888,208.49367],[0.04171,-0.01171],[-0.47992,0.13477]],[[71.22344,208.49367],[0.49848,0.00097],[-1.04882,-0.00205]],[[67.89198,208.09653],[0.98471,0.50439],[-1.04275,-0.53412]],[[64.37334,204.59523],[-0.36769,1.55552],[-0.31528,0.16693]],[[63.35471,204.9525],[0.34352,-0.10001],[-1.33073,0.38742]]],&quot;closed&quot;:true}]}" fill="#9a6d4e" stroke="none" stroke-width="0.5"/><path d="M53.64049,151.34093c-0.88388,-0.88388 0,-1.76777 0,-1.76777l0.3105,-0.25772c0.23326,-0.38618 0.46652,-0.77236 0.69978,-1.15853c1.09789,-2.77052 2.05651,-5.67329 2.91251,-8.52412c0.52397,-1.74503 0.13444,-3.64444 0.78,-5.3286c0.24775,-0.64634 1.05068,-1.50774 1.18466,-2.27804c0.09932,-0.57107 -0.17207,-1.21193 0.0726,-1.73741c0.95499,-2.05108 2.9447,-1.61207 3.73285,-3.72448c0,0 0.46424,-1.1606 1.62483,-0.69636c1.1606,0.46424 0.69636,1.62483 0.69636,1.62483c-0.61454,1.46772 -0.53654,1.80295 -1.96792,2.82247c-0.54443,0.38778 -1.60126,0.28519 -1.77642,0.93024c-1.59986,5.89155 -2.64331,12.12843 -5.01984,18.02236c-0.26522,0.44462 -0.53044,0.88924 -0.79566,1.33386l-0.68646,0.73924c0,0 -0.88388,0.88388 -1.76777,0z" fill="#a57554" stroke="none" stroke-width="0.5"/><path d="M62.50005,145.7177c1.25,0 1.25,1.25 1.25,1.25l-0.02427,0.49438c-0.43976,2.19879 -0.9853,4.36713 -1.80981,6.45009c0,0 -0.46424,1.1606 -1.62483,0.69636c-1.1606,-0.46424 -0.69636,-1.62483 -0.69636,-1.62483c0.78154,-1.92996 1.27083,-3.96833 1.67955,-6.0119l-0.02427,-0.00409c0,0 0,-1.25 1.25,-1.25z" fill="#a57554" stroke="none" stroke-width="0.5"/><path d="M64.98978,141.08518c-0.03092,0.29575 -0.20972,1.15077 -1.24353,1.15077c-1.25,0 -1.25,-1.25 -1.25,-1.25l0.17813,-0.89236c2.21739,-3.67105 2.33139,-7.36687 3.89911,-11.28615c0,0 0.46424,-1.1606 1.62483,-0.69636c1.1606,0.46424 0.69636,1.62483 0.69636,1.62483c-1.56441,3.91103 -1.79377,7.63855 -3.9049,11.34926z" fill="#a57554" stroke="none" stroke-width="0.5"/><path d="M66.23864,156.44261c-1.25,0 -1.25,-1.25 -1.25,-1.25v-0.49848c0.02633,-2.02195 1.09243,-3.42563 1.25228,-5.35721c0.05812,-0.70229 -0.0963,-2.4891 0.01647,-3.10409c0.3977,-2.16874 2.13995,-4.13884 2.4924,-6.23099c0.18613,-1.1049 -0.38876,-2.11518 0.0726,-3.23285c0.63543,-1.53935 2.87829,-3.07894 3.82158,-4.65108c0,0 0.64312,-1.07187 1.71499,-0.42875c1.07187,0.64312 0.42875,1.71499 0.42875,1.71499c-0.13251,0.22085 -1.53335,2.56667 -1.6261,2.67185c-0.57659,0.65391 -1.72559,0.83258 -2.02952,1.6497c-0.31955,0.85912 0.24428,1.84851 0.0726,2.74891c-0.18768,0.98431 -0.93513,1.77658 -1.30774,2.70676c-0.89515,2.23462 -0.94146,4.06903 -1.16818,6.4019c-0.18176,1.87021 -1.27377,3.23237 -1.24012,5.11086v0.49848c0,0 0,1.25 -1.25,1.25z" fill="#8d6348" stroke="none" stroke-width="0.5"/><path d="M59.30746,126.53841c-3.10455,7.84583 -5.00614,16.04617 -8.1088,23.8844c-1.10516,2.3907 0.77254,0.04809 2.32876,0.03044c1.41724,-0.01608 4.12438,1.04473 5.44903,1.58484c0.79985,0.32613 1.4139,0.99358 2.14115,1.45967c0.62583,0.40109 2.2162,-2.47759 4.06974,-1.33914c0.41171,0.25288 0.50313,4.18863 1.68603,3.58229c0.72383,-0.37102 1.73909,-1.94431 2.36785,-2.56378c2.59357,-4.39403 5.15652,-8.66293 7.05261,-13.40316c0.81581,-2.03953 1.57521,-4.03553 2.20557,-6.12294c0.06362,-0.21066 0.1452,-0.49088 0.24932,-0.75635c-0.07035,0.02853 -0.13525,0.05163 -0.19039,0.06756c-0.52213,0.15082 -1.06825,0.20071 -1.60238,0.30106c-1.41589,-0.30627 -4.94928,-1.81011 -4.10021,-3.57477c-0.04811,0.04238 -0.09515,0.0737 -0.13687,0.08541c-0.47992,0.13477 -0.99696,0.00097 -1.49544,0c-1.04882,-0.00205 -2.34675,0.10724 -3.33146,-0.39715c-1.04275,-0.53412 -3.88633,-1.94578 -3.51864,-3.5013c-0.31528,0.16693 -0.67511,0.25726 -1.01863,0.35727c-1.33073,0.38742 -2.68404,0.32556 -4.04725,0.30563zM57.02734,125.50635c-0.00937,-0.06938 -0.01437,-0.14345 -0.01437,-0.22252c0,-1.25 1.25,-1.25 1.25,-1.25h0.49848c1.93613,0 3.31481,-0.43896 5.12709,-0.6959c0.79041,-0.11206 1.75681,-0.49752 2.39487,-0.01774c0.73801,0.55494 -0.14153,2.25594 0.67529,2.68655c0.71159,0.37512 1.42976,0.74118 2.11292,1.16587c1.66922,1.03768 4.55434,-0.99001 6.17778,0.65055c0.40412,0.40838 -0.4046,1.12911 -0.30909,1.69565c0.06441,0.38206 1.59836,1.18007 2.01564,1.24449c1.41584,-0.31406 3.61585,-1.77966 4.8377,0.15614c0.48848,0.77392 -1.3161,5.12171 -1.68318,6.04441c-2.4957,6.27327 -5.3905,11.98131 -8.89873,17.75181c-0.8061,0.81582 -2.5324,3.10671 -3.6139,3.41798c-1.10418,0.3178 -3.3712,-0.65716 -3.94238,-1.57745c-0.20748,-0.3343 -0.36631,-0.93689 -0.37077,-1.44388c-0.26621,0.20599 -0.55538,0.38825 -0.75515,0.46559c-0.67117,0.25984 -1.43688,0.48188 -2.1364,0.31258c-0.56783,-0.13742 -0.83366,-0.83037 -1.32284,-1.14977c-1.14215,-0.74573 -4.25152,-1.75844 -5.54288,-1.78747c-1.68845,-0.03795 -2.62499,2.37909 -4.62248,0.3816c-1.30215,-1.30215 -0.47893,-2.60375 -0.02747,-3.84052c3.17691,-7.84511 5.02228,-16.1112 8.14988,-23.98798z" fill="#704f39" stroke="none" stroke-width="0.5"/><path d="M21.82449,171.06483c4.36182,-0.09908 3.63555,6.76646 0.51924,7.79349c-0.62112,0.20469 -1.28851,-0.24262 -1.91183,-0.44049c-3.79644,-1.20515 -1.63697,-4.10993 -2.07151,-6.95097c0,0 -0.17678,-1.23744 1.06066,-1.41421c1.11908,-0.15987 1.3707,0.83688 1.40859,1.02902c0.0743,0.01241 0.14637,0.03136 0.21562,0.05625l0.14648,0.04883c0.2034,-0.07448 0.41494,-0.11695 0.63276,-0.1219z" fill="#cbd49f" stroke="none" stroke-width="0.5"/><path d="M37.80841,185.5165c0.04552,0.18363 0.04552,0.32097 0.04552,0.32097l-0.08879,0.18704c-0.08309,0.81525 -0.24696,1.5822 -0.75055,2.16706c-2.39418,2.78057 -4.4048,0.45312 -4.32113,-2.23783c0.08376,-2.69373 1.538,-4.63256 3.13927,-6.63415c0,0 0.78087,-0.97609 1.75696,-0.19522c0.2259,0.18071 0.35769,0.37189 0.42684,0.55899c0.60349,0.08865 1.06676,0.60856 1.06676,1.23667c0,0.20995 -0.05175,0.4078 -0.14321,0.58151l-0.60344,1.20686c-0.42294,0.81759 -0.45634,1.82735 -0.52824,2.80809z" fill="#cbd49f" stroke="none" stroke-width="0.5"/><path d="M22.86934,185.55448c0,0 0.16583,1.23835 1.40326,1.06158c1.23744,-0.17678 1.04936,-1.41055 1.04936,-1.41055c-0.43308,-2.98225 -0.97918,-7.91854 0.13377,-10.75268c0.58112,-1.47985 2.79141,-3.58118 2.66763,-5.28726c0.06151,0.30082 0.16907,0.72859 0.27993,0.91004c0.6738,1.10283 1.70691,2.1384 2.51661,3.14859c2.2607,3.3843 0.92157,7.96691 1.20286,11.90614c0.02794,0.39118 0.74505,2.78704 0.2964,3.19914c-0.66588,0.61161 -2.42186,0.76894 -3.23215,1.10726c-2.41303,1.00752 -5.09825,1.5581 -7.75237,1.5519c-0.77676,0 -1.62428,0.43058 -2.33667,0.12096c-0.53543,-0.23271 -1.65729,-2.37897 -1.97275,-2.85171c-2.99108,-4.48236 -3.3078,-8.0432 -3.67563,-13.26478c-0.03097,-0.4396 0.5138,0.83742 0.84117,1.13244c1.06889,0.96326 2.43457,1.40113 3.54905,2.30354c1.42961,1.13243 2.6636,2.0763 4.08046,3.22209l0.29727,0.312c0,0 0.11303,0.11878 0.31135,0.22672c0.07075,1.1307 0.18445,2.25638 0.34045,3.36459z" data-paper-data="{&quot;noHover&quot;:false,&quot;origItem&quot;:[&quot;Path&quot;,{&quot;applyMatrix&quot;:true,&quot;segments&quot;:[[[393.84178,278.63082],[0.1415,2.2614],[-0.39663,-0.21588]],[393.20165,278.17144],[[392.58811,277.53627],[0,0],[-2.83372,-2.29158]],[[384.39239,270.97969],[2.85922,2.26487],[-2.22896,-1.80482]],[[377.29831,266.36262],[2.13778,1.92652],[-0.65474,-0.59004]],[[375.79445,264.18779],[-0.06194,-0.8792],[0.73567,10.44315]],[[383.11682,290.58878],[-5.98217,-8.96472],[0.63092,0.94548]],[[387.0371,296.27885],[-1.07085,-0.46541],[1.42477,0.61924]],[[391.69113,296.03211],[-1.55352,0],[5.30823,0.01241]],[[407.12586,292.94412],[-4.82605,2.01505],[1.62058,-0.67665]],[[413.57008,290.74732],[-1.33175,1.22322],[0.89731,-0.82419]],[[412.96501,284.36682],[0.05587,0.78235],[-0.56258,-7.87846]],[[410.57217,260.66829],[4.52141,6.7686],[-1.61939,-2.02037]],[[405.56694,254.39326],[1.3476,2.20566],[-0.22172,-0.36289]],[[405.01205,252.57566],[0.12301,0.60164],[0.24756,3.41218]],[[399.75807,262.96747],[1.16225,-2.9597],[-2.22589,5.66828]],[[399.49322,284.65562],[-0.86615,-5.96449],[0,0]],[[397.3719,287.48405],[2.47487,-0.35355],[-2.47487,0.35355]],[[394.54347,285.36273],[0,0],[-0.312,-2.2164]]],&quot;closed&quot;:true}]}" fill="#d8e1a9" stroke="none" stroke-width="0.5"/><path d="M32.07565,189.32065c0,-1.25 1.25,-1.25 1.25,-1.25h1.43425c0.6458,0.00151 1.64107,0.80655 1.92419,0.22611c0.12645,-0.25926 -0.31115,-0.52784 -0.28954,-0.81548c0.0988,-1.31531 1.23803,-2.48364 1.43425,-3.68807c0.23439,-1.43877 -0.59223,-3.12442 -0.9498,-4.67218c-0.68388,1.13844 -1.70427,2.32529 -2.23041,3.3825c0,0 -0.55902,1.11804 -1.67706,0.55902c-1.11803,-0.55901 -0.55901,-1.67705 -0.55901,-1.67705c0.83014,-1.6534 1.74785,-3.406 2.93362,-4.82721c0.50509,-0.60538 0.748,-1.77045 1.53591,-1.79871c2.23644,-0.0802 2.60357,3.37227 2.80337,4.75434c0.1937,1.33986 0.80778,3.35413 0.61111,4.67976c-0.17645,1.18932 -1.17455,2.45706 -1.43426,3.68808c-0.14266,0.67623 0.18919,1.55457 -0.28954,2.05302c-0.7335,0.76372 -2.80936,0.63382 -3.81282,0.63589h-1.43425c0,0 -1.25,0 -1.25,-1.25z" fill="#bac292" stroke="none" stroke-width="0.5"/><path d="M25.55531,173.82748c-0.69338,1.04006 -1.73344,0.34669 -1.73344,0.34669l-0.48032,-0.33182c-0.77459,-0.39143 -2.81918,-1.0356 -4.23373,-1.8954c0.18542,1.59735 0.30575,3.16415 0.30575,4.87523c0,0 0,1.25 -1.25,1.25c-1.25,0 -1.25,-1.25 -1.25,-1.25c0,-2.51254 -0.25823,-4.62975 -0.61154,-7.08264l0.02732,-0.08861h-0.03046v-1.43425v0c0,-0.69036 0.55964,-1.25 1.25,-1.25c0.39906,0 0.75444,0.187 0.9833,0.47815l0.81236,1.01544l-0.02197,0.01758c1.65736,1.11819 3.17264,2.15507 5.13701,3.12843l0.74904,0.48776c0,0 1.04006,0.69337 0.34669,1.73344z" fill="#bac292" stroke="none" stroke-width="0.5"/><path d="M29.63757,173.97432c-0.32542,0 -0.56611,-0.08472 -0.74416,-0.21005c-0.03752,0.12625 -0.0771,0.2528 -0.11892,0.3798l0.06415,0.0145c0,0 0,1.25 -1.25,1.25c-1.25,0 -1.25,-1.25 -1.25,-1.25l0.06414,-0.80507c0.4358,-1.28905 0.57567,-2.53313 0.76799,-3.87935c0,0 0.17677,-1.23744 1.41421,-1.06066c0.0462,0.0066 0.09043,0.01468 0.13277,0.02412c1.11583,-0.30746 1.49099,0.81803 1.49099,0.81803c0.30846,0.93655 0.52365,1.90645 0.66626,2.88212l0.01256,0.58656c0,0 0,1.25 -1.25,1.25z" fill="#e3edb2" stroke="none" stroke-width="0.5"/><path d="M15.23941,179.78425c-1.11803,0.55902 -1.67705,-0.55902 -1.67705,-0.55902l-0.3243,-0.79203c-0.11515,-0.8284 -0.29523,-1.65279 -0.5631,-2.4451c0,0 -0.39529,-1.18585 0.79057,-1.58114c1.18586,-0.39529 1.58114,0.79057 1.58114,0.79057c0.30846,0.93655 0.52365,1.90644 0.66626,2.88212l0.08549,0.02755c0,0 0.55902,1.11803 -0.55902,1.67705z" fill="#e3edb2" stroke="none" stroke-width="0.5"/><path d="M22.85546,189.73043c0,-1.40525 0,-2.81049 0,-4.21574c-0.1501,-1.07927 -0.26944,-2.17601 -0.33828,-3.27619c-0.19832,-0.10794 -0.32007,-0.22969 -0.32007,-0.22969l-0.30677,-0.31758c-1.41686,-1.14579 -2.66825,-2.14586 -4.09786,-3.27829c-1.11448,-0.90241 -2.47815,-1.34528 -3.54704,-2.30854c-0.32737,-0.29502 -0.7829,-1.52702 -0.75193,-1.08741c0.36784,5.22158 0.6701,8.71813 3.66119,13.20049c0.31546,0.47274 1.42471,2.61233 1.96014,2.84504c0.71239,0.30962 1.55025,-0.12337 2.32701,-0.12337c0.53112,0.00124 1.06208,-0.0195 1.59102,-0.06154zM25.35546,185.42768c0,1.43425 0,2.8685 0,4.30275l0.14577,0.79435c1.25747,-0.26041 2.48572,-0.64017 3.65799,-1.12963c0.81029,-0.33833 2.55624,-0.48679 3.22211,-1.0984c0.44866,-0.4121 -0.2746,-2.79908 -0.30253,-3.19025c-0.28129,-3.93923 1.06428,-8.46497 -1.19642,-11.84927c-0.8097,-1.01019 -1.82882,-2.03468 -2.50262,-3.13751c-0.11086,-0.18144 -0.21594,-0.60798 -0.27745,-0.9088c0.12378,1.70609 -2.04587,3.71606 -2.62699,5.19591c-1.11294,2.83414 -0.5655,7.86183 -0.13242,10.84408c0,0 0.00467,0.03273 0.00718,0.0883c0.00538,0.05539 0.00538,0.08848 0.00538,0.08848zM22.48061,178.9697c0.13244,-2.85497 0.74283,-5.63882 2.18287,-8.10216c0.5223,-0.89346 1.47228,-3.90497 2.44682,-4.21551c2.45572,-0.78253 4.53676,3.56009 5.79013,5.12957c2.6781,4.02388 1.34317,8.54438 1.67208,13.14767c0.12161,1.70195 0.9956,3.44785 -0.30254,5.00547c-0.54249,0.65094 -2.18909,1.11843 -3.00775,1.39132c-3.2722,1.09073 -6.29256,2.10579 -9.82036,2.11307c-0.55692,0 -3.07877,0.0298 -3.40999,-0.12337c-1.0683,-0.49401 -2.31772,-2.75135 -2.95729,-3.71154c-2.0678,-3.1044 -3.65748,-6.03824 -3.89559,-9.83589c-0.0908,-1.44809 -0.61776,-6.04244 1.0002,-6.87798c1.9046,-0.98356 5.69746,2.39997 7.17504,3.5704c1.0642,0.8617 2.07965,1.6773 3.12638,2.50894z" fill="#bac292" stroke="none" stroke-width="0.5"/><path d="M98.41559,210.34174l-0.40217,-0.71121c-0.21803,-0.37074 -0.99098,-0.84454 -0.71933,-1.178c0.24932,-0.30605 2.00475,-0.41257 2.37781,-0.42933c2.69803,-0.12117 5.60881,0.24351 8.2857,0.75197c0.12665,0.17772 0.26407,0.28031 0.26407,0.28031c0.36045,0.2631 0.68833,0.58948 1.08623,0.79153c0.41686,0.21168 1.42148,-0.07852 1.35443,0.38417c-0.08104,0.55921 -0.82178,1.51904 -1.27025,2.25114c-0.24642,0.15441 -0.4671,0.43267 -0.4671,0.93182c0,1.12467 1.13139,1.13118 1.13139,1.13118l1.15904,-0.70619c0.04249,-0.10793 0.09405,-0.22189 0.15323,-0.33968c1.22292,1.54381 3.91009,4.16999 4.20892,5.94617c0.10169,0.60443 -0.37173,1.62929 -0.84853,2.51695c-0.0016,0.00237 -0.0032,0.00478 -0.00479,0.00716c-0.05619,0.08428 -0.09999,0.16712 -0.1327,0.24611c-0.24956,0.45341 -0.4868,0.86216 -0.62443,1.13686c0,0 -0.58464,0.96848 0.42129,1.47145c1.00593,0.50297 1.50718,-0.4993 1.50718,-0.4993c0.00697,-0.01397 0.0972,0.00624 0.10431,-0.0079c1.50086,1.6009 1.09464,1.97057 -0.26413,4.07539c-0.11685,0.18101 -1.14205,2.4924 -1.29009,2.53577c-0.32638,0.09563 -2.36451,-0.64558 -2.80749,-0.73383c-2.48115,-0.49425 -4.90356,-0.71855 -7.34362,-1.45057c0,0 -1.08355,-0.32353 -1.40672,0.7537c-0.03631,0.12102 -0.05501,0.23251 -0.05948,0.33511c-1.71481,-0.0368 -3.78872,-0.26834 -4.6577,-1.4673c0.29077,-0.70432 -0.35889,-1.2454 -0.35889,-1.2454l-0.07793,-0.0462c-0.06355,-0.28127 -0.31783,-0.98866 -1.21574,-0.89887c-0.16754,0.01675 -0.30803,0.05545 -0.42489,0.11021c-0.69695,0.00942 -1.39685,0.04448 -2.0902,0.11382c-0.49855,0.04985 -1.12765,0.73752 -1.45942,0.36207c-0.35221,-0.39858 -0.62534,-4.21021 -0.74858,-5.02101c-0.07591,-0.49942 -0.64411,-1.12593 -0.29581,-1.49182c0.30648,-0.32195 2.28342,-0.87024 2.79728,-1.07462c0,0 1.04501,-0.42478 0.62732,-1.469c-0.32508,-0.8127 -1.02932,-0.74155 -1.32578,-0.66931c-0.13967,-0.56555 -0.59929,-1.11372 -0.46674,-1.67696c0.12795,-0.54369 0.955,-0.59793 1.37537,-0.96572c0.88093,-0.77073 1.52593,-1.70313 2.1653,-2.66033c0.24696,0.24011 0.70101,0.50139 1.32069,0.14729c0.97649,-0.55799 0.4229,-1.53764 0.4229,-1.53764z" data-paper-data="{&quot;noHover&quot;:false,&quot;origItem&quot;:[&quot;Path&quot;,{&quot;applyMatrix&quot;:true,&quot;segments&quot;:[[[288.2683,172.2711],[0.97649,-0.55799],[-0.61968,0.35411]],[[286.95052,172.12123],[0.24696,0.24011],[-0.63937,0.9572]],[[284.79373,174.77018],[0.88093,-0.77073],[-0.42037,0.36778]],[[283.42069,175.73067],[0.12795,-0.54369],[-0.13255,0.56324]],[[283.88911,177.40203],[-0.13967,-0.56555],[0.29646,-0.07224]],[[285.21524,178.06968],[-0.32508,-0.8127],[0.41769,1.04423]],[[284.58871,179.5316],[0,0],[-0.51386,0.20439]],[[281.79136,180.60212],[0.30648,-0.32195],[-0.3483,0.36589]],[[282.08652,182.08858],[-0.07591,-0.49942],[0.12324,0.8108]],[[282.82897,187.0938],[-0.35221,-0.39858],[0.33177,0.37545]],[[284.28745,186.7303],[-0.49855,0.04985],[0.69335,-0.06934]],[[286.37486,186.61281],[-0.69695,0.00942],[0.11686,-0.05477]],[[286.79921,186.50196],[-0.16754,0.01675],[0.89791,-0.08979]],[[288.01018,187.39614],[-0.06355,-0.28127],[0,0]],[288.08779,187.44208],[[288.44308,188.68478],[0.29077,-0.70432],[0.86898,1.19896]],[[293.08141,190.14475],[-1.71481,-0.0368],[0.00447,-0.1026]],[[293.14081,189.80963],[-0.03631,0.12102],[0.32317,-1.07724]],[[294.54122,189.05557],[0,0],[2.44006,0.73202]],[[301.85972,190.5142],[-2.48115,-0.49425],[0.44298,0.08824]],[[304.66289,191.25145],[-0.32638,0.09563],[0.14803,-0.04337]],[[305.94739,188.72169],[-0.11685,0.18101],[1.35877,-2.10482]],[[306.2055,184.65672],[1.50086,1.6009],[-0.00711,0.01414]],[[306.18439,184.69889],[0.00697,-0.01397],[0,0]],[[304.67549,185.20185],[1.00593,0.50297],[-1.00593,-0.50297]],[[304.17252,183.69295],[0,0],[0.13763,-0.27471]],[[304.79527,182.5612],[-0.24956,0.45341],[0.03271,-0.07899]],[[304.9277,182.31619],[-0.05619,0.08428],[0.00159,-0.00239]],[[304.93248,182.30906],[-0.0016,0.00237],[0.4768,-0.88765]],[[305.77981,179.80255],[0.10169,0.60443],[-0.29884,-1.77618]],[[301.58125,173.88501],[1.22292,1.54381],[-0.05918,0.1178]],[[301.42751,174.22406],[0.04249,-0.10793],[0,0]],[300.26911,174.93104],[[299.14444,173.80637],[0,1.12467],[0,-0.49914]],[[299.61238,172.8752],[-0.24642,0.15441],[0.44847,-0.73211]],[[300.8837,170.62483],[-0.08104,0.55921],[0.06705,-0.46269]],[[299.53395,170.24354],[0.41686,0.21168],[-0.3979,-0.20205]],[[298.4526,169.45425],[0.36045,0.2631],[0,0]],[[298.18982,169.17442],[0.12665,0.17772],[-2.67689,-0.50846]],[[289.93558,168.4219],[2.69803,-0.12117],[-0.37307,0.01675]],[[287.56513,168.84753],[0.24932,-0.30605],[-0.27165,0.33345]],[[288.23676,169.94923],[-0.21803,-0.37074],[0,0]],[288.6868,170.73662]],&quot;closed&quot;:true}]}" fill="#9eb0c0" stroke="none" stroke-width="0.5"/><path d="M90.98052,220.48411c-0.18857,-0.87357 0.69886,-1.22854 0.69886,-1.22854c0.86687,-0.34675 3.11062,-1.62898 3.94382,-1.56012c1.07283,0.08867 2.23956,1.69546 3.23618,2.15948c4.17113,1.94208 8.59425,3.65869 13.2176,3.65869c0.83702,0.00108 3.32031,-0.48648 3.94648,-0.1002c2.48496,1.53293 0.48356,7.57342 -1.90801,8.35234c-1.3137,0.42786 -3.91567,-0.73143 -5.22546,-1.00072c-3.03899,-0.62481 -6.26674,0.1204 -9.30314,-0.5043c-1.32764,-0.75 -1.58417,-1.72895 -2.65328,-2.53097c-1.16489,-0.87388 -3.22682,0.59261 -4.49347,-0.18126c-1.60625,-0.98134 -1.58001,-3.83923 -1.58186,-5.42198l-0.10549,-0.77387c0,0 -0.06206,-0.4965 0.22777,-0.86855z" fill="#93a4b4" stroke="none" stroke-width="0.5"/><path d="M96.91072,208.49451c-0.00095,-0.02235 -0.00143,-0.04518 -0.00143,-0.06849c0,-1.12467 1.12467,-1.12467 1.12467,-1.12467c2.36932,0 4.61772,0.10893 6.96107,0.34799c1.62419,0.16569 3.55373,-0.26006 5.03273,0.7245c1.56855,1.04417 2.0359,3.45933 0.52487,4.87803c-1.33797,1.25621 -4.92187,0.68138 -6.57953,0.51756c-2.66995,-0.2781 -5.34356,-0.74185 -7.06722,-2.95604l-0.3278,-1.31494c0,0 -0.08906,-0.62345 0.33264,-1.00393z" fill="#a9bcce" stroke="none" stroke-width="0.5"/><path d="M98.02109,211.91427c-0.61968,0.35411 -1.07083,0.09024 -1.31779,-0.14987c-0.63937,0.9572 -1.27586,1.87822 -2.15679,2.64895c-0.42037,0.36778 -1.24508,0.4168 -1.37304,0.9605c-0.13255,0.56324 0.32875,1.10581 0.46842,1.67136c0.29646,-0.07224 1.00105,-0.14505 1.32613,0.66765c0.41769,1.04423 -0.62654,1.46192 -0.62654,1.46192c-0.51386,0.20439 -2.49086,0.74856 -2.79735,1.07051c-0.3483,0.36589 0.21924,0.98704 0.29515,1.48646c0.12324,0.8108 0.39024,4.60665 0.74245,5.00523c0.33177,0.37545 0.95994,-0.31365 1.45848,-0.3635c0.69335,-0.06934 1.39046,-0.10807 2.08741,-0.11749c0.11686,-0.05477 0.25681,-0.09409 0.42435,-0.11085c0.89791,-0.08979 1.14742,0.61291 1.21097,0.89418l0.07762,0.04594c0,0 0.64606,0.53838 0.35529,1.2427c0.86898,1.19896 2.92351,1.42317 4.63832,1.45997c0.00447,-0.1026 0.0231,-0.2141 0.05941,-0.33512c0.32317,-1.07724 1.40041,-0.75407 1.40041,-0.75407c2.44006,0.73202 4.83735,0.96438 7.3185,1.45863c0.44298,0.08824 2.47678,0.83288 2.80316,0.73725c0.14803,-0.04337 1.16765,-2.34875 1.2845,-2.52976c1.35877,-2.10482 1.75898,-2.46406 0.25812,-4.06497c-0.00711,0.01414 -0.01415,0.0282 -0.02112,0.04216c0,0 -0.50297,1.00593 -1.5089,0.50297c-1.00593,-0.50297 -0.50297,-1.5089 -0.50297,-1.5089c0.13763,-0.27471 0.37319,-0.67834 0.62275,-1.13175c0.03271,-0.07899 0.07624,-0.16074 0.13243,-0.24502c0.00159,-0.00239 0.00318,-0.00476 0.00478,-0.00713c0.4768,-0.88765 0.94902,-1.90208 0.84733,-2.50651c-0.29884,-1.77618 -2.97564,-4.37373 -4.19855,-5.91754c-0.05918,0.1178 -0.11125,0.23112 -0.15375,0.33905l-1.1584,0.70698c0,0 -1.12467,0 -1.12467,-1.12467c0,-0.49914 0.22153,-0.77676 0.46795,-0.93117c0.44847,-0.73211 1.19027,-1.69117 1.27131,-2.25037c0.06705,-0.46269 -0.93289,-0.16962 -1.34975,-0.38129c-0.3979,-0.20205 -0.7209,-0.52619 -1.08135,-0.78929c0,0 -0.13613,-0.1021 -0.26278,-0.27983c-2.67689,-0.50846 -5.5562,-0.87368 -8.25423,-0.75252c-0.37307,0.01675 -2.12113,0.11957 -2.37045,0.42562c-0.27165,0.33345 0.4536,0.73097 0.67164,1.1017l0.45003,0.78739c0,0 0.55799,0.97649 -0.41849,1.53448zM98.2721,205.95275c3.355,-0.68463 7.52106,0.14258 10.82866,0.7996c0,0 0.75272,0.15054 0.89006,0.82475c1.0609,0.57222 2.53632,0.80355 2.84162,2.20374c0.11111,0.50958 -0.06853,1.09496 -0.3505,1.68584l0.49478,0.50887c1.39567,1.86089 4.41748,4.77665 4.77831,7.12325c0.14097,0.91679 -0.24462,2.04191 -0.73009,3.09589l0.07163,0.04995c0.98364,0.98469 2.35818,2.09412 2.38448,3.64953c0.02655,1.5702 -2.09766,4.50187 -3.03531,5.74961c-0.36566,0.48658 -0.66081,1.12934 -1.22726,1.35205c-0.36296,0.1427 -2.35815,-0.29501 -2.90538,-0.40445c-2.41993,-0.48399 -4.80822,-0.76834 -7.187,-1.3407l-1.15525,0.79169c-3.20953,-0.01403 -7.05443,-0.39879 -8.16007,-3.49962c-1.43829,0.14844 -3.7963,0.628 -4.65507,-0.06625c-0.49111,-0.39703 -0.44301,-1.18414 -0.61814,-1.7909c-0.47412,-1.64258 -1.87622,-6.17272 -0.85601,-7.70134c0.23457,-0.35147 1.01683,-0.75428 1.83427,-1.10785l-0.0649,-0.32448c-0.10016,-0.50081 -0.53173,-2.50376 -0.43027,-2.82989c0.43214,-1.389 3.12514,-3.17527 4.02244,-4.52226c0,0 0.20422,-0.30632 0.55423,-0.45161c-0.74257,-2.02865 0.11393,-3.27283 2.67477,-3.79541z" fill="#81909d" stroke="none" stroke-width="0.5"/><path d="M105.23257,212.82331c0.29343,-0.17778 0.82685,-0.35993 1.36026,0.17349c0.79526,0.79526 0,1.59052 0,1.59052l-0.79752,0.438c-2.70403,0.2704 -4.04885,0.47693 -6.21854,-1.4144c0,0 -0.8464,-0.7406 -0.1058,-1.587c0.7406,-0.8464 1.587,-0.1058 1.587,-0.1058c1.56885,1.3786 2.25917,1.12142 4.1746,0.90519z" fill="#81909d" stroke="none" stroke-width="0.5"/><path d="M101.17043,221.2938c-0.30897,1.0814 -1.39037,0.77243 -1.39037,0.77243l-1.38996,-0.63494c-0.38249,-0.5224 -0.85106,-0.99097 -1.37346,-1.37346c0,0 -0.89973,-0.6748 -0.22493,-1.57454c0.6748,-0.89973 1.57454,-0.22493 1.57454,-0.22493c0.68311,0.52167 1.30166,1.14021 1.82333,1.82333l0.20843,-0.17825c0,0 1.0814,0.30897 0.77243,1.39037z" fill="#81909d" stroke="none" stroke-width="0.5"/><path d="M103.53576,222.30859c0.50297,-1.00593 1.5089,-0.50297 1.5089,-0.50297l0.27156,0.13697c0.75578,0.42602 1.3363,0.65046 2.06132,0.78287c0.08104,-0.01104 0.13259,-0.01104 0.13259,-0.01104c1.13083,0.00132 2.18885,0.12414 3.31322,0.00558l0.22608,-0.00558c0,0 1.12467,0 1.12467,1.12467c0,1.12467 -1.12467,1.12467 -1.12467,1.12467l-0.00226,-0.00558c-0.85311,0.08149 -1.66276,0.04987 -2.4906,0.02482c-0.29879,0.11822 -0.58749,0.08935 -0.58749,0.08935c-0.02126,-0.00221 -0.04242,-0.00446 -0.0635,-0.00675c-0.05452,0.00812 -0.11032,0.01233 -0.16711,0.01233c-0.1603,0 -0.31276,-0.03354 -0.45076,-0.09397c-1.10745,-0.17556 -1.99906,-0.49054 -3.06387,-1.0751l-0.18512,-0.09137c0,0 -1.00593,-0.50297 -0.50297,-1.5089z" fill="#81909d" stroke="none" stroke-width="0.5"/><path d="M45.35988,120.96019v-19.59049h39.35987v19.59049z" fill="#7f7f7f" stroke="#5e5e5e" stroke-width="2.5"/><text transform="translate(61.20163,115.03584) scale(0.33551,0.33551)" font-size="40" xml:space="preserve" fill="#ffffff" fill-rule="nonzero" stroke="none" stroke-width="1" stroke-linecap="butt" stroke-linejoin="miter" stroke-miterlimit="10" stroke-dasharray="" stroke-dashoffset="0" font-family="Sans Serif" font-weight="normal" text-anchor="start" style="mix-blend-mode: normal"><tspan x="0" dy="0">2</tspan></text><path d="M63.26802,218.57994c0.51582,0.55633 0.72547,2.81252 1.06063,3.55477c1.2084,2.67613 1.83559,5.80843 3.59204,8.2037c0.03848,0.16067 -4.5349,2.05001 -5.37253,2.25688c-3.63481,0.8977 -6.39601,-1.22516 -10.05968,-1.55129c-1.48411,-0.13211 -4.69446,0.0053 -5.8795,-0.66291c-0.4827,-0.27219 0.40078,-1.04601 0.4938,-1.5923c0.16887,-1.0323 -0.06856,-2.65835 0.3395,-3.61348c0.87491,-2.04784 4.6492,-2.48235 6.30715,-3.63636c1.76671,-1.22972 2.76575,-2.83415 4.96337,-2.82059c0.31355,0.00193 3.17178,-0.23904 4.1911,-0.32672c0.1604,0.04481 0.2886,0.10683 0.36413,0.18829z" data-paper-data="{&quot;noHover&quot;:false,&quot;origItem&quot;:[&quot;Path&quot;,{&quot;applyMatrix&quot;:true,&quot;selected&quot;:true,&quot;segments&quot;:[[[62.87285,218.43085],[0.1604,0.04481],[-1.01932,0.08768],7],[[58.70201,218.76719],[0.31355,0.00193],[-2.19762,-0.01356],7],[[53.78174,221.5771],[1.76671,-1.22972],[-1.65794,1.15401],7],[[47.49223,225.17751],[0.87491,-2.04784],[-0.40806,0.95513],7],[[47.15045,228.77374],[0.16887,-1.0323],[-0.09302,0.54629],7],[[46.65455,230.36052],[-0.4827,-0.27219],[1.18503,0.66821],7],[[52.52118,231.00618],[-1.48411,-0.13211],[3.66367,0.32613],7],[[62.51775,232.55559],[-3.63481,0.8977],[0.83763,-0.20687],7],[[67.87494,230.31822],[0.03848,0.16067],[-1.75645,-2.39527],7],[[64.28367,222.15657],[1.2084,2.67613],[-0.33516,-0.74224],7],[[63.23531,218.61776],[0.51582,0.55633],[-0.07553,-0.08146],7]],&quot;closed&quot;:true}]}" fill="#827c6d" stroke="none" stroke-width="0.5"/><path d="M56.34221,209.6546c0.46648,-0.51913 1.98163,-3.88944 2.43102,-3.97098c0.64969,-0.11788 1.20197,0.55475 1.81117,0.80945c1.794,0.75003 3.34305,1.26639 5.28168,1.58949c2.72275,0.45379 5.62605,0.67254 8.3421,-0.00381c1.35867,-0.33833 2.85315,-1.01286 4.12463,-1.5904c0.58161,-0.26418 1.00869,-1.07089 1.64209,-0.98806c0.4172,0.05456 1.37644,2.18875 1.5354,2.45303c1.68764,2.80586 1.55323,4.61658 1.56507,7.94338c-0.31011,2.4668 -4.23828,4.18823 -6.04054,5.64958c-1.4034,1.13794 -2.49134,4.1596 -4.0784,4.83764c-2.72501,1.16421 -4.44124,-0.88173 -5.49868,-3.14579c-0.1649,-0.40622 -0.33447,-0.81155 -0.50874,-1.21604c-0.1225,-0.32713 -0.23375,-0.64709 -0.33301,-0.951c-0.33956,-1.01867 -0.87596,-3.71764 -1.64756,-4.40172c-1.24104,-1.10027 -1.6637,-0.99874 -2.4174,-0.7252c-0.76521,-0.06669 -1.64074,-0.05544 -2.27906,-0.10863c-1.0352,-0.08627 -3.42906,-0.72729 -4.35035,-0.34935c-1.10854,0.45475 -1.30295,1.67102 -2.10981,2.38245c-0.85915,0.75753 -2.08013,1.43941 -3.07187,2.03123c-0.26282,0.1654 -0.58931,0.68746 -0.82633,0.8895c-0.06245,0.02534 -0.22079,0.07939 -0.28345,0.10455c-0.03294,-0.01125 -0.06082,-0.04305 -0.0823,-0.09978c-0.24621,-0.65022 -0.08928,-1.42499 -0.37726,-2.05783c-0.26391,-0.57995 -1.39505,-0.89137 -1.19566,-1.49654c0.12434,-0.3774 2.62512,-1.78954 2.9509,-2.1538c1.17057,-1.30884 2.73405,-2.53496 3.85616,-3.90573c0.54308,-0.47379 1.07114,-0.9814 1.56019,-1.52566z" data-paper-data="{&quot;noHover&quot;:false,&quot;origItem&quot;:[&quot;Path&quot;,{&quot;applyMatrix&quot;:true,&quot;selected&quot;:true,&quot;segments&quot;:[[[54.82746,211.2011],[0.54308,-0.47379],[-1.12211,1.37077],7],[[50.97573,215.08945],[1.17057,-1.30884],[-0.32578,0.36426],7],[[48.02485,217.23654],[0.12434,-0.3774],[-0.19939,0.60517],7],[[49.21998,218.72837],[-0.26391,-0.57995],[0.28797,0.63284],7],[[49.59584,220.78005],[-0.24621,-0.65022],[0.02148,0.05673],7],[[49.67804,220.87949],[-0.03294,-0.01125],[0.06266,-0.02516],7],[[49.86574,220.80376],[-0.06245,0.02534],[0.23701,-0.20204],7],[[50.69152,219.91232],[-0.26282,0.1654],[0.99174,-0.59182],7],[[53.76238,217.8761],[-0.85915,0.75753],[0.80686,-0.71143],7],[[55.87173,215.48299],[-1.10854,0.45475],[0.9213,-0.37794],7],[[60.32192,215.83807],[-1.0352,-0.08627],[0.63832,0.05319],7],[[62.50111,215.94151],[-0.76521,-0.06669],[0.7537,-0.27354],7],[[65.00307,216.63331],[-1.24104,-1.10027],[0.7716,0.68408],7],[[66.60517,221.02228],[-0.33956,-1.01867],[0.09926,0.3039],7],[[66.93723,221.97349],[-0.1225,-0.32713],[0.17427,0.40449],7],[[67.4446,223.18988],[-0.1649,-0.40622],[1.05744,2.26406],7],[[72.92711,226.34341],[-2.72501,1.16421],[1.58707,-0.67805],7],[[76.98962,221.52491],[-1.4034,1.13794],[1.80226,-1.46135],7],[[83.02536,215.89728],[-0.31011,2.4668],[-0.01184,-3.3268],7],[[81.46574,207.97601],[1.68764,2.80586],[-0.15895,-0.26428],7],[[79.93457,205.52985],[0.4172,0.05456],[-0.6334,-0.08283],7],[[78.29281,206.51834],[0.58161,-0.26418],[-1.27148,0.57754],7],[[74.17143,208.11265],[1.35867,-0.33833],[-2.71605,0.67635],7],[[65.86388,208.13251],[2.72275,0.45379],[-1.93863,-0.32311],7],[[60.60722,206.53755],[1.794,0.75003],[-0.6092,-0.25469],7],[[58.80038,205.7256],[0.64969,-0.11788],[-0.44939,0.08153],7],[[56.38311,209.68335],[0.46648,-0.51913],[-0.48906,0.54425],7]],&quot;closed&quot;:true}]}" fill="#827c6d" stroke="none" stroke-width="0.5"/><path d="M74.53731,206.54911c0.88388,0.88388 0,1.76777 0,1.76777l-0.70529,0.51866c-2.9529,0.97575 -5.46327,0.97478 -8.49734,0.46066c-1.99702,-0.65989 -4.20984,-1.61584 -6.15133,-2.13093c-0.38536,-0.10224 -0.49383,0.63816 -0.64583,1.00674c-0.64292,1.55901 -0.72172,2.866 -2.04657,4.10257c-1.56956,1.46498 -3.31101,3.34233 -5.16326,4.4644c-0.90386,0.54755 -2.12843,0.46306 -1.77668,1.31169c0,0 0,1.25 -1.25,1.25c-1.25,0 -1.25,-1.25 -1.25,-1.25c0.36893,-3.17576 1.91414,-2.18443 3.89442,-3.97483c2.50772,-2.26727 3.90712,-4.01771 5.3208,-6.94848c0.54916,-1.13849 1.33798,-2.35296 2.82117,-2.46026c1.56364,-0.11311 5.27042,1.67103 6.8499,2.20281c2.55927,0.41829 4.61197,0.43298 7.10414,-0.40609l-0.27191,0.08528c0,0 0.88388,-0.88388 1.76777,0z" fill="#8e8878" stroke="none" stroke-width="0.5"/><path d="M69.26956,212.63348c0,1.25 -1.25,1.25 -1.25,1.25l-0.42219,-0.01701c-1.66867,-0.28275 -4.91862,-1.71411 -5.87331,0.27688c0,0 -0.64312,1.07187 -1.71499,0.42875c-1.07187,-0.64312 -0.42875,-1.71499 -0.42875,-1.71499c2.13246,-3.21166 5.23736,-1.97812 8.42804,-1.45662l0.01119,-0.01701c0,0 1.25,0 1.25,1.25z" fill="#8e8878" stroke="none" stroke-width="0.5"/><path d="M80.32736,209.33986c0.69338,1.04006 -0.34669,1.73344 -0.34669,1.73344l-0.45955,0.2772c-1.50607,1.41504 -2.52532,0.78886 -3.86407,1.66617c-0.55934,0.36655 -0.58768,1.2033 -0.93175,1.77675c0,0 -0.64312,1.07187 -1.71499,0.42875c-1.07187,-0.64312 -0.42875,-1.71499 -0.42875,-1.71499c0.26584,-0.44307 1.39083,-2.37067 1.6685,-2.557c1.04093,-0.6985 2.66394,-0.43636 3.50329,-1.36745l0.84057,-0.58955c0,0 1.04006,-0.69338 1.73344,0.34669z" fill="#8e8878" stroke="none" stroke-width="0.5"/><path d="M70.06969,216.83398c1,0.75 0.25,1.75 0.25,1.75l-1.00694,1.18862c-1.0537,0.6246 -2.08926,0.66283 -2.60488,1.73813c0,0 -0.64312,1.07187 -1.71499,0.42875c-1.07187,-0.64312 -0.42875,-1.71499 -0.42875,-1.71499c1.0737,-1.61708 1.89165,-1.63899 3.46237,-2.59562l0.29318,-0.54488c0,0 0.75,-1 1.75,-0.25z" fill="#8e8878" stroke="none" stroke-width="0.5"/><path d="M57.3638,217.51487c0.36426,0.12142 0.57933,0.31743 0.7025,0.53075c0.06595,-0.0299 0.13385,-0.05813 0.20382,-0.08454c1.57603,-0.59489 3.74359,-0.42949 5.42689,-0.71004l0.42219,-0.01701c0,0 1.25,0 1.25,1.25c0,1.25 -1.25,1.25 -1.25,1.25l-0.01119,-0.01701c-1.54769,0.25795 -3.51583,0.09741 -4.9741,0.59009c-1.58338,0.53495 -2.18167,2.66029 -3.80994,3.42962c-3.6897,1.74333 -5.43596,1.37329 -7.68457,5.14135c0,0 -0.64312,1.07187 -1.71499,0.42875c-1.07187,-0.64312 -0.42875,-1.71499 -0.42875,-1.71499c1.47798,-2.45167 2.88025,-3.53829 4.64809,-4.39414c-0.37999,-1.17391 0.79562,-1.56578 0.79562,-1.56578c2.37708,-0.77642 3.2097,-1.76274 5.0316,-3.25723l-0.1883,-0.06926c0,0 0.39528,-1.18585 1.58114,-0.79057z" fill="#8e8878" stroke="none" stroke-width="0.5"/><path d="M62.96136,224.14637c-0.24515,1.22573 -1.47087,0.98058 -1.47087,0.98058l-0.05742,-0.46633c-0.57161,0.44166 -1.08263,0.99089 -1.4425,1.61722c0,0 -0.64312,1.07187 -1.71499,0.42875c-1.07187,-0.64312 -0.42875,-1.71499 -0.42875,-1.71499c0.53485,-0.86518 1.23808,-1.63806 2.0245,-2.28315l2.10945,-0.03295c0,0 1.22573,0.24515 0.98058,1.47087z" fill="#8e8878" stroke="none" stroke-width="0.5"/><path d="M56.42087,229.06363c-0.39528,1.18585 -1.58114,0.79057 -1.58114,0.79057l-1.10507,-0.38537c-0.50807,-0.04023 -1.02851,0.2627 -1.40246,0.60898c0,0 -0.97609,0.78087 -1.75695,-0.19522c-0.78087,-0.97609 0.19522,-1.75695 0.19522,-1.75695c0.95157,-0.70206 2.1826,-1.09097 3.36466,-1.12452l1.49518,0.48138c0,0 1.18585,0.39528 0.79057,1.58114z" fill="#8e8878" stroke="none" stroke-width="0.5"/><path d="M82.97098,208.13318c1.25,0 1.25,1.25 1.25,1.25v0.43337c0,2.41907 0.05389,4.57142 -0.71421,6.8959c-1.39611,4.12018 -4.22707,3.80566 -7.08059,6.17979c-1.59792,1.32947 -0.59095,3.56542 -3.30584,4.38049c-2.03389,0.61062 -4.2807,-0.47986 -5.75683,-1.83671c0.19019,0.67333 0.32982,1.28459 0.35238,1.41419c1.10389,3.55888 -1.4845,5.99346 -4.77984,6.92314c-5.0846,1.43447 -10.44762,-3.0379 -15.72965,-2.13852c0,0 -1.23299,0.2055 -1.43849,-1.02749c-0.2055,-1.23299 1.02749,-1.43849 1.02749,-1.43849c3.2518,-0.53195 6.46407,0.31296 9.60768,1.10329c1.81595,0.45655 3.91096,1.59097 5.86564,1.09193c0.79615,-0.20326 1.24314,-1.11293 1.9909,-1.45356c0.33719,-0.1536 0.76952,0.04602 1.10627,-0.10854c0.72541,-0.33295 0.03165,-2.0535 -0.07627,-2.34912c-0.24336,-1.53768 -2.5598,-6.11234 0.91257,-6.5323c1.17728,-0.14239 3.10084,3.27766 4.41615,3.75785c3.12802,1.14196 2.48101,-2.12414 4.16272,-3.66856c2.33476,-2.14415 5.22809,-1.64078 6.35402,-5.08794c0.68964,-2.04835 0.58592,-3.96423 0.58592,-6.10533v-0.43337c0,0 0,-1.25 1.25,-1.25z" fill="#787265" stroke="none" stroke-width="0.5"/><path d="M54.02584,208.54017c0.16795,-0.1705 0.33292,-0.345 0.49445,-0.52412c1.33399,-1.47935 1.51472,-4.07749 3.64997,-4.70974c2.11303,-0.62566 5.87154,1.98803 8.10461,2.36021c2.68758,0.44793 5.82846,0.73986 8.41701,-0.35523c1.35368,-0.57268 4.2066,-2.5288 5.68164,-2.2426c1.40002,0.27164 1.96163,1.51394 2.58589,2.53765c0.62379,1.02295 1.77798,2.33034 2.2364,3.38379c0.8546,1.9639 0.32742,5.01238 0.32104,7.11336c-0.68693,3.65176 -4.23432,5.22302 -6.96549,7.3736c-1.79543,1.41376 -2.4522,4.14237 -4.60498,5.14911c-1.52029,0.71096 -2.87242,0.75891 -4.05845,0.36769c0.1422,0.28746 0.28956,0.57355 0.44313,0.858c-0.16481,0.78178 -0.01699,1.70472 -0.49443,2.34533c-0.37912,0.50868 -2.34453,0.88 -3.02824,1.19035c-2.05462,0.93263 -4.25795,2.45718 -6.68734,2.2774c-2.63317,-0.19486 -5.1471,-1.96353 -7.80607,-2.1673c-1.64174,-0.12582 -6.4152,-0.06619 -7.56798,-1.52121c-0.6569,-0.82913 -0.21898,-2.65736 -0.06253,-3.61371c0.2209,-1.29736 -0.03747,-3.00179 0.52498,-4.20451c0.54486,-1.16511 1.4286,-1.86443 2.43101,-2.39151c-0.84183,-1.66063 -2.14806,-4.55052 -2.09688,-4.83564c0.04371,-0.24348 0.19545,-0.51066 0.40905,-0.78305c0.0443,-0.40612 0.28888,-0.71184 0.28888,-0.71184c1.11649,-1.38136 2.44874,-2.48189 3.80916,-3.5492c0.19678,-0.24821 0.41547,-0.49276 0.67809,-0.72819c0.52892,-0.47416 0.98755,-0.6773 1.40027,-0.91156c0.31029,-0.25414 0.61696,-0.51326 0.91769,-0.78045c0.08462,-0.11422 0.16774,-0.24401 0.24969,-0.39346zM62.87285,218.43085c-1.01932,0.08768 -3.85729,0.33828 -4.17084,0.33634c-2.19762,-0.01356 -3.15356,1.58019 -4.92027,2.80991c-1.65794,1.15401 -5.41461,1.55257 -6.28952,3.60041c-0.40806,0.95513 -0.1729,2.56393 -0.34177,3.59623c-0.09302,0.54629 -0.97861,1.31459 -0.4959,1.58678c1.18503,0.66821 4.38252,0.51355 5.86663,0.64566c3.66367,0.32613 6.36176,2.44711 9.99657,1.54941c0.83763,-0.20687 5.39567,-2.07671 5.35719,-2.23737c-1.75645,-2.39527 -2.38287,-5.48552 -3.59126,-8.16165c-0.33516,-0.74224 -0.53255,-2.98248 -1.04837,-3.53881c-0.07553,-0.08146 -0.20206,-0.14211 -0.36246,-0.18691zM54.82746,211.2011c-1.12211,1.37077 -2.68116,2.57952 -3.85173,3.88836c-0.32578,0.36426 -2.82654,1.76969 -2.95088,2.14709c-0.19939,0.60517 0.93122,0.91188 1.19513,1.49182c0.28797,0.63284 0.12966,1.40146 0.37587,2.05169c0.02148,0.05673 0.04926,0.08818 0.0822,0.09943c0.06266,-0.02516 0.12524,-0.05038 0.1877,-0.07572c0.23701,-0.20204 0.56296,-0.72604 0.82579,-0.89144c0.99174,-0.59182 2.2117,-1.27868 3.07086,-2.03621c0.80686,-0.71143 1.00081,-1.93836 2.10936,-2.39312c0.9213,-0.37794 3.41499,0.26882 4.45019,0.35509c0.63832,0.05319 1.41398,0.03674 2.17919,0.10344c0.7537,-0.27354 1.26092,-0.40848 2.50196,0.69179c0.7716,0.68408 1.26254,3.3703 1.60209,4.38897c0.09926,0.3039 0.20955,0.62408 0.33206,0.95122c0.17427,0.40449 0.34248,0.81017 0.50738,1.21639c1.05744,2.26406 2.7575,4.31774 5.4825,3.15353c1.58707,-0.67805 2.65912,-3.68056 4.06251,-4.8185c1.80226,-1.46135 5.72564,-3.16084 6.03575,-5.62763c-0.01184,-3.3268 0.12802,-5.11541 -1.55962,-7.92127c-0.15895,-0.26428 -1.11397,-2.3916 -1.53117,-2.44616c-0.6334,-0.08283 -1.06016,0.72432 -1.64176,0.9885c-1.27148,0.57754 -2.7627,1.25598 -4.12138,1.59431c-2.71605,0.67635 -5.5848,0.47364 -8.30755,0.01985c-1.93863,-0.32311 -3.46266,-0.84492 -5.25666,-1.59495c-0.6092,-0.25469 -1.15714,-0.92983 -1.80683,-0.81196c-0.44939,0.08153 -1.95079,3.43863 -2.41727,3.95775c-0.48906,0.54425 -1.01257,1.04396 -1.55565,1.51775z" fill="#5d594e" stroke="none" stroke-width="0.5"/></g></g></svg>