<svg version="1.1" xmlns="http://www.w3.org/2000/svg" xmlns:xlink="http://www.w3.org/1999/xlink" width="36.36666" height="37.00354" viewBox="0,0,36.36666,37.00354"><g transform="translate(-220.4168,-155.89431)"><g data-paper-data="{&quot;isPaintingLayer&quot;:true}" fill-rule="nonzero" stroke="none" stroke-width="0.5" stroke-linecap="butt" stroke-linejoin="miter" stroke-miterlimit="10" stroke-dasharray="" stroke-dashoffset="0" style="mix-blend-mode: normal"><path d="M237.24676,170.62493l0.12433,-0.01042c1.94484,0.33649 3.98392,0.95737 5.75518,1.86988c4.54675,1.19816 12.26232,4.15272 12.24102,10.10665c0,3.66674 -1.07817,7.25247 -4.7537,8.55424c-1.71615,0.60781 -3.88077,0.09997 -5.64398,0.09997c-6.0581,0 -12.111,-0.76318 -18.06385,-1.76145c-1.2443,-0.48437 -3.28291,-0.77747 -4.11733,-2.00142c-2.31164,-3.39081 0.07076,-8.31909 1.71931,-11.32697c0.83476,-1.07872 1.34201,-2.47896 2.33091,-3.42234c2.23516,-2.13229 6.74058,-2.63498 9.85581,-2.34076c0.21692,0.23305 0.55229,0.23264 0.55229,0.23264z" data-paper-data="{&quot;noHover&quot;:false,&quot;origItem&quot;:[&quot;Path&quot;,{&quot;applyMatrix&quot;:true,&quot;segments&quot;:[[[475.4407,341.74103],[0.44427,0.4598],[-6.38038,-0.58049]],[[455.31947,346.31655],[4.57787,-4.20696],[-2.02538,1.86128]],[[450.55749,353.044],[1.70968,-2.12828],[-3.37643,5.93449]],[[447.03376,375.32376],[-4.73452,-6.68997],[1.70897,2.41482]],[[455.45536,379.252],[-2.54847,-0.95567],[12.19216,1.96955]],[[492.3169,382.70083],[-12.40772,0],[3.61126,0]],[[503.85303,382.52435],[-3.51489,1.1992],[7.52794,-2.56836]],[[513.5669,365.70083],[0,7.23438],[0.04362,-11.74696]],[[488.54648,345.85765],[9.31229,2.36394],[-3.62774,-1.80034]],[[476.8203,342.18042],[3.98326,0.66388],[0,0]],[476.5669,342.20083]],&quot;closed&quot;:true}]}" fill="#c4c493"/><path d="M224.53693,184.68251c0.17763,0.73758 -0.53288,0.92197 -0.53288,0.92197l-0.54548,0.13907c-0.52327,0.0888 -1.05495,0.13532 -1.58516,0.13705c0,0 -0.73238,0 -0.73238,-0.76027c0,-0.76027 0.73238,-0.76027 0.73238,-0.76027c0.44967,0.00173 0.90107,-0.03794 1.34435,-0.11636l0.43103,-0.11437c0,0 0.7105,-0.18439 0.88813,0.55317z" fill="#9c9c75"/><path d="M222.72785,179.79842c0,-0.41989 0.32789,-0.76027 0.73238,-0.76027c0.40449,0 0.73238,0.34038 0.73238,0.76027c0,0.41989 -0.32789,0.76027 -0.73238,0.76027c-0.40449,0 -0.73238,-0.34038 -0.73238,-0.76027z" fill="#9c9c75"/><path d="M227.58851,174.6609c-0.17763,0.73758 -0.88813,0.55317 -0.88813,0.55317l-0.31063,-0.10402c-0.24413,0 -0.48825,0 -0.73238,0c0,0 -0.73238,0 -0.73238,-0.76027c0,-0.76027 0.73238,-0.76027 0.73238,-0.76027c0.24413,0 0.48825,0 0.73238,0l0.66588,0.14941c0,0 0.71051,0.1844 0.53288,0.92197z" fill="#9c9c75"/><path d="M225.90149,186.76759c0.73238,0 0.73238,0.76027 0.73238,0.76027c0,0.29565 0,1.22489 0,1.52055c0,0 0,0.76027 -0.73238,0.76027c-0.73238,0 -0.73238,-0.76027 -0.73238,-0.76027c0,-0.29565 0,-0.59133 0,-0.88699v-0.63356c0,0 0,-0.76027 0.73238,-0.76027z" fill="#9c9c75"/><path d="M241.83619,191.81337c-0.71051,-0.18439 -0.53288,-0.92197 -0.53288,-0.92197l0.10019,-0.32245c0,-0.25342 0,-0.50685 0,-0.76027c0,0 0,-0.76027 0.73238,-0.76027c0.73238,0 0.73238,0.76027 0.73238,0.76027c0,0.25342 0,0.50685 0,0.76027l-0.14393,0.69124c0,0 -0.17763,0.73758 -0.88813,0.55317z" fill="#9c9c75"/><path d="M250.51818,188.54253c0.60938,-0.42172 1.01562,0.21087 1.01562,0.21087l0.09226,0.20818c0.20345,0.16894 0.40687,0.33791 0.61032,0.50685c0,0 0.57189,0.47495 0.11438,1.06862c-0.45751,0.59367 -1.0294,0.11873 -1.0294,0.11873c-0.20345,-0.16894 -0.40687,-0.33791 -0.61032,-0.50685l-0.39599,-0.55209c0,0 -0.40626,-0.63259 0.20312,-1.05431z" fill="#9c9c75"/><path d="M253.12156,183.97992c0,-0.76027 0.73238,-0.76027 0.73238,-0.76027l-0.16212,0.12769c0.49606,-0.34217 1.01121,-0.657 1.54347,-0.93441c0,0 0.65506,-0.34 0.98259,0.34c0.32753,0.68001 -0.32753,1.02001 -0.32753,1.02001c-0.47888,0.24742 -0.94147,0.53075 -1.38603,0.83956l-0.65038,0.1277c0,0 -0.73238,0 -0.73238,-0.76027z" fill="#9c9c75"/><path d="M251.13893,177.92849c-0.51787,-0.53759 0,-1.07519 0,-1.07519l0.02962,0.28417c0,-0.25342 0,-0.50685 0,-0.76027c0,0 0,-0.76027 0.73238,-0.76027c0.73238,0 0.73238,0.76027 0.73238,0.76027c0,0.25342 0,0.50685 0,0.76027l-0.45864,0.79102c0,0 -0.51787,0.53759 -1.03574,0z" fill="#9c9c75"/><path d="M236.70349,170.4421c-3.11524,-0.29422 -7.58908,0.1868 -9.82423,2.3191c-0.9889,0.94339 -1.49029,2.33108 -2.32505,3.40979c-1.64855,3.00788 -4.03211,7.90166 -1.72047,11.29247c0.83441,1.22395 2.86757,1.50665 4.11187,1.99102c5.95285,0.99827 11.93964,1.74803 17.99774,1.74803c1.76321,0 3.91639,0.51836 5.63255,-0.08945c3.67553,-1.30177 4.74283,-4.86024 4.74283,-8.52698c0.0213,-5.95393 -7.66954,-8.85933 -12.21628,-10.05749c-1.77125,-0.9125 -3.7805,-1.52731 -5.72534,-1.86379l-0.12372,0.01034c0,0 -0.33295,0 -0.54987,-0.23305zM238.16962,169.2668c1.85544,0.3642 3.76761,0.9602 5.44099,1.8357c5.29095,1.34971 13.15254,4.78682 13.17284,11.48359c0,4.2919 -1.45345,8.51222 -5.75461,9.97299c-1.91559,0.65057 -4.12218,0.16399 -6.08552,0.16399c-6.17477,0 -12.31442,-0.72537 -18.37707,-1.79991c-1.64208,-0.63923 -3.79711,-0.99306 -4.9208,-2.57061c-2.77447,-3.8951 -0.25192,-9.50959 1.69729,-13.03627c0.90698,-1.18147 1.46263,-2.66118 2.55748,-3.68608c2.81165,-2.632 8.2589,-3.1156 11.82289,-2.59466c0,0 0.26013,0.03858 0.44651,0.23128z" fill="#878765"/><path d="M246.35978,164.60617c-0.89584,-0.12105 -1.77517,-0.03025 -2.67076,-0.10838c-0.36879,3.14291 -2.02497,5.49969 -6.42674,4.12802c-0.93656,-0.29184 -1.68237,-0.98431 -2.39778,-1.62078c-0.84632,-1.36569 -1.2291,-2.39776 -1.16085,-3.57548c-0.07172,0.00291 -0.11885,-0.00328 -0.11885,-0.00328c-0.85312,-0.11201 -2.17578,-0.28569 -3.14103,-0.41243c-0.40913,2.5569 -0.06926,5.20463 1.37139,7.54962c1.40193,2.34479 6.22407,4.35072 8.93065,3.55677c2.05576,-0.60303 3.05332,-2.2778 4.15209,-3.94527c1.07435,-1.62959 1.64884,-3.58879 1.83567,-5.58758zM246.53878,163.13715l0.26399,-0.02625c0.00104,-0.67852 -0.03933,-1.35339 -0.11674,-2.0133c-0.12088,-1.03048 -2.48594,-2.64696 -3.27254,-1.78964c0.21836,1.18208 0.36379,2.47134 0.35959,3.71301c0.92525,0.09903 1.83504,-0.00301 2.76571,0.11619zM233.15831,161.87772l0.60549,0.0795c0,0 0.09186,0.01206 0.20624,0.06063c0.07588,-0.25393 0.16745,-0.5193 0.27463,-0.79926c0.30207,-0.78904 0.74172,-2.40144 1.75267,-2.40868c0.25955,-0.00186 -0.52795,-0.06918 -0.75504,-0.19791c-0.91308,-0.51756 -1.63915,-0.86274 -2.64894,-1.1718l-0.0262,-0.00235c-0.78729,1.2675 -1.41349,2.66807 -1.80972,4.12463c0.80029,0.10508 1.60057,0.21017 2.40086,0.31525zM232.4305,155.94524c0.05918,-0.00102 0.0968,0.00392 0.0968,0.00392l0.48152,0.07338c1.24347,0.38059 4.61171,1.30933 4.41304,3.13925c-0.01162,0.10699 -1.44924,1.5611 -1.6197,1.92572c-0.91417,1.9554 -0.9063,3.12593 0.17633,4.96364c0.73664,0.63332 1.33724,1.10575 2.30462,1.2258c0.74243,0.09213 1.88151,0.48171 2.61726,0.28412c2.88825,-0.77564 1.12027,-7.07045 1.15197,-8.80805c1.49339,-1.44722 5.18612,-1.03299 5.91325,1.30085c1.05379,3.38222 0.01659,8.12051 -1.84795,10.94869c-1.28351,1.94586 -2.58636,3.91326 -5.00386,4.55389c-3.40098,0.90125 -8.75861,-1.31251 -10.54516,-4.22433c-2.88909,-4.81432 -1.88961,-10.68146 1.01713,-15.09407c0,0 0.33084,-0.50183 0.84475,-0.29282z" fill="#757575"/><path d="M243.72588,163.21016c0.00821,-1.27455 -0.13685,-2.67564 -0.35149,-3.88826c0.7897,-0.88275 3.23209,0.80253 3.3497,1.85986c0.07532,0.67712 0.09735,1.41079 0.09412,2.10727l-0.26759,0.03076c-0.93068,-0.11911 -1.89942,-0.01119 -2.82474,-0.10963z" data-paper-data="{&quot;noHover&quot;:false,&quot;origItem&quot;:[&quot;Path&quot;,{&quot;applyMatrix&quot;:true,&quot;segments&quot;:[[[495.58456,327.32855],[-1.90612,-0.23517],[0,0]],[[496.12524,327.27675],[0,0],[0.00213,-1.3387]],[[495.88614,323.30455],[0.15855,1.302],[-0.24758,-2.03311]],[[489.18359,319.77363],[1.61105,-1.69147],[0.44722,2.33222]],[[489.92007,327.09932],[0.0086,-2.44978],[1.89501,0.19539]]],&quot;closed&quot;:true}]}" fill="#a3a3a3"/><path d="M230.69789,161.74568c0.40108,-1.49649 1.05516,-3.01167 1.84686,-4.31546l0.02665,0.00215c1.00921,0.31374 1.79288,0.68588 2.70467,1.21398c0.22677,0.13134 1.01894,0.20727 0.75927,0.21008c-1.0114,0.01094 -1.47898,1.72967 -1.78372,2.54065c-0.10813,0.28775 -0.21307,0.56533 -0.2898,0.82624c-0.11427,-0.04946 -0.21024,-0.06074 -0.21024,-0.06074l-0.61916,-0.07955c-0.80029,-0.10508 -1.63423,-0.23226 -2.43452,-0.33734z" data-paper-data="{&quot;noHover&quot;:false,&quot;origItem&quot;:[&quot;Path&quot;,{&quot;applyMatrix&quot;:true,&quot;segments&quot;:[[[468.17974,324.84374],[-1.63909,-0.20732],[0,0]],[469.41986,325.0006],[[469.84227,325.12022],[-0.23426,-0.09582],[0.15542,-0.50099]],[[470.40475,323.5433],[-0.21951,0.55236],[0.61867,-1.55676]],[[473.99442,318.79104],[-2.07053,0.01427],[0.5316,-0.00366]],[[472.448,318.40056],[0.46512,0.25398],[-1.87009,-1.02115]],[[467.02266,316.08862],[2.06816,0.60978],[0,0]],[[466.96899,316.08397],[0,0],[-1.61245,2.50074]],[[463.26248,324.22177],[0.81151,-2.87375],[1.63909,0.20732]]],&quot;closed&quot;:true}]}" fill="#a3a3a3"/><path d="M230.40314,160.46642c0.11466,0.10034 0.18791,0.20662 0.23172,0.31245c1.27057,0.09385 3.48205,0.06484 4.27531,0.81058c1.18302,1.11216 0.37712,3.04181 1.24861,4.30474c0.84502,1.22456 2.94585,0.94334 4.21154,1.15978c1.97307,-0.80457 1.68192,-3.22945 3.007,-4.34621c0.2329,-0.19628 1.51608,-0.23546 1.90826,-0.25598c0.48469,-0.02536 2.39085,-0.14377 2.70649,0.19642c1.62708,1.75367 -0.01306,7.11698 -0.79728,8.90356c-0.91463,1.52206 -2.08479,3.78683 -3.53154,4.71394c-3.4862,2.23402 -8.70567,-0.14327 -11.6192,-2.32681c-0.9843,-1.12572 -2.47443,-2.06969 -3.012,-3.59081c-0.88226,-2.49653 -0.57967,-6.07672 -0.2603,-8.69783l0.60049,-1.0356c0,0 0.45886,-0.64878 1.03089,-0.14824zM230.16106,162.38212c-0.26429,2.3213 -0.45632,5.22195 0.24228,7.35575c0.39146,1.19568 1.83111,2.04827 2.59097,2.93284c2.51027,1.84003 6.96806,3.94815 9.98015,2.16301c1.17277,-0.69506 2.21552,-2.86446 2.95367,-4.0811c0.49518,-1.14171 1.72514,-6.72025 0.8099,-6.60828c-0.3659,0.04475 -2.27879,-0.34835 -2.47339,-0.15071c-0.17916,0.18195 -0.51764,1.82553 -0.75578,2.19179c-0.75028,1.1539 -1.83624,2.03361 -2.99769,2.49653c-1.83049,-0.19517 -4.30385,-0.00908 -5.52019,-1.77174c-0.48596,-0.70423 -0.51866,-3.6879 -0.94137,-3.97571c-0.80604,-0.54879 -2.82789,-0.44254 -3.88856,-0.55237z" fill="#c20000"/><path d="M234.0216,162.89034c0.42271,0.28781 0.52382,3.34559 1.00977,4.04981c1.21634,1.76266 3.69775,1.53811 5.52824,1.73328c1.16145,-0.46293 2.15454,-1.31046 2.90481,-2.46436c0.23814,-0.36625 0.6609,-2.06603 0.84005,-2.24797c0.19461,-0.19763 2.11156,0.20301 2.47746,0.15826c0.91524,-0.11195 -0.31069,5.50135 -0.80587,6.64306c-0.73815,1.21665 -1.79497,3.41493 -2.96774,4.10999c-3.01209,1.78514 -7.54534,-0.3321 -10.05561,-2.17213c-0.75985,-0.88458 -2.20673,-1.7628 -2.59819,-2.95848c-0.6986,-2.1338 -0.49609,-5.07148 -0.2318,-7.39277c1.06068,0.10983 3.09283,-0.00749 3.89887,0.54129z" data-paper-data="{&quot;noHover&quot;:false,&quot;origItem&quot;:[&quot;Path&quot;,{&quot;applyMatrix&quot;:true,&quot;segments&quot;:[[[462.04101,325.8389],[2.17239,0.21669],[-0.5413,4.57985]],[[462.53723,340.35163],[-1.43082,-4.20995],[0.80176,2.35903]],[[467.84385,346.13806],[-1.55627,-1.74526],[5.14134,3.63034]],[[488.2844,350.40562],[-6.16912,3.52205],[2.40198,-1.37133]],[[494.33389,342.3537],[-1.51182,2.40041],[1.01418,-2.25257]],[[495.99266,329.31572],[1.87452,-0.22089],[-0.74939,0.08831]],[[490.92686,329.01838],[0.39857,-0.38993],[-0.36693,0.35898]],[[489.37895,333.34271],[0.48774,-0.72261],[-1.53665,2.27662]],[[483.23931,338.26831],[2.3788,-0.91334],[-3.74906,-0.38507]],[[471.9333,334.7727],[2.49121,3.47768],[-0.9953,-1.38942]],[[470.00526,326.92872],[0.86576,0.56783],[-1.65086,-1.08275]]],&quot;closed&quot;:true}]}" fill="#df0000"/><path d="M227.39066,173.03199c-0.43943,-0.60822 0.14648,-1.06438 0.14648,-1.06438l0.69608,-0.49317c0.01884,-0.00652 0.03766,-0.01304 0.0565,-0.01955c-0.02277,-0.03478 -0.04547,-0.06964 -0.06809,-0.10458c0,0 -0.40626,-0.63259 0.20312,-1.05431c0.60938,-0.42172 1.01562,0.21087 1.01562,0.21087c0.92816,1.45918 2.00174,2.76761 3.21242,3.84792c0.02764,-0.00328 0.05574,-0.00498 0.08422,-0.00498c0.04578,0 0.09056,0.00436 0.13402,0.0127l0.71877,0.12436l-0.04925,0.30674c2.03293,0.26732 4.21482,1.51027 6.20027,1.98407c1.19806,0.2859 1.77862,-0.41911 2.68409,-0.39624c0.18446,0.00465 0.34418,0.02211 0.48386,0.05122c0.57622,-0.62149 1.13303,-1.34464 1.63876,-1.86016c0.61125,-0.62309 1.4078,-0.98496 2.20828,-1.32071l0.29679,-0.38512c0.13409,-0.17708 0.34231,-0.29082 0.57612,-0.29082c0.40449,0 0.73238,0.34038 0.73238,0.76027c0,0.1277 -0.03032,0.24803 -0.0839,0.35369l-0.35961,0.74659c-0.34022,0.67657 -0.69911,1.07704 -1.12718,1.3821c0.15809,0.13765 0.29613,0.36935 0.20612,0.74311c-0.17763,0.73758 -0.88813,0.55317 -0.88813,0.55317l-0.19022,-0.11436c-0.24413,0.04223 -0.48825,0.08448 -0.73238,0.12671c0,0 -0.2239,0.03873 -0.44319,-0.05632c-0.16139,0.27949 -0.22767,0.62627 -0.39939,0.94418l0.26354,0.23216c0,0 0.51787,0.53759 0,1.07519c-0.51787,0.53759 -1.03574,0 -1.03574,0l-0.45427,-0.51165c-0.37237,0.07194 -0.80097,0.10269 -1.21636,0.12538c-0.00689,0.00043 -0.0138,0.0008 -0.02071,0.00113c-0.4778,0.02585 -0.93656,0.04175 -1.2702,0.09838c-1.70765,0.00558 -3.30141,-0.32381 -4.77554,-0.92575c-0.08158,0.16936 -0.16314,0.33872 -0.24471,0.50807l-0.615,0.546c0,0 -0.60938,0.42173 -1.01562,-0.21086c-0.40625,-0.63259 0.20312,-1.05431 0.20312,-1.05431l0.11738,0.03916c0.06993,-0.14517 0.13984,-0.29034 0.20976,-0.43551c-0.29862,-0.12895 -0.59225,-0.30877 -0.88096,-0.55956c-1.66025,-1.0743 -3.13414,-2.51295 -4.41095,-4.19905c-0.16685,0.05773 -0.33368,0.11547 -0.50053,0.1732l-0.28042,0.2671c0,0 -0.5859,0.45616 -1.02533,-0.15205z" fill="#878765"/><path d="M229.19719,172.82925c0,-0.19258 0.06898,-0.36844 0.18268,-0.5024c-0.20041,-0.00564 -0.43529,-0.096 -0.59362,-0.42472c-0.32753,-0.68001 0.32753,-1.02001 0.32753,-1.02001c0.43969,-0.22718 0.86748,-0.48136 1.27827,-0.76093c-0.07359,-0.69273 -0.10272,-1.31282 -0.01784,-1.98029h-0.20053v-0.88699c0,-0.41989 0.32789,-0.76027 0.73238,-0.76027c0.32945,0 0.6081,0.22582 0.70013,0.53648l0.23878,0.74364l-0.01526,0.00529l0.02627,0.0322c0.02213,0.10475 0.04785,0.20847 0.07502,0.31058c0.10554,-0.28528 0.37196,-0.48777 0.68392,-0.48777c0.40449,0 0.73238,0.34038 0.73238,0.76027c0,0.41989 -0.32789,0.76027 -0.73238,0.76027c-0.08604,0 -0.16862,-0.0154 -0.24532,-0.0437c0.00079,0.01446 0.00119,0.02903 0.00119,0.0437c0,0.04099 -0.00312,0.08123 -0.00914,0.12046l-0.11876,0.86297c-0.00175,0.01434 -0.00389,0.02858 -0.0064,0.04267l-0.11285,0.70292c0.0206,0.03166 0.03897,0.06501 0.05486,0.09982l0.04002,0.08306c0.08637,-0.16127 0.22761,-0.28649 0.39754,-0.34852c-0.00076,-0.01418 -0.00114,-0.02846 -0.00114,-0.04284c0,-0.41989 0.32789,-0.76027 0.73238,-0.76027c0.40449,0 0.73238,0.34038 0.73238,0.76027c0,0.09794 -0.01784,0.19155 -0.05033,0.27754c0.13104,0.10163 0.2282,0.24773 0.27073,0.41674l0.1303,0.47341c0.38782,-0.36312 0.91792,-0.59986 1.26166,-0.48071c0.23097,0.08006 0.55104,1.01144 0.8289,1.96007v-0.1128v0c0,-0.41989 0.32789,-0.76027 0.73238,-0.76027c0.25474,0 0.4791,0.13501 0.61032,0.33986c0.13121,-0.20486 0.35557,-0.33986 0.61032,-0.33986c0.40449,0 0.73238,0.34038 0.73238,0.76027c0,0.41989 -0.32789,0.76027 -0.73238,0.76027c-0.14439,0 -0.27903,-0.04339 -0.39247,-0.11827l0.01891,0.13746l-0.06563,0.00973c0.12519,0.30002 0.22366,0.60816 0.30585,0.97214c0.20714,0.0837 0.42478,0.24301 0.57476,0.43686c0.08208,-0.17262 0.22542,-0.30825 0.40053,-0.37625c-0.14257,-0.13871 -0.23166,-0.33597 -0.23166,-0.55482c0,-0.39518 0.29043,-0.71994 0.66181,-0.7568l-0.03926,-0.2445c-0.00804,-0.04511 -0.01224,-0.0916 -0.01224,-0.13912c0,-0.2701 0.13568,-0.50728 0.34014,-0.64216l-0.08686,-0.63122c-0.00602,-0.03923 -0.00914,-0.07947 -0.00914,-0.12046c0,-0.41989 0.32789,-0.76027 0.73238,-0.76027c0.1752,0 0.33603,0.06386 0.46207,0.17038l0.60576,0.50306l-0.08321,0.10798c0.2991,0.2107 0.51436,0.44507 0.75003,0.78315c0.1261,-0.10673 0.28709,-0.17074 0.46248,-0.17074c0.37301,0 0.68089,0.28947 0.72654,0.66382l0.0636,0.46216l0.13495,-0.05838c0.02404,-0.05247 0.05372,-0.10163 0.0882,-0.14664l-0.09327,-0.2259c-0.04213,-0.09596 -0.06559,-0.2026 -0.06559,-0.31494c0,-0.41989 0.32789,-0.76027 0.73238,-0.76027c0.1752,0 0.33603,0.06386 0.46207,0.17038l0.13777,0.11441c-0.08753,-0.23155 -0.16456,-0.45955 -0.21205,-0.60838l0.01101,-0.0622l-0.02265,0.00392l-0.1198,-0.74614c-0.00804,-0.04511 -0.01224,-0.0916 -0.01224,-0.13912c0,-0.41989 0.32789,-0.76027 0.73238,-0.76027c0.2338,0 0.44203,0.11374 0.57612,0.29082l0.48402,0.62808l-0.01713,0.01422c0.39522,0.35727 0.61609,0.83724 0.45401,1.71245c-0.01749,0.09444 -0.09629,0.12755 -0.19886,0.1297c0.01895,0.05858 0.03689,0.11406 0.05343,0.16521c0.10377,0.05693 0.19533,0.11778 0.24889,0.1774l0.56061,0.46557c0.17059,0.1392 0.28015,0.35535 0.28015,0.59806c0,0.16551 -0.05094,0.31867 -0.13744,0.44349c0.0865,0.12483 0.13744,0.27799 0.13744,0.44349c0,0.41989 -0.32789,0.76027 -0.73238,0.76027c-0.15389,0 -0.2967,-0.04928 -0.41458,-0.13345l-0.69009,-0.47758c-0.16032,-0.05224 -0.30713,-0.26516 -0.44328,-0.43053c-0.01941,0.03848 -0.0419,0.07501 -0.06714,0.10926c0.01194,0.08091 0.02155,0.16235 0.02915,0.24418l0.09301,-0.02758l0.23948,0.8701c0.02134,0.07132 0.03282,0.14715 0.03282,0.22575c0,0.41989 -0.32789,0.76027 -0.73238,0.76027c-0.18987,0 -0.36287,-0.075 -0.49299,-0.19804c-0.03124,0.22805 -0.19018,0.47337 -0.59227,0.65772c0.14209,0.13867 0.23082,0.33558 0.23082,0.55402c0,0.41989 -0.32789,0.76027 -0.73238,0.76027c-0.40449,0 -0.73238,-0.34038 -0.73238,-0.76027c0,-0.2125 0.08399,-0.40465 0.21938,-0.5426c-0.36411,-0.1996 -0.78792,-0.56984 -1.08566,-0.96781c-0.02622,0.14975 -0.09469,0.2842 -0.19213,0.38957c0.05399,0.24819 0.07459,0.48227 0.06224,0.7407h0.14172v0.76027c0,0.41989 -0.32789,0.76027 -0.73238,0.76027c-0.1752,0 -0.33603,-0.06386 -0.46207,-0.17038l-0.60576,-0.50307l0.01642,-0.02132l-0.07678,-0.03477c-0.3327,-0.42954 -0.95298,-0.94233 -1.05345,-1.39505c-0.17569,-0.0683 -0.35074,-0.13769 -0.51372,-0.2275c-0.13243,0.19632 -0.35194,0.32469 -0.60035,0.32469c-0.28283,0 -0.52821,-0.16643 -0.65023,-0.41008c-0.13425,0.17282 -0.33988,0.28337 -0.57041,0.28337c-0.24947,0 -0.4698,-0.12948 -0.60204,-0.32723l-0.46691,0.48469c-0.08682,0.09013 -0.19532,0.15772 -0.3167,0.19364c-0.0071,0.00985 -0.01432,0.01959 -0.02165,0.02924l-0.02944,0.0289l0.00159,0.00165l-0.73238,0.76027c-0.13254,0.13759 -0.31564,0.22268 -0.51787,0.22268c-0.21823,0 -0.41416,-0.09908 -0.54834,-0.25627l-0.03236,0.03359c-0.13254,0.13759 -0.31564,0.22268 -0.51787,0.22268c-0.40449,0 -0.73238,-0.34038 -0.73238,-0.76027c0,-0.04751 0.0042,-0.09401 0.01224,-0.13912l0.1198,-0.74614l0.19445,0.03364c0.02896,-0.332 0.09576,-0.65627 0.21753,-0.95987c0.0042,-0.01045 0.09781,-0.37525 0.21855,-0.7392c-0.04911,0.01078 -0.10003,0.01644 -0.15224,0.01644c-0.03273,0 -0.06498,-0.00223 -0.09658,-0.00655c-0.41519,0.12717 -0.90178,0.18219 -1.18997,0.1078c-0.5836,-0.15066 -1.35025,-0.92809 -1.62433,-1.74874c-0.0062,0.00016 -0.01241,0.00024 -0.01864,0.00024c-0.40449,0 -0.73238,-0.34038 -0.73238,-0.76027zM230.22937,172.08905c0.0629,-0.06014 0.12576,-0.10855 0.18852,-0.14678c-0.00002,0 -0.00004,0 -0.00006,0c-0.03242,0 -0.06434,-0.00219 -0.09565,-0.00643c-0.08494,0.04972 -0.17036,0.0985 -0.25628,0.14629c0.04526,0.00884 0.08905,0.02202 0.13096,0.03907c0.01058,-0.01081 0.02141,-0.02152 0.03252,-0.03214zM231.77638,173.71333c0.05089,0.06453 0.10682,0.11959 0.17213,0.15509c0.04427,0.02407 0.10457,0.01489 0.17821,-0.01644v-0.01753c-0.10024,-0.01589 -0.2239,-0.06089 -0.35033,-0.12111z" fill="#922323"/><path d="M234.8121,170.1683c0,-0.41989 0.32789,-0.76027 0.73238,-0.76027c0.40449,0 0.73238,0.34038 0.73238,0.76027c0,0.41989 -0.32789,0.76027 -0.73238,0.76027c-0.40449,0 -0.73238,-0.34038 -0.73238,-0.76027z" fill="#922323"/><path d="M241.76969,169.78816c0,-0.41989 0.32789,-0.76027 0.73238,-0.76027c0.40449,0 0.73238,0.34038 0.73238,0.76027c0,0.41989 -0.32789,0.76027 -0.73238,0.76027c-0.40449,0 -0.73238,-0.34038 -0.73238,-0.76027z" fill="#922323"/><path d="M245.91984,177.26418c0,-0.41989 0.32789,-0.76027 0.73238,-0.76027c0.40449,0 0.73238,0.34038 0.73238,0.76027c0,0.41989 -0.32789,0.76027 -0.73238,0.76027c-0.40449,0 -0.73238,-0.34038 -0.73238,-0.76027z" fill="#922323"/><path d="M230.53989,176.12377c0,-0.41989 0.32789,-0.76027 0.73238,-0.76027c0.40449,0 0.73238,0.34038 0.73238,0.76027c0,0.41989 -0.32789,0.76027 -0.73238,0.76027c-0.40449,0 -0.73238,-0.34038 -0.73238,-0.76027z" fill="#922323"/><path d="M234.8121,172.95597c0.40449,0 0.73238,0.34038 0.73238,0.76027c0,0.41989 -0.32789,0.76027 -0.73238,0.76027c-0.09527,0 -0.18629,-0.01889 -0.26978,-0.05325c-0.04045,0.15421 -0.12647,0.28892 -0.24213,0.38757c-0.34225,0.51584 -0.91418,0.21898 -0.91418,0.21898l-0.48849,-0.33178c-0.51954,-0.67534 -0.94035,-1.35524 -1.5328,-1.96474c0,0 -0.00612,-0.00636 -0.01638,-0.01839c-0.10382,0.28882 -0.37197,0.49449 -0.68639,0.49449c-0.40449,0 -0.73238,-0.34038 -0.73238,-0.76027c0,-0.40688 0.30789,-0.7391 0.69501,-0.7593c-0.19813,-0.13607 -0.32882,-0.36945 -0.32882,-0.63453c0,-0.41989 0.32789,-0.76027 0.73238,-0.76027c0.40449,0 0.73238,0.34038 0.73238,0.76027c0,0.14884 -0.0412,0.28768 -0.11241,0.40492c0.40793,-0.15963 0.75234,0.19789 0.75234,0.19789c0.43443,0.45442 0.78654,0.93501 1.14592,1.42599c0.01492,-0.00094 0.02995,-0.00142 0.04509,-0.00142c0.23051,0 0.43615,0.11055 0.57041,0.28337c0.12202,-0.24365 0.36741,-0.41008 0.65023,-0.41008zM231.06552,171.81458c0.04409,0.03029 0.08485,0.06538 0.12157,0.10458c0.02023,-0.04793 0.04704,-0.09659 0.0816,-0.14557c-0.06413,0.02314 -0.13232,0.03729 -0.20316,0.04098z" fill="#a62828"/><path d="M238.71812,175.3635c0,0.76027 -0.73238,0.76027 -0.73238,0.76027h-0.73238c0,0 -0.46161,0 -0.65189,-0.38044c-0.10046,0.29545 -0.37181,0.50715 -0.69081,0.50715c-0.40449,0 -0.73238,-0.34038 -0.73238,-0.76027c0,-0.41989 0.32789,-0.76027 0.73238,-0.76027c0.27498,0 0.51457,0.15732 0.6398,0.38998c0.13677,-0.51669 0.7029,-0.51669 0.7029,-0.51669h0.73238c0,0 0.73238,0 0.73238,0.76027z" fill="#a62828"/><path d="M242.13495,176.41878c-0.40625,0.63259 -1.01562,0.21086 -1.01562,0.21086l-0.41745,-0.29233c-0.45536,-0.3782 -0.90603,-0.76249 -1.35404,-1.15003c0,0 -0.56263,-0.48672 -0.09376,-1.07078c0.46886,-0.58406 1.03148,-0.09735 1.03148,-0.09735c0.44048,0.38108 0.88358,0.75898 1.33135,1.13079l0.31493,0.21451c0,0 0.0356,0.02464 0.08387,0.07096c0.02704,-0.39432 0.34377,-0.70548 0.7305,-0.70548c0.0642,0 0.12646,0.00857 0.1858,0.02468c-0.08155,-0.09329 -0.14652,-0.224 -0.17583,-0.40654c-0.1204,-0.74992 0.60201,-0.87491 0.60201,-0.87491c0.24413,-0.04223 0.48825,-0.08448 0.73238,-0.12671l0.24247,-0.01035c0,0 0.73238,0 0.73238,0.76027c0,0.76027 -0.73238,0.76027 -0.73238,0.76027l-0.00166,-0.01034c-0.24413,0.04223 -0.48825,0.08448 -0.73238,0.12671c0,0 -0.1551,0.02683 -0.33353,-0.01897c0.13172,0.13747 0.21312,0.32695 0.21312,0.53616c0,0.41989 -0.32789,0.76027 -0.73238,0.76027c-0.18197,0 -0.34845,-0.06889 -0.47653,-0.18293c-0.01317,0.1076 -0.0538,0.22523 -0.13472,0.35124z" fill="#a62828"/><path d="M245.18746,172.95597c0,-0.41989 0.32789,-0.76027 0.73238,-0.76027c0.40449,0 0.73238,0.34038 0.73238,0.76027c0,0.41989 -0.32789,0.76027 -0.73238,0.76027c-0.40449,0 -0.73238,-0.34038 -0.73238,-0.76027z" fill="#a62828"/><path d="M228.55726,182.30192c0.51787,-0.53759 1.03574,0 1.03574,0l0.61032,0.63356c0,0 0.51787,0.53759 0,1.07519c-0.51787,0.53759 -1.03574,0 -1.03574,0l-0.61032,-0.63356c0,0 -0.51787,-0.53759 0,-1.07519z" fill="#9c9c75"/><path d="M245.55365,183.85321c0,0.76027 -0.73238,0.76027 -0.73238,0.76027l-0.00166,-0.01034c-0.24413,0.04223 -0.48825,0.08448 -0.73238,0.12671c0,0 -0.72241,0.12499 -0.84281,-0.62494c-0.1204,-0.74992 0.60201,-0.87491 0.60201,-0.87491c0.24413,-0.04223 0.48825,-0.08448 0.73238,-0.12671l0.24247,-0.01035c0,0 0.73238,0 0.73238,0.76027z" fill="#9c9c75"/><path d="M245.75935,190.28362c-0.45751,0.59367 -1.0294,0.11873 -1.0294,0.11873l-0.61032,-0.50685c0,0 -0.57189,-0.47495 -0.11438,-1.06862c0.45751,-0.59367 1.0294,-0.11873 1.0294,-0.11873l0.61032,0.50685c0,0 0.57189,0.47495 0.11438,1.06862z" fill="#9c9c75"/><path d="M232.36996,180.58991c-0.1828,-0.09519 -0.36531,-0.28525 -0.36531,-0.66478c0,-0.76027 0.73238,-0.76027 0.73238,-0.76027l0.77712,0.42027c0.21188,0.44603 0.46985,0.87236 0.77127,1.25889c0,0 0.45751,0.59368 -0.11438,1.06862c-0.57189,0.47494 -1.0294,-0.11873 -1.0294,-0.11873c-0.28814,-0.37754 -0.54592,-0.78222 -0.77168,-1.204z" fill="#9c9c75"/><path d="M235.31458,187.67696l-0.12632,-0.90765c0.02307,-0.14052 0.04386,-0.28124 0.06261,-0.42214c-0.35024,0.00607 -0.70004,0.01468 -1.04909,0.0264c0,0.38477 0,0.76953 0,1.15429v0.34912c0.39761,0.00875 0.79533,0.01653 1.19328,0.02243c-0.06089,-0.12075 -0.08049,-0.22246 -0.08049,-0.22246zM235.42241,182.33267c0,0 0,-0.10162 0.03579,-0.23056c-0.4573,0.08955 -0.90965,0.20816 -1.34831,0.35656c0.09189,0.1903 0.09189,0.38085 0.09189,0.38085c0,0.67443 0,1.34888 0,2.02332c0.39321,-0.01282 0.78722,-0.02199 1.18165,-0.02826c0.04094,-0.8314 0.03898,-1.66667 0.03898,-2.50191zM236.88717,182.33267c0,0.83317 -0.00274,1.6633 -0.04163,2.49043c0.57193,-0.00046 1.14368,0.00315 1.71405,0.00845c-0.04673,-0.83167 -0.0856,-1.66501 -0.0856,-2.4989c0,0 0,-0.20148 0.09992,-0.39699c-0.57773,-0.05305 -1.18219,-0.05754 -1.79277,-0.01174c0.10604,0.19911 0.10603,0.40873 0.10603,0.40873zM236.63308,187.01929l0.11781,0.35947c0,0 0.0563,0.29217 -0.0778,0.54726c0.64312,0.1074 1.28956,0.19722 1.93768,0.27507c0.01781,-0.07546 0.04948,-0.15199 0.10111,-0.22484c-0.01117,-0.54171 -0.03584,-1.08478 -0.06524,-1.62887c-0.63876,-0.00741 -1.27953,-0.01277 -1.92035,-0.0125c-0.02648,0.22837 -0.05731,0.45649 -0.0932,0.68439zM239.93875,182.33267c0,0.84125 0.0372,1.67913 0.08255,2.51483c0.8749,0.01007 1.74401,0.01941 2.60283,0.01941l0.11207,-0.03753c-0.55918,-1.14893 -1.29652,-2.16344 -2.7581,-2.65375c-0.02023,-0.00526 -0.04053,-0.01045 -0.0609,-0.01557c0.02154,0.10015 0.02154,0.1726 0.02154,0.1726zM242.1878,188.54347c0.53056,0.04313 1.06551,0.03682 1.59656,0.00068c0.28967,-0.01972 1.06177,0.26386 0.8701,0.03755c-0.58194,-0.68711 -0.95471,-1.51992 -1.30957,-2.36188c-0.03387,0.01277 -0.05488,0.01823 -0.05488,0.01823l-0.66588,0.14941c-0.82994,0 -1.67074,-0.00991 -2.51775,-0.02114c0.03575,0.66827 0.06542,1.3356 0.07407,2.00262c0.6694,0.06407 1.33913,0.1202 2.00734,0.17453zM229.70215,186.75467c-0.0749,0.3256 -0.12081,0.66845 -0.13449,1.02884c1.05905,0.00744 2.11455,0.03253 3.16936,0.0585c0,-0.44271 0,-0.91467 0,-1.39895c-1.02494,0.0641 -2.03932,0.16283 -3.03487,0.31162zM230.3884,185.13265c0.77532,-0.09094 1.55929,-0.1566 2.34863,-0.20337c0,-0.64812 0,-1.2874 0,-1.87902c-0.95731,0.51439 -1.78062,1.2052 -2.34863,2.08239zM227.97656,188.54156c0,-0.19966 0.0505,-0.34688 0.12499,-0.45544c-0.00293,-0.03225 -0.00293,-0.0514 -0.00293,-0.0514c0.01897,-6.25715 7.38011,-8.59076 12.28901,-7.31899c2.69485,0.95312 4.26386,3.76285 5.12843,6.445c0.14018,0.43488 0.61342,1.77462 0.44852,2.10098c-0.25253,0.49978 -1.52752,0.75574 -2.05941,0.79782c-2.41432,0.19097 -5.06795,-0.21309 -7.4446,-0.63356c-2.50394,0.00965 -4.99544,-0.12412 -7.50751,-0.12412h-0.24413c0,0 -0.73238,0 -0.73238,-0.76027z" fill="#000000"/><path d="M239.88137,182.12565c0.02037,0.00512 0.04121,0.0097 0.06145,0.01496c1.46158,0.49032 2.27052,1.57372 2.8297,2.72266l-0.11393,0.03955c-0.85883,0 -1.79717,-0.00971 -2.67208,-0.01977c-0.04536,-0.8357 -0.08552,-1.74128 -0.08552,-2.58253c0,0 0.00192,-0.07473 -0.01962,-0.17489z" data-paper-data="{&quot;noHover&quot;:false,&quot;origItem&quot;:[&quot;Path&quot;,{&quot;applyMatrix&quot;:true,&quot;segments&quot;:[[[482.0669,365.20083],[0,0],[0,1.65976]],[[482.23597,370.16254],[-0.0929,-1.64883],[1.79191,0.01985]],[[487.5669,370.20083],[-1.75898,0],[0,0]],[[487.79644,370.12679],[0,0],[-1.14526,-2.26682]],[[482.14752,364.89101],[2.99349,0.96737],[-0.04144,-0.01038]],[[482.02278,364.86029],[0.04172,0.0101],[0.04412,0.19761]]],&quot;closed&quot;:true}]}" fill="#ffe77b"/><path d="M240.13515,188.38784c-0.00865,-0.66702 -0.03748,-1.3742 -0.07323,-2.04247c0.84701,0.01122 1.74296,-0.00738 2.5729,-0.00738l0.68497,-0.14012c0,0 0.02182,-0.00477 0.0557,-0.01755c0.35487,0.84197 0.74096,1.73636 1.3229,2.42348c0.19167,0.22631 -0.58555,-0.04864 -0.87521,-0.02892c-0.53104,0.03614 -1.11423,0.06146 -1.64479,0.01833c-0.66821,-0.05433 -1.37384,-0.1413 -2.04325,-0.20536z" data-paper-data="{&quot;noHover&quot;:false,&quot;origItem&quot;:[&quot;Path&quot;,{&quot;applyMatrix&quot;:true,&quot;segments&quot;:[[[486.67323,377.4546],[-1.36859,-0.10719],[1.08665,0.08511]],[[489.94318,377.45594],[-1.08765,0.07131],[0.59327,-0.0389]],[[491.72526,377.53001],[0.39257,0.44651],[-1.19188,-1.35565]],[[489.0431,372.87008],[0.72681,1.66118],[-0.06938,0.0252]],[488.9307,372.90604],[[487.5669,373.20083],[0,0],[-1.69981,0]],[[482.41024,373.15914],[1.73479,0.02213],[0.07321,1.31848]],[[482.56194,377.11026],[-0.01771,-1.31601],[1.37102,0.12639]]],&quot;closed&quot;:true}]}" fill="#ffe77b"/><path d="M236.69088,186.29998c0.64082,-0.00027 1.35309,0.00589 1.99185,0.01329c0.0294,0.54409 0.05879,1.14909 0.06996,1.6908c-0.05163,0.07283 -0.08886,0.15662 -0.10667,0.23208c-0.64811,-0.07785 -1.37104,-0.17558 -2.01416,-0.28298c0.13408,-0.25511 0.07052,-0.56858 0.07052,-0.56858l-0.11688,-0.37669c0.03589,-0.2279 0.07889,-0.47955 0.10537,-0.70792z" data-paper-data="{&quot;noHover&quot;:false,&quot;origItem&quot;:[&quot;Path&quot;,{&quot;applyMatrix&quot;:true,&quot;segments&quot;:[[[475.29649,374.44743],[0.0735,-0.44964],[0,0]],[475.53777,375.15665],[[475.37844,376.2364],[0.27462,-0.50332],[1.31719,0.2119]],[[479.34703,376.77911],[-1.3274,-0.15359],[0.03648,-0.14889]],[[479.55411,376.33552],[-0.10574,0.14371],[-0.02287,-1.06878]],[[479.42048,373.1218],[0.06023,1.07348],[-1.30827,-0.01462]],[[475.48737,373.09714],[1.31247,-0.00055],[-0.05423,0.45055]]],&quot;closed&quot;:true}]}" fill="#ffe77b"/><path d="M236.75461,181.88138c0.61058,-0.0458 1.26824,-0.04121 1.84597,0.01184c-0.09992,0.19551 -0.09601,0.39992 -0.09601,0.39992c0,0.83389 0.03411,1.74976 0.08084,2.58143c-0.57036,-0.00531 -1.19278,-0.00829 -1.76471,-0.00784c0.03888,-0.82714 0.03603,-1.74054 0.03603,-2.57371c0,0 0.00391,-0.21254 -0.10213,-0.41165z" data-paper-data="{&quot;noHover&quot;:false,&quot;origItem&quot;:[&quot;Path&quot;,{&quot;applyMatrix&quot;:true,&quot;segments&quot;:[[[475.8169,365.20083],[0,0],[0,1.64383]],[[475.73164,370.1144],[0.07964,-1.63191],[1.17138,-0.0009]],[[479.24222,370.13109],[-1.16817,-0.01048],[-0.09571,-1.64085]],[[479.0669,365.20083],[0,1.64524],[0,0]],[[479.27153,364.41757],[-0.20463,0.38575],[-1.18326,-0.10467]],[[475.59973,364.39441],[1.25053,-0.09035],[0.21717,0.39283]]],&quot;closed&quot;:true}]}" fill="#ffe77b"/><path d="M235.40385,184.88061c-0.39443,0.00626 -0.82844,0.01581 -1.22165,0.02864c0,-0.67443 -0.01387,-1.43223 -0.01387,-2.10667c0,0 0.00589,-0.19546 -0.086,-0.38576c0.43866,-0.14841 0.94065,-0.27038 1.39794,-0.35992c-0.03579,0.12894 -0.03349,0.23185 -0.03349,0.23185c0,0.83524 -0.002,1.76047 -0.04295,2.59187z" data-paper-data="{&quot;noHover&quot;:false,&quot;origItem&quot;:[&quot;Path&quot;,{&quot;applyMatrix&quot;:true,&quot;segments&quot;:[[[472.8169,365.20083],[0,1.64789],[0,0]],[[472.8902,364.74594],[-0.0733,0.25439],[-0.9366,0.17668]],[[470.1287,365.44943],[0.89842,-0.29279],[0.1882,0.37546]],[[470.3169,366.20083],[0,0],[0,1.33065]],[[470.3169,370.19278],[0,-1.33065],[0.80533,-0.0253]],[[472.73706,370.13703],[-0.80784,0.01237],[0.08387,-1.64034]]],&quot;closed&quot;:true}]}" fill="#ffe77b"/><path d="M235.42552,187.93903c-0.39795,-0.0059 -0.85712,-0.01414 -1.25473,-0.02289l-0.00987,-0.36056c0,-0.38477 0.00978,-0.83632 0.00978,-1.22108c0.34905,-0.01172 0.75522,-0.02461 1.10546,-0.03068c-0.01875,0.14089 -0.02807,0.29161 -0.05115,0.43213l0.12353,0.97745c0,0 0.01609,0.1049 0.07699,0.22565z" data-paper-data="{&quot;noHover&quot;:false,&quot;origItem&quot;:[&quot;Path&quot;,{&quot;applyMatrix&quot;:true,&quot;segments&quot;:[[472.59603,375.745],[[472.33731,373.95423],[0,0],[0.04725,-0.27724]],[[472.46556,373.12136],[-0.0384,0.27799],[-0.71733,0.01198]],[[470.3169,373.17344],[0.71489,-0.02313],[0,0.75913]],[[470.3169,375.45083],[0,-0.75913],[0,0]],[[470.3169,376.13964],[0,0],[0.81437,0.01726]],[[472.76088,376.1839],[-0.81505,-0.01165],[-0.12472,-0.23825]]],&quot;closed&quot;:true}]}" fill="#ffe77b"/><path d="M232.78196,186.42321c0,0.48428 0,0.99591 0,1.43862c-1.05481,-0.02597 -2.20074,-0.05249 -3.25979,-0.05993c0.01367,-0.36038 0.05781,-0.73429 0.13271,-1.05989c0.99555,-0.14878 2.10215,-0.25471 3.12709,-0.31881z" data-paper-data="{&quot;noHover&quot;:false,&quot;origItem&quot;:[&quot;Path&quot;,{&quot;applyMatrix&quot;:true,&quot;segments&quot;:[[[461.10112,373.92533],[2.03899,-0.29355],[-0.1534,0.6424]],[[460.82566,375.9552],[0.02801,-0.71103],[2.16907,0.01469]],[[467.3169,376.07062],[-2.16038,-0.05124],[0,-0.87346]],[[467.3169,373.31051],[0,0.95548],[-2.0992,0.12646]]],&quot;closed&quot;:true}]}" fill="#ffe77b"/><path d="M232.77415,183.01735c0,0.59162 0.00312,1.29252 0.00312,1.94064c-0.78933,0.04677 -1.65067,0.11665 -2.42599,0.20757c0.568,-0.87718 1.46557,-1.63383 2.42288,-2.14822z" data-paper-data="{&quot;noHover&quot;:false,&quot;origItem&quot;:[&quot;Path&quot;,{&quot;applyMatrix&quot;:true,&quot;segments&quot;:[[[462.50663,370.72513],[1.16335,-1.73067],[1.58794,-0.17941]],[[467.3169,370.32389],[-1.61665,0.09228],[0,-1.27872]],[[467.3169,366.61663],[0,1.16727],[-1.96069,1.01488]]],&quot;closed&quot;:true}]}" fill="#ffe77b"/><path d="M230.18431,173.82458c0.62801,0.39116 0.25121,1.04308 0.25121,1.04308l-0.33914,0.58241c-0.348,0.71817 -0.66504,1.45473 -0.96902,2.19833c0.26075,0.10042 0.52382,0.1966 0.78968,0.28834l0.58418,0.29467c0,0 0.65506,0.34 0.32753,1.02001c-0.32753,0.68001 -0.98259,0.34 -0.98259,0.34l-0.39232,-0.21218c-0.29885,-0.10368 -0.59447,-0.21246 -0.88744,-0.32616c-0.25458,0.64636 -0.50777,1.29273 -0.77113,1.93178c0,0 -0.2885,0.6988 -0.96166,0.39931c-0.67316,-0.29949 -0.38466,-0.99828 -0.38466,-0.99828c0.26036,-0.62939 0.51134,-1.26489 0.76304,-1.90052c-0.55111,-0.24789 -1.09574,-0.51316 -1.63804,-0.79464c0,0 -0.65506,-0.34 -0.32753,-1.02001c0.32753,-0.68001 0.98259,-0.34 0.98259,-0.34c0.51168,0.26559 1.02522,0.51648 1.54485,0.75105c0.31873,-0.78079 0.64987,-1.55509 1.01238,-2.31173l0.39324,-0.68472c0,0 0.3768,-0.65193 1.00481,-0.26077z" fill="#000000"/><path d="M254.53394,179.00921c0.27201,0.7059 -0.40799,0.98825 -0.40799,0.98825l-0.65071,0.26878c-0.77617,0.26843 -1.54624,0.57426 -2.29953,0.92095c0.26905,0.35062 0.53856,0.70087 0.80888,1.05065l0.3802,0.52563c0,0 0.43943,0.60822 -0.14648,1.06438c-0.5859,0.45616 -1.02533,-0.15205 -1.02533,-0.15205l-0.35218,-0.48807c-0.33875,-0.44094 -0.67691,-0.88224 -1.01487,-1.3238c-0.61569,0.33575 -1.2148,0.70215 -1.79094,1.10131c0,0 -0.60938,0.42173 -1.01562,-0.21086c-0.40625,-0.63259 0.20312,-1.05431 0.20312,-1.05431c0.54219,-0.37484 1.10311,-0.72303 1.67822,-1.04584c-0.77494,-1.01351 -1.55073,-2.02789 -2.33212,-3.04183c0,0 -0.45751,-0.59368 0.11438,-1.06862c0.57189,-0.47494 1.0294,0.11873 1.0294,0.11873c0.84712,1.09922 1.68533,2.19975 2.52444,3.29806c0.90537,-0.43415 1.83575,-0.8116 2.77522,-1.13685l0.56992,-0.23807c0,0 0.67999,-0.28237 0.95199,0.42353z" fill="#000000"/></g></g></svg>