<svg version="1.1" xmlns="http://www.w3.org/2000/svg" xmlns:xlink="http://www.w3.org/1999/xlink" width="38.31454" height="37.57898" viewBox="0,0,38.31454,37.57898"><g transform="translate(-220.81173,-161.17339)"><g data-paper-data="{&quot;isPaintingLayer&quot;:true}" fill-rule="nonzero" stroke-linejoin="miter" stroke-miterlimit="10" stroke-dasharray="" stroke-dashoffset="0" style="mix-blend-mode: normal"><path d="M223.25,162l12.875,1.375l2.25,4.375l9.625,-4.25l9.75,0.375l-0.125,7.125l0.75,11.625l-0.75,14.25l-9.125,1.125l-17,-0.875l-9.875,0.625l0.875,-11.5l-0.875,-11.75z" fill="#668872" stroke="#4c6655" stroke-width="1.5" stroke-linecap="round"/><path d="M239.02604,168.125l0.59896,9.25l-2.39584,2.25l-6.70833,2.625l-7.1875,-3.75l-0.95834,-3.875l8.14584,3.625l6.34895,-2.875l1.4375,-6.75z" fill="#6f937c" stroke="#4c6655" stroke-width="1.5" stroke-linecap="round"/><path d="M239.625,167.5l8.875,-3.625l8.75,0.75l-0.25,5l-9,3.125l-8.625,-0.625z" fill="#6f937c" stroke="#4c6655" stroke-width="1.5" stroke-linecap="round"/><path d="M247.75,172.875l9.25,-2.875l0.125,5.75l-9.375,3.375l-7.625,-2.75l-0.25,-3.75z" fill="#516c5a" stroke="#4c6655" stroke-width="1.5" stroke-linecap="round"/><path d="M237.24995,196.625l-6.87495,-4.75l7,4.875l-10.125,-0.25l2.5,-4.375l0.875,-9.5" fill="#516c5a" stroke="#4c6655" stroke-width="1.5" stroke-linecap="round"/><path d="M243.125,196.875l-0.875,-9.875l2.5,-8.125" fill="none" stroke="#4c6655" stroke-width="1.5" stroke-linecap="round"/><path d="M257.87497,189.375l-4.125,0.75l-1.5,-2.5" fill="none" stroke="#4c6655" stroke-width="1.5" stroke-linecap="round"/><path d="M253.375,190l-1.625,2.625" fill="none" stroke="#4c6655" stroke-width="1.5" stroke-linecap="round"/><path d="M223.74998,162l12.375,1.375l2,4.75l-1.125,7.25l-6.25,2.875l-8.625,-3.875z" fill="#6f937c" stroke="#4c6655" stroke-width="1.5" stroke-linecap="round"/><path d="M236.24995,194.875l-5.25,-10.5" fill="none" stroke="#4c6655" stroke-width="1.5" stroke-linecap="round"/><path d="M249.32338,180.57208c0.01315,0.00789 0.02588,0.01589 0.03818,0.02399c0.11566,-0.0096 0.19924,0.00433 0.19924,0.00433c1.83759,0.3788 3.63797,-2.73945 5.396,-1.64819c1.14452,0.71043 1.29356,3.82415 0.59591,4.81696c-0.94521,1.34512 -3.50527,1.56635 -4.99021,1.57102c-3.23067,-0.01017 -3.61982,-0.84262 -2.71151,-3.73717l0.44339,-0.7737c0,0 0.38587,-0.64312 1.02899,-0.25725zM249.27748,182.07199l-0.00347,0.00538c-0.00967,0.02782 -0.92277,1.8131 -0.69348,1.81236c0.61666,-0.00198 1.3131,-0.04704 1.98197,-0.04953c1.50956,0.00561 5.9847,-1.10835 3.6057,-3.61201c-0.36408,-0.38316 -0.87991,0.58604 -1.32649,0.86876c-1.11939,0.70868 -2.21318,1.17048 -3.52751,0.98304c0,0 -0.01357,-0.00226 -0.03672,-0.00801z" fill="#4c6655" stroke="none" stroke-width="0.5" stroke-linecap="butt"/><path d="M249.26422,182.08136c1.31433,0.18744 2.49711,-0.30702 3.6165,-1.0157c0.44658,-0.28273 0.96392,-1.24994 1.328,-0.86677c2.379,2.50367 -2.16306,3.68938 -3.67262,3.68377c-0.66887,0.00248 -1.38175,0.03086 -1.99841,0.03284c-0.22929,0.00074 0.67668,-1.80902 0.68635,-1.83684l0.10344,-0.00786c0.02315,0.00575 -0.06324,0.01056 -0.06324,0.01056z" data-paper-data="{&quot;noHover&quot;:false,&quot;origItem&quot;:[&quot;Path&quot;,{&quot;applyMatrix&quot;:true,&quot;segments&quot;:[[[249.27748,182.07199],[0.02315,0.00575],[0,0]],[[249.27402,182.07737],[0,0],[-0.00967,0.02782]],[[248.58053,183.88973],[-0.22929,0.00074],[0.61666,-0.00198]],[[250.56251,183.8402],[-0.66887,0.00248],[1.50956,0.00561]],[[254.16821,180.22819],[2.379,2.50367],[-0.36408,-0.38316]],[[252.84172,181.09695],[0.44658,-0.28273],[-1.11939,0.70868]],[[249.31421,182.08],[1.31433,0.18744],[0,0]]],&quot;closed&quot;:true}]}" fill="#e5c69b" stroke="none" stroke-width="0.5" stroke-linecap="butt"/><path d="M234.78835,183.58958c0.34142,0.76772 1.45817,2.06253 1.94927,1.69964c0.37605,-0.27788 1.05219,-0.68735 0.8556,-1.11161c-0.29816,-0.64347 -2.12649,-0.59484 -2.80487,-0.58804zM233.87607,182.46694c0.11098,-0.11504 0.22602,-0.17256 0.22602,-0.17256l0.58541,-0.20418c0.13718,0 1.54759,-0.00278 1.62014,0.00968c2.41119,0.41435 3.87862,3.30573 1.07975,4.54129c-1.94768,0.8598 -4.16581,-1.85905 -4.19989,-3.42598c0,0 0,-0.70846 0.68857,-0.74826z" fill="#4c6655" stroke="none" stroke-width="0.5" stroke-linecap="butt"/><path d="M237.64214,184.16732c0.19658,0.42425 -0.50136,0.88603 -0.87742,1.16391c-0.4911,0.36289 -1.67747,-1.00026 -2.01889,-1.76798c0.67838,-0.0068 2.59814,-0.0394 2.8963,0.60407z" data-paper-data="{&quot;noHover&quot;:false,&quot;origItem&quot;:[&quot;Path&quot;,{&quot;applyMatrix&quot;:true,&quot;segments&quot;:[[[234.78835,183.58958],[0.67838,-0.0068],[0.34142,0.76772]],[[236.73761,185.28922],[-0.4911,0.36289],[0.37605,-0.27788]],[[237.59321,184.17762],[0.19658,0.42425],[-0.29816,-0.64347]]],&quot;closed&quot;:true}]}" fill="#e5c69b" stroke="none" stroke-width="0.5" stroke-linecap="butt"/><path d="M246.47957,190.79544c-0.61336,0.54909 -1.56827,1.47293 -1.54706,1.83329c0.00643,0.10929 2.59565,1.22267 2.66181,1.16959c1.70992,-1.37178 2.40311,-2.84587 0.02685,-3.33542c-0.1905,0.07127 -0.381,0.14254 -0.57149,0.21381zM246.8145,189.17997c0.22978,-0.07082 0.45956,-0.14165 0.68934,-0.21247c0.68315,0.09999 2.34521,0.28374 2.839,0.84237c1.27871,1.44664 -0.60727,4.6605 -2.06214,5.32221c-1.16578,0.53022 -4.58614,-0.97939 -4.83819,-2.33041c-0.20609,-1.10467 1.81759,-2.94979 2.51486,-3.53763c0,0 0.43035,-0.35863 0.85714,-0.08406z" fill="#4c6655" stroke="none" stroke-width="0.5" stroke-linecap="butt"/><path d="M247.04994,190.62671c0.1905,-0.07127 0.39713,-0.13978 0.58763,-0.21105c2.37626,0.48956 1.68241,2.05834 -0.02752,3.43012c-0.06616,0.05308 -2.71978,-1.0963 -2.72621,-1.20558c-0.0212,-0.36036 0.96297,-1.34176 1.57633,-1.89084z" data-paper-data="{&quot;noHover&quot;:false,&quot;origItem&quot;:[&quot;Path&quot;,{&quot;applyMatrix&quot;:true,&quot;segments&quot;:[[[246.47957,190.79544],[0,0],[-0.61336,0.54909]],[[244.9325,192.62873],[-0.0212,-0.36036],[0.00643,0.10929]],[[247.59432,193.79832],[-0.06616,0.05308],[1.70992,-1.37178]],[[247.62117,190.4629],[2.37626,0.48956],[-0.1905,0.07127]],[[247.04968,190.67671],[0.1905,-0.07127],[0,0]]],&quot;closed&quot;:true}]}" fill="#e5c69b" stroke="none" stroke-width="0.5" stroke-linecap="butt"/><path d="M225.2486,183.52613c0.03941,0.43984 0.10459,0.90725 0.2555,1.07266c0.3756,0.41171 1.55973,0.54784 2.04655,0.84887c0.328,0.20282 -0.03813,-0.83743 -0.30474,-1.11607c-0.35186,-0.36775 -1.44223,-0.6218 -1.92058,-0.77989zM224.21419,182.12209c0.29604,-0.42322 0.83549,-0.2434 0.83549,-0.2434l0.75,0.25c1.34922,0.4531 5.14559,2.84514 2.52468,4.60404c-2.3448,1.57361 -4.37092,-2.23487 -4.62665,-3.76923c0,0 -0.11182,-0.67095 0.51648,-0.84141z" fill="#4c6655" stroke="none" stroke-width="0.5" stroke-linecap="butt"/><path d="M225.28691,183.51972c0.47835,0.15809 1.65603,0.4336 2.00789,0.80135c0.2666,0.27864 0.62153,1.36229 0.29353,1.15947c-0.48683,-0.30104 -1.75836,-0.46491 -2.13397,-0.87662c-0.15091,-0.16542 -0.20538,-0.6692 -0.24479,-1.10904z" data-paper-data="{&quot;noHover&quot;:false,&quot;origItem&quot;:[&quot;Path&quot;,{&quot;applyMatrix&quot;:true,&quot;segments&quot;:[[[225.2486,183.52613],[0,0],[0.03941,0.43984]],[[225.5041,184.5988],[-0.15091,-0.16542],[0.3756,0.41171]],[[227.55065,185.44767],[-0.48683,-0.30104],[0.328,0.20282]],[[227.24591,184.3316],[0.2666,0.27864],[-0.35186,-0.36775]],[[225.32533,183.55171],[0.47835,0.15809],[0,0]]],&quot;closed&quot;:true}]}" fill="#e5c69b" stroke="none" stroke-width="0.5" stroke-linecap="butt"/><path d="M231.82208,170.39665c-0.17389,0.57812 -0.45444,2.99721 0.42639,2.59277c2.44047,-1.12058 2.29798,-4.52153 -0.42639,-2.59277zM230.5811,169.52813c0.04213,-0.05931 0.07608,-0.09326 0.07608,-0.09326l0.01065,-0.00973c0.02355,-0.02428 0.04985,-0.04873 0.0789,-0.07211l0.14975,-0.13686c1.039,-0.65031 4.08477,-1.30317 4.85893,0.33703c0.42231,0.89474 -0.95811,3.10468 -1.53758,3.69234c-2.86531,2.90581 -4.99565,-0.72829 -3.74028,-3.53096c0.00904,-0.02202 0.01876,-0.04303 0.02882,-0.06293c0.00341,-0.00729 0.00685,-0.01457 0.01031,-0.02185c0,0 0.02147,-0.04294 0.06441,-0.10166z" fill="#4c6655" stroke="none" stroke-width="0.5" stroke-linecap="butt"/><path d="M232.23163,173.03649c-0.88083,0.40445 -0.61803,-2.09783 -0.44414,-2.67595c2.72437,-1.92877 2.88461,1.55537 0.44414,2.67595z" data-paper-data="{&quot;noHover&quot;:false,&quot;origItem&quot;:[&quot;Path&quot;,{&quot;applyMatrix&quot;:true,&quot;segments&quot;:[[[231.82208,170.39665],[2.72437,-1.92877],[-0.17389,0.57812]],[[232.24847,172.98941],[-0.88083,0.40445],[2.44047,-1.12058]]],&quot;closed&quot;:true}]}" fill="#e5c69b" stroke="none" stroke-width="0.5" stroke-linecap="butt"/></g></g></svg>