<svg version="1.1" xmlns="http://www.w3.org/2000/svg" xmlns:xlink="http://www.w3.org/1999/xlink" width="38.375" height="38.47439" viewBox="0,0,38.375,38.47439"><g transform="translate(-220.8125,-160.87807)"><g data-paper-data="{&quot;isPaintingLayer&quot;:true}" fill-rule="nonzero" stroke-linejoin="miter" stroke-miterlimit="10" stroke-dasharray="" stroke-dashoffset="0" style="mix-blend-mode: normal"><path d="M254.6875,198.60247v-8.5h3.75v8.5z" fill="#7a563e" stroke="#573e2d" stroke-width="1.5" stroke-linecap="butt"/><path d="M221.5625,198.60247v-8.5h3.75v8.5z" fill="#7a563e" stroke="#573e2d" stroke-width="1.5" stroke-linecap="butt"/><path d="M221.5625,194.35247v-20.39105h36.875v20.39105z" fill="#9a6d4e" stroke="#704f39" stroke-width="1.5" stroke-linecap="butt"/><path d="M221.5625,172.85031v-11.22223h36.875v11.22223z" fill="#8c8c8c" stroke="#707070" stroke-width="1.5" stroke-linecap="butt"/><path d="M243.24306,164.73611c0,-0.41422 0.33578,-0.75 0.75,-0.75c0.41422,0 0.75,0.33578 0.75,0.75c0,0.41422 -0.33578,0.75 -0.75,0.75c-0.41422,0 -0.75,-0.33578 -0.75,-0.75z" fill="#707070" stroke="none" stroke-width="0.5" stroke-linecap="butt"/><path d="M240.36806,164.61111c0,-0.41422 0.33578,-0.75 0.75,-0.75c0.41422,0 0.75,0.33578 0.75,0.75c0,0.41422 -0.33578,0.75 -0.75,0.75c-0.41422,0 -0.75,-0.33578 -0.75,-0.75z" fill="#707070" stroke="none" stroke-width="0.5" stroke-linecap="butt"/><path d="M237.61806,164.48611c0,-0.41422 0.33578,-0.75 0.75,-0.75c0.41422,0 0.75,0.33578 0.75,0.75c0,0.41422 -0.33578,0.75 -0.75,0.75c-0.41422,0 -0.75,-0.33578 -0.75,-0.75z" fill="#707070" stroke="none" stroke-width="0.5" stroke-linecap="butt"/><path d="M234.6875,164.86111c0,-0.41422 0.33578,-0.75 0.75,-0.75c0.41422,0 0.75,0.33578 0.75,0.75c0,0.41422 -0.33578,0.75 -0.75,0.75c-0.41422,0 -0.75,-0.33578 -0.75,-0.75z" fill="#707070" stroke="none" stroke-width="0.5" stroke-linecap="butt"/><path d="M231.8125,164.73611c0,-0.41422 0.33578,-0.75 0.75,-0.75c0.41422,0 0.75,0.33578 0.75,0.75c0,0.41422 -0.33578,0.75 -0.75,0.75c-0.41422,0 -0.75,-0.33578 -0.75,-0.75z" fill="#707070" stroke="none" stroke-width="0.5" stroke-linecap="butt"/><path d="M229.0625,164.61111c0,-0.41422 0.33578,-0.75 0.75,-0.75c0.41422,0 0.75,0.33578 0.75,0.75c0,0.41422 -0.33578,0.75 -0.75,0.75c-0.41422,0 -0.75,-0.33578 -0.75,-0.75z" fill="#707070" stroke="none" stroke-width="0.5" stroke-linecap="butt"/><path d="M229.0625,164.61111c0,-0.41422 0.33578,-0.75 0.75,-0.75c0.41422,0 0.75,0.33578 0.75,0.75c0,0.41422 -0.33578,0.75 -0.75,0.75c-0.41422,0 -0.75,-0.33578 -0.75,-0.75z" fill="#707070" stroke="none" stroke-width="0.5" stroke-linecap="butt"/><path d="M226.1875,164.48611c0,-0.41422 0.33578,-0.75 0.75,-0.75c0.41422,0 0.75,0.33578 0.75,0.75c0,0.41422 -0.33578,0.75 -0.75,0.75c-0.41422,0 -0.75,-0.33578 -0.75,-0.75z" fill="#707070" stroke="none" stroke-width="0.5" stroke-linecap="butt"/><path d="M223.4375,164.36111c0,-0.41422 0.33578,-0.75 0.75,-0.75c0.41422,0 0.75,0.33578 0.75,0.75c0,0.41422 -0.33578,0.75 -0.75,0.75c-0.41422,0 -0.75,-0.33578 -0.75,-0.75z" fill="#707070" stroke="none" stroke-width="0.5" stroke-linecap="butt"/><path d="M243.28472,167.4028c0,-0.41422 0.33578,-0.75 0.75,-0.75c0.41422,0 0.75,0.33578 0.75,0.75c0,0.41422 -0.33578,0.75 -0.75,0.75c-0.41422,0 -0.75,-0.33578 -0.75,-0.75z" fill="#707070" stroke="none" stroke-width="0.5" stroke-linecap="butt"/><path d="M240.40972,167.2778c0,-0.41422 0.33578,-0.75 0.75,-0.75c0.41422,0 0.75,0.33578 0.75,0.75c0,0.41422 -0.33578,0.75 -0.75,0.75c-0.41422,0 -0.75,-0.33578 -0.75,-0.75z" fill="#707070" stroke="none" stroke-width="0.5" stroke-linecap="butt"/><path d="M237.65972,167.1528c0,-0.41422 0.33578,-0.75 0.75,-0.75c0.41422,0 0.75,0.33578 0.75,0.75c0,0.41422 -0.33578,0.75 -0.75,0.75c-0.41422,0 -0.75,-0.33578 -0.75,-0.75z" fill="#707070" stroke="none" stroke-width="0.5" stroke-linecap="butt"/><path d="M234.72917,167.5278c0,-0.41422 0.33578,-0.75 0.75,-0.75c0.41422,0 0.75,0.33578 0.75,0.75c0,0.41422 -0.33578,0.75 -0.75,0.75c-0.41422,0 -0.75,-0.33578 -0.75,-0.75z" fill="#707070" stroke="none" stroke-width="0.5" stroke-linecap="butt"/><path d="M231.85417,167.4028c0,-0.41422 0.33578,-0.75 0.75,-0.75c0.41422,0 0.75,0.33578 0.75,0.75c0,0.41422 -0.33578,0.75 -0.75,0.75c-0.41422,0 -0.75,-0.33578 -0.75,-0.75z" fill="#707070" stroke="none" stroke-width="0.5" stroke-linecap="butt"/><path d="M229.10417,167.2778c0,-0.41422 0.33578,-0.75 0.75,-0.75c0.41422,0 0.75,0.33578 0.75,0.75c0,0.41422 -0.33578,0.75 -0.75,0.75c-0.41422,0 -0.75,-0.33578 -0.75,-0.75z" fill="#707070" stroke="none" stroke-width="0.5" stroke-linecap="butt"/><path d="M229.10417,167.2778c0,-0.41422 0.33578,-0.75 0.75,-0.75c0.41422,0 0.75,0.33578 0.75,0.75c0,0.41422 -0.33578,0.75 -0.75,0.75c-0.41422,0 -0.75,-0.33578 -0.75,-0.75z" fill="#707070" stroke="none" stroke-width="0.5" stroke-linecap="butt"/><path d="M226.22917,167.1528c0,-0.41422 0.33578,-0.75 0.75,-0.75c0.41422,0 0.75,0.33578 0.75,0.75c0,0.41422 -0.33578,0.75 -0.75,0.75c-0.41422,0 -0.75,-0.33578 -0.75,-0.75z" fill="#707070" stroke="none" stroke-width="0.5" stroke-linecap="butt"/><path d="M223.47917,167.0278c0,-0.41422 0.33578,-0.75 0.75,-0.75c0.41422,0 0.75,0.33578 0.75,0.75c0,0.41422 -0.33578,0.75 -0.75,0.75c-0.41422,0 -0.75,-0.33578 -0.75,-0.75z" fill="#707070" stroke="none" stroke-width="0.5" stroke-linecap="butt"/><path d="M244.14583,168.95834c0.41422,0 0.75,0.33578 0.75,0.75c0,0.41422 -0.33578,0.75 -0.75,0.75c-0.41422,0 -0.75,-0.33578 -0.75,-0.75c0,-0.41422 0.33578,-0.75 0.75,-0.75z" data-paper-data="{&quot;index&quot;:null}" fill="#707070" stroke="none" stroke-width="0.5" stroke-linecap="butt"/><path d="M241.27083,169.08334c0.41422,0 0.75,0.33578 0.75,0.75c0,0.41422 -0.33578,0.75 -0.75,0.75c-0.41422,0 -0.75,-0.33578 -0.75,-0.75c0,-0.41422 0.33578,-0.75 0.75,-0.75z" data-paper-data="{&quot;index&quot;:null}" fill="#707070" stroke="none" stroke-width="0.5" stroke-linecap="butt"/><path d="M238.52083,169.20834c0.41422,0 0.75,0.33578 0.75,0.75c0,0.41422 -0.33578,0.75 -0.75,0.75c-0.41422,0 -0.75,-0.33578 -0.75,-0.75c0,-0.41422 0.33578,-0.75 0.75,-0.75z" data-paper-data="{&quot;index&quot;:null}" fill="#707070" stroke="none" stroke-width="0.5" stroke-linecap="butt"/><path d="M235.59028,168.83334c0.41422,0 0.75,0.33578 0.75,0.75c0,0.41422 -0.33578,0.75 -0.75,0.75c-0.41422,0 -0.75,-0.33578 -0.75,-0.75c0,-0.41422 0.33578,-0.75 0.75,-0.75z" data-paper-data="{&quot;index&quot;:null}" fill="#707070" stroke="none" stroke-width="0.5" stroke-linecap="butt"/><path d="M232.71528,168.95834c0.41422,0 0.75,0.33578 0.75,0.75c0,0.41422 -0.33578,0.75 -0.75,0.75c-0.41422,0 -0.75,-0.33578 -0.75,-0.75c0,-0.41422 0.33578,-0.75 0.75,-0.75z" data-paper-data="{&quot;index&quot;:null}" fill="#707070" stroke="none" stroke-width="0.5" stroke-linecap="butt"/><path d="M229.96528,169.08334c0.41422,0 0.75,0.33578 0.75,0.75c0,0.41422 -0.33578,0.75 -0.75,0.75c-0.41422,0 -0.75,-0.33578 -0.75,-0.75c0,-0.41422 0.33578,-0.75 0.75,-0.75z" data-paper-data="{&quot;index&quot;:null}" fill="#707070" stroke="none" stroke-width="0.5" stroke-linecap="butt"/><path d="M229.96528,169.08334c0.41422,0 0.75,0.33578 0.75,0.75c0,0.41422 -0.33578,0.75 -0.75,0.75c-0.41422,0 -0.75,-0.33578 -0.75,-0.75c0,-0.41422 0.33578,-0.75 0.75,-0.75z" data-paper-data="{&quot;index&quot;:null}" fill="#707070" stroke="none" stroke-width="0.5" stroke-linecap="butt"/><path d="M227.09028,169.20834c0.41422,0 0.75,0.33578 0.75,0.75c0,0.41422 -0.33578,0.75 -0.75,0.75c-0.41422,0 -0.75,-0.33578 -0.75,-0.75c0,-0.41422 0.33578,-0.75 0.75,-0.75z" data-paper-data="{&quot;index&quot;:null}" fill="#707070" stroke="none" stroke-width="0.5" stroke-linecap="butt"/><path d="M224.34028,169.33334c0.41422,0 0.75,0.33578 0.75,0.75c0,0.41422 -0.33578,0.75 -0.75,0.75c-0.41422,0 -0.75,-0.33578 -0.75,-0.75c0,-0.41422 0.33578,-0.75 0.75,-0.75z" data-paper-data="{&quot;index&quot;:null}" fill="#707070" stroke="none" stroke-width="0.5" stroke-linecap="butt"/><path d="M254.68751,164.76388c0,-0.41422 0.33578,-0.75 0.75,-0.75c0.41422,0 0.75,0.33578 0.75,0.75c0,0.41422 -0.33578,0.75 -0.75,0.75c-0.41422,0 -0.75,-0.33578 -0.75,-0.75z" fill="#707070" stroke="none" stroke-width="0.5" stroke-linecap="butt"/><path d="M251.81251,164.63888c0,-0.41422 0.33578,-0.75 0.75,-0.75c0.41422,0 0.75,0.33578 0.75,0.75c0,0.41422 -0.33578,0.75 -0.75,0.75c-0.41422,0 -0.75,-0.33578 -0.75,-0.75z" fill="#707070" stroke="none" stroke-width="0.5" stroke-linecap="butt"/><path d="M249.06251,164.51388c0,-0.41422 0.33578,-0.75 0.75,-0.75c0.41422,0 0.75,0.33578 0.75,0.75c0,0.41422 -0.33578,0.75 -0.75,0.75c-0.41422,0 -0.75,-0.33578 -0.75,-0.75z" fill="#707070" stroke="none" stroke-width="0.5" stroke-linecap="butt"/><path d="M246.13195,164.88888c0,-0.41422 0.33578,-0.75 0.75,-0.75c0.41422,0 0.75,0.33578 0.75,0.75c0,0.41422 -0.33578,0.75 -0.75,0.75c-0.41422,0 -0.75,-0.33578 -0.75,-0.75z" fill="#707070" stroke="none" stroke-width="0.5" stroke-linecap="butt"/><path d="M254.72917,167.43058c0,-0.41422 0.33578,-0.75 0.75,-0.75c0.41422,0 0.75,0.33578 0.75,0.75c0,0.41422 -0.33578,0.75 -0.75,0.75c-0.41422,0 -0.75,-0.33578 -0.75,-0.75z" fill="#707070" stroke="none" stroke-width="0.5" stroke-linecap="butt"/><path d="M251.85417,167.30558c0,-0.41422 0.33578,-0.75 0.75,-0.75c0.41422,0 0.75,0.33578 0.75,0.75c0,0.41422 -0.33578,0.75 -0.75,0.75c-0.41422,0 -0.75,-0.33578 -0.75,-0.75z" fill="#707070" stroke="none" stroke-width="0.5" stroke-linecap="butt"/><path d="M249.10417,167.18058c0,-0.41422 0.33578,-0.75 0.75,-0.75c0.41422,0 0.75,0.33578 0.75,0.75c0,0.41422 -0.33578,0.75 -0.75,0.75c-0.41422,0 -0.75,-0.33578 -0.75,-0.75z" fill="#707070" stroke="none" stroke-width="0.5" stroke-linecap="butt"/><path d="M246.17362,167.55558c0,-0.41422 0.33578,-0.75 0.75,-0.75c0.41422,0 0.75,0.33578 0.75,0.75c0,0.41422 -0.33578,0.75 -0.75,0.75c-0.41422,0 -0.75,-0.33578 -0.75,-0.75z" fill="#707070" stroke="none" stroke-width="0.5" stroke-linecap="butt"/><path d="M255.59028,168.98611c0.41422,0 0.75,0.33578 0.75,0.75c0,0.41422 -0.33578,0.75 -0.75,0.75c-0.41422,0 -0.75,-0.33578 -0.75,-0.75c0,-0.41422 0.33578,-0.75 0.75,-0.75z" data-paper-data="{&quot;index&quot;:null}" fill="#707070" stroke="none" stroke-width="0.5" stroke-linecap="butt"/><path d="M252.71528,169.11111c0.41422,0 0.75,0.33578 0.75,0.75c0,0.41422 -0.33578,0.75 -0.75,0.75c-0.41422,0 -0.75,-0.33578 -0.75,-0.75c0,-0.41422 0.33578,-0.75 0.75,-0.75z" data-paper-data="{&quot;index&quot;:null}" fill="#707070" stroke="none" stroke-width="0.5" stroke-linecap="butt"/><path d="M249.96528,169.23611c0.41422,0 0.75,0.33578 0.75,0.75c0,0.41422 -0.33578,0.75 -0.75,0.75c-0.41422,0 -0.75,-0.33578 -0.75,-0.75c0,-0.41422 0.33578,-0.75 0.75,-0.75z" data-paper-data="{&quot;index&quot;:null}" fill="#707070" stroke="none" stroke-width="0.5" stroke-linecap="butt"/><path d="M247.03473,168.86111c0.41422,0 0.75,0.33578 0.75,0.75c0,0.41422 -0.33578,0.75 -0.75,0.75c-0.41422,0 -0.75,-0.33578 -0.75,-0.75c0,-0.41422 0.33578,-0.75 0.75,-0.75z" data-paper-data="{&quot;index&quot;:null}" fill="#707070" stroke="none" stroke-width="0.5" stroke-linecap="butt"/><path d="M222.16667,174.44445l35,2" fill="none" stroke="#a57554" stroke-width="1.5" stroke-linecap="round"/><path d="M251.83333,174.44445l-29.66666,5.66666" fill="none" stroke="#a57554" stroke-width="1.5" stroke-linecap="round"/><path d="M222.94445,183.11111l34.77777,2.55555" fill="none" stroke="#a57554" stroke-width="1.5" stroke-linecap="round"/><path d="M222.72222,192.88889l34.88889,-11.55555" fill="none" stroke="#a57554" stroke-width="1.5" stroke-linecap="round"/><path d="M257.83333,192.44445l-36.11111,-4.22223" fill="none" stroke="#a57554" stroke-width="1.5" stroke-linecap="round"/><path d="M257.83334,189.44447l-35.66667,-3.88889" fill="none" stroke="#a57554" stroke-width="1.5" stroke-linecap="round"/><path d="M241.83334,181l-19.33334,0.33334" fill="none" stroke="#a57554" stroke-width="1.5" stroke-linecap="round"/><path d="M257.5,179.33334l-9.22222,-0.11112" fill="none" stroke="#a57554" stroke-width="1.5" stroke-linecap="round"/><path d="M243.72222,193.66669l-7.22222,-1.33333" fill="none" stroke="#a57554" stroke-width="1.5" stroke-linecap="round"/><path d="M222.27778,176.44445l35,5.66666" fill="none" stroke="#8d6348" stroke-width="1.5" stroke-linecap="round"/><path d="M221.61111,183.66669l36,-5.77777" fill="none" stroke="#8d6348" stroke-width="1.5" stroke-linecap="round"/><path d="M255.83334,174.44445l-27.44444,8.11111" fill="none" stroke="#8d6348" stroke-width="1.5" stroke-linecap="round"/><path d="M258.05556,186.8889l-36,-7.44445" fill="none" stroke="#8d6348" stroke-width="1.5" stroke-linecap="round"/><path d="M257.94444,184.7778l-35.66666,4.22222" fill="none" stroke="#8d6348" stroke-width="1.5" stroke-linecap="round"/><path d="M221.72222,186.66669l9.33334,-1.44445" fill="none" stroke="#8d6348" stroke-width="1.5" stroke-linecap="round"/><path d="M231.94445,193.33334l-9.44445,-2" fill="none" stroke="#8d6348" stroke-width="1.5" stroke-linecap="round"/><path d="M239.61111,193.66669l17.88889,-2.88888" fill="none" stroke="#8d6348" stroke-width="1.5" stroke-linecap="round"/><path d="M258.05556,188.66669l-22.88889,2.11112" fill="none" stroke="#8d6348" stroke-width="1.5" stroke-linecap="round"/><path d="M221.61111,190.33334l8.11111,0.11111" fill="none" stroke="#8d6348" stroke-width="1.5" stroke-linecap="round"/><path d="M221.5625,194.35247v-20.39105h36.875v20.39105z" fill="none" stroke="#704f39" stroke-width="1.5" stroke-linecap="butt"/><path d="M227.07739,164.8372c0.4208,-0.62083 1.04163,-0.20004 1.04163,-0.20004c0.31794,0.2155 1.35223,0.75935 1.79602,0.6898c0.02282,-0.22869 0.03694,-0.46942 0.04568,-0.70849c-0.01815,-0.03429 -0.03797,-0.07003 -0.05954,-0.10727l-0.02996,-0.06561l-0.09959,0.02993l-0.22804,-0.7588c-0.10307,-0.31662 0.01523,-0.67492 0.30862,-0.86306c0.34867,-0.22361 0.8126,-0.12222 1.0362,0.22646c0.02183,0.03404 0.04056,0.06918 0.05627,0.10509l0.32098,0.70296c0.38455,0.95998 0.36262,1.64017 0.09122,2.08871c-0.00331,0.02764 -0.00694,0.05533 -0.01091,0.08307l0.24399,0.39218c0.57011,1.25712 0.97046,1.71802 0.80824,2.56738l0.22125,0.04835l-0.16774,0.76756c-0.04098,0.18752 -0.1535,0.3594 -0.32783,0.4712c-0.34867,0.22361 -0.8126,0.12222 -1.0362,-0.22646l-0.41987,-0.65471c-0.3705,-0.58062 -0.57925,-0.93735 -0.66814,-1.28053c-0.02563,0.00018 -0.05136,0.0002 -0.07716,0.00005c-0.51864,0.16801 -1.17999,0.08055 -1.99115,-0.43059c-0.29438,-0.1855 -0.46801,-0.51503 -0.70202,-0.77255l-0.01163,-0.0557l-0.01866,0.01197l-0.41987,-0.65471v0c-0.20677,-0.32242 -0.13564,-0.74339 0.15194,-0.98176c0.00103,-0.12669 0.04114,-0.2693 0.14627,-0.4244z" fill="#c6c6c6" stroke="none" stroke-width="0.5" stroke-linecap="butt"/><path d="M247.11768,170.19714c-0.53754,-0.52302 -0.01452,-1.06056 -0.01452,-1.06056l0.24185,-0.20719c0.86721,-0.49479 1.62911,-1.07467 2.32374,-1.79231c0,0 0.52302,-0.53754 1.06056,-0.01452c0.53754,0.52302 0.01452,1.06056 0.01452,1.06056c-0.79763,0.81605 -1.66406,1.47778 -2.65248,2.04741l0.08688,-0.04791c0,0 -0.52302,0.53754 -1.06056,0.01452z" fill="#b6815d" stroke="none" stroke-width="0.5" stroke-linecap="butt"/><path d="M250.67995,165.13664c0.41802,-0.43864 0.94827,-0.07074 0.94827,-0.07074l0.65079,0.46394c0.56627,0.55098 2.29616,1.82127 1.49998,2.87531c-0.02404,0.03182 -0.05268,0.05975 -0.08552,0.084c-0.26511,0.94419 -1.76728,1.20249 -2.49265,0.95035c-0.72594,-0.25233 -2.11228,-1.47894 -3.15251,-2.4713l-0.0224,0.04165l-0.69716,-0.37492c-0.06566,-0.03341 -0.12748,-0.07713 -0.18305,-0.13121c-0.29688,-0.28886 -0.30338,-0.76369 -0.01452,-1.06056c0.1099,-0.11295 0.24673,-0.18387 0.39043,-0.21248l0.77342,-0.16573c0.92956,-0.19089 1.57487,-0.17403 2.38493,0.07168z" fill="#c6c6c6" stroke="none" stroke-width="0.5" stroke-linecap="butt"/></g></g></svg>