<svg version="1.1" xmlns="http://www.w3.org/2000/svg" xmlns:xlink="http://www.w3.org/1999/xlink" width="34.68263" height="28.02615" viewBox="0,0,34.68263,28.02615"><g transform="translate(-222.65869,-165.98693)"><g data-paper-data="{&quot;isPaintingLayer&quot;:true}" fill-rule="nonzero" stroke="none" stroke-width="0.5" stroke-linecap="butt" stroke-linejoin="miter" stroke-miterlimit="10" stroke-dasharray="" stroke-dashoffset="0" style="mix-blend-mode: normal"><path d="M251.53891,183.01696c-0.87582,-0.05288 -1.89248,-0.57424 -2.93343,-1.72114c-1.70507,-1.87862 -2.72238,-4.52457 -3.06998,-7.07264c0.43288,-0.57294 0.07876,-1.30175 0.07876,-1.30175l-0.05433,0.36682c0.11055,-0.8962 0.01182,-1.82991 0.17065,-2.71883c0.53234,-2.97932 3.56533,-2.314 5.51481,-1.12256c2.80567,1.71471 3.64604,5.63978 3.64057,8.63305c0.02217,2.25093 -0.89477,4.16773 -2.27162,4.7528c-0.46997,-0.11817 -0.92281,0.10688 -0.92281,0.10688z" data-paper-data="{&quot;noHover&quot;:false,&quot;origItem&quot;:[&quot;Path&quot;,{&quot;applyMatrix&quot;:true,&quot;segments&quot;:[[293.26464,182.89063],[[294.18148,182.78536],[-0.46997,-0.11817],[1.37685,-0.58507]],[[296.42446,178.05743],[0.02217,2.25093],[0.00547,-2.99327]],[[292.82042,169.49621],[2.80567,1.71471],[-1.94948,-1.19144]],[[287.34653,170.60716],[0.53234,-2.97932],[-0.15883,0.88891]],[[287.18737,173.31146],[0.11055,-0.8962],[0,0]],[287.24009,172.94747],[[287.16625,174.23848],[0.43288,-0.57294],[0.3476,2.54806]],[[290.20249,181.24779],[-1.70507,-1.87862],[1.04095,1.1469]],[[293.11311,182.96778],[-0.87582,-0.05288],[0,0]]],&quot;closed&quot;:true}]}" fill="#816e3a"/><path d="M243.34999,170.65692c-0.02037,0.17164 -0.03564,0.34462 -0.04969,0.51871c-0.3346,0.36917 -0.33384,0.88884 -0.33384,0.88884c0.00617,3.77472 1.23772,8.0013 3.84251,10.86335c0.54831,0.60246 1.26061,1.15632 2.05766,1.59042c-2.74772,1.48988 -6.06564,2.6169 -8.92747,3.43456c-2.03321,0.87138 -4.19351,1.42987 -6.23662,2.30549c-0.78511,0.33648 -2.23433,1.29698 -3.11353,1.29731c-0.92182,0.00034 -2.44653,-2.35326 -2.94128,-3.01259c-2.28611,-3.0466 -3.05072,-6.26547 -2.23928,-9.98934c2.63296,-1.97302 7.14074,-2.97542 10.26265,-4.09353c2.57984,-0.92396 5.19514,-2.35604 7.67891,-3.80322z" data-paper-data="{&quot;noHover&quot;:false,&quot;origItem&quot;:[&quot;Path&quot;,{&quot;applyMatrix&quot;:true,&quot;segments&quot;:[[[277.26388,174.50923],[2.57984,-0.92396],[-3.12191,1.11811]],[[267.04039,178.56447],[2.63296,-1.97302],[-0.81144,3.72387]],[[269.26996,188.51188],[-2.28611,-3.0466],[0.49475,0.65933]],[[272.19823,191.51298],[-0.92182,0.00034],[0.8792,-0.00033]],[[275.30252,190.21126],[-0.78511,0.33648],[2.04312,-0.87562]],[[281.50245,187.90694],[-2.03321,0.87138],[2.86183,-0.81766]],[[290.4017,184.50448],[-2.74772,1.48988],[-0.79705,-0.4341]],[[288.34294,182.91874],[0.54831,0.60246],[-2.60479,-2.86205]],[[284.52199,172.1062],[0.00617,3.77472],[0,0]],[[284.85659,171.21785],[-0.3346,0.36917],[0.01405,-0.17409]],[[284.9071,170.69964],[-0.02037,0.17164],[-2.48377,1.44718]]],&quot;closed&quot;:true}]}" fill="#efcc6c"/><path d="M240.6823,171.03935c0.05757,-0.35032 0.29031,-1.05835 1.23108,-1.05835c1.25,0 1.25,1.25 1.25,1.25l-0.00965,0.85519c-0.22998,1.81319 -0.16538,3.61974 -0.16538,5.44612c-0.00502,2.74806 0.61037,5.74235 0.17262,8.47941c-0.27059,1.6919 -0.60096,4.36492 -3.70679,2.2065c-0.80746,-0.56115 -0.24273,-2.90936 -0.18866,-3.76214c0.25494,-4.02144 -0.00242,-8.14388 -0.00242,-12.17487c0,0 0,-1.25 1.25,-1.25c0.05916,0 0.11552,0.0028 0.16921,0.00813z" fill="#ffda73"/><path d="M236.48724,190.50972c-1.25,0 -1.25,-1.25 -1.25,-1.25c0,-5.13286 0,-10.97047 0,-16.10334c0,0 0,-1.25 1.25,-1.25c1.25,0 1.25,1.25 1.25,1.25c0,5.13218 0,10.27101 0,15.40319v0.70015c0,0 0,1.25 -1.25,1.25z" fill="#ffda73"/><path d="M251.88367,185.57382c-3.1975,2.11414 -7.44517,3.63674 -11.12689,4.68866c-2.38625,1.02268 -4.87602,1.74496 -7.27786,2.77174c-0.71166,0.30423 -2.26204,1.04741 -3.02197,0.97375c-2.03579,-0.19735 -3.66069,-2.5162 -4.77333,-4.00035c-2.90915,-3.88053 -3.80107,-8.15663 -2.32138,-12.8073c2.932,-2.55513 7.80221,-3.73671 11.48102,-5.04664c3.58167,-1.27534 7.18183,-3.61978 10.47578,-5.50869c0,0 0.30674,-0.17528 0.68726,-0.1764c1.94411,-0.96748 4.4732,-0.37991 6.5373,0.89607c3.57239,2.20837 4.79133,6.78873 4.79771,10.69277c-0.01343,1.74978 -0.31946,4.37645 -1.47299,5.82302c-0.97424,1.22174 -2.35187,1.66426 -3.7815,1.5942zM235.68073,174.50922c-3.12191,1.11811 -7.59052,2.08222 -10.22348,4.05524c-0.81144,3.72387 -0.05655,6.90082 2.22956,9.94741c0.49475,0.65933 2.00645,3.00144 2.92827,3.0011c0.8792,-0.00033 2.31918,-0.96525 3.1043,-1.30172c2.04312,-0.87562 4.16672,-1.43294 6.19993,-2.30432c2.86183,-0.81766 6.15153,-1.91258 8.89925,-3.40246c-0.79705,-0.4341 -1.51045,-0.98328 -2.05876,-1.58574c-2.60479,-2.86205 -3.81478,-7.03782 -3.82095,-10.81254c0,0 0,-0.51918 0.3346,-0.88835c0.01405,-0.17409 0.03014,-0.34656 0.05051,-0.5182c-2.48377,1.44718 -5.06339,2.88562 -7.64322,3.80958zM251.68149,182.89062c0,0 0.44687,-0.22344 0.91684,-0.10527c1.37685,-0.58507 2.26514,-2.477 2.24298,-4.72793c0.00547,-2.99327 -0.79837,-6.84651 -3.60403,-8.56122c-1.94948,-1.19144 -4.94155,-1.86837 -5.47389,1.11095c-0.15883,0.88891 -0.04861,1.80809 -0.15916,2.70429l0.05272,-0.36399c0,0 0.35904,0.71808 -0.07384,1.29101c0.3476,2.54806 1.33116,5.13069 3.03623,7.00931c1.04095,1.1469 2.0348,1.6671 2.91062,1.71999z" fill="#c9ab5a"/></g></g></svg>