<svg version="1.1" xmlns="http://www.w3.org/2000/svg" xmlns:xlink="http://www.w3.org/1999/xlink" width="52.75" height="52.75" viewBox="0,0,52.75,52.75"><defs><linearGradient x1="240" y1="179.52862" x2="240" y2="188.02862" gradientUnits="userSpaceOnUse" id="color-1"><stop offset="0" stop-color="#414141"/><stop offset="1" stop-color="#1a1a1a"/></linearGradient></defs><g transform="translate(-213.625,-153.625)"><g data-paper-data="{&quot;isPaintingLayer&quot;:true}" fill-rule="nonzero" stroke-linejoin="miter" stroke-miterlimit="10" stroke-dasharray="" stroke-dashoffset="0" style="mix-blend-mode: normal"><path d="M214.875,205.125v-50.25h50.25v50.25z" fill="#7f7f7f" stroke="#5e5e5e" stroke-width="2.5" stroke-linecap="butt"/><path d="M221.5625,198.23805v-8.5h36.875v8.5z" fill="#8c8c8c" stroke="#707070" stroke-width="1.5" stroke-linecap="butt"/><path d="M221.5625,193.98805v-20.39105h36.875v20.39105z" fill="#8c8c8c" stroke="#707070" stroke-width="1.5" stroke-linecap="butt"/><path d="M225.11111,190.67169v-13.75833h29.77778v13.75833z" fill="#ef8f3c" stroke="#e06c00" stroke-width="1.5" stroke-linecap="butt"/><path d="M246.16667,182.70918c0,-0.41422 0.33578,-0.75 0.75,-0.75c0.41422,0 0.75,0.33578 0.75,0.75c0,0.41422 -0.33578,0.75 -0.75,0.75c-0.41422,0 -0.75,-0.33578 -0.75,-0.75z" fill="#e06c00" stroke="none" stroke-width="0.5" stroke-linecap="butt"/><path d="M243.29167,182.58418c0,-0.41422 0.33578,-0.75 0.75,-0.75c0.41422,0 0.75,0.33578 0.75,0.75c0,0.41422 -0.33578,0.75 -0.75,0.75c-0.41422,0 -0.75,-0.33578 -0.75,-0.75z" fill="#e06c00" stroke="none" stroke-width="0.5" stroke-linecap="butt"/><path d="M240.54167,182.45918c0,-0.41422 0.33578,-0.75 0.75,-0.75c0.41422,0 0.75,0.33578 0.75,0.75c0,0.41422 -0.33578,0.75 -0.75,0.75c-0.41422,0 -0.75,-0.33578 -0.75,-0.75z" fill="#e06c00" stroke="none" stroke-width="0.5" stroke-linecap="butt"/><path d="M237.61111,182.83418c0,-0.41422 0.33578,-0.75 0.75,-0.75c0.41422,0 0.75,0.33578 0.75,0.75c0,0.41422 -0.33578,0.75 -0.75,0.75c-0.41422,0 -0.75,-0.33578 -0.75,-0.75z" fill="#e06c00" stroke="none" stroke-width="0.5" stroke-linecap="butt"/><path d="M234.73611,182.70918c0,-0.41422 0.33578,-0.75 0.75,-0.75c0.41422,0 0.75,0.33578 0.75,0.75c0,0.41422 -0.33578,0.75 -0.75,0.75c-0.41422,0 -0.75,-0.33578 -0.75,-0.75z" fill="#e06c00" stroke="none" stroke-width="0.5" stroke-linecap="butt"/><path d="M231.98611,182.58418c0,-0.41422 0.33578,-0.75 0.75,-0.75c0.41422,0 0.75,0.33578 0.75,0.75c0,0.41422 -0.33578,0.75 -0.75,0.75c-0.41422,0 -0.75,-0.33578 -0.75,-0.75z" fill="#e06c00" stroke="none" stroke-width="0.5" stroke-linecap="butt"/><path d="M231.98611,182.58418c0,-0.41422 0.33578,-0.75 0.75,-0.75c0.41422,0 0.75,0.33578 0.75,0.75c0,0.41422 -0.33578,0.75 -0.75,0.75c-0.41422,0 -0.75,-0.33578 -0.75,-0.75z" fill="#e06c00" stroke="none" stroke-width="0.5" stroke-linecap="butt"/><path d="M229.11111,182.45918c0,-0.41422 0.33578,-0.75 0.75,-0.75c0.41422,0 0.75,0.33578 0.75,0.75c0,0.41422 -0.33578,0.75 -0.75,0.75c-0.41422,0 -0.75,-0.33578 -0.75,-0.75z" fill="#e06c00" stroke="none" stroke-width="0.5" stroke-linecap="butt"/><path d="M226.36111,182.33418c0,-0.41422 0.33578,-0.75 0.75,-0.75c0.41422,0 0.75,0.33578 0.75,0.75c0,0.41422 -0.33578,0.75 -0.75,0.75c-0.41422,0 -0.75,-0.33578 -0.75,-0.75z" fill="#e06c00" stroke="none" stroke-width="0.5" stroke-linecap="butt"/><path d="M246.20833,185.37585c0,-0.41422 0.33578,-0.75 0.75,-0.75c0.41422,0 0.75,0.33578 0.75,0.75c0,0.41422 -0.33578,0.75 -0.75,0.75c-0.41422,0 -0.75,-0.33578 -0.75,-0.75z" fill="#e06c00" stroke="none" stroke-width="0.5" stroke-linecap="butt"/><path d="M243.33333,185.25085c0,-0.41422 0.33578,-0.75 0.75,-0.75c0.41422,0 0.75,0.33578 0.75,0.75c0,0.41422 -0.33578,0.75 -0.75,0.75c-0.41422,0 -0.75,-0.33578 -0.75,-0.75z" fill="#e06c00" stroke="none" stroke-width="0.5" stroke-linecap="butt"/><path d="M240.58333,185.12585c0,-0.41422 0.33578,-0.75 0.75,-0.75c0.41422,0 0.75,0.33578 0.75,0.75c0,0.41422 -0.33578,0.75 -0.75,0.75c-0.41422,0 -0.75,-0.33578 -0.75,-0.75z" fill="#e06c00" stroke="none" stroke-width="0.5" stroke-linecap="butt"/><path d="M237.65278,185.50085c0,-0.41422 0.33578,-0.75 0.75,-0.75c0.41422,0 0.75,0.33578 0.75,0.75c0,0.41422 -0.33578,0.75 -0.75,0.75c-0.41422,0 -0.75,-0.33578 -0.75,-0.75z" fill="#e06c00" stroke="none" stroke-width="0.5" stroke-linecap="butt"/><path d="M234.77778,185.37585c0,-0.41422 0.33578,-0.75 0.75,-0.75c0.41422,0 0.75,0.33578 0.75,0.75c0,0.41422 -0.33578,0.75 -0.75,0.75c-0.41422,0 -0.75,-0.33578 -0.75,-0.75z" fill="#e06c00" stroke="none" stroke-width="0.5" stroke-linecap="butt"/><path d="M232.02778,185.25085c0,-0.41422 0.33578,-0.75 0.75,-0.75c0.41422,0 0.75,0.33578 0.75,0.75c0,0.41422 -0.33578,0.75 -0.75,0.75c-0.41422,0 -0.75,-0.33578 -0.75,-0.75z" fill="#e06c00" stroke="none" stroke-width="0.5" stroke-linecap="butt"/><path d="M232.02778,185.25085c0,-0.41422 0.33578,-0.75 0.75,-0.75c0.41422,0 0.75,0.33578 0.75,0.75c0,0.41422 -0.33578,0.75 -0.75,0.75c-0.41422,0 -0.75,-0.33578 -0.75,-0.75z" fill="#e06c00" stroke="none" stroke-width="0.5" stroke-linecap="butt"/><path d="M229.15278,185.12585c0,-0.41422 0.33578,-0.75 0.75,-0.75c0.41422,0 0.75,0.33578 0.75,0.75c0,0.41422 -0.33578,0.75 -0.75,0.75c-0.41422,0 -0.75,-0.33578 -0.75,-0.75z" fill="#e06c00" stroke="none" stroke-width="0.5" stroke-linecap="butt"/><path d="M226.40278,185.00085c0,-0.41422 0.33578,-0.75 0.75,-0.75c0.41422,0 0.75,0.33578 0.75,0.75c0,0.41422 -0.33578,0.75 -0.75,0.75c-0.41422,0 -0.75,-0.33578 -0.75,-0.75z" fill="#e06c00" stroke="none" stroke-width="0.5" stroke-linecap="butt"/><path d="M247.06944,186.93141c0.41422,0 0.75,0.33578 0.75,0.75c0,0.41422 -0.33578,0.75 -0.75,0.75c-0.41422,0 -0.75,-0.33578 -0.75,-0.75c0,-0.41422 0.33578,-0.75 0.75,-0.75z" data-paper-data="{&quot;index&quot;:null}" fill="#e06c00" stroke="none" stroke-width="0.5" stroke-linecap="butt"/><path d="M244.19444,187.05641c0.41422,0 0.75,0.33578 0.75,0.75c0,0.41422 -0.33578,0.75 -0.75,0.75c-0.41422,0 -0.75,-0.33578 -0.75,-0.75c0,-0.41422 0.33578,-0.75 0.75,-0.75z" data-paper-data="{&quot;index&quot;:null}" fill="#e06c00" stroke="none" stroke-width="0.5" stroke-linecap="butt"/><path d="M241.44444,187.18141c0.41422,0 0.75,0.33578 0.75,0.75c0,0.41422 -0.33578,0.75 -0.75,0.75c-0.41422,0 -0.75,-0.33578 -0.75,-0.75c0,-0.41422 0.33578,-0.75 0.75,-0.75z" data-paper-data="{&quot;index&quot;:null}" fill="#e06c00" stroke="none" stroke-width="0.5" stroke-linecap="butt"/><path d="M238.51389,186.80641c0.41422,0 0.75,0.33578 0.75,0.75c0,0.41422 -0.33578,0.75 -0.75,0.75c-0.41422,0 -0.75,-0.33578 -0.75,-0.75c0,-0.41422 0.33578,-0.75 0.75,-0.75z" data-paper-data="{&quot;index&quot;:null}" fill="#e06c00" stroke="none" stroke-width="0.5" stroke-linecap="butt"/><path d="M235.63889,186.93141c0.41422,0 0.75,0.33578 0.75,0.75c0,0.41422 -0.33578,0.75 -0.75,0.75c-0.41422,0 -0.75,-0.33578 -0.75,-0.75c0,-0.41422 0.33578,-0.75 0.75,-0.75z" data-paper-data="{&quot;index&quot;:null}" fill="#e06c00" stroke="none" stroke-width="0.5" stroke-linecap="butt"/><path d="M232.88889,187.05641c0.41422,0 0.75,0.33578 0.75,0.75c0,0.41422 -0.33578,0.75 -0.75,0.75c-0.41422,0 -0.75,-0.33578 -0.75,-0.75c0,-0.41422 0.33578,-0.75 0.75,-0.75z" data-paper-data="{&quot;index&quot;:null}" fill="#e06c00" stroke="none" stroke-width="0.5" stroke-linecap="butt"/><path d="M232.88889,187.05641c0.41422,0 0.75,0.33578 0.75,0.75c0,0.41422 -0.33578,0.75 -0.75,0.75c-0.41422,0 -0.75,-0.33578 -0.75,-0.75c0,-0.41422 0.33578,-0.75 0.75,-0.75z" data-paper-data="{&quot;index&quot;:null}" fill="#e06c00" stroke="none" stroke-width="0.5" stroke-linecap="butt"/><path d="M230.01389,187.18141c0.41422,0 0.75,0.33578 0.75,0.75c0,0.41422 -0.33578,0.75 -0.75,0.75c-0.41422,0 -0.75,-0.33578 -0.75,-0.75c0,-0.41422 0.33578,-0.75 0.75,-0.75z" data-paper-data="{&quot;index&quot;:null}" fill="#e06c00" stroke="none" stroke-width="0.5" stroke-linecap="butt"/><path d="M227.26389,187.30641c0.41422,0 0.75,0.33578 0.75,0.75c0,0.41422 -0.33578,0.75 -0.75,0.75c-0.41422,0 -0.75,-0.33578 -0.75,-0.75c0,-0.41422 0.33578,-0.75 0.75,-0.75z" data-paper-data="{&quot;index&quot;:null}" fill="#e06c00" stroke="none" stroke-width="0.5" stroke-linecap="butt"/><path d="M251.98612,182.48696c0,-0.41422 0.33578,-0.75 0.75,-0.75c0.41422,0 0.75,0.33578 0.75,0.75c0,0.41422 -0.33578,0.75 -0.75,0.75c-0.41422,0 -0.75,-0.33578 -0.75,-0.75z" fill="#e06c00" stroke="none" stroke-width="0.5" stroke-linecap="butt"/><path d="M249.05556,182.86196c0,-0.41422 0.33578,-0.75 0.75,-0.75c0.41422,0 0.75,0.33578 0.75,0.75c0,0.41422 -0.33578,0.75 -0.75,0.75c-0.41422,0 -0.75,-0.33578 -0.75,-0.75z" fill="#e06c00" stroke="none" stroke-width="0.5" stroke-linecap="butt"/><path d="M252.02778,185.15364c0,-0.41422 0.33578,-0.75 0.75,-0.75c0.41422,0 0.75,0.33578 0.75,0.75c0,0.41422 -0.33578,0.75 -0.75,0.75c-0.41422,0 -0.75,-0.33578 -0.75,-0.75z" fill="#e06c00" stroke="none" stroke-width="0.5" stroke-linecap="butt"/><path d="M249.09723,185.52864c0,-0.41422 0.33578,-0.75 0.75,-0.75c0.41422,0 0.75,0.33578 0.75,0.75c0,0.41422 -0.33578,0.75 -0.75,0.75c-0.41422,0 -0.75,-0.33578 -0.75,-0.75z" fill="#e06c00" stroke="none" stroke-width="0.5" stroke-linecap="butt"/><path d="M252.88889,187.20918c0.41422,0 0.75,0.33578 0.75,0.75c0,0.41422 -0.33578,0.75 -0.75,0.75c-0.41422,0 -0.75,-0.33578 -0.75,-0.75c0,-0.41422 0.33578,-0.75 0.75,-0.75z" data-paper-data="{&quot;index&quot;:null}" fill="#e06c00" stroke="none" stroke-width="0.5" stroke-linecap="butt"/><path d="M249.95834,186.83418c0.41422,0 0.75,0.33578 0.75,0.75c0,0.41422 -0.33578,0.75 -0.75,0.75c-0.41422,0 -0.75,-0.33578 -0.75,-0.75c0,-0.41422 0.33578,-0.75 0.75,-0.75z" data-paper-data="{&quot;index&quot;:null}" fill="#e06c00" stroke="none" stroke-width="0.5" stroke-linecap="butt"/><path d="M246.16667,179.90362c0,-0.41422 0.33578,-0.75 0.75,-0.75c0.41422,0 0.75,0.33578 0.75,0.75c0,0.41422 -0.33578,0.75 -0.75,0.75c-0.41422,0 -0.75,-0.33578 -0.75,-0.75z" fill="#e06c00" stroke="none" stroke-width="0.5" stroke-linecap="butt"/><path d="M243.29167,179.77862c0,-0.41422 0.33578,-0.75 0.75,-0.75c0.41422,0 0.75,0.33578 0.75,0.75c0,0.41422 -0.33578,0.75 -0.75,0.75c-0.41422,0 -0.75,-0.33578 -0.75,-0.75z" fill="#e06c00" stroke="none" stroke-width="0.5" stroke-linecap="butt"/><path d="M240.54167,179.65362c0,-0.41422 0.33578,-0.75 0.75,-0.75c0.41422,0 0.75,0.33578 0.75,0.75c0,0.41422 -0.33578,0.75 -0.75,0.75c-0.41422,0 -0.75,-0.33578 -0.75,-0.75z" fill="#e06c00" stroke="none" stroke-width="0.5" stroke-linecap="butt"/><path d="M237.61111,180.02862c0,-0.41422 0.33578,-0.75 0.75,-0.75c0.41422,0 0.75,0.33578 0.75,0.75c0,0.41422 -0.33578,0.75 -0.75,0.75c-0.41422,0 -0.75,-0.33578 -0.75,-0.75z" fill="#e06c00" stroke="none" stroke-width="0.5" stroke-linecap="butt"/><path d="M234.73611,179.90362c0,-0.41422 0.33578,-0.75 0.75,-0.75c0.41422,0 0.75,0.33578 0.75,0.75c0,0.41422 -0.33578,0.75 -0.75,0.75c-0.41422,0 -0.75,-0.33578 -0.75,-0.75z" fill="#e06c00" stroke="none" stroke-width="0.5" stroke-linecap="butt"/><path d="M231.98611,179.77862c0,-0.41422 0.33578,-0.75 0.75,-0.75c0.41422,0 0.75,0.33578 0.75,0.75c0,0.41422 -0.33578,0.75 -0.75,0.75c-0.41422,0 -0.75,-0.33578 -0.75,-0.75z" fill="#e06c00" stroke="none" stroke-width="0.5" stroke-linecap="butt"/><path d="M231.98611,179.77862c0,-0.41422 0.33578,-0.75 0.75,-0.75c0.41422,0 0.75,0.33578 0.75,0.75c0,0.41422 -0.33578,0.75 -0.75,0.75c-0.41422,0 -0.75,-0.33578 -0.75,-0.75z" fill="#e06c00" stroke="none" stroke-width="0.5" stroke-linecap="butt"/><path d="M229.11111,179.65362c0,-0.41422 0.33578,-0.75 0.75,-0.75c0.41422,0 0.75,0.33578 0.75,0.75c0,0.41422 -0.33578,0.75 -0.75,0.75c-0.41422,0 -0.75,-0.33578 -0.75,-0.75z" fill="#e06c00" stroke="none" stroke-width="0.5" stroke-linecap="butt"/><path d="M226.36111,179.52862c0,-0.41422 0.33578,-0.75 0.75,-0.75c0.41422,0 0.75,0.33578 0.75,0.75c0,0.41422 -0.33578,0.75 -0.75,0.75c-0.41422,0 -0.75,-0.33578 -0.75,-0.75z" fill="#e06c00" stroke="none" stroke-width="0.5" stroke-linecap="butt"/><path d="M251.98612,179.68141c0,-0.41422 0.33578,-0.75 0.75,-0.75c0.41422,0 0.75,0.33578 0.75,0.75c0,0.41422 -0.33578,0.75 -0.75,0.75c-0.41422,0 -0.75,-0.33578 -0.75,-0.75z" fill="#e06c00" stroke="none" stroke-width="0.5" stroke-linecap="butt"/><path d="M249.05556,180.05641c0,-0.41422 0.33578,-0.75 0.75,-0.75c0.41422,0 0.75,0.33578 0.75,0.75c0,0.41422 -0.33578,0.75 -0.75,0.75c-0.41422,0 -0.75,-0.33578 -0.75,-0.75z" fill="#e06c00" stroke="none" stroke-width="0.5" stroke-linecap="butt"/><path d="M224.83333,191.19112v-20.39105h30.33333v20.39105z" fill="#999784" stroke="#7d7a6e" stroke-width="1.5" stroke-linecap="butt"/><path d="M231.11458,188.02862v-8.5h17.77083v8.5z" fill="url(#color-1)" stroke="#7d7a6e" stroke-width="1.5" stroke-linecap="butt"/><path d="M234.78897,180.29849l-0.125,7" fill="none" stroke="#7d7a6e" stroke-width="1.5" stroke-linecap="round"/><path d="M240.16397,180.29849l-0.125,7" fill="none" stroke="#7d7a6e" stroke-width="1.5" stroke-linecap="round"/><path d="M244.78897,187.17349l-0.125,-6.875" fill="none" stroke="#7d7a6e" stroke-width="1.5" stroke-linecap="round"/><path d="M224.83333,178.32255v-16.56059h30.33333v16.56059z" fill="#999784" stroke="#7d7a6e" stroke-width="1.5" stroke-linecap="butt"/></g></g></svg>