<svg version="1.1" xmlns="http://www.w3.org/2000/svg" xmlns:xlink="http://www.w3.org/1999/xlink" width="52.75" height="52.75" viewBox="0,0,52.75,52.75"><g transform="translate(-213.625,-153.625)"><g data-paper-data="{&quot;isPaintingLayer&quot;:true}" fill-rule="nonzero" stroke-linecap="butt" stroke-linejoin="miter" stroke-miterlimit="10" stroke-dasharray="" stroke-dashoffset="0" style="mix-blend-mode: normal"><path d="M214.875,205.125v-50.25h50.25v50.25z" fill="#7f7f7f" stroke="#5e5e5e" stroke-width="2.5"/><path d="M227.56994,166.75751c0,0.47112 -0.34555,0.85304 -0.7718,0.85304c-0.42626,0 -0.7718,-0.38192 -0.7718,-0.85304c0,-0.47112 0.34555,-0.85304 0.7718,-0.85304c0.42626,0 0.7718,0.38192 0.7718,0.85304z" fill="#7f7f7f" stroke="#7d7d7d" stroke-width="2.5"/><path d="M253.2425,166.83875c0,0.47112 -0.34555,0.85304 -0.7718,0.85304c-0.42626,0 -0.7718,-0.38192 -0.7718,-0.85304c0,-0.47112 0.34555,-0.85304 0.7718,-0.85304c0.42626,0 0.7718,0.38192 0.7718,0.85304z" fill="#7f7f7f" stroke="#7d7d7d" stroke-width="2.5"/><path d="M253.97368,193.24249c0,0.47112 -0.34555,0.85304 -0.7718,0.85304c-0.42626,0 -0.7718,-0.38192 -0.7718,-0.85304c0,-0.47112 0.34555,-0.85304 0.7718,-0.85304c0.42626,0 0.7718,0.38192 0.7718,0.85304z" fill="#7f7f7f" stroke="#7d7d7d" stroke-width="2.5"/><path d="M227.65118,193.16125c0,0.47112 -0.34555,0.85304 -0.7718,0.85304c-0.42626,0 -0.7718,-0.38192 -0.7718,-0.85304c0,-0.47112 0.34555,-0.85304 0.7718,-0.85304c0.42626,0 0.7718,0.38192 0.7718,0.85304z" fill="#7f7f7f" stroke="#7d7d7d" stroke-width="2.5"/><path d="M220.76423,199.11085v-38.47171h38.47171v38.47171z" fill="#999999" stroke="#7d7d7d" stroke-width="1.5"/><path d="M222.31476,163.25c0,-0.41421 0.33579,-0.75 0.75,-0.75c0.41421,0 0.75,0.33579 0.75,0.75c0,0.41421 -0.33579,0.75 -0.75,0.75c-0.41421,0 -0.75,-0.33579 -0.75,-0.75z" fill="#7d7d7d" stroke="none" stroke-width="0.5"/><path d="M255.81476,163.375c0,-0.41421 0.33579,-0.75 0.75,-0.75c0.41421,0 0.75,0.33579 0.75,0.75c0,0.41421 -0.33579,0.75 -0.75,0.75c-0.41421,0 -0.75,-0.33579 -0.75,-0.75z" fill="#7d7d7d" stroke="none" stroke-width="0.5"/><path d="M256.56476,197c0,-0.41421 0.33579,-0.75 0.75,-0.75c0.41421,0 0.75,0.33579 0.75,0.75c0,0.41421 -0.33579,0.75 -0.75,0.75c-0.41421,0 -0.75,-0.33579 -0.75,-0.75z" fill="#7d7d7d" stroke="none" stroke-width="0.5"/><path d="M222.06476,197.25c0,-0.41421 0.33579,-0.75 0.75,-0.75c0.41421,0 0.75,0.33579 0.75,0.75c0,0.41421 -0.33579,0.75 -0.75,0.75c-0.41421,0 -0.75,-0.33579 -0.75,-0.75z" fill="#7d7d7d" stroke="none" stroke-width="0.5"/><text transform="translate(224.49789,195.70915) rotate(-37.10186) scale(0.27541,0.27541)" font-size="40" xml:space="preserve" fill="#ff0000" fill-rule="nonzero" stroke="none" stroke-width="1" stroke-linecap="butt" stroke-linejoin="miter" stroke-miterlimit="10" stroke-dasharray="" stroke-dashoffset="0" font-family="Sans Serif" font-weight="normal" text-anchor="start" style="mix-blend-mode: normal"><tspan x="0" dy="0">Flooring</tspan></text></g></g></svg>