<svg version="1.1" xmlns="http://www.w3.org/2000/svg" xmlns:xlink="http://www.w3.org/1999/xlink" width="566.6815" height="440.98248" viewBox="0,0,566.6815,440.98248"><g transform="translate(39.2472,56.98248)"><g data-paper-data="{&quot;isPaintingLayer&quot;:true}" fill-rule="nonzero" stroke-linejoin="miter" stroke-miterlimit="10" stroke-dasharray="" stroke-dashoffset="0" style="mix-blend-mode: normal"><path d="M-12.5,383v-406h505v406z" fill="#293229" stroke="#000000" stroke-width="2" stroke-linecap="butt"/><path d="M185.28117,248.81447l-0.15071,-35.55846l23.28702,-24.51072l13.50262,-26.45472l36.61686,-20.35043l25.79014,10.62176l11.09449,34.43424l-41.3905,29.50388l-11.61134,37.68834l-20.6945,4.8907z" data-paper-data="{&quot;index&quot;:null}" fill="#212921" stroke="#1e251e" stroke-width="1.5" stroke-linecap="round"/><path d="M294.26707,107.39935l-35.07646,20.34434l-38.88307,-68.83391l85.60309,-39.09426l30.80402,48.80945z" data-paper-data="{&quot;index&quot;:null}" fill="#394639" stroke="#1e251e" stroke-width="1.5" stroke-linecap="round"/><path d="M181.90299,206.91645l3.22746,46.91198l-91.52752,5.25064l3.10855,-109.0872l66.55495,-7.08715z" data-paper-data="{&quot;index&quot;:null}" fill="#3c453c" stroke="#1e251e" stroke-width="1.5" stroke-linecap="round"/><path d="M135.72062,146.01423l-24.95014,-0.67708l-0.27641,-74.22584l16.18712,-2.63294l28.87713,23.79833l-4.21144,22.11887l31.21841,24.9129l-17.55609,21.79716z" data-paper-data="{&quot;index&quot;:null}" fill="#394639" stroke="#1e251e" stroke-width="1.5" stroke-linecap="round"/><path d="M375.00981,107.73272l6.46218,-46.57672l90.65882,13.63208l-25.41484,106.13089l-66.59372,-6.71305z" data-paper-data="{&quot;index&quot;:null}" fill="#2d332d" stroke="#1e251e" stroke-width="1.5" stroke-linecap="round"/><path d="M327.46262,297.77671l-32.11653,-20.37659l-9.89513,-34.01775l-16.7679,-26.78453l0.83021,-43.00017l23.06889,-15.89539l36.83171,10.38411l4.91835,52.35456l27.87914,31.6477l-6.42527,20.49z" data-paper-data="{&quot;index&quot;:null}" fill="#2d332d" stroke="#1e251e" stroke-width="1.5" stroke-linecap="round"/><path d="M344.49126,150.80897l-32.0516,15.39877l-32.13342,-10.5121l-29.68951,-0.84045l-34.09737,-24.33728l-1.47628,-27.85272l26.33884,-24.8006l44.41373,24.71992l39.02389,-5.68952l13.2999,16.59199z" data-paper-data="{&quot;index&quot;:null}" fill="#212921" stroke="#1e251e" stroke-width="1.5" stroke-linecap="round"/><path d="M130.04411,151.48883l49.90983,-78.22153l22.63897,15.2143l14.27516,27.77018l-8.10636,39.90485l-33.74232,26.25536z" data-paper-data="{&quot;index&quot;:null}" fill="#394639" stroke="#1e251e" stroke-width="1.5" stroke-linecap="round"/><path d="M323.82904,48.49073l-8.96777,-19.56601l57.33681,-28.45155l8.19563,11.52526l-7.43139,31.40103l-18.71953,5.1555l-7.40323,33.63692l-23.54725,-5.29405z" data-paper-data="{&quot;index&quot;:null}" fill="#273327" stroke="#1e251e" stroke-width="1.5" stroke-linecap="round"/><path d="M21.45645,61.78305l-40.5,2l-3,-79l94,4.5l5,57.5z" data-paper-data="{&quot;index&quot;:null}" fill="#2d332d" stroke="#1e251e" stroke-width="1.5" stroke-linecap="round"/><path d="M-16.04356,-40.21695l80,1.5l-1,23.5l-14,23l-33,12l-34.5,-13z" data-paper-data="{&quot;index&quot;:null}" fill="#2d332d" stroke="#1e251e" stroke-width="1.5" stroke-linecap="round"/><path d="M62.95645,-17.21695l1,-21.5l64,1l2,14l-21,24.5l-19,-4l-22,26.5l-18.5,-15.5z" data-paper-data="{&quot;index&quot;:null}" fill="#273327" stroke="#1e251e" stroke-width="1.5" stroke-linecap="round"/><path d="M117.45645,-42.71695l72,2.5l3.5,31.5l-15,24.5l-45,5.5l-23.5,-20z" data-paper-data="{&quot;index&quot;:null}" fill="#394639" stroke="#1e251e" stroke-width="1.5" stroke-linecap="round"/><path d="M269.80497,-25.99878l38.50322,-12.71817l23.93962,75.34517l-91.80121,20.70719l-20.13906,-54.08944z" data-paper-data="{&quot;index&quot;:null}" fill="#2d332d" stroke="#1e251e" stroke-width="1.5" stroke-linecap="round"/><path d="M250.8531,61.20257l4.76442,20.98929l-61.95309,16.08774l-5.65774,-12.96109l13.71336,-29.20948l19.37895,-1.20678l14.14436,-31.40361l21.96098,10.01076z" data-paper-data="{&quot;index&quot;:null}" fill="#273327" stroke="#1e251e" stroke-width="1.5" stroke-linecap="round"/><path d="M205.11705,100.30135l-70.06357,16.7734l-11.76607,-29.42888l7.93024,-27.61089l41.90806,-17.2906l27.97919,13.01595z" data-paper-data="{&quot;index&quot;:null}" fill="#3c453c" stroke="#1e251e" stroke-width="1.5" stroke-linecap="round"/><path d="M173.12572,42.74438l4.5881,-30.3183l23.09331,-17.79603l15.01418,-20.75029l33.89945,-12.48308l20.56614,12.47133l4.88587,30.81198l-39.18106,19.6493l-14.89272,30.57297l-18.28188,1.42228z" data-paper-data="{&quot;index&quot;:null}" fill="#212921" stroke="#1e251e" stroke-width="1.5" stroke-linecap="round"/><path d="M140.1124,129.1498l-32.48868,4.50117l-25.4756,-16.86191l-25.96413,-8.2717l-23.42787,-28.75078l6.31379,-23.31855l30.01944,-13.70366l32.42498,31.69961l35.9851,5.27608l7.19696,17.06177z" data-paper-data="{&quot;index&quot;:null}" fill="#2d332d" stroke="#1e251e" stroke-width="1.5" stroke-linecap="round"/><path d="M132.95645,21.28305l-12.5,28l-27,11l-20,16l-36,3l-16.5,-17.5l3.5,-31l43,-8.5l22.5,-25.5l18,3.5z" data-paper-data="{&quot;index&quot;:null}" fill="#212921" stroke="#1e251e" stroke-width="1.5" stroke-linecap="round"/><path d="M347.26538,-54.58312l79.99737,-1.63383l-0.079,23.52114l-13.08862,23.53058l-32.50478,13.28303l-34.9826,-11.63906z" data-paper-data="{&quot;index&quot;:null}" fill="#394639" stroke="#1e251e" stroke-width="1.5" stroke-linecap="round"/><path d="M331.64391,251.17082l-16.1967,-37.17415l72.83132,-30.7506l29.04141,89.51451l-52.01387,25.01613z" data-paper-data="{&quot;index&quot;:null}" fill="#3c453c" stroke="#1e251e" stroke-width="1.5" stroke-linecap="round"/><path d="M386.7826,287.27982l20.46371,-6.66981l21.70328,60.21601l-12.38741,6.82289l-30.34433,-10.97595l-2.97945,-19.18653l-32.56875,-11.20386l7.95392,-22.78673z" data-paper-data="{&quot;index&quot;:null}" fill="#394639" stroke="#1e251e" stroke-width="1.5" stroke-linecap="round"/><path d="M408.17976,-14.62751l2.64778,-40.46281l78.82433,6.06011l-15.22737,92.86753l-57.69444,-1.61289z" data-paper-data="{&quot;index&quot;:null}" fill="#2d332d" stroke="#1e251e" stroke-width="1.5" stroke-linecap="round"/><path d="M513.80102,-40.20874l-10.64499,79.3028l-23.23118,-3.68266l-21.24681,-16.54004l-8.1448,-34.15643l16.86262,-32.7857z" data-paper-data="{&quot;index&quot;:null}" fill="#2d332d" stroke="#1e251e" stroke-width="1.5" stroke-linecap="round"/><path d="M481.91171,35.64027l21.24432,3.45379l-8.3173,63.46513l-14.1369,0.38477l-21.9359,-23.66572l6.148,-18.41744l-23.80833,-24.88802l17.51523,-16.60472z" data-paper-data="{&quot;index&quot;:null}" fill="#273327" stroke="#1e251e" stroke-width="1.5" stroke-linecap="round"/><path d="M501.00746,92.70034l-10.72293,71.24092l-31.6936,-0.12771l-22.62252,-17.70513l-0.31427,-45.33377l22.55784,-21.05691z" data-paper-data="{&quot;index&quot;:null}" fill="#3c453c" stroke="#1e251e" stroke-width="1.5" stroke-linecap="round"/><path d="M466.96504,242.13489l8.22849,39.70569l-77.58975,15.1602l-10.06583,-93.56778l56.03874,-13.81701z" data-paper-data="{&quot;index&quot;:null}" fill="#2d332d" stroke="#1e251e" stroke-width="1.5" stroke-linecap="round"/><path d="M382.50531,213.32859l-21.39662,2.3312l-8.89243,-63.3871l13.52339,-4.13737l27.4483,16.96588l-1.01879,19.38975l29.5787,17.64513l-12.45811,20.67113z" data-paper-data="{&quot;index&quot;:null}" fill="#394639" stroke="#1e251e" stroke-width="1.5" stroke-linecap="round"/><path d="M348.89721,163.41871l-8.64546,-71.52277l30.58202,-8.32106l26.522,11.03781l12.38124,43.61141l-16.13225,26.3059z" data-paper-data="{&quot;index&quot;:null}" fill="#2d332d" stroke="#1e251e" stroke-width="1.5" stroke-linecap="round"/><path d="M409.73701,138.2241l29.59409,8.02745l15.03643,24.97811l18.89582,17.29012l8.52178,35.10526l-14.7429,19.00387l-31.16869,1.3278l-15.03651,-41.17224l-28.66788,-18.29351l0.67917,-18.32454z" data-paper-data="{&quot;index&quot;:null}" fill="#3c453c" stroke="#1e251e" stroke-width="1.5" stroke-linecap="round"/><path d="M327.67711,95.53981l-0.75375,-32.79034l19.66646,-23.37864l11.18857,-24.84698l31.24289,-19.98385l22.44284,8.94079l10.17835,31.39042l-35.20193,28.58441l-9.35939,35.14494l-17.77328,5.19721z" data-paper-data="{&quot;index&quot;:null}" fill="#2d332d" stroke="#1e251e" stroke-width="1.5" stroke-linecap="round"/><path d="M435.65415,100.77465l-26.38562,-15.62208l-7.83798,-28.08142l-13.60618,-21.69958l1.13939,-36.10681l19.27322,-14.38898l30.39583,7.02451l3.52344,43.69022l22.75769,25.2703l-5.53685,17.48123z" data-paper-data="{&quot;index&quot;:null}" fill="#394639" stroke="#1e251e" stroke-width="1.5" stroke-linecap="round"/><path d="M50.05725,144.88551l-11.74839,38.81013l-75.40035,-23.76525l35.87642,-87.00076l55.82798,14.64536z" data-paper-data="{&quot;index&quot;:null}" fill="#2d332d" stroke="#1e251e" stroke-width="1.5" stroke-linecap="round"/><path d="M57.3693,333.07352l-2.02768,40.49863l-78.90791,-4.85202l13.80311,-93.08987l57.71238,0.72898z" data-paper-data="{&quot;index&quot;:null}" fill="#2d332d" stroke="#1e251e" stroke-width="1.5" stroke-linecap="round"/><path d="M-17.12397,283.94101l-21.29474,-3.12799l7.34421,-63.58508l14.12934,-0.60126l22.29583,23.32693l-5.86516,18.50945l24.18676,24.52042l-17.25884,16.87106z" data-paper-data="{&quot;index&quot;:null}" fill="#273327" stroke="#1e251e" stroke-width="1.5" stroke-linecap="round"/><path d="M-37.09148,227.18013l9.63045,-71.39681l31.69183,-0.35777l22.89107,17.35654l1.00862,45.32365l-22.23266,21.39997z" data-paper-data="{&quot;index&quot;:null}" fill="#3c453c" stroke="#1e251e" stroke-width="1.5" stroke-linecap="round"/><path d="M28.13049,218.10573l26.62181,15.21609l8.26719,27.95806l13.93697,21.48863l-0.58619,36.12003l-19.05056,14.68252l-30.49985,-6.55811l-4.19223,-43.63112l-23.14208,-24.91874l5.26843,-17.56399z" data-paper-data="{&quot;index&quot;:null}" fill="#2d332d" stroke="#1e251e" stroke-width="1.5" stroke-linecap="round"/><path d="M-11.26591,126.8696l-10.77764,-79.28488l23.37566,-2.61316l24.8738,10.3099l16.91547,30.7712l-7.55935,36.08471z" data-paper-data="{&quot;index&quot;:null}" fill="#394639" stroke="#1e251e" stroke-width="1.5" stroke-linecap="round"/><path d="M95.28533,206.27471l40.0003,-6.65029l12.07693,78.12905l-93.8929,6.35408l-11.58789,-56.54177z" data-paper-data="{&quot;index&quot;:null}" fill="#394639" stroke="#1e251e" stroke-width="1.5" stroke-linecap="round"/><path d="M363.54914,204.18718l-8.52629,19.7624l-59.52551,-23.53114l3.07157,-13.80454l28.29751,-15.5081l16.36422,10.45046l29.93922,-17.02625l11.83629,21.03336z" data-paper-data="{&quot;index&quot;:null}" fill="#273327" stroke="#1e251e" stroke-width="1.5" stroke-linecap="round"/><path d="M71.07524,339.71881l-40.51393,-1.69461l4.20303,-78.94514l93.20023,13.0372l-0.25441,57.71642z" data-paper-data="{&quot;index&quot;:null}" fill="#2d332d" stroke="#1e251e" stroke-width="1.5" stroke-linecap="round"/><path d="M119.59355,264.82407l2.95278,-21.31974l63.64333,6.82112l0.71741,14.12393l-23.14281,22.48688l-18.55705,-5.71277l-24.32071,24.38756l-17.0124,-17.11953z" data-paper-data="{&quot;index&quot;:null}" fill="#273327" stroke="#1e251e" stroke-width="1.5" stroke-linecap="round"/><path d="M176.18833,244.3905l71.47358,9.04306l0.61835,31.68782l-17.16772,23.03301l-45.31383,1.38127l-21.58205,-22.05595z" data-paper-data="{&quot;index&quot;:null}" fill="#3c453c" stroke="#1e251e" stroke-width="1.5" stroke-linecap="round"/><path d="M185.79871,309.53565l-14.99667,26.74603l-27.88915,8.4968l-21.3733,14.11318l-36.12363,-0.28917l-14.83866,-18.92919l6.30709,-30.55275l43.59518,-4.55086l24.72762,-23.3462l17.60671,5.12383z" data-paper-data="{&quot;index&quot;:null}" fill="#212921" stroke="#1e251e" stroke-width="1.5" stroke-linecap="round"/><path d="M247.19195,240.35005l31.98565,7.25898l17.88185,24.77034l21.37174,16.90579l11.76856,35.17064l-14.13993,19.58777l-32.92441,2.22266l-19.14518,-41.10604l-31.80501,-17.64104l-0.70974,-18.50396z" data-paper-data="{&quot;index&quot;:null}" fill="#2d332d" stroke="#1e251e" stroke-width="1.5" stroke-linecap="round"/><path d="M215.80415,343.7969l21.58058,-21.78368l29.14488,-0.75914l24.36093,-7.90853l34.74086,9.90318l9.25897,22.19846l-14.21931,27.76799l-43.23188,-7.22876l-30.05396,15.91413l-15.60515,-9.62961z" data-paper-data="{&quot;index&quot;:null}" fill="#212921" stroke="#1e251e" stroke-width="1.5" stroke-linecap="round"/><path d="M389.80962,281.19001l-17.90835,77.98424l-22.79292,-5.80802l-19.63202,-18.42779l-4.96222,-34.76171l19.81244,-31.09208z" data-paper-data="{&quot;index&quot;:null}" fill="#394639" stroke="#1e251e" stroke-width="1.5" stroke-linecap="round"/><path d="M234.51878,67.70398l20.6945,4.8907l11.61134,37.68834l41.3905,29.50389l-11.09448,34.43424l-25.79014,10.62176l-36.61686,-20.35043l-13.50262,-26.45472l-23.28702,-24.51072l0.15072,-35.55846z" fill="#394639" stroke="#1e251e" stroke-width="1.5" stroke-linecap="round"/><path d="M349.50821,258.15809l-30.80402,48.80945l-85.60309,-39.09427l38.88307,-68.83391l35.07646,20.34434z" fill="#394639" stroke="#1e251e" stroke-width="1.5" stroke-linecap="round"/><path d="M176.05998,183.87834l-66.55495,-7.08715l-3.10855,-109.0872l91.52752,5.25064l-3.22746,46.91197z" fill="#3c453c" stroke="#1e251e" stroke-width="1.5" stroke-linecap="round"/><path d="M177.80274,165.67742l17.55609,21.79716l-31.21841,24.9129l4.21144,22.11888l-28.87713,23.79833l-16.18712,-2.63294l0.27641,-74.22584l24.95014,-0.67708z" fill="#394639" stroke="#1e251e" stroke-width="1.5" stroke-linecap="round"/><path d="M306.06015,193.91762l66.59372,-6.71305l25.41485,106.13089l-90.65883,13.63207l-6.46218,-46.57672z" fill="#2d332d" stroke="#1e251e" stroke-width="1.5" stroke-linecap="round"/><path d="M368.57966,54.20441l6.42527,20.49001l-27.87914,31.6477l-4.91835,52.35455l-36.83171,10.38411l-23.06889,-15.89539l-0.83021,-43.00017l16.7679,-26.78453l9.89513,-34.01775l32.11652,-20.3766z" fill="#2d332d" stroke="#1e251e" stroke-width="1.5" stroke-linecap="round"/><path d="M350.913,213.29609l-13.2999,16.59199l-39.02389,-5.68952l-44.41372,24.71991l-26.33884,-24.8006l1.47628,-27.85272l34.09737,-24.33728l29.68951,-0.84045l32.13342,-10.5121l32.05159,15.39876z" fill="#394639" stroke="#1e251e" stroke-width="1.5" stroke-linecap="round"/><path d="M187.81294,144.37106l33.74232,26.25535l8.10636,39.90485l-14.27516,27.77018l-22.63897,15.2143l-49.90983,-78.22153z" fill="#394639" stroke="#1e251e" stroke-width="1.5" stroke-linecap="round"/><path d="M336.08586,249.88524l23.54725,-5.29406l7.40323,33.63691l18.71953,5.1555l7.43138,31.40103l-8.19563,11.52526l-57.3368,-28.45155l8.96777,-19.56602z" fill="#273327" stroke="#1e251e" stroke-width="1.5" stroke-linecap="round"/><path d="M89.75,280l-5,57.5l-94,4.5l3,-79l40.5,2z" fill="#2d332d" stroke="#1e251e" stroke-width="1.5" stroke-linecap="round"/><path d="M-5.75,320l34.5,-13l33,12l14,23l1,23.5l-80,1.5z" fill="#2d332d" stroke="#1e251e" stroke-width="1.5" stroke-linecap="round"/><path d="M62.25,319l18.5,-15.5l22,26.5l19,-4l21,24.5l-2,14l-64,1l-1,-21.5z" fill="#273327" stroke="#1e251e" stroke-width="1.5" stroke-linecap="round"/><path d="M122.25,325.5l23.5,-20l45,5.5l15,24.5l-3.5,31.5l-72,2.5z" fill="#394639" stroke="#1e251e" stroke-width="1.5" stroke-linecap="round"/><path d="M233.1011,323.53709l20.13906,-54.08944l91.80122,20.70718l-23.93963,75.34517l-38.50322,-12.71817z" fill="#2d332d" stroke="#1e251e" stroke-width="1.5" stroke-linecap="round"/><path d="M269.9979,293.27365l-21.96099,10.01076l-14.14436,-31.40361l-19.37895,-1.20678l-13.71337,-29.20947l5.65774,-12.96109l61.95309,16.08774l-4.76441,20.98929z" fill="#273327" stroke="#1e251e" stroke-width="1.5" stroke-linecap="round"/><path d="M213.89847,271.02272l-27.97919,13.01595l-41.90806,-17.2906l-7.93024,-27.61089l11.76607,-29.42889l70.06357,16.77341z" fill="#3c453c" stroke="#1e251e" stroke-width="1.5" stroke-linecap="round"/><path d="M215.61068,270.45852l18.28188,1.42228l14.89272,30.57297l39.18106,19.6493l-4.88588,30.81198l-20.56614,12.47133l-33.89945,-12.48308l-15.01418,-20.75029l-23.09331,-17.79604l-4.5881,-30.3183z" fill="#212921" stroke="#1e251e" stroke-width="1.5" stroke-linecap="round"/><path d="M157.48994,230.00121l-7.19696,17.06178l-35.9851,5.27607l-32.42498,31.69961l-30.01944,-13.70366l-6.31379,-23.31855l23.42787,-28.75078l25.96413,-8.27169l25.4756,-16.86192l32.48868,4.50118z" fill="#2d332d" stroke="#1e251e" stroke-width="1.5" stroke-linecap="round"/><path d="M120.75,326.5l-18,3.5l-22.5,-25.5l-43,-8.5l-3.5,-31l16.5,-17.5l36,3l20,16l27,11l12.5,28z" fill="#394639" stroke="#1e251e" stroke-width="1.5" stroke-linecap="round"/><path d="M359.4013,334.30431l34.9826,-11.63906l32.50479,13.28303l13.08862,23.53058l0.079,23.52114l-79.99738,-1.63383z" fill="#394639" stroke="#1e251e" stroke-width="1.5" stroke-linecap="round"/><path d="M378.09963,29.00634l52.01387,25.01613l-29.04141,89.5145l-72.83132,-30.75059l16.1967,-37.17415z" fill="#3c453c" stroke="#1e251e" stroke-width="1.5" stroke-linecap="round"/><path d="M371.41712,43.28722l-7.95392,-22.78673l32.56875,-11.20386l2.97946,-19.18653l30.34433,-10.97595l12.38742,6.82289l-21.70328,60.21601l-20.46371,-6.66981z" fill="#394639" stroke="#1e251e" stroke-width="1.5" stroke-linecap="round"/><path d="M429.5236,284.55864l57.69444,-1.61289l15.22737,92.86752l-78.82433,6.06011l-2.64777,-40.46282z" fill="#2d332d" stroke="#1e251e" stroke-width="1.5" stroke-linecap="round"/><path d="M480.18942,374.85384l-16.86262,-32.7857l8.14479,-34.15643l21.24681,-16.54005l23.23118,-3.68266l10.64499,79.3028z" fill="#2d332d" stroke="#1e251e" stroke-width="1.5" stroke-linecap="round"/><path d="M471.41438,307.41499l-17.51523,-16.60472l23.80833,-24.88801l-6.14799,-18.41744l21.9359,-23.66572l14.1369,0.38477l8.3173,63.46513l-21.24432,3.45379z" fill="#273327" stroke="#1e251e" stroke-width="1.5" stroke-linecap="round"/><path d="M471.00555,247.06531l-22.55784,-21.05691l0.31427,-45.33377l22.62252,-17.70513l31.69359,-0.12771l10.72293,71.24092z" fill="#3c453c" stroke="#1e251e" stroke-width="1.5" stroke-linecap="round"/><path d="M456.37024,137.16705l-56.03873,-13.81701l10.06583,-93.56778l77.58974,15.1602l-8.22848,39.7057z" fill="#2d332d" stroke="#1e251e" stroke-width="1.5" stroke-linecap="round"/><path d="M422.0833,103.97585l12.45811,20.67113l-29.5787,17.64513l1.01879,19.38975l-27.44829,16.96587l-13.52339,-4.13736l8.89243,-63.38711l21.39662,2.3312z" fill="#394639" stroke="#1e251e" stroke-width="1.5" stroke-linecap="round"/><path d="M419.73659,200.03383l16.13225,26.3059l-12.38125,43.61141l-26.522,11.03782l-30.58202,-8.32106l8.64547,-71.52277z" fill="#394639" stroke="#1e251e" stroke-width="1.5" stroke-linecap="round"/><path d="M405.64189,160.61668l-0.67917,-18.32454l28.66787,-18.29352l15.03652,-41.17224l31.16868,1.32779l14.7429,19.00387l-8.52178,35.10526l-18.89582,17.29011l-15.03643,24.9781l-29.59409,8.02744z" fill="#394639" stroke="#1e251e" stroke-width="1.5" stroke-linecap="round"/><path d="M372.10141,222.98533l17.77328,5.19721l9.35939,35.14493l35.20193,28.58441l-10.17834,31.39041l-22.44284,8.94079l-31.24288,-19.98386l-11.18857,-24.84698l-19.66646,-23.37865l0.75375,-32.79035z" fill="#394639" stroke="#1e251e" stroke-width="1.5" stroke-linecap="round"/><path d="M472.17065,248.44102l5.53684,17.48123l-22.75768,25.27029l-3.52344,43.69022l-30.39583,7.0245l-19.27323,-14.38898l-1.13938,-36.10681l13.60618,-21.69958l7.83798,-28.08142l26.38561,-15.62207z" fill="#394639" stroke="#1e251e" stroke-width="1.5" stroke-linecap="round"/><path d="M67.40648,239.20807l-55.82798,14.64536l-35.87642,-87.00077l75.40035,-23.76524l11.74838,38.81012z" fill="#2d332d" stroke="#1e251e" stroke-width="1.5" stroke-linecap="round"/><path d="M60.74274,50.42383l-57.71238,0.72898l-13.80311,-93.08988l78.90791,-4.85203l2.02769,40.49863z" fill="#2d332d" stroke="#1e251e" stroke-width="1.5" stroke-linecap="round"/><path d="M19.20699,26.9285l17.25884,16.87106l-24.18675,24.52042l5.86516,18.50945l-22.29583,23.32694l-14.12934,-0.60126l-7.34421,-63.58508l21.29474,-3.12798z" fill="#273327" stroke="#1e251e" stroke-width="1.5" stroke-linecap="round"/><path d="M18.69138,87.27735l22.23266,21.39996l-1.00862,45.32365l-22.89107,17.35654l-31.69182,-0.35777l-9.63046,-71.39681z" fill="#3c453c" stroke="#1e251e" stroke-width="1.5" stroke-linecap="round"/><path d="M17.54751,85.88399l-5.26843,-17.56399l23.14208,-24.91875l4.19224,-43.63113l30.49986,-6.55811l19.05056,14.68251l0.58619,36.12002l-13.93697,21.48862l-8.26719,27.95807l-26.62181,15.21609z" fill="#2d332d" stroke="#1e251e" stroke-width="1.5" stroke-linecap="round"/><path d="M48.35558,204.64568l7.55935,36.08471l-16.91547,30.7712l-24.8738,10.3099l-23.37566,-2.61316l10.77764,-79.28488z" fill="#394639" stroke="#1e251e" stroke-width="1.5" stroke-linecap="round"/><path d="M54.67533,99.21727l11.58789,-56.54177l93.8929,6.35408l-12.07693,78.12905l-40.0003,-6.65029z" fill="#394639" stroke="#1e251e" stroke-width="1.5" stroke-linecap="round"/><path d="M140.50372,-3.04963l0.2544,57.71642l-93.20023,13.0372l-4.20303,-78.94514l40.51393,-1.69461z" fill="#2d332d" stroke="#1e251e" stroke-width="1.5" stroke-linecap="round"/><path d="M116.66764,38.29153l17.0124,-17.11953l24.32071,24.38756l18.55705,-5.71278l23.14281,22.48689l-0.71741,14.12392l-63.64332,6.82113l-2.95278,-21.31974z" fill="#273327" stroke="#1e251e" stroke-width="1.5" stroke-linecap="round"/><path d="M177.01022,39.30335l21.58205,-22.05595l45.31383,1.38127l17.16773,23.03301l-0.61835,31.68782l-71.47358,9.04306z" fill="#3c453c" stroke="#1e251e" stroke-width="1.5" stroke-linecap="round"/><path d="M175.60747,40.43572l-17.60671,5.12383l-24.72762,-23.3462l-43.59518,-4.55086l-6.30709,-30.55275l14.83866,-18.92919l36.12362,-0.28917l21.3733,14.11319l27.88915,8.4968l14.99667,26.74603z" fill="#212921" stroke="#1e251e" stroke-width="1.5" stroke-linecap="round"/><path d="M244.26904,57.76785l0.70974,-18.50396l31.805,-17.64104l19.14518,-41.10604l32.92441,2.22266l14.13993,19.58777l-11.76856,35.17064l-21.37174,16.90579l-17.88185,24.77034l-31.98565,7.25899z" fill="#2d332d" stroke="#1e251e" stroke-width="1.5" stroke-linecap="round"/><path d="M244.57362,-45.48786l15.60515,-9.62961l30.05396,15.91412l43.23188,-7.22876l14.21931,27.76799l-9.25898,22.19845l-34.74085,9.90318l-24.36093,-7.90854l-29.14487,-0.75914l-21.58058,-21.78368z" fill="#394639" stroke="#1e251e" stroke-width="1.5" stroke-linecap="round"/><path d="M357.1201,57.69839l-19.81244,-31.09208l4.96222,-34.76171l19.63202,-18.42779l22.79292,-5.80801l17.90835,77.98424z" fill="#394639" stroke="#1e251e" stroke-width="1.5" stroke-linecap="round"/></g></g></svg>