<svg version="1.1" xmlns="http://www.w3.org/2000/svg" xmlns:xlink="http://www.w3.org/1999/xlink" width="30.29167" height="30.29167" viewBox="0,0,30.29167,30.29167"><defs><linearGradient x1="240" y1="165.60417" x2="240" y2="194.39583" gradientUnits="userSpaceOnUse" id="color-1"><stop offset="0" stop-color="#66b8ff"/><stop offset="1" stop-color="#6766ff"/></linearGradient></defs><g transform="translate(-224.85417,-164.85416)"><g data-paper-data="{&quot;isPaintingLayer&quot;:true}" fill-rule="nonzero" stroke-linejoin="miter" stroke-miterlimit="10" stroke-dasharray="" stroke-dashoffset="0" style="mix-blend-mode: normal"><path d="M225.60417,194.39583v-28.79167h28.79167v28.79167z" fill="url(#color-1)" stroke="#ffffff" stroke-width="1.5" stroke-linecap="butt"/><path d="M230.24837,179.93317c2.96529,-0.03967 5.47547,0.41491 8.37531,-0.45634l0.4577,-0.13751c0,0 0.17425,-0.05235 0.34002,0.01506c0.05752,-0.08733 0.27464,-0.36143 0.63184,-0.16927c0.42088,0.2264 0.19447,0.64728 0.19447,0.64728l-0.25241,0.36272c-2.15837,1.41774 -1.27955,5.27682 -1.64741,7.3972c-0.09647,0.5414 -0.24458,1.776 -0.53164,2.22642c-0.82678,1.29731 -5.59394,2.82834 -6.67928,1.4623c-0.38241,-0.48132 -0.33397,-1.53221 -0.4089,-2.1204c-0.28857,-2.26503 1.36175,-6.87639 -0.99878,-8.37149c0,0 -0.3933,-0.2715 -0.12181,-0.6648c0.17914,-0.2595 0.4113,-0.22958 0.54853,-0.1792c0.05439,-0.01144 0.09236,-0.01196 0.09236,-0.01196zM231.67622,189.03982c0.05652,0.4436 -0.00219,1.29105 0.23351,1.67867c0.24159,0.39732 1.54708,0.00465 1.87942,-0.06512c2.14476,-0.45026 3.25827,-1.08704 3.617,-3.22445c0.37158,-2.14179 -0.17892,-4.95403 1.01502,-6.90352c-2.50437,0.64499 -4.75589,0.39354 -7.27714,0.3634c1.51574,2.20016 0.21499,5.66131 0.53219,8.15103z" fill="#686868" stroke="none" stroke-width="0.5" stroke-linecap="butt"/><path d="M231.9777,182.20437l-0.80275,-2.67185l19.90154,-5.97939l0.80275,2.67185z" fill="#919191" stroke="#686868" stroke-width="1.5" stroke-linecap="butt"/><path d="M231.92976,182.91988l-1.28577,-4.2795l5.9483,-1.78716l1.28577,4.2795z" fill="#919191" stroke="none" stroke-width="0" stroke-linecap="butt"/><path d="M229.40653,180.06383l-1.28577,-4.2795l21.66995,-6.5107l1.28577,4.2795z" fill="#707070" stroke="#5a5a5a" stroke-width="1.5" stroke-linecap="butt"/><path d="M250.8166,172.68816l-0.74867,-2.49186l0.87733,-0.26359l0.74867,2.49185z" fill="#8c8c8c" stroke="#5a5a5a" stroke-width="1.5" stroke-linecap="butt"/><path d="M248.88946,168.18413l0.19321,0.64306" fill="none" stroke="#5a5a5a" stroke-width="1.5" stroke-linecap="round"/><path d="M228.23613,174.12648l0.28981,0.96459" fill="none" stroke="#5a5a5a" stroke-width="1.5" stroke-linecap="round"/><path d="M239.40135,178.51185c0.3453,0.36658 -0.02128,0.71187 -0.02128,0.71187l-0.20409,0.17688c-0.44079,0.63855 -0.63024,1.14037 -0.94936,1.4959c-0.91115,1.92653 -0.45065,4.55397 -0.79776,6.55475c-0.35873,2.13741 -1.50156,2.78303 -3.64632,3.23329c-0.33235,0.06977 -1.64638,0.4593 -1.88798,0.06198c-0.23569,-0.38762 -0.18213,-1.23853 -0.23865,-1.68213c-0.3172,-2.48972 0.98222,-5.99885 -0.53352,-8.199c1.98286,0.02371 3.8242,0.18311 5.73841,-0.06365l0.13991,-0.34737c0.22435,-0.55706 0.4196,-1.03928 0.75955,-1.53727c0,0 0.26568,-0.38487 0.65587,-0.15681l0.27333,-0.26972c0,0 0.36657,-0.3453 0.71187,0.02128z" fill="#919191" stroke="none" stroke-width="0.5" stroke-linecap="butt"/><path d="M243.91547,178.71554c0.50135,-0.04751 0.54885,0.45384 0.54885,0.45384l0.04239,0.48862c-0.09609,2.99062 -3.35529,4.80379 -6.16825,4.72732c0,0 -0.50337,-0.01504 -0.48832,-0.51841c0.01505,-0.50337 0.51841,-0.48832 0.51841,-0.48832c2.25252,0.07441 5.06545,-1.33625 5.13143,-3.75068l-0.03835,-0.36351c0,0 -0.04751,-0.50135 0.45384,-0.54885z" fill="#686868" stroke="none" stroke-width="0.5" stroke-linecap="butt"/><path d="M241.63571,181.51361c-0.04458,0.50162 -0.5462,0.45704 -0.5462,0.45704l-0.42068,-0.03826c-1.03927,-0.08626 -1.36507,-0.43214 -1.38911,-1.47471c0,0 0.01504,-0.50337 0.51841,-0.48832c0.50337,0.01505 0.48832,0.51841 0.48832,0.51841c-0.0658,0.4577 -0.04834,0.47622 0.41247,0.43788l0.47975,0.04176c0,0 0.50162,0.04458 0.45704,0.5462z" fill="#686868" stroke="none" stroke-width="0.5" stroke-linecap="butt"/><path d="M233.51645,181.83148c0.32492,1.49392 -0.07108,3.14909 0.0031,4.68124c0.01794,0.37059 0.083,0.74286 0.0467,1.11211c-0.03492,0.35521 -0.47744,1.00978 -0.12459,1.0635c0.43177,0.06573 1.23832,-0.01506 1.67091,-0.14503c0.73652,-0.51473 0.37822,-1.0148 0.34341,-1.81421c-0.05248,-1.20506 0.08003,-2.69579 0.27861,-3.87293c0.01571,-0.09314 0.14049,-0.98698 0.33407,-1.46964c-0.57926,0.15777 -1.63802,0.27223 -1.78702,0.29474c-0.25783,0.03192 -0.51429,0.08186 -0.76519,0.15023zM232.5478,181.32772c0.06671,-0.1229 0.16867,-0.19471 0.16867,-0.19471l0.36208,-0.22341c0.34763,-0.10325 0.70461,-0.17898 1.0642,-0.22591c0.51192,-0.07736 2.72785,-0.62887 3.08072,-0.15567c0.19135,0.2566 -0.42462,2.09856 -0.49652,2.5003c-0.34903,1.95008 0.56493,5.19116 -1.17379,6.42069c-0.55403,0.16646 -2.10447,0.43904 -2.63802,0.09792c-0.73104,-0.46738 -0.42126,-1.37854 -0.35095,-2.02348c0.17153,-1.57345 0.35253,-4.25013 -0.09625,-5.72928c0,0 -0.08106,-0.26981 0.07987,-0.46645z" fill="#5a5a5a" stroke="none" stroke-width="0.5" stroke-linecap="butt"/><path d="M234.27737,181.64795c0.149,-0.02251 1.22361,-0.13518 1.80286,-0.29295c-0.19358,0.48266 -0.31589,1.37752 -0.3316,1.47066c-0.19857,1.17714 -0.33148,2.72903 -0.279,3.93409c0.03482,0.79941 0.38326,1.30217 -0.35325,1.8169c-0.43259,0.12997 -1.25409,0.20908 -1.68586,0.14335c-0.35286,-0.05372 0.08704,-0.70933 0.12196,-1.06454c0.0363,-0.36925 -0.03639,-0.74627 -0.05433,-1.11686c-0.07418,-1.53215 0.33156,-3.24467 0.00663,-4.73859c0.2509,-0.06837 0.51476,-0.12013 0.77259,-0.15205z" data-paper-data="{&quot;noHover&quot;:false,&quot;origItem&quot;:[&quot;Path&quot;,{&quot;applyMatrix&quot;:true,&quot;selected&quot;:true,&quot;segments&quot;:[[[458.23779,365.42124],[0.74732,-0.20366],[0.96781,4.44978],7],[[458.24702,379.36477],[-0.22094,-4.56367],[0.05344,1.10385],7],[[458.38611,382.67729],[0.10812,-1.09984],[-0.10401,1.05803],7],[[458.01502,385.84502],[-1.05102,-0.16001],[1.28606,0.19579],7],[[462.99199,385.41302],[-1.2885,0.38713],[2.19379,-1.53318],7],[[464.01486,380.00922],[0.1037,2.38113],[-0.15632,-3.58939],7],[[464.84472,368.47331],[-0.59147,3.50624],[0.0468,-0.27742],7],[[465.83978,364.09585],[-0.57661,1.43764],[-1.72537,0.46992],7],[[460.51698,364.97376],[0.4438,-0.06706],[-0.76796,0.09508],7]],&quot;closed&quot;:true}]}" fill="#707070" stroke="none" stroke-width="0.5" stroke-linecap="butt"/></g></g></svg>